%TF.GenerationSoftware,KiCad,Pcbnew,(5.1.9-0-10_14)*%
%TF.CreationDate,2021-05-17T17:27:38+01:00*%
%TF.ProjectId,Battery,42617474-6572-4792-9e6b-696361645f70,1*%
%TF.SameCoordinates,Original*%
%TF.FileFunction,Copper,L1,Top*%
%TF.FilePolarity,Positive*%
%FSLAX46Y46*%
G04 Gerber Fmt 4.6, Leading zero omitted, Abs format (unit mm)*
G04 Created by KiCad (PCBNEW (5.1.9-0-10_14)) date 2021-05-17 17:27:38*
%MOMM*%
%LPD*%
G01*
G04 APERTURE LIST*
%TA.AperFunction,NonConductor*%
%ADD10C,0.080000*%
%TD*%
%TA.AperFunction,EtchedComponent*%
%ADD11C,0.250000*%
%TD*%
%TA.AperFunction,EtchedComponent*%
%ADD12C,0.500000*%
%TD*%
%TA.AperFunction,SMDPad,CuDef*%
%ADD13R,0.900000X0.800000*%
%TD*%
%TA.AperFunction,SMDPad,CuDef*%
%ADD14R,0.800000X0.900000*%
%TD*%
%TA.AperFunction,SMDPad,CuDef*%
%ADD15R,0.700000X0.400000*%
%TD*%
%TA.AperFunction,ComponentPad*%
%ADD16R,1.700000X1.700000*%
%TD*%
%TA.AperFunction,ComponentPad*%
%ADD17O,1.700000X1.700000*%
%TD*%
%TA.AperFunction,SMDPad,CuDef*%
%ADD18R,0.500000X1.000000*%
%TD*%
%TA.AperFunction,SMDPad,CuDef*%
%ADD19C,0.100000*%
%TD*%
%TA.AperFunction,SMDPad,CuDef*%
%ADD20R,1.000000X0.500000*%
%TD*%
%TA.AperFunction,SMDPad,CuDef*%
%ADD21R,0.800000X0.500000*%
%TD*%
%TA.AperFunction,SMDPad,CuDef*%
%ADD22R,3.650000X0.500000*%
%TD*%
%TA.AperFunction,SMDPad,CuDef*%
%ADD23R,0.500000X2.500000*%
%TD*%
%TA.AperFunction,SMDPad,CuDef*%
%ADD24R,3.700000X1.100000*%
%TD*%
%TA.AperFunction,SMDPad,CuDef*%
%ADD25R,1.560000X0.650000*%
%TD*%
%TA.AperFunction,SMDPad,CuDef*%
%ADD26R,1.750000X2.000000*%
%TD*%
%TA.AperFunction,ComponentPad*%
%ADD27C,0.350000*%
%TD*%
%TA.AperFunction,SMDPad,CuDef*%
%ADD28R,0.200000X0.200000*%
%TD*%
%TA.AperFunction,SMDPad,CuDef*%
%ADD29C,0.500000*%
%TD*%
%TA.AperFunction,SMDPad,CuDef*%
%ADD30R,2.000000X1.750000*%
%TD*%
%TA.AperFunction,SMDPad,CuDef*%
%ADD31R,0.500000X0.200000*%
%TD*%
%TA.AperFunction,SMDPad,CuDef*%
%ADD32R,0.200000X0.500000*%
%TD*%
%TA.AperFunction,SMDPad,CuDef*%
%ADD33R,5.490000X8.340000*%
%TD*%
%TA.AperFunction,SMDPad,CuDef*%
%ADD34R,1.140000X0.600000*%
%TD*%
%TA.AperFunction,ComponentPad*%
%ADD35C,1.700000*%
%TD*%
%TA.AperFunction,ComponentPad*%
%ADD36C,2.000000*%
%TD*%
%TA.AperFunction,SMDPad,CuDef*%
%ADD37R,1.140000X0.300000*%
%TD*%
%TA.AperFunction,ComponentPad*%
%ADD38C,0.600000*%
%TD*%
%TA.AperFunction,ViaPad*%
%ADD39C,0.800000*%
%TD*%
%TA.AperFunction,Conductor*%
%ADD40C,0.250000*%
%TD*%
%TA.AperFunction,Conductor*%
%ADD41C,0.500000*%
%TD*%
%TA.AperFunction,Conductor*%
%ADD42C,0.254000*%
%TD*%
%TA.AperFunction,Conductor*%
%ADD43C,0.100000*%
%TD*%
G04 APERTURE END LIST*
D10*
X118026190Y-107071428D02*
X118050000Y-107095238D01*
X118073809Y-107142857D01*
X118073809Y-107261904D01*
X118050000Y-107309523D01*
X118026190Y-107333333D01*
X117978571Y-107357142D01*
X117930952Y-107357142D01*
X117859523Y-107333333D01*
X117573809Y-107047619D01*
X117573809Y-107357142D01*
X118073809Y-107666666D02*
X118073809Y-107714285D01*
X118050000Y-107761904D01*
X118026190Y-107785714D01*
X117978571Y-107809523D01*
X117883333Y-107833333D01*
X117764285Y-107833333D01*
X117669047Y-107809523D01*
X117621428Y-107785714D01*
X117597619Y-107761904D01*
X117573809Y-107714285D01*
X117573809Y-107666666D01*
X117597619Y-107619047D01*
X117621428Y-107595238D01*
X117669047Y-107571428D01*
X117764285Y-107547619D01*
X117883333Y-107547619D01*
X117978571Y-107571428D01*
X118026190Y-107595238D01*
X118050000Y-107619047D01*
X118073809Y-107666666D01*
X118026190Y-108023809D02*
X118050000Y-108047619D01*
X118073809Y-108095238D01*
X118073809Y-108214285D01*
X118050000Y-108261904D01*
X118026190Y-108285714D01*
X117978571Y-108309523D01*
X117930952Y-108309523D01*
X117859523Y-108285714D01*
X117573809Y-108000000D01*
X117573809Y-108309523D01*
X117573809Y-108785714D02*
X117573809Y-108500000D01*
X117573809Y-108642857D02*
X118073809Y-108642857D01*
X118002380Y-108595238D01*
X117954761Y-108547619D01*
X117930952Y-108500000D01*
X117764285Y-109000000D02*
X117764285Y-109380952D01*
X118073809Y-109714285D02*
X118073809Y-109761904D01*
X118050000Y-109809523D01*
X118026190Y-109833333D01*
X117978571Y-109857142D01*
X117883333Y-109880952D01*
X117764285Y-109880952D01*
X117669047Y-109857142D01*
X117621428Y-109833333D01*
X117597619Y-109809523D01*
X117573809Y-109761904D01*
X117573809Y-109714285D01*
X117597619Y-109666666D01*
X117621428Y-109642857D01*
X117669047Y-109619047D01*
X117764285Y-109595238D01*
X117883333Y-109595238D01*
X117978571Y-109619047D01*
X118026190Y-109642857D01*
X118050000Y-109666666D01*
X118073809Y-109714285D01*
X118073809Y-110333333D02*
X118073809Y-110095238D01*
X117835714Y-110071428D01*
X117859523Y-110095238D01*
X117883333Y-110142857D01*
X117883333Y-110261904D01*
X117859523Y-110309523D01*
X117835714Y-110333333D01*
X117788095Y-110357142D01*
X117669047Y-110357142D01*
X117621428Y-110333333D01*
X117597619Y-110309523D01*
X117573809Y-110261904D01*
X117573809Y-110142857D01*
X117597619Y-110095238D01*
X117621428Y-110071428D01*
X117764285Y-110571428D02*
X117764285Y-110952380D01*
X117573809Y-111452380D02*
X117573809Y-111166666D01*
X117573809Y-111309523D02*
X118073809Y-111309523D01*
X118002380Y-111261904D01*
X117954761Y-111214285D01*
X117930952Y-111166666D01*
X117907142Y-111880952D02*
X117573809Y-111880952D01*
X118097619Y-111761904D02*
X117740476Y-111642857D01*
X117740476Y-111952380D01*
D11*
%TO.C,Reg1*%
X118000000Y-104500000D02*
X118000000Y-105950000D01*
X118000000Y-104500000D02*
X117500000Y-104500000D01*
X120250000Y-101150000D02*
X120250000Y-100300000D01*
X120250000Y-101150000D02*
X117500000Y-101150000D01*
D12*
X121500000Y-102600000D02*
X121500000Y-104000000D01*
X121500000Y-102750000D02*
X123500000Y-102750000D01*
D11*
X123500000Y-102750000D02*
X123500000Y-104250000D01*
X124500000Y-104250000D02*
X124500000Y-101650000D01*
X124500000Y-101650000D02*
X118000000Y-101650000D01*
X119200000Y-104000000D02*
X118000000Y-104000000D01*
X118000000Y-104000000D02*
X118000000Y-101650000D01*
X119200000Y-105950000D02*
X118000000Y-105950000D01*
X117500000Y-104500000D02*
X117500000Y-101150000D01*
X125250000Y-104250000D02*
X124500000Y-104250000D01*
%TD*%
%TO.P,R13,2*%
%TO.N,GND*%
%TA.AperFunction,SMDPad,CuDef*%
G36*
G01*
X130675000Y-101575000D02*
X130125000Y-101575000D01*
G75*
G02*
X129925000Y-101375000I0J200000D01*
G01*
X129925000Y-100975000D01*
G75*
G02*
X130125000Y-100775000I200000J0D01*
G01*
X130675000Y-100775000D01*
G75*
G02*
X130875000Y-100975000I0J-200000D01*
G01*
X130875000Y-101375000D01*
G75*
G02*
X130675000Y-101575000I-200000J0D01*
G01*
G37*
%TD.AperFunction*%
%TO.P,R13,1*%
%TO.N,Net-(R12-Pad2)*%
%TA.AperFunction,SMDPad,CuDef*%
G36*
G01*
X130675000Y-103225000D02*
X130125000Y-103225000D01*
G75*
G02*
X129925000Y-103025000I0J200000D01*
G01*
X129925000Y-102625000D01*
G75*
G02*
X130125000Y-102425000I200000J0D01*
G01*
X130675000Y-102425000D01*
G75*
G02*
X130875000Y-102625000I0J-200000D01*
G01*
X130875000Y-103025000D01*
G75*
G02*
X130675000Y-103225000I-200000J0D01*
G01*
G37*
%TD.AperFunction*%
%TD*%
%TO.P,R12,2*%
%TO.N,Net-(R12-Pad2)*%
%TA.AperFunction,SMDPad,CuDef*%
G36*
G01*
X127925000Y-104075000D02*
X127925000Y-103525000D01*
G75*
G02*
X128125000Y-103325000I200000J0D01*
G01*
X128525000Y-103325000D01*
G75*
G02*
X128725000Y-103525000I0J-200000D01*
G01*
X128725000Y-104075000D01*
G75*
G02*
X128525000Y-104275000I-200000J0D01*
G01*
X128125000Y-104275000D01*
G75*
G02*
X127925000Y-104075000I0J200000D01*
G01*
G37*
%TD.AperFunction*%
%TO.P,R12,1*%
%TO.N,Net-(Q3-Pad2)*%
%TA.AperFunction,SMDPad,CuDef*%
G36*
G01*
X126275000Y-104075000D02*
X126275000Y-103525000D01*
G75*
G02*
X126475000Y-103325000I200000J0D01*
G01*
X126875000Y-103325000D01*
G75*
G02*
X127075000Y-103525000I0J-200000D01*
G01*
X127075000Y-104075000D01*
G75*
G02*
X126875000Y-104275000I-200000J0D01*
G01*
X126475000Y-104275000D01*
G75*
G02*
X126275000Y-104075000I0J200000D01*
G01*
G37*
%TD.AperFunction*%
%TD*%
D13*
%TO.P,Q3,3*%
%TO.N,DC*%
X129100000Y-101500000D03*
%TO.P,Q3,2*%
%TO.N,Net-(Q3-Pad2)*%
X127100000Y-102450000D03*
%TO.P,Q3,1*%
%TO.N,Net-(Q3-Pad1)*%
X127100000Y-100550000D03*
%TD*%
D14*
%TO.P,Q2,3*%
%TO.N,O*%
X120300000Y-116200000D03*
%TO.P,Q2,2*%
%TO.N,GND*%
X119350000Y-114200000D03*
%TO.P,Q2,1*%
%TO.N,Net-(Q2-Pad1)*%
X121250000Y-114200000D03*
%TD*%
%TO.P,R11,2*%
%TO.N,Net-(D1-Pad2)*%
%TA.AperFunction,SMDPad,CuDef*%
G36*
G01*
X131825000Y-100075000D02*
X131825000Y-99525000D01*
G75*
G02*
X132025000Y-99325000I200000J0D01*
G01*
X132425000Y-99325000D01*
G75*
G02*
X132625000Y-99525000I0J-200000D01*
G01*
X132625000Y-100075000D01*
G75*
G02*
X132425000Y-100275000I-200000J0D01*
G01*
X132025000Y-100275000D01*
G75*
G02*
X131825000Y-100075000I0J200000D01*
G01*
G37*
%TD.AperFunction*%
%TO.P,R11,1*%
%TO.N,+3V3*%
%TA.AperFunction,SMDPad,CuDef*%
G36*
G01*
X130175000Y-100075000D02*
X130175000Y-99525000D01*
G75*
G02*
X130375000Y-99325000I200000J0D01*
G01*
X130775000Y-99325000D01*
G75*
G02*
X130975000Y-99525000I0J-200000D01*
G01*
X130975000Y-100075000D01*
G75*
G02*
X130775000Y-100275000I-200000J0D01*
G01*
X130375000Y-100275000D01*
G75*
G02*
X130175000Y-100075000I0J200000D01*
G01*
G37*
%TD.AperFunction*%
%TD*%
%TO.P,D1,2*%
%TO.N,Net-(D1-Pad2)*%
%TA.AperFunction,SMDPad,CuDef*%
G36*
G01*
X133950000Y-99543750D02*
X133950000Y-100056250D01*
G75*
G02*
X133731250Y-100275000I-218750J0D01*
G01*
X133293750Y-100275000D01*
G75*
G02*
X133075000Y-100056250I0J218750D01*
G01*
X133075000Y-99543750D01*
G75*
G02*
X133293750Y-99325000I218750J0D01*
G01*
X133731250Y-99325000D01*
G75*
G02*
X133950000Y-99543750I0J-218750D01*
G01*
G37*
%TD.AperFunction*%
%TO.P,D1,1*%
%TO.N,Net-(D1-Pad1)*%
%TA.AperFunction,SMDPad,CuDef*%
G36*
G01*
X135525000Y-99543750D02*
X135525000Y-100056250D01*
G75*
G02*
X135306250Y-100275000I-218750J0D01*
G01*
X134868750Y-100275000D01*
G75*
G02*
X134650000Y-100056250I0J218750D01*
G01*
X134650000Y-99543750D01*
G75*
G02*
X134868750Y-99325000I218750J0D01*
G01*
X135306250Y-99325000D01*
G75*
G02*
X135525000Y-99543750I0J-218750D01*
G01*
G37*
%TD.AperFunction*%
%TD*%
%TO.P,R10,2*%
%TO.N,O*%
%TA.AperFunction,SMDPad,CuDef*%
G36*
G01*
X124425000Y-118275000D02*
X124425000Y-117725000D01*
G75*
G02*
X124625000Y-117525000I200000J0D01*
G01*
X125025000Y-117525000D01*
G75*
G02*
X125225000Y-117725000I0J-200000D01*
G01*
X125225000Y-118275000D01*
G75*
G02*
X125025000Y-118475000I-200000J0D01*
G01*
X124625000Y-118475000D01*
G75*
G02*
X124425000Y-118275000I0J200000D01*
G01*
G37*
%TD.AperFunction*%
%TO.P,R10,1*%
%TO.N,USB3.3*%
%TA.AperFunction,SMDPad,CuDef*%
G36*
G01*
X122775000Y-118275000D02*
X122775000Y-117725000D01*
G75*
G02*
X122975000Y-117525000I200000J0D01*
G01*
X123375000Y-117525000D01*
G75*
G02*
X123575000Y-117725000I0J-200000D01*
G01*
X123575000Y-118275000D01*
G75*
G02*
X123375000Y-118475000I-200000J0D01*
G01*
X122975000Y-118475000D01*
G75*
G02*
X122775000Y-118275000I0J200000D01*
G01*
G37*
%TD.AperFunction*%
%TD*%
%TO.P,R9,2*%
%TO.N,+3V3*%
%TA.AperFunction,SMDPad,CuDef*%
G36*
G01*
X119875000Y-110025000D02*
X119875000Y-110575000D01*
G75*
G02*
X119675000Y-110775000I-200000J0D01*
G01*
X119275000Y-110775000D01*
G75*
G02*
X119075000Y-110575000I0J200000D01*
G01*
X119075000Y-110025000D01*
G75*
G02*
X119275000Y-109825000I200000J0D01*
G01*
X119675000Y-109825000D01*
G75*
G02*
X119875000Y-110025000I0J-200000D01*
G01*
G37*
%TD.AperFunction*%
%TO.P,R9,1*%
%TO.N,Net-(Q1-Pad3)*%
%TA.AperFunction,SMDPad,CuDef*%
G36*
G01*
X121525000Y-110025000D02*
X121525000Y-110575000D01*
G75*
G02*
X121325000Y-110775000I-200000J0D01*
G01*
X120925000Y-110775000D01*
G75*
G02*
X120725000Y-110575000I0J200000D01*
G01*
X120725000Y-110025000D01*
G75*
G02*
X120925000Y-109825000I200000J0D01*
G01*
X121325000Y-109825000D01*
G75*
G02*
X121525000Y-110025000I0J-200000D01*
G01*
G37*
%TD.AperFunction*%
%TD*%
%TO.P,R8,2*%
%TO.N,Net-(J2-PadB5)*%
%TA.AperFunction,SMDPad,CuDef*%
G36*
G01*
X127925000Y-107075000D02*
X127925000Y-106525000D01*
G75*
G02*
X128125000Y-106325000I200000J0D01*
G01*
X128525000Y-106325000D01*
G75*
G02*
X128725000Y-106525000I0J-200000D01*
G01*
X128725000Y-107075000D01*
G75*
G02*
X128525000Y-107275000I-200000J0D01*
G01*
X128125000Y-107275000D01*
G75*
G02*
X127925000Y-107075000I0J200000D01*
G01*
G37*
%TD.AperFunction*%
%TO.P,R8,1*%
%TO.N,GND*%
%TA.AperFunction,SMDPad,CuDef*%
G36*
G01*
X126275000Y-107075000D02*
X126275000Y-106525000D01*
G75*
G02*
X126475000Y-106325000I200000J0D01*
G01*
X126875000Y-106325000D01*
G75*
G02*
X127075000Y-106525000I0J-200000D01*
G01*
X127075000Y-107075000D01*
G75*
G02*
X126875000Y-107275000I-200000J0D01*
G01*
X126475000Y-107275000D01*
G75*
G02*
X126275000Y-107075000I0J200000D01*
G01*
G37*
%TD.AperFunction*%
%TD*%
%TO.P,R7,2*%
%TO.N,GND*%
%TA.AperFunction,SMDPad,CuDef*%
G36*
G01*
X126875000Y-110025000D02*
X126875000Y-110575000D01*
G75*
G02*
X126675000Y-110775000I-200000J0D01*
G01*
X126275000Y-110775000D01*
G75*
G02*
X126075000Y-110575000I0J200000D01*
G01*
X126075000Y-110025000D01*
G75*
G02*
X126275000Y-109825000I200000J0D01*
G01*
X126675000Y-109825000D01*
G75*
G02*
X126875000Y-110025000I0J-200000D01*
G01*
G37*
%TD.AperFunction*%
%TO.P,R7,1*%
%TO.N,Net-(J2-PadA5)*%
%TA.AperFunction,SMDPad,CuDef*%
G36*
G01*
X128525000Y-110025000D02*
X128525000Y-110575000D01*
G75*
G02*
X128325000Y-110775000I-200000J0D01*
G01*
X127925000Y-110775000D01*
G75*
G02*
X127725000Y-110575000I0J200000D01*
G01*
X127725000Y-110025000D01*
G75*
G02*
X127925000Y-109825000I200000J0D01*
G01*
X128325000Y-109825000D01*
G75*
G02*
X128525000Y-110025000I0J-200000D01*
G01*
G37*
%TD.AperFunction*%
%TD*%
D15*
%TO.P,Q1,5*%
%TO.N,EN*%
X119550000Y-112200000D03*
%TO.P,Q1,4*%
%TO.N,GND*%
X119550000Y-111700000D03*
%TO.P,Q1,2*%
%TO.N,GPIO0*%
X121050000Y-112200000D03*
%TO.P,Q1,6*%
%TO.N,GND*%
X119550000Y-112700000D03*
%TO.P,Q1,3*%
%TO.N,Net-(Q1-Pad3)*%
X121050000Y-111700000D03*
%TO.P,Q1,1*%
%TO.N,Net-(Q1-Pad1)*%
X121050000Y-112700000D03*
%TD*%
%TO.P,R6,1*%
%TO.N,IO5*%
%TA.AperFunction,SMDPad,CuDef*%
G36*
G01*
X118375000Y-118249900D02*
X118375000Y-117350100D01*
G75*
G02*
X118625100Y-117100000I250100J0D01*
G01*
X119149900Y-117100000D01*
G75*
G02*
X119400000Y-117350100I0J-250100D01*
G01*
X119400000Y-118249900D01*
G75*
G02*
X119149900Y-118500000I-250100J0D01*
G01*
X118625100Y-118500000D01*
G75*
G02*
X118375000Y-118249900I0J250100D01*
G01*
G37*
%TD.AperFunction*%
%TO.P,R6,2*%
%TO.N,Net-(J1-Pad6)*%
%TA.AperFunction,SMDPad,CuDef*%
G36*
G01*
X120200000Y-118249900D02*
X120200000Y-117350100D01*
G75*
G02*
X120450100Y-117100000I250100J0D01*
G01*
X120974900Y-117100000D01*
G75*
G02*
X121225000Y-117350100I0J-250100D01*
G01*
X121225000Y-118249900D01*
G75*
G02*
X120974900Y-118500000I-250100J0D01*
G01*
X120450100Y-118500000D01*
G75*
G02*
X120200000Y-118249900I0J250100D01*
G01*
G37*
%TD.AperFunction*%
%TA.AperFunction,SMDPad,CuDef*%
G36*
G01*
X120700000Y-118425250D02*
X120700000Y-117174750D01*
G75*
G02*
X120949750Y-116925000I249750J0D01*
G01*
X121575250Y-116925000D01*
G75*
G02*
X121825000Y-117174750I0J-249750D01*
G01*
X121825000Y-118425250D01*
G75*
G02*
X121575250Y-118675000I-249750J0D01*
G01*
X120949750Y-118675000D01*
G75*
G02*
X120700000Y-118425250I0J249750D01*
G01*
G37*
%TD.AperFunction*%
%TO.P,R6,1*%
%TO.N,IO5*%
%TA.AperFunction,SMDPad,CuDef*%
G36*
G01*
X117775000Y-118425250D02*
X117775000Y-117174750D01*
G75*
G02*
X118024750Y-116925000I249750J0D01*
G01*
X118650250Y-116925000D01*
G75*
G02*
X118900000Y-117174750I0J-249750D01*
G01*
X118900000Y-118425250D01*
G75*
G02*
X118650250Y-118675000I-249750J0D01*
G01*
X118024750Y-118675000D01*
G75*
G02*
X117775000Y-118425250I0J249750D01*
G01*
G37*
%TD.AperFunction*%
%TD*%
%TO.P,R5,1*%
%TO.N,VBUS*%
%TA.AperFunction,SMDPad,CuDef*%
G36*
G01*
X120149900Y-125775000D02*
X119250100Y-125775000D01*
G75*
G02*
X119000000Y-125524900I0J250100D01*
G01*
X119000000Y-125000100D01*
G75*
G02*
X119250100Y-124750000I250100J0D01*
G01*
X120149900Y-124750000D01*
G75*
G02*
X120400000Y-125000100I0J-250100D01*
G01*
X120400000Y-125524900D01*
G75*
G02*
X120149900Y-125775000I-250100J0D01*
G01*
G37*
%TD.AperFunction*%
%TO.P,R5,2*%
%TO.N,Net-(J1-Pad6)*%
%TA.AperFunction,SMDPad,CuDef*%
G36*
G01*
X120149900Y-123950000D02*
X119250100Y-123950000D01*
G75*
G02*
X119000000Y-123699900I0J250100D01*
G01*
X119000000Y-123175100D01*
G75*
G02*
X119250100Y-122925000I250100J0D01*
G01*
X120149900Y-122925000D01*
G75*
G02*
X120400000Y-123175100I0J-250100D01*
G01*
X120400000Y-123699900D01*
G75*
G02*
X120149900Y-123950000I-250100J0D01*
G01*
G37*
%TD.AperFunction*%
%TA.AperFunction,SMDPad,CuDef*%
G36*
G01*
X120325250Y-123450000D02*
X119074750Y-123450000D01*
G75*
G02*
X118825000Y-123200250I0J249750D01*
G01*
X118825000Y-122574750D01*
G75*
G02*
X119074750Y-122325000I249750J0D01*
G01*
X120325250Y-122325000D01*
G75*
G02*
X120575000Y-122574750I0J-249750D01*
G01*
X120575000Y-123200250D01*
G75*
G02*
X120325250Y-123450000I-249750J0D01*
G01*
G37*
%TD.AperFunction*%
%TO.P,R5,1*%
%TO.N,VBUS*%
%TA.AperFunction,SMDPad,CuDef*%
G36*
G01*
X120325250Y-126375000D02*
X119074750Y-126375000D01*
G75*
G02*
X118825000Y-126125250I0J249750D01*
G01*
X118825000Y-125499750D01*
G75*
G02*
X119074750Y-125250000I249750J0D01*
G01*
X120325250Y-125250000D01*
G75*
G02*
X120575000Y-125499750I0J-249750D01*
G01*
X120575000Y-126125250D01*
G75*
G02*
X120325250Y-126375000I-249750J0D01*
G01*
G37*
%TD.AperFunction*%
%TD*%
%TO.P,R4,1*%
%TO.N,+3V3*%
%TA.AperFunction,SMDPad,CuDef*%
G36*
G01*
X123419900Y-125775000D02*
X122520100Y-125775000D01*
G75*
G02*
X122270000Y-125524900I0J250100D01*
G01*
X122270000Y-125000100D01*
G75*
G02*
X122520100Y-124750000I250100J0D01*
G01*
X123419900Y-124750000D01*
G75*
G02*
X123670000Y-125000100I0J-250100D01*
G01*
X123670000Y-125524900D01*
G75*
G02*
X123419900Y-125775000I-250100J0D01*
G01*
G37*
%TD.AperFunction*%
%TO.P,R4,2*%
%TO.N,IO4*%
%TA.AperFunction,SMDPad,CuDef*%
G36*
G01*
X123419900Y-123950000D02*
X122520100Y-123950000D01*
G75*
G02*
X122270000Y-123699900I0J250100D01*
G01*
X122270000Y-123175100D01*
G75*
G02*
X122520100Y-122925000I250100J0D01*
G01*
X123419900Y-122925000D01*
G75*
G02*
X123670000Y-123175100I0J-250100D01*
G01*
X123670000Y-123699900D01*
G75*
G02*
X123419900Y-123950000I-250100J0D01*
G01*
G37*
%TD.AperFunction*%
%TA.AperFunction,SMDPad,CuDef*%
G36*
G01*
X123595250Y-123450000D02*
X122344750Y-123450000D01*
G75*
G02*
X122095000Y-123200250I0J249750D01*
G01*
X122095000Y-122574750D01*
G75*
G02*
X122344750Y-122325000I249750J0D01*
G01*
X123595250Y-122325000D01*
G75*
G02*
X123845000Y-122574750I0J-249750D01*
G01*
X123845000Y-123200250D01*
G75*
G02*
X123595250Y-123450000I-249750J0D01*
G01*
G37*
%TD.AperFunction*%
%TO.P,R4,1*%
%TO.N,+3V3*%
%TA.AperFunction,SMDPad,CuDef*%
G36*
G01*
X123595250Y-126375000D02*
X122344750Y-126375000D01*
G75*
G02*
X122095000Y-126125250I0J249750D01*
G01*
X122095000Y-125499750D01*
G75*
G02*
X122344750Y-125250000I249750J0D01*
G01*
X123595250Y-125250000D01*
G75*
G02*
X123845000Y-125499750I0J-249750D01*
G01*
X123845000Y-126125250D01*
G75*
G02*
X123595250Y-126375000I-249750J0D01*
G01*
G37*
%TD.AperFunction*%
%TD*%
%TO.P,R3,1*%
%TO.N,+3V3*%
%TA.AperFunction,SMDPad,CuDef*%
G36*
G01*
X125919900Y-125775000D02*
X125020100Y-125775000D01*
G75*
G02*
X124770000Y-125524900I0J250100D01*
G01*
X124770000Y-125000100D01*
G75*
G02*
X125020100Y-124750000I250100J0D01*
G01*
X125919900Y-124750000D01*
G75*
G02*
X126170000Y-125000100I0J-250100D01*
G01*
X126170000Y-125524900D01*
G75*
G02*
X125919900Y-125775000I-250100J0D01*
G01*
G37*
%TD.AperFunction*%
%TO.P,R3,2*%
%TO.N,IO3*%
%TA.AperFunction,SMDPad,CuDef*%
G36*
G01*
X125919900Y-123950000D02*
X125020100Y-123950000D01*
G75*
G02*
X124770000Y-123699900I0J250100D01*
G01*
X124770000Y-123175100D01*
G75*
G02*
X125020100Y-122925000I250100J0D01*
G01*
X125919900Y-122925000D01*
G75*
G02*
X126170000Y-123175100I0J-250100D01*
G01*
X126170000Y-123699900D01*
G75*
G02*
X125919900Y-123950000I-250100J0D01*
G01*
G37*
%TD.AperFunction*%
%TA.AperFunction,SMDPad,CuDef*%
G36*
G01*
X126095250Y-123450000D02*
X124844750Y-123450000D01*
G75*
G02*
X124595000Y-123200250I0J249750D01*
G01*
X124595000Y-122574750D01*
G75*
G02*
X124844750Y-122325000I249750J0D01*
G01*
X126095250Y-122325000D01*
G75*
G02*
X126345000Y-122574750I0J-249750D01*
G01*
X126345000Y-123200250D01*
G75*
G02*
X126095250Y-123450000I-249750J0D01*
G01*
G37*
%TD.AperFunction*%
%TO.P,R3,1*%
%TO.N,+3V3*%
%TA.AperFunction,SMDPad,CuDef*%
G36*
G01*
X126095250Y-126375000D02*
X124844750Y-126375000D01*
G75*
G02*
X124595000Y-126125250I0J249750D01*
G01*
X124595000Y-125499750D01*
G75*
G02*
X124844750Y-125250000I249750J0D01*
G01*
X126095250Y-125250000D01*
G75*
G02*
X126345000Y-125499750I0J-249750D01*
G01*
X126345000Y-126125250D01*
G75*
G02*
X126095250Y-126375000I-249750J0D01*
G01*
G37*
%TD.AperFunction*%
%TD*%
%TO.P,R2,1*%
%TO.N,+3V3*%
%TA.AperFunction,SMDPad,CuDef*%
G36*
G01*
X128419900Y-125775000D02*
X127520100Y-125775000D01*
G75*
G02*
X127270000Y-125524900I0J250100D01*
G01*
X127270000Y-125000100D01*
G75*
G02*
X127520100Y-124750000I250100J0D01*
G01*
X128419900Y-124750000D01*
G75*
G02*
X128670000Y-125000100I0J-250100D01*
G01*
X128670000Y-125524900D01*
G75*
G02*
X128419900Y-125775000I-250100J0D01*
G01*
G37*
%TD.AperFunction*%
%TO.P,R2,2*%
%TO.N,IO2*%
%TA.AperFunction,SMDPad,CuDef*%
G36*
G01*
X128419900Y-123950000D02*
X127520100Y-123950000D01*
G75*
G02*
X127270000Y-123699900I0J250100D01*
G01*
X127270000Y-123175100D01*
G75*
G02*
X127520100Y-122925000I250100J0D01*
G01*
X128419900Y-122925000D01*
G75*
G02*
X128670000Y-123175100I0J-250100D01*
G01*
X128670000Y-123699900D01*
G75*
G02*
X128419900Y-123950000I-250100J0D01*
G01*
G37*
%TD.AperFunction*%
%TA.AperFunction,SMDPad,CuDef*%
G36*
G01*
X128595250Y-123450000D02*
X127344750Y-123450000D01*
G75*
G02*
X127095000Y-123200250I0J249750D01*
G01*
X127095000Y-122574750D01*
G75*
G02*
X127344750Y-122325000I249750J0D01*
G01*
X128595250Y-122325000D01*
G75*
G02*
X128845000Y-122574750I0J-249750D01*
G01*
X128845000Y-123200250D01*
G75*
G02*
X128595250Y-123450000I-249750J0D01*
G01*
G37*
%TD.AperFunction*%
%TO.P,R2,1*%
%TO.N,+3V3*%
%TA.AperFunction,SMDPad,CuDef*%
G36*
G01*
X128595250Y-126375000D02*
X127344750Y-126375000D01*
G75*
G02*
X127095000Y-126125250I0J249750D01*
G01*
X127095000Y-125499750D01*
G75*
G02*
X127344750Y-125250000I249750J0D01*
G01*
X128595250Y-125250000D01*
G75*
G02*
X128845000Y-125499750I0J-249750D01*
G01*
X128845000Y-126125250D01*
G75*
G02*
X128595250Y-126375000I-249750J0D01*
G01*
G37*
%TD.AperFunction*%
%TD*%
%TO.P,R1,1*%
%TO.N,+3V3*%
%TA.AperFunction,SMDPad,CuDef*%
G36*
G01*
X130919900Y-125775000D02*
X130020100Y-125775000D01*
G75*
G02*
X129770000Y-125524900I0J250100D01*
G01*
X129770000Y-125000100D01*
G75*
G02*
X130020100Y-124750000I250100J0D01*
G01*
X130919900Y-124750000D01*
G75*
G02*
X131170000Y-125000100I0J-250100D01*
G01*
X131170000Y-125524900D01*
G75*
G02*
X130919900Y-125775000I-250100J0D01*
G01*
G37*
%TD.AperFunction*%
%TO.P,R1,2*%
%TO.N,IO1*%
%TA.AperFunction,SMDPad,CuDef*%
G36*
G01*
X130919900Y-123950000D02*
X130020100Y-123950000D01*
G75*
G02*
X129770000Y-123699900I0J250100D01*
G01*
X129770000Y-123175100D01*
G75*
G02*
X130020100Y-122925000I250100J0D01*
G01*
X130919900Y-122925000D01*
G75*
G02*
X131170000Y-123175100I0J-250100D01*
G01*
X131170000Y-123699900D01*
G75*
G02*
X130919900Y-123950000I-250100J0D01*
G01*
G37*
%TD.AperFunction*%
%TA.AperFunction,SMDPad,CuDef*%
G36*
G01*
X131095250Y-123450000D02*
X129844750Y-123450000D01*
G75*
G02*
X129595000Y-123200250I0J249750D01*
G01*
X129595000Y-122574750D01*
G75*
G02*
X129844750Y-122325000I249750J0D01*
G01*
X131095250Y-122325000D01*
G75*
G02*
X131345000Y-122574750I0J-249750D01*
G01*
X131345000Y-123200250D01*
G75*
G02*
X131095250Y-123450000I-249750J0D01*
G01*
G37*
%TD.AperFunction*%
%TO.P,R1,1*%
%TO.N,+3V3*%
%TA.AperFunction,SMDPad,CuDef*%
G36*
G01*
X131095250Y-126375000D02*
X129844750Y-126375000D01*
G75*
G02*
X129595000Y-126125250I0J249750D01*
G01*
X129595000Y-125499750D01*
G75*
G02*
X129844750Y-125250000I249750J0D01*
G01*
X131095250Y-125250000D01*
G75*
G02*
X131345000Y-125499750I0J-249750D01*
G01*
X131345000Y-126125250D01*
G75*
G02*
X131095250Y-126375000I-249750J0D01*
G01*
G37*
%TD.AperFunction*%
%TD*%
%TO.P,C1,1*%
%TO.N,GND*%
%TA.AperFunction,SMDPad,CuDef*%
G36*
G01*
X134862500Y-117350100D02*
X134862500Y-118249900D01*
G75*
G02*
X134612400Y-118500000I-250100J0D01*
G01*
X134087600Y-118500000D01*
G75*
G02*
X133837500Y-118249900I0J250100D01*
G01*
X133837500Y-117350100D01*
G75*
G02*
X134087600Y-117100000I250100J0D01*
G01*
X134612400Y-117100000D01*
G75*
G02*
X134862500Y-117350100I0J-250100D01*
G01*
G37*
%TD.AperFunction*%
%TO.P,C1,2*%
%TO.N,IO1*%
%TA.AperFunction,SMDPad,CuDef*%
G36*
G01*
X133037500Y-117350100D02*
X133037500Y-118249900D01*
G75*
G02*
X132787400Y-118500000I-250100J0D01*
G01*
X132262600Y-118500000D01*
G75*
G02*
X132012500Y-118249900I0J250100D01*
G01*
X132012500Y-117350100D01*
G75*
G02*
X132262600Y-117100000I250100J0D01*
G01*
X132787400Y-117100000D01*
G75*
G02*
X133037500Y-117350100I0J-250100D01*
G01*
G37*
%TD.AperFunction*%
%TA.AperFunction,SMDPad,CuDef*%
G36*
G01*
X132537500Y-117174750D02*
X132537500Y-118425250D01*
G75*
G02*
X132287750Y-118675000I-249750J0D01*
G01*
X131662250Y-118675000D01*
G75*
G02*
X131412500Y-118425250I0J249750D01*
G01*
X131412500Y-117174750D01*
G75*
G02*
X131662250Y-116925000I249750J0D01*
G01*
X132287750Y-116925000D01*
G75*
G02*
X132537500Y-117174750I0J-249750D01*
G01*
G37*
%TD.AperFunction*%
%TO.P,C1,1*%
%TO.N,GND*%
%TA.AperFunction,SMDPad,CuDef*%
G36*
G01*
X135462500Y-117174750D02*
X135462500Y-118425250D01*
G75*
G02*
X135212750Y-118675000I-249750J0D01*
G01*
X134587250Y-118675000D01*
G75*
G02*
X134337500Y-118425250I0J249750D01*
G01*
X134337500Y-117174750D01*
G75*
G02*
X134587250Y-116925000I249750J0D01*
G01*
X135212750Y-116925000D01*
G75*
G02*
X135462500Y-117174750I0J-249750D01*
G01*
G37*
%TD.AperFunction*%
%TD*%
D16*
%TO.P,J1,1*%
%TO.N,GND*%
X133045000Y-120500000D03*
D17*
%TO.P,J1,2*%
%TO.N,IO1*%
X130505000Y-120500000D03*
%TO.P,J1,3*%
%TO.N,IO2*%
X127965000Y-120500000D03*
%TO.P,J1,4*%
%TO.N,IO3*%
X125425000Y-120500000D03*
%TO.P,J1,5*%
%TO.N,IO4*%
X122885000Y-120500000D03*
%TO.P,J1,6*%
%TO.N,Net-(J1-Pad6)*%
X120345000Y-120500000D03*
%TD*%
%TO.P,C2,2*%
%TO.N,GND*%
%TA.AperFunction,SMDPad,CuDef*%
G36*
G01*
X123775000Y-110062500D02*
X123775000Y-110537500D01*
G75*
G02*
X123537500Y-110775000I-237500J0D01*
G01*
X122937500Y-110775000D01*
G75*
G02*
X122700000Y-110537500I0J237500D01*
G01*
X122700000Y-110062500D01*
G75*
G02*
X122937500Y-109825000I237500J0D01*
G01*
X123537500Y-109825000D01*
G75*
G02*
X123775000Y-110062500I0J-237500D01*
G01*
G37*
%TD.AperFunction*%
%TO.P,C2,1*%
%TO.N,USB3.3*%
%TA.AperFunction,SMDPad,CuDef*%
G36*
G01*
X125500000Y-110062500D02*
X125500000Y-110537500D01*
G75*
G02*
X125262500Y-110775000I-237500J0D01*
G01*
X124662500Y-110775000D01*
G75*
G02*
X124425000Y-110537500I0J237500D01*
G01*
X124425000Y-110062500D01*
G75*
G02*
X124662500Y-109825000I237500J0D01*
G01*
X125262500Y-109825000D01*
G75*
G02*
X125500000Y-110062500I0J-237500D01*
G01*
G37*
%TD.AperFunction*%
%TD*%
%TO.P,Reg1,3*%
%TO.N,GND*%
%TA.AperFunction,SMDPad,CuDef*%
G36*
G01*
X126150000Y-105249550D02*
X126150000Y-106150450D01*
G75*
G02*
X125900450Y-106400000I-249550J0D01*
G01*
X125249550Y-106400000D01*
G75*
G02*
X125000000Y-106150450I0J249550D01*
G01*
X125000000Y-105249550D01*
G75*
G02*
X125249550Y-105000000I249550J0D01*
G01*
X125900450Y-105000000D01*
G75*
G02*
X126150000Y-105249550I0J-249550D01*
G01*
G37*
%TD.AperFunction*%
%TO.P,Reg1,2*%
%TO.N,DC*%
%TA.AperFunction,SMDPad,CuDef*%
G36*
G01*
X124100000Y-105249550D02*
X124100000Y-106150450D01*
G75*
G02*
X123850450Y-106400000I-249550J0D01*
G01*
X123199550Y-106400000D01*
G75*
G02*
X122950000Y-106150450I0J249550D01*
G01*
X122950000Y-105249550D01*
G75*
G02*
X123199550Y-105000000I249550J0D01*
G01*
X123850450Y-105000000D01*
G75*
G02*
X124100000Y-105249550I0J-249550D01*
G01*
G37*
%TD.AperFunction*%
D18*
%TO.P,Reg1,4*%
%TO.N,+3V3*%
X121200000Y-100200000D03*
%TA.AperFunction,SMDPad,CuDef*%
G36*
G01*
X124888388Y-100784835D02*
X125065165Y-100961612D01*
G75*
G02*
X125065165Y-101138388I-88388J-88388D01*
G01*
X124888388Y-101315165D01*
G75*
G02*
X124711612Y-101315165I-88388J88388D01*
G01*
X124534835Y-101138388D01*
G75*
G02*
X124534835Y-100961612I88388J88388D01*
G01*
X124711612Y-100784835D01*
G75*
G02*
X124888388Y-100784835I88388J-88388D01*
G01*
G37*
%TD.AperFunction*%
%TA.AperFunction,SMDPad,CuDef*%
G36*
G01*
X124775000Y-101250000D02*
X124525000Y-101250000D01*
G75*
G02*
X124400000Y-101125000I0J125000D01*
G01*
X124400000Y-100875000D01*
G75*
G02*
X124525000Y-100750000I125000J0D01*
G01*
X124775000Y-100750000D01*
G75*
G02*
X124900000Y-100875000I0J-125000D01*
G01*
X124900000Y-101125000D01*
G75*
G02*
X124775000Y-101250000I-125000J0D01*
G01*
G37*
%TD.AperFunction*%
%TA.AperFunction,SMDPad,CuDef*%
D19*
G36*
X124873223Y-100769670D02*
G01*
X125580330Y-101476777D01*
X125226777Y-101830330D01*
X124519670Y-101123223D01*
X124873223Y-100769670D01*
G37*
%TD.AperFunction*%
%TO.P,Reg1,2*%
%TO.N,DC*%
%TA.AperFunction,SMDPad,CuDef*%
G36*
G01*
X122825000Y-105250000D02*
X122575000Y-105250000D01*
G75*
G02*
X122450000Y-105125000I0J125000D01*
G01*
X122450000Y-104875000D01*
G75*
G02*
X122575000Y-104750000I125000J0D01*
G01*
X122825000Y-104750000D01*
G75*
G02*
X122950000Y-104875000I0J-125000D01*
G01*
X122950000Y-105125000D01*
G75*
G02*
X122825000Y-105250000I-125000J0D01*
G01*
G37*
%TD.AperFunction*%
%TA.AperFunction,SMDPad,CuDef*%
G36*
G01*
X122938388Y-104784835D02*
X123115165Y-104961612D01*
G75*
G02*
X123115165Y-105138388I-88388J-88388D01*
G01*
X122938388Y-105315165D01*
G75*
G02*
X122761612Y-105315165I-88388J88388D01*
G01*
X122584835Y-105138388D01*
G75*
G02*
X122584835Y-104961612I88388J88388D01*
G01*
X122761612Y-104784835D01*
G75*
G02*
X122938388Y-104784835I88388J-88388D01*
G01*
G37*
%TD.AperFunction*%
D20*
X122350000Y-105000000D03*
%TA.AperFunction,SMDPad,CuDef*%
D19*
G36*
X122973223Y-104819670D02*
G01*
X123680330Y-105526777D01*
X123326777Y-105880330D01*
X122619670Y-105173223D01*
X122973223Y-104819670D01*
G37*
%TD.AperFunction*%
D20*
%TO.P,Reg1,3*%
%TO.N,GND*%
X124850000Y-99750000D03*
X124000000Y-99750000D03*
X119750000Y-105000000D03*
D21*
X120350000Y-105000000D03*
D20*
X124500000Y-99750000D03*
%TO.P,Reg1,4*%
%TO.N,+3V3*%
%TA.AperFunction,SMDPad,CuDef*%
G36*
G01*
X121325000Y-101250000D02*
X121075000Y-101250000D01*
G75*
G02*
X120950000Y-101125000I0J125000D01*
G01*
X120950000Y-100875000D01*
G75*
G02*
X121075000Y-100750000I125000J0D01*
G01*
X121325000Y-100750000D01*
G75*
G02*
X121450000Y-100875000I0J-125000D01*
G01*
X121450000Y-101125000D01*
G75*
G02*
X121325000Y-101250000I-125000J0D01*
G01*
G37*
%TD.AperFunction*%
D18*
X121200000Y-100600000D03*
D22*
X122900000Y-101000000D03*
%TO.P,Reg1,~*%
%TO.N,N/C*%
%TA.AperFunction,SMDPad,CuDef*%
G36*
G01*
X123875626Y-103450000D02*
X122624374Y-103450000D01*
G75*
G02*
X122375000Y-103200626I0J249374D01*
G01*
X122375000Y-102274374D01*
G75*
G02*
X122624374Y-102025000I249374J0D01*
G01*
X123875626Y-102025000D01*
G75*
G02*
X124125000Y-102274374I0J-249374D01*
G01*
X124125000Y-103200626D01*
G75*
G02*
X123875626Y-103450000I-249374J0D01*
G01*
G37*
%TD.AperFunction*%
%TO.P,Reg1,3*%
%TO.N,GND*%
%TA.AperFunction,SMDPad,CuDef*%
G36*
G01*
X123875626Y-100475000D02*
X122624374Y-100475000D01*
G75*
G02*
X122375000Y-100225626I0J249374D01*
G01*
X122375000Y-99299374D01*
G75*
G02*
X122624374Y-99050000I249374J0D01*
G01*
X123875626Y-99050000D01*
G75*
G02*
X124125000Y-99299374I0J-249374D01*
G01*
X124125000Y-100225626D01*
G75*
G02*
X123875626Y-100475000I-249374J0D01*
G01*
G37*
%TD.AperFunction*%
D23*
X120500000Y-105000000D03*
D21*
X120100000Y-105000000D03*
D24*
%TO.P,Reg1,4*%
%TO.N,+3V3*%
X120250000Y-99750000D03*
%TO.P,Reg1,~*%
%TO.N,N/C*%
X120250000Y-102750000D03*
%TO.P,Reg1,3*%
%TO.N,GND*%
%TA.AperFunction,SMDPad,CuDef*%
G36*
G01*
X125950450Y-100300000D02*
X125049550Y-100300000D01*
G75*
G02*
X124800000Y-100050450I0J249550D01*
G01*
X124800000Y-99399550D01*
G75*
G02*
X125049550Y-99150000I249550J0D01*
G01*
X125950450Y-99150000D01*
G75*
G02*
X126200000Y-99399550I0J-249550D01*
G01*
X126200000Y-100050450D01*
G75*
G02*
X125950450Y-100300000I-249550J0D01*
G01*
G37*
%TD.AperFunction*%
%TO.P,Reg1,4*%
%TO.N,+3V3*%
%TA.AperFunction,SMDPad,CuDef*%
G36*
G01*
X125950450Y-102350000D02*
X125049550Y-102350000D01*
G75*
G02*
X124800000Y-102100450I0J249550D01*
G01*
X124800000Y-101449550D01*
G75*
G02*
X125049550Y-101200000I249550J0D01*
G01*
X125950450Y-101200000D01*
G75*
G02*
X126200000Y-101449550I0J-249550D01*
G01*
X126200000Y-102100450D01*
G75*
G02*
X125950450Y-102350000I-249550J0D01*
G01*
G37*
%TD.AperFunction*%
%TO.P,Reg1,~*%
%TO.N,N/C*%
%TA.AperFunction,SMDPad,CuDef*%
G36*
G01*
X125900000Y-104012500D02*
X125900000Y-104487500D01*
G75*
G02*
X125662500Y-104725000I-237500J0D01*
G01*
X125062500Y-104725000D01*
G75*
G02*
X124825000Y-104487500I0J237500D01*
G01*
X124825000Y-104012500D01*
G75*
G02*
X125062500Y-103775000I237500J0D01*
G01*
X125662500Y-103775000D01*
G75*
G02*
X125900000Y-104012500I0J-237500D01*
G01*
G37*
%TD.AperFunction*%
%TA.AperFunction,SMDPad,CuDef*%
G36*
G01*
X124175000Y-104012500D02*
X124175000Y-104487500D01*
G75*
G02*
X123937500Y-104725000I-237500J0D01*
G01*
X123337500Y-104725000D01*
G75*
G02*
X123100000Y-104487500I0J237500D01*
G01*
X123100000Y-104012500D01*
G75*
G02*
X123337500Y-103775000I237500J0D01*
G01*
X123937500Y-103775000D01*
G75*
G02*
X124175000Y-104012500I0J-237500D01*
G01*
G37*
%TD.AperFunction*%
D25*
%TO.P,Reg1,1*%
%TO.N,DC*%
X121850000Y-105950000D03*
%TO.P,Reg1,2*%
X121850000Y-105000000D03*
%TO.P,Reg1,~*%
%TO.N,N/C*%
X121850000Y-104050000D03*
X119150000Y-104050000D03*
X119150000Y-105950000D03*
%TO.P,Reg1,3*%
%TO.N,GND*%
X119150000Y-105000000D03*
%TD*%
%TA.AperFunction,SMDPad,CuDef*%
D19*
%TO.P,U2,21*%
%TO.N,GND*%
G36*
X124324797Y-115374887D02*
G01*
X126074887Y-113624797D01*
X126325203Y-113875113D01*
X124575113Y-115625203D01*
X124324797Y-115374887D01*
G37*
%TD.AperFunction*%
D26*
X125450000Y-114625000D03*
D27*
X125325000Y-114625000D03*
D28*
%TO.P,U2,~*%
%TO.N,N/C*%
X123325000Y-116625000D03*
X127325000Y-112625000D03*
X127325000Y-116625000D03*
X123325000Y-112625000D03*
D29*
X123325000Y-116625000D03*
D30*
%TO.P,U2,21*%
%TO.N,GND*%
X125325000Y-114500000D03*
%TO.P,U2,20*%
%TO.N,USB3.3*%
%TA.AperFunction,SMDPad,CuDef*%
G36*
G01*
X123762500Y-115750000D02*
X122887500Y-115750000D01*
G75*
G02*
X122825000Y-115687500I0J62500D01*
G01*
X122825000Y-115562500D01*
G75*
G02*
X122887500Y-115500000I62500J0D01*
G01*
X123762500Y-115500000D01*
G75*
G02*
X123825000Y-115562500I0J-62500D01*
G01*
X123825000Y-115687500D01*
G75*
G02*
X123762500Y-115750000I-62500J0D01*
G01*
G37*
%TD.AperFunction*%
%TO.P,U2,19*%
%TO.N,EN*%
%TA.AperFunction,SMDPad,CuDef*%
G36*
G01*
X123762500Y-115250000D02*
X122887500Y-115250000D01*
G75*
G02*
X122825000Y-115187500I0J62500D01*
G01*
X122825000Y-115062500D01*
G75*
G02*
X122887500Y-115000000I62500J0D01*
G01*
X123762500Y-115000000D01*
G75*
G02*
X123825000Y-115062500I0J-62500D01*
G01*
X123825000Y-115187500D01*
G75*
G02*
X123762500Y-115250000I-62500J0D01*
G01*
G37*
%TD.AperFunction*%
%TO.P,U2,18*%
%TO.N,GPIO0*%
%TA.AperFunction,SMDPad,CuDef*%
G36*
G01*
X123762500Y-114750000D02*
X122887500Y-114750000D01*
G75*
G02*
X122825000Y-114687500I0J62500D01*
G01*
X122825000Y-114562500D01*
G75*
G02*
X122887500Y-114500000I62500J0D01*
G01*
X123762500Y-114500000D01*
G75*
G02*
X123825000Y-114562500I0J-62500D01*
G01*
X123825000Y-114687500D01*
G75*
G02*
X123762500Y-114750000I-62500J0D01*
G01*
G37*
%TD.AperFunction*%
%TO.P,U2,17*%
%TO.N,I*%
%TA.AperFunction,SMDPad,CuDef*%
G36*
G01*
X123762500Y-114250000D02*
X122887500Y-114250000D01*
G75*
G02*
X122825000Y-114187500I0J62500D01*
G01*
X122825000Y-114062500D01*
G75*
G02*
X122887500Y-114000000I62500J0D01*
G01*
X123762500Y-114000000D01*
G75*
G02*
X123825000Y-114062500I0J-62500D01*
G01*
X123825000Y-114187500D01*
G75*
G02*
X123762500Y-114250000I-62500J0D01*
G01*
G37*
%TD.AperFunction*%
%TO.P,U2,16*%
%TO.N,Net-(U2-Pad16)*%
%TA.AperFunction,SMDPad,CuDef*%
G36*
G01*
X123762500Y-113750000D02*
X122887500Y-113750000D01*
G75*
G02*
X122825000Y-113687500I0J62500D01*
G01*
X122825000Y-113562500D01*
G75*
G02*
X122887500Y-113500000I62500J0D01*
G01*
X123762500Y-113500000D01*
G75*
G02*
X123825000Y-113562500I0J-62500D01*
G01*
X123825000Y-113687500D01*
G75*
G02*
X123762500Y-113750000I-62500J0D01*
G01*
G37*
%TD.AperFunction*%
%TO.P,U2,15*%
%TO.N,CBUS*%
%TA.AperFunction,SMDPad,CuDef*%
G36*
G01*
X124387500Y-113125000D02*
X124262500Y-113125000D01*
G75*
G02*
X124200000Y-113062500I0J62500D01*
G01*
X124200000Y-112187500D01*
G75*
G02*
X124262500Y-112125000I62500J0D01*
G01*
X124387500Y-112125000D01*
G75*
G02*
X124450000Y-112187500I0J-62500D01*
G01*
X124450000Y-113062500D01*
G75*
G02*
X124387500Y-113125000I-62500J0D01*
G01*
G37*
%TD.AperFunction*%
%TO.P,U2,14*%
%TO.N,Net-(U2-Pad14)*%
%TA.AperFunction,SMDPad,CuDef*%
G36*
G01*
X124887500Y-113125000D02*
X124762500Y-113125000D01*
G75*
G02*
X124700000Y-113062500I0J62500D01*
G01*
X124700000Y-112187500D01*
G75*
G02*
X124762500Y-112125000I62500J0D01*
G01*
X124887500Y-112125000D01*
G75*
G02*
X124950000Y-112187500I0J-62500D01*
G01*
X124950000Y-113062500D01*
G75*
G02*
X124887500Y-113125000I-62500J0D01*
G01*
G37*
%TD.AperFunction*%
%TO.P,U2,13*%
%TO.N,GND*%
%TA.AperFunction,SMDPad,CuDef*%
G36*
G01*
X125387500Y-113125000D02*
X125262500Y-113125000D01*
G75*
G02*
X125200000Y-113062500I0J62500D01*
G01*
X125200000Y-112187500D01*
G75*
G02*
X125262500Y-112125000I62500J0D01*
G01*
X125387500Y-112125000D01*
G75*
G02*
X125450000Y-112187500I0J-62500D01*
G01*
X125450000Y-113062500D01*
G75*
G02*
X125387500Y-113125000I-62500J0D01*
G01*
G37*
%TD.AperFunction*%
%TO.P,U2,12*%
%TO.N,VBUS*%
%TA.AperFunction,SMDPad,CuDef*%
G36*
G01*
X125887500Y-113125000D02*
X125762500Y-113125000D01*
G75*
G02*
X125700000Y-113062500I0J62500D01*
G01*
X125700000Y-112187500D01*
G75*
G02*
X125762500Y-112125000I62500J0D01*
G01*
X125887500Y-112125000D01*
G75*
G02*
X125950000Y-112187500I0J-62500D01*
G01*
X125950000Y-113062500D01*
G75*
G02*
X125887500Y-113125000I-62500J0D01*
G01*
G37*
%TD.AperFunction*%
%TO.P,U2,11*%
%TO.N,USB3.3*%
%TA.AperFunction,SMDPad,CuDef*%
G36*
G01*
X126387500Y-113125000D02*
X126262500Y-113125000D01*
G75*
G02*
X126200000Y-113062500I0J62500D01*
G01*
X126200000Y-112187500D01*
G75*
G02*
X126262500Y-112125000I62500J0D01*
G01*
X126387500Y-112125000D01*
G75*
G02*
X126450000Y-112187500I0J-62500D01*
G01*
X126450000Y-113062500D01*
G75*
G02*
X126387500Y-113125000I-62500J0D01*
G01*
G37*
%TD.AperFunction*%
%TO.P,U2,10*%
%TA.AperFunction,SMDPad,CuDef*%
G36*
G01*
X127762500Y-113750000D02*
X126887500Y-113750000D01*
G75*
G02*
X126825000Y-113687500I0J62500D01*
G01*
X126825000Y-113562500D01*
G75*
G02*
X126887500Y-113500000I62500J0D01*
G01*
X127762500Y-113500000D01*
G75*
G02*
X127825000Y-113562500I0J-62500D01*
G01*
X127825000Y-113687500D01*
G75*
G02*
X127762500Y-113750000I-62500J0D01*
G01*
G37*
%TD.AperFunction*%
%TO.P,U2,9*%
%TO.N,D-*%
%TA.AperFunction,SMDPad,CuDef*%
G36*
G01*
X127762500Y-114250000D02*
X126887500Y-114250000D01*
G75*
G02*
X126825000Y-114187500I0J62500D01*
G01*
X126825000Y-114062500D01*
G75*
G02*
X126887500Y-114000000I62500J0D01*
G01*
X127762500Y-114000000D01*
G75*
G02*
X127825000Y-114062500I0J-62500D01*
G01*
X127825000Y-114187500D01*
G75*
G02*
X127762500Y-114250000I-62500J0D01*
G01*
G37*
%TD.AperFunction*%
%TO.P,U2,8*%
%TO.N,D+*%
%TA.AperFunction,SMDPad,CuDef*%
G36*
G01*
X127762500Y-114750000D02*
X126887500Y-114750000D01*
G75*
G02*
X126825000Y-114687500I0J62500D01*
G01*
X126825000Y-114562500D01*
G75*
G02*
X126887500Y-114500000I62500J0D01*
G01*
X127762500Y-114500000D01*
G75*
G02*
X127825000Y-114562500I0J-62500D01*
G01*
X127825000Y-114687500D01*
G75*
G02*
X127762500Y-114750000I-62500J0D01*
G01*
G37*
%TD.AperFunction*%
%TO.P,U2,7*%
%TO.N,Net-(U2-Pad7)*%
%TA.AperFunction,SMDPad,CuDef*%
G36*
G01*
X127762500Y-115250000D02*
X126887500Y-115250000D01*
G75*
G02*
X126825000Y-115187500I0J62500D01*
G01*
X126825000Y-115062500D01*
G75*
G02*
X126887500Y-115000000I62500J0D01*
G01*
X127762500Y-115000000D01*
G75*
G02*
X127825000Y-115062500I0J-62500D01*
G01*
X127825000Y-115187500D01*
G75*
G02*
X127762500Y-115250000I-62500J0D01*
G01*
G37*
%TD.AperFunction*%
%TO.P,U2,6*%
%TO.N,GND*%
%TA.AperFunction,SMDPad,CuDef*%
G36*
G01*
X127762500Y-115750000D02*
X126887500Y-115750000D01*
G75*
G02*
X126825000Y-115687500I0J62500D01*
G01*
X126825000Y-115562500D01*
G75*
G02*
X126887500Y-115500000I62500J0D01*
G01*
X127762500Y-115500000D01*
G75*
G02*
X127825000Y-115562500I0J-62500D01*
G01*
X127825000Y-115687500D01*
G75*
G02*
X127762500Y-115750000I-62500J0D01*
G01*
G37*
%TD.AperFunction*%
%TO.P,U2,5*%
%TA.AperFunction,SMDPad,CuDef*%
G36*
G01*
X126387500Y-117125000D02*
X126262500Y-117125000D01*
G75*
G02*
X126200000Y-117062500I0J62500D01*
G01*
X126200000Y-116187500D01*
G75*
G02*
X126262500Y-116125000I62500J0D01*
G01*
X126387500Y-116125000D01*
G75*
G02*
X126450000Y-116187500I0J-62500D01*
G01*
X126450000Y-117062500D01*
G75*
G02*
X126387500Y-117125000I-62500J0D01*
G01*
G37*
%TD.AperFunction*%
%TO.P,U2,4*%
%TA.AperFunction,SMDPad,CuDef*%
G36*
G01*
X125887500Y-117125000D02*
X125762500Y-117125000D01*
G75*
G02*
X125700000Y-117062500I0J62500D01*
G01*
X125700000Y-116187500D01*
G75*
G02*
X125762500Y-116125000I62500J0D01*
G01*
X125887500Y-116125000D01*
G75*
G02*
X125950000Y-116187500I0J-62500D01*
G01*
X125950000Y-117062500D01*
G75*
G02*
X125887500Y-117125000I-62500J0D01*
G01*
G37*
%TD.AperFunction*%
%TO.P,U2,3*%
%TA.AperFunction,SMDPad,CuDef*%
G36*
G01*
X125387500Y-117125000D02*
X125262500Y-117125000D01*
G75*
G02*
X125200000Y-117062500I0J62500D01*
G01*
X125200000Y-116187500D01*
G75*
G02*
X125262500Y-116125000I62500J0D01*
G01*
X125387500Y-116125000D01*
G75*
G02*
X125450000Y-116187500I0J-62500D01*
G01*
X125450000Y-117062500D01*
G75*
G02*
X125387500Y-117125000I-62500J0D01*
G01*
G37*
%TD.AperFunction*%
%TO.P,U2,2*%
%TA.AperFunction,SMDPad,CuDef*%
G36*
G01*
X124887500Y-117125000D02*
X124762500Y-117125000D01*
G75*
G02*
X124700000Y-117062500I0J62500D01*
G01*
X124700000Y-116187500D01*
G75*
G02*
X124762500Y-116125000I62500J0D01*
G01*
X124887500Y-116125000D01*
G75*
G02*
X124950000Y-116187500I0J-62500D01*
G01*
X124950000Y-117062500D01*
G75*
G02*
X124887500Y-117125000I-62500J0D01*
G01*
G37*
%TD.AperFunction*%
%TO.P,U2,1*%
%TO.N,O*%
%TA.AperFunction,SMDPad,CuDef*%
G36*
G01*
X124387500Y-117125000D02*
X124262500Y-117125000D01*
G75*
G02*
X124200000Y-117062500I0J62500D01*
G01*
X124200000Y-116187500D01*
G75*
G02*
X124262500Y-116125000I62500J0D01*
G01*
X124387500Y-116125000D01*
G75*
G02*
X124450000Y-116187500I0J-62500D01*
G01*
X124450000Y-117062500D01*
G75*
G02*
X124387500Y-117125000I-62500J0D01*
G01*
G37*
%TD.AperFunction*%
%TD*%
D17*
%TO.P,J3,2*%
%TO.N,DC*%
X134000000Y-123260000D03*
D16*
%TO.P,J3,1*%
%TO.N,GND*%
X134000000Y-125800000D03*
%TD*%
D31*
%TO.P,J2,S1*%
%TO.N,GND*%
X130980000Y-104780000D03*
X130970000Y-112830000D03*
X130960000Y-105910000D03*
X130830000Y-105910000D03*
X130960000Y-111700000D03*
X130810000Y-111700000D03*
D32*
X134320000Y-112410000D03*
%TA.AperFunction,SMDPad,CuDef*%
D19*
G36*
X129712513Y-105476066D02*
G01*
X130066066Y-105122513D01*
X130207487Y-105263934D01*
X129853934Y-105617487D01*
X129712513Y-105476066D01*
G37*
%TD.AperFunction*%
%TA.AperFunction,SMDPad,CuDef*%
G36*
X129913934Y-112002513D02*
G01*
X130267487Y-112356066D01*
X130126066Y-112497487D01*
X129772513Y-112143934D01*
X129913934Y-112002513D01*
G37*
%TD.AperFunction*%
D32*
X134320000Y-105180000D03*
D33*
X133655000Y-108800000D03*
D34*
%TO.P,J2,A12*%
X129540000Y-105600000D03*
%TO.P,J2,A4*%
%TO.N,VBUS*%
X129540000Y-111200000D03*
%TO.P,J2,B12*%
%TO.N,GND*%
X129540000Y-112000000D03*
%TO.P,J2,B4*%
%TO.N,VBUS*%
X129540000Y-106400000D03*
D35*
%TO.P,J2,S1*%
%TO.N,GND*%
X134310000Y-104475000D03*
X134310000Y-113125000D03*
D36*
X130130000Y-104475000D03*
X130130000Y-113125000D03*
D37*
%TO.P,J2,A7*%
%TO.N,D-*%
X129540000Y-108550000D03*
%TO.P,J2,A6*%
%TO.N,D+*%
X129540000Y-109050000D03*
%TO.P,J2,B6*%
X129540000Y-108050000D03*
%TO.P,J2,B7*%
%TO.N,D-*%
X129540000Y-109550000D03*
%TO.P,J2,A8*%
%TO.N,Net-(J2-PadA8)*%
X129540000Y-107550000D03*
%TO.P,J2,A5*%
%TO.N,Net-(J2-PadA5)*%
X129540000Y-110050000D03*
%TO.P,J2,B5*%
%TO.N,Net-(J2-PadB5)*%
X129540000Y-107050000D03*
%TO.P,J2,B8*%
%TO.N,Net-(J2-PadB8)*%
X129540000Y-110550000D03*
D34*
%TO.P,J2,A9*%
%TO.N,VBUS*%
X129540000Y-106400000D03*
%TO.P,J2,B9*%
X129540000Y-111200000D03*
%TO.P,J2,B1*%
%TO.N,GND*%
X129540000Y-105600000D03*
D38*
%TO.P,J2,S1*%
X130610000Y-105910000D03*
X130610000Y-111690000D03*
D34*
%TO.P,J2,A1*%
X129540000Y-112000000D03*
%TD*%
D39*
%TO.N,D+*%
X128519703Y-114503639D03*
X123074990Y-107002896D03*
X123508521Y-108519276D03*
%TO.N,GND*%
X127600000Y-105700000D03*
X135099978Y-120500000D03*
X119797858Y-113339079D03*
X126791357Y-99250010D03*
%TO.N,+3V3*%
X128767944Y-99825010D03*
X133263385Y-114841048D03*
X125375766Y-103148469D03*
X121174967Y-107338560D03*
%TO.N,VBUS*%
X124500000Y-111500000D03*
X121037188Y-125891054D03*
%TO.N,IO5*%
X118746112Y-115241552D03*
%TO.N,IO1*%
X131100000Y-115600000D03*
%TO.N,I*%
X122002091Y-111533132D03*
%TO.N,USB3.3*%
X122620319Y-115805000D03*
X126995491Y-111775021D03*
%TO.N,Net-(Q2-Pad1)*%
X121412513Y-114802482D03*
%TO.N,CBUS*%
X123452103Y-111722555D03*
%TO.N,Net-(Q1-Pad3)*%
X121608498Y-108271922D03*
%TO.N,Net-(D1-Pad1)*%
X132596825Y-102843812D03*
%TO.N,Net-(Q1-Pad1)*%
X121300000Y-113149998D03*
%TO.N,DC*%
X132124013Y-114525689D03*
X131272516Y-102075059D03*
X124300000Y-105700000D03*
%TO.N,Net-(Q3-Pad1)*%
X127599978Y-100999998D03*
%TO.N,Net-(R12-Pad2)*%
X128352613Y-102433624D03*
%TD*%
D40*
%TO.N,D+*%
X128398342Y-114625000D02*
X128519703Y-114503639D01*
X127325000Y-114625000D02*
X128398342Y-114625000D01*
X128850000Y-108050000D02*
X128400000Y-107600000D01*
X126034733Y-107600000D02*
X125437629Y-107002896D01*
X125437629Y-107002896D02*
X123074990Y-107002896D01*
X129540000Y-108050000D02*
X128850000Y-108050000D01*
X128400000Y-107600000D02*
X126034733Y-107600000D01*
X129540000Y-109050000D02*
X129539979Y-109049979D01*
X128386390Y-109049979D02*
X127936379Y-108599968D01*
X123589213Y-108599968D02*
X123508521Y-108519276D01*
X129539979Y-109049979D02*
X128386390Y-109049979D01*
X127936379Y-108599968D02*
X123589213Y-108599968D01*
%TO.N,GND*%
X125325000Y-112625000D02*
X125325000Y-114500000D01*
X124825000Y-115250000D02*
X125450000Y-114625000D01*
X124825000Y-116625000D02*
X124825000Y-115250000D01*
X126450000Y-115625000D02*
X125450000Y-114625000D01*
X127325000Y-115625000D02*
X126450000Y-115625000D01*
X125325000Y-114750000D02*
X125450000Y-114625000D01*
X125325000Y-116625000D02*
X125325000Y-114750000D01*
X125825000Y-115000000D02*
X125450000Y-114625000D01*
X125825000Y-116625000D02*
X125825000Y-115000000D01*
X126325000Y-115500000D02*
X125450000Y-114625000D01*
X126325000Y-116625000D02*
X126325000Y-115500000D01*
X119350000Y-112900000D02*
X119524999Y-112725001D01*
X119350000Y-113050000D02*
X118950000Y-113050000D01*
X119350000Y-114200000D02*
X119350000Y-113050000D01*
X119350000Y-113050000D02*
X119350000Y-112900000D01*
X118874999Y-112974999D02*
X118874999Y-111325001D01*
X118950000Y-113050000D02*
X118874999Y-112974999D01*
X118874999Y-111325001D02*
X118900000Y-111300000D01*
X118900000Y-111300000D02*
X119600000Y-111300000D01*
X119600000Y-111650000D02*
X119575001Y-111674999D01*
X119600000Y-111300000D02*
X119600000Y-111650000D01*
X119350000Y-114602317D02*
X119754682Y-115006999D01*
X119754682Y-115006999D02*
X119754682Y-115254682D01*
X119350000Y-114200000D02*
X119350000Y-114602317D01*
X119754682Y-115254682D02*
X119300000Y-115709364D01*
X119300000Y-116686870D02*
X119800000Y-117186870D01*
X119300000Y-115709364D02*
X119300000Y-116686870D01*
X119800000Y-117186870D02*
X119800000Y-119000000D01*
X119800000Y-119000000D02*
X118300000Y-120500000D01*
X118300000Y-120500000D02*
X118300000Y-126700000D01*
X118300000Y-126700000D02*
X118600000Y-127000000D01*
X118600000Y-127000000D02*
X131700000Y-127000000D01*
X131700000Y-127000000D02*
X132000000Y-126700000D01*
X132000000Y-126700000D02*
X132000000Y-126400000D01*
X132600000Y-125800000D02*
X134000000Y-125800000D01*
X132000000Y-126400000D02*
X132600000Y-125800000D01*
X133045000Y-120500000D02*
X135099978Y-120500000D01*
X134900000Y-120300022D02*
X135099978Y-120500000D01*
X134900000Y-117800000D02*
X134900000Y-120300022D01*
X119350000Y-114200000D02*
X119350000Y-113786937D01*
X119350000Y-113786937D02*
X119797858Y-113339079D01*
X130130000Y-113125000D02*
X131200000Y-114195000D01*
X131200000Y-114195000D02*
X131200000Y-114600000D01*
X131200000Y-114600000D02*
X130900000Y-114900000D01*
X130900000Y-114900000D02*
X130700000Y-114900000D01*
X130700000Y-114900000D02*
X129700000Y-115900000D01*
X129700000Y-115900000D02*
X129700000Y-116500000D01*
X126600001Y-119599999D02*
X126600001Y-121899999D01*
X126624999Y-119324999D02*
X124575001Y-119324999D01*
X126750000Y-119450000D02*
X126624999Y-119324999D01*
X129700000Y-116500000D02*
X126750000Y-119450000D01*
X126750000Y-119450000D02*
X126600001Y-119599999D01*
X124249999Y-119650001D02*
X124249999Y-121550001D01*
X124575001Y-119324999D02*
X124249999Y-119650001D01*
X118600000Y-111000000D02*
X118900000Y-111300000D01*
X118600000Y-109100000D02*
X118600000Y-111000000D01*
D41*
X127500000Y-105800000D02*
X127600000Y-105700000D01*
X126025000Y-105800000D02*
X127500000Y-105800000D01*
X120500000Y-105000000D02*
X120500000Y-106700000D01*
X120500000Y-106700000D02*
X119100000Y-108100000D01*
X126675000Y-106625000D02*
X127600000Y-105700000D01*
X126675000Y-106800000D02*
X126675000Y-106625000D01*
X125500000Y-99725000D02*
X126316367Y-99725000D01*
X126316367Y-99725000D02*
X126791357Y-99250010D01*
D40*
X126475000Y-110300000D02*
X125674990Y-109499990D01*
X123629490Y-110300000D02*
X123237500Y-110300000D01*
X124429500Y-109499990D02*
X123629490Y-110300000D01*
X125674990Y-109499990D02*
X124429500Y-109499990D01*
X130400000Y-101175000D02*
X131875000Y-101175000D01*
X131997517Y-102423060D02*
X131300000Y-103120577D01*
X131997517Y-101727058D02*
X131997517Y-102423060D01*
X131660229Y-101389770D02*
X131997517Y-101727058D01*
X131300000Y-103305000D02*
X130130000Y-104475000D01*
X131300000Y-103120577D02*
X131300000Y-103305000D01*
X127041377Y-98999990D02*
X131399990Y-98999990D01*
X126791357Y-99250010D02*
X127041377Y-98999990D01*
X131399990Y-98999990D02*
X131500000Y-99100000D01*
X131500000Y-99100000D02*
X131500000Y-100600000D01*
X131824999Y-100924999D02*
X131824999Y-101224999D01*
X131500000Y-100600000D02*
X131824999Y-100924999D01*
X131824999Y-101224999D02*
X131660229Y-101389770D01*
X131875000Y-101175000D02*
X131824999Y-101224999D01*
X124249999Y-121550001D02*
X124249999Y-124350001D01*
X124249999Y-124350001D02*
X124200000Y-124400000D01*
X124200000Y-124400000D02*
X121700000Y-124400000D01*
X120500000Y-106700000D02*
X120586441Y-106613559D01*
X120586441Y-106613559D02*
X121612651Y-106613559D01*
X121612651Y-106613559D02*
X122333508Y-107334416D01*
X122333508Y-109396008D02*
X123237500Y-110300000D01*
X122333508Y-107334416D02*
X122333508Y-109396008D01*
%TO.N,D-*%
X128669990Y-109499990D02*
X128720000Y-109550000D01*
X128720000Y-109550000D02*
X129540000Y-109550000D01*
X128099990Y-109499990D02*
X128669990Y-109499990D01*
X127873022Y-114125000D02*
X128150010Y-113848012D01*
X127707532Y-109499990D02*
X128099990Y-109499990D01*
X127325000Y-114125000D02*
X127873022Y-114125000D01*
X128150010Y-113848012D02*
X128150010Y-111850010D01*
X127200010Y-110007512D02*
X127707532Y-109499990D01*
X128150010Y-111850010D02*
X127200010Y-110900010D01*
X127200010Y-110900010D02*
X127200010Y-110007512D01*
X128302091Y-108138501D02*
X128713590Y-108550000D01*
X122783519Y-108187682D02*
X123243295Y-107727906D01*
X127649979Y-109049979D02*
X124050822Y-109049979D01*
X123243295Y-107727906D02*
X125526228Y-107727906D01*
X125526228Y-107727906D02*
X125936823Y-108138501D01*
X123856523Y-109244278D02*
X123160519Y-109244278D01*
X128713590Y-108550000D02*
X129540000Y-108550000D01*
X123160519Y-109244278D02*
X122783519Y-108867278D01*
X122783519Y-108867278D02*
X122783519Y-108187682D01*
X128099990Y-109499990D02*
X127649979Y-109049979D01*
X125936823Y-108138501D02*
X128302091Y-108138501D01*
X124050822Y-109049979D02*
X123856523Y-109244278D01*
%TO.N,+3V3*%
X122970000Y-125812500D02*
X125470000Y-125812500D01*
X125470000Y-125812500D02*
X127970000Y-125812500D01*
X130470000Y-125812500D02*
X127970000Y-125812500D01*
X128792954Y-99800000D02*
X128767944Y-99825010D01*
X130575000Y-99800000D02*
X128792954Y-99800000D01*
X131670010Y-124612490D02*
X131670010Y-121329990D01*
X131869999Y-121130001D02*
X131869999Y-119389999D01*
X131670010Y-121329990D02*
X131869999Y-121130001D01*
X130470000Y-125812500D02*
X131670010Y-124612490D01*
X133362510Y-118937490D02*
X133362510Y-114940173D01*
X132259988Y-119000010D02*
X133299990Y-119000010D01*
X131869999Y-119389999D02*
X132259988Y-119000010D01*
X133362510Y-114940173D02*
X133263385Y-114841048D01*
X133299990Y-119000010D02*
X133362510Y-118937490D01*
X125500000Y-103024235D02*
X125375766Y-103148469D01*
X125500000Y-101775000D02*
X125500000Y-103024235D01*
X128324999Y-101340001D02*
X128324999Y-100267955D01*
X125500000Y-101775000D02*
X125550001Y-101724999D01*
X125550001Y-101724999D02*
X127940001Y-101724999D01*
X128324999Y-100267955D02*
X128767944Y-99825010D01*
X127940001Y-101724999D02*
X128324999Y-101340001D01*
X119475000Y-110300000D02*
X119475000Y-109038527D01*
X119475000Y-109038527D02*
X121174967Y-107338560D01*
%TO.N,VBUS*%
X129540000Y-106400000D02*
X130200000Y-106400000D01*
X130200000Y-106400000D02*
X130500000Y-106700000D01*
X130195002Y-111200000D02*
X129540000Y-111200000D01*
X130500000Y-110895002D02*
X130195002Y-111200000D01*
X130500000Y-106700000D02*
X130500000Y-110895002D01*
X125248022Y-111500000D02*
X124500000Y-111500000D01*
X125825000Y-112076978D02*
X125248022Y-111500000D01*
X125825000Y-112625000D02*
X125825000Y-112076978D01*
X119778554Y-125891054D02*
X119700000Y-125812500D01*
X121037188Y-125891054D02*
X119778554Y-125891054D01*
X128867704Y-115228640D02*
X129271323Y-114825021D01*
X119700000Y-125262500D02*
X120900010Y-124062490D01*
X126270685Y-118849989D02*
X128360337Y-116760337D01*
X128720000Y-111200000D02*
X129540000Y-111200000D01*
X120900010Y-124062490D02*
X120900010Y-121699990D01*
X122231390Y-119250021D02*
X123813569Y-119250021D01*
X129271323Y-114825021D02*
X129271323Y-114228677D01*
X121520001Y-121079999D02*
X121520001Y-119961410D01*
X121520001Y-119961410D02*
X122231390Y-119250021D01*
X123813569Y-119250021D02*
X124213600Y-118849989D01*
X128471360Y-115228640D02*
X128867704Y-115228640D01*
X128644999Y-111275001D02*
X128720000Y-111200000D01*
X128360337Y-116760337D02*
X128360337Y-115339663D01*
X129271323Y-114228677D02*
X128644999Y-113602354D01*
X128644999Y-113602354D02*
X128644999Y-111275001D01*
X120900010Y-121699990D02*
X121520001Y-121079999D01*
X124213600Y-118849989D02*
X126270685Y-118849989D01*
X128360337Y-115339663D02*
X128471360Y-115228640D01*
%TO.N,IO5*%
X118337500Y-117800000D02*
X118337500Y-115650164D01*
X118337500Y-115650164D02*
X118746112Y-115241552D01*
%TO.N,IO4*%
X122970000Y-120585000D02*
X122885000Y-120500000D01*
X122970000Y-122887500D02*
X122970000Y-120585000D01*
%TO.N,IO3*%
X125470000Y-120545000D02*
X125425000Y-120500000D01*
X125470000Y-122887500D02*
X125470000Y-120545000D01*
%TO.N,IO2*%
X127970000Y-120505000D02*
X127965000Y-120500000D01*
X127970000Y-122887500D02*
X127970000Y-120505000D01*
%TO.N,IO1*%
X130470000Y-120535000D02*
X130505000Y-120500000D01*
X130470000Y-122887500D02*
X130470000Y-120535000D01*
X130505000Y-119270000D02*
X131975000Y-117800000D01*
X130505000Y-120500000D02*
X130505000Y-119270000D01*
X131975000Y-116475000D02*
X131975000Y-117800000D01*
X131100000Y-115600000D02*
X131975000Y-116475000D01*
%TO.N,O*%
X124325000Y-117500000D02*
X124825000Y-118000000D01*
X124325000Y-116625000D02*
X124325000Y-117500000D01*
X123624990Y-118800010D02*
X124425000Y-118000000D01*
X120300000Y-116200000D02*
X121413334Y-116200000D01*
X122757532Y-118800010D02*
X123624990Y-118800010D01*
X121413334Y-116200000D02*
X122299988Y-117086654D01*
X124425000Y-118000000D02*
X124825000Y-118000000D01*
X122299988Y-118342466D02*
X122757532Y-118800010D01*
X122299988Y-117086654D02*
X122299988Y-118342466D01*
%TO.N,I*%
X123325000Y-114125000D02*
X122776978Y-114125000D01*
X122500000Y-112031041D02*
X122002091Y-111533132D01*
X122776978Y-114125000D02*
X122500000Y-113848022D01*
X122500000Y-113848022D02*
X122500000Y-112031041D01*
%TO.N,EN*%
X120524999Y-113130001D02*
X120524999Y-114989997D01*
X120474999Y-113080001D02*
X120524999Y-113130001D01*
X119550000Y-112200000D02*
X120150000Y-112200000D01*
X120150000Y-112200000D02*
X120474999Y-112524999D01*
X120474999Y-112524999D02*
X120474999Y-113080001D01*
X121167501Y-115632499D02*
X121719817Y-115632499D01*
X121719817Y-115632499D02*
X122352317Y-115000000D01*
X120524999Y-114989997D02*
X121167501Y-115632499D01*
X122352317Y-115000000D02*
X123200000Y-115000000D01*
X123200000Y-115000000D02*
X123325000Y-115125000D01*
%TO.N,Net-(J2-PadA5)*%
X128375000Y-110050000D02*
X128125000Y-110300000D01*
X129540000Y-110050000D02*
X128375000Y-110050000D01*
%TO.N,Net-(J2-PadB5)*%
X128375000Y-107050000D02*
X128125000Y-106800000D01*
X129540000Y-107050000D02*
X128375000Y-107050000D01*
%TO.N,Net-(J1-Pad6)*%
X119700000Y-121145000D02*
X120345000Y-120500000D01*
X119700000Y-123437500D02*
X119700000Y-121145000D01*
X121262500Y-117800000D02*
X121262500Y-119582500D01*
X121262500Y-119582500D02*
X120345000Y-120500000D01*
%TO.N,GPIO0*%
X121700000Y-112200000D02*
X121685002Y-112200000D01*
X121700000Y-112200000D02*
X121050000Y-112200000D01*
X123325000Y-114625000D02*
X122488590Y-114625000D01*
X122488590Y-114625000D02*
X122049989Y-114186399D01*
X122049989Y-114186399D02*
X122049989Y-112549989D01*
X122049989Y-112549989D02*
X121700000Y-112200000D01*
%TO.N,USB3.3*%
X126325000Y-111662500D02*
X126325000Y-112625000D01*
X126325000Y-112625000D02*
X127325000Y-113625000D01*
X123325000Y-115625000D02*
X122749999Y-116200001D01*
X122620319Y-116070321D02*
X122620319Y-115805000D01*
X122749999Y-116200001D02*
X122620319Y-116070321D01*
X122749999Y-117574999D02*
X123175000Y-118000000D01*
X122749999Y-116200001D02*
X122749999Y-117574999D01*
X124962500Y-110300000D02*
X125257522Y-110300000D01*
X125257522Y-110300000D02*
X126325000Y-111367478D01*
X126325000Y-111367478D02*
X126325000Y-111662500D01*
X126325000Y-111662500D02*
X126437521Y-111775021D01*
X126437521Y-111775021D02*
X126995491Y-111775021D01*
%TO.N,Net-(Q2-Pad1)*%
X121250000Y-114200000D02*
X121250000Y-114639969D01*
X121250000Y-114639969D02*
X121412513Y-114802482D01*
%TO.N,CBUS*%
X124325000Y-112625000D02*
X123452103Y-111752103D01*
X123452103Y-111752103D02*
X123452103Y-111722555D01*
%TO.N,Net-(Q1-Pad3)*%
X121125000Y-111625000D02*
X121075001Y-111674999D01*
X121125000Y-110300000D02*
X121125000Y-111625000D01*
X121125000Y-110300000D02*
X121125000Y-108755420D01*
X121125000Y-108755420D02*
X121608498Y-108271922D01*
%TO.N,Net-(D1-Pad2)*%
X132225000Y-99800000D02*
X133512500Y-99800000D01*
%TO.N,Net-(D1-Pad1)*%
X135087500Y-99800000D02*
X135087500Y-100353137D01*
X132596825Y-102843812D02*
X132596825Y-101303175D01*
X132596825Y-101303175D02*
X133229681Y-100670319D01*
X133229681Y-100670319D02*
X134770319Y-100670319D01*
X135087500Y-100353137D02*
X134770319Y-100670319D01*
%TO.N,Net-(Q1-Pad1)*%
X121324979Y-112974979D02*
X121324979Y-113000011D01*
X121075001Y-112725001D02*
X121324979Y-112974979D01*
X121324979Y-113125019D02*
X121300000Y-113149998D01*
X121324979Y-113000011D02*
X121324979Y-113125019D01*
%TO.N,DC*%
X133273005Y-113800001D02*
X132849701Y-113800001D01*
X134000000Y-123260000D02*
X135824990Y-121435010D01*
X135824990Y-121435010D02*
X135824990Y-120151986D01*
X135824990Y-120151986D02*
X135787510Y-120114506D01*
X132849701Y-113800001D02*
X132124013Y-114525689D01*
X135787510Y-120114506D02*
X135787510Y-116314506D01*
X135787510Y-116314506D02*
X133273005Y-113800001D01*
X121850000Y-105000000D02*
X121850000Y-105950000D01*
X129100000Y-101500000D02*
X129675059Y-102075059D01*
X129675059Y-102075059D02*
X131272516Y-102075059D01*
X123525000Y-105700000D02*
X124300000Y-105700000D01*
%TO.N,Net-(Q3-Pad2)*%
X127100000Y-103375000D02*
X126675000Y-103800000D01*
X127100000Y-102450000D02*
X127100000Y-103375000D01*
%TO.N,Net-(Q3-Pad1)*%
X127100000Y-100550000D02*
X127149980Y-100550000D01*
X127149980Y-100550000D02*
X127599978Y-100999998D01*
%TO.N,Net-(R12-Pad2)*%
X129300000Y-102825000D02*
X130400000Y-102825000D01*
X128325000Y-103800000D02*
X129300000Y-102825000D01*
X128325000Y-102461237D02*
X128352613Y-102433624D01*
X128325000Y-103800000D02*
X128325000Y-102461237D01*
%TD*%
D42*
%TO.N,GND*%
X119635750Y-115285000D02*
X119750000Y-115288072D01*
X119874482Y-115275812D01*
X119994180Y-115239502D01*
X120068048Y-115200018D01*
X120105583Y-115270242D01*
X120152600Y-115327532D01*
X120152603Y-115327535D01*
X120168316Y-115346681D01*
X120187462Y-115362394D01*
X120196244Y-115371176D01*
X119900000Y-115371176D01*
X119826095Y-115378455D01*
X119755030Y-115400012D01*
X119689537Y-115435019D01*
X119632131Y-115482131D01*
X119585019Y-115539537D01*
X119550012Y-115605030D01*
X119528455Y-115676095D01*
X119521176Y-115750000D01*
X119521176Y-116650000D01*
X119528455Y-116723905D01*
X119550012Y-116794970D01*
X119585019Y-116860463D01*
X119632131Y-116917869D01*
X119689537Y-116964981D01*
X119755030Y-116999988D01*
X119826095Y-117021545D01*
X119900000Y-117028824D01*
X119912130Y-117028824D01*
X119869050Y-117109421D01*
X119833261Y-117227403D01*
X119821176Y-117350100D01*
X119821176Y-118249900D01*
X119833261Y-118372597D01*
X119869050Y-118490579D01*
X119927169Y-118599311D01*
X120005384Y-118694616D01*
X120100689Y-118772831D01*
X120209421Y-118830950D01*
X120327403Y-118866739D01*
X120450100Y-118878824D01*
X120516376Y-118878824D01*
X120600533Y-118947890D01*
X120709205Y-119005977D01*
X120760501Y-119021537D01*
X120760501Y-119344011D01*
X120702903Y-119320153D01*
X120465849Y-119273000D01*
X120224151Y-119273000D01*
X119987097Y-119320153D01*
X119763798Y-119412647D01*
X119562833Y-119546927D01*
X119391927Y-119717833D01*
X119257647Y-119918798D01*
X119165153Y-120142097D01*
X119118000Y-120379151D01*
X119118000Y-120620849D01*
X119165153Y-120857903D01*
X119221349Y-120993571D01*
X119205265Y-121046591D01*
X119195573Y-121145000D01*
X119198001Y-121169653D01*
X119198001Y-121946176D01*
X119074750Y-121946176D01*
X118952121Y-121958254D01*
X118834205Y-121994023D01*
X118725533Y-122052110D01*
X118630281Y-122130281D01*
X118552110Y-122225533D01*
X118494023Y-122334205D01*
X118458254Y-122452121D01*
X118446176Y-122574750D01*
X118446176Y-123200250D01*
X118458254Y-123322879D01*
X118494023Y-123440795D01*
X118552110Y-123549467D01*
X118621176Y-123633624D01*
X118621176Y-123699900D01*
X118633261Y-123822597D01*
X118669050Y-123940579D01*
X118727169Y-124049311D01*
X118805384Y-124144616D01*
X118900689Y-124222831D01*
X119009421Y-124280950D01*
X119127403Y-124316739D01*
X119250100Y-124328824D01*
X119923742Y-124328824D01*
X119881390Y-124371176D01*
X119250100Y-124371176D01*
X119127403Y-124383261D01*
X119009421Y-124419050D01*
X118900689Y-124477169D01*
X118805384Y-124555384D01*
X118727169Y-124650689D01*
X118669050Y-124759421D01*
X118633261Y-124877403D01*
X118621176Y-125000100D01*
X118621176Y-125066376D01*
X118552110Y-125150533D01*
X118494023Y-125259205D01*
X118458254Y-125377121D01*
X118446176Y-125499750D01*
X118446176Y-126125250D01*
X118458254Y-126247879D01*
X118494023Y-126365795D01*
X118552110Y-126474467D01*
X118630281Y-126569719D01*
X118725533Y-126647890D01*
X118834205Y-126705977D01*
X118952121Y-126741746D01*
X119074750Y-126753824D01*
X120325250Y-126753824D01*
X120447879Y-126741746D01*
X120565795Y-126705977D01*
X120674467Y-126647890D01*
X120727962Y-126603988D01*
X120810545Y-126638195D01*
X120960660Y-126668054D01*
X121113716Y-126668054D01*
X121263831Y-126638195D01*
X121405236Y-126579623D01*
X121532497Y-126494590D01*
X121640724Y-126386363D01*
X121725757Y-126259102D01*
X121729164Y-126250878D01*
X121764023Y-126365795D01*
X121822110Y-126474467D01*
X121900281Y-126569719D01*
X121995533Y-126647890D01*
X122104205Y-126705977D01*
X122222121Y-126741746D01*
X122344750Y-126753824D01*
X123595250Y-126753824D01*
X123717879Y-126741746D01*
X123835795Y-126705977D01*
X123944467Y-126647890D01*
X124039719Y-126569719D01*
X124117890Y-126474467D01*
X124175977Y-126365795D01*
X124191537Y-126314500D01*
X124248463Y-126314500D01*
X124264023Y-126365795D01*
X124322110Y-126474467D01*
X124400281Y-126569719D01*
X124495533Y-126647890D01*
X124604205Y-126705977D01*
X124722121Y-126741746D01*
X124844750Y-126753824D01*
X126095250Y-126753824D01*
X126217879Y-126741746D01*
X126335795Y-126705977D01*
X126444467Y-126647890D01*
X126539719Y-126569719D01*
X126617890Y-126474467D01*
X126675977Y-126365795D01*
X126691537Y-126314500D01*
X126748463Y-126314500D01*
X126764023Y-126365795D01*
X126822110Y-126474467D01*
X126900281Y-126569719D01*
X126995533Y-126647890D01*
X127104205Y-126705977D01*
X127222121Y-126741746D01*
X127344750Y-126753824D01*
X128595250Y-126753824D01*
X128717879Y-126741746D01*
X128835795Y-126705977D01*
X128944467Y-126647890D01*
X129039719Y-126569719D01*
X129117890Y-126474467D01*
X129175977Y-126365795D01*
X129191537Y-126314500D01*
X129248463Y-126314500D01*
X129264023Y-126365795D01*
X129322110Y-126474467D01*
X129400281Y-126569719D01*
X129495533Y-126647890D01*
X129604205Y-126705977D01*
X129722121Y-126741746D01*
X129844750Y-126753824D01*
X131095250Y-126753824D01*
X131217879Y-126741746D01*
X131335795Y-126705977D01*
X131444467Y-126647890D01*
X131539719Y-126569719D01*
X131617890Y-126474467D01*
X131675977Y-126365795D01*
X131711746Y-126247879D01*
X131723824Y-126125250D01*
X131723824Y-125499750D01*
X131711746Y-125377121D01*
X131689302Y-125303133D01*
X132007548Y-124984887D01*
X132026694Y-124969174D01*
X132089427Y-124892735D01*
X132136041Y-124805526D01*
X132164746Y-124710899D01*
X132172010Y-124637143D01*
X132172010Y-124637134D01*
X132174437Y-124612491D01*
X132172010Y-124587848D01*
X132172010Y-121985808D01*
X132195000Y-121988072D01*
X132759250Y-121985000D01*
X132918000Y-121826250D01*
X132918000Y-120627000D01*
X133172000Y-120627000D01*
X133172000Y-121826250D01*
X133330750Y-121985000D01*
X133895000Y-121988072D01*
X134019482Y-121975812D01*
X134139180Y-121939502D01*
X134249494Y-121880537D01*
X134346185Y-121801185D01*
X134425537Y-121704494D01*
X134484502Y-121594180D01*
X134520812Y-121474482D01*
X134533072Y-121350000D01*
X134530000Y-120785750D01*
X134371250Y-120627000D01*
X133172000Y-120627000D01*
X132918000Y-120627000D01*
X132898000Y-120627000D01*
X132898000Y-120373000D01*
X132918000Y-120373000D01*
X132918000Y-120353000D01*
X133172000Y-120353000D01*
X133172000Y-120373000D01*
X134371250Y-120373000D01*
X134530000Y-120214250D01*
X134533072Y-119650000D01*
X134520812Y-119525518D01*
X134484502Y-119405820D01*
X134434352Y-119311997D01*
X134614250Y-119310000D01*
X134773000Y-119151250D01*
X134773000Y-119136859D01*
X134862500Y-119138072D01*
X134986982Y-119125812D01*
X135027000Y-119113673D01*
X135027000Y-119151250D01*
X135185750Y-119310000D01*
X135285510Y-119311107D01*
X135285510Y-120089863D01*
X135283083Y-120114506D01*
X135285510Y-120139149D01*
X135285510Y-120139158D01*
X135292774Y-120212914D01*
X135321479Y-120307541D01*
X135322991Y-120310370D01*
X135322990Y-121227074D01*
X134437105Y-122112960D01*
X134357903Y-122080153D01*
X134120849Y-122033000D01*
X133879151Y-122033000D01*
X133642097Y-122080153D01*
X133418798Y-122172647D01*
X133217833Y-122306927D01*
X133046927Y-122477833D01*
X132912647Y-122678798D01*
X132820153Y-122902097D01*
X132773000Y-123139151D01*
X132773000Y-123380849D01*
X132820153Y-123617903D01*
X132912647Y-123841202D01*
X133046927Y-124042167D01*
X133217833Y-124213073D01*
X133367553Y-124313112D01*
X133150000Y-124311928D01*
X133025518Y-124324188D01*
X132905820Y-124360498D01*
X132795506Y-124419463D01*
X132698815Y-124498815D01*
X132619463Y-124595506D01*
X132560498Y-124705820D01*
X132524188Y-124825518D01*
X132511928Y-124950000D01*
X132515000Y-125514250D01*
X132673750Y-125673000D01*
X133873000Y-125673000D01*
X133873000Y-125653000D01*
X134127000Y-125653000D01*
X134127000Y-125673000D01*
X135326250Y-125673000D01*
X135485000Y-125514250D01*
X135488072Y-124950000D01*
X135475812Y-124825518D01*
X135439502Y-124705820D01*
X135380537Y-124595506D01*
X135301185Y-124498815D01*
X135204494Y-124419463D01*
X135094180Y-124360498D01*
X134974482Y-124324188D01*
X134850000Y-124311928D01*
X134632447Y-124313112D01*
X134782167Y-124213073D01*
X134953073Y-124042167D01*
X135087353Y-123841202D01*
X135179847Y-123617903D01*
X135227000Y-123380849D01*
X135227000Y-123139151D01*
X135179847Y-122902097D01*
X135147040Y-122822895D01*
X135773000Y-122196935D01*
X135773000Y-126579117D01*
X135760078Y-126710899D01*
X135727873Y-126817570D01*
X135675558Y-126915961D01*
X135605130Y-127002313D01*
X135519270Y-127073343D01*
X135421255Y-127126339D01*
X135314807Y-127159290D01*
X135217983Y-127169467D01*
X135301185Y-127101185D01*
X135380537Y-127004494D01*
X135439502Y-126894180D01*
X135475812Y-126774482D01*
X135488072Y-126650000D01*
X135485000Y-126085750D01*
X135326250Y-125927000D01*
X134127000Y-125927000D01*
X134127000Y-125947000D01*
X133873000Y-125947000D01*
X133873000Y-125927000D01*
X132673750Y-125927000D01*
X132515000Y-126085750D01*
X132511928Y-126650000D01*
X132524188Y-126774482D01*
X132560498Y-126894180D01*
X132619463Y-127004494D01*
X132698815Y-127101185D01*
X132786322Y-127173000D01*
X118220883Y-127173000D01*
X118089101Y-127160078D01*
X117982430Y-127127873D01*
X117884039Y-127075558D01*
X117797687Y-127005130D01*
X117726657Y-126919270D01*
X117673661Y-126821255D01*
X117640710Y-126714807D01*
X117627000Y-126584371D01*
X117627000Y-118908060D01*
X117675533Y-118947890D01*
X117784205Y-119005977D01*
X117902121Y-119041746D01*
X118024750Y-119053824D01*
X118650250Y-119053824D01*
X118772879Y-119041746D01*
X118890795Y-119005977D01*
X118999467Y-118947890D01*
X119083624Y-118878824D01*
X119149900Y-118878824D01*
X119272597Y-118866739D01*
X119390579Y-118830950D01*
X119499311Y-118772831D01*
X119594616Y-118694616D01*
X119672831Y-118599311D01*
X119730950Y-118490579D01*
X119766739Y-118372597D01*
X119778824Y-118249900D01*
X119778824Y-117350100D01*
X119766739Y-117227403D01*
X119730950Y-117109421D01*
X119672831Y-117000689D01*
X119594616Y-116905384D01*
X119499311Y-116827169D01*
X119390579Y-116769050D01*
X119272597Y-116733261D01*
X119149900Y-116721176D01*
X119083624Y-116721176D01*
X118999467Y-116652110D01*
X118890795Y-116594023D01*
X118839500Y-116578463D01*
X118839500Y-116015198D01*
X118972755Y-115988693D01*
X119114160Y-115930121D01*
X119241421Y-115845088D01*
X119349648Y-115736861D01*
X119434681Y-115609600D01*
X119493253Y-115468195D01*
X119523112Y-115318080D01*
X119523112Y-115172362D01*
X119635750Y-115285000D01*
%TA.AperFunction,Conductor*%
D43*
G36*
X119635750Y-115285000D02*
G01*
X119750000Y-115288072D01*
X119874482Y-115275812D01*
X119994180Y-115239502D01*
X120068048Y-115200018D01*
X120105583Y-115270242D01*
X120152600Y-115327532D01*
X120152603Y-115327535D01*
X120168316Y-115346681D01*
X120187462Y-115362394D01*
X120196244Y-115371176D01*
X119900000Y-115371176D01*
X119826095Y-115378455D01*
X119755030Y-115400012D01*
X119689537Y-115435019D01*
X119632131Y-115482131D01*
X119585019Y-115539537D01*
X119550012Y-115605030D01*
X119528455Y-115676095D01*
X119521176Y-115750000D01*
X119521176Y-116650000D01*
X119528455Y-116723905D01*
X119550012Y-116794970D01*
X119585019Y-116860463D01*
X119632131Y-116917869D01*
X119689537Y-116964981D01*
X119755030Y-116999988D01*
X119826095Y-117021545D01*
X119900000Y-117028824D01*
X119912130Y-117028824D01*
X119869050Y-117109421D01*
X119833261Y-117227403D01*
X119821176Y-117350100D01*
X119821176Y-118249900D01*
X119833261Y-118372597D01*
X119869050Y-118490579D01*
X119927169Y-118599311D01*
X120005384Y-118694616D01*
X120100689Y-118772831D01*
X120209421Y-118830950D01*
X120327403Y-118866739D01*
X120450100Y-118878824D01*
X120516376Y-118878824D01*
X120600533Y-118947890D01*
X120709205Y-119005977D01*
X120760501Y-119021537D01*
X120760501Y-119344011D01*
X120702903Y-119320153D01*
X120465849Y-119273000D01*
X120224151Y-119273000D01*
X119987097Y-119320153D01*
X119763798Y-119412647D01*
X119562833Y-119546927D01*
X119391927Y-119717833D01*
X119257647Y-119918798D01*
X119165153Y-120142097D01*
X119118000Y-120379151D01*
X119118000Y-120620849D01*
X119165153Y-120857903D01*
X119221349Y-120993571D01*
X119205265Y-121046591D01*
X119195573Y-121145000D01*
X119198001Y-121169653D01*
X119198001Y-121946176D01*
X119074750Y-121946176D01*
X118952121Y-121958254D01*
X118834205Y-121994023D01*
X118725533Y-122052110D01*
X118630281Y-122130281D01*
X118552110Y-122225533D01*
X118494023Y-122334205D01*
X118458254Y-122452121D01*
X118446176Y-122574750D01*
X118446176Y-123200250D01*
X118458254Y-123322879D01*
X118494023Y-123440795D01*
X118552110Y-123549467D01*
X118621176Y-123633624D01*
X118621176Y-123699900D01*
X118633261Y-123822597D01*
X118669050Y-123940579D01*
X118727169Y-124049311D01*
X118805384Y-124144616D01*
X118900689Y-124222831D01*
X119009421Y-124280950D01*
X119127403Y-124316739D01*
X119250100Y-124328824D01*
X119923742Y-124328824D01*
X119881390Y-124371176D01*
X119250100Y-124371176D01*
X119127403Y-124383261D01*
X119009421Y-124419050D01*
X118900689Y-124477169D01*
X118805384Y-124555384D01*
X118727169Y-124650689D01*
X118669050Y-124759421D01*
X118633261Y-124877403D01*
X118621176Y-125000100D01*
X118621176Y-125066376D01*
X118552110Y-125150533D01*
X118494023Y-125259205D01*
X118458254Y-125377121D01*
X118446176Y-125499750D01*
X118446176Y-126125250D01*
X118458254Y-126247879D01*
X118494023Y-126365795D01*
X118552110Y-126474467D01*
X118630281Y-126569719D01*
X118725533Y-126647890D01*
X118834205Y-126705977D01*
X118952121Y-126741746D01*
X119074750Y-126753824D01*
X120325250Y-126753824D01*
X120447879Y-126741746D01*
X120565795Y-126705977D01*
X120674467Y-126647890D01*
X120727962Y-126603988D01*
X120810545Y-126638195D01*
X120960660Y-126668054D01*
X121113716Y-126668054D01*
X121263831Y-126638195D01*
X121405236Y-126579623D01*
X121532497Y-126494590D01*
X121640724Y-126386363D01*
X121725757Y-126259102D01*
X121729164Y-126250878D01*
X121764023Y-126365795D01*
X121822110Y-126474467D01*
X121900281Y-126569719D01*
X121995533Y-126647890D01*
X122104205Y-126705977D01*
X122222121Y-126741746D01*
X122344750Y-126753824D01*
X123595250Y-126753824D01*
X123717879Y-126741746D01*
X123835795Y-126705977D01*
X123944467Y-126647890D01*
X124039719Y-126569719D01*
X124117890Y-126474467D01*
X124175977Y-126365795D01*
X124191537Y-126314500D01*
X124248463Y-126314500D01*
X124264023Y-126365795D01*
X124322110Y-126474467D01*
X124400281Y-126569719D01*
X124495533Y-126647890D01*
X124604205Y-126705977D01*
X124722121Y-126741746D01*
X124844750Y-126753824D01*
X126095250Y-126753824D01*
X126217879Y-126741746D01*
X126335795Y-126705977D01*
X126444467Y-126647890D01*
X126539719Y-126569719D01*
X126617890Y-126474467D01*
X126675977Y-126365795D01*
X126691537Y-126314500D01*
X126748463Y-126314500D01*
X126764023Y-126365795D01*
X126822110Y-126474467D01*
X126900281Y-126569719D01*
X126995533Y-126647890D01*
X127104205Y-126705977D01*
X127222121Y-126741746D01*
X127344750Y-126753824D01*
X128595250Y-126753824D01*
X128717879Y-126741746D01*
X128835795Y-126705977D01*
X128944467Y-126647890D01*
X129039719Y-126569719D01*
X129117890Y-126474467D01*
X129175977Y-126365795D01*
X129191537Y-126314500D01*
X129248463Y-126314500D01*
X129264023Y-126365795D01*
X129322110Y-126474467D01*
X129400281Y-126569719D01*
X129495533Y-126647890D01*
X129604205Y-126705977D01*
X129722121Y-126741746D01*
X129844750Y-126753824D01*
X131095250Y-126753824D01*
X131217879Y-126741746D01*
X131335795Y-126705977D01*
X131444467Y-126647890D01*
X131539719Y-126569719D01*
X131617890Y-126474467D01*
X131675977Y-126365795D01*
X131711746Y-126247879D01*
X131723824Y-126125250D01*
X131723824Y-125499750D01*
X131711746Y-125377121D01*
X131689302Y-125303133D01*
X132007548Y-124984887D01*
X132026694Y-124969174D01*
X132089427Y-124892735D01*
X132136041Y-124805526D01*
X132164746Y-124710899D01*
X132172010Y-124637143D01*
X132172010Y-124637134D01*
X132174437Y-124612491D01*
X132172010Y-124587848D01*
X132172010Y-121985808D01*
X132195000Y-121988072D01*
X132759250Y-121985000D01*
X132918000Y-121826250D01*
X132918000Y-120627000D01*
X133172000Y-120627000D01*
X133172000Y-121826250D01*
X133330750Y-121985000D01*
X133895000Y-121988072D01*
X134019482Y-121975812D01*
X134139180Y-121939502D01*
X134249494Y-121880537D01*
X134346185Y-121801185D01*
X134425537Y-121704494D01*
X134484502Y-121594180D01*
X134520812Y-121474482D01*
X134533072Y-121350000D01*
X134530000Y-120785750D01*
X134371250Y-120627000D01*
X133172000Y-120627000D01*
X132918000Y-120627000D01*
X132898000Y-120627000D01*
X132898000Y-120373000D01*
X132918000Y-120373000D01*
X132918000Y-120353000D01*
X133172000Y-120353000D01*
X133172000Y-120373000D01*
X134371250Y-120373000D01*
X134530000Y-120214250D01*
X134533072Y-119650000D01*
X134520812Y-119525518D01*
X134484502Y-119405820D01*
X134434352Y-119311997D01*
X134614250Y-119310000D01*
X134773000Y-119151250D01*
X134773000Y-119136859D01*
X134862500Y-119138072D01*
X134986982Y-119125812D01*
X135027000Y-119113673D01*
X135027000Y-119151250D01*
X135185750Y-119310000D01*
X135285510Y-119311107D01*
X135285510Y-120089863D01*
X135283083Y-120114506D01*
X135285510Y-120139149D01*
X135285510Y-120139158D01*
X135292774Y-120212914D01*
X135321479Y-120307541D01*
X135322991Y-120310370D01*
X135322990Y-121227074D01*
X134437105Y-122112960D01*
X134357903Y-122080153D01*
X134120849Y-122033000D01*
X133879151Y-122033000D01*
X133642097Y-122080153D01*
X133418798Y-122172647D01*
X133217833Y-122306927D01*
X133046927Y-122477833D01*
X132912647Y-122678798D01*
X132820153Y-122902097D01*
X132773000Y-123139151D01*
X132773000Y-123380849D01*
X132820153Y-123617903D01*
X132912647Y-123841202D01*
X133046927Y-124042167D01*
X133217833Y-124213073D01*
X133367553Y-124313112D01*
X133150000Y-124311928D01*
X133025518Y-124324188D01*
X132905820Y-124360498D01*
X132795506Y-124419463D01*
X132698815Y-124498815D01*
X132619463Y-124595506D01*
X132560498Y-124705820D01*
X132524188Y-124825518D01*
X132511928Y-124950000D01*
X132515000Y-125514250D01*
X132673750Y-125673000D01*
X133873000Y-125673000D01*
X133873000Y-125653000D01*
X134127000Y-125653000D01*
X134127000Y-125673000D01*
X135326250Y-125673000D01*
X135485000Y-125514250D01*
X135488072Y-124950000D01*
X135475812Y-124825518D01*
X135439502Y-124705820D01*
X135380537Y-124595506D01*
X135301185Y-124498815D01*
X135204494Y-124419463D01*
X135094180Y-124360498D01*
X134974482Y-124324188D01*
X134850000Y-124311928D01*
X134632447Y-124313112D01*
X134782167Y-124213073D01*
X134953073Y-124042167D01*
X135087353Y-123841202D01*
X135179847Y-123617903D01*
X135227000Y-123380849D01*
X135227000Y-123139151D01*
X135179847Y-122902097D01*
X135147040Y-122822895D01*
X135773000Y-122196935D01*
X135773000Y-126579117D01*
X135760078Y-126710899D01*
X135727873Y-126817570D01*
X135675558Y-126915961D01*
X135605130Y-127002313D01*
X135519270Y-127073343D01*
X135421255Y-127126339D01*
X135314807Y-127159290D01*
X135217983Y-127169467D01*
X135301185Y-127101185D01*
X135380537Y-127004494D01*
X135439502Y-126894180D01*
X135475812Y-126774482D01*
X135488072Y-126650000D01*
X135485000Y-126085750D01*
X135326250Y-125927000D01*
X134127000Y-125927000D01*
X134127000Y-125947000D01*
X133873000Y-125947000D01*
X133873000Y-125927000D01*
X132673750Y-125927000D01*
X132515000Y-126085750D01*
X132511928Y-126650000D01*
X132524188Y-126774482D01*
X132560498Y-126894180D01*
X132619463Y-127004494D01*
X132698815Y-127101185D01*
X132786322Y-127173000D01*
X118220883Y-127173000D01*
X118089101Y-127160078D01*
X117982430Y-127127873D01*
X117884039Y-127075558D01*
X117797687Y-127005130D01*
X117726657Y-126919270D01*
X117673661Y-126821255D01*
X117640710Y-126714807D01*
X117627000Y-126584371D01*
X117627000Y-118908060D01*
X117675533Y-118947890D01*
X117784205Y-119005977D01*
X117902121Y-119041746D01*
X118024750Y-119053824D01*
X118650250Y-119053824D01*
X118772879Y-119041746D01*
X118890795Y-119005977D01*
X118999467Y-118947890D01*
X119083624Y-118878824D01*
X119149900Y-118878824D01*
X119272597Y-118866739D01*
X119390579Y-118830950D01*
X119499311Y-118772831D01*
X119594616Y-118694616D01*
X119672831Y-118599311D01*
X119730950Y-118490579D01*
X119766739Y-118372597D01*
X119778824Y-118249900D01*
X119778824Y-117350100D01*
X119766739Y-117227403D01*
X119730950Y-117109421D01*
X119672831Y-117000689D01*
X119594616Y-116905384D01*
X119499311Y-116827169D01*
X119390579Y-116769050D01*
X119272597Y-116733261D01*
X119149900Y-116721176D01*
X119083624Y-116721176D01*
X118999467Y-116652110D01*
X118890795Y-116594023D01*
X118839500Y-116578463D01*
X118839500Y-116015198D01*
X118972755Y-115988693D01*
X119114160Y-115930121D01*
X119241421Y-115845088D01*
X119349648Y-115736861D01*
X119434681Y-115609600D01*
X119493253Y-115468195D01*
X119523112Y-115318080D01*
X119523112Y-115172362D01*
X119635750Y-115285000D01*
G37*
%TD.AperFunction*%
D42*
X122102833Y-121453073D02*
X122303798Y-121587353D01*
X122468001Y-121655368D01*
X122468000Y-121946176D01*
X122344750Y-121946176D01*
X122222121Y-121958254D01*
X122104205Y-121994023D01*
X121995533Y-122052110D01*
X121900281Y-122130281D01*
X121822110Y-122225533D01*
X121764023Y-122334205D01*
X121728254Y-122452121D01*
X121716176Y-122574750D01*
X121716176Y-123200250D01*
X121728254Y-123322879D01*
X121764023Y-123440795D01*
X121822110Y-123549467D01*
X121891176Y-123633624D01*
X121891176Y-123699900D01*
X121903261Y-123822597D01*
X121939050Y-123940579D01*
X121997169Y-124049311D01*
X122075384Y-124144616D01*
X122170689Y-124222831D01*
X122279421Y-124280950D01*
X122397403Y-124316739D01*
X122520100Y-124328824D01*
X123419900Y-124328824D01*
X123542597Y-124316739D01*
X123660579Y-124280950D01*
X123769311Y-124222831D01*
X123864616Y-124144616D01*
X123942831Y-124049311D01*
X124000950Y-123940579D01*
X124036739Y-123822597D01*
X124048824Y-123699900D01*
X124048824Y-123633624D01*
X124117890Y-123549467D01*
X124175977Y-123440795D01*
X124211746Y-123322879D01*
X124220000Y-123239075D01*
X124228254Y-123322879D01*
X124264023Y-123440795D01*
X124322110Y-123549467D01*
X124391176Y-123633624D01*
X124391176Y-123699900D01*
X124403261Y-123822597D01*
X124439050Y-123940579D01*
X124497169Y-124049311D01*
X124575384Y-124144616D01*
X124670689Y-124222831D01*
X124779421Y-124280950D01*
X124897403Y-124316739D01*
X125020100Y-124328824D01*
X125919900Y-124328824D01*
X126042597Y-124316739D01*
X126160579Y-124280950D01*
X126269311Y-124222831D01*
X126364616Y-124144616D01*
X126442831Y-124049311D01*
X126500950Y-123940579D01*
X126536739Y-123822597D01*
X126548824Y-123699900D01*
X126548824Y-123633624D01*
X126617890Y-123549467D01*
X126675977Y-123440795D01*
X126711746Y-123322879D01*
X126720000Y-123239075D01*
X126728254Y-123322879D01*
X126764023Y-123440795D01*
X126822110Y-123549467D01*
X126891176Y-123633624D01*
X126891176Y-123699900D01*
X126903261Y-123822597D01*
X126939050Y-123940579D01*
X126997169Y-124049311D01*
X127075384Y-124144616D01*
X127170689Y-124222831D01*
X127279421Y-124280950D01*
X127397403Y-124316739D01*
X127520100Y-124328824D01*
X128419900Y-124328824D01*
X128542597Y-124316739D01*
X128660579Y-124280950D01*
X128769311Y-124222831D01*
X128864616Y-124144616D01*
X128942831Y-124049311D01*
X129000950Y-123940579D01*
X129036739Y-123822597D01*
X129048824Y-123699900D01*
X129048824Y-123633624D01*
X129117890Y-123549467D01*
X129175977Y-123440795D01*
X129211746Y-123322879D01*
X129220000Y-123239075D01*
X129228254Y-123322879D01*
X129264023Y-123440795D01*
X129322110Y-123549467D01*
X129391176Y-123633624D01*
X129391176Y-123699900D01*
X129403261Y-123822597D01*
X129439050Y-123940579D01*
X129497169Y-124049311D01*
X129575384Y-124144616D01*
X129670689Y-124222831D01*
X129779421Y-124280950D01*
X129897403Y-124316739D01*
X130020100Y-124328824D01*
X130919900Y-124328824D01*
X131042597Y-124316739D01*
X131160579Y-124280950D01*
X131168010Y-124276978D01*
X131168010Y-124404555D01*
X131155159Y-124417406D01*
X131042597Y-124383261D01*
X130919900Y-124371176D01*
X130020100Y-124371176D01*
X129897403Y-124383261D01*
X129779421Y-124419050D01*
X129670689Y-124477169D01*
X129575384Y-124555384D01*
X129497169Y-124650689D01*
X129439050Y-124759421D01*
X129403261Y-124877403D01*
X129391176Y-125000100D01*
X129391176Y-125066376D01*
X129322110Y-125150533D01*
X129264023Y-125259205D01*
X129248463Y-125310500D01*
X129191537Y-125310500D01*
X129175977Y-125259205D01*
X129117890Y-125150533D01*
X129048824Y-125066376D01*
X129048824Y-125000100D01*
X129036739Y-124877403D01*
X129000950Y-124759421D01*
X128942831Y-124650689D01*
X128864616Y-124555384D01*
X128769311Y-124477169D01*
X128660579Y-124419050D01*
X128542597Y-124383261D01*
X128419900Y-124371176D01*
X127520100Y-124371176D01*
X127397403Y-124383261D01*
X127279421Y-124419050D01*
X127170689Y-124477169D01*
X127075384Y-124555384D01*
X126997169Y-124650689D01*
X126939050Y-124759421D01*
X126903261Y-124877403D01*
X126891176Y-125000100D01*
X126891176Y-125066376D01*
X126822110Y-125150533D01*
X126764023Y-125259205D01*
X126748463Y-125310500D01*
X126691537Y-125310500D01*
X126675977Y-125259205D01*
X126617890Y-125150533D01*
X126548824Y-125066376D01*
X126548824Y-125000100D01*
X126536739Y-124877403D01*
X126500950Y-124759421D01*
X126442831Y-124650689D01*
X126364616Y-124555384D01*
X126269311Y-124477169D01*
X126160579Y-124419050D01*
X126042597Y-124383261D01*
X125919900Y-124371176D01*
X125020100Y-124371176D01*
X124897403Y-124383261D01*
X124779421Y-124419050D01*
X124670689Y-124477169D01*
X124575384Y-124555384D01*
X124497169Y-124650689D01*
X124439050Y-124759421D01*
X124403261Y-124877403D01*
X124391176Y-125000100D01*
X124391176Y-125066376D01*
X124322110Y-125150533D01*
X124264023Y-125259205D01*
X124248463Y-125310500D01*
X124191537Y-125310500D01*
X124175977Y-125259205D01*
X124117890Y-125150533D01*
X124048824Y-125066376D01*
X124048824Y-125000100D01*
X124036739Y-124877403D01*
X124000950Y-124759421D01*
X123942831Y-124650689D01*
X123864616Y-124555384D01*
X123769311Y-124477169D01*
X123660579Y-124419050D01*
X123542597Y-124383261D01*
X123419900Y-124371176D01*
X122520100Y-124371176D01*
X122397403Y-124383261D01*
X122279421Y-124419050D01*
X122170689Y-124477169D01*
X122075384Y-124555384D01*
X121997169Y-124650689D01*
X121939050Y-124759421D01*
X121903261Y-124877403D01*
X121891176Y-125000100D01*
X121891176Y-125066376D01*
X121822110Y-125150533D01*
X121764023Y-125259205D01*
X121728254Y-125377121D01*
X121716176Y-125499750D01*
X121716176Y-125508667D01*
X121640724Y-125395745D01*
X121532497Y-125287518D01*
X121405236Y-125202485D01*
X121263831Y-125143913D01*
X121113716Y-125114054D01*
X120960660Y-125114054D01*
X120837979Y-125138456D01*
X120778824Y-125066376D01*
X120778824Y-125000100D01*
X120769276Y-124903159D01*
X121237548Y-124434887D01*
X121256694Y-124419174D01*
X121319427Y-124342735D01*
X121366041Y-124255526D01*
X121394746Y-124160899D01*
X121402010Y-124087143D01*
X121402010Y-124087134D01*
X121404437Y-124062491D01*
X121402010Y-124037848D01*
X121402010Y-121907925D01*
X121857544Y-121452392D01*
X121876685Y-121436683D01*
X121892393Y-121417543D01*
X121892401Y-121417535D01*
X121939418Y-121360245D01*
X121964005Y-121314245D01*
X122102833Y-121453073D01*
%TA.AperFunction,Conductor*%
D43*
G36*
X122102833Y-121453073D02*
G01*
X122303798Y-121587353D01*
X122468001Y-121655368D01*
X122468000Y-121946176D01*
X122344750Y-121946176D01*
X122222121Y-121958254D01*
X122104205Y-121994023D01*
X121995533Y-122052110D01*
X121900281Y-122130281D01*
X121822110Y-122225533D01*
X121764023Y-122334205D01*
X121728254Y-122452121D01*
X121716176Y-122574750D01*
X121716176Y-123200250D01*
X121728254Y-123322879D01*
X121764023Y-123440795D01*
X121822110Y-123549467D01*
X121891176Y-123633624D01*
X121891176Y-123699900D01*
X121903261Y-123822597D01*
X121939050Y-123940579D01*
X121997169Y-124049311D01*
X122075384Y-124144616D01*
X122170689Y-124222831D01*
X122279421Y-124280950D01*
X122397403Y-124316739D01*
X122520100Y-124328824D01*
X123419900Y-124328824D01*
X123542597Y-124316739D01*
X123660579Y-124280950D01*
X123769311Y-124222831D01*
X123864616Y-124144616D01*
X123942831Y-124049311D01*
X124000950Y-123940579D01*
X124036739Y-123822597D01*
X124048824Y-123699900D01*
X124048824Y-123633624D01*
X124117890Y-123549467D01*
X124175977Y-123440795D01*
X124211746Y-123322879D01*
X124220000Y-123239075D01*
X124228254Y-123322879D01*
X124264023Y-123440795D01*
X124322110Y-123549467D01*
X124391176Y-123633624D01*
X124391176Y-123699900D01*
X124403261Y-123822597D01*
X124439050Y-123940579D01*
X124497169Y-124049311D01*
X124575384Y-124144616D01*
X124670689Y-124222831D01*
X124779421Y-124280950D01*
X124897403Y-124316739D01*
X125020100Y-124328824D01*
X125919900Y-124328824D01*
X126042597Y-124316739D01*
X126160579Y-124280950D01*
X126269311Y-124222831D01*
X126364616Y-124144616D01*
X126442831Y-124049311D01*
X126500950Y-123940579D01*
X126536739Y-123822597D01*
X126548824Y-123699900D01*
X126548824Y-123633624D01*
X126617890Y-123549467D01*
X126675977Y-123440795D01*
X126711746Y-123322879D01*
X126720000Y-123239075D01*
X126728254Y-123322879D01*
X126764023Y-123440795D01*
X126822110Y-123549467D01*
X126891176Y-123633624D01*
X126891176Y-123699900D01*
X126903261Y-123822597D01*
X126939050Y-123940579D01*
X126997169Y-124049311D01*
X127075384Y-124144616D01*
X127170689Y-124222831D01*
X127279421Y-124280950D01*
X127397403Y-124316739D01*
X127520100Y-124328824D01*
X128419900Y-124328824D01*
X128542597Y-124316739D01*
X128660579Y-124280950D01*
X128769311Y-124222831D01*
X128864616Y-124144616D01*
X128942831Y-124049311D01*
X129000950Y-123940579D01*
X129036739Y-123822597D01*
X129048824Y-123699900D01*
X129048824Y-123633624D01*
X129117890Y-123549467D01*
X129175977Y-123440795D01*
X129211746Y-123322879D01*
X129220000Y-123239075D01*
X129228254Y-123322879D01*
X129264023Y-123440795D01*
X129322110Y-123549467D01*
X129391176Y-123633624D01*
X129391176Y-123699900D01*
X129403261Y-123822597D01*
X129439050Y-123940579D01*
X129497169Y-124049311D01*
X129575384Y-124144616D01*
X129670689Y-124222831D01*
X129779421Y-124280950D01*
X129897403Y-124316739D01*
X130020100Y-124328824D01*
X130919900Y-124328824D01*
X131042597Y-124316739D01*
X131160579Y-124280950D01*
X131168010Y-124276978D01*
X131168010Y-124404555D01*
X131155159Y-124417406D01*
X131042597Y-124383261D01*
X130919900Y-124371176D01*
X130020100Y-124371176D01*
X129897403Y-124383261D01*
X129779421Y-124419050D01*
X129670689Y-124477169D01*
X129575384Y-124555384D01*
X129497169Y-124650689D01*
X129439050Y-124759421D01*
X129403261Y-124877403D01*
X129391176Y-125000100D01*
X129391176Y-125066376D01*
X129322110Y-125150533D01*
X129264023Y-125259205D01*
X129248463Y-125310500D01*
X129191537Y-125310500D01*
X129175977Y-125259205D01*
X129117890Y-125150533D01*
X129048824Y-125066376D01*
X129048824Y-125000100D01*
X129036739Y-124877403D01*
X129000950Y-124759421D01*
X128942831Y-124650689D01*
X128864616Y-124555384D01*
X128769311Y-124477169D01*
X128660579Y-124419050D01*
X128542597Y-124383261D01*
X128419900Y-124371176D01*
X127520100Y-124371176D01*
X127397403Y-124383261D01*
X127279421Y-124419050D01*
X127170689Y-124477169D01*
X127075384Y-124555384D01*
X126997169Y-124650689D01*
X126939050Y-124759421D01*
X126903261Y-124877403D01*
X126891176Y-125000100D01*
X126891176Y-125066376D01*
X126822110Y-125150533D01*
X126764023Y-125259205D01*
X126748463Y-125310500D01*
X126691537Y-125310500D01*
X126675977Y-125259205D01*
X126617890Y-125150533D01*
X126548824Y-125066376D01*
X126548824Y-125000100D01*
X126536739Y-124877403D01*
X126500950Y-124759421D01*
X126442831Y-124650689D01*
X126364616Y-124555384D01*
X126269311Y-124477169D01*
X126160579Y-124419050D01*
X126042597Y-124383261D01*
X125919900Y-124371176D01*
X125020100Y-124371176D01*
X124897403Y-124383261D01*
X124779421Y-124419050D01*
X124670689Y-124477169D01*
X124575384Y-124555384D01*
X124497169Y-124650689D01*
X124439050Y-124759421D01*
X124403261Y-124877403D01*
X124391176Y-125000100D01*
X124391176Y-125066376D01*
X124322110Y-125150533D01*
X124264023Y-125259205D01*
X124248463Y-125310500D01*
X124191537Y-125310500D01*
X124175977Y-125259205D01*
X124117890Y-125150533D01*
X124048824Y-125066376D01*
X124048824Y-125000100D01*
X124036739Y-124877403D01*
X124000950Y-124759421D01*
X123942831Y-124650689D01*
X123864616Y-124555384D01*
X123769311Y-124477169D01*
X123660579Y-124419050D01*
X123542597Y-124383261D01*
X123419900Y-124371176D01*
X122520100Y-124371176D01*
X122397403Y-124383261D01*
X122279421Y-124419050D01*
X122170689Y-124477169D01*
X122075384Y-124555384D01*
X121997169Y-124650689D01*
X121939050Y-124759421D01*
X121903261Y-124877403D01*
X121891176Y-125000100D01*
X121891176Y-125066376D01*
X121822110Y-125150533D01*
X121764023Y-125259205D01*
X121728254Y-125377121D01*
X121716176Y-125499750D01*
X121716176Y-125508667D01*
X121640724Y-125395745D01*
X121532497Y-125287518D01*
X121405236Y-125202485D01*
X121263831Y-125143913D01*
X121113716Y-125114054D01*
X120960660Y-125114054D01*
X120837979Y-125138456D01*
X120778824Y-125066376D01*
X120778824Y-125000100D01*
X120769276Y-124903159D01*
X121237548Y-124434887D01*
X121256694Y-124419174D01*
X121319427Y-124342735D01*
X121366041Y-124255526D01*
X121394746Y-124160899D01*
X121402010Y-124087143D01*
X121402010Y-124087134D01*
X121404437Y-124062491D01*
X121402010Y-124037848D01*
X121402010Y-121907925D01*
X121857544Y-121452392D01*
X121876685Y-121436683D01*
X121892393Y-121417543D01*
X121892401Y-121417535D01*
X121939418Y-121360245D01*
X121964005Y-121314245D01*
X122102833Y-121453073D01*
G37*
%TD.AperFunction*%
D42*
X124843798Y-119412647D02*
X124642833Y-119546927D01*
X124471927Y-119717833D01*
X124337647Y-119918798D01*
X124245153Y-120142097D01*
X124198000Y-120379151D01*
X124198000Y-120620849D01*
X124245153Y-120857903D01*
X124337647Y-121081202D01*
X124471927Y-121282167D01*
X124642833Y-121453073D01*
X124843798Y-121587353D01*
X124968001Y-121638800D01*
X124968000Y-121946176D01*
X124844750Y-121946176D01*
X124722121Y-121958254D01*
X124604205Y-121994023D01*
X124495533Y-122052110D01*
X124400281Y-122130281D01*
X124322110Y-122225533D01*
X124264023Y-122334205D01*
X124228254Y-122452121D01*
X124220000Y-122535925D01*
X124211746Y-122452121D01*
X124175977Y-122334205D01*
X124117890Y-122225533D01*
X124039719Y-122130281D01*
X123944467Y-122052110D01*
X123835795Y-121994023D01*
X123717879Y-121958254D01*
X123595250Y-121946176D01*
X123472000Y-121946176D01*
X123472000Y-121583479D01*
X123667167Y-121453073D01*
X123838073Y-121282167D01*
X123972353Y-121081202D01*
X124064847Y-120857903D01*
X124112000Y-120620849D01*
X124112000Y-120379151D01*
X124064847Y-120142097D01*
X123972353Y-119918798D01*
X123859515Y-119749924D01*
X123911978Y-119744757D01*
X124006605Y-119716052D01*
X124093814Y-119669438D01*
X124170253Y-119606705D01*
X124185971Y-119587553D01*
X124421535Y-119351989D01*
X124990239Y-119351989D01*
X124843798Y-119412647D01*
%TA.AperFunction,Conductor*%
D43*
G36*
X124843798Y-119412647D02*
G01*
X124642833Y-119546927D01*
X124471927Y-119717833D01*
X124337647Y-119918798D01*
X124245153Y-120142097D01*
X124198000Y-120379151D01*
X124198000Y-120620849D01*
X124245153Y-120857903D01*
X124337647Y-121081202D01*
X124471927Y-121282167D01*
X124642833Y-121453073D01*
X124843798Y-121587353D01*
X124968001Y-121638800D01*
X124968000Y-121946176D01*
X124844750Y-121946176D01*
X124722121Y-121958254D01*
X124604205Y-121994023D01*
X124495533Y-122052110D01*
X124400281Y-122130281D01*
X124322110Y-122225533D01*
X124264023Y-122334205D01*
X124228254Y-122452121D01*
X124220000Y-122535925D01*
X124211746Y-122452121D01*
X124175977Y-122334205D01*
X124117890Y-122225533D01*
X124039719Y-122130281D01*
X123944467Y-122052110D01*
X123835795Y-121994023D01*
X123717879Y-121958254D01*
X123595250Y-121946176D01*
X123472000Y-121946176D01*
X123472000Y-121583479D01*
X123667167Y-121453073D01*
X123838073Y-121282167D01*
X123972353Y-121081202D01*
X124064847Y-120857903D01*
X124112000Y-120620849D01*
X124112000Y-120379151D01*
X124064847Y-120142097D01*
X123972353Y-119918798D01*
X123859515Y-119749924D01*
X123911978Y-119744757D01*
X124006605Y-119716052D01*
X124093814Y-119669438D01*
X124170253Y-119606705D01*
X124185971Y-119587553D01*
X124421535Y-119351989D01*
X124990239Y-119351989D01*
X124843798Y-119412647D01*
G37*
%TD.AperFunction*%
D42*
X135773001Y-104216218D02*
X135758599Y-104116981D01*
X135660919Y-103841253D01*
X135587472Y-103703843D01*
X135338397Y-103626208D01*
X134632868Y-104331737D01*
X134576665Y-104311460D01*
X134478750Y-104295000D01*
X134320000Y-104453750D01*
X134161250Y-104295000D01*
X134063335Y-104311460D01*
X133992434Y-104337039D01*
X133281603Y-103626208D01*
X133032528Y-103703843D01*
X132906629Y-103967883D01*
X132834661Y-104251411D01*
X132819389Y-104543531D01*
X132861401Y-104833019D01*
X132959081Y-105108747D01*
X133032528Y-105246157D01*
X133281603Y-105323792D01*
X133646073Y-104959323D01*
X133743750Y-105057000D01*
X133907605Y-105057000D01*
X133461208Y-105503397D01*
X133538843Y-105752472D01*
X133739308Y-105848057D01*
X133746095Y-105857259D01*
X133838555Y-105941503D01*
X133945674Y-106006091D01*
X134063335Y-106048540D01*
X134161250Y-106065000D01*
X134266496Y-105959754D01*
X134378531Y-105965611D01*
X134379256Y-105965506D01*
X134478750Y-106065000D01*
X134576665Y-106048540D01*
X134694326Y-106006091D01*
X134801445Y-105941503D01*
X134893905Y-105857259D01*
X134907567Y-105838736D01*
X134943747Y-105825919D01*
X135081157Y-105752472D01*
X135158792Y-105503397D01*
X134712395Y-105057000D01*
X134896250Y-105057000D01*
X134983928Y-104969323D01*
X135338397Y-105323792D01*
X135587472Y-105246157D01*
X135713371Y-104982117D01*
X135773001Y-104747197D01*
X135773001Y-112866216D01*
X135758599Y-112766981D01*
X135660919Y-112491253D01*
X135587472Y-112353843D01*
X135338397Y-112276208D01*
X134988928Y-112625678D01*
X134896250Y-112533000D01*
X134722395Y-112533000D01*
X135158792Y-112096603D01*
X135081157Y-111847528D01*
X134922919Y-111772077D01*
X134893905Y-111732741D01*
X134801445Y-111648497D01*
X134694326Y-111583909D01*
X134576665Y-111541460D01*
X134478750Y-111525000D01*
X134363007Y-111640743D01*
X134272248Y-111635998D01*
X134161250Y-111525000D01*
X134063335Y-111541460D01*
X133945674Y-111583909D01*
X133838555Y-111648497D01*
X133746095Y-111732741D01*
X133729523Y-111755210D01*
X133676253Y-111774081D01*
X133538843Y-111847528D01*
X133461208Y-112096603D01*
X133897605Y-112533000D01*
X133743750Y-112533000D01*
X133641073Y-112635678D01*
X133281603Y-112276208D01*
X133032528Y-112353843D01*
X132906629Y-112617883D01*
X132834661Y-112901411D01*
X132819389Y-113193531D01*
X132834416Y-113297079D01*
X132825058Y-113298001D01*
X132825048Y-113298001D01*
X132751292Y-113305265D01*
X132656665Y-113333970D01*
X132569456Y-113380584D01*
X132565425Y-113383892D01*
X132512165Y-113427601D01*
X132512157Y-113427609D01*
X132493017Y-113443317D01*
X132477308Y-113462458D01*
X132191078Y-113748689D01*
X132047485Y-113748689D01*
X131897370Y-113778548D01*
X131755965Y-113837120D01*
X131628704Y-113922153D01*
X131520477Y-114030380D01*
X131435444Y-114157641D01*
X131376872Y-114299046D01*
X131347013Y-114449161D01*
X131347013Y-114602217D01*
X131376872Y-114752332D01*
X131435444Y-114893737D01*
X131439314Y-114899529D01*
X131326643Y-114852859D01*
X131176528Y-114823000D01*
X131023472Y-114823000D01*
X130873357Y-114852859D01*
X130731952Y-114911431D01*
X130604691Y-114996464D01*
X130496464Y-115104691D01*
X130411431Y-115231952D01*
X130352859Y-115373357D01*
X130323000Y-115523472D01*
X130323000Y-115676528D01*
X130352859Y-115826643D01*
X130411431Y-115968048D01*
X130496464Y-116095309D01*
X130604691Y-116203536D01*
X130731952Y-116288569D01*
X130873357Y-116347141D01*
X131023472Y-116377000D01*
X131167065Y-116377000D01*
X131397191Y-116607126D01*
X131313033Y-116652110D01*
X131217781Y-116730281D01*
X131139610Y-116825533D01*
X131081523Y-116934205D01*
X131045754Y-117052121D01*
X131033676Y-117174750D01*
X131033676Y-118031389D01*
X130167463Y-118897603D01*
X130148317Y-118913316D01*
X130132604Y-118932462D01*
X130132601Y-118932465D01*
X130085584Y-118989755D01*
X130038970Y-119076964D01*
X130010265Y-119171591D01*
X130000573Y-119270000D01*
X130003001Y-119294653D01*
X130003001Y-119379840D01*
X129923798Y-119412647D01*
X129722833Y-119546927D01*
X129551927Y-119717833D01*
X129417647Y-119918798D01*
X129325153Y-120142097D01*
X129278000Y-120379151D01*
X129278000Y-120620849D01*
X129325153Y-120857903D01*
X129417647Y-121081202D01*
X129551927Y-121282167D01*
X129722833Y-121453073D01*
X129923798Y-121587353D01*
X129968001Y-121605662D01*
X129968000Y-121946176D01*
X129844750Y-121946176D01*
X129722121Y-121958254D01*
X129604205Y-121994023D01*
X129495533Y-122052110D01*
X129400281Y-122130281D01*
X129322110Y-122225533D01*
X129264023Y-122334205D01*
X129228254Y-122452121D01*
X129220000Y-122535925D01*
X129211746Y-122452121D01*
X129175977Y-122334205D01*
X129117890Y-122225533D01*
X129039719Y-122130281D01*
X128944467Y-122052110D01*
X128835795Y-121994023D01*
X128717879Y-121958254D01*
X128595250Y-121946176D01*
X128472000Y-121946176D01*
X128472000Y-121618089D01*
X128546202Y-121587353D01*
X128747167Y-121453073D01*
X128918073Y-121282167D01*
X129052353Y-121081202D01*
X129144847Y-120857903D01*
X129192000Y-120620849D01*
X129192000Y-120379151D01*
X129144847Y-120142097D01*
X129052353Y-119918798D01*
X128918073Y-119717833D01*
X128747167Y-119546927D01*
X128546202Y-119412647D01*
X128322903Y-119320153D01*
X128085849Y-119273000D01*
X127844151Y-119273000D01*
X127607097Y-119320153D01*
X127383798Y-119412647D01*
X127182833Y-119546927D01*
X127011927Y-119717833D01*
X126877647Y-119918798D01*
X126785153Y-120142097D01*
X126738000Y-120379151D01*
X126738000Y-120620849D01*
X126785153Y-120857903D01*
X126877647Y-121081202D01*
X127011927Y-121282167D01*
X127182833Y-121453073D01*
X127383798Y-121587353D01*
X127468001Y-121622231D01*
X127468000Y-121946176D01*
X127344750Y-121946176D01*
X127222121Y-121958254D01*
X127104205Y-121994023D01*
X126995533Y-122052110D01*
X126900281Y-122130281D01*
X126822110Y-122225533D01*
X126764023Y-122334205D01*
X126728254Y-122452121D01*
X126720000Y-122535925D01*
X126711746Y-122452121D01*
X126675977Y-122334205D01*
X126617890Y-122225533D01*
X126539719Y-122130281D01*
X126444467Y-122052110D01*
X126335795Y-121994023D01*
X126217879Y-121958254D01*
X126095250Y-121946176D01*
X125972000Y-121946176D01*
X125972000Y-121601520D01*
X126006202Y-121587353D01*
X126207167Y-121453073D01*
X126378073Y-121282167D01*
X126512353Y-121081202D01*
X126604847Y-120857903D01*
X126652000Y-120620849D01*
X126652000Y-120379151D01*
X126604847Y-120142097D01*
X126512353Y-119918798D01*
X126378073Y-119717833D01*
X126207167Y-119546927D01*
X126006202Y-119412647D01*
X125859761Y-119351989D01*
X126246042Y-119351989D01*
X126270685Y-119354416D01*
X126295328Y-119351989D01*
X126295338Y-119351989D01*
X126369094Y-119344725D01*
X126463721Y-119316020D01*
X126550930Y-119269406D01*
X126627369Y-119206673D01*
X126643087Y-119187522D01*
X128697875Y-117132734D01*
X128717021Y-117117021D01*
X128755142Y-117070572D01*
X128779753Y-117040583D01*
X128783288Y-117033970D01*
X128826368Y-116953373D01*
X128855073Y-116858746D01*
X128862337Y-116784990D01*
X128862337Y-116784981D01*
X128864764Y-116760338D01*
X128862337Y-116735695D01*
X128862337Y-115732538D01*
X128867704Y-115733067D01*
X128892347Y-115730640D01*
X128892357Y-115730640D01*
X128966113Y-115723376D01*
X129060740Y-115694671D01*
X129147949Y-115648057D01*
X129224388Y-115585324D01*
X129240105Y-115566173D01*
X129608861Y-115197418D01*
X129628007Y-115181705D01*
X129646666Y-115158970D01*
X129689173Y-115107175D01*
X129690740Y-115105266D01*
X129737354Y-115018057D01*
X129766059Y-114923430D01*
X129773323Y-114849674D01*
X129773323Y-114849665D01*
X129775750Y-114825022D01*
X129773323Y-114800379D01*
X129773323Y-114721746D01*
X129871108Y-114747384D01*
X130192595Y-114766718D01*
X130511675Y-114722961D01*
X130816088Y-114617795D01*
X130990044Y-114524814D01*
X131085808Y-114260413D01*
X130130000Y-113304605D01*
X130115858Y-113318748D01*
X129936253Y-113139143D01*
X129950395Y-113125000D01*
X129936253Y-113110858D01*
X129941241Y-113105869D01*
X129969401Y-113116028D01*
X130093082Y-113134707D01*
X130118368Y-113133531D01*
X130143909Y-113204326D01*
X130208497Y-113311445D01*
X130292741Y-113403905D01*
X130393405Y-113478153D01*
X130506620Y-113531336D01*
X130628035Y-113561410D01*
X130688250Y-113565000D01*
X130718928Y-113534323D01*
X131265413Y-114080808D01*
X131529814Y-113985044D01*
X131670704Y-113695429D01*
X131752384Y-113383892D01*
X131759537Y-113264951D01*
X131796091Y-113204326D01*
X131838540Y-113086665D01*
X131855000Y-112988750D01*
X131746776Y-112880526D01*
X131734589Y-112791661D01*
X131855000Y-112671250D01*
X131838540Y-112573335D01*
X131796091Y-112455674D01*
X131731503Y-112348555D01*
X131650373Y-112259512D01*
X131721503Y-112181445D01*
X131786091Y-112074326D01*
X131828540Y-111956665D01*
X131845000Y-111858750D01*
X131686250Y-111700000D01*
X131845000Y-111541250D01*
X131828540Y-111443335D01*
X131786091Y-111325674D01*
X131721503Y-111218555D01*
X131637259Y-111126095D01*
X131536595Y-111051847D01*
X131423380Y-110998664D01*
X131301965Y-110968590D01*
X131241750Y-110965000D01*
X131227285Y-110979465D01*
X131184106Y-110936286D01*
X131151811Y-110968581D01*
X131091750Y-110965000D01*
X131087002Y-110969748D01*
X131087002Y-110965000D01*
X131060015Y-110965000D01*
X131054425Y-110862237D01*
X131002000Y-110840407D01*
X131002000Y-106759743D01*
X131051351Y-106739408D01*
X131054425Y-106737763D01*
X131059471Y-106645000D01*
X131087002Y-106645000D01*
X131087002Y-106620252D01*
X131111750Y-106645000D01*
X131162374Y-106641982D01*
X131184106Y-106663714D01*
X131217751Y-106630069D01*
X131225019Y-106628269D01*
X131241750Y-106645000D01*
X131301965Y-106641410D01*
X131423380Y-106611336D01*
X131536595Y-106558153D01*
X131637259Y-106483905D01*
X131721503Y-106391445D01*
X131786091Y-106284326D01*
X131828540Y-106166665D01*
X131845000Y-106068750D01*
X131686250Y-105910000D01*
X131845000Y-105751250D01*
X131828540Y-105653335D01*
X131786091Y-105535674D01*
X131721503Y-105428555D01*
X131655003Y-105355569D01*
X131657259Y-105353905D01*
X131741503Y-105261445D01*
X131806091Y-105154326D01*
X131848540Y-105036665D01*
X131865000Y-104938750D01*
X131733223Y-104806973D01*
X131752384Y-104733892D01*
X131752386Y-104733864D01*
X131865000Y-104621250D01*
X131848540Y-104523335D01*
X131806091Y-104405674D01*
X131760404Y-104329902D01*
X131727961Y-104093325D01*
X131622795Y-103788912D01*
X131529814Y-103614956D01*
X131265413Y-103519192D01*
X130718928Y-104065678D01*
X130698250Y-104045000D01*
X130638035Y-104048590D01*
X130516620Y-104078664D01*
X130403405Y-104131847D01*
X130302741Y-104206095D01*
X130218497Y-104298555D01*
X130153909Y-104405674D01*
X130123665Y-104489505D01*
X130033082Y-104485293D01*
X129923562Y-104501833D01*
X129950395Y-104475000D01*
X129936253Y-104460858D01*
X130115858Y-104281253D01*
X130130000Y-104295395D01*
X130852187Y-103573208D01*
X130896506Y-103559764D01*
X130996577Y-103506275D01*
X131084290Y-103434290D01*
X131156275Y-103346577D01*
X131209764Y-103246506D01*
X131242702Y-103137923D01*
X131253824Y-103025000D01*
X131253824Y-102852059D01*
X131349044Y-102852059D01*
X131499159Y-102822200D01*
X131640564Y-102763628D01*
X131767825Y-102678595D01*
X131864132Y-102582288D01*
X131849684Y-102617169D01*
X131819825Y-102767284D01*
X131819825Y-102920340D01*
X131849684Y-103070455D01*
X131908256Y-103211860D01*
X131993289Y-103339121D01*
X132101516Y-103447348D01*
X132228777Y-103532381D01*
X132370182Y-103590953D01*
X132520297Y-103620812D01*
X132673353Y-103620812D01*
X132823468Y-103590953D01*
X132964873Y-103532381D01*
X133092134Y-103447348D01*
X133092879Y-103446603D01*
X133461208Y-103446603D01*
X134310000Y-104295395D01*
X135158792Y-103446603D01*
X135081157Y-103197528D01*
X134817117Y-103071629D01*
X134533589Y-102999661D01*
X134241469Y-102984389D01*
X133951981Y-103026401D01*
X133676253Y-103124081D01*
X133538843Y-103197528D01*
X133461208Y-103446603D01*
X133092879Y-103446603D01*
X133200361Y-103339121D01*
X133285394Y-103211860D01*
X133343966Y-103070455D01*
X133373825Y-102920340D01*
X133373825Y-102767284D01*
X133343966Y-102617169D01*
X133285394Y-102475764D01*
X133200361Y-102348503D01*
X133098825Y-102246967D01*
X133098825Y-101511109D01*
X133437616Y-101172319D01*
X134745676Y-101172319D01*
X134770319Y-101174746D01*
X134794962Y-101172319D01*
X134794972Y-101172319D01*
X134868728Y-101165055D01*
X134963355Y-101136350D01*
X135050564Y-101089736D01*
X135127003Y-101027003D01*
X135142721Y-101007851D01*
X135425033Y-100725538D01*
X135444184Y-100709821D01*
X135488959Y-100655264D01*
X135506917Y-100633383D01*
X135517474Y-100613632D01*
X135534932Y-100608336D01*
X135638244Y-100553115D01*
X135728799Y-100478799D01*
X135773001Y-100424938D01*
X135773001Y-104216218D01*
%TA.AperFunction,Conductor*%
D43*
G36*
X135773001Y-104216218D02*
G01*
X135758599Y-104116981D01*
X135660919Y-103841253D01*
X135587472Y-103703843D01*
X135338397Y-103626208D01*
X134632868Y-104331737D01*
X134576665Y-104311460D01*
X134478750Y-104295000D01*
X134320000Y-104453750D01*
X134161250Y-104295000D01*
X134063335Y-104311460D01*
X133992434Y-104337039D01*
X133281603Y-103626208D01*
X133032528Y-103703843D01*
X132906629Y-103967883D01*
X132834661Y-104251411D01*
X132819389Y-104543531D01*
X132861401Y-104833019D01*
X132959081Y-105108747D01*
X133032528Y-105246157D01*
X133281603Y-105323792D01*
X133646073Y-104959323D01*
X133743750Y-105057000D01*
X133907605Y-105057000D01*
X133461208Y-105503397D01*
X133538843Y-105752472D01*
X133739308Y-105848057D01*
X133746095Y-105857259D01*
X133838555Y-105941503D01*
X133945674Y-106006091D01*
X134063335Y-106048540D01*
X134161250Y-106065000D01*
X134266496Y-105959754D01*
X134378531Y-105965611D01*
X134379256Y-105965506D01*
X134478750Y-106065000D01*
X134576665Y-106048540D01*
X134694326Y-106006091D01*
X134801445Y-105941503D01*
X134893905Y-105857259D01*
X134907567Y-105838736D01*
X134943747Y-105825919D01*
X135081157Y-105752472D01*
X135158792Y-105503397D01*
X134712395Y-105057000D01*
X134896250Y-105057000D01*
X134983928Y-104969323D01*
X135338397Y-105323792D01*
X135587472Y-105246157D01*
X135713371Y-104982117D01*
X135773001Y-104747197D01*
X135773001Y-112866216D01*
X135758599Y-112766981D01*
X135660919Y-112491253D01*
X135587472Y-112353843D01*
X135338397Y-112276208D01*
X134988928Y-112625678D01*
X134896250Y-112533000D01*
X134722395Y-112533000D01*
X135158792Y-112096603D01*
X135081157Y-111847528D01*
X134922919Y-111772077D01*
X134893905Y-111732741D01*
X134801445Y-111648497D01*
X134694326Y-111583909D01*
X134576665Y-111541460D01*
X134478750Y-111525000D01*
X134363007Y-111640743D01*
X134272248Y-111635998D01*
X134161250Y-111525000D01*
X134063335Y-111541460D01*
X133945674Y-111583909D01*
X133838555Y-111648497D01*
X133746095Y-111732741D01*
X133729523Y-111755210D01*
X133676253Y-111774081D01*
X133538843Y-111847528D01*
X133461208Y-112096603D01*
X133897605Y-112533000D01*
X133743750Y-112533000D01*
X133641073Y-112635678D01*
X133281603Y-112276208D01*
X133032528Y-112353843D01*
X132906629Y-112617883D01*
X132834661Y-112901411D01*
X132819389Y-113193531D01*
X132834416Y-113297079D01*
X132825058Y-113298001D01*
X132825048Y-113298001D01*
X132751292Y-113305265D01*
X132656665Y-113333970D01*
X132569456Y-113380584D01*
X132565425Y-113383892D01*
X132512165Y-113427601D01*
X132512157Y-113427609D01*
X132493017Y-113443317D01*
X132477308Y-113462458D01*
X132191078Y-113748689D01*
X132047485Y-113748689D01*
X131897370Y-113778548D01*
X131755965Y-113837120D01*
X131628704Y-113922153D01*
X131520477Y-114030380D01*
X131435444Y-114157641D01*
X131376872Y-114299046D01*
X131347013Y-114449161D01*
X131347013Y-114602217D01*
X131376872Y-114752332D01*
X131435444Y-114893737D01*
X131439314Y-114899529D01*
X131326643Y-114852859D01*
X131176528Y-114823000D01*
X131023472Y-114823000D01*
X130873357Y-114852859D01*
X130731952Y-114911431D01*
X130604691Y-114996464D01*
X130496464Y-115104691D01*
X130411431Y-115231952D01*
X130352859Y-115373357D01*
X130323000Y-115523472D01*
X130323000Y-115676528D01*
X130352859Y-115826643D01*
X130411431Y-115968048D01*
X130496464Y-116095309D01*
X130604691Y-116203536D01*
X130731952Y-116288569D01*
X130873357Y-116347141D01*
X131023472Y-116377000D01*
X131167065Y-116377000D01*
X131397191Y-116607126D01*
X131313033Y-116652110D01*
X131217781Y-116730281D01*
X131139610Y-116825533D01*
X131081523Y-116934205D01*
X131045754Y-117052121D01*
X131033676Y-117174750D01*
X131033676Y-118031389D01*
X130167463Y-118897603D01*
X130148317Y-118913316D01*
X130132604Y-118932462D01*
X130132601Y-118932465D01*
X130085584Y-118989755D01*
X130038970Y-119076964D01*
X130010265Y-119171591D01*
X130000573Y-119270000D01*
X130003001Y-119294653D01*
X130003001Y-119379840D01*
X129923798Y-119412647D01*
X129722833Y-119546927D01*
X129551927Y-119717833D01*
X129417647Y-119918798D01*
X129325153Y-120142097D01*
X129278000Y-120379151D01*
X129278000Y-120620849D01*
X129325153Y-120857903D01*
X129417647Y-121081202D01*
X129551927Y-121282167D01*
X129722833Y-121453073D01*
X129923798Y-121587353D01*
X129968001Y-121605662D01*
X129968000Y-121946176D01*
X129844750Y-121946176D01*
X129722121Y-121958254D01*
X129604205Y-121994023D01*
X129495533Y-122052110D01*
X129400281Y-122130281D01*
X129322110Y-122225533D01*
X129264023Y-122334205D01*
X129228254Y-122452121D01*
X129220000Y-122535925D01*
X129211746Y-122452121D01*
X129175977Y-122334205D01*
X129117890Y-122225533D01*
X129039719Y-122130281D01*
X128944467Y-122052110D01*
X128835795Y-121994023D01*
X128717879Y-121958254D01*
X128595250Y-121946176D01*
X128472000Y-121946176D01*
X128472000Y-121618089D01*
X128546202Y-121587353D01*
X128747167Y-121453073D01*
X128918073Y-121282167D01*
X129052353Y-121081202D01*
X129144847Y-120857903D01*
X129192000Y-120620849D01*
X129192000Y-120379151D01*
X129144847Y-120142097D01*
X129052353Y-119918798D01*
X128918073Y-119717833D01*
X128747167Y-119546927D01*
X128546202Y-119412647D01*
X128322903Y-119320153D01*
X128085849Y-119273000D01*
X127844151Y-119273000D01*
X127607097Y-119320153D01*
X127383798Y-119412647D01*
X127182833Y-119546927D01*
X127011927Y-119717833D01*
X126877647Y-119918798D01*
X126785153Y-120142097D01*
X126738000Y-120379151D01*
X126738000Y-120620849D01*
X126785153Y-120857903D01*
X126877647Y-121081202D01*
X127011927Y-121282167D01*
X127182833Y-121453073D01*
X127383798Y-121587353D01*
X127468001Y-121622231D01*
X127468000Y-121946176D01*
X127344750Y-121946176D01*
X127222121Y-121958254D01*
X127104205Y-121994023D01*
X126995533Y-122052110D01*
X126900281Y-122130281D01*
X126822110Y-122225533D01*
X126764023Y-122334205D01*
X126728254Y-122452121D01*
X126720000Y-122535925D01*
X126711746Y-122452121D01*
X126675977Y-122334205D01*
X126617890Y-122225533D01*
X126539719Y-122130281D01*
X126444467Y-122052110D01*
X126335795Y-121994023D01*
X126217879Y-121958254D01*
X126095250Y-121946176D01*
X125972000Y-121946176D01*
X125972000Y-121601520D01*
X126006202Y-121587353D01*
X126207167Y-121453073D01*
X126378073Y-121282167D01*
X126512353Y-121081202D01*
X126604847Y-120857903D01*
X126652000Y-120620849D01*
X126652000Y-120379151D01*
X126604847Y-120142097D01*
X126512353Y-119918798D01*
X126378073Y-119717833D01*
X126207167Y-119546927D01*
X126006202Y-119412647D01*
X125859761Y-119351989D01*
X126246042Y-119351989D01*
X126270685Y-119354416D01*
X126295328Y-119351989D01*
X126295338Y-119351989D01*
X126369094Y-119344725D01*
X126463721Y-119316020D01*
X126550930Y-119269406D01*
X126627369Y-119206673D01*
X126643087Y-119187522D01*
X128697875Y-117132734D01*
X128717021Y-117117021D01*
X128755142Y-117070572D01*
X128779753Y-117040583D01*
X128783288Y-117033970D01*
X128826368Y-116953373D01*
X128855073Y-116858746D01*
X128862337Y-116784990D01*
X128862337Y-116784981D01*
X128864764Y-116760338D01*
X128862337Y-116735695D01*
X128862337Y-115732538D01*
X128867704Y-115733067D01*
X128892347Y-115730640D01*
X128892357Y-115730640D01*
X128966113Y-115723376D01*
X129060740Y-115694671D01*
X129147949Y-115648057D01*
X129224388Y-115585324D01*
X129240105Y-115566173D01*
X129608861Y-115197418D01*
X129628007Y-115181705D01*
X129646666Y-115158970D01*
X129689173Y-115107175D01*
X129690740Y-115105266D01*
X129737354Y-115018057D01*
X129766059Y-114923430D01*
X129773323Y-114849674D01*
X129773323Y-114849665D01*
X129775750Y-114825022D01*
X129773323Y-114800379D01*
X129773323Y-114721746D01*
X129871108Y-114747384D01*
X130192595Y-114766718D01*
X130511675Y-114722961D01*
X130816088Y-114617795D01*
X130990044Y-114524814D01*
X131085808Y-114260413D01*
X130130000Y-113304605D01*
X130115858Y-113318748D01*
X129936253Y-113139143D01*
X129950395Y-113125000D01*
X129936253Y-113110858D01*
X129941241Y-113105869D01*
X129969401Y-113116028D01*
X130093082Y-113134707D01*
X130118368Y-113133531D01*
X130143909Y-113204326D01*
X130208497Y-113311445D01*
X130292741Y-113403905D01*
X130393405Y-113478153D01*
X130506620Y-113531336D01*
X130628035Y-113561410D01*
X130688250Y-113565000D01*
X130718928Y-113534323D01*
X131265413Y-114080808D01*
X131529814Y-113985044D01*
X131670704Y-113695429D01*
X131752384Y-113383892D01*
X131759537Y-113264951D01*
X131796091Y-113204326D01*
X131838540Y-113086665D01*
X131855000Y-112988750D01*
X131746776Y-112880526D01*
X131734589Y-112791661D01*
X131855000Y-112671250D01*
X131838540Y-112573335D01*
X131796091Y-112455674D01*
X131731503Y-112348555D01*
X131650373Y-112259512D01*
X131721503Y-112181445D01*
X131786091Y-112074326D01*
X131828540Y-111956665D01*
X131845000Y-111858750D01*
X131686250Y-111700000D01*
X131845000Y-111541250D01*
X131828540Y-111443335D01*
X131786091Y-111325674D01*
X131721503Y-111218555D01*
X131637259Y-111126095D01*
X131536595Y-111051847D01*
X131423380Y-110998664D01*
X131301965Y-110968590D01*
X131241750Y-110965000D01*
X131227285Y-110979465D01*
X131184106Y-110936286D01*
X131151811Y-110968581D01*
X131091750Y-110965000D01*
X131087002Y-110969748D01*
X131087002Y-110965000D01*
X131060015Y-110965000D01*
X131054425Y-110862237D01*
X131002000Y-110840407D01*
X131002000Y-106759743D01*
X131051351Y-106739408D01*
X131054425Y-106737763D01*
X131059471Y-106645000D01*
X131087002Y-106645000D01*
X131087002Y-106620252D01*
X131111750Y-106645000D01*
X131162374Y-106641982D01*
X131184106Y-106663714D01*
X131217751Y-106630069D01*
X131225019Y-106628269D01*
X131241750Y-106645000D01*
X131301965Y-106641410D01*
X131423380Y-106611336D01*
X131536595Y-106558153D01*
X131637259Y-106483905D01*
X131721503Y-106391445D01*
X131786091Y-106284326D01*
X131828540Y-106166665D01*
X131845000Y-106068750D01*
X131686250Y-105910000D01*
X131845000Y-105751250D01*
X131828540Y-105653335D01*
X131786091Y-105535674D01*
X131721503Y-105428555D01*
X131655003Y-105355569D01*
X131657259Y-105353905D01*
X131741503Y-105261445D01*
X131806091Y-105154326D01*
X131848540Y-105036665D01*
X131865000Y-104938750D01*
X131733223Y-104806973D01*
X131752384Y-104733892D01*
X131752386Y-104733864D01*
X131865000Y-104621250D01*
X131848540Y-104523335D01*
X131806091Y-104405674D01*
X131760404Y-104329902D01*
X131727961Y-104093325D01*
X131622795Y-103788912D01*
X131529814Y-103614956D01*
X131265413Y-103519192D01*
X130718928Y-104065678D01*
X130698250Y-104045000D01*
X130638035Y-104048590D01*
X130516620Y-104078664D01*
X130403405Y-104131847D01*
X130302741Y-104206095D01*
X130218497Y-104298555D01*
X130153909Y-104405674D01*
X130123665Y-104489505D01*
X130033082Y-104485293D01*
X129923562Y-104501833D01*
X129950395Y-104475000D01*
X129936253Y-104460858D01*
X130115858Y-104281253D01*
X130130000Y-104295395D01*
X130852187Y-103573208D01*
X130896506Y-103559764D01*
X130996577Y-103506275D01*
X131084290Y-103434290D01*
X131156275Y-103346577D01*
X131209764Y-103246506D01*
X131242702Y-103137923D01*
X131253824Y-103025000D01*
X131253824Y-102852059D01*
X131349044Y-102852059D01*
X131499159Y-102822200D01*
X131640564Y-102763628D01*
X131767825Y-102678595D01*
X131864132Y-102582288D01*
X131849684Y-102617169D01*
X131819825Y-102767284D01*
X131819825Y-102920340D01*
X131849684Y-103070455D01*
X131908256Y-103211860D01*
X131993289Y-103339121D01*
X132101516Y-103447348D01*
X132228777Y-103532381D01*
X132370182Y-103590953D01*
X132520297Y-103620812D01*
X132673353Y-103620812D01*
X132823468Y-103590953D01*
X132964873Y-103532381D01*
X133092134Y-103447348D01*
X133092879Y-103446603D01*
X133461208Y-103446603D01*
X134310000Y-104295395D01*
X135158792Y-103446603D01*
X135081157Y-103197528D01*
X134817117Y-103071629D01*
X134533589Y-102999661D01*
X134241469Y-102984389D01*
X133951981Y-103026401D01*
X133676253Y-103124081D01*
X133538843Y-103197528D01*
X133461208Y-103446603D01*
X133092879Y-103446603D01*
X133200361Y-103339121D01*
X133285394Y-103211860D01*
X133343966Y-103070455D01*
X133373825Y-102920340D01*
X133373825Y-102767284D01*
X133343966Y-102617169D01*
X133285394Y-102475764D01*
X133200361Y-102348503D01*
X133098825Y-102246967D01*
X133098825Y-101511109D01*
X133437616Y-101172319D01*
X134745676Y-101172319D01*
X134770319Y-101174746D01*
X134794962Y-101172319D01*
X134794972Y-101172319D01*
X134868728Y-101165055D01*
X134963355Y-101136350D01*
X135050564Y-101089736D01*
X135127003Y-101027003D01*
X135142721Y-101007851D01*
X135425033Y-100725538D01*
X135444184Y-100709821D01*
X135488959Y-100655264D01*
X135506917Y-100633383D01*
X135517474Y-100613632D01*
X135534932Y-100608336D01*
X135638244Y-100553115D01*
X135728799Y-100478799D01*
X135773001Y-100424938D01*
X135773001Y-104216218D01*
G37*
%TD.AperFunction*%
D42*
X120623000Y-106726250D02*
X120655716Y-106758966D01*
X120571431Y-106843251D01*
X120486398Y-106970512D01*
X120427826Y-107111917D01*
X120397967Y-107262032D01*
X120397967Y-107405625D01*
X119137463Y-108666130D01*
X119118317Y-108681843D01*
X119102604Y-108700989D01*
X119102601Y-108700992D01*
X119055584Y-108758282D01*
X119008970Y-108845491D01*
X118980265Y-108940118D01*
X118970573Y-109038527D01*
X118973001Y-109063180D01*
X118973001Y-109533261D01*
X118953423Y-109543725D01*
X118865710Y-109615710D01*
X118793725Y-109703423D01*
X118740236Y-109803494D01*
X118707298Y-109912077D01*
X118696176Y-110025000D01*
X118696176Y-110575000D01*
X118707298Y-110687923D01*
X118740236Y-110796506D01*
X118793725Y-110896577D01*
X118851231Y-110966647D01*
X118759670Y-111038215D01*
X118678041Y-111132992D01*
X118616471Y-111241873D01*
X118577325Y-111360674D01*
X118565000Y-111468250D01*
X118723750Y-111627000D01*
X119140868Y-111627000D01*
X119126095Y-111628455D01*
X119055030Y-111650012D01*
X118989537Y-111685019D01*
X118932131Y-111732131D01*
X118898591Y-111773000D01*
X118723750Y-111773000D01*
X118565000Y-111931750D01*
X118577325Y-112039326D01*
X118616471Y-112158127D01*
X118640149Y-112200000D01*
X118616471Y-112241873D01*
X118577325Y-112360674D01*
X118565000Y-112468250D01*
X118723750Y-112627000D01*
X118898591Y-112627000D01*
X118932131Y-112667869D01*
X118989537Y-112714981D01*
X119055030Y-112749988D01*
X119126095Y-112771545D01*
X119140868Y-112773000D01*
X118723750Y-112773000D01*
X118565000Y-112931750D01*
X118577325Y-113039326D01*
X118616471Y-113158127D01*
X118638239Y-113196621D01*
X118595506Y-113219463D01*
X118498815Y-113298815D01*
X118419463Y-113395506D01*
X118360498Y-113505820D01*
X118324188Y-113625518D01*
X118311928Y-113750000D01*
X118315000Y-113914250D01*
X118473750Y-114073000D01*
X119223000Y-114073000D01*
X119223000Y-114053000D01*
X119477000Y-114053000D01*
X119477000Y-114073000D01*
X119497000Y-114073000D01*
X119497000Y-114327000D01*
X119477000Y-114327000D01*
X119477000Y-114347000D01*
X119223000Y-114347000D01*
X119223000Y-114327000D01*
X118473750Y-114327000D01*
X118315000Y-114485750D01*
X118312929Y-114596505D01*
X118250803Y-114638016D01*
X118142576Y-114746243D01*
X118057543Y-114873504D01*
X117998971Y-115014909D01*
X117969112Y-115165024D01*
X117969112Y-115307742D01*
X117965104Y-115312626D01*
X117965101Y-115312629D01*
X117918084Y-115369919D01*
X117871470Y-115457128D01*
X117842765Y-115551755D01*
X117833073Y-115650164D01*
X117835501Y-115674817D01*
X117835501Y-116578463D01*
X117784205Y-116594023D01*
X117675533Y-116652110D01*
X117627000Y-116691940D01*
X117627000Y-112440810D01*
X118557000Y-112440810D01*
X118557000Y-106653824D01*
X119759888Y-106653824D01*
X119794269Y-106696593D01*
X119890152Y-106776920D01*
X119999863Y-106836999D01*
X120119187Y-106874519D01*
X120218250Y-106885000D01*
X120377000Y-106726250D01*
X120377000Y-105888072D01*
X120623000Y-105888072D01*
X120623000Y-106726250D01*
%TA.AperFunction,Conductor*%
D43*
G36*
X120623000Y-106726250D02*
G01*
X120655716Y-106758966D01*
X120571431Y-106843251D01*
X120486398Y-106970512D01*
X120427826Y-107111917D01*
X120397967Y-107262032D01*
X120397967Y-107405625D01*
X119137463Y-108666130D01*
X119118317Y-108681843D01*
X119102604Y-108700989D01*
X119102601Y-108700992D01*
X119055584Y-108758282D01*
X119008970Y-108845491D01*
X118980265Y-108940118D01*
X118970573Y-109038527D01*
X118973001Y-109063180D01*
X118973001Y-109533261D01*
X118953423Y-109543725D01*
X118865710Y-109615710D01*
X118793725Y-109703423D01*
X118740236Y-109803494D01*
X118707298Y-109912077D01*
X118696176Y-110025000D01*
X118696176Y-110575000D01*
X118707298Y-110687923D01*
X118740236Y-110796506D01*
X118793725Y-110896577D01*
X118851231Y-110966647D01*
X118759670Y-111038215D01*
X118678041Y-111132992D01*
X118616471Y-111241873D01*
X118577325Y-111360674D01*
X118565000Y-111468250D01*
X118723750Y-111627000D01*
X119140868Y-111627000D01*
X119126095Y-111628455D01*
X119055030Y-111650012D01*
X118989537Y-111685019D01*
X118932131Y-111732131D01*
X118898591Y-111773000D01*
X118723750Y-111773000D01*
X118565000Y-111931750D01*
X118577325Y-112039326D01*
X118616471Y-112158127D01*
X118640149Y-112200000D01*
X118616471Y-112241873D01*
X118577325Y-112360674D01*
X118565000Y-112468250D01*
X118723750Y-112627000D01*
X118898591Y-112627000D01*
X118932131Y-112667869D01*
X118989537Y-112714981D01*
X119055030Y-112749988D01*
X119126095Y-112771545D01*
X119140868Y-112773000D01*
X118723750Y-112773000D01*
X118565000Y-112931750D01*
X118577325Y-113039326D01*
X118616471Y-113158127D01*
X118638239Y-113196621D01*
X118595506Y-113219463D01*
X118498815Y-113298815D01*
X118419463Y-113395506D01*
X118360498Y-113505820D01*
X118324188Y-113625518D01*
X118311928Y-113750000D01*
X118315000Y-113914250D01*
X118473750Y-114073000D01*
X119223000Y-114073000D01*
X119223000Y-114053000D01*
X119477000Y-114053000D01*
X119477000Y-114073000D01*
X119497000Y-114073000D01*
X119497000Y-114327000D01*
X119477000Y-114327000D01*
X119477000Y-114347000D01*
X119223000Y-114347000D01*
X119223000Y-114327000D01*
X118473750Y-114327000D01*
X118315000Y-114485750D01*
X118312929Y-114596505D01*
X118250803Y-114638016D01*
X118142576Y-114746243D01*
X118057543Y-114873504D01*
X117998971Y-115014909D01*
X117969112Y-115165024D01*
X117969112Y-115307742D01*
X117965104Y-115312626D01*
X117965101Y-115312629D01*
X117918084Y-115369919D01*
X117871470Y-115457128D01*
X117842765Y-115551755D01*
X117833073Y-115650164D01*
X117835501Y-115674817D01*
X117835501Y-116578463D01*
X117784205Y-116594023D01*
X117675533Y-116652110D01*
X117627000Y-116691940D01*
X117627000Y-112440810D01*
X118557000Y-112440810D01*
X118557000Y-106653824D01*
X119759888Y-106653824D01*
X119794269Y-106696593D01*
X119890152Y-106776920D01*
X119999863Y-106836999D01*
X120119187Y-106874519D01*
X120218250Y-106885000D01*
X120377000Y-106726250D01*
X120377000Y-105888072D01*
X120623000Y-105888072D01*
X120623000Y-106726250D01*
G37*
%TD.AperFunction*%
D42*
X134478750Y-113295000D02*
X134576665Y-113278540D01*
X134625520Y-113260915D01*
X135338397Y-113973792D01*
X135587472Y-113896157D01*
X135713371Y-113632117D01*
X135773000Y-113397198D01*
X135773000Y-115590062D01*
X134733382Y-114550443D01*
X134943747Y-114475919D01*
X135081157Y-114402472D01*
X135158792Y-114153397D01*
X134310000Y-113304605D01*
X134295858Y-113318748D01*
X134216680Y-113239570D01*
X134320000Y-113136250D01*
X134478750Y-113295000D01*
%TA.AperFunction,Conductor*%
D43*
G36*
X134478750Y-113295000D02*
G01*
X134576665Y-113278540D01*
X134625520Y-113260915D01*
X135338397Y-113973792D01*
X135587472Y-113896157D01*
X135713371Y-113632117D01*
X135773000Y-113397198D01*
X135773000Y-115590062D01*
X134733382Y-114550443D01*
X134943747Y-114475919D01*
X135081157Y-114402472D01*
X135158792Y-114153397D01*
X134310000Y-113304605D01*
X134295858Y-113318748D01*
X134216680Y-113239570D01*
X134320000Y-113136250D01*
X134478750Y-113295000D01*
G37*
%TD.AperFunction*%
D42*
X119677000Y-112847000D02*
X119423000Y-112847000D01*
X119423000Y-112778824D01*
X119677000Y-112778824D01*
X119677000Y-112847000D01*
%TA.AperFunction,Conductor*%
D43*
G36*
X119677000Y-112847000D02*
G01*
X119423000Y-112847000D01*
X119423000Y-112778824D01*
X119677000Y-112778824D01*
X119677000Y-112847000D01*
G37*
%TD.AperFunction*%
D42*
X119677000Y-111621176D02*
X119423000Y-111621176D01*
X119423000Y-111553000D01*
X119677000Y-111553000D01*
X119677000Y-111621176D01*
%TA.AperFunction,Conductor*%
D43*
G36*
X119677000Y-111621176D02*
G01*
X119423000Y-111621176D01*
X119423000Y-111553000D01*
X119677000Y-111553000D01*
X119677000Y-111621176D01*
G37*
%TD.AperFunction*%
D42*
X122281519Y-108842634D02*
X122279092Y-108867278D01*
X122281519Y-108891921D01*
X122281519Y-108891930D01*
X122288783Y-108965686D01*
X122317488Y-109060313D01*
X122364102Y-109147523D01*
X122426835Y-109223962D01*
X122445986Y-109239679D01*
X122446687Y-109240380D01*
X122345506Y-109294463D01*
X122248815Y-109373815D01*
X122169463Y-109470506D01*
X122110498Y-109580820D01*
X122074188Y-109700518D01*
X122061928Y-109825000D01*
X122065000Y-110014250D01*
X122223750Y-110173000D01*
X123110500Y-110173000D01*
X123110500Y-110153000D01*
X123364500Y-110153000D01*
X123364500Y-110173000D01*
X123384500Y-110173000D01*
X123384500Y-110427000D01*
X123364500Y-110427000D01*
X123364500Y-110447000D01*
X123110500Y-110447000D01*
X123110500Y-110427000D01*
X122223750Y-110427000D01*
X122065000Y-110585750D01*
X122062234Y-110756132D01*
X121925563Y-110756132D01*
X121868573Y-110767468D01*
X121892702Y-110687923D01*
X121903824Y-110575000D01*
X121903824Y-110025000D01*
X121892702Y-109912077D01*
X121859764Y-109803494D01*
X121806275Y-109703423D01*
X121734290Y-109615710D01*
X121646577Y-109543725D01*
X121627000Y-109533261D01*
X121627000Y-109048922D01*
X121685026Y-109048922D01*
X121835141Y-109019063D01*
X121976546Y-108960491D01*
X122103807Y-108875458D01*
X122212034Y-108767231D01*
X122281519Y-108663239D01*
X122281519Y-108842634D01*
%TA.AperFunction,Conductor*%
D43*
G36*
X122281519Y-108842634D02*
G01*
X122279092Y-108867278D01*
X122281519Y-108891921D01*
X122281519Y-108891930D01*
X122288783Y-108965686D01*
X122317488Y-109060313D01*
X122364102Y-109147523D01*
X122426835Y-109223962D01*
X122445986Y-109239679D01*
X122446687Y-109240380D01*
X122345506Y-109294463D01*
X122248815Y-109373815D01*
X122169463Y-109470506D01*
X122110498Y-109580820D01*
X122074188Y-109700518D01*
X122061928Y-109825000D01*
X122065000Y-110014250D01*
X122223750Y-110173000D01*
X123110500Y-110173000D01*
X123110500Y-110153000D01*
X123364500Y-110153000D01*
X123364500Y-110173000D01*
X123384500Y-110173000D01*
X123384500Y-110427000D01*
X123364500Y-110427000D01*
X123364500Y-110447000D01*
X123110500Y-110447000D01*
X123110500Y-110427000D01*
X122223750Y-110427000D01*
X122065000Y-110585750D01*
X122062234Y-110756132D01*
X121925563Y-110756132D01*
X121868573Y-110767468D01*
X121892702Y-110687923D01*
X121903824Y-110575000D01*
X121903824Y-110025000D01*
X121892702Y-109912077D01*
X121859764Y-109803494D01*
X121806275Y-109703423D01*
X121734290Y-109615710D01*
X121646577Y-109543725D01*
X121627000Y-109533261D01*
X121627000Y-109048922D01*
X121685026Y-109048922D01*
X121835141Y-109019063D01*
X121976546Y-108960491D01*
X122103807Y-108875458D01*
X122212034Y-108767231D01*
X122281519Y-108663239D01*
X122281519Y-108842634D01*
G37*
%TD.AperFunction*%
D42*
X126602000Y-110173000D02*
X126622000Y-110173000D01*
X126622000Y-110427000D01*
X126602000Y-110427000D01*
X126602000Y-110447000D01*
X126348000Y-110447000D01*
X126348000Y-110427000D01*
X126328000Y-110427000D01*
X126328000Y-110173000D01*
X126348000Y-110173000D01*
X126348000Y-110153000D01*
X126602000Y-110153000D01*
X126602000Y-110173000D01*
%TA.AperFunction,Conductor*%
D43*
G36*
X126602000Y-110173000D02*
G01*
X126622000Y-110173000D01*
X126622000Y-110427000D01*
X126602000Y-110427000D01*
X126602000Y-110447000D01*
X126348000Y-110447000D01*
X126348000Y-110427000D01*
X126328000Y-110427000D01*
X126328000Y-110173000D01*
X126348000Y-110173000D01*
X126348000Y-110153000D01*
X126602000Y-110153000D01*
X126602000Y-110173000D01*
G37*
%TD.AperFunction*%
D42*
X122327849Y-106776253D02*
X122297990Y-106926368D01*
X122297990Y-107079424D01*
X122327849Y-107229539D01*
X122386421Y-107370944D01*
X122471454Y-107498205D01*
X122579681Y-107606432D01*
X122624732Y-107636534D01*
X122445982Y-107815285D01*
X122426836Y-107830998D01*
X122411123Y-107850144D01*
X122411120Y-107850147D01*
X122364103Y-107907437D01*
X122327167Y-107976541D01*
X122297067Y-107903874D01*
X122212034Y-107776613D01*
X122103807Y-107668386D01*
X121976546Y-107583353D01*
X121922916Y-107561139D01*
X121951967Y-107415088D01*
X121951967Y-107262032D01*
X121922108Y-107111917D01*
X121863536Y-106970512D01*
X121778503Y-106843251D01*
X121670276Y-106735024D01*
X121548751Y-106653824D01*
X122378561Y-106653824D01*
X122327849Y-106776253D01*
%TA.AperFunction,Conductor*%
D43*
G36*
X122327849Y-106776253D02*
G01*
X122297990Y-106926368D01*
X122297990Y-107079424D01*
X122327849Y-107229539D01*
X122386421Y-107370944D01*
X122471454Y-107498205D01*
X122579681Y-107606432D01*
X122624732Y-107636534D01*
X122445982Y-107815285D01*
X122426836Y-107830998D01*
X122411123Y-107850144D01*
X122411120Y-107850147D01*
X122364103Y-107907437D01*
X122327167Y-107976541D01*
X122297067Y-107903874D01*
X122212034Y-107776613D01*
X122103807Y-107668386D01*
X121976546Y-107583353D01*
X121922916Y-107561139D01*
X121951967Y-107415088D01*
X121951967Y-107262032D01*
X121922108Y-107111917D01*
X121863536Y-106970512D01*
X121778503Y-106843251D01*
X121670276Y-106735024D01*
X121548751Y-106653824D01*
X122378561Y-106653824D01*
X122327849Y-106776253D01*
G37*
%TD.AperFunction*%
D42*
X126802000Y-106673000D02*
X126822000Y-106673000D01*
X126822000Y-106927000D01*
X126802000Y-106927000D01*
X126802000Y-106947000D01*
X126548000Y-106947000D01*
X126548000Y-106927000D01*
X126528000Y-106927000D01*
X126528000Y-106778171D01*
X126528094Y-106778094D01*
X126630755Y-106653000D01*
X126802000Y-106653000D01*
X126802000Y-106673000D01*
%TA.AperFunction,Conductor*%
D43*
G36*
X126802000Y-106673000D02*
G01*
X126822000Y-106673000D01*
X126822000Y-106927000D01*
X126802000Y-106927000D01*
X126802000Y-106947000D01*
X126548000Y-106947000D01*
X126548000Y-106927000D01*
X126528000Y-106927000D01*
X126528000Y-106778171D01*
X126528094Y-106778094D01*
X126630755Y-106653000D01*
X126802000Y-106653000D01*
X126802000Y-106673000D01*
G37*
%TD.AperFunction*%
D42*
X127546176Y-104075000D02*
X127557298Y-104187923D01*
X127590236Y-104296506D01*
X127643725Y-104396577D01*
X127715710Y-104484290D01*
X127803423Y-104556275D01*
X127903494Y-104609764D01*
X128012077Y-104642702D01*
X128125000Y-104653824D01*
X128504221Y-104653824D01*
X128529732Y-104839855D01*
X128518815Y-104848815D01*
X128439463Y-104945506D01*
X128380498Y-105055820D01*
X128344188Y-105175518D01*
X128331928Y-105300000D01*
X128335000Y-105314250D01*
X128493750Y-105473000D01*
X129076684Y-105473000D01*
X129081103Y-105568031D01*
X129111177Y-105689446D01*
X129126082Y-105721176D01*
X128970000Y-105721176D01*
X128910868Y-105727000D01*
X128493750Y-105727000D01*
X128335000Y-105885750D01*
X128331928Y-105900000D01*
X128336476Y-105946176D01*
X128125000Y-105946176D01*
X128012077Y-105957298D01*
X127903494Y-105990236D01*
X127803423Y-106043725D01*
X127715710Y-106115710D01*
X127686049Y-106151851D01*
X127664502Y-106080820D01*
X127605537Y-105970506D01*
X127526185Y-105873815D01*
X127429494Y-105794463D01*
X127319180Y-105735498D01*
X127199482Y-105699188D01*
X127075000Y-105686928D01*
X126960750Y-105690000D01*
X126802002Y-105848748D01*
X126802002Y-105690000D01*
X126788072Y-105690000D01*
X126788072Y-105249550D01*
X126771017Y-105076384D01*
X126720506Y-104909872D01*
X126638481Y-104756414D01*
X126554288Y-104653824D01*
X126875000Y-104653824D01*
X126987923Y-104642702D01*
X127096506Y-104609764D01*
X127196577Y-104556275D01*
X127284290Y-104484290D01*
X127356275Y-104396577D01*
X127409764Y-104296506D01*
X127442702Y-104187923D01*
X127453824Y-104075000D01*
X127453824Y-103734031D01*
X127456684Y-103731684D01*
X127472392Y-103712544D01*
X127472400Y-103712536D01*
X127519417Y-103655246D01*
X127546176Y-103605182D01*
X127546176Y-104075000D01*
%TA.AperFunction,Conductor*%
D43*
G36*
X127546176Y-104075000D02*
G01*
X127557298Y-104187923D01*
X127590236Y-104296506D01*
X127643725Y-104396577D01*
X127715710Y-104484290D01*
X127803423Y-104556275D01*
X127903494Y-104609764D01*
X128012077Y-104642702D01*
X128125000Y-104653824D01*
X128504221Y-104653824D01*
X128529732Y-104839855D01*
X128518815Y-104848815D01*
X128439463Y-104945506D01*
X128380498Y-105055820D01*
X128344188Y-105175518D01*
X128331928Y-105300000D01*
X128335000Y-105314250D01*
X128493750Y-105473000D01*
X129076684Y-105473000D01*
X129081103Y-105568031D01*
X129111177Y-105689446D01*
X129126082Y-105721176D01*
X128970000Y-105721176D01*
X128910868Y-105727000D01*
X128493750Y-105727000D01*
X128335000Y-105885750D01*
X128331928Y-105900000D01*
X128336476Y-105946176D01*
X128125000Y-105946176D01*
X128012077Y-105957298D01*
X127903494Y-105990236D01*
X127803423Y-106043725D01*
X127715710Y-106115710D01*
X127686049Y-106151851D01*
X127664502Y-106080820D01*
X127605537Y-105970506D01*
X127526185Y-105873815D01*
X127429494Y-105794463D01*
X127319180Y-105735498D01*
X127199482Y-105699188D01*
X127075000Y-105686928D01*
X126960750Y-105690000D01*
X126802002Y-105848748D01*
X126802002Y-105690000D01*
X126788072Y-105690000D01*
X126788072Y-105249550D01*
X126771017Y-105076384D01*
X126720506Y-104909872D01*
X126638481Y-104756414D01*
X126554288Y-104653824D01*
X126875000Y-104653824D01*
X126987923Y-104642702D01*
X127096506Y-104609764D01*
X127196577Y-104556275D01*
X127284290Y-104484290D01*
X127356275Y-104396577D01*
X127409764Y-104296506D01*
X127442702Y-104187923D01*
X127453824Y-104075000D01*
X127453824Y-103734031D01*
X127456684Y-103731684D01*
X127472392Y-103712544D01*
X127472400Y-103712536D01*
X127519417Y-103655246D01*
X127546176Y-103605182D01*
X127546176Y-104075000D01*
G37*
%TD.AperFunction*%
D42*
X131703423Y-99043725D02*
X131615710Y-99115710D01*
X131543725Y-99203423D01*
X131490236Y-99303494D01*
X131457298Y-99412077D01*
X131446176Y-99525000D01*
X131446176Y-100075000D01*
X131457298Y-100187923D01*
X131490236Y-100296506D01*
X131543725Y-100396577D01*
X131615710Y-100484290D01*
X131703423Y-100556275D01*
X131803494Y-100609764D01*
X131912077Y-100642702D01*
X132025000Y-100653824D01*
X132425000Y-100653824D01*
X132537923Y-100642702D01*
X132551474Y-100638591D01*
X132259288Y-100930778D01*
X132240142Y-100946491D01*
X132224429Y-100965637D01*
X132224426Y-100965640D01*
X132177409Y-101022930D01*
X132130795Y-101110139D01*
X132102090Y-101204766D01*
X132092398Y-101303175D01*
X132094826Y-101327828D01*
X132094825Y-102246967D01*
X132005209Y-102336583D01*
X132019657Y-102301702D01*
X132049516Y-102151587D01*
X132049516Y-101998531D01*
X132019657Y-101848416D01*
X131961085Y-101707011D01*
X131876052Y-101579750D01*
X131767825Y-101471523D01*
X131640564Y-101386490D01*
X131499159Y-101327918D01*
X131349044Y-101298059D01*
X131195988Y-101298059D01*
X131176175Y-101302000D01*
X130527000Y-101302000D01*
X130527000Y-101322000D01*
X130273000Y-101322000D01*
X130273000Y-101302000D01*
X130253000Y-101302000D01*
X130253000Y-101048000D01*
X130273000Y-101048000D01*
X130273000Y-101028000D01*
X130527000Y-101028000D01*
X130527000Y-101048000D01*
X131351250Y-101048000D01*
X131510000Y-100889250D01*
X131513072Y-100775000D01*
X131500812Y-100650518D01*
X131464502Y-100530820D01*
X131405537Y-100420506D01*
X131326185Y-100323815D01*
X131304625Y-100306121D01*
X131309764Y-100296506D01*
X131342702Y-100187923D01*
X131353824Y-100075000D01*
X131353824Y-99525000D01*
X131342702Y-99412077D01*
X131309764Y-99303494D01*
X131256275Y-99203423D01*
X131184290Y-99115710D01*
X131096577Y-99043725D01*
X131065287Y-99027000D01*
X131734713Y-99027000D01*
X131703423Y-99043725D01*
%TA.AperFunction,Conductor*%
D43*
G36*
X131703423Y-99043725D02*
G01*
X131615710Y-99115710D01*
X131543725Y-99203423D01*
X131490236Y-99303494D01*
X131457298Y-99412077D01*
X131446176Y-99525000D01*
X131446176Y-100075000D01*
X131457298Y-100187923D01*
X131490236Y-100296506D01*
X131543725Y-100396577D01*
X131615710Y-100484290D01*
X131703423Y-100556275D01*
X131803494Y-100609764D01*
X131912077Y-100642702D01*
X132025000Y-100653824D01*
X132425000Y-100653824D01*
X132537923Y-100642702D01*
X132551474Y-100638591D01*
X132259288Y-100930778D01*
X132240142Y-100946491D01*
X132224429Y-100965637D01*
X132224426Y-100965640D01*
X132177409Y-101022930D01*
X132130795Y-101110139D01*
X132102090Y-101204766D01*
X132092398Y-101303175D01*
X132094826Y-101327828D01*
X132094825Y-102246967D01*
X132005209Y-102336583D01*
X132019657Y-102301702D01*
X132049516Y-102151587D01*
X132049516Y-101998531D01*
X132019657Y-101848416D01*
X131961085Y-101707011D01*
X131876052Y-101579750D01*
X131767825Y-101471523D01*
X131640564Y-101386490D01*
X131499159Y-101327918D01*
X131349044Y-101298059D01*
X131195988Y-101298059D01*
X131176175Y-101302000D01*
X130527000Y-101302000D01*
X130527000Y-101322000D01*
X130273000Y-101322000D01*
X130273000Y-101302000D01*
X130253000Y-101302000D01*
X130253000Y-101048000D01*
X130273000Y-101048000D01*
X130273000Y-101028000D01*
X130527000Y-101028000D01*
X130527000Y-101048000D01*
X131351250Y-101048000D01*
X131510000Y-100889250D01*
X131513072Y-100775000D01*
X131500812Y-100650518D01*
X131464502Y-100530820D01*
X131405537Y-100420506D01*
X131326185Y-100323815D01*
X131304625Y-100306121D01*
X131309764Y-100296506D01*
X131342702Y-100187923D01*
X131353824Y-100075000D01*
X131353824Y-99525000D01*
X131342702Y-99412077D01*
X131309764Y-99303494D01*
X131256275Y-99203423D01*
X131184290Y-99115710D01*
X131096577Y-99043725D01*
X131065287Y-99027000D01*
X131734713Y-99027000D01*
X131703423Y-99043725D01*
G37*
%TD.AperFunction*%
D42*
X130053423Y-99043725D02*
X129965710Y-99115710D01*
X129893725Y-99203423D01*
X129843173Y-99298000D01*
X129339779Y-99298000D01*
X129263253Y-99221474D01*
X129135992Y-99136441D01*
X128994587Y-99077869D01*
X128844472Y-99048010D01*
X128691416Y-99048010D01*
X128541301Y-99077869D01*
X128399896Y-99136441D01*
X128272635Y-99221474D01*
X128164408Y-99329701D01*
X128079375Y-99456962D01*
X128020803Y-99598367D01*
X127990944Y-99748482D01*
X127990944Y-99892076D01*
X127987461Y-99895559D01*
X127968316Y-99911271D01*
X127952603Y-99930417D01*
X127952600Y-99930420D01*
X127905583Y-99987710D01*
X127898157Y-100001604D01*
X127864981Y-99939537D01*
X127817869Y-99882131D01*
X127760463Y-99835019D01*
X127694970Y-99800012D01*
X127623905Y-99778455D01*
X127550000Y-99771176D01*
X126838072Y-99771176D01*
X126838072Y-99399550D01*
X126821017Y-99226384D01*
X126770506Y-99059872D01*
X126752936Y-99027000D01*
X130084713Y-99027000D01*
X130053423Y-99043725D01*
%TA.AperFunction,Conductor*%
D43*
G36*
X130053423Y-99043725D02*
G01*
X129965710Y-99115710D01*
X129893725Y-99203423D01*
X129843173Y-99298000D01*
X129339779Y-99298000D01*
X129263253Y-99221474D01*
X129135992Y-99136441D01*
X128994587Y-99077869D01*
X128844472Y-99048010D01*
X128691416Y-99048010D01*
X128541301Y-99077869D01*
X128399896Y-99136441D01*
X128272635Y-99221474D01*
X128164408Y-99329701D01*
X128079375Y-99456962D01*
X128020803Y-99598367D01*
X127990944Y-99748482D01*
X127990944Y-99892076D01*
X127987461Y-99895559D01*
X127968316Y-99911271D01*
X127952603Y-99930417D01*
X127952600Y-99930420D01*
X127905583Y-99987710D01*
X127898157Y-100001604D01*
X127864981Y-99939537D01*
X127817869Y-99882131D01*
X127760463Y-99835019D01*
X127694970Y-99800012D01*
X127623905Y-99778455D01*
X127550000Y-99771176D01*
X126838072Y-99771176D01*
X126838072Y-99399550D01*
X126821017Y-99226384D01*
X126770506Y-99059872D01*
X126752936Y-99027000D01*
X130084713Y-99027000D01*
X130053423Y-99043725D01*
G37*
%TD.AperFunction*%
%TD*%
M02*
