%TF.GenerationSoftware,KiCad,Pcbnew,(5.1.9-0-10_14)*%
%TF.CreationDate,2021-05-22T15:23:55+01:00*%
%TF.ProjectId,Battery,42617474-6572-4792-9e6b-696361645f70,12*%
%TF.SameCoordinates,Original*%
%TF.FileFunction,Legend,Top*%
%TF.FilePolarity,Positive*%
%FSLAX46Y46*%
G04 Gerber Fmt 4.6, Leading zero omitted, Abs format (unit mm)*
G04 Created by KiCad (PCBNEW (5.1.9-0-10_14)) date 2021-05-22 15:23:55*
%MOMM*%
%LPD*%
G01*
G04 APERTURE LIST*
%ADD10C,0.150000*%
%ADD11C,0.120000*%
%ADD12C,0.080000*%
%ADD13C,0.100000*%
G04 APERTURE END LIST*
D10*
X122842857Y-118485714D02*
X123033333Y-119152380D01*
X123223809Y-118676190D01*
X123414285Y-119152380D01*
X123604761Y-118485714D01*
X123890476Y-118485714D02*
X124080952Y-119152380D01*
X124271428Y-118676190D01*
X124461904Y-119152380D01*
X124652380Y-118485714D01*
X124938095Y-118485714D02*
X125128571Y-119152380D01*
X125319047Y-118676190D01*
X125509523Y-119152380D01*
X125700000Y-118485714D01*
X126080952Y-119057142D02*
X126128571Y-119104761D01*
X126080952Y-119152380D01*
X126033333Y-119104761D01*
X126080952Y-119057142D01*
X126080952Y-119152380D01*
X126557142Y-119152380D02*
X126557142Y-118485714D01*
X126557142Y-118580952D02*
X126604761Y-118533333D01*
X126700000Y-118485714D01*
X126842857Y-118485714D01*
X126938095Y-118533333D01*
X126985714Y-118628571D01*
X126985714Y-119152380D01*
X126985714Y-118628571D02*
X127033333Y-118533333D01*
X127128571Y-118485714D01*
X127271428Y-118485714D01*
X127366666Y-118533333D01*
X127414285Y-118628571D01*
X127414285Y-119152380D01*
X128271428Y-119104761D02*
X128176190Y-119152380D01*
X127985714Y-119152380D01*
X127890476Y-119104761D01*
X127842857Y-119009523D01*
X127842857Y-118628571D01*
X127890476Y-118533333D01*
X127985714Y-118485714D01*
X128176190Y-118485714D01*
X128271428Y-118533333D01*
X128319047Y-118628571D01*
X128319047Y-118723809D01*
X127842857Y-118819047D01*
X128747619Y-119057142D02*
X128795238Y-119104761D01*
X128747619Y-119152380D01*
X128700000Y-119104761D01*
X128747619Y-119057142D01*
X128747619Y-119152380D01*
X129652380Y-118485714D02*
X129652380Y-119152380D01*
X129223809Y-118485714D02*
X129223809Y-119009523D01*
X129271428Y-119104761D01*
X129366666Y-119152380D01*
X129509523Y-119152380D01*
X129604761Y-119104761D01*
X129652380Y-119057142D01*
X130128571Y-119152380D02*
X130128571Y-118152380D01*
X130223809Y-118771428D02*
X130509523Y-119152380D01*
X130509523Y-118485714D02*
X130128571Y-118866666D01*
X134452380Y-116109523D02*
X135452380Y-115776190D01*
X134452380Y-115442857D01*
X134547619Y-115157142D02*
X134500000Y-115109523D01*
X134452380Y-115014285D01*
X134452380Y-114776190D01*
X134500000Y-114680952D01*
X134547619Y-114633333D01*
X134642857Y-114585714D01*
X134738095Y-114585714D01*
X134880952Y-114633333D01*
X135452380Y-115204761D01*
X135452380Y-114585714D01*
D11*
%TO.C,R10*%
X120259420Y-107190000D02*
X120540580Y-107190000D01*
X120259420Y-108210000D02*
X120540580Y-108210000D01*
%TO.C,D2*%
X130100000Y-116535000D02*
X133985000Y-116535000D01*
X133985000Y-116535000D02*
X133985000Y-114265000D01*
X133985000Y-114265000D02*
X130100000Y-114265000D01*
%TO.C,Reg1*%
X126250000Y-106750000D02*
X117250000Y-106750000D01*
X126250000Y-98750000D02*
X126250000Y-106750000D01*
X117250000Y-98750000D02*
X126250000Y-98750000D01*
X117250000Y-106750000D02*
X117250000Y-98750000D01*
%TO.C,Q1*%
X118700000Y-110800000D02*
X120700000Y-110800000D01*
X120700000Y-110800000D02*
X120700000Y-111800000D01*
X120700000Y-111800000D02*
X118700000Y-111800000D01*
X118700000Y-111800000D02*
X118700000Y-110800000D01*
%TO.C,Q3*%
X128860000Y-103080000D02*
X127400000Y-103080000D01*
X128860000Y-99920000D02*
X126700000Y-99920000D01*
X128860000Y-99920000D02*
X128860000Y-100850000D01*
X128860000Y-103080000D02*
X128860000Y-102150000D01*
%TO.C,D1*%
X135785000Y-99065000D02*
X133500000Y-99065000D01*
X135785000Y-100535000D02*
X135785000Y-99065000D01*
X133500000Y-100535000D02*
X135785000Y-100535000D01*
%TO.C,C2*%
X124246267Y-109790000D02*
X123953733Y-109790000D01*
X124246267Y-110810000D02*
X123953733Y-110810000D01*
%TO.C,J3*%
X135330000Y-127130000D02*
X134000000Y-127130000D01*
X135330000Y-125800000D02*
X135330000Y-127130000D01*
X135330000Y-124530000D02*
X132670000Y-124530000D01*
X132670000Y-124530000D02*
X132670000Y-121930000D01*
X135330000Y-124530000D02*
X135330000Y-121930000D01*
X135330000Y-121930000D02*
X132670000Y-121930000D01*
%TO.C,R13*%
X130910000Y-102140580D02*
X130910000Y-101859420D01*
X129890000Y-102140580D02*
X129890000Y-101859420D01*
%TO.C,R12*%
X127359420Y-104310000D02*
X127640580Y-104310000D01*
X127359420Y-103290000D02*
X127640580Y-103290000D01*
%TO.C,R11*%
X131259420Y-100310000D02*
X131540580Y-100310000D01*
X131259420Y-99290000D02*
X131540580Y-99290000D01*
%TO.C,R9*%
X120259420Y-109410000D02*
X120540580Y-109410000D01*
X120259420Y-108390000D02*
X120540580Y-108390000D01*
%TO.C,R8*%
X127359420Y-107310000D02*
X127640580Y-107310000D01*
X127359420Y-106290000D02*
X127640580Y-106290000D01*
%TO.C,R7*%
X127440580Y-109790000D02*
X127159420Y-109790000D01*
X127440580Y-110810000D02*
X127159420Y-110810000D01*
%TO.C,R6*%
X119072936Y-118710000D02*
X120527064Y-118710000D01*
X119072936Y-116890000D02*
X120527064Y-116890000D01*
%TO.C,R5*%
X120610000Y-125077064D02*
X120610000Y-123622936D01*
X118790000Y-125077064D02*
X118790000Y-123622936D01*
%TO.C,R4*%
X123880000Y-125077064D02*
X123880000Y-123622936D01*
X122060000Y-125077064D02*
X122060000Y-123622936D01*
%TO.C,R3*%
X126380000Y-125077064D02*
X126380000Y-123622936D01*
X124560000Y-125077064D02*
X124560000Y-123622936D01*
%TO.C,R2*%
X128880000Y-125077064D02*
X128880000Y-123622936D01*
X127060000Y-125077064D02*
X127060000Y-123622936D01*
%TO.C,R1*%
X131380000Y-125077064D02*
X131380000Y-123622936D01*
X129560000Y-125077064D02*
X129560000Y-123622936D01*
%TO.C,C1*%
X134164564Y-116890000D02*
X132710436Y-116890000D01*
X134164564Y-118710000D02*
X132710436Y-118710000D01*
%TO.C,U2*%
X123215000Y-113240000D02*
X123215000Y-112515000D01*
X123215000Y-112515000D02*
X123940000Y-112515000D01*
X127435000Y-116010000D02*
X127435000Y-116735000D01*
X127435000Y-116735000D02*
X126710000Y-116735000D01*
X127435000Y-113240000D02*
X127435000Y-112515000D01*
X127435000Y-112515000D02*
X126710000Y-112515000D01*
X123215000Y-116010000D02*
X123215000Y-116735000D01*
%TO.C,J2*%
X136890000Y-113270000D02*
X129540000Y-113270000D01*
X129540000Y-113270000D02*
X129540000Y-104330000D01*
X129540000Y-104330000D02*
X136890000Y-104330000D01*
X136890000Y-113270000D02*
X136890000Y-104330000D01*
%TO.C,R10*%
D12*
X122278571Y-107926190D02*
X122111904Y-107688095D01*
X121992857Y-107926190D02*
X121992857Y-107426190D01*
X122183333Y-107426190D01*
X122230952Y-107450000D01*
X122254761Y-107473809D01*
X122278571Y-107521428D01*
X122278571Y-107592857D01*
X122254761Y-107640476D01*
X122230952Y-107664285D01*
X122183333Y-107688095D01*
X121992857Y-107688095D01*
X122754761Y-107926190D02*
X122469047Y-107926190D01*
X122611904Y-107926190D02*
X122611904Y-107426190D01*
X122564285Y-107497619D01*
X122516666Y-107545238D01*
X122469047Y-107569047D01*
X123064285Y-107426190D02*
X123111904Y-107426190D01*
X123159523Y-107450000D01*
X123183333Y-107473809D01*
X123207142Y-107521428D01*
X123230952Y-107616666D01*
X123230952Y-107735714D01*
X123207142Y-107830952D01*
X123183333Y-107878571D01*
X123159523Y-107902380D01*
X123111904Y-107926190D01*
X123064285Y-107926190D01*
X123016666Y-107902380D01*
X122992857Y-107878571D01*
X122969047Y-107830952D01*
X122945238Y-107735714D01*
X122945238Y-107616666D01*
X122969047Y-107521428D01*
X122992857Y-107473809D01*
X123016666Y-107450000D01*
X123064285Y-107426190D01*
%TO.C,D2*%
X129430952Y-117326190D02*
X129430952Y-116826190D01*
X129550000Y-116826190D01*
X129621428Y-116850000D01*
X129669047Y-116897619D01*
X129692857Y-116945238D01*
X129716666Y-117040476D01*
X129716666Y-117111904D01*
X129692857Y-117207142D01*
X129669047Y-117254761D01*
X129621428Y-117302380D01*
X129550000Y-117326190D01*
X129430952Y-117326190D01*
X129907142Y-116873809D02*
X129930952Y-116850000D01*
X129978571Y-116826190D01*
X130097619Y-116826190D01*
X130145238Y-116850000D01*
X130169047Y-116873809D01*
X130192857Y-116921428D01*
X130192857Y-116969047D01*
X130169047Y-117040476D01*
X129883333Y-117326190D01*
X130192857Y-117326190D01*
%TO.C,Reg1*%
D13*
X117976190Y-106180238D02*
X117738095Y-106346904D01*
X117976190Y-106465952D02*
X117476190Y-106465952D01*
X117476190Y-106275476D01*
X117500000Y-106227857D01*
X117523809Y-106204047D01*
X117571428Y-106180238D01*
X117642857Y-106180238D01*
X117690476Y-106204047D01*
X117714285Y-106227857D01*
X117738095Y-106275476D01*
X117738095Y-106465952D01*
X117952380Y-105775476D02*
X117976190Y-105823095D01*
X117976190Y-105918333D01*
X117952380Y-105965952D01*
X117904761Y-105989761D01*
X117714285Y-105989761D01*
X117666666Y-105965952D01*
X117642857Y-105918333D01*
X117642857Y-105823095D01*
X117666666Y-105775476D01*
X117714285Y-105751666D01*
X117761904Y-105751666D01*
X117809523Y-105989761D01*
X117642857Y-105323095D02*
X118047619Y-105323095D01*
X118095238Y-105346904D01*
X118119047Y-105370714D01*
X118142857Y-105418333D01*
X118142857Y-105489761D01*
X118119047Y-105537380D01*
X117952380Y-105323095D02*
X117976190Y-105370714D01*
X117976190Y-105465952D01*
X117952380Y-105513571D01*
X117928571Y-105537380D01*
X117880952Y-105561190D01*
X117738095Y-105561190D01*
X117690476Y-105537380D01*
X117666666Y-105513571D01*
X117642857Y-105465952D01*
X117642857Y-105370714D01*
X117666666Y-105323095D01*
X117976190Y-104823095D02*
X117976190Y-105108809D01*
X117976190Y-104965952D02*
X117476190Y-104965952D01*
X117547619Y-105013571D01*
X117595238Y-105061190D01*
X117619047Y-105108809D01*
%TO.C,Q1*%
D12*
X119973809Y-110047619D02*
X119950000Y-110095238D01*
X119902380Y-110142857D01*
X119830952Y-110214285D01*
X119807142Y-110261904D01*
X119807142Y-110309523D01*
X119926190Y-110285714D02*
X119902380Y-110333333D01*
X119854761Y-110380952D01*
X119759523Y-110404761D01*
X119592857Y-110404761D01*
X119497619Y-110380952D01*
X119450000Y-110333333D01*
X119426190Y-110285714D01*
X119426190Y-110190476D01*
X119450000Y-110142857D01*
X119497619Y-110095238D01*
X119592857Y-110071428D01*
X119759523Y-110071428D01*
X119854761Y-110095238D01*
X119902380Y-110142857D01*
X119926190Y-110190476D01*
X119926190Y-110285714D01*
X119926190Y-109595238D02*
X119926190Y-109880952D01*
X119926190Y-109738095D02*
X119426190Y-109738095D01*
X119497619Y-109785714D01*
X119545238Y-109833333D01*
X119569047Y-109880952D01*
%TO.C,Q3*%
X127852380Y-99673809D02*
X127804761Y-99650000D01*
X127757142Y-99602380D01*
X127685714Y-99530952D01*
X127638095Y-99507142D01*
X127590476Y-99507142D01*
X127614285Y-99626190D02*
X127566666Y-99602380D01*
X127519047Y-99554761D01*
X127495238Y-99459523D01*
X127495238Y-99292857D01*
X127519047Y-99197619D01*
X127566666Y-99150000D01*
X127614285Y-99126190D01*
X127709523Y-99126190D01*
X127757142Y-99150000D01*
X127804761Y-99197619D01*
X127828571Y-99292857D01*
X127828571Y-99459523D01*
X127804761Y-99554761D01*
X127757142Y-99602380D01*
X127709523Y-99626190D01*
X127614285Y-99626190D01*
X127995238Y-99126190D02*
X128304761Y-99126190D01*
X128138095Y-99316666D01*
X128209523Y-99316666D01*
X128257142Y-99340476D01*
X128280952Y-99364285D01*
X128304761Y-99411904D01*
X128304761Y-99530952D01*
X128280952Y-99578571D01*
X128257142Y-99602380D01*
X128209523Y-99626190D01*
X128066666Y-99626190D01*
X128019047Y-99602380D01*
X127995238Y-99578571D01*
%TO.C,D1*%
X133930952Y-101456190D02*
X133930952Y-100956190D01*
X134050000Y-100956190D01*
X134121428Y-100980000D01*
X134169047Y-101027619D01*
X134192857Y-101075238D01*
X134216666Y-101170476D01*
X134216666Y-101241904D01*
X134192857Y-101337142D01*
X134169047Y-101384761D01*
X134121428Y-101432380D01*
X134050000Y-101456190D01*
X133930952Y-101456190D01*
X134692857Y-101456190D02*
X134407142Y-101456190D01*
X134550000Y-101456190D02*
X134550000Y-100956190D01*
X134502380Y-101027619D01*
X134454761Y-101075238D01*
X134407142Y-101099047D01*
%TO.C,C2*%
X124016666Y-109378571D02*
X123992857Y-109402380D01*
X123921428Y-109426190D01*
X123873809Y-109426190D01*
X123802380Y-109402380D01*
X123754761Y-109354761D01*
X123730952Y-109307142D01*
X123707142Y-109211904D01*
X123707142Y-109140476D01*
X123730952Y-109045238D01*
X123754761Y-108997619D01*
X123802380Y-108950000D01*
X123873809Y-108926190D01*
X123921428Y-108926190D01*
X123992857Y-108950000D01*
X124016666Y-108973809D01*
X124207142Y-108973809D02*
X124230952Y-108950000D01*
X124278571Y-108926190D01*
X124397619Y-108926190D01*
X124445238Y-108950000D01*
X124469047Y-108973809D01*
X124492857Y-109021428D01*
X124492857Y-109069047D01*
X124469047Y-109140476D01*
X124183333Y-109426190D01*
X124492857Y-109426190D01*
%TO.C,J3*%
D10*
X134366666Y-120552380D02*
X134366666Y-121266666D01*
X134319047Y-121409523D01*
X134223809Y-121504761D01*
X134080952Y-121552380D01*
X133985714Y-121552380D01*
X134747619Y-120552380D02*
X135366666Y-120552380D01*
X135033333Y-120933333D01*
X135176190Y-120933333D01*
X135271428Y-120980952D01*
X135319047Y-121028571D01*
X135366666Y-121123809D01*
X135366666Y-121361904D01*
X135319047Y-121457142D01*
X135271428Y-121504761D01*
X135176190Y-121552380D01*
X134890476Y-121552380D01*
X134795238Y-121504761D01*
X134747619Y-121457142D01*
%TO.C,R13*%
D12*
X132126190Y-102321428D02*
X131888095Y-102488095D01*
X132126190Y-102607142D02*
X131626190Y-102607142D01*
X131626190Y-102416666D01*
X131650000Y-102369047D01*
X131673809Y-102345238D01*
X131721428Y-102321428D01*
X131792857Y-102321428D01*
X131840476Y-102345238D01*
X131864285Y-102369047D01*
X131888095Y-102416666D01*
X131888095Y-102607142D01*
X132126190Y-101845238D02*
X132126190Y-102130952D01*
X132126190Y-101988095D02*
X131626190Y-101988095D01*
X131697619Y-102035714D01*
X131745238Y-102083333D01*
X131769047Y-102130952D01*
X131626190Y-101678571D02*
X131626190Y-101369047D01*
X131816666Y-101535714D01*
X131816666Y-101464285D01*
X131840476Y-101416666D01*
X131864285Y-101392857D01*
X131911904Y-101369047D01*
X132030952Y-101369047D01*
X132078571Y-101392857D01*
X132102380Y-101416666D01*
X132126190Y-101464285D01*
X132126190Y-101607142D01*
X132102380Y-101654761D01*
X132078571Y-101678571D01*
%TO.C,R12*%
X127178571Y-105126190D02*
X127011904Y-104888095D01*
X126892857Y-105126190D02*
X126892857Y-104626190D01*
X127083333Y-104626190D01*
X127130952Y-104650000D01*
X127154761Y-104673809D01*
X127178571Y-104721428D01*
X127178571Y-104792857D01*
X127154761Y-104840476D01*
X127130952Y-104864285D01*
X127083333Y-104888095D01*
X126892857Y-104888095D01*
X127654761Y-105126190D02*
X127369047Y-105126190D01*
X127511904Y-105126190D02*
X127511904Y-104626190D01*
X127464285Y-104697619D01*
X127416666Y-104745238D01*
X127369047Y-104769047D01*
X127845238Y-104673809D02*
X127869047Y-104650000D01*
X127916666Y-104626190D01*
X128035714Y-104626190D01*
X128083333Y-104650000D01*
X128107142Y-104673809D01*
X128130952Y-104721428D01*
X128130952Y-104769047D01*
X128107142Y-104840476D01*
X127821428Y-105126190D01*
X128130952Y-105126190D01*
%TO.C,R11*%
X131578571Y-101026190D02*
X131411904Y-100788095D01*
X131292857Y-101026190D02*
X131292857Y-100526190D01*
X131483333Y-100526190D01*
X131530952Y-100550000D01*
X131554761Y-100573809D01*
X131578571Y-100621428D01*
X131578571Y-100692857D01*
X131554761Y-100740476D01*
X131530952Y-100764285D01*
X131483333Y-100788095D01*
X131292857Y-100788095D01*
X132054761Y-101026190D02*
X131769047Y-101026190D01*
X131911904Y-101026190D02*
X131911904Y-100526190D01*
X131864285Y-100597619D01*
X131816666Y-100645238D01*
X131769047Y-100669047D01*
X132530952Y-101026190D02*
X132245238Y-101026190D01*
X132388095Y-101026190D02*
X132388095Y-100526190D01*
X132340476Y-100597619D01*
X132292857Y-100645238D01*
X132245238Y-100669047D01*
%TO.C,R9*%
X122316666Y-109126190D02*
X122150000Y-108888095D01*
X122030952Y-109126190D02*
X122030952Y-108626190D01*
X122221428Y-108626190D01*
X122269047Y-108650000D01*
X122292857Y-108673809D01*
X122316666Y-108721428D01*
X122316666Y-108792857D01*
X122292857Y-108840476D01*
X122269047Y-108864285D01*
X122221428Y-108888095D01*
X122030952Y-108888095D01*
X122554761Y-109126190D02*
X122650000Y-109126190D01*
X122697619Y-109102380D01*
X122721428Y-109078571D01*
X122769047Y-109007142D01*
X122792857Y-108911904D01*
X122792857Y-108721428D01*
X122769047Y-108673809D01*
X122745238Y-108650000D01*
X122697619Y-108626190D01*
X122602380Y-108626190D01*
X122554761Y-108650000D01*
X122530952Y-108673809D01*
X122507142Y-108721428D01*
X122507142Y-108840476D01*
X122530952Y-108888095D01*
X122554761Y-108911904D01*
X122602380Y-108935714D01*
X122697619Y-108935714D01*
X122745238Y-108911904D01*
X122769047Y-108888095D01*
X122792857Y-108840476D01*
%TO.C,R8*%
X127416666Y-108026190D02*
X127250000Y-107788095D01*
X127130952Y-108026190D02*
X127130952Y-107526190D01*
X127321428Y-107526190D01*
X127369047Y-107550000D01*
X127392857Y-107573809D01*
X127416666Y-107621428D01*
X127416666Y-107692857D01*
X127392857Y-107740476D01*
X127369047Y-107764285D01*
X127321428Y-107788095D01*
X127130952Y-107788095D01*
X127702380Y-107740476D02*
X127654761Y-107716666D01*
X127630952Y-107692857D01*
X127607142Y-107645238D01*
X127607142Y-107621428D01*
X127630952Y-107573809D01*
X127654761Y-107550000D01*
X127702380Y-107526190D01*
X127797619Y-107526190D01*
X127845238Y-107550000D01*
X127869047Y-107573809D01*
X127892857Y-107621428D01*
X127892857Y-107645238D01*
X127869047Y-107692857D01*
X127845238Y-107716666D01*
X127797619Y-107740476D01*
X127702380Y-107740476D01*
X127654761Y-107764285D01*
X127630952Y-107788095D01*
X127607142Y-107835714D01*
X127607142Y-107930952D01*
X127630952Y-107978571D01*
X127654761Y-108002380D01*
X127702380Y-108026190D01*
X127797619Y-108026190D01*
X127845238Y-108002380D01*
X127869047Y-107978571D01*
X127892857Y-107930952D01*
X127892857Y-107835714D01*
X127869047Y-107788095D01*
X127845238Y-107764285D01*
X127797619Y-107740476D01*
%TO.C,R7*%
X127216666Y-109426190D02*
X127050000Y-109188095D01*
X126930952Y-109426190D02*
X126930952Y-108926190D01*
X127121428Y-108926190D01*
X127169047Y-108950000D01*
X127192857Y-108973809D01*
X127216666Y-109021428D01*
X127216666Y-109092857D01*
X127192857Y-109140476D01*
X127169047Y-109164285D01*
X127121428Y-109188095D01*
X126930952Y-109188095D01*
X127383333Y-108926190D02*
X127716666Y-108926190D01*
X127502380Y-109426190D01*
%TO.C,R6*%
X118016666Y-119626190D02*
X117850000Y-119388095D01*
X117730952Y-119626190D02*
X117730952Y-119126190D01*
X117921428Y-119126190D01*
X117969047Y-119150000D01*
X117992857Y-119173809D01*
X118016666Y-119221428D01*
X118016666Y-119292857D01*
X117992857Y-119340476D01*
X117969047Y-119364285D01*
X117921428Y-119388095D01*
X117730952Y-119388095D01*
X118445238Y-119126190D02*
X118350000Y-119126190D01*
X118302380Y-119150000D01*
X118278571Y-119173809D01*
X118230952Y-119245238D01*
X118207142Y-119340476D01*
X118207142Y-119530952D01*
X118230952Y-119578571D01*
X118254761Y-119602380D01*
X118302380Y-119626190D01*
X118397619Y-119626190D01*
X118445238Y-119602380D01*
X118469047Y-119578571D01*
X118492857Y-119530952D01*
X118492857Y-119411904D01*
X118469047Y-119364285D01*
X118445238Y-119340476D01*
X118397619Y-119316666D01*
X118302380Y-119316666D01*
X118254761Y-119340476D01*
X118230952Y-119364285D01*
X118207142Y-119411904D01*
%TO.C,R5*%
X119616666Y-127176190D02*
X119450000Y-126938095D01*
X119330952Y-127176190D02*
X119330952Y-126676190D01*
X119521428Y-126676190D01*
X119569047Y-126700000D01*
X119592857Y-126723809D01*
X119616666Y-126771428D01*
X119616666Y-126842857D01*
X119592857Y-126890476D01*
X119569047Y-126914285D01*
X119521428Y-126938095D01*
X119330952Y-126938095D01*
X120069047Y-126676190D02*
X119830952Y-126676190D01*
X119807142Y-126914285D01*
X119830952Y-126890476D01*
X119878571Y-126866666D01*
X119997619Y-126866666D01*
X120045238Y-126890476D01*
X120069047Y-126914285D01*
X120092857Y-126961904D01*
X120092857Y-127080952D01*
X120069047Y-127128571D01*
X120045238Y-127152380D01*
X119997619Y-127176190D01*
X119878571Y-127176190D01*
X119830952Y-127152380D01*
X119807142Y-127128571D01*
%TO.C,R4*%
X122886666Y-127176190D02*
X122720000Y-126938095D01*
X122600952Y-127176190D02*
X122600952Y-126676190D01*
X122791428Y-126676190D01*
X122839047Y-126700000D01*
X122862857Y-126723809D01*
X122886666Y-126771428D01*
X122886666Y-126842857D01*
X122862857Y-126890476D01*
X122839047Y-126914285D01*
X122791428Y-126938095D01*
X122600952Y-126938095D01*
X123315238Y-126842857D02*
X123315238Y-127176190D01*
X123196190Y-126652380D02*
X123077142Y-127009523D01*
X123386666Y-127009523D01*
%TO.C,R3*%
X125386666Y-127176190D02*
X125220000Y-126938095D01*
X125100952Y-127176190D02*
X125100952Y-126676190D01*
X125291428Y-126676190D01*
X125339047Y-126700000D01*
X125362857Y-126723809D01*
X125386666Y-126771428D01*
X125386666Y-126842857D01*
X125362857Y-126890476D01*
X125339047Y-126914285D01*
X125291428Y-126938095D01*
X125100952Y-126938095D01*
X125553333Y-126676190D02*
X125862857Y-126676190D01*
X125696190Y-126866666D01*
X125767619Y-126866666D01*
X125815238Y-126890476D01*
X125839047Y-126914285D01*
X125862857Y-126961904D01*
X125862857Y-127080952D01*
X125839047Y-127128571D01*
X125815238Y-127152380D01*
X125767619Y-127176190D01*
X125624761Y-127176190D01*
X125577142Y-127152380D01*
X125553333Y-127128571D01*
%TO.C,R2*%
X127886666Y-127176190D02*
X127720000Y-126938095D01*
X127600952Y-127176190D02*
X127600952Y-126676190D01*
X127791428Y-126676190D01*
X127839047Y-126700000D01*
X127862857Y-126723809D01*
X127886666Y-126771428D01*
X127886666Y-126842857D01*
X127862857Y-126890476D01*
X127839047Y-126914285D01*
X127791428Y-126938095D01*
X127600952Y-126938095D01*
X128077142Y-126723809D02*
X128100952Y-126700000D01*
X128148571Y-126676190D01*
X128267619Y-126676190D01*
X128315238Y-126700000D01*
X128339047Y-126723809D01*
X128362857Y-126771428D01*
X128362857Y-126819047D01*
X128339047Y-126890476D01*
X128053333Y-127176190D01*
X128362857Y-127176190D01*
%TO.C,R1*%
X130386666Y-127176190D02*
X130220000Y-126938095D01*
X130100952Y-127176190D02*
X130100952Y-126676190D01*
X130291428Y-126676190D01*
X130339047Y-126700000D01*
X130362857Y-126723809D01*
X130386666Y-126771428D01*
X130386666Y-126842857D01*
X130362857Y-126890476D01*
X130339047Y-126914285D01*
X130291428Y-126938095D01*
X130100952Y-126938095D01*
X130862857Y-127176190D02*
X130577142Y-127176190D01*
X130720000Y-127176190D02*
X130720000Y-126676190D01*
X130672380Y-126747619D01*
X130624761Y-126795238D01*
X130577142Y-126819047D01*
%TO.C,C1*%
X135016666Y-119578571D02*
X134992857Y-119602380D01*
X134921428Y-119626190D01*
X134873809Y-119626190D01*
X134802380Y-119602380D01*
X134754761Y-119554761D01*
X134730952Y-119507142D01*
X134707142Y-119411904D01*
X134707142Y-119340476D01*
X134730952Y-119245238D01*
X134754761Y-119197619D01*
X134802380Y-119150000D01*
X134873809Y-119126190D01*
X134921428Y-119126190D01*
X134992857Y-119150000D01*
X135016666Y-119173809D01*
X135492857Y-119626190D02*
X135207142Y-119626190D01*
X135350000Y-119626190D02*
X135350000Y-119126190D01*
X135302380Y-119197619D01*
X135254761Y-119245238D01*
X135207142Y-119269047D01*
%TO.C,U2*%
X128226190Y-115880952D02*
X128630952Y-115880952D01*
X128678571Y-115857142D01*
X128702380Y-115833333D01*
X128726190Y-115785714D01*
X128726190Y-115690476D01*
X128702380Y-115642857D01*
X128678571Y-115619047D01*
X128630952Y-115595238D01*
X128226190Y-115595238D01*
X128273809Y-115380952D02*
X128250000Y-115357142D01*
X128226190Y-115309523D01*
X128226190Y-115190476D01*
X128250000Y-115142857D01*
X128273809Y-115119047D01*
X128321428Y-115095238D01*
X128369047Y-115095238D01*
X128440476Y-115119047D01*
X128726190Y-115404761D01*
X128726190Y-115095238D01*
%TO.C,J2*%
D10*
X128252380Y-112733333D02*
X128966666Y-112733333D01*
X129109523Y-112780952D01*
X129204761Y-112876190D01*
X129252380Y-113019047D01*
X129252380Y-113114285D01*
X128347619Y-112304761D02*
X128300000Y-112257142D01*
X128252380Y-112161904D01*
X128252380Y-111923809D01*
X128300000Y-111828571D01*
X128347619Y-111780952D01*
X128442857Y-111733333D01*
X128538095Y-111733333D01*
X128680952Y-111780952D01*
X129252380Y-112352380D01*
X129252380Y-111733333D01*
%TD*%
M02*
