%TF.GenerationSoftware,KiCad,Pcbnew,(5.1.9-0-10_14)*%
%TF.CreationDate,2021-06-17T09:59:47+01:00*%
%TF.ProjectId,Battery,42617474-6572-4792-9e6b-696361645f70,4*%
%TF.SameCoordinates,Original*%
%TF.FileFunction,Copper,L1,Top*%
%TF.FilePolarity,Positive*%
%FSLAX46Y46*%
G04 Gerber Fmt 4.6, Leading zero omitted, Abs format (unit mm)*
G04 Created by KiCad (PCBNEW (5.1.9-0-10_14)) date 2021-06-17 09:59:47*
%MOMM*%
%LPD*%
G01*
G04 APERTURE LIST*
%TA.AperFunction,NonConductor*%
%ADD10C,0.080000*%
%TD*%
%TA.AperFunction,EtchedComponent*%
%ADD11C,0.250000*%
%TD*%
%TA.AperFunction,EtchedComponent*%
%ADD12C,0.500000*%
%TD*%
%TA.AperFunction,ComponentPad*%
%ADD13C,0.350000*%
%TD*%
%TA.AperFunction,SMDPad,CuDef*%
%ADD14C,0.100000*%
%TD*%
%TA.AperFunction,SMDPad,CuDef*%
%ADD15R,0.400000X0.650000*%
%TD*%
%TA.AperFunction,SMDPad,CuDef*%
%ADD16R,0.500000X4.000000*%
%TD*%
%TA.AperFunction,SMDPad,CuDef*%
%ADD17R,0.600000X1.100000*%
%TD*%
%TA.AperFunction,SMDPad,CuDef*%
%ADD18R,1.425000X3.700000*%
%TD*%
%TA.AperFunction,SMDPad,CuDef*%
%ADD19R,0.400000X0.800000*%
%TD*%
%TA.AperFunction,ComponentPad*%
%ADD20O,1.700000X1.700000*%
%TD*%
%TA.AperFunction,ComponentPad*%
%ADD21R,1.700000X1.700000*%
%TD*%
%TA.AperFunction,SMDPad,CuDef*%
%ADD22R,0.500000X0.200000*%
%TD*%
%TA.AperFunction,SMDPad,CuDef*%
%ADD23R,1.140000X0.600000*%
%TD*%
%TA.AperFunction,ComponentPad*%
%ADD24C,1.700000*%
%TD*%
%TA.AperFunction,ComponentPad*%
%ADD25C,2.000000*%
%TD*%
%TA.AperFunction,SMDPad,CuDef*%
%ADD26R,1.140000X0.300000*%
%TD*%
%TA.AperFunction,ComponentPad*%
%ADD27C,0.600000*%
%TD*%
%TA.AperFunction,ViaPad*%
%ADD28C,0.800000*%
%TD*%
%TA.AperFunction,Conductor*%
%ADD29C,0.250000*%
%TD*%
%TA.AperFunction,Conductor*%
%ADD30C,0.500000*%
%TD*%
%TA.AperFunction,Conductor*%
%ADD31C,0.254000*%
%TD*%
%TA.AperFunction,Conductor*%
%ADD32C,0.100000*%
%TD*%
G04 APERTURE END LIST*
D10*
X125471428Y-118923809D02*
X125495238Y-118900000D01*
X125542857Y-118876190D01*
X125661904Y-118876190D01*
X125709523Y-118900000D01*
X125733333Y-118923809D01*
X125757142Y-118971428D01*
X125757142Y-119019047D01*
X125733333Y-119090476D01*
X125447619Y-119376190D01*
X125757142Y-119376190D01*
X126066666Y-118876190D02*
X126114285Y-118876190D01*
X126161904Y-118900000D01*
X126185714Y-118923809D01*
X126209523Y-118971428D01*
X126233333Y-119066666D01*
X126233333Y-119185714D01*
X126209523Y-119280952D01*
X126185714Y-119328571D01*
X126161904Y-119352380D01*
X126114285Y-119376190D01*
X126066666Y-119376190D01*
X126019047Y-119352380D01*
X125995238Y-119328571D01*
X125971428Y-119280952D01*
X125947619Y-119185714D01*
X125947619Y-119066666D01*
X125971428Y-118971428D01*
X125995238Y-118923809D01*
X126019047Y-118900000D01*
X126066666Y-118876190D01*
X126423809Y-118923809D02*
X126447619Y-118900000D01*
X126495238Y-118876190D01*
X126614285Y-118876190D01*
X126661904Y-118900000D01*
X126685714Y-118923809D01*
X126709523Y-118971428D01*
X126709523Y-119019047D01*
X126685714Y-119090476D01*
X126400000Y-119376190D01*
X126709523Y-119376190D01*
X127185714Y-119376190D02*
X126900000Y-119376190D01*
X127042857Y-119376190D02*
X127042857Y-118876190D01*
X126995238Y-118947619D01*
X126947619Y-118995238D01*
X126900000Y-119019047D01*
X127400000Y-119185714D02*
X127780952Y-119185714D01*
X128114285Y-118876190D02*
X128161904Y-118876190D01*
X128209523Y-118900000D01*
X128233333Y-118923809D01*
X128257142Y-118971428D01*
X128280952Y-119066666D01*
X128280952Y-119185714D01*
X128257142Y-119280952D01*
X128233333Y-119328571D01*
X128209523Y-119352380D01*
X128161904Y-119376190D01*
X128114285Y-119376190D01*
X128066666Y-119352380D01*
X128042857Y-119328571D01*
X128019047Y-119280952D01*
X127995238Y-119185714D01*
X127995238Y-119066666D01*
X128019047Y-118971428D01*
X128042857Y-118923809D01*
X128066666Y-118900000D01*
X128114285Y-118876190D01*
X128733333Y-118876190D02*
X128495238Y-118876190D01*
X128471428Y-119114285D01*
X128495238Y-119090476D01*
X128542857Y-119066666D01*
X128661904Y-119066666D01*
X128709523Y-119090476D01*
X128733333Y-119114285D01*
X128757142Y-119161904D01*
X128757142Y-119280952D01*
X128733333Y-119328571D01*
X128709523Y-119352380D01*
X128661904Y-119376190D01*
X128542857Y-119376190D01*
X128495238Y-119352380D01*
X128471428Y-119328571D01*
X128971428Y-119185714D02*
X129352380Y-119185714D01*
X129566666Y-118923809D02*
X129590476Y-118900000D01*
X129638095Y-118876190D01*
X129757142Y-118876190D01*
X129804761Y-118900000D01*
X129828571Y-118923809D01*
X129852380Y-118971428D01*
X129852380Y-119019047D01*
X129828571Y-119090476D01*
X129542857Y-119376190D01*
X129852380Y-119376190D01*
X130019047Y-118876190D02*
X130352380Y-118876190D01*
X130138095Y-119376190D01*
D11*
%TO.C,Reg1*%
X120395000Y-98730000D02*
X123740000Y-98730000D01*
X118050000Y-101200000D02*
X120650000Y-101200000D01*
X118150000Y-102100000D02*
X120650000Y-102100000D01*
D12*
X121000000Y-103000000D02*
X122500000Y-103000000D01*
X121000000Y-104200000D02*
X121000000Y-103000000D01*
D11*
X119275000Y-99850000D02*
G75*
G02*
X120395000Y-98730000I1120000J0D01*
G01*
X120650000Y-102100000D02*
G75*
G02*
X121000000Y-102450000I0J-350000D01*
G01*
X121000000Y-100850000D02*
G75*
G02*
X120650000Y-101200000I-350000J0D01*
G01*
X123740000Y-98730000D02*
G75*
G02*
X124860000Y-99850000I0J-1120000D01*
G01*
%TD*%
D13*
%TO.P,U2,21*%
%TO.N,GND*%
X125325000Y-114625000D03*
%TA.AperFunction,SMDPad,CuDef*%
D14*
G36*
X126325000Y-113625000D02*
G01*
X126325000Y-115625000D01*
X124575000Y-115625000D01*
X124325000Y-115375000D01*
X124325000Y-113625000D01*
X126325000Y-113625000D01*
G37*
%TD.AperFunction*%
%TO.P,U2,20*%
%TO.N,USB3.3*%
%TA.AperFunction,SMDPad,CuDef*%
G36*
G01*
X123712500Y-115750000D02*
X123137500Y-115750000D01*
G75*
G02*
X123075000Y-115687500I0J62500D01*
G01*
X123075000Y-115562500D01*
G75*
G02*
X123137500Y-115500000I62500J0D01*
G01*
X123712500Y-115500000D01*
G75*
G02*
X123775000Y-115562500I0J-62500D01*
G01*
X123775000Y-115687500D01*
G75*
G02*
X123712500Y-115750000I-62500J0D01*
G01*
G37*
%TD.AperFunction*%
%TO.P,U2,19*%
%TO.N,EN*%
%TA.AperFunction,SMDPad,CuDef*%
G36*
G01*
X123712500Y-115250000D02*
X123137500Y-115250000D01*
G75*
G02*
X123075000Y-115187500I0J62500D01*
G01*
X123075000Y-115062500D01*
G75*
G02*
X123137500Y-115000000I62500J0D01*
G01*
X123712500Y-115000000D01*
G75*
G02*
X123775000Y-115062500I0J-62500D01*
G01*
X123775000Y-115187500D01*
G75*
G02*
X123712500Y-115250000I-62500J0D01*
G01*
G37*
%TD.AperFunction*%
%TO.P,U2,18*%
%TO.N,GPIO0*%
%TA.AperFunction,SMDPad,CuDef*%
G36*
G01*
X123712500Y-114750000D02*
X123137500Y-114750000D01*
G75*
G02*
X123075000Y-114687500I0J62500D01*
G01*
X123075000Y-114562500D01*
G75*
G02*
X123137500Y-114500000I62500J0D01*
G01*
X123712500Y-114500000D01*
G75*
G02*
X123775000Y-114562500I0J-62500D01*
G01*
X123775000Y-114687500D01*
G75*
G02*
X123712500Y-114750000I-62500J0D01*
G01*
G37*
%TD.AperFunction*%
%TO.P,U2,17*%
%TO.N,I*%
%TA.AperFunction,SMDPad,CuDef*%
G36*
G01*
X123712500Y-114250000D02*
X123137500Y-114250000D01*
G75*
G02*
X123075000Y-114187500I0J62500D01*
G01*
X123075000Y-114062500D01*
G75*
G02*
X123137500Y-114000000I62500J0D01*
G01*
X123712500Y-114000000D01*
G75*
G02*
X123775000Y-114062500I0J-62500D01*
G01*
X123775000Y-114187500D01*
G75*
G02*
X123712500Y-114250000I-62500J0D01*
G01*
G37*
%TD.AperFunction*%
%TO.P,U2,16*%
%TO.N,Net-(U2-Pad16)*%
%TA.AperFunction,SMDPad,CuDef*%
G36*
G01*
X123712500Y-113750000D02*
X123137500Y-113750000D01*
G75*
G02*
X123075000Y-113687500I0J62500D01*
G01*
X123075000Y-113562500D01*
G75*
G02*
X123137500Y-113500000I62500J0D01*
G01*
X123712500Y-113500000D01*
G75*
G02*
X123775000Y-113562500I0J-62500D01*
G01*
X123775000Y-113687500D01*
G75*
G02*
X123712500Y-113750000I-62500J0D01*
G01*
G37*
%TD.AperFunction*%
%TO.P,U2,15*%
%TO.N,USB*%
%TA.AperFunction,SMDPad,CuDef*%
G36*
G01*
X124387500Y-113075000D02*
X124262500Y-113075000D01*
G75*
G02*
X124200000Y-113012500I0J62500D01*
G01*
X124200000Y-112437500D01*
G75*
G02*
X124262500Y-112375000I62500J0D01*
G01*
X124387500Y-112375000D01*
G75*
G02*
X124450000Y-112437500I0J-62500D01*
G01*
X124450000Y-113012500D01*
G75*
G02*
X124387500Y-113075000I-62500J0D01*
G01*
G37*
%TD.AperFunction*%
%TO.P,U2,14*%
%TO.N,CHARGER*%
%TA.AperFunction,SMDPad,CuDef*%
G36*
G01*
X124887500Y-113075000D02*
X124762500Y-113075000D01*
G75*
G02*
X124700000Y-113012500I0J62500D01*
G01*
X124700000Y-112437500D01*
G75*
G02*
X124762500Y-112375000I62500J0D01*
G01*
X124887500Y-112375000D01*
G75*
G02*
X124950000Y-112437500I0J-62500D01*
G01*
X124950000Y-113012500D01*
G75*
G02*
X124887500Y-113075000I-62500J0D01*
G01*
G37*
%TD.AperFunction*%
%TO.P,U2,13*%
%TO.N,GND*%
%TA.AperFunction,SMDPad,CuDef*%
G36*
G01*
X125387500Y-113075000D02*
X125262500Y-113075000D01*
G75*
G02*
X125200000Y-113012500I0J62500D01*
G01*
X125200000Y-112437500D01*
G75*
G02*
X125262500Y-112375000I62500J0D01*
G01*
X125387500Y-112375000D01*
G75*
G02*
X125450000Y-112437500I0J-62500D01*
G01*
X125450000Y-113012500D01*
G75*
G02*
X125387500Y-113075000I-62500J0D01*
G01*
G37*
%TD.AperFunction*%
%TO.P,U2,12*%
%TO.N,VBUS*%
%TA.AperFunction,SMDPad,CuDef*%
G36*
G01*
X125887500Y-113075000D02*
X125762500Y-113075000D01*
G75*
G02*
X125700000Y-113012500I0J62500D01*
G01*
X125700000Y-112437500D01*
G75*
G02*
X125762500Y-112375000I62500J0D01*
G01*
X125887500Y-112375000D01*
G75*
G02*
X125950000Y-112437500I0J-62500D01*
G01*
X125950000Y-113012500D01*
G75*
G02*
X125887500Y-113075000I-62500J0D01*
G01*
G37*
%TD.AperFunction*%
%TO.P,U2,11*%
%TO.N,USB3.3*%
%TA.AperFunction,SMDPad,CuDef*%
G36*
G01*
X126387500Y-113075000D02*
X126262500Y-113075000D01*
G75*
G02*
X126200000Y-113012500I0J62500D01*
G01*
X126200000Y-112437500D01*
G75*
G02*
X126262500Y-112375000I62500J0D01*
G01*
X126387500Y-112375000D01*
G75*
G02*
X126450000Y-112437500I0J-62500D01*
G01*
X126450000Y-113012500D01*
G75*
G02*
X126387500Y-113075000I-62500J0D01*
G01*
G37*
%TD.AperFunction*%
%TO.P,U2,10*%
%TA.AperFunction,SMDPad,CuDef*%
G36*
G01*
X127512500Y-113750000D02*
X126937500Y-113750000D01*
G75*
G02*
X126875000Y-113687500I0J62500D01*
G01*
X126875000Y-113562500D01*
G75*
G02*
X126937500Y-113500000I62500J0D01*
G01*
X127512500Y-113500000D01*
G75*
G02*
X127575000Y-113562500I0J-62500D01*
G01*
X127575000Y-113687500D01*
G75*
G02*
X127512500Y-113750000I-62500J0D01*
G01*
G37*
%TD.AperFunction*%
%TO.P,U2,9*%
%TO.N,D-*%
%TA.AperFunction,SMDPad,CuDef*%
G36*
G01*
X127512500Y-114250000D02*
X126937500Y-114250000D01*
G75*
G02*
X126875000Y-114187500I0J62500D01*
G01*
X126875000Y-114062500D01*
G75*
G02*
X126937500Y-114000000I62500J0D01*
G01*
X127512500Y-114000000D01*
G75*
G02*
X127575000Y-114062500I0J-62500D01*
G01*
X127575000Y-114187500D01*
G75*
G02*
X127512500Y-114250000I-62500J0D01*
G01*
G37*
%TD.AperFunction*%
%TO.P,U2,8*%
%TO.N,D+*%
%TA.AperFunction,SMDPad,CuDef*%
G36*
G01*
X127512500Y-114750000D02*
X126937500Y-114750000D01*
G75*
G02*
X126875000Y-114687500I0J62500D01*
G01*
X126875000Y-114562500D01*
G75*
G02*
X126937500Y-114500000I62500J0D01*
G01*
X127512500Y-114500000D01*
G75*
G02*
X127575000Y-114562500I0J-62500D01*
G01*
X127575000Y-114687500D01*
G75*
G02*
X127512500Y-114750000I-62500J0D01*
G01*
G37*
%TD.AperFunction*%
%TO.P,U2,7*%
%TO.N,Net-(U2-Pad7)*%
%TA.AperFunction,SMDPad,CuDef*%
G36*
G01*
X127512500Y-115250000D02*
X126937500Y-115250000D01*
G75*
G02*
X126875000Y-115187500I0J62500D01*
G01*
X126875000Y-115062500D01*
G75*
G02*
X126937500Y-115000000I62500J0D01*
G01*
X127512500Y-115000000D01*
G75*
G02*
X127575000Y-115062500I0J-62500D01*
G01*
X127575000Y-115187500D01*
G75*
G02*
X127512500Y-115250000I-62500J0D01*
G01*
G37*
%TD.AperFunction*%
%TO.P,U2,6*%
%TO.N,GND*%
%TA.AperFunction,SMDPad,CuDef*%
G36*
G01*
X127512500Y-115750000D02*
X126937500Y-115750000D01*
G75*
G02*
X126875000Y-115687500I0J62500D01*
G01*
X126875000Y-115562500D01*
G75*
G02*
X126937500Y-115500000I62500J0D01*
G01*
X127512500Y-115500000D01*
G75*
G02*
X127575000Y-115562500I0J-62500D01*
G01*
X127575000Y-115687500D01*
G75*
G02*
X127512500Y-115750000I-62500J0D01*
G01*
G37*
%TD.AperFunction*%
%TO.P,U2,5*%
%TA.AperFunction,SMDPad,CuDef*%
G36*
G01*
X126387500Y-116875000D02*
X126262500Y-116875000D01*
G75*
G02*
X126200000Y-116812500I0J62500D01*
G01*
X126200000Y-116237500D01*
G75*
G02*
X126262500Y-116175000I62500J0D01*
G01*
X126387500Y-116175000D01*
G75*
G02*
X126450000Y-116237500I0J-62500D01*
G01*
X126450000Y-116812500D01*
G75*
G02*
X126387500Y-116875000I-62500J0D01*
G01*
G37*
%TD.AperFunction*%
%TO.P,U2,4*%
%TA.AperFunction,SMDPad,CuDef*%
G36*
G01*
X125887500Y-116875000D02*
X125762500Y-116875000D01*
G75*
G02*
X125700000Y-116812500I0J62500D01*
G01*
X125700000Y-116237500D01*
G75*
G02*
X125762500Y-116175000I62500J0D01*
G01*
X125887500Y-116175000D01*
G75*
G02*
X125950000Y-116237500I0J-62500D01*
G01*
X125950000Y-116812500D01*
G75*
G02*
X125887500Y-116875000I-62500J0D01*
G01*
G37*
%TD.AperFunction*%
%TO.P,U2,3*%
%TA.AperFunction,SMDPad,CuDef*%
G36*
G01*
X125387500Y-116875000D02*
X125262500Y-116875000D01*
G75*
G02*
X125200000Y-116812500I0J62500D01*
G01*
X125200000Y-116237500D01*
G75*
G02*
X125262500Y-116175000I62500J0D01*
G01*
X125387500Y-116175000D01*
G75*
G02*
X125450000Y-116237500I0J-62500D01*
G01*
X125450000Y-116812500D01*
G75*
G02*
X125387500Y-116875000I-62500J0D01*
G01*
G37*
%TD.AperFunction*%
%TO.P,U2,2*%
%TA.AperFunction,SMDPad,CuDef*%
G36*
G01*
X124887500Y-116875000D02*
X124762500Y-116875000D01*
G75*
G02*
X124700000Y-116812500I0J62500D01*
G01*
X124700000Y-116237500D01*
G75*
G02*
X124762500Y-116175000I62500J0D01*
G01*
X124887500Y-116175000D01*
G75*
G02*
X124950000Y-116237500I0J-62500D01*
G01*
X124950000Y-116812500D01*
G75*
G02*
X124887500Y-116875000I-62500J0D01*
G01*
G37*
%TD.AperFunction*%
%TO.P,U2,1*%
%TO.N,O*%
%TA.AperFunction,SMDPad,CuDef*%
G36*
G01*
X124387500Y-116875000D02*
X124262500Y-116875000D01*
G75*
G02*
X124200000Y-116812500I0J62500D01*
G01*
X124200000Y-116237500D01*
G75*
G02*
X124262500Y-116175000I62500J0D01*
G01*
X124387500Y-116175000D01*
G75*
G02*
X124450000Y-116237500I0J-62500D01*
G01*
X124450000Y-116812500D01*
G75*
G02*
X124387500Y-116875000I-62500J0D01*
G01*
G37*
%TD.AperFunction*%
%TD*%
D15*
%TO.P,U3,6*%
%TO.N,Net-(R14-Pad1)*%
X133050000Y-102950000D03*
%TO.P,U3,4*%
%TO.N,DC*%
X131750000Y-102950000D03*
%TO.P,U3,2*%
%TO.N,ADCON*%
X132400000Y-101050000D03*
%TO.P,U3,5*%
%TO.N,Net-(R14-Pad1)*%
X132400000Y-102950000D03*
%TO.P,U3,3*%
%TO.N,Net-(R12-Pad1)*%
X131750000Y-101050000D03*
%TO.P,U3,1*%
%TO.N,GND*%
X133050000Y-101050000D03*
%TD*%
%TO.P,C2,2*%
%TO.N,GND*%
%TA.AperFunction,SMDPad,CuDef*%
G36*
G01*
X123775000Y-110100000D02*
X123775000Y-110600000D01*
G75*
G02*
X123550000Y-110825000I-225000J0D01*
G01*
X123100000Y-110825000D01*
G75*
G02*
X122875000Y-110600000I0J225000D01*
G01*
X122875000Y-110100000D01*
G75*
G02*
X123100000Y-109875000I225000J0D01*
G01*
X123550000Y-109875000D01*
G75*
G02*
X123775000Y-110100000I0J-225000D01*
G01*
G37*
%TD.AperFunction*%
%TO.P,C2,1*%
%TO.N,USB3.3*%
%TA.AperFunction,SMDPad,CuDef*%
G36*
G01*
X125325000Y-110100000D02*
X125325000Y-110600000D01*
G75*
G02*
X125100000Y-110825000I-225000J0D01*
G01*
X124650000Y-110825000D01*
G75*
G02*
X124425000Y-110600000I0J225000D01*
G01*
X124425000Y-110100000D01*
G75*
G02*
X124650000Y-109875000I225000J0D01*
G01*
X125100000Y-109875000D01*
G75*
G02*
X125325000Y-110100000I0J-225000D01*
G01*
G37*
%TD.AperFunction*%
%TD*%
%TA.AperFunction,SMDPad,CuDef*%
D14*
%TO.P,Reg1,2*%
%TO.N,DC*%
G36*
X120003956Y-102950389D02*
G01*
X120028247Y-102952943D01*
X120052173Y-102957854D01*
X120075506Y-102965076D01*
X120098022Y-102974542D01*
X120119508Y-102986159D01*
X120139756Y-102999818D01*
X120158576Y-103015387D01*
X120175787Y-103032717D01*
X120191224Y-103051646D01*
X120204740Y-103071990D01*
X120216207Y-103093556D01*
X120225515Y-103116137D01*
X120232574Y-103139520D01*
X120237318Y-103163480D01*
X120239702Y-103187788D01*
X120239702Y-103212213D01*
X120234929Y-103309776D01*
X120234929Y-103309795D01*
X120234927Y-103309817D01*
X120234734Y-103313282D01*
X120233566Y-103323698D01*
X120232545Y-103334103D01*
X120218273Y-103430754D01*
X120217739Y-103434204D01*
X120215564Y-103444436D01*
X120213529Y-103454715D01*
X120189893Y-103549513D01*
X120189025Y-103552894D01*
X120185863Y-103562859D01*
X120182834Y-103572894D01*
X120150061Y-103664932D01*
X120148867Y-103668213D01*
X120144739Y-103677844D01*
X120140754Y-103687513D01*
X120099156Y-103775915D01*
X120097647Y-103779064D01*
X120092589Y-103788264D01*
X120087687Y-103797484D01*
X120037660Y-103881404D01*
X120035852Y-103884390D01*
X120029914Y-103893062D01*
X120024143Y-103901748D01*
X119966176Y-103980371D01*
X119966169Y-103980382D01*
X119966160Y-103980393D01*
X119964076Y-103983181D01*
X119957341Y-103991207D01*
X119950731Y-103999311D01*
X119885365Y-104071908D01*
X119885357Y-104071917D01*
X119885347Y-104071927D01*
X119883005Y-104074494D01*
X119875494Y-104081849D01*
X119868146Y-104089248D01*
X119796010Y-104155117D01*
X119796001Y-104155126D01*
X119795990Y-104155135D01*
X119793405Y-104157463D01*
X119785263Y-104164009D01*
X119777181Y-104170695D01*
X119698950Y-104229220D01*
X119696140Y-104231292D01*
X119687368Y-104237032D01*
X119678700Y-104242879D01*
X119595140Y-104293484D01*
X119595131Y-104293490D01*
X119595120Y-104293496D01*
X119592132Y-104295278D01*
X119582842Y-104300134D01*
X119573645Y-104305107D01*
X119485553Y-104347313D01*
X119485537Y-104347322D01*
X119485517Y-104347330D01*
X119482378Y-104348808D01*
X119472671Y-104352730D01*
X119463020Y-104356786D01*
X119371219Y-104390198D01*
X119371213Y-104390201D01*
X119371205Y-104390203D01*
X119367923Y-104391373D01*
X119357875Y-104394330D01*
X119347880Y-104397424D01*
X119253251Y-104421721D01*
X119249864Y-104422566D01*
X119239553Y-104424533D01*
X119229325Y-104426632D01*
X119132775Y-104441579D01*
X119129322Y-104442089D01*
X119118875Y-104443040D01*
X119108484Y-104444132D01*
X119010937Y-104449586D01*
X119007450Y-104449757D01*
X119002646Y-104449723D01*
X118997840Y-104449975D01*
X118990859Y-104449999D01*
X118987368Y-104449987D01*
X118962987Y-104448536D01*
X118938863Y-104444714D01*
X118915228Y-104438556D01*
X118892306Y-104430121D01*
X118870316Y-104419490D01*
X118849468Y-104406762D01*
X118829962Y-104392062D01*
X118811984Y-104375529D01*
X118795706Y-104357320D01*
X118781281Y-104337609D01*
X118768848Y-104316585D01*
X118758527Y-104294448D01*
X118750416Y-104271409D01*
X118744590Y-104247689D01*
X118741108Y-104223514D01*
X118740001Y-104199114D01*
X118741282Y-104174723D01*
X118744935Y-104150573D01*
X118750927Y-104126894D01*
X118759202Y-104103914D01*
X118769681Y-104081851D01*
X118782262Y-104060915D01*
X118796825Y-104041307D01*
X118813232Y-104023214D01*
X118831328Y-104006808D01*
X118850937Y-103992247D01*
X118871874Y-103979668D01*
X118893938Y-103969192D01*
X118916920Y-103960920D01*
X118940598Y-103954929D01*
X118964749Y-103951278D01*
X118989141Y-103950001D01*
X118989580Y-103949999D01*
X119068362Y-103945595D01*
X119140744Y-103934389D01*
X119211700Y-103916171D01*
X119280527Y-103891119D01*
X119346585Y-103859469D01*
X119409224Y-103821534D01*
X119467879Y-103777653D01*
X119521968Y-103728264D01*
X119570975Y-103673835D01*
X119614445Y-103614873D01*
X119651944Y-103551969D01*
X119683133Y-103485689D01*
X119707703Y-103416687D01*
X119725424Y-103345613D01*
X119736123Y-103273155D01*
X119740299Y-103187786D01*
X119740493Y-103184301D01*
X119743216Y-103160029D01*
X119748294Y-103136137D01*
X119755680Y-103112856D01*
X119765302Y-103090406D01*
X119777068Y-103069003D01*
X119790869Y-103048849D01*
X119806568Y-103030139D01*
X119824019Y-103013050D01*
X119843054Y-102997745D01*
X119863492Y-102984371D01*
X119885138Y-102973055D01*
X119907784Y-102963905D01*
X119931216Y-102957010D01*
X119955208Y-102952432D01*
X119979532Y-102950219D01*
X120003956Y-102950389D01*
G37*
%TD.AperFunction*%
%TA.AperFunction,SMDPad,CuDef*%
%TO.P,Reg1,3*%
%TO.N,GND*%
G36*
X123503491Y-99050024D02*
G01*
X123507858Y-99050299D01*
X123512214Y-99050299D01*
X123556107Y-99052446D01*
X123556121Y-99052446D01*
X123556137Y-99052448D01*
X123559613Y-99052641D01*
X123570056Y-99053813D01*
X123580430Y-99054830D01*
X123623919Y-99061251D01*
X123623925Y-99061252D01*
X123623932Y-99061253D01*
X123627374Y-99061785D01*
X123637668Y-99063973D01*
X123647885Y-99065996D01*
X123690528Y-99076628D01*
X123690543Y-99076631D01*
X123690559Y-99076636D01*
X123693926Y-99077500D01*
X123703902Y-99080665D01*
X123713925Y-99083691D01*
X123755343Y-99098439D01*
X123755349Y-99098441D01*
X123755353Y-99098443D01*
X123758624Y-99099633D01*
X123768236Y-99103753D01*
X123777931Y-99107749D01*
X123817712Y-99126469D01*
X123820860Y-99127978D01*
X123830028Y-99133018D01*
X123839269Y-99137932D01*
X123877033Y-99160443D01*
X123880019Y-99162251D01*
X123888676Y-99168178D01*
X123897382Y-99173963D01*
X123932751Y-99200039D01*
X123932768Y-99200051D01*
X123932786Y-99200066D01*
X123935565Y-99202144D01*
X123943575Y-99208865D01*
X123951696Y-99215489D01*
X123984368Y-99244907D01*
X123986946Y-99247261D01*
X123994260Y-99254730D01*
X124001698Y-99262116D01*
X124031333Y-99294571D01*
X124031345Y-99294583D01*
X124031357Y-99294598D01*
X124033680Y-99297176D01*
X124040243Y-99305339D01*
X124046914Y-99313403D01*
X124073250Y-99348607D01*
X124075322Y-99351417D01*
X124081058Y-99360184D01*
X124086908Y-99368856D01*
X124109683Y-99406462D01*
X124111471Y-99409461D01*
X124116307Y-99418712D01*
X124121302Y-99427950D01*
X124140298Y-99467600D01*
X124141784Y-99470758D01*
X124145704Y-99480461D01*
X124149761Y-99490111D01*
X124164791Y-99531406D01*
X124164798Y-99531424D01*
X124164805Y-99531445D01*
X124165969Y-99534713D01*
X124168932Y-99544782D01*
X124172020Y-99554757D01*
X124182951Y-99597328D01*
X124182955Y-99597342D01*
X124182958Y-99597359D01*
X124183799Y-99600728D01*
X124185761Y-99611014D01*
X124187866Y-99621268D01*
X124194592Y-99664716D01*
X124195102Y-99668169D01*
X124196053Y-99678620D01*
X124197145Y-99689008D01*
X124199599Y-99732904D01*
X124199770Y-99736391D01*
X124199736Y-99741199D01*
X124199987Y-99745983D01*
X124199998Y-99749125D01*
X124199996Y-99749909D01*
X124200000Y-99750000D01*
X124200000Y-104550000D01*
X124199976Y-104553491D01*
X124198442Y-104577867D01*
X124194537Y-104601978D01*
X124188298Y-104625592D01*
X124179784Y-104648485D01*
X124169077Y-104670438D01*
X124156278Y-104691242D01*
X124141511Y-104710697D01*
X124124916Y-104728618D01*
X124106651Y-104744834D01*
X124086891Y-104759191D01*
X124065824Y-104771551D01*
X124062500Y-104773087D01*
X124062500Y-105900000D01*
X125550000Y-105900000D01*
X125553491Y-105900024D01*
X125577867Y-105901558D01*
X125601978Y-105905463D01*
X125625592Y-105911702D01*
X125648485Y-105920216D01*
X125670438Y-105930923D01*
X125691242Y-105943722D01*
X125710697Y-105958489D01*
X125728618Y-105975084D01*
X125744834Y-105993349D01*
X125759191Y-106013109D01*
X125771551Y-106034176D01*
X125781796Y-106056348D01*
X125789828Y-106079415D01*
X125795572Y-106103155D01*
X125798971Y-106127342D01*
X125799994Y-106151745D01*
X125798630Y-106176132D01*
X125794894Y-106200269D01*
X125788820Y-106223927D01*
X125780466Y-106246879D01*
X125769912Y-106268906D01*
X125757259Y-106289798D01*
X125742628Y-106309356D01*
X125726159Y-106327393D01*
X125708007Y-106343736D01*
X125688348Y-106358230D01*
X125667368Y-106370737D01*
X125645268Y-106381137D01*
X125622258Y-106389330D01*
X125598559Y-106395239D01*
X125574396Y-106398807D01*
X125550000Y-106400000D01*
X118950000Y-106400000D01*
X118946509Y-106399976D01*
X118922133Y-106398442D01*
X118898022Y-106394537D01*
X118874408Y-106388298D01*
X118851515Y-106379784D01*
X118829562Y-106369077D01*
X118808758Y-106356278D01*
X118789303Y-106341511D01*
X118771382Y-106324916D01*
X118755166Y-106306651D01*
X118740809Y-106286891D01*
X118728449Y-106265824D01*
X118718204Y-106243652D01*
X118710172Y-106220585D01*
X118704428Y-106196845D01*
X118701029Y-106172658D01*
X118700006Y-106148255D01*
X118701370Y-106123868D01*
X118705106Y-106099731D01*
X118711180Y-106076073D01*
X118719534Y-106053121D01*
X118730088Y-106031094D01*
X118742741Y-106010202D01*
X118757372Y-105990644D01*
X118773841Y-105972607D01*
X118791993Y-105956264D01*
X118811652Y-105941770D01*
X118832632Y-105929263D01*
X118854732Y-105918863D01*
X118877742Y-105910670D01*
X118901441Y-105904761D01*
X118925604Y-105901193D01*
X118950000Y-105900000D01*
X123562500Y-105900000D01*
X123562500Y-104550000D01*
X123562524Y-104546509D01*
X123564058Y-104522133D01*
X123567963Y-104498022D01*
X123574202Y-104474408D01*
X123582716Y-104451515D01*
X123593423Y-104429562D01*
X123606222Y-104408758D01*
X123620989Y-104389303D01*
X123637584Y-104371382D01*
X123655849Y-104355166D01*
X123675609Y-104340809D01*
X123696676Y-104328449D01*
X123700000Y-104326913D01*
X123700000Y-99754033D01*
X123698608Y-99729127D01*
X123695622Y-99709842D01*
X123690772Y-99690954D01*
X123684095Y-99672608D01*
X123675664Y-99655013D01*
X123665560Y-99638329D01*
X123653874Y-99622708D01*
X123640715Y-99608297D01*
X123626212Y-99595239D01*
X123610516Y-99583666D01*
X123593757Y-99573676D01*
X123576099Y-99565367D01*
X123557720Y-99558822D01*
X123538793Y-99554103D01*
X123519485Y-99551252D01*
X123493899Y-99550000D01*
X120504033Y-99550000D01*
X120479127Y-99551392D01*
X120459842Y-99554378D01*
X120440954Y-99559228D01*
X120422608Y-99565905D01*
X120405013Y-99574336D01*
X120388329Y-99584440D01*
X120372708Y-99596126D01*
X120358297Y-99609285D01*
X120345239Y-99623788D01*
X120333666Y-99639484D01*
X120323676Y-99656243D01*
X120315367Y-99673901D01*
X120308822Y-99692280D01*
X120304103Y-99711207D01*
X120301252Y-99730515D01*
X120300000Y-99756101D01*
X120300000Y-100250000D01*
X120299976Y-100253491D01*
X120298442Y-100277867D01*
X120294537Y-100301978D01*
X120288298Y-100325592D01*
X120279784Y-100348485D01*
X120269077Y-100370438D01*
X120256278Y-100391242D01*
X120241511Y-100410697D01*
X120224916Y-100428618D01*
X120206651Y-100444834D01*
X120186891Y-100459191D01*
X120165824Y-100471551D01*
X120143652Y-100481796D01*
X120120585Y-100489828D01*
X120096845Y-100495572D01*
X120072658Y-100498971D01*
X120048255Y-100499994D01*
X120023868Y-100498630D01*
X119999731Y-100494894D01*
X119976073Y-100488820D01*
X119953121Y-100480466D01*
X119931094Y-100469912D01*
X119910202Y-100457259D01*
X119890644Y-100442628D01*
X119872607Y-100426159D01*
X119856264Y-100408007D01*
X119841770Y-100388348D01*
X119829263Y-100367368D01*
X119818863Y-100345268D01*
X119810670Y-100322258D01*
X119804761Y-100298559D01*
X119801193Y-100274396D01*
X119800000Y-100250000D01*
X119800000Y-99750000D01*
X119800024Y-99746509D01*
X119800299Y-99742142D01*
X119800299Y-99737786D01*
X119802446Y-99693893D01*
X119802446Y-99693879D01*
X119802448Y-99693863D01*
X119802641Y-99690387D01*
X119803813Y-99679944D01*
X119804830Y-99669570D01*
X119811252Y-99626077D01*
X119811785Y-99622626D01*
X119813973Y-99612332D01*
X119815996Y-99602115D01*
X119826628Y-99559472D01*
X119826631Y-99559457D01*
X119826636Y-99559441D01*
X119827500Y-99556074D01*
X119830665Y-99546098D01*
X119833691Y-99536075D01*
X119848439Y-99494657D01*
X119849633Y-99491376D01*
X119853753Y-99481764D01*
X119857749Y-99472069D01*
X119876469Y-99432288D01*
X119877978Y-99429140D01*
X119883018Y-99419972D01*
X119887932Y-99410731D01*
X119910443Y-99372967D01*
X119912251Y-99369981D01*
X119918178Y-99361324D01*
X119923963Y-99352618D01*
X119950039Y-99317249D01*
X119950051Y-99317232D01*
X119950066Y-99317214D01*
X119952144Y-99314435D01*
X119958865Y-99306425D01*
X119965489Y-99298304D01*
X119994907Y-99265632D01*
X119997261Y-99263054D01*
X120004730Y-99255740D01*
X120012116Y-99248302D01*
X120044571Y-99218667D01*
X120044583Y-99218655D01*
X120044598Y-99218643D01*
X120047176Y-99216320D01*
X120055339Y-99209757D01*
X120063403Y-99203086D01*
X120098607Y-99176750D01*
X120101417Y-99174678D01*
X120110184Y-99168942D01*
X120118856Y-99163092D01*
X120156462Y-99140317D01*
X120159461Y-99138529D01*
X120168712Y-99133693D01*
X120177950Y-99128698D01*
X120217600Y-99109702D01*
X120220758Y-99108216D01*
X120230461Y-99104296D01*
X120240111Y-99100239D01*
X120281406Y-99085209D01*
X120281424Y-99085202D01*
X120281445Y-99085195D01*
X120284713Y-99084031D01*
X120294782Y-99081068D01*
X120304757Y-99077980D01*
X120347328Y-99067049D01*
X120347342Y-99067045D01*
X120347359Y-99067042D01*
X120350728Y-99066201D01*
X120361014Y-99064239D01*
X120371268Y-99062134D01*
X120414716Y-99055408D01*
X120418169Y-99054898D01*
X120428620Y-99053947D01*
X120439008Y-99052855D01*
X120482904Y-99050401D01*
X120486391Y-99050230D01*
X120491199Y-99050264D01*
X120495983Y-99050013D01*
X120499125Y-99050002D01*
X120499909Y-99050004D01*
X120500000Y-99050000D01*
X123500000Y-99050000D01*
X123503491Y-99050024D01*
G37*
%TD.AperFunction*%
D16*
%TO.P,Reg1,4*%
%TO.N,+3V3*%
X125450000Y-102450000D03*
D17*
%TO.P,Reg1,~*%
%TO.N,N/C*%
X121000000Y-100300000D03*
X119100000Y-100300000D03*
%TO.P,Reg1,3*%
%TO.N,GND*%
X120050000Y-100300000D03*
%TO.P,Reg1,1*%
%TO.N,DC*%
X119100000Y-103000000D03*
%TO.P,Reg1,2*%
X120050000Y-103000000D03*
%TO.P,Reg1,~*%
%TO.N,N/C*%
X121000000Y-103000000D03*
%TO.P,Reg1,4*%
%TO.N,+3V3*%
%TA.AperFunction,SMDPad,CuDef*%
G36*
G01*
X124975000Y-103750000D02*
X125925000Y-103750000D01*
G75*
G02*
X126175000Y-104000000I0J-250000D01*
G01*
X126175000Y-104500000D01*
G75*
G02*
X125925000Y-104750000I-250000J0D01*
G01*
X124975000Y-104750000D01*
G75*
G02*
X124725000Y-104500000I0J250000D01*
G01*
X124725000Y-104000000D01*
G75*
G02*
X124975000Y-103750000I250000J0D01*
G01*
G37*
%TD.AperFunction*%
%TO.P,Reg1,3*%
%TO.N,GND*%
%TA.AperFunction,SMDPad,CuDef*%
G36*
G01*
X124975000Y-105650000D02*
X125925000Y-105650000D01*
G75*
G02*
X126175000Y-105900000I0J-250000D01*
G01*
X126175000Y-106400000D01*
G75*
G02*
X125925000Y-106650000I-250000J0D01*
G01*
X124975000Y-106650000D01*
G75*
G02*
X124725000Y-106400000I0J250000D01*
G01*
X124725000Y-105900000D01*
G75*
G02*
X124975000Y-105650000I250000J0D01*
G01*
G37*
%TD.AperFunction*%
%TA.AperFunction,SMDPad,CuDef*%
G36*
G01*
X118725000Y-105650000D02*
X119675000Y-105650000D01*
G75*
G02*
X119925000Y-105900000I0J-250000D01*
G01*
X119925000Y-106400000D01*
G75*
G02*
X119675000Y-106650000I-250000J0D01*
G01*
X118725000Y-106650000D01*
G75*
G02*
X118475000Y-106400000I0J250000D01*
G01*
X118475000Y-105900000D01*
G75*
G02*
X118725000Y-105650000I250000J0D01*
G01*
G37*
%TD.AperFunction*%
%TO.P,Reg1,2*%
%TO.N,DC*%
%TA.AperFunction,SMDPad,CuDef*%
G36*
G01*
X118725000Y-103750000D02*
X119675000Y-103750000D01*
G75*
G02*
X119925000Y-104000000I0J-250000D01*
G01*
X119925000Y-104500000D01*
G75*
G02*
X119675000Y-104750000I-250000J0D01*
G01*
X118725000Y-104750000D01*
G75*
G02*
X118475000Y-104500000I0J250000D01*
G01*
X118475000Y-104000000D01*
G75*
G02*
X118725000Y-103750000I250000J0D01*
G01*
G37*
%TD.AperFunction*%
%TO.P,Reg1,~*%
%TO.N,N/C*%
%TA.AperFunction,SMDPad,CuDef*%
G36*
G01*
X118200000Y-101325000D02*
X117700000Y-101325000D01*
G75*
G02*
X117475000Y-101100000I0J225000D01*
G01*
X117475000Y-100650000D01*
G75*
G02*
X117700000Y-100425000I225000J0D01*
G01*
X118200000Y-100425000D01*
G75*
G02*
X118425000Y-100650000I0J-225000D01*
G01*
X118425000Y-101100000D01*
G75*
G02*
X118200000Y-101325000I-225000J0D01*
G01*
G37*
%TD.AperFunction*%
%TA.AperFunction,SMDPad,CuDef*%
G36*
G01*
X118200000Y-102875000D02*
X117700000Y-102875000D01*
G75*
G02*
X117475000Y-102650000I0J225000D01*
G01*
X117475000Y-102200000D01*
G75*
G02*
X117700000Y-101975000I225000J0D01*
G01*
X118200000Y-101975000D01*
G75*
G02*
X118425000Y-102200000I0J-225000D01*
G01*
X118425000Y-102650000D01*
G75*
G02*
X118200000Y-102875000I-225000J0D01*
G01*
G37*
%TD.AperFunction*%
%TA.AperFunction,SMDPad,CuDef*%
G36*
G01*
X120125000Y-105445627D02*
X120125000Y-104194373D01*
G75*
G02*
X120374373Y-103945000I249373J0D01*
G01*
X121300627Y-103945000D01*
G75*
G02*
X121550000Y-104194373I0J-249373D01*
G01*
X121550000Y-105445627D01*
G75*
G02*
X121300627Y-105695000I-249373J0D01*
G01*
X120374373Y-105695000D01*
G75*
G02*
X120125000Y-105445627I0J249373D01*
G01*
G37*
%TD.AperFunction*%
%TO.P,Reg1,3*%
%TO.N,GND*%
%TA.AperFunction,SMDPad,CuDef*%
G36*
G01*
X123100000Y-105445627D02*
X123100000Y-104194373D01*
G75*
G02*
X123349373Y-103945000I249373J0D01*
G01*
X124275627Y-103945000D01*
G75*
G02*
X124525000Y-104194373I0J-249373D01*
G01*
X124525000Y-105445627D01*
G75*
G02*
X124275627Y-105695000I-249373J0D01*
G01*
X123349373Y-105695000D01*
G75*
G02*
X123100000Y-105445627I0J249373D01*
G01*
G37*
%TD.AperFunction*%
D18*
%TO.P,Reg1,4*%
%TO.N,+3V3*%
X125450000Y-101700000D03*
%TO.P,Reg1,~*%
%TO.N,N/C*%
X122450000Y-101700000D03*
%TD*%
%TO.P,R14,2*%
%TO.N,DC*%
%TA.AperFunction,SMDPad,CuDef*%
G36*
G01*
X135575000Y-101475000D02*
X135025000Y-101475000D01*
G75*
G02*
X134825000Y-101275000I0J200000D01*
G01*
X134825000Y-100875000D01*
G75*
G02*
X135025000Y-100675000I200000J0D01*
G01*
X135575000Y-100675000D01*
G75*
G02*
X135775000Y-100875000I0J-200000D01*
G01*
X135775000Y-101275000D01*
G75*
G02*
X135575000Y-101475000I-200000J0D01*
G01*
G37*
%TD.AperFunction*%
%TO.P,R14,1*%
%TO.N,Net-(R14-Pad1)*%
%TA.AperFunction,SMDPad,CuDef*%
G36*
G01*
X135575000Y-103125000D02*
X135025000Y-103125000D01*
G75*
G02*
X134825000Y-102925000I0J200000D01*
G01*
X134825000Y-102525000D01*
G75*
G02*
X135025000Y-102325000I200000J0D01*
G01*
X135575000Y-102325000D01*
G75*
G02*
X135775000Y-102525000I0J-200000D01*
G01*
X135775000Y-102925000D01*
G75*
G02*
X135575000Y-103125000I-200000J0D01*
G01*
G37*
%TD.AperFunction*%
%TD*%
%TO.P,R10,2*%
%TO.N,ADCON*%
%TA.AperFunction,SMDPad,CuDef*%
G36*
G01*
X120825000Y-107975000D02*
X120825000Y-107425000D01*
G75*
G02*
X121025000Y-107225000I200000J0D01*
G01*
X121425000Y-107225000D01*
G75*
G02*
X121625000Y-107425000I0J-200000D01*
G01*
X121625000Y-107975000D01*
G75*
G02*
X121425000Y-108175000I-200000J0D01*
G01*
X121025000Y-108175000D01*
G75*
G02*
X120825000Y-107975000I0J200000D01*
G01*
G37*
%TD.AperFunction*%
%TO.P,R10,1*%
%TO.N,GND*%
%TA.AperFunction,SMDPad,CuDef*%
G36*
G01*
X119175000Y-107975000D02*
X119175000Y-107425000D01*
G75*
G02*
X119375000Y-107225000I200000J0D01*
G01*
X119775000Y-107225000D01*
G75*
G02*
X119975000Y-107425000I0J-200000D01*
G01*
X119975000Y-107975000D01*
G75*
G02*
X119775000Y-108175000I-200000J0D01*
G01*
X119375000Y-108175000D01*
G75*
G02*
X119175000Y-107975000I0J200000D01*
G01*
G37*
%TD.AperFunction*%
%TD*%
%TO.P,D2,2*%
%TO.N,VBUS*%
%TA.AperFunction,SMDPad,CuDef*%
G36*
G01*
X130925000Y-114775000D02*
X130925000Y-116025000D01*
G75*
G02*
X130675000Y-116275000I-250000J0D01*
G01*
X129925000Y-116275000D01*
G75*
G02*
X129675000Y-116025000I0J250000D01*
G01*
X129675000Y-114775000D01*
G75*
G02*
X129925000Y-114525000I250000J0D01*
G01*
X130675000Y-114525000D01*
G75*
G02*
X130925000Y-114775000I0J-250000D01*
G01*
G37*
%TD.AperFunction*%
%TO.P,D2,1*%
%TO.N,DC*%
%TA.AperFunction,SMDPad,CuDef*%
G36*
G01*
X133725000Y-114775000D02*
X133725000Y-116025000D01*
G75*
G02*
X133475000Y-116275000I-250000J0D01*
G01*
X132725000Y-116275000D01*
G75*
G02*
X132475000Y-116025000I0J250000D01*
G01*
X132475000Y-114775000D01*
G75*
G02*
X132725000Y-114525000I250000J0D01*
G01*
X133475000Y-114525000D01*
G75*
G02*
X133725000Y-114775000I0J-250000D01*
G01*
G37*
%TD.AperFunction*%
%TD*%
D19*
%TO.P,Q1,5*%
%TO.N,Net-(Q1-Pad5)*%
X119050000Y-110350000D03*
%TO.P,Q1,4*%
%TO.N,Net-(Q1-Pad4)*%
X120350000Y-110350000D03*
%TO.P,Q1,3*%
%TO.N,GPIO0*%
X120350000Y-112250000D03*
%TO.P,Q1,2*%
%TO.N,GND*%
X119700000Y-112250000D03*
%TO.P,Q1,1*%
%TO.N,EN*%
X119050000Y-112250000D03*
%TD*%
%TO.P,D1,2*%
%TO.N,Net-(D1-Pad2)*%
%TA.AperFunction,SMDPad,CuDef*%
G36*
G01*
X134350000Y-99043750D02*
X134350000Y-99556250D01*
G75*
G02*
X134131250Y-99775000I-218750J0D01*
G01*
X133693750Y-99775000D01*
G75*
G02*
X133475000Y-99556250I0J218750D01*
G01*
X133475000Y-99043750D01*
G75*
G02*
X133693750Y-98825000I218750J0D01*
G01*
X134131250Y-98825000D01*
G75*
G02*
X134350000Y-99043750I0J-218750D01*
G01*
G37*
%TD.AperFunction*%
%TO.P,D1,1*%
%TO.N,Net-(D1-Pad1)*%
%TA.AperFunction,SMDPad,CuDef*%
G36*
G01*
X135925000Y-99043750D02*
X135925000Y-99556250D01*
G75*
G02*
X135706250Y-99775000I-218750J0D01*
G01*
X135268750Y-99775000D01*
G75*
G02*
X135050000Y-99556250I0J218750D01*
G01*
X135050000Y-99043750D01*
G75*
G02*
X135268750Y-98825000I218750J0D01*
G01*
X135706250Y-98825000D01*
G75*
G02*
X135925000Y-99043750I0J-218750D01*
G01*
G37*
%TD.AperFunction*%
%TD*%
D20*
%TO.P,J3,2*%
%TO.N,DC*%
X134000000Y-123260000D03*
D21*
%TO.P,J3,1*%
%TO.N,GND*%
X134000000Y-125800000D03*
%TD*%
%TO.P,R13,2*%
%TO.N,GND*%
%TA.AperFunction,SMDPad,CuDef*%
G36*
G01*
X127775000Y-101475000D02*
X127225000Y-101475000D01*
G75*
G02*
X127025000Y-101275000I0J200000D01*
G01*
X127025000Y-100875000D01*
G75*
G02*
X127225000Y-100675000I200000J0D01*
G01*
X127775000Y-100675000D01*
G75*
G02*
X127975000Y-100875000I0J-200000D01*
G01*
X127975000Y-101275000D01*
G75*
G02*
X127775000Y-101475000I-200000J0D01*
G01*
G37*
%TD.AperFunction*%
%TO.P,R13,1*%
%TO.N,ADC*%
%TA.AperFunction,SMDPad,CuDef*%
G36*
G01*
X127775000Y-103125000D02*
X127225000Y-103125000D01*
G75*
G02*
X127025000Y-102925000I0J200000D01*
G01*
X127025000Y-102525000D01*
G75*
G02*
X127225000Y-102325000I200000J0D01*
G01*
X127775000Y-102325000D01*
G75*
G02*
X127975000Y-102525000I0J-200000D01*
G01*
X127975000Y-102925000D01*
G75*
G02*
X127775000Y-103125000I-200000J0D01*
G01*
G37*
%TD.AperFunction*%
%TD*%
%TO.P,R12,2*%
%TO.N,ADC*%
%TA.AperFunction,SMDPad,CuDef*%
G36*
G01*
X128425000Y-102325000D02*
X128975000Y-102325000D01*
G75*
G02*
X129175000Y-102525000I0J-200000D01*
G01*
X129175000Y-102925000D01*
G75*
G02*
X128975000Y-103125000I-200000J0D01*
G01*
X128425000Y-103125000D01*
G75*
G02*
X128225000Y-102925000I0J200000D01*
G01*
X128225000Y-102525000D01*
G75*
G02*
X128425000Y-102325000I200000J0D01*
G01*
G37*
%TD.AperFunction*%
%TO.P,R12,1*%
%TO.N,Net-(R12-Pad1)*%
%TA.AperFunction,SMDPad,CuDef*%
G36*
G01*
X128425000Y-100675000D02*
X128975000Y-100675000D01*
G75*
G02*
X129175000Y-100875000I0J-200000D01*
G01*
X129175000Y-101275000D01*
G75*
G02*
X128975000Y-101475000I-200000J0D01*
G01*
X128425000Y-101475000D01*
G75*
G02*
X128225000Y-101275000I0J200000D01*
G01*
X128225000Y-100875000D01*
G75*
G02*
X128425000Y-100675000I200000J0D01*
G01*
G37*
%TD.AperFunction*%
%TD*%
%TO.P,R11,2*%
%TO.N,Net-(D1-Pad2)*%
%TA.AperFunction,SMDPad,CuDef*%
G36*
G01*
X129325000Y-99675000D02*
X129325000Y-99125000D01*
G75*
G02*
X129525000Y-98925000I200000J0D01*
G01*
X129925000Y-98925000D01*
G75*
G02*
X130125000Y-99125000I0J-200000D01*
G01*
X130125000Y-99675000D01*
G75*
G02*
X129925000Y-99875000I-200000J0D01*
G01*
X129525000Y-99875000D01*
G75*
G02*
X129325000Y-99675000I0J200000D01*
G01*
G37*
%TD.AperFunction*%
%TO.P,R11,1*%
%TO.N,+3V3*%
%TA.AperFunction,SMDPad,CuDef*%
G36*
G01*
X127675000Y-99675000D02*
X127675000Y-99125000D01*
G75*
G02*
X127875000Y-98925000I200000J0D01*
G01*
X128275000Y-98925000D01*
G75*
G02*
X128475000Y-99125000I0J-200000D01*
G01*
X128475000Y-99675000D01*
G75*
G02*
X128275000Y-99875000I-200000J0D01*
G01*
X127875000Y-99875000D01*
G75*
G02*
X127675000Y-99675000I0J200000D01*
G01*
G37*
%TD.AperFunction*%
%TD*%
%TO.P,R9,2*%
%TO.N,+3V3*%
%TA.AperFunction,SMDPad,CuDef*%
G36*
G01*
X120825000Y-109175000D02*
X120825000Y-108625000D01*
G75*
G02*
X121025000Y-108425000I200000J0D01*
G01*
X121425000Y-108425000D01*
G75*
G02*
X121625000Y-108625000I0J-200000D01*
G01*
X121625000Y-109175000D01*
G75*
G02*
X121425000Y-109375000I-200000J0D01*
G01*
X121025000Y-109375000D01*
G75*
G02*
X120825000Y-109175000I0J200000D01*
G01*
G37*
%TD.AperFunction*%
%TO.P,R9,1*%
%TO.N,Net-(Q1-Pad5)*%
%TA.AperFunction,SMDPad,CuDef*%
G36*
G01*
X119175000Y-109175000D02*
X119175000Y-108625000D01*
G75*
G02*
X119375000Y-108425000I200000J0D01*
G01*
X119775000Y-108425000D01*
G75*
G02*
X119975000Y-108625000I0J-200000D01*
G01*
X119975000Y-109175000D01*
G75*
G02*
X119775000Y-109375000I-200000J0D01*
G01*
X119375000Y-109375000D01*
G75*
G02*
X119175000Y-109175000I0J200000D01*
G01*
G37*
%TD.AperFunction*%
%TD*%
%TO.P,R8,2*%
%TO.N,Net-(J2-PadB5)*%
%TA.AperFunction,SMDPad,CuDef*%
G36*
G01*
X127925000Y-107075000D02*
X127925000Y-106525000D01*
G75*
G02*
X128125000Y-106325000I200000J0D01*
G01*
X128525000Y-106325000D01*
G75*
G02*
X128725000Y-106525000I0J-200000D01*
G01*
X128725000Y-107075000D01*
G75*
G02*
X128525000Y-107275000I-200000J0D01*
G01*
X128125000Y-107275000D01*
G75*
G02*
X127925000Y-107075000I0J200000D01*
G01*
G37*
%TD.AperFunction*%
%TO.P,R8,1*%
%TO.N,GND*%
%TA.AperFunction,SMDPad,CuDef*%
G36*
G01*
X126275000Y-107075000D02*
X126275000Y-106525000D01*
G75*
G02*
X126475000Y-106325000I200000J0D01*
G01*
X126875000Y-106325000D01*
G75*
G02*
X127075000Y-106525000I0J-200000D01*
G01*
X127075000Y-107075000D01*
G75*
G02*
X126875000Y-107275000I-200000J0D01*
G01*
X126475000Y-107275000D01*
G75*
G02*
X126275000Y-107075000I0J200000D01*
G01*
G37*
%TD.AperFunction*%
%TD*%
%TO.P,R7,2*%
%TO.N,GND*%
%TA.AperFunction,SMDPad,CuDef*%
G36*
G01*
X127075000Y-110075000D02*
X127075000Y-110625000D01*
G75*
G02*
X126875000Y-110825000I-200000J0D01*
G01*
X126475000Y-110825000D01*
G75*
G02*
X126275000Y-110625000I0J200000D01*
G01*
X126275000Y-110075000D01*
G75*
G02*
X126475000Y-109875000I200000J0D01*
G01*
X126875000Y-109875000D01*
G75*
G02*
X127075000Y-110075000I0J-200000D01*
G01*
G37*
%TD.AperFunction*%
%TO.P,R7,1*%
%TO.N,Net-(J2-PadA5)*%
%TA.AperFunction,SMDPad,CuDef*%
G36*
G01*
X128725000Y-110075000D02*
X128725000Y-110625000D01*
G75*
G02*
X128525000Y-110825000I-200000J0D01*
G01*
X128125000Y-110825000D01*
G75*
G02*
X127925000Y-110625000I0J200000D01*
G01*
X127925000Y-110075000D01*
G75*
G02*
X128125000Y-109875000I200000J0D01*
G01*
X128525000Y-109875000D01*
G75*
G02*
X128725000Y-110075000I0J-200000D01*
G01*
G37*
%TD.AperFunction*%
%TD*%
%TO.P,R6,1*%
%TO.N,IO5*%
%TA.AperFunction,SMDPad,CuDef*%
G36*
G01*
X118625000Y-118249900D02*
X118625000Y-117350100D01*
G75*
G02*
X118875100Y-117100000I250100J0D01*
G01*
X119399900Y-117100000D01*
G75*
G02*
X119650000Y-117350100I0J-250100D01*
G01*
X119650000Y-118249900D01*
G75*
G02*
X119399900Y-118500000I-250100J0D01*
G01*
X118875100Y-118500000D01*
G75*
G02*
X118625000Y-118249900I0J250100D01*
G01*
G37*
%TD.AperFunction*%
%TO.P,R6,2*%
%TO.N,Net-(J1-Pad6)*%
%TA.AperFunction,SMDPad,CuDef*%
G36*
G01*
X120450000Y-118249900D02*
X120450000Y-117350100D01*
G75*
G02*
X120700100Y-117100000I250100J0D01*
G01*
X121224900Y-117100000D01*
G75*
G02*
X121475000Y-117350100I0J-250100D01*
G01*
X121475000Y-118249900D01*
G75*
G02*
X121224900Y-118500000I-250100J0D01*
G01*
X120700100Y-118500000D01*
G75*
G02*
X120450000Y-118249900I0J250100D01*
G01*
G37*
%TD.AperFunction*%
%TA.AperFunction,SMDPad,CuDef*%
G36*
G01*
X120950000Y-118425250D02*
X120950000Y-117174750D01*
G75*
G02*
X121199750Y-116925000I249750J0D01*
G01*
X121825250Y-116925000D01*
G75*
G02*
X122075000Y-117174750I0J-249750D01*
G01*
X122075000Y-118425250D01*
G75*
G02*
X121825250Y-118675000I-249750J0D01*
G01*
X121199750Y-118675000D01*
G75*
G02*
X120950000Y-118425250I0J249750D01*
G01*
G37*
%TD.AperFunction*%
%TO.P,R6,1*%
%TO.N,IO5*%
%TA.AperFunction,SMDPad,CuDef*%
G36*
G01*
X118025000Y-118425250D02*
X118025000Y-117174750D01*
G75*
G02*
X118274750Y-116925000I249750J0D01*
G01*
X118900250Y-116925000D01*
G75*
G02*
X119150000Y-117174750I0J-249750D01*
G01*
X119150000Y-118425250D01*
G75*
G02*
X118900250Y-118675000I-249750J0D01*
G01*
X118274750Y-118675000D01*
G75*
G02*
X118025000Y-118425250I0J249750D01*
G01*
G37*
%TD.AperFunction*%
%TD*%
%TO.P,R5,1*%
%TO.N,DC*%
%TA.AperFunction,SMDPad,CuDef*%
G36*
G01*
X120149900Y-125775000D02*
X119250100Y-125775000D01*
G75*
G02*
X119000000Y-125524900I0J250100D01*
G01*
X119000000Y-125000100D01*
G75*
G02*
X119250100Y-124750000I250100J0D01*
G01*
X120149900Y-124750000D01*
G75*
G02*
X120400000Y-125000100I0J-250100D01*
G01*
X120400000Y-125524900D01*
G75*
G02*
X120149900Y-125775000I-250100J0D01*
G01*
G37*
%TD.AperFunction*%
%TO.P,R5,2*%
%TO.N,Net-(J1-Pad6)*%
%TA.AperFunction,SMDPad,CuDef*%
G36*
G01*
X120149900Y-123950000D02*
X119250100Y-123950000D01*
G75*
G02*
X119000000Y-123699900I0J250100D01*
G01*
X119000000Y-123175100D01*
G75*
G02*
X119250100Y-122925000I250100J0D01*
G01*
X120149900Y-122925000D01*
G75*
G02*
X120400000Y-123175100I0J-250100D01*
G01*
X120400000Y-123699900D01*
G75*
G02*
X120149900Y-123950000I-250100J0D01*
G01*
G37*
%TD.AperFunction*%
%TA.AperFunction,SMDPad,CuDef*%
G36*
G01*
X120325250Y-123450000D02*
X119074750Y-123450000D01*
G75*
G02*
X118825000Y-123200250I0J249750D01*
G01*
X118825000Y-122574750D01*
G75*
G02*
X119074750Y-122325000I249750J0D01*
G01*
X120325250Y-122325000D01*
G75*
G02*
X120575000Y-122574750I0J-249750D01*
G01*
X120575000Y-123200250D01*
G75*
G02*
X120325250Y-123450000I-249750J0D01*
G01*
G37*
%TD.AperFunction*%
%TO.P,R5,1*%
%TO.N,DC*%
%TA.AperFunction,SMDPad,CuDef*%
G36*
G01*
X120325250Y-126375000D02*
X119074750Y-126375000D01*
G75*
G02*
X118825000Y-126125250I0J249750D01*
G01*
X118825000Y-125499750D01*
G75*
G02*
X119074750Y-125250000I249750J0D01*
G01*
X120325250Y-125250000D01*
G75*
G02*
X120575000Y-125499750I0J-249750D01*
G01*
X120575000Y-126125250D01*
G75*
G02*
X120325250Y-126375000I-249750J0D01*
G01*
G37*
%TD.AperFunction*%
%TD*%
%TO.P,R4,1*%
%TO.N,+3V3*%
%TA.AperFunction,SMDPad,CuDef*%
G36*
G01*
X123419900Y-125775000D02*
X122520100Y-125775000D01*
G75*
G02*
X122270000Y-125524900I0J250100D01*
G01*
X122270000Y-125000100D01*
G75*
G02*
X122520100Y-124750000I250100J0D01*
G01*
X123419900Y-124750000D01*
G75*
G02*
X123670000Y-125000100I0J-250100D01*
G01*
X123670000Y-125524900D01*
G75*
G02*
X123419900Y-125775000I-250100J0D01*
G01*
G37*
%TD.AperFunction*%
%TO.P,R4,2*%
%TO.N,IO4*%
%TA.AperFunction,SMDPad,CuDef*%
G36*
G01*
X123419900Y-123950000D02*
X122520100Y-123950000D01*
G75*
G02*
X122270000Y-123699900I0J250100D01*
G01*
X122270000Y-123175100D01*
G75*
G02*
X122520100Y-122925000I250100J0D01*
G01*
X123419900Y-122925000D01*
G75*
G02*
X123670000Y-123175100I0J-250100D01*
G01*
X123670000Y-123699900D01*
G75*
G02*
X123419900Y-123950000I-250100J0D01*
G01*
G37*
%TD.AperFunction*%
%TA.AperFunction,SMDPad,CuDef*%
G36*
G01*
X123595250Y-123450000D02*
X122344750Y-123450000D01*
G75*
G02*
X122095000Y-123200250I0J249750D01*
G01*
X122095000Y-122574750D01*
G75*
G02*
X122344750Y-122325000I249750J0D01*
G01*
X123595250Y-122325000D01*
G75*
G02*
X123845000Y-122574750I0J-249750D01*
G01*
X123845000Y-123200250D01*
G75*
G02*
X123595250Y-123450000I-249750J0D01*
G01*
G37*
%TD.AperFunction*%
%TO.P,R4,1*%
%TO.N,+3V3*%
%TA.AperFunction,SMDPad,CuDef*%
G36*
G01*
X123595250Y-126375000D02*
X122344750Y-126375000D01*
G75*
G02*
X122095000Y-126125250I0J249750D01*
G01*
X122095000Y-125499750D01*
G75*
G02*
X122344750Y-125250000I249750J0D01*
G01*
X123595250Y-125250000D01*
G75*
G02*
X123845000Y-125499750I0J-249750D01*
G01*
X123845000Y-126125250D01*
G75*
G02*
X123595250Y-126375000I-249750J0D01*
G01*
G37*
%TD.AperFunction*%
%TD*%
%TO.P,R3,1*%
%TO.N,+3V3*%
%TA.AperFunction,SMDPad,CuDef*%
G36*
G01*
X125919900Y-125775000D02*
X125020100Y-125775000D01*
G75*
G02*
X124770000Y-125524900I0J250100D01*
G01*
X124770000Y-125000100D01*
G75*
G02*
X125020100Y-124750000I250100J0D01*
G01*
X125919900Y-124750000D01*
G75*
G02*
X126170000Y-125000100I0J-250100D01*
G01*
X126170000Y-125524900D01*
G75*
G02*
X125919900Y-125775000I-250100J0D01*
G01*
G37*
%TD.AperFunction*%
%TO.P,R3,2*%
%TO.N,IO3*%
%TA.AperFunction,SMDPad,CuDef*%
G36*
G01*
X125919900Y-123950000D02*
X125020100Y-123950000D01*
G75*
G02*
X124770000Y-123699900I0J250100D01*
G01*
X124770000Y-123175100D01*
G75*
G02*
X125020100Y-122925000I250100J0D01*
G01*
X125919900Y-122925000D01*
G75*
G02*
X126170000Y-123175100I0J-250100D01*
G01*
X126170000Y-123699900D01*
G75*
G02*
X125919900Y-123950000I-250100J0D01*
G01*
G37*
%TD.AperFunction*%
%TA.AperFunction,SMDPad,CuDef*%
G36*
G01*
X126095250Y-123450000D02*
X124844750Y-123450000D01*
G75*
G02*
X124595000Y-123200250I0J249750D01*
G01*
X124595000Y-122574750D01*
G75*
G02*
X124844750Y-122325000I249750J0D01*
G01*
X126095250Y-122325000D01*
G75*
G02*
X126345000Y-122574750I0J-249750D01*
G01*
X126345000Y-123200250D01*
G75*
G02*
X126095250Y-123450000I-249750J0D01*
G01*
G37*
%TD.AperFunction*%
%TO.P,R3,1*%
%TO.N,+3V3*%
%TA.AperFunction,SMDPad,CuDef*%
G36*
G01*
X126095250Y-126375000D02*
X124844750Y-126375000D01*
G75*
G02*
X124595000Y-126125250I0J249750D01*
G01*
X124595000Y-125499750D01*
G75*
G02*
X124844750Y-125250000I249750J0D01*
G01*
X126095250Y-125250000D01*
G75*
G02*
X126345000Y-125499750I0J-249750D01*
G01*
X126345000Y-126125250D01*
G75*
G02*
X126095250Y-126375000I-249750J0D01*
G01*
G37*
%TD.AperFunction*%
%TD*%
%TO.P,R2,1*%
%TO.N,+3V3*%
%TA.AperFunction,SMDPad,CuDef*%
G36*
G01*
X128419900Y-125775000D02*
X127520100Y-125775000D01*
G75*
G02*
X127270000Y-125524900I0J250100D01*
G01*
X127270000Y-125000100D01*
G75*
G02*
X127520100Y-124750000I250100J0D01*
G01*
X128419900Y-124750000D01*
G75*
G02*
X128670000Y-125000100I0J-250100D01*
G01*
X128670000Y-125524900D01*
G75*
G02*
X128419900Y-125775000I-250100J0D01*
G01*
G37*
%TD.AperFunction*%
%TO.P,R2,2*%
%TO.N,IO2*%
%TA.AperFunction,SMDPad,CuDef*%
G36*
G01*
X128419900Y-123950000D02*
X127520100Y-123950000D01*
G75*
G02*
X127270000Y-123699900I0J250100D01*
G01*
X127270000Y-123175100D01*
G75*
G02*
X127520100Y-122925000I250100J0D01*
G01*
X128419900Y-122925000D01*
G75*
G02*
X128670000Y-123175100I0J-250100D01*
G01*
X128670000Y-123699900D01*
G75*
G02*
X128419900Y-123950000I-250100J0D01*
G01*
G37*
%TD.AperFunction*%
%TA.AperFunction,SMDPad,CuDef*%
G36*
G01*
X128595250Y-123450000D02*
X127344750Y-123450000D01*
G75*
G02*
X127095000Y-123200250I0J249750D01*
G01*
X127095000Y-122574750D01*
G75*
G02*
X127344750Y-122325000I249750J0D01*
G01*
X128595250Y-122325000D01*
G75*
G02*
X128845000Y-122574750I0J-249750D01*
G01*
X128845000Y-123200250D01*
G75*
G02*
X128595250Y-123450000I-249750J0D01*
G01*
G37*
%TD.AperFunction*%
%TO.P,R2,1*%
%TO.N,+3V3*%
%TA.AperFunction,SMDPad,CuDef*%
G36*
G01*
X128595250Y-126375000D02*
X127344750Y-126375000D01*
G75*
G02*
X127095000Y-126125250I0J249750D01*
G01*
X127095000Y-125499750D01*
G75*
G02*
X127344750Y-125250000I249750J0D01*
G01*
X128595250Y-125250000D01*
G75*
G02*
X128845000Y-125499750I0J-249750D01*
G01*
X128845000Y-126125250D01*
G75*
G02*
X128595250Y-126375000I-249750J0D01*
G01*
G37*
%TD.AperFunction*%
%TD*%
%TO.P,R1,1*%
%TO.N,+3V3*%
%TA.AperFunction,SMDPad,CuDef*%
G36*
G01*
X130919900Y-125775000D02*
X130020100Y-125775000D01*
G75*
G02*
X129770000Y-125524900I0J250100D01*
G01*
X129770000Y-125000100D01*
G75*
G02*
X130020100Y-124750000I250100J0D01*
G01*
X130919900Y-124750000D01*
G75*
G02*
X131170000Y-125000100I0J-250100D01*
G01*
X131170000Y-125524900D01*
G75*
G02*
X130919900Y-125775000I-250100J0D01*
G01*
G37*
%TD.AperFunction*%
%TO.P,R1,2*%
%TO.N,IO1*%
%TA.AperFunction,SMDPad,CuDef*%
G36*
G01*
X130919900Y-123950000D02*
X130020100Y-123950000D01*
G75*
G02*
X129770000Y-123699900I0J250100D01*
G01*
X129770000Y-123175100D01*
G75*
G02*
X130020100Y-122925000I250100J0D01*
G01*
X130919900Y-122925000D01*
G75*
G02*
X131170000Y-123175100I0J-250100D01*
G01*
X131170000Y-123699900D01*
G75*
G02*
X130919900Y-123950000I-250100J0D01*
G01*
G37*
%TD.AperFunction*%
%TA.AperFunction,SMDPad,CuDef*%
G36*
G01*
X131095250Y-123450000D02*
X129844750Y-123450000D01*
G75*
G02*
X129595000Y-123200250I0J249750D01*
G01*
X129595000Y-122574750D01*
G75*
G02*
X129844750Y-122325000I249750J0D01*
G01*
X131095250Y-122325000D01*
G75*
G02*
X131345000Y-122574750I0J-249750D01*
G01*
X131345000Y-123200250D01*
G75*
G02*
X131095250Y-123450000I-249750J0D01*
G01*
G37*
%TD.AperFunction*%
%TO.P,R1,1*%
%TO.N,+3V3*%
%TA.AperFunction,SMDPad,CuDef*%
G36*
G01*
X131095250Y-126375000D02*
X129844750Y-126375000D01*
G75*
G02*
X129595000Y-126125250I0J249750D01*
G01*
X129595000Y-125499750D01*
G75*
G02*
X129844750Y-125250000I249750J0D01*
G01*
X131095250Y-125250000D01*
G75*
G02*
X131345000Y-125499750I0J-249750D01*
G01*
X131345000Y-126125250D01*
G75*
G02*
X131095250Y-126375000I-249750J0D01*
G01*
G37*
%TD.AperFunction*%
%TD*%
%TO.P,C1,1*%
%TO.N,GND*%
%TA.AperFunction,SMDPad,CuDef*%
G36*
G01*
X134862500Y-117350100D02*
X134862500Y-118249900D01*
G75*
G02*
X134612400Y-118500000I-250100J0D01*
G01*
X134087600Y-118500000D01*
G75*
G02*
X133837500Y-118249900I0J250100D01*
G01*
X133837500Y-117350100D01*
G75*
G02*
X134087600Y-117100000I250100J0D01*
G01*
X134612400Y-117100000D01*
G75*
G02*
X134862500Y-117350100I0J-250100D01*
G01*
G37*
%TD.AperFunction*%
%TO.P,C1,2*%
%TO.N,IO1*%
%TA.AperFunction,SMDPad,CuDef*%
G36*
G01*
X133037500Y-117350100D02*
X133037500Y-118249900D01*
G75*
G02*
X132787400Y-118500000I-250100J0D01*
G01*
X132262600Y-118500000D01*
G75*
G02*
X132012500Y-118249900I0J250100D01*
G01*
X132012500Y-117350100D01*
G75*
G02*
X132262600Y-117100000I250100J0D01*
G01*
X132787400Y-117100000D01*
G75*
G02*
X133037500Y-117350100I0J-250100D01*
G01*
G37*
%TD.AperFunction*%
%TA.AperFunction,SMDPad,CuDef*%
G36*
G01*
X132537500Y-117174750D02*
X132537500Y-118425250D01*
G75*
G02*
X132287750Y-118675000I-249750J0D01*
G01*
X131662250Y-118675000D01*
G75*
G02*
X131412500Y-118425250I0J249750D01*
G01*
X131412500Y-117174750D01*
G75*
G02*
X131662250Y-116925000I249750J0D01*
G01*
X132287750Y-116925000D01*
G75*
G02*
X132537500Y-117174750I0J-249750D01*
G01*
G37*
%TD.AperFunction*%
%TO.P,C1,1*%
%TO.N,GND*%
%TA.AperFunction,SMDPad,CuDef*%
G36*
G01*
X135462500Y-117174750D02*
X135462500Y-118425250D01*
G75*
G02*
X135212750Y-118675000I-249750J0D01*
G01*
X134587250Y-118675000D01*
G75*
G02*
X134337500Y-118425250I0J249750D01*
G01*
X134337500Y-117174750D01*
G75*
G02*
X134587250Y-116925000I249750J0D01*
G01*
X135212750Y-116925000D01*
G75*
G02*
X135462500Y-117174750I0J-249750D01*
G01*
G37*
%TD.AperFunction*%
%TD*%
%TO.P,J1,1*%
%TO.N,GND*%
X133045000Y-120500000D03*
D20*
%TO.P,J1,2*%
%TO.N,IO1*%
X130505000Y-120500000D03*
%TO.P,J1,3*%
%TO.N,IO2*%
X127965000Y-120500000D03*
%TO.P,J1,4*%
%TO.N,IO3*%
X125425000Y-120500000D03*
%TO.P,J1,5*%
%TO.N,IO4*%
X122885000Y-120500000D03*
%TO.P,J1,6*%
%TO.N,Net-(J1-Pad6)*%
X120345000Y-120500000D03*
%TD*%
D22*
%TO.P,J2,S1*%
%TO.N,GND*%
X130980000Y-104780000D03*
%TA.AperFunction,SMDPad,CuDef*%
D14*
G36*
X129415684Y-111986936D02*
G01*
X129417553Y-111974868D01*
X129420589Y-111963040D01*
X129424766Y-111951563D01*
X129430043Y-111940550D01*
X129436369Y-111930103D01*
X129443684Y-111920325D01*
X129451919Y-111911306D01*
X129460995Y-111903134D01*
X129470824Y-111895886D01*
X129481314Y-111889634D01*
X129492364Y-111884433D01*
X129503868Y-111880336D01*
X129515718Y-111877381D01*
X129527800Y-111875597D01*
X129539998Y-111875000D01*
X129552195Y-111875597D01*
X129564277Y-111877380D01*
X129576127Y-111880335D01*
X129587631Y-111884431D01*
X129598682Y-111889631D01*
X129609172Y-111895884D01*
X129619002Y-111903131D01*
X129628077Y-111911303D01*
X129636312Y-111920320D01*
X129643628Y-111930099D01*
X129649954Y-111940545D01*
X129655232Y-111951558D01*
X129659409Y-111963034D01*
X129662446Y-111974863D01*
X129664315Y-111986932D01*
X129664997Y-111999125D01*
X129665082Y-112011210D01*
X129671318Y-112110337D01*
X129686779Y-112205799D01*
X129711485Y-112299306D01*
X129745193Y-112389942D01*
X129787585Y-112476861D01*
X129838261Y-112559234D01*
X129896731Y-112636265D01*
X129962437Y-112707221D01*
X130034760Y-112771431D01*
X130112991Y-112828269D01*
X130196404Y-112877208D01*
X130284191Y-112917772D01*
X130375523Y-112949577D01*
X130469522Y-112972318D01*
X130515977Y-112978847D01*
X130598150Y-112973677D01*
X130910000Y-112923168D01*
X130910000Y-111798629D01*
X130658200Y-111814471D01*
X130656458Y-111814569D01*
X130653835Y-111814569D01*
X130651225Y-111814715D01*
X130610874Y-111814997D01*
X130609129Y-111814997D01*
X130596934Y-111814315D01*
X130584866Y-111812447D01*
X130573038Y-111809410D01*
X130561561Y-111805233D01*
X130550548Y-111799956D01*
X130540102Y-111793630D01*
X130530323Y-111786315D01*
X130521304Y-111778080D01*
X130513133Y-111769004D01*
X130505885Y-111759174D01*
X130499632Y-111748685D01*
X130494432Y-111737635D01*
X130490336Y-111726130D01*
X130487381Y-111714281D01*
X130485596Y-111702199D01*
X130485000Y-111690001D01*
X130485597Y-111677803D01*
X130487380Y-111665721D01*
X130490335Y-111653871D01*
X130494431Y-111642367D01*
X130499631Y-111631317D01*
X130505884Y-111620827D01*
X130513132Y-111610997D01*
X130521303Y-111601922D01*
X130530321Y-111593686D01*
X130540100Y-111586371D01*
X130550546Y-111580045D01*
X130561560Y-111574768D01*
X130573036Y-111570590D01*
X130584865Y-111567554D01*
X130596933Y-111565685D01*
X130609126Y-111565003D01*
X130645993Y-111564745D01*
X130910000Y-111548135D01*
X130910000Y-106052804D01*
X130879804Y-106048345D01*
X130603894Y-106034851D01*
X130602151Y-106034754D01*
X130590014Y-106033392D01*
X130578069Y-106030852D01*
X130566429Y-106027160D01*
X130555203Y-106022349D01*
X130544502Y-106016466D01*
X130534425Y-106009566D01*
X130525070Y-106001717D01*
X130516525Y-105992991D01*
X130508873Y-105983473D01*
X130502185Y-105973254D01*
X130496528Y-105962431D01*
X130491953Y-105951108D01*
X130488505Y-105939393D01*
X130486216Y-105927397D01*
X130485109Y-105915234D01*
X130485195Y-105903022D01*
X130486472Y-105890877D01*
X130488927Y-105878913D01*
X130492538Y-105867247D01*
X130497271Y-105855990D01*
X130503080Y-105845247D01*
X130509908Y-105835122D01*
X130517693Y-105825712D01*
X130526359Y-105817107D01*
X130535822Y-105809388D01*
X130545995Y-105802630D01*
X130556778Y-105796897D01*
X130568069Y-105792243D01*
X130579760Y-105788713D01*
X130591740Y-105786341D01*
X130603894Y-105785150D01*
X130616106Y-105785149D01*
X130898121Y-105798942D01*
X130899864Y-105799039D01*
X130905118Y-105799629D01*
X130910000Y-105800107D01*
X130910000Y-104674855D01*
X130539837Y-104620194D01*
X130526039Y-104619519D01*
X130455967Y-104630366D01*
X130362290Y-104654419D01*
X130271416Y-104687494D01*
X130184204Y-104729279D01*
X130101485Y-104779375D01*
X130024049Y-104837304D01*
X129952633Y-104902517D01*
X129887918Y-104974388D01*
X129830530Y-105052229D01*
X129781010Y-105135300D01*
X129739835Y-105222803D01*
X129707398Y-105313899D01*
X129684001Y-105407739D01*
X129669873Y-105503406D01*
X129664851Y-105606106D01*
X129664754Y-105607848D01*
X129663392Y-105619985D01*
X129660853Y-105631930D01*
X129657161Y-105643571D01*
X129652350Y-105654796D01*
X129646466Y-105665498D01*
X129639566Y-105675575D01*
X129631717Y-105684929D01*
X129622991Y-105693474D01*
X129613473Y-105701127D01*
X129603254Y-105707814D01*
X129592432Y-105713472D01*
X129581109Y-105718047D01*
X129569394Y-105721495D01*
X129557397Y-105723784D01*
X129545235Y-105724891D01*
X129533022Y-105724805D01*
X129520877Y-105723528D01*
X129508914Y-105721073D01*
X129497247Y-105717462D01*
X129485990Y-105712729D01*
X129475247Y-105706921D01*
X129465123Y-105700092D01*
X129455713Y-105692307D01*
X129447108Y-105683641D01*
X129439389Y-105674178D01*
X129432630Y-105664006D01*
X129426897Y-105653223D01*
X129422243Y-105641932D01*
X129418713Y-105630241D01*
X129416341Y-105618261D01*
X129415150Y-105606107D01*
X129415149Y-105593894D01*
X129420470Y-105485089D01*
X129420567Y-105483347D01*
X129421155Y-105478103D01*
X129421662Y-105472934D01*
X129437576Y-105365168D01*
X129437843Y-105363443D01*
X129438934Y-105358311D01*
X129439948Y-105353188D01*
X129466302Y-105247489D01*
X129466736Y-105245799D01*
X129468324Y-105240793D01*
X129469832Y-105235799D01*
X129506374Y-105133176D01*
X129506970Y-105131536D01*
X129509038Y-105126712D01*
X129511027Y-105121885D01*
X129557409Y-105023318D01*
X129558163Y-105021744D01*
X129560680Y-105017166D01*
X129563143Y-105012533D01*
X129618923Y-104918963D01*
X129619827Y-104917470D01*
X129622784Y-104913151D01*
X129625681Y-104908791D01*
X129690325Y-104821110D01*
X129691371Y-104819712D01*
X129694746Y-104815690D01*
X129698044Y-104811645D01*
X129770936Y-104730691D01*
X129772113Y-104729402D01*
X129775873Y-104725720D01*
X129779541Y-104722026D01*
X129859984Y-104648572D01*
X129861280Y-104647404D01*
X129865400Y-104644092D01*
X129869394Y-104640787D01*
X129956622Y-104575532D01*
X129958026Y-104574496D01*
X129962414Y-104571625D01*
X129966747Y-104568702D01*
X130020944Y-104535879D01*
X130016529Y-104527432D01*
X130011953Y-104516109D01*
X130008506Y-104504393D01*
X130006217Y-104492397D01*
X130005110Y-104480235D01*
X130005195Y-104468022D01*
X130006472Y-104455877D01*
X130008927Y-104443914D01*
X130012539Y-104432247D01*
X130017271Y-104420990D01*
X130023080Y-104410247D01*
X130029909Y-104400122D01*
X130037694Y-104390712D01*
X130046359Y-104382107D01*
X130055823Y-104374388D01*
X130065995Y-104367630D01*
X130076778Y-104361897D01*
X130088069Y-104357243D01*
X130099760Y-104353713D01*
X130111740Y-104351341D01*
X130123894Y-104350150D01*
X130136107Y-104350149D01*
X130512891Y-104368576D01*
X130519327Y-104367580D01*
X130521053Y-104367324D01*
X130526303Y-104366847D01*
X130531473Y-104366303D01*
X130640238Y-104360222D01*
X130641981Y-104360136D01*
X130647257Y-104360173D01*
X130652450Y-104360137D01*
X130761290Y-104364699D01*
X130763033Y-104364784D01*
X130768232Y-104365331D01*
X130773452Y-104365806D01*
X130881327Y-104380967D01*
X130883053Y-104381221D01*
X130888226Y-104382283D01*
X130893323Y-104383255D01*
X130999203Y-104408870D01*
X131000897Y-104409292D01*
X131005911Y-104410844D01*
X131010920Y-104412318D01*
X131113794Y-104448143D01*
X131115438Y-104448728D01*
X131120277Y-104450762D01*
X131125118Y-104452718D01*
X131193199Y-104484176D01*
X131410303Y-104538306D01*
X131411993Y-104538740D01*
X131416988Y-104540324D01*
X131421994Y-104541836D01*
X131669587Y-104630000D01*
X134060000Y-104630000D01*
X134060000Y-104050000D01*
X134560000Y-104050000D01*
X134560000Y-104630000D01*
X136400000Y-104630000D01*
X136400000Y-112970000D01*
X134560000Y-112970000D01*
X134560000Y-113550000D01*
X134060000Y-113550000D01*
X134060000Y-112970000D01*
X131668766Y-112970000D01*
X131481322Y-113039710D01*
X131479682Y-113040307D01*
X131474675Y-113041819D01*
X131469681Y-113043403D01*
X131189421Y-113117450D01*
X131141091Y-113140606D01*
X131139512Y-113141349D01*
X131134651Y-113143313D01*
X131129833Y-113145338D01*
X131027466Y-113182597D01*
X131025822Y-113183182D01*
X131020796Y-113184661D01*
X131015800Y-113186208D01*
X130910288Y-113213299D01*
X130908595Y-113213721D01*
X130903433Y-113214706D01*
X130898325Y-113215755D01*
X130790673Y-113232420D01*
X130788946Y-113232676D01*
X130783704Y-113233153D01*
X130778527Y-113233697D01*
X130669762Y-113239778D01*
X130668019Y-113239864D01*
X130662743Y-113239827D01*
X130657549Y-113239863D01*
X130548710Y-113235301D01*
X130546967Y-113235216D01*
X130541747Y-113234667D01*
X130536548Y-113234194D01*
X130506330Y-113229947D01*
X130198235Y-113249331D01*
X130196492Y-113249429D01*
X130193869Y-113249429D01*
X130191259Y-113249575D01*
X130130874Y-113249997D01*
X130129128Y-113249997D01*
X130116934Y-113249315D01*
X130104866Y-113247447D01*
X130093038Y-113244410D01*
X130081561Y-113240233D01*
X130070548Y-113234956D01*
X130060101Y-113228630D01*
X130050323Y-113221315D01*
X130041304Y-113213080D01*
X130033133Y-113204004D01*
X130025885Y-113194174D01*
X130019632Y-113183685D01*
X130014432Y-113172635D01*
X130010336Y-113161130D01*
X130007381Y-113149280D01*
X130005596Y-113137199D01*
X130005000Y-113125001D01*
X130005597Y-113112803D01*
X130007380Y-113100721D01*
X130010335Y-113088871D01*
X130014431Y-113077367D01*
X130019631Y-113066317D01*
X130020943Y-113064116D01*
X129981213Y-113040806D01*
X129979714Y-113039913D01*
X129975358Y-113036975D01*
X129970994Y-113034119D01*
X129882864Y-112970089D01*
X129881459Y-112969054D01*
X129877412Y-112965706D01*
X129873346Y-112962437D01*
X129791884Y-112890112D01*
X129790587Y-112888944D01*
X129786868Y-112885199D01*
X129783159Y-112881567D01*
X129709144Y-112801638D01*
X129707967Y-112800350D01*
X129704641Y-112796272D01*
X129701294Y-112792283D01*
X129635432Y-112705513D01*
X129634386Y-112704116D01*
X129631467Y-112699722D01*
X129628532Y-112695436D01*
X129571452Y-112602653D01*
X129570548Y-112601160D01*
X129568068Y-112596496D01*
X129565569Y-112591951D01*
X129517819Y-112494050D01*
X129517815Y-112494042D01*
X129517811Y-112494033D01*
X129517061Y-112492468D01*
X129515072Y-112487641D01*
X129513004Y-112482817D01*
X129475032Y-112380714D01*
X129474435Y-112379074D01*
X129472923Y-112374067D01*
X129471339Y-112369073D01*
X129443512Y-112263753D01*
X129443078Y-112262063D01*
X129442058Y-112256910D01*
X129440973Y-112251806D01*
X129423557Y-112144273D01*
X129423290Y-112142548D01*
X129422778Y-112137324D01*
X129422196Y-112132137D01*
X129415356Y-112023417D01*
X129415258Y-112021674D01*
X129415258Y-112019053D01*
X129415112Y-112016443D01*
X129415003Y-112000876D01*
X129415003Y-111999131D01*
X129415684Y-111986936D01*
G37*
%TD.AperFunction*%
D23*
%TO.P,J2,A12*%
X129540000Y-105600000D03*
%TO.P,J2,A4*%
%TO.N,VBUS*%
X129540000Y-111200000D03*
%TO.P,J2,B12*%
%TO.N,GND*%
X129540000Y-112000000D03*
%TO.P,J2,B4*%
%TO.N,VBUS*%
X129540000Y-106400000D03*
D24*
%TO.P,J2,S1*%
%TO.N,GND*%
X134310000Y-104475000D03*
X134310000Y-113125000D03*
D25*
X130130000Y-104475000D03*
X130130000Y-113125000D03*
D26*
%TO.P,J2,A7*%
%TO.N,D-*%
X129540000Y-108550000D03*
%TO.P,J2,A6*%
%TO.N,D+*%
X129540000Y-109050000D03*
%TO.P,J2,B6*%
X129540000Y-108050000D03*
%TO.P,J2,B7*%
%TO.N,D-*%
X129540000Y-109550000D03*
%TO.P,J2,A8*%
%TO.N,Net-(J2-PadA8)*%
X129540000Y-107550000D03*
%TO.P,J2,A5*%
%TO.N,Net-(J2-PadA5)*%
X129540000Y-110050000D03*
%TO.P,J2,B5*%
%TO.N,Net-(J2-PadB5)*%
X129540000Y-107050000D03*
%TO.P,J2,B8*%
%TO.N,Net-(J2-PadB8)*%
X129540000Y-110550000D03*
D23*
%TO.P,J2,A9*%
%TO.N,VBUS*%
X129540000Y-106400000D03*
%TO.P,J2,B9*%
X129540000Y-111200000D03*
%TO.P,J2,B1*%
%TO.N,GND*%
X129540000Y-105600000D03*
D27*
%TO.P,J2,S1*%
X130610000Y-105910000D03*
X130610000Y-111690000D03*
D23*
%TO.P,J2,A1*%
X129540000Y-112000000D03*
%TD*%
D28*
%TO.N,D+*%
X128519703Y-114503639D03*
X123771139Y-108495820D03*
X124149989Y-107045328D03*
%TO.N,GND*%
X127600000Y-105700000D03*
X135099978Y-120500000D03*
X132800000Y-99700030D03*
X122300000Y-104750000D03*
X127226387Y-111794989D03*
%TO.N,+3V3*%
X133600000Y-119049998D03*
X127286978Y-99875040D03*
X126377202Y-103844989D03*
X123141455Y-107028561D03*
%TO.N,VBUS*%
X121814548Y-119521922D03*
X122051010Y-110343668D03*
%TO.N,IO5*%
X118401719Y-115322374D03*
%TO.N,IO1*%
X131778655Y-115834669D03*
%TO.N,O*%
X120352293Y-115354983D03*
%TO.N,I*%
X121968383Y-113383477D03*
%TO.N,USB3.3*%
X126200167Y-111426825D03*
X122225010Y-115804988D03*
%TO.N,Net-(D1-Pad1)*%
X130902438Y-102367727D03*
%TO.N,DC*%
X132200000Y-113700000D03*
X120874990Y-125959617D03*
X128611362Y-103901463D03*
%TO.N,Net-(Q1-Pad5)*%
X122226530Y-108689965D03*
%TO.N,Net-(Q1-Pad4)*%
X120625986Y-113454961D03*
%TO.N,ADCON*%
X129789783Y-100942016D03*
X122267753Y-107657454D03*
%TO.N,ADC*%
X129900000Y-102400000D03*
%TO.N,CHARGER*%
X121363164Y-111069540D03*
%TO.N,USB*%
X121866807Y-111933466D03*
%TD*%
D29*
%TO.N,D+*%
X128398342Y-114625000D02*
X128519703Y-114503639D01*
X127325000Y-114625000D02*
X128398342Y-114625000D01*
X128386390Y-109049979D02*
X127936379Y-108599968D01*
X129539979Y-109049979D02*
X128386390Y-109049979D01*
X129540000Y-109050000D02*
X129539979Y-109049979D01*
X127936379Y-108599968D02*
X124999968Y-108599968D01*
X124999968Y-108599968D02*
X124300032Y-108599968D01*
X124999968Y-108599968D02*
X123875287Y-108599968D01*
X123875287Y-108599968D02*
X123771139Y-108495820D01*
X129540000Y-108050000D02*
X128850000Y-108050000D01*
X128425720Y-107625720D02*
X124730381Y-107625720D01*
X128850000Y-108050000D02*
X128425720Y-107625720D01*
X124730381Y-107625720D02*
X124149989Y-107045328D01*
%TO.N,GND*%
X125325000Y-112625000D02*
X125325000Y-114500000D01*
X124825000Y-115250000D02*
X125450000Y-114625000D01*
X124825000Y-116625000D02*
X124825000Y-115250000D01*
X126450000Y-115625000D02*
X125450000Y-114625000D01*
X127325000Y-115625000D02*
X126450000Y-115625000D01*
X125325000Y-114750000D02*
X125450000Y-114625000D01*
X125325000Y-116625000D02*
X125325000Y-114750000D01*
X125825000Y-115000000D02*
X125450000Y-114625000D01*
X125825000Y-116625000D02*
X125825000Y-115000000D01*
X126325000Y-115500000D02*
X125450000Y-114625000D01*
X126325000Y-116625000D02*
X126325000Y-115500000D01*
X133045000Y-120500000D02*
X135099978Y-120500000D01*
X134900000Y-120300022D02*
X135099978Y-120500000D01*
X134900000Y-117800000D02*
X134900000Y-120300022D01*
D30*
X127500000Y-105800000D02*
X127600000Y-105700000D01*
X126675000Y-106625000D02*
X127600000Y-105700000D01*
X126675000Y-106800000D02*
X126675000Y-106625000D01*
D29*
X132000000Y-126400000D02*
X132000000Y-126700000D01*
X132000000Y-126700000D02*
X131700000Y-127000000D01*
X132600000Y-125800000D02*
X132000000Y-126400000D01*
X134000000Y-125800000D02*
X132600000Y-125800000D01*
X118814998Y-111300000D02*
X118814998Y-111214998D01*
X118814998Y-111214998D02*
X118524999Y-110924999D01*
X124200000Y-124400000D02*
X124200000Y-121700000D01*
X126700000Y-124400000D02*
X126700000Y-121700000D01*
X124200000Y-124400000D02*
X126700000Y-124400000D01*
X129300000Y-124400000D02*
X129269990Y-124369990D01*
X129269990Y-124369990D02*
X129269990Y-121730010D01*
X126700000Y-124400000D02*
X129300000Y-124400000D01*
X119600000Y-111300000D02*
X119700000Y-111400000D01*
X118814998Y-111300000D02*
X119600000Y-111300000D01*
X119700000Y-111400000D02*
X119700000Y-112250000D01*
D30*
X119575000Y-107700000D02*
X119575000Y-107525000D01*
X119575000Y-107700000D02*
X119549998Y-107700000D01*
D29*
X118524999Y-109689999D02*
X118524999Y-111010001D01*
X118524999Y-111010001D02*
X118814998Y-111300000D01*
X118574999Y-109639999D02*
X118524999Y-109689999D01*
X118574999Y-109374999D02*
X118574999Y-109639999D01*
D30*
X126900000Y-105800000D02*
X127500000Y-105800000D01*
D29*
X127500000Y-101075000D02*
X127500000Y-100800000D01*
X133350000Y-100250030D02*
X133350000Y-100900000D01*
X132800000Y-99700030D02*
X133350000Y-100250030D01*
X121600000Y-124400000D02*
X124200000Y-124400000D01*
X131700000Y-127000000D02*
X121600000Y-127000000D01*
X121600000Y-124400000D02*
X121600000Y-127000000D01*
X127325001Y-103767479D02*
X127325001Y-105374999D01*
X127500000Y-101075000D02*
X126699990Y-101875010D01*
X126699990Y-101875010D02*
X126699990Y-103142468D01*
X127325001Y-105374999D02*
X126900000Y-105800000D01*
X126699990Y-103142468D02*
X127325001Y-103767479D01*
D30*
X123637500Y-104750000D02*
X123687500Y-104800000D01*
X122300000Y-104750000D02*
X123637500Y-104750000D01*
D29*
X123237500Y-110300000D02*
X123629490Y-110300000D01*
X118199991Y-114072813D02*
X118199991Y-111915007D01*
X118199991Y-111915007D02*
X118814998Y-111300000D01*
X119975010Y-118488120D02*
X119975010Y-117111880D01*
X119975010Y-117111880D02*
X119177200Y-116314070D01*
X118300000Y-123776090D02*
X118300000Y-120163130D01*
X119177200Y-115050022D02*
X118199991Y-114072813D01*
X119177200Y-116314070D02*
X119177200Y-115050022D01*
X118300000Y-120163130D02*
X119975010Y-118488120D01*
X121600000Y-124400000D02*
X118923910Y-124400000D01*
X118923910Y-124400000D02*
X118300000Y-123776090D01*
X127500000Y-101075000D02*
X127500000Y-100748882D01*
X130892489Y-99449989D02*
X132549959Y-99449989D01*
X132549959Y-99449989D02*
X132800000Y-99700030D01*
X130125464Y-100217014D02*
X130892489Y-99449989D01*
X128031868Y-100217014D02*
X130125464Y-100217014D01*
X127500000Y-100748882D02*
X128031868Y-100217014D01*
X126675000Y-110875000D02*
X127226387Y-111426387D01*
X127226387Y-111426387D02*
X127226387Y-111794989D01*
X126675000Y-110400000D02*
X126675000Y-110875000D01*
X126675000Y-109825000D02*
X126349989Y-109499989D01*
X126675000Y-110300000D02*
X126675000Y-109825000D01*
X125190011Y-109499989D02*
X125190010Y-109499990D01*
X124429500Y-109499990D02*
X125190010Y-109499990D01*
X124004170Y-109670830D02*
X123325000Y-110350000D01*
X124258659Y-109670830D02*
X124004170Y-109670830D01*
X124429500Y-109499989D02*
X124258659Y-109670830D01*
X126080011Y-109499989D02*
X124429500Y-109499989D01*
X126080011Y-109499989D02*
X125190011Y-109499989D01*
X126349989Y-109499989D02*
X126080011Y-109499989D01*
%TO.N,D-*%
X127599990Y-110650010D02*
X127599990Y-110350010D01*
X127873022Y-114125000D02*
X127325000Y-114125000D01*
X128150010Y-111442488D02*
X128150010Y-113848012D01*
X127599990Y-110892468D02*
X128150010Y-111442488D01*
X128150010Y-113848012D02*
X127873022Y-114125000D01*
X127599990Y-110350010D02*
X127599990Y-110892468D01*
X127599990Y-109807532D02*
X127599990Y-110129990D01*
X128742468Y-109499990D02*
X127907532Y-109499990D01*
X128792478Y-109550000D02*
X128742468Y-109499990D01*
X129540000Y-109550000D02*
X128792478Y-109550000D01*
X127599990Y-110350010D02*
X127599990Y-110129990D01*
X127907532Y-109499990D02*
X127599990Y-109807532D01*
X128713590Y-108550000D02*
X129540000Y-108550000D01*
X128302091Y-108138501D02*
X128713590Y-108550000D01*
X122951531Y-108068469D02*
X123249181Y-107770819D01*
X123249181Y-107770819D02*
X124119140Y-107770819D01*
X122951531Y-108881531D02*
X122951531Y-108068469D01*
X124486822Y-108138501D02*
X128302091Y-108138501D01*
X127649979Y-109049979D02*
X124243100Y-109049979D01*
X124119140Y-107770819D02*
X124486822Y-108138501D01*
X123290821Y-109220821D02*
X122951531Y-108881531D01*
X124072258Y-109220821D02*
X123290821Y-109220821D01*
X124243100Y-109049979D02*
X124072258Y-109220821D01*
X127907532Y-109307532D02*
X127649979Y-109049979D01*
X127907532Y-109499990D02*
X127907532Y-109307532D01*
%TO.N,+3V3*%
X122970000Y-125812500D02*
X125470000Y-125812500D01*
X125470000Y-125812500D02*
X127970000Y-125812500D01*
X130470000Y-125812500D02*
X127970000Y-125812500D01*
X130470000Y-125812500D02*
X131670010Y-124612490D01*
X131670010Y-121329990D02*
X131869999Y-121130001D01*
X131869999Y-121130001D02*
X131869999Y-119389999D01*
X131670010Y-124612490D02*
X131670010Y-121329990D01*
X132210000Y-119049998D02*
X131869999Y-119389999D01*
X133600000Y-119049998D02*
X132210000Y-119049998D01*
X125450000Y-101700000D02*
X127274960Y-99875040D01*
X127274960Y-99875040D02*
X127286978Y-99875040D01*
X127762018Y-99400000D02*
X127286978Y-99875040D01*
X128075000Y-99400000D02*
X127762018Y-99400000D01*
X125450000Y-102528889D02*
X125450000Y-101700000D01*
X126377202Y-103456091D02*
X125450000Y-102528889D01*
X126377202Y-103844989D02*
X126377202Y-103456091D01*
X122916881Y-106803987D02*
X123141455Y-107028561D01*
X120903535Y-106803987D02*
X122916881Y-106803987D01*
X121225000Y-108900000D02*
X120825000Y-108900000D01*
X120499990Y-107207532D02*
X120903535Y-106803987D01*
X120825000Y-108900000D02*
X120499990Y-108574990D01*
X120499990Y-108574990D02*
X120499990Y-107207532D01*
%TO.N,VBUS*%
X129540000Y-106400000D02*
X130200000Y-106400000D01*
X130200000Y-106400000D02*
X130500000Y-106700000D01*
X130195002Y-111200000D02*
X129540000Y-111200000D01*
X130500000Y-110895002D02*
X130195002Y-111200000D01*
X130500000Y-106700000D02*
X130500000Y-110895002D01*
X128644999Y-111275001D02*
X128720000Y-111200000D01*
X130300000Y-115256002D02*
X130356002Y-115200000D01*
X130243998Y-115200000D02*
X128644999Y-113601001D01*
X128644999Y-113601001D02*
X128644999Y-111275001D01*
X130356002Y-115200000D02*
X130243998Y-115200000D01*
X128720000Y-111200000D02*
X129540000Y-111200000D01*
X130300000Y-115400000D02*
X130300000Y-115256002D01*
X130128640Y-115228640D02*
X130300000Y-115400000D01*
X128271360Y-115228640D02*
X130128640Y-115228640D01*
X128200000Y-116769002D02*
X128200000Y-115300000D01*
X121814548Y-119521922D02*
X122214547Y-119121923D01*
X125015499Y-117484501D02*
X127484501Y-117484501D01*
X128200000Y-115300000D02*
X128271360Y-115228640D01*
X122525000Y-117775000D02*
X124725000Y-117775000D01*
X122425000Y-117875000D02*
X122525000Y-117775000D01*
X127484501Y-117484501D02*
X128200000Y-116769002D01*
X122425000Y-118725000D02*
X122425000Y-117875000D01*
X122214547Y-118935453D02*
X122425000Y-118725000D01*
X124725000Y-117775000D02*
X125015499Y-117484501D01*
X122214547Y-119121923D02*
X122214547Y-118935453D01*
X122877321Y-111169979D02*
X122051010Y-110343668D01*
X125825000Y-112076978D02*
X124918001Y-111169979D01*
X125825000Y-112625000D02*
X125825000Y-112076978D01*
X124918001Y-111169979D02*
X122877321Y-111169979D01*
%TO.N,IO5*%
X118401719Y-117064219D02*
X118401719Y-115322374D01*
X119137500Y-117800000D02*
X118401719Y-117064219D01*
%TO.N,IO4*%
X122970000Y-120585000D02*
X122885000Y-120500000D01*
X122970000Y-122887500D02*
X122970000Y-120585000D01*
%TO.N,IO3*%
X125470000Y-120545000D02*
X125425000Y-120500000D01*
X125470000Y-122887500D02*
X125470000Y-120545000D01*
%TO.N,IO2*%
X127970000Y-120505000D02*
X127965000Y-120500000D01*
X127970000Y-122887500D02*
X127970000Y-120505000D01*
%TO.N,IO1*%
X130470000Y-120535000D02*
X130505000Y-120500000D01*
X130470000Y-122887500D02*
X130470000Y-120535000D01*
X131975000Y-116031014D02*
X131975000Y-117800000D01*
X131975000Y-116031014D02*
X131778655Y-115834669D01*
X130505000Y-120118587D02*
X130505000Y-120500000D01*
X131975000Y-118648587D02*
X130505000Y-120118587D01*
X131975000Y-117800000D02*
X131975000Y-118648587D01*
%TO.N,O*%
X120352293Y-115354983D02*
X121254983Y-115354983D01*
X123174733Y-117324989D02*
X122379737Y-116529993D01*
X123625011Y-117324989D02*
X123174733Y-117324989D01*
X121254983Y-115354983D02*
X121500000Y-115600000D01*
X121500000Y-115600000D02*
X121500000Y-116300000D01*
X121729993Y-116529993D02*
X121500000Y-116300000D01*
X122379737Y-116529993D02*
X121729993Y-116529993D01*
X124325000Y-116625000D02*
X124325000Y-117275000D01*
X124325000Y-117275000D02*
X124300000Y-117300000D01*
X123650000Y-117300000D02*
X123625011Y-117324989D01*
X124300000Y-117300000D02*
X123650000Y-117300000D01*
%TO.N,I*%
X122776978Y-114125000D02*
X122035455Y-113383477D01*
X122035455Y-113383477D02*
X121968383Y-113383477D01*
X123325000Y-114125000D02*
X122776978Y-114125000D01*
%TO.N,EN*%
X119050000Y-112250000D02*
X119050000Y-113655116D01*
X120024866Y-114629982D02*
X122009138Y-114629982D01*
X122009138Y-114629982D02*
X122504156Y-115125000D01*
X119050000Y-113655116D02*
X120024866Y-114629982D01*
X122504156Y-115125000D02*
X123325000Y-115125000D01*
%TO.N,Net-(J2-PadA5)*%
X129540000Y-110050000D02*
X128375000Y-110050000D01*
%TO.N,Net-(J2-PadB5)*%
X128375000Y-107050000D02*
X128125000Y-106800000D01*
X129540000Y-107050000D02*
X128375000Y-107050000D01*
%TO.N,Net-(J1-Pad6)*%
X119700000Y-121145000D02*
X120345000Y-120500000D01*
X119700000Y-123437500D02*
X119700000Y-121145000D01*
X121262500Y-117800000D02*
X121262500Y-118380419D01*
X120345000Y-119297919D02*
X120345000Y-120500000D01*
X121262500Y-118380419D02*
X120345000Y-119297919D01*
%TO.N,GPIO0*%
X122195538Y-114179971D02*
X120275718Y-114179971D01*
X120350000Y-112670117D02*
X120350000Y-112250000D01*
X119900976Y-113119141D02*
X120350000Y-112670117D01*
X122640567Y-114625000D02*
X122195538Y-114179971D01*
X123325000Y-114625000D02*
X122640567Y-114625000D01*
X119900976Y-113805229D02*
X119900976Y-113119141D01*
X120275718Y-114179971D02*
X119900976Y-113805229D01*
%TO.N,USB3.3*%
X126325000Y-111662500D02*
X126325000Y-112625000D01*
X124962500Y-110300000D02*
X125345791Y-110300000D01*
X126325000Y-111279209D02*
X126325000Y-111662500D01*
X126325000Y-111662500D02*
X126200167Y-111537667D01*
X126200167Y-111537667D02*
X126200167Y-111426825D01*
X125345791Y-110300000D02*
X126325000Y-111279209D01*
X122404998Y-115625000D02*
X122225010Y-115804988D01*
X123325000Y-115625000D02*
X122404998Y-115625000D01*
X126325000Y-112625000D02*
X126325000Y-113125000D01*
X126825000Y-113625000D02*
X127325000Y-113625000D01*
X126325000Y-113125000D02*
X126825000Y-113625000D01*
%TO.N,Net-(D1-Pad2)*%
X130149990Y-98975010D02*
X133587510Y-98975010D01*
X129725000Y-99400000D02*
X130149990Y-98975010D01*
X133587510Y-98975010D02*
X133912500Y-99300000D01*
%TO.N,Net-(D1-Pad1)*%
X134200000Y-100587500D02*
X134200000Y-101563590D01*
X133968602Y-101794988D02*
X131475177Y-101794988D01*
X135487500Y-99300000D02*
X134200000Y-100587500D01*
X134200000Y-101563590D02*
X133968602Y-101794988D01*
X131475177Y-101794988D02*
X130902438Y-102367727D01*
%TO.N,DC*%
X133362510Y-114940173D02*
X133263385Y-114841048D01*
X133100000Y-114600000D02*
X132200000Y-113700000D01*
X133100000Y-115400000D02*
X133100000Y-114600000D01*
X135824990Y-120151986D02*
X135824990Y-121435010D01*
X135787510Y-120114506D02*
X135824990Y-120151986D01*
X135600000Y-116500000D02*
X135787510Y-116687510D01*
X135787510Y-116687510D02*
X135787510Y-120114506D01*
X134000000Y-116500000D02*
X135600000Y-116500000D01*
X133100000Y-115600000D02*
X134000000Y-116500000D01*
X135824990Y-121435010D02*
X134000000Y-123260000D01*
X133100000Y-115400000D02*
X133100000Y-115600000D01*
X135175000Y-100950000D02*
X135300000Y-101075000D01*
X135300000Y-101075000D02*
X135300000Y-101250000D01*
X134650010Y-101649990D02*
X134650009Y-101749991D01*
X135300000Y-101075000D02*
X135225000Y-101075000D01*
X135225000Y-101075000D02*
X134650010Y-101649990D01*
X134650009Y-101749991D02*
X134155001Y-102244999D01*
X134155001Y-102244999D02*
X131914999Y-102244999D01*
X119700000Y-125812500D02*
X120727873Y-125812500D01*
X120727873Y-125812500D02*
X120874990Y-125959617D01*
X119100000Y-103000000D02*
X120050000Y-103000000D01*
X119137500Y-125250000D02*
X119700000Y-125812500D01*
X117700000Y-105500000D02*
X117700000Y-114951089D01*
X117700000Y-114951089D02*
X117676717Y-114974372D01*
X117676717Y-114974372D02*
X117676717Y-115670376D01*
X118950000Y-104250000D02*
X117700000Y-105500000D01*
X117695545Y-115689204D02*
X117695545Y-123808045D01*
X117676717Y-115670376D02*
X117695545Y-115689204D01*
X117695545Y-123808045D02*
X119137500Y-125250000D01*
X131750000Y-102409998D02*
X131750000Y-102950000D01*
X131914999Y-102244999D02*
X131750000Y-102409998D01*
X128611362Y-103901463D02*
X128775537Y-103901463D01*
X128775537Y-103901463D02*
X129501989Y-103175011D01*
X129811409Y-103125002D02*
X131574998Y-103125002D01*
X129501989Y-103175011D02*
X129761400Y-103175011D01*
X129761400Y-103175011D02*
X129811409Y-103125002D01*
X131574998Y-103125002D02*
X131750000Y-102950000D01*
%TO.N,Net-(Q1-Pad5)*%
X119050000Y-110350000D02*
X119575000Y-109825000D01*
X119575000Y-109825000D02*
X119575000Y-108900000D01*
X119575000Y-108900000D02*
X120007522Y-108900000D01*
X120007522Y-108900000D02*
X120807532Y-109700010D01*
X120807532Y-109700010D02*
X121642468Y-109700010D01*
X121642468Y-109700010D02*
X122226530Y-109115948D01*
X122226530Y-109115948D02*
X122226530Y-108689965D01*
%TO.N,Net-(Q1-Pad4)*%
X120350000Y-111173483D02*
X121025985Y-111849468D01*
X120350000Y-110350000D02*
X120350000Y-111173483D01*
X121025985Y-111849468D02*
X121025985Y-113054962D01*
X121025985Y-113054962D02*
X120625986Y-113454961D01*
%TO.N,Net-(R12-Pad1)*%
X128700000Y-101075000D02*
X129075000Y-101075000D01*
X129299998Y-101674998D02*
X128700000Y-101075000D01*
X131750000Y-101050000D02*
X131300000Y-101050000D01*
X130675002Y-101674998D02*
X129299998Y-101674998D01*
X131300000Y-101050000D02*
X130675002Y-101674998D01*
%TO.N,ADCON*%
X131890002Y-99900000D02*
X132400000Y-100409998D01*
X132400000Y-100409998D02*
X132400000Y-100900000D01*
X130036873Y-100942016D02*
X129789783Y-100942016D01*
X131078889Y-99900000D02*
X130036873Y-100942016D01*
X131078889Y-99900000D02*
X131890002Y-99900000D01*
X121225000Y-107700000D02*
X122225207Y-107700000D01*
X122225207Y-107700000D02*
X122267753Y-107657454D01*
%TO.N,ADC*%
X127500000Y-102725000D02*
X128700000Y-102725000D01*
X129575000Y-102725000D02*
X129900000Y-102400000D01*
X128700000Y-102725000D02*
X129575000Y-102725000D01*
%TO.N,Net-(R14-Pad1)*%
X132400000Y-102950000D02*
X133050000Y-102950000D01*
X135075000Y-102950000D02*
X135300000Y-102725000D01*
X133050000Y-102950000D02*
X135075000Y-102950000D01*
%TO.N,CHARGER*%
X124825000Y-111988590D02*
X124456400Y-111619990D01*
X124456400Y-111619990D02*
X122588069Y-111619990D01*
X122588069Y-111619990D02*
X122037619Y-111069540D01*
X122037619Y-111069540D02*
X121363164Y-111069540D01*
X124825000Y-112625000D02*
X124825000Y-111988590D01*
%TO.N,USB*%
X122003340Y-112069999D02*
X121866807Y-111933466D01*
X124269999Y-112069999D02*
X122003340Y-112069999D01*
X124325000Y-112125000D02*
X124269999Y-112069999D01*
X124325000Y-112625000D02*
X124325000Y-112125000D01*
%TD*%
D31*
%TO.N,GND*%
X118231614Y-107138405D02*
X118385150Y-107220472D01*
X118537605Y-107266718D01*
X118540000Y-107414250D01*
X118698750Y-107573000D01*
X119448000Y-107573000D01*
X119448000Y-107553000D01*
X119702000Y-107553000D01*
X119702000Y-107573000D01*
X119722000Y-107573000D01*
X119722000Y-107827000D01*
X119702000Y-107827000D01*
X119702000Y-107847000D01*
X119448000Y-107847000D01*
X119448000Y-107827000D01*
X118698750Y-107827000D01*
X118540000Y-107985750D01*
X118536928Y-108175000D01*
X118549188Y-108299482D01*
X118585498Y-108419180D01*
X118644463Y-108529494D01*
X118723815Y-108626185D01*
X118796176Y-108685570D01*
X118796176Y-109175000D01*
X118807298Y-109287923D01*
X118840236Y-109396506D01*
X118893725Y-109496577D01*
X118954947Y-109571176D01*
X118850000Y-109571176D01*
X118776095Y-109578455D01*
X118705030Y-109600012D01*
X118639537Y-109635019D01*
X118582131Y-109682131D01*
X118535019Y-109739537D01*
X118500012Y-109805030D01*
X118478455Y-109876095D01*
X118471176Y-109950000D01*
X118471176Y-110750000D01*
X118478455Y-110823905D01*
X118500012Y-110894970D01*
X118535019Y-110960463D01*
X118582131Y-111017869D01*
X118639537Y-111064981D01*
X118705030Y-111099988D01*
X118776095Y-111121545D01*
X118850000Y-111128824D01*
X119250000Y-111128824D01*
X119323905Y-111121545D01*
X119394970Y-111099988D01*
X119460463Y-111064981D01*
X119517869Y-111017869D01*
X119564981Y-110960463D01*
X119599988Y-110894970D01*
X119621545Y-110823905D01*
X119628824Y-110750000D01*
X119628824Y-110481110D01*
X119771176Y-110338759D01*
X119771176Y-110750000D01*
X119778455Y-110823905D01*
X119800012Y-110894970D01*
X119835019Y-110960463D01*
X119848001Y-110976281D01*
X119848001Y-111148831D01*
X119845573Y-111173483D01*
X119855265Y-111271892D01*
X119859825Y-111286925D01*
X119773000Y-111373750D01*
X119773000Y-111831481D01*
X119771176Y-111850000D01*
X119771176Y-112397000D01*
X119628824Y-112397000D01*
X119628824Y-111850000D01*
X119627000Y-111831481D01*
X119627000Y-111373750D01*
X119468250Y-111215000D01*
X119361706Y-111227095D01*
X119242840Y-111266044D01*
X119133857Y-111327434D01*
X119038945Y-111408906D01*
X118990106Y-111471176D01*
X118850000Y-111471176D01*
X118776095Y-111478455D01*
X118705030Y-111500012D01*
X118639537Y-111535019D01*
X118582131Y-111582131D01*
X118535019Y-111639537D01*
X118500012Y-111705030D01*
X118478455Y-111776095D01*
X118471176Y-111850000D01*
X118471176Y-112650000D01*
X118478455Y-112723905D01*
X118500012Y-112794970D01*
X118535019Y-112860463D01*
X118548000Y-112876281D01*
X118548001Y-113630463D01*
X118545573Y-113655116D01*
X118555265Y-113753525D01*
X118583970Y-113848152D01*
X118630584Y-113935361D01*
X118677601Y-113992651D01*
X118677604Y-113992654D01*
X118693317Y-114011800D01*
X118712463Y-114027513D01*
X119652473Y-114967525D01*
X119665824Y-114983793D01*
X119663724Y-114986935D01*
X119605152Y-115128340D01*
X119575293Y-115278455D01*
X119575293Y-115431511D01*
X119605152Y-115581626D01*
X119663724Y-115723031D01*
X119748757Y-115850292D01*
X119856984Y-115958519D01*
X119984245Y-116043552D01*
X120125650Y-116102124D01*
X120275765Y-116131983D01*
X120428821Y-116131983D01*
X120578936Y-116102124D01*
X120720341Y-116043552D01*
X120847602Y-115958519D01*
X120949138Y-115856983D01*
X120998000Y-115856983D01*
X120998001Y-116275348D01*
X120995573Y-116300000D01*
X121005265Y-116398409D01*
X121033970Y-116493036D01*
X121069986Y-116560418D01*
X120959205Y-116594023D01*
X120850533Y-116652110D01*
X120766376Y-116721176D01*
X120700100Y-116721176D01*
X120577403Y-116733261D01*
X120459421Y-116769050D01*
X120350689Y-116827169D01*
X120255384Y-116905384D01*
X120177169Y-117000689D01*
X120119050Y-117109421D01*
X120083261Y-117227403D01*
X120071176Y-117350100D01*
X120071176Y-118249900D01*
X120083261Y-118372597D01*
X120119050Y-118490579D01*
X120177169Y-118599311D01*
X120247714Y-118685270D01*
X120007467Y-118925518D01*
X119988316Y-118941235D01*
X119925583Y-119017674D01*
X119878969Y-119104884D01*
X119850264Y-119199511D01*
X119843000Y-119273267D01*
X119843000Y-119273276D01*
X119840573Y-119297919D01*
X119843000Y-119322562D01*
X119843000Y-119379840D01*
X119763798Y-119412647D01*
X119562833Y-119546927D01*
X119391927Y-119717833D01*
X119257647Y-119918798D01*
X119165153Y-120142097D01*
X119118000Y-120379151D01*
X119118000Y-120620849D01*
X119165153Y-120857903D01*
X119221349Y-120993571D01*
X119205265Y-121046591D01*
X119195573Y-121145000D01*
X119198001Y-121169653D01*
X119198001Y-121946176D01*
X119074750Y-121946176D01*
X118952121Y-121958254D01*
X118834205Y-121994023D01*
X118725533Y-122052110D01*
X118630281Y-122130281D01*
X118552110Y-122225533D01*
X118494023Y-122334205D01*
X118458254Y-122452121D01*
X118446176Y-122574750D01*
X118446176Y-123200250D01*
X118458254Y-123322879D01*
X118494023Y-123440795D01*
X118552110Y-123549467D01*
X118621176Y-123633624D01*
X118621176Y-123699900D01*
X118633261Y-123822597D01*
X118669050Y-123940579D01*
X118727169Y-124049311D01*
X118805384Y-124144616D01*
X118900689Y-124222831D01*
X119009421Y-124280950D01*
X119127403Y-124316739D01*
X119250100Y-124328824D01*
X120149900Y-124328824D01*
X120272597Y-124316739D01*
X120390579Y-124280950D01*
X120499311Y-124222831D01*
X120594616Y-124144616D01*
X120672831Y-124049311D01*
X120730950Y-123940579D01*
X120766739Y-123822597D01*
X120778824Y-123699900D01*
X120778824Y-123633624D01*
X120847890Y-123549467D01*
X120905977Y-123440795D01*
X120941746Y-123322879D01*
X120953824Y-123200250D01*
X120953824Y-122574750D01*
X120941746Y-122452121D01*
X120905977Y-122334205D01*
X120847890Y-122225533D01*
X120769719Y-122130281D01*
X120674467Y-122052110D01*
X120565795Y-121994023D01*
X120447879Y-121958254D01*
X120325250Y-121946176D01*
X120202000Y-121946176D01*
X120202000Y-121722594D01*
X120224151Y-121727000D01*
X120465849Y-121727000D01*
X120702903Y-121679847D01*
X120926202Y-121587353D01*
X121127167Y-121453073D01*
X121298073Y-121282167D01*
X121432353Y-121081202D01*
X121524847Y-120857903D01*
X121572000Y-120620849D01*
X121572000Y-120379151D01*
X121546708Y-120251999D01*
X121587905Y-120269063D01*
X121676397Y-120286665D01*
X121658000Y-120379151D01*
X121658000Y-120620849D01*
X121705153Y-120857903D01*
X121797647Y-121081202D01*
X121931927Y-121282167D01*
X122102833Y-121453073D01*
X122303798Y-121587353D01*
X122468001Y-121655368D01*
X122468000Y-121946176D01*
X122344750Y-121946176D01*
X122222121Y-121958254D01*
X122104205Y-121994023D01*
X121995533Y-122052110D01*
X121900281Y-122130281D01*
X121822110Y-122225533D01*
X121764023Y-122334205D01*
X121728254Y-122452121D01*
X121716176Y-122574750D01*
X121716176Y-123200250D01*
X121728254Y-123322879D01*
X121764023Y-123440795D01*
X121822110Y-123549467D01*
X121891176Y-123633624D01*
X121891176Y-123699900D01*
X121903261Y-123822597D01*
X121939050Y-123940579D01*
X121997169Y-124049311D01*
X122075384Y-124144616D01*
X122170689Y-124222831D01*
X122279421Y-124280950D01*
X122397403Y-124316739D01*
X122520100Y-124328824D01*
X123419900Y-124328824D01*
X123542597Y-124316739D01*
X123660579Y-124280950D01*
X123769311Y-124222831D01*
X123864616Y-124144616D01*
X123942831Y-124049311D01*
X124000950Y-123940579D01*
X124036739Y-123822597D01*
X124048824Y-123699900D01*
X124048824Y-123633624D01*
X124117890Y-123549467D01*
X124175977Y-123440795D01*
X124211746Y-123322879D01*
X124220000Y-123239075D01*
X124228254Y-123322879D01*
X124264023Y-123440795D01*
X124322110Y-123549467D01*
X124391176Y-123633624D01*
X124391176Y-123699900D01*
X124403261Y-123822597D01*
X124439050Y-123940579D01*
X124497169Y-124049311D01*
X124575384Y-124144616D01*
X124670689Y-124222831D01*
X124779421Y-124280950D01*
X124897403Y-124316739D01*
X125020100Y-124328824D01*
X125919900Y-124328824D01*
X126042597Y-124316739D01*
X126160579Y-124280950D01*
X126269311Y-124222831D01*
X126364616Y-124144616D01*
X126442831Y-124049311D01*
X126500950Y-123940579D01*
X126536739Y-123822597D01*
X126548824Y-123699900D01*
X126548824Y-123633624D01*
X126617890Y-123549467D01*
X126675977Y-123440795D01*
X126711746Y-123322879D01*
X126720000Y-123239075D01*
X126728254Y-123322879D01*
X126764023Y-123440795D01*
X126822110Y-123549467D01*
X126891176Y-123633624D01*
X126891176Y-123699900D01*
X126903261Y-123822597D01*
X126939050Y-123940579D01*
X126997169Y-124049311D01*
X127075384Y-124144616D01*
X127170689Y-124222831D01*
X127279421Y-124280950D01*
X127397403Y-124316739D01*
X127520100Y-124328824D01*
X128419900Y-124328824D01*
X128542597Y-124316739D01*
X128660579Y-124280950D01*
X128769311Y-124222831D01*
X128864616Y-124144616D01*
X128942831Y-124049311D01*
X129000950Y-123940579D01*
X129036739Y-123822597D01*
X129048824Y-123699900D01*
X129048824Y-123633624D01*
X129117890Y-123549467D01*
X129175977Y-123440795D01*
X129211746Y-123322879D01*
X129220000Y-123239075D01*
X129228254Y-123322879D01*
X129264023Y-123440795D01*
X129322110Y-123549467D01*
X129391176Y-123633624D01*
X129391176Y-123699900D01*
X129403261Y-123822597D01*
X129439050Y-123940579D01*
X129497169Y-124049311D01*
X129575384Y-124144616D01*
X129670689Y-124222831D01*
X129779421Y-124280950D01*
X129897403Y-124316739D01*
X130020100Y-124328824D01*
X130919900Y-124328824D01*
X131042597Y-124316739D01*
X131160579Y-124280950D01*
X131168010Y-124276978D01*
X131168010Y-124404555D01*
X131155159Y-124417406D01*
X131042597Y-124383261D01*
X130919900Y-124371176D01*
X130020100Y-124371176D01*
X129897403Y-124383261D01*
X129779421Y-124419050D01*
X129670689Y-124477169D01*
X129575384Y-124555384D01*
X129497169Y-124650689D01*
X129439050Y-124759421D01*
X129403261Y-124877403D01*
X129391176Y-125000100D01*
X129391176Y-125066376D01*
X129322110Y-125150533D01*
X129264023Y-125259205D01*
X129248463Y-125310500D01*
X129191537Y-125310500D01*
X129175977Y-125259205D01*
X129117890Y-125150533D01*
X129048824Y-125066376D01*
X129048824Y-125000100D01*
X129036739Y-124877403D01*
X129000950Y-124759421D01*
X128942831Y-124650689D01*
X128864616Y-124555384D01*
X128769311Y-124477169D01*
X128660579Y-124419050D01*
X128542597Y-124383261D01*
X128419900Y-124371176D01*
X127520100Y-124371176D01*
X127397403Y-124383261D01*
X127279421Y-124419050D01*
X127170689Y-124477169D01*
X127075384Y-124555384D01*
X126997169Y-124650689D01*
X126939050Y-124759421D01*
X126903261Y-124877403D01*
X126891176Y-125000100D01*
X126891176Y-125066376D01*
X126822110Y-125150533D01*
X126764023Y-125259205D01*
X126748463Y-125310500D01*
X126691537Y-125310500D01*
X126675977Y-125259205D01*
X126617890Y-125150533D01*
X126548824Y-125066376D01*
X126548824Y-125000100D01*
X126536739Y-124877403D01*
X126500950Y-124759421D01*
X126442831Y-124650689D01*
X126364616Y-124555384D01*
X126269311Y-124477169D01*
X126160579Y-124419050D01*
X126042597Y-124383261D01*
X125919900Y-124371176D01*
X125020100Y-124371176D01*
X124897403Y-124383261D01*
X124779421Y-124419050D01*
X124670689Y-124477169D01*
X124575384Y-124555384D01*
X124497169Y-124650689D01*
X124439050Y-124759421D01*
X124403261Y-124877403D01*
X124391176Y-125000100D01*
X124391176Y-125066376D01*
X124322110Y-125150533D01*
X124264023Y-125259205D01*
X124248463Y-125310500D01*
X124191537Y-125310500D01*
X124175977Y-125259205D01*
X124117890Y-125150533D01*
X124048824Y-125066376D01*
X124048824Y-125000100D01*
X124036739Y-124877403D01*
X124000950Y-124759421D01*
X123942831Y-124650689D01*
X123864616Y-124555384D01*
X123769311Y-124477169D01*
X123660579Y-124419050D01*
X123542597Y-124383261D01*
X123419900Y-124371176D01*
X122520100Y-124371176D01*
X122397403Y-124383261D01*
X122279421Y-124419050D01*
X122170689Y-124477169D01*
X122075384Y-124555384D01*
X121997169Y-124650689D01*
X121939050Y-124759421D01*
X121903261Y-124877403D01*
X121891176Y-125000100D01*
X121891176Y-125066376D01*
X121822110Y-125150533D01*
X121764023Y-125259205D01*
X121728254Y-125377121D01*
X121716176Y-125499750D01*
X121716176Y-126125250D01*
X121728254Y-126247879D01*
X121764023Y-126365795D01*
X121822110Y-126474467D01*
X121900281Y-126569719D01*
X121995533Y-126647890D01*
X122104205Y-126705977D01*
X122222121Y-126741746D01*
X122344750Y-126753824D01*
X123595250Y-126753824D01*
X123717879Y-126741746D01*
X123835795Y-126705977D01*
X123944467Y-126647890D01*
X124039719Y-126569719D01*
X124117890Y-126474467D01*
X124175977Y-126365795D01*
X124191537Y-126314500D01*
X124248463Y-126314500D01*
X124264023Y-126365795D01*
X124322110Y-126474467D01*
X124400281Y-126569719D01*
X124495533Y-126647890D01*
X124604205Y-126705977D01*
X124722121Y-126741746D01*
X124844750Y-126753824D01*
X126095250Y-126753824D01*
X126217879Y-126741746D01*
X126335795Y-126705977D01*
X126444467Y-126647890D01*
X126539719Y-126569719D01*
X126617890Y-126474467D01*
X126675977Y-126365795D01*
X126691537Y-126314500D01*
X126748463Y-126314500D01*
X126764023Y-126365795D01*
X126822110Y-126474467D01*
X126900281Y-126569719D01*
X126995533Y-126647890D01*
X127104205Y-126705977D01*
X127222121Y-126741746D01*
X127344750Y-126753824D01*
X128595250Y-126753824D01*
X128717879Y-126741746D01*
X128835795Y-126705977D01*
X128944467Y-126647890D01*
X129039719Y-126569719D01*
X129117890Y-126474467D01*
X129175977Y-126365795D01*
X129191537Y-126314500D01*
X129248463Y-126314500D01*
X129264023Y-126365795D01*
X129322110Y-126474467D01*
X129400281Y-126569719D01*
X129495533Y-126647890D01*
X129604205Y-126705977D01*
X129722121Y-126741746D01*
X129844750Y-126753824D01*
X131095250Y-126753824D01*
X131217879Y-126741746D01*
X131335795Y-126705977D01*
X131444467Y-126647890D01*
X131539719Y-126569719D01*
X131617890Y-126474467D01*
X131675977Y-126365795D01*
X131711746Y-126247879D01*
X131723824Y-126125250D01*
X131723824Y-125499750D01*
X131711746Y-125377121D01*
X131689302Y-125303133D01*
X132007548Y-124984887D01*
X132026694Y-124969174D01*
X132089427Y-124892735D01*
X132136041Y-124805526D01*
X132164746Y-124710899D01*
X132172010Y-124637143D01*
X132172010Y-124637134D01*
X132174437Y-124612491D01*
X132172010Y-124587848D01*
X132172010Y-121985808D01*
X132195000Y-121988072D01*
X132759250Y-121985000D01*
X132918000Y-121826250D01*
X132918000Y-120627000D01*
X133172000Y-120627000D01*
X133172000Y-121826250D01*
X133330750Y-121985000D01*
X133895000Y-121988072D01*
X134019482Y-121975812D01*
X134139180Y-121939502D01*
X134249494Y-121880537D01*
X134346185Y-121801185D01*
X134425537Y-121704494D01*
X134484502Y-121594180D01*
X134520812Y-121474482D01*
X134533072Y-121350000D01*
X134530000Y-120785750D01*
X134371250Y-120627000D01*
X133172000Y-120627000D01*
X132918000Y-120627000D01*
X132898000Y-120627000D01*
X132898000Y-120373000D01*
X132918000Y-120373000D01*
X132918000Y-120353000D01*
X133172000Y-120353000D01*
X133172000Y-120373000D01*
X134371250Y-120373000D01*
X134530000Y-120214250D01*
X134533072Y-119650000D01*
X134520812Y-119525518D01*
X134484502Y-119405820D01*
X134434352Y-119311997D01*
X134614250Y-119310000D01*
X134773000Y-119151250D01*
X134773000Y-119136859D01*
X134862500Y-119138072D01*
X134986982Y-119125812D01*
X135027000Y-119113673D01*
X135027000Y-119151250D01*
X135185750Y-119310000D01*
X135285511Y-119311107D01*
X135285511Y-120089853D01*
X135283083Y-120114506D01*
X135292775Y-120212915D01*
X135321480Y-120307542D01*
X135322990Y-120310367D01*
X135322991Y-121227073D01*
X134437105Y-122112960D01*
X134357903Y-122080153D01*
X134120849Y-122033000D01*
X133879151Y-122033000D01*
X133642097Y-122080153D01*
X133418798Y-122172647D01*
X133217833Y-122306927D01*
X133046927Y-122477833D01*
X132912647Y-122678798D01*
X132820153Y-122902097D01*
X132773000Y-123139151D01*
X132773000Y-123380849D01*
X132820153Y-123617903D01*
X132912647Y-123841202D01*
X133046927Y-124042167D01*
X133217833Y-124213073D01*
X133367553Y-124313112D01*
X133150000Y-124311928D01*
X133025518Y-124324188D01*
X132905820Y-124360498D01*
X132795506Y-124419463D01*
X132698815Y-124498815D01*
X132619463Y-124595506D01*
X132560498Y-124705820D01*
X132524188Y-124825518D01*
X132511928Y-124950000D01*
X132515000Y-125514250D01*
X132673750Y-125673000D01*
X133873000Y-125673000D01*
X133873000Y-125653000D01*
X134127000Y-125653000D01*
X134127000Y-125673000D01*
X135326250Y-125673000D01*
X135485000Y-125514250D01*
X135488072Y-124950000D01*
X135475812Y-124825518D01*
X135439502Y-124705820D01*
X135380537Y-124595506D01*
X135301185Y-124498815D01*
X135204494Y-124419463D01*
X135094180Y-124360498D01*
X134974482Y-124324188D01*
X134850000Y-124311928D01*
X134632447Y-124313112D01*
X134782167Y-124213073D01*
X134953073Y-124042167D01*
X135087353Y-123841202D01*
X135179847Y-123617903D01*
X135227000Y-123380849D01*
X135227000Y-123139151D01*
X135179847Y-122902097D01*
X135147040Y-122822895D01*
X135773000Y-122196935D01*
X135773000Y-126579117D01*
X135760078Y-126710899D01*
X135727873Y-126817570D01*
X135675558Y-126915961D01*
X135605130Y-127002313D01*
X135519270Y-127073343D01*
X135421255Y-127126339D01*
X135314807Y-127159290D01*
X135217983Y-127169467D01*
X135301185Y-127101185D01*
X135380537Y-127004494D01*
X135439502Y-126894180D01*
X135475812Y-126774482D01*
X135488072Y-126650000D01*
X135485000Y-126085750D01*
X135326250Y-125927000D01*
X134127000Y-125927000D01*
X134127000Y-125947000D01*
X133873000Y-125947000D01*
X133873000Y-125927000D01*
X132673750Y-125927000D01*
X132515000Y-126085750D01*
X132511928Y-126650000D01*
X132524188Y-126774482D01*
X132560498Y-126894180D01*
X132619463Y-127004494D01*
X132698815Y-127101185D01*
X132786322Y-127173000D01*
X118220883Y-127173000D01*
X118089101Y-127160078D01*
X117982430Y-127127873D01*
X117884039Y-127075558D01*
X117797687Y-127005130D01*
X117726657Y-126919270D01*
X117673661Y-126821255D01*
X117640710Y-126714807D01*
X117627000Y-126584371D01*
X117627000Y-124449434D01*
X118480698Y-125303133D01*
X118458254Y-125377121D01*
X118446176Y-125499750D01*
X118446176Y-126125250D01*
X118458254Y-126247879D01*
X118494023Y-126365795D01*
X118552110Y-126474467D01*
X118630281Y-126569719D01*
X118725533Y-126647890D01*
X118834205Y-126705977D01*
X118952121Y-126741746D01*
X119074750Y-126753824D01*
X120325250Y-126753824D01*
X120447879Y-126741746D01*
X120565795Y-126705977D01*
X120601014Y-126687152D01*
X120648347Y-126706758D01*
X120798462Y-126736617D01*
X120951518Y-126736617D01*
X121101633Y-126706758D01*
X121243038Y-126648186D01*
X121370299Y-126563153D01*
X121478526Y-126454926D01*
X121563559Y-126327665D01*
X121622131Y-126186260D01*
X121651990Y-126036145D01*
X121651990Y-125883089D01*
X121622131Y-125732974D01*
X121563559Y-125591569D01*
X121478526Y-125464308D01*
X121370299Y-125356081D01*
X121243038Y-125271048D01*
X121101633Y-125212476D01*
X120951518Y-125182617D01*
X120865039Y-125182617D01*
X120847890Y-125150533D01*
X120778824Y-125066376D01*
X120778824Y-125000100D01*
X120766739Y-124877403D01*
X120730950Y-124759421D01*
X120672831Y-124650689D01*
X120594616Y-124555384D01*
X120499311Y-124477169D01*
X120390579Y-124419050D01*
X120272597Y-124383261D01*
X120149900Y-124371176D01*
X119250100Y-124371176D01*
X119127403Y-124383261D01*
X119014841Y-124417406D01*
X118197545Y-123600111D01*
X118197545Y-119046220D01*
X118274750Y-119053824D01*
X118900250Y-119053824D01*
X119022879Y-119041746D01*
X119140795Y-119005977D01*
X119249467Y-118947890D01*
X119333624Y-118878824D01*
X119399900Y-118878824D01*
X119522597Y-118866739D01*
X119640579Y-118830950D01*
X119749311Y-118772831D01*
X119844616Y-118694616D01*
X119922831Y-118599311D01*
X119980950Y-118490579D01*
X120016739Y-118372597D01*
X120028824Y-118249900D01*
X120028824Y-117350100D01*
X120016739Y-117227403D01*
X119980950Y-117109421D01*
X119922831Y-117000689D01*
X119844616Y-116905384D01*
X119749311Y-116827169D01*
X119640579Y-116769050D01*
X119522597Y-116733261D01*
X119399900Y-116721176D01*
X119333624Y-116721176D01*
X119249467Y-116652110D01*
X119140795Y-116594023D01*
X119022879Y-116558254D01*
X118903719Y-116546518D01*
X118903719Y-115919219D01*
X119005255Y-115817683D01*
X119090288Y-115690422D01*
X119148860Y-115549017D01*
X119178719Y-115398902D01*
X119178719Y-115245846D01*
X119148860Y-115095731D01*
X119090288Y-114954326D01*
X119005255Y-114827065D01*
X118897028Y-114718838D01*
X118769767Y-114633805D01*
X118628362Y-114575233D01*
X118478247Y-114545374D01*
X118325191Y-114545374D01*
X118202000Y-114569878D01*
X118202000Y-107114102D01*
X118231614Y-107138405D01*
%TA.AperFunction,Conductor*%
D32*
G36*
X118231614Y-107138405D02*
G01*
X118385150Y-107220472D01*
X118537605Y-107266718D01*
X118540000Y-107414250D01*
X118698750Y-107573000D01*
X119448000Y-107573000D01*
X119448000Y-107553000D01*
X119702000Y-107553000D01*
X119702000Y-107573000D01*
X119722000Y-107573000D01*
X119722000Y-107827000D01*
X119702000Y-107827000D01*
X119702000Y-107847000D01*
X119448000Y-107847000D01*
X119448000Y-107827000D01*
X118698750Y-107827000D01*
X118540000Y-107985750D01*
X118536928Y-108175000D01*
X118549188Y-108299482D01*
X118585498Y-108419180D01*
X118644463Y-108529494D01*
X118723815Y-108626185D01*
X118796176Y-108685570D01*
X118796176Y-109175000D01*
X118807298Y-109287923D01*
X118840236Y-109396506D01*
X118893725Y-109496577D01*
X118954947Y-109571176D01*
X118850000Y-109571176D01*
X118776095Y-109578455D01*
X118705030Y-109600012D01*
X118639537Y-109635019D01*
X118582131Y-109682131D01*
X118535019Y-109739537D01*
X118500012Y-109805030D01*
X118478455Y-109876095D01*
X118471176Y-109950000D01*
X118471176Y-110750000D01*
X118478455Y-110823905D01*
X118500012Y-110894970D01*
X118535019Y-110960463D01*
X118582131Y-111017869D01*
X118639537Y-111064981D01*
X118705030Y-111099988D01*
X118776095Y-111121545D01*
X118850000Y-111128824D01*
X119250000Y-111128824D01*
X119323905Y-111121545D01*
X119394970Y-111099988D01*
X119460463Y-111064981D01*
X119517869Y-111017869D01*
X119564981Y-110960463D01*
X119599988Y-110894970D01*
X119621545Y-110823905D01*
X119628824Y-110750000D01*
X119628824Y-110481110D01*
X119771176Y-110338759D01*
X119771176Y-110750000D01*
X119778455Y-110823905D01*
X119800012Y-110894970D01*
X119835019Y-110960463D01*
X119848001Y-110976281D01*
X119848001Y-111148831D01*
X119845573Y-111173483D01*
X119855265Y-111271892D01*
X119859825Y-111286925D01*
X119773000Y-111373750D01*
X119773000Y-111831481D01*
X119771176Y-111850000D01*
X119771176Y-112397000D01*
X119628824Y-112397000D01*
X119628824Y-111850000D01*
X119627000Y-111831481D01*
X119627000Y-111373750D01*
X119468250Y-111215000D01*
X119361706Y-111227095D01*
X119242840Y-111266044D01*
X119133857Y-111327434D01*
X119038945Y-111408906D01*
X118990106Y-111471176D01*
X118850000Y-111471176D01*
X118776095Y-111478455D01*
X118705030Y-111500012D01*
X118639537Y-111535019D01*
X118582131Y-111582131D01*
X118535019Y-111639537D01*
X118500012Y-111705030D01*
X118478455Y-111776095D01*
X118471176Y-111850000D01*
X118471176Y-112650000D01*
X118478455Y-112723905D01*
X118500012Y-112794970D01*
X118535019Y-112860463D01*
X118548000Y-112876281D01*
X118548001Y-113630463D01*
X118545573Y-113655116D01*
X118555265Y-113753525D01*
X118583970Y-113848152D01*
X118630584Y-113935361D01*
X118677601Y-113992651D01*
X118677604Y-113992654D01*
X118693317Y-114011800D01*
X118712463Y-114027513D01*
X119652473Y-114967525D01*
X119665824Y-114983793D01*
X119663724Y-114986935D01*
X119605152Y-115128340D01*
X119575293Y-115278455D01*
X119575293Y-115431511D01*
X119605152Y-115581626D01*
X119663724Y-115723031D01*
X119748757Y-115850292D01*
X119856984Y-115958519D01*
X119984245Y-116043552D01*
X120125650Y-116102124D01*
X120275765Y-116131983D01*
X120428821Y-116131983D01*
X120578936Y-116102124D01*
X120720341Y-116043552D01*
X120847602Y-115958519D01*
X120949138Y-115856983D01*
X120998000Y-115856983D01*
X120998001Y-116275348D01*
X120995573Y-116300000D01*
X121005265Y-116398409D01*
X121033970Y-116493036D01*
X121069986Y-116560418D01*
X120959205Y-116594023D01*
X120850533Y-116652110D01*
X120766376Y-116721176D01*
X120700100Y-116721176D01*
X120577403Y-116733261D01*
X120459421Y-116769050D01*
X120350689Y-116827169D01*
X120255384Y-116905384D01*
X120177169Y-117000689D01*
X120119050Y-117109421D01*
X120083261Y-117227403D01*
X120071176Y-117350100D01*
X120071176Y-118249900D01*
X120083261Y-118372597D01*
X120119050Y-118490579D01*
X120177169Y-118599311D01*
X120247714Y-118685270D01*
X120007467Y-118925518D01*
X119988316Y-118941235D01*
X119925583Y-119017674D01*
X119878969Y-119104884D01*
X119850264Y-119199511D01*
X119843000Y-119273267D01*
X119843000Y-119273276D01*
X119840573Y-119297919D01*
X119843000Y-119322562D01*
X119843000Y-119379840D01*
X119763798Y-119412647D01*
X119562833Y-119546927D01*
X119391927Y-119717833D01*
X119257647Y-119918798D01*
X119165153Y-120142097D01*
X119118000Y-120379151D01*
X119118000Y-120620849D01*
X119165153Y-120857903D01*
X119221349Y-120993571D01*
X119205265Y-121046591D01*
X119195573Y-121145000D01*
X119198001Y-121169653D01*
X119198001Y-121946176D01*
X119074750Y-121946176D01*
X118952121Y-121958254D01*
X118834205Y-121994023D01*
X118725533Y-122052110D01*
X118630281Y-122130281D01*
X118552110Y-122225533D01*
X118494023Y-122334205D01*
X118458254Y-122452121D01*
X118446176Y-122574750D01*
X118446176Y-123200250D01*
X118458254Y-123322879D01*
X118494023Y-123440795D01*
X118552110Y-123549467D01*
X118621176Y-123633624D01*
X118621176Y-123699900D01*
X118633261Y-123822597D01*
X118669050Y-123940579D01*
X118727169Y-124049311D01*
X118805384Y-124144616D01*
X118900689Y-124222831D01*
X119009421Y-124280950D01*
X119127403Y-124316739D01*
X119250100Y-124328824D01*
X120149900Y-124328824D01*
X120272597Y-124316739D01*
X120390579Y-124280950D01*
X120499311Y-124222831D01*
X120594616Y-124144616D01*
X120672831Y-124049311D01*
X120730950Y-123940579D01*
X120766739Y-123822597D01*
X120778824Y-123699900D01*
X120778824Y-123633624D01*
X120847890Y-123549467D01*
X120905977Y-123440795D01*
X120941746Y-123322879D01*
X120953824Y-123200250D01*
X120953824Y-122574750D01*
X120941746Y-122452121D01*
X120905977Y-122334205D01*
X120847890Y-122225533D01*
X120769719Y-122130281D01*
X120674467Y-122052110D01*
X120565795Y-121994023D01*
X120447879Y-121958254D01*
X120325250Y-121946176D01*
X120202000Y-121946176D01*
X120202000Y-121722594D01*
X120224151Y-121727000D01*
X120465849Y-121727000D01*
X120702903Y-121679847D01*
X120926202Y-121587353D01*
X121127167Y-121453073D01*
X121298073Y-121282167D01*
X121432353Y-121081202D01*
X121524847Y-120857903D01*
X121572000Y-120620849D01*
X121572000Y-120379151D01*
X121546708Y-120251999D01*
X121587905Y-120269063D01*
X121676397Y-120286665D01*
X121658000Y-120379151D01*
X121658000Y-120620849D01*
X121705153Y-120857903D01*
X121797647Y-121081202D01*
X121931927Y-121282167D01*
X122102833Y-121453073D01*
X122303798Y-121587353D01*
X122468001Y-121655368D01*
X122468000Y-121946176D01*
X122344750Y-121946176D01*
X122222121Y-121958254D01*
X122104205Y-121994023D01*
X121995533Y-122052110D01*
X121900281Y-122130281D01*
X121822110Y-122225533D01*
X121764023Y-122334205D01*
X121728254Y-122452121D01*
X121716176Y-122574750D01*
X121716176Y-123200250D01*
X121728254Y-123322879D01*
X121764023Y-123440795D01*
X121822110Y-123549467D01*
X121891176Y-123633624D01*
X121891176Y-123699900D01*
X121903261Y-123822597D01*
X121939050Y-123940579D01*
X121997169Y-124049311D01*
X122075384Y-124144616D01*
X122170689Y-124222831D01*
X122279421Y-124280950D01*
X122397403Y-124316739D01*
X122520100Y-124328824D01*
X123419900Y-124328824D01*
X123542597Y-124316739D01*
X123660579Y-124280950D01*
X123769311Y-124222831D01*
X123864616Y-124144616D01*
X123942831Y-124049311D01*
X124000950Y-123940579D01*
X124036739Y-123822597D01*
X124048824Y-123699900D01*
X124048824Y-123633624D01*
X124117890Y-123549467D01*
X124175977Y-123440795D01*
X124211746Y-123322879D01*
X124220000Y-123239075D01*
X124228254Y-123322879D01*
X124264023Y-123440795D01*
X124322110Y-123549467D01*
X124391176Y-123633624D01*
X124391176Y-123699900D01*
X124403261Y-123822597D01*
X124439050Y-123940579D01*
X124497169Y-124049311D01*
X124575384Y-124144616D01*
X124670689Y-124222831D01*
X124779421Y-124280950D01*
X124897403Y-124316739D01*
X125020100Y-124328824D01*
X125919900Y-124328824D01*
X126042597Y-124316739D01*
X126160579Y-124280950D01*
X126269311Y-124222831D01*
X126364616Y-124144616D01*
X126442831Y-124049311D01*
X126500950Y-123940579D01*
X126536739Y-123822597D01*
X126548824Y-123699900D01*
X126548824Y-123633624D01*
X126617890Y-123549467D01*
X126675977Y-123440795D01*
X126711746Y-123322879D01*
X126720000Y-123239075D01*
X126728254Y-123322879D01*
X126764023Y-123440795D01*
X126822110Y-123549467D01*
X126891176Y-123633624D01*
X126891176Y-123699900D01*
X126903261Y-123822597D01*
X126939050Y-123940579D01*
X126997169Y-124049311D01*
X127075384Y-124144616D01*
X127170689Y-124222831D01*
X127279421Y-124280950D01*
X127397403Y-124316739D01*
X127520100Y-124328824D01*
X128419900Y-124328824D01*
X128542597Y-124316739D01*
X128660579Y-124280950D01*
X128769311Y-124222831D01*
X128864616Y-124144616D01*
X128942831Y-124049311D01*
X129000950Y-123940579D01*
X129036739Y-123822597D01*
X129048824Y-123699900D01*
X129048824Y-123633624D01*
X129117890Y-123549467D01*
X129175977Y-123440795D01*
X129211746Y-123322879D01*
X129220000Y-123239075D01*
X129228254Y-123322879D01*
X129264023Y-123440795D01*
X129322110Y-123549467D01*
X129391176Y-123633624D01*
X129391176Y-123699900D01*
X129403261Y-123822597D01*
X129439050Y-123940579D01*
X129497169Y-124049311D01*
X129575384Y-124144616D01*
X129670689Y-124222831D01*
X129779421Y-124280950D01*
X129897403Y-124316739D01*
X130020100Y-124328824D01*
X130919900Y-124328824D01*
X131042597Y-124316739D01*
X131160579Y-124280950D01*
X131168010Y-124276978D01*
X131168010Y-124404555D01*
X131155159Y-124417406D01*
X131042597Y-124383261D01*
X130919900Y-124371176D01*
X130020100Y-124371176D01*
X129897403Y-124383261D01*
X129779421Y-124419050D01*
X129670689Y-124477169D01*
X129575384Y-124555384D01*
X129497169Y-124650689D01*
X129439050Y-124759421D01*
X129403261Y-124877403D01*
X129391176Y-125000100D01*
X129391176Y-125066376D01*
X129322110Y-125150533D01*
X129264023Y-125259205D01*
X129248463Y-125310500D01*
X129191537Y-125310500D01*
X129175977Y-125259205D01*
X129117890Y-125150533D01*
X129048824Y-125066376D01*
X129048824Y-125000100D01*
X129036739Y-124877403D01*
X129000950Y-124759421D01*
X128942831Y-124650689D01*
X128864616Y-124555384D01*
X128769311Y-124477169D01*
X128660579Y-124419050D01*
X128542597Y-124383261D01*
X128419900Y-124371176D01*
X127520100Y-124371176D01*
X127397403Y-124383261D01*
X127279421Y-124419050D01*
X127170689Y-124477169D01*
X127075384Y-124555384D01*
X126997169Y-124650689D01*
X126939050Y-124759421D01*
X126903261Y-124877403D01*
X126891176Y-125000100D01*
X126891176Y-125066376D01*
X126822110Y-125150533D01*
X126764023Y-125259205D01*
X126748463Y-125310500D01*
X126691537Y-125310500D01*
X126675977Y-125259205D01*
X126617890Y-125150533D01*
X126548824Y-125066376D01*
X126548824Y-125000100D01*
X126536739Y-124877403D01*
X126500950Y-124759421D01*
X126442831Y-124650689D01*
X126364616Y-124555384D01*
X126269311Y-124477169D01*
X126160579Y-124419050D01*
X126042597Y-124383261D01*
X125919900Y-124371176D01*
X125020100Y-124371176D01*
X124897403Y-124383261D01*
X124779421Y-124419050D01*
X124670689Y-124477169D01*
X124575384Y-124555384D01*
X124497169Y-124650689D01*
X124439050Y-124759421D01*
X124403261Y-124877403D01*
X124391176Y-125000100D01*
X124391176Y-125066376D01*
X124322110Y-125150533D01*
X124264023Y-125259205D01*
X124248463Y-125310500D01*
X124191537Y-125310500D01*
X124175977Y-125259205D01*
X124117890Y-125150533D01*
X124048824Y-125066376D01*
X124048824Y-125000100D01*
X124036739Y-124877403D01*
X124000950Y-124759421D01*
X123942831Y-124650689D01*
X123864616Y-124555384D01*
X123769311Y-124477169D01*
X123660579Y-124419050D01*
X123542597Y-124383261D01*
X123419900Y-124371176D01*
X122520100Y-124371176D01*
X122397403Y-124383261D01*
X122279421Y-124419050D01*
X122170689Y-124477169D01*
X122075384Y-124555384D01*
X121997169Y-124650689D01*
X121939050Y-124759421D01*
X121903261Y-124877403D01*
X121891176Y-125000100D01*
X121891176Y-125066376D01*
X121822110Y-125150533D01*
X121764023Y-125259205D01*
X121728254Y-125377121D01*
X121716176Y-125499750D01*
X121716176Y-126125250D01*
X121728254Y-126247879D01*
X121764023Y-126365795D01*
X121822110Y-126474467D01*
X121900281Y-126569719D01*
X121995533Y-126647890D01*
X122104205Y-126705977D01*
X122222121Y-126741746D01*
X122344750Y-126753824D01*
X123595250Y-126753824D01*
X123717879Y-126741746D01*
X123835795Y-126705977D01*
X123944467Y-126647890D01*
X124039719Y-126569719D01*
X124117890Y-126474467D01*
X124175977Y-126365795D01*
X124191537Y-126314500D01*
X124248463Y-126314500D01*
X124264023Y-126365795D01*
X124322110Y-126474467D01*
X124400281Y-126569719D01*
X124495533Y-126647890D01*
X124604205Y-126705977D01*
X124722121Y-126741746D01*
X124844750Y-126753824D01*
X126095250Y-126753824D01*
X126217879Y-126741746D01*
X126335795Y-126705977D01*
X126444467Y-126647890D01*
X126539719Y-126569719D01*
X126617890Y-126474467D01*
X126675977Y-126365795D01*
X126691537Y-126314500D01*
X126748463Y-126314500D01*
X126764023Y-126365795D01*
X126822110Y-126474467D01*
X126900281Y-126569719D01*
X126995533Y-126647890D01*
X127104205Y-126705977D01*
X127222121Y-126741746D01*
X127344750Y-126753824D01*
X128595250Y-126753824D01*
X128717879Y-126741746D01*
X128835795Y-126705977D01*
X128944467Y-126647890D01*
X129039719Y-126569719D01*
X129117890Y-126474467D01*
X129175977Y-126365795D01*
X129191537Y-126314500D01*
X129248463Y-126314500D01*
X129264023Y-126365795D01*
X129322110Y-126474467D01*
X129400281Y-126569719D01*
X129495533Y-126647890D01*
X129604205Y-126705977D01*
X129722121Y-126741746D01*
X129844750Y-126753824D01*
X131095250Y-126753824D01*
X131217879Y-126741746D01*
X131335795Y-126705977D01*
X131444467Y-126647890D01*
X131539719Y-126569719D01*
X131617890Y-126474467D01*
X131675977Y-126365795D01*
X131711746Y-126247879D01*
X131723824Y-126125250D01*
X131723824Y-125499750D01*
X131711746Y-125377121D01*
X131689302Y-125303133D01*
X132007548Y-124984887D01*
X132026694Y-124969174D01*
X132089427Y-124892735D01*
X132136041Y-124805526D01*
X132164746Y-124710899D01*
X132172010Y-124637143D01*
X132172010Y-124637134D01*
X132174437Y-124612491D01*
X132172010Y-124587848D01*
X132172010Y-121985808D01*
X132195000Y-121988072D01*
X132759250Y-121985000D01*
X132918000Y-121826250D01*
X132918000Y-120627000D01*
X133172000Y-120627000D01*
X133172000Y-121826250D01*
X133330750Y-121985000D01*
X133895000Y-121988072D01*
X134019482Y-121975812D01*
X134139180Y-121939502D01*
X134249494Y-121880537D01*
X134346185Y-121801185D01*
X134425537Y-121704494D01*
X134484502Y-121594180D01*
X134520812Y-121474482D01*
X134533072Y-121350000D01*
X134530000Y-120785750D01*
X134371250Y-120627000D01*
X133172000Y-120627000D01*
X132918000Y-120627000D01*
X132898000Y-120627000D01*
X132898000Y-120373000D01*
X132918000Y-120373000D01*
X132918000Y-120353000D01*
X133172000Y-120353000D01*
X133172000Y-120373000D01*
X134371250Y-120373000D01*
X134530000Y-120214250D01*
X134533072Y-119650000D01*
X134520812Y-119525518D01*
X134484502Y-119405820D01*
X134434352Y-119311997D01*
X134614250Y-119310000D01*
X134773000Y-119151250D01*
X134773000Y-119136859D01*
X134862500Y-119138072D01*
X134986982Y-119125812D01*
X135027000Y-119113673D01*
X135027000Y-119151250D01*
X135185750Y-119310000D01*
X135285511Y-119311107D01*
X135285511Y-120089853D01*
X135283083Y-120114506D01*
X135292775Y-120212915D01*
X135321480Y-120307542D01*
X135322990Y-120310367D01*
X135322991Y-121227073D01*
X134437105Y-122112960D01*
X134357903Y-122080153D01*
X134120849Y-122033000D01*
X133879151Y-122033000D01*
X133642097Y-122080153D01*
X133418798Y-122172647D01*
X133217833Y-122306927D01*
X133046927Y-122477833D01*
X132912647Y-122678798D01*
X132820153Y-122902097D01*
X132773000Y-123139151D01*
X132773000Y-123380849D01*
X132820153Y-123617903D01*
X132912647Y-123841202D01*
X133046927Y-124042167D01*
X133217833Y-124213073D01*
X133367553Y-124313112D01*
X133150000Y-124311928D01*
X133025518Y-124324188D01*
X132905820Y-124360498D01*
X132795506Y-124419463D01*
X132698815Y-124498815D01*
X132619463Y-124595506D01*
X132560498Y-124705820D01*
X132524188Y-124825518D01*
X132511928Y-124950000D01*
X132515000Y-125514250D01*
X132673750Y-125673000D01*
X133873000Y-125673000D01*
X133873000Y-125653000D01*
X134127000Y-125653000D01*
X134127000Y-125673000D01*
X135326250Y-125673000D01*
X135485000Y-125514250D01*
X135488072Y-124950000D01*
X135475812Y-124825518D01*
X135439502Y-124705820D01*
X135380537Y-124595506D01*
X135301185Y-124498815D01*
X135204494Y-124419463D01*
X135094180Y-124360498D01*
X134974482Y-124324188D01*
X134850000Y-124311928D01*
X134632447Y-124313112D01*
X134782167Y-124213073D01*
X134953073Y-124042167D01*
X135087353Y-123841202D01*
X135179847Y-123617903D01*
X135227000Y-123380849D01*
X135227000Y-123139151D01*
X135179847Y-122902097D01*
X135147040Y-122822895D01*
X135773000Y-122196935D01*
X135773000Y-126579117D01*
X135760078Y-126710899D01*
X135727873Y-126817570D01*
X135675558Y-126915961D01*
X135605130Y-127002313D01*
X135519270Y-127073343D01*
X135421255Y-127126339D01*
X135314807Y-127159290D01*
X135217983Y-127169467D01*
X135301185Y-127101185D01*
X135380537Y-127004494D01*
X135439502Y-126894180D01*
X135475812Y-126774482D01*
X135488072Y-126650000D01*
X135485000Y-126085750D01*
X135326250Y-125927000D01*
X134127000Y-125927000D01*
X134127000Y-125947000D01*
X133873000Y-125947000D01*
X133873000Y-125927000D01*
X132673750Y-125927000D01*
X132515000Y-126085750D01*
X132511928Y-126650000D01*
X132524188Y-126774482D01*
X132560498Y-126894180D01*
X132619463Y-127004494D01*
X132698815Y-127101185D01*
X132786322Y-127173000D01*
X118220883Y-127173000D01*
X118089101Y-127160078D01*
X117982430Y-127127873D01*
X117884039Y-127075558D01*
X117797687Y-127005130D01*
X117726657Y-126919270D01*
X117673661Y-126821255D01*
X117640710Y-126714807D01*
X117627000Y-126584371D01*
X117627000Y-124449434D01*
X118480698Y-125303133D01*
X118458254Y-125377121D01*
X118446176Y-125499750D01*
X118446176Y-126125250D01*
X118458254Y-126247879D01*
X118494023Y-126365795D01*
X118552110Y-126474467D01*
X118630281Y-126569719D01*
X118725533Y-126647890D01*
X118834205Y-126705977D01*
X118952121Y-126741746D01*
X119074750Y-126753824D01*
X120325250Y-126753824D01*
X120447879Y-126741746D01*
X120565795Y-126705977D01*
X120601014Y-126687152D01*
X120648347Y-126706758D01*
X120798462Y-126736617D01*
X120951518Y-126736617D01*
X121101633Y-126706758D01*
X121243038Y-126648186D01*
X121370299Y-126563153D01*
X121478526Y-126454926D01*
X121563559Y-126327665D01*
X121622131Y-126186260D01*
X121651990Y-126036145D01*
X121651990Y-125883089D01*
X121622131Y-125732974D01*
X121563559Y-125591569D01*
X121478526Y-125464308D01*
X121370299Y-125356081D01*
X121243038Y-125271048D01*
X121101633Y-125212476D01*
X120951518Y-125182617D01*
X120865039Y-125182617D01*
X120847890Y-125150533D01*
X120778824Y-125066376D01*
X120778824Y-125000100D01*
X120766739Y-124877403D01*
X120730950Y-124759421D01*
X120672831Y-124650689D01*
X120594616Y-124555384D01*
X120499311Y-124477169D01*
X120390579Y-124419050D01*
X120272597Y-124383261D01*
X120149900Y-124371176D01*
X119250100Y-124371176D01*
X119127403Y-124383261D01*
X119014841Y-124417406D01*
X118197545Y-123600111D01*
X118197545Y-119046220D01*
X118274750Y-119053824D01*
X118900250Y-119053824D01*
X119022879Y-119041746D01*
X119140795Y-119005977D01*
X119249467Y-118947890D01*
X119333624Y-118878824D01*
X119399900Y-118878824D01*
X119522597Y-118866739D01*
X119640579Y-118830950D01*
X119749311Y-118772831D01*
X119844616Y-118694616D01*
X119922831Y-118599311D01*
X119980950Y-118490579D01*
X120016739Y-118372597D01*
X120028824Y-118249900D01*
X120028824Y-117350100D01*
X120016739Y-117227403D01*
X119980950Y-117109421D01*
X119922831Y-117000689D01*
X119844616Y-116905384D01*
X119749311Y-116827169D01*
X119640579Y-116769050D01*
X119522597Y-116733261D01*
X119399900Y-116721176D01*
X119333624Y-116721176D01*
X119249467Y-116652110D01*
X119140795Y-116594023D01*
X119022879Y-116558254D01*
X118903719Y-116546518D01*
X118903719Y-115919219D01*
X119005255Y-115817683D01*
X119090288Y-115690422D01*
X119148860Y-115549017D01*
X119178719Y-115398902D01*
X119178719Y-115245846D01*
X119148860Y-115095731D01*
X119090288Y-114954326D01*
X119005255Y-114827065D01*
X118897028Y-114718838D01*
X118769767Y-114633805D01*
X118628362Y-114575233D01*
X118478247Y-114545374D01*
X118325191Y-114545374D01*
X118202000Y-114569878D01*
X118202000Y-107114102D01*
X118231614Y-107138405D01*
G37*
%TD.AperFunction*%
D31*
X126785153Y-120142097D02*
X126738000Y-120379151D01*
X126738000Y-120620849D01*
X126785153Y-120857903D01*
X126877647Y-121081202D01*
X127011927Y-121282167D01*
X127182833Y-121453073D01*
X127383798Y-121587353D01*
X127468001Y-121622231D01*
X127468000Y-121946176D01*
X127344750Y-121946176D01*
X127222121Y-121958254D01*
X127104205Y-121994023D01*
X126995533Y-122052110D01*
X126900281Y-122130281D01*
X126822110Y-122225533D01*
X126764023Y-122334205D01*
X126728254Y-122452121D01*
X126720000Y-122535925D01*
X126711746Y-122452121D01*
X126675977Y-122334205D01*
X126617890Y-122225533D01*
X126539719Y-122130281D01*
X126444467Y-122052110D01*
X126335795Y-121994023D01*
X126217879Y-121958254D01*
X126095250Y-121946176D01*
X125972000Y-121946176D01*
X125972000Y-121601520D01*
X126006202Y-121587353D01*
X126207167Y-121453073D01*
X126378073Y-121282167D01*
X126512353Y-121081202D01*
X126604847Y-120857903D01*
X126652000Y-120620849D01*
X126652000Y-120379151D01*
X126604847Y-120142097D01*
X126536461Y-119977000D01*
X126853539Y-119977000D01*
X126785153Y-120142097D01*
%TA.AperFunction,Conductor*%
D32*
G36*
X126785153Y-120142097D02*
G01*
X126738000Y-120379151D01*
X126738000Y-120620849D01*
X126785153Y-120857903D01*
X126877647Y-121081202D01*
X127011927Y-121282167D01*
X127182833Y-121453073D01*
X127383798Y-121587353D01*
X127468001Y-121622231D01*
X127468000Y-121946176D01*
X127344750Y-121946176D01*
X127222121Y-121958254D01*
X127104205Y-121994023D01*
X126995533Y-122052110D01*
X126900281Y-122130281D01*
X126822110Y-122225533D01*
X126764023Y-122334205D01*
X126728254Y-122452121D01*
X126720000Y-122535925D01*
X126711746Y-122452121D01*
X126675977Y-122334205D01*
X126617890Y-122225533D01*
X126539719Y-122130281D01*
X126444467Y-122052110D01*
X126335795Y-121994023D01*
X126217879Y-121958254D01*
X126095250Y-121946176D01*
X125972000Y-121946176D01*
X125972000Y-121601520D01*
X126006202Y-121587353D01*
X126207167Y-121453073D01*
X126378073Y-121282167D01*
X126512353Y-121081202D01*
X126604847Y-120857903D01*
X126652000Y-120620849D01*
X126652000Y-120379151D01*
X126604847Y-120142097D01*
X126536461Y-119977000D01*
X126853539Y-119977000D01*
X126785153Y-120142097D01*
G37*
%TD.AperFunction*%
D31*
X129296176Y-116025000D02*
X129308259Y-116147677D01*
X129344042Y-116265641D01*
X129402152Y-116374356D01*
X129480354Y-116469646D01*
X129575644Y-116547848D01*
X129684359Y-116605958D01*
X129802323Y-116641741D01*
X129925000Y-116653824D01*
X130675000Y-116653824D01*
X130797677Y-116641741D01*
X130915641Y-116605958D01*
X131024356Y-116547848D01*
X131119646Y-116469646D01*
X131197848Y-116374356D01*
X131205389Y-116360248D01*
X131283346Y-116438205D01*
X131410607Y-116523238D01*
X131473000Y-116549082D01*
X131473000Y-116578463D01*
X131421705Y-116594023D01*
X131313033Y-116652110D01*
X131217781Y-116730281D01*
X131139610Y-116825533D01*
X131081523Y-116934205D01*
X131045754Y-117052121D01*
X131033676Y-117174750D01*
X131033676Y-118425250D01*
X131045754Y-118547879D01*
X131081523Y-118665795D01*
X131139462Y-118774190D01*
X130840810Y-119072843D01*
X130840810Y-118393000D01*
X124959191Y-118393000D01*
X124959191Y-119364849D01*
X124843798Y-119412647D01*
X124642833Y-119546927D01*
X124471927Y-119717833D01*
X124337647Y-119918798D01*
X124245153Y-120142097D01*
X124198000Y-120379151D01*
X124198000Y-120620849D01*
X124245153Y-120857903D01*
X124337647Y-121081202D01*
X124471927Y-121282167D01*
X124642833Y-121453073D01*
X124843798Y-121587353D01*
X124968001Y-121638800D01*
X124968000Y-121946176D01*
X124844750Y-121946176D01*
X124722121Y-121958254D01*
X124604205Y-121994023D01*
X124495533Y-122052110D01*
X124400281Y-122130281D01*
X124322110Y-122225533D01*
X124264023Y-122334205D01*
X124228254Y-122452121D01*
X124220000Y-122535925D01*
X124211746Y-122452121D01*
X124175977Y-122334205D01*
X124117890Y-122225533D01*
X124039719Y-122130281D01*
X123944467Y-122052110D01*
X123835795Y-121994023D01*
X123717879Y-121958254D01*
X123595250Y-121946176D01*
X123472000Y-121946176D01*
X123472000Y-121583479D01*
X123667167Y-121453073D01*
X123838073Y-121282167D01*
X123972353Y-121081202D01*
X124064847Y-120857903D01*
X124112000Y-120620849D01*
X124112000Y-120379151D01*
X124064847Y-120142097D01*
X123972353Y-119918798D01*
X123838073Y-119717833D01*
X123667167Y-119546927D01*
X123466202Y-119412647D01*
X123242903Y-119320153D01*
X123005849Y-119273000D01*
X122764151Y-119273000D01*
X122688757Y-119287997D01*
X122709283Y-119220332D01*
X122716547Y-119146576D01*
X122716547Y-119146567D01*
X122716894Y-119143040D01*
X122762532Y-119097402D01*
X122781684Y-119081684D01*
X122844417Y-119005245D01*
X122891031Y-118918036D01*
X122919736Y-118823409D01*
X122927000Y-118749653D01*
X122927000Y-118749644D01*
X122929427Y-118725001D01*
X122927000Y-118700358D01*
X122927000Y-118277000D01*
X124700357Y-118277000D01*
X124725000Y-118279427D01*
X124749643Y-118277000D01*
X124749653Y-118277000D01*
X124823409Y-118269736D01*
X124918036Y-118241031D01*
X125005245Y-118194417D01*
X125081684Y-118131684D01*
X125097401Y-118112533D01*
X125223433Y-117986501D01*
X127459858Y-117986501D01*
X127484501Y-117988928D01*
X127509144Y-117986501D01*
X127509154Y-117986501D01*
X127582910Y-117979237D01*
X127677537Y-117950532D01*
X127764746Y-117903918D01*
X127841185Y-117841185D01*
X127856902Y-117822034D01*
X128537538Y-117141399D01*
X128556684Y-117125686D01*
X128577765Y-117100000D01*
X128619416Y-117049248D01*
X128619417Y-117049247D01*
X128666031Y-116962038D01*
X128694736Y-116867411D01*
X128702000Y-116793655D01*
X128702000Y-116793646D01*
X128704427Y-116769003D01*
X128702000Y-116744360D01*
X128702000Y-115730640D01*
X129296176Y-115730640D01*
X129296176Y-116025000D01*
%TA.AperFunction,Conductor*%
D32*
G36*
X129296176Y-116025000D02*
G01*
X129308259Y-116147677D01*
X129344042Y-116265641D01*
X129402152Y-116374356D01*
X129480354Y-116469646D01*
X129575644Y-116547848D01*
X129684359Y-116605958D01*
X129802323Y-116641741D01*
X129925000Y-116653824D01*
X130675000Y-116653824D01*
X130797677Y-116641741D01*
X130915641Y-116605958D01*
X131024356Y-116547848D01*
X131119646Y-116469646D01*
X131197848Y-116374356D01*
X131205389Y-116360248D01*
X131283346Y-116438205D01*
X131410607Y-116523238D01*
X131473000Y-116549082D01*
X131473000Y-116578463D01*
X131421705Y-116594023D01*
X131313033Y-116652110D01*
X131217781Y-116730281D01*
X131139610Y-116825533D01*
X131081523Y-116934205D01*
X131045754Y-117052121D01*
X131033676Y-117174750D01*
X131033676Y-118425250D01*
X131045754Y-118547879D01*
X131081523Y-118665795D01*
X131139462Y-118774190D01*
X130840810Y-119072843D01*
X130840810Y-118393000D01*
X124959191Y-118393000D01*
X124959191Y-119364849D01*
X124843798Y-119412647D01*
X124642833Y-119546927D01*
X124471927Y-119717833D01*
X124337647Y-119918798D01*
X124245153Y-120142097D01*
X124198000Y-120379151D01*
X124198000Y-120620849D01*
X124245153Y-120857903D01*
X124337647Y-121081202D01*
X124471927Y-121282167D01*
X124642833Y-121453073D01*
X124843798Y-121587353D01*
X124968001Y-121638800D01*
X124968000Y-121946176D01*
X124844750Y-121946176D01*
X124722121Y-121958254D01*
X124604205Y-121994023D01*
X124495533Y-122052110D01*
X124400281Y-122130281D01*
X124322110Y-122225533D01*
X124264023Y-122334205D01*
X124228254Y-122452121D01*
X124220000Y-122535925D01*
X124211746Y-122452121D01*
X124175977Y-122334205D01*
X124117890Y-122225533D01*
X124039719Y-122130281D01*
X123944467Y-122052110D01*
X123835795Y-121994023D01*
X123717879Y-121958254D01*
X123595250Y-121946176D01*
X123472000Y-121946176D01*
X123472000Y-121583479D01*
X123667167Y-121453073D01*
X123838073Y-121282167D01*
X123972353Y-121081202D01*
X124064847Y-120857903D01*
X124112000Y-120620849D01*
X124112000Y-120379151D01*
X124064847Y-120142097D01*
X123972353Y-119918798D01*
X123838073Y-119717833D01*
X123667167Y-119546927D01*
X123466202Y-119412647D01*
X123242903Y-119320153D01*
X123005849Y-119273000D01*
X122764151Y-119273000D01*
X122688757Y-119287997D01*
X122709283Y-119220332D01*
X122716547Y-119146576D01*
X122716547Y-119146567D01*
X122716894Y-119143040D01*
X122762532Y-119097402D01*
X122781684Y-119081684D01*
X122844417Y-119005245D01*
X122891031Y-118918036D01*
X122919736Y-118823409D01*
X122927000Y-118749653D01*
X122927000Y-118749644D01*
X122929427Y-118725001D01*
X122927000Y-118700358D01*
X122927000Y-118277000D01*
X124700357Y-118277000D01*
X124725000Y-118279427D01*
X124749643Y-118277000D01*
X124749653Y-118277000D01*
X124823409Y-118269736D01*
X124918036Y-118241031D01*
X125005245Y-118194417D01*
X125081684Y-118131684D01*
X125097401Y-118112533D01*
X125223433Y-117986501D01*
X127459858Y-117986501D01*
X127484501Y-117988928D01*
X127509144Y-117986501D01*
X127509154Y-117986501D01*
X127582910Y-117979237D01*
X127677537Y-117950532D01*
X127764746Y-117903918D01*
X127841185Y-117841185D01*
X127856902Y-117822034D01*
X128537538Y-117141399D01*
X128556684Y-117125686D01*
X128577765Y-117100000D01*
X128619416Y-117049248D01*
X128619417Y-117049247D01*
X128666031Y-116962038D01*
X128694736Y-116867411D01*
X128702000Y-116793655D01*
X128702000Y-116793646D01*
X128704427Y-116769003D01*
X128702000Y-116744360D01*
X128702000Y-115730640D01*
X129296176Y-115730640D01*
X129296176Y-116025000D01*
G37*
%TD.AperFunction*%
D31*
X129325153Y-120142097D02*
X129278000Y-120379151D01*
X129278000Y-120620849D01*
X129325153Y-120857903D01*
X129417647Y-121081202D01*
X129551927Y-121282167D01*
X129722833Y-121453073D01*
X129923798Y-121587353D01*
X129968001Y-121605662D01*
X129968000Y-121946176D01*
X129844750Y-121946176D01*
X129722121Y-121958254D01*
X129604205Y-121994023D01*
X129495533Y-122052110D01*
X129400281Y-122130281D01*
X129322110Y-122225533D01*
X129264023Y-122334205D01*
X129228254Y-122452121D01*
X129220000Y-122535925D01*
X129211746Y-122452121D01*
X129175977Y-122334205D01*
X129117890Y-122225533D01*
X129039719Y-122130281D01*
X128944467Y-122052110D01*
X128835795Y-121994023D01*
X128717879Y-121958254D01*
X128595250Y-121946176D01*
X128472000Y-121946176D01*
X128472000Y-121618089D01*
X128546202Y-121587353D01*
X128747167Y-121453073D01*
X128918073Y-121282167D01*
X129052353Y-121081202D01*
X129144847Y-120857903D01*
X129192000Y-120620849D01*
X129192000Y-120379151D01*
X129144847Y-120142097D01*
X129076461Y-119977000D01*
X129393539Y-119977000D01*
X129325153Y-120142097D01*
%TA.AperFunction,Conductor*%
D32*
G36*
X129325153Y-120142097D02*
G01*
X129278000Y-120379151D01*
X129278000Y-120620849D01*
X129325153Y-120857903D01*
X129417647Y-121081202D01*
X129551927Y-121282167D01*
X129722833Y-121453073D01*
X129923798Y-121587353D01*
X129968001Y-121605662D01*
X129968000Y-121946176D01*
X129844750Y-121946176D01*
X129722121Y-121958254D01*
X129604205Y-121994023D01*
X129495533Y-122052110D01*
X129400281Y-122130281D01*
X129322110Y-122225533D01*
X129264023Y-122334205D01*
X129228254Y-122452121D01*
X129220000Y-122535925D01*
X129211746Y-122452121D01*
X129175977Y-122334205D01*
X129117890Y-122225533D01*
X129039719Y-122130281D01*
X128944467Y-122052110D01*
X128835795Y-121994023D01*
X128717879Y-121958254D01*
X128595250Y-121946176D01*
X128472000Y-121946176D01*
X128472000Y-121618089D01*
X128546202Y-121587353D01*
X128747167Y-121453073D01*
X128918073Y-121282167D01*
X129052353Y-121081202D01*
X129144847Y-120857903D01*
X129192000Y-120620849D01*
X129192000Y-120379151D01*
X129144847Y-120142097D01*
X129076461Y-119977000D01*
X129393539Y-119977000D01*
X129325153Y-120142097D01*
G37*
%TD.AperFunction*%
D31*
X134497000Y-117927000D02*
X134203000Y-117927000D01*
X134203000Y-117673000D01*
X134497000Y-117673000D01*
X134497000Y-117927000D01*
%TA.AperFunction,Conductor*%
D32*
G36*
X134497000Y-117927000D02*
G01*
X134203000Y-117927000D01*
X134203000Y-117673000D01*
X134497000Y-117673000D01*
X134497000Y-117927000D01*
G37*
%TD.AperFunction*%
D31*
X132776095Y-103646545D02*
X132850000Y-103653824D01*
X133193003Y-103653824D01*
X133032528Y-103703843D01*
X132906629Y-103967883D01*
X132834661Y-104251411D01*
X132819389Y-104543531D01*
X132861401Y-104833019D01*
X132959081Y-105108747D01*
X133032528Y-105246157D01*
X133281603Y-105323792D01*
X134130395Y-104475000D01*
X134116253Y-104460858D01*
X134295858Y-104281253D01*
X134310000Y-104295395D01*
X134324143Y-104281253D01*
X134503748Y-104460858D01*
X134489605Y-104475000D01*
X135338397Y-105323792D01*
X135587472Y-105246157D01*
X135713371Y-104982117D01*
X135773001Y-104747197D01*
X135773001Y-112866216D01*
X135758599Y-112766981D01*
X135660919Y-112491253D01*
X135587472Y-112353843D01*
X135338397Y-112276208D01*
X134489605Y-113125000D01*
X135338397Y-113973792D01*
X135587472Y-113896157D01*
X135713371Y-113632117D01*
X135773000Y-113397198D01*
X135773000Y-116027891D01*
X135698409Y-116005264D01*
X135624653Y-115998000D01*
X135624643Y-115998000D01*
X135600000Y-115995573D01*
X135575357Y-115998000D01*
X134207935Y-115998000D01*
X134103824Y-115893889D01*
X134103824Y-114775000D01*
X134091741Y-114652323D01*
X134075101Y-114597468D01*
X134086411Y-114600339D01*
X134378531Y-114615611D01*
X134668019Y-114573599D01*
X134943747Y-114475919D01*
X135081157Y-114402472D01*
X135158792Y-114153397D01*
X134310000Y-113304605D01*
X134295858Y-113318748D01*
X134116253Y-113139143D01*
X134130395Y-113125000D01*
X133281603Y-112276208D01*
X133032528Y-112353843D01*
X132906629Y-112617883D01*
X132834661Y-112901411D01*
X132819389Y-113193531D01*
X132825857Y-113238096D01*
X132803536Y-113204691D01*
X132695309Y-113096464D01*
X132568048Y-113011431D01*
X132426643Y-112952859D01*
X132276528Y-112923000D01*
X132123472Y-112923000D01*
X131973357Y-112952859D01*
X131831952Y-113011431D01*
X131770370Y-113052578D01*
X131727961Y-112743325D01*
X131622795Y-112438912D01*
X131529814Y-112264956D01*
X131265413Y-112169192D01*
X130309605Y-113125000D01*
X131265413Y-114080808D01*
X131483933Y-114001662D01*
X131511431Y-114068048D01*
X131596464Y-114195309D01*
X131704691Y-114303536D01*
X131831952Y-114388569D01*
X131973357Y-114447141D01*
X132123472Y-114477000D01*
X132174701Y-114477000D01*
X132144042Y-114534359D01*
X132108259Y-114652323D01*
X132096176Y-114775000D01*
X132096176Y-115125171D01*
X132005298Y-115087528D01*
X131855183Y-115057669D01*
X131702127Y-115057669D01*
X131552012Y-115087528D01*
X131410607Y-115146100D01*
X131303824Y-115217450D01*
X131303824Y-114775000D01*
X131291741Y-114652323D01*
X131255958Y-114534359D01*
X131197848Y-114425644D01*
X131119646Y-114330354D01*
X131074034Y-114292921D01*
X131085808Y-114260413D01*
X130130000Y-113304605D01*
X130115858Y-113318748D01*
X129936253Y-113139143D01*
X129950395Y-113125000D01*
X129936253Y-113110858D01*
X130109048Y-112938062D01*
X130110000Y-112938072D01*
X130121540Y-112936935D01*
X130130000Y-112945395D01*
X130140308Y-112935087D01*
X130234482Y-112925812D01*
X130354180Y-112889502D01*
X130464494Y-112830537D01*
X130561185Y-112751185D01*
X130640537Y-112654494D01*
X130699502Y-112544180D01*
X130735812Y-112424482D01*
X130745087Y-112330308D01*
X130978792Y-112096603D01*
X133461208Y-112096603D01*
X134310000Y-112945395D01*
X135158792Y-112096603D01*
X135081157Y-111847528D01*
X134817117Y-111721629D01*
X134533589Y-111649661D01*
X134241469Y-111634389D01*
X133951981Y-111676401D01*
X133676253Y-111774081D01*
X133538843Y-111847528D01*
X133461208Y-112096603D01*
X130978792Y-112096603D01*
X131085808Y-111989587D01*
X130990044Y-111725186D01*
X130738501Y-111602817D01*
X130735812Y-111575518D01*
X130699502Y-111455820D01*
X130681951Y-111422985D01*
X130837532Y-111267404D01*
X130856684Y-111251686D01*
X130919417Y-111175247D01*
X130966031Y-111088038D01*
X130994736Y-110993411D01*
X131002000Y-110919655D01*
X131002000Y-110919646D01*
X131004427Y-110895003D01*
X131002000Y-110870360D01*
X131002000Y-106724642D01*
X131004427Y-106699999D01*
X131002000Y-106675356D01*
X131002000Y-106675347D01*
X130994736Y-106601591D01*
X130966031Y-106506964D01*
X130919417Y-106419755D01*
X130856684Y-106343316D01*
X130837532Y-106327598D01*
X130683692Y-106173758D01*
X130699502Y-106144180D01*
X130735812Y-106024482D01*
X130738764Y-105994508D01*
X130816088Y-105967795D01*
X130990044Y-105874814D01*
X131085808Y-105610413D01*
X130990395Y-105515000D01*
X131107002Y-105515000D01*
X131107002Y-105360252D01*
X131261750Y-105515000D01*
X131321965Y-105511410D01*
X131354315Y-105503397D01*
X133461208Y-105503397D01*
X133538843Y-105752472D01*
X133802883Y-105878371D01*
X134086411Y-105950339D01*
X134378531Y-105965611D01*
X134668019Y-105923599D01*
X134943747Y-105825919D01*
X135081157Y-105752472D01*
X135158792Y-105503397D01*
X134310000Y-104654605D01*
X133461208Y-105503397D01*
X131354315Y-105503397D01*
X131443380Y-105481336D01*
X131556595Y-105428153D01*
X131657259Y-105353905D01*
X131741503Y-105261445D01*
X131806091Y-105154326D01*
X131848540Y-105036665D01*
X131865000Y-104938750D01*
X131733223Y-104806973D01*
X131752384Y-104733892D01*
X131752386Y-104733864D01*
X131865000Y-104621250D01*
X131848540Y-104523335D01*
X131806091Y-104405674D01*
X131760404Y-104329902D01*
X131727961Y-104093325D01*
X131622795Y-103788912D01*
X131550589Y-103653824D01*
X131950000Y-103653824D01*
X132023905Y-103646545D01*
X132075000Y-103631046D01*
X132126095Y-103646545D01*
X132200000Y-103653824D01*
X132600000Y-103653824D01*
X132673905Y-103646545D01*
X132725000Y-103631046D01*
X132776095Y-103646545D01*
%TA.AperFunction,Conductor*%
D32*
G36*
X132776095Y-103646545D02*
G01*
X132850000Y-103653824D01*
X133193003Y-103653824D01*
X133032528Y-103703843D01*
X132906629Y-103967883D01*
X132834661Y-104251411D01*
X132819389Y-104543531D01*
X132861401Y-104833019D01*
X132959081Y-105108747D01*
X133032528Y-105246157D01*
X133281603Y-105323792D01*
X134130395Y-104475000D01*
X134116253Y-104460858D01*
X134295858Y-104281253D01*
X134310000Y-104295395D01*
X134324143Y-104281253D01*
X134503748Y-104460858D01*
X134489605Y-104475000D01*
X135338397Y-105323792D01*
X135587472Y-105246157D01*
X135713371Y-104982117D01*
X135773001Y-104747197D01*
X135773001Y-112866216D01*
X135758599Y-112766981D01*
X135660919Y-112491253D01*
X135587472Y-112353843D01*
X135338397Y-112276208D01*
X134489605Y-113125000D01*
X135338397Y-113973792D01*
X135587472Y-113896157D01*
X135713371Y-113632117D01*
X135773000Y-113397198D01*
X135773000Y-116027891D01*
X135698409Y-116005264D01*
X135624653Y-115998000D01*
X135624643Y-115998000D01*
X135600000Y-115995573D01*
X135575357Y-115998000D01*
X134207935Y-115998000D01*
X134103824Y-115893889D01*
X134103824Y-114775000D01*
X134091741Y-114652323D01*
X134075101Y-114597468D01*
X134086411Y-114600339D01*
X134378531Y-114615611D01*
X134668019Y-114573599D01*
X134943747Y-114475919D01*
X135081157Y-114402472D01*
X135158792Y-114153397D01*
X134310000Y-113304605D01*
X134295858Y-113318748D01*
X134116253Y-113139143D01*
X134130395Y-113125000D01*
X133281603Y-112276208D01*
X133032528Y-112353843D01*
X132906629Y-112617883D01*
X132834661Y-112901411D01*
X132819389Y-113193531D01*
X132825857Y-113238096D01*
X132803536Y-113204691D01*
X132695309Y-113096464D01*
X132568048Y-113011431D01*
X132426643Y-112952859D01*
X132276528Y-112923000D01*
X132123472Y-112923000D01*
X131973357Y-112952859D01*
X131831952Y-113011431D01*
X131770370Y-113052578D01*
X131727961Y-112743325D01*
X131622795Y-112438912D01*
X131529814Y-112264956D01*
X131265413Y-112169192D01*
X130309605Y-113125000D01*
X131265413Y-114080808D01*
X131483933Y-114001662D01*
X131511431Y-114068048D01*
X131596464Y-114195309D01*
X131704691Y-114303536D01*
X131831952Y-114388569D01*
X131973357Y-114447141D01*
X132123472Y-114477000D01*
X132174701Y-114477000D01*
X132144042Y-114534359D01*
X132108259Y-114652323D01*
X132096176Y-114775000D01*
X132096176Y-115125171D01*
X132005298Y-115087528D01*
X131855183Y-115057669D01*
X131702127Y-115057669D01*
X131552012Y-115087528D01*
X131410607Y-115146100D01*
X131303824Y-115217450D01*
X131303824Y-114775000D01*
X131291741Y-114652323D01*
X131255958Y-114534359D01*
X131197848Y-114425644D01*
X131119646Y-114330354D01*
X131074034Y-114292921D01*
X131085808Y-114260413D01*
X130130000Y-113304605D01*
X130115858Y-113318748D01*
X129936253Y-113139143D01*
X129950395Y-113125000D01*
X129936253Y-113110858D01*
X130109048Y-112938062D01*
X130110000Y-112938072D01*
X130121540Y-112936935D01*
X130130000Y-112945395D01*
X130140308Y-112935087D01*
X130234482Y-112925812D01*
X130354180Y-112889502D01*
X130464494Y-112830537D01*
X130561185Y-112751185D01*
X130640537Y-112654494D01*
X130699502Y-112544180D01*
X130735812Y-112424482D01*
X130745087Y-112330308D01*
X130978792Y-112096603D01*
X133461208Y-112096603D01*
X134310000Y-112945395D01*
X135158792Y-112096603D01*
X135081157Y-111847528D01*
X134817117Y-111721629D01*
X134533589Y-111649661D01*
X134241469Y-111634389D01*
X133951981Y-111676401D01*
X133676253Y-111774081D01*
X133538843Y-111847528D01*
X133461208Y-112096603D01*
X130978792Y-112096603D01*
X131085808Y-111989587D01*
X130990044Y-111725186D01*
X130738501Y-111602817D01*
X130735812Y-111575518D01*
X130699502Y-111455820D01*
X130681951Y-111422985D01*
X130837532Y-111267404D01*
X130856684Y-111251686D01*
X130919417Y-111175247D01*
X130966031Y-111088038D01*
X130994736Y-110993411D01*
X131002000Y-110919655D01*
X131002000Y-110919646D01*
X131004427Y-110895003D01*
X131002000Y-110870360D01*
X131002000Y-106724642D01*
X131004427Y-106699999D01*
X131002000Y-106675356D01*
X131002000Y-106675347D01*
X130994736Y-106601591D01*
X130966031Y-106506964D01*
X130919417Y-106419755D01*
X130856684Y-106343316D01*
X130837532Y-106327598D01*
X130683692Y-106173758D01*
X130699502Y-106144180D01*
X130735812Y-106024482D01*
X130738764Y-105994508D01*
X130816088Y-105967795D01*
X130990044Y-105874814D01*
X131085808Y-105610413D01*
X130990395Y-105515000D01*
X131107002Y-105515000D01*
X131107002Y-105360252D01*
X131261750Y-105515000D01*
X131321965Y-105511410D01*
X131354315Y-105503397D01*
X133461208Y-105503397D01*
X133538843Y-105752472D01*
X133802883Y-105878371D01*
X134086411Y-105950339D01*
X134378531Y-105965611D01*
X134668019Y-105923599D01*
X134943747Y-105825919D01*
X135081157Y-105752472D01*
X135158792Y-105503397D01*
X134310000Y-104654605D01*
X133461208Y-105503397D01*
X131354315Y-105503397D01*
X131443380Y-105481336D01*
X131556595Y-105428153D01*
X131657259Y-105353905D01*
X131741503Y-105261445D01*
X131806091Y-105154326D01*
X131848540Y-105036665D01*
X131865000Y-104938750D01*
X131733223Y-104806973D01*
X131752384Y-104733892D01*
X131752386Y-104733864D01*
X131865000Y-104621250D01*
X131848540Y-104523335D01*
X131806091Y-104405674D01*
X131760404Y-104329902D01*
X131727961Y-104093325D01*
X131622795Y-103788912D01*
X131550589Y-103653824D01*
X131950000Y-103653824D01*
X132023905Y-103646545D01*
X132075000Y-103631046D01*
X132126095Y-103646545D01*
X132200000Y-103653824D01*
X132600000Y-103653824D01*
X132673905Y-103646545D01*
X132725000Y-103631046D01*
X132776095Y-103646545D01*
G37*
%TD.AperFunction*%
D31*
X127648010Y-111650424D02*
X127648010Y-111923000D01*
X126827000Y-111923000D01*
X126827000Y-111887268D01*
X126888736Y-111794873D01*
X126947308Y-111653468D01*
X126977167Y-111503353D01*
X126977167Y-111460441D01*
X127075000Y-111463072D01*
X127199482Y-111450812D01*
X127319180Y-111414502D01*
X127379726Y-111382139D01*
X127648010Y-111650424D01*
%TA.AperFunction,Conductor*%
D32*
G36*
X127648010Y-111650424D02*
G01*
X127648010Y-111923000D01*
X126827000Y-111923000D01*
X126827000Y-111887268D01*
X126888736Y-111794873D01*
X126947308Y-111653468D01*
X126977167Y-111503353D01*
X126977167Y-111460441D01*
X127075000Y-111463072D01*
X127199482Y-111450812D01*
X127319180Y-111414502D01*
X127379726Y-111382139D01*
X127648010Y-111650424D01*
G37*
%TD.AperFunction*%
D31*
X123452000Y-110223000D02*
X123472000Y-110223000D01*
X123472000Y-110477000D01*
X123452000Y-110477000D01*
X123452000Y-110497000D01*
X123198000Y-110497000D01*
X123198000Y-110477000D01*
X123178000Y-110477000D01*
X123178000Y-110223000D01*
X123198000Y-110223000D01*
X123198000Y-110203000D01*
X123452000Y-110203000D01*
X123452000Y-110223000D01*
%TA.AperFunction,Conductor*%
D32*
G36*
X123452000Y-110223000D02*
G01*
X123472000Y-110223000D01*
X123472000Y-110477000D01*
X123452000Y-110477000D01*
X123452000Y-110497000D01*
X123198000Y-110497000D01*
X123198000Y-110477000D01*
X123178000Y-110477000D01*
X123178000Y-110223000D01*
X123198000Y-110223000D01*
X123198000Y-110203000D01*
X123452000Y-110203000D01*
X123452000Y-110223000D01*
G37*
%TD.AperFunction*%
D31*
X126802000Y-110223000D02*
X126822000Y-110223000D01*
X126822000Y-110477000D01*
X126802000Y-110477000D01*
X126802000Y-110497000D01*
X126548000Y-110497000D01*
X126548000Y-110477000D01*
X126528000Y-110477000D01*
X126528000Y-110223000D01*
X126548000Y-110223000D01*
X126548000Y-110203000D01*
X126802000Y-110203000D01*
X126802000Y-110223000D01*
%TA.AperFunction,Conductor*%
D32*
G36*
X126802000Y-110223000D02*
G01*
X126822000Y-110223000D01*
X126822000Y-110477000D01*
X126802000Y-110477000D01*
X126802000Y-110497000D01*
X126548000Y-110497000D01*
X126548000Y-110477000D01*
X126528000Y-110477000D01*
X126528000Y-110223000D01*
X126548000Y-110223000D01*
X126548000Y-110203000D01*
X126802000Y-110203000D01*
X126802000Y-110223000D01*
G37*
%TD.AperFunction*%
D31*
X126802000Y-106673000D02*
X126822000Y-106673000D01*
X126822000Y-106927000D01*
X126802000Y-106927000D01*
X126802000Y-106947000D01*
X126619405Y-106947000D01*
X126663405Y-106893386D01*
X126745472Y-106739850D01*
X126771817Y-106653000D01*
X126802000Y-106653000D01*
X126802000Y-106673000D01*
%TA.AperFunction,Conductor*%
D32*
G36*
X126802000Y-106673000D02*
G01*
X126822000Y-106673000D01*
X126822000Y-106927000D01*
X126802000Y-106927000D01*
X126802000Y-106947000D01*
X126619405Y-106947000D01*
X126663405Y-106893386D01*
X126745472Y-106739850D01*
X126771817Y-106653000D01*
X126802000Y-106653000D01*
X126802000Y-106673000D01*
G37*
%TD.AperFunction*%
D31*
X127922793Y-103533415D02*
X127864221Y-103674820D01*
X127834362Y-103824935D01*
X127834362Y-103977991D01*
X127864221Y-104128106D01*
X127922793Y-104269511D01*
X128007826Y-104396772D01*
X128116053Y-104504999D01*
X128243314Y-104590032D01*
X128384719Y-104648604D01*
X128506836Y-104672894D01*
X128529732Y-104839855D01*
X128518815Y-104848815D01*
X128439463Y-104945506D01*
X128380498Y-105055820D01*
X128344188Y-105175518D01*
X128331928Y-105300000D01*
X128335000Y-105314250D01*
X128493750Y-105473000D01*
X129311605Y-105473000D01*
X129174192Y-105610413D01*
X129214310Y-105721176D01*
X128970000Y-105721176D01*
X128910868Y-105727000D01*
X128493750Y-105727000D01*
X128335000Y-105885750D01*
X128331928Y-105900000D01*
X128336476Y-105946176D01*
X128125000Y-105946176D01*
X128012077Y-105957298D01*
X127903494Y-105990236D01*
X127803423Y-106043725D01*
X127715710Y-106115710D01*
X127686049Y-106151851D01*
X127664502Y-106080820D01*
X127605537Y-105970506D01*
X127526185Y-105873815D01*
X127429494Y-105794463D01*
X127319180Y-105735498D01*
X127199482Y-105699188D01*
X127075000Y-105686928D01*
X126960750Y-105690000D01*
X126807484Y-105843266D01*
X126802002Y-105787605D01*
X126802002Y-105690000D01*
X126784861Y-105690000D01*
X126745472Y-105560150D01*
X126663405Y-105406614D01*
X126552962Y-105272038D01*
X126418386Y-105161595D01*
X126264850Y-105079528D01*
X126203266Y-105060847D01*
X126274356Y-105022848D01*
X126369646Y-104944646D01*
X126447848Y-104849356D01*
X126505958Y-104740641D01*
X126541741Y-104622677D01*
X126543569Y-104604119D01*
X126603845Y-104592130D01*
X126745250Y-104533558D01*
X126872511Y-104448525D01*
X126980738Y-104340298D01*
X127065771Y-104213037D01*
X127124343Y-104071632D01*
X127154202Y-103921517D01*
X127154202Y-103768461D01*
X127124343Y-103618346D01*
X127066583Y-103478902D01*
X127112077Y-103492702D01*
X127225000Y-103503824D01*
X127775000Y-103503824D01*
X127887923Y-103492702D01*
X127965776Y-103469086D01*
X127922793Y-103533415D01*
%TA.AperFunction,Conductor*%
D32*
G36*
X127922793Y-103533415D02*
G01*
X127864221Y-103674820D01*
X127834362Y-103824935D01*
X127834362Y-103977991D01*
X127864221Y-104128106D01*
X127922793Y-104269511D01*
X128007826Y-104396772D01*
X128116053Y-104504999D01*
X128243314Y-104590032D01*
X128384719Y-104648604D01*
X128506836Y-104672894D01*
X128529732Y-104839855D01*
X128518815Y-104848815D01*
X128439463Y-104945506D01*
X128380498Y-105055820D01*
X128344188Y-105175518D01*
X128331928Y-105300000D01*
X128335000Y-105314250D01*
X128493750Y-105473000D01*
X129311605Y-105473000D01*
X129174192Y-105610413D01*
X129214310Y-105721176D01*
X128970000Y-105721176D01*
X128910868Y-105727000D01*
X128493750Y-105727000D01*
X128335000Y-105885750D01*
X128331928Y-105900000D01*
X128336476Y-105946176D01*
X128125000Y-105946176D01*
X128012077Y-105957298D01*
X127903494Y-105990236D01*
X127803423Y-106043725D01*
X127715710Y-106115710D01*
X127686049Y-106151851D01*
X127664502Y-106080820D01*
X127605537Y-105970506D01*
X127526185Y-105873815D01*
X127429494Y-105794463D01*
X127319180Y-105735498D01*
X127199482Y-105699188D01*
X127075000Y-105686928D01*
X126960750Y-105690000D01*
X126807484Y-105843266D01*
X126802002Y-105787605D01*
X126802002Y-105690000D01*
X126784861Y-105690000D01*
X126745472Y-105560150D01*
X126663405Y-105406614D01*
X126552962Y-105272038D01*
X126418386Y-105161595D01*
X126264850Y-105079528D01*
X126203266Y-105060847D01*
X126274356Y-105022848D01*
X126369646Y-104944646D01*
X126447848Y-104849356D01*
X126505958Y-104740641D01*
X126541741Y-104622677D01*
X126543569Y-104604119D01*
X126603845Y-104592130D01*
X126745250Y-104533558D01*
X126872511Y-104448525D01*
X126980738Y-104340298D01*
X127065771Y-104213037D01*
X127124343Y-104071632D01*
X127154202Y-103921517D01*
X127154202Y-103768461D01*
X127124343Y-103618346D01*
X127066583Y-103478902D01*
X127112077Y-103492702D01*
X127225000Y-103503824D01*
X127775000Y-103503824D01*
X127887923Y-103492702D01*
X127965776Y-103469086D01*
X127922793Y-103533415D01*
G37*
%TD.AperFunction*%
D31*
X122478980Y-104021241D02*
X122461928Y-104194373D01*
X122461928Y-105261928D01*
X121928824Y-105261928D01*
X121928824Y-104194373D01*
X121916753Y-104071818D01*
X121881005Y-103953972D01*
X121867563Y-103928824D01*
X122507015Y-103928824D01*
X122478980Y-104021241D01*
%TA.AperFunction,Conductor*%
D32*
G36*
X122478980Y-104021241D02*
G01*
X122461928Y-104194373D01*
X122461928Y-105261928D01*
X121928824Y-105261928D01*
X121928824Y-104194373D01*
X121916753Y-104071818D01*
X121881005Y-103953972D01*
X121867563Y-103928824D01*
X122507015Y-103928824D01*
X122478980Y-104021241D01*
G37*
%TD.AperFunction*%
D31*
X130197037Y-104334147D02*
X130153909Y-104405674D01*
X130111460Y-104523335D01*
X130095000Y-104621250D01*
X130126748Y-104652998D01*
X130095000Y-104652998D01*
X130095000Y-104662090D01*
X129825750Y-104665000D01*
X129667002Y-104823748D01*
X129667002Y-104758393D01*
X129950395Y-104475000D01*
X129936253Y-104460858D01*
X130115858Y-104281253D01*
X130130000Y-104295395D01*
X130144143Y-104281253D01*
X130197037Y-104334147D01*
%TA.AperFunction,Conductor*%
D32*
G36*
X130197037Y-104334147D02*
G01*
X130153909Y-104405674D01*
X130111460Y-104523335D01*
X130095000Y-104621250D01*
X130126748Y-104652998D01*
X130095000Y-104652998D01*
X130095000Y-104662090D01*
X129825750Y-104665000D01*
X129667002Y-104823748D01*
X129667002Y-104758393D01*
X129950395Y-104475000D01*
X129936253Y-104460858D01*
X130115858Y-104281253D01*
X130130000Y-104295395D01*
X130144143Y-104281253D01*
X130197037Y-104334147D01*
G37*
%TD.AperFunction*%
D31*
X126573815Y-101926185D02*
X126670506Y-102005537D01*
X126780820Y-102064502D01*
X126851851Y-102086049D01*
X126815710Y-102115710D01*
X126743725Y-102203423D01*
X126690236Y-102303494D01*
X126657298Y-102412077D01*
X126646176Y-102525000D01*
X126646176Y-102925000D01*
X126656023Y-103024976D01*
X126541324Y-102910277D01*
X126541324Y-101886594D01*
X126573815Y-101926185D01*
%TA.AperFunction,Conductor*%
D32*
G36*
X126573815Y-101926185D02*
G01*
X126670506Y-102005537D01*
X126780820Y-102064502D01*
X126851851Y-102086049D01*
X126815710Y-102115710D01*
X126743725Y-102203423D01*
X126690236Y-102303494D01*
X126657298Y-102412077D01*
X126646176Y-102525000D01*
X126646176Y-102925000D01*
X126656023Y-103024976D01*
X126541324Y-102910277D01*
X126541324Y-101886594D01*
X126573815Y-101926185D01*
G37*
%TD.AperFunction*%
D31*
X127627000Y-100948000D02*
X127647000Y-100948000D01*
X127647000Y-101202000D01*
X127627000Y-101202000D01*
X127627000Y-101222000D01*
X127373000Y-101222000D01*
X127373000Y-101202000D01*
X127353000Y-101202000D01*
X127353000Y-100948000D01*
X127373000Y-100948000D01*
X127373000Y-100928000D01*
X127627000Y-100928000D01*
X127627000Y-100948000D01*
%TA.AperFunction,Conductor*%
D32*
G36*
X127627000Y-100948000D02*
G01*
X127647000Y-100948000D01*
X127647000Y-101202000D01*
X127627000Y-101202000D01*
X127627000Y-101222000D01*
X127373000Y-101222000D01*
X127373000Y-101202000D01*
X127353000Y-101202000D01*
X127353000Y-100948000D01*
X127373000Y-100948000D01*
X127373000Y-100928000D01*
X127627000Y-100928000D01*
X127627000Y-100948000D01*
G37*
%TD.AperFunction*%
D31*
X133096176Y-99556250D02*
X133107658Y-99672831D01*
X133141664Y-99784932D01*
X133196885Y-99888244D01*
X133271201Y-99978799D01*
X133361756Y-100053115D01*
X133465068Y-100108336D01*
X133577169Y-100142342D01*
X133693750Y-100153824D01*
X133923742Y-100153824D01*
X133862467Y-100215099D01*
X133843316Y-100230816D01*
X133780583Y-100307255D01*
X133759805Y-100346128D01*
X133712192Y-100285097D01*
X133617490Y-100203381D01*
X133508666Y-100141710D01*
X133389902Y-100102454D01*
X133281750Y-100090000D01*
X133123000Y-100248750D01*
X133123000Y-100923000D01*
X133197000Y-100923000D01*
X133197000Y-101177000D01*
X133123000Y-101177000D01*
X133123000Y-101197000D01*
X132978824Y-101197000D01*
X132978824Y-100725000D01*
X132977000Y-100706481D01*
X132977000Y-100248750D01*
X132818250Y-100090000D01*
X132789508Y-100093310D01*
X132772399Y-100072462D01*
X132772397Y-100072460D01*
X132756684Y-100053314D01*
X132737538Y-100037601D01*
X132262403Y-99562467D01*
X132246686Y-99543316D01*
X132170247Y-99480583D01*
X132163562Y-99477010D01*
X133096176Y-99477010D01*
X133096176Y-99556250D01*
%TA.AperFunction,Conductor*%
D32*
G36*
X133096176Y-99556250D02*
G01*
X133107658Y-99672831D01*
X133141664Y-99784932D01*
X133196885Y-99888244D01*
X133271201Y-99978799D01*
X133361756Y-100053115D01*
X133465068Y-100108336D01*
X133577169Y-100142342D01*
X133693750Y-100153824D01*
X133923742Y-100153824D01*
X133862467Y-100215099D01*
X133843316Y-100230816D01*
X133780583Y-100307255D01*
X133759805Y-100346128D01*
X133712192Y-100285097D01*
X133617490Y-100203381D01*
X133508666Y-100141710D01*
X133389902Y-100102454D01*
X133281750Y-100090000D01*
X133123000Y-100248750D01*
X133123000Y-100923000D01*
X133197000Y-100923000D01*
X133197000Y-101177000D01*
X133123000Y-101177000D01*
X133123000Y-101197000D01*
X132978824Y-101197000D01*
X132978824Y-100725000D01*
X132977000Y-100706481D01*
X132977000Y-100248750D01*
X132818250Y-100090000D01*
X132789508Y-100093310D01*
X132772399Y-100072462D01*
X132772397Y-100072460D01*
X132756684Y-100053314D01*
X132737538Y-100037601D01*
X132262403Y-99562467D01*
X132246686Y-99543316D01*
X132170247Y-99480583D01*
X132163562Y-99477010D01*
X133096176Y-99477010D01*
X133096176Y-99556250D01*
G37*
%TD.AperFunction*%
D31*
X130798644Y-99480583D02*
X130722205Y-99543316D01*
X130706492Y-99562462D01*
X130493977Y-99774977D01*
X130503824Y-99675000D01*
X130503824Y-99477010D01*
X130805329Y-99477010D01*
X130798644Y-99480583D01*
%TA.AperFunction,Conductor*%
D32*
G36*
X130798644Y-99480583D02*
G01*
X130722205Y-99543316D01*
X130706492Y-99562462D01*
X130493977Y-99774977D01*
X130503824Y-99675000D01*
X130503824Y-99477010D01*
X130805329Y-99477010D01*
X130798644Y-99480583D01*
G37*
%TD.AperFunction*%
%TD*%
M02*
