%TF.GenerationSoftware,KiCad,Pcbnew,(5.1.9-0-10_14)*%
%TF.CreationDate,2021-05-27T14:30:28+01:00*%
%TF.ProjectId,Battery,42617474-6572-4792-9e6b-696361645f70,4*%
%TF.SameCoordinates,Original*%
%TF.FileFunction,Paste,Bot*%
%TF.FilePolarity,Positive*%
%FSLAX46Y46*%
G04 Gerber Fmt 4.6, Leading zero omitted, Abs format (unit mm)*
G04 Created by KiCad (PCBNEW (5.1.9-0-10_14)) date 2021-05-27 14:30:28*
%MOMM*%
%LPD*%
G01*
G04 APERTURE LIST*
%ADD10R,2.000000X0.900000*%
%ADD11R,0.900000X2.000000*%
G04 APERTURE END LIST*
%TO.C,U1*%
G36*
G01*
X128750000Y-105432500D02*
X128750000Y-105897500D01*
G75*
G02*
X128517500Y-106130000I-232500J0D01*
G01*
X128052500Y-106130000D01*
G75*
G02*
X127820000Y-105897500I0J232500D01*
G01*
X127820000Y-105432500D01*
G75*
G02*
X128052500Y-105200000I232500J0D01*
G01*
X128517500Y-105200000D01*
G75*
G02*
X128750000Y-105432500I0J-232500D01*
G01*
G37*
G36*
G01*
X129900000Y-108882500D02*
X129900000Y-109347500D01*
G75*
G02*
X129667500Y-109580000I-232500J0D01*
G01*
X129202500Y-109580000D01*
G75*
G02*
X128970000Y-109347500I0J232500D01*
G01*
X128970000Y-108882500D01*
G75*
G02*
X129202500Y-108650000I232500J0D01*
G01*
X129667500Y-108650000D01*
G75*
G02*
X129900000Y-108882500I0J-232500D01*
G01*
G37*
G36*
G01*
X129900000Y-107732500D02*
X129900000Y-108197500D01*
G75*
G02*
X129667500Y-108430000I-232500J0D01*
G01*
X129202500Y-108430000D01*
G75*
G02*
X128970000Y-108197500I0J232500D01*
G01*
X128970000Y-107732500D01*
G75*
G02*
X129202500Y-107500000I232500J0D01*
G01*
X129667500Y-107500000D01*
G75*
G02*
X129900000Y-107732500I0J-232500D01*
G01*
G37*
G36*
G01*
X129900000Y-106582500D02*
X129900000Y-107047500D01*
G75*
G02*
X129667500Y-107280000I-232500J0D01*
G01*
X129202500Y-107280000D01*
G75*
G02*
X128970000Y-107047500I0J232500D01*
G01*
X128970000Y-106582500D01*
G75*
G02*
X129202500Y-106350000I232500J0D01*
G01*
X129667500Y-106350000D01*
G75*
G02*
X129900000Y-106582500I0J-232500D01*
G01*
G37*
G36*
G01*
X129900000Y-105432500D02*
X129900000Y-105897500D01*
G75*
G02*
X129667500Y-106130000I-232500J0D01*
G01*
X129202500Y-106130000D01*
G75*
G02*
X128970000Y-105897500I0J232500D01*
G01*
X128970000Y-105432500D01*
G75*
G02*
X129202500Y-105200000I232500J0D01*
G01*
X129667500Y-105200000D01*
G75*
G02*
X129900000Y-105432500I0J-232500D01*
G01*
G37*
G36*
G01*
X126450000Y-108882500D02*
X126450000Y-109347500D01*
G75*
G02*
X126217500Y-109580000I-232500J0D01*
G01*
X125752500Y-109580000D01*
G75*
G02*
X125520000Y-109347500I0J232500D01*
G01*
X125520000Y-108882500D01*
G75*
G02*
X125752500Y-108650000I232500J0D01*
G01*
X126217500Y-108650000D01*
G75*
G02*
X126450000Y-108882500I0J-232500D01*
G01*
G37*
G36*
G01*
X126450000Y-107732500D02*
X126450000Y-108197500D01*
G75*
G02*
X126217500Y-108430000I-232500J0D01*
G01*
X125752500Y-108430000D01*
G75*
G02*
X125520000Y-108197500I0J232500D01*
G01*
X125520000Y-107732500D01*
G75*
G02*
X125752500Y-107500000I232500J0D01*
G01*
X126217500Y-107500000D01*
G75*
G02*
X126450000Y-107732500I0J-232500D01*
G01*
G37*
G36*
G01*
X126450000Y-106582500D02*
X126450000Y-107047500D01*
G75*
G02*
X126217500Y-107280000I-232500J0D01*
G01*
X125752500Y-107280000D01*
G75*
G02*
X125520000Y-107047500I0J232500D01*
G01*
X125520000Y-106582500D01*
G75*
G02*
X125752500Y-106350000I232500J0D01*
G01*
X126217500Y-106350000D01*
G75*
G02*
X126450000Y-106582500I0J-232500D01*
G01*
G37*
G36*
G01*
X126450000Y-105432500D02*
X126450000Y-105897500D01*
G75*
G02*
X126217500Y-106130000I-232500J0D01*
G01*
X125752500Y-106130000D01*
G75*
G02*
X125520000Y-105897500I0J232500D01*
G01*
X125520000Y-105432500D01*
G75*
G02*
X125752500Y-105200000I232500J0D01*
G01*
X126217500Y-105200000D01*
G75*
G02*
X126450000Y-105432500I0J-232500D01*
G01*
G37*
G36*
G01*
X127600000Y-108882500D02*
X127600000Y-109347500D01*
G75*
G02*
X127367500Y-109580000I-232500J0D01*
G01*
X126902500Y-109580000D01*
G75*
G02*
X126670000Y-109347500I0J232500D01*
G01*
X126670000Y-108882500D01*
G75*
G02*
X126902500Y-108650000I232500J0D01*
G01*
X127367500Y-108650000D01*
G75*
G02*
X127600000Y-108882500I0J-232500D01*
G01*
G37*
G36*
G01*
X127600000Y-107732500D02*
X127600000Y-108197500D01*
G75*
G02*
X127367500Y-108430000I-232500J0D01*
G01*
X126902500Y-108430000D01*
G75*
G02*
X126670000Y-108197500I0J232500D01*
G01*
X126670000Y-107732500D01*
G75*
G02*
X126902500Y-107500000I232500J0D01*
G01*
X127367500Y-107500000D01*
G75*
G02*
X127600000Y-107732500I0J-232500D01*
G01*
G37*
G36*
G01*
X127600000Y-106582500D02*
X127600000Y-107047500D01*
G75*
G02*
X127367500Y-107280000I-232500J0D01*
G01*
X126902500Y-107280000D01*
G75*
G02*
X126670000Y-107047500I0J232500D01*
G01*
X126670000Y-106582500D01*
G75*
G02*
X126902500Y-106350000I232500J0D01*
G01*
X127367500Y-106350000D01*
G75*
G02*
X127600000Y-106582500I0J-232500D01*
G01*
G37*
G36*
G01*
X127600000Y-105432500D02*
X127600000Y-105897500D01*
G75*
G02*
X127367500Y-106130000I-232500J0D01*
G01*
X126902500Y-106130000D01*
G75*
G02*
X126670000Y-105897500I0J232500D01*
G01*
X126670000Y-105432500D01*
G75*
G02*
X126902500Y-105200000I232500J0D01*
G01*
X127367500Y-105200000D01*
G75*
G02*
X127600000Y-105432500I0J-232500D01*
G01*
G37*
G36*
G01*
X128750000Y-108882500D02*
X128750000Y-109347500D01*
G75*
G02*
X128517500Y-109580000I-232500J0D01*
G01*
X128052500Y-109580000D01*
G75*
G02*
X127820000Y-109347500I0J232500D01*
G01*
X127820000Y-108882500D01*
G75*
G02*
X128052500Y-108650000I232500J0D01*
G01*
X128517500Y-108650000D01*
G75*
G02*
X128750000Y-108882500I0J-232500D01*
G01*
G37*
G36*
G01*
X128750000Y-107732500D02*
X128750000Y-108197500D01*
G75*
G02*
X128517500Y-108430000I-232500J0D01*
G01*
X128052500Y-108430000D01*
G75*
G02*
X127820000Y-108197500I0J232500D01*
G01*
X127820000Y-107732500D01*
G75*
G02*
X128052500Y-107500000I232500J0D01*
G01*
X128517500Y-107500000D01*
G75*
G02*
X128750000Y-107732500I0J-232500D01*
G01*
G37*
G36*
G01*
X128750000Y-106582500D02*
X128750000Y-107047500D01*
G75*
G02*
X128517500Y-107280000I-232500J0D01*
G01*
X128052500Y-107280000D01*
G75*
G02*
X127820000Y-107047500I0J232500D01*
G01*
X127820000Y-106582500D01*
G75*
G02*
X128052500Y-106350000I232500J0D01*
G01*
X128517500Y-106350000D01*
G75*
G02*
X128750000Y-106582500I0J-232500D01*
G01*
G37*
D10*
X118200000Y-99895000D03*
X118200000Y-101165000D03*
X118200000Y-102435000D03*
X118200000Y-103705000D03*
X118200000Y-104975000D03*
X118200000Y-106245000D03*
X118200000Y-107515000D03*
X118200000Y-108785000D03*
X118200000Y-110055000D03*
X118200000Y-111325000D03*
X118200000Y-112595000D03*
X118200000Y-113865000D03*
X118200000Y-115135000D03*
X118200000Y-116405000D03*
D11*
X120985000Y-117405000D03*
X122255000Y-117405000D03*
X123525000Y-117405000D03*
X124795000Y-117405000D03*
X126065000Y-117405000D03*
X127335000Y-117405000D03*
X128605000Y-117405000D03*
X129875000Y-117405000D03*
X131145000Y-117405000D03*
X132415000Y-117405000D03*
D10*
X135200000Y-116405000D03*
X135200000Y-115135000D03*
X135200000Y-113865000D03*
X135200000Y-112595000D03*
X135200000Y-111325000D03*
X135200000Y-110055000D03*
X135200000Y-108785000D03*
X135200000Y-107515000D03*
X135200000Y-106245000D03*
X135200000Y-104975000D03*
X135200000Y-103705000D03*
X135200000Y-102435000D03*
X135200000Y-101165000D03*
X135200000Y-99895000D03*
%TD*%
M02*
