%TF.GenerationSoftware,KiCad,Pcbnew,(5.1.9-0-10_14)*%
%TF.CreationDate,2021-07-10T08:27:23+01:00*%
%TF.ProjectId,Battery,42617474-6572-4792-9e6b-696361645f70,4*%
%TF.SameCoordinates,Original*%
%TF.FileFunction,Copper,L1,Top*%
%TF.FilePolarity,Positive*%
%FSLAX46Y46*%
G04 Gerber Fmt 4.6, Leading zero omitted, Abs format (unit mm)*
G04 Created by KiCad (PCBNEW (5.1.9-0-10_14)) date 2021-07-10 08:27:23*
%MOMM*%
%LPD*%
G01*
G04 APERTURE LIST*
%TA.AperFunction,NonConductor*%
%ADD10C,0.080000*%
%TD*%
%TA.AperFunction,EtchedComponent*%
%ADD11C,0.500000*%
%TD*%
%TA.AperFunction,EtchedComponent*%
%ADD12C,0.250000*%
%TD*%
%TA.AperFunction,SMDPad,CuDef*%
%ADD13R,0.850000X0.500000*%
%TD*%
%TA.AperFunction,SMDPad,CuDef*%
%ADD14R,0.650000X0.400000*%
%TD*%
%TA.AperFunction,ComponentPad*%
%ADD15C,0.350000*%
%TD*%
%TA.AperFunction,SMDPad,CuDef*%
%ADD16C,0.100000*%
%TD*%
%TA.AperFunction,SMDPad,CuDef*%
%ADD17R,0.500000X4.000000*%
%TD*%
%TA.AperFunction,SMDPad,CuDef*%
%ADD18R,0.600000X1.100000*%
%TD*%
%TA.AperFunction,SMDPad,CuDef*%
%ADD19R,1.425000X3.700000*%
%TD*%
%TA.AperFunction,SMDPad,CuDef*%
%ADD20R,0.800000X0.400000*%
%TD*%
%TA.AperFunction,ComponentPad*%
%ADD21O,1.700000X1.700000*%
%TD*%
%TA.AperFunction,ComponentPad*%
%ADD22R,1.700000X1.700000*%
%TD*%
%TA.AperFunction,SMDPad,CuDef*%
%ADD23R,5.490000X5.000000*%
%TD*%
%TA.AperFunction,SMDPad,CuDef*%
%ADD24R,1.140000X0.600000*%
%TD*%
%TA.AperFunction,ComponentPad*%
%ADD25C,1.250000*%
%TD*%
%TA.AperFunction,ComponentPad*%
%ADD26C,1.500000*%
%TD*%
%TA.AperFunction,SMDPad,CuDef*%
%ADD27R,1.140000X0.300000*%
%TD*%
%TA.AperFunction,ComponentPad*%
%ADD28C,0.600000*%
%TD*%
%TA.AperFunction,ViaPad*%
%ADD29C,0.800000*%
%TD*%
%TA.AperFunction,Conductor*%
%ADD30C,0.250000*%
%TD*%
%TA.AperFunction,Conductor*%
%ADD31C,0.500000*%
%TD*%
%TA.AperFunction,Conductor*%
%ADD32C,0.254000*%
%TD*%
%TA.AperFunction,Conductor*%
%ADD33C,0.100000*%
%TD*%
G04 APERTURE END LIST*
D10*
X124071428Y-98873809D02*
X124095238Y-98850000D01*
X124142857Y-98826190D01*
X124261904Y-98826190D01*
X124309523Y-98850000D01*
X124333333Y-98873809D01*
X124357142Y-98921428D01*
X124357142Y-98969047D01*
X124333333Y-99040476D01*
X124047619Y-99326190D01*
X124357142Y-99326190D01*
X124666666Y-98826190D02*
X124714285Y-98826190D01*
X124761904Y-98850000D01*
X124785714Y-98873809D01*
X124809523Y-98921428D01*
X124833333Y-99016666D01*
X124833333Y-99135714D01*
X124809523Y-99230952D01*
X124785714Y-99278571D01*
X124761904Y-99302380D01*
X124714285Y-99326190D01*
X124666666Y-99326190D01*
X124619047Y-99302380D01*
X124595238Y-99278571D01*
X124571428Y-99230952D01*
X124547619Y-99135714D01*
X124547619Y-99016666D01*
X124571428Y-98921428D01*
X124595238Y-98873809D01*
X124619047Y-98850000D01*
X124666666Y-98826190D01*
X125023809Y-98873809D02*
X125047619Y-98850000D01*
X125095238Y-98826190D01*
X125214285Y-98826190D01*
X125261904Y-98850000D01*
X125285714Y-98873809D01*
X125309523Y-98921428D01*
X125309523Y-98969047D01*
X125285714Y-99040476D01*
X125000000Y-99326190D01*
X125309523Y-99326190D01*
X125785714Y-99326190D02*
X125500000Y-99326190D01*
X125642857Y-99326190D02*
X125642857Y-98826190D01*
X125595238Y-98897619D01*
X125547619Y-98945238D01*
X125500000Y-98969047D01*
X126000000Y-99135714D02*
X126380952Y-99135714D01*
X126714285Y-98826190D02*
X126761904Y-98826190D01*
X126809523Y-98850000D01*
X126833333Y-98873809D01*
X126857142Y-98921428D01*
X126880952Y-99016666D01*
X126880952Y-99135714D01*
X126857142Y-99230952D01*
X126833333Y-99278571D01*
X126809523Y-99302380D01*
X126761904Y-99326190D01*
X126714285Y-99326190D01*
X126666666Y-99302380D01*
X126642857Y-99278571D01*
X126619047Y-99230952D01*
X126595238Y-99135714D01*
X126595238Y-99016666D01*
X126619047Y-98921428D01*
X126642857Y-98873809D01*
X126666666Y-98850000D01*
X126714285Y-98826190D01*
X127047619Y-98826190D02*
X127380952Y-98826190D01*
X127166666Y-99326190D01*
X127571428Y-99135714D02*
X127952380Y-99135714D01*
X128452380Y-99326190D02*
X128166666Y-99326190D01*
X128309523Y-99326190D02*
X128309523Y-98826190D01*
X128261904Y-98897619D01*
X128214285Y-98945238D01*
X128166666Y-98969047D01*
X128761904Y-98826190D02*
X128809523Y-98826190D01*
X128857142Y-98850000D01*
X128880952Y-98873809D01*
X128904761Y-98921428D01*
X128928571Y-99016666D01*
X128928571Y-99135714D01*
X128904761Y-99230952D01*
X128880952Y-99278571D01*
X128857142Y-99302380D01*
X128809523Y-99326190D01*
X128761904Y-99326190D01*
X128714285Y-99302380D01*
X128690476Y-99278571D01*
X128666666Y-99230952D01*
X128642857Y-99135714D01*
X128642857Y-99016666D01*
X128666666Y-98921428D01*
X128690476Y-98873809D01*
X128714285Y-98850000D01*
X128761904Y-98826190D01*
D11*
%TO.C,Reg1*%
X131000000Y-104300000D02*
X131000000Y-103100000D01*
X131000000Y-103100000D02*
X132500000Y-103100000D01*
D12*
X128150000Y-102200000D02*
X130650000Y-102200000D01*
X128050000Y-101300000D02*
X130650000Y-101300000D01*
X130650000Y-102200000D02*
G75*
G02*
X131000000Y-102550000I0J-350000D01*
G01*
X131000000Y-100950000D02*
G75*
G02*
X130650000Y-101300000I-350000J0D01*
G01*
%TD*%
D13*
%TO.P,D1,4*%
%TO.N,Net-(D1-Pad4)*%
X120075000Y-99200000D03*
%TO.P,D1,3*%
%TO.N,Net-(D1-Pad3)*%
X118325000Y-99200000D03*
%TO.P,D1,2*%
%TO.N,Net-(D1-Pad2)*%
X118325000Y-100200000D03*
%TO.P,D1,1*%
%TO.N,+3V3*%
X120075000Y-100200000D03*
%TD*%
%TO.P,C5,2*%
%TO.N,GND*%
%TA.AperFunction,SMDPad,CuDef*%
G36*
G01*
X131350000Y-117900000D02*
X131850000Y-117900000D01*
G75*
G02*
X132075000Y-118125000I0J-225000D01*
G01*
X132075000Y-118575000D01*
G75*
G02*
X131850000Y-118800000I-225000J0D01*
G01*
X131350000Y-118800000D01*
G75*
G02*
X131125000Y-118575000I0J225000D01*
G01*
X131125000Y-118125000D01*
G75*
G02*
X131350000Y-117900000I225000J0D01*
G01*
G37*
%TD.AperFunction*%
%TO.P,C5,1*%
%TO.N,Net-(C5-Pad1)*%
%TA.AperFunction,SMDPad,CuDef*%
G36*
G01*
X131350000Y-116350000D02*
X131850000Y-116350000D01*
G75*
G02*
X132075000Y-116575000I0J-225000D01*
G01*
X132075000Y-117025000D01*
G75*
G02*
X131850000Y-117250000I-225000J0D01*
G01*
X131350000Y-117250000D01*
G75*
G02*
X131125000Y-117025000I0J225000D01*
G01*
X131125000Y-116575000D01*
G75*
G02*
X131350000Y-116350000I225000J0D01*
G01*
G37*
%TD.AperFunction*%
%TD*%
%TO.P,C4,2*%
%TO.N,GND*%
%TA.AperFunction,SMDPad,CuDef*%
G36*
G01*
X132550000Y-117900000D02*
X133050000Y-117900000D01*
G75*
G02*
X133275000Y-118125000I0J-225000D01*
G01*
X133275000Y-118575000D01*
G75*
G02*
X133050000Y-118800000I-225000J0D01*
G01*
X132550000Y-118800000D01*
G75*
G02*
X132325000Y-118575000I0J225000D01*
G01*
X132325000Y-118125000D01*
G75*
G02*
X132550000Y-117900000I225000J0D01*
G01*
G37*
%TD.AperFunction*%
%TO.P,C4,1*%
%TO.N,Net-(C4-Pad1)*%
%TA.AperFunction,SMDPad,CuDef*%
G36*
G01*
X132550000Y-116350000D02*
X133050000Y-116350000D01*
G75*
G02*
X133275000Y-116575000I0J-225000D01*
G01*
X133275000Y-117025000D01*
G75*
G02*
X133050000Y-117250000I-225000J0D01*
G01*
X132550000Y-117250000D01*
G75*
G02*
X132325000Y-117025000I0J225000D01*
G01*
X132325000Y-116575000D01*
G75*
G02*
X132550000Y-116350000I225000J0D01*
G01*
G37*
%TD.AperFunction*%
%TD*%
%TO.P,C3,2*%
%TO.N,VBUS*%
%TA.AperFunction,SMDPad,CuDef*%
G36*
G01*
X124025000Y-109550000D02*
X124025000Y-109050000D01*
G75*
G02*
X124250000Y-108825000I225000J0D01*
G01*
X124700000Y-108825000D01*
G75*
G02*
X124925000Y-109050000I0J-225000D01*
G01*
X124925000Y-109550000D01*
G75*
G02*
X124700000Y-109775000I-225000J0D01*
G01*
X124250000Y-109775000D01*
G75*
G02*
X124025000Y-109550000I0J225000D01*
G01*
G37*
%TD.AperFunction*%
%TO.P,C3,1*%
%TO.N,GND*%
%TA.AperFunction,SMDPad,CuDef*%
G36*
G01*
X122475000Y-109550000D02*
X122475000Y-109050000D01*
G75*
G02*
X122700000Y-108825000I225000J0D01*
G01*
X123150000Y-108825000D01*
G75*
G02*
X123375000Y-109050000I0J-225000D01*
G01*
X123375000Y-109550000D01*
G75*
G02*
X123150000Y-109775000I-225000J0D01*
G01*
X122700000Y-109775000D01*
G75*
G02*
X122475000Y-109550000I0J225000D01*
G01*
G37*
%TD.AperFunction*%
%TD*%
%TO.P,R18,2*%
%TO.N,Net-(C5-Pad1)*%
%TA.AperFunction,SMDPad,CuDef*%
G36*
G01*
X125425000Y-114825000D02*
X125975000Y-114825000D01*
G75*
G02*
X126175000Y-115025000I0J-200000D01*
G01*
X126175000Y-115425000D01*
G75*
G02*
X125975000Y-115625000I-200000J0D01*
G01*
X125425000Y-115625000D01*
G75*
G02*
X125225000Y-115425000I0J200000D01*
G01*
X125225000Y-115025000D01*
G75*
G02*
X125425000Y-114825000I200000J0D01*
G01*
G37*
%TD.AperFunction*%
%TO.P,R18,1*%
%TO.N,D+*%
%TA.AperFunction,SMDPad,CuDef*%
G36*
G01*
X125425000Y-113175000D02*
X125975000Y-113175000D01*
G75*
G02*
X126175000Y-113375000I0J-200000D01*
G01*
X126175000Y-113775000D01*
G75*
G02*
X125975000Y-113975000I-200000J0D01*
G01*
X125425000Y-113975000D01*
G75*
G02*
X125225000Y-113775000I0J200000D01*
G01*
X125225000Y-113375000D01*
G75*
G02*
X125425000Y-113175000I200000J0D01*
G01*
G37*
%TD.AperFunction*%
%TD*%
%TO.P,R17,2*%
%TO.N,D-*%
%TA.AperFunction,SMDPad,CuDef*%
G36*
G01*
X127175000Y-113975000D02*
X126625000Y-113975000D01*
G75*
G02*
X126425000Y-113775000I0J200000D01*
G01*
X126425000Y-113375000D01*
G75*
G02*
X126625000Y-113175000I200000J0D01*
G01*
X127175000Y-113175000D01*
G75*
G02*
X127375000Y-113375000I0J-200000D01*
G01*
X127375000Y-113775000D01*
G75*
G02*
X127175000Y-113975000I-200000J0D01*
G01*
G37*
%TD.AperFunction*%
%TO.P,R17,1*%
%TO.N,Net-(C4-Pad1)*%
%TA.AperFunction,SMDPad,CuDef*%
G36*
G01*
X127175000Y-115625000D02*
X126625000Y-115625000D01*
G75*
G02*
X126425000Y-115425000I0J200000D01*
G01*
X126425000Y-115025000D01*
G75*
G02*
X126625000Y-114825000I200000J0D01*
G01*
X127175000Y-114825000D01*
G75*
G02*
X127375000Y-115025000I0J-200000D01*
G01*
X127375000Y-115425000D01*
G75*
G02*
X127175000Y-115625000I-200000J0D01*
G01*
G37*
%TD.AperFunction*%
%TD*%
D14*
%TO.P,D3,6*%
%TO.N,IO1*%
X129400000Y-117150000D03*
%TO.P,D3,4*%
%TO.N,GND*%
X129400000Y-118450000D03*
%TO.P,D3,2*%
%TO.N,+3V3*%
X127500000Y-117800000D03*
%TO.P,D3,5*%
X129400000Y-117800000D03*
%TO.P,D3,3*%
%TO.N,IO2*%
X127500000Y-118450000D03*
%TO.P,D3,1*%
%TO.N,GND*%
X127500000Y-117150000D03*
%TD*%
%TO.P,D4,6*%
%TO.N,IO3*%
X125150000Y-117150000D03*
%TO.P,D4,4*%
%TO.N,GND*%
X125150000Y-118450000D03*
%TO.P,D4,2*%
%TO.N,+3V3*%
X123250000Y-117800000D03*
%TO.P,D4,5*%
X125150000Y-117800000D03*
%TO.P,D4,3*%
%TO.N,IO4*%
X123250000Y-118450000D03*
%TO.P,D4,1*%
%TO.N,GND*%
X123250000Y-117150000D03*
%TD*%
%TO.P,R13,2*%
%TO.N,ADCON*%
%TA.AperFunction,SMDPad,CuDef*%
G36*
G01*
X125225000Y-101675000D02*
X125225000Y-101125000D01*
G75*
G02*
X125425000Y-100925000I200000J0D01*
G01*
X125825000Y-100925000D01*
G75*
G02*
X126025000Y-101125000I0J-200000D01*
G01*
X126025000Y-101675000D01*
G75*
G02*
X125825000Y-101875000I-200000J0D01*
G01*
X125425000Y-101875000D01*
G75*
G02*
X125225000Y-101675000I0J200000D01*
G01*
G37*
%TD.AperFunction*%
%TO.P,R13,1*%
%TO.N,GND*%
%TA.AperFunction,SMDPad,CuDef*%
G36*
G01*
X123575000Y-101675000D02*
X123575000Y-101125000D01*
G75*
G02*
X123775000Y-100925000I200000J0D01*
G01*
X124175000Y-100925000D01*
G75*
G02*
X124375000Y-101125000I0J-200000D01*
G01*
X124375000Y-101675000D01*
G75*
G02*
X124175000Y-101875000I-200000J0D01*
G01*
X123775000Y-101875000D01*
G75*
G02*
X123575000Y-101675000I0J200000D01*
G01*
G37*
%TD.AperFunction*%
%TD*%
%TO.P,R10,2*%
%TO.N,G*%
%TA.AperFunction,SMDPad,CuDef*%
G36*
G01*
X119625000Y-103875000D02*
X119625000Y-103325000D01*
G75*
G02*
X119825000Y-103125000I200000J0D01*
G01*
X120225000Y-103125000D01*
G75*
G02*
X120425000Y-103325000I0J-200000D01*
G01*
X120425000Y-103875000D01*
G75*
G02*
X120225000Y-104075000I-200000J0D01*
G01*
X119825000Y-104075000D01*
G75*
G02*
X119625000Y-103875000I0J200000D01*
G01*
G37*
%TD.AperFunction*%
%TO.P,R10,1*%
%TO.N,Net-(D1-Pad3)*%
%TA.AperFunction,SMDPad,CuDef*%
G36*
G01*
X117975000Y-103875000D02*
X117975000Y-103325000D01*
G75*
G02*
X118175000Y-103125000I200000J0D01*
G01*
X118575000Y-103125000D01*
G75*
G02*
X118775000Y-103325000I0J-200000D01*
G01*
X118775000Y-103875000D01*
G75*
G02*
X118575000Y-104075000I-200000J0D01*
G01*
X118175000Y-104075000D01*
G75*
G02*
X117975000Y-103875000I0J200000D01*
G01*
G37*
%TD.AperFunction*%
%TD*%
%TO.P,R9,2*%
%TO.N,R*%
%TA.AperFunction,SMDPad,CuDef*%
G36*
G01*
X119625000Y-101475000D02*
X119625000Y-100925000D01*
G75*
G02*
X119825000Y-100725000I200000J0D01*
G01*
X120225000Y-100725000D01*
G75*
G02*
X120425000Y-100925000I0J-200000D01*
G01*
X120425000Y-101475000D01*
G75*
G02*
X120225000Y-101675000I-200000J0D01*
G01*
X119825000Y-101675000D01*
G75*
G02*
X119625000Y-101475000I0J200000D01*
G01*
G37*
%TD.AperFunction*%
%TO.P,R9,1*%
%TO.N,Net-(D1-Pad2)*%
%TA.AperFunction,SMDPad,CuDef*%
G36*
G01*
X117975000Y-101475000D02*
X117975000Y-100925000D01*
G75*
G02*
X118175000Y-100725000I200000J0D01*
G01*
X118575000Y-100725000D01*
G75*
G02*
X118775000Y-100925000I0J-200000D01*
G01*
X118775000Y-101475000D01*
G75*
G02*
X118575000Y-101675000I-200000J0D01*
G01*
X118175000Y-101675000D01*
G75*
G02*
X117975000Y-101475000I0J200000D01*
G01*
G37*
%TD.AperFunction*%
%TD*%
D15*
%TO.P,U2,21*%
%TO.N,GND*%
X122700000Y-112700000D03*
%TA.AperFunction,SMDPad,CuDef*%
D16*
G36*
X123700000Y-111700000D02*
G01*
X123700000Y-113700000D01*
X121950000Y-113700000D01*
X121700000Y-113450000D01*
X121700000Y-111700000D01*
X123700000Y-111700000D01*
G37*
%TD.AperFunction*%
%TO.P,U2,20*%
%TO.N,Net-(C2-Pad1)*%
%TA.AperFunction,SMDPad,CuDef*%
G36*
G01*
X121087500Y-113825000D02*
X120512500Y-113825000D01*
G75*
G02*
X120450000Y-113762500I0J62500D01*
G01*
X120450000Y-113637500D01*
G75*
G02*
X120512500Y-113575000I62500J0D01*
G01*
X121087500Y-113575000D01*
G75*
G02*
X121150000Y-113637500I0J-62500D01*
G01*
X121150000Y-113762500D01*
G75*
G02*
X121087500Y-113825000I-62500J0D01*
G01*
G37*
%TD.AperFunction*%
%TO.P,U2,19*%
%TO.N,EN*%
%TA.AperFunction,SMDPad,CuDef*%
G36*
G01*
X121087500Y-113325000D02*
X120512500Y-113325000D01*
G75*
G02*
X120450000Y-113262500I0J62500D01*
G01*
X120450000Y-113137500D01*
G75*
G02*
X120512500Y-113075000I62500J0D01*
G01*
X121087500Y-113075000D01*
G75*
G02*
X121150000Y-113137500I0J-62500D01*
G01*
X121150000Y-113262500D01*
G75*
G02*
X121087500Y-113325000I-62500J0D01*
G01*
G37*
%TD.AperFunction*%
%TO.P,U2,18*%
%TO.N,GPIO0*%
%TA.AperFunction,SMDPad,CuDef*%
G36*
G01*
X121087500Y-112825000D02*
X120512500Y-112825000D01*
G75*
G02*
X120450000Y-112762500I0J62500D01*
G01*
X120450000Y-112637500D01*
G75*
G02*
X120512500Y-112575000I62500J0D01*
G01*
X121087500Y-112575000D01*
G75*
G02*
X121150000Y-112637500I0J-62500D01*
G01*
X121150000Y-112762500D01*
G75*
G02*
X121087500Y-112825000I-62500J0D01*
G01*
G37*
%TD.AperFunction*%
%TO.P,U2,17*%
%TO.N,I*%
%TA.AperFunction,SMDPad,CuDef*%
G36*
G01*
X121087500Y-112325000D02*
X120512500Y-112325000D01*
G75*
G02*
X120450000Y-112262500I0J62500D01*
G01*
X120450000Y-112137500D01*
G75*
G02*
X120512500Y-112075000I62500J0D01*
G01*
X121087500Y-112075000D01*
G75*
G02*
X121150000Y-112137500I0J-62500D01*
G01*
X121150000Y-112262500D01*
G75*
G02*
X121087500Y-112325000I-62500J0D01*
G01*
G37*
%TD.AperFunction*%
%TO.P,U2,16*%
%TO.N,Net-(U2-Pad16)*%
%TA.AperFunction,SMDPad,CuDef*%
G36*
G01*
X121087500Y-111825000D02*
X120512500Y-111825000D01*
G75*
G02*
X120450000Y-111762500I0J62500D01*
G01*
X120450000Y-111637500D01*
G75*
G02*
X120512500Y-111575000I62500J0D01*
G01*
X121087500Y-111575000D01*
G75*
G02*
X121150000Y-111637500I0J-62500D01*
G01*
X121150000Y-111762500D01*
G75*
G02*
X121087500Y-111825000I-62500J0D01*
G01*
G37*
%TD.AperFunction*%
%TO.P,U2,15*%
%TO.N,USB*%
%TA.AperFunction,SMDPad,CuDef*%
G36*
G01*
X121762500Y-111150000D02*
X121637500Y-111150000D01*
G75*
G02*
X121575000Y-111087500I0J62500D01*
G01*
X121575000Y-110512500D01*
G75*
G02*
X121637500Y-110450000I62500J0D01*
G01*
X121762500Y-110450000D01*
G75*
G02*
X121825000Y-110512500I0J-62500D01*
G01*
X121825000Y-111087500D01*
G75*
G02*
X121762500Y-111150000I-62500J0D01*
G01*
G37*
%TD.AperFunction*%
%TO.P,U2,14*%
%TO.N,CHARGER*%
%TA.AperFunction,SMDPad,CuDef*%
G36*
G01*
X122262500Y-111150000D02*
X122137500Y-111150000D01*
G75*
G02*
X122075000Y-111087500I0J62500D01*
G01*
X122075000Y-110512500D01*
G75*
G02*
X122137500Y-110450000I62500J0D01*
G01*
X122262500Y-110450000D01*
G75*
G02*
X122325000Y-110512500I0J-62500D01*
G01*
X122325000Y-111087500D01*
G75*
G02*
X122262500Y-111150000I-62500J0D01*
G01*
G37*
%TD.AperFunction*%
%TO.P,U2,13*%
%TO.N,GND*%
%TA.AperFunction,SMDPad,CuDef*%
G36*
G01*
X122762500Y-111150000D02*
X122637500Y-111150000D01*
G75*
G02*
X122575000Y-111087500I0J62500D01*
G01*
X122575000Y-110512500D01*
G75*
G02*
X122637500Y-110450000I62500J0D01*
G01*
X122762500Y-110450000D01*
G75*
G02*
X122825000Y-110512500I0J-62500D01*
G01*
X122825000Y-111087500D01*
G75*
G02*
X122762500Y-111150000I-62500J0D01*
G01*
G37*
%TD.AperFunction*%
%TO.P,U2,12*%
%TO.N,VBUS*%
%TA.AperFunction,SMDPad,CuDef*%
G36*
G01*
X123262500Y-111150000D02*
X123137500Y-111150000D01*
G75*
G02*
X123075000Y-111087500I0J62500D01*
G01*
X123075000Y-110512500D01*
G75*
G02*
X123137500Y-110450000I62500J0D01*
G01*
X123262500Y-110450000D01*
G75*
G02*
X123325000Y-110512500I0J-62500D01*
G01*
X123325000Y-111087500D01*
G75*
G02*
X123262500Y-111150000I-62500J0D01*
G01*
G37*
%TD.AperFunction*%
%TO.P,U2,11*%
%TO.N,Net-(C2-Pad1)*%
%TA.AperFunction,SMDPad,CuDef*%
G36*
G01*
X123762500Y-111150000D02*
X123637500Y-111150000D01*
G75*
G02*
X123575000Y-111087500I0J62500D01*
G01*
X123575000Y-110512500D01*
G75*
G02*
X123637500Y-110450000I62500J0D01*
G01*
X123762500Y-110450000D01*
G75*
G02*
X123825000Y-110512500I0J-62500D01*
G01*
X123825000Y-111087500D01*
G75*
G02*
X123762500Y-111150000I-62500J0D01*
G01*
G37*
%TD.AperFunction*%
%TO.P,U2,10*%
%TA.AperFunction,SMDPad,CuDef*%
G36*
G01*
X124887500Y-111825000D02*
X124312500Y-111825000D01*
G75*
G02*
X124250000Y-111762500I0J62500D01*
G01*
X124250000Y-111637500D01*
G75*
G02*
X124312500Y-111575000I62500J0D01*
G01*
X124887500Y-111575000D01*
G75*
G02*
X124950000Y-111637500I0J-62500D01*
G01*
X124950000Y-111762500D01*
G75*
G02*
X124887500Y-111825000I-62500J0D01*
G01*
G37*
%TD.AperFunction*%
%TO.P,U2,9*%
%TO.N,D-*%
%TA.AperFunction,SMDPad,CuDef*%
G36*
G01*
X124887500Y-112325000D02*
X124312500Y-112325000D01*
G75*
G02*
X124250000Y-112262500I0J62500D01*
G01*
X124250000Y-112137500D01*
G75*
G02*
X124312500Y-112075000I62500J0D01*
G01*
X124887500Y-112075000D01*
G75*
G02*
X124950000Y-112137500I0J-62500D01*
G01*
X124950000Y-112262500D01*
G75*
G02*
X124887500Y-112325000I-62500J0D01*
G01*
G37*
%TD.AperFunction*%
%TO.P,U2,8*%
%TO.N,D+*%
%TA.AperFunction,SMDPad,CuDef*%
G36*
G01*
X124887500Y-112825000D02*
X124312500Y-112825000D01*
G75*
G02*
X124250000Y-112762500I0J62500D01*
G01*
X124250000Y-112637500D01*
G75*
G02*
X124312500Y-112575000I62500J0D01*
G01*
X124887500Y-112575000D01*
G75*
G02*
X124950000Y-112637500I0J-62500D01*
G01*
X124950000Y-112762500D01*
G75*
G02*
X124887500Y-112825000I-62500J0D01*
G01*
G37*
%TD.AperFunction*%
%TO.P,U2,7*%
%TO.N,Net-(U2-Pad7)*%
%TA.AperFunction,SMDPad,CuDef*%
G36*
G01*
X124887500Y-113325000D02*
X124312500Y-113325000D01*
G75*
G02*
X124250000Y-113262500I0J62500D01*
G01*
X124250000Y-113137500D01*
G75*
G02*
X124312500Y-113075000I62500J0D01*
G01*
X124887500Y-113075000D01*
G75*
G02*
X124950000Y-113137500I0J-62500D01*
G01*
X124950000Y-113262500D01*
G75*
G02*
X124887500Y-113325000I-62500J0D01*
G01*
G37*
%TD.AperFunction*%
%TO.P,U2,6*%
%TO.N,GND*%
%TA.AperFunction,SMDPad,CuDef*%
G36*
G01*
X124887500Y-113825000D02*
X124312500Y-113825000D01*
G75*
G02*
X124250000Y-113762500I0J62500D01*
G01*
X124250000Y-113637500D01*
G75*
G02*
X124312500Y-113575000I62500J0D01*
G01*
X124887500Y-113575000D01*
G75*
G02*
X124950000Y-113637500I0J-62500D01*
G01*
X124950000Y-113762500D01*
G75*
G02*
X124887500Y-113825000I-62500J0D01*
G01*
G37*
%TD.AperFunction*%
%TO.P,U2,5*%
%TA.AperFunction,SMDPad,CuDef*%
G36*
G01*
X123762500Y-114950000D02*
X123637500Y-114950000D01*
G75*
G02*
X123575000Y-114887500I0J62500D01*
G01*
X123575000Y-114312500D01*
G75*
G02*
X123637500Y-114250000I62500J0D01*
G01*
X123762500Y-114250000D01*
G75*
G02*
X123825000Y-114312500I0J-62500D01*
G01*
X123825000Y-114887500D01*
G75*
G02*
X123762500Y-114950000I-62500J0D01*
G01*
G37*
%TD.AperFunction*%
%TO.P,U2,4*%
%TA.AperFunction,SMDPad,CuDef*%
G36*
G01*
X123262500Y-114950000D02*
X123137500Y-114950000D01*
G75*
G02*
X123075000Y-114887500I0J62500D01*
G01*
X123075000Y-114312500D01*
G75*
G02*
X123137500Y-114250000I62500J0D01*
G01*
X123262500Y-114250000D01*
G75*
G02*
X123325000Y-114312500I0J-62500D01*
G01*
X123325000Y-114887500D01*
G75*
G02*
X123262500Y-114950000I-62500J0D01*
G01*
G37*
%TD.AperFunction*%
%TO.P,U2,3*%
%TA.AperFunction,SMDPad,CuDef*%
G36*
G01*
X122762500Y-114950000D02*
X122637500Y-114950000D01*
G75*
G02*
X122575000Y-114887500I0J62500D01*
G01*
X122575000Y-114312500D01*
G75*
G02*
X122637500Y-114250000I62500J0D01*
G01*
X122762500Y-114250000D01*
G75*
G02*
X122825000Y-114312500I0J-62500D01*
G01*
X122825000Y-114887500D01*
G75*
G02*
X122762500Y-114950000I-62500J0D01*
G01*
G37*
%TD.AperFunction*%
%TO.P,U2,2*%
%TA.AperFunction,SMDPad,CuDef*%
G36*
G01*
X122262500Y-114950000D02*
X122137500Y-114950000D01*
G75*
G02*
X122075000Y-114887500I0J62500D01*
G01*
X122075000Y-114312500D01*
G75*
G02*
X122137500Y-114250000I62500J0D01*
G01*
X122262500Y-114250000D01*
G75*
G02*
X122325000Y-114312500I0J-62500D01*
G01*
X122325000Y-114887500D01*
G75*
G02*
X122262500Y-114950000I-62500J0D01*
G01*
G37*
%TD.AperFunction*%
%TO.P,U2,1*%
%TO.N,O*%
%TA.AperFunction,SMDPad,CuDef*%
G36*
G01*
X121762500Y-114950000D02*
X121637500Y-114950000D01*
G75*
G02*
X121575000Y-114887500I0J62500D01*
G01*
X121575000Y-114312500D01*
G75*
G02*
X121637500Y-114250000I62500J0D01*
G01*
X121762500Y-114250000D01*
G75*
G02*
X121825000Y-114312500I0J-62500D01*
G01*
X121825000Y-114887500D01*
G75*
G02*
X121762500Y-114950000I-62500J0D01*
G01*
G37*
%TD.AperFunction*%
%TD*%
D14*
%TO.P,U3,6*%
%TO.N,Net-(R14-Pad1)*%
X125750000Y-103050000D03*
%TO.P,U3,4*%
%TO.N,DC*%
X125750000Y-104350000D03*
%TO.P,U3,2*%
%TO.N,ADCON*%
X123850000Y-103700000D03*
%TO.P,U3,5*%
%TO.N,Net-(R14-Pad1)*%
X125750000Y-103700000D03*
%TO.P,U3,3*%
%TO.N,Net-(R15-Pad1)*%
X123850000Y-104350000D03*
%TO.P,U3,1*%
%TO.N,GND*%
X123850000Y-103050000D03*
%TD*%
%TO.P,C2,2*%
%TO.N,GND*%
%TA.AperFunction,SMDPad,CuDef*%
G36*
G01*
X119653033Y-115706587D02*
X120006587Y-115353033D01*
G75*
G02*
X120324785Y-115353033I159099J-159099D01*
G01*
X120642983Y-115671231D01*
G75*
G02*
X120642983Y-115989429I-159099J-159099D01*
G01*
X120289429Y-116342983D01*
G75*
G02*
X119971231Y-116342983I-159099J159099D01*
G01*
X119653033Y-116024785D01*
G75*
G02*
X119653033Y-115706587I159099J159099D01*
G01*
G37*
%TD.AperFunction*%
%TO.P,C2,1*%
%TO.N,Net-(C2-Pad1)*%
%TA.AperFunction,SMDPad,CuDef*%
G36*
G01*
X118557017Y-114610571D02*
X118910571Y-114257017D01*
G75*
G02*
X119228769Y-114257017I159099J-159099D01*
G01*
X119546967Y-114575215D01*
G75*
G02*
X119546967Y-114893413I-159099J-159099D01*
G01*
X119193413Y-115246967D01*
G75*
G02*
X118875215Y-115246967I-159099J159099D01*
G01*
X118557017Y-114928769D01*
G75*
G02*
X118557017Y-114610571I159099J159099D01*
G01*
G37*
%TD.AperFunction*%
%TD*%
%TA.AperFunction,SMDPad,CuDef*%
D16*
%TO.P,Reg1,4*%
%TO.N,+3V3*%
G36*
X133741745Y-98700012D02*
G01*
X133743925Y-98700149D01*
X133746106Y-98700149D01*
X133855399Y-98705494D01*
X133857142Y-98705591D01*
X133862396Y-98706181D01*
X133867554Y-98706686D01*
X133975803Y-98722671D01*
X133977527Y-98722938D01*
X133982653Y-98724027D01*
X133987782Y-98725043D01*
X134093956Y-98751515D01*
X134095646Y-98751949D01*
X134100632Y-98753531D01*
X134105647Y-98755045D01*
X134208724Y-98791749D01*
X134208731Y-98791751D01*
X134208738Y-98791754D01*
X134210370Y-98792347D01*
X134215193Y-98794415D01*
X134220022Y-98796405D01*
X134319032Y-98842996D01*
X134320606Y-98843750D01*
X134325246Y-98846301D01*
X134329813Y-98848729D01*
X134423804Y-98904758D01*
X134425297Y-98905662D01*
X134429597Y-98908606D01*
X134433977Y-98911516D01*
X134522050Y-98976450D01*
X134523448Y-98977495D01*
X134527465Y-98980866D01*
X134531515Y-98984169D01*
X134612832Y-99057388D01*
X134614120Y-99058565D01*
X134617802Y-99062325D01*
X134621496Y-99065993D01*
X134695282Y-99146797D01*
X134696450Y-99148094D01*
X134699731Y-99152175D01*
X134703067Y-99156207D01*
X134768613Y-99243826D01*
X134769649Y-99245230D01*
X134772520Y-99249618D01*
X134775443Y-99253951D01*
X134832127Y-99347548D01*
X134833020Y-99349046D01*
X134835444Y-99353683D01*
X134837935Y-99358290D01*
X134885216Y-99456972D01*
X134885959Y-99458551D01*
X134887913Y-99463388D01*
X134889949Y-99468230D01*
X134927374Y-99571054D01*
X134927959Y-99572698D01*
X134929444Y-99577744D01*
X134930985Y-99582721D01*
X134958197Y-99688708D01*
X134958619Y-99690401D01*
X134959606Y-99695574D01*
X134960652Y-99700669D01*
X134977393Y-99808804D01*
X134977648Y-99810530D01*
X134978120Y-99815721D01*
X134978670Y-99820951D01*
X134984418Y-99923771D01*
X135569120Y-101762112D01*
X135569637Y-101763779D01*
X135572601Y-101775627D01*
X135574394Y-101787707D01*
X135575000Y-101799904D01*
X135574413Y-101812103D01*
X135572637Y-101824185D01*
X135569692Y-101836037D01*
X135565605Y-101847545D01*
X135560413Y-101858599D01*
X135554167Y-101869094D01*
X135546928Y-101878930D01*
X135538763Y-101888011D01*
X135529752Y-101896253D01*
X135519978Y-101903575D01*
X135509537Y-101909910D01*
X135498527Y-101915196D01*
X135487054Y-101919381D01*
X135475228Y-101922427D01*
X135463161Y-101924305D01*
X135450968Y-101924996D01*
X135438766Y-101924494D01*
X135426671Y-101922803D01*
X135414799Y-101919941D01*
X135403262Y-101915933D01*
X135392173Y-101910819D01*
X135381634Y-101904648D01*
X135371749Y-101897477D01*
X135362611Y-101889375D01*
X135354306Y-101880421D01*
X135346915Y-101870699D01*
X135340508Y-101860302D01*
X135335146Y-101849330D01*
X135330880Y-101837887D01*
X134740880Y-99982887D01*
X134740479Y-99981595D01*
X134740460Y-99981542D01*
X134740448Y-99981497D01*
X134740363Y-99981221D01*
X134738867Y-99975241D01*
X134737466Y-99969702D01*
X134737443Y-99969547D01*
X134737399Y-99969373D01*
X134736483Y-99963201D01*
X134735640Y-99957627D01*
X134735632Y-99957465D01*
X134735606Y-99957293D01*
X134735304Y-99951214D01*
X134735001Y-99945432D01*
X134734985Y-99940891D01*
X134729401Y-99841007D01*
X134714532Y-99744963D01*
X134690361Y-99650820D01*
X134657114Y-99559476D01*
X134615119Y-99471827D01*
X134564767Y-99388684D01*
X134506543Y-99310856D01*
X134441007Y-99239084D01*
X134368771Y-99174042D01*
X134290539Y-99116366D01*
X134207054Y-99066599D01*
X134119106Y-99025213D01*
X134027547Y-98992611D01*
X133933233Y-98969096D01*
X133837082Y-98954897D01*
X133736941Y-98950000D01*
X130395142Y-98950000D01*
X130390891Y-98950015D01*
X130291007Y-98955599D01*
X130194963Y-98970468D01*
X130100820Y-98994639D01*
X130009476Y-99027886D01*
X129921827Y-99069881D01*
X129838684Y-99120233D01*
X129760856Y-99178457D01*
X129689084Y-99243993D01*
X129624042Y-99316229D01*
X129566366Y-99394461D01*
X129516599Y-99477946D01*
X129475213Y-99565894D01*
X129442611Y-99657453D01*
X129419096Y-99751767D01*
X129404897Y-99847918D01*
X129400000Y-99948059D01*
X129400000Y-100950000D01*
X128800000Y-100950000D01*
X128800000Y-99850000D01*
X129154496Y-99850000D01*
X129155494Y-99829601D01*
X129155591Y-99827858D01*
X129156184Y-99822573D01*
X129156686Y-99817446D01*
X129172671Y-99709197D01*
X129172938Y-99707473D01*
X129174027Y-99702347D01*
X129175043Y-99697218D01*
X129201515Y-99591044D01*
X129201949Y-99589354D01*
X129203531Y-99584368D01*
X129205045Y-99579353D01*
X129241751Y-99476270D01*
X129242347Y-99474630D01*
X129244415Y-99469807D01*
X129246405Y-99464978D01*
X129292996Y-99365968D01*
X129293750Y-99364394D01*
X129296301Y-99359754D01*
X129298729Y-99355187D01*
X129354758Y-99261196D01*
X129355662Y-99259703D01*
X129358606Y-99255403D01*
X129361516Y-99251023D01*
X129426450Y-99162950D01*
X129427495Y-99161552D01*
X129430866Y-99157535D01*
X129434169Y-99153485D01*
X129507388Y-99072168D01*
X129508565Y-99070880D01*
X129512325Y-99067198D01*
X129515993Y-99063504D01*
X129596797Y-98989718D01*
X129598094Y-98988550D01*
X129602175Y-98985269D01*
X129606207Y-98981933D01*
X129693826Y-98916387D01*
X129695230Y-98915351D01*
X129699618Y-98912480D01*
X129703951Y-98909557D01*
X129797548Y-98852873D01*
X129799046Y-98851980D01*
X129803683Y-98849556D01*
X129808290Y-98847065D01*
X129906972Y-98799784D01*
X129908551Y-98799041D01*
X129913388Y-98797087D01*
X129918230Y-98795051D01*
X130021054Y-98757626D01*
X130022698Y-98757041D01*
X130027744Y-98755556D01*
X130032721Y-98754015D01*
X130138708Y-98726803D01*
X130140401Y-98726381D01*
X130145574Y-98725394D01*
X130150669Y-98724348D01*
X130258804Y-98707607D01*
X130260530Y-98707352D01*
X130265744Y-98706877D01*
X130270951Y-98706330D01*
X130380204Y-98700222D01*
X130381947Y-98700136D01*
X130384363Y-98700153D01*
X130386749Y-98700028D01*
X130394568Y-98700001D01*
X130394953Y-98700002D01*
X130395000Y-98700000D01*
X133740000Y-98700000D01*
X133741745Y-98700012D01*
G37*
%TD.AperFunction*%
%TA.AperFunction,SMDPad,CuDef*%
%TO.P,Reg1,2*%
%TO.N,DC*%
G36*
X130003956Y-103050389D02*
G01*
X130028247Y-103052943D01*
X130052173Y-103057854D01*
X130075506Y-103065076D01*
X130098022Y-103074542D01*
X130119508Y-103086159D01*
X130139756Y-103099818D01*
X130158576Y-103115387D01*
X130175787Y-103132717D01*
X130191224Y-103151646D01*
X130204740Y-103171990D01*
X130216207Y-103193556D01*
X130225515Y-103216137D01*
X130232574Y-103239520D01*
X130237318Y-103263480D01*
X130239702Y-103287788D01*
X130239702Y-103312213D01*
X130234929Y-103409776D01*
X130234929Y-103409795D01*
X130234927Y-103409817D01*
X130234734Y-103413282D01*
X130233566Y-103423698D01*
X130232545Y-103434103D01*
X130218273Y-103530754D01*
X130217739Y-103534204D01*
X130215564Y-103544436D01*
X130213529Y-103554715D01*
X130189893Y-103649513D01*
X130189025Y-103652894D01*
X130185863Y-103662859D01*
X130182834Y-103672894D01*
X130150061Y-103764932D01*
X130148867Y-103768213D01*
X130144739Y-103777844D01*
X130140754Y-103787513D01*
X130099156Y-103875915D01*
X130097647Y-103879064D01*
X130092589Y-103888264D01*
X130087687Y-103897484D01*
X130037660Y-103981404D01*
X130035852Y-103984390D01*
X130029914Y-103993062D01*
X130024143Y-104001748D01*
X129966176Y-104080371D01*
X129966169Y-104080382D01*
X129966160Y-104080393D01*
X129964076Y-104083181D01*
X129957341Y-104091207D01*
X129950731Y-104099311D01*
X129885365Y-104171908D01*
X129885357Y-104171917D01*
X129885347Y-104171927D01*
X129883005Y-104174494D01*
X129875494Y-104181849D01*
X129868146Y-104189248D01*
X129796010Y-104255117D01*
X129796001Y-104255126D01*
X129795990Y-104255135D01*
X129793405Y-104257463D01*
X129785263Y-104264009D01*
X129777181Y-104270695D01*
X129698950Y-104329220D01*
X129696140Y-104331292D01*
X129687368Y-104337032D01*
X129678700Y-104342879D01*
X129595140Y-104393484D01*
X129595131Y-104393490D01*
X129595120Y-104393496D01*
X129592132Y-104395278D01*
X129582842Y-104400134D01*
X129573645Y-104405107D01*
X129485553Y-104447313D01*
X129485537Y-104447322D01*
X129485517Y-104447330D01*
X129482378Y-104448808D01*
X129472671Y-104452730D01*
X129463020Y-104456786D01*
X129371219Y-104490198D01*
X129371213Y-104490201D01*
X129371205Y-104490203D01*
X129367923Y-104491373D01*
X129357875Y-104494330D01*
X129347880Y-104497424D01*
X129253251Y-104521721D01*
X129249864Y-104522566D01*
X129239553Y-104524533D01*
X129229325Y-104526632D01*
X129132775Y-104541579D01*
X129129322Y-104542089D01*
X129118875Y-104543040D01*
X129108484Y-104544132D01*
X129010937Y-104549586D01*
X129007450Y-104549757D01*
X129002646Y-104549723D01*
X128997840Y-104549975D01*
X128990859Y-104549999D01*
X128987368Y-104549987D01*
X128962987Y-104548536D01*
X128938863Y-104544714D01*
X128915228Y-104538556D01*
X128892306Y-104530121D01*
X128870316Y-104519490D01*
X128849468Y-104506762D01*
X128829962Y-104492062D01*
X128811984Y-104475529D01*
X128795706Y-104457320D01*
X128781281Y-104437609D01*
X128768848Y-104416585D01*
X128758527Y-104394448D01*
X128750416Y-104371409D01*
X128744590Y-104347689D01*
X128741108Y-104323514D01*
X128740001Y-104299114D01*
X128741282Y-104274723D01*
X128744935Y-104250573D01*
X128750927Y-104226894D01*
X128759202Y-104203914D01*
X128769681Y-104181851D01*
X128782262Y-104160915D01*
X128796825Y-104141307D01*
X128813232Y-104123214D01*
X128831328Y-104106808D01*
X128850937Y-104092247D01*
X128871874Y-104079668D01*
X128893938Y-104069192D01*
X128916920Y-104060920D01*
X128940598Y-104054929D01*
X128964749Y-104051278D01*
X128989141Y-104050001D01*
X128989580Y-104049999D01*
X129068362Y-104045595D01*
X129140744Y-104034389D01*
X129211700Y-104016171D01*
X129280527Y-103991119D01*
X129346585Y-103959469D01*
X129409224Y-103921534D01*
X129467879Y-103877653D01*
X129521968Y-103828264D01*
X129570975Y-103773835D01*
X129614445Y-103714873D01*
X129651944Y-103651969D01*
X129683133Y-103585689D01*
X129707703Y-103516687D01*
X129725424Y-103445613D01*
X129736123Y-103373155D01*
X129740299Y-103287786D01*
X129740493Y-103284301D01*
X129743216Y-103260029D01*
X129748294Y-103236137D01*
X129755680Y-103212856D01*
X129765302Y-103190406D01*
X129777068Y-103169003D01*
X129790869Y-103148849D01*
X129806568Y-103130139D01*
X129824019Y-103113050D01*
X129843054Y-103097745D01*
X129863492Y-103084371D01*
X129885138Y-103073055D01*
X129907784Y-103063905D01*
X129931216Y-103057010D01*
X129955208Y-103052432D01*
X129979532Y-103050219D01*
X130003956Y-103050389D01*
G37*
%TD.AperFunction*%
%TA.AperFunction,SMDPad,CuDef*%
%TO.P,Reg1,3*%
%TO.N,GND*%
G36*
X133503491Y-99150024D02*
G01*
X133507858Y-99150299D01*
X133512214Y-99150299D01*
X133556107Y-99152446D01*
X133556121Y-99152446D01*
X133556137Y-99152448D01*
X133559613Y-99152641D01*
X133570056Y-99153813D01*
X133580430Y-99154830D01*
X133623919Y-99161251D01*
X133623925Y-99161252D01*
X133623932Y-99161253D01*
X133627374Y-99161785D01*
X133637668Y-99163973D01*
X133647885Y-99165996D01*
X133690528Y-99176628D01*
X133690543Y-99176631D01*
X133690559Y-99176636D01*
X133693926Y-99177500D01*
X133703902Y-99180665D01*
X133713925Y-99183691D01*
X133755343Y-99198439D01*
X133755349Y-99198441D01*
X133755353Y-99198443D01*
X133758624Y-99199633D01*
X133768236Y-99203753D01*
X133777931Y-99207749D01*
X133817712Y-99226469D01*
X133820860Y-99227978D01*
X133830028Y-99233018D01*
X133839269Y-99237932D01*
X133877033Y-99260443D01*
X133880019Y-99262251D01*
X133888676Y-99268178D01*
X133897382Y-99273963D01*
X133932751Y-99300039D01*
X133932768Y-99300051D01*
X133932786Y-99300066D01*
X133935565Y-99302144D01*
X133943575Y-99308865D01*
X133951696Y-99315489D01*
X133984368Y-99344907D01*
X133986946Y-99347261D01*
X133994260Y-99354730D01*
X134001698Y-99362116D01*
X134031333Y-99394571D01*
X134031345Y-99394583D01*
X134031357Y-99394598D01*
X134033680Y-99397176D01*
X134040243Y-99405339D01*
X134046914Y-99413403D01*
X134073250Y-99448607D01*
X134075322Y-99451417D01*
X134081058Y-99460184D01*
X134086908Y-99468856D01*
X134109683Y-99506462D01*
X134111471Y-99509461D01*
X134116307Y-99518712D01*
X134121302Y-99527950D01*
X134140298Y-99567600D01*
X134141784Y-99570758D01*
X134145704Y-99580461D01*
X134149761Y-99590111D01*
X134164791Y-99631406D01*
X134164798Y-99631424D01*
X134164805Y-99631445D01*
X134165969Y-99634713D01*
X134168932Y-99644782D01*
X134172020Y-99654757D01*
X134182951Y-99697328D01*
X134182955Y-99697342D01*
X134182958Y-99697359D01*
X134183799Y-99700728D01*
X134185761Y-99711014D01*
X134187866Y-99721268D01*
X134194592Y-99764716D01*
X134195102Y-99768169D01*
X134196053Y-99778620D01*
X134197145Y-99789008D01*
X134199599Y-99832904D01*
X134199770Y-99836391D01*
X134199736Y-99841199D01*
X134199987Y-99845983D01*
X134199998Y-99849125D01*
X134199996Y-99849909D01*
X134200000Y-99850000D01*
X134200000Y-104650000D01*
X134199976Y-104653491D01*
X134198442Y-104677867D01*
X134194537Y-104701978D01*
X134188298Y-104725592D01*
X134179784Y-104748485D01*
X134169077Y-104770438D01*
X134156278Y-104791242D01*
X134141511Y-104810697D01*
X134124916Y-104828618D01*
X134106651Y-104844834D01*
X134086891Y-104859191D01*
X134065824Y-104871551D01*
X134062500Y-104873087D01*
X134062500Y-106000000D01*
X135550000Y-106000000D01*
X135553491Y-106000024D01*
X135577867Y-106001558D01*
X135601978Y-106005463D01*
X135625592Y-106011702D01*
X135648485Y-106020216D01*
X135670438Y-106030923D01*
X135691242Y-106043722D01*
X135710697Y-106058489D01*
X135728618Y-106075084D01*
X135744834Y-106093349D01*
X135759191Y-106113109D01*
X135771551Y-106134176D01*
X135781796Y-106156348D01*
X135789828Y-106179415D01*
X135795572Y-106203155D01*
X135798971Y-106227342D01*
X135799994Y-106251745D01*
X135798630Y-106276132D01*
X135794894Y-106300269D01*
X135788820Y-106323927D01*
X135780466Y-106346879D01*
X135769912Y-106368906D01*
X135757259Y-106389798D01*
X135742628Y-106409356D01*
X135726159Y-106427393D01*
X135708007Y-106443736D01*
X135688348Y-106458230D01*
X135667368Y-106470737D01*
X135645268Y-106481137D01*
X135622258Y-106489330D01*
X135598559Y-106495239D01*
X135574396Y-106498807D01*
X135550000Y-106500000D01*
X128950000Y-106500000D01*
X128946509Y-106499976D01*
X128922133Y-106498442D01*
X128898022Y-106494537D01*
X128874408Y-106488298D01*
X128851515Y-106479784D01*
X128829562Y-106469077D01*
X128808758Y-106456278D01*
X128789303Y-106441511D01*
X128771382Y-106424916D01*
X128755166Y-106406651D01*
X128740809Y-106386891D01*
X128728449Y-106365824D01*
X128718204Y-106343652D01*
X128710172Y-106320585D01*
X128704428Y-106296845D01*
X128701029Y-106272658D01*
X128700006Y-106248255D01*
X128701370Y-106223868D01*
X128705106Y-106199731D01*
X128711180Y-106176073D01*
X128719534Y-106153121D01*
X128730088Y-106131094D01*
X128742741Y-106110202D01*
X128757372Y-106090644D01*
X128773841Y-106072607D01*
X128791993Y-106056264D01*
X128811652Y-106041770D01*
X128832632Y-106029263D01*
X128854732Y-106018863D01*
X128877742Y-106010670D01*
X128901441Y-106004761D01*
X128925604Y-106001193D01*
X128950000Y-106000000D01*
X133562500Y-106000000D01*
X133562500Y-104650000D01*
X133562524Y-104646509D01*
X133564058Y-104622133D01*
X133567963Y-104598022D01*
X133574202Y-104574408D01*
X133582716Y-104551515D01*
X133593423Y-104529562D01*
X133606222Y-104508758D01*
X133620989Y-104489303D01*
X133637584Y-104471382D01*
X133655849Y-104455166D01*
X133675609Y-104440809D01*
X133696676Y-104428449D01*
X133700000Y-104426913D01*
X133700000Y-99854033D01*
X133698608Y-99829127D01*
X133695622Y-99809842D01*
X133690772Y-99790954D01*
X133684095Y-99772608D01*
X133675664Y-99755013D01*
X133665560Y-99738329D01*
X133653874Y-99722708D01*
X133640715Y-99708297D01*
X133626212Y-99695239D01*
X133610516Y-99683666D01*
X133593757Y-99673676D01*
X133576099Y-99665367D01*
X133557720Y-99658822D01*
X133538793Y-99654103D01*
X133519485Y-99651252D01*
X133493899Y-99650000D01*
X130504033Y-99650000D01*
X130479127Y-99651392D01*
X130459842Y-99654378D01*
X130440954Y-99659228D01*
X130422608Y-99665905D01*
X130405013Y-99674336D01*
X130388329Y-99684440D01*
X130372708Y-99696126D01*
X130358297Y-99709285D01*
X130345239Y-99723788D01*
X130333666Y-99739484D01*
X130323676Y-99756243D01*
X130315367Y-99773901D01*
X130308822Y-99792280D01*
X130304103Y-99811207D01*
X130301252Y-99830515D01*
X130300000Y-99856101D01*
X130300000Y-100350000D01*
X130299976Y-100353491D01*
X130298442Y-100377867D01*
X130294537Y-100401978D01*
X130288298Y-100425592D01*
X130279784Y-100448485D01*
X130269077Y-100470438D01*
X130256278Y-100491242D01*
X130241511Y-100510697D01*
X130224916Y-100528618D01*
X130206651Y-100544834D01*
X130186891Y-100559191D01*
X130165824Y-100571551D01*
X130143652Y-100581796D01*
X130120585Y-100589828D01*
X130096845Y-100595572D01*
X130072658Y-100598971D01*
X130048255Y-100599994D01*
X130023868Y-100598630D01*
X129999731Y-100594894D01*
X129976073Y-100588820D01*
X129953121Y-100580466D01*
X129931094Y-100569912D01*
X129910202Y-100557259D01*
X129890644Y-100542628D01*
X129872607Y-100526159D01*
X129856264Y-100508007D01*
X129841770Y-100488348D01*
X129829263Y-100467368D01*
X129818863Y-100445268D01*
X129810670Y-100422258D01*
X129804761Y-100398559D01*
X129801193Y-100374396D01*
X129800000Y-100350000D01*
X129800000Y-99850000D01*
X129800024Y-99846509D01*
X129800299Y-99842142D01*
X129800299Y-99837786D01*
X129802446Y-99793893D01*
X129802446Y-99793879D01*
X129802448Y-99793863D01*
X129802641Y-99790387D01*
X129803813Y-99779944D01*
X129804830Y-99769570D01*
X129811252Y-99726077D01*
X129811785Y-99722626D01*
X129813973Y-99712332D01*
X129815996Y-99702115D01*
X129826628Y-99659472D01*
X129826631Y-99659457D01*
X129826636Y-99659441D01*
X129827500Y-99656074D01*
X129830665Y-99646098D01*
X129833691Y-99636075D01*
X129848439Y-99594657D01*
X129849633Y-99591376D01*
X129853753Y-99581764D01*
X129857749Y-99572069D01*
X129876469Y-99532288D01*
X129877978Y-99529140D01*
X129883018Y-99519972D01*
X129887932Y-99510731D01*
X129910443Y-99472967D01*
X129912251Y-99469981D01*
X129918178Y-99461324D01*
X129923963Y-99452618D01*
X129950039Y-99417249D01*
X129950051Y-99417232D01*
X129950066Y-99417214D01*
X129952144Y-99414435D01*
X129958865Y-99406425D01*
X129965489Y-99398304D01*
X129994907Y-99365632D01*
X129997261Y-99363054D01*
X130004730Y-99355740D01*
X130012116Y-99348302D01*
X130044571Y-99318667D01*
X130044583Y-99318655D01*
X130044598Y-99318643D01*
X130047176Y-99316320D01*
X130055339Y-99309757D01*
X130063403Y-99303086D01*
X130098607Y-99276750D01*
X130101417Y-99274678D01*
X130110184Y-99268942D01*
X130118856Y-99263092D01*
X130156462Y-99240317D01*
X130159461Y-99238529D01*
X130168712Y-99233693D01*
X130177950Y-99228698D01*
X130217600Y-99209702D01*
X130220758Y-99208216D01*
X130230461Y-99204296D01*
X130240111Y-99200239D01*
X130281406Y-99185209D01*
X130281424Y-99185202D01*
X130281445Y-99185195D01*
X130284713Y-99184031D01*
X130294782Y-99181068D01*
X130304757Y-99177980D01*
X130347328Y-99167049D01*
X130347342Y-99167045D01*
X130347359Y-99167042D01*
X130350728Y-99166201D01*
X130361014Y-99164239D01*
X130371268Y-99162134D01*
X130414716Y-99155408D01*
X130418169Y-99154898D01*
X130428620Y-99153947D01*
X130439008Y-99152855D01*
X130482904Y-99150401D01*
X130486391Y-99150230D01*
X130491199Y-99150264D01*
X130495983Y-99150013D01*
X130499125Y-99150002D01*
X130499909Y-99150004D01*
X130500000Y-99150000D01*
X133500000Y-99150000D01*
X133503491Y-99150024D01*
G37*
%TD.AperFunction*%
D17*
%TO.P,Reg1,4*%
%TO.N,+3V3*%
X135450000Y-102550000D03*
D18*
%TO.P,Reg1,~*%
%TO.N,N/C*%
X131000000Y-100400000D03*
%TO.P,Reg1,4*%
%TO.N,+3V3*%
X129100000Y-100400000D03*
%TO.P,Reg1,3*%
%TO.N,GND*%
X130050000Y-100400000D03*
%TO.P,Reg1,1*%
%TO.N,DC*%
X129100000Y-103100000D03*
%TO.P,Reg1,2*%
X130050000Y-103100000D03*
%TO.P,Reg1,~*%
%TO.N,N/C*%
X131000000Y-103100000D03*
%TO.P,Reg1,4*%
%TO.N,+3V3*%
%TA.AperFunction,SMDPad,CuDef*%
G36*
G01*
X134975000Y-103850000D02*
X135925000Y-103850000D01*
G75*
G02*
X136175000Y-104100000I0J-250000D01*
G01*
X136175000Y-104600000D01*
G75*
G02*
X135925000Y-104850000I-250000J0D01*
G01*
X134975000Y-104850000D01*
G75*
G02*
X134725000Y-104600000I0J250000D01*
G01*
X134725000Y-104100000D01*
G75*
G02*
X134975000Y-103850000I250000J0D01*
G01*
G37*
%TD.AperFunction*%
%TO.P,Reg1,3*%
%TO.N,GND*%
%TA.AperFunction,SMDPad,CuDef*%
G36*
G01*
X134975000Y-105750000D02*
X135925000Y-105750000D01*
G75*
G02*
X136175000Y-106000000I0J-250000D01*
G01*
X136175000Y-106500000D01*
G75*
G02*
X135925000Y-106750000I-250000J0D01*
G01*
X134975000Y-106750000D01*
G75*
G02*
X134725000Y-106500000I0J250000D01*
G01*
X134725000Y-106000000D01*
G75*
G02*
X134975000Y-105750000I250000J0D01*
G01*
G37*
%TD.AperFunction*%
%TA.AperFunction,SMDPad,CuDef*%
G36*
G01*
X128725000Y-105750000D02*
X129675000Y-105750000D01*
G75*
G02*
X129925000Y-106000000I0J-250000D01*
G01*
X129925000Y-106500000D01*
G75*
G02*
X129675000Y-106750000I-250000J0D01*
G01*
X128725000Y-106750000D01*
G75*
G02*
X128475000Y-106500000I0J250000D01*
G01*
X128475000Y-106000000D01*
G75*
G02*
X128725000Y-105750000I250000J0D01*
G01*
G37*
%TD.AperFunction*%
%TO.P,Reg1,2*%
%TO.N,DC*%
%TA.AperFunction,SMDPad,CuDef*%
G36*
G01*
X128725000Y-103850000D02*
X129675000Y-103850000D01*
G75*
G02*
X129925000Y-104100000I0J-250000D01*
G01*
X129925000Y-104600000D01*
G75*
G02*
X129675000Y-104850000I-250000J0D01*
G01*
X128725000Y-104850000D01*
G75*
G02*
X128475000Y-104600000I0J250000D01*
G01*
X128475000Y-104100000D01*
G75*
G02*
X128725000Y-103850000I250000J0D01*
G01*
G37*
%TD.AperFunction*%
%TO.P,Reg1,~*%
%TO.N,N/C*%
%TA.AperFunction,SMDPad,CuDef*%
G36*
G01*
X128200000Y-101425000D02*
X127700000Y-101425000D01*
G75*
G02*
X127475000Y-101200000I0J225000D01*
G01*
X127475000Y-100750000D01*
G75*
G02*
X127700000Y-100525000I225000J0D01*
G01*
X128200000Y-100525000D01*
G75*
G02*
X128425000Y-100750000I0J-225000D01*
G01*
X128425000Y-101200000D01*
G75*
G02*
X128200000Y-101425000I-225000J0D01*
G01*
G37*
%TD.AperFunction*%
%TA.AperFunction,SMDPad,CuDef*%
G36*
G01*
X128200000Y-102975000D02*
X127700000Y-102975000D01*
G75*
G02*
X127475000Y-102750000I0J225000D01*
G01*
X127475000Y-102300000D01*
G75*
G02*
X127700000Y-102075000I225000J0D01*
G01*
X128200000Y-102075000D01*
G75*
G02*
X128425000Y-102300000I0J-225000D01*
G01*
X128425000Y-102750000D01*
G75*
G02*
X128200000Y-102975000I-225000J0D01*
G01*
G37*
%TD.AperFunction*%
%TA.AperFunction,SMDPad,CuDef*%
G36*
G01*
X130125000Y-105545626D02*
X130125000Y-104294374D01*
G75*
G02*
X130374374Y-104045000I249374J0D01*
G01*
X131300626Y-104045000D01*
G75*
G02*
X131550000Y-104294374I0J-249374D01*
G01*
X131550000Y-105545626D01*
G75*
G02*
X131300626Y-105795000I-249374J0D01*
G01*
X130374374Y-105795000D01*
G75*
G02*
X130125000Y-105545626I0J249374D01*
G01*
G37*
%TD.AperFunction*%
%TO.P,Reg1,3*%
%TO.N,GND*%
%TA.AperFunction,SMDPad,CuDef*%
G36*
G01*
X133100000Y-105545626D02*
X133100000Y-104294374D01*
G75*
G02*
X133349374Y-104045000I249374J0D01*
G01*
X134275626Y-104045000D01*
G75*
G02*
X134525000Y-104294374I0J-249374D01*
G01*
X134525000Y-105545626D01*
G75*
G02*
X134275626Y-105795000I-249374J0D01*
G01*
X133349374Y-105795000D01*
G75*
G02*
X133100000Y-105545626I0J249374D01*
G01*
G37*
%TD.AperFunction*%
D19*
%TO.P,Reg1,4*%
%TO.N,+3V3*%
X135450000Y-101800000D03*
%TO.P,Reg1,~*%
%TO.N,N/C*%
X132450000Y-101800000D03*
%TD*%
%TO.P,R14,2*%
%TO.N,DC*%
%TA.AperFunction,SMDPad,CuDef*%
G36*
G01*
X126525000Y-104125000D02*
X127075000Y-104125000D01*
G75*
G02*
X127275000Y-104325000I0J-200000D01*
G01*
X127275000Y-104725000D01*
G75*
G02*
X127075000Y-104925000I-200000J0D01*
G01*
X126525000Y-104925000D01*
G75*
G02*
X126325000Y-104725000I0J200000D01*
G01*
X126325000Y-104325000D01*
G75*
G02*
X126525000Y-104125000I200000J0D01*
G01*
G37*
%TD.AperFunction*%
%TO.P,R14,1*%
%TO.N,Net-(R14-Pad1)*%
%TA.AperFunction,SMDPad,CuDef*%
G36*
G01*
X126525000Y-102475000D02*
X127075000Y-102475000D01*
G75*
G02*
X127275000Y-102675000I0J-200000D01*
G01*
X127275000Y-103075000D01*
G75*
G02*
X127075000Y-103275000I-200000J0D01*
G01*
X126525000Y-103275000D01*
G75*
G02*
X126325000Y-103075000I0J200000D01*
G01*
X126325000Y-102675000D01*
G75*
G02*
X126525000Y-102475000I200000J0D01*
G01*
G37*
%TD.AperFunction*%
%TD*%
%TO.P,D2,2*%
%TO.N,VBUS*%
%TA.AperFunction,SMDPad,CuDef*%
G36*
G01*
X125475000Y-108175000D02*
X126725000Y-108175000D01*
G75*
G02*
X126975000Y-108425000I0J-250000D01*
G01*
X126975000Y-109175000D01*
G75*
G02*
X126725000Y-109425000I-250000J0D01*
G01*
X125475000Y-109425000D01*
G75*
G02*
X125225000Y-109175000I0J250000D01*
G01*
X125225000Y-108425000D01*
G75*
G02*
X125475000Y-108175000I250000J0D01*
G01*
G37*
%TD.AperFunction*%
%TO.P,D2,1*%
%TO.N,DC*%
%TA.AperFunction,SMDPad,CuDef*%
G36*
G01*
X125475000Y-105375000D02*
X126725000Y-105375000D01*
G75*
G02*
X126975000Y-105625000I0J-250000D01*
G01*
X126975000Y-106375000D01*
G75*
G02*
X126725000Y-106625000I-250000J0D01*
G01*
X125475000Y-106625000D01*
G75*
G02*
X125225000Y-106375000I0J250000D01*
G01*
X125225000Y-105625000D01*
G75*
G02*
X125475000Y-105375000I250000J0D01*
G01*
G37*
%TD.AperFunction*%
%TD*%
D20*
%TO.P,Q1,5*%
%TO.N,Net-(Q1-Pad5)*%
X121150000Y-107750000D03*
%TO.P,Q1,4*%
%TO.N,Net-(Q1-Pad4)*%
X121150000Y-109050000D03*
%TO.P,Q1,3*%
%TO.N,GPIO0*%
X119250000Y-109050000D03*
%TO.P,Q1,2*%
%TO.N,GND*%
X119250000Y-108400000D03*
%TO.P,Q1,1*%
%TO.N,EN*%
X119250000Y-107750000D03*
%TD*%
D21*
%TO.P,J3,2*%
%TO.N,DC*%
X134000000Y-123260000D03*
D22*
%TO.P,J3,1*%
%TO.N,GND*%
X134000000Y-125800000D03*
%TD*%
%TO.P,R16,2*%
%TO.N,GND*%
%TA.AperFunction,SMDPad,CuDef*%
G36*
G01*
X123175000Y-106625000D02*
X123175000Y-107175000D01*
G75*
G02*
X122975000Y-107375000I-200000J0D01*
G01*
X122575000Y-107375000D01*
G75*
G02*
X122375000Y-107175000I0J200000D01*
G01*
X122375000Y-106625000D01*
G75*
G02*
X122575000Y-106425000I200000J0D01*
G01*
X122975000Y-106425000D01*
G75*
G02*
X123175000Y-106625000I0J-200000D01*
G01*
G37*
%TD.AperFunction*%
%TO.P,R16,1*%
%TO.N,ADC*%
%TA.AperFunction,SMDPad,CuDef*%
G36*
G01*
X124825000Y-106625000D02*
X124825000Y-107175000D01*
G75*
G02*
X124625000Y-107375000I-200000J0D01*
G01*
X124225000Y-107375000D01*
G75*
G02*
X124025000Y-107175000I0J200000D01*
G01*
X124025000Y-106625000D01*
G75*
G02*
X124225000Y-106425000I200000J0D01*
G01*
X124625000Y-106425000D01*
G75*
G02*
X124825000Y-106625000I0J-200000D01*
G01*
G37*
%TD.AperFunction*%
%TD*%
%TO.P,R15,2*%
%TO.N,ADC*%
%TA.AperFunction,SMDPad,CuDef*%
G36*
G01*
X124025000Y-105975000D02*
X124025000Y-105425000D01*
G75*
G02*
X124225000Y-105225000I200000J0D01*
G01*
X124625000Y-105225000D01*
G75*
G02*
X124825000Y-105425000I0J-200000D01*
G01*
X124825000Y-105975000D01*
G75*
G02*
X124625000Y-106175000I-200000J0D01*
G01*
X124225000Y-106175000D01*
G75*
G02*
X124025000Y-105975000I0J200000D01*
G01*
G37*
%TD.AperFunction*%
%TO.P,R15,1*%
%TO.N,Net-(R15-Pad1)*%
%TA.AperFunction,SMDPad,CuDef*%
G36*
G01*
X122375000Y-105975000D02*
X122375000Y-105425000D01*
G75*
G02*
X122575000Y-105225000I200000J0D01*
G01*
X122975000Y-105225000D01*
G75*
G02*
X123175000Y-105425000I0J-200000D01*
G01*
X123175000Y-105975000D01*
G75*
G02*
X122975000Y-106175000I-200000J0D01*
G01*
X122575000Y-106175000D01*
G75*
G02*
X122375000Y-105975000I0J200000D01*
G01*
G37*
%TD.AperFunction*%
%TD*%
%TO.P,R8,2*%
%TO.N,B*%
%TA.AperFunction,SMDPad,CuDef*%
G36*
G01*
X119625000Y-102675000D02*
X119625000Y-102125000D01*
G75*
G02*
X119825000Y-101925000I200000J0D01*
G01*
X120225000Y-101925000D01*
G75*
G02*
X120425000Y-102125000I0J-200000D01*
G01*
X120425000Y-102675000D01*
G75*
G02*
X120225000Y-102875000I-200000J0D01*
G01*
X119825000Y-102875000D01*
G75*
G02*
X119625000Y-102675000I0J200000D01*
G01*
G37*
%TD.AperFunction*%
%TO.P,R8,1*%
%TO.N,Net-(D1-Pad4)*%
%TA.AperFunction,SMDPad,CuDef*%
G36*
G01*
X117975000Y-102675000D02*
X117975000Y-102125000D01*
G75*
G02*
X118175000Y-101925000I200000J0D01*
G01*
X118575000Y-101925000D01*
G75*
G02*
X118775000Y-102125000I0J-200000D01*
G01*
X118775000Y-102675000D01*
G75*
G02*
X118575000Y-102875000I-200000J0D01*
G01*
X118175000Y-102875000D01*
G75*
G02*
X117975000Y-102675000I0J200000D01*
G01*
G37*
%TD.AperFunction*%
%TD*%
%TO.P,R1,2*%
%TO.N,+3V3*%
%TA.AperFunction,SMDPad,CuDef*%
G36*
G01*
X119775000Y-106425000D02*
X119775000Y-106975000D01*
G75*
G02*
X119575000Y-107175000I-200000J0D01*
G01*
X119175000Y-107175000D01*
G75*
G02*
X118975000Y-106975000I0J200000D01*
G01*
X118975000Y-106425000D01*
G75*
G02*
X119175000Y-106225000I200000J0D01*
G01*
X119575000Y-106225000D01*
G75*
G02*
X119775000Y-106425000I0J-200000D01*
G01*
G37*
%TD.AperFunction*%
%TO.P,R1,1*%
%TO.N,Net-(Q1-Pad5)*%
%TA.AperFunction,SMDPad,CuDef*%
G36*
G01*
X121425000Y-106425000D02*
X121425000Y-106975000D01*
G75*
G02*
X121225000Y-107175000I-200000J0D01*
G01*
X120825000Y-107175000D01*
G75*
G02*
X120625000Y-106975000I0J200000D01*
G01*
X120625000Y-106425000D01*
G75*
G02*
X120825000Y-106225000I200000J0D01*
G01*
X121225000Y-106225000D01*
G75*
G02*
X121425000Y-106425000I0J-200000D01*
G01*
G37*
%TD.AperFunction*%
%TD*%
%TO.P,R12,2*%
%TO.N,Net-(J2-PadB5)*%
%TA.AperFunction,SMDPad,CuDef*%
G36*
G01*
X127825000Y-108925000D02*
X128375000Y-108925000D01*
G75*
G02*
X128575000Y-109125000I0J-200000D01*
G01*
X128575000Y-109525000D01*
G75*
G02*
X128375000Y-109725000I-200000J0D01*
G01*
X127825000Y-109725000D01*
G75*
G02*
X127625000Y-109525000I0J200000D01*
G01*
X127625000Y-109125000D01*
G75*
G02*
X127825000Y-108925000I200000J0D01*
G01*
G37*
%TD.AperFunction*%
%TO.P,R12,1*%
%TO.N,GND*%
%TA.AperFunction,SMDPad,CuDef*%
G36*
G01*
X127825000Y-107275000D02*
X128375000Y-107275000D01*
G75*
G02*
X128575000Y-107475000I0J-200000D01*
G01*
X128575000Y-107875000D01*
G75*
G02*
X128375000Y-108075000I-200000J0D01*
G01*
X127825000Y-108075000D01*
G75*
G02*
X127625000Y-107875000I0J200000D01*
G01*
X127625000Y-107475000D01*
G75*
G02*
X127825000Y-107275000I200000J0D01*
G01*
G37*
%TD.AperFunction*%
%TD*%
%TO.P,R11,2*%
%TO.N,GND*%
%TA.AperFunction,SMDPad,CuDef*%
G36*
G01*
X127825000Y-114825000D02*
X128375000Y-114825000D01*
G75*
G02*
X128575000Y-115025000I0J-200000D01*
G01*
X128575000Y-115425000D01*
G75*
G02*
X128375000Y-115625000I-200000J0D01*
G01*
X127825000Y-115625000D01*
G75*
G02*
X127625000Y-115425000I0J200000D01*
G01*
X127625000Y-115025000D01*
G75*
G02*
X127825000Y-114825000I200000J0D01*
G01*
G37*
%TD.AperFunction*%
%TO.P,R11,1*%
%TO.N,Net-(J2-PadA5)*%
%TA.AperFunction,SMDPad,CuDef*%
G36*
G01*
X127825000Y-113175000D02*
X128375000Y-113175000D01*
G75*
G02*
X128575000Y-113375000I0J-200000D01*
G01*
X128575000Y-113775000D01*
G75*
G02*
X128375000Y-113975000I-200000J0D01*
G01*
X127825000Y-113975000D01*
G75*
G02*
X127625000Y-113775000I0J200000D01*
G01*
X127625000Y-113375000D01*
G75*
G02*
X127825000Y-113175000I200000J0D01*
G01*
G37*
%TD.AperFunction*%
%TD*%
%TO.P,R7,1*%
%TO.N,IO5*%
%TA.AperFunction,SMDPad,CuDef*%
G36*
G01*
X118625000Y-118249900D02*
X118625000Y-117350100D01*
G75*
G02*
X118875100Y-117100000I250100J0D01*
G01*
X119399900Y-117100000D01*
G75*
G02*
X119650000Y-117350100I0J-250100D01*
G01*
X119650000Y-118249900D01*
G75*
G02*
X119399900Y-118500000I-250100J0D01*
G01*
X118875100Y-118500000D01*
G75*
G02*
X118625000Y-118249900I0J250100D01*
G01*
G37*
%TD.AperFunction*%
%TO.P,R7,2*%
%TO.N,Net-(J1-Pad6)*%
%TA.AperFunction,SMDPad,CuDef*%
G36*
G01*
X120450000Y-118249900D02*
X120450000Y-117350100D01*
G75*
G02*
X120700100Y-117100000I250100J0D01*
G01*
X121224900Y-117100000D01*
G75*
G02*
X121475000Y-117350100I0J-250100D01*
G01*
X121475000Y-118249900D01*
G75*
G02*
X121224900Y-118500000I-250100J0D01*
G01*
X120700100Y-118500000D01*
G75*
G02*
X120450000Y-118249900I0J250100D01*
G01*
G37*
%TD.AperFunction*%
%TA.AperFunction,SMDPad,CuDef*%
G36*
G01*
X120950000Y-118425250D02*
X120950000Y-117174750D01*
G75*
G02*
X121199750Y-116925000I249750J0D01*
G01*
X121825250Y-116925000D01*
G75*
G02*
X122075000Y-117174750I0J-249750D01*
G01*
X122075000Y-118425250D01*
G75*
G02*
X121825250Y-118675000I-249750J0D01*
G01*
X121199750Y-118675000D01*
G75*
G02*
X120950000Y-118425250I0J249750D01*
G01*
G37*
%TD.AperFunction*%
%TO.P,R7,1*%
%TO.N,IO5*%
%TA.AperFunction,SMDPad,CuDef*%
G36*
G01*
X118025000Y-118425250D02*
X118025000Y-117174750D01*
G75*
G02*
X118274750Y-116925000I249750J0D01*
G01*
X118900250Y-116925000D01*
G75*
G02*
X119150000Y-117174750I0J-249750D01*
G01*
X119150000Y-118425250D01*
G75*
G02*
X118900250Y-118675000I-249750J0D01*
G01*
X118274750Y-118675000D01*
G75*
G02*
X118025000Y-118425250I0J249750D01*
G01*
G37*
%TD.AperFunction*%
%TD*%
%TO.P,R6,1*%
%TO.N,DC*%
%TA.AperFunction,SMDPad,CuDef*%
G36*
G01*
X120149900Y-125775000D02*
X119250100Y-125775000D01*
G75*
G02*
X119000000Y-125524900I0J250100D01*
G01*
X119000000Y-125000100D01*
G75*
G02*
X119250100Y-124750000I250100J0D01*
G01*
X120149900Y-124750000D01*
G75*
G02*
X120400000Y-125000100I0J-250100D01*
G01*
X120400000Y-125524900D01*
G75*
G02*
X120149900Y-125775000I-250100J0D01*
G01*
G37*
%TD.AperFunction*%
%TO.P,R6,2*%
%TO.N,Net-(J1-Pad6)*%
%TA.AperFunction,SMDPad,CuDef*%
G36*
G01*
X120149900Y-123950000D02*
X119250100Y-123950000D01*
G75*
G02*
X119000000Y-123699900I0J250100D01*
G01*
X119000000Y-123175100D01*
G75*
G02*
X119250100Y-122925000I250100J0D01*
G01*
X120149900Y-122925000D01*
G75*
G02*
X120400000Y-123175100I0J-250100D01*
G01*
X120400000Y-123699900D01*
G75*
G02*
X120149900Y-123950000I-250100J0D01*
G01*
G37*
%TD.AperFunction*%
%TA.AperFunction,SMDPad,CuDef*%
G36*
G01*
X120325250Y-123450000D02*
X119074750Y-123450000D01*
G75*
G02*
X118825000Y-123200250I0J249750D01*
G01*
X118825000Y-122574750D01*
G75*
G02*
X119074750Y-122325000I249750J0D01*
G01*
X120325250Y-122325000D01*
G75*
G02*
X120575000Y-122574750I0J-249750D01*
G01*
X120575000Y-123200250D01*
G75*
G02*
X120325250Y-123450000I-249750J0D01*
G01*
G37*
%TD.AperFunction*%
%TO.P,R6,1*%
%TO.N,DC*%
%TA.AperFunction,SMDPad,CuDef*%
G36*
G01*
X120325250Y-126375000D02*
X119074750Y-126375000D01*
G75*
G02*
X118825000Y-126125250I0J249750D01*
G01*
X118825000Y-125499750D01*
G75*
G02*
X119074750Y-125250000I249750J0D01*
G01*
X120325250Y-125250000D01*
G75*
G02*
X120575000Y-125499750I0J-249750D01*
G01*
X120575000Y-126125250D01*
G75*
G02*
X120325250Y-126375000I-249750J0D01*
G01*
G37*
%TD.AperFunction*%
%TD*%
%TO.P,R5,1*%
%TO.N,+3V3*%
%TA.AperFunction,SMDPad,CuDef*%
G36*
G01*
X123419900Y-125775000D02*
X122520100Y-125775000D01*
G75*
G02*
X122270000Y-125524900I0J250100D01*
G01*
X122270000Y-125000100D01*
G75*
G02*
X122520100Y-124750000I250100J0D01*
G01*
X123419900Y-124750000D01*
G75*
G02*
X123670000Y-125000100I0J-250100D01*
G01*
X123670000Y-125524900D01*
G75*
G02*
X123419900Y-125775000I-250100J0D01*
G01*
G37*
%TD.AperFunction*%
%TO.P,R5,2*%
%TO.N,IO4*%
%TA.AperFunction,SMDPad,CuDef*%
G36*
G01*
X123419900Y-123950000D02*
X122520100Y-123950000D01*
G75*
G02*
X122270000Y-123699900I0J250100D01*
G01*
X122270000Y-123175100D01*
G75*
G02*
X122520100Y-122925000I250100J0D01*
G01*
X123419900Y-122925000D01*
G75*
G02*
X123670000Y-123175100I0J-250100D01*
G01*
X123670000Y-123699900D01*
G75*
G02*
X123419900Y-123950000I-250100J0D01*
G01*
G37*
%TD.AperFunction*%
%TA.AperFunction,SMDPad,CuDef*%
G36*
G01*
X123595250Y-123450000D02*
X122344750Y-123450000D01*
G75*
G02*
X122095000Y-123200250I0J249750D01*
G01*
X122095000Y-122574750D01*
G75*
G02*
X122344750Y-122325000I249750J0D01*
G01*
X123595250Y-122325000D01*
G75*
G02*
X123845000Y-122574750I0J-249750D01*
G01*
X123845000Y-123200250D01*
G75*
G02*
X123595250Y-123450000I-249750J0D01*
G01*
G37*
%TD.AperFunction*%
%TO.P,R5,1*%
%TO.N,+3V3*%
%TA.AperFunction,SMDPad,CuDef*%
G36*
G01*
X123595250Y-126375000D02*
X122344750Y-126375000D01*
G75*
G02*
X122095000Y-126125250I0J249750D01*
G01*
X122095000Y-125499750D01*
G75*
G02*
X122344750Y-125250000I249750J0D01*
G01*
X123595250Y-125250000D01*
G75*
G02*
X123845000Y-125499750I0J-249750D01*
G01*
X123845000Y-126125250D01*
G75*
G02*
X123595250Y-126375000I-249750J0D01*
G01*
G37*
%TD.AperFunction*%
%TD*%
%TO.P,R4,1*%
%TO.N,+3V3*%
%TA.AperFunction,SMDPad,CuDef*%
G36*
G01*
X125919900Y-125775000D02*
X125020100Y-125775000D01*
G75*
G02*
X124770000Y-125524900I0J250100D01*
G01*
X124770000Y-125000100D01*
G75*
G02*
X125020100Y-124750000I250100J0D01*
G01*
X125919900Y-124750000D01*
G75*
G02*
X126170000Y-125000100I0J-250100D01*
G01*
X126170000Y-125524900D01*
G75*
G02*
X125919900Y-125775000I-250100J0D01*
G01*
G37*
%TD.AperFunction*%
%TO.P,R4,2*%
%TO.N,IO3*%
%TA.AperFunction,SMDPad,CuDef*%
G36*
G01*
X125919900Y-123950000D02*
X125020100Y-123950000D01*
G75*
G02*
X124770000Y-123699900I0J250100D01*
G01*
X124770000Y-123175100D01*
G75*
G02*
X125020100Y-122925000I250100J0D01*
G01*
X125919900Y-122925000D01*
G75*
G02*
X126170000Y-123175100I0J-250100D01*
G01*
X126170000Y-123699900D01*
G75*
G02*
X125919900Y-123950000I-250100J0D01*
G01*
G37*
%TD.AperFunction*%
%TA.AperFunction,SMDPad,CuDef*%
G36*
G01*
X126095250Y-123450000D02*
X124844750Y-123450000D01*
G75*
G02*
X124595000Y-123200250I0J249750D01*
G01*
X124595000Y-122574750D01*
G75*
G02*
X124844750Y-122325000I249750J0D01*
G01*
X126095250Y-122325000D01*
G75*
G02*
X126345000Y-122574750I0J-249750D01*
G01*
X126345000Y-123200250D01*
G75*
G02*
X126095250Y-123450000I-249750J0D01*
G01*
G37*
%TD.AperFunction*%
%TO.P,R4,1*%
%TO.N,+3V3*%
%TA.AperFunction,SMDPad,CuDef*%
G36*
G01*
X126095250Y-126375000D02*
X124844750Y-126375000D01*
G75*
G02*
X124595000Y-126125250I0J249750D01*
G01*
X124595000Y-125499750D01*
G75*
G02*
X124844750Y-125250000I249750J0D01*
G01*
X126095250Y-125250000D01*
G75*
G02*
X126345000Y-125499750I0J-249750D01*
G01*
X126345000Y-126125250D01*
G75*
G02*
X126095250Y-126375000I-249750J0D01*
G01*
G37*
%TD.AperFunction*%
%TD*%
%TO.P,R3,1*%
%TO.N,+3V3*%
%TA.AperFunction,SMDPad,CuDef*%
G36*
G01*
X128419900Y-125775000D02*
X127520100Y-125775000D01*
G75*
G02*
X127270000Y-125524900I0J250100D01*
G01*
X127270000Y-125000100D01*
G75*
G02*
X127520100Y-124750000I250100J0D01*
G01*
X128419900Y-124750000D01*
G75*
G02*
X128670000Y-125000100I0J-250100D01*
G01*
X128670000Y-125524900D01*
G75*
G02*
X128419900Y-125775000I-250100J0D01*
G01*
G37*
%TD.AperFunction*%
%TO.P,R3,2*%
%TO.N,IO2*%
%TA.AperFunction,SMDPad,CuDef*%
G36*
G01*
X128419900Y-123950000D02*
X127520100Y-123950000D01*
G75*
G02*
X127270000Y-123699900I0J250100D01*
G01*
X127270000Y-123175100D01*
G75*
G02*
X127520100Y-122925000I250100J0D01*
G01*
X128419900Y-122925000D01*
G75*
G02*
X128670000Y-123175100I0J-250100D01*
G01*
X128670000Y-123699900D01*
G75*
G02*
X128419900Y-123950000I-250100J0D01*
G01*
G37*
%TD.AperFunction*%
%TA.AperFunction,SMDPad,CuDef*%
G36*
G01*
X128595250Y-123450000D02*
X127344750Y-123450000D01*
G75*
G02*
X127095000Y-123200250I0J249750D01*
G01*
X127095000Y-122574750D01*
G75*
G02*
X127344750Y-122325000I249750J0D01*
G01*
X128595250Y-122325000D01*
G75*
G02*
X128845000Y-122574750I0J-249750D01*
G01*
X128845000Y-123200250D01*
G75*
G02*
X128595250Y-123450000I-249750J0D01*
G01*
G37*
%TD.AperFunction*%
%TO.P,R3,1*%
%TO.N,+3V3*%
%TA.AperFunction,SMDPad,CuDef*%
G36*
G01*
X128595250Y-126375000D02*
X127344750Y-126375000D01*
G75*
G02*
X127095000Y-126125250I0J249750D01*
G01*
X127095000Y-125499750D01*
G75*
G02*
X127344750Y-125250000I249750J0D01*
G01*
X128595250Y-125250000D01*
G75*
G02*
X128845000Y-125499750I0J-249750D01*
G01*
X128845000Y-126125250D01*
G75*
G02*
X128595250Y-126375000I-249750J0D01*
G01*
G37*
%TD.AperFunction*%
%TD*%
%TO.P,R2,1*%
%TO.N,+3V3*%
%TA.AperFunction,SMDPad,CuDef*%
G36*
G01*
X130919900Y-125775000D02*
X130020100Y-125775000D01*
G75*
G02*
X129770000Y-125524900I0J250100D01*
G01*
X129770000Y-125000100D01*
G75*
G02*
X130020100Y-124750000I250100J0D01*
G01*
X130919900Y-124750000D01*
G75*
G02*
X131170000Y-125000100I0J-250100D01*
G01*
X131170000Y-125524900D01*
G75*
G02*
X130919900Y-125775000I-250100J0D01*
G01*
G37*
%TD.AperFunction*%
%TO.P,R2,2*%
%TO.N,IO1*%
%TA.AperFunction,SMDPad,CuDef*%
G36*
G01*
X130919900Y-123950000D02*
X130020100Y-123950000D01*
G75*
G02*
X129770000Y-123699900I0J250100D01*
G01*
X129770000Y-123175100D01*
G75*
G02*
X130020100Y-122925000I250100J0D01*
G01*
X130919900Y-122925000D01*
G75*
G02*
X131170000Y-123175100I0J-250100D01*
G01*
X131170000Y-123699900D01*
G75*
G02*
X130919900Y-123950000I-250100J0D01*
G01*
G37*
%TD.AperFunction*%
%TA.AperFunction,SMDPad,CuDef*%
G36*
G01*
X131095250Y-123450000D02*
X129844750Y-123450000D01*
G75*
G02*
X129595000Y-123200250I0J249750D01*
G01*
X129595000Y-122574750D01*
G75*
G02*
X129844750Y-122325000I249750J0D01*
G01*
X131095250Y-122325000D01*
G75*
G02*
X131345000Y-122574750I0J-249750D01*
G01*
X131345000Y-123200250D01*
G75*
G02*
X131095250Y-123450000I-249750J0D01*
G01*
G37*
%TD.AperFunction*%
%TO.P,R2,1*%
%TO.N,+3V3*%
%TA.AperFunction,SMDPad,CuDef*%
G36*
G01*
X131095250Y-126375000D02*
X129844750Y-126375000D01*
G75*
G02*
X129595000Y-126125250I0J249750D01*
G01*
X129595000Y-125499750D01*
G75*
G02*
X129844750Y-125250000I249750J0D01*
G01*
X131095250Y-125250000D01*
G75*
G02*
X131345000Y-125499750I0J-249750D01*
G01*
X131345000Y-126125250D01*
G75*
G02*
X131095250Y-126375000I-249750J0D01*
G01*
G37*
%TD.AperFunction*%
%TD*%
%TO.P,C1,1*%
%TO.N,GND*%
%TA.AperFunction,SMDPad,CuDef*%
G36*
G01*
X135449900Y-120525000D02*
X134550100Y-120525000D01*
G75*
G02*
X134300000Y-120274900I0J250100D01*
G01*
X134300000Y-119750100D01*
G75*
G02*
X134550100Y-119500000I250100J0D01*
G01*
X135449900Y-119500000D01*
G75*
G02*
X135700000Y-119750100I0J-250100D01*
G01*
X135700000Y-120274900D01*
G75*
G02*
X135449900Y-120525000I-250100J0D01*
G01*
G37*
%TD.AperFunction*%
%TO.P,C1,2*%
%TO.N,IO1*%
%TA.AperFunction,SMDPad,CuDef*%
G36*
G01*
X135449900Y-118700000D02*
X134550100Y-118700000D01*
G75*
G02*
X134300000Y-118449900I0J250100D01*
G01*
X134300000Y-117925100D01*
G75*
G02*
X134550100Y-117675000I250100J0D01*
G01*
X135449900Y-117675000D01*
G75*
G02*
X135700000Y-117925100I0J-250100D01*
G01*
X135700000Y-118449900D01*
G75*
G02*
X135449900Y-118700000I-250100J0D01*
G01*
G37*
%TD.AperFunction*%
%TA.AperFunction,SMDPad,CuDef*%
G36*
G01*
X135625250Y-118200000D02*
X134374750Y-118200000D01*
G75*
G02*
X134125000Y-117950250I0J249750D01*
G01*
X134125000Y-117324750D01*
G75*
G02*
X134374750Y-117075000I249750J0D01*
G01*
X135625250Y-117075000D01*
G75*
G02*
X135875000Y-117324750I0J-249750D01*
G01*
X135875000Y-117950250D01*
G75*
G02*
X135625250Y-118200000I-249750J0D01*
G01*
G37*
%TD.AperFunction*%
%TO.P,C1,1*%
%TO.N,GND*%
%TA.AperFunction,SMDPad,CuDef*%
G36*
G01*
X135625250Y-121125000D02*
X134374750Y-121125000D01*
G75*
G02*
X134125000Y-120875250I0J249750D01*
G01*
X134125000Y-120249750D01*
G75*
G02*
X134374750Y-120000000I249750J0D01*
G01*
X135625250Y-120000000D01*
G75*
G02*
X135875000Y-120249750I0J-249750D01*
G01*
X135875000Y-120875250D01*
G75*
G02*
X135625250Y-121125000I-249750J0D01*
G01*
G37*
%TD.AperFunction*%
%TD*%
%TO.P,J1,1*%
%TO.N,GND*%
X133045000Y-120500000D03*
D21*
%TO.P,J1,2*%
%TO.N,IO1*%
X130505000Y-120500000D03*
%TO.P,J1,3*%
%TO.N,IO2*%
X127965000Y-120500000D03*
%TO.P,J1,4*%
%TO.N,IO3*%
X125425000Y-120500000D03*
%TO.P,J1,5*%
%TO.N,IO4*%
X122885000Y-120500000D03*
%TO.P,J1,6*%
%TO.N,Net-(J1-Pad6)*%
X120345000Y-120500000D03*
%TD*%
D23*
%TO.P,J2,S1*%
%TO.N,GND*%
X133500000Y-111100000D03*
%TA.AperFunction,SMDPad,CuDef*%
D16*
G36*
X129260685Y-114286929D02*
G01*
X129262555Y-114274861D01*
X129265591Y-114263032D01*
X129269769Y-114251556D01*
X129275047Y-114240543D01*
X129281373Y-114230097D01*
X129288688Y-114220319D01*
X129296924Y-114211301D01*
X129306001Y-114203129D01*
X129315830Y-114195882D01*
X129326320Y-114189630D01*
X129337371Y-114184430D01*
X129348875Y-114180334D01*
X129360725Y-114177380D01*
X129372807Y-114175596D01*
X129385005Y-114175000D01*
X129397203Y-114175598D01*
X129409284Y-114177382D01*
X129421134Y-114180337D01*
X129432638Y-114184434D01*
X129443688Y-114189634D01*
X129454178Y-114195888D01*
X129464007Y-114203135D01*
X129473082Y-114211308D01*
X129481317Y-114220326D01*
X129488632Y-114230105D01*
X129494958Y-114240551D01*
X129500235Y-114251565D01*
X129504411Y-114263041D01*
X129507447Y-114274871D01*
X129509315Y-114286939D01*
X129509997Y-114299132D01*
X129510052Y-114307023D01*
X129514448Y-114376893D01*
X129525224Y-114443427D01*
X129542443Y-114508595D01*
X129565934Y-114571762D01*
X129595477Y-114632335D01*
X129630792Y-114689739D01*
X129671541Y-114743424D01*
X129717337Y-114792880D01*
X129767737Y-114837627D01*
X129822269Y-114877246D01*
X129880392Y-114911347D01*
X129941580Y-114939619D01*
X130005228Y-114961784D01*
X130070739Y-114977632D01*
X130137476Y-114987012D01*
X130204813Y-114989834D01*
X130272106Y-114986071D01*
X130338718Y-114975760D01*
X130403998Y-114958999D01*
X130463729Y-114937258D01*
X130465691Y-114935888D01*
X130755000Y-114688715D01*
X130755000Y-114098629D01*
X130503200Y-114114471D01*
X130501458Y-114114569D01*
X130498835Y-114114569D01*
X130496225Y-114114715D01*
X130455874Y-114114997D01*
X130454129Y-114114997D01*
X130441934Y-114114315D01*
X130429866Y-114112447D01*
X130418038Y-114109410D01*
X130406561Y-114105233D01*
X130395548Y-114099956D01*
X130385102Y-114093630D01*
X130375323Y-114086315D01*
X130366304Y-114078080D01*
X130358133Y-114069004D01*
X130350885Y-114059174D01*
X130344632Y-114048685D01*
X130339432Y-114037635D01*
X130335336Y-114026130D01*
X130332381Y-114014281D01*
X130330596Y-114002199D01*
X130330000Y-113990001D01*
X130330597Y-113977803D01*
X130332380Y-113965721D01*
X130335335Y-113953871D01*
X130339431Y-113942367D01*
X130344631Y-113931317D01*
X130350884Y-113920827D01*
X130358132Y-113910997D01*
X130366303Y-113901922D01*
X130375321Y-113893686D01*
X130385100Y-113886371D01*
X130395546Y-113880045D01*
X130406560Y-113874768D01*
X130418036Y-113870590D01*
X130429865Y-113867554D01*
X130441933Y-113865685D01*
X130454126Y-113865003D01*
X130490993Y-113864745D01*
X130755000Y-113848135D01*
X130755000Y-108352804D01*
X130724804Y-108348345D01*
X130448894Y-108334851D01*
X130447151Y-108334754D01*
X130435014Y-108333392D01*
X130423069Y-108330852D01*
X130411429Y-108327160D01*
X130400203Y-108322349D01*
X130389502Y-108316466D01*
X130379425Y-108309566D01*
X130370070Y-108301717D01*
X130361525Y-108292991D01*
X130353873Y-108283473D01*
X130347185Y-108273254D01*
X130341528Y-108262431D01*
X130336953Y-108251108D01*
X130333505Y-108239393D01*
X130331216Y-108227397D01*
X130330109Y-108215234D01*
X130330195Y-108203022D01*
X130331472Y-108190877D01*
X130333927Y-108178913D01*
X130337538Y-108167247D01*
X130342271Y-108155990D01*
X130348080Y-108145247D01*
X130354908Y-108135122D01*
X130362693Y-108125712D01*
X130371359Y-108117107D01*
X130380822Y-108109388D01*
X130390995Y-108102630D01*
X130401778Y-108096897D01*
X130413069Y-108092243D01*
X130424760Y-108088713D01*
X130436740Y-108086341D01*
X130448894Y-108085150D01*
X130461106Y-108085149D01*
X130743121Y-108098942D01*
X130744864Y-108099039D01*
X130750118Y-108099629D01*
X130755000Y-108100107D01*
X130755000Y-107509791D01*
X130712229Y-107468066D01*
X130448671Y-107256986D01*
X130394774Y-107238217D01*
X130329261Y-107222368D01*
X130262524Y-107212988D01*
X130195187Y-107210166D01*
X130127894Y-107213929D01*
X130061286Y-107224240D01*
X129996002Y-107241002D01*
X129932677Y-107264051D01*
X129871888Y-107293175D01*
X129814239Y-107328088D01*
X129760276Y-107368458D01*
X129710504Y-107413907D01*
X129665402Y-107463997D01*
X129625408Y-107518244D01*
X129590899Y-107576134D01*
X129562200Y-107637121D01*
X129539594Y-107700608D01*
X129523288Y-107766007D01*
X129513442Y-107832681D01*
X129509851Y-107906107D01*
X129509754Y-107907849D01*
X129508392Y-107919986D01*
X129505852Y-107931931D01*
X129502160Y-107943572D01*
X129497349Y-107954797D01*
X129491465Y-107965498D01*
X129484566Y-107975575D01*
X129476716Y-107984930D01*
X129467990Y-107993475D01*
X129458472Y-108001127D01*
X129448253Y-108007815D01*
X129437431Y-108013472D01*
X129426108Y-108018047D01*
X129414393Y-108021495D01*
X129402396Y-108023784D01*
X129390234Y-108024891D01*
X129378021Y-108024805D01*
X129365876Y-108023528D01*
X129353913Y-108021073D01*
X129342246Y-108017462D01*
X129330989Y-108012729D01*
X129320246Y-108006920D01*
X129310122Y-108000091D01*
X129300712Y-107992306D01*
X129292107Y-107983641D01*
X129284388Y-107974177D01*
X129277630Y-107964005D01*
X129271897Y-107953222D01*
X129267243Y-107941931D01*
X129263713Y-107930240D01*
X129261341Y-107918260D01*
X129260150Y-107906106D01*
X129260149Y-107893893D01*
X129264039Y-107814363D01*
X129264136Y-107812621D01*
X129264726Y-107807367D01*
X129265231Y-107802209D01*
X129276863Y-107723439D01*
X129277130Y-107721714D01*
X129278219Y-107716588D01*
X129279235Y-107711459D01*
X129298498Y-107634199D01*
X129298932Y-107632509D01*
X129300516Y-107627514D01*
X129302028Y-107622508D01*
X129328738Y-107547496D01*
X129329335Y-107545857D01*
X129331396Y-107541047D01*
X129333392Y-107536205D01*
X129367295Y-107464159D01*
X129368049Y-107462585D01*
X129370587Y-107457967D01*
X129373028Y-107453376D01*
X129413799Y-107384981D01*
X129414702Y-107383489D01*
X129417680Y-107379139D01*
X129420557Y-107374809D01*
X129467808Y-107310719D01*
X129468853Y-107309322D01*
X129472217Y-107305313D01*
X129475527Y-107301254D01*
X129528807Y-107242082D01*
X129529983Y-107240793D01*
X129533729Y-107237126D01*
X129537412Y-107233416D01*
X129596211Y-107179725D01*
X129597507Y-107178558D01*
X129601612Y-107175258D01*
X129605621Y-107171941D01*
X129669380Y-107124243D01*
X129670784Y-107123207D01*
X129675181Y-107120330D01*
X129679504Y-107117414D01*
X129747612Y-107076166D01*
X129749111Y-107075272D01*
X129753753Y-107072846D01*
X129758357Y-107070356D01*
X129830166Y-107035952D01*
X129831744Y-107035209D01*
X129836656Y-107033225D01*
X129841422Y-107031221D01*
X129916244Y-107003987D01*
X129917888Y-107003401D01*
X129922945Y-107001913D01*
X129927912Y-107000375D01*
X130005035Y-106980573D01*
X130006728Y-106980151D01*
X130011874Y-106979169D01*
X130016999Y-106978117D01*
X130039668Y-106974608D01*
X129940484Y-106909973D01*
X129939029Y-106909010D01*
X129929235Y-106901713D01*
X129920202Y-106893495D01*
X129912013Y-106884435D01*
X129904747Y-106874619D01*
X129898474Y-106864141D01*
X129893253Y-106853101D01*
X129889134Y-106841605D01*
X129886157Y-106829760D01*
X129884351Y-106817682D01*
X129883730Y-106805485D01*
X129884304Y-106793286D01*
X129886064Y-106781202D01*
X129888996Y-106769347D01*
X129893071Y-106757834D01*
X129898250Y-106746773D01*
X129904483Y-106736271D01*
X129911712Y-106726428D01*
X129919866Y-106717337D01*
X129928869Y-106709084D01*
X129938633Y-106701751D01*
X129949068Y-106695404D01*
X129960071Y-106690107D01*
X129971539Y-106685908D01*
X129983362Y-106682849D01*
X129995427Y-106680957D01*
X130007619Y-106680252D01*
X130019822Y-106680740D01*
X130031918Y-106682417D01*
X130043794Y-106685266D01*
X130055335Y-106689261D01*
X130066430Y-106694362D01*
X130076976Y-106700521D01*
X130484097Y-106965827D01*
X130485552Y-106966790D01*
X130489779Y-106969940D01*
X130493991Y-106972987D01*
X130577904Y-107040192D01*
X130630018Y-107064272D01*
X130631597Y-107065015D01*
X130636220Y-107067515D01*
X130640840Y-107069930D01*
X130709518Y-107110223D01*
X130711017Y-107111116D01*
X130715386Y-107114063D01*
X130719738Y-107116911D01*
X130784156Y-107163713D01*
X130785560Y-107164749D01*
X130789614Y-107168103D01*
X130793672Y-107171365D01*
X130853216Y-107224230D01*
X130854513Y-107225397D01*
X130858213Y-107229123D01*
X130861943Y-107232775D01*
X130916042Y-107291198D01*
X130917219Y-107292487D01*
X130920514Y-107296527D01*
X130923892Y-107300552D01*
X130961425Y-107350000D01*
X133482838Y-107350000D01*
X133606232Y-107181403D01*
X133607272Y-107180002D01*
X133610624Y-107175979D01*
X133613918Y-107171911D01*
X134011762Y-106726947D01*
X134012934Y-106725654D01*
X134014645Y-106723967D01*
X134016250Y-106722184D01*
X134046305Y-106691920D01*
X134047543Y-106690690D01*
X134056676Y-106682581D01*
X134066556Y-106675404D01*
X134077089Y-106669224D01*
X134088176Y-106664101D01*
X134099709Y-106660085D01*
X134111579Y-106657214D01*
X134123672Y-106655514D01*
X134135874Y-106655003D01*
X134148068Y-106655685D01*
X134160137Y-106657553D01*
X134171965Y-106660591D01*
X134183441Y-106664767D01*
X134194454Y-106670044D01*
X134204900Y-106676370D01*
X134214680Y-106683686D01*
X134223698Y-106691921D01*
X134231869Y-106700997D01*
X134239116Y-106710827D01*
X134245370Y-106721317D01*
X134250569Y-106732367D01*
X134254666Y-106743872D01*
X134257620Y-106755721D01*
X134259404Y-106767803D01*
X134260000Y-106780001D01*
X134259404Y-106792198D01*
X134257619Y-106804280D01*
X134254665Y-106816129D01*
X134250568Y-106827634D01*
X134245368Y-106838685D01*
X134239114Y-106849174D01*
X134231867Y-106859004D01*
X134223696Y-106868080D01*
X134195954Y-106896016D01*
X133804363Y-107333985D01*
X133585000Y-107633707D01*
X133585000Y-108600000D01*
X134685000Y-108600000D01*
X134685000Y-107350000D01*
X136245000Y-107350000D01*
X136245000Y-114850000D01*
X134685000Y-114850000D01*
X134685000Y-113600000D01*
X133585000Y-113600000D01*
X133585000Y-114567463D01*
X133830769Y-114898390D01*
X134227601Y-115336035D01*
X134228764Y-115337336D01*
X134236383Y-115346881D01*
X134243034Y-115357123D01*
X134248655Y-115367965D01*
X134253190Y-115379304D01*
X134256597Y-115391032D01*
X134258843Y-115403036D01*
X134259908Y-115415201D01*
X134259780Y-115427413D01*
X134258461Y-115439555D01*
X134255964Y-115451509D01*
X134252311Y-115463162D01*
X134247540Y-115474404D01*
X134241694Y-115485126D01*
X134234830Y-115495227D01*
X134227012Y-115504610D01*
X134218316Y-115513185D01*
X134208826Y-115520870D01*
X134198630Y-115527593D01*
X134187827Y-115533289D01*
X134176520Y-115537903D01*
X134164817Y-115541392D01*
X134152829Y-115543722D01*
X134140670Y-115544871D01*
X134128458Y-115544828D01*
X134116308Y-115543595D01*
X134104337Y-115541181D01*
X134092658Y-115537610D01*
X134081383Y-115532917D01*
X134070620Y-115527146D01*
X134060472Y-115520352D01*
X134051035Y-115512600D01*
X134042399Y-115503965D01*
X133641459Y-115061789D01*
X133640296Y-115060488D01*
X133637006Y-115056367D01*
X133633708Y-115052352D01*
X133483428Y-114850000D01*
X130961152Y-114850000D01*
X130932192Y-114889281D01*
X130931147Y-114890679D01*
X130927776Y-114894696D01*
X130924473Y-114898746D01*
X130871193Y-114957919D01*
X130870016Y-114959207D01*
X130866292Y-114962854D01*
X130862588Y-114966584D01*
X130803789Y-115020275D01*
X130802492Y-115021443D01*
X130798384Y-115024746D01*
X130794379Y-115028059D01*
X130730620Y-115075757D01*
X130729216Y-115076793D01*
X130724819Y-115079670D01*
X130720496Y-115082586D01*
X130652388Y-115123834D01*
X130650889Y-115124728D01*
X130646235Y-115127161D01*
X130641643Y-115129644D01*
X130588209Y-115155244D01*
X130215276Y-115415496D01*
X130213838Y-115416484D01*
X130210845Y-115418304D01*
X130207950Y-115420236D01*
X130029209Y-115527248D01*
X130027706Y-115528134D01*
X130016854Y-115533737D01*
X130005508Y-115538254D01*
X129993775Y-115541643D01*
X129981767Y-115543871D01*
X129969600Y-115544915D01*
X129957388Y-115544768D01*
X129945250Y-115543430D01*
X129933299Y-115540913D01*
X129921651Y-115537242D01*
X129910417Y-115532453D01*
X129899705Y-115526590D01*
X129889615Y-115519710D01*
X129880245Y-115511878D01*
X129871683Y-115503169D01*
X129864012Y-115493665D01*
X129857306Y-115483459D01*
X129851628Y-115472647D01*
X129847031Y-115461332D01*
X129843561Y-115449623D01*
X129841250Y-115437632D01*
X129840120Y-115425472D01*
X129840182Y-115413260D01*
X129841435Y-115401112D01*
X129843869Y-115389144D01*
X129847457Y-115377471D01*
X129852169Y-115366204D01*
X129857957Y-115355450D01*
X129864766Y-115345313D01*
X129872533Y-115335888D01*
X129881183Y-115327266D01*
X129890632Y-115319530D01*
X129900791Y-115312752D01*
X130044923Y-115226460D01*
X130029887Y-115224347D01*
X130028160Y-115224093D01*
X130022980Y-115223030D01*
X130017891Y-115222059D01*
X129940499Y-115203336D01*
X129938806Y-115202914D01*
X129933801Y-115201364D01*
X129928784Y-115199888D01*
X129853588Y-115173702D01*
X129851944Y-115173117D01*
X129847105Y-115171083D01*
X129842264Y-115169127D01*
X129769983Y-115135728D01*
X129768404Y-115134985D01*
X129763797Y-115132494D01*
X129759160Y-115130070D01*
X129690482Y-115089777D01*
X129688983Y-115088884D01*
X129684628Y-115085947D01*
X129680262Y-115083090D01*
X129615845Y-115036287D01*
X129614440Y-115035252D01*
X129610377Y-115031890D01*
X129606328Y-115028635D01*
X129546784Y-114975770D01*
X129545487Y-114974603D01*
X129541767Y-114970857D01*
X129538058Y-114967225D01*
X129483958Y-114908802D01*
X129482781Y-114907514D01*
X129479453Y-114903433D01*
X129476108Y-114899447D01*
X129427966Y-114836023D01*
X129426921Y-114834626D01*
X129424020Y-114830260D01*
X129421066Y-114825946D01*
X129379344Y-114758127D01*
X129378440Y-114756634D01*
X129375967Y-114751983D01*
X129373461Y-114747425D01*
X129338556Y-114675860D01*
X129337802Y-114674286D01*
X129335802Y-114669433D01*
X129333745Y-114664634D01*
X129305989Y-114590002D01*
X129305392Y-114588362D01*
X129303876Y-114583339D01*
X129302297Y-114578362D01*
X129281957Y-114501379D01*
X129281523Y-114499689D01*
X129280502Y-114494530D01*
X129279418Y-114489434D01*
X129266687Y-114410833D01*
X129266420Y-114409109D01*
X129265906Y-114403872D01*
X129265326Y-114398696D01*
X129260326Y-114319228D01*
X129260228Y-114317486D01*
X129260228Y-114314857D01*
X129260082Y-114312247D01*
X129260003Y-114300868D01*
X129260003Y-114299123D01*
X129260685Y-114286929D01*
G37*
%TD.AperFunction*%
D24*
%TO.P,J2,A12*%
X129385000Y-107900000D03*
%TO.P,J2,A4*%
%TO.N,VBUS*%
X129385000Y-113500000D03*
%TO.P,J2,B12*%
%TO.N,GND*%
X129385000Y-114300000D03*
%TO.P,J2,B4*%
%TO.N,VBUS*%
X129385000Y-108700000D03*
D25*
%TO.P,J2,S1*%
%TO.N,GND*%
X134135000Y-106780000D03*
X134135000Y-115420000D03*
D26*
X129965000Y-106780000D03*
X129965000Y-115420000D03*
D27*
%TO.P,J2,A7*%
%TO.N,Net-(C4-Pad1)*%
X129385000Y-110850000D03*
%TO.P,J2,A6*%
%TO.N,Net-(C5-Pad1)*%
X129385000Y-111350000D03*
%TO.P,J2,B6*%
X129385000Y-110350000D03*
%TO.P,J2,B7*%
%TO.N,Net-(C4-Pad1)*%
X129385000Y-111850000D03*
%TO.P,J2,A8*%
%TO.N,Net-(J2-PadA8)*%
X129385000Y-109850000D03*
%TO.P,J2,A5*%
%TO.N,Net-(J2-PadA5)*%
X129385000Y-112350000D03*
%TO.P,J2,B5*%
%TO.N,Net-(J2-PadB5)*%
X129385000Y-109350000D03*
%TO.P,J2,B8*%
%TO.N,Net-(J2-PadB8)*%
X129385000Y-112850000D03*
D24*
%TO.P,J2,A9*%
%TO.N,VBUS*%
X129385000Y-108700000D03*
%TO.P,J2,B9*%
X129385000Y-113500000D03*
%TO.P,J2,B1*%
%TO.N,GND*%
X129385000Y-107900000D03*
D28*
%TO.P,J2,S1*%
X130455000Y-108210000D03*
X130455000Y-113990000D03*
D24*
%TO.P,J2,A1*%
X129385000Y-114300000D03*
%TD*%
D29*
%TO.N,GND*%
X122300000Y-104600000D03*
X122400000Y-99700024D03*
X133700000Y-118500000D03*
X121520001Y-124179999D03*
%TO.N,+3V3*%
X126900000Y-99974946D03*
%TO.N,IO5*%
X119800000Y-113925010D03*
%TO.N,O*%
X121109490Y-114652782D03*
%TO.N,I*%
X119837340Y-109937340D03*
%TO.N,DC*%
X121251168Y-125928298D03*
X128731794Y-103929936D03*
%TO.N,Net-(Q1-Pad5)*%
X122447374Y-100763201D03*
%TO.N,Net-(Q1-Pad4)*%
X122600011Y-108003478D03*
%TO.N,ADCON*%
X123000000Y-103700000D03*
%TO.N,ADC*%
X123575645Y-107774980D03*
%TO.N,CHARGER*%
X121200000Y-109850002D03*
%TO.N,USB*%
X121112119Y-110913201D03*
%TO.N,Net-(C2-Pad1)*%
X124517912Y-110903845D03*
X124284095Y-115314543D03*
%TO.N,R*%
X120953036Y-101108067D03*
%TO.N,G*%
X120957632Y-103207632D03*
%TO.N,B*%
X120949191Y-102183182D03*
%TO.N,Net-(C4-Pad1)*%
X132400000Y-115804998D03*
X126882276Y-114597468D03*
X127077238Y-112187497D03*
X127077230Y-110545028D03*
%TO.N,Net-(C5-Pad1)*%
X131300000Y-115800000D03*
X125492070Y-110632455D03*
X125818304Y-114598388D03*
%TD*%
D30*
%TO.N,D+*%
X125700000Y-113175000D02*
X125700000Y-113575000D01*
X125225000Y-112700000D02*
X125700000Y-113175000D01*
X124600000Y-112700000D02*
X125225000Y-112700000D01*
%TO.N,GND*%
X122700000Y-110800000D02*
X122700000Y-112700000D01*
X124600000Y-113700000D02*
X123700000Y-113700000D01*
X123700000Y-113700000D02*
X122700000Y-112700000D01*
X123700000Y-114600000D02*
X123700000Y-113700000D01*
X123200000Y-113200000D02*
X122700000Y-112700000D01*
X123200000Y-114600000D02*
X123200000Y-113200000D01*
X122700000Y-114600000D02*
X122700000Y-112700000D01*
X122200000Y-113200000D02*
X122700000Y-112700000D01*
X122200000Y-114600000D02*
X122200000Y-113200000D01*
D31*
X135600000Y-125800000D02*
X134000000Y-125800000D01*
X135600000Y-120500000D02*
X135600000Y-125800000D01*
X133045000Y-120500000D02*
X135600000Y-120500000D01*
D30*
X128325000Y-107900000D02*
X128100000Y-107675000D01*
X129385000Y-107900000D02*
X128325000Y-107900000D01*
D31*
X129435000Y-106250000D02*
X129965000Y-106780000D01*
X129200000Y-106250000D02*
X129435000Y-106250000D01*
D30*
X123975000Y-102925000D02*
X123850000Y-103050000D01*
X123975000Y-101400000D02*
X123975000Y-102925000D01*
X123975000Y-101125000D02*
X124500010Y-100599990D01*
X125900000Y-102500000D02*
X125189998Y-102500000D01*
X123175000Y-106900000D02*
X122775000Y-106900000D01*
X126500000Y-100800000D02*
X126500000Y-101900000D01*
X123975000Y-101400000D02*
X123975000Y-101125000D01*
X124500010Y-100599990D02*
X126299990Y-100599990D01*
X126500000Y-101900000D02*
X125900000Y-102500000D01*
X126299990Y-100599990D02*
X126500000Y-100800000D01*
X125189998Y-102500000D02*
X125092476Y-102597522D01*
X124007522Y-104900000D02*
X123699990Y-105207532D01*
X125092476Y-102597522D02*
X125092476Y-104900000D01*
X123699990Y-105207532D02*
X123699990Y-106375010D01*
X125092476Y-104900000D02*
X124007522Y-104900000D01*
X123699990Y-106375010D02*
X123175000Y-106900000D01*
X122049990Y-106574990D02*
X122375000Y-106900000D01*
X122049990Y-105150010D02*
X122049990Y-106574990D01*
X122500000Y-104700000D02*
X122049990Y-105150010D01*
X132533130Y-125800000D02*
X134000000Y-125800000D01*
X131133130Y-124400000D02*
X132533130Y-125800000D01*
X129170010Y-118679990D02*
X129170010Y-124270010D01*
X129170010Y-124270010D02*
X129300000Y-124400000D01*
X129400000Y-118450000D02*
X129170010Y-118679990D01*
X129300000Y-124400000D02*
X131133130Y-124400000D01*
X122400010Y-119245988D02*
X121520001Y-120125997D01*
X122675000Y-117150000D02*
X122400010Y-117424990D01*
X121520001Y-120125997D02*
X121520001Y-124179999D01*
X122400010Y-117424990D02*
X122400010Y-119245988D01*
X123250000Y-117150000D02*
X122675000Y-117150000D01*
X121764992Y-124424990D02*
X124475010Y-124424990D01*
X121520001Y-124179999D02*
X121764992Y-124424990D01*
X124475010Y-124424990D02*
X124500000Y-124400000D01*
X126700000Y-117375000D02*
X126700000Y-124400000D01*
X126925000Y-117150000D02*
X126700000Y-117375000D01*
X127500000Y-117150000D02*
X126925000Y-117150000D01*
X126700000Y-124400000D02*
X129300000Y-124400000D01*
X124500000Y-124400000D02*
X126700000Y-124400000D01*
X124249999Y-118550001D02*
X124350000Y-118450000D01*
X124350000Y-118450000D02*
X125150000Y-118450000D01*
X124249999Y-124349999D02*
X124249999Y-118550001D01*
X124300000Y-124400000D02*
X124249999Y-124349999D01*
X124500000Y-124400000D02*
X124300000Y-124400000D01*
X122700000Y-110800000D02*
X122700000Y-110265567D01*
X129770000Y-115225000D02*
X129965000Y-115420000D01*
X128100000Y-115225000D02*
X129770000Y-115225000D01*
X122775000Y-106900000D02*
X122375000Y-106900000D01*
X122700000Y-109525000D02*
X122925000Y-109300000D01*
X122700000Y-110800000D02*
X122700000Y-109525000D01*
X121875001Y-107399999D02*
X121875001Y-108195479D01*
X122375000Y-106900000D02*
X121875001Y-107399999D01*
X121670480Y-108400000D02*
X119250000Y-108400000D01*
X121875001Y-108195479D02*
X121670480Y-108400000D01*
X122925000Y-108975000D02*
X122925000Y-109300000D01*
X124465577Y-108499990D02*
X123400010Y-108499990D01*
X128075000Y-107700000D02*
X125265567Y-107700000D01*
X123400010Y-108499990D02*
X122925000Y-108975000D01*
X125265567Y-107700000D02*
X124465577Y-108499990D01*
X128100000Y-107675000D02*
X128075000Y-107700000D01*
X131600000Y-118115660D02*
X131600000Y-118350000D01*
X129965000Y-116480660D02*
X131600000Y-118115660D01*
X129965000Y-115420000D02*
X129965000Y-116480660D01*
X132950000Y-118500000D02*
X132800000Y-118350000D01*
X133700000Y-118500000D02*
X132950000Y-118500000D01*
X121520001Y-124179999D02*
X121520001Y-124179999D01*
X120339544Y-116039544D02*
X129345456Y-116039544D01*
X120148008Y-115848008D02*
X120339544Y-116039544D01*
X129345456Y-116039544D02*
X129965000Y-115420000D01*
X122750024Y-99700024D02*
X122400000Y-99700024D01*
X123975000Y-101400000D02*
X123975000Y-100925000D01*
X123975000Y-100925000D02*
X122750024Y-99700024D01*
%TO.N,D-*%
X126900000Y-113175000D02*
X126900000Y-113575000D01*
X125925000Y-112200000D02*
X126900000Y-113175000D01*
X124600000Y-112200000D02*
X125925000Y-112200000D01*
D31*
%TO.N,+3V3*%
X122970000Y-125812500D02*
X125470000Y-125812500D01*
X125470000Y-125812500D02*
X127970000Y-125812500D01*
X127970000Y-125812500D02*
X130470000Y-125812500D01*
D30*
X129100000Y-100400000D02*
X129138409Y-100361591D01*
X129138409Y-100361591D02*
X129138409Y-100028419D01*
X129100000Y-100400000D02*
X128674946Y-99974946D01*
X128674946Y-99974946D02*
X126900000Y-99974946D01*
X121200000Y-100300000D02*
X121200000Y-99000000D01*
X123792546Y-99974946D02*
X126900000Y-99974946D01*
X122792610Y-98975010D02*
X123792546Y-99974946D01*
X121224990Y-98975010D02*
X122792610Y-98975010D01*
X121200000Y-99000000D02*
X121224990Y-98975010D01*
X117699990Y-107100010D02*
X118699990Y-107100010D01*
X119100000Y-106700000D02*
X119375000Y-106700000D01*
X118699990Y-107100010D02*
X119100000Y-106700000D01*
X123250000Y-117800000D02*
X124200000Y-117800000D01*
X124200000Y-117800000D02*
X125150000Y-117800000D01*
X128500000Y-117800000D02*
X129400000Y-117800000D01*
X127500000Y-117800000D02*
X128500000Y-117800000D01*
X119136666Y-127000000D02*
X121232500Y-127000000D01*
X121232500Y-127000000D02*
X122970000Y-125262500D01*
X117699990Y-125563324D02*
X119136666Y-127000000D01*
X117699990Y-107100010D02*
X117699990Y-125563324D01*
X119975010Y-117261860D02*
X119975010Y-118924990D01*
X124200000Y-117800000D02*
X124200000Y-116636410D01*
X119899990Y-119000010D02*
X117800010Y-119000010D01*
X120686861Y-116550009D02*
X119975010Y-117261860D01*
X119975010Y-118924990D02*
X119899990Y-119000010D01*
X128350009Y-116550009D02*
X128500000Y-116700000D01*
X123450009Y-116550009D02*
X128350009Y-116550009D01*
X128500000Y-116700000D02*
X128500000Y-117800000D01*
X124349991Y-116550009D02*
X123450009Y-116550009D01*
X123450009Y-116550009D02*
X120686861Y-116550009D01*
X121100000Y-100200000D02*
X121200000Y-100300000D01*
X120075000Y-100200000D02*
X121100000Y-100200000D01*
X121725002Y-103465585D02*
X121725002Y-100825002D01*
X120790577Y-104400010D02*
X121725002Y-103465585D01*
X117699990Y-107100010D02*
X117699990Y-104600010D01*
X117899990Y-104400010D02*
X120790577Y-104400010D01*
X121678037Y-100778037D02*
X121200000Y-100300000D01*
X117699990Y-104600010D02*
X117899990Y-104400010D01*
X121725002Y-100825002D02*
X121678037Y-100778037D01*
%TO.N,VBUS*%
X130040002Y-108700000D02*
X129385000Y-108700000D01*
X130280001Y-113260001D02*
X130280001Y-108939999D01*
X130280001Y-108939999D02*
X130040002Y-108700000D01*
X130040002Y-113500000D02*
X130280001Y-113260001D01*
X129385000Y-113500000D02*
X130040002Y-113500000D01*
X123200000Y-110401978D02*
X123476988Y-110124990D01*
X123200000Y-110800000D02*
X123200000Y-110401978D01*
X126300010Y-108599990D02*
X126100000Y-108800000D01*
X129284990Y-108599990D02*
X126300010Y-108599990D01*
X129385000Y-108700000D02*
X129284990Y-108599990D01*
X124475000Y-110074980D02*
X124424990Y-110124990D01*
X124475000Y-109300000D02*
X124475000Y-110074980D01*
X123476988Y-110124990D02*
X124424990Y-110124990D01*
X125225000Y-108800000D02*
X126100000Y-108800000D01*
X124424990Y-110124990D02*
X124424990Y-109600010D01*
X124424990Y-109600010D02*
X125225000Y-108800000D01*
%TO.N,IO5*%
X118300000Y-116962500D02*
X119137500Y-117800000D01*
X118166106Y-117378606D02*
X118166106Y-114033894D01*
X119300000Y-113800000D02*
X119425010Y-113925010D01*
X118166106Y-114033894D02*
X118400000Y-113800000D01*
X119425010Y-113925010D02*
X119800000Y-113925010D01*
X118400000Y-113800000D02*
X119300000Y-113800000D01*
X118587500Y-117800000D02*
X118166106Y-117378606D01*
%TO.N,IO4*%
X122885000Y-123352500D02*
X122970000Y-123437500D01*
X122885000Y-120500000D02*
X122885000Y-123352500D01*
X123250000Y-120135000D02*
X122885000Y-120500000D01*
X123250000Y-118450000D02*
X123250000Y-120135000D01*
%TO.N,IO3*%
X125470000Y-120545000D02*
X125425000Y-120500000D01*
X125470000Y-122887500D02*
X125470000Y-120545000D01*
X125800001Y-117400001D02*
X125550000Y-117150000D01*
X125800001Y-120124999D02*
X125800001Y-117400001D01*
X125425000Y-120500000D02*
X125800001Y-120124999D01*
X125150000Y-117150000D02*
X125550000Y-117150000D01*
%TO.N,IO2*%
X127970000Y-120505000D02*
X127965000Y-120500000D01*
X127970000Y-122887500D02*
X127970000Y-120505000D01*
X127500000Y-120035000D02*
X127965000Y-120500000D01*
X127500000Y-118450000D02*
X127500000Y-120035000D01*
%TO.N,IO1*%
X130470000Y-120535000D02*
X130505000Y-120500000D01*
X130470000Y-122887500D02*
X130470000Y-120535000D01*
X135000000Y-117637500D02*
X135000000Y-118273002D01*
X135000000Y-118273002D02*
X134036501Y-119236501D01*
X134036501Y-119236501D02*
X131763499Y-119236501D01*
X131763499Y-119241501D02*
X130505000Y-120500000D01*
X131763499Y-119236501D02*
X131763499Y-119241501D01*
X129975000Y-117150000D02*
X129400000Y-117150000D01*
X130505000Y-117680000D02*
X129975000Y-117150000D01*
X130505000Y-120500000D02*
X130505000Y-117680000D01*
%TO.N,O*%
X121162272Y-114600000D02*
X121109490Y-114652782D01*
X121700000Y-114600000D02*
X121162272Y-114600000D01*
%TO.N,I*%
X120800000Y-112200000D02*
X119900000Y-112200000D01*
X119837340Y-112137340D02*
X119837340Y-109937340D01*
X119900000Y-112200000D02*
X119837340Y-112137340D01*
%TO.N,EN*%
X118350000Y-107750000D02*
X119250000Y-107750000D01*
X118300000Y-107800000D02*
X118350000Y-107750000D01*
X119063589Y-113200000D02*
X118300000Y-112436410D01*
X118300000Y-112436410D02*
X118300000Y-107800000D01*
X120800000Y-113200000D02*
X119063589Y-113200000D01*
%TO.N,Net-(J2-PadA5)*%
X128565000Y-112350000D02*
X129385000Y-112350000D01*
X128100000Y-112815000D02*
X128565000Y-112350000D01*
X128100000Y-113575000D02*
X128100000Y-112815000D01*
%TO.N,Net-(J2-PadB5)*%
X128125000Y-109350000D02*
X128100000Y-109325000D01*
X129385000Y-109350000D02*
X128125000Y-109350000D01*
%TO.N,Net-(J1-Pad6)*%
X120962500Y-119882500D02*
X120345000Y-120500000D01*
X120962500Y-117800000D02*
X120962500Y-119882500D01*
X119700000Y-121145000D02*
X120345000Y-120500000D01*
X119700000Y-122887500D02*
X119700000Y-121145000D01*
%TO.N,GPIO0*%
X120800000Y-112700000D02*
X120401978Y-112700000D01*
X119250000Y-109050000D02*
X118850000Y-109050000D01*
X118850000Y-109050000D02*
X118900000Y-109100000D01*
X118900000Y-109100000D02*
X118900000Y-112400000D01*
X118900000Y-112400000D02*
X119180007Y-112680007D01*
X120800000Y-112700000D02*
X119200000Y-112700000D01*
%TO.N,Net-(D1-Pad2)*%
X118325000Y-101150000D02*
X118375000Y-101200000D01*
X118325000Y-100200000D02*
X118325000Y-101150000D01*
%TO.N,DC*%
X126625000Y-104350000D02*
X126800000Y-104525000D01*
X125750000Y-104350000D02*
X126625000Y-104350000D01*
X129100000Y-103100000D02*
X130050000Y-103100000D01*
D31*
X128990000Y-104300000D02*
X127800000Y-104300000D01*
X126800000Y-104525000D02*
X127275000Y-104525000D01*
X127275000Y-104525000D02*
X127500000Y-104300000D01*
X127800000Y-104300000D02*
X127500000Y-104300000D01*
X119815798Y-125928298D02*
X119700000Y-125812500D01*
X121251168Y-125928298D02*
X119815798Y-125928298D01*
X127800000Y-104300000D02*
X128170064Y-103929936D01*
X128170064Y-103929936D02*
X128731794Y-103929936D01*
D30*
X126800000Y-105300000D02*
X126100000Y-106000000D01*
X126800000Y-104525000D02*
X126800000Y-105300000D01*
%TO.N,Net-(Q1-Pad5)*%
X121025000Y-107625000D02*
X121150000Y-107750000D01*
X121025000Y-106700000D02*
X121025000Y-107625000D01*
X122175013Y-103651985D02*
X122175013Y-101035562D01*
X121025000Y-106700000D02*
X121025000Y-104801998D01*
X121025000Y-104801998D02*
X122175013Y-103651985D01*
X122175013Y-101035562D02*
X122447374Y-100763201D01*
%TO.N,Net-(Q1-Pad4)*%
X121922166Y-109050000D02*
X122600011Y-108372155D01*
X122600011Y-108372155D02*
X122600011Y-108003478D01*
X121150000Y-109050000D02*
X121922166Y-109050000D01*
%TO.N,ADCON*%
X123000000Y-103700000D02*
X123850000Y-103700000D01*
X124425000Y-103700000D02*
X123850000Y-103700000D01*
X124500001Y-103624999D02*
X124425000Y-103700000D01*
X124500001Y-102524999D02*
X124500001Y-103624999D01*
X125625000Y-101400000D02*
X124500001Y-102524999D01*
%TO.N,ADC*%
X124425000Y-106900000D02*
X124425000Y-105700000D01*
X124425000Y-106900000D02*
X123575645Y-107749355D01*
X123575645Y-107749355D02*
X123575645Y-107774980D01*
%TO.N,Net-(R14-Pad1)*%
X125750000Y-103050000D02*
X125750000Y-103700000D01*
X126625000Y-103050000D02*
X126800000Y-102875000D01*
X125750000Y-103050000D02*
X126625000Y-103050000D01*
%TO.N,CHARGER*%
X122200000Y-110401978D02*
X121648024Y-109850002D01*
X121648024Y-109850002D02*
X121200000Y-109850002D01*
X122200000Y-110800000D02*
X122200000Y-110401978D01*
%TO.N,USB*%
X121225320Y-110800000D02*
X121112119Y-110913201D01*
X121700000Y-110800000D02*
X121225320Y-110800000D01*
%TO.N,Net-(C2-Pad1)*%
X124159636Y-111700000D02*
X124600000Y-111700000D01*
X124029818Y-111570182D02*
X124025010Y-111570182D01*
X124029818Y-111570182D02*
X124159636Y-111700000D01*
X123700000Y-111240364D02*
X123700000Y-110800000D01*
X124025010Y-111565374D02*
X123700000Y-111240364D01*
X124025010Y-111570182D02*
X124025010Y-111565374D01*
X120525002Y-114223027D02*
X120382253Y-114365776D01*
X120525002Y-113974998D02*
X120525002Y-114223027D01*
X120800000Y-113700000D02*
X120525002Y-113974998D01*
X120351992Y-114751992D02*
X120382253Y-114782253D01*
X119051992Y-114751992D02*
X120351992Y-114751992D01*
X120382253Y-114365776D02*
X120382253Y-114782253D01*
X123700000Y-110800000D02*
X124414067Y-110800000D01*
X124414067Y-110800000D02*
X124517912Y-110903845D01*
X120829385Y-115397997D02*
X124200641Y-115397997D01*
X120382253Y-114782253D02*
X120382253Y-114950865D01*
X124200641Y-115397997D02*
X124284095Y-115314543D01*
X120382253Y-114950865D02*
X120829385Y-115397997D01*
%TO.N,Net-(D1-Pad3)*%
X117975000Y-103600000D02*
X118375000Y-103600000D01*
X117574999Y-99775001D02*
X117574999Y-103199999D01*
X117574999Y-103199999D02*
X117975000Y-103600000D01*
X118150000Y-99200000D02*
X117574999Y-99775001D01*
X118325000Y-99200000D02*
X118150000Y-99200000D01*
%TO.N,B*%
X120769552Y-102400000D02*
X120784095Y-102414543D01*
X120025000Y-102400000D02*
X120769552Y-102400000D01*
%TO.N,R*%
X120025000Y-101200000D02*
X120771558Y-101200000D01*
X120771558Y-101200000D02*
X120774998Y-101203440D01*
X120771558Y-101200000D02*
X120861103Y-101200000D01*
X120861103Y-101200000D02*
X120953036Y-101108067D01*
%TO.N,G*%
X120565268Y-103600000D02*
X120915850Y-103249418D01*
X120025000Y-103600000D02*
X120565268Y-103600000D01*
X120957632Y-103207636D02*
X120957632Y-103207632D01*
X120915850Y-103249418D02*
X120957632Y-103207636D01*
%TO.N,B*%
X120769552Y-102400000D02*
X120949191Y-102220361D01*
X120949191Y-102220361D02*
X120949191Y-102183182D01*
%TO.N,Net-(R15-Pad1)*%
X122750000Y-105675000D02*
X122775000Y-105700000D01*
X123249979Y-105225021D02*
X122775000Y-105700000D01*
X123249979Y-104825021D02*
X123249979Y-105225021D01*
X123725000Y-104350000D02*
X123249979Y-104825021D01*
X123850000Y-104350000D02*
X123725000Y-104350000D01*
%TO.N,Net-(C4-Pad1)*%
X132800000Y-116204998D02*
X132400000Y-115804998D01*
X132800000Y-116800000D02*
X132800000Y-116204998D01*
X126900000Y-115225000D02*
X126900000Y-114615192D01*
X126900000Y-114615192D02*
X126882276Y-114597468D01*
X129385000Y-110850000D02*
X127382202Y-110850000D01*
X127382202Y-110850000D02*
X127077230Y-110545028D01*
X129385000Y-111850000D02*
X127414735Y-111850000D01*
X127414735Y-111850000D02*
X127077238Y-112187497D01*
%TO.N,Net-(C5-Pad1)*%
X131600000Y-116100000D02*
X131300000Y-115800000D01*
X131600000Y-116800000D02*
X131600000Y-116100000D01*
X126354525Y-109770000D02*
X125492070Y-110632455D01*
X127907522Y-110350000D02*
X127327522Y-109770000D01*
X126209615Y-111350000D02*
X125492070Y-110632455D01*
X129385000Y-111350000D02*
X126209615Y-111350000D01*
X129385000Y-110350000D02*
X127907522Y-110350000D01*
X127327522Y-109770000D02*
X126354525Y-109770000D01*
X125700000Y-115225000D02*
X125700000Y-114716692D01*
X125700000Y-114716692D02*
X125818304Y-114598388D01*
%TO.N,Net-(D1-Pad4)*%
X119400000Y-99200000D02*
X120075000Y-99200000D01*
X119100010Y-99499990D02*
X119400000Y-99200000D01*
X118775000Y-102400000D02*
X119100010Y-102074990D01*
X119100010Y-102074990D02*
X119100010Y-99499990D01*
X118375000Y-102400000D02*
X118775000Y-102400000D01*
%TD*%
D32*
%TO.N,GND*%
X122485097Y-117812192D02*
X122546176Y-117859843D01*
X122546176Y-118000000D01*
X122553455Y-118073905D01*
X122568954Y-118125000D01*
X122553455Y-118176095D01*
X122546176Y-118250000D01*
X122546176Y-118650000D01*
X122553455Y-118723905D01*
X122575012Y-118794970D01*
X122610019Y-118860463D01*
X122657131Y-118917869D01*
X122714537Y-118964981D01*
X122748000Y-118982868D01*
X122748000Y-119276213D01*
X122527097Y-119320153D01*
X122303798Y-119412647D01*
X122102833Y-119546927D01*
X121931927Y-119717833D01*
X121797647Y-119918798D01*
X121705153Y-120142097D01*
X121658000Y-120379151D01*
X121658000Y-120620849D01*
X121705153Y-120857903D01*
X121797647Y-121081202D01*
X121931927Y-121282167D01*
X122102833Y-121453073D01*
X122303798Y-121587353D01*
X122383000Y-121620160D01*
X122383001Y-121946176D01*
X122344750Y-121946176D01*
X122222121Y-121958254D01*
X122104205Y-121994023D01*
X121995533Y-122052110D01*
X121900281Y-122130281D01*
X121822110Y-122225533D01*
X121764023Y-122334205D01*
X121728254Y-122452121D01*
X121716176Y-122574750D01*
X121716176Y-123200250D01*
X121728254Y-123322879D01*
X121764023Y-123440795D01*
X121822110Y-123549467D01*
X121891176Y-123633624D01*
X121891176Y-123699900D01*
X121903261Y-123822597D01*
X121939050Y-123940579D01*
X121997169Y-124049311D01*
X122075384Y-124144616D01*
X122170689Y-124222831D01*
X122279421Y-124280950D01*
X122397403Y-124316739D01*
X122520100Y-124328824D01*
X123419900Y-124328824D01*
X123542597Y-124316739D01*
X123660579Y-124280950D01*
X123769311Y-124222831D01*
X123864616Y-124144616D01*
X123942831Y-124049311D01*
X124000950Y-123940579D01*
X124036739Y-123822597D01*
X124048824Y-123699900D01*
X124048824Y-123633624D01*
X124117890Y-123549467D01*
X124175977Y-123440795D01*
X124211746Y-123322879D01*
X124220000Y-123239075D01*
X124228254Y-123322879D01*
X124264023Y-123440795D01*
X124322110Y-123549467D01*
X124391176Y-123633624D01*
X124391176Y-123699900D01*
X124403261Y-123822597D01*
X124439050Y-123940579D01*
X124497169Y-124049311D01*
X124575384Y-124144616D01*
X124670689Y-124222831D01*
X124779421Y-124280950D01*
X124897403Y-124316739D01*
X125020100Y-124328824D01*
X125919900Y-124328824D01*
X126042597Y-124316739D01*
X126160579Y-124280950D01*
X126269311Y-124222831D01*
X126364616Y-124144616D01*
X126442831Y-124049311D01*
X126500950Y-123940579D01*
X126536739Y-123822597D01*
X126548824Y-123699900D01*
X126548824Y-123633624D01*
X126617890Y-123549467D01*
X126675977Y-123440795D01*
X126711746Y-123322879D01*
X126720000Y-123239075D01*
X126728254Y-123322879D01*
X126764023Y-123440795D01*
X126822110Y-123549467D01*
X126891176Y-123633624D01*
X126891176Y-123699900D01*
X126903261Y-123822597D01*
X126939050Y-123940579D01*
X126997169Y-124049311D01*
X127075384Y-124144616D01*
X127170689Y-124222831D01*
X127279421Y-124280950D01*
X127397403Y-124316739D01*
X127520100Y-124328824D01*
X128419900Y-124328824D01*
X128542597Y-124316739D01*
X128660579Y-124280950D01*
X128769311Y-124222831D01*
X128864616Y-124144616D01*
X128942831Y-124049311D01*
X129000950Y-123940579D01*
X129036739Y-123822597D01*
X129048824Y-123699900D01*
X129048824Y-123633624D01*
X129117890Y-123549467D01*
X129175977Y-123440795D01*
X129211746Y-123322879D01*
X129220000Y-123239075D01*
X129228254Y-123322879D01*
X129264023Y-123440795D01*
X129322110Y-123549467D01*
X129391176Y-123633624D01*
X129391176Y-123699900D01*
X129403261Y-123822597D01*
X129439050Y-123940579D01*
X129497169Y-124049311D01*
X129575384Y-124144616D01*
X129670689Y-124222831D01*
X129779421Y-124280950D01*
X129897403Y-124316739D01*
X130020100Y-124328824D01*
X130919900Y-124328824D01*
X131042597Y-124316739D01*
X131160579Y-124280950D01*
X131269311Y-124222831D01*
X131364616Y-124144616D01*
X131442831Y-124049311D01*
X131500950Y-123940579D01*
X131536739Y-123822597D01*
X131548824Y-123699900D01*
X131548824Y-123633624D01*
X131617890Y-123549467D01*
X131675977Y-123440795D01*
X131711746Y-123322879D01*
X131723824Y-123200250D01*
X131723824Y-122574750D01*
X131711746Y-122452121D01*
X131675977Y-122334205D01*
X131617890Y-122225533D01*
X131539719Y-122130281D01*
X131444467Y-122052110D01*
X131335795Y-121994023D01*
X131217879Y-121958254D01*
X131095250Y-121946176D01*
X130972000Y-121946176D01*
X130972000Y-121634657D01*
X131086202Y-121587353D01*
X131287167Y-121453073D01*
X131458073Y-121282167D01*
X131558112Y-121132447D01*
X131556928Y-121350000D01*
X131569188Y-121474482D01*
X131605498Y-121594180D01*
X131664463Y-121704494D01*
X131743815Y-121801185D01*
X131840506Y-121880537D01*
X131950820Y-121939502D01*
X132070518Y-121975812D01*
X132195000Y-121988072D01*
X132759250Y-121985000D01*
X132918000Y-121826250D01*
X132918000Y-120627000D01*
X132898000Y-120627000D01*
X132898000Y-120373000D01*
X132918000Y-120373000D01*
X132918000Y-120353000D01*
X133172000Y-120353000D01*
X133172000Y-120373000D01*
X133192000Y-120373000D01*
X133192000Y-120627000D01*
X133172000Y-120627000D01*
X133172000Y-121826250D01*
X133330750Y-121985000D01*
X133895000Y-121988072D01*
X134019482Y-121975812D01*
X134139180Y-121939502D01*
X134249494Y-121880537D01*
X134346185Y-121801185D01*
X134378548Y-121761750D01*
X134714250Y-121760000D01*
X134873000Y-121601250D01*
X134873000Y-119865500D01*
X135127000Y-119865500D01*
X135127000Y-121601250D01*
X135285750Y-121760000D01*
X135773000Y-121762540D01*
X135773000Y-126579117D01*
X135760078Y-126710899D01*
X135727873Y-126817570D01*
X135675558Y-126915961D01*
X135605130Y-127002313D01*
X135519270Y-127073343D01*
X135421255Y-127126339D01*
X135314807Y-127159290D01*
X135217983Y-127169467D01*
X135301185Y-127101185D01*
X135380537Y-127004494D01*
X135439502Y-126894180D01*
X135475812Y-126774482D01*
X135488072Y-126650000D01*
X135485000Y-126085750D01*
X135326250Y-125927000D01*
X134127000Y-125927000D01*
X134127000Y-125947000D01*
X133873000Y-125947000D01*
X133873000Y-125927000D01*
X132673750Y-125927000D01*
X132515000Y-126085750D01*
X132511928Y-126650000D01*
X132524188Y-126774482D01*
X132560498Y-126894180D01*
X132619463Y-127004494D01*
X132698815Y-127101185D01*
X132786322Y-127173000D01*
X121769434Y-127173000D01*
X122205677Y-126736758D01*
X122222121Y-126741746D01*
X122344750Y-126753824D01*
X123595250Y-126753824D01*
X123717879Y-126741746D01*
X123835795Y-126705977D01*
X123944467Y-126647890D01*
X124039719Y-126569719D01*
X124117890Y-126474467D01*
X124136580Y-126439500D01*
X124303420Y-126439500D01*
X124322110Y-126474467D01*
X124400281Y-126569719D01*
X124495533Y-126647890D01*
X124604205Y-126705977D01*
X124722121Y-126741746D01*
X124844750Y-126753824D01*
X126095250Y-126753824D01*
X126217879Y-126741746D01*
X126335795Y-126705977D01*
X126444467Y-126647890D01*
X126539719Y-126569719D01*
X126617890Y-126474467D01*
X126636580Y-126439500D01*
X126803420Y-126439500D01*
X126822110Y-126474467D01*
X126900281Y-126569719D01*
X126995533Y-126647890D01*
X127104205Y-126705977D01*
X127222121Y-126741746D01*
X127344750Y-126753824D01*
X128595250Y-126753824D01*
X128717879Y-126741746D01*
X128835795Y-126705977D01*
X128944467Y-126647890D01*
X129039719Y-126569719D01*
X129117890Y-126474467D01*
X129136580Y-126439500D01*
X129303420Y-126439500D01*
X129322110Y-126474467D01*
X129400281Y-126569719D01*
X129495533Y-126647890D01*
X129604205Y-126705977D01*
X129722121Y-126741746D01*
X129844750Y-126753824D01*
X131095250Y-126753824D01*
X131217879Y-126741746D01*
X131335795Y-126705977D01*
X131444467Y-126647890D01*
X131539719Y-126569719D01*
X131617890Y-126474467D01*
X131675977Y-126365795D01*
X131711746Y-126247879D01*
X131723824Y-126125250D01*
X131723824Y-125499750D01*
X131711746Y-125377121D01*
X131675977Y-125259205D01*
X131617890Y-125150533D01*
X131548824Y-125066376D01*
X131548824Y-125000100D01*
X131543890Y-124950000D01*
X132511928Y-124950000D01*
X132515000Y-125514250D01*
X132673750Y-125673000D01*
X133873000Y-125673000D01*
X133873000Y-125653000D01*
X134127000Y-125653000D01*
X134127000Y-125673000D01*
X135326250Y-125673000D01*
X135485000Y-125514250D01*
X135488072Y-124950000D01*
X135475812Y-124825518D01*
X135439502Y-124705820D01*
X135380537Y-124595506D01*
X135301185Y-124498815D01*
X135204494Y-124419463D01*
X135094180Y-124360498D01*
X134974482Y-124324188D01*
X134850000Y-124311928D01*
X134632447Y-124313112D01*
X134782167Y-124213073D01*
X134953073Y-124042167D01*
X135087353Y-123841202D01*
X135179847Y-123617903D01*
X135227000Y-123380849D01*
X135227000Y-123139151D01*
X135179847Y-122902097D01*
X135087353Y-122678798D01*
X134953073Y-122477833D01*
X134782167Y-122306927D01*
X134581202Y-122172647D01*
X134357903Y-122080153D01*
X134120849Y-122033000D01*
X133879151Y-122033000D01*
X133642097Y-122080153D01*
X133418798Y-122172647D01*
X133217833Y-122306927D01*
X133046927Y-122477833D01*
X132912647Y-122678798D01*
X132820153Y-122902097D01*
X132773000Y-123139151D01*
X132773000Y-123380849D01*
X132820153Y-123617903D01*
X132912647Y-123841202D01*
X133046927Y-124042167D01*
X133217833Y-124213073D01*
X133367553Y-124313112D01*
X133150000Y-124311928D01*
X133025518Y-124324188D01*
X132905820Y-124360498D01*
X132795506Y-124419463D01*
X132698815Y-124498815D01*
X132619463Y-124595506D01*
X132560498Y-124705820D01*
X132524188Y-124825518D01*
X132511928Y-124950000D01*
X131543890Y-124950000D01*
X131536739Y-124877403D01*
X131500950Y-124759421D01*
X131442831Y-124650689D01*
X131364616Y-124555384D01*
X131269311Y-124477169D01*
X131160579Y-124419050D01*
X131042597Y-124383261D01*
X130919900Y-124371176D01*
X130020100Y-124371176D01*
X129897403Y-124383261D01*
X129779421Y-124419050D01*
X129670689Y-124477169D01*
X129575384Y-124555384D01*
X129497169Y-124650689D01*
X129439050Y-124759421D01*
X129403261Y-124877403D01*
X129391176Y-125000100D01*
X129391176Y-125066376D01*
X129322110Y-125150533D01*
X129303420Y-125185500D01*
X129136580Y-125185500D01*
X129117890Y-125150533D01*
X129048824Y-125066376D01*
X129048824Y-125000100D01*
X129036739Y-124877403D01*
X129000950Y-124759421D01*
X128942831Y-124650689D01*
X128864616Y-124555384D01*
X128769311Y-124477169D01*
X128660579Y-124419050D01*
X128542597Y-124383261D01*
X128419900Y-124371176D01*
X127520100Y-124371176D01*
X127397403Y-124383261D01*
X127279421Y-124419050D01*
X127170689Y-124477169D01*
X127075384Y-124555384D01*
X126997169Y-124650689D01*
X126939050Y-124759421D01*
X126903261Y-124877403D01*
X126891176Y-125000100D01*
X126891176Y-125066376D01*
X126822110Y-125150533D01*
X126803420Y-125185500D01*
X126636580Y-125185500D01*
X126617890Y-125150533D01*
X126548824Y-125066376D01*
X126548824Y-125000100D01*
X126536739Y-124877403D01*
X126500950Y-124759421D01*
X126442831Y-124650689D01*
X126364616Y-124555384D01*
X126269311Y-124477169D01*
X126160579Y-124419050D01*
X126042597Y-124383261D01*
X125919900Y-124371176D01*
X125020100Y-124371176D01*
X124897403Y-124383261D01*
X124779421Y-124419050D01*
X124670689Y-124477169D01*
X124575384Y-124555384D01*
X124497169Y-124650689D01*
X124439050Y-124759421D01*
X124403261Y-124877403D01*
X124391176Y-125000100D01*
X124391176Y-125066376D01*
X124322110Y-125150533D01*
X124303420Y-125185500D01*
X124136580Y-125185500D01*
X124117890Y-125150533D01*
X124048824Y-125066376D01*
X124048824Y-125000100D01*
X124036739Y-124877403D01*
X124000950Y-124759421D01*
X123942831Y-124650689D01*
X123864616Y-124555384D01*
X123769311Y-124477169D01*
X123660579Y-124419050D01*
X123542597Y-124383261D01*
X123419900Y-124371176D01*
X122520100Y-124371176D01*
X122397403Y-124383261D01*
X122279421Y-124419050D01*
X122170689Y-124477169D01*
X122075384Y-124555384D01*
X121997169Y-124650689D01*
X121939050Y-124759421D01*
X121903261Y-124877403D01*
X121891176Y-125000100D01*
X121891176Y-125066376D01*
X121822110Y-125150533D01*
X121764023Y-125259205D01*
X121744531Y-125323462D01*
X121619216Y-125239729D01*
X121477811Y-125181157D01*
X121327696Y-125151298D01*
X121174640Y-125151298D01*
X121024525Y-125181157D01*
X120893311Y-125235508D01*
X120847890Y-125150533D01*
X120778824Y-125066376D01*
X120778824Y-125000100D01*
X120766739Y-124877403D01*
X120730950Y-124759421D01*
X120672831Y-124650689D01*
X120594616Y-124555384D01*
X120499311Y-124477169D01*
X120390579Y-124419050D01*
X120272597Y-124383261D01*
X120149900Y-124371176D01*
X119250100Y-124371176D01*
X119127403Y-124383261D01*
X119009421Y-124419050D01*
X118900689Y-124477169D01*
X118805384Y-124555384D01*
X118727169Y-124650689D01*
X118669050Y-124759421D01*
X118633261Y-124877403D01*
X118621176Y-125000100D01*
X118621176Y-125066376D01*
X118552110Y-125150533D01*
X118494023Y-125259205D01*
X118458254Y-125377121D01*
X118446176Y-125499750D01*
X118446176Y-125599575D01*
X118201990Y-125355390D01*
X118201990Y-119502010D01*
X119630056Y-119502010D01*
X119562833Y-119546927D01*
X119391927Y-119717833D01*
X119257647Y-119918798D01*
X119165153Y-120142097D01*
X119118000Y-120379151D01*
X119118000Y-120620849D01*
X119165153Y-120857903D01*
X119221349Y-120993571D01*
X119205265Y-121046591D01*
X119195573Y-121145000D01*
X119198001Y-121169653D01*
X119198001Y-121946176D01*
X119074750Y-121946176D01*
X118952121Y-121958254D01*
X118834205Y-121994023D01*
X118725533Y-122052110D01*
X118630281Y-122130281D01*
X118552110Y-122225533D01*
X118494023Y-122334205D01*
X118458254Y-122452121D01*
X118446176Y-122574750D01*
X118446176Y-123200250D01*
X118458254Y-123322879D01*
X118494023Y-123440795D01*
X118552110Y-123549467D01*
X118621176Y-123633624D01*
X118621176Y-123699900D01*
X118633261Y-123822597D01*
X118669050Y-123940579D01*
X118727169Y-124049311D01*
X118805384Y-124144616D01*
X118900689Y-124222831D01*
X119009421Y-124280950D01*
X119127403Y-124316739D01*
X119250100Y-124328824D01*
X120149900Y-124328824D01*
X120272597Y-124316739D01*
X120390579Y-124280950D01*
X120499311Y-124222831D01*
X120594616Y-124144616D01*
X120672831Y-124049311D01*
X120730950Y-123940579D01*
X120766739Y-123822597D01*
X120778824Y-123699900D01*
X120778824Y-123633624D01*
X120847890Y-123549467D01*
X120905977Y-123440795D01*
X120941746Y-123322879D01*
X120953824Y-123200250D01*
X120953824Y-122574750D01*
X120941746Y-122452121D01*
X120905977Y-122334205D01*
X120847890Y-122225533D01*
X120769719Y-122130281D01*
X120674467Y-122052110D01*
X120565795Y-121994023D01*
X120447879Y-121958254D01*
X120325250Y-121946176D01*
X120202000Y-121946176D01*
X120202000Y-121722594D01*
X120224151Y-121727000D01*
X120465849Y-121727000D01*
X120702903Y-121679847D01*
X120926202Y-121587353D01*
X121127167Y-121453073D01*
X121298073Y-121282167D01*
X121432353Y-121081202D01*
X121524847Y-120857903D01*
X121572000Y-120620849D01*
X121572000Y-120379151D01*
X121524847Y-120142097D01*
X121457398Y-119979262D01*
X121464500Y-119907153D01*
X121464500Y-119907143D01*
X121466927Y-119882500D01*
X121464500Y-119857857D01*
X121464500Y-119053824D01*
X121825250Y-119053824D01*
X121947879Y-119041746D01*
X122065795Y-119005977D01*
X122174467Y-118947890D01*
X122269719Y-118869719D01*
X122347890Y-118774467D01*
X122405977Y-118665795D01*
X122441746Y-118547879D01*
X122453824Y-118425250D01*
X122453824Y-117775949D01*
X122485097Y-117812192D01*
%TA.AperFunction,Conductor*%
D33*
G36*
X122485097Y-117812192D02*
G01*
X122546176Y-117859843D01*
X122546176Y-118000000D01*
X122553455Y-118073905D01*
X122568954Y-118125000D01*
X122553455Y-118176095D01*
X122546176Y-118250000D01*
X122546176Y-118650000D01*
X122553455Y-118723905D01*
X122575012Y-118794970D01*
X122610019Y-118860463D01*
X122657131Y-118917869D01*
X122714537Y-118964981D01*
X122748000Y-118982868D01*
X122748000Y-119276213D01*
X122527097Y-119320153D01*
X122303798Y-119412647D01*
X122102833Y-119546927D01*
X121931927Y-119717833D01*
X121797647Y-119918798D01*
X121705153Y-120142097D01*
X121658000Y-120379151D01*
X121658000Y-120620849D01*
X121705153Y-120857903D01*
X121797647Y-121081202D01*
X121931927Y-121282167D01*
X122102833Y-121453073D01*
X122303798Y-121587353D01*
X122383000Y-121620160D01*
X122383001Y-121946176D01*
X122344750Y-121946176D01*
X122222121Y-121958254D01*
X122104205Y-121994023D01*
X121995533Y-122052110D01*
X121900281Y-122130281D01*
X121822110Y-122225533D01*
X121764023Y-122334205D01*
X121728254Y-122452121D01*
X121716176Y-122574750D01*
X121716176Y-123200250D01*
X121728254Y-123322879D01*
X121764023Y-123440795D01*
X121822110Y-123549467D01*
X121891176Y-123633624D01*
X121891176Y-123699900D01*
X121903261Y-123822597D01*
X121939050Y-123940579D01*
X121997169Y-124049311D01*
X122075384Y-124144616D01*
X122170689Y-124222831D01*
X122279421Y-124280950D01*
X122397403Y-124316739D01*
X122520100Y-124328824D01*
X123419900Y-124328824D01*
X123542597Y-124316739D01*
X123660579Y-124280950D01*
X123769311Y-124222831D01*
X123864616Y-124144616D01*
X123942831Y-124049311D01*
X124000950Y-123940579D01*
X124036739Y-123822597D01*
X124048824Y-123699900D01*
X124048824Y-123633624D01*
X124117890Y-123549467D01*
X124175977Y-123440795D01*
X124211746Y-123322879D01*
X124220000Y-123239075D01*
X124228254Y-123322879D01*
X124264023Y-123440795D01*
X124322110Y-123549467D01*
X124391176Y-123633624D01*
X124391176Y-123699900D01*
X124403261Y-123822597D01*
X124439050Y-123940579D01*
X124497169Y-124049311D01*
X124575384Y-124144616D01*
X124670689Y-124222831D01*
X124779421Y-124280950D01*
X124897403Y-124316739D01*
X125020100Y-124328824D01*
X125919900Y-124328824D01*
X126042597Y-124316739D01*
X126160579Y-124280950D01*
X126269311Y-124222831D01*
X126364616Y-124144616D01*
X126442831Y-124049311D01*
X126500950Y-123940579D01*
X126536739Y-123822597D01*
X126548824Y-123699900D01*
X126548824Y-123633624D01*
X126617890Y-123549467D01*
X126675977Y-123440795D01*
X126711746Y-123322879D01*
X126720000Y-123239075D01*
X126728254Y-123322879D01*
X126764023Y-123440795D01*
X126822110Y-123549467D01*
X126891176Y-123633624D01*
X126891176Y-123699900D01*
X126903261Y-123822597D01*
X126939050Y-123940579D01*
X126997169Y-124049311D01*
X127075384Y-124144616D01*
X127170689Y-124222831D01*
X127279421Y-124280950D01*
X127397403Y-124316739D01*
X127520100Y-124328824D01*
X128419900Y-124328824D01*
X128542597Y-124316739D01*
X128660579Y-124280950D01*
X128769311Y-124222831D01*
X128864616Y-124144616D01*
X128942831Y-124049311D01*
X129000950Y-123940579D01*
X129036739Y-123822597D01*
X129048824Y-123699900D01*
X129048824Y-123633624D01*
X129117890Y-123549467D01*
X129175977Y-123440795D01*
X129211746Y-123322879D01*
X129220000Y-123239075D01*
X129228254Y-123322879D01*
X129264023Y-123440795D01*
X129322110Y-123549467D01*
X129391176Y-123633624D01*
X129391176Y-123699900D01*
X129403261Y-123822597D01*
X129439050Y-123940579D01*
X129497169Y-124049311D01*
X129575384Y-124144616D01*
X129670689Y-124222831D01*
X129779421Y-124280950D01*
X129897403Y-124316739D01*
X130020100Y-124328824D01*
X130919900Y-124328824D01*
X131042597Y-124316739D01*
X131160579Y-124280950D01*
X131269311Y-124222831D01*
X131364616Y-124144616D01*
X131442831Y-124049311D01*
X131500950Y-123940579D01*
X131536739Y-123822597D01*
X131548824Y-123699900D01*
X131548824Y-123633624D01*
X131617890Y-123549467D01*
X131675977Y-123440795D01*
X131711746Y-123322879D01*
X131723824Y-123200250D01*
X131723824Y-122574750D01*
X131711746Y-122452121D01*
X131675977Y-122334205D01*
X131617890Y-122225533D01*
X131539719Y-122130281D01*
X131444467Y-122052110D01*
X131335795Y-121994023D01*
X131217879Y-121958254D01*
X131095250Y-121946176D01*
X130972000Y-121946176D01*
X130972000Y-121634657D01*
X131086202Y-121587353D01*
X131287167Y-121453073D01*
X131458073Y-121282167D01*
X131558112Y-121132447D01*
X131556928Y-121350000D01*
X131569188Y-121474482D01*
X131605498Y-121594180D01*
X131664463Y-121704494D01*
X131743815Y-121801185D01*
X131840506Y-121880537D01*
X131950820Y-121939502D01*
X132070518Y-121975812D01*
X132195000Y-121988072D01*
X132759250Y-121985000D01*
X132918000Y-121826250D01*
X132918000Y-120627000D01*
X132898000Y-120627000D01*
X132898000Y-120373000D01*
X132918000Y-120373000D01*
X132918000Y-120353000D01*
X133172000Y-120353000D01*
X133172000Y-120373000D01*
X133192000Y-120373000D01*
X133192000Y-120627000D01*
X133172000Y-120627000D01*
X133172000Y-121826250D01*
X133330750Y-121985000D01*
X133895000Y-121988072D01*
X134019482Y-121975812D01*
X134139180Y-121939502D01*
X134249494Y-121880537D01*
X134346185Y-121801185D01*
X134378548Y-121761750D01*
X134714250Y-121760000D01*
X134873000Y-121601250D01*
X134873000Y-119865500D01*
X135127000Y-119865500D01*
X135127000Y-121601250D01*
X135285750Y-121760000D01*
X135773000Y-121762540D01*
X135773000Y-126579117D01*
X135760078Y-126710899D01*
X135727873Y-126817570D01*
X135675558Y-126915961D01*
X135605130Y-127002313D01*
X135519270Y-127073343D01*
X135421255Y-127126339D01*
X135314807Y-127159290D01*
X135217983Y-127169467D01*
X135301185Y-127101185D01*
X135380537Y-127004494D01*
X135439502Y-126894180D01*
X135475812Y-126774482D01*
X135488072Y-126650000D01*
X135485000Y-126085750D01*
X135326250Y-125927000D01*
X134127000Y-125927000D01*
X134127000Y-125947000D01*
X133873000Y-125947000D01*
X133873000Y-125927000D01*
X132673750Y-125927000D01*
X132515000Y-126085750D01*
X132511928Y-126650000D01*
X132524188Y-126774482D01*
X132560498Y-126894180D01*
X132619463Y-127004494D01*
X132698815Y-127101185D01*
X132786322Y-127173000D01*
X121769434Y-127173000D01*
X122205677Y-126736758D01*
X122222121Y-126741746D01*
X122344750Y-126753824D01*
X123595250Y-126753824D01*
X123717879Y-126741746D01*
X123835795Y-126705977D01*
X123944467Y-126647890D01*
X124039719Y-126569719D01*
X124117890Y-126474467D01*
X124136580Y-126439500D01*
X124303420Y-126439500D01*
X124322110Y-126474467D01*
X124400281Y-126569719D01*
X124495533Y-126647890D01*
X124604205Y-126705977D01*
X124722121Y-126741746D01*
X124844750Y-126753824D01*
X126095250Y-126753824D01*
X126217879Y-126741746D01*
X126335795Y-126705977D01*
X126444467Y-126647890D01*
X126539719Y-126569719D01*
X126617890Y-126474467D01*
X126636580Y-126439500D01*
X126803420Y-126439500D01*
X126822110Y-126474467D01*
X126900281Y-126569719D01*
X126995533Y-126647890D01*
X127104205Y-126705977D01*
X127222121Y-126741746D01*
X127344750Y-126753824D01*
X128595250Y-126753824D01*
X128717879Y-126741746D01*
X128835795Y-126705977D01*
X128944467Y-126647890D01*
X129039719Y-126569719D01*
X129117890Y-126474467D01*
X129136580Y-126439500D01*
X129303420Y-126439500D01*
X129322110Y-126474467D01*
X129400281Y-126569719D01*
X129495533Y-126647890D01*
X129604205Y-126705977D01*
X129722121Y-126741746D01*
X129844750Y-126753824D01*
X131095250Y-126753824D01*
X131217879Y-126741746D01*
X131335795Y-126705977D01*
X131444467Y-126647890D01*
X131539719Y-126569719D01*
X131617890Y-126474467D01*
X131675977Y-126365795D01*
X131711746Y-126247879D01*
X131723824Y-126125250D01*
X131723824Y-125499750D01*
X131711746Y-125377121D01*
X131675977Y-125259205D01*
X131617890Y-125150533D01*
X131548824Y-125066376D01*
X131548824Y-125000100D01*
X131543890Y-124950000D01*
X132511928Y-124950000D01*
X132515000Y-125514250D01*
X132673750Y-125673000D01*
X133873000Y-125673000D01*
X133873000Y-125653000D01*
X134127000Y-125653000D01*
X134127000Y-125673000D01*
X135326250Y-125673000D01*
X135485000Y-125514250D01*
X135488072Y-124950000D01*
X135475812Y-124825518D01*
X135439502Y-124705820D01*
X135380537Y-124595506D01*
X135301185Y-124498815D01*
X135204494Y-124419463D01*
X135094180Y-124360498D01*
X134974482Y-124324188D01*
X134850000Y-124311928D01*
X134632447Y-124313112D01*
X134782167Y-124213073D01*
X134953073Y-124042167D01*
X135087353Y-123841202D01*
X135179847Y-123617903D01*
X135227000Y-123380849D01*
X135227000Y-123139151D01*
X135179847Y-122902097D01*
X135087353Y-122678798D01*
X134953073Y-122477833D01*
X134782167Y-122306927D01*
X134581202Y-122172647D01*
X134357903Y-122080153D01*
X134120849Y-122033000D01*
X133879151Y-122033000D01*
X133642097Y-122080153D01*
X133418798Y-122172647D01*
X133217833Y-122306927D01*
X133046927Y-122477833D01*
X132912647Y-122678798D01*
X132820153Y-122902097D01*
X132773000Y-123139151D01*
X132773000Y-123380849D01*
X132820153Y-123617903D01*
X132912647Y-123841202D01*
X133046927Y-124042167D01*
X133217833Y-124213073D01*
X133367553Y-124313112D01*
X133150000Y-124311928D01*
X133025518Y-124324188D01*
X132905820Y-124360498D01*
X132795506Y-124419463D01*
X132698815Y-124498815D01*
X132619463Y-124595506D01*
X132560498Y-124705820D01*
X132524188Y-124825518D01*
X132511928Y-124950000D01*
X131543890Y-124950000D01*
X131536739Y-124877403D01*
X131500950Y-124759421D01*
X131442831Y-124650689D01*
X131364616Y-124555384D01*
X131269311Y-124477169D01*
X131160579Y-124419050D01*
X131042597Y-124383261D01*
X130919900Y-124371176D01*
X130020100Y-124371176D01*
X129897403Y-124383261D01*
X129779421Y-124419050D01*
X129670689Y-124477169D01*
X129575384Y-124555384D01*
X129497169Y-124650689D01*
X129439050Y-124759421D01*
X129403261Y-124877403D01*
X129391176Y-125000100D01*
X129391176Y-125066376D01*
X129322110Y-125150533D01*
X129303420Y-125185500D01*
X129136580Y-125185500D01*
X129117890Y-125150533D01*
X129048824Y-125066376D01*
X129048824Y-125000100D01*
X129036739Y-124877403D01*
X129000950Y-124759421D01*
X128942831Y-124650689D01*
X128864616Y-124555384D01*
X128769311Y-124477169D01*
X128660579Y-124419050D01*
X128542597Y-124383261D01*
X128419900Y-124371176D01*
X127520100Y-124371176D01*
X127397403Y-124383261D01*
X127279421Y-124419050D01*
X127170689Y-124477169D01*
X127075384Y-124555384D01*
X126997169Y-124650689D01*
X126939050Y-124759421D01*
X126903261Y-124877403D01*
X126891176Y-125000100D01*
X126891176Y-125066376D01*
X126822110Y-125150533D01*
X126803420Y-125185500D01*
X126636580Y-125185500D01*
X126617890Y-125150533D01*
X126548824Y-125066376D01*
X126548824Y-125000100D01*
X126536739Y-124877403D01*
X126500950Y-124759421D01*
X126442831Y-124650689D01*
X126364616Y-124555384D01*
X126269311Y-124477169D01*
X126160579Y-124419050D01*
X126042597Y-124383261D01*
X125919900Y-124371176D01*
X125020100Y-124371176D01*
X124897403Y-124383261D01*
X124779421Y-124419050D01*
X124670689Y-124477169D01*
X124575384Y-124555384D01*
X124497169Y-124650689D01*
X124439050Y-124759421D01*
X124403261Y-124877403D01*
X124391176Y-125000100D01*
X124391176Y-125066376D01*
X124322110Y-125150533D01*
X124303420Y-125185500D01*
X124136580Y-125185500D01*
X124117890Y-125150533D01*
X124048824Y-125066376D01*
X124048824Y-125000100D01*
X124036739Y-124877403D01*
X124000950Y-124759421D01*
X123942831Y-124650689D01*
X123864616Y-124555384D01*
X123769311Y-124477169D01*
X123660579Y-124419050D01*
X123542597Y-124383261D01*
X123419900Y-124371176D01*
X122520100Y-124371176D01*
X122397403Y-124383261D01*
X122279421Y-124419050D01*
X122170689Y-124477169D01*
X122075384Y-124555384D01*
X121997169Y-124650689D01*
X121939050Y-124759421D01*
X121903261Y-124877403D01*
X121891176Y-125000100D01*
X121891176Y-125066376D01*
X121822110Y-125150533D01*
X121764023Y-125259205D01*
X121744531Y-125323462D01*
X121619216Y-125239729D01*
X121477811Y-125181157D01*
X121327696Y-125151298D01*
X121174640Y-125151298D01*
X121024525Y-125181157D01*
X120893311Y-125235508D01*
X120847890Y-125150533D01*
X120778824Y-125066376D01*
X120778824Y-125000100D01*
X120766739Y-124877403D01*
X120730950Y-124759421D01*
X120672831Y-124650689D01*
X120594616Y-124555384D01*
X120499311Y-124477169D01*
X120390579Y-124419050D01*
X120272597Y-124383261D01*
X120149900Y-124371176D01*
X119250100Y-124371176D01*
X119127403Y-124383261D01*
X119009421Y-124419050D01*
X118900689Y-124477169D01*
X118805384Y-124555384D01*
X118727169Y-124650689D01*
X118669050Y-124759421D01*
X118633261Y-124877403D01*
X118621176Y-125000100D01*
X118621176Y-125066376D01*
X118552110Y-125150533D01*
X118494023Y-125259205D01*
X118458254Y-125377121D01*
X118446176Y-125499750D01*
X118446176Y-125599575D01*
X118201990Y-125355390D01*
X118201990Y-119502010D01*
X119630056Y-119502010D01*
X119562833Y-119546927D01*
X119391927Y-119717833D01*
X119257647Y-119918798D01*
X119165153Y-120142097D01*
X119118000Y-120379151D01*
X119118000Y-120620849D01*
X119165153Y-120857903D01*
X119221349Y-120993571D01*
X119205265Y-121046591D01*
X119195573Y-121145000D01*
X119198001Y-121169653D01*
X119198001Y-121946176D01*
X119074750Y-121946176D01*
X118952121Y-121958254D01*
X118834205Y-121994023D01*
X118725533Y-122052110D01*
X118630281Y-122130281D01*
X118552110Y-122225533D01*
X118494023Y-122334205D01*
X118458254Y-122452121D01*
X118446176Y-122574750D01*
X118446176Y-123200250D01*
X118458254Y-123322879D01*
X118494023Y-123440795D01*
X118552110Y-123549467D01*
X118621176Y-123633624D01*
X118621176Y-123699900D01*
X118633261Y-123822597D01*
X118669050Y-123940579D01*
X118727169Y-124049311D01*
X118805384Y-124144616D01*
X118900689Y-124222831D01*
X119009421Y-124280950D01*
X119127403Y-124316739D01*
X119250100Y-124328824D01*
X120149900Y-124328824D01*
X120272597Y-124316739D01*
X120390579Y-124280950D01*
X120499311Y-124222831D01*
X120594616Y-124144616D01*
X120672831Y-124049311D01*
X120730950Y-123940579D01*
X120766739Y-123822597D01*
X120778824Y-123699900D01*
X120778824Y-123633624D01*
X120847890Y-123549467D01*
X120905977Y-123440795D01*
X120941746Y-123322879D01*
X120953824Y-123200250D01*
X120953824Y-122574750D01*
X120941746Y-122452121D01*
X120905977Y-122334205D01*
X120847890Y-122225533D01*
X120769719Y-122130281D01*
X120674467Y-122052110D01*
X120565795Y-121994023D01*
X120447879Y-121958254D01*
X120325250Y-121946176D01*
X120202000Y-121946176D01*
X120202000Y-121722594D01*
X120224151Y-121727000D01*
X120465849Y-121727000D01*
X120702903Y-121679847D01*
X120926202Y-121587353D01*
X121127167Y-121453073D01*
X121298073Y-121282167D01*
X121432353Y-121081202D01*
X121524847Y-120857903D01*
X121572000Y-120620849D01*
X121572000Y-120379151D01*
X121524847Y-120142097D01*
X121457398Y-119979262D01*
X121464500Y-119907153D01*
X121464500Y-119907143D01*
X121466927Y-119882500D01*
X121464500Y-119857857D01*
X121464500Y-119053824D01*
X121825250Y-119053824D01*
X121947879Y-119041746D01*
X122065795Y-119005977D01*
X122174467Y-118947890D01*
X122269719Y-118869719D01*
X122347890Y-118774467D01*
X122405977Y-118665795D01*
X122441746Y-118547879D01*
X122453824Y-118425250D01*
X122453824Y-117775949D01*
X122485097Y-117812192D01*
G37*
%TD.AperFunction*%
D32*
X128500000Y-118304428D02*
X128523831Y-118302081D01*
X128598750Y-118377000D01*
X129056481Y-118377000D01*
X129075000Y-118378824D01*
X129547000Y-118378824D01*
X129547000Y-118523000D01*
X129527000Y-118523000D01*
X129527000Y-119126250D01*
X129685750Y-119285000D01*
X129709239Y-119287877D01*
X129833986Y-119278695D01*
X129954544Y-119245353D01*
X130003000Y-119220972D01*
X130003000Y-119379840D01*
X129923798Y-119412647D01*
X129722833Y-119546927D01*
X129551927Y-119717833D01*
X129417647Y-119918798D01*
X129325153Y-120142097D01*
X129278000Y-120379151D01*
X129278000Y-120620849D01*
X129325153Y-120857903D01*
X129417647Y-121081202D01*
X129551927Y-121282167D01*
X129722833Y-121453073D01*
X129923798Y-121587353D01*
X129968001Y-121605662D01*
X129968000Y-121946176D01*
X129844750Y-121946176D01*
X129722121Y-121958254D01*
X129604205Y-121994023D01*
X129495533Y-122052110D01*
X129400281Y-122130281D01*
X129322110Y-122225533D01*
X129264023Y-122334205D01*
X129228254Y-122452121D01*
X129220000Y-122535925D01*
X129211746Y-122452121D01*
X129175977Y-122334205D01*
X129117890Y-122225533D01*
X129039719Y-122130281D01*
X128944467Y-122052110D01*
X128835795Y-121994023D01*
X128717879Y-121958254D01*
X128595250Y-121946176D01*
X128472000Y-121946176D01*
X128472000Y-121618089D01*
X128546202Y-121587353D01*
X128747167Y-121453073D01*
X128918073Y-121282167D01*
X129052353Y-121081202D01*
X129144847Y-120857903D01*
X129192000Y-120620849D01*
X129192000Y-120379151D01*
X129144847Y-120142097D01*
X129052353Y-119918798D01*
X128918073Y-119717833D01*
X128747167Y-119546927D01*
X128546202Y-119412647D01*
X128322903Y-119320153D01*
X128085849Y-119273000D01*
X128002000Y-119273000D01*
X128002000Y-118982867D01*
X128035463Y-118964981D01*
X128092869Y-118917869D01*
X128139981Y-118860463D01*
X128174988Y-118794970D01*
X128196545Y-118723905D01*
X128200696Y-118681750D01*
X128440000Y-118681750D01*
X128452454Y-118789902D01*
X128491710Y-118908666D01*
X128553381Y-119017490D01*
X128635097Y-119112192D01*
X128733719Y-119189132D01*
X128845456Y-119245353D01*
X128966014Y-119278695D01*
X129090761Y-119287877D01*
X129114250Y-119285000D01*
X129273000Y-119126250D01*
X129273000Y-118523000D01*
X128598750Y-118523000D01*
X128440000Y-118681750D01*
X128200696Y-118681750D01*
X128203824Y-118650000D01*
X128203824Y-118302000D01*
X128475347Y-118302000D01*
X128500000Y-118304428D01*
%TA.AperFunction,Conductor*%
D33*
G36*
X128500000Y-118304428D02*
G01*
X128523831Y-118302081D01*
X128598750Y-118377000D01*
X129056481Y-118377000D01*
X129075000Y-118378824D01*
X129547000Y-118378824D01*
X129547000Y-118523000D01*
X129527000Y-118523000D01*
X129527000Y-119126250D01*
X129685750Y-119285000D01*
X129709239Y-119287877D01*
X129833986Y-119278695D01*
X129954544Y-119245353D01*
X130003000Y-119220972D01*
X130003000Y-119379840D01*
X129923798Y-119412647D01*
X129722833Y-119546927D01*
X129551927Y-119717833D01*
X129417647Y-119918798D01*
X129325153Y-120142097D01*
X129278000Y-120379151D01*
X129278000Y-120620849D01*
X129325153Y-120857903D01*
X129417647Y-121081202D01*
X129551927Y-121282167D01*
X129722833Y-121453073D01*
X129923798Y-121587353D01*
X129968001Y-121605662D01*
X129968000Y-121946176D01*
X129844750Y-121946176D01*
X129722121Y-121958254D01*
X129604205Y-121994023D01*
X129495533Y-122052110D01*
X129400281Y-122130281D01*
X129322110Y-122225533D01*
X129264023Y-122334205D01*
X129228254Y-122452121D01*
X129220000Y-122535925D01*
X129211746Y-122452121D01*
X129175977Y-122334205D01*
X129117890Y-122225533D01*
X129039719Y-122130281D01*
X128944467Y-122052110D01*
X128835795Y-121994023D01*
X128717879Y-121958254D01*
X128595250Y-121946176D01*
X128472000Y-121946176D01*
X128472000Y-121618089D01*
X128546202Y-121587353D01*
X128747167Y-121453073D01*
X128918073Y-121282167D01*
X129052353Y-121081202D01*
X129144847Y-120857903D01*
X129192000Y-120620849D01*
X129192000Y-120379151D01*
X129144847Y-120142097D01*
X129052353Y-119918798D01*
X128918073Y-119717833D01*
X128747167Y-119546927D01*
X128546202Y-119412647D01*
X128322903Y-119320153D01*
X128085849Y-119273000D01*
X128002000Y-119273000D01*
X128002000Y-118982867D01*
X128035463Y-118964981D01*
X128092869Y-118917869D01*
X128139981Y-118860463D01*
X128174988Y-118794970D01*
X128196545Y-118723905D01*
X128200696Y-118681750D01*
X128440000Y-118681750D01*
X128452454Y-118789902D01*
X128491710Y-118908666D01*
X128553381Y-119017490D01*
X128635097Y-119112192D01*
X128733719Y-119189132D01*
X128845456Y-119245353D01*
X128966014Y-119278695D01*
X129090761Y-119287877D01*
X129114250Y-119285000D01*
X129273000Y-119126250D01*
X129273000Y-118523000D01*
X128598750Y-118523000D01*
X128440000Y-118681750D01*
X128200696Y-118681750D01*
X128203824Y-118650000D01*
X128203824Y-118302000D01*
X128475347Y-118302000D01*
X128500000Y-118304428D01*
G37*
%TD.AperFunction*%
D32*
X126698750Y-117077000D02*
X127373000Y-117077000D01*
X127373000Y-117052009D01*
X127627000Y-117052009D01*
X127627000Y-117077000D01*
X127647000Y-117077000D01*
X127647000Y-117221176D01*
X127175000Y-117221176D01*
X127156481Y-117223000D01*
X126698750Y-117223000D01*
X126540000Y-117381750D01*
X126552454Y-117489902D01*
X126591710Y-117608666D01*
X126653381Y-117717490D01*
X126735097Y-117812192D01*
X126796176Y-117859843D01*
X126796176Y-118000000D01*
X126803455Y-118073905D01*
X126818954Y-118125000D01*
X126803455Y-118176095D01*
X126796176Y-118250000D01*
X126796176Y-118650000D01*
X126803455Y-118723905D01*
X126825012Y-118794970D01*
X126860019Y-118860463D01*
X126907131Y-118917869D01*
X126964537Y-118964981D01*
X126998000Y-118982868D01*
X126998001Y-119738675D01*
X126877647Y-119918798D01*
X126785153Y-120142097D01*
X126738000Y-120379151D01*
X126738000Y-120620849D01*
X126785153Y-120857903D01*
X126877647Y-121081202D01*
X127011927Y-121282167D01*
X127182833Y-121453073D01*
X127383798Y-121587353D01*
X127468001Y-121622231D01*
X127468000Y-121946176D01*
X127344750Y-121946176D01*
X127222121Y-121958254D01*
X127104205Y-121994023D01*
X126995533Y-122052110D01*
X126900281Y-122130281D01*
X126822110Y-122225533D01*
X126764023Y-122334205D01*
X126728254Y-122452121D01*
X126720000Y-122535925D01*
X126711746Y-122452121D01*
X126675977Y-122334205D01*
X126617890Y-122225533D01*
X126539719Y-122130281D01*
X126444467Y-122052110D01*
X126335795Y-121994023D01*
X126217879Y-121958254D01*
X126095250Y-121946176D01*
X125972000Y-121946176D01*
X125972000Y-121601520D01*
X126006202Y-121587353D01*
X126207167Y-121453073D01*
X126378073Y-121282167D01*
X126512353Y-121081202D01*
X126604847Y-120857903D01*
X126652000Y-120620849D01*
X126652000Y-120379151D01*
X126604847Y-120142097D01*
X126512353Y-119918798D01*
X126378073Y-119717833D01*
X126302001Y-119641761D01*
X126302001Y-117424644D01*
X126304428Y-117400001D01*
X126302001Y-117375358D01*
X126302001Y-117375348D01*
X126294737Y-117301592D01*
X126266032Y-117206965D01*
X126219418Y-117119756D01*
X126186992Y-117080245D01*
X126172401Y-117062466D01*
X126172398Y-117062463D01*
X126163818Y-117052009D01*
X126673759Y-117052009D01*
X126698750Y-117077000D01*
%TA.AperFunction,Conductor*%
D33*
G36*
X126698750Y-117077000D02*
G01*
X127373000Y-117077000D01*
X127373000Y-117052009D01*
X127627000Y-117052009D01*
X127627000Y-117077000D01*
X127647000Y-117077000D01*
X127647000Y-117221176D01*
X127175000Y-117221176D01*
X127156481Y-117223000D01*
X126698750Y-117223000D01*
X126540000Y-117381750D01*
X126552454Y-117489902D01*
X126591710Y-117608666D01*
X126653381Y-117717490D01*
X126735097Y-117812192D01*
X126796176Y-117859843D01*
X126796176Y-118000000D01*
X126803455Y-118073905D01*
X126818954Y-118125000D01*
X126803455Y-118176095D01*
X126796176Y-118250000D01*
X126796176Y-118650000D01*
X126803455Y-118723905D01*
X126825012Y-118794970D01*
X126860019Y-118860463D01*
X126907131Y-118917869D01*
X126964537Y-118964981D01*
X126998000Y-118982868D01*
X126998001Y-119738675D01*
X126877647Y-119918798D01*
X126785153Y-120142097D01*
X126738000Y-120379151D01*
X126738000Y-120620849D01*
X126785153Y-120857903D01*
X126877647Y-121081202D01*
X127011927Y-121282167D01*
X127182833Y-121453073D01*
X127383798Y-121587353D01*
X127468001Y-121622231D01*
X127468000Y-121946176D01*
X127344750Y-121946176D01*
X127222121Y-121958254D01*
X127104205Y-121994023D01*
X126995533Y-122052110D01*
X126900281Y-122130281D01*
X126822110Y-122225533D01*
X126764023Y-122334205D01*
X126728254Y-122452121D01*
X126720000Y-122535925D01*
X126711746Y-122452121D01*
X126675977Y-122334205D01*
X126617890Y-122225533D01*
X126539719Y-122130281D01*
X126444467Y-122052110D01*
X126335795Y-121994023D01*
X126217879Y-121958254D01*
X126095250Y-121946176D01*
X125972000Y-121946176D01*
X125972000Y-121601520D01*
X126006202Y-121587353D01*
X126207167Y-121453073D01*
X126378073Y-121282167D01*
X126512353Y-121081202D01*
X126604847Y-120857903D01*
X126652000Y-120620849D01*
X126652000Y-120379151D01*
X126604847Y-120142097D01*
X126512353Y-119918798D01*
X126378073Y-119717833D01*
X126302001Y-119641761D01*
X126302001Y-117424644D01*
X126304428Y-117400001D01*
X126302001Y-117375358D01*
X126302001Y-117375348D01*
X126294737Y-117301592D01*
X126266032Y-117206965D01*
X126219418Y-117119756D01*
X126186992Y-117080245D01*
X126172401Y-117062466D01*
X126172398Y-117062463D01*
X126163818Y-117052009D01*
X126673759Y-117052009D01*
X126698750Y-117077000D01*
G37*
%TD.AperFunction*%
D32*
X124200000Y-118304428D02*
X124224653Y-118302000D01*
X124273750Y-118302000D01*
X124348750Y-118377000D01*
X124806481Y-118377000D01*
X124825000Y-118378824D01*
X125297000Y-118378824D01*
X125297000Y-118523000D01*
X125277000Y-118523000D01*
X125277000Y-119126250D01*
X125298001Y-119147251D01*
X125298001Y-119274223D01*
X125067097Y-119320153D01*
X124843798Y-119412647D01*
X124642833Y-119546927D01*
X124471927Y-119717833D01*
X124337647Y-119918798D01*
X124245153Y-120142097D01*
X124198000Y-120379151D01*
X124198000Y-120620849D01*
X124245153Y-120857903D01*
X124337647Y-121081202D01*
X124471927Y-121282167D01*
X124642833Y-121453073D01*
X124843798Y-121587353D01*
X124968001Y-121638800D01*
X124968000Y-121946176D01*
X124844750Y-121946176D01*
X124722121Y-121958254D01*
X124604205Y-121994023D01*
X124495533Y-122052110D01*
X124400281Y-122130281D01*
X124322110Y-122225533D01*
X124264023Y-122334205D01*
X124228254Y-122452121D01*
X124220000Y-122535925D01*
X124211746Y-122452121D01*
X124175977Y-122334205D01*
X124117890Y-122225533D01*
X124039719Y-122130281D01*
X123944467Y-122052110D01*
X123835795Y-121994023D01*
X123717879Y-121958254D01*
X123595250Y-121946176D01*
X123387000Y-121946176D01*
X123387000Y-121620160D01*
X123466202Y-121587353D01*
X123667167Y-121453073D01*
X123838073Y-121282167D01*
X123972353Y-121081202D01*
X124064847Y-120857903D01*
X124112000Y-120620849D01*
X124112000Y-120379151D01*
X124064847Y-120142097D01*
X123972353Y-119918798D01*
X123838073Y-119717833D01*
X123752000Y-119631760D01*
X123752000Y-118982867D01*
X123785463Y-118964981D01*
X123842869Y-118917869D01*
X123889981Y-118860463D01*
X123924988Y-118794970D01*
X123946545Y-118723905D01*
X123950696Y-118681750D01*
X124190000Y-118681750D01*
X124202454Y-118789902D01*
X124241710Y-118908666D01*
X124303381Y-119017490D01*
X124385097Y-119112192D01*
X124483719Y-119189132D01*
X124595456Y-119245353D01*
X124716014Y-119278695D01*
X124840761Y-119287877D01*
X124864250Y-119285000D01*
X125023000Y-119126250D01*
X125023000Y-118523000D01*
X124348750Y-118523000D01*
X124190000Y-118681750D01*
X123950696Y-118681750D01*
X123953824Y-118650000D01*
X123953824Y-118302000D01*
X124175347Y-118302000D01*
X124200000Y-118304428D01*
%TA.AperFunction,Conductor*%
D33*
G36*
X124200000Y-118304428D02*
G01*
X124224653Y-118302000D01*
X124273750Y-118302000D01*
X124348750Y-118377000D01*
X124806481Y-118377000D01*
X124825000Y-118378824D01*
X125297000Y-118378824D01*
X125297000Y-118523000D01*
X125277000Y-118523000D01*
X125277000Y-119126250D01*
X125298001Y-119147251D01*
X125298001Y-119274223D01*
X125067097Y-119320153D01*
X124843798Y-119412647D01*
X124642833Y-119546927D01*
X124471927Y-119717833D01*
X124337647Y-119918798D01*
X124245153Y-120142097D01*
X124198000Y-120379151D01*
X124198000Y-120620849D01*
X124245153Y-120857903D01*
X124337647Y-121081202D01*
X124471927Y-121282167D01*
X124642833Y-121453073D01*
X124843798Y-121587353D01*
X124968001Y-121638800D01*
X124968000Y-121946176D01*
X124844750Y-121946176D01*
X124722121Y-121958254D01*
X124604205Y-121994023D01*
X124495533Y-122052110D01*
X124400281Y-122130281D01*
X124322110Y-122225533D01*
X124264023Y-122334205D01*
X124228254Y-122452121D01*
X124220000Y-122535925D01*
X124211746Y-122452121D01*
X124175977Y-122334205D01*
X124117890Y-122225533D01*
X124039719Y-122130281D01*
X123944467Y-122052110D01*
X123835795Y-121994023D01*
X123717879Y-121958254D01*
X123595250Y-121946176D01*
X123387000Y-121946176D01*
X123387000Y-121620160D01*
X123466202Y-121587353D01*
X123667167Y-121453073D01*
X123838073Y-121282167D01*
X123972353Y-121081202D01*
X124064847Y-120857903D01*
X124112000Y-120620849D01*
X124112000Y-120379151D01*
X124064847Y-120142097D01*
X123972353Y-119918798D01*
X123838073Y-119717833D01*
X123752000Y-119631760D01*
X123752000Y-118982867D01*
X123785463Y-118964981D01*
X123842869Y-118917869D01*
X123889981Y-118860463D01*
X123924988Y-118794970D01*
X123946545Y-118723905D01*
X123950696Y-118681750D01*
X124190000Y-118681750D01*
X124202454Y-118789902D01*
X124241710Y-118908666D01*
X124303381Y-119017490D01*
X124385097Y-119112192D01*
X124483719Y-119189132D01*
X124595456Y-119245353D01*
X124716014Y-119278695D01*
X124840761Y-119287877D01*
X124864250Y-119285000D01*
X125023000Y-119126250D01*
X125023000Y-118523000D01*
X124348750Y-118523000D01*
X124190000Y-118681750D01*
X123950696Y-118681750D01*
X123953824Y-118650000D01*
X123953824Y-118302000D01*
X124175347Y-118302000D01*
X124200000Y-118304428D01*
G37*
%TD.AperFunction*%
D32*
X133921176Y-118383624D02*
X133921176Y-118449900D01*
X133933261Y-118572597D01*
X133946576Y-118616492D01*
X133910318Y-118652750D01*
X133910000Y-118635750D01*
X133751252Y-118477002D01*
X133910000Y-118477002D01*
X133910000Y-118370006D01*
X133921176Y-118383624D01*
%TA.AperFunction,Conductor*%
D33*
G36*
X133921176Y-118383624D02*
G01*
X133921176Y-118449900D01*
X133933261Y-118572597D01*
X133946576Y-118616492D01*
X133910318Y-118652750D01*
X133910000Y-118635750D01*
X133751252Y-118477002D01*
X133910000Y-118477002D01*
X133910000Y-118370006D01*
X133921176Y-118383624D01*
G37*
%TD.AperFunction*%
D32*
X131727000Y-118223000D02*
X132673000Y-118223000D01*
X132673000Y-118203000D01*
X132927000Y-118203000D01*
X132927000Y-118223000D01*
X132947000Y-118223000D01*
X132947000Y-118477000D01*
X132927000Y-118477000D01*
X132927000Y-118497000D01*
X132673000Y-118497000D01*
X132673000Y-118477000D01*
X131727000Y-118477000D01*
X131727000Y-118497000D01*
X131473000Y-118497000D01*
X131473000Y-118477000D01*
X131453000Y-118477000D01*
X131453000Y-118223000D01*
X131473000Y-118223000D01*
X131473000Y-118203000D01*
X131727000Y-118203000D01*
X131727000Y-118223000D01*
%TA.AperFunction,Conductor*%
D33*
G36*
X131727000Y-118223000D02*
G01*
X132673000Y-118223000D01*
X132673000Y-118203000D01*
X132927000Y-118203000D01*
X132927000Y-118223000D01*
X132947000Y-118223000D01*
X132947000Y-118477000D01*
X132927000Y-118477000D01*
X132927000Y-118497000D01*
X132673000Y-118497000D01*
X132673000Y-118477000D01*
X131727000Y-118477000D01*
X131727000Y-118497000D01*
X131473000Y-118497000D01*
X131473000Y-118477000D01*
X131453000Y-118477000D01*
X131453000Y-118223000D01*
X131473000Y-118223000D01*
X131473000Y-118203000D01*
X131727000Y-118203000D01*
X131727000Y-118223000D01*
G37*
%TD.AperFunction*%
D32*
X130921993Y-107557388D02*
X131160860Y-107491863D01*
X131276760Y-107244884D01*
X131303172Y-107138072D01*
X132923882Y-107138072D01*
X132997107Y-107335158D01*
X133041223Y-107417694D01*
X133267352Y-107468043D01*
X133597323Y-107138072D01*
X133956533Y-107138072D01*
X133446957Y-107647648D01*
X133497306Y-107873777D01*
X133722944Y-107977168D01*
X133964418Y-108034553D01*
X134212447Y-108043726D01*
X134457499Y-108004335D01*
X134690158Y-107917893D01*
X134772694Y-107873777D01*
X134823043Y-107647648D01*
X134313467Y-107138072D01*
X134359357Y-107138072D01*
X134481614Y-107238405D01*
X134635150Y-107320472D01*
X134801746Y-107371008D01*
X134916961Y-107382356D01*
X135002648Y-107468043D01*
X135228777Y-107417694D01*
X135242350Y-107388072D01*
X135773001Y-107388072D01*
X135773000Y-116715874D01*
X135747879Y-116708254D01*
X135625250Y-116696176D01*
X134374750Y-116696176D01*
X134252121Y-116708254D01*
X134134205Y-116744023D01*
X134025533Y-116802110D01*
X133930281Y-116880281D01*
X133852110Y-116975533D01*
X133794023Y-117084205D01*
X133758254Y-117202121D01*
X133746176Y-117324750D01*
X133746176Y-117473174D01*
X133726185Y-117448815D01*
X133629494Y-117369463D01*
X133565528Y-117335272D01*
X133607861Y-117256073D01*
X133642222Y-117142800D01*
X133653824Y-117025000D01*
X133653824Y-116585496D01*
X133722944Y-116617168D01*
X133964418Y-116674553D01*
X134212447Y-116683726D01*
X134457499Y-116644335D01*
X134690158Y-116557893D01*
X134772694Y-116513777D01*
X134823043Y-116287648D01*
X134135000Y-115599605D01*
X134120858Y-115613748D01*
X133941253Y-115434143D01*
X133955395Y-115420000D01*
X134314605Y-115420000D01*
X135002648Y-116108043D01*
X135228777Y-116057694D01*
X135332168Y-115832056D01*
X135389553Y-115590582D01*
X135398726Y-115342553D01*
X135359335Y-115097501D01*
X135272893Y-114864842D01*
X135228777Y-114782306D01*
X135002648Y-114731957D01*
X134314605Y-115420000D01*
X133955395Y-115420000D01*
X133267352Y-114731957D01*
X133041223Y-114782306D01*
X132937832Y-115007944D01*
X132892318Y-115199464D01*
X132768048Y-115116429D01*
X132626643Y-115057857D01*
X132476528Y-115027998D01*
X132323472Y-115027998D01*
X132173357Y-115057857D01*
X132031952Y-115116429D01*
X131904691Y-115201462D01*
X131852499Y-115253654D01*
X131795309Y-115196464D01*
X131668048Y-115111431D01*
X131526643Y-115052859D01*
X131376528Y-115023000D01*
X131294184Y-115023000D01*
X131221277Y-114821168D01*
X131160860Y-114708137D01*
X130921993Y-114642612D01*
X130144605Y-115420000D01*
X130158748Y-115434143D01*
X129979143Y-115613748D01*
X129965000Y-115599605D01*
X129187612Y-116376993D01*
X129240879Y-116571176D01*
X129075000Y-116571176D01*
X129001095Y-116578455D01*
X128988845Y-116582171D01*
X128966031Y-116506964D01*
X128919417Y-116419755D01*
X128856684Y-116343316D01*
X128837532Y-116327598D01*
X128746487Y-116236553D01*
X128819180Y-116214502D01*
X128904379Y-116168961D01*
X129008007Y-116197388D01*
X129785395Y-115420000D01*
X129771253Y-115405858D01*
X129939209Y-115237901D01*
X129955000Y-115238072D01*
X129961989Y-115237384D01*
X129965000Y-115240395D01*
X129968669Y-115236726D01*
X130079482Y-115225812D01*
X130199180Y-115189502D01*
X130309494Y-115130537D01*
X130406185Y-115051185D01*
X130485537Y-114954494D01*
X130544502Y-114844180D01*
X130580812Y-114724482D01*
X130591726Y-114613669D01*
X130653043Y-114552352D01*
X133446957Y-114552352D01*
X134135000Y-115240395D01*
X134823043Y-114552352D01*
X134772694Y-114326223D01*
X134547056Y-114222832D01*
X134305582Y-114165447D01*
X134057553Y-114156274D01*
X133812501Y-114195665D01*
X133579842Y-114282107D01*
X133497306Y-114326223D01*
X133446957Y-114552352D01*
X130653043Y-114552352D01*
X130742388Y-114463007D01*
X130676863Y-114224140D01*
X130590000Y-114183378D01*
X130590000Y-114172998D01*
X130567881Y-114172998D01*
X130474890Y-114129360D01*
X130590000Y-114014250D01*
X130593072Y-114000000D01*
X130580812Y-113875518D01*
X130544502Y-113755820D01*
X130526951Y-113722985D01*
X130617538Y-113632399D01*
X130636685Y-113616685D01*
X130652398Y-113597539D01*
X130652401Y-113597536D01*
X130685927Y-113556684D01*
X130699418Y-113540246D01*
X130746032Y-113453037D01*
X130774737Y-113358410D01*
X130782001Y-113284654D01*
X130782001Y-113284644D01*
X130784428Y-113260001D01*
X130782001Y-113235358D01*
X130782001Y-108964642D01*
X130784428Y-108939999D01*
X130782001Y-108915356D01*
X130782001Y-108915346D01*
X130774737Y-108841590D01*
X130746032Y-108746963D01*
X130699418Y-108659754D01*
X130656094Y-108606964D01*
X130652401Y-108602464D01*
X130652398Y-108602461D01*
X130636685Y-108583315D01*
X130617538Y-108567601D01*
X130526951Y-108477015D01*
X130544502Y-108444180D01*
X130580812Y-108324482D01*
X130593072Y-108200000D01*
X130590000Y-108185750D01*
X130473248Y-108068998D01*
X130563832Y-108036277D01*
X130581184Y-108027002D01*
X130590000Y-108027002D01*
X130590000Y-108022290D01*
X130676863Y-107975860D01*
X130742388Y-107736993D01*
X130591726Y-107586331D01*
X130580812Y-107475518D01*
X130544502Y-107355820D01*
X130485537Y-107245506D01*
X130406185Y-107148815D01*
X130393095Y-107138072D01*
X130502677Y-107138072D01*
X130921993Y-107557388D01*
%TA.AperFunction,Conductor*%
D33*
G36*
X130921993Y-107557388D02*
G01*
X131160860Y-107491863D01*
X131276760Y-107244884D01*
X131303172Y-107138072D01*
X132923882Y-107138072D01*
X132997107Y-107335158D01*
X133041223Y-107417694D01*
X133267352Y-107468043D01*
X133597323Y-107138072D01*
X133956533Y-107138072D01*
X133446957Y-107647648D01*
X133497306Y-107873777D01*
X133722944Y-107977168D01*
X133964418Y-108034553D01*
X134212447Y-108043726D01*
X134457499Y-108004335D01*
X134690158Y-107917893D01*
X134772694Y-107873777D01*
X134823043Y-107647648D01*
X134313467Y-107138072D01*
X134359357Y-107138072D01*
X134481614Y-107238405D01*
X134635150Y-107320472D01*
X134801746Y-107371008D01*
X134916961Y-107382356D01*
X135002648Y-107468043D01*
X135228777Y-107417694D01*
X135242350Y-107388072D01*
X135773001Y-107388072D01*
X135773000Y-116715874D01*
X135747879Y-116708254D01*
X135625250Y-116696176D01*
X134374750Y-116696176D01*
X134252121Y-116708254D01*
X134134205Y-116744023D01*
X134025533Y-116802110D01*
X133930281Y-116880281D01*
X133852110Y-116975533D01*
X133794023Y-117084205D01*
X133758254Y-117202121D01*
X133746176Y-117324750D01*
X133746176Y-117473174D01*
X133726185Y-117448815D01*
X133629494Y-117369463D01*
X133565528Y-117335272D01*
X133607861Y-117256073D01*
X133642222Y-117142800D01*
X133653824Y-117025000D01*
X133653824Y-116585496D01*
X133722944Y-116617168D01*
X133964418Y-116674553D01*
X134212447Y-116683726D01*
X134457499Y-116644335D01*
X134690158Y-116557893D01*
X134772694Y-116513777D01*
X134823043Y-116287648D01*
X134135000Y-115599605D01*
X134120858Y-115613748D01*
X133941253Y-115434143D01*
X133955395Y-115420000D01*
X134314605Y-115420000D01*
X135002648Y-116108043D01*
X135228777Y-116057694D01*
X135332168Y-115832056D01*
X135389553Y-115590582D01*
X135398726Y-115342553D01*
X135359335Y-115097501D01*
X135272893Y-114864842D01*
X135228777Y-114782306D01*
X135002648Y-114731957D01*
X134314605Y-115420000D01*
X133955395Y-115420000D01*
X133267352Y-114731957D01*
X133041223Y-114782306D01*
X132937832Y-115007944D01*
X132892318Y-115199464D01*
X132768048Y-115116429D01*
X132626643Y-115057857D01*
X132476528Y-115027998D01*
X132323472Y-115027998D01*
X132173357Y-115057857D01*
X132031952Y-115116429D01*
X131904691Y-115201462D01*
X131852499Y-115253654D01*
X131795309Y-115196464D01*
X131668048Y-115111431D01*
X131526643Y-115052859D01*
X131376528Y-115023000D01*
X131294184Y-115023000D01*
X131221277Y-114821168D01*
X131160860Y-114708137D01*
X130921993Y-114642612D01*
X130144605Y-115420000D01*
X130158748Y-115434143D01*
X129979143Y-115613748D01*
X129965000Y-115599605D01*
X129187612Y-116376993D01*
X129240879Y-116571176D01*
X129075000Y-116571176D01*
X129001095Y-116578455D01*
X128988845Y-116582171D01*
X128966031Y-116506964D01*
X128919417Y-116419755D01*
X128856684Y-116343316D01*
X128837532Y-116327598D01*
X128746487Y-116236553D01*
X128819180Y-116214502D01*
X128904379Y-116168961D01*
X129008007Y-116197388D01*
X129785395Y-115420000D01*
X129771253Y-115405858D01*
X129939209Y-115237901D01*
X129955000Y-115238072D01*
X129961989Y-115237384D01*
X129965000Y-115240395D01*
X129968669Y-115236726D01*
X130079482Y-115225812D01*
X130199180Y-115189502D01*
X130309494Y-115130537D01*
X130406185Y-115051185D01*
X130485537Y-114954494D01*
X130544502Y-114844180D01*
X130580812Y-114724482D01*
X130591726Y-114613669D01*
X130653043Y-114552352D01*
X133446957Y-114552352D01*
X134135000Y-115240395D01*
X134823043Y-114552352D01*
X134772694Y-114326223D01*
X134547056Y-114222832D01*
X134305582Y-114165447D01*
X134057553Y-114156274D01*
X133812501Y-114195665D01*
X133579842Y-114282107D01*
X133497306Y-114326223D01*
X133446957Y-114552352D01*
X130653043Y-114552352D01*
X130742388Y-114463007D01*
X130676863Y-114224140D01*
X130590000Y-114183378D01*
X130590000Y-114172998D01*
X130567881Y-114172998D01*
X130474890Y-114129360D01*
X130590000Y-114014250D01*
X130593072Y-114000000D01*
X130580812Y-113875518D01*
X130544502Y-113755820D01*
X130526951Y-113722985D01*
X130617538Y-113632399D01*
X130636685Y-113616685D01*
X130652398Y-113597539D01*
X130652401Y-113597536D01*
X130685927Y-113556684D01*
X130699418Y-113540246D01*
X130746032Y-113453037D01*
X130774737Y-113358410D01*
X130782001Y-113284654D01*
X130782001Y-113284644D01*
X130784428Y-113260001D01*
X130782001Y-113235358D01*
X130782001Y-108964642D01*
X130784428Y-108939999D01*
X130782001Y-108915356D01*
X130782001Y-108915346D01*
X130774737Y-108841590D01*
X130746032Y-108746963D01*
X130699418Y-108659754D01*
X130656094Y-108606964D01*
X130652401Y-108602464D01*
X130652398Y-108602461D01*
X130636685Y-108583315D01*
X130617538Y-108567601D01*
X130526951Y-108477015D01*
X130544502Y-108444180D01*
X130580812Y-108324482D01*
X130593072Y-108200000D01*
X130590000Y-108185750D01*
X130473248Y-108068998D01*
X130563832Y-108036277D01*
X130581184Y-108027002D01*
X130590000Y-108027002D01*
X130590000Y-108022290D01*
X130676863Y-107975860D01*
X130742388Y-107736993D01*
X130591726Y-107586331D01*
X130580812Y-107475518D01*
X130544502Y-107355820D01*
X130485537Y-107245506D01*
X130406185Y-107148815D01*
X130393095Y-107138072D01*
X130502677Y-107138072D01*
X130921993Y-107557388D01*
G37*
%TD.AperFunction*%
D32*
X123377000Y-117077000D02*
X123397000Y-117077000D01*
X123397000Y-117221176D01*
X123103000Y-117221176D01*
X123103000Y-117077000D01*
X123123000Y-117077000D01*
X123123000Y-117052009D01*
X123377000Y-117052009D01*
X123377000Y-117077000D01*
%TA.AperFunction,Conductor*%
D33*
G36*
X123377000Y-117077000D02*
G01*
X123397000Y-117077000D01*
X123397000Y-117221176D01*
X123103000Y-117221176D01*
X123103000Y-117077000D01*
X123123000Y-117077000D01*
X123123000Y-117052009D01*
X123377000Y-117052009D01*
X123377000Y-117077000D01*
G37*
%TD.AperFunction*%
D32*
X118698847Y-115589929D02*
X118803241Y-115645729D01*
X118889177Y-115671797D01*
X118868123Y-115741204D01*
X118855862Y-115865686D01*
X118868123Y-115990167D01*
X118904432Y-116109865D01*
X118963396Y-116220180D01*
X119042749Y-116316871D01*
X119161064Y-116430841D01*
X119385570Y-116430841D01*
X119968403Y-115848008D01*
X119954261Y-115833866D01*
X120133866Y-115654261D01*
X120148008Y-115668403D01*
X120162151Y-115654261D01*
X120341756Y-115833866D01*
X120327613Y-115848008D01*
X120341756Y-115862151D01*
X120162151Y-116041756D01*
X120148008Y-116027613D01*
X119565175Y-116610446D01*
X119565175Y-116746177D01*
X119522597Y-116733261D01*
X119399900Y-116721176D01*
X119333624Y-116721176D01*
X119249467Y-116652110D01*
X119140795Y-116594023D01*
X119022879Y-116558254D01*
X118900250Y-116546176D01*
X118668106Y-116546176D01*
X118668106Y-115564700D01*
X118698847Y-115589929D01*
%TA.AperFunction,Conductor*%
D33*
G36*
X118698847Y-115589929D02*
G01*
X118803241Y-115645729D01*
X118889177Y-115671797D01*
X118868123Y-115741204D01*
X118855862Y-115865686D01*
X118868123Y-115990167D01*
X118904432Y-116109865D01*
X118963396Y-116220180D01*
X119042749Y-116316871D01*
X119161064Y-116430841D01*
X119385570Y-116430841D01*
X119968403Y-115848008D01*
X119954261Y-115833866D01*
X120133866Y-115654261D01*
X120148008Y-115668403D01*
X120162151Y-115654261D01*
X120341756Y-115833866D01*
X120327613Y-115848008D01*
X120341756Y-115862151D01*
X120162151Y-116041756D01*
X120148008Y-116027613D01*
X119565175Y-116610446D01*
X119565175Y-116746177D01*
X119522597Y-116733261D01*
X119399900Y-116721176D01*
X119333624Y-116721176D01*
X119249467Y-116652110D01*
X119140795Y-116594023D01*
X119022879Y-116558254D01*
X118900250Y-116546176D01*
X118668106Y-116546176D01*
X118668106Y-115564700D01*
X118698847Y-115589929D01*
G37*
%TD.AperFunction*%
D32*
X128227000Y-115098000D02*
X128247000Y-115098000D01*
X128247000Y-115352000D01*
X128227000Y-115352000D01*
X128227000Y-115372000D01*
X127973000Y-115372000D01*
X127973000Y-115352000D01*
X127953000Y-115352000D01*
X127953000Y-115098000D01*
X127973000Y-115098000D01*
X127973000Y-115078000D01*
X128227000Y-115078000D01*
X128227000Y-115098000D01*
%TA.AperFunction,Conductor*%
D33*
G36*
X128227000Y-115098000D02*
G01*
X128247000Y-115098000D01*
X128247000Y-115352000D01*
X128227000Y-115352000D01*
X128227000Y-115372000D01*
X127973000Y-115372000D01*
X127973000Y-115352000D01*
X127953000Y-115352000D01*
X127953000Y-115098000D01*
X127973000Y-115098000D01*
X127973000Y-115078000D01*
X128227000Y-115078000D01*
X128227000Y-115098000D01*
G37*
%TD.AperFunction*%
D32*
X123052000Y-109173000D02*
X123072000Y-109173000D01*
X123072000Y-109427000D01*
X123052000Y-109427000D01*
X123052000Y-109447000D01*
X122798000Y-109447000D01*
X122798000Y-109427000D01*
X122778000Y-109427000D01*
X122778000Y-109173000D01*
X122798000Y-109173000D01*
X122798000Y-109153000D01*
X123052000Y-109153000D01*
X123052000Y-109173000D01*
%TA.AperFunction,Conductor*%
D33*
G36*
X123052000Y-109173000D02*
G01*
X123072000Y-109173000D01*
X123072000Y-109427000D01*
X123052000Y-109427000D01*
X123052000Y-109447000D01*
X122798000Y-109447000D01*
X122798000Y-109427000D01*
X122778000Y-109427000D01*
X122778000Y-109173000D01*
X122798000Y-109173000D01*
X122798000Y-109153000D01*
X123052000Y-109153000D01*
X123052000Y-109173000D01*
G37*
%TD.AperFunction*%
D32*
X120523000Y-105933261D02*
X120503423Y-105943725D01*
X120415710Y-106015710D01*
X120343725Y-106103423D01*
X120290236Y-106203494D01*
X120257298Y-106312077D01*
X120246176Y-106425000D01*
X120246176Y-106975000D01*
X120257298Y-107087923D01*
X120290236Y-107196506D01*
X120343725Y-107296577D01*
X120412917Y-107380887D01*
X120400012Y-107405030D01*
X120378455Y-107476095D01*
X120371176Y-107550000D01*
X120371176Y-107950000D01*
X120378455Y-108023905D01*
X120400012Y-108094970D01*
X120435019Y-108160463D01*
X120482131Y-108217869D01*
X120539537Y-108264981D01*
X120605030Y-108299988D01*
X120676095Y-108321545D01*
X120750000Y-108328824D01*
X121550000Y-108328824D01*
X121623905Y-108321545D01*
X121694970Y-108299988D01*
X121760463Y-108264981D01*
X121817869Y-108217869D01*
X121844080Y-108185931D01*
X121852870Y-108230121D01*
X121905368Y-108356863D01*
X121738795Y-108523437D01*
X121694970Y-108500012D01*
X121623905Y-108478455D01*
X121550000Y-108471176D01*
X120750000Y-108471176D01*
X120676095Y-108478455D01*
X120605030Y-108500012D01*
X120539537Y-108535019D01*
X120482131Y-108582131D01*
X120435019Y-108639537D01*
X120400012Y-108705030D01*
X120378455Y-108776095D01*
X120371176Y-108850000D01*
X120371176Y-109250000D01*
X120378455Y-109323905D01*
X120400012Y-109394970D01*
X120407128Y-109408283D01*
X120332649Y-109333804D01*
X120205388Y-109248771D01*
X120063983Y-109190199D01*
X120028824Y-109183206D01*
X120028824Y-109109894D01*
X120091094Y-109061055D01*
X120172566Y-108966143D01*
X120233956Y-108857160D01*
X120272905Y-108738294D01*
X120285000Y-108631750D01*
X120126250Y-108473000D01*
X119668519Y-108473000D01*
X119650000Y-108471176D01*
X119103000Y-108471176D01*
X119103000Y-108328824D01*
X119650000Y-108328824D01*
X119668519Y-108327000D01*
X120126250Y-108327000D01*
X120285000Y-108168250D01*
X120272905Y-108061706D01*
X120233956Y-107942840D01*
X120172566Y-107833857D01*
X120091094Y-107738945D01*
X120028824Y-107690106D01*
X120028824Y-107550000D01*
X120021545Y-107476095D01*
X119999988Y-107405030D01*
X119987083Y-107380887D01*
X120056275Y-107296577D01*
X120109764Y-107196506D01*
X120142702Y-107087923D01*
X120153824Y-106975000D01*
X120153824Y-106425000D01*
X120142702Y-106312077D01*
X120109764Y-106203494D01*
X120056275Y-106103423D01*
X119984290Y-106015710D01*
X119896577Y-105943725D01*
X119796506Y-105890236D01*
X119687923Y-105857298D01*
X119575000Y-105846176D01*
X119175000Y-105846176D01*
X119062077Y-105857298D01*
X118953494Y-105890236D01*
X118853423Y-105943725D01*
X118765710Y-106015710D01*
X118693725Y-106103423D01*
X118640236Y-106203494D01*
X118607298Y-106312077D01*
X118596176Y-106425000D01*
X118596176Y-106493889D01*
X118492056Y-106598010D01*
X118201990Y-106598010D01*
X118201990Y-104902010D01*
X120523001Y-104902010D01*
X120523000Y-105933261D01*
%TA.AperFunction,Conductor*%
D33*
G36*
X120523000Y-105933261D02*
G01*
X120503423Y-105943725D01*
X120415710Y-106015710D01*
X120343725Y-106103423D01*
X120290236Y-106203494D01*
X120257298Y-106312077D01*
X120246176Y-106425000D01*
X120246176Y-106975000D01*
X120257298Y-107087923D01*
X120290236Y-107196506D01*
X120343725Y-107296577D01*
X120412917Y-107380887D01*
X120400012Y-107405030D01*
X120378455Y-107476095D01*
X120371176Y-107550000D01*
X120371176Y-107950000D01*
X120378455Y-108023905D01*
X120400012Y-108094970D01*
X120435019Y-108160463D01*
X120482131Y-108217869D01*
X120539537Y-108264981D01*
X120605030Y-108299988D01*
X120676095Y-108321545D01*
X120750000Y-108328824D01*
X121550000Y-108328824D01*
X121623905Y-108321545D01*
X121694970Y-108299988D01*
X121760463Y-108264981D01*
X121817869Y-108217869D01*
X121844080Y-108185931D01*
X121852870Y-108230121D01*
X121905368Y-108356863D01*
X121738795Y-108523437D01*
X121694970Y-108500012D01*
X121623905Y-108478455D01*
X121550000Y-108471176D01*
X120750000Y-108471176D01*
X120676095Y-108478455D01*
X120605030Y-108500012D01*
X120539537Y-108535019D01*
X120482131Y-108582131D01*
X120435019Y-108639537D01*
X120400012Y-108705030D01*
X120378455Y-108776095D01*
X120371176Y-108850000D01*
X120371176Y-109250000D01*
X120378455Y-109323905D01*
X120400012Y-109394970D01*
X120407128Y-109408283D01*
X120332649Y-109333804D01*
X120205388Y-109248771D01*
X120063983Y-109190199D01*
X120028824Y-109183206D01*
X120028824Y-109109894D01*
X120091094Y-109061055D01*
X120172566Y-108966143D01*
X120233956Y-108857160D01*
X120272905Y-108738294D01*
X120285000Y-108631750D01*
X120126250Y-108473000D01*
X119668519Y-108473000D01*
X119650000Y-108471176D01*
X119103000Y-108471176D01*
X119103000Y-108328824D01*
X119650000Y-108328824D01*
X119668519Y-108327000D01*
X120126250Y-108327000D01*
X120285000Y-108168250D01*
X120272905Y-108061706D01*
X120233956Y-107942840D01*
X120172566Y-107833857D01*
X120091094Y-107738945D01*
X120028824Y-107690106D01*
X120028824Y-107550000D01*
X120021545Y-107476095D01*
X119999988Y-107405030D01*
X119987083Y-107380887D01*
X120056275Y-107296577D01*
X120109764Y-107196506D01*
X120142702Y-107087923D01*
X120153824Y-106975000D01*
X120153824Y-106425000D01*
X120142702Y-106312077D01*
X120109764Y-106203494D01*
X120056275Y-106103423D01*
X119984290Y-106015710D01*
X119896577Y-105943725D01*
X119796506Y-105890236D01*
X119687923Y-105857298D01*
X119575000Y-105846176D01*
X119175000Y-105846176D01*
X119062077Y-105857298D01*
X118953494Y-105890236D01*
X118853423Y-105943725D01*
X118765710Y-106015710D01*
X118693725Y-106103423D01*
X118640236Y-106203494D01*
X118607298Y-106312077D01*
X118596176Y-106425000D01*
X118596176Y-106493889D01*
X118492056Y-106598010D01*
X118201990Y-106598010D01*
X118201990Y-104902010D01*
X120523001Y-104902010D01*
X120523000Y-105933261D01*
G37*
%TD.AperFunction*%
D32*
X127800000Y-104930033D02*
X127830794Y-104927000D01*
X128190202Y-104927000D01*
X128202152Y-104949356D01*
X128280354Y-105044646D01*
X128375644Y-105122848D01*
X128446734Y-105160847D01*
X128385150Y-105179528D01*
X128231614Y-105261595D01*
X128097038Y-105372038D01*
X127986595Y-105506614D01*
X127904528Y-105660150D01*
X127853992Y-105826746D01*
X127836928Y-106000000D01*
X127836928Y-106500000D01*
X127853992Y-106673254D01*
X127856817Y-106682567D01*
X127814250Y-106640000D01*
X127625000Y-106636928D01*
X127500518Y-106649188D01*
X127380820Y-106685498D01*
X127270506Y-106744463D01*
X127173815Y-106823815D01*
X127094463Y-106920506D01*
X127035498Y-107030820D01*
X126999188Y-107150518D01*
X126986928Y-107275000D01*
X126990000Y-107389250D01*
X127148750Y-107548000D01*
X127973000Y-107548000D01*
X127973000Y-107528000D01*
X128184019Y-107528000D01*
X128176928Y-107600000D01*
X128180000Y-107614250D01*
X128247000Y-107681250D01*
X128247000Y-107802000D01*
X128227000Y-107802000D01*
X128227000Y-107822000D01*
X127973000Y-107822000D01*
X127973000Y-107802000D01*
X127148750Y-107802000D01*
X127057570Y-107893180D01*
X126965641Y-107844042D01*
X126847677Y-107808259D01*
X126725000Y-107796176D01*
X125475000Y-107796176D01*
X125352323Y-107808259D01*
X125234359Y-107844042D01*
X125125644Y-107902152D01*
X125030354Y-107980354D01*
X124952152Y-108075644D01*
X124894042Y-108184359D01*
X124858259Y-108302323D01*
X124846176Y-108425000D01*
X124846176Y-108466386D01*
X124817800Y-108457778D01*
X124700000Y-108446176D01*
X124250000Y-108446176D01*
X124132200Y-108457778D01*
X124018927Y-108492139D01*
X123939728Y-108534472D01*
X123909409Y-108477750D01*
X123943693Y-108463549D01*
X124070954Y-108378516D01*
X124179181Y-108270289D01*
X124264214Y-108143028D01*
X124322786Y-108001623D01*
X124352645Y-107851508D01*
X124352645Y-107753824D01*
X124625000Y-107753824D01*
X124737923Y-107742702D01*
X124846506Y-107709764D01*
X124946577Y-107656275D01*
X125034290Y-107584290D01*
X125106275Y-107496577D01*
X125159764Y-107396506D01*
X125192702Y-107287923D01*
X125203824Y-107175000D01*
X125203824Y-106939637D01*
X125234359Y-106955958D01*
X125352323Y-106991741D01*
X125475000Y-107003824D01*
X126725000Y-107003824D01*
X126847677Y-106991741D01*
X126965641Y-106955958D01*
X127074356Y-106897848D01*
X127169646Y-106819646D01*
X127247848Y-106724356D01*
X127305958Y-106615641D01*
X127341741Y-106497677D01*
X127353824Y-106375000D01*
X127353824Y-105625000D01*
X127341741Y-105502323D01*
X127305958Y-105384359D01*
X127297650Y-105368817D01*
X127302000Y-105324653D01*
X127302000Y-105324644D01*
X127304427Y-105300001D01*
X127302000Y-105275358D01*
X127302000Y-105256827D01*
X127396577Y-105206275D01*
X127484290Y-105134290D01*
X127503483Y-105110903D01*
X127516103Y-105107075D01*
X127625028Y-105048853D01*
X127720501Y-104970501D01*
X127740138Y-104946573D01*
X127759711Y-104927000D01*
X127769206Y-104927000D01*
X127800000Y-104930033D01*
%TA.AperFunction,Conductor*%
D33*
G36*
X127800000Y-104930033D02*
G01*
X127830794Y-104927000D01*
X128190202Y-104927000D01*
X128202152Y-104949356D01*
X128280354Y-105044646D01*
X128375644Y-105122848D01*
X128446734Y-105160847D01*
X128385150Y-105179528D01*
X128231614Y-105261595D01*
X128097038Y-105372038D01*
X127986595Y-105506614D01*
X127904528Y-105660150D01*
X127853992Y-105826746D01*
X127836928Y-106000000D01*
X127836928Y-106500000D01*
X127853992Y-106673254D01*
X127856817Y-106682567D01*
X127814250Y-106640000D01*
X127625000Y-106636928D01*
X127500518Y-106649188D01*
X127380820Y-106685498D01*
X127270506Y-106744463D01*
X127173815Y-106823815D01*
X127094463Y-106920506D01*
X127035498Y-107030820D01*
X126999188Y-107150518D01*
X126986928Y-107275000D01*
X126990000Y-107389250D01*
X127148750Y-107548000D01*
X127973000Y-107548000D01*
X127973000Y-107528000D01*
X128184019Y-107528000D01*
X128176928Y-107600000D01*
X128180000Y-107614250D01*
X128247000Y-107681250D01*
X128247000Y-107802000D01*
X128227000Y-107802000D01*
X128227000Y-107822000D01*
X127973000Y-107822000D01*
X127973000Y-107802000D01*
X127148750Y-107802000D01*
X127057570Y-107893180D01*
X126965641Y-107844042D01*
X126847677Y-107808259D01*
X126725000Y-107796176D01*
X125475000Y-107796176D01*
X125352323Y-107808259D01*
X125234359Y-107844042D01*
X125125644Y-107902152D01*
X125030354Y-107980354D01*
X124952152Y-108075644D01*
X124894042Y-108184359D01*
X124858259Y-108302323D01*
X124846176Y-108425000D01*
X124846176Y-108466386D01*
X124817800Y-108457778D01*
X124700000Y-108446176D01*
X124250000Y-108446176D01*
X124132200Y-108457778D01*
X124018927Y-108492139D01*
X123939728Y-108534472D01*
X123909409Y-108477750D01*
X123943693Y-108463549D01*
X124070954Y-108378516D01*
X124179181Y-108270289D01*
X124264214Y-108143028D01*
X124322786Y-108001623D01*
X124352645Y-107851508D01*
X124352645Y-107753824D01*
X124625000Y-107753824D01*
X124737923Y-107742702D01*
X124846506Y-107709764D01*
X124946577Y-107656275D01*
X125034290Y-107584290D01*
X125106275Y-107496577D01*
X125159764Y-107396506D01*
X125192702Y-107287923D01*
X125203824Y-107175000D01*
X125203824Y-106939637D01*
X125234359Y-106955958D01*
X125352323Y-106991741D01*
X125475000Y-107003824D01*
X126725000Y-107003824D01*
X126847677Y-106991741D01*
X126965641Y-106955958D01*
X127074356Y-106897848D01*
X127169646Y-106819646D01*
X127247848Y-106724356D01*
X127305958Y-106615641D01*
X127341741Y-106497677D01*
X127353824Y-106375000D01*
X127353824Y-105625000D01*
X127341741Y-105502323D01*
X127305958Y-105384359D01*
X127297650Y-105368817D01*
X127302000Y-105324653D01*
X127302000Y-105324644D01*
X127304427Y-105300001D01*
X127302000Y-105275358D01*
X127302000Y-105256827D01*
X127396577Y-105206275D01*
X127484290Y-105134290D01*
X127503483Y-105110903D01*
X127516103Y-105107075D01*
X127625028Y-105048853D01*
X127720501Y-104970501D01*
X127740138Y-104946573D01*
X127759711Y-104927000D01*
X127769206Y-104927000D01*
X127800000Y-104930033D01*
G37*
%TD.AperFunction*%
D32*
X129253137Y-107975860D02*
X129349704Y-108021176D01*
X129211625Y-108021176D01*
X129210000Y-107960750D01*
X129086929Y-107837679D01*
X129122606Y-107802002D01*
X129205445Y-107802002D01*
X129253137Y-107975860D01*
%TA.AperFunction,Conductor*%
D33*
G36*
X129253137Y-107975860D02*
G01*
X129349704Y-108021176D01*
X129211625Y-108021176D01*
X129210000Y-107960750D01*
X129086929Y-107837679D01*
X129122606Y-107802002D01*
X129205445Y-107802002D01*
X129253137Y-107975860D01*
G37*
%TD.AperFunction*%
D32*
X122902000Y-106773000D02*
X122922000Y-106773000D01*
X122922000Y-107027000D01*
X122902000Y-107027000D01*
X122902000Y-107047000D01*
X122648000Y-107047000D01*
X122648000Y-107027000D01*
X122628000Y-107027000D01*
X122628000Y-106773000D01*
X122648000Y-106773000D01*
X122648000Y-106753000D01*
X122902000Y-106753000D01*
X122902000Y-106773000D01*
%TA.AperFunction,Conductor*%
D33*
G36*
X122902000Y-106773000D02*
G01*
X122922000Y-106773000D01*
X122922000Y-107027000D01*
X122902000Y-107027000D01*
X122902000Y-107047000D01*
X122648000Y-107047000D01*
X122648000Y-107027000D01*
X122628000Y-107027000D01*
X122628000Y-106773000D01*
X122648000Y-106773000D01*
X122648000Y-106753000D01*
X122902000Y-106753000D01*
X122902000Y-106773000D01*
G37*
%TD.AperFunction*%
D32*
X122396464Y-104195309D02*
X122504691Y-104303536D01*
X122631952Y-104388569D01*
X122773357Y-104447141D01*
X122891418Y-104470624D01*
X122830562Y-104544776D01*
X122783948Y-104631986D01*
X122755243Y-104726613D01*
X122747979Y-104800369D01*
X122747979Y-104800378D01*
X122745552Y-104825021D01*
X122747635Y-104846176D01*
X122575000Y-104846176D01*
X122462077Y-104857298D01*
X122353494Y-104890236D01*
X122253423Y-104943725D01*
X122165710Y-105015710D01*
X122093725Y-105103423D01*
X122040236Y-105203494D01*
X122007298Y-105312077D01*
X121996176Y-105425000D01*
X121996176Y-105914430D01*
X121923815Y-105973815D01*
X121844463Y-106070506D01*
X121785498Y-106180820D01*
X121769192Y-106234574D01*
X121759764Y-106203494D01*
X121706275Y-106103423D01*
X121634290Y-106015710D01*
X121546577Y-105943725D01*
X121527000Y-105933261D01*
X121527000Y-105009932D01*
X122374498Y-104162435D01*
X122396464Y-104195309D01*
%TA.AperFunction,Conductor*%
D33*
G36*
X122396464Y-104195309D02*
G01*
X122504691Y-104303536D01*
X122631952Y-104388569D01*
X122773357Y-104447141D01*
X122891418Y-104470624D01*
X122830562Y-104544776D01*
X122783948Y-104631986D01*
X122755243Y-104726613D01*
X122747979Y-104800369D01*
X122747979Y-104800378D01*
X122745552Y-104825021D01*
X122747635Y-104846176D01*
X122575000Y-104846176D01*
X122462077Y-104857298D01*
X122353494Y-104890236D01*
X122253423Y-104943725D01*
X122165710Y-105015710D01*
X122093725Y-105103423D01*
X122040236Y-105203494D01*
X122007298Y-105312077D01*
X121996176Y-105425000D01*
X121996176Y-105914430D01*
X121923815Y-105973815D01*
X121844463Y-106070506D01*
X121785498Y-106180820D01*
X121769192Y-106234574D01*
X121759764Y-106203494D01*
X121706275Y-106103423D01*
X121634290Y-106015710D01*
X121546577Y-105943725D01*
X121527000Y-105933261D01*
X121527000Y-105009932D01*
X122374498Y-104162435D01*
X122396464Y-104195309D01*
G37*
%TD.AperFunction*%
D32*
X126404691Y-100578482D02*
X126531952Y-100663515D01*
X126673357Y-100722087D01*
X126823472Y-100751946D01*
X126976528Y-100751946D01*
X127098371Y-100727710D01*
X127096176Y-100750000D01*
X127096176Y-101200000D01*
X127107778Y-101317800D01*
X127142139Y-101431073D01*
X127197939Y-101535467D01*
X127273032Y-101626968D01*
X127364533Y-101702061D01*
X127454220Y-101750000D01*
X127364533Y-101797939D01*
X127273032Y-101873032D01*
X127197939Y-101964533D01*
X127142139Y-102068927D01*
X127132165Y-102101806D01*
X127075000Y-102096176D01*
X126525000Y-102096176D01*
X126412077Y-102107298D01*
X126303494Y-102140236D01*
X126203423Y-102193725D01*
X126115710Y-102265710D01*
X126043725Y-102353423D01*
X125990236Y-102453494D01*
X125984872Y-102471176D01*
X125425000Y-102471176D01*
X125351095Y-102478455D01*
X125280030Y-102500012D01*
X125214537Y-102535019D01*
X125157131Y-102582131D01*
X125110019Y-102639537D01*
X125075012Y-102705030D01*
X125053455Y-102776095D01*
X125046176Y-102850000D01*
X125046176Y-103250000D01*
X125053455Y-103323905D01*
X125068954Y-103375000D01*
X125053455Y-103426095D01*
X125046176Y-103500000D01*
X125046176Y-103900000D01*
X125053455Y-103973905D01*
X125068954Y-104025000D01*
X125053455Y-104076095D01*
X125046176Y-104150000D01*
X125046176Y-104550000D01*
X125053455Y-104623905D01*
X125075012Y-104694970D01*
X125110019Y-104760463D01*
X125157131Y-104817869D01*
X125214537Y-104864981D01*
X125280030Y-104899988D01*
X125351095Y-104921545D01*
X125425000Y-104928824D01*
X125984872Y-104928824D01*
X125990236Y-104946506D01*
X126016785Y-104996176D01*
X125475000Y-104996176D01*
X125352323Y-105008259D01*
X125234359Y-105044042D01*
X125125644Y-105102152D01*
X125111709Y-105113588D01*
X125106275Y-105103423D01*
X125034290Y-105015710D01*
X124946577Y-104943725D01*
X124846506Y-104890236D01*
X124737923Y-104857298D01*
X124625000Y-104846176D01*
X124408377Y-104846176D01*
X124442869Y-104817869D01*
X124489981Y-104760463D01*
X124524988Y-104694970D01*
X124546545Y-104623905D01*
X124553824Y-104550000D01*
X124553824Y-104185510D01*
X124618036Y-104166031D01*
X124705245Y-104119417D01*
X124781684Y-104056684D01*
X124797402Y-104037532D01*
X124837533Y-103997401D01*
X124856685Y-103981683D01*
X124919418Y-103905244D01*
X124966032Y-103818035D01*
X124994737Y-103723408D01*
X125002001Y-103649652D01*
X125002001Y-103649643D01*
X125004428Y-103625000D01*
X125002001Y-103600357D01*
X125002001Y-102732933D01*
X125481111Y-102253824D01*
X125825000Y-102253824D01*
X125937923Y-102242702D01*
X126046506Y-102209764D01*
X126146577Y-102156275D01*
X126234290Y-102084290D01*
X126306275Y-101996577D01*
X126359764Y-101896506D01*
X126392702Y-101787923D01*
X126403824Y-101675000D01*
X126403824Y-101125000D01*
X126392702Y-101012077D01*
X126359764Y-100903494D01*
X126306275Y-100803423D01*
X126234290Y-100715710D01*
X126146577Y-100643725D01*
X126046506Y-100590236D01*
X125937923Y-100557298D01*
X125825000Y-100546176D01*
X125425000Y-100546176D01*
X125312077Y-100557298D01*
X125203494Y-100590236D01*
X125103423Y-100643725D01*
X125015710Y-100715710D01*
X124986049Y-100751851D01*
X124964502Y-100680820D01*
X124905537Y-100570506D01*
X124828755Y-100476946D01*
X126303155Y-100476946D01*
X126404691Y-100578482D01*
%TA.AperFunction,Conductor*%
D33*
G36*
X126404691Y-100578482D02*
G01*
X126531952Y-100663515D01*
X126673357Y-100722087D01*
X126823472Y-100751946D01*
X126976528Y-100751946D01*
X127098371Y-100727710D01*
X127096176Y-100750000D01*
X127096176Y-101200000D01*
X127107778Y-101317800D01*
X127142139Y-101431073D01*
X127197939Y-101535467D01*
X127273032Y-101626968D01*
X127364533Y-101702061D01*
X127454220Y-101750000D01*
X127364533Y-101797939D01*
X127273032Y-101873032D01*
X127197939Y-101964533D01*
X127142139Y-102068927D01*
X127132165Y-102101806D01*
X127075000Y-102096176D01*
X126525000Y-102096176D01*
X126412077Y-102107298D01*
X126303494Y-102140236D01*
X126203423Y-102193725D01*
X126115710Y-102265710D01*
X126043725Y-102353423D01*
X125990236Y-102453494D01*
X125984872Y-102471176D01*
X125425000Y-102471176D01*
X125351095Y-102478455D01*
X125280030Y-102500012D01*
X125214537Y-102535019D01*
X125157131Y-102582131D01*
X125110019Y-102639537D01*
X125075012Y-102705030D01*
X125053455Y-102776095D01*
X125046176Y-102850000D01*
X125046176Y-103250000D01*
X125053455Y-103323905D01*
X125068954Y-103375000D01*
X125053455Y-103426095D01*
X125046176Y-103500000D01*
X125046176Y-103900000D01*
X125053455Y-103973905D01*
X125068954Y-104025000D01*
X125053455Y-104076095D01*
X125046176Y-104150000D01*
X125046176Y-104550000D01*
X125053455Y-104623905D01*
X125075012Y-104694970D01*
X125110019Y-104760463D01*
X125157131Y-104817869D01*
X125214537Y-104864981D01*
X125280030Y-104899988D01*
X125351095Y-104921545D01*
X125425000Y-104928824D01*
X125984872Y-104928824D01*
X125990236Y-104946506D01*
X126016785Y-104996176D01*
X125475000Y-104996176D01*
X125352323Y-105008259D01*
X125234359Y-105044042D01*
X125125644Y-105102152D01*
X125111709Y-105113588D01*
X125106275Y-105103423D01*
X125034290Y-105015710D01*
X124946577Y-104943725D01*
X124846506Y-104890236D01*
X124737923Y-104857298D01*
X124625000Y-104846176D01*
X124408377Y-104846176D01*
X124442869Y-104817869D01*
X124489981Y-104760463D01*
X124524988Y-104694970D01*
X124546545Y-104623905D01*
X124553824Y-104550000D01*
X124553824Y-104185510D01*
X124618036Y-104166031D01*
X124705245Y-104119417D01*
X124781684Y-104056684D01*
X124797402Y-104037532D01*
X124837533Y-103997401D01*
X124856685Y-103981683D01*
X124919418Y-103905244D01*
X124966032Y-103818035D01*
X124994737Y-103723408D01*
X125002001Y-103649652D01*
X125002001Y-103649643D01*
X125004428Y-103625000D01*
X125002001Y-103600357D01*
X125002001Y-102732933D01*
X125481111Y-102253824D01*
X125825000Y-102253824D01*
X125937923Y-102242702D01*
X126046506Y-102209764D01*
X126146577Y-102156275D01*
X126234290Y-102084290D01*
X126306275Y-101996577D01*
X126359764Y-101896506D01*
X126392702Y-101787923D01*
X126403824Y-101675000D01*
X126403824Y-101125000D01*
X126392702Y-101012077D01*
X126359764Y-100903494D01*
X126306275Y-100803423D01*
X126234290Y-100715710D01*
X126146577Y-100643725D01*
X126046506Y-100590236D01*
X125937923Y-100557298D01*
X125825000Y-100546176D01*
X125425000Y-100546176D01*
X125312077Y-100557298D01*
X125203494Y-100590236D01*
X125103423Y-100643725D01*
X125015710Y-100715710D01*
X124986049Y-100751851D01*
X124964502Y-100680820D01*
X124905537Y-100570506D01*
X124828755Y-100476946D01*
X126303155Y-100476946D01*
X126404691Y-100578482D01*
G37*
%TD.AperFunction*%
D32*
X123903423Y-104943725D02*
X123815710Y-105015710D01*
X123751979Y-105093366D01*
X123751979Y-105032955D01*
X123856111Y-104928824D01*
X123931301Y-104928824D01*
X123903423Y-104943725D01*
%TA.AperFunction,Conductor*%
D33*
G36*
X123903423Y-104943725D02*
G01*
X123815710Y-105015710D01*
X123751979Y-105093366D01*
X123751979Y-105032955D01*
X123856111Y-104928824D01*
X123931301Y-104928824D01*
X123903423Y-104943725D01*
G37*
%TD.AperFunction*%
D32*
X123098750Y-101273000D02*
X123848000Y-101273000D01*
X123848000Y-101253000D01*
X124102000Y-101253000D01*
X124102000Y-101273000D01*
X124122000Y-101273000D01*
X124122000Y-101527000D01*
X124102000Y-101527000D01*
X124102000Y-102218659D01*
X124080584Y-102244754D01*
X124051405Y-102299345D01*
X123977000Y-102373750D01*
X123977000Y-102977000D01*
X123997000Y-102977000D01*
X123997000Y-103121176D01*
X123703000Y-103121176D01*
X123703000Y-102977000D01*
X123723000Y-102977000D01*
X123723000Y-102476250D01*
X123848000Y-102351250D01*
X123848000Y-101527000D01*
X123098750Y-101527000D01*
X122940000Y-101685750D01*
X122936928Y-101875000D01*
X122949188Y-101999482D01*
X122985498Y-102119180D01*
X123044463Y-102229494D01*
X123123815Y-102326185D01*
X123143441Y-102342291D01*
X123085097Y-102387808D01*
X123003381Y-102482510D01*
X122941710Y-102591334D01*
X122902454Y-102710098D01*
X122890000Y-102818250D01*
X122994748Y-102922998D01*
X122890000Y-102922998D01*
X122890000Y-102929658D01*
X122773357Y-102952859D01*
X122677013Y-102992766D01*
X122677013Y-101509101D01*
X122815422Y-101451770D01*
X122942683Y-101366737D01*
X123050910Y-101258510D01*
X123064268Y-101238518D01*
X123098750Y-101273000D01*
%TA.AperFunction,Conductor*%
D33*
G36*
X123098750Y-101273000D02*
G01*
X123848000Y-101273000D01*
X123848000Y-101253000D01*
X124102000Y-101253000D01*
X124102000Y-101273000D01*
X124122000Y-101273000D01*
X124122000Y-101527000D01*
X124102000Y-101527000D01*
X124102000Y-102218659D01*
X124080584Y-102244754D01*
X124051405Y-102299345D01*
X123977000Y-102373750D01*
X123977000Y-102977000D01*
X123997000Y-102977000D01*
X123997000Y-103121176D01*
X123703000Y-103121176D01*
X123703000Y-102977000D01*
X123723000Y-102977000D01*
X123723000Y-102476250D01*
X123848000Y-102351250D01*
X123848000Y-101527000D01*
X123098750Y-101527000D01*
X122940000Y-101685750D01*
X122936928Y-101875000D01*
X122949188Y-101999482D01*
X122985498Y-102119180D01*
X123044463Y-102229494D01*
X123123815Y-102326185D01*
X123143441Y-102342291D01*
X123085097Y-102387808D01*
X123003381Y-102482510D01*
X122941710Y-102591334D01*
X122902454Y-102710098D01*
X122890000Y-102818250D01*
X122994748Y-102922998D01*
X122890000Y-102922998D01*
X122890000Y-102929658D01*
X122773357Y-102952859D01*
X122677013Y-102992766D01*
X122677013Y-101509101D01*
X122815422Y-101451770D01*
X122942683Y-101366737D01*
X123050910Y-101258510D01*
X123064268Y-101238518D01*
X123098750Y-101273000D01*
G37*
%TD.AperFunction*%
D32*
X123417016Y-100309351D02*
X123330820Y-100335498D01*
X123220506Y-100394463D01*
X123157183Y-100446431D01*
X123135943Y-100395153D01*
X123050910Y-100267892D01*
X122942683Y-100159665D01*
X122815422Y-100074632D01*
X122674017Y-100016060D01*
X122523902Y-99986201D01*
X122370846Y-99986201D01*
X122220731Y-100016060D01*
X122079326Y-100074632D01*
X121952065Y-100159665D01*
X121860832Y-100250898D01*
X121702000Y-100092066D01*
X121702000Y-99477010D01*
X122584676Y-99477010D01*
X123417016Y-100309351D01*
%TA.AperFunction,Conductor*%
D33*
G36*
X123417016Y-100309351D02*
G01*
X123330820Y-100335498D01*
X123220506Y-100394463D01*
X123157183Y-100446431D01*
X123135943Y-100395153D01*
X123050910Y-100267892D01*
X122942683Y-100159665D01*
X122815422Y-100074632D01*
X122674017Y-100016060D01*
X122523902Y-99986201D01*
X122370846Y-99986201D01*
X122220731Y-100016060D01*
X122079326Y-100074632D01*
X121952065Y-100159665D01*
X121860832Y-100250898D01*
X121702000Y-100092066D01*
X121702000Y-99477010D01*
X122584676Y-99477010D01*
X123417016Y-100309351D01*
G37*
%TD.AperFunction*%
%TD*%
M02*
