M48
; DRILL file {KiCad (5.1.9-0-10_14)} date Thursday, May 27, 2021 at 02:30:25 PM
; FORMAT={-:-/ absolute / inch / decimal}
; #@! TF.CreationDate,2021-05-27T14:30:25+01:00
; #@! TF.GenerationSoftware,Kicad,Pcbnew,(5.1.9-0-10_14)
; #@! TF.FileFunction,Plated,1,2,PTH
FMAT,2
INCH
T1C0.0098
T2C0.0157
T3C0.0236
T4C0.0394
T5C0.0472
T6C0.0591
%
G90
G05
T1
X4.9341Y-4.5128
T2
X4.6615Y-4.5403
X4.7383Y-4.5415
X4.7491Y-4.4667
X4.7589Y-4.959
X4.7781Y-4.3728
X4.7958Y-4.7056
X4.7979Y-4.4068
X4.8019Y-4.4639
X4.8052Y-4.3442
X4.812Y-4.5593
X4.8121Y-4.2791
X4.8137Y-4.2385
X4.815Y-4.124
X4.8481Y-4.2137
X4.8729Y-4.2715
X4.8878Y-4.2144
X4.9685Y-4.3869
X4.9755Y-4.0884
X5.0089Y-4.4014
X5.0113Y-3.9321
X5.0236Y-4.1614
X5.0598Y-4.508
X5.0634Y-4.0906
X5.1098Y-3.9741
X5.1142Y-4.0315
X5.1536Y-4.0302
X5.1881Y-4.5604
X5.2047Y-4.4764
X5.2283Y-3.9252
X5.2598Y-4.687
X5.3189Y-4.7441
T3
X5.1421Y-4.1697
X5.1421Y-4.3972
T4
X4.738Y-4.7441
X4.838Y-4.7441
X4.938Y-4.7441
X5.038Y-4.7441
X5.138Y-4.7441
X5.238Y-4.7441
X5.2756Y-4.8528
X5.2756Y-4.9528
T5
X5.2878Y-4.1132
X5.2878Y-4.4537
T6
X5.1232Y-4.1132
X5.1232Y-4.4537
T0
M30
