%TF.GenerationSoftware,KiCad,Pcbnew,(5.1.9-0-10_14)*%
%TF.CreationDate,2021-05-27T14:25:20+01:00*%
%TF.ProjectId,Battery,42617474-6572-4792-9e6b-696361645f70,4*%
%TF.SameCoordinates,Original*%
%TF.FileFunction,Paste,Top*%
%TF.FilePolarity,Positive*%
%FSLAX46Y46*%
G04 Gerber Fmt 4.6, Leading zero omitted, Abs format (unit mm)*
G04 Created by KiCad (PCBNEW (5.1.9-0-10_14)) date 2021-05-27 14:25:20*
%MOMM*%
%LPD*%
G01*
G04 APERTURE LIST*
%ADD10R,0.400000X0.650000*%
%ADD11R,0.600000X1.100000*%
%ADD12R,0.400000X0.800000*%
%ADD13C,0.500000*%
%ADD14R,1.140000X0.600000*%
%ADD15R,1.140000X0.300000*%
G04 APERTURE END LIST*
D10*
%TO.C,U3*%
X133050000Y-102950000D03*
X131750000Y-102950000D03*
X132400000Y-101050000D03*
X132400000Y-102950000D03*
X131750000Y-101050000D03*
X133050000Y-101050000D03*
%TD*%
%TO.C,C2*%
G36*
G01*
X123775000Y-110100000D02*
X123775000Y-110600000D01*
G75*
G02*
X123550000Y-110825000I-225000J0D01*
G01*
X123100000Y-110825000D01*
G75*
G02*
X122875000Y-110600000I0J225000D01*
G01*
X122875000Y-110100000D01*
G75*
G02*
X123100000Y-109875000I225000J0D01*
G01*
X123550000Y-109875000D01*
G75*
G02*
X123775000Y-110100000I0J-225000D01*
G01*
G37*
G36*
G01*
X125325000Y-110100000D02*
X125325000Y-110600000D01*
G75*
G02*
X125100000Y-110825000I-225000J0D01*
G01*
X124650000Y-110825000D01*
G75*
G02*
X124425000Y-110600000I0J225000D01*
G01*
X124425000Y-110100000D01*
G75*
G02*
X124650000Y-109875000I225000J0D01*
G01*
X125100000Y-109875000D01*
G75*
G02*
X125325000Y-110100000I0J-225000D01*
G01*
G37*
%TD*%
%TO.C,Reg1*%
G36*
G01*
X124850000Y-103100000D02*
X124850000Y-102600000D01*
G75*
G02*
X125100000Y-102350000I250000J0D01*
G01*
X125800000Y-102350000D01*
G75*
G02*
X126050000Y-102600000I0J-250000D01*
G01*
X126050000Y-103100000D01*
G75*
G02*
X125800000Y-103350000I-250000J0D01*
G01*
X125100000Y-103350000D01*
G75*
G02*
X124850000Y-103100000I0J250000D01*
G01*
G37*
G36*
G01*
X124850000Y-101950000D02*
X124850000Y-101450000D01*
G75*
G02*
X125100000Y-101200000I250000J0D01*
G01*
X125800000Y-101200000D01*
G75*
G02*
X126050000Y-101450000I0J-250000D01*
G01*
X126050000Y-101950000D01*
G75*
G02*
X125800000Y-102200000I-250000J0D01*
G01*
X125100000Y-102200000D01*
G75*
G02*
X124850000Y-101950000I0J250000D01*
G01*
G37*
G36*
G01*
X124850000Y-100800000D02*
X124850000Y-100300000D01*
G75*
G02*
X125100000Y-100050000I250000J0D01*
G01*
X125800000Y-100050000D01*
G75*
G02*
X126050000Y-100300000I0J-250000D01*
G01*
X126050000Y-100800000D01*
G75*
G02*
X125800000Y-101050000I-250000J0D01*
G01*
X125100000Y-101050000D01*
G75*
G02*
X124850000Y-100800000I0J250000D01*
G01*
G37*
G36*
G01*
X121850000Y-101950000D02*
X121850000Y-101450000D01*
G75*
G02*
X122100000Y-101200000I250000J0D01*
G01*
X122800000Y-101200000D01*
G75*
G02*
X123050000Y-101450000I0J-250000D01*
G01*
X123050000Y-101950000D01*
G75*
G02*
X122800000Y-102200000I-250000J0D01*
G01*
X122100000Y-102200000D01*
G75*
G02*
X121850000Y-101950000I0J250000D01*
G01*
G37*
G36*
G01*
X121850000Y-103100000D02*
X121850000Y-102600000D01*
G75*
G02*
X122100000Y-102350000I250000J0D01*
G01*
X122800000Y-102350000D01*
G75*
G02*
X123050000Y-102600000I0J-250000D01*
G01*
X123050000Y-103100000D01*
G75*
G02*
X122800000Y-103350000I-250000J0D01*
G01*
X122100000Y-103350000D01*
G75*
G02*
X121850000Y-103100000I0J250000D01*
G01*
G37*
G36*
G01*
X121850000Y-100800000D02*
X121850000Y-100300000D01*
G75*
G02*
X122100000Y-100050000I250000J0D01*
G01*
X122800000Y-100050000D01*
G75*
G02*
X123050000Y-100300000I0J-250000D01*
G01*
X123050000Y-100800000D01*
G75*
G02*
X122800000Y-101050000I-250000J0D01*
G01*
X122100000Y-101050000D01*
G75*
G02*
X121850000Y-100800000I0J250000D01*
G01*
G37*
D11*
X121000000Y-100300000D03*
X119100000Y-100300000D03*
X120050000Y-100300000D03*
X119100000Y-103000000D03*
X120050000Y-103000000D03*
X121000000Y-103000000D03*
G36*
G01*
X124975000Y-103750000D02*
X125925000Y-103750000D01*
G75*
G02*
X126175000Y-104000000I0J-250000D01*
G01*
X126175000Y-104500000D01*
G75*
G02*
X125925000Y-104750000I-250000J0D01*
G01*
X124975000Y-104750000D01*
G75*
G02*
X124725000Y-104500000I0J250000D01*
G01*
X124725000Y-104000000D01*
G75*
G02*
X124975000Y-103750000I250000J0D01*
G01*
G37*
G36*
G01*
X124975000Y-105650000D02*
X125925000Y-105650000D01*
G75*
G02*
X126175000Y-105900000I0J-250000D01*
G01*
X126175000Y-106400000D01*
G75*
G02*
X125925000Y-106650000I-250000J0D01*
G01*
X124975000Y-106650000D01*
G75*
G02*
X124725000Y-106400000I0J250000D01*
G01*
X124725000Y-105900000D01*
G75*
G02*
X124975000Y-105650000I250000J0D01*
G01*
G37*
G36*
G01*
X118725000Y-105650000D02*
X119675000Y-105650000D01*
G75*
G02*
X119925000Y-105900000I0J-250000D01*
G01*
X119925000Y-106400000D01*
G75*
G02*
X119675000Y-106650000I-250000J0D01*
G01*
X118725000Y-106650000D01*
G75*
G02*
X118475000Y-106400000I0J250000D01*
G01*
X118475000Y-105900000D01*
G75*
G02*
X118725000Y-105650000I250000J0D01*
G01*
G37*
G36*
G01*
X118725000Y-103750000D02*
X119675000Y-103750000D01*
G75*
G02*
X119925000Y-104000000I0J-250000D01*
G01*
X119925000Y-104500000D01*
G75*
G02*
X119675000Y-104750000I-250000J0D01*
G01*
X118725000Y-104750000D01*
G75*
G02*
X118475000Y-104500000I0J250000D01*
G01*
X118475000Y-104000000D01*
G75*
G02*
X118725000Y-103750000I250000J0D01*
G01*
G37*
G36*
G01*
X118200000Y-101325000D02*
X117700000Y-101325000D01*
G75*
G02*
X117475000Y-101100000I0J225000D01*
G01*
X117475000Y-100650000D01*
G75*
G02*
X117700000Y-100425000I225000J0D01*
G01*
X118200000Y-100425000D01*
G75*
G02*
X118425000Y-100650000I0J-225000D01*
G01*
X118425000Y-101100000D01*
G75*
G02*
X118200000Y-101325000I-225000J0D01*
G01*
G37*
G36*
G01*
X118200000Y-102875000D02*
X117700000Y-102875000D01*
G75*
G02*
X117475000Y-102650000I0J225000D01*
G01*
X117475000Y-102200000D01*
G75*
G02*
X117700000Y-101975000I225000J0D01*
G01*
X118200000Y-101975000D01*
G75*
G02*
X118425000Y-102200000I0J-225000D01*
G01*
X118425000Y-102650000D01*
G75*
G02*
X118200000Y-102875000I-225000J0D01*
G01*
G37*
G36*
G01*
X120125000Y-105445627D02*
X120125000Y-104194373D01*
G75*
G02*
X120374373Y-103945000I249373J0D01*
G01*
X121300627Y-103945000D01*
G75*
G02*
X121550000Y-104194373I0J-249373D01*
G01*
X121550000Y-105445627D01*
G75*
G02*
X121300627Y-105695000I-249373J0D01*
G01*
X120374373Y-105695000D01*
G75*
G02*
X120125000Y-105445627I0J249373D01*
G01*
G37*
G36*
G01*
X123100000Y-105445627D02*
X123100000Y-104194373D01*
G75*
G02*
X123349373Y-103945000I249373J0D01*
G01*
X124275627Y-103945000D01*
G75*
G02*
X124525000Y-104194373I0J-249373D01*
G01*
X124525000Y-105445627D01*
G75*
G02*
X124275627Y-105695000I-249373J0D01*
G01*
X123349373Y-105695000D01*
G75*
G02*
X123100000Y-105445627I0J249373D01*
G01*
G37*
%TD*%
%TO.C,R14*%
G36*
G01*
X135575000Y-101475000D02*
X135025000Y-101475000D01*
G75*
G02*
X134825000Y-101275000I0J200000D01*
G01*
X134825000Y-100875000D01*
G75*
G02*
X135025000Y-100675000I200000J0D01*
G01*
X135575000Y-100675000D01*
G75*
G02*
X135775000Y-100875000I0J-200000D01*
G01*
X135775000Y-101275000D01*
G75*
G02*
X135575000Y-101475000I-200000J0D01*
G01*
G37*
G36*
G01*
X135575000Y-103125000D02*
X135025000Y-103125000D01*
G75*
G02*
X134825000Y-102925000I0J200000D01*
G01*
X134825000Y-102525000D01*
G75*
G02*
X135025000Y-102325000I200000J0D01*
G01*
X135575000Y-102325000D01*
G75*
G02*
X135775000Y-102525000I0J-200000D01*
G01*
X135775000Y-102925000D01*
G75*
G02*
X135575000Y-103125000I-200000J0D01*
G01*
G37*
%TD*%
%TO.C,R10*%
G36*
G01*
X120825000Y-107975000D02*
X120825000Y-107425000D01*
G75*
G02*
X121025000Y-107225000I200000J0D01*
G01*
X121425000Y-107225000D01*
G75*
G02*
X121625000Y-107425000I0J-200000D01*
G01*
X121625000Y-107975000D01*
G75*
G02*
X121425000Y-108175000I-200000J0D01*
G01*
X121025000Y-108175000D01*
G75*
G02*
X120825000Y-107975000I0J200000D01*
G01*
G37*
G36*
G01*
X119175000Y-107975000D02*
X119175000Y-107425000D01*
G75*
G02*
X119375000Y-107225000I200000J0D01*
G01*
X119775000Y-107225000D01*
G75*
G02*
X119975000Y-107425000I0J-200000D01*
G01*
X119975000Y-107975000D01*
G75*
G02*
X119775000Y-108175000I-200000J0D01*
G01*
X119375000Y-108175000D01*
G75*
G02*
X119175000Y-107975000I0J200000D01*
G01*
G37*
%TD*%
%TO.C,D2*%
G36*
G01*
X130925000Y-114775000D02*
X130925000Y-116025000D01*
G75*
G02*
X130675000Y-116275000I-250000J0D01*
G01*
X129925000Y-116275000D01*
G75*
G02*
X129675000Y-116025000I0J250000D01*
G01*
X129675000Y-114775000D01*
G75*
G02*
X129925000Y-114525000I250000J0D01*
G01*
X130675000Y-114525000D01*
G75*
G02*
X130925000Y-114775000I0J-250000D01*
G01*
G37*
G36*
G01*
X133725000Y-114775000D02*
X133725000Y-116025000D01*
G75*
G02*
X133475000Y-116275000I-250000J0D01*
G01*
X132725000Y-116275000D01*
G75*
G02*
X132475000Y-116025000I0J250000D01*
G01*
X132475000Y-114775000D01*
G75*
G02*
X132725000Y-114525000I250000J0D01*
G01*
X133475000Y-114525000D01*
G75*
G02*
X133725000Y-114775000I0J-250000D01*
G01*
G37*
%TD*%
D12*
%TO.C,Q1*%
X119050000Y-110350000D03*
X120350000Y-110350000D03*
X120350000Y-112250000D03*
X119700000Y-112250000D03*
X119050000Y-112250000D03*
%TD*%
%TO.C,D1*%
G36*
G01*
X134350000Y-99043750D02*
X134350000Y-99556250D01*
G75*
G02*
X134131250Y-99775000I-218750J0D01*
G01*
X133693750Y-99775000D01*
G75*
G02*
X133475000Y-99556250I0J218750D01*
G01*
X133475000Y-99043750D01*
G75*
G02*
X133693750Y-98825000I218750J0D01*
G01*
X134131250Y-98825000D01*
G75*
G02*
X134350000Y-99043750I0J-218750D01*
G01*
G37*
G36*
G01*
X135925000Y-99043750D02*
X135925000Y-99556250D01*
G75*
G02*
X135706250Y-99775000I-218750J0D01*
G01*
X135268750Y-99775000D01*
G75*
G02*
X135050000Y-99556250I0J218750D01*
G01*
X135050000Y-99043750D01*
G75*
G02*
X135268750Y-98825000I218750J0D01*
G01*
X135706250Y-98825000D01*
G75*
G02*
X135925000Y-99043750I0J-218750D01*
G01*
G37*
%TD*%
%TO.C,R13*%
G36*
G01*
X127775000Y-101475000D02*
X127225000Y-101475000D01*
G75*
G02*
X127025000Y-101275000I0J200000D01*
G01*
X127025000Y-100875000D01*
G75*
G02*
X127225000Y-100675000I200000J0D01*
G01*
X127775000Y-100675000D01*
G75*
G02*
X127975000Y-100875000I0J-200000D01*
G01*
X127975000Y-101275000D01*
G75*
G02*
X127775000Y-101475000I-200000J0D01*
G01*
G37*
G36*
G01*
X127775000Y-103125000D02*
X127225000Y-103125000D01*
G75*
G02*
X127025000Y-102925000I0J200000D01*
G01*
X127025000Y-102525000D01*
G75*
G02*
X127225000Y-102325000I200000J0D01*
G01*
X127775000Y-102325000D01*
G75*
G02*
X127975000Y-102525000I0J-200000D01*
G01*
X127975000Y-102925000D01*
G75*
G02*
X127775000Y-103125000I-200000J0D01*
G01*
G37*
%TD*%
%TO.C,R12*%
G36*
G01*
X128425000Y-102325000D02*
X128975000Y-102325000D01*
G75*
G02*
X129175000Y-102525000I0J-200000D01*
G01*
X129175000Y-102925000D01*
G75*
G02*
X128975000Y-103125000I-200000J0D01*
G01*
X128425000Y-103125000D01*
G75*
G02*
X128225000Y-102925000I0J200000D01*
G01*
X128225000Y-102525000D01*
G75*
G02*
X128425000Y-102325000I200000J0D01*
G01*
G37*
G36*
G01*
X128425000Y-100675000D02*
X128975000Y-100675000D01*
G75*
G02*
X129175000Y-100875000I0J-200000D01*
G01*
X129175000Y-101275000D01*
G75*
G02*
X128975000Y-101475000I-200000J0D01*
G01*
X128425000Y-101475000D01*
G75*
G02*
X128225000Y-101275000I0J200000D01*
G01*
X128225000Y-100875000D01*
G75*
G02*
X128425000Y-100675000I200000J0D01*
G01*
G37*
%TD*%
%TO.C,R11*%
G36*
G01*
X129325000Y-99675000D02*
X129325000Y-99125000D01*
G75*
G02*
X129525000Y-98925000I200000J0D01*
G01*
X129925000Y-98925000D01*
G75*
G02*
X130125000Y-99125000I0J-200000D01*
G01*
X130125000Y-99675000D01*
G75*
G02*
X129925000Y-99875000I-200000J0D01*
G01*
X129525000Y-99875000D01*
G75*
G02*
X129325000Y-99675000I0J200000D01*
G01*
G37*
G36*
G01*
X127675000Y-99675000D02*
X127675000Y-99125000D01*
G75*
G02*
X127875000Y-98925000I200000J0D01*
G01*
X128275000Y-98925000D01*
G75*
G02*
X128475000Y-99125000I0J-200000D01*
G01*
X128475000Y-99675000D01*
G75*
G02*
X128275000Y-99875000I-200000J0D01*
G01*
X127875000Y-99875000D01*
G75*
G02*
X127675000Y-99675000I0J200000D01*
G01*
G37*
%TD*%
%TO.C,R9*%
G36*
G01*
X120825000Y-109175000D02*
X120825000Y-108625000D01*
G75*
G02*
X121025000Y-108425000I200000J0D01*
G01*
X121425000Y-108425000D01*
G75*
G02*
X121625000Y-108625000I0J-200000D01*
G01*
X121625000Y-109175000D01*
G75*
G02*
X121425000Y-109375000I-200000J0D01*
G01*
X121025000Y-109375000D01*
G75*
G02*
X120825000Y-109175000I0J200000D01*
G01*
G37*
G36*
G01*
X119175000Y-109175000D02*
X119175000Y-108625000D01*
G75*
G02*
X119375000Y-108425000I200000J0D01*
G01*
X119775000Y-108425000D01*
G75*
G02*
X119975000Y-108625000I0J-200000D01*
G01*
X119975000Y-109175000D01*
G75*
G02*
X119775000Y-109375000I-200000J0D01*
G01*
X119375000Y-109375000D01*
G75*
G02*
X119175000Y-109175000I0J200000D01*
G01*
G37*
%TD*%
%TO.C,R8*%
G36*
G01*
X127925000Y-107075000D02*
X127925000Y-106525000D01*
G75*
G02*
X128125000Y-106325000I200000J0D01*
G01*
X128525000Y-106325000D01*
G75*
G02*
X128725000Y-106525000I0J-200000D01*
G01*
X128725000Y-107075000D01*
G75*
G02*
X128525000Y-107275000I-200000J0D01*
G01*
X128125000Y-107275000D01*
G75*
G02*
X127925000Y-107075000I0J200000D01*
G01*
G37*
G36*
G01*
X126275000Y-107075000D02*
X126275000Y-106525000D01*
G75*
G02*
X126475000Y-106325000I200000J0D01*
G01*
X126875000Y-106325000D01*
G75*
G02*
X127075000Y-106525000I0J-200000D01*
G01*
X127075000Y-107075000D01*
G75*
G02*
X126875000Y-107275000I-200000J0D01*
G01*
X126475000Y-107275000D01*
G75*
G02*
X126275000Y-107075000I0J200000D01*
G01*
G37*
%TD*%
%TO.C,R7*%
G36*
G01*
X127075000Y-110075000D02*
X127075000Y-110625000D01*
G75*
G02*
X126875000Y-110825000I-200000J0D01*
G01*
X126475000Y-110825000D01*
G75*
G02*
X126275000Y-110625000I0J200000D01*
G01*
X126275000Y-110075000D01*
G75*
G02*
X126475000Y-109875000I200000J0D01*
G01*
X126875000Y-109875000D01*
G75*
G02*
X127075000Y-110075000I0J-200000D01*
G01*
G37*
G36*
G01*
X128725000Y-110075000D02*
X128725000Y-110625000D01*
G75*
G02*
X128525000Y-110825000I-200000J0D01*
G01*
X128125000Y-110825000D01*
G75*
G02*
X127925000Y-110625000I0J200000D01*
G01*
X127925000Y-110075000D01*
G75*
G02*
X128125000Y-109875000I200000J0D01*
G01*
X128525000Y-109875000D01*
G75*
G02*
X128725000Y-110075000I0J-200000D01*
G01*
G37*
%TD*%
D13*
%TO.C,U2*%
X123325000Y-116625000D03*
G36*
G01*
X126014000Y-114500000D02*
X125636000Y-114500000D01*
G75*
G02*
X125450000Y-114314000I0J186000D01*
G01*
X125450000Y-113936000D01*
G75*
G02*
X125636000Y-113750000I186000J0D01*
G01*
X126014000Y-113750000D01*
G75*
G02*
X126200000Y-113936000I0J-186000D01*
G01*
X126200000Y-114314000D01*
G75*
G02*
X126014000Y-114500000I-186000J0D01*
G01*
G37*
G36*
G01*
X125014000Y-114500000D02*
X124636000Y-114500000D01*
G75*
G02*
X124450000Y-114314000I0J186000D01*
G01*
X124450000Y-113936000D01*
G75*
G02*
X124636000Y-113750000I186000J0D01*
G01*
X125014000Y-113750000D01*
G75*
G02*
X125200000Y-113936000I0J-186000D01*
G01*
X125200000Y-114314000D01*
G75*
G02*
X125014000Y-114500000I-186000J0D01*
G01*
G37*
G36*
G01*
X126014000Y-115500000D02*
X125636000Y-115500000D01*
G75*
G02*
X125450000Y-115314000I0J186000D01*
G01*
X125450000Y-114936000D01*
G75*
G02*
X125636000Y-114750000I186000J0D01*
G01*
X126014000Y-114750000D01*
G75*
G02*
X126200000Y-114936000I0J-186000D01*
G01*
X126200000Y-115314000D01*
G75*
G02*
X126014000Y-115500000I-186000J0D01*
G01*
G37*
G36*
G01*
X125014000Y-115500000D02*
X124636000Y-115500000D01*
G75*
G02*
X124450000Y-115314000I0J186000D01*
G01*
X124450000Y-114936000D01*
G75*
G02*
X124636000Y-114750000I186000J0D01*
G01*
X125014000Y-114750000D01*
G75*
G02*
X125200000Y-114936000I0J-186000D01*
G01*
X125200000Y-115314000D01*
G75*
G02*
X125014000Y-115500000I-186000J0D01*
G01*
G37*
G36*
G01*
X123762500Y-115750000D02*
X122887500Y-115750000D01*
G75*
G02*
X122825000Y-115687500I0J62500D01*
G01*
X122825000Y-115562500D01*
G75*
G02*
X122887500Y-115500000I62500J0D01*
G01*
X123762500Y-115500000D01*
G75*
G02*
X123825000Y-115562500I0J-62500D01*
G01*
X123825000Y-115687500D01*
G75*
G02*
X123762500Y-115750000I-62500J0D01*
G01*
G37*
G36*
G01*
X123762500Y-115250000D02*
X122887500Y-115250000D01*
G75*
G02*
X122825000Y-115187500I0J62500D01*
G01*
X122825000Y-115062500D01*
G75*
G02*
X122887500Y-115000000I62500J0D01*
G01*
X123762500Y-115000000D01*
G75*
G02*
X123825000Y-115062500I0J-62500D01*
G01*
X123825000Y-115187500D01*
G75*
G02*
X123762500Y-115250000I-62500J0D01*
G01*
G37*
G36*
G01*
X123762500Y-114750000D02*
X122887500Y-114750000D01*
G75*
G02*
X122825000Y-114687500I0J62500D01*
G01*
X122825000Y-114562500D01*
G75*
G02*
X122887500Y-114500000I62500J0D01*
G01*
X123762500Y-114500000D01*
G75*
G02*
X123825000Y-114562500I0J-62500D01*
G01*
X123825000Y-114687500D01*
G75*
G02*
X123762500Y-114750000I-62500J0D01*
G01*
G37*
G36*
G01*
X123762500Y-114250000D02*
X122887500Y-114250000D01*
G75*
G02*
X122825000Y-114187500I0J62500D01*
G01*
X122825000Y-114062500D01*
G75*
G02*
X122887500Y-114000000I62500J0D01*
G01*
X123762500Y-114000000D01*
G75*
G02*
X123825000Y-114062500I0J-62500D01*
G01*
X123825000Y-114187500D01*
G75*
G02*
X123762500Y-114250000I-62500J0D01*
G01*
G37*
G36*
G01*
X123762500Y-113750000D02*
X122887500Y-113750000D01*
G75*
G02*
X122825000Y-113687500I0J62500D01*
G01*
X122825000Y-113562500D01*
G75*
G02*
X122887500Y-113500000I62500J0D01*
G01*
X123762500Y-113500000D01*
G75*
G02*
X123825000Y-113562500I0J-62500D01*
G01*
X123825000Y-113687500D01*
G75*
G02*
X123762500Y-113750000I-62500J0D01*
G01*
G37*
G36*
G01*
X124387500Y-113125000D02*
X124262500Y-113125000D01*
G75*
G02*
X124200000Y-113062500I0J62500D01*
G01*
X124200000Y-112187500D01*
G75*
G02*
X124262500Y-112125000I62500J0D01*
G01*
X124387500Y-112125000D01*
G75*
G02*
X124450000Y-112187500I0J-62500D01*
G01*
X124450000Y-113062500D01*
G75*
G02*
X124387500Y-113125000I-62500J0D01*
G01*
G37*
G36*
G01*
X124887500Y-113125000D02*
X124762500Y-113125000D01*
G75*
G02*
X124700000Y-113062500I0J62500D01*
G01*
X124700000Y-112187500D01*
G75*
G02*
X124762500Y-112125000I62500J0D01*
G01*
X124887500Y-112125000D01*
G75*
G02*
X124950000Y-112187500I0J-62500D01*
G01*
X124950000Y-113062500D01*
G75*
G02*
X124887500Y-113125000I-62500J0D01*
G01*
G37*
G36*
G01*
X125387500Y-113125000D02*
X125262500Y-113125000D01*
G75*
G02*
X125200000Y-113062500I0J62500D01*
G01*
X125200000Y-112187500D01*
G75*
G02*
X125262500Y-112125000I62500J0D01*
G01*
X125387500Y-112125000D01*
G75*
G02*
X125450000Y-112187500I0J-62500D01*
G01*
X125450000Y-113062500D01*
G75*
G02*
X125387500Y-113125000I-62500J0D01*
G01*
G37*
G36*
G01*
X125887500Y-113125000D02*
X125762500Y-113125000D01*
G75*
G02*
X125700000Y-113062500I0J62500D01*
G01*
X125700000Y-112187500D01*
G75*
G02*
X125762500Y-112125000I62500J0D01*
G01*
X125887500Y-112125000D01*
G75*
G02*
X125950000Y-112187500I0J-62500D01*
G01*
X125950000Y-113062500D01*
G75*
G02*
X125887500Y-113125000I-62500J0D01*
G01*
G37*
G36*
G01*
X126387500Y-113125000D02*
X126262500Y-113125000D01*
G75*
G02*
X126200000Y-113062500I0J62500D01*
G01*
X126200000Y-112187500D01*
G75*
G02*
X126262500Y-112125000I62500J0D01*
G01*
X126387500Y-112125000D01*
G75*
G02*
X126450000Y-112187500I0J-62500D01*
G01*
X126450000Y-113062500D01*
G75*
G02*
X126387500Y-113125000I-62500J0D01*
G01*
G37*
G36*
G01*
X127762500Y-113750000D02*
X126887500Y-113750000D01*
G75*
G02*
X126825000Y-113687500I0J62500D01*
G01*
X126825000Y-113562500D01*
G75*
G02*
X126887500Y-113500000I62500J0D01*
G01*
X127762500Y-113500000D01*
G75*
G02*
X127825000Y-113562500I0J-62500D01*
G01*
X127825000Y-113687500D01*
G75*
G02*
X127762500Y-113750000I-62500J0D01*
G01*
G37*
G36*
G01*
X127762500Y-114250000D02*
X126887500Y-114250000D01*
G75*
G02*
X126825000Y-114187500I0J62500D01*
G01*
X126825000Y-114062500D01*
G75*
G02*
X126887500Y-114000000I62500J0D01*
G01*
X127762500Y-114000000D01*
G75*
G02*
X127825000Y-114062500I0J-62500D01*
G01*
X127825000Y-114187500D01*
G75*
G02*
X127762500Y-114250000I-62500J0D01*
G01*
G37*
G36*
G01*
X127762500Y-114750000D02*
X126887500Y-114750000D01*
G75*
G02*
X126825000Y-114687500I0J62500D01*
G01*
X126825000Y-114562500D01*
G75*
G02*
X126887500Y-114500000I62500J0D01*
G01*
X127762500Y-114500000D01*
G75*
G02*
X127825000Y-114562500I0J-62500D01*
G01*
X127825000Y-114687500D01*
G75*
G02*
X127762500Y-114750000I-62500J0D01*
G01*
G37*
G36*
G01*
X127762500Y-115250000D02*
X126887500Y-115250000D01*
G75*
G02*
X126825000Y-115187500I0J62500D01*
G01*
X126825000Y-115062500D01*
G75*
G02*
X126887500Y-115000000I62500J0D01*
G01*
X127762500Y-115000000D01*
G75*
G02*
X127825000Y-115062500I0J-62500D01*
G01*
X127825000Y-115187500D01*
G75*
G02*
X127762500Y-115250000I-62500J0D01*
G01*
G37*
G36*
G01*
X127762500Y-115750000D02*
X126887500Y-115750000D01*
G75*
G02*
X126825000Y-115687500I0J62500D01*
G01*
X126825000Y-115562500D01*
G75*
G02*
X126887500Y-115500000I62500J0D01*
G01*
X127762500Y-115500000D01*
G75*
G02*
X127825000Y-115562500I0J-62500D01*
G01*
X127825000Y-115687500D01*
G75*
G02*
X127762500Y-115750000I-62500J0D01*
G01*
G37*
G36*
G01*
X126387500Y-117125000D02*
X126262500Y-117125000D01*
G75*
G02*
X126200000Y-117062500I0J62500D01*
G01*
X126200000Y-116187500D01*
G75*
G02*
X126262500Y-116125000I62500J0D01*
G01*
X126387500Y-116125000D01*
G75*
G02*
X126450000Y-116187500I0J-62500D01*
G01*
X126450000Y-117062500D01*
G75*
G02*
X126387500Y-117125000I-62500J0D01*
G01*
G37*
G36*
G01*
X125887500Y-117125000D02*
X125762500Y-117125000D01*
G75*
G02*
X125700000Y-117062500I0J62500D01*
G01*
X125700000Y-116187500D01*
G75*
G02*
X125762500Y-116125000I62500J0D01*
G01*
X125887500Y-116125000D01*
G75*
G02*
X125950000Y-116187500I0J-62500D01*
G01*
X125950000Y-117062500D01*
G75*
G02*
X125887500Y-117125000I-62500J0D01*
G01*
G37*
G36*
G01*
X125387500Y-117125000D02*
X125262500Y-117125000D01*
G75*
G02*
X125200000Y-117062500I0J62500D01*
G01*
X125200000Y-116187500D01*
G75*
G02*
X125262500Y-116125000I62500J0D01*
G01*
X125387500Y-116125000D01*
G75*
G02*
X125450000Y-116187500I0J-62500D01*
G01*
X125450000Y-117062500D01*
G75*
G02*
X125387500Y-117125000I-62500J0D01*
G01*
G37*
G36*
G01*
X124887500Y-117125000D02*
X124762500Y-117125000D01*
G75*
G02*
X124700000Y-117062500I0J62500D01*
G01*
X124700000Y-116187500D01*
G75*
G02*
X124762500Y-116125000I62500J0D01*
G01*
X124887500Y-116125000D01*
G75*
G02*
X124950000Y-116187500I0J-62500D01*
G01*
X124950000Y-117062500D01*
G75*
G02*
X124887500Y-117125000I-62500J0D01*
G01*
G37*
G36*
G01*
X124387500Y-117125000D02*
X124262500Y-117125000D01*
G75*
G02*
X124200000Y-117062500I0J62500D01*
G01*
X124200000Y-116187500D01*
G75*
G02*
X124262500Y-116125000I62500J0D01*
G01*
X124387500Y-116125000D01*
G75*
G02*
X124450000Y-116187500I0J-62500D01*
G01*
X124450000Y-117062500D01*
G75*
G02*
X124387500Y-117125000I-62500J0D01*
G01*
G37*
%TD*%
%TO.C,J2*%
G36*
G01*
X133347500Y-109850000D02*
X132882500Y-109850000D01*
G75*
G02*
X132650000Y-109617500I0J232500D01*
G01*
X132650000Y-109152500D01*
G75*
G02*
X132882500Y-108920000I232500J0D01*
G01*
X133347500Y-108920000D01*
G75*
G02*
X133580000Y-109152500I0J-232500D01*
G01*
X133580000Y-109617500D01*
G75*
G02*
X133347500Y-109850000I-232500J0D01*
G01*
G37*
G36*
G01*
X134497500Y-109850000D02*
X134032500Y-109850000D01*
G75*
G02*
X133800000Y-109617500I0J232500D01*
G01*
X133800000Y-109152500D01*
G75*
G02*
X134032500Y-108920000I232500J0D01*
G01*
X134497500Y-108920000D01*
G75*
G02*
X134730000Y-109152500I0J-232500D01*
G01*
X134730000Y-109617500D01*
G75*
G02*
X134497500Y-109850000I-232500J0D01*
G01*
G37*
G36*
G01*
X135647500Y-109850000D02*
X135182500Y-109850000D01*
G75*
G02*
X134950000Y-109617500I0J232500D01*
G01*
X134950000Y-109152500D01*
G75*
G02*
X135182500Y-108920000I232500J0D01*
G01*
X135647500Y-108920000D01*
G75*
G02*
X135880000Y-109152500I0J-232500D01*
G01*
X135880000Y-109617500D01*
G75*
G02*
X135647500Y-109850000I-232500J0D01*
G01*
G37*
G36*
G01*
X132197500Y-108700000D02*
X131732500Y-108700000D01*
G75*
G02*
X131500000Y-108467500I0J232500D01*
G01*
X131500000Y-108002500D01*
G75*
G02*
X131732500Y-107770000I232500J0D01*
G01*
X132197500Y-107770000D01*
G75*
G02*
X132430000Y-108002500I0J-232500D01*
G01*
X132430000Y-108467500D01*
G75*
G02*
X132197500Y-108700000I-232500J0D01*
G01*
G37*
G36*
G01*
X133347500Y-108700000D02*
X132882500Y-108700000D01*
G75*
G02*
X132650000Y-108467500I0J232500D01*
G01*
X132650000Y-108002500D01*
G75*
G02*
X132882500Y-107770000I232500J0D01*
G01*
X133347500Y-107770000D01*
G75*
G02*
X133580000Y-108002500I0J-232500D01*
G01*
X133580000Y-108467500D01*
G75*
G02*
X133347500Y-108700000I-232500J0D01*
G01*
G37*
G36*
G01*
X134497500Y-108700000D02*
X134032500Y-108700000D01*
G75*
G02*
X133800000Y-108467500I0J232500D01*
G01*
X133800000Y-108002500D01*
G75*
G02*
X134032500Y-107770000I232500J0D01*
G01*
X134497500Y-107770000D01*
G75*
G02*
X134730000Y-108002500I0J-232500D01*
G01*
X134730000Y-108467500D01*
G75*
G02*
X134497500Y-108700000I-232500J0D01*
G01*
G37*
G36*
G01*
X135647500Y-108700000D02*
X135182500Y-108700000D01*
G75*
G02*
X134950000Y-108467500I0J232500D01*
G01*
X134950000Y-108002500D01*
G75*
G02*
X135182500Y-107770000I232500J0D01*
G01*
X135647500Y-107770000D01*
G75*
G02*
X135880000Y-108002500I0J-232500D01*
G01*
X135880000Y-108467500D01*
G75*
G02*
X135647500Y-108700000I-232500J0D01*
G01*
G37*
G36*
G01*
X132197500Y-107550000D02*
X131732500Y-107550000D01*
G75*
G02*
X131500000Y-107317500I0J232500D01*
G01*
X131500000Y-106852500D01*
G75*
G02*
X131732500Y-106620000I232500J0D01*
G01*
X132197500Y-106620000D01*
G75*
G02*
X132430000Y-106852500I0J-232500D01*
G01*
X132430000Y-107317500D01*
G75*
G02*
X132197500Y-107550000I-232500J0D01*
G01*
G37*
G36*
G01*
X133347500Y-107550000D02*
X132882500Y-107550000D01*
G75*
G02*
X132650000Y-107317500I0J232500D01*
G01*
X132650000Y-106852500D01*
G75*
G02*
X132882500Y-106620000I232500J0D01*
G01*
X133347500Y-106620000D01*
G75*
G02*
X133580000Y-106852500I0J-232500D01*
G01*
X133580000Y-107317500D01*
G75*
G02*
X133347500Y-107550000I-232500J0D01*
G01*
G37*
G36*
G01*
X134497500Y-107550000D02*
X134032500Y-107550000D01*
G75*
G02*
X133800000Y-107317500I0J232500D01*
G01*
X133800000Y-106852500D01*
G75*
G02*
X134032500Y-106620000I232500J0D01*
G01*
X134497500Y-106620000D01*
G75*
G02*
X134730000Y-106852500I0J-232500D01*
G01*
X134730000Y-107317500D01*
G75*
G02*
X134497500Y-107550000I-232500J0D01*
G01*
G37*
G36*
G01*
X135647500Y-107550000D02*
X135182500Y-107550000D01*
G75*
G02*
X134950000Y-107317500I0J232500D01*
G01*
X134950000Y-106852500D01*
G75*
G02*
X135182500Y-106620000I232500J0D01*
G01*
X135647500Y-106620000D01*
G75*
G02*
X135880000Y-106852500I0J-232500D01*
G01*
X135880000Y-107317500D01*
G75*
G02*
X135647500Y-107550000I-232500J0D01*
G01*
G37*
G36*
G01*
X132197500Y-111000000D02*
X131732500Y-111000000D01*
G75*
G02*
X131500000Y-110767500I0J232500D01*
G01*
X131500000Y-110302500D01*
G75*
G02*
X131732500Y-110070000I232500J0D01*
G01*
X132197500Y-110070000D01*
G75*
G02*
X132430000Y-110302500I0J-232500D01*
G01*
X132430000Y-110767500D01*
G75*
G02*
X132197500Y-111000000I-232500J0D01*
G01*
G37*
G36*
G01*
X133347500Y-111000000D02*
X132882500Y-111000000D01*
G75*
G02*
X132650000Y-110767500I0J232500D01*
G01*
X132650000Y-110302500D01*
G75*
G02*
X132882500Y-110070000I232500J0D01*
G01*
X133347500Y-110070000D01*
G75*
G02*
X133580000Y-110302500I0J-232500D01*
G01*
X133580000Y-110767500D01*
G75*
G02*
X133347500Y-111000000I-232500J0D01*
G01*
G37*
G36*
G01*
X134497500Y-111000000D02*
X134032500Y-111000000D01*
G75*
G02*
X133800000Y-110767500I0J232500D01*
G01*
X133800000Y-110302500D01*
G75*
G02*
X134032500Y-110070000I232500J0D01*
G01*
X134497500Y-110070000D01*
G75*
G02*
X134730000Y-110302500I0J-232500D01*
G01*
X134730000Y-110767500D01*
G75*
G02*
X134497500Y-111000000I-232500J0D01*
G01*
G37*
G36*
G01*
X135647500Y-111000000D02*
X135182500Y-111000000D01*
G75*
G02*
X134950000Y-110767500I0J232500D01*
G01*
X134950000Y-110302500D01*
G75*
G02*
X135182500Y-110070000I232500J0D01*
G01*
X135647500Y-110070000D01*
G75*
G02*
X135880000Y-110302500I0J-232500D01*
G01*
X135880000Y-110767500D01*
G75*
G02*
X135647500Y-111000000I-232500J0D01*
G01*
G37*
G36*
G01*
X132197500Y-109850000D02*
X131732500Y-109850000D01*
G75*
G02*
X131500000Y-109617500I0J232500D01*
G01*
X131500000Y-109152500D01*
G75*
G02*
X131732500Y-108920000I232500J0D01*
G01*
X132197500Y-108920000D01*
G75*
G02*
X132430000Y-109152500I0J-232500D01*
G01*
X132430000Y-109617500D01*
G75*
G02*
X132197500Y-109850000I-232500J0D01*
G01*
G37*
D14*
X129540000Y-111200000D03*
X129540000Y-106400000D03*
D15*
X129540000Y-108550000D03*
X129540000Y-109050000D03*
X129540000Y-108050000D03*
X129540000Y-109550000D03*
X129540000Y-107550000D03*
X129540000Y-110050000D03*
X129540000Y-107050000D03*
X129540000Y-110550000D03*
D14*
X129540000Y-105600000D03*
X129540000Y-112000000D03*
%TD*%
M02*
