%TF.GenerationSoftware,KiCad,Pcbnew,(5.1.9-0-10_14)*%
%TF.CreationDate,2021-05-22T18:46:10+01:00*%
%TF.ProjectId,Battery,42617474-6572-4792-9e6b-696361645f70,12*%
%TF.SameCoordinates,Original*%
%TF.FileFunction,Soldermask,Bot*%
%TF.FilePolarity,Negative*%
%FSLAX46Y46*%
G04 Gerber Fmt 4.6, Leading zero omitted, Abs format (unit mm)*
G04 Created by KiCad (PCBNEW (5.1.9-0-10_14)) date 2021-05-22 18:46:10*
%MOMM*%
%LPD*%
G01*
G04 APERTURE LIST*
%ADD10R,2.000000X0.900000*%
%ADD11R,0.900000X2.000000*%
%ADD12R,5.000000X5.000000*%
%ADD13O,1.700000X1.700000*%
%ADD14R,1.700000X1.700000*%
%ADD15C,0.350000*%
%ADD16C,1.700000*%
%ADD17C,2.000000*%
G04 APERTURE END LIST*
D10*
%TO.C,U1*%
X118200000Y-99895000D03*
X118200000Y-101165000D03*
X118200000Y-102435000D03*
X118200000Y-103705000D03*
X118200000Y-104975000D03*
X118200000Y-106245000D03*
X118200000Y-107515000D03*
X118200000Y-108785000D03*
X118200000Y-110055000D03*
X118200000Y-111325000D03*
X118200000Y-112595000D03*
X118200000Y-113865000D03*
X118200000Y-115135000D03*
X118200000Y-116405000D03*
D11*
X120985000Y-117405000D03*
X122255000Y-117405000D03*
X123525000Y-117405000D03*
X124795000Y-117405000D03*
X126065000Y-117405000D03*
X127335000Y-117405000D03*
X128605000Y-117405000D03*
X129875000Y-117405000D03*
X131145000Y-117405000D03*
X132415000Y-117405000D03*
D10*
X135200000Y-116405000D03*
X135200000Y-115135000D03*
X135200000Y-113865000D03*
X135200000Y-112595000D03*
X135200000Y-111325000D03*
X135200000Y-110055000D03*
X135200000Y-108785000D03*
X135200000Y-107515000D03*
X135200000Y-106245000D03*
X135200000Y-104975000D03*
X135200000Y-103705000D03*
X135200000Y-102435000D03*
X135200000Y-101165000D03*
X135200000Y-99895000D03*
D12*
X127700000Y-107395000D03*
%TD*%
D13*
%TO.C,J3*%
X134000000Y-123260000D03*
D14*
X134000000Y-125800000D03*
%TD*%
%TO.C,J1*%
X133045000Y-120500000D03*
D13*
X130505000Y-120500000D03*
X127965000Y-120500000D03*
X125425000Y-120500000D03*
X122885000Y-120500000D03*
X120345000Y-120500000D03*
%TD*%
D15*
%TO.C,U2*%
X125325000Y-114625000D03*
%TD*%
D16*
%TO.C,J2*%
X134310000Y-104475000D03*
X134310000Y-113125000D03*
D17*
X130130000Y-104475000D03*
X130130000Y-113125000D03*
%TD*%
M02*
