%TF.GenerationSoftware,KiCad,Pcbnew,(6.0.1-0)*%
%TF.CreationDate,2022-01-30T16:14:41+00:00*%
%TF.ProjectId,Generic2,47656e65-7269-4633-922e-6b696361645f,1*%
%TF.SameCoordinates,Original*%
%TF.FileFunction,Copper,L1,Top*%
%TF.FilePolarity,Positive*%
%FSLAX46Y46*%
G04 Gerber Fmt 4.6, Leading zero omitted, Abs format (unit mm)*
G04 Created by KiCad (PCBNEW (6.0.1-0)) date 2022-01-30 16:14:41*
%MOMM*%
%LPD*%
G01*
G04 APERTURE LIST*
G04 Aperture macros list*
%AMRoundRect*
0 Rectangle with rounded corners*
0 $1 Rounding radius*
0 $2 $3 $4 $5 $6 $7 $8 $9 X,Y pos of 4 corners*
0 Add a 4 corners polygon primitive as box body*
4,1,4,$2,$3,$4,$5,$6,$7,$8,$9,$2,$3,0*
0 Add four circle primitives for the rounded corners*
1,1,$1+$1,$2,$3*
1,1,$1+$1,$4,$5*
1,1,$1+$1,$6,$7*
1,1,$1+$1,$8,$9*
0 Add four rect primitives between the rounded corners*
20,1,$1+$1,$2,$3,$4,$5,0*
20,1,$1+$1,$4,$5,$6,$7,0*
20,1,$1+$1,$6,$7,$8,$9,0*
20,1,$1+$1,$8,$9,$2,$3,0*%
%AMFreePoly0*
4,1,136,3.383385,4.221938,3.559722,4.168447,3.722236,4.081581,3.864680,3.964680,3.981581,3.822236,4.068447,3.659722,4.121938,3.483385,4.125213,3.450138,4.182769,3.539508,4.186818,3.554319,4.232803,3.599839,4.295387,3.616268,4.357802,3.599205,4.403322,3.553220,4.419751,3.490636,4.402688,3.428221,4.402685,3.428218,4.172864,3.069999,4.056927,2.918726,3.981581,2.777764,
3.864680,2.635320,3.750000,2.541204,3.750000,0.022998,4.066621,-0.229499,4.408387,-0.546611,4.440740,-0.602647,4.440740,-0.667351,4.408387,-0.723387,4.352351,-0.755740,4.287647,-0.755740,4.231611,-0.723387,4.223834,-0.709917,3.889556,-0.400914,3.520256,-0.109781,3.483169,-0.085000,2.500000,-0.085000,2.500000,-1.185000,3.750000,-1.185000,3.750000,-2.745000,-3.750000,-2.745000,
-3.750000,-1.185000,-2.500000,-1.185000,-2.500000,-0.085000,-3.483168,-0.085000,-3.520257,-0.109782,-3.889557,-0.400914,-4.223835,-0.709917,-4.231612,-0.723388,-4.287648,-0.755741,-4.352352,-0.755741,-4.408388,-0.723388,-4.440741,-0.667352,-4.440741,-0.602648,-4.408388,-0.546612,-4.066622,-0.229500,-3.750000,0.022998,-3.750000,2.541204,-3.864680,2.635320,-3.981581,2.777764,-4.057059,2.918973,
-4.182136,3.083248,-4.410822,3.442198,-4.427688,3.504666,-4.411060,3.567198,-4.365394,3.613038,-4.302926,3.629904,-4.240394,3.613276,-4.194554,3.567610,-4.190552,3.552787,-4.125171,3.450557,-4.121938,3.483385,-4.068447,3.659722,-3.981581,3.822236,-3.864680,3.964680,-3.722236,4.081581,-3.559722,4.168447,-3.383385,4.221938,-3.200000,4.240000,-3.137500,4.223253,-3.091747,4.177500,
-3.075000,4.115000,-3.091747,4.052500,-3.137500,4.006747,-3.200000,3.990000,-3.211471,3.993074,-3.354511,3.976957,-3.501274,3.925602,-3.632930,3.842877,-3.742877,3.732930,-3.825602,3.601274,-3.876957,3.454511,-3.894366,3.300000,-3.876957,3.145489,-3.839657,3.038894,-3.713800,2.875371,-3.594054,2.745000,-2.998152,2.745000,-3.015000,3.045000,-2.998253,3.107500,-2.952500,3.153253,
-2.890000,3.170000,-2.827500,3.153253,-2.781747,3.107500,-2.765000,3.045000,-2.768849,3.030634,-2.752213,2.745000,2.752213,2.745000,2.768849,3.030634,2.765000,3.045000,2.781747,3.107500,2.827500,3.153253,2.890000,3.170000,2.952500,3.153253,2.998253,3.107500,3.015000,3.045000,2.998152,2.745000,3.594234,2.745000,3.703871,2.863608,3.839648,3.038866,3.876957,3.145489,
3.894366,3.300000,3.876957,3.454511,3.825602,3.601274,3.742877,3.732930,3.632930,3.842877,3.501274,3.925602,3.354511,3.976957,3.211471,3.993074,3.200000,3.990000,3.137500,4.006747,3.091747,4.052500,3.075000,4.115000,3.091747,4.177500,3.137500,4.223253,3.200000,4.240000,3.383385,4.221938,3.383385,4.221938,$1*%
%AMFreePoly1*
4,1,6,1.000000,-1.000000,-1.000000,-1.000000,-1.000000,0.750000,-0.750000,1.000000,1.000000,1.000000,1.000000,-1.000000,1.000000,-1.000000,$1*%
%AMFreePoly2*
4,1,43,1.102950,0.110584,1.224483,0.068057,1.333507,-0.000447,1.424553,-0.091493,1.493057,-0.200517,1.535584,-0.322050,1.550000,-0.450000,1.533253,-0.512500,1.487500,-0.558253,1.425000,-0.575000,1.362500,-0.558253,1.316747,-0.512500,1.300000,-0.450000,1.302546,-0.440498,1.287946,-0.348318,1.241208,-0.256589,1.168411,-0.183792,1.076682,-0.137054,0.984502,-0.122454,0.975000,-0.125000,
-0.975000,-0.125000,-0.984502,-0.122454,-1.076682,-0.137054,-1.168411,-0.183792,-1.241208,-0.256589,-1.287946,-0.348318,-1.302546,-0.440498,-1.300000,-0.450000,-1.316747,-0.512500,-1.362500,-0.558253,-1.425000,-0.575000,-1.487500,-0.558253,-1.533253,-0.512500,-1.550000,-0.450000,-1.535584,-0.322050,-1.493057,-0.200517,-1.424553,-0.091493,-1.333507,-0.000447,-1.224483,0.068057,-1.102950,0.110584,
-0.975000,0.125000,0.975000,0.125000,1.102950,0.110584,1.102950,0.110584,$1*%
%AMFreePoly3*
4,1,24,1.812500,0.558253,1.858253,0.512500,1.875000,0.450000,1.860584,0.322050,1.818057,0.200517,1.749553,0.091493,1.658507,0.000447,1.549483,-0.068057,1.427950,-0.110584,1.300000,-0.125000,-1.300000,-0.125000,-1.300000,0.125000,1.300000,0.125000,1.309502,0.122454,1.401682,0.137054,1.493411,0.183792,1.566208,0.256589,1.612946,0.348318,1.627546,0.440498,1.625000,0.450000,
1.641747,0.512500,1.687500,0.558253,1.750000,0.575000,1.812500,0.558253,1.812500,0.558253,$1*%
%AMFreePoly4*
4,1,37,1.095671,1.230970,1.176777,1.176777,1.230970,1.095671,1.250000,1.000000,1.234611,0.804457,1.188821,0.613729,1.113759,0.432512,1.011272,0.265269,0.883885,0.116117,0.734733,-0.011271,0.567490,-0.113758,0.386273,-0.188820,0.195545,-0.234610,0.000002,-0.250000,-0.095669,-0.230970,-0.176775,-0.176777,-0.230968,-0.095671,-0.249998,0.000000,-0.230968,0.095671,-0.176775,0.176777,
-0.095669,0.230970,0.000002,0.250000,0.012204,0.247573,0.147027,0.260852,0.288403,0.303738,0.418695,0.373381,0.532897,0.467104,0.626620,0.581306,0.696263,0.711599,0.739148,0.852974,0.752427,0.987798,0.750000,1.000000,0.769030,1.095671,0.823223,1.176777,0.904329,1.230970,1.000000,1.250000,1.095671,1.230970,1.095671,1.230970,$1*%
%AMFreePoly5*
4,1,72,4.686563,7.086550,4.817878,7.046716,4.938899,6.982029,5.044975,6.894975,5.132029,6.788899,5.196716,6.667878,5.236550,6.536563,5.250000,6.400000,5.250000,1.600000,5.230970,1.504329,5.176777,1.423223,5.112500,1.380275,5.112500,0.250000,6.600000,0.250000,6.695671,0.230970,6.776777,0.176777,6.830970,0.095671,6.850000,0.000000,6.830970,-0.095671,6.776777,-0.176777,
6.695671,-0.230970,6.600000,-0.250000,0.000000,-0.250000,-0.095671,-0.230970,-0.176777,-0.176777,-0.230970,-0.095671,-0.250000,0.000000,-0.230970,0.095671,-0.176777,0.176777,-0.095671,0.230970,0.000000,0.250000,4.612500,0.250000,4.612500,1.600000,4.631530,1.695671,4.685723,1.776777,4.750000,1.819725,4.750000,6.400000,4.751388,6.406978,4.742582,6.462574,4.713820,6.519022,
4.669022,6.563820,4.612574,6.592582,4.556978,6.601388,4.550000,6.600000,1.550000,6.600000,1.543022,6.601388,1.487426,6.592582,1.430978,6.563820,1.386180,6.519022,1.357418,6.462574,1.348612,6.406978,1.350000,6.400000,1.350000,5.900000,1.330970,5.804329,1.276777,5.723223,1.195671,5.669030,1.100000,5.650000,1.004329,5.669030,0.923223,5.723223,0.869030,5.804329,
0.850000,5.900000,0.850000,6.400000,0.863450,6.536563,0.903284,6.667878,0.967971,6.788899,1.055025,6.894975,1.161101,6.982029,1.282122,7.046716,1.413437,7.086550,1.550000,7.100000,4.550000,7.100000,4.686563,7.086550,4.686563,7.086550,$1*%
G04 Aperture macros list end*
%ADD10C,0.080000*%
%TA.AperFunction,NonConductor*%
%ADD11C,0.080000*%
%TD*%
%TA.AperFunction,EtchedComponent*%
%ADD12C,0.250000*%
%TD*%
%TA.AperFunction,EtchedComponent*%
%ADD13C,0.080000*%
%TD*%
%TA.AperFunction,SMDPad,CuDef*%
%ADD14R,0.600000X1.140000*%
%TD*%
%TA.AperFunction,SMDPad,CuDef*%
%ADD15RoundRect,0.075000X-0.075000X-0.495000X0.075000X-0.495000X0.075000X0.495000X-0.075000X0.495000X0*%
%TD*%
%TA.AperFunction,SMDPad,CuDef*%
%ADD16FreePoly0,0.000000*%
%TD*%
%TA.AperFunction,ComponentPad*%
%ADD17C,1.250000*%
%TD*%
%TA.AperFunction,ComponentPad*%
%ADD18C,1.500000*%
%TD*%
%TA.AperFunction,ComponentPad*%
%ADD19C,0.600000*%
%TD*%
%TA.AperFunction,SMDPad,CuDef*%
%ADD20R,5.000000X5.490000*%
%TD*%
%TA.AperFunction,SMDPad,CuDef*%
%ADD21RoundRect,0.062500X0.062500X-0.287500X0.062500X0.287500X-0.062500X0.287500X-0.062500X-0.287500X0*%
%TD*%
%TA.AperFunction,SMDPad,CuDef*%
%ADD22RoundRect,0.062500X0.287500X-0.062500X0.287500X0.062500X-0.287500X0.062500X-0.287500X-0.062500X0*%
%TD*%
%TA.AperFunction,SMDPad,CuDef*%
%ADD23FreePoly1,90.000000*%
%TD*%
%TA.AperFunction,ComponentPad*%
%ADD24C,0.350000*%
%TD*%
%TA.AperFunction,SMDPad,CuDef*%
%ADD25RoundRect,0.200000X0.275000X-0.200000X0.275000X0.200000X-0.275000X0.200000X-0.275000X-0.200000X0*%
%TD*%
%TA.AperFunction,SMDPad,CuDef*%
%ADD26RoundRect,0.250000X0.375000X0.625000X-0.375000X0.625000X-0.375000X-0.625000X0.375000X-0.625000X0*%
%TD*%
%TA.AperFunction,SMDPad,CuDef*%
%ADD27RoundRect,0.225000X-0.225000X-0.250000X0.225000X-0.250000X0.225000X0.250000X-0.225000X0.250000X0*%
%TD*%
%TA.AperFunction,SMDPad,CuDef*%
%ADD28RoundRect,0.200000X0.200000X0.275000X-0.200000X0.275000X-0.200000X-0.275000X0.200000X-0.275000X0*%
%TD*%
%TA.AperFunction,SMDPad,CuDef*%
%ADD29R,0.400000X0.650000*%
%TD*%
%TA.AperFunction,SMDPad,CuDef*%
%ADD30RoundRect,0.200000X-0.200000X-0.275000X0.200000X-0.275000X0.200000X0.275000X-0.200000X0.275000X0*%
%TD*%
%TA.AperFunction,SMDPad,CuDef*%
%ADD31R,0.500000X0.850000*%
%TD*%
%TA.AperFunction,SMDPad,CuDef*%
%ADD32RoundRect,0.225000X0.225000X0.250000X-0.225000X0.250000X-0.225000X-0.250000X0.225000X-0.250000X0*%
%TD*%
%TA.AperFunction,SMDPad,CuDef*%
%ADD33RoundRect,0.256250X0.256250X0.443750X-0.256250X0.443750X-0.256250X-0.443750X0.256250X-0.443750X0*%
%TD*%
%TA.AperFunction,SMDPad,CuDef*%
%ADD34RoundRect,0.247500X0.315000X0.627500X-0.315000X0.627500X-0.315000X-0.627500X0.315000X-0.627500X0*%
%TD*%
%TA.AperFunction,SMDPad,CuDef*%
%ADD35RoundRect,0.256250X-0.443750X0.256250X-0.443750X-0.256250X0.443750X-0.256250X0.443750X0.256250X0*%
%TD*%
%TA.AperFunction,SMDPad,CuDef*%
%ADD36RoundRect,0.247500X-0.627500X0.315000X-0.627500X-0.315000X0.627500X-0.315000X0.627500X0.315000X0*%
%TD*%
%TA.AperFunction,SMDPad,CuDef*%
%ADD37RoundRect,0.256250X-0.256250X-0.443750X0.256250X-0.443750X0.256250X0.443750X-0.256250X0.443750X0*%
%TD*%
%TA.AperFunction,SMDPad,CuDef*%
%ADD38RoundRect,0.247500X-0.315000X-0.627500X0.315000X-0.627500X0.315000X0.627500X-0.315000X0.627500X0*%
%TD*%
%TA.AperFunction,SMDPad,CuDef*%
%ADD39RoundRect,0.200000X-0.275000X0.200000X-0.275000X-0.200000X0.275000X-0.200000X0.275000X0.200000X0*%
%TD*%
%TA.AperFunction,SMDPad,CuDef*%
%ADD40R,1.100000X0.600000*%
%TD*%
%TA.AperFunction,SMDPad,CuDef*%
%ADD41FreePoly2,90.000000*%
%TD*%
%TA.AperFunction,SMDPad,CuDef*%
%ADD42R,3.700000X1.425000*%
%TD*%
%TA.AperFunction,SMDPad,CuDef*%
%ADD43R,2.000000X0.500000*%
%TD*%
%TA.AperFunction,SMDPad,CuDef*%
%ADD44RoundRect,0.249375X0.625625X-0.463125X0.625625X0.463125X-0.625625X0.463125X-0.625625X-0.463125X0*%
%TD*%
%TA.AperFunction,SMDPad,CuDef*%
%ADD45R,0.500000X2.000000*%
%TD*%
%TA.AperFunction,SMDPad,CuDef*%
%ADD46FreePoly3,90.000000*%
%TD*%
%TA.AperFunction,SMDPad,CuDef*%
%ADD47RoundRect,0.250000X-0.250000X-0.475000X0.250000X-0.475000X0.250000X0.475000X-0.250000X0.475000X0*%
%TD*%
%TA.AperFunction,SMDPad,CuDef*%
%ADD48FreePoly4,90.000000*%
%TD*%
%TA.AperFunction,SMDPad,CuDef*%
%ADD49FreePoly5,90.000000*%
%TD*%
%TA.AperFunction,SMDPad,CuDef*%
%ADD50R,4.000000X0.500000*%
%TD*%
%TA.AperFunction,ComponentPad*%
%ADD51R,2.000000X2.000000*%
%TD*%
%TA.AperFunction,ComponentPad*%
%ADD52C,2.000000*%
%TD*%
%TA.AperFunction,ComponentPad*%
%ADD53RoundRect,0.250000X0.675000X-0.600000X0.675000X0.600000X-0.675000X0.600000X-0.675000X-0.600000X0*%
%TD*%
%TA.AperFunction,ComponentPad*%
%ADD54O,1.850000X1.700000*%
%TD*%
%TA.AperFunction,ComponentPad*%
%ADD55RoundRect,0.250000X-0.675000X0.600000X-0.675000X-0.600000X0.675000X-0.600000X0.675000X0.600000X0*%
%TD*%
%TA.AperFunction,ViaPad*%
%ADD56C,0.800000*%
%TD*%
%TA.AperFunction,Conductor*%
%ADD57C,0.200000*%
%TD*%
%TA.AperFunction,Conductor*%
%ADD58C,0.250000*%
%TD*%
%TA.AperFunction,Conductor*%
%ADD59C,0.500000*%
%TD*%
G04 APERTURE END LIST*
D10*
D11*
X130673809Y-93178571D02*
X130650000Y-93154761D01*
X130626190Y-93107142D01*
X130626190Y-92988095D01*
X130650000Y-92940476D01*
X130673809Y-92916666D01*
X130721428Y-92892857D01*
X130769047Y-92892857D01*
X130840476Y-92916666D01*
X131126190Y-93202380D01*
X131126190Y-92892857D01*
X130626190Y-92583333D02*
X130626190Y-92535714D01*
X130650000Y-92488095D01*
X130673809Y-92464285D01*
X130721428Y-92440476D01*
X130816666Y-92416666D01*
X130935714Y-92416666D01*
X131030952Y-92440476D01*
X131078571Y-92464285D01*
X131102380Y-92488095D01*
X131126190Y-92535714D01*
X131126190Y-92583333D01*
X131102380Y-92630952D01*
X131078571Y-92654761D01*
X131030952Y-92678571D01*
X130935714Y-92702380D01*
X130816666Y-92702380D01*
X130721428Y-92678571D01*
X130673809Y-92654761D01*
X130650000Y-92630952D01*
X130626190Y-92583333D01*
X130673809Y-92226190D02*
X130650000Y-92202380D01*
X130626190Y-92154761D01*
X130626190Y-92035714D01*
X130650000Y-91988095D01*
X130673809Y-91964285D01*
X130721428Y-91940476D01*
X130769047Y-91940476D01*
X130840476Y-91964285D01*
X131126190Y-92250000D01*
X131126190Y-91940476D01*
X130673809Y-91750000D02*
X130650000Y-91726190D01*
X130626190Y-91678571D01*
X130626190Y-91559523D01*
X130650000Y-91511904D01*
X130673809Y-91488095D01*
X130721428Y-91464285D01*
X130769047Y-91464285D01*
X130840476Y-91488095D01*
X131126190Y-91773809D01*
X131126190Y-91464285D01*
X130935714Y-91250000D02*
X130935714Y-90869047D01*
X130626190Y-90535714D02*
X130626190Y-90488095D01*
X130650000Y-90440476D01*
X130673809Y-90416666D01*
X130721428Y-90392857D01*
X130816666Y-90369047D01*
X130935714Y-90369047D01*
X131030952Y-90392857D01*
X131078571Y-90416666D01*
X131102380Y-90440476D01*
X131126190Y-90488095D01*
X131126190Y-90535714D01*
X131102380Y-90583333D01*
X131078571Y-90607142D01*
X131030952Y-90630952D01*
X130935714Y-90654761D01*
X130816666Y-90654761D01*
X130721428Y-90630952D01*
X130673809Y-90607142D01*
X130650000Y-90583333D01*
X130626190Y-90535714D01*
X131126190Y-89892857D02*
X131126190Y-90178571D01*
X131126190Y-90035714D02*
X130626190Y-90035714D01*
X130697619Y-90083333D01*
X130745238Y-90130952D01*
X130769047Y-90178571D01*
X130935714Y-89678571D02*
X130935714Y-89297619D01*
X130626190Y-89107142D02*
X130626190Y-88797619D01*
X130816666Y-88964285D01*
X130816666Y-88892857D01*
X130840476Y-88845238D01*
X130864285Y-88821428D01*
X130911904Y-88797619D01*
X131030952Y-88797619D01*
X131078571Y-88821428D01*
X131102380Y-88845238D01*
X131126190Y-88892857D01*
X131126190Y-89035714D01*
X131102380Y-89083333D01*
X131078571Y-89107142D01*
X130626190Y-88488095D02*
X130626190Y-88440476D01*
X130650000Y-88392857D01*
X130673809Y-88369047D01*
X130721428Y-88345238D01*
X130816666Y-88321428D01*
X130935714Y-88321428D01*
X131030952Y-88345238D01*
X131078571Y-88369047D01*
X131102380Y-88392857D01*
X131126190Y-88440476D01*
X131126190Y-88488095D01*
X131102380Y-88535714D01*
X131078571Y-88559523D01*
X131030952Y-88583333D01*
X130935714Y-88607142D01*
X130816666Y-88607142D01*
X130721428Y-88583333D01*
X130673809Y-88559523D01*
X130650000Y-88535714D01*
X130626190Y-88488095D01*
%TO.C,JP4*%
G36*
X133750000Y-107650000D02*
G01*
X132750000Y-107650000D01*
X132750000Y-107250000D01*
X133750000Y-107250000D01*
X133750000Y-107650000D01*
G37*
D12*
%TO.C,Logo1*%
X154400000Y-98200000D02*
X154400000Y-99700000D01*
X154400000Y-98200000D02*
X156500000Y-96400000D01*
X152300000Y-98200000D02*
X156500000Y-98200000D01*
D13*
X152460000Y-99700000D02*
X152600000Y-99600000D01*
X152460000Y-99800000D02*
X152460000Y-99700000D01*
D12*
X152400000Y-96400000D02*
X154400000Y-98200000D01*
X152300000Y-98200000D02*
X156500000Y-101200000D01*
D13*
X152300000Y-99800000D02*
X152300000Y-99700000D01*
X152300000Y-99800000D02*
X152600000Y-99800000D01*
X152460000Y-99700000D02*
G75*
G03*
X152300000Y-99700000I-80000J0D01*
G01*
D12*
X156500000Y-99700000D02*
G75*
G03*
X156500000Y-98200000I0J750000D01*
G01*
D13*
X152760000Y-99720000D02*
G75*
G03*
X152760000Y-99720000I-300000J0D01*
G01*
%TO.C,JP6*%
G36*
X156800000Y-91712500D02*
G01*
X156400000Y-91712500D01*
X156400000Y-90712500D01*
X156800000Y-90712500D01*
X156800000Y-91712500D01*
G37*
%TO.C,JP2*%
G36*
X139100000Y-106800000D02*
G01*
X138700000Y-106800000D01*
X138700000Y-105800000D01*
X139100000Y-105800000D01*
X139100000Y-106800000D01*
G37*
%TO.C,JP8*%
G36*
X162750000Y-90150000D02*
G01*
X161750000Y-90150000D01*
X161750000Y-89750000D01*
X162750000Y-89750000D01*
X162750000Y-90150000D01*
G37*
%TD*%
D14*
%TO.P,J3,A1,GND*%
%TO.N,GND*%
X144500000Y-103090000D03*
%TO.P,J3,A4,VBUS*%
%TO.N,VBUS*%
X145300000Y-103090000D03*
D15*
%TO.P,J3,A5,CC1*%
%TO.N,Net-(J3-PadA5)*%
X146450000Y-103090000D03*
%TO.P,J3,A6,D+*%
%TO.N,Net-(C3-Pad1)*%
X147450000Y-103090000D03*
%TO.P,J3,A7,D-*%
%TO.N,Net-(C2-Pad1)*%
X147950000Y-103090000D03*
%TO.P,J3,A8,SBU1*%
%TO.N,unconnected-(J3-PadA8)*%
X148950000Y-103090000D03*
D14*
%TO.P,J3,A9,VBUS*%
%TO.N,VBUS*%
X150100000Y-103090000D03*
%TO.P,J3,A12,GND*%
%TO.N,GND*%
X150900000Y-103090000D03*
%TO.P,J3,B1,GND*%
X150900000Y-103090000D03*
%TO.P,J3,B4,VBUS*%
%TO.N,VBUS*%
X150100000Y-103090000D03*
D15*
%TO.P,J3,B5,CC2*%
%TO.N,Net-(J3-PadB5)*%
X149450000Y-103090000D03*
%TO.P,J3,B6,D+*%
%TO.N,Net-(C3-Pad1)*%
X148450000Y-103090000D03*
%TO.P,J3,B7,D-*%
%TO.N,Net-(C2-Pad1)*%
X146950000Y-103090000D03*
%TO.P,J3,B8,SBU2*%
%TO.N,unconnected-(J3-PadB8)*%
X145950000Y-103090000D03*
D14*
%TO.P,J3,B9,VBUS*%
%TO.N,VBUS*%
X145300000Y-103090000D03*
%TO.P,J3,B12,GND*%
%TO.N,GND*%
X144500000Y-103090000D03*
D16*
%TO.P,J3,S1,SHIELD*%
X147700000Y-107205000D03*
D17*
X143380000Y-107840000D03*
D18*
X143380000Y-103670000D03*
D17*
X152020000Y-107840000D03*
D19*
X144810000Y-104160000D03*
X150590000Y-104160000D03*
D20*
X147700000Y-107205000D03*
D18*
X152020000Y-103670000D03*
%TD*%
D21*
%TO.P,U2,1,RXD*%
%TO.N,O*%
X140450000Y-99950000D03*
%TO.P,U2,2,~{RI}*%
%TO.N,GND*%
X140950000Y-99950000D03*
%TO.P,U2,3,GND*%
X141450000Y-99950000D03*
%TO.P,U2,4,~{DSR}*%
X141950000Y-99950000D03*
%TO.P,U2,5,~{DCD}*%
X142450000Y-99950000D03*
D22*
%TO.P,U2,6,~{CTS}*%
X143350000Y-99050000D03*
%TO.P,U2,7,CBUS2*%
%TO.N,unconnected-(U2-Pad7)*%
X143350000Y-98550000D03*
%TO.P,U2,8,USBDP*%
%TO.N,D+*%
X143350000Y-98050000D03*
%TO.P,U2,9,USBDM*%
%TO.N,D-*%
X143350000Y-97550000D03*
%TO.P,U2,10,3V3OUT*%
%TO.N,Net-(C1-Pad1)*%
X143350000Y-97050000D03*
D21*
%TO.P,U2,11,~{RESET}*%
X142450000Y-96150000D03*
%TO.P,U2,12,VCC*%
%TO.N,VBUS*%
X141950000Y-96150000D03*
%TO.P,U2,13,GND*%
%TO.N,GND*%
X141450000Y-96150000D03*
%TO.P,U2,14,CBUS1*%
%TO.N,unconnected-(U2-Pad14)*%
X140950000Y-96150000D03*
%TO.P,U2,15,CBUS0*%
%TO.N,unconnected-(U2-Pad15)*%
X140450000Y-96150000D03*
D22*
%TO.P,U2,16,CBUS3*%
%TO.N,unconnected-(U2-Pad16)*%
X139550000Y-97050000D03*
%TO.P,U2,17,TXD*%
%TO.N,I*%
X139550000Y-97550000D03*
%TO.P,U2,18,~{DTR}*%
%TO.N,GPIO0*%
X139550000Y-98050000D03*
%TO.P,U2,19,~{RTS}*%
%TO.N,EN*%
X139550000Y-98550000D03*
%TO.P,U2,20,VCCIO*%
%TO.N,Net-(C1-Pad1)*%
X139550000Y-99050000D03*
D23*
%TO.P,U2,21,GND*%
%TO.N,GND*%
X141450000Y-98050000D03*
D24*
X141450000Y-98050000D03*
%TD*%
D25*
%TO.P,R3,1*%
%TO.N,Net-(D1-Pad4)*%
X142600000Y-91533217D03*
%TO.P,R3,2*%
%TO.N,B*%
X142600000Y-89883217D03*
%TD*%
D26*
%TO.P,D2,1,K*%
%TO.N,DC*%
X156440000Y-105650000D03*
%TO.P,D2,2,A*%
%TO.N,VBUS*%
X153640000Y-105650000D03*
%TD*%
D27*
%TO.P,C1,1*%
%TO.N,Net-(C1-Pad1)*%
X140605000Y-101930000D03*
%TO.P,C1,2*%
%TO.N,GND*%
X142155000Y-101930000D03*
%TD*%
D28*
%TO.P,R5,1*%
%TO.N,GND*%
X151050000Y-101650000D03*
%TO.P,R5,2*%
%TO.N,Net-(J3-PadB5)*%
X149400000Y-101650000D03*
%TD*%
D29*
%TO.P,D4,1,A1*%
%TO.N,GND*%
X133900000Y-94000000D03*
%TO.P,D4,2,K2*%
%TO.N,+3V3*%
X133250000Y-94000000D03*
%TO.P,D4,3,K1A2*%
%TO.N,L6*%
X132600000Y-94000000D03*
%TO.P,D4,4,A3*%
%TO.N,GND*%
X132600000Y-95900000D03*
%TO.P,D4,5,K4*%
%TO.N,+3V3*%
X133250000Y-95900000D03*
%TO.P,D4,6,K3A4*%
%TO.N,L5*%
X133900000Y-95900000D03*
%TD*%
%TO.P,D3,1,A1*%
%TO.N,GND*%
X133900000Y-98500000D03*
%TO.P,D3,2,K2*%
%TO.N,+3V3*%
X133250000Y-98500000D03*
%TO.P,D3,3,K1A2*%
%TO.N,L4*%
X132600000Y-98500000D03*
%TO.P,D3,4,A3*%
%TO.N,GND*%
X132600000Y-100400000D03*
%TO.P,D3,5,K4*%
%TO.N,+3V3*%
X133250000Y-100400000D03*
%TO.P,D3,6,K3A4*%
%TO.N,L3*%
X133900000Y-100400000D03*
%TD*%
D28*
%TO.P,R4,1*%
%TO.N,Net-(J3-PadA5)*%
X145925000Y-101650000D03*
%TO.P,R4,2*%
%TO.N,GND*%
X144275000Y-101650000D03*
%TD*%
%TO.P,R6,1*%
%TO.N,Net-(C2-Pad1)*%
X146625000Y-97350000D03*
%TO.P,R6,2*%
%TO.N,D-*%
X144975000Y-97350000D03*
%TD*%
D30*
%TO.P,R7,1*%
%TO.N,D+*%
X144975000Y-98550000D03*
%TO.P,R7,2*%
%TO.N,Net-(C3-Pad1)*%
X146625000Y-98550000D03*
%TD*%
D31*
%TO.P,D1,1,A*%
%TO.N,+3V3*%
X140400000Y-89833217D03*
%TO.P,D1,2,RK*%
%TO.N,Net-(D1-Pad2)*%
X140400000Y-91583217D03*
%TO.P,D1,3,GK*%
%TO.N,Net-(D1-Pad3)*%
X139400000Y-91583217D03*
%TO.P,D1,4,BK*%
%TO.N,Net-(D1-Pad4)*%
X139400000Y-89833217D03*
%TD*%
D25*
%TO.P,R1,1*%
%TO.N,Net-(D1-Pad2)*%
X141400000Y-91533217D03*
%TO.P,R1,2*%
%TO.N,R*%
X141400000Y-89883217D03*
%TD*%
%TO.P,R2,1*%
%TO.N,Net-(D1-Pad3)*%
X143800000Y-91533217D03*
%TO.P,R2,2*%
%TO.N,G*%
X143800000Y-89883217D03*
%TD*%
D32*
%TO.P,C4,1*%
%TO.N,GND*%
X155875000Y-103850000D03*
%TO.P,C4,2*%
%TO.N,VBUS*%
X154325000Y-103850000D03*
%TD*%
%TO.P,C2,1*%
%TO.N,Net-(C2-Pad1)*%
X146575000Y-96150000D03*
%TO.P,C2,2*%
%TO.N,GND*%
X145025000Y-96150000D03*
%TD*%
%TO.P,C3,1*%
%TO.N,Net-(C3-Pad1)*%
X146575000Y-99750000D03*
%TO.P,C3,2*%
%TO.N,GND*%
X145025000Y-99750000D03*
%TD*%
D29*
%TO.P,D8,1,A1*%
%TO.N,GND*%
X161600000Y-103400000D03*
%TO.P,D8,2,K2*%
%TO.N,+3V3*%
X162250000Y-103400000D03*
%TO.P,D8,3,K1A2*%
%TO.N,R6*%
X162900000Y-103400000D03*
%TO.P,D8,4,A3*%
%TO.N,GND*%
X162900000Y-101500000D03*
%TO.P,D8,5,K4*%
%TO.N,+3V3*%
X162250000Y-101500000D03*
%TO.P,D8,6,K3A4*%
%TO.N,R5*%
X161600000Y-101500000D03*
%TD*%
D33*
%TO.P,JP4,1,A*%
%TO.N,L1*%
X134162500Y-107450000D03*
D34*
X134712500Y-107450000D03*
D33*
%TO.P,JP4,2,B*%
%TO.N,GND*%
X132337500Y-107450000D03*
D34*
X131787500Y-107450000D03*
%TD*%
D35*
%TO.P,JP6,1,A*%
%TO.N,Net-(J2-Pad2)*%
X156600000Y-90300000D03*
D36*
X156600000Y-89750000D03*
D35*
%TO.P,JP6,2,B*%
%TO.N,R2*%
X156600000Y-92125000D03*
D36*
X156600000Y-92675000D03*
%TD*%
D28*
%TO.P,R9,1*%
%TO.N,GND*%
X150825000Y-97650000D03*
%TO.P,R9,2*%
%TO.N,Net-(R8-Pad2)*%
X149175000Y-97650000D03*
%TD*%
D35*
%TO.P,JP2,1,A*%
%TO.N,Net-(J1-Pad2)*%
X138900000Y-105387500D03*
D36*
X138900000Y-104837500D03*
%TO.P,JP2,2,B*%
%TO.N,L2*%
X138900000Y-107762500D03*
D35*
X138900000Y-107212500D03*
%TD*%
D37*
%TO.P,JP8,1,A*%
%TO.N,R1*%
X161337500Y-89950000D03*
D38*
X160787500Y-89950000D03*
D37*
%TO.P,JP8,2,B*%
%TO.N,GND*%
X163162500Y-89950000D03*
D38*
X163712500Y-89950000D03*
%TD*%
D34*
%TO.P,JP3,1,A*%
%TO.N,Net-(J1-Pad2)*%
X134712500Y-104950000D03*
D33*
X134162500Y-104950000D03*
%TO.P,JP3,2,B*%
%TO.N,DC*%
X132337500Y-104950000D03*
D34*
X131787500Y-104950000D03*
%TD*%
%TO.P,JP1,1,A*%
%TO.N,L3*%
X134712500Y-102550000D03*
D33*
X134162500Y-102550000D03*
%TO.P,JP1,2,B*%
%TO.N,+3V3*%
X132337500Y-102550000D03*
D34*
X131787500Y-102550000D03*
%TD*%
D29*
%TO.P,D9,1,A1*%
%TO.N,GND*%
X161600000Y-107900000D03*
%TO.P,D9,2,K2*%
%TO.N,+3V3*%
X162250000Y-107900000D03*
%TO.P,D9,3,K1A2*%
%TO.N,R8*%
X162900000Y-107900000D03*
%TO.P,D9,4,A3*%
%TO.N,GND*%
X162900000Y-106000000D03*
%TO.P,D9,5,K4*%
%TO.N,+3V3*%
X162250000Y-106000000D03*
%TO.P,D9,6,K3A4*%
%TO.N,R7*%
X161600000Y-106000000D03*
%TD*%
D38*
%TO.P,JP5,1,A*%
%TO.N,R3*%
X160787500Y-94950000D03*
D37*
X161337500Y-94950000D03*
D38*
%TO.P,JP5,2,B*%
%TO.N,+3V3*%
X163712500Y-94950000D03*
D37*
X163162500Y-94950000D03*
%TD*%
D29*
%TO.P,D7,1,A1*%
%TO.N,GND*%
X161600000Y-99150000D03*
%TO.P,D7,2,K2*%
%TO.N,+3V3*%
X162250000Y-99150000D03*
%TO.P,D7,3,K1A2*%
%TO.N,R4*%
X162900000Y-99150000D03*
%TO.P,D7,4,A3*%
%TO.N,GND*%
X162900000Y-97250000D03*
%TO.P,D7,5,K4*%
%TO.N,+3V3*%
X162250000Y-97250000D03*
%TO.P,D7,6,K3A4*%
%TO.N,R3*%
X161600000Y-97250000D03*
%TD*%
D38*
%TO.P,JP7,1,A*%
%TO.N,Net-(J2-Pad2)*%
X160787500Y-92450000D03*
D37*
X161337500Y-92450000D03*
D38*
%TO.P,JP7,2,B*%
%TO.N,DC*%
X163712500Y-92450000D03*
D37*
X163162500Y-92450000D03*
%TD*%
D39*
%TO.P,R8,1*%
%TO.N,+3V3*%
X146200000Y-90725000D03*
%TO.P,R8,2*%
%TO.N,Net-(R8-Pad2)*%
X146200000Y-92375000D03*
%TD*%
D29*
%TO.P,D5,1,A1*%
%TO.N,GND*%
X133900000Y-89500000D03*
%TO.P,D5,2,K2*%
%TO.N,+3V3*%
X133250000Y-89500000D03*
%TO.P,D5,3,K1A2*%
%TO.N,L8*%
X132600000Y-89500000D03*
%TO.P,D5,4,A3*%
%TO.N,GND*%
X132600000Y-91400000D03*
%TO.P,D5,5,K4*%
%TO.N,+3V3*%
X133250000Y-91400000D03*
%TO.P,D5,6,K3A4*%
%TO.N,L7*%
X133900000Y-91400000D03*
%TD*%
D40*
%TO.P,U3,*%
%TO.N,*%
X151090000Y-93290000D03*
D41*
X150190000Y-94715000D03*
D42*
X149790000Y-91840000D03*
D43*
X152040000Y-93290000D03*
D32*
X149215000Y-96340000D03*
X150765000Y-96340000D03*
D44*
X152910000Y-93442500D03*
D40*
X148390000Y-93290000D03*
D45*
X151090000Y-92340000D03*
D46*
X149290000Y-95040000D03*
D40*
%TO.P,U3,1,SHDN*%
%TO.N,DC*%
X151090000Y-95190000D03*
D47*
%TO.P,U3,2,VIN*%
X152340000Y-95090000D03*
D48*
X152290000Y-95300000D03*
D40*
X151090000Y-94240000D03*
D47*
%TO.P,U3,3,GND*%
%TO.N,GND*%
X154240000Y-88840000D03*
D40*
X148390000Y-94240000D03*
D44*
X152910000Y-90477500D03*
D47*
X154240000Y-95090000D03*
D49*
X154240000Y-95340000D03*
D50*
%TO.P,U3,4,VOUT*%
%TO.N,+3V3*%
X150540000Y-88840000D03*
D42*
X149790000Y-88840000D03*
D47*
X152340000Y-88840000D03*
D40*
%TO.P,U3,5,FB*%
%TO.N,Net-(R8-Pad2)*%
X148390000Y-95190000D03*
%TD*%
D51*
%TO.P,J4,1,Pin_1*%
%TO.N,GND*%
X153705000Y-108610000D03*
D52*
%TO.P,J4,2,Pin_2*%
%TO.N,DC*%
X156245000Y-108610000D03*
%TD*%
D53*
%TO.P,J1,1,Pin_1*%
%TO.N,L1*%
X136600000Y-107500000D03*
D54*
%TO.P,J1,2,Pin_2*%
%TO.N,Net-(J1-Pad2)*%
X136600000Y-105000000D03*
%TO.P,J1,3,Pin_3*%
%TO.N,L3*%
X136600000Y-102500000D03*
%TO.P,J1,4,Pin_4*%
%TO.N,L4*%
X136600000Y-100000000D03*
%TO.P,J1,5,Pin_5*%
%TO.N,L5*%
X136600000Y-97500000D03*
%TO.P,J1,6,Pin_6*%
%TO.N,L6*%
X136600000Y-95000000D03*
%TO.P,J1,7,Pin_7*%
%TO.N,L7*%
X136600000Y-92500000D03*
%TO.P,J1,8,Pin_8*%
%TO.N,L8*%
X136600000Y-90000000D03*
%TD*%
D55*
%TO.P,J2,1,Pin_1*%
%TO.N,R1*%
X158900000Y-90000000D03*
D54*
%TO.P,J2,2,Pin_2*%
%TO.N,Net-(J2-Pad2)*%
X158900000Y-92500000D03*
%TO.P,J2,3,Pin_3*%
%TO.N,R3*%
X158900000Y-95000000D03*
%TO.P,J2,4,Pin_4*%
%TO.N,R4*%
X158900000Y-97500000D03*
%TO.P,J2,5,Pin_5*%
%TO.N,R5*%
X158900000Y-100000000D03*
%TO.P,J2,6,Pin_6*%
%TO.N,R6*%
X158900000Y-102500000D03*
%TO.P,J2,7,Pin_7*%
%TO.N,R7*%
X158900000Y-105000000D03*
%TO.P,J2,8,Pin_8*%
%TO.N,R8*%
X158900000Y-107500000D03*
%TD*%
D56*
%TO.N,GND*%
X133400000Y-96950000D03*
X149361658Y-98969837D03*
X152900000Y-91950000D03*
X134700000Y-92350000D03*
X134100000Y-99400000D03*
X146000000Y-88950000D03*
X162100000Y-88550000D03*
X163800000Y-108550000D03*
%TO.N,+3V3*%
X153140500Y-88850000D03*
%TO.N,VBUS*%
X143981866Y-100102267D03*
X143808443Y-94904941D03*
%TO.N,Net-(C1-Pad1)*%
X141037879Y-101649366D03*
X143251000Y-96070208D03*
%TO.N,O*%
X142711018Y-100924866D03*
%TO.N,I*%
X140879297Y-93950500D03*
%TO.N,EN*%
X141400000Y-103050000D03*
%TO.N,GPIO0*%
X140419217Y-106005634D03*
%TO.N,DC*%
X162400000Y-91450000D03*
%TO.N,R*%
X141400000Y-88900000D03*
%TO.N,G*%
X144522672Y-92475500D03*
%TO.N,B*%
X142600000Y-88900000D03*
%TO.N,Net-(C3-Pad1)*%
X148797352Y-100671911D03*
X147200000Y-100650000D03*
%TO.N,L2*%
X140900000Y-108250000D03*
%TO.N,R2*%
X162250000Y-93750000D03*
%TD*%
D57*
%TO.N,D+*%
X143350000Y-98050000D02*
X143767894Y-98050000D01*
X144975000Y-98550000D02*
G75*
G03*
X143767894Y-98050000I-1207107J-1207108D01*
G01*
D58*
%TO.N,GND*%
X143525000Y-100675000D02*
X144275000Y-101425000D01*
X141450000Y-96150000D02*
X141450000Y-95100000D01*
X143047488Y-100197487D02*
X143525000Y-100675000D01*
X160700000Y-97524022D02*
X161600000Y-98424022D01*
X141450000Y-95100000D02*
X142500000Y-94050000D01*
X155300000Y-93750000D02*
X157875480Y-96325480D01*
X162100000Y-88550000D02*
X155600000Y-88550000D01*
D59*
X152910000Y-90477500D02*
X152910000Y-91940000D01*
D58*
X157875480Y-96325480D02*
X160175480Y-96325480D01*
X141450000Y-98050000D02*
X142450000Y-99050000D01*
X141450000Y-99950000D02*
X141450000Y-98050000D01*
X145014429Y-99739429D02*
X145025000Y-99750000D01*
X155300000Y-88850000D02*
X155300000Y-93750000D01*
X140950000Y-99950000D02*
X140950000Y-98550000D01*
X145025000Y-94675000D02*
X145025000Y-96150000D01*
X143350000Y-99050000D02*
X142450000Y-99050000D01*
X160700000Y-96850000D02*
X160700000Y-97524022D01*
X140950000Y-98550000D02*
X141450000Y-98050000D01*
X155600000Y-88550000D02*
X155300000Y-88850000D01*
X160175480Y-96325480D02*
X160700000Y-96850000D01*
X142500000Y-94050000D02*
X144400000Y-94050000D01*
D59*
X152910000Y-91940000D02*
X152900000Y-91950000D01*
D58*
X161600000Y-98424022D02*
X161600000Y-99150000D01*
X141450000Y-96150000D02*
X141450000Y-98050000D01*
X144275000Y-101425000D02*
X144275000Y-101650000D01*
X144400000Y-94050000D02*
X145025000Y-94675000D01*
X142450000Y-99950000D02*
X142450000Y-99050000D01*
X141950000Y-99950000D02*
X141950000Y-98550000D01*
X143047488Y-100197487D02*
G75*
G03*
X142450000Y-99950000I-597489J-597493D01*
G01*
X145014429Y-99739429D02*
G75*
G03*
X143350000Y-99050000I-1664431J-1664434D01*
G01*
D57*
%TO.N,D-*%
X143350000Y-97550000D02*
X144492158Y-97550000D01*
X144975000Y-97350000D02*
G75*
G02*
X144492158Y-97550000I-482841J482839D01*
G01*
D58*
%TO.N,+3V3*%
X133175489Y-90750489D02*
X133250000Y-90825000D01*
X133250000Y-99300000D02*
X133250000Y-98500000D01*
X162250000Y-106900000D02*
X162250000Y-107900000D01*
X131999511Y-90750489D02*
X133175489Y-90750489D01*
X149790000Y-88840000D02*
X149790000Y-87790000D01*
X162250000Y-96650000D02*
X162250000Y-97250000D01*
X153130500Y-88840000D02*
X153140500Y-88850000D01*
X162250000Y-106900000D02*
X163174022Y-106900000D01*
X162250000Y-102500000D02*
X163500000Y-102500000D01*
X162250000Y-98450000D02*
X163050000Y-98450000D01*
X162250000Y-101500000D02*
X162250000Y-102500000D01*
X164400000Y-87750000D02*
X164599520Y-87949520D01*
X140400000Y-89833217D02*
X140400000Y-87800000D01*
X162250000Y-98450000D02*
X162250000Y-99150000D01*
X133250000Y-95900000D02*
X133250000Y-94000000D01*
X149750000Y-87750000D02*
X164400000Y-87750000D01*
X131900000Y-88450000D02*
X131900000Y-98974022D01*
X140450000Y-87750000D02*
X132600000Y-87750000D01*
X133250000Y-90825000D02*
X133250000Y-89500000D01*
X163712500Y-94950000D02*
X163712500Y-95687500D01*
X162250000Y-106000000D02*
X162250000Y-106900000D01*
X162250000Y-97250000D02*
X162250000Y-98450000D01*
X164599520Y-87949520D02*
X164599520Y-94062980D01*
X133250000Y-100400000D02*
X133250000Y-99300000D01*
X132225978Y-99300000D02*
X133250000Y-99300000D01*
X148085000Y-88840000D02*
X146200000Y-90725000D01*
X149790000Y-88840000D02*
X148085000Y-88840000D01*
X164599520Y-94062980D02*
X163712500Y-94950000D01*
X162250000Y-102500000D02*
X162250000Y-103400000D01*
X163200000Y-96200000D02*
X162700000Y-96200000D01*
X133250000Y-100400000D02*
X133250000Y-100650000D01*
X133250000Y-90825000D02*
X133250000Y-91400000D01*
X132075489Y-95250489D02*
X133124511Y-95250489D01*
X163500000Y-106574022D02*
X163500000Y-98900000D01*
X133124511Y-95250489D02*
X133250000Y-95375978D01*
X132100000Y-101200000D02*
X132700000Y-101200000D01*
X152340000Y-88840000D02*
X153130500Y-88840000D01*
X149750000Y-87750000D02*
X140450000Y-87750000D01*
X131787500Y-102550000D02*
X131787500Y-101512500D01*
X163200000Y-96200000D02*
G75*
G03*
X163712500Y-95687500I-1J512501D01*
G01*
X149750000Y-87750000D02*
G75*
G02*
X149790000Y-87790000I-1J-40001D01*
G01*
X131900000Y-88450000D02*
G75*
G02*
X132600000Y-87750000I699999J1D01*
G01*
X163500000Y-106574022D02*
G75*
G02*
X163174022Y-106900000I-325979J1D01*
G01*
X132225978Y-99300000D02*
G75*
G02*
X131900000Y-98974022I1J325979D01*
G01*
X132700000Y-101200000D02*
G75*
G03*
X133250000Y-100650000I1J549999D01*
G01*
X162250000Y-96650000D02*
G75*
G02*
X162700000Y-96200000I450000J0D01*
G01*
X132100000Y-101200000D02*
G75*
G03*
X131787500Y-101512500I0J-312500D01*
G01*
X163500000Y-98900000D02*
G75*
G03*
X163050000Y-98450000I-450000J0D01*
G01*
X140450000Y-87750000D02*
G75*
G03*
X140400000Y-87800000I1J-50001D01*
G01*
%TO.N,VBUS*%
X150325480Y-101157737D02*
X150325480Y-101845852D01*
X153640000Y-105503736D02*
X153640000Y-105650000D01*
X154325000Y-103850000D02*
X154325000Y-103708217D01*
X143526584Y-95186800D02*
X143808443Y-94904941D01*
X142515872Y-95186800D02*
X143526584Y-95186800D01*
X141950000Y-95752672D02*
X142515872Y-95186800D01*
X150325480Y-101845852D02*
X150325480Y-101274520D01*
X150100000Y-103090000D02*
X150100000Y-102390208D01*
X144999520Y-101499520D02*
X144999520Y-101149520D01*
X144999520Y-101119921D02*
X144999520Y-101499520D01*
X145300000Y-103090000D02*
X145300000Y-103575006D01*
X141950000Y-96150000D02*
X141950000Y-95752672D01*
X144999520Y-101969520D02*
X144999520Y-101499520D01*
X151050000Y-100750000D02*
X150733217Y-100750000D01*
X150100000Y-103575006D02*
X150100000Y-103090000D01*
X149625006Y-104050000D02*
X150100000Y-103575006D01*
X144100000Y-100250000D02*
X144999520Y-101149520D01*
X154325000Y-103708217D02*
X151590784Y-100974000D01*
X145300000Y-102270000D02*
X144999520Y-101969520D01*
X143981866Y-100102267D02*
X144999520Y-101119921D01*
X145300000Y-103090000D02*
X145300000Y-102270000D01*
X145774994Y-104050000D02*
X149625006Y-104050000D01*
X145300000Y-103575006D02*
X145774994Y-104050000D01*
X151050000Y-100750000D02*
G75*
G02*
X151590784Y-100974000I0J-764784D01*
G01*
X150325480Y-101157737D02*
G75*
G02*
X150733217Y-100750000I407736J1D01*
G01*
X150850000Y-100750000D02*
G75*
G03*
X150325480Y-101274520I-1J-524519D01*
G01*
X153640001Y-105503736D02*
G75*
G02*
X154325000Y-103850000I2338736J0D01*
G01*
X150325479Y-101845852D02*
G75*
G02*
X150099999Y-102390207I-769832J-1D01*
G01*
%TO.N,Net-(C1-Pad1)*%
X140605000Y-101930000D02*
X140330000Y-101930000D01*
X140885634Y-101649366D02*
X141037879Y-101649366D01*
X143251000Y-96199000D02*
X143251000Y-96070208D01*
X139550000Y-99050000D02*
X139550000Y-101150000D01*
X142450000Y-96150000D02*
X143171208Y-96150000D01*
X140605000Y-101930000D02*
X140885634Y-101649366D01*
X143350000Y-97050000D02*
G75*
G02*
X142450000Y-96150000I0J900000D01*
G01*
X139550000Y-101150000D02*
G75*
G03*
X140330000Y-101930000I780001J1D01*
G01*
X143251000Y-96070208D02*
G75*
G02*
X143171208Y-96150000I-79794J2D01*
G01*
%TO.N,L4*%
X136600000Y-100000000D02*
X135500000Y-100000000D01*
X134150000Y-97850000D02*
X133050000Y-97850000D01*
X132600000Y-98500000D02*
X132600000Y-98300000D01*
X135100000Y-99600000D02*
X135100000Y-98800000D01*
X133050000Y-97850000D02*
G75*
G03*
X132600000Y-98300000I0J-450000D01*
G01*
X134150000Y-97850000D02*
G75*
G02*
X135100000Y-98800000I-2J-950002D01*
G01*
X135100000Y-99600000D02*
G75*
G03*
X135500000Y-100000000I399999J-1D01*
G01*
%TO.N,L3*%
X134462500Y-102500000D02*
X134412500Y-102550000D01*
X133900000Y-100400000D02*
X133900000Y-100800000D01*
X136600000Y-102500000D02*
X134462500Y-102500000D01*
X134712500Y-101612500D02*
X134712500Y-102550000D01*
X134200000Y-101100000D02*
G75*
G02*
X133900000Y-100800000I0J300000D01*
G01*
X134712500Y-101612500D02*
G75*
G03*
X134200000Y-101100000I-512501J-1D01*
G01*
%TO.N,L6*%
X134149511Y-93350489D02*
X132849511Y-93350489D01*
X132600000Y-93600000D02*
X132600000Y-94000000D01*
X134800000Y-94300000D02*
X134800000Y-94000978D01*
X136600000Y-95000000D02*
X135500000Y-95000000D01*
X132600000Y-93600000D02*
G75*
G02*
X132849511Y-93350489I249511J0D01*
G01*
X134149511Y-93350489D02*
G75*
G02*
X134800000Y-94000978I-1J-650490D01*
G01*
X134800000Y-94300000D02*
G75*
G03*
X135500000Y-95000000I699999J-1D01*
G01*
%TO.N,L5*%
X136600000Y-97500000D02*
X135777818Y-96677818D01*
X133900000Y-95900001D02*
G75*
G02*
X135777817Y-96677819I4J-2655625D01*
G01*
%TO.N,O*%
X140450000Y-100347328D02*
X140450000Y-99950000D01*
X141027538Y-100924866D02*
X142711018Y-100924866D01*
X140450000Y-100347328D02*
G75*
G03*
X141027538Y-100924866I577538J0D01*
G01*
%TO.N,I*%
X140879297Y-94823375D02*
X140879297Y-93950500D01*
X139550000Y-97550000D02*
X139152672Y-97550000D01*
X138875480Y-97272808D02*
X138875480Y-96324520D01*
X139900000Y-95300000D02*
X140402672Y-95300000D01*
X139900000Y-95300000D02*
G75*
G03*
X138875480Y-96324520I0J-1024520D01*
G01*
X138875480Y-97272808D02*
G75*
G03*
X139152672Y-97550000I277193J1D01*
G01*
X140879297Y-94823375D02*
G75*
G02*
X140402672Y-95300000I-476624J-1D01*
G01*
%TO.N,L8*%
X135450000Y-88850000D02*
X132850000Y-88850000D01*
X132600000Y-89500000D02*
X132600000Y-89100000D01*
X135450000Y-88850000D02*
G75*
G02*
X136600000Y-90000000I1J-1149999D01*
G01*
X132850000Y-88850000D02*
G75*
G03*
X132600000Y-89100000I-1J-249999D01*
G01*
%TO.N,L7*%
X136600000Y-92500000D02*
X136207107Y-92107107D01*
X133900000Y-91400000D02*
X134500000Y-91400000D01*
X134500000Y-91400000D02*
G75*
G02*
X136207107Y-92107107I1J-2414211D01*
G01*
%TO.N,EN*%
X138875480Y-98827192D02*
X139152672Y-98550000D01*
X138875480Y-102475480D02*
X138875480Y-98827192D01*
X139152672Y-98550000D02*
X139550000Y-98550000D01*
X141400000Y-103050000D02*
X139450000Y-103050000D01*
X138875480Y-102475480D02*
G75*
G03*
X139450000Y-103050000I574520J0D01*
G01*
%TO.N,R4*%
X160900000Y-99300000D02*
X160900000Y-99009619D01*
X159036828Y-97500000D02*
X158900000Y-97500000D01*
X160575000Y-98225000D02*
X160425000Y-98075000D01*
X162550000Y-99850000D02*
X161450000Y-99850000D01*
X162900000Y-99150000D02*
X162900000Y-99500000D01*
X159036828Y-97500001D02*
G75*
G02*
X160424999Y-98075001I-2J-1963175D01*
G01*
X160900000Y-99300000D02*
G75*
G03*
X161450000Y-99850000I549999J-1D01*
G01*
X162550000Y-99850000D02*
G75*
G03*
X162900000Y-99500000I-1J350001D01*
G01*
X160575000Y-98225000D02*
G75*
G02*
X160900000Y-99009619I-784614J-784617D01*
G01*
%TO.N,R3*%
X161500000Y-96500000D02*
X161200000Y-96500000D01*
X161600000Y-97250000D02*
X161600000Y-96600000D01*
X160800000Y-96100000D02*
X160800000Y-94962500D01*
X160737500Y-95000000D02*
X160787500Y-94950000D01*
X158900000Y-95000000D02*
X160737500Y-95000000D01*
X161500000Y-96500000D02*
G75*
G02*
X161600000Y-96600000I1J-99999D01*
G01*
X160800000Y-96100000D02*
G75*
G03*
X161200000Y-96500000I399999J-1D01*
G01*
X160787500Y-94950000D02*
G75*
G02*
X160800000Y-94962500I1J-12499D01*
G01*
%TO.N,R6*%
X160800000Y-103774022D02*
X160800000Y-103000000D01*
X162900000Y-103400000D02*
X162900000Y-103600000D01*
X160300000Y-102500000D02*
X158900000Y-102500000D01*
X162450000Y-104050000D02*
X161075978Y-104050000D01*
X162450000Y-104050000D02*
G75*
G03*
X162900000Y-103600000I0J450000D01*
G01*
X160800000Y-103774022D02*
G75*
G03*
X161075978Y-104050000I275978J0D01*
G01*
X160800000Y-103000000D02*
G75*
G03*
X160300000Y-102500000I-500001J-1D01*
G01*
%TO.N,GPIO0*%
X138425969Y-98774031D02*
X138425969Y-102625969D01*
X140419217Y-104619217D02*
X140419217Y-106005634D01*
X139550000Y-98050000D02*
X139150000Y-98050000D01*
X138425969Y-98774031D02*
G75*
G02*
X139150000Y-98050000I724032J-1D01*
G01*
X140419217Y-104619217D02*
G75*
G03*
X139400000Y-103600000I-1019218J-1D01*
G01*
X139400000Y-103600000D02*
G75*
G02*
X138425969Y-102625969I0J974031D01*
G01*
%TO.N,Net-(D1-Pad2)*%
X141400000Y-91533217D02*
X140450000Y-91533217D01*
X140450000Y-91533217D02*
X140400000Y-91583217D01*
%TO.N,DC*%
X146075305Y-94225305D02*
X147075000Y-95225000D01*
X154023221Y-102673223D02*
X153724672Y-102374673D01*
X137976459Y-103124501D02*
X137976459Y-98660386D01*
X140800000Y-93200000D02*
X143600000Y-93200000D01*
X152340000Y-95090000D02*
X152173762Y-95256238D01*
X155100480Y-104327618D02*
X155100480Y-103373342D01*
X152254594Y-100904594D02*
X152375000Y-101025000D01*
X138400000Y-97637868D02*
X138400000Y-96100000D01*
X154577138Y-102850000D02*
X154450000Y-102850000D01*
X153724672Y-102374673D02*
X152375000Y-101025000D01*
X131787500Y-104950000D02*
X131787500Y-104012500D01*
X162400000Y-91687500D02*
X163162500Y-92450000D01*
X151090000Y-95190000D02*
X151090000Y-94240000D01*
X156440000Y-105650000D02*
X156422862Y-105650000D01*
X156245000Y-108610000D02*
X156245000Y-105845000D01*
X148600000Y-99900000D02*
X149829290Y-99900000D01*
X132049520Y-103750480D02*
X137350480Y-103750480D01*
X140100000Y-94400000D02*
X140100000Y-93900000D01*
X147990970Y-97436347D02*
X147990970Y-99290970D01*
X162400000Y-91450000D02*
X162400000Y-91687500D01*
X151700000Y-96400000D02*
X151700000Y-99565686D01*
X156245000Y-105845000D02*
X156440000Y-105650000D01*
X131787500Y-105200000D02*
X131850000Y-105200000D01*
X140800000Y-93200000D02*
G75*
G03*
X140100000Y-93900000I-1J-699999D01*
G01*
X152254594Y-100904594D02*
G75*
G02*
X151700000Y-99565686I1338897J1338904D01*
G01*
X140100000Y-94400000D02*
G75*
G02*
X139800000Y-94700000I-300000J0D01*
G01*
X147990970Y-97436347D02*
G75*
G03*
X147075000Y-95225000I-3127316J0D01*
G01*
X148600000Y-99900000D02*
G75*
G02*
X147990970Y-99290970I1J609031D01*
G01*
X154577138Y-102850000D02*
G75*
G02*
X155100480Y-103373342I1J-523341D01*
G01*
X132049520Y-103750480D02*
G75*
G03*
X131787500Y-104012500I0J-262020D01*
G01*
X146075305Y-94225305D02*
G75*
G03*
X143600000Y-93200000I-2475305J-2475306D01*
G01*
X138399999Y-97637868D02*
G75*
G02*
X138249999Y-97999999I-512131J0D01*
G01*
X151700001Y-96400000D02*
G75*
G02*
X152173763Y-95256239I1617523J0D01*
G01*
X139800000Y-94700000D02*
G75*
G03*
X138400000Y-96100000I2J-1400002D01*
G01*
X154023221Y-102673223D02*
G75*
G03*
X154450000Y-102850000I426780J426783D01*
G01*
X155100480Y-104327618D02*
G75*
G03*
X156422862Y-105650000I1322383J1D01*
G01*
X137976459Y-103124501D02*
G75*
G02*
X137350480Y-103750480I-625979J0D01*
G01*
X138250000Y-98000000D02*
G75*
G03*
X137976459Y-98660386I660387J-660387D01*
G01*
X152254594Y-100904594D02*
G75*
G03*
X149829290Y-99900000I-2425302J-2425298D01*
G01*
%TO.N,Net-(C2-Pad1)*%
X146575000Y-97300000D02*
X146625000Y-97350000D01*
X146645891Y-101154109D02*
X146016785Y-100525003D01*
X145799520Y-100000480D02*
X145799520Y-97600480D01*
X147541459Y-99717249D02*
X147541459Y-97741459D01*
X146950000Y-103090000D02*
X146950000Y-101888293D01*
X146625000Y-97350000D02*
X147150000Y-97350000D01*
X147950000Y-103090000D02*
X147950000Y-100703553D01*
X146575000Y-96150000D02*
X146575000Y-97300000D01*
X146050000Y-97350000D02*
X146625000Y-97350000D01*
X146645891Y-101154109D02*
G75*
G02*
X146950000Y-101888293I-734182J-734183D01*
G01*
X147541459Y-99717249D02*
G75*
G03*
X147700000Y-100100000I541287J-1D01*
G01*
X147541459Y-97741459D02*
G75*
G03*
X147150000Y-97350000I-391460J-1D01*
G01*
X145799521Y-100000480D02*
G75*
G03*
X146016786Y-100525002I741788J1D01*
G01*
X147700000Y-100100000D02*
G75*
G02*
X147950000Y-100703553I-603552J-603553D01*
G01*
X146050000Y-97350000D02*
G75*
G03*
X145799520Y-97600480I0J-250480D01*
G01*
%TO.N,Net-(D1-Pad3)*%
X143800000Y-91533217D02*
X143800000Y-91550000D01*
X139400000Y-91758217D02*
X139400000Y-91583217D01*
X143017272Y-92332728D02*
X139974511Y-92332728D01*
X143017272Y-92332728D02*
G75*
G03*
X143800000Y-91550000I-1J782729D01*
G01*
X139400000Y-91758217D02*
G75*
G03*
X139974511Y-92332728I574510J-1D01*
G01*
%TO.N,R*%
X141400000Y-88900000D02*
X141400000Y-89883217D01*
%TO.N,G*%
X144599520Y-92398652D02*
X144522672Y-92475500D01*
X144599520Y-90682737D02*
X144599520Y-92398652D01*
X144599520Y-90682737D02*
G75*
G03*
X143800000Y-89883217I-799520J0D01*
G01*
%TO.N,B*%
X142600000Y-88900000D02*
X142600000Y-89883217D01*
%TO.N,R5*%
X159551472Y-100651472D02*
X158900000Y-100000000D01*
X159551472Y-100651472D02*
G75*
G03*
X161600000Y-101500000I2048528J2048527D01*
G01*
%TO.N,Net-(D1-Pad4)*%
X140195892Y-90804108D02*
X141870891Y-90804108D01*
X139400000Y-89833217D02*
X139400000Y-90008216D01*
X140195892Y-90804108D02*
G75*
G02*
X139400000Y-90008216I-1J795891D01*
G01*
X142600000Y-91533217D02*
G75*
G03*
X141870891Y-90804108I-729109J0D01*
G01*
%TO.N,Net-(C3-Pad1)*%
X148450000Y-101019263D02*
X148797352Y-100671911D01*
X147450000Y-100625000D02*
X146575000Y-99750000D01*
X147450000Y-103090000D02*
X147450000Y-100625000D01*
X146625000Y-99700000D02*
X146575000Y-99750000D01*
X146625000Y-98550000D02*
X146625000Y-99700000D01*
X148450000Y-103090000D02*
X148450000Y-101019263D01*
%TO.N,R8*%
X162900000Y-107900000D02*
X162900000Y-108100000D01*
X159950000Y-108550000D02*
X162450000Y-108550000D01*
X162450000Y-108550000D02*
G75*
G03*
X162900000Y-108100000I0J450000D01*
G01*
X159950000Y-108550000D02*
G75*
G02*
X158900000Y-107500000I0J1050000D01*
G01*
%TO.N,R7*%
X159185787Y-105000000D02*
X158900000Y-105000000D01*
X159185787Y-105000000D02*
G75*
G02*
X161600000Y-106000000I-2J-3414216D01*
G01*
%TO.N,L1*%
X134712500Y-107450000D02*
X136550000Y-107450000D01*
X136550000Y-107450000D02*
X136600000Y-107500000D01*
%TO.N,Net-(J1-Pad2)*%
X136600000Y-105000000D02*
X138737500Y-105000000D01*
X136600000Y-105000000D02*
X134462500Y-105000000D01*
X138737500Y-105000000D02*
X138900000Y-104837500D01*
%TO.N,R1*%
X158900000Y-90000000D02*
X160737500Y-90000000D01*
X160737500Y-90000000D02*
X160787500Y-89950000D01*
%TO.N,Net-(J2-Pad2)*%
X160737500Y-92500000D02*
X160787500Y-92450000D01*
X156600000Y-90200000D02*
X158900000Y-92500000D01*
X156600000Y-89750000D02*
X156600000Y-90200000D01*
X158900000Y-92500000D02*
X160737500Y-92500000D01*
%TO.N,Net-(J3-PadA5)*%
X146450000Y-103090000D02*
X146450000Y-102175000D01*
X145925000Y-101650000D02*
G75*
G02*
X146450000Y-102175000I0J-525000D01*
G01*
%TO.N,Net-(J3-PadB5)*%
X149450000Y-103090000D02*
X149450000Y-101700000D01*
X149400000Y-101650000D02*
G75*
G02*
X149450000Y-101700000I-1J-50001D01*
G01*
%TO.N,Net-(R8-Pad2)*%
X146200000Y-92375000D02*
X146200000Y-92836828D01*
X147280380Y-94730381D02*
X147150000Y-94600000D01*
X148440481Y-96915481D02*
X148440481Y-95240481D01*
X147150000Y-94600000D02*
X146775000Y-94225000D01*
X148440481Y-95240481D02*
X148390000Y-95190000D01*
X146775000Y-94225000D02*
G75*
G02*
X146200000Y-92836828I1388165J1388170D01*
G01*
X147280380Y-94730381D02*
G75*
G03*
X148390000Y-95190000I1109619J1109621D01*
G01*
X148440481Y-96915481D02*
G75*
G03*
X149175000Y-97650000I734520J1D01*
G01*
%TO.N,L2*%
X138900000Y-107762500D02*
X140412500Y-107762500D01*
X140900000Y-108250000D02*
G75*
G03*
X140412500Y-107762500I-487498J2D01*
G01*
%TO.N,R2*%
X157675000Y-93750000D02*
X162250000Y-93750000D01*
X157675000Y-93750000D02*
G75*
G02*
X156600000Y-92675000I-1J1074999D01*
G01*
%TD*%
%TA.AperFunction,Conductor*%
%TO.N,GND*%
G36*
X165188121Y-87724002D02*
G01*
X165234614Y-87777658D01*
X165246000Y-87830000D01*
X165246000Y-109570000D01*
X165225998Y-109638121D01*
X165172342Y-109684614D01*
X165120000Y-109696000D01*
X157237321Y-109696000D01*
X157169200Y-109675998D01*
X157122707Y-109622342D01*
X157112603Y-109552068D01*
X157142097Y-109487488D01*
X157148226Y-109480905D01*
X157209674Y-109419457D01*
X157335579Y-109239646D01*
X157337902Y-109234664D01*
X157337905Y-109234659D01*
X157399738Y-109102056D01*
X157428347Y-109040703D01*
X157485161Y-108828674D01*
X157504292Y-108610000D01*
X157485161Y-108391326D01*
X157428347Y-108179297D01*
X157357129Y-108026568D01*
X157337905Y-107985341D01*
X157337902Y-107985336D01*
X157335579Y-107980354D01*
X157331130Y-107974000D01*
X157212833Y-107805054D01*
X157212831Y-107805051D01*
X157209674Y-107800543D01*
X157054457Y-107645326D01*
X157049949Y-107642169D01*
X157049946Y-107642167D01*
X156879155Y-107522578D01*
X156879153Y-107522577D01*
X156874646Y-107519421D01*
X156869664Y-107517098D01*
X156869659Y-107517095D01*
X156697250Y-107436700D01*
X156643965Y-107389783D01*
X156624500Y-107322505D01*
X156624500Y-106905500D01*
X156644502Y-106837379D01*
X156698158Y-106790886D01*
X156750500Y-106779500D01*
X156862756Y-106779500D01*
X156899374Y-106775522D01*
X156916597Y-106773651D01*
X156916598Y-106773651D01*
X156924448Y-106772798D01*
X156931841Y-106770026D01*
X156931843Y-106770026D01*
X156990928Y-106747876D01*
X157059764Y-106722071D01*
X157066943Y-106716691D01*
X157066946Y-106716689D01*
X157168224Y-106640785D01*
X157175404Y-106635404D01*
X157217302Y-106579500D01*
X157256689Y-106526946D01*
X157256691Y-106526943D01*
X157262071Y-106519764D01*
X157305103Y-106404974D01*
X157310026Y-106391843D01*
X157310026Y-106391841D01*
X157312798Y-106384448D01*
X157313880Y-106374493D01*
X157319131Y-106326153D01*
X157319131Y-106326152D01*
X157319500Y-106322756D01*
X157319500Y-104977244D01*
X157312798Y-104915552D01*
X157262071Y-104780236D01*
X157256691Y-104773057D01*
X157256689Y-104773054D01*
X157180785Y-104671776D01*
X157175404Y-104664596D01*
X157154710Y-104649087D01*
X157066946Y-104583311D01*
X157066943Y-104583309D01*
X157059764Y-104577929D01*
X156939728Y-104532930D01*
X156931843Y-104529974D01*
X156931841Y-104529974D01*
X156924448Y-104527202D01*
X156916598Y-104526349D01*
X156916597Y-104526349D01*
X156892442Y-104523725D01*
X156826880Y-104496483D01*
X156786454Y-104438120D01*
X156783999Y-104367166D01*
X156786457Y-104358795D01*
X156820490Y-104256189D01*
X156823358Y-104242810D01*
X156832672Y-104151903D01*
X156833000Y-104145487D01*
X156833000Y-104122115D01*
X156828525Y-104106876D01*
X156827135Y-104105671D01*
X156819452Y-104104000D01*
X155747000Y-104104000D01*
X155678879Y-104083998D01*
X155632386Y-104030342D01*
X155621000Y-103978000D01*
X155621000Y-103577885D01*
X156129000Y-103577885D01*
X156133475Y-103593124D01*
X156134865Y-103594329D01*
X156142548Y-103596000D01*
X156814885Y-103596000D01*
X156830124Y-103591525D01*
X156831329Y-103590135D01*
X156833000Y-103582452D01*
X156833000Y-103554562D01*
X156832663Y-103548047D01*
X156823106Y-103455943D01*
X156820212Y-103442544D01*
X156770619Y-103293893D01*
X156764445Y-103280714D01*
X156682212Y-103147827D01*
X156673176Y-103136426D01*
X156562571Y-103026014D01*
X156551160Y-103017002D01*
X156418120Y-102934996D01*
X156404939Y-102928849D01*
X156256186Y-102879509D01*
X156242810Y-102876642D01*
X156151903Y-102867328D01*
X156146874Y-102867071D01*
X156131876Y-102871475D01*
X156130671Y-102872865D01*
X156129000Y-102880548D01*
X156129000Y-103577885D01*
X155621000Y-103577885D01*
X155621000Y-102885115D01*
X155616525Y-102869876D01*
X155615135Y-102868671D01*
X155607452Y-102867000D01*
X155604562Y-102867000D01*
X155598047Y-102867337D01*
X155505943Y-102876894D01*
X155492544Y-102879788D01*
X155455085Y-102892285D01*
X155384135Y-102894869D01*
X155323051Y-102858685D01*
X155317809Y-102852694D01*
X155222555Y-102736626D01*
X155218633Y-102731847D01*
X155081157Y-102619024D01*
X154983828Y-102567001D01*
X154929768Y-102538105D01*
X154929766Y-102538104D01*
X154924312Y-102535189D01*
X154754125Y-102483564D01*
X154699239Y-102478158D01*
X154655992Y-102473898D01*
X154648061Y-102472658D01*
X154643287Y-102470982D01*
X154637722Y-102470500D01*
X154627672Y-102470500D01*
X154615322Y-102469893D01*
X154614510Y-102469813D01*
X154583198Y-102466729D01*
X154577137Y-102465769D01*
X154560829Y-102468352D01*
X154557060Y-102468949D01*
X154537349Y-102470500D01*
X154489789Y-102470500D01*
X154470078Y-102468949D01*
X154466309Y-102468352D01*
X154450001Y-102465769D01*
X154440207Y-102467320D01*
X154434107Y-102467320D01*
X154417663Y-102466242D01*
X154408454Y-102465030D01*
X154376687Y-102456518D01*
X154353295Y-102446829D01*
X154324809Y-102430383D01*
X154317437Y-102424726D01*
X154305048Y-102413861D01*
X154300742Y-102409555D01*
X154294912Y-102401530D01*
X154286010Y-102395062D01*
X154278471Y-102389585D01*
X154263436Y-102376744D01*
X154119704Y-102233011D01*
X153970729Y-102084036D01*
X152686193Y-100799499D01*
X152686187Y-100799492D01*
X152551066Y-100664371D01*
X152538231Y-100649342D01*
X152532118Y-100640927D01*
X152532115Y-100640924D01*
X152526287Y-100632902D01*
X152525519Y-100632344D01*
X152518415Y-100627182D01*
X152517913Y-100626722D01*
X152515323Y-100624132D01*
X152513148Y-100622356D01*
X152506044Y-100615846D01*
X152496460Y-100606050D01*
X152422531Y-100521751D01*
X152392654Y-100457348D01*
X152402340Y-100387015D01*
X152448513Y-100333083D01*
X152500816Y-100313752D01*
X152615065Y-100298711D01*
X152759563Y-100238858D01*
X152859521Y-100162158D01*
X152877100Y-100148669D01*
X152883646Y-100143646D01*
X152978858Y-100019563D01*
X153038711Y-99875065D01*
X153059126Y-99720000D01*
X153038711Y-99564935D01*
X152993813Y-99456542D01*
X152988520Y-99443763D01*
X152980931Y-99373173D01*
X153012710Y-99309686D01*
X153073768Y-99273459D01*
X153144720Y-99275993D01*
X153178165Y-99293015D01*
X153393627Y-99446916D01*
X154153642Y-99989784D01*
X154165929Y-99999784D01*
X154189043Y-100021151D01*
X154198568Y-100025362D01*
X154198571Y-100025364D01*
X154199589Y-100025814D01*
X154221877Y-100038524D01*
X155769350Y-101143862D01*
X156305333Y-101526707D01*
X156310000Y-101528992D01*
X156310005Y-101528995D01*
X156373544Y-101560105D01*
X156389984Y-101568154D01*
X156515168Y-101583941D01*
X156638715Y-101558328D01*
X156647674Y-101553027D01*
X156647677Y-101553026D01*
X156738344Y-101499379D01*
X156747305Y-101494077D01*
X156761334Y-101477645D01*
X156813959Y-101416002D01*
X156829229Y-101398116D01*
X156866324Y-101304366D01*
X156871820Y-101290477D01*
X156871821Y-101290474D01*
X156875652Y-101280791D01*
X156880331Y-101181118D01*
X156881080Y-101165161D01*
X156881080Y-101165158D01*
X156881568Y-101154755D01*
X156858364Y-101074949D01*
X156849249Y-101043599D01*
X156849249Y-101043598D01*
X156846341Y-101033598D01*
X156833313Y-101015069D01*
X156789273Y-100952438D01*
X156773766Y-100930384D01*
X156769527Y-100926765D01*
X156766869Y-100924866D01*
X155797487Y-100232451D01*
X154831763Y-99542648D01*
X154787958Y-99486779D01*
X154779000Y-99440119D01*
X154779000Y-98705000D01*
X154799002Y-98636879D01*
X154852658Y-98590386D01*
X154905000Y-98579000D01*
X156460256Y-98579000D01*
X156479966Y-98580551D01*
X156500000Y-98583724D01*
X156509793Y-98582173D01*
X156513053Y-98582173D01*
X156530984Y-98583455D01*
X156586591Y-98591450D01*
X156621002Y-98601554D01*
X156627453Y-98604500D01*
X156684100Y-98630370D01*
X156714269Y-98649758D01*
X156766694Y-98695185D01*
X156790177Y-98722287D01*
X156827679Y-98780642D01*
X156842577Y-98813263D01*
X156844913Y-98821220D01*
X156862120Y-98879819D01*
X156867224Y-98915318D01*
X156867224Y-98984682D01*
X156862120Y-99020181D01*
X156842577Y-99086737D01*
X156827679Y-99119358D01*
X156790177Y-99177713D01*
X156766694Y-99204815D01*
X156714548Y-99250000D01*
X156714270Y-99250241D01*
X156684100Y-99269630D01*
X156658821Y-99281175D01*
X156621002Y-99298446D01*
X156586591Y-99308550D01*
X156530984Y-99316545D01*
X156513053Y-99317827D01*
X156509793Y-99317827D01*
X156500000Y-99316276D01*
X156479948Y-99319452D01*
X156391214Y-99333506D01*
X156391213Y-99333506D01*
X156381423Y-99335057D01*
X156274453Y-99389561D01*
X156189561Y-99474453D01*
X156135057Y-99581423D01*
X156133506Y-99591213D01*
X156133506Y-99591214D01*
X156124797Y-99646199D01*
X156116276Y-99700000D01*
X156117827Y-99709792D01*
X156132378Y-99801660D01*
X156135057Y-99818577D01*
X156189561Y-99925547D01*
X156274453Y-100010439D01*
X156381423Y-100064943D01*
X156391213Y-100066494D01*
X156391214Y-100066494D01*
X156490208Y-100082173D01*
X156500000Y-100083724D01*
X156505797Y-100082806D01*
X156696798Y-100066095D01*
X156830284Y-100030328D01*
X156882306Y-100016389D01*
X156882308Y-100016388D01*
X156887616Y-100014966D01*
X156893346Y-100012294D01*
X157061670Y-99933804D01*
X157061675Y-99933801D01*
X157066657Y-99931478D01*
X157200386Y-99837840D01*
X157223969Y-99821327D01*
X157223972Y-99821325D01*
X157228480Y-99818168D01*
X157368168Y-99678480D01*
X157376726Y-99666259D01*
X157451467Y-99559517D01*
X157481478Y-99516657D01*
X157483801Y-99511675D01*
X157483804Y-99511670D01*
X157562643Y-99342598D01*
X157562643Y-99342597D01*
X157564966Y-99337616D01*
X157567775Y-99327135D01*
X157614671Y-99152113D01*
X157614671Y-99152112D01*
X157616095Y-99146798D01*
X157633313Y-98950000D01*
X157616095Y-98753202D01*
X157614671Y-98747887D01*
X157566389Y-98567694D01*
X157566388Y-98567692D01*
X157564966Y-98562384D01*
X157554429Y-98539788D01*
X157483801Y-98388325D01*
X157483799Y-98388322D01*
X157481478Y-98383344D01*
X157368168Y-98221520D01*
X157228480Y-98081832D01*
X157223972Y-98078675D01*
X157223969Y-98078673D01*
X157157051Y-98031817D01*
X157066657Y-97968522D01*
X157061675Y-97966199D01*
X157061670Y-97966196D01*
X156892598Y-97887357D01*
X156892597Y-97887357D01*
X156887616Y-97885034D01*
X156882308Y-97883612D01*
X156882306Y-97883611D01*
X156702113Y-97835329D01*
X156702112Y-97835329D01*
X156696798Y-97833905D01*
X156691322Y-97833426D01*
X156691317Y-97833425D01*
X156609140Y-97826236D01*
X156573658Y-97823132D01*
X156568580Y-97822365D01*
X156566062Y-97821481D01*
X156560509Y-97821000D01*
X156554794Y-97821000D01*
X156543833Y-97820522D01*
X156505797Y-97817194D01*
X156500000Y-97816276D01*
X156488023Y-97818173D01*
X156479967Y-97819449D01*
X156460256Y-97821000D01*
X155765144Y-97821000D01*
X155697023Y-97800998D01*
X155650530Y-97747342D01*
X155640426Y-97677068D01*
X155669920Y-97612488D01*
X155683144Y-97599334D01*
X155735801Y-97554200D01*
X156770557Y-96667266D01*
X156775047Y-96661905D01*
X156824390Y-96602994D01*
X156824391Y-96602993D01*
X156831077Y-96595010D01*
X156852267Y-96539948D01*
X156872655Y-96486971D01*
X156872656Y-96486968D01*
X156876394Y-96477254D01*
X156878974Y-96408484D01*
X156880735Y-96361574D01*
X156880735Y-96361571D01*
X156881125Y-96351168D01*
X156877960Y-96340651D01*
X156852816Y-96257115D01*
X156844759Y-96230348D01*
X156826412Y-96204769D01*
X156777292Y-96136287D01*
X156777290Y-96136285D01*
X156771219Y-96127821D01*
X156668432Y-96054642D01*
X156547484Y-96018704D01*
X156537081Y-96019131D01*
X156537080Y-96019131D01*
X156495140Y-96020854D01*
X156421416Y-96023881D01*
X156411711Y-96027655D01*
X156411708Y-96027656D01*
X156311210Y-96066741D01*
X156311208Y-96066742D01*
X156303821Y-96069615D01*
X156299292Y-96072863D01*
X155420983Y-96825699D01*
X154490129Y-97623574D01*
X154425390Y-97652720D01*
X154355172Y-97642239D01*
X154323842Y-97621565D01*
X152733056Y-96189858D01*
X152695804Y-96129421D01*
X152697140Y-96058437D01*
X152736641Y-95999444D01*
X152775599Y-95977321D01*
X152794302Y-95970753D01*
X152794301Y-95970753D01*
X152803184Y-95967634D01*
X152810754Y-95962042D01*
X152810757Y-95962041D01*
X152895206Y-95899665D01*
X152912150Y-95887150D01*
X152946622Y-95840479D01*
X152987041Y-95785757D01*
X152987042Y-95785754D01*
X152992634Y-95778184D01*
X153008573Y-95732797D01*
X153050015Y-95675153D01*
X153116044Y-95649064D01*
X153185696Y-95662814D01*
X153236857Y-95712039D01*
X153246978Y-95734669D01*
X153294545Y-95877241D01*
X153298450Y-95888946D01*
X153391522Y-96039348D01*
X153396704Y-96044521D01*
X153447592Y-96095320D01*
X153516697Y-96164305D01*
X153522927Y-96168145D01*
X153522928Y-96168146D01*
X153660275Y-96252808D01*
X153667262Y-96257115D01*
X153695271Y-96266405D01*
X153828611Y-96310632D01*
X153828613Y-96310632D01*
X153835139Y-96312797D01*
X153841975Y-96313497D01*
X153841978Y-96313498D01*
X153882563Y-96317656D01*
X153939600Y-96323500D01*
X154540400Y-96323500D01*
X154543646Y-96323163D01*
X154543650Y-96323163D01*
X154639308Y-96313238D01*
X154639312Y-96313237D01*
X154646166Y-96312526D01*
X154652702Y-96310345D01*
X154652704Y-96310345D01*
X154802064Y-96260514D01*
X154813946Y-96256550D01*
X154964348Y-96163478D01*
X155089305Y-96038303D01*
X155096009Y-96027427D01*
X155178275Y-95893968D01*
X155178276Y-95893966D01*
X155182115Y-95887738D01*
X155219265Y-95775735D01*
X155235632Y-95726389D01*
X155235632Y-95726387D01*
X155237797Y-95719861D01*
X155238599Y-95712039D01*
X155243176Y-95667365D01*
X155248500Y-95615400D01*
X155248500Y-94564600D01*
X155245214Y-94532930D01*
X155238238Y-94465692D01*
X155238237Y-94465688D01*
X155237526Y-94458834D01*
X155231920Y-94442029D01*
X155183868Y-94298002D01*
X155181550Y-94291054D01*
X155088478Y-94140652D01*
X155081230Y-94133417D01*
X155040711Y-94092968D01*
X155006632Y-94030685D01*
X155003729Y-94003795D01*
X155003729Y-90552148D01*
X155005011Y-90534217D01*
X155005701Y-90529417D01*
X155006582Y-90523290D01*
X155003763Y-90470685D01*
X155003316Y-90462350D01*
X155004079Y-90452876D01*
X155003729Y-90452876D01*
X155003729Y-89926155D01*
X155023731Y-89858034D01*
X155040556Y-89837137D01*
X155084134Y-89793483D01*
X155089305Y-89788303D01*
X155100798Y-89769658D01*
X155178275Y-89643968D01*
X155178276Y-89643966D01*
X155182115Y-89637738D01*
X155224907Y-89508723D01*
X155265337Y-89450363D01*
X155330902Y-89423126D01*
X155400783Y-89435659D01*
X155452795Y-89483984D01*
X155470500Y-89548390D01*
X155470501Y-89837137D01*
X155470501Y-90112516D01*
X155470870Y-90115911D01*
X155470870Y-90115916D01*
X155475893Y-90162158D01*
X155477169Y-90173906D01*
X155527645Y-90308551D01*
X155533027Y-90315733D01*
X155533028Y-90315734D01*
X155562751Y-90355393D01*
X155608656Y-90416645D01*
X155613882Y-90423618D01*
X155612876Y-90424372D01*
X155642621Y-90478845D01*
X155645500Y-90505628D01*
X155645500Y-90604596D01*
X155645869Y-90607993D01*
X155650189Y-90647756D01*
X155652285Y-90667054D01*
X155655057Y-90674447D01*
X155655057Y-90674449D01*
X155700488Y-90795637D01*
X155700490Y-90795641D01*
X155703641Y-90804046D01*
X155709027Y-90811233D01*
X155709521Y-90812135D01*
X155725000Y-90872643D01*
X155725000Y-91552357D01*
X155709521Y-91612865D01*
X155709027Y-91613767D01*
X155703641Y-91620954D01*
X155700490Y-91629359D01*
X155700488Y-91629363D01*
X155664241Y-91726053D01*
X155652285Y-91757946D01*
X155651432Y-91765794D01*
X155651432Y-91765796D01*
X155649336Y-91785093D01*
X155645500Y-91820404D01*
X155645500Y-91919372D01*
X155625498Y-91987493D01*
X155614950Y-92000582D01*
X155613882Y-92001382D01*
X155527645Y-92116449D01*
X155524493Y-92124857D01*
X155485031Y-92230123D01*
X155477169Y-92251094D01*
X155470500Y-92312483D01*
X155470501Y-93037516D01*
X155470870Y-93040911D01*
X155470870Y-93040916D01*
X155475159Y-93080398D01*
X155477169Y-93098906D01*
X155527645Y-93233551D01*
X155533027Y-93240733D01*
X155533028Y-93240734D01*
X155572172Y-93292964D01*
X155613882Y-93348618D01*
X155621058Y-93353996D01*
X155706773Y-93418235D01*
X155728949Y-93434855D01*
X155737357Y-93438007D01*
X155856199Y-93482559D01*
X155856201Y-93482559D01*
X155863594Y-93485331D01*
X155871442Y-93486184D01*
X155871444Y-93486184D01*
X155921586Y-93491631D01*
X155924983Y-93492000D01*
X156401902Y-93492000D01*
X156470023Y-93512002D01*
X156497712Y-93536170D01*
X156643332Y-93706668D01*
X156647094Y-93709881D01*
X156813657Y-93852140D01*
X156813662Y-93852144D01*
X156817422Y-93855355D01*
X157012629Y-93974977D01*
X157147120Y-94030685D01*
X157205522Y-94054876D01*
X157224145Y-94062590D01*
X157300001Y-94080801D01*
X157441950Y-94114880D01*
X157441956Y-94114881D01*
X157446763Y-94116035D01*
X157542423Y-94123564D01*
X157606241Y-94128587D01*
X157608608Y-94128933D01*
X157608851Y-94129018D01*
X157610133Y-94129129D01*
X157611713Y-94129266D01*
X157611716Y-94129266D01*
X157614416Y-94129500D01*
X157616938Y-94129500D01*
X157620918Y-94129742D01*
X157661015Y-94132898D01*
X157661017Y-94132898D01*
X157672076Y-94133768D01*
X157675000Y-94134231D01*
X157695078Y-94131051D01*
X157714788Y-94129500D01*
X157841840Y-94129500D01*
X157909961Y-94149502D01*
X157956454Y-94203158D01*
X157966558Y-94273432D01*
X157937004Y-94338081D01*
X157921719Y-94355696D01*
X157816181Y-94538126D01*
X157747043Y-94737222D01*
X157746183Y-94743155D01*
X157746182Y-94743158D01*
X157718323Y-94935303D01*
X157716801Y-94945800D01*
X157726545Y-95156333D01*
X157738372Y-95205406D01*
X157769668Y-95335266D01*
X157775924Y-95361226D01*
X157778406Y-95366684D01*
X157778407Y-95366688D01*
X157815299Y-95447827D01*
X157863157Y-95553084D01*
X157927864Y-95644304D01*
X157981561Y-95720002D01*
X157985096Y-95724986D01*
X158137340Y-95870728D01*
X158142375Y-95873979D01*
X158309360Y-95981800D01*
X158309363Y-95981801D01*
X158314397Y-95985052D01*
X158509878Y-96063834D01*
X158632688Y-96087817D01*
X158712283Y-96103361D01*
X158712286Y-96103361D01*
X158716729Y-96104229D01*
X158722270Y-96104500D01*
X159027659Y-96104500D01*
X159184806Y-96089507D01*
X159194511Y-96086660D01*
X159381278Y-96031868D01*
X159387042Y-96030177D01*
X159472863Y-95985976D01*
X159569079Y-95936422D01*
X159569082Y-95936420D01*
X159574410Y-95933676D01*
X159642828Y-95879933D01*
X159735432Y-95807192D01*
X159735436Y-95807188D01*
X159740149Y-95803486D01*
X159777211Y-95760776D01*
X159797510Y-95737384D01*
X159857264Y-95699043D01*
X159928260Y-95699094D01*
X159987959Y-95737521D01*
X160010657Y-95775734D01*
X160027645Y-95821051D01*
X160033027Y-95828233D01*
X160033028Y-95828234D01*
X160071509Y-95879579D01*
X160113882Y-95936118D01*
X160121058Y-95941496D01*
X160221517Y-96016785D01*
X160228949Y-96022355D01*
X160237354Y-96025506D01*
X160237356Y-96025507D01*
X160258710Y-96033512D01*
X160342515Y-96064929D01*
X160399279Y-96107569D01*
X160423678Y-96170560D01*
X160431778Y-96252808D01*
X160476351Y-96399745D01*
X160479267Y-96405200D01*
X160479268Y-96405203D01*
X160537928Y-96514948D01*
X160548733Y-96535163D01*
X160646143Y-96653857D01*
X160764837Y-96751267D01*
X160770295Y-96754184D01*
X160770296Y-96754185D01*
X160894797Y-96820732D01*
X160894800Y-96820733D01*
X160900255Y-96823649D01*
X161045417Y-96867684D01*
X161045418Y-96867684D01*
X161047192Y-96868222D01*
X161047090Y-96868558D01*
X161106990Y-96899890D01*
X161142122Y-96961585D01*
X161145500Y-96990563D01*
X161145501Y-97307940D01*
X161145501Y-97600066D01*
X161146872Y-97606958D01*
X161157046Y-97658110D01*
X161160266Y-97674301D01*
X161216516Y-97758484D01*
X161226832Y-97765377D01*
X161283598Y-97803307D01*
X161300699Y-97814734D01*
X161374933Y-97829500D01*
X161407035Y-97829500D01*
X161744501Y-97829499D01*
X161812620Y-97849501D01*
X161859113Y-97903156D01*
X161870500Y-97955499D01*
X161870500Y-98207296D01*
X161850498Y-98275417D01*
X161819544Y-98302239D01*
X161801671Y-98322865D01*
X161800000Y-98330548D01*
X161800000Y-98764900D01*
X161797579Y-98789481D01*
X161795500Y-98799933D01*
X161795501Y-99133832D01*
X161795501Y-99224000D01*
X161775499Y-99292120D01*
X161721844Y-99338614D01*
X161669501Y-99350000D01*
X161526000Y-99350000D01*
X161457879Y-99329998D01*
X161411386Y-99276342D01*
X161400000Y-99224000D01*
X161400000Y-98335116D01*
X161395525Y-98319877D01*
X161394135Y-98318672D01*
X161386452Y-98317001D01*
X161355331Y-98317001D01*
X161348510Y-98317371D01*
X161297648Y-98322895D01*
X161282393Y-98326522D01*
X161246949Y-98339809D01*
X161176142Y-98344992D01*
X161113773Y-98311071D01*
X161089716Y-98277559D01*
X161084594Y-98267173D01*
X161084588Y-98267162D01*
X161082763Y-98263462D01*
X161077511Y-98255602D01*
X160976606Y-98104586D01*
X160976602Y-98104581D01*
X160974313Y-98101155D01*
X160893831Y-98009383D01*
X160890112Y-98004457D01*
X160889781Y-98003768D01*
X160886186Y-97999492D01*
X160880751Y-97994057D01*
X160875114Y-97988039D01*
X160860344Y-97971197D01*
X160853141Y-97962183D01*
X160852520Y-97961328D01*
X160852519Y-97961327D01*
X160846692Y-97953307D01*
X160830244Y-97941357D01*
X160815209Y-97928515D01*
X160721484Y-97834790D01*
X160708643Y-97819756D01*
X160702522Y-97811331D01*
X160702521Y-97811330D01*
X160696692Y-97803307D01*
X160688667Y-97797477D01*
X160686660Y-97795470D01*
X160683602Y-97793003D01*
X160591411Y-97710617D01*
X160499760Y-97628713D01*
X160285168Y-97476451D01*
X160126388Y-97388696D01*
X160076444Y-97338240D01*
X160064845Y-97307940D01*
X160025482Y-97144607D01*
X160025481Y-97144605D01*
X160024076Y-97138774D01*
X160016378Y-97121842D01*
X159952638Y-96981656D01*
X159936843Y-96946916D01*
X159825419Y-96789837D01*
X159818370Y-96779900D01*
X159818369Y-96779899D01*
X159814904Y-96775014D01*
X159678784Y-96644707D01*
X159666990Y-96633417D01*
X159662660Y-96629272D01*
X159623364Y-96603899D01*
X159490640Y-96518200D01*
X159490637Y-96518199D01*
X159485603Y-96514948D01*
X159290122Y-96436166D01*
X159131570Y-96405203D01*
X159087717Y-96396639D01*
X159087714Y-96396639D01*
X159083271Y-96395771D01*
X159077730Y-96395500D01*
X158772341Y-96395500D01*
X158615194Y-96410493D01*
X158609434Y-96412183D01*
X158609433Y-96412183D01*
X158473871Y-96451953D01*
X158412958Y-96469823D01*
X158373291Y-96490253D01*
X158230921Y-96563578D01*
X158230918Y-96563580D01*
X158225590Y-96566324D01*
X158201444Y-96585291D01*
X158064568Y-96692808D01*
X158064564Y-96692812D01*
X158059851Y-96696514D01*
X158055920Y-96701044D01*
X158055919Y-96701045D01*
X157925650Y-96851165D01*
X157925646Y-96851170D01*
X157921719Y-96855696D01*
X157816181Y-97038126D01*
X157747043Y-97237222D01*
X157746183Y-97243155D01*
X157746182Y-97243158D01*
X157721121Y-97416002D01*
X157716801Y-97445800D01*
X157726545Y-97656333D01*
X157727949Y-97662158D01*
X157771212Y-97841672D01*
X157775924Y-97861226D01*
X157778406Y-97866684D01*
X157778407Y-97866688D01*
X157821119Y-97960627D01*
X157863157Y-98053084D01*
X157899690Y-98104586D01*
X157972548Y-98207296D01*
X157985096Y-98224986D01*
X158137340Y-98370728D01*
X158156854Y-98383328D01*
X158309360Y-98481800D01*
X158309363Y-98481801D01*
X158314397Y-98485052D01*
X158509878Y-98563834D01*
X158611729Y-98583724D01*
X158712283Y-98603361D01*
X158712286Y-98603361D01*
X158716729Y-98604229D01*
X158722270Y-98604500D01*
X159027659Y-98604500D01*
X159184806Y-98589507D01*
X159204519Y-98583724D01*
X159381278Y-98531868D01*
X159387042Y-98530177D01*
X159470304Y-98487294D01*
X159569079Y-98436422D01*
X159569082Y-98436420D01*
X159574410Y-98433676D01*
X159632697Y-98387891D01*
X159735432Y-98307192D01*
X159735436Y-98307188D01*
X159740149Y-98303486D01*
X159755325Y-98285998D01*
X159804674Y-98229128D01*
X159816176Y-98215874D01*
X159875928Y-98177534D01*
X159946925Y-98177584D01*
X159981341Y-98193689D01*
X159994037Y-98202172D01*
X160007112Y-98212205D01*
X160130156Y-98320112D01*
X160143030Y-98334222D01*
X160147480Y-98338672D01*
X160153308Y-98346693D01*
X160161327Y-98352519D01*
X160169756Y-98358643D01*
X160184791Y-98371485D01*
X160278516Y-98465210D01*
X160291357Y-98480244D01*
X160292488Y-98481800D01*
X160303308Y-98496693D01*
X160311327Y-98502519D01*
X160318342Y-98509534D01*
X160317880Y-98509996D01*
X160328652Y-98520153D01*
X160355174Y-98552470D01*
X160389584Y-98594399D01*
X160403300Y-98614926D01*
X160451446Y-98705000D01*
X160459074Y-98719271D01*
X160468524Y-98742084D01*
X160501280Y-98850067D01*
X160502869Y-98855304D01*
X160507687Y-98879528D01*
X160510153Y-98904567D01*
X160516581Y-98969823D01*
X160517101Y-98975107D01*
X160516665Y-98989907D01*
X160517320Y-98989907D01*
X160517320Y-98999825D01*
X160515769Y-99009618D01*
X160517320Y-99019410D01*
X160518949Y-99029695D01*
X160520500Y-99049406D01*
X160520500Y-99260211D01*
X160518949Y-99279921D01*
X160515769Y-99299999D01*
X160517320Y-99309792D01*
X160517320Y-99309795D01*
X160517716Y-99312295D01*
X160518788Y-99321022D01*
X160521323Y-99350000D01*
X160531124Y-99462022D01*
X160532548Y-99467336D01*
X160532548Y-99467337D01*
X160571401Y-99612339D01*
X160573218Y-99619122D01*
X160575540Y-99624102D01*
X160575541Y-99624104D01*
X160639628Y-99761539D01*
X160639631Y-99761544D01*
X160641954Y-99766526D01*
X160645110Y-99771033D01*
X160645111Y-99771035D01*
X160731087Y-99893821D01*
X160735241Y-99899754D01*
X160850246Y-100014759D01*
X160854754Y-100017916D01*
X160854757Y-100017918D01*
X160978965Y-100104889D01*
X160983474Y-100108046D01*
X160988456Y-100110369D01*
X160988461Y-100110372D01*
X161125585Y-100174314D01*
X161130878Y-100176782D01*
X161136186Y-100178204D01*
X161136188Y-100178205D01*
X161259319Y-100211197D01*
X161287978Y-100218876D01*
X161293464Y-100219356D01*
X161293470Y-100219357D01*
X161370237Y-100226074D01*
X161379402Y-100227456D01*
X161383851Y-100229018D01*
X161389416Y-100229500D01*
X161403905Y-100229500D01*
X161414888Y-100229980D01*
X161428979Y-100231213D01*
X161437705Y-100232284D01*
X161440205Y-100232680D01*
X161440208Y-100232680D01*
X161450001Y-100234231D01*
X161470079Y-100231051D01*
X161489789Y-100229500D01*
X162510213Y-100229500D01*
X162529923Y-100231051D01*
X162550001Y-100234231D01*
X162559793Y-100232680D01*
X162559795Y-100232680D01*
X162566399Y-100231634D01*
X162573760Y-100230690D01*
X162647450Y-100223432D01*
X162693008Y-100218945D01*
X162830519Y-100177231D01*
X162835974Y-100174315D01*
X162835977Y-100174314D01*
X162935104Y-100121329D01*
X163004610Y-100106857D01*
X163070906Y-100132261D01*
X163112944Y-100189474D01*
X163120500Y-100232451D01*
X163120500Y-100604140D01*
X163105532Y-100655115D01*
X163100000Y-100680548D01*
X163100000Y-101574000D01*
X163079998Y-101642121D01*
X163026342Y-101688614D01*
X162974000Y-101700000D01*
X162830500Y-101700000D01*
X162762379Y-101679998D01*
X162715886Y-101626342D01*
X162704500Y-101574000D01*
X162704499Y-101156123D01*
X162704499Y-101149934D01*
X162702421Y-101139486D01*
X162700000Y-101114907D01*
X162700000Y-100685116D01*
X162695525Y-100669877D01*
X162694135Y-100668672D01*
X162686452Y-100667001D01*
X162655331Y-100667001D01*
X162648510Y-100667371D01*
X162597648Y-100672895D01*
X162582396Y-100676521D01*
X162461946Y-100721676D01*
X162446351Y-100730214D01*
X162344276Y-100806715D01*
X162331719Y-100819272D01*
X162293652Y-100870065D01*
X162236792Y-100912580D01*
X162192826Y-100920500D01*
X162034593Y-100920501D01*
X162024934Y-100920501D01*
X161950699Y-100935266D01*
X161949864Y-100931066D01*
X161902676Y-100936157D01*
X161899320Y-100935172D01*
X161899301Y-100935266D01*
X161831135Y-100921707D01*
X161825067Y-100920500D01*
X161600037Y-100920500D01*
X161374934Y-100920501D01*
X161346271Y-100926202D01*
X161312874Y-100932844D01*
X161312872Y-100932845D01*
X161300699Y-100935266D01*
X161290379Y-100942161D01*
X161290378Y-100942162D01*
X161231983Y-100981181D01*
X161216516Y-100991516D01*
X161209623Y-101001832D01*
X161204343Y-101009734D01*
X161149866Y-101055262D01*
X161078474Y-101063952D01*
X161046772Y-101058566D01*
X161032995Y-101055422D01*
X160824291Y-100995295D01*
X160775299Y-100981180D01*
X160761969Y-100976516D01*
X160514207Y-100873890D01*
X160501484Y-100867763D01*
X160302814Y-100757962D01*
X160266770Y-100738041D01*
X160254817Y-100730531D01*
X160039683Y-100577884D01*
X159995703Y-100522154D01*
X159988835Y-100451491D01*
X159993571Y-100433792D01*
X160050988Y-100268449D01*
X160050989Y-100268446D01*
X160052957Y-100262778D01*
X160055196Y-100247340D01*
X160082338Y-100060140D01*
X160082338Y-100060137D01*
X160083199Y-100054200D01*
X160073455Y-99843667D01*
X160071836Y-99836946D01*
X160025482Y-99644607D01*
X160025481Y-99644605D01*
X160024076Y-99638774D01*
X160019611Y-99628952D01*
X159946368Y-99467866D01*
X159936843Y-99446916D01*
X159836816Y-99305904D01*
X159818370Y-99279900D01*
X159818369Y-99279899D01*
X159814904Y-99275014D01*
X159672105Y-99138314D01*
X159666990Y-99133417D01*
X159662660Y-99129272D01*
X159616251Y-99099306D01*
X159490640Y-99018200D01*
X159490637Y-99018199D01*
X159485603Y-99014948D01*
X159290122Y-98936166D01*
X159128313Y-98904567D01*
X159087717Y-98896639D01*
X159087714Y-98896639D01*
X159083271Y-98895771D01*
X159077730Y-98895500D01*
X158772341Y-98895500D01*
X158615194Y-98910493D01*
X158609434Y-98912183D01*
X158609433Y-98912183D01*
X158444952Y-98960437D01*
X158412958Y-98969823D01*
X158385787Y-98983817D01*
X158230921Y-99063578D01*
X158230918Y-99063580D01*
X158225590Y-99066324D01*
X158220875Y-99070028D01*
X158064568Y-99192808D01*
X158064564Y-99192812D01*
X158059851Y-99196514D01*
X158055920Y-99201044D01*
X158055919Y-99201045D01*
X157925650Y-99351165D01*
X157925646Y-99351170D01*
X157921719Y-99355696D01*
X157816181Y-99538126D01*
X157747043Y-99737222D01*
X157746183Y-99743155D01*
X157746182Y-99743158D01*
X157718721Y-99932558D01*
X157716801Y-99945800D01*
X157726545Y-100156333D01*
X157738762Y-100207025D01*
X157772575Y-100347328D01*
X157775924Y-100361226D01*
X157778406Y-100366684D01*
X157778407Y-100366688D01*
X157808918Y-100433792D01*
X157863157Y-100553084D01*
X157935533Y-100655115D01*
X157978325Y-100715440D01*
X157985096Y-100724986D01*
X158137340Y-100870728D01*
X158142375Y-100873979D01*
X158309360Y-100981800D01*
X158309363Y-100981801D01*
X158314397Y-100985052D01*
X158509878Y-101063834D01*
X158632688Y-101087817D01*
X158712283Y-101103361D01*
X158712286Y-101103361D01*
X158716729Y-101104229D01*
X158722270Y-101104500D01*
X159027659Y-101104500D01*
X159184806Y-101089507D01*
X159328321Y-101047404D01*
X159399317Y-101047420D01*
X159448407Y-101074949D01*
X159516568Y-101136727D01*
X159516575Y-101136733D01*
X159518868Y-101138811D01*
X159521351Y-101140652D01*
X159521354Y-101140655D01*
X159687715Y-101264037D01*
X159777447Y-101330587D01*
X159780088Y-101332170D01*
X159780097Y-101332176D01*
X160016746Y-101474017D01*
X160053579Y-101496094D01*
X160056357Y-101497408D01*
X160056361Y-101497410D01*
X160123331Y-101529084D01*
X160344604Y-101633738D01*
X160494541Y-101687386D01*
X160644814Y-101741155D01*
X160644822Y-101741157D01*
X160647719Y-101742194D01*
X160778743Y-101775014D01*
X160957002Y-101819666D01*
X160957006Y-101819667D01*
X160960005Y-101820418D01*
X161059716Y-101835208D01*
X161124164Y-101864988D01*
X161157637Y-101911627D01*
X161157845Y-101912130D01*
X161160266Y-101924301D01*
X161167159Y-101934618D01*
X161167160Y-101934619D01*
X161183085Y-101958452D01*
X161216516Y-102008484D01*
X161300699Y-102064734D01*
X161374933Y-102079500D01*
X161407035Y-102079500D01*
X161744501Y-102079499D01*
X161812620Y-102099501D01*
X161859113Y-102153156D01*
X161870500Y-102205499D01*
X161870500Y-102457296D01*
X161850498Y-102525417D01*
X161819544Y-102552239D01*
X161801671Y-102572865D01*
X161800000Y-102580548D01*
X161800000Y-103014900D01*
X161797579Y-103039481D01*
X161795500Y-103049933D01*
X161795501Y-103358916D01*
X161795501Y-103474000D01*
X161775499Y-103542120D01*
X161721844Y-103588614D01*
X161669501Y-103600000D01*
X161526000Y-103600000D01*
X161457879Y-103579998D01*
X161411386Y-103526342D01*
X161400000Y-103474000D01*
X161400000Y-102585116D01*
X161395525Y-102569877D01*
X161394135Y-102568672D01*
X161386452Y-102567001D01*
X161355331Y-102567001D01*
X161348510Y-102567371D01*
X161297648Y-102572895D01*
X161282397Y-102576521D01*
X161209537Y-102603835D01*
X161138730Y-102609018D01*
X161076361Y-102575097D01*
X161054185Y-102545249D01*
X161034816Y-102509012D01*
X160924910Y-102375090D01*
X160790988Y-102265184D01*
X160692241Y-102212402D01*
X160643657Y-102186433D01*
X160643654Y-102186432D01*
X160638199Y-102183516D01*
X160472413Y-102133225D01*
X160422132Y-102128273D01*
X160379813Y-102124105D01*
X160371210Y-102122760D01*
X160366149Y-102120982D01*
X160360584Y-102120500D01*
X160349400Y-102120500D01*
X160337050Y-102119893D01*
X160311633Y-102117390D01*
X160311091Y-102117320D01*
X160310926Y-102117320D01*
X160307931Y-102117025D01*
X160300001Y-102115769D01*
X160289767Y-102117390D01*
X160279924Y-102118949D01*
X160260213Y-102120500D01*
X160096891Y-102120500D01*
X160028770Y-102100498D01*
X159982190Y-102046651D01*
X159957396Y-101992119D01*
X159936843Y-101946916D01*
X159814904Y-101775014D01*
X159683828Y-101649536D01*
X159666990Y-101633417D01*
X159662660Y-101629272D01*
X159558054Y-101561729D01*
X159490640Y-101518200D01*
X159490637Y-101518199D01*
X159485603Y-101514948D01*
X159290122Y-101436166D01*
X159135830Y-101406035D01*
X159087717Y-101396639D01*
X159087714Y-101396639D01*
X159083271Y-101395771D01*
X159077730Y-101395500D01*
X158772341Y-101395500D01*
X158615194Y-101410493D01*
X158609434Y-101412183D01*
X158609433Y-101412183D01*
X158424326Y-101466488D01*
X158412958Y-101469823D01*
X158361950Y-101496094D01*
X158230921Y-101563578D01*
X158230918Y-101563580D01*
X158225590Y-101566324D01*
X158174672Y-101606320D01*
X158064568Y-101692808D01*
X158064564Y-101692812D01*
X158059851Y-101696514D01*
X158055920Y-101701044D01*
X158055919Y-101701045D01*
X157925650Y-101851165D01*
X157925646Y-101851170D01*
X157921719Y-101855696D01*
X157816181Y-102038126D01*
X157747043Y-102237222D01*
X157746183Y-102243155D01*
X157746182Y-102243158D01*
X157717662Y-102439860D01*
X157716801Y-102445800D01*
X157726545Y-102656333D01*
X157734664Y-102690022D01*
X157772589Y-102847386D01*
X157775924Y-102861226D01*
X157778406Y-102866684D01*
X157778407Y-102866688D01*
X157793297Y-102899436D01*
X157863157Y-103053084D01*
X157985096Y-103224986D01*
X158074728Y-103310790D01*
X158117286Y-103351530D01*
X158137340Y-103370728D01*
X158142375Y-103373979D01*
X158309360Y-103481800D01*
X158309363Y-103481801D01*
X158314397Y-103485052D01*
X158509878Y-103563834D01*
X158623481Y-103586019D01*
X158712283Y-103603361D01*
X158712286Y-103603361D01*
X158716729Y-103604229D01*
X158722270Y-103604500D01*
X159027659Y-103604500D01*
X159184806Y-103589507D01*
X159191924Y-103587419D01*
X159381278Y-103531868D01*
X159387042Y-103530177D01*
X159472980Y-103485916D01*
X159569079Y-103436422D01*
X159569082Y-103436420D01*
X159574410Y-103433676D01*
X159651217Y-103373343D01*
X159735432Y-103307192D01*
X159735436Y-103307188D01*
X159740149Y-103303486D01*
X159744081Y-103298955D01*
X159874350Y-103148835D01*
X159874354Y-103148830D01*
X159878281Y-103144304D01*
X159983819Y-102961874D01*
X159985786Y-102956209D01*
X159987234Y-102953047D01*
X160033779Y-102899436D01*
X160101797Y-102879500D01*
X160260211Y-102879500D01*
X160279921Y-102881051D01*
X160292623Y-102883063D01*
X160292624Y-102883063D01*
X160299999Y-102884231D01*
X160299848Y-102885184D01*
X160359441Y-102902682D01*
X160405934Y-102956338D01*
X160415443Y-103000053D01*
X160415769Y-103000001D01*
X160417320Y-103009793D01*
X160418949Y-103020078D01*
X160420500Y-103039789D01*
X160420500Y-103734234D01*
X160418949Y-103753944D01*
X160415769Y-103774022D01*
X160417320Y-103783814D01*
X160417320Y-103783821D01*
X160417347Y-103783992D01*
X160418106Y-103789591D01*
X160432890Y-103920803D01*
X160481676Y-104060223D01*
X160485439Y-104066211D01*
X160485440Y-104066214D01*
X160549165Y-104167631D01*
X160560262Y-104185292D01*
X160664708Y-104289738D01*
X160670702Y-104293505D01*
X160670703Y-104293505D01*
X160783786Y-104364560D01*
X160783789Y-104364561D01*
X160789777Y-104368324D01*
X160865783Y-104394920D01*
X160921687Y-104414482D01*
X160929197Y-104417110D01*
X160936229Y-104417902D01*
X160936232Y-104417903D01*
X160970822Y-104421800D01*
X160985970Y-104423507D01*
X160998383Y-104425537D01*
X161002348Y-104426391D01*
X161009829Y-104429018D01*
X161015394Y-104429500D01*
X161032086Y-104429500D01*
X161046197Y-104430293D01*
X161060412Y-104431895D01*
X161066008Y-104432653D01*
X161066179Y-104432680D01*
X161066186Y-104432680D01*
X161075978Y-104434231D01*
X161096056Y-104431051D01*
X161115766Y-104429500D01*
X162410212Y-104429500D01*
X162429922Y-104431051D01*
X162450000Y-104434231D01*
X162459793Y-104432680D01*
X162460142Y-104432680D01*
X162465669Y-104431971D01*
X162612611Y-104417498D01*
X162618531Y-104415702D01*
X162618537Y-104415701D01*
X162733896Y-104380707D01*
X162768972Y-104370067D01*
X162774426Y-104367152D01*
X162774428Y-104367151D01*
X162907617Y-104295960D01*
X162907618Y-104295959D01*
X162913076Y-104293042D01*
X162917860Y-104289116D01*
X162923008Y-104285676D01*
X162924340Y-104287670D01*
X162979904Y-104264066D01*
X163049883Y-104276043D01*
X163102279Y-104323951D01*
X163120500Y-104389218D01*
X163120500Y-105104140D01*
X163105532Y-105155115D01*
X163100000Y-105180548D01*
X163100000Y-106074000D01*
X163079998Y-106142121D01*
X163026342Y-106188614D01*
X162974000Y-106200000D01*
X162830500Y-106200000D01*
X162762379Y-106179998D01*
X162715886Y-106126342D01*
X162704500Y-106074000D01*
X162704499Y-105656123D01*
X162704499Y-105649934D01*
X162702421Y-105639486D01*
X162700000Y-105614907D01*
X162700000Y-105185116D01*
X162695525Y-105169877D01*
X162694135Y-105168672D01*
X162686452Y-105167001D01*
X162655331Y-105167001D01*
X162648510Y-105167371D01*
X162597648Y-105172895D01*
X162582396Y-105176521D01*
X162461946Y-105221676D01*
X162446351Y-105230214D01*
X162344276Y-105306715D01*
X162331719Y-105319272D01*
X162293652Y-105370065D01*
X162236792Y-105412580D01*
X162192826Y-105420500D01*
X162034593Y-105420501D01*
X162024934Y-105420501D01*
X161950699Y-105435266D01*
X161949864Y-105431066D01*
X161902676Y-105436157D01*
X161899320Y-105435172D01*
X161899301Y-105435266D01*
X161831135Y-105421707D01*
X161825067Y-105420500D01*
X161786029Y-105420500D01*
X161558930Y-105420501D01*
X161490810Y-105400499D01*
X161482226Y-105394463D01*
X161366024Y-105305297D01*
X161366012Y-105305289D01*
X161363844Y-105303625D01*
X161084450Y-105125632D01*
X160968483Y-105065263D01*
X160793049Y-104973937D01*
X160793045Y-104973935D01*
X160790607Y-104972666D01*
X160484549Y-104845893D01*
X160481929Y-104845067D01*
X160481921Y-104845064D01*
X160171232Y-104747104D01*
X160171225Y-104747102D01*
X160168608Y-104746277D01*
X160120082Y-104735519D01*
X160057905Y-104701248D01*
X160029134Y-104649688D01*
X160027433Y-104650274D01*
X160025482Y-104644606D01*
X160024076Y-104638774D01*
X160019637Y-104629009D01*
X159949604Y-104474983D01*
X159936843Y-104446916D01*
X159829762Y-104295960D01*
X159818370Y-104279900D01*
X159818369Y-104279899D01*
X159814904Y-104275014D01*
X159662660Y-104129272D01*
X159624741Y-104104788D01*
X159490640Y-104018200D01*
X159490637Y-104018199D01*
X159485603Y-104014948D01*
X159290122Y-103936166D01*
X159154894Y-103909758D01*
X159087717Y-103896639D01*
X159087714Y-103896639D01*
X159083271Y-103895771D01*
X159077730Y-103895500D01*
X158772341Y-103895500D01*
X158615194Y-103910493D01*
X158609434Y-103912183D01*
X158609433Y-103912183D01*
X158557274Y-103927485D01*
X158412958Y-103969823D01*
X158357088Y-103998598D01*
X158230921Y-104063578D01*
X158230918Y-104063580D01*
X158225590Y-104066324D01*
X158215341Y-104074375D01*
X158064568Y-104192808D01*
X158064564Y-104192812D01*
X158059851Y-104196514D01*
X158055920Y-104201044D01*
X158055919Y-104201045D01*
X157925650Y-104351165D01*
X157925646Y-104351170D01*
X157921719Y-104355696D01*
X157816181Y-104538126D01*
X157747043Y-104737222D01*
X157746183Y-104743155D01*
X157746182Y-104743158D01*
X157717662Y-104939860D01*
X157716801Y-104945800D01*
X157726545Y-105156333D01*
X157775924Y-105361226D01*
X157778406Y-105366684D01*
X157778407Y-105366688D01*
X157813764Y-105444450D01*
X157863157Y-105553084D01*
X157985096Y-105724986D01*
X158137340Y-105870728D01*
X158142375Y-105873979D01*
X158309360Y-105981800D01*
X158309363Y-105981801D01*
X158314397Y-105985052D01*
X158509878Y-106063834D01*
X158632688Y-106087817D01*
X158712283Y-106103361D01*
X158712286Y-106103361D01*
X158716729Y-106104229D01*
X158722270Y-106104500D01*
X159027659Y-106104500D01*
X159184806Y-106089507D01*
X159218917Y-106079500D01*
X159381278Y-106031868D01*
X159387042Y-106030177D01*
X159470304Y-105987294D01*
X159569079Y-105936422D01*
X159569082Y-105936420D01*
X159574410Y-105933676D01*
X159650408Y-105873979D01*
X159735432Y-105807192D01*
X159735436Y-105807188D01*
X159740149Y-105803486D01*
X159761038Y-105779414D01*
X159874350Y-105648835D01*
X159874354Y-105648830D01*
X159878281Y-105644304D01*
X159922282Y-105568245D01*
X159973708Y-105519297D01*
X160043433Y-105505922D01*
X160073793Y-105512706D01*
X160171397Y-105547629D01*
X160341293Y-105608419D01*
X160352717Y-105613151D01*
X160474688Y-105670839D01*
X160605325Y-105732626D01*
X160610746Y-105735190D01*
X160621647Y-105741017D01*
X160685709Y-105779414D01*
X160866477Y-105887762D01*
X160876758Y-105894632D01*
X160934052Y-105937124D01*
X161094560Y-106056165D01*
X161137359Y-106112809D01*
X161145501Y-106157368D01*
X161145501Y-106350066D01*
X161150778Y-106376597D01*
X161157520Y-106410493D01*
X161160266Y-106424301D01*
X161167161Y-106434621D01*
X161167162Y-106434622D01*
X161187242Y-106464673D01*
X161216516Y-106508484D01*
X161244146Y-106526946D01*
X161268252Y-106543053D01*
X161300699Y-106564734D01*
X161374933Y-106579500D01*
X161407035Y-106579500D01*
X161744501Y-106579499D01*
X161812620Y-106599501D01*
X161859113Y-106653156D01*
X161870500Y-106705499D01*
X161870500Y-106877854D01*
X161870030Y-106888726D01*
X161866439Y-106930187D01*
X161868951Y-106940298D01*
X161869524Y-106947582D01*
X161854928Y-107017063D01*
X161814409Y-107058165D01*
X161801671Y-107072865D01*
X161800000Y-107080548D01*
X161800000Y-107514900D01*
X161797579Y-107539481D01*
X161795500Y-107549933D01*
X161795501Y-107855393D01*
X161795501Y-107974000D01*
X161775499Y-108042120D01*
X161721844Y-108088614D01*
X161669501Y-108100000D01*
X160910116Y-108100000D01*
X160894877Y-108104475D01*
X160875347Y-108127013D01*
X160815621Y-108165396D01*
X160780123Y-108170500D01*
X160081584Y-108170500D01*
X160013463Y-108150498D01*
X159966970Y-108096842D01*
X159956866Y-108026568D01*
X159972520Y-107981405D01*
X159980813Y-107967070D01*
X159983819Y-107961874D01*
X160052957Y-107762778D01*
X160060831Y-107708475D01*
X160064686Y-107681885D01*
X160892000Y-107681885D01*
X160896475Y-107697124D01*
X160897865Y-107698329D01*
X160905548Y-107700000D01*
X161381885Y-107700000D01*
X161397124Y-107695525D01*
X161398329Y-107694135D01*
X161400000Y-107686452D01*
X161400000Y-107085116D01*
X161395525Y-107069877D01*
X161394135Y-107068672D01*
X161386452Y-107067001D01*
X161355331Y-107067001D01*
X161348510Y-107067371D01*
X161297648Y-107072895D01*
X161282396Y-107076521D01*
X161161946Y-107121676D01*
X161146351Y-107130214D01*
X161044276Y-107206715D01*
X161031715Y-107219276D01*
X160955214Y-107321351D01*
X160946676Y-107336946D01*
X160901522Y-107457394D01*
X160897895Y-107472649D01*
X160892369Y-107523514D01*
X160892000Y-107530328D01*
X160892000Y-107681885D01*
X160064686Y-107681885D01*
X160082338Y-107560140D01*
X160082338Y-107560137D01*
X160083199Y-107554200D01*
X160073455Y-107343667D01*
X160071836Y-107336946D01*
X160025482Y-107144607D01*
X160025481Y-107144605D01*
X160024076Y-107138774D01*
X160011686Y-107111522D01*
X159939323Y-106952371D01*
X159936843Y-106946916D01*
X159814904Y-106775014D01*
X159695847Y-106661042D01*
X159666990Y-106633417D01*
X159662660Y-106629272D01*
X159583707Y-106578293D01*
X159490640Y-106518200D01*
X159490637Y-106518199D01*
X159485603Y-106514948D01*
X159290122Y-106436166D01*
X159130397Y-106404974D01*
X159087717Y-106396639D01*
X159087714Y-106396639D01*
X159083271Y-106395771D01*
X159077730Y-106395500D01*
X158772341Y-106395500D01*
X158615194Y-106410493D01*
X158609434Y-106412183D01*
X158609433Y-106412183D01*
X158436638Y-106462876D01*
X158412958Y-106469823D01*
X158349929Y-106502285D01*
X158230921Y-106563578D01*
X158230918Y-106563580D01*
X158225590Y-106566324D01*
X158187797Y-106596011D01*
X158064568Y-106692808D01*
X158064564Y-106692812D01*
X158059851Y-106696514D01*
X158055920Y-106701044D01*
X158055919Y-106701045D01*
X157925650Y-106851165D01*
X157925646Y-106851170D01*
X157921719Y-106855696D01*
X157816181Y-107038126D01*
X157747043Y-107237222D01*
X157746183Y-107243155D01*
X157746182Y-107243158D01*
X157717870Y-107438425D01*
X157716801Y-107445800D01*
X157726545Y-107656333D01*
X157727949Y-107662158D01*
X157764541Y-107813992D01*
X157775924Y-107861226D01*
X157778406Y-107866684D01*
X157778407Y-107866688D01*
X157830516Y-107981294D01*
X157863157Y-108053084D01*
X157985096Y-108224986D01*
X158137340Y-108370728D01*
X158142375Y-108373979D01*
X158309360Y-108481800D01*
X158309363Y-108481801D01*
X158314397Y-108485052D01*
X158509878Y-108563834D01*
X158626922Y-108586691D01*
X158712283Y-108603361D01*
X158712286Y-108603361D01*
X158716729Y-108604229D01*
X158722270Y-108604500D01*
X158995619Y-108604500D01*
X159063740Y-108624502D01*
X159077449Y-108634688D01*
X159107163Y-108660066D01*
X159299014Y-108777632D01*
X159303584Y-108779525D01*
X159303588Y-108779527D01*
X159502321Y-108861845D01*
X159506894Y-108863739D01*
X159580191Y-108881336D01*
X159720872Y-108915111D01*
X159720878Y-108915112D01*
X159725685Y-108916266D01*
X159786721Y-108921070D01*
X159880671Y-108928464D01*
X159883420Y-108928867D01*
X159883851Y-108929018D01*
X159885327Y-108929146D01*
X159885335Y-108929147D01*
X159886713Y-108929266D01*
X159886716Y-108929266D01*
X159889416Y-108929500D01*
X159892125Y-108929500D01*
X159893674Y-108929567D01*
X159898114Y-108929837D01*
X159935634Y-108932790D01*
X159935636Y-108932790D01*
X159946097Y-108933613D01*
X159950000Y-108934231D01*
X159970078Y-108931051D01*
X159989788Y-108929500D01*
X162410212Y-108929500D01*
X162429922Y-108931051D01*
X162450000Y-108934231D01*
X162459793Y-108932680D01*
X162460142Y-108932680D01*
X162465669Y-108931971D01*
X162612611Y-108917498D01*
X162618531Y-108915702D01*
X162618537Y-108915701D01*
X162747231Y-108876662D01*
X162768972Y-108870067D01*
X162774426Y-108867152D01*
X162774428Y-108867151D01*
X162907617Y-108795960D01*
X162907618Y-108795959D01*
X162913076Y-108793042D01*
X162918115Y-108788907D01*
X163024979Y-108701204D01*
X163039383Y-108689383D01*
X163109349Y-108604131D01*
X163139116Y-108567860D01*
X163139117Y-108567859D01*
X163143042Y-108563076D01*
X163178677Y-108496407D01*
X163219795Y-108451040D01*
X163283484Y-108408484D01*
X163339734Y-108324301D01*
X163354500Y-108250067D01*
X163354499Y-107549934D01*
X163339734Y-107475699D01*
X163332840Y-107465381D01*
X163332838Y-107465377D01*
X163314828Y-107438425D01*
X163293612Y-107370672D01*
X163312394Y-107302205D01*
X163365211Y-107254762D01*
X163383015Y-107247848D01*
X163439378Y-107230750D01*
X163439381Y-107230749D01*
X163445304Y-107228952D01*
X163567861Y-107163444D01*
X163675284Y-107075284D01*
X163763444Y-106967861D01*
X163777252Y-106942029D01*
X163811554Y-106877854D01*
X163828952Y-106845304D01*
X163852067Y-106769105D01*
X163867496Y-106718246D01*
X163867497Y-106718242D01*
X163869293Y-106712321D01*
X163874344Y-106661037D01*
X163876473Y-106647419D01*
X163879018Y-106640171D01*
X163879500Y-106634606D01*
X163879500Y-106614869D01*
X163880105Y-106602538D01*
X163880387Y-106599678D01*
X163881329Y-106592343D01*
X163882679Y-106583819D01*
X163884231Y-106574023D01*
X163881051Y-106553945D01*
X163879500Y-106534235D01*
X163879500Y-102522146D01*
X163879970Y-102511274D01*
X163881923Y-102488721D01*
X163883561Y-102469813D01*
X163881050Y-102459705D01*
X163880233Y-102449322D01*
X163880873Y-102449272D01*
X163879500Y-102438048D01*
X163879500Y-98939788D01*
X163881051Y-98920077D01*
X163882680Y-98909792D01*
X163884231Y-98900000D01*
X163882680Y-98890207D01*
X163882680Y-98889858D01*
X163881970Y-98884325D01*
X163881498Y-98879528D01*
X163867498Y-98737389D01*
X163865702Y-98731469D01*
X163865701Y-98731463D01*
X163826985Y-98603834D01*
X163820067Y-98581028D01*
X163809679Y-98561592D01*
X163745960Y-98442383D01*
X163745959Y-98442382D01*
X163743042Y-98436924D01*
X163678798Y-98358643D01*
X163643305Y-98315396D01*
X163639383Y-98310617D01*
X163556309Y-98242439D01*
X163517860Y-98210884D01*
X163517859Y-98210883D01*
X163513076Y-98206958D01*
X163489868Y-98194553D01*
X163448752Y-98172576D01*
X163398104Y-98122824D01*
X163382394Y-98053587D01*
X163406610Y-97986848D01*
X163432584Y-97960627D01*
X163455725Y-97943284D01*
X163468285Y-97930724D01*
X163544786Y-97828649D01*
X163553324Y-97813054D01*
X163598478Y-97692606D01*
X163602105Y-97677351D01*
X163607631Y-97626486D01*
X163608000Y-97619672D01*
X163608000Y-97468115D01*
X163603525Y-97452876D01*
X163602135Y-97451671D01*
X163594452Y-97450000D01*
X162830500Y-97450000D01*
X162762379Y-97429998D01*
X162715886Y-97376342D01*
X162704500Y-97324001D01*
X162704499Y-97176001D01*
X162724501Y-97107880D01*
X162778156Y-97061387D01*
X162830499Y-97050000D01*
X163589884Y-97050000D01*
X163605123Y-97045525D01*
X163606328Y-97044135D01*
X163607999Y-97036452D01*
X163607999Y-96880331D01*
X163607629Y-96873510D01*
X163602105Y-96822648D01*
X163598479Y-96807396D01*
X163553324Y-96686946D01*
X163540478Y-96663483D01*
X163543360Y-96661905D01*
X163524127Y-96610452D01*
X163539170Y-96541067D01*
X163590403Y-96490253D01*
X163610522Y-96479499D01*
X163697966Y-96432759D01*
X163833791Y-96321291D01*
X163945259Y-96185466D01*
X163966372Y-96145967D01*
X164016124Y-96095320D01*
X164070676Y-96079550D01*
X164071618Y-96079499D01*
X164075016Y-96079499D01*
X164078391Y-96079132D01*
X164078399Y-96079132D01*
X164128548Y-96073685D01*
X164128552Y-96073684D01*
X164136406Y-96072831D01*
X164271051Y-96022355D01*
X164278484Y-96016785D01*
X164378942Y-95941496D01*
X164386118Y-95936118D01*
X164428491Y-95879579D01*
X164466972Y-95828234D01*
X164466973Y-95828233D01*
X164472355Y-95821051D01*
X164499188Y-95749475D01*
X164520059Y-95693801D01*
X164520059Y-95693799D01*
X164522831Y-95686406D01*
X164524054Y-95675153D01*
X164529131Y-95628414D01*
X164529131Y-95628413D01*
X164529500Y-95625017D01*
X164529499Y-94721885D01*
X164549501Y-94653764D01*
X164566404Y-94632790D01*
X164829736Y-94369458D01*
X164848484Y-94354316D01*
X164849709Y-94353201D01*
X164858460Y-94347551D01*
X164864907Y-94339373D01*
X164864909Y-94339371D01*
X164879249Y-94321180D01*
X164883195Y-94316739D01*
X164883122Y-94316677D01*
X164886481Y-94312713D01*
X164890158Y-94309036D01*
X164901412Y-94293288D01*
X164904918Y-94288618D01*
X164936676Y-94248333D01*
X164939708Y-94239699D01*
X164945034Y-94232246D01*
X164959723Y-94183130D01*
X164961556Y-94177488D01*
X164975910Y-94136613D01*
X164975910Y-94136612D01*
X164978538Y-94129129D01*
X164979020Y-94123564D01*
X164979020Y-94120856D01*
X164979134Y-94118222D01*
X164979163Y-94118124D01*
X164979327Y-94118131D01*
X164979371Y-94117427D01*
X164981233Y-94111202D01*
X164979117Y-94057345D01*
X164979020Y-94052398D01*
X164979020Y-88003440D01*
X164981569Y-87979492D01*
X164981648Y-87977827D01*
X164983840Y-87967644D01*
X164979893Y-87934297D01*
X164979543Y-87928366D01*
X164979448Y-87928374D01*
X164979020Y-87923196D01*
X164979020Y-87917996D01*
X164978166Y-87912864D01*
X164975851Y-87898955D01*
X164975014Y-87893077D01*
X164969301Y-87844810D01*
X164981158Y-87774811D01*
X165028977Y-87722333D01*
X165094428Y-87704000D01*
X165120000Y-87704000D01*
X165188121Y-87724002D01*
G37*
%TD.AperFunction*%
%TA.AperFunction,Conductor*%
G36*
X131462621Y-93737811D02*
G01*
X131509114Y-93791467D01*
X131520500Y-93843809D01*
X131520500Y-98934235D01*
X131518949Y-98953946D01*
X131517431Y-98963532D01*
X131515769Y-98974023D01*
X131518490Y-98991201D01*
X131518671Y-98992341D01*
X131519616Y-98999703D01*
X131530707Y-99112321D01*
X131532503Y-99118242D01*
X131532504Y-99118246D01*
X131539503Y-99141318D01*
X131571048Y-99245304D01*
X131573967Y-99250765D01*
X131614788Y-99327135D01*
X131636556Y-99367861D01*
X131724716Y-99475284D01*
X131832139Y-99563444D01*
X131837597Y-99566361D01*
X131837598Y-99566362D01*
X131928542Y-99614973D01*
X131979190Y-99664726D01*
X131994900Y-99733962D01*
X131969972Y-99801660D01*
X131955214Y-99821352D01*
X131946676Y-99836946D01*
X131901522Y-99957394D01*
X131897895Y-99972649D01*
X131892369Y-100023514D01*
X131892000Y-100030328D01*
X131892000Y-100181885D01*
X131896475Y-100197124D01*
X131897865Y-100198329D01*
X131905548Y-100200000D01*
X132669500Y-100200000D01*
X132737621Y-100220002D01*
X132784114Y-100273658D01*
X132795500Y-100325999D01*
X132795501Y-100473999D01*
X132775499Y-100542120D01*
X132721844Y-100588613D01*
X132669501Y-100600000D01*
X131910116Y-100600000D01*
X131894877Y-100604475D01*
X131893672Y-100605865D01*
X131892001Y-100613548D01*
X131892001Y-100763506D01*
X131871999Y-100831627D01*
X131825397Y-100874628D01*
X131739960Y-100920295D01*
X131713685Y-100934339D01*
X131708902Y-100938264D01*
X131708901Y-100938265D01*
X131651892Y-100985052D01*
X131608315Y-101020815D01*
X131604393Y-101025594D01*
X131535325Y-101109753D01*
X131521839Y-101126185D01*
X131518922Y-101131643D01*
X131518921Y-101131644D01*
X131465103Y-101232332D01*
X131457582Y-101246402D01*
X131455785Y-101252325D01*
X131455784Y-101252328D01*
X131425838Y-101351049D01*
X131386923Y-101410431D01*
X131349494Y-101432455D01*
X131292345Y-101453879D01*
X131237356Y-101474493D01*
X131237354Y-101474494D01*
X131228949Y-101477645D01*
X131221767Y-101483027D01*
X131221766Y-101483028D01*
X131167521Y-101523682D01*
X131113882Y-101563882D01*
X131108504Y-101571058D01*
X131034251Y-101670135D01*
X131027645Y-101678949D01*
X131024494Y-101687355D01*
X131024493Y-101687357D01*
X130981926Y-101800906D01*
X130977169Y-101813594D01*
X130976316Y-101821442D01*
X130976316Y-101821444D01*
X130973207Y-101850066D01*
X130970500Y-101874983D01*
X130970501Y-103225016D01*
X130970870Y-103228411D01*
X130970870Y-103228416D01*
X130970948Y-103229128D01*
X130977169Y-103286406D01*
X131027645Y-103421051D01*
X131033027Y-103428233D01*
X131033028Y-103428234D01*
X131084017Y-103496269D01*
X131113882Y-103536118D01*
X131121058Y-103541496D01*
X131219892Y-103615567D01*
X131228949Y-103622355D01*
X131254727Y-103632019D01*
X131311490Y-103674660D01*
X131336190Y-103741221D01*
X131320983Y-103810570D01*
X131270697Y-103860688D01*
X131254730Y-103867980D01*
X131228949Y-103877645D01*
X131221767Y-103883027D01*
X131221766Y-103883028D01*
X131180747Y-103913770D01*
X131113882Y-103963882D01*
X131108504Y-103971058D01*
X131034933Y-104069225D01*
X131027645Y-104078949D01*
X131024493Y-104087357D01*
X130985840Y-104190465D01*
X130977169Y-104213594D01*
X130970500Y-104274983D01*
X130970501Y-105625016D01*
X130970870Y-105628411D01*
X130970870Y-105628416D01*
X130973880Y-105656123D01*
X130977169Y-105686406D01*
X131027645Y-105821051D01*
X131033027Y-105828233D01*
X131033028Y-105828234D01*
X131082790Y-105894632D01*
X131113882Y-105936118D01*
X131121058Y-105941496D01*
X131121062Y-105941500D01*
X131126725Y-105945744D01*
X131169242Y-106002602D01*
X131174269Y-106073420D01*
X131140211Y-106135715D01*
X131117466Y-106153716D01*
X131006256Y-106222535D01*
X130994855Y-106231571D01*
X130880736Y-106345889D01*
X130871724Y-106357300D01*
X130786963Y-106494808D01*
X130780819Y-106507986D01*
X130729826Y-106661725D01*
X130726960Y-106675090D01*
X130717328Y-106769105D01*
X130717000Y-106775522D01*
X130717000Y-107177885D01*
X130721475Y-107193124D01*
X130722865Y-107194329D01*
X130730548Y-107196000D01*
X131976500Y-107196000D01*
X132044621Y-107216002D01*
X132091114Y-107269658D01*
X132102500Y-107322000D01*
X132102500Y-107597086D01*
X132082498Y-107665207D01*
X132066718Y-107678880D01*
X132068604Y-107680514D01*
X132043171Y-107709865D01*
X132041500Y-107717548D01*
X132041500Y-108814885D01*
X132045975Y-108830124D01*
X132047365Y-108831329D01*
X132055048Y-108833000D01*
X132149430Y-108833000D01*
X132155946Y-108832663D01*
X132251190Y-108822781D01*
X132264586Y-108819888D01*
X132418216Y-108768633D01*
X132431395Y-108762459D01*
X132569728Y-108676856D01*
X132636031Y-108658000D01*
X132641266Y-108658000D01*
X132647781Y-108657663D01*
X132744241Y-108647654D01*
X132757641Y-108644760D01*
X132913209Y-108592859D01*
X132926377Y-108586691D01*
X133065466Y-108500619D01*
X133076867Y-108491583D01*
X133192428Y-108375821D01*
X133194726Y-108372911D01*
X133196803Y-108371438D01*
X133197599Y-108370641D01*
X133197735Y-108370777D01*
X133252641Y-108331847D01*
X133293610Y-108325000D01*
X133589857Y-108325000D01*
X133650365Y-108340479D01*
X133651267Y-108340973D01*
X133658454Y-108346359D01*
X133666859Y-108349510D01*
X133666863Y-108349512D01*
X133788051Y-108394943D01*
X133788053Y-108394943D01*
X133795446Y-108397715D01*
X133803294Y-108398568D01*
X133803296Y-108398568D01*
X133854507Y-108404131D01*
X133857904Y-108404500D01*
X133956872Y-108404500D01*
X134024993Y-108424502D01*
X134038082Y-108435050D01*
X134038882Y-108436118D01*
X134046058Y-108441496D01*
X134112890Y-108491583D01*
X134153949Y-108522355D01*
X134162357Y-108525507D01*
X134281199Y-108570059D01*
X134281201Y-108570059D01*
X134288594Y-108572831D01*
X134296442Y-108573684D01*
X134296444Y-108573684D01*
X134344699Y-108578926D01*
X134349983Y-108579500D01*
X134712446Y-108579500D01*
X135075016Y-108579499D01*
X135078411Y-108579130D01*
X135078416Y-108579130D01*
X135128548Y-108573685D01*
X135128552Y-108573684D01*
X135136406Y-108572831D01*
X135271051Y-108522355D01*
X135312111Y-108491583D01*
X135386118Y-108436118D01*
X135388039Y-108438681D01*
X135436511Y-108412213D01*
X135507326Y-108417278D01*
X135550308Y-108449431D01*
X135552865Y-108446874D01*
X135559215Y-108453224D01*
X135564596Y-108460404D01*
X135571776Y-108465785D01*
X135673054Y-108541689D01*
X135673057Y-108541691D01*
X135680236Y-108547071D01*
X135769954Y-108580704D01*
X135808157Y-108595026D01*
X135808159Y-108595026D01*
X135815552Y-108597798D01*
X135823402Y-108598651D01*
X135823403Y-108598651D01*
X135866759Y-108603361D01*
X135877244Y-108604500D01*
X137322756Y-108604500D01*
X137333241Y-108603361D01*
X137376597Y-108598651D01*
X137376598Y-108598651D01*
X137384448Y-108597798D01*
X137391841Y-108595026D01*
X137391843Y-108595026D01*
X137430046Y-108580704D01*
X137519764Y-108547071D01*
X137526943Y-108541691D01*
X137526946Y-108541689D01*
X137628224Y-108465785D01*
X137635404Y-108460404D01*
X137682919Y-108397005D01*
X137739776Y-108354492D01*
X137810594Y-108349466D01*
X137872888Y-108383526D01*
X137884569Y-108397007D01*
X137908500Y-108428938D01*
X137908504Y-108428942D01*
X137913882Y-108436118D01*
X137921058Y-108441496D01*
X137987890Y-108491583D01*
X138028949Y-108522355D01*
X138037357Y-108525507D01*
X138156199Y-108570059D01*
X138156201Y-108570059D01*
X138163594Y-108572831D01*
X138171442Y-108573684D01*
X138171444Y-108573684D01*
X138219699Y-108578926D01*
X138224983Y-108579500D01*
X138899901Y-108579500D01*
X139575016Y-108579499D01*
X139578411Y-108579130D01*
X139578416Y-108579130D01*
X139628548Y-108573685D01*
X139628552Y-108573684D01*
X139636406Y-108572831D01*
X139771051Y-108522355D01*
X139812111Y-108491583D01*
X139878942Y-108441496D01*
X139886118Y-108436118D01*
X139933489Y-108372911D01*
X139966972Y-108328234D01*
X139966973Y-108328233D01*
X139972355Y-108321051D01*
X140001027Y-108244568D01*
X140043668Y-108187803D01*
X140110230Y-108163103D01*
X140179579Y-108178310D01*
X140229697Y-108228596D01*
X140244248Y-108274970D01*
X140254899Y-108371438D01*
X140258113Y-108400553D01*
X140260723Y-108407684D01*
X140260723Y-108407686D01*
X140309761Y-108541689D01*
X140312553Y-108549319D01*
X140316789Y-108555622D01*
X140316789Y-108555623D01*
X140385584Y-108658000D01*
X140400908Y-108680805D01*
X140406527Y-108685918D01*
X140406528Y-108685919D01*
X140504478Y-108775046D01*
X140518076Y-108787419D01*
X140657293Y-108863008D01*
X140810522Y-108903207D01*
X140894477Y-108904526D01*
X140961319Y-108905576D01*
X140961322Y-108905576D01*
X140968916Y-108905695D01*
X141123332Y-108870329D01*
X141200876Y-108831329D01*
X141258072Y-108802563D01*
X141258075Y-108802561D01*
X141264521Y-108799319D01*
X142785041Y-108799319D01*
X142794923Y-108811809D01*
X142832259Y-108836756D01*
X142842371Y-108842247D01*
X143023081Y-108919885D01*
X143034014Y-108923437D01*
X143225844Y-108966845D01*
X143237253Y-108968347D01*
X143433783Y-108976068D01*
X143445265Y-108975466D01*
X143639905Y-108947245D01*
X143651101Y-108944557D01*
X143837343Y-108881336D01*
X143847840Y-108876662D01*
X143966401Y-108810266D01*
X143976264Y-108800189D01*
X143973309Y-108792519D01*
X143392812Y-108212022D01*
X143378868Y-108204408D01*
X143377035Y-108204539D01*
X143370420Y-108208790D01*
X142791237Y-108787973D01*
X142785041Y-108799319D01*
X141264521Y-108799319D01*
X141264855Y-108799151D01*
X141270626Y-108794222D01*
X141270629Y-108794220D01*
X141379536Y-108701204D01*
X141379536Y-108701203D01*
X141385314Y-108696269D01*
X141477755Y-108567624D01*
X141536842Y-108420641D01*
X141552285Y-108312128D01*
X141558581Y-108267891D01*
X141558581Y-108267888D01*
X141559162Y-108263807D01*
X141559307Y-108250000D01*
X141558567Y-108243880D01*
X141550148Y-108174312D01*
X141540276Y-108092733D01*
X141484280Y-107944546D01*
X141455880Y-107903224D01*
X141398855Y-107820251D01*
X141398854Y-107820249D01*
X141395920Y-107815980D01*
X142242914Y-107815980D01*
X142255777Y-108012233D01*
X142257577Y-108023601D01*
X142305991Y-108214228D01*
X142309829Y-108225066D01*
X142392173Y-108403685D01*
X142397922Y-108413642D01*
X142407850Y-108427690D01*
X142418439Y-108436078D01*
X142431740Y-108429050D01*
X143007978Y-107852812D01*
X143014356Y-107841132D01*
X143744408Y-107841132D01*
X143744539Y-107842965D01*
X143748790Y-107849580D01*
X144328603Y-108429393D01*
X144340983Y-108436153D01*
X144347563Y-108431227D01*
X144416662Y-108307840D01*
X144421336Y-108297343D01*
X144484557Y-108111101D01*
X144487245Y-108099905D01*
X144515762Y-107903224D01*
X144516392Y-107895843D01*
X144517757Y-107843704D01*
X144517514Y-107836305D01*
X144515647Y-107815980D01*
X150882914Y-107815980D01*
X150895777Y-108012233D01*
X150897577Y-108023601D01*
X150945991Y-108214228D01*
X150949829Y-108225066D01*
X151032173Y-108403685D01*
X151037922Y-108413642D01*
X151047850Y-108427690D01*
X151058439Y-108436078D01*
X151071740Y-108429050D01*
X151647978Y-107852812D01*
X151655592Y-107838868D01*
X151655461Y-107837035D01*
X151651210Y-107830420D01*
X151070031Y-107249241D01*
X151057651Y-107242481D01*
X151051685Y-107246947D01*
X150971452Y-107399445D01*
X150967047Y-107410079D01*
X150908724Y-107597910D01*
X150906332Y-107609164D01*
X150883215Y-107804479D01*
X150882914Y-107815980D01*
X144515647Y-107815980D01*
X144499330Y-107638397D01*
X144497233Y-107627083D01*
X144443846Y-107437789D01*
X144439724Y-107427050D01*
X144352736Y-107250656D01*
X144351577Y-107248765D01*
X144342732Y-107242126D01*
X144330312Y-107248898D01*
X143752022Y-107827188D01*
X143744408Y-107841132D01*
X143014356Y-107841132D01*
X143015592Y-107838868D01*
X143015461Y-107837035D01*
X143011210Y-107830420D01*
X142430031Y-107249241D01*
X142417651Y-107242481D01*
X142411685Y-107246947D01*
X142331452Y-107399445D01*
X142327047Y-107410079D01*
X142268724Y-107597910D01*
X142266332Y-107609164D01*
X142243215Y-107804479D01*
X142242914Y-107815980D01*
X141395920Y-107815980D01*
X141394553Y-107813992D01*
X141276275Y-107708611D01*
X141136274Y-107634484D01*
X141079213Y-107620151D01*
X141009304Y-107602591D01*
X140960067Y-107577786D01*
X140901300Y-107529557D01*
X140901293Y-107529552D01*
X140896510Y-107525627D01*
X140890806Y-107522578D01*
X140751349Y-107448037D01*
X140751346Y-107448036D01*
X140745891Y-107445120D01*
X140582461Y-107395544D01*
X140492827Y-107386716D01*
X140483871Y-107385316D01*
X140478649Y-107383482D01*
X140473084Y-107383000D01*
X140461282Y-107383000D01*
X140448933Y-107382393D01*
X140425142Y-107380050D01*
X140423349Y-107379820D01*
X140422807Y-107379820D01*
X140421446Y-107379686D01*
X140412498Y-107378269D01*
X140392421Y-107381449D01*
X140372710Y-107383000D01*
X140126806Y-107383000D01*
X140058685Y-107362998D01*
X140012192Y-107309342D01*
X140008824Y-107301230D01*
X139989334Y-107249241D01*
X139972355Y-107203949D01*
X139965146Y-107194329D01*
X139891496Y-107096058D01*
X139886118Y-107088882D01*
X139887124Y-107088128D01*
X139857379Y-107033655D01*
X139854500Y-107006872D01*
X139854500Y-106907904D01*
X139851516Y-106880436D01*
X142784547Y-106880436D01*
X142788033Y-106888823D01*
X143367188Y-107467978D01*
X143381132Y-107475592D01*
X143382965Y-107475461D01*
X143389580Y-107471210D01*
X143968407Y-106892383D01*
X143974931Y-106880436D01*
X151424547Y-106880436D01*
X151428033Y-106888823D01*
X152007188Y-107467978D01*
X152021132Y-107475592D01*
X152022965Y-107475461D01*
X152029580Y-107471210D01*
X152608407Y-106892383D01*
X152615167Y-106880003D01*
X152609137Y-106871948D01*
X152541459Y-106829246D01*
X152531211Y-106824025D01*
X152348531Y-106751143D01*
X152337504Y-106747876D01*
X152144605Y-106709506D01*
X152133159Y-106708303D01*
X151936507Y-106705730D01*
X151925027Y-106706633D01*
X151731199Y-106739938D01*
X151720079Y-106742918D01*
X151535557Y-106810992D01*
X151525179Y-106815942D01*
X151434146Y-106870101D01*
X151424547Y-106880436D01*
X143974931Y-106880436D01*
X143975167Y-106880003D01*
X143969137Y-106871948D01*
X143901459Y-106829246D01*
X143891211Y-106824025D01*
X143708531Y-106751143D01*
X143697504Y-106747876D01*
X143504605Y-106709506D01*
X143493159Y-106708303D01*
X143296507Y-106705730D01*
X143285027Y-106706633D01*
X143091199Y-106739938D01*
X143080079Y-106742918D01*
X142895557Y-106810992D01*
X142885179Y-106815942D01*
X142794146Y-106870101D01*
X142784547Y-106880436D01*
X139851516Y-106880436D01*
X139850594Y-106871948D01*
X139848568Y-106853296D01*
X139848568Y-106853294D01*
X139847715Y-106845446D01*
X139837809Y-106819022D01*
X139799512Y-106716863D01*
X139799510Y-106716859D01*
X139796359Y-106708454D01*
X139790973Y-106701267D01*
X139790479Y-106700365D01*
X139775000Y-106639857D01*
X139775000Y-106589391D01*
X139795002Y-106521270D01*
X139848658Y-106474777D01*
X139918932Y-106464673D01*
X139985799Y-106496198D01*
X140002463Y-106511360D01*
X140019592Y-106526946D01*
X140037293Y-106543053D01*
X140176510Y-106618642D01*
X140329739Y-106658841D01*
X140413694Y-106660160D01*
X140480536Y-106661210D01*
X140480539Y-106661210D01*
X140488133Y-106661329D01*
X140642549Y-106625963D01*
X140726344Y-106583819D01*
X140777289Y-106558197D01*
X140777292Y-106558195D01*
X140784072Y-106554785D01*
X140789843Y-106549856D01*
X140789846Y-106549854D01*
X140898753Y-106456838D01*
X140898753Y-106456837D01*
X140904531Y-106451903D01*
X140996972Y-106323258D01*
X141056059Y-106176275D01*
X141066633Y-106101978D01*
X141077798Y-106023525D01*
X141077798Y-106023522D01*
X141078379Y-106019441D01*
X141078524Y-106005634D01*
X141059493Y-105848367D01*
X141003497Y-105700180D01*
X140951839Y-105625017D01*
X140918072Y-105575885D01*
X140918071Y-105575883D01*
X140913770Y-105569626D01*
X140840898Y-105504699D01*
X140803343Y-105444450D01*
X140798717Y-105410623D01*
X140798717Y-104720161D01*
X142694393Y-104720161D01*
X142703687Y-104732175D01*
X142744088Y-104760464D01*
X142753584Y-104765947D01*
X142943113Y-104854326D01*
X142953405Y-104858072D01*
X143155401Y-104912196D01*
X143166196Y-104914099D01*
X143374525Y-104932326D01*
X143385475Y-104932326D01*
X143593804Y-104914099D01*
X143604599Y-104912196D01*
X143806595Y-104858072D01*
X143816887Y-104854326D01*
X144006416Y-104765947D01*
X144015912Y-104760464D01*
X144057148Y-104731590D01*
X144065523Y-104721112D01*
X144058457Y-104707668D01*
X143392811Y-104042021D01*
X143378868Y-104034408D01*
X143377034Y-104034539D01*
X143370420Y-104038790D01*
X142700820Y-104708391D01*
X142694393Y-104720161D01*
X140798717Y-104720161D01*
X140798717Y-104659005D01*
X140800268Y-104639294D01*
X140800525Y-104637669D01*
X140803448Y-104619217D01*
X140802641Y-104614122D01*
X140801669Y-104601763D01*
X140788285Y-104431713D01*
X140785768Y-104399733D01*
X140784024Y-104392466D01*
X140741080Y-104213594D01*
X140734372Y-104185653D01*
X140727060Y-104168000D01*
X140652013Y-103986821D01*
X140652012Y-103986819D01*
X140650119Y-103982249D01*
X140535084Y-103794530D01*
X140513081Y-103768768D01*
X140400823Y-103637330D01*
X140371792Y-103572541D01*
X140382397Y-103502341D01*
X140429272Y-103449018D01*
X140496634Y-103429500D01*
X140800141Y-103429500D01*
X140868262Y-103449502D01*
X140895522Y-103473169D01*
X140896672Y-103474501D01*
X140900908Y-103480805D01*
X140906525Y-103485916D01*
X140994336Y-103565817D01*
X141018076Y-103587419D01*
X141157293Y-103663008D01*
X141310522Y-103703207D01*
X141394477Y-103704526D01*
X141461319Y-103705576D01*
X141461322Y-103705576D01*
X141468916Y-103705695D01*
X141623332Y-103670329D01*
X141705186Y-103629161D01*
X141758072Y-103602563D01*
X141758075Y-103602561D01*
X141764855Y-103599151D01*
X141770626Y-103594222D01*
X141770629Y-103594220D01*
X141879536Y-103501204D01*
X141879536Y-103501203D01*
X141885314Y-103496269D01*
X141898802Y-103477499D01*
X141954793Y-103433853D01*
X142025497Y-103427407D01*
X142088461Y-103460209D01*
X142123696Y-103521845D01*
X142126643Y-103562009D01*
X142117674Y-103664525D01*
X142117674Y-103675475D01*
X142135901Y-103883804D01*
X142137804Y-103894599D01*
X142191928Y-104096595D01*
X142195674Y-104106887D01*
X142284054Y-104296417D01*
X142289534Y-104305907D01*
X142318411Y-104347149D01*
X142328886Y-104355523D01*
X142342335Y-104348454D01*
X143380000Y-103310790D01*
X143639190Y-103051599D01*
X143652000Y-103028139D01*
X143652000Y-102962000D01*
X143672002Y-102893879D01*
X143725658Y-102847386D01*
X143778000Y-102836000D01*
X143836674Y-102836000D01*
X143862319Y-102828470D01*
X144013677Y-102677112D01*
X144222762Y-102677112D01*
X144233188Y-102687538D01*
X144243277Y-102693047D01*
X144245118Y-102688111D01*
X144241525Y-102675876D01*
X144240135Y-102674671D01*
X144234930Y-102673539D01*
X144222762Y-102677112D01*
X144013677Y-102677112D01*
X144021000Y-102669789D01*
X144021242Y-102670031D01*
X144047360Y-102643915D01*
X144022283Y-102589011D01*
X144021000Y-102571075D01*
X144021000Y-101922115D01*
X144016525Y-101906876D01*
X144015135Y-101905671D01*
X144007452Y-101904000D01*
X143385116Y-101904000D01*
X143369877Y-101908475D01*
X143368672Y-101909865D01*
X143367001Y-101917548D01*
X143367001Y-101978705D01*
X143367264Y-101984454D01*
X143373132Y-102048315D01*
X143375743Y-102061351D01*
X143422715Y-102211243D01*
X143432049Y-102231916D01*
X143429624Y-102233011D01*
X143444571Y-102289444D01*
X143422760Y-102357007D01*
X143367883Y-102402053D01*
X143329597Y-102411605D01*
X143243995Y-102419094D01*
X143174391Y-102405105D01*
X143123398Y-102355705D01*
X143107670Y-102280732D01*
X143112672Y-102231906D01*
X143113000Y-102225487D01*
X143113000Y-102202114D01*
X143108525Y-102186876D01*
X143107135Y-102185671D01*
X143099452Y-102184000D01*
X142027000Y-102184000D01*
X141958879Y-102163998D01*
X141912386Y-102110342D01*
X141901000Y-102058000D01*
X141901000Y-101802000D01*
X141921002Y-101733879D01*
X141974658Y-101687386D01*
X142027000Y-101676000D01*
X143094885Y-101676000D01*
X143110124Y-101671525D01*
X143111329Y-101670135D01*
X143113000Y-101662452D01*
X143113000Y-101634562D01*
X143112663Y-101628047D01*
X143102394Y-101529084D01*
X143104091Y-101528908D01*
X143108624Y-101466769D01*
X143144786Y-101415159D01*
X143186272Y-101379727D01*
X143189333Y-101377113D01*
X143254123Y-101348082D01*
X143324323Y-101358689D01*
X143353674Y-101377700D01*
X143372865Y-101394329D01*
X143380548Y-101396000D01*
X144403000Y-101396000D01*
X144471121Y-101416002D01*
X144517614Y-101469658D01*
X144529000Y-101522000D01*
X144529000Y-101953885D01*
X144533475Y-101969124D01*
X144537757Y-101972834D01*
X144594356Y-102003739D01*
X144626258Y-102057679D01*
X144628826Y-102066516D01*
X144630050Y-102076861D01*
X144634013Y-102085113D01*
X144635516Y-102094146D01*
X144640463Y-102103315D01*
X144640464Y-102103317D01*
X144659854Y-102139252D01*
X144662551Y-102144545D01*
X144681305Y-102183602D01*
X144681308Y-102183606D01*
X144684739Y-102190752D01*
X144688334Y-102195028D01*
X144690257Y-102196951D01*
X144692029Y-102198883D01*
X144692072Y-102198962D01*
X144691948Y-102199075D01*
X144692424Y-102199615D01*
X144695510Y-102205334D01*
X144703152Y-102212398D01*
X144703155Y-102212402D01*
X144713530Y-102221992D01*
X144749974Y-102282921D01*
X144754000Y-102314516D01*
X144754000Y-102439790D01*
X144751579Y-102464371D01*
X144750497Y-102469813D01*
X144745500Y-102494933D01*
X144745501Y-103063807D01*
X144745501Y-103218000D01*
X144725499Y-103286121D01*
X144671843Y-103332614D01*
X144619501Y-103344000D01*
X144083326Y-103344000D01*
X144057681Y-103351530D01*
X143752021Y-103657189D01*
X143744408Y-103671132D01*
X143744539Y-103672966D01*
X143748790Y-103679580D01*
X144418391Y-104349180D01*
X144430161Y-104355607D01*
X144442176Y-104346311D01*
X144470466Y-104305907D01*
X144475946Y-104296417D01*
X144501904Y-104240749D01*
X144548821Y-104187464D01*
X144616099Y-104167999D01*
X144844669Y-104167999D01*
X144851490Y-104167629D01*
X144902352Y-104162105D01*
X144917604Y-104158479D01*
X145038054Y-104113324D01*
X145053644Y-104104788D01*
X145103096Y-104067726D01*
X145169603Y-104042878D01*
X145238985Y-104057931D01*
X145267757Y-104079457D01*
X145468516Y-104280216D01*
X145483658Y-104298964D01*
X145484773Y-104300189D01*
X145490423Y-104308940D01*
X145498601Y-104315387D01*
X145498603Y-104315389D01*
X145516794Y-104329729D01*
X145521235Y-104333675D01*
X145521297Y-104333602D01*
X145525261Y-104336961D01*
X145528938Y-104340638D01*
X145544686Y-104351892D01*
X145549356Y-104355398D01*
X145589641Y-104387156D01*
X145598275Y-104390188D01*
X145605728Y-104395514D01*
X145654844Y-104410203D01*
X145660486Y-104412036D01*
X145701193Y-104426331D01*
X145708845Y-104429018D01*
X145714410Y-104429500D01*
X145717118Y-104429500D01*
X145719752Y-104429614D01*
X145719850Y-104429643D01*
X145719843Y-104429807D01*
X145720547Y-104429851D01*
X145726772Y-104431713D01*
X145780629Y-104429597D01*
X145785576Y-104429500D01*
X149571086Y-104429500D01*
X149595034Y-104432049D01*
X149596699Y-104432128D01*
X149606882Y-104434320D01*
X149617223Y-104433096D01*
X149626737Y-104431970D01*
X149640229Y-104430373D01*
X149646160Y-104430023D01*
X149646152Y-104429928D01*
X149651330Y-104429500D01*
X149656530Y-104429500D01*
X149661659Y-104428646D01*
X149661662Y-104428646D01*
X149675571Y-104426331D01*
X149681449Y-104425494D01*
X149722007Y-104420694D01*
X149722008Y-104420694D01*
X149732347Y-104419470D01*
X149740599Y-104415507D01*
X149749632Y-104414004D01*
X149758801Y-104409057D01*
X149758803Y-104409056D01*
X149794738Y-104389666D01*
X149800031Y-104386969D01*
X149839088Y-104368215D01*
X149839092Y-104368212D01*
X149846238Y-104364781D01*
X149850514Y-104361186D01*
X149852437Y-104359263D01*
X149854369Y-104357491D01*
X149854448Y-104357448D01*
X149854561Y-104357572D01*
X149855101Y-104357096D01*
X149860820Y-104354010D01*
X149897423Y-104314413D01*
X149900852Y-104310848D01*
X150132243Y-104079457D01*
X150194555Y-104045431D01*
X150265370Y-104050496D01*
X150296904Y-104067726D01*
X150346356Y-104104788D01*
X150361946Y-104113324D01*
X150482394Y-104158478D01*
X150497649Y-104162105D01*
X150548514Y-104167631D01*
X150555328Y-104168000D01*
X150783901Y-104168000D01*
X150852022Y-104188002D01*
X150898095Y-104240749D01*
X150924052Y-104296412D01*
X150929534Y-104305907D01*
X150958411Y-104347149D01*
X150968887Y-104355523D01*
X150982334Y-104348455D01*
X151647979Y-103682811D01*
X151655592Y-103668868D01*
X151655461Y-103667034D01*
X151651210Y-103660421D01*
X151347597Y-103356808D01*
X151324141Y-103344000D01*
X150780500Y-103344000D01*
X150712379Y-103323998D01*
X150665886Y-103270342D01*
X150654500Y-103218000D01*
X150654499Y-102684070D01*
X151154539Y-102684070D01*
X151157237Y-102693260D01*
X151164328Y-102690022D01*
X151181350Y-102673000D01*
X151181630Y-102673280D01*
X151182997Y-102671913D01*
X151178000Y-102673000D01*
X151172115Y-102673000D01*
X151156876Y-102677475D01*
X151155671Y-102678865D01*
X151154539Y-102684070D01*
X150654499Y-102684070D01*
X150654499Y-102501123D01*
X150654499Y-102494934D01*
X150648421Y-102464375D01*
X150646000Y-102439796D01*
X150646000Y-102239609D01*
X150651835Y-102202770D01*
X150652107Y-102202114D01*
X150653261Y-102197307D01*
X150653263Y-102197301D01*
X150684974Y-102065211D01*
X150720326Y-102003642D01*
X150771996Y-101973729D01*
X150793124Y-101967525D01*
X150794329Y-101966135D01*
X150796000Y-101958452D01*
X150796000Y-101522000D01*
X150816002Y-101453879D01*
X150869658Y-101407386D01*
X150922000Y-101396000D01*
X151178000Y-101396000D01*
X151246121Y-101416002D01*
X151292614Y-101469658D01*
X151304000Y-101522000D01*
X151304000Y-102547000D01*
X151283998Y-102615121D01*
X151272626Y-102624975D01*
X151287440Y-102621752D01*
X151353960Y-102646562D01*
X151367547Y-102658336D01*
X151532399Y-102823188D01*
X151555861Y-102836000D01*
X151622000Y-102836000D01*
X151690121Y-102856002D01*
X151736614Y-102909658D01*
X151748000Y-102962000D01*
X151748000Y-103020674D01*
X151755531Y-103046321D01*
X152290115Y-103580905D01*
X152324141Y-103643217D01*
X152319076Y-103714032D01*
X152290115Y-103759095D01*
X152020000Y-104029210D01*
X151340824Y-104708387D01*
X151334394Y-104720162D01*
X151343690Y-104732176D01*
X151384088Y-104760464D01*
X151393584Y-104765947D01*
X151583113Y-104854326D01*
X151593405Y-104858072D01*
X151795401Y-104912196D01*
X151806196Y-104914099D01*
X152014525Y-104932326D01*
X152025475Y-104932326D01*
X152233804Y-104914099D01*
X152244599Y-104912196D01*
X152446595Y-104858072D01*
X152456887Y-104854326D01*
X152588104Y-104793138D01*
X152658295Y-104782477D01*
X152723108Y-104811457D01*
X152761965Y-104870876D01*
X152766617Y-104920939D01*
X152760500Y-104977244D01*
X152760500Y-106322756D01*
X152760869Y-106326152D01*
X152760869Y-106326153D01*
X152766121Y-106374493D01*
X152767202Y-106384448D01*
X152769974Y-106391841D01*
X152769974Y-106391843D01*
X152774897Y-106404974D01*
X152817929Y-106519764D01*
X152823309Y-106526943D01*
X152823311Y-106526946D01*
X152862698Y-106579500D01*
X152904596Y-106635404D01*
X152911776Y-106640785D01*
X153013054Y-106716689D01*
X153013057Y-106716691D01*
X153020236Y-106722071D01*
X153089072Y-106747876D01*
X153148157Y-106770026D01*
X153148159Y-106770026D01*
X153155552Y-106772798D01*
X153163402Y-106773651D01*
X153163403Y-106773651D01*
X153180626Y-106775522D01*
X153217244Y-106779500D01*
X154062756Y-106779500D01*
X154099374Y-106775522D01*
X154116597Y-106773651D01*
X154116598Y-106773651D01*
X154124448Y-106772798D01*
X154131841Y-106770026D01*
X154131843Y-106770026D01*
X154190928Y-106747876D01*
X154259764Y-106722071D01*
X154266943Y-106716691D01*
X154266946Y-106716689D01*
X154368224Y-106640785D01*
X154375404Y-106635404D01*
X154417302Y-106579500D01*
X154456689Y-106526946D01*
X154456691Y-106526943D01*
X154462071Y-106519764D01*
X154505103Y-106404974D01*
X154510026Y-106391843D01*
X154510026Y-106391841D01*
X154512798Y-106384448D01*
X154513880Y-106374493D01*
X154519131Y-106326153D01*
X154519131Y-106326152D01*
X154519500Y-106322756D01*
X154519500Y-104977244D01*
X154512798Y-104915552D01*
X154487079Y-104846946D01*
X154465223Y-104788643D01*
X154465221Y-104788640D01*
X154462071Y-104780236D01*
X154456686Y-104773051D01*
X154452830Y-104766008D01*
X154437661Y-104696651D01*
X154462397Y-104630103D01*
X154519185Y-104587493D01*
X154563349Y-104579499D01*
X154595388Y-104579499D01*
X154602675Y-104578708D01*
X154620086Y-104576817D01*
X154689968Y-104589347D01*
X154741982Y-104637669D01*
X154756810Y-104675296D01*
X154781467Y-104788640D01*
X154785748Y-104808318D01*
X154870822Y-105036411D01*
X154872975Y-105040355D01*
X154872976Y-105040356D01*
X154952021Y-105185116D01*
X154987491Y-105250075D01*
X154990192Y-105253683D01*
X155130682Y-105441357D01*
X155130688Y-105441364D01*
X155133380Y-105444960D01*
X155305520Y-105617100D01*
X155309116Y-105619792D01*
X155309123Y-105619798D01*
X155377307Y-105670839D01*
X155500405Y-105762989D01*
X155502897Y-105764350D01*
X155549113Y-105817686D01*
X155560500Y-105870029D01*
X155560500Y-106322756D01*
X155560869Y-106326152D01*
X155560869Y-106326153D01*
X155566121Y-106374493D01*
X155567202Y-106384448D01*
X155569974Y-106391841D01*
X155569974Y-106391843D01*
X155574897Y-106404974D01*
X155617929Y-106519764D01*
X155623309Y-106526943D01*
X155623311Y-106526946D01*
X155662698Y-106579500D01*
X155704596Y-106635404D01*
X155711776Y-106640785D01*
X155815065Y-106718196D01*
X155857580Y-106775055D01*
X155865500Y-106819022D01*
X155865500Y-107322505D01*
X155845498Y-107390626D01*
X155792750Y-107436700D01*
X155620341Y-107517095D01*
X155620336Y-107517098D01*
X155615354Y-107519421D01*
X155610847Y-107522577D01*
X155610845Y-107522578D01*
X155440054Y-107642167D01*
X155440051Y-107642169D01*
X155435543Y-107645326D01*
X155428094Y-107652775D01*
X155365782Y-107686801D01*
X155294967Y-107681736D01*
X155238131Y-107639189D01*
X155213320Y-107572669D01*
X155213172Y-107568526D01*
X155212629Y-107558510D01*
X155207105Y-107507648D01*
X155203479Y-107492396D01*
X155158324Y-107371946D01*
X155149786Y-107356351D01*
X155073285Y-107254276D01*
X155060724Y-107241715D01*
X154958649Y-107165214D01*
X154943054Y-107156676D01*
X154822606Y-107111522D01*
X154807351Y-107107895D01*
X154756486Y-107102369D01*
X154749672Y-107102000D01*
X153977115Y-107102000D01*
X153961876Y-107106475D01*
X153960671Y-107107865D01*
X153959000Y-107115548D01*
X153959000Y-108738000D01*
X153938998Y-108806121D01*
X153885342Y-108852614D01*
X153833000Y-108864000D01*
X153577000Y-108864000D01*
X153508879Y-108843998D01*
X153462386Y-108790342D01*
X153451000Y-108738000D01*
X153451000Y-107120116D01*
X153446525Y-107104877D01*
X153445135Y-107103672D01*
X153437452Y-107102001D01*
X152958988Y-107102001D01*
X152947963Y-107105238D01*
X152960262Y-107132169D01*
X152957659Y-107133358D01*
X152974882Y-107167767D01*
X152967292Y-107238356D01*
X152939979Y-107279231D01*
X152392022Y-107827188D01*
X152384408Y-107841132D01*
X152384539Y-107842965D01*
X152388790Y-107849580D01*
X152939946Y-108400736D01*
X152973972Y-108463048D01*
X152968907Y-108533863D01*
X152939946Y-108578926D01*
X152758926Y-108759946D01*
X152696614Y-108793972D01*
X152625799Y-108788907D01*
X152580736Y-108759946D01*
X152032812Y-108212022D01*
X152018868Y-108204408D01*
X152017035Y-108204539D01*
X152010420Y-108208790D01*
X151431237Y-108787973D01*
X151425041Y-108799319D01*
X151434923Y-108811809D01*
X151472259Y-108836756D01*
X151482371Y-108842247D01*
X151663081Y-108919885D01*
X151674014Y-108923437D01*
X151865844Y-108966845D01*
X151877253Y-108968347D01*
X152075947Y-108976153D01*
X152143230Y-108998814D01*
X152187581Y-109054253D01*
X152197001Y-109102056D01*
X152197001Y-109570000D01*
X152176999Y-109638121D01*
X152123343Y-109684614D01*
X152071001Y-109696000D01*
X130380000Y-109696000D01*
X130311879Y-109675998D01*
X130265386Y-109622342D01*
X130254000Y-109570000D01*
X130254000Y-108124430D01*
X130717000Y-108124430D01*
X130717337Y-108130946D01*
X130727219Y-108226190D01*
X130730112Y-108239586D01*
X130781367Y-108393216D01*
X130787541Y-108406395D01*
X130872535Y-108543744D01*
X130881571Y-108555145D01*
X130995889Y-108669264D01*
X131007300Y-108678276D01*
X131144808Y-108763037D01*
X131157986Y-108769181D01*
X131311725Y-108820174D01*
X131325090Y-108823040D01*
X131419105Y-108832672D01*
X131425521Y-108833000D01*
X131515385Y-108833000D01*
X131530624Y-108828525D01*
X131531829Y-108827135D01*
X131533500Y-108819452D01*
X131533500Y-107722115D01*
X131529025Y-107706876D01*
X131527635Y-107705671D01*
X131519952Y-107704000D01*
X130735115Y-107704000D01*
X130719876Y-107708475D01*
X130718671Y-107709865D01*
X130717000Y-107717548D01*
X130717000Y-108124430D01*
X130254000Y-108124430D01*
X130254000Y-93843809D01*
X130274002Y-93775688D01*
X130327658Y-93729195D01*
X130380000Y-93717809D01*
X131394500Y-93717809D01*
X131462621Y-93737811D01*
G37*
%TD.AperFunction*%
%TA.AperFunction,Conductor*%
G36*
X134042121Y-98320002D02*
G01*
X134088614Y-98373658D01*
X134100000Y-98426000D01*
X134100000Y-99314884D01*
X134104475Y-99330123D01*
X134105865Y-99331328D01*
X134113548Y-99332999D01*
X134144669Y-99332999D01*
X134151490Y-99332629D01*
X134202352Y-99327105D01*
X134217604Y-99323479D01*
X134338054Y-99278324D01*
X134353649Y-99269786D01*
X134455724Y-99193285D01*
X134468284Y-99180725D01*
X134493673Y-99146848D01*
X134550532Y-99104332D01*
X134621351Y-99099306D01*
X134683644Y-99133365D01*
X134717635Y-99195696D01*
X134720500Y-99222412D01*
X134720500Y-99560211D01*
X134718949Y-99579921D01*
X134715769Y-99599999D01*
X134717724Y-99612339D01*
X134718668Y-99619697D01*
X134731778Y-99752808D01*
X134776351Y-99899745D01*
X134779267Y-99905200D01*
X134779268Y-99905203D01*
X134843495Y-100025364D01*
X134848733Y-100035163D01*
X134946143Y-100153857D01*
X135064837Y-100251267D01*
X135070295Y-100254184D01*
X135070296Y-100254185D01*
X135194797Y-100320732D01*
X135194800Y-100320733D01*
X135200255Y-100323649D01*
X135347192Y-100368222D01*
X135398373Y-100373263D01*
X135413003Y-100374704D01*
X135478835Y-100401287D01*
X135515353Y-100447946D01*
X135560675Y-100547627D01*
X135560679Y-100547634D01*
X135563157Y-100553084D01*
X135635533Y-100655115D01*
X135678325Y-100715440D01*
X135685096Y-100724986D01*
X135837340Y-100870728D01*
X135842375Y-100873979D01*
X136009360Y-100981800D01*
X136009363Y-100981801D01*
X136014397Y-100985052D01*
X136209878Y-101063834D01*
X136332688Y-101087817D01*
X136412283Y-101103361D01*
X136412286Y-101103361D01*
X136416729Y-101104229D01*
X136422270Y-101104500D01*
X136727659Y-101104500D01*
X136884806Y-101089507D01*
X136907713Y-101082787D01*
X137081278Y-101031868D01*
X137087042Y-101030177D01*
X137170304Y-100987294D01*
X137269079Y-100936422D01*
X137269082Y-100936420D01*
X137274410Y-100933676D01*
X137393126Y-100840423D01*
X137459051Y-100814073D01*
X137528758Y-100827548D01*
X137580113Y-100876569D01*
X137596959Y-100939509D01*
X137596959Y-101558518D01*
X137576957Y-101626639D01*
X137523301Y-101673132D01*
X137453027Y-101683236D01*
X137383828Y-101649536D01*
X137366990Y-101633417D01*
X137362660Y-101629272D01*
X137258054Y-101561729D01*
X137190640Y-101518200D01*
X137190637Y-101518199D01*
X137185603Y-101514948D01*
X136990122Y-101436166D01*
X136835830Y-101406035D01*
X136787717Y-101396639D01*
X136787714Y-101396639D01*
X136783271Y-101395771D01*
X136777730Y-101395500D01*
X136472341Y-101395500D01*
X136315194Y-101410493D01*
X136309434Y-101412183D01*
X136309433Y-101412183D01*
X136124326Y-101466488D01*
X136112958Y-101469823D01*
X136061950Y-101496094D01*
X135930921Y-101563578D01*
X135930918Y-101563580D01*
X135925590Y-101566324D01*
X135874672Y-101606320D01*
X135764568Y-101692808D01*
X135764564Y-101692812D01*
X135759851Y-101696514D01*
X135755920Y-101701044D01*
X135755919Y-101701045D01*
X135702490Y-101762616D01*
X135642736Y-101800957D01*
X135571740Y-101800906D01*
X135512041Y-101762479D01*
X135489343Y-101724265D01*
X135480638Y-101701045D01*
X135472355Y-101678949D01*
X135465750Y-101670135D01*
X135391496Y-101571058D01*
X135386118Y-101563882D01*
X135332479Y-101523682D01*
X135278234Y-101483028D01*
X135278233Y-101483027D01*
X135271051Y-101477645D01*
X135140677Y-101428770D01*
X135140675Y-101428769D01*
X135136406Y-101427169D01*
X135136665Y-101426478D01*
X135080314Y-101394283D01*
X135050537Y-101343499D01*
X135034453Y-101290477D01*
X135028088Y-101269495D01*
X135023262Y-101260465D01*
X134971745Y-101164086D01*
X134945259Y-101114534D01*
X134833791Y-100978709D01*
X134697966Y-100867241D01*
X134543005Y-100784412D01*
X134537087Y-100782617D01*
X134537073Y-100782611D01*
X134443924Y-100754355D01*
X134384543Y-100715440D01*
X134355627Y-100650599D01*
X134354500Y-100633781D01*
X134354499Y-100056123D01*
X134354499Y-100049934D01*
X134339734Y-99975699D01*
X134325744Y-99954761D01*
X134290377Y-99901832D01*
X134283484Y-99891516D01*
X134199301Y-99835266D01*
X134125067Y-99820500D01*
X134092965Y-99820500D01*
X133755499Y-99820501D01*
X133687380Y-99800499D01*
X133640887Y-99746844D01*
X133629500Y-99694501D01*
X133629500Y-99442704D01*
X133649502Y-99374583D01*
X133680456Y-99347761D01*
X133698329Y-99327135D01*
X133700000Y-99319452D01*
X133700000Y-98885100D01*
X133702421Y-98860519D01*
X133703293Y-98856135D01*
X133704500Y-98850067D01*
X133704499Y-98425999D01*
X133724501Y-98357880D01*
X133778156Y-98311386D01*
X133830499Y-98300000D01*
X133974000Y-98300000D01*
X134042121Y-98320002D01*
G37*
%TD.AperFunction*%
%TA.AperFunction,Conductor*%
G36*
X143494245Y-100556016D02*
G01*
X143535518Y-100581065D01*
X143599942Y-100639686D01*
X143602506Y-100641078D01*
X143645211Y-100695278D01*
X143652026Y-100765947D01*
X143617376Y-100831312D01*
X143569973Y-100878715D01*
X143507661Y-100912741D01*
X143436846Y-100907676D01*
X143380010Y-100865129D01*
X143355791Y-100804759D01*
X143353682Y-100787331D01*
X143351294Y-100767599D01*
X143332853Y-100718797D01*
X143327485Y-100648004D01*
X143361242Y-100585546D01*
X143423408Y-100551254D01*
X143494245Y-100556016D01*
G37*
%TD.AperFunction*%
%TA.AperFunction,Conductor*%
G36*
X143326568Y-99703002D02*
G01*
X143373061Y-99756658D01*
X143383165Y-99826932D01*
X143375840Y-99854769D01*
X143346033Y-99931221D01*
X143346032Y-99931225D01*
X143343272Y-99938304D01*
X143342280Y-99945837D01*
X143342280Y-99945838D01*
X143333922Y-100009325D01*
X143305200Y-100074252D01*
X143259128Y-100104642D01*
X143291512Y-100119432D01*
X143329896Y-100179158D01*
X143334239Y-100200829D01*
X143338438Y-100238858D01*
X143339979Y-100252820D01*
X143342589Y-100259951D01*
X143342589Y-100259953D01*
X143360780Y-100309662D01*
X143365406Y-100380508D01*
X143330996Y-100442608D01*
X143268474Y-100476247D01*
X143197691Y-100470744D01*
X143158636Y-100447040D01*
X143120468Y-100413034D01*
X143082912Y-100352784D01*
X143079364Y-100302510D01*
X143082462Y-100278979D01*
X143083000Y-100270772D01*
X143083000Y-100214656D01*
X143103002Y-100146535D01*
X143154848Y-100101610D01*
X143114764Y-100076519D01*
X143084505Y-100012294D01*
X143083000Y-99992879D01*
X143083000Y-99809000D01*
X143103002Y-99740879D01*
X143156658Y-99694386D01*
X143209000Y-99683000D01*
X143258447Y-99683000D01*
X143326568Y-99703002D01*
G37*
%TD.AperFunction*%
%TA.AperFunction,Conductor*%
G36*
X151021121Y-97416002D02*
G01*
X151067614Y-97469658D01*
X151079000Y-97522000D01*
X151079000Y-98614884D01*
X151083475Y-98630123D01*
X151084865Y-98631328D01*
X151089294Y-98632291D01*
X151148315Y-98626868D01*
X151167903Y-98622945D01*
X151168408Y-98625466D01*
X151227810Y-98624394D01*
X151288219Y-98661693D01*
X151318873Y-98725731D01*
X151320500Y-98745911D01*
X151320500Y-99525897D01*
X151318949Y-99545607D01*
X151315769Y-99565685D01*
X151317321Y-99575481D01*
X151317321Y-99577804D01*
X151317908Y-99583291D01*
X151320460Y-99628744D01*
X151304308Y-99697879D01*
X151253343Y-99747306D01*
X151183746Y-99761334D01*
X151146442Y-99752217D01*
X151143651Y-99751061D01*
X151133422Y-99746824D01*
X151130802Y-99745998D01*
X151130794Y-99745995D01*
X150818804Y-99647625D01*
X150818799Y-99647624D01*
X150816174Y-99646796D01*
X150491415Y-99574799D01*
X150488696Y-99574441D01*
X150488690Y-99574440D01*
X150347792Y-99555891D01*
X150161617Y-99531381D01*
X150158868Y-99531261D01*
X150158857Y-99531260D01*
X149846045Y-99517602D01*
X149843234Y-99517319D01*
X149839564Y-99517319D01*
X149838896Y-99517290D01*
X149829290Y-99515769D01*
X149809213Y-99518949D01*
X149789502Y-99520500D01*
X148639789Y-99520500D01*
X148620078Y-99518949D01*
X148609795Y-99517320D01*
X148609794Y-99517320D01*
X148600001Y-99515769D01*
X148590204Y-99517321D01*
X148589849Y-99517321D01*
X148570135Y-99515770D01*
X148548779Y-99512388D01*
X148511293Y-99500207D01*
X148482862Y-99485720D01*
X148450974Y-99462551D01*
X148428419Y-99439996D01*
X148405250Y-99408108D01*
X148390763Y-99379677D01*
X148378582Y-99342189D01*
X148378166Y-99339558D01*
X148375200Y-99320835D01*
X148373649Y-99301121D01*
X148373649Y-99300766D01*
X148375201Y-99290969D01*
X148373452Y-99279922D01*
X148372021Y-99270892D01*
X148370470Y-99251181D01*
X148370470Y-98254239D01*
X148390472Y-98186118D01*
X148444128Y-98139625D01*
X148514402Y-98129521D01*
X148578982Y-98159015D01*
X148597821Y-98179380D01*
X148644395Y-98242436D01*
X148644398Y-98242439D01*
X148649990Y-98250010D01*
X148759924Y-98331209D01*
X148888873Y-98376493D01*
X148896515Y-98377215D01*
X148896518Y-98377216D01*
X148911421Y-98378624D01*
X148920685Y-98379500D01*
X149174828Y-98379500D01*
X149429314Y-98379499D01*
X149432262Y-98379220D01*
X149432271Y-98379220D01*
X149453478Y-98377216D01*
X149453480Y-98377216D01*
X149461127Y-98376493D01*
X149590076Y-98331209D01*
X149700010Y-98250010D01*
X149737599Y-98199119D01*
X149752613Y-98178792D01*
X149809174Y-98135881D01*
X149879956Y-98130362D01*
X149942486Y-98163986D01*
X149967628Y-98205209D01*
X149969591Y-98204323D01*
X149978920Y-98224986D01*
X150059824Y-98358574D01*
X150069131Y-98370443D01*
X150179557Y-98480869D01*
X150191426Y-98490176D01*
X150325012Y-98571079D01*
X150338757Y-98577285D01*
X150488644Y-98624256D01*
X150501694Y-98626869D01*
X150556586Y-98631913D01*
X150568124Y-98628525D01*
X150569329Y-98627135D01*
X150571000Y-98619452D01*
X150571000Y-97522000D01*
X150591002Y-97453879D01*
X150644658Y-97407386D01*
X150697000Y-97396000D01*
X150953000Y-97396000D01*
X151021121Y-97416002D01*
G37*
%TD.AperFunction*%
%TA.AperFunction,Conductor*%
G36*
X132737621Y-95720002D02*
G01*
X132784114Y-95773658D01*
X132795500Y-95826000D01*
X132795501Y-96038303D01*
X132795501Y-96250066D01*
X132796709Y-96256138D01*
X132797579Y-96260514D01*
X132800000Y-96285093D01*
X132800000Y-96714884D01*
X132804475Y-96730123D01*
X132805865Y-96731328D01*
X132813548Y-96732999D01*
X132844669Y-96732999D01*
X132851490Y-96732629D01*
X132902352Y-96727105D01*
X132917604Y-96723479D01*
X133038054Y-96678324D01*
X133053649Y-96669786D01*
X133155724Y-96593285D01*
X133168281Y-96580728D01*
X133206348Y-96529935D01*
X133263208Y-96487420D01*
X133307174Y-96479500D01*
X133465407Y-96479499D01*
X133475066Y-96479499D01*
X133549301Y-96464734D01*
X133550136Y-96468934D01*
X133597324Y-96463843D01*
X133600680Y-96464828D01*
X133600699Y-96464734D01*
X133674933Y-96479500D01*
X133899963Y-96479500D01*
X134125066Y-96479499D01*
X134162704Y-96472013D01*
X134187126Y-96467156D01*
X134187128Y-96467155D01*
X134199301Y-96464734D01*
X134209621Y-96457839D01*
X134209622Y-96457838D01*
X134273166Y-96415379D01*
X134273168Y-96415377D01*
X134283484Y-96408484D01*
X134290377Y-96398168D01*
X134290380Y-96398165D01*
X134292475Y-96395029D01*
X134298813Y-96389732D01*
X134299155Y-96389390D01*
X134299186Y-96389421D01*
X134346951Y-96349500D01*
X134417394Y-96340651D01*
X134432122Y-96343953D01*
X134644962Y-96405271D01*
X134658299Y-96409938D01*
X134749132Y-96447562D01*
X134881045Y-96502202D01*
X134893767Y-96508329D01*
X134959214Y-96544500D01*
X135104785Y-96624955D01*
X135116748Y-96632472D01*
X135201784Y-96692808D01*
X135282322Y-96749952D01*
X135313373Y-96771984D01*
X135324419Y-96780793D01*
X135462690Y-96904359D01*
X135476348Y-96916565D01*
X135513813Y-96976872D01*
X135511415Y-97051850D01*
X135468303Y-97176001D01*
X135447043Y-97237222D01*
X135446183Y-97243155D01*
X135446182Y-97243158D01*
X135421121Y-97416002D01*
X135416801Y-97445800D01*
X135426545Y-97656333D01*
X135427949Y-97662158D01*
X135471212Y-97841672D01*
X135475924Y-97861226D01*
X135478406Y-97866684D01*
X135478407Y-97866688D01*
X135521119Y-97960627D01*
X135563157Y-98053084D01*
X135599690Y-98104586D01*
X135672548Y-98207296D01*
X135685096Y-98224986D01*
X135837340Y-98370728D01*
X135856854Y-98383328D01*
X136009360Y-98481800D01*
X136009363Y-98481801D01*
X136014397Y-98485052D01*
X136209878Y-98563834D01*
X136311729Y-98583724D01*
X136412283Y-98603361D01*
X136412286Y-98603361D01*
X136416729Y-98604229D01*
X136422270Y-98604500D01*
X136727659Y-98604500D01*
X136884806Y-98589507D01*
X136904519Y-98583724D01*
X137081278Y-98531868D01*
X137087042Y-98530177D01*
X137170304Y-98487294D01*
X137269079Y-98436422D01*
X137269082Y-98436420D01*
X137274410Y-98433676D01*
X137370019Y-98358574D01*
X137408342Y-98328471D01*
X137474268Y-98302121D01*
X137543974Y-98315596D01*
X137595329Y-98364618D01*
X137612029Y-98433622D01*
X137610623Y-98447271D01*
X137610274Y-98449474D01*
X137609119Y-98454285D01*
X137599028Y-98582509D01*
X137598562Y-98588425D01*
X137597904Y-98592917D01*
X137597441Y-98594237D01*
X137596959Y-98599802D01*
X137596959Y-98603834D01*
X137596571Y-98613720D01*
X137593948Y-98647047D01*
X137593780Y-98648467D01*
X137593780Y-98649183D01*
X137593560Y-98651978D01*
X137592228Y-98660386D01*
X137593779Y-98670179D01*
X137593779Y-98670180D01*
X137595408Y-98680463D01*
X137596959Y-98700174D01*
X137596959Y-99058518D01*
X137576957Y-99126639D01*
X137523301Y-99173132D01*
X137453027Y-99183236D01*
X137383828Y-99149536D01*
X137366990Y-99133417D01*
X137362660Y-99129272D01*
X137316251Y-99099306D01*
X137190640Y-99018200D01*
X137190637Y-99018199D01*
X137185603Y-99014948D01*
X136990122Y-98936166D01*
X136828313Y-98904567D01*
X136787717Y-98896639D01*
X136787714Y-98896639D01*
X136783271Y-98895771D01*
X136777730Y-98895500D01*
X136472341Y-98895500D01*
X136315194Y-98910493D01*
X136309434Y-98912183D01*
X136309433Y-98912183D01*
X136144952Y-98960437D01*
X136112958Y-98969823D01*
X136085787Y-98983817D01*
X135930921Y-99063578D01*
X135930918Y-99063580D01*
X135925590Y-99066324D01*
X135920875Y-99070028D01*
X135764568Y-99192808D01*
X135764564Y-99192812D01*
X135759851Y-99196514D01*
X135755920Y-99201044D01*
X135755919Y-99201045D01*
X135700665Y-99264719D01*
X135640911Y-99303060D01*
X135569915Y-99303009D01*
X135510216Y-99264582D01*
X135480770Y-99199980D01*
X135479500Y-99182138D01*
X135479500Y-98839787D01*
X135481051Y-98820076D01*
X135482680Y-98809790D01*
X135484231Y-98799999D01*
X135482999Y-98792218D01*
X135482681Y-98788177D01*
X135482681Y-98787877D01*
X135482611Y-98787287D01*
X135472015Y-98652658D01*
X135467192Y-98591377D01*
X135466038Y-98586570D01*
X135466037Y-98586564D01*
X135434279Y-98454285D01*
X135418339Y-98387891D01*
X135338255Y-98194553D01*
X135228913Y-98016123D01*
X135225701Y-98012363D01*
X135225698Y-98012358D01*
X135096218Y-97860757D01*
X135093005Y-97856995D01*
X135065408Y-97833425D01*
X134937642Y-97724302D01*
X134937637Y-97724299D01*
X134933877Y-97721087D01*
X134755447Y-97611745D01*
X134562109Y-97531661D01*
X134478631Y-97511620D01*
X134363436Y-97483963D01*
X134363430Y-97483962D01*
X134358623Y-97482808D01*
X134275371Y-97476256D01*
X134221590Y-97472023D01*
X134217342Y-97471401D01*
X134216149Y-97470982D01*
X134210584Y-97470500D01*
X134207196Y-97470500D01*
X134197310Y-97470112D01*
X134162713Y-97467389D01*
X134162123Y-97467319D01*
X134161823Y-97467319D01*
X134157782Y-97467001D01*
X134150001Y-97465769D01*
X134129924Y-97468949D01*
X134110213Y-97470500D01*
X133089788Y-97470500D01*
X133070077Y-97468949D01*
X133050000Y-97465769D01*
X133040207Y-97467320D01*
X133039858Y-97467320D01*
X133034331Y-97468029D01*
X132887389Y-97482502D01*
X132881469Y-97484298D01*
X132881463Y-97484299D01*
X132770338Y-97518009D01*
X132731028Y-97529933D01*
X132725574Y-97532848D01*
X132725572Y-97532849D01*
X132599818Y-97600066D01*
X132586924Y-97606958D01*
X132582141Y-97610883D01*
X132582140Y-97610884D01*
X132485434Y-97690250D01*
X132420087Y-97718004D01*
X132350109Y-97706023D01*
X132297717Y-97658110D01*
X132279500Y-97592851D01*
X132279500Y-96857385D01*
X132299502Y-96789264D01*
X132353158Y-96742771D01*
X132370002Y-96736489D01*
X132397124Y-96728525D01*
X132398329Y-96727135D01*
X132400000Y-96719452D01*
X132400000Y-95826000D01*
X132420002Y-95757879D01*
X132473658Y-95711386D01*
X132526000Y-95700000D01*
X132669500Y-95700000D01*
X132737621Y-95720002D01*
G37*
%TD.AperFunction*%
%TA.AperFunction,Conductor*%
G36*
X139962621Y-88149502D02*
G01*
X140009114Y-88203158D01*
X140020500Y-88255500D01*
X140020500Y-89113964D01*
X140000498Y-89182085D01*
X139946842Y-89228578D01*
X139876568Y-89238682D01*
X139824501Y-89218730D01*
X139749301Y-89168483D01*
X139675067Y-89153717D01*
X139400045Y-89153717D01*
X139124934Y-89153718D01*
X139089182Y-89160829D01*
X139062874Y-89166061D01*
X139062872Y-89166062D01*
X139050699Y-89168483D01*
X139040379Y-89175378D01*
X139040378Y-89175379D01*
X138979985Y-89215733D01*
X138966516Y-89224733D01*
X138910266Y-89308916D01*
X138895500Y-89383150D01*
X138895501Y-90283283D01*
X138901786Y-90314884D01*
X138905316Y-90332629D01*
X138910266Y-90357518D01*
X138917161Y-90367838D01*
X138917162Y-90367839D01*
X138944154Y-90408234D01*
X138966516Y-90441701D01*
X139050699Y-90497951D01*
X139072684Y-90502324D01*
X139135593Y-90535233D01*
X139155534Y-90560068D01*
X139237915Y-90694501D01*
X139242039Y-90701231D01*
X139244404Y-90704000D01*
X139268140Y-90770526D01*
X139252059Y-90839677D01*
X139201144Y-90889157D01*
X139142345Y-90903718D01*
X139124934Y-90903718D01*
X139089182Y-90910829D01*
X139062874Y-90916061D01*
X139062872Y-90916062D01*
X139050699Y-90918483D01*
X139040379Y-90925378D01*
X139040378Y-90925379D01*
X138987961Y-90960404D01*
X138966516Y-90974733D01*
X138910266Y-91058916D01*
X138895500Y-91133150D01*
X138895501Y-92033283D01*
X138896736Y-92039492D01*
X138906558Y-92088873D01*
X138910266Y-92107518D01*
X138917161Y-92117838D01*
X138917162Y-92117839D01*
X138927501Y-92133312D01*
X138966516Y-92191701D01*
X139050699Y-92247951D01*
X139105965Y-92258944D01*
X139119699Y-92261676D01*
X139182609Y-92294584D01*
X139198330Y-92312984D01*
X139240904Y-92373786D01*
X139358942Y-92491824D01*
X139363450Y-92494981D01*
X139363453Y-92494983D01*
X139453277Y-92557878D01*
X139495683Y-92587571D01*
X139500665Y-92589894D01*
X139500670Y-92589897D01*
X139605147Y-92638615D01*
X139646974Y-92658119D01*
X139652282Y-92659541D01*
X139652284Y-92659542D01*
X139685258Y-92668377D01*
X139808216Y-92701323D01*
X139895471Y-92708957D01*
X139904143Y-92710265D01*
X139908362Y-92711746D01*
X139913927Y-92712228D01*
X139927350Y-92712228D01*
X139938328Y-92712707D01*
X139949931Y-92713722D01*
X139954808Y-92714148D01*
X139963527Y-92715219D01*
X139974512Y-92716959D01*
X139994590Y-92713779D01*
X140014300Y-92712228D01*
X140224519Y-92712228D01*
X140292640Y-92732230D01*
X140339133Y-92785886D01*
X140349237Y-92856160D01*
X140319743Y-92920740D01*
X140277770Y-92952422D01*
X140263181Y-92959225D01*
X140263175Y-92959229D01*
X140258188Y-92961554D01*
X140180547Y-93015919D01*
X140107971Y-93066737D01*
X140107968Y-93066739D01*
X140103460Y-93069896D01*
X139969896Y-93203460D01*
X139966739Y-93207968D01*
X139966737Y-93207971D01*
X139945197Y-93238734D01*
X139861554Y-93358188D01*
X139859231Y-93363170D01*
X139859228Y-93363175D01*
X139800556Y-93488998D01*
X139781726Y-93529379D01*
X139780304Y-93534687D01*
X139780303Y-93534689D01*
X139772494Y-93563834D01*
X139732838Y-93711831D01*
X139723813Y-93814995D01*
X139722962Y-93824721D01*
X139722039Y-93830842D01*
X139720982Y-93833851D01*
X139720500Y-93839416D01*
X139720500Y-93847356D01*
X139720021Y-93858335D01*
X139717509Y-93887053D01*
X139717320Y-93888592D01*
X139717320Y-93889211D01*
X139717125Y-93891440D01*
X139715769Y-93900001D01*
X139718499Y-93917238D01*
X139718949Y-93920078D01*
X139720500Y-93939789D01*
X139720500Y-94204330D01*
X139700498Y-94272451D01*
X139646842Y-94318944D01*
X139603489Y-94330009D01*
X139546103Y-94334113D01*
X139541707Y-94335069D01*
X139541702Y-94335070D01*
X139301774Y-94387264D01*
X139301771Y-94387265D01*
X139297376Y-94388221D01*
X139058881Y-94477175D01*
X138835472Y-94599166D01*
X138631699Y-94751709D01*
X138451709Y-94931699D01*
X138299166Y-95135472D01*
X138177175Y-95358881D01*
X138088221Y-95597376D01*
X138087265Y-95601771D01*
X138087264Y-95601774D01*
X138037072Y-95832502D01*
X138034113Y-95846103D01*
X138016106Y-96097869D01*
X138015769Y-96099999D01*
X138017319Y-96109785D01*
X138017319Y-96109787D01*
X138018949Y-96120076D01*
X138020500Y-96139787D01*
X138020500Y-97308138D01*
X138000498Y-97376259D01*
X137946842Y-97422752D01*
X137876568Y-97432856D01*
X137811988Y-97403362D01*
X137772007Y-97337659D01*
X137768716Y-97324001D01*
X137760250Y-97288873D01*
X137725482Y-97144607D01*
X137725481Y-97144605D01*
X137724076Y-97138774D01*
X137716378Y-97121842D01*
X137652638Y-96981656D01*
X137636843Y-96946916D01*
X137525419Y-96789837D01*
X137518370Y-96779900D01*
X137518369Y-96779899D01*
X137514904Y-96775014D01*
X137378784Y-96644707D01*
X137366990Y-96633417D01*
X137362660Y-96629272D01*
X137323364Y-96603899D01*
X137190640Y-96518200D01*
X137190637Y-96518199D01*
X137185603Y-96514948D01*
X136990122Y-96436166D01*
X136831570Y-96405203D01*
X136787717Y-96396639D01*
X136787714Y-96396639D01*
X136783271Y-96395771D01*
X136777730Y-96395500D01*
X136472341Y-96395500D01*
X136315194Y-96410493D01*
X136183170Y-96449225D01*
X136112175Y-96449208D01*
X136058605Y-96417414D01*
X136055339Y-96414148D01*
X136049511Y-96406126D01*
X136041489Y-96400297D01*
X136038976Y-96397784D01*
X136036446Y-96395729D01*
X135827792Y-96206616D01*
X135800246Y-96186186D01*
X135590750Y-96030813D01*
X135588265Y-96028970D01*
X135585625Y-96027387D01*
X135585615Y-96027381D01*
X135335119Y-95877241D01*
X135335120Y-95877241D01*
X135332478Y-95875658D01*
X135329696Y-95874342D01*
X135065689Y-95749475D01*
X135065680Y-95749471D01*
X135062897Y-95748155D01*
X134890320Y-95686406D01*
X134785024Y-95648730D01*
X134785015Y-95648727D01*
X134782116Y-95647690D01*
X134779120Y-95646940D01*
X134779115Y-95646938D01*
X134525479Y-95583406D01*
X134492839Y-95575230D01*
X134457862Y-95570042D01*
X134441450Y-95567607D01*
X134377001Y-95537826D01*
X134343529Y-95491188D01*
X134342155Y-95487870D01*
X134339734Y-95475699D01*
X134330497Y-95461874D01*
X134290377Y-95401832D01*
X134283484Y-95391516D01*
X134244835Y-95365691D01*
X134209620Y-95342161D01*
X134199301Y-95335266D01*
X134125067Y-95320500D01*
X134092965Y-95320500D01*
X133755499Y-95320501D01*
X133687380Y-95300499D01*
X133640887Y-95246844D01*
X133629500Y-95194501D01*
X133629500Y-94942704D01*
X133649502Y-94874583D01*
X133680456Y-94847761D01*
X133698329Y-94827135D01*
X133700000Y-94819452D01*
X133700000Y-94385100D01*
X133702421Y-94360519D01*
X133703293Y-94356135D01*
X133704500Y-94350067D01*
X133704499Y-93925999D01*
X133724501Y-93857880D01*
X133778156Y-93811386D01*
X133830499Y-93800000D01*
X133974000Y-93800000D01*
X134042121Y-93820002D01*
X134088614Y-93873658D01*
X134100000Y-93926000D01*
X134100000Y-94814884D01*
X134104475Y-94830123D01*
X134105865Y-94831328D01*
X134113548Y-94832999D01*
X134144669Y-94832999D01*
X134151490Y-94832629D01*
X134202352Y-94827105D01*
X134217604Y-94823479D01*
X134338054Y-94778324D01*
X134353647Y-94769787D01*
X134358648Y-94766039D01*
X134425155Y-94741193D01*
X134494537Y-94756247D01*
X134544766Y-94806422D01*
X134548405Y-94813616D01*
X134559225Y-94836819D01*
X134559229Y-94836825D01*
X134561554Y-94841812D01*
X134595294Y-94889997D01*
X134666160Y-94991204D01*
X134669896Y-94996540D01*
X134803460Y-95130104D01*
X134807968Y-95133261D01*
X134807971Y-95133263D01*
X134840919Y-95156333D01*
X134958188Y-95238446D01*
X134963170Y-95240769D01*
X134963175Y-95240772D01*
X135124397Y-95315951D01*
X135129379Y-95318274D01*
X135134687Y-95319696D01*
X135134689Y-95319697D01*
X135190931Y-95334767D01*
X135311831Y-95367162D01*
X135367219Y-95372008D01*
X135412257Y-95375948D01*
X135478375Y-95401811D01*
X135515975Y-95449317D01*
X135560673Y-95547622D01*
X135560676Y-95547627D01*
X135563157Y-95553084D01*
X135627864Y-95644304D01*
X135681561Y-95720002D01*
X135685096Y-95724986D01*
X135837340Y-95870728D01*
X135842375Y-95873979D01*
X136009360Y-95981800D01*
X136009363Y-95981801D01*
X136014397Y-95985052D01*
X136209878Y-96063834D01*
X136332688Y-96087817D01*
X136412283Y-96103361D01*
X136412286Y-96103361D01*
X136416729Y-96104229D01*
X136422270Y-96104500D01*
X136727659Y-96104500D01*
X136884806Y-96089507D01*
X136894511Y-96086660D01*
X137081278Y-96031868D01*
X137087042Y-96030177D01*
X137172863Y-95985976D01*
X137269079Y-95936422D01*
X137269082Y-95936420D01*
X137274410Y-95933676D01*
X137342828Y-95879933D01*
X137435432Y-95807192D01*
X137435436Y-95807188D01*
X137440149Y-95803486D01*
X137462105Y-95778184D01*
X137574350Y-95648835D01*
X137574354Y-95648829D01*
X137578281Y-95644304D01*
X137683819Y-95461874D01*
X137752957Y-95262778D01*
X137755268Y-95246844D01*
X137782338Y-95060140D01*
X137782338Y-95060137D01*
X137783199Y-95054200D01*
X137773455Y-94843667D01*
X137771828Y-94836913D01*
X137725482Y-94644607D01*
X137725481Y-94644605D01*
X137724076Y-94638774D01*
X137721356Y-94632790D01*
X137662115Y-94502499D01*
X137636843Y-94446916D01*
X137525681Y-94290207D01*
X137518370Y-94279900D01*
X137518369Y-94279899D01*
X137514904Y-94275014D01*
X137362660Y-94129272D01*
X137265171Y-94066324D01*
X137190640Y-94018200D01*
X137190637Y-94018199D01*
X137185603Y-94014948D01*
X136990122Y-93936166D01*
X136855074Y-93909793D01*
X136787717Y-93896639D01*
X136787714Y-93896639D01*
X136783271Y-93895771D01*
X136777730Y-93895500D01*
X136472341Y-93895500D01*
X136315194Y-93910493D01*
X136309434Y-93912183D01*
X136309433Y-93912183D01*
X136176369Y-93951220D01*
X136112958Y-93969823D01*
X136082801Y-93985355D01*
X135930921Y-94063578D01*
X135930918Y-94063580D01*
X135925590Y-94066324D01*
X135920875Y-94070028D01*
X135764568Y-94192808D01*
X135764564Y-94192812D01*
X135759851Y-94196514D01*
X135755920Y-94201044D01*
X135755919Y-94201045D01*
X135625650Y-94351165D01*
X135625646Y-94351170D01*
X135621719Y-94355696D01*
X135559192Y-94463779D01*
X135519976Y-94531566D01*
X135468551Y-94580515D01*
X135398826Y-94593890D01*
X135353711Y-94580739D01*
X135329395Y-94568350D01*
X135297501Y-94545177D01*
X135254823Y-94502499D01*
X135231651Y-94470606D01*
X135204246Y-94416820D01*
X135192064Y-94379329D01*
X135184902Y-94334113D01*
X135184230Y-94329867D01*
X135182679Y-94310154D01*
X135182679Y-94309798D01*
X135184231Y-94300001D01*
X135181051Y-94279923D01*
X135179500Y-94260213D01*
X135179500Y-94040765D01*
X135181051Y-94021054D01*
X135182680Y-94010771D01*
X135182680Y-94010770D01*
X135184231Y-94000977D01*
X135182679Y-93991181D01*
X135182679Y-93990341D01*
X135182067Y-93985355D01*
X135174211Y-93895566D01*
X135167726Y-93821439D01*
X135162189Y-93800773D01*
X135122503Y-93652665D01*
X135122502Y-93652663D01*
X135121080Y-93647355D01*
X135118757Y-93642373D01*
X135047237Y-93488998D01*
X135047235Y-93488995D01*
X135044914Y-93484017D01*
X134941542Y-93336385D01*
X134814104Y-93208947D01*
X134666472Y-93105575D01*
X134661494Y-93103254D01*
X134661491Y-93103252D01*
X134508116Y-93031732D01*
X134508115Y-93031731D01*
X134503134Y-93029409D01*
X134497826Y-93027987D01*
X134497824Y-93027986D01*
X134444957Y-93013820D01*
X134329050Y-92982763D01*
X134226280Y-92973772D01*
X134219150Y-92972697D01*
X134215660Y-92971471D01*
X134210095Y-92970989D01*
X134199980Y-92970989D01*
X134188997Y-92970509D01*
X134165133Y-92968421D01*
X134160151Y-92967810D01*
X134159308Y-92967810D01*
X134149512Y-92966258D01*
X134139719Y-92967809D01*
X134139718Y-92967809D01*
X134129435Y-92969438D01*
X134109724Y-92970989D01*
X132889299Y-92970989D01*
X132869588Y-92969438D01*
X132859305Y-92967809D01*
X132859304Y-92967809D01*
X132849511Y-92966258D01*
X132835884Y-92968417D01*
X132830293Y-92969174D01*
X132708657Y-92982879D01*
X132701976Y-92985217D01*
X132701975Y-92985217D01*
X132674923Y-92994683D01*
X132574866Y-93029695D01*
X132472535Y-93093995D01*
X132404216Y-93113300D01*
X132336302Y-93092605D01*
X132290359Y-93038478D01*
X132279500Y-92987307D01*
X132279500Y-92357385D01*
X132299502Y-92289264D01*
X132353158Y-92242771D01*
X132370002Y-92236489D01*
X132397124Y-92228525D01*
X132398329Y-92227135D01*
X132400000Y-92219452D01*
X132400000Y-91326000D01*
X132420002Y-91257879D01*
X132473658Y-91211386D01*
X132526000Y-91200000D01*
X132669500Y-91200000D01*
X132737621Y-91220002D01*
X132784114Y-91273658D01*
X132795500Y-91326000D01*
X132795501Y-91552357D01*
X132795501Y-91750066D01*
X132796709Y-91756138D01*
X132797579Y-91760514D01*
X132800000Y-91785093D01*
X132800000Y-92214884D01*
X132804475Y-92230123D01*
X132805865Y-92231328D01*
X132813548Y-92232999D01*
X132844669Y-92232999D01*
X132851490Y-92232629D01*
X132902352Y-92227105D01*
X132917604Y-92223479D01*
X133038054Y-92178324D01*
X133053649Y-92169786D01*
X133155724Y-92093285D01*
X133168281Y-92080728D01*
X133206348Y-92029935D01*
X133263208Y-91987420D01*
X133307174Y-91979500D01*
X133465407Y-91979499D01*
X133475066Y-91979499D01*
X133549301Y-91964734D01*
X133550136Y-91968934D01*
X133597324Y-91963843D01*
X133600680Y-91964828D01*
X133600699Y-91964734D01*
X133674933Y-91979500D01*
X133899963Y-91979500D01*
X134125066Y-91979499D01*
X134160818Y-91972388D01*
X134187126Y-91967156D01*
X134187128Y-91967155D01*
X134199301Y-91964734D01*
X134209621Y-91957839D01*
X134209622Y-91957838D01*
X134273168Y-91915377D01*
X134283484Y-91908484D01*
X134332253Y-91835497D01*
X134386729Y-91789970D01*
X134437017Y-91779500D01*
X134460212Y-91779500D01*
X134479923Y-91781051D01*
X134490206Y-91782680D01*
X134490207Y-91782680D01*
X134500000Y-91784231D01*
X134509797Y-91782679D01*
X134512055Y-91782679D01*
X134535510Y-91781494D01*
X134584247Y-91784231D01*
X134720757Y-91791898D01*
X134734788Y-91793479D01*
X134945792Y-91829329D01*
X134959561Y-91832471D01*
X135165233Y-91891725D01*
X135178548Y-91896384D01*
X135376302Y-91978296D01*
X135389020Y-91984422D01*
X135418454Y-92000689D01*
X135468400Y-92051147D01*
X135483136Y-92120597D01*
X135476532Y-92152300D01*
X135449012Y-92231548D01*
X135449009Y-92231561D01*
X135447043Y-92237222D01*
X135446183Y-92243155D01*
X135446182Y-92243158D01*
X135422934Y-92403500D01*
X135416801Y-92445800D01*
X135426545Y-92656333D01*
X135439999Y-92712157D01*
X135472122Y-92845448D01*
X135475924Y-92861226D01*
X135478406Y-92866684D01*
X135478407Y-92866688D01*
X135519109Y-92956206D01*
X135563157Y-93053084D01*
X135685096Y-93224986D01*
X135771498Y-93307698D01*
X135824241Y-93358188D01*
X135837340Y-93370728D01*
X135842375Y-93373979D01*
X136009360Y-93481800D01*
X136009363Y-93481801D01*
X136014397Y-93485052D01*
X136209878Y-93563834D01*
X136341342Y-93589507D01*
X136412283Y-93603361D01*
X136412286Y-93603361D01*
X136416729Y-93604229D01*
X136422270Y-93604500D01*
X136727659Y-93604500D01*
X136884806Y-93589507D01*
X136912918Y-93581260D01*
X137081278Y-93531868D01*
X137087042Y-93530177D01*
X137174116Y-93485331D01*
X137269079Y-93436422D01*
X137269082Y-93436420D01*
X137274410Y-93433676D01*
X137350408Y-93373979D01*
X137435432Y-93307192D01*
X137435436Y-93307188D01*
X137440149Y-93303486D01*
X137444081Y-93298955D01*
X137574350Y-93148835D01*
X137574354Y-93148830D01*
X137578281Y-93144304D01*
X137683819Y-92961874D01*
X137752957Y-92762778D01*
X137756062Y-92741367D01*
X137782338Y-92560140D01*
X137782338Y-92560137D01*
X137783199Y-92554200D01*
X137773455Y-92343667D01*
X137767326Y-92318233D01*
X137725482Y-92144607D01*
X137725481Y-92144605D01*
X137724076Y-92138774D01*
X137717749Y-92124857D01*
X137646851Y-91968927D01*
X137636843Y-91946916D01*
X137514904Y-91775014D01*
X137362660Y-91629272D01*
X137305639Y-91592454D01*
X137190640Y-91518200D01*
X137190637Y-91518199D01*
X137185603Y-91514948D01*
X136990122Y-91436166D01*
X136855739Y-91409923D01*
X136787717Y-91396639D01*
X136787714Y-91396639D01*
X136783271Y-91395771D01*
X136777730Y-91395500D01*
X136472341Y-91395500D01*
X136315194Y-91410493D01*
X136116821Y-91468690D01*
X136116819Y-91468690D01*
X136112958Y-91469823D01*
X136112740Y-91469079D01*
X136046807Y-91475357D01*
X136005909Y-91459714D01*
X136003891Y-91458504D01*
X135818536Y-91347407D01*
X135815754Y-91346091D01*
X135573189Y-91231366D01*
X135573180Y-91231362D01*
X135570397Y-91230046D01*
X135398961Y-91168705D01*
X135314858Y-91138612D01*
X135314849Y-91138609D01*
X135311950Y-91137572D01*
X135308955Y-91136822D01*
X135308949Y-91136820D01*
X135048678Y-91071626D01*
X135048679Y-91071626D01*
X135045684Y-91070876D01*
X134774162Y-91030600D01*
X134771076Y-91030448D01*
X134771072Y-91030448D01*
X134537013Y-91018949D01*
X134519264Y-91018077D01*
X134511946Y-91017320D01*
X134509795Y-91017320D01*
X134500000Y-91015769D01*
X134483534Y-91018377D01*
X134479923Y-91018949D01*
X134460212Y-91020500D01*
X134437017Y-91020500D01*
X134368896Y-91000498D01*
X134332252Y-90964502D01*
X134324505Y-90952907D01*
X134283484Y-90891516D01*
X134199301Y-90835266D01*
X134125067Y-90820500D01*
X134092965Y-90820500D01*
X133755499Y-90820501D01*
X133687380Y-90800499D01*
X133640887Y-90746844D01*
X133629500Y-90694501D01*
X133629500Y-90442704D01*
X133649502Y-90374583D01*
X133680456Y-90347761D01*
X133698329Y-90327135D01*
X133700000Y-90319452D01*
X133700000Y-90314884D01*
X134100000Y-90314884D01*
X134104475Y-90330123D01*
X134105865Y-90331328D01*
X134113548Y-90332999D01*
X134144669Y-90332999D01*
X134151490Y-90332629D01*
X134202352Y-90327105D01*
X134217604Y-90323479D01*
X134338054Y-90278324D01*
X134353649Y-90269786D01*
X134455724Y-90193285D01*
X134468285Y-90180724D01*
X134544786Y-90078649D01*
X134553324Y-90063054D01*
X134598478Y-89942606D01*
X134602105Y-89927351D01*
X134607631Y-89876486D01*
X134608000Y-89869672D01*
X134608000Y-89718115D01*
X134603525Y-89702876D01*
X134602135Y-89701671D01*
X134594452Y-89700000D01*
X134118115Y-89700000D01*
X134102876Y-89704475D01*
X134101671Y-89705865D01*
X134100000Y-89713548D01*
X134100000Y-90314884D01*
X133700000Y-90314884D01*
X133700000Y-89885100D01*
X133702421Y-89860519D01*
X133703293Y-89856135D01*
X133704500Y-89850067D01*
X133704499Y-89425999D01*
X133724501Y-89357880D01*
X133778156Y-89311386D01*
X133830499Y-89300000D01*
X134589884Y-89300000D01*
X134605123Y-89295525D01*
X134624653Y-89272987D01*
X134684379Y-89234604D01*
X134719877Y-89229500D01*
X135410212Y-89229500D01*
X135429922Y-89231051D01*
X135450000Y-89234231D01*
X135459793Y-89232680D01*
X135469711Y-89232680D01*
X135469711Y-89233334D01*
X135484491Y-89232897D01*
X135486858Y-89233130D01*
X135552690Y-89259705D01*
X135593706Y-89317656D01*
X135596880Y-89388581D01*
X135583583Y-89421617D01*
X135516181Y-89538126D01*
X135447043Y-89737222D01*
X135446183Y-89743155D01*
X135446182Y-89743158D01*
X135429526Y-89858034D01*
X135416801Y-89945800D01*
X135426545Y-90156333D01*
X135435719Y-90194398D01*
X135468719Y-90331328D01*
X135475924Y-90361226D01*
X135478406Y-90366684D01*
X135478407Y-90366688D01*
X135522438Y-90463527D01*
X135563157Y-90553084D01*
X135685096Y-90724986D01*
X135776133Y-90812135D01*
X135807241Y-90841914D01*
X135837340Y-90870728D01*
X135842375Y-90873979D01*
X136009360Y-90981800D01*
X136009363Y-90981801D01*
X136014397Y-90985052D01*
X136209878Y-91063834D01*
X136328059Y-91086913D01*
X136412283Y-91103361D01*
X136412286Y-91103361D01*
X136416729Y-91104229D01*
X136422270Y-91104500D01*
X136727659Y-91104500D01*
X136884806Y-91089507D01*
X136918917Y-91079500D01*
X137081278Y-91031868D01*
X137087042Y-91030177D01*
X137162440Y-90991345D01*
X137269079Y-90936422D01*
X137269082Y-90936420D01*
X137274410Y-90933676D01*
X137341468Y-90881001D01*
X137435432Y-90807192D01*
X137435436Y-90807188D01*
X137440149Y-90803486D01*
X137446960Y-90795637D01*
X137574350Y-90648835D01*
X137574354Y-90648830D01*
X137578281Y-90644304D01*
X137683819Y-90461874D01*
X137752957Y-90262778D01*
X137755537Y-90244989D01*
X137782338Y-90060140D01*
X137782338Y-90060137D01*
X137783199Y-90054200D01*
X137773455Y-89843667D01*
X137771882Y-89837137D01*
X137725482Y-89644607D01*
X137725481Y-89644605D01*
X137724076Y-89638774D01*
X137720447Y-89630791D01*
X137653697Y-89483984D01*
X137636843Y-89446916D01*
X137514904Y-89275014D01*
X137362660Y-89129272D01*
X137335971Y-89112039D01*
X137190640Y-89018200D01*
X137190637Y-89018199D01*
X137185603Y-89014948D01*
X136990122Y-88936166D01*
X136854505Y-88909682D01*
X136787717Y-88896639D01*
X136787714Y-88896639D01*
X136783271Y-88895771D01*
X136777730Y-88895500D01*
X136560730Y-88895500D01*
X136492609Y-88875498D01*
X136471635Y-88858595D01*
X136454168Y-88841128D01*
X136450572Y-88838436D01*
X136450565Y-88838430D01*
X136282631Y-88712717D01*
X136279023Y-88710016D01*
X136087000Y-88605164D01*
X136058533Y-88594546D01*
X136000404Y-88572865D01*
X135882011Y-88528706D01*
X135877625Y-88527752D01*
X135877622Y-88527751D01*
X135753711Y-88500797D01*
X135668226Y-88482201D01*
X135663740Y-88481880D01*
X135663739Y-88481880D01*
X135520310Y-88471621D01*
X135516369Y-88471059D01*
X135516149Y-88470982D01*
X135510584Y-88470500D01*
X135507872Y-88470500D01*
X135505143Y-88470382D01*
X135505144Y-88470358D01*
X135500145Y-88470179D01*
X135486501Y-88469203D01*
X135464872Y-88467656D01*
X135461936Y-88467319D01*
X135460158Y-88467319D01*
X135459486Y-88467271D01*
X135450000Y-88465769D01*
X135429923Y-88468949D01*
X135410212Y-88470500D01*
X132889790Y-88470500D01*
X132870079Y-88468949D01*
X132850002Y-88465769D01*
X132836399Y-88467923D01*
X132830858Y-88468674D01*
X132747655Y-88478048D01*
X132716066Y-88481607D01*
X132716065Y-88481607D01*
X132709038Y-88482399D01*
X132575142Y-88529251D01*
X132569150Y-88533016D01*
X132473020Y-88593419D01*
X132404699Y-88612725D01*
X132336786Y-88592030D01*
X132290843Y-88537903D01*
X132281535Y-88467021D01*
X132282680Y-88459794D01*
X132282680Y-88459792D01*
X132284231Y-88449999D01*
X132282679Y-88440202D01*
X132282679Y-88439846D01*
X132284230Y-88420131D01*
X132292064Y-88370671D01*
X132304246Y-88333180D01*
X132331651Y-88279394D01*
X132354823Y-88247501D01*
X132397501Y-88204823D01*
X132429394Y-88181651D01*
X132483180Y-88154246D01*
X132520671Y-88142064D01*
X132570133Y-88134230D01*
X132589846Y-88132679D01*
X132590202Y-88132679D01*
X132599999Y-88134231D01*
X132609792Y-88132680D01*
X132609793Y-88132680D01*
X132620076Y-88131051D01*
X132639787Y-88129500D01*
X139894500Y-88129500D01*
X139962621Y-88149502D01*
G37*
%TD.AperFunction*%
%TA.AperFunction,Conductor*%
G36*
X143579922Y-93581051D02*
G01*
X143600000Y-93584231D01*
X143609792Y-93582680D01*
X143609796Y-93582680D01*
X143609929Y-93582659D01*
X143635820Y-93581260D01*
X143769296Y-93587817D01*
X143899744Y-93594225D01*
X143912040Y-93595436D01*
X144202774Y-93638563D01*
X144214896Y-93640973D01*
X144292215Y-93660341D01*
X144500004Y-93712390D01*
X144511836Y-93715979D01*
X144788569Y-93814995D01*
X144799993Y-93819727D01*
X144914773Y-93874014D01*
X145053843Y-93939789D01*
X145065687Y-93945391D01*
X145076588Y-93951218D01*
X145188341Y-94018200D01*
X145328690Y-94102322D01*
X145338971Y-94109192D01*
X145575033Y-94284267D01*
X145584592Y-94292111D01*
X145780391Y-94469574D01*
X145797705Y-94488866D01*
X145803613Y-94496997D01*
X145811633Y-94502824D01*
X145820058Y-94508945D01*
X145835092Y-94521786D01*
X146518712Y-95205406D01*
X146552738Y-95267718D01*
X146547673Y-95338533D01*
X146505126Y-95395369D01*
X146438606Y-95420180D01*
X146429625Y-95420501D01*
X146304612Y-95420501D01*
X146301218Y-95420870D01*
X146301212Y-95420870D01*
X146253834Y-95426016D01*
X146253830Y-95426017D01*
X146245976Y-95426870D01*
X146173360Y-95454092D01*
X146143246Y-95465381D01*
X146117365Y-95475083D01*
X146110186Y-95480463D01*
X146110183Y-95480465D01*
X146095876Y-95491188D01*
X146050402Y-95525270D01*
X146044308Y-95529837D01*
X145977802Y-95554685D01*
X145908419Y-95539633D01*
X145861598Y-95495314D01*
X145832212Y-95447827D01*
X145823176Y-95436426D01*
X145712571Y-95326014D01*
X145701160Y-95317002D01*
X145568120Y-95234996D01*
X145554939Y-95228849D01*
X145406186Y-95179509D01*
X145392810Y-95176642D01*
X145301903Y-95167328D01*
X145296874Y-95167071D01*
X145281876Y-95171475D01*
X145280671Y-95172865D01*
X145279000Y-95180548D01*
X145279000Y-96278000D01*
X145258998Y-96346121D01*
X145205342Y-96392614D01*
X145153000Y-96404000D01*
X144897000Y-96404000D01*
X144828879Y-96383998D01*
X144782386Y-96330342D01*
X144771000Y-96278000D01*
X144771000Y-95185115D01*
X144766525Y-95169876D01*
X144765135Y-95168671D01*
X144757452Y-95167000D01*
X144754562Y-95167000D01*
X144748047Y-95167337D01*
X144655943Y-95176894D01*
X144642539Y-95179789D01*
X144613219Y-95189571D01*
X144542269Y-95192156D01*
X144481185Y-95155973D01*
X144449360Y-95092509D01*
X144448599Y-95052295D01*
X144467024Y-94922832D01*
X144467024Y-94922829D01*
X144467605Y-94918748D01*
X144467750Y-94904941D01*
X144465070Y-94882790D01*
X144459518Y-94836913D01*
X144448719Y-94747674D01*
X144392723Y-94599487D01*
X144366386Y-94561166D01*
X144307298Y-94475192D01*
X144307297Y-94475190D01*
X144302996Y-94468933D01*
X144278285Y-94446916D01*
X144222000Y-94396769D01*
X144184718Y-94363552D01*
X144177332Y-94359641D01*
X144105560Y-94321640D01*
X144044717Y-94289425D01*
X143891076Y-94250833D01*
X143883477Y-94250793D01*
X143883476Y-94250793D01*
X143817624Y-94250448D01*
X143732664Y-94250003D01*
X143725284Y-94251775D01*
X143725282Y-94251775D01*
X143586006Y-94285212D01*
X143586003Y-94285213D01*
X143578627Y-94286984D01*
X143437857Y-94359641D01*
X143318482Y-94463779D01*
X143227393Y-94593385D01*
X143209697Y-94638774D01*
X143175271Y-94727070D01*
X143131890Y-94783272D01*
X143057878Y-94807300D01*
X142569792Y-94807300D01*
X142545844Y-94804751D01*
X142544179Y-94804672D01*
X142533996Y-94802480D01*
X142523655Y-94803704D01*
X142500649Y-94806427D01*
X142494718Y-94806777D01*
X142494726Y-94806872D01*
X142489548Y-94807300D01*
X142484348Y-94807300D01*
X142479219Y-94808154D01*
X142479216Y-94808154D01*
X142465307Y-94810469D01*
X142459429Y-94811306D01*
X142418871Y-94816106D01*
X142418870Y-94816106D01*
X142408531Y-94817330D01*
X142400279Y-94821293D01*
X142391246Y-94822796D01*
X142382077Y-94827743D01*
X142382075Y-94827744D01*
X142356003Y-94841812D01*
X142347649Y-94846320D01*
X142346140Y-94847134D01*
X142340847Y-94849831D01*
X142301790Y-94868585D01*
X142301786Y-94868588D01*
X142294640Y-94872019D01*
X142290364Y-94875614D01*
X142288441Y-94877537D01*
X142286509Y-94879309D01*
X142286430Y-94879352D01*
X142286317Y-94879228D01*
X142285777Y-94879704D01*
X142280058Y-94882790D01*
X142272991Y-94890435D01*
X142243456Y-94922386D01*
X142240026Y-94925952D01*
X141860873Y-95305105D01*
X141798561Y-95339131D01*
X141723560Y-95332419D01*
X141669060Y-95309844D01*
X141653242Y-95305606D01*
X141553981Y-95292538D01*
X141545772Y-95292000D01*
X141354228Y-95292000D01*
X141346026Y-95292538D01*
X141340806Y-95293225D01*
X141270657Y-95282287D01*
X141217558Y-95235160D01*
X141198366Y-95166807D01*
X141203782Y-95131727D01*
X141205457Y-95126207D01*
X141227300Y-95054200D01*
X141244613Y-94997126D01*
X141244614Y-94997122D01*
X141246409Y-94991204D01*
X141254981Y-94904168D01*
X141256433Y-94894883D01*
X141258315Y-94889524D01*
X141258797Y-94883959D01*
X141258797Y-94871612D01*
X141259404Y-94859263D01*
X141261605Y-94836913D01*
X141261976Y-94834020D01*
X141261976Y-94833170D01*
X141263528Y-94823374D01*
X141261903Y-94813110D01*
X141260578Y-94804751D01*
X141260348Y-94803296D01*
X141258797Y-94783586D01*
X141258797Y-94545230D01*
X141278799Y-94477109D01*
X141302966Y-94449419D01*
X141358833Y-94401704D01*
X141364611Y-94396769D01*
X141457052Y-94268124D01*
X141516139Y-94121141D01*
X141531571Y-94012706D01*
X141537878Y-93968391D01*
X141537878Y-93968388D01*
X141538459Y-93964307D01*
X141538604Y-93950500D01*
X141536870Y-93936166D01*
X141530926Y-93887053D01*
X141519573Y-93793233D01*
X141509544Y-93766692D01*
X141503251Y-93750038D01*
X141497883Y-93679244D01*
X141531641Y-93616787D01*
X141593807Y-93582495D01*
X141621117Y-93579500D01*
X143560212Y-93579500D01*
X143579922Y-93581051D01*
G37*
%TD.AperFunction*%
%TA.AperFunction,Conductor*%
G36*
X147627621Y-88149502D02*
G01*
X147674114Y-88203158D01*
X147685500Y-88255500D01*
X147685500Y-88650616D01*
X147665498Y-88718737D01*
X147648595Y-88739711D01*
X146354711Y-90033595D01*
X146292399Y-90067621D01*
X146265616Y-90070500D01*
X145894745Y-90070501D01*
X145870686Y-90070501D01*
X145867738Y-90070780D01*
X145867729Y-90070780D01*
X145846522Y-90072784D01*
X145846520Y-90072784D01*
X145838873Y-90073507D01*
X145709924Y-90118791D01*
X145599990Y-90199990D01*
X145518791Y-90309924D01*
X145473507Y-90438873D01*
X145472785Y-90446515D01*
X145472784Y-90446518D01*
X145471376Y-90461421D01*
X145470500Y-90470685D01*
X145470501Y-90979314D01*
X145470780Y-90982262D01*
X145470780Y-90982271D01*
X145472784Y-91003478D01*
X145473507Y-91011127D01*
X145518791Y-91140076D01*
X145599990Y-91250010D01*
X145709924Y-91331209D01*
X145838873Y-91376493D01*
X145846515Y-91377215D01*
X145846518Y-91377216D01*
X145861421Y-91378624D01*
X145870685Y-91379500D01*
X145931677Y-91379500D01*
X146500271Y-91379499D01*
X146568392Y-91399501D01*
X146614885Y-91453157D01*
X146626271Y-91505499D01*
X146626271Y-91594500D01*
X146606269Y-91662621D01*
X146552613Y-91709114D01*
X146500271Y-91720500D01*
X145931751Y-91720501D01*
X145870686Y-91720501D01*
X145867738Y-91720780D01*
X145867729Y-91720780D01*
X145846522Y-91722784D01*
X145846520Y-91722784D01*
X145838873Y-91723507D01*
X145709924Y-91768791D01*
X145599990Y-91849990D01*
X145518791Y-91959924D01*
X145473507Y-92088873D01*
X145470500Y-92120685D01*
X145470501Y-92629314D01*
X145470780Y-92632262D01*
X145470780Y-92632271D01*
X145472784Y-92653478D01*
X145473507Y-92661127D01*
X145518791Y-92790076D01*
X145599990Y-92900010D01*
X145709924Y-92981209D01*
X145718814Y-92984331D01*
X145748292Y-92994683D01*
X145805938Y-93036125D01*
X145831527Y-93098910D01*
X145831562Y-93099537D01*
X145861111Y-93273449D01*
X145864427Y-93292964D01*
X145856118Y-93363473D01*
X145811008Y-93418296D01*
X145743420Y-93440029D01*
X145672507Y-93420337D01*
X145544229Y-93338615D01*
X145544226Y-93338613D01*
X145541904Y-93337134D01*
X145241368Y-93180685D01*
X145065012Y-93107636D01*
X145009732Y-93063089D01*
X144987311Y-92995726D01*
X145004869Y-92926934D01*
X145010908Y-92917702D01*
X145015171Y-92911770D01*
X145100427Y-92793124D01*
X145159514Y-92646141D01*
X145171390Y-92562690D01*
X145181253Y-92493391D01*
X145181253Y-92493388D01*
X145181834Y-92489307D01*
X145181979Y-92475500D01*
X145162948Y-92318233D01*
X145106952Y-92170046D01*
X145017225Y-92039492D01*
X145011549Y-92034435D01*
X145010507Y-92033253D01*
X144980461Y-91968927D01*
X144979020Y-91949926D01*
X144979020Y-90722525D01*
X144980571Y-90702814D01*
X144982200Y-90692531D01*
X144982200Y-90692530D01*
X144983751Y-90682737D01*
X144982199Y-90672940D01*
X144982199Y-90672576D01*
X144981206Y-90664190D01*
X144972826Y-90557718D01*
X144968105Y-90497727D01*
X144966862Y-90492547D01*
X144928557Y-90332999D01*
X144924782Y-90317273D01*
X144908649Y-90278324D01*
X144855658Y-90150392D01*
X144855656Y-90150388D01*
X144853763Y-90145818D01*
X144756797Y-89987583D01*
X144636271Y-89846466D01*
X144632515Y-89843258D01*
X144632510Y-89843253D01*
X144573669Y-89792998D01*
X144534859Y-89733548D01*
X144529499Y-89697187D01*
X144529499Y-89628903D01*
X144526493Y-89597090D01*
X144481209Y-89468141D01*
X144400010Y-89358207D01*
X144290076Y-89277008D01*
X144161127Y-89231724D01*
X144153485Y-89231002D01*
X144153482Y-89231001D01*
X144138579Y-89229593D01*
X144129315Y-89228717D01*
X143800223Y-89228717D01*
X143470686Y-89228718D01*
X143467738Y-89228997D01*
X143467729Y-89228997D01*
X143446522Y-89231001D01*
X143446520Y-89231001D01*
X143438873Y-89231724D01*
X143419060Y-89238682D01*
X143390613Y-89248672D01*
X143319713Y-89252371D01*
X143258068Y-89217152D01*
X143225250Y-89154196D01*
X143231956Y-89082796D01*
X143236842Y-89070641D01*
X143248298Y-88990145D01*
X143258581Y-88917891D01*
X143258581Y-88917888D01*
X143259162Y-88913807D01*
X143259307Y-88900000D01*
X143258771Y-88895566D01*
X143249687Y-88820501D01*
X143240276Y-88742733D01*
X143184280Y-88594546D01*
X143158219Y-88556627D01*
X143098855Y-88470251D01*
X143098854Y-88470249D01*
X143094553Y-88463992D01*
X143078848Y-88449999D01*
X143045324Y-88420131D01*
X142976275Y-88358611D01*
X142973881Y-88357343D01*
X142930665Y-88303666D01*
X142923107Y-88233073D01*
X142954915Y-88169600D01*
X143015989Y-88133400D01*
X143047095Y-88129500D01*
X147559500Y-88129500D01*
X147627621Y-88149502D01*
G37*
%TD.AperFunction*%
%TA.AperFunction,Conductor*%
G36*
X152006167Y-91646851D02*
G01*
X152123113Y-91685640D01*
X152123115Y-91685640D01*
X152129641Y-91687805D01*
X152136478Y-91688505D01*
X152136480Y-91688506D01*
X152179179Y-91692881D01*
X152234023Y-91698500D01*
X152264950Y-91698500D01*
X153350271Y-91698499D01*
X153418392Y-91718501D01*
X153464885Y-91772157D01*
X153476271Y-91824499D01*
X153476271Y-92403500D01*
X153456269Y-92471621D01*
X153402613Y-92518114D01*
X153350271Y-92529500D01*
X152259276Y-92529501D01*
X152230628Y-92529501D01*
X152227678Y-92529780D01*
X152227673Y-92529780D01*
X152206774Y-92531755D01*
X152206773Y-92531755D01*
X152199125Y-92532478D01*
X152071488Y-92577301D01*
X152041357Y-92599556D01*
X151974682Y-92623938D01*
X151905406Y-92608402D01*
X151855527Y-92557878D01*
X151840500Y-92498204D01*
X151840500Y-91766444D01*
X151860502Y-91698323D01*
X151914158Y-91651830D01*
X151984432Y-91641726D01*
X152006167Y-91646851D01*
G37*
%TD.AperFunction*%
%TA.AperFunction,Conductor*%
G36*
X164162141Y-88149502D02*
G01*
X164208634Y-88203158D01*
X164220020Y-88255500D01*
X164220020Y-88442013D01*
X164200018Y-88510134D01*
X164146362Y-88556627D01*
X164084142Y-88566867D01*
X164084110Y-88567492D01*
X164081235Y-88567345D01*
X164081169Y-88567356D01*
X164080892Y-88567328D01*
X164074478Y-88567000D01*
X163984615Y-88567000D01*
X163969376Y-88571475D01*
X163968171Y-88572865D01*
X163966500Y-88580548D01*
X163966500Y-89677885D01*
X163970975Y-89693124D01*
X163972365Y-89694329D01*
X163980048Y-89696000D01*
X164094020Y-89696000D01*
X164162141Y-89716002D01*
X164208634Y-89769658D01*
X164220020Y-89822000D01*
X164220020Y-90078000D01*
X164200018Y-90146121D01*
X164146362Y-90192614D01*
X164094020Y-90204000D01*
X163523500Y-90204000D01*
X163455379Y-90183998D01*
X163408886Y-90130342D01*
X163397500Y-90078000D01*
X163397500Y-89802914D01*
X163417502Y-89734793D01*
X163433282Y-89721120D01*
X163431396Y-89719486D01*
X163456829Y-89690135D01*
X163458500Y-89682452D01*
X163458500Y-88585115D01*
X163454025Y-88569876D01*
X163452635Y-88568671D01*
X163444952Y-88567000D01*
X163350570Y-88567000D01*
X163344054Y-88567337D01*
X163248810Y-88577219D01*
X163235414Y-88580112D01*
X163081784Y-88631367D01*
X163068605Y-88637541D01*
X162930272Y-88723144D01*
X162863969Y-88742000D01*
X162858734Y-88742000D01*
X162852219Y-88742337D01*
X162755759Y-88752346D01*
X162742359Y-88755240D01*
X162586791Y-88807141D01*
X162573623Y-88813309D01*
X162434534Y-88899381D01*
X162423133Y-88908417D01*
X162307572Y-89024179D01*
X162305274Y-89027089D01*
X162303197Y-89028562D01*
X162302401Y-89029359D01*
X162302265Y-89029223D01*
X162247359Y-89068153D01*
X162206390Y-89075000D01*
X161910143Y-89075000D01*
X161849635Y-89059521D01*
X161848733Y-89059027D01*
X161841546Y-89053641D01*
X161833141Y-89050490D01*
X161833137Y-89050488D01*
X161711949Y-89005057D01*
X161711947Y-89005057D01*
X161704554Y-89002285D01*
X161696706Y-89001432D01*
X161696704Y-89001432D01*
X161645493Y-88995869D01*
X161642096Y-88995500D01*
X161543128Y-88995500D01*
X161475007Y-88975498D01*
X161461918Y-88964950D01*
X161461118Y-88963882D01*
X161422603Y-88935017D01*
X161353234Y-88883028D01*
X161353233Y-88883027D01*
X161346051Y-88877645D01*
X161241445Y-88838430D01*
X161218801Y-88829941D01*
X161218799Y-88829941D01*
X161211406Y-88827169D01*
X161203558Y-88826316D01*
X161203556Y-88826316D01*
X161153414Y-88820869D01*
X161153413Y-88820869D01*
X161150017Y-88820500D01*
X160787554Y-88820500D01*
X160424984Y-88820501D01*
X160421589Y-88820870D01*
X160421584Y-88820870D01*
X160371452Y-88826315D01*
X160371448Y-88826316D01*
X160363594Y-88827169D01*
X160228949Y-88877645D01*
X160221767Y-88883027D01*
X160221766Y-88883028D01*
X160152397Y-88935017D01*
X160113882Y-88963882D01*
X160108504Y-88971058D01*
X160108500Y-88971062D01*
X160088918Y-88997190D01*
X160032059Y-89039705D01*
X159961240Y-89044731D01*
X159912527Y-89022451D01*
X159899525Y-89012706D01*
X159876567Y-88995500D01*
X159826946Y-88958311D01*
X159826943Y-88958309D01*
X159819764Y-88952929D01*
X159715405Y-88913807D01*
X159691843Y-88904974D01*
X159691841Y-88904974D01*
X159684448Y-88902202D01*
X159676598Y-88901349D01*
X159676597Y-88901349D01*
X159626153Y-88895869D01*
X159626152Y-88895869D01*
X159622756Y-88895500D01*
X158177244Y-88895500D01*
X158173848Y-88895869D01*
X158173847Y-88895869D01*
X158123403Y-88901349D01*
X158123402Y-88901349D01*
X158115552Y-88902202D01*
X158108159Y-88904974D01*
X158108157Y-88904974D01*
X158084595Y-88913807D01*
X157980236Y-88952929D01*
X157973057Y-88958309D01*
X157973054Y-88958311D01*
X157923433Y-88995500D01*
X157864596Y-89039596D01*
X157812397Y-89109245D01*
X157755540Y-89151758D01*
X157684722Y-89156784D01*
X157622428Y-89122724D01*
X157610747Y-89109243D01*
X157591500Y-89083562D01*
X157591496Y-89083558D01*
X157586118Y-89076382D01*
X157543886Y-89044731D01*
X157478234Y-88995528D01*
X157478233Y-88995527D01*
X157471051Y-88990145D01*
X157420147Y-88971062D01*
X157343801Y-88942441D01*
X157343799Y-88942441D01*
X157336406Y-88939669D01*
X157328558Y-88938816D01*
X157328556Y-88938816D01*
X157278414Y-88933369D01*
X157278413Y-88933369D01*
X157275017Y-88933000D01*
X156600099Y-88933000D01*
X155924984Y-88933001D01*
X155921589Y-88933370D01*
X155921584Y-88933370D01*
X155871452Y-88938815D01*
X155871448Y-88938816D01*
X155863594Y-88939669D01*
X155728949Y-88990145D01*
X155721767Y-88995527D01*
X155721766Y-88995528D01*
X155656114Y-89044731D01*
X155613882Y-89076382D01*
X155608504Y-89083558D01*
X155539689Y-89175379D01*
X155527645Y-89191449D01*
X155495571Y-89277008D01*
X155492482Y-89285247D01*
X155449840Y-89342011D01*
X155383279Y-89366711D01*
X155313930Y-89351504D01*
X155263812Y-89301218D01*
X155248500Y-89241017D01*
X155248500Y-88314600D01*
X155243717Y-88268503D01*
X155256582Y-88198683D01*
X155305152Y-88146901D01*
X155369044Y-88129500D01*
X164094020Y-88129500D01*
X164162141Y-88149502D01*
G37*
%TD.AperFunction*%
%TD*%
M02*
