%TF.GenerationSoftware,KiCad,Pcbnew,(6.0.5-0)*%
%TF.CreationDate,2022-06-27T15:27:31+01:00*%
%TF.ProjectId,Generic0,47656e65-7269-4633-902e-6b696361645f,1*%
%TF.SameCoordinates,Original*%
%TF.FileFunction,Copper,L2,Bot*%
%TF.FilePolarity,Positive*%
%FSLAX46Y46*%
G04 Gerber Fmt 4.6, Leading zero omitted, Abs format (unit mm)*
G04 Created by KiCad (PCBNEW (6.0.5-0)) date 2022-06-27 15:27:31*
%MOMM*%
%LPD*%
G01*
G04 APERTURE LIST*
G04 Aperture macros list*
%AMRoundRect*
0 Rectangle with rounded corners*
0 $1 Rounding radius*
0 $2 $3 $4 $5 $6 $7 $8 $9 X,Y pos of 4 corners*
0 Add a 4 corners polygon primitive as box body*
4,1,4,$2,$3,$4,$5,$6,$7,$8,$9,$2,$3,0*
0 Add four circle primitives for the rounded corners*
1,1,$1+$1,$2,$3*
1,1,$1+$1,$4,$5*
1,1,$1+$1,$6,$7*
1,1,$1+$1,$8,$9*
0 Add four rect primitives between the rounded corners*
20,1,$1+$1,$2,$3,$4,$5,0*
20,1,$1+$1,$4,$5,$6,$7,0*
20,1,$1+$1,$6,$7,$8,$9,0*
20,1,$1+$1,$8,$9,$2,$3,0*%
%AMOutline5P*
0 Free polygon, 5 corners , with rotation*
0 The origin of the aperture is its center*
0 number of corners: always 5*
0 $1 to $10 corner X, Y*
0 $11 Rotation angle, in degrees counterclockwise*
0 create outline with 5 corners*
4,1,5,$1,$2,$3,$4,$5,$6,$7,$8,$9,$10,$1,$2,$11*%
%AMOutline6P*
0 Free polygon, 6 corners , with rotation*
0 The origin of the aperture is its center*
0 number of corners: always 6*
0 $1 to $12 corner X, Y*
0 $13 Rotation angle, in degrees counterclockwise*
0 create outline with 6 corners*
4,1,6,$1,$2,$3,$4,$5,$6,$7,$8,$9,$10,$11,$12,$1,$2,$13*%
%AMOutline7P*
0 Free polygon, 7 corners , with rotation*
0 The origin of the aperture is its center*
0 number of corners: always 7*
0 $1 to $14 corner X, Y*
0 $15 Rotation angle, in degrees counterclockwise*
0 create outline with 7 corners*
4,1,7,$1,$2,$3,$4,$5,$6,$7,$8,$9,$10,$11,$12,$13,$14,$1,$2,$15*%
%AMOutline8P*
0 Free polygon, 8 corners , with rotation*
0 The origin of the aperture is its center*
0 number of corners: always 8*
0 $1 to $16 corner X, Y*
0 $17 Rotation angle, in degrees counterclockwise*
0 create outline with 8 corners*
4,1,8,$1,$2,$3,$4,$5,$6,$7,$8,$9,$10,$11,$12,$13,$14,$15,$16,$1,$2,$17*%
G04 Aperture macros list end*
%TA.AperFunction,ComponentPad*%
%ADD10Outline5P,-0.850000X0.850000X0.850000X0.850000X0.850000X-0.850000X-0.340000X-0.850000X-0.850000X-0.340000X180.000000*%
%TD*%
%TA.AperFunction,ComponentPad*%
%ADD11O,1.700000X1.700000*%
%TD*%
%TA.AperFunction,SMDPad,CuDef*%
%ADD12RoundRect,0.200000X-0.275000X0.200000X-0.275000X-0.200000X0.275000X-0.200000X0.275000X0.200000X0*%
%TD*%
%TA.AperFunction,SMDPad,CuDef*%
%ADD13RoundRect,0.200000X0.200000X0.275000X-0.200000X0.275000X-0.200000X-0.275000X0.200000X-0.275000X0*%
%TD*%
%TA.AperFunction,SMDPad,CuDef*%
%ADD14R,0.850000X0.500000*%
%TD*%
%TA.AperFunction,ViaPad*%
%ADD15C,0.800000*%
%TD*%
%TA.AperFunction,Conductor*%
%ADD16C,0.250000*%
%TD*%
G04 APERTURE END LIST*
%TO.C,R4*%
G36*
X98300000Y-46750000D02*
G01*
X97300000Y-46750000D01*
X97300000Y-46350000D01*
X98300000Y-46350000D01*
X98300000Y-46750000D01*
G37*
%TD*%
D10*
%TO.P,J1,1,GND*%
%TO.N,GND*%
X94920000Y-50900000D03*
D11*
%TO.P,J1,2,0*%
%TO.N,GPIO0*%
X97460000Y-50900000D03*
%TO.P,J1,3,3V3*%
%TO.N,+3V3*%
X100000000Y-50900000D03*
%TO.P,J1,4,Rx*%
%TO.N,RX*%
X102540000Y-50900000D03*
%TO.P,J1,5,Tx*%
%TO.N,TX*%
X105080000Y-50900000D03*
%TD*%
D12*
%TO.P,R2,1*%
%TO.N,Net-(D1-Pad3)*%
X102600000Y-40575000D03*
%TO.P,R2,2*%
%TO.N,G*%
X102600000Y-42225000D03*
%TD*%
D13*
%TO.P,C1,1*%
%TO.N,GND*%
X98575000Y-45050000D03*
%TO.P,C1,2*%
%TO.N,EN*%
X97025000Y-45050000D03*
%TD*%
D12*
%TO.P,R1,1*%
%TO.N,Net-(D1-Pad2)*%
X99400000Y-40575000D03*
%TO.P,R1,2*%
%TO.N,R*%
X99400000Y-42225000D03*
%TD*%
%TO.P,R3,1*%
%TO.N,Net-(D1-Pad4)*%
X101000000Y-40575000D03*
%TO.P,R3,2*%
%TO.N,B*%
X101000000Y-42225000D03*
%TD*%
D13*
%TO.P,R4,1*%
%TO.N,+3V3*%
X98625000Y-46550000D03*
%TO.P,R4,2*%
%TO.N,EN*%
X96975000Y-46550000D03*
%TD*%
D14*
%TO.P,D1,1,A*%
%TO.N,+3V3*%
X105875000Y-39500000D03*
%TO.P,D1,2,RK*%
%TO.N,Net-(D1-Pad2)*%
X104125000Y-39500000D03*
%TO.P,D1,3,GK*%
%TO.N,Net-(D1-Pad3)*%
X104125000Y-40500000D03*
%TO.P,D1,4,BK*%
%TO.N,Net-(D1-Pad4)*%
X105875000Y-40500000D03*
%TD*%
D13*
%TO.P,C2,1*%
%TO.N,+3V3*%
X98575000Y-48050000D03*
%TO.P,C2,2*%
%TO.N,GND*%
X97025000Y-48050000D03*
%TD*%
D15*
%TO.N,GND*%
X95400000Y-47400000D03*
X94800000Y-40000000D03*
X95600000Y-43200000D03*
%TO.N,TX*%
X104250000Y-44000000D03*
%TO.N,RX*%
X104200000Y-46000000D03*
%TO.N,EN*%
X95900000Y-45800000D03*
%TO.N,GPIO0*%
X102500000Y-48000000D03*
%TO.N,R*%
X97469964Y-41069964D03*
%TO.N,G*%
X104402456Y-42024020D03*
%TO.N,B*%
X103600000Y-43000000D03*
%TO.N,+3V3*%
X95600000Y-41800000D03*
X99620136Y-48121366D03*
%TD*%
D16*
%TO.N,TX*%
X104250000Y-44000000D02*
X105000000Y-44000000D01*
X105500000Y-44500000D02*
X105500000Y-50480000D01*
X105080000Y-50900000D02*
G75*
G03*
X105500000Y-50480000I0J420000D01*
G01*
X105500000Y-44500000D02*
G75*
G03*
X105000000Y-44000000I-500000J0D01*
G01*
%TO.N,RX*%
X104200000Y-46000000D02*
X104200000Y-46892406D01*
X102539998Y-50899998D02*
G75*
G03*
X104200000Y-46892406I-4007598J4007598D01*
G01*
%TO.N,Net-(D1-Pad2)*%
X104125000Y-39500000D02*
X100475000Y-39500000D01*
X99400000Y-40575000D02*
G75*
G02*
X100475000Y-39500000I1075000J0D01*
G01*
%TO.N,EN*%
X97025000Y-45050000D02*
X97025000Y-46500000D01*
X96975000Y-46550000D02*
X96650000Y-46550000D01*
X97025000Y-46500000D02*
X96975000Y-46550000D01*
X95900000Y-45800000D02*
G75*
G03*
X96650000Y-46550000I750000J0D01*
G01*
%TO.N,Net-(D1-Pad3)*%
X104050000Y-40575000D02*
X104125000Y-40500000D01*
X102600000Y-40575000D02*
X104050000Y-40575000D01*
%TO.N,Net-(D1-Pad4)*%
X105075480Y-41299520D02*
X101724520Y-41299520D01*
X100999980Y-40575000D02*
G75*
G03*
X101724520Y-41299520I724520J0D01*
G01*
X105075480Y-41299500D02*
G75*
G03*
X105875000Y-40500000I20J799500D01*
G01*
%TO.N,GPIO0*%
X97460000Y-50900000D02*
X95052549Y-48492549D01*
X94600000Y-47400000D02*
X94600000Y-46000000D01*
X102500000Y-48000000D02*
X102500000Y-46100000D01*
X96349520Y-44250480D02*
X100650480Y-44250480D01*
X100650480Y-44250500D02*
G75*
G02*
X102500000Y-46100000I20J-1849500D01*
G01*
X94600001Y-47400000D02*
G75*
G03*
X95052549Y-48492549I1545099J0D01*
G01*
X96349520Y-44250500D02*
G75*
G03*
X94600000Y-46000000I-20J-1749500D01*
G01*
%TO.N,R*%
X99400000Y-42225000D02*
X98625000Y-42225000D01*
X97470000Y-41069964D02*
G75*
G03*
X98625000Y-42225000I1155000J-36D01*
G01*
%TO.N,G*%
X102600000Y-42225000D02*
X104201476Y-42225000D01*
X104201476Y-42225000D02*
X104402456Y-42024020D01*
%TO.N,B*%
X101775000Y-43000000D02*
X103600000Y-43000000D01*
X101775000Y-43000000D02*
G75*
G02*
X101000000Y-42225000I0J775000D01*
G01*
%TO.N,+3V3*%
X98646366Y-48121366D02*
X98575000Y-48050000D01*
X100000000Y-48501230D02*
X100000000Y-50900000D01*
X98625000Y-48000000D02*
X98575000Y-48050000D01*
X99620136Y-48121366D02*
X98646366Y-48121366D01*
X98625000Y-46550000D02*
X98625000Y-48000000D01*
X95600000Y-41800000D02*
X95600000Y-40800000D01*
X97474511Y-38925489D02*
X105300489Y-38925489D01*
X97474511Y-38925500D02*
G75*
G03*
X95600000Y-40800000I-11J-1874500D01*
G01*
X99999934Y-48501230D02*
G75*
G03*
X99620136Y-48121366I-379834J30D01*
G01*
X105875011Y-39500000D02*
G75*
G03*
X105300489Y-38925489I-574511J0D01*
G01*
%TD*%
%TA.AperFunction,Conductor*%
%TO.N,GND*%
G36*
X96540580Y-44518993D02*
G01*
X96558593Y-44562480D01*
X96552831Y-44588470D01*
X96505741Y-44689455D01*
X96499500Y-44736861D01*
X96499501Y-45363138D01*
X96505741Y-45410545D01*
X96554253Y-45514579D01*
X96635421Y-45595747D01*
X96640298Y-45598021D01*
X96738991Y-45644043D01*
X96770791Y-45678747D01*
X96774500Y-45699781D01*
X96774500Y-45890611D01*
X96756487Y-45934098D01*
X96721027Y-45951585D01*
X96694119Y-45955127D01*
X96694118Y-45955127D01*
X96689455Y-45955741D01*
X96585421Y-46004253D01*
X96504253Y-46085421D01*
X96498860Y-46096986D01*
X96458254Y-46184065D01*
X96423550Y-46215865D01*
X96376525Y-46213812D01*
X96369802Y-46210151D01*
X96344576Y-46194301D01*
X96317339Y-46155913D01*
X96325223Y-46109508D01*
X96328506Y-46104789D01*
X96339874Y-46089974D01*
X96359024Y-46065017D01*
X96375735Y-46024674D01*
X96410431Y-45940908D01*
X96411974Y-45937183D01*
X96430035Y-45800000D01*
X96411974Y-45662817D01*
X96378487Y-45581972D01*
X96360566Y-45538705D01*
X96360565Y-45538703D01*
X96359024Y-45534983D01*
X96274791Y-45425209D01*
X96165018Y-45340976D01*
X96161298Y-45339435D01*
X96161296Y-45339434D01*
X96040908Y-45289569D01*
X96040909Y-45289569D01*
X96037183Y-45288026D01*
X95900000Y-45269965D01*
X95762817Y-45288026D01*
X95759092Y-45289569D01*
X95638705Y-45339434D01*
X95638703Y-45339435D01*
X95634983Y-45340976D01*
X95525209Y-45425209D01*
X95440976Y-45534983D01*
X95439435Y-45538703D01*
X95439434Y-45538705D01*
X95421513Y-45581972D01*
X95388026Y-45662817D01*
X95369965Y-45800000D01*
X95388026Y-45937183D01*
X95389569Y-45940908D01*
X95424266Y-46024674D01*
X95440976Y-46065017D01*
X95443430Y-46068215D01*
X95499210Y-46140908D01*
X95525209Y-46174791D01*
X95634982Y-46259024D01*
X95638702Y-46260565D01*
X95638704Y-46260566D01*
X95657171Y-46268215D01*
X95762817Y-46311974D01*
X95766807Y-46312499D01*
X95770620Y-46313521D01*
X95805081Y-46337650D01*
X95831088Y-46374791D01*
X95880645Y-46445566D01*
X96004434Y-46569355D01*
X96147839Y-46669768D01*
X96306502Y-46743754D01*
X96403920Y-46769857D01*
X96441261Y-46798510D01*
X96449501Y-46829260D01*
X96449501Y-46863138D01*
X96455741Y-46910545D01*
X96504253Y-47014579D01*
X96585421Y-47095747D01*
X96689455Y-47144259D01*
X96694117Y-47144873D01*
X96694118Y-47144873D01*
X96712019Y-47147230D01*
X96736861Y-47150500D01*
X96974940Y-47150500D01*
X97213138Y-47150499D01*
X97215128Y-47150237D01*
X97215129Y-47150237D01*
X97255881Y-47144873D01*
X97255882Y-47144873D01*
X97260545Y-47144259D01*
X97364579Y-47095747D01*
X97417313Y-47043013D01*
X97460800Y-47025000D01*
X98139200Y-47025000D01*
X98182687Y-47043013D01*
X98235421Y-47095747D01*
X98240298Y-47098021D01*
X98338991Y-47144043D01*
X98370791Y-47178747D01*
X98374500Y-47199781D01*
X98374500Y-47390611D01*
X98356487Y-47434098D01*
X98321027Y-47451585D01*
X98294119Y-47455127D01*
X98294118Y-47455127D01*
X98289455Y-47455741D01*
X98185421Y-47504253D01*
X98104253Y-47585421D01*
X98055741Y-47689455D01*
X98049500Y-47736861D01*
X98049501Y-48363138D01*
X98055741Y-48410545D01*
X98104253Y-48514579D01*
X98185421Y-48595747D01*
X98289455Y-48644259D01*
X98294117Y-48644873D01*
X98294118Y-48644873D01*
X98312019Y-48647230D01*
X98336861Y-48650500D01*
X98574940Y-48650500D01*
X98813138Y-48650499D01*
X98815128Y-48650237D01*
X98815129Y-48650237D01*
X98855881Y-48644873D01*
X98855882Y-48644873D01*
X98860545Y-48644259D01*
X98964579Y-48595747D01*
X99045747Y-48514579D01*
X99083706Y-48433176D01*
X99118409Y-48401377D01*
X99165434Y-48403430D01*
X99188234Y-48421729D01*
X99242891Y-48492959D01*
X99245345Y-48496157D01*
X99355118Y-48580390D01*
X99358838Y-48581931D01*
X99358840Y-48581932D01*
X99454713Y-48621643D01*
X99482953Y-48633340D01*
X99620136Y-48651401D01*
X99679972Y-48643523D01*
X99725438Y-48655705D01*
X99748974Y-48696469D01*
X99749500Y-48704497D01*
X99749500Y-49910802D01*
X99731487Y-49954289D01*
X99705364Y-49969800D01*
X99632803Y-49991156D01*
X99630133Y-49992552D01*
X99465935Y-50078392D01*
X99465930Y-50078396D01*
X99463268Y-50079787D01*
X99460924Y-50081672D01*
X99460922Y-50081673D01*
X99356732Y-50165444D01*
X99314176Y-50199660D01*
X99312246Y-50201960D01*
X99304128Y-50211635D01*
X99191207Y-50346208D01*
X99189762Y-50348837D01*
X99189761Y-50348838D01*
X99178072Y-50370100D01*
X99099045Y-50513850D01*
X99098137Y-50516713D01*
X99057125Y-50646000D01*
X99041200Y-50696201D01*
X99019876Y-50886314D01*
X99035884Y-51076948D01*
X99036711Y-51079833D01*
X99036712Y-51079837D01*
X99047416Y-51117166D01*
X99088614Y-51260843D01*
X99176060Y-51430993D01*
X99294889Y-51580918D01*
X99440575Y-51704907D01*
X99443201Y-51706375D01*
X99443203Y-51706376D01*
X99582659Y-51784315D01*
X99611832Y-51821255D01*
X99606341Y-51868003D01*
X99569401Y-51897176D01*
X99552656Y-51899500D01*
X97903127Y-51899500D01*
X97859640Y-51881487D01*
X97841627Y-51838000D01*
X97859640Y-51794513D01*
X97875398Y-51783106D01*
X97985228Y-51727627D01*
X98019014Y-51701231D01*
X98133605Y-51611703D01*
X98133606Y-51611702D01*
X98135979Y-51609848D01*
X98144790Y-51599641D01*
X98259015Y-51467309D01*
X98259016Y-51467308D01*
X98260982Y-51465030D01*
X98355476Y-51298691D01*
X98385668Y-51207929D01*
X98414911Y-51120023D01*
X98414912Y-51120019D01*
X98415861Y-51117166D01*
X98439838Y-50927369D01*
X98440220Y-50900000D01*
X98421552Y-50709608D01*
X98366259Y-50526467D01*
X98276446Y-50357555D01*
X98265319Y-50343911D01*
X98157437Y-50211635D01*
X98155535Y-50209303D01*
X98130500Y-50188592D01*
X98010446Y-50089275D01*
X98010444Y-50089274D01*
X98008132Y-50087361D01*
X98005488Y-50085932D01*
X98005486Y-50085930D01*
X97842495Y-49997800D01*
X97842490Y-49997798D01*
X97839851Y-49996371D01*
X97836985Y-49995484D01*
X97836983Y-49995483D01*
X97753816Y-49969739D01*
X97657101Y-49939801D01*
X97631803Y-49937142D01*
X97469830Y-49920118D01*
X97469831Y-49920118D01*
X97466843Y-49919804D01*
X97463854Y-49920076D01*
X97463853Y-49920076D01*
X97279322Y-49936869D01*
X97279319Y-49936869D01*
X97276325Y-49937142D01*
X97092803Y-49991156D01*
X97009783Y-50034558D01*
X96962900Y-50038743D01*
X96937804Y-50023544D01*
X95251412Y-48337152D01*
X95243763Y-48327832D01*
X95236515Y-48316984D01*
X95233150Y-48311948D01*
X95225233Y-48306658D01*
X95212636Y-48295464D01*
X95100890Y-48164625D01*
X95095218Y-48156818D01*
X94994135Y-47991865D01*
X94989753Y-47983266D01*
X94915715Y-47804524D01*
X94912733Y-47795346D01*
X94867569Y-47607222D01*
X94866060Y-47597690D01*
X94852560Y-47426157D01*
X94853551Y-47409337D01*
X94854226Y-47405943D01*
X94854226Y-47405942D01*
X94855408Y-47400000D01*
X94851682Y-47381268D01*
X94850500Y-47369270D01*
X94850500Y-46030730D01*
X94851682Y-46018732D01*
X94854226Y-46005942D01*
X94854226Y-46005941D01*
X94855408Y-46000000D01*
X94853414Y-45989974D01*
X94852389Y-45973590D01*
X94865444Y-45791063D01*
X94866692Y-45782377D01*
X94896494Y-45645380D01*
X94910288Y-45581968D01*
X94912760Y-45573553D01*
X94919565Y-45555310D01*
X94984427Y-45381410D01*
X94988071Y-45373430D01*
X95086356Y-45193435D01*
X95091100Y-45186053D01*
X95214001Y-45021878D01*
X95219747Y-45015247D01*
X95364759Y-44870237D01*
X95371391Y-44864490D01*
X95535570Y-44741589D01*
X95542951Y-44736846D01*
X95722945Y-44638563D01*
X95730920Y-44634921D01*
X95923075Y-44563253D01*
X95931494Y-44560781D01*
X96131891Y-44517189D01*
X96140576Y-44515941D01*
X96323178Y-44502883D01*
X96339564Y-44503908D01*
X96349517Y-44505888D01*
X96368250Y-44502162D01*
X96380247Y-44500980D01*
X96497093Y-44500980D01*
X96540580Y-44518993D01*
G37*
%TD.AperFunction*%
%TA.AperFunction,Conductor*%
G36*
X96504258Y-38818513D02*
G01*
X96522271Y-38862000D01*
X96504258Y-38905487D01*
X96487972Y-38917157D01*
X96409727Y-38955743D01*
X96408054Y-38956861D01*
X96408052Y-38956862D01*
X96280497Y-39042091D01*
X96178112Y-39110502D01*
X96176594Y-39111833D01*
X96176593Y-39111834D01*
X96100106Y-39178911D01*
X95968678Y-39294169D01*
X95967352Y-39295681D01*
X95786338Y-39502087D01*
X95786334Y-39502093D01*
X95785010Y-39503602D01*
X95630249Y-39735216D01*
X95629361Y-39737016D01*
X95629359Y-39737020D01*
X95601740Y-39793026D01*
X95507044Y-39985050D01*
X95506398Y-39986954D01*
X95506396Y-39986958D01*
X95420276Y-40240662D01*
X95417504Y-40248827D01*
X95417112Y-40250800D01*
X95417111Y-40250802D01*
X95400389Y-40334871D01*
X95363159Y-40522036D01*
X95345111Y-40797391D01*
X95344592Y-40800000D01*
X95345774Y-40805942D01*
X95348318Y-40818732D01*
X95349500Y-40830730D01*
X95349500Y-41299508D01*
X95331487Y-41342995D01*
X95325439Y-41348299D01*
X95243378Y-41411267D01*
X95225209Y-41425209D01*
X95222755Y-41428407D01*
X95183092Y-41480096D01*
X95140976Y-41534983D01*
X95088026Y-41662817D01*
X95069965Y-41800000D01*
X95088026Y-41937183D01*
X95089569Y-41940908D01*
X95123995Y-42024020D01*
X95140976Y-42065017D01*
X95143430Y-42068215D01*
X95214783Y-42161203D01*
X95225209Y-42174791D01*
X95228407Y-42177245D01*
X95280096Y-42216908D01*
X95334982Y-42259024D01*
X95338702Y-42260565D01*
X95338704Y-42260566D01*
X95398455Y-42285315D01*
X95462817Y-42311974D01*
X95600000Y-42330035D01*
X95737183Y-42311974D01*
X95801545Y-42285315D01*
X95861296Y-42260566D01*
X95861298Y-42260565D01*
X95865018Y-42259024D01*
X95919905Y-42216907D01*
X95971593Y-42177245D01*
X95974791Y-42174791D01*
X95985218Y-42161203D01*
X96056570Y-42068215D01*
X96059024Y-42065017D01*
X96076006Y-42024020D01*
X96110431Y-41940908D01*
X96111974Y-41937183D01*
X96130035Y-41800000D01*
X96111974Y-41662817D01*
X96059024Y-41534983D01*
X96016908Y-41480096D01*
X95977245Y-41428407D01*
X95974791Y-41425209D01*
X95874561Y-41348298D01*
X95851026Y-41307535D01*
X95850500Y-41299508D01*
X95850500Y-41069964D01*
X96939929Y-41069964D01*
X96957990Y-41207147D01*
X96959533Y-41210872D01*
X97007348Y-41326308D01*
X97010940Y-41334981D01*
X97013394Y-41338179D01*
X97071532Y-41413945D01*
X97095173Y-41444755D01*
X97204946Y-41528988D01*
X97208670Y-41530531D01*
X97208671Y-41530531D01*
X97288687Y-41563674D01*
X97321972Y-41596959D01*
X97350905Y-41666814D01*
X97368804Y-41710029D01*
X97370065Y-41712086D01*
X97370065Y-41712087D01*
X97483134Y-41896608D01*
X97483137Y-41896613D01*
X97484395Y-41898665D01*
X97485961Y-41900499D01*
X97485962Y-41900500D01*
X97549162Y-41974500D01*
X97628073Y-42066896D01*
X97796299Y-42210579D01*
X97984932Y-42326176D01*
X98189325Y-42410841D01*
X98308895Y-42439548D01*
X98402093Y-42461923D01*
X98402095Y-42461923D01*
X98404447Y-42462488D01*
X98616709Y-42479193D01*
X98616945Y-42479226D01*
X98617123Y-42479226D01*
X98620325Y-42479478D01*
X98625000Y-42480408D01*
X98630942Y-42479226D01*
X98643732Y-42476682D01*
X98655730Y-42475500D01*
X98750219Y-42475500D01*
X98793706Y-42493513D01*
X98805957Y-42511009D01*
X98817608Y-42535994D01*
X98854253Y-42614579D01*
X98935421Y-42695747D01*
X99039455Y-42744259D01*
X99044117Y-42744873D01*
X99044118Y-42744873D01*
X99051616Y-42745860D01*
X99086861Y-42750500D01*
X99399922Y-42750500D01*
X99713138Y-42750499D01*
X99715128Y-42750237D01*
X99715129Y-42750237D01*
X99755881Y-42744873D01*
X99755882Y-42744873D01*
X99760545Y-42744259D01*
X99864579Y-42695747D01*
X99945747Y-42614579D01*
X99994259Y-42510545D01*
X100000500Y-42463139D01*
X100000499Y-41986862D01*
X99994259Y-41939455D01*
X99945747Y-41835421D01*
X99864579Y-41754253D01*
X99760545Y-41705741D01*
X99755883Y-41705127D01*
X99755882Y-41705127D01*
X99737981Y-41702770D01*
X99713139Y-41699500D01*
X99400078Y-41699500D01*
X99086862Y-41699501D01*
X99084872Y-41699763D01*
X99084871Y-41699763D01*
X99044119Y-41705127D01*
X99044118Y-41705127D01*
X99039455Y-41705741D01*
X98935421Y-41754253D01*
X98854253Y-41835421D01*
X98851979Y-41840298D01*
X98805957Y-41938991D01*
X98771253Y-41970791D01*
X98750219Y-41974500D01*
X98655730Y-41974500D01*
X98643732Y-41973318D01*
X98632556Y-41971095D01*
X98625000Y-41969592D01*
X98617444Y-41971095D01*
X98599420Y-41971981D01*
X98454564Y-41957714D01*
X98442743Y-41955362D01*
X98284651Y-41907404D01*
X98273513Y-41902790D01*
X98127823Y-41824915D01*
X98117798Y-41818217D01*
X98044496Y-41758058D01*
X97990091Y-41713408D01*
X97981567Y-41704883D01*
X97977366Y-41699763D01*
X97876770Y-41577183D01*
X97870072Y-41567158D01*
X97839807Y-41510532D01*
X97835195Y-41463689D01*
X97845255Y-41444104D01*
X97926534Y-41338179D01*
X97928988Y-41334981D01*
X97932581Y-41326308D01*
X97980395Y-41210872D01*
X97981938Y-41207147D01*
X97999999Y-41069964D01*
X97981938Y-40932781D01*
X97957088Y-40872786D01*
X97930530Y-40808669D01*
X97930529Y-40808667D01*
X97928988Y-40804947D01*
X97844755Y-40695173D01*
X97734982Y-40610940D01*
X97731262Y-40609399D01*
X97731260Y-40609398D01*
X97610872Y-40559533D01*
X97610873Y-40559533D01*
X97607147Y-40557990D01*
X97469964Y-40539929D01*
X97332781Y-40557990D01*
X97329056Y-40559533D01*
X97208669Y-40609398D01*
X97208667Y-40609399D01*
X97204947Y-40610940D01*
X97095173Y-40695173D01*
X97010940Y-40804947D01*
X97009399Y-40808667D01*
X97009398Y-40808669D01*
X96982840Y-40872786D01*
X96957990Y-40932781D01*
X96939929Y-41069964D01*
X95850500Y-41069964D01*
X95850500Y-40830730D01*
X95851682Y-40818732D01*
X95854226Y-40805942D01*
X95855408Y-40800000D01*
X95854022Y-40793028D01*
X95853414Y-40789974D01*
X95852389Y-40773590D01*
X95866716Y-40573274D01*
X95867964Y-40564588D01*
X95915350Y-40346757D01*
X95917823Y-40338338D01*
X95922985Y-40324500D01*
X95995722Y-40129485D01*
X95999366Y-40121505D01*
X96030421Y-40064633D01*
X96067529Y-39996673D01*
X96106198Y-39925857D01*
X96110942Y-39918475D01*
X96244531Y-39740023D01*
X96250277Y-39733392D01*
X96407902Y-39575767D01*
X96414534Y-39570021D01*
X96592980Y-39436439D01*
X96600361Y-39431695D01*
X96796013Y-39324862D01*
X96803980Y-39321223D01*
X97012859Y-39243316D01*
X97021268Y-39240847D01*
X97239096Y-39193463D01*
X97247781Y-39192215D01*
X97448140Y-39177886D01*
X97464525Y-39178911D01*
X97468567Y-39179715D01*
X97468568Y-39179715D01*
X97474510Y-39180897D01*
X97493243Y-39177171D01*
X97505240Y-39175989D01*
X100104698Y-39175989D01*
X100148185Y-39194002D01*
X100166198Y-39237489D01*
X100148185Y-39280976D01*
X100119055Y-39297290D01*
X100066475Y-39309913D01*
X100066472Y-39309914D01*
X100064131Y-39310476D01*
X99871375Y-39390319D01*
X99693481Y-39499332D01*
X99534832Y-39634832D01*
X99399332Y-39793481D01*
X99290319Y-39971375D01*
X99283865Y-39986958D01*
X99273684Y-40011536D01*
X99240400Y-40044819D01*
X99216865Y-40049501D01*
X99086862Y-40049501D01*
X99084872Y-40049763D01*
X99084871Y-40049763D01*
X99044119Y-40055127D01*
X99044118Y-40055127D01*
X99039455Y-40055741D01*
X98935421Y-40104253D01*
X98854253Y-40185421D01*
X98805741Y-40289455D01*
X98799500Y-40336861D01*
X98799501Y-40813138D01*
X98799763Y-40815128D01*
X98799763Y-40815129D01*
X98804665Y-40852367D01*
X98805741Y-40860545D01*
X98854253Y-40964579D01*
X98935421Y-41045747D01*
X99039455Y-41094259D01*
X99044117Y-41094873D01*
X99044118Y-41094873D01*
X99062019Y-41097230D01*
X99086861Y-41100500D01*
X99399922Y-41100500D01*
X99713138Y-41100499D01*
X99715128Y-41100237D01*
X99715129Y-41100237D01*
X99755881Y-41094873D01*
X99755882Y-41094873D01*
X99760545Y-41094259D01*
X99864579Y-41045747D01*
X99945747Y-40964579D01*
X99994259Y-40860545D01*
X100000500Y-40813139D01*
X100000499Y-40336862D01*
X99994259Y-40289455D01*
X99945747Y-40185421D01*
X99868446Y-40108120D01*
X99850433Y-40064633D01*
X99864392Y-40025619D01*
X99875949Y-40011536D01*
X99888150Y-39996669D01*
X99896669Y-39988150D01*
X100012251Y-39893295D01*
X100022273Y-39886598D01*
X100062956Y-39864853D01*
X100154134Y-39816117D01*
X100165274Y-39811503D01*
X100306994Y-39768513D01*
X100308354Y-39768101D01*
X100320173Y-39765750D01*
X100449421Y-39753019D01*
X100467450Y-39753906D01*
X100469058Y-39754226D01*
X100469059Y-39754226D01*
X100475000Y-39755408D01*
X100480942Y-39754226D01*
X100493732Y-39751682D01*
X100505730Y-39750500D01*
X103521891Y-39750500D01*
X103565378Y-39768513D01*
X103578709Y-39788464D01*
X103580599Y-39793026D01*
X103581781Y-39798968D01*
X103585147Y-39804005D01*
X103585147Y-39804006D01*
X103600500Y-39826983D01*
X103609519Y-39840481D01*
X103651032Y-39868219D01*
X103687637Y-39875500D01*
X103690662Y-39875500D01*
X104125434Y-39875499D01*
X104562362Y-39875499D01*
X104598968Y-39868219D01*
X104640481Y-39840481D01*
X104649500Y-39826983D01*
X104664853Y-39804006D01*
X104664853Y-39804005D01*
X104668219Y-39798968D01*
X104675500Y-39762363D01*
X104675500Y-39499332D01*
X104675499Y-39237638D01*
X104677602Y-39237638D01*
X104689360Y-39198577D01*
X104730824Y-39176298D01*
X104736984Y-39175989D01*
X105263015Y-39175989D01*
X105306502Y-39194002D01*
X105324515Y-39237489D01*
X105324510Y-39237586D01*
X105324500Y-39237637D01*
X105324501Y-39762362D01*
X105331781Y-39798968D01*
X105335147Y-39804005D01*
X105335147Y-39804006D01*
X105350500Y-39826983D01*
X105359519Y-39840481D01*
X105401032Y-39868219D01*
X105437637Y-39875500D01*
X105440662Y-39875500D01*
X105875434Y-39875499D01*
X106312362Y-39875499D01*
X106326004Y-39872786D01*
X106372170Y-39881971D01*
X106398319Y-39921109D01*
X106399500Y-39933105D01*
X106399500Y-40066895D01*
X106381487Y-40110382D01*
X106338000Y-40128395D01*
X106326003Y-40127213D01*
X106312363Y-40124500D01*
X106309338Y-40124500D01*
X105874566Y-40124501D01*
X105437638Y-40124501D01*
X105401032Y-40131781D01*
X105359519Y-40159519D01*
X105331781Y-40201032D01*
X105324500Y-40237637D01*
X105324501Y-40762362D01*
X105331781Y-40798968D01*
X105335147Y-40804005D01*
X105335147Y-40804006D01*
X105341249Y-40813138D01*
X105359519Y-40840481D01*
X105377308Y-40852367D01*
X105403458Y-40891505D01*
X105394275Y-40937670D01*
X105375859Y-40955576D01*
X105319558Y-40990951D01*
X105307154Y-40996924D01*
X105204190Y-41032951D01*
X105190767Y-41036014D01*
X105154187Y-41040134D01*
X105100679Y-41046162D01*
X105081796Y-41045367D01*
X105081429Y-41045294D01*
X105081427Y-41045294D01*
X105075486Y-41044112D01*
X105069543Y-41045294D01*
X105056753Y-41047838D01*
X105044756Y-41049020D01*
X103202907Y-41049020D01*
X103159420Y-41031007D01*
X103141407Y-40987520D01*
X103147169Y-40961529D01*
X103194043Y-40861009D01*
X103228747Y-40829209D01*
X103249781Y-40825500D01*
X103570736Y-40825500D01*
X103608952Y-40841330D01*
X103609519Y-40840481D01*
X103651032Y-40868219D01*
X103687637Y-40875500D01*
X103690662Y-40875500D01*
X104125434Y-40875499D01*
X104562362Y-40875499D01*
X104598968Y-40868219D01*
X104640481Y-40840481D01*
X104658751Y-40813138D01*
X104664853Y-40804006D01*
X104664853Y-40804005D01*
X104668219Y-40798968D01*
X104675500Y-40762363D01*
X104675499Y-40237638D01*
X104668219Y-40201032D01*
X104640481Y-40159519D01*
X104598968Y-40131781D01*
X104562363Y-40124500D01*
X104559338Y-40124500D01*
X104124566Y-40124501D01*
X103687638Y-40124501D01*
X103651032Y-40131781D01*
X103609519Y-40159519D01*
X103581781Y-40201032D01*
X103574500Y-40237637D01*
X103574500Y-40263000D01*
X103556487Y-40306487D01*
X103513000Y-40324500D01*
X103249781Y-40324500D01*
X103206294Y-40306487D01*
X103194043Y-40288991D01*
X103155796Y-40206972D01*
X103145747Y-40185421D01*
X103064579Y-40104253D01*
X102960545Y-40055741D01*
X102955883Y-40055127D01*
X102955882Y-40055127D01*
X102937981Y-40052770D01*
X102913139Y-40049500D01*
X102600078Y-40049500D01*
X102286862Y-40049501D01*
X102284872Y-40049763D01*
X102284871Y-40049763D01*
X102244119Y-40055127D01*
X102244118Y-40055127D01*
X102239455Y-40055741D01*
X102135421Y-40104253D01*
X102054253Y-40185421D01*
X102005741Y-40289455D01*
X101999500Y-40336861D01*
X101999501Y-40813138D01*
X101999763Y-40815128D01*
X101999763Y-40815129D01*
X102004665Y-40852367D01*
X102005741Y-40860545D01*
X102039577Y-40933105D01*
X102052831Y-40961529D01*
X102054884Y-41008554D01*
X102023084Y-41043258D01*
X101997093Y-41049020D01*
X101755249Y-41049020D01*
X101743253Y-41047839D01*
X101730453Y-41045293D01*
X101730451Y-41045293D01*
X101724513Y-41044112D01*
X101718574Y-41045294D01*
X101713226Y-41045294D01*
X101699599Y-41045741D01*
X101609851Y-41033927D01*
X101594342Y-41029771D01*
X101591833Y-41028732D01*
X101587485Y-41026931D01*
X101554204Y-40993645D01*
X101555286Y-40944123D01*
X101590130Y-40869400D01*
X101594259Y-40860545D01*
X101600500Y-40813139D01*
X101600499Y-40336862D01*
X101594259Y-40289455D01*
X101545747Y-40185421D01*
X101464579Y-40104253D01*
X101360545Y-40055741D01*
X101355883Y-40055127D01*
X101355882Y-40055127D01*
X101337981Y-40052770D01*
X101313139Y-40049500D01*
X101000078Y-40049500D01*
X100686862Y-40049501D01*
X100684872Y-40049763D01*
X100684871Y-40049763D01*
X100644119Y-40055127D01*
X100644118Y-40055127D01*
X100639455Y-40055741D01*
X100535421Y-40104253D01*
X100454253Y-40185421D01*
X100405741Y-40289455D01*
X100399500Y-40336861D01*
X100399501Y-40813138D01*
X100399763Y-40815128D01*
X100399763Y-40815129D01*
X100404665Y-40852367D01*
X100405741Y-40860545D01*
X100454253Y-40964579D01*
X100535421Y-41045747D01*
X100639455Y-41094259D01*
X100644117Y-41094873D01*
X100644118Y-41094873D01*
X100662019Y-41097230D01*
X100686861Y-41100500D01*
X100870165Y-41100500D01*
X100913652Y-41118513D01*
X100920539Y-41126720D01*
X100974746Y-41204134D01*
X101095387Y-41324771D01*
X101097581Y-41326307D01*
X101097582Y-41326308D01*
X101222746Y-41413945D01*
X101235144Y-41422626D01*
X101237571Y-41423758D01*
X101237575Y-41423760D01*
X101378174Y-41489319D01*
X101389770Y-41494726D01*
X101392355Y-41495419D01*
X101392359Y-41495420D01*
X101551976Y-41538185D01*
X101551978Y-41538185D01*
X101554567Y-41538879D01*
X101710561Y-41552523D01*
X101717195Y-41553470D01*
X101718586Y-41553747D01*
X101718588Y-41553747D01*
X101724527Y-41554928D01*
X101743255Y-41551202D01*
X101755256Y-41550020D01*
X103979144Y-41550020D01*
X104022631Y-41568033D01*
X104040644Y-41611520D01*
X104025661Y-41647691D01*
X104027665Y-41649229D01*
X103943432Y-41759003D01*
X103941891Y-41762723D01*
X103941890Y-41762725D01*
X103913355Y-41831616D01*
X103890482Y-41886837D01*
X103885981Y-41921027D01*
X103862446Y-41961791D01*
X103825007Y-41974500D01*
X103249781Y-41974500D01*
X103206294Y-41956487D01*
X103194043Y-41938991D01*
X103148021Y-41840298D01*
X103145747Y-41835421D01*
X103064579Y-41754253D01*
X102960545Y-41705741D01*
X102955883Y-41705127D01*
X102955882Y-41705127D01*
X102937981Y-41702770D01*
X102913139Y-41699500D01*
X102600078Y-41699500D01*
X102286862Y-41699501D01*
X102284872Y-41699763D01*
X102284871Y-41699763D01*
X102244119Y-41705127D01*
X102244118Y-41705127D01*
X102239455Y-41705741D01*
X102135421Y-41754253D01*
X102054253Y-41835421D01*
X102005741Y-41939455D01*
X101999500Y-41986861D01*
X101999501Y-42463138D01*
X101999763Y-42465128D01*
X101999763Y-42465129D01*
X102002156Y-42483305D01*
X102005741Y-42510545D01*
X102054253Y-42614579D01*
X102084187Y-42644513D01*
X102102200Y-42688000D01*
X102084187Y-42731487D01*
X102040700Y-42749500D01*
X101805730Y-42749500D01*
X101793732Y-42748318D01*
X101785366Y-42746654D01*
X101775000Y-42744592D01*
X101768625Y-42745860D01*
X101749746Y-42746654D01*
X101665176Y-42737126D01*
X101651752Y-42734063D01*
X101575128Y-42707251D01*
X101540031Y-42675886D01*
X101537392Y-42628889D01*
X101543658Y-42616668D01*
X101545747Y-42614579D01*
X101594259Y-42510545D01*
X101600500Y-42463139D01*
X101600499Y-41986862D01*
X101594259Y-41939455D01*
X101545747Y-41835421D01*
X101464579Y-41754253D01*
X101360545Y-41705741D01*
X101355883Y-41705127D01*
X101355882Y-41705127D01*
X101337981Y-41702770D01*
X101313139Y-41699500D01*
X101000078Y-41699500D01*
X100686862Y-41699501D01*
X100684872Y-41699763D01*
X100684871Y-41699763D01*
X100644119Y-41705127D01*
X100644118Y-41705127D01*
X100639455Y-41705741D01*
X100535421Y-41754253D01*
X100454253Y-41835421D01*
X100405741Y-41939455D01*
X100399500Y-41986861D01*
X100399501Y-42463138D01*
X100399763Y-42465128D01*
X100399763Y-42465129D01*
X100402156Y-42483305D01*
X100405741Y-42510545D01*
X100454253Y-42614579D01*
X100535421Y-42695747D01*
X100639455Y-42744259D01*
X100644117Y-42744873D01*
X100644118Y-42744873D01*
X100651616Y-42745860D01*
X100686861Y-42750500D01*
X100859040Y-42750500D01*
X100902527Y-42768513D01*
X100909418Y-42776725D01*
X100986421Y-42886696D01*
X101113304Y-43013579D01*
X101260292Y-43116501D01*
X101422919Y-43192336D01*
X101509581Y-43215557D01*
X101593649Y-43238083D01*
X101593653Y-43238084D01*
X101596244Y-43238778D01*
X101598917Y-43239012D01*
X101598918Y-43239012D01*
X101762766Y-43253347D01*
X101768925Y-43254226D01*
X101769057Y-43254226D01*
X101775000Y-43255408D01*
X101780942Y-43254226D01*
X101793732Y-43251682D01*
X101805730Y-43250500D01*
X103099508Y-43250500D01*
X103142995Y-43268513D01*
X103148299Y-43274561D01*
X103225209Y-43374791D01*
X103334982Y-43459024D01*
X103338702Y-43460565D01*
X103338704Y-43460566D01*
X103434577Y-43500277D01*
X103462817Y-43511974D01*
X103600000Y-43530035D01*
X103737183Y-43511974D01*
X103765423Y-43500277D01*
X103861296Y-43460566D01*
X103861298Y-43460565D01*
X103865018Y-43459024D01*
X103974791Y-43374791D01*
X104059024Y-43265017D01*
X104064548Y-43251682D01*
X104110431Y-43140908D01*
X104111974Y-43137183D01*
X104130035Y-43000000D01*
X104111974Y-42862817D01*
X104076314Y-42776725D01*
X104060566Y-42738705D01*
X104060565Y-42738703D01*
X104059024Y-42734983D01*
X103974791Y-42625209D01*
X103923421Y-42585791D01*
X103899886Y-42545027D01*
X103912069Y-42499561D01*
X103952833Y-42476026D01*
X103960860Y-42475500D01*
X104108945Y-42475500D01*
X104137404Y-42483127D01*
X104137438Y-42483044D01*
X104141158Y-42484585D01*
X104141160Y-42484586D01*
X104237033Y-42524297D01*
X104265273Y-42535994D01*
X104402456Y-42554055D01*
X104539639Y-42535994D01*
X104567879Y-42524297D01*
X104663752Y-42484586D01*
X104663754Y-42484585D01*
X104667474Y-42483044D01*
X104777247Y-42398811D01*
X104861480Y-42289037D01*
X104894628Y-42209011D01*
X104912887Y-42164928D01*
X104914430Y-42161203D01*
X104932491Y-42024020D01*
X104914430Y-41886837D01*
X104880116Y-41803995D01*
X104863022Y-41762725D01*
X104863021Y-41762723D01*
X104861480Y-41759003D01*
X104777247Y-41649229D01*
X104779251Y-41647691D01*
X104764268Y-41611520D01*
X104782281Y-41568033D01*
X104825768Y-41550020D01*
X105044745Y-41550020D01*
X105056744Y-41551202D01*
X105075474Y-41554928D01*
X105081416Y-41553746D01*
X105081810Y-41553746D01*
X105087043Y-41552999D01*
X105258504Y-41538002D01*
X105261093Y-41537308D01*
X105261095Y-41537308D01*
X105433385Y-41491147D01*
X105433389Y-41491146D01*
X105435974Y-41490453D01*
X105493372Y-41463689D01*
X105600054Y-41413945D01*
X105600055Y-41413944D01*
X105602490Y-41412809D01*
X105663189Y-41370309D01*
X105750795Y-41308969D01*
X105750797Y-41308967D01*
X105752994Y-41307429D01*
X105882912Y-41177514D01*
X105942601Y-41092271D01*
X105986758Y-41029210D01*
X105986760Y-41029207D01*
X105988296Y-41027013D01*
X106006712Y-40987520D01*
X106042391Y-40911008D01*
X106077095Y-40879208D01*
X106098129Y-40875499D01*
X106312362Y-40875499D01*
X106326004Y-40872786D01*
X106372170Y-40881971D01*
X106398319Y-40921109D01*
X106399500Y-40933105D01*
X106399500Y-51570238D01*
X106397936Y-51584020D01*
X106394344Y-51599641D01*
X106395872Y-51606395D01*
X106395860Y-51613321D01*
X106395184Y-51613320D01*
X106395562Y-51624861D01*
X106386365Y-51682931D01*
X106380420Y-51701228D01*
X106351097Y-51758779D01*
X106346723Y-51767363D01*
X106335413Y-51782930D01*
X106282930Y-51835413D01*
X106267363Y-51846723D01*
X106201228Y-51880420D01*
X106182935Y-51886364D01*
X106125266Y-51895498D01*
X106114032Y-51895110D01*
X106114031Y-51895908D01*
X106107108Y-51895896D01*
X106100359Y-51894344D01*
X106093606Y-51895872D01*
X106093601Y-51895872D01*
X106084273Y-51897983D01*
X106070700Y-51899500D01*
X105523127Y-51899500D01*
X105479640Y-51881487D01*
X105461627Y-51838000D01*
X105479640Y-51794513D01*
X105495398Y-51783106D01*
X105605228Y-51727627D01*
X105639014Y-51701231D01*
X105753605Y-51611703D01*
X105753606Y-51611702D01*
X105755979Y-51609848D01*
X105764790Y-51599641D01*
X105879015Y-51467309D01*
X105879016Y-51467308D01*
X105880982Y-51465030D01*
X105975476Y-51298691D01*
X106005668Y-51207929D01*
X106034911Y-51120023D01*
X106034912Y-51120019D01*
X106035861Y-51117166D01*
X106059838Y-50927369D01*
X106060220Y-50900000D01*
X106041552Y-50709608D01*
X105986259Y-50526467D01*
X105896446Y-50357555D01*
X105885319Y-50343911D01*
X105777438Y-50211636D01*
X105777437Y-50211635D01*
X105775535Y-50209303D01*
X105772800Y-50207041D01*
X105772716Y-50206881D01*
X105771099Y-50205253D01*
X105771594Y-50204762D01*
X105750773Y-50165444D01*
X105750500Y-50159653D01*
X105750500Y-44530730D01*
X105751682Y-44518732D01*
X105752237Y-44515941D01*
X105755408Y-44500000D01*
X105754227Y-44494062D01*
X105754227Y-44494059D01*
X105753468Y-44490243D01*
X105752583Y-44484276D01*
X105739936Y-44355876D01*
X105739641Y-44352876D01*
X105696726Y-44211407D01*
X105627037Y-44081027D01*
X105613063Y-44063999D01*
X105535169Y-43969086D01*
X105533251Y-43966749D01*
X105418973Y-43872963D01*
X105288593Y-43803274D01*
X105147124Y-43760359D01*
X105061398Y-43751916D01*
X105015724Y-43747417D01*
X105009757Y-43746532D01*
X105005941Y-43745773D01*
X105005938Y-43745773D01*
X105000000Y-43744592D01*
X104987286Y-43747121D01*
X104981268Y-43748318D01*
X104969270Y-43749500D01*
X104750492Y-43749500D01*
X104707005Y-43731487D01*
X104701701Y-43725439D01*
X104627245Y-43628407D01*
X104624791Y-43625209D01*
X104515018Y-43540976D01*
X104511298Y-43539435D01*
X104511296Y-43539434D01*
X104390908Y-43489569D01*
X104390909Y-43489569D01*
X104387183Y-43488026D01*
X104250000Y-43469965D01*
X104112817Y-43488026D01*
X104109092Y-43489569D01*
X103988705Y-43539434D01*
X103988703Y-43539435D01*
X103984983Y-43540976D01*
X103875209Y-43625209D01*
X103790976Y-43734983D01*
X103789435Y-43738703D01*
X103789434Y-43738705D01*
X103762689Y-43803274D01*
X103738026Y-43862817D01*
X103719965Y-44000000D01*
X103738026Y-44137183D01*
X103739569Y-44140908D01*
X103789390Y-44261187D01*
X103790976Y-44265017D01*
X103875209Y-44374791D01*
X103984982Y-44459024D01*
X103988702Y-44460565D01*
X103988704Y-44460566D01*
X104083909Y-44500000D01*
X104112817Y-44511974D01*
X104250000Y-44530035D01*
X104387183Y-44511974D01*
X104416091Y-44500000D01*
X104511296Y-44460566D01*
X104511298Y-44460565D01*
X104515018Y-44459024D01*
X104624791Y-44374791D01*
X104683600Y-44298150D01*
X104701701Y-44274561D01*
X104742465Y-44251026D01*
X104750492Y-44250500D01*
X104969270Y-44250500D01*
X104981269Y-44251682D01*
X105000000Y-44255408D01*
X105005940Y-44254227D01*
X105011999Y-44254227D01*
X105011999Y-44254640D01*
X105024584Y-44254394D01*
X105030987Y-44255408D01*
X105067479Y-44261187D01*
X105085778Y-44267133D01*
X105106001Y-44277437D01*
X105137975Y-44293729D01*
X105153541Y-44305039D01*
X105194961Y-44346459D01*
X105206271Y-44362025D01*
X105230656Y-44409881D01*
X105232867Y-44414221D01*
X105238813Y-44432522D01*
X105245606Y-44475416D01*
X105245360Y-44488001D01*
X105245773Y-44488001D01*
X105245773Y-44494060D01*
X105244592Y-44500000D01*
X105247763Y-44515941D01*
X105248318Y-44518732D01*
X105249500Y-44530730D01*
X105249500Y-49868597D01*
X105231487Y-49912084D01*
X105188000Y-49930097D01*
X105181572Y-49929760D01*
X105089831Y-49920118D01*
X105089830Y-49920118D01*
X105086843Y-49919804D01*
X105083854Y-49920076D01*
X105083853Y-49920076D01*
X104899322Y-49936869D01*
X104899319Y-49936869D01*
X104896325Y-49937142D01*
X104712803Y-49991156D01*
X104710133Y-49992552D01*
X104545935Y-50078392D01*
X104545930Y-50078396D01*
X104543268Y-50079787D01*
X104540924Y-50081672D01*
X104540922Y-50081673D01*
X104436732Y-50165444D01*
X104394176Y-50199660D01*
X104392246Y-50201960D01*
X104384128Y-50211635D01*
X104271207Y-50346208D01*
X104269762Y-50348837D01*
X104269761Y-50348838D01*
X104258072Y-50370100D01*
X104179045Y-50513850D01*
X104178137Y-50516713D01*
X104137125Y-50646000D01*
X104121200Y-50696201D01*
X104099876Y-50886314D01*
X104115884Y-51076948D01*
X104116711Y-51079833D01*
X104116712Y-51079837D01*
X104127416Y-51117166D01*
X104168614Y-51260843D01*
X104256060Y-51430993D01*
X104374889Y-51580918D01*
X104520575Y-51704907D01*
X104523201Y-51706375D01*
X104523203Y-51706376D01*
X104662659Y-51784315D01*
X104691832Y-51821255D01*
X104686341Y-51868003D01*
X104649401Y-51897176D01*
X104632656Y-51899500D01*
X102983127Y-51899500D01*
X102939640Y-51881487D01*
X102921627Y-51838000D01*
X102939640Y-51794513D01*
X102955398Y-51783106D01*
X103065228Y-51727627D01*
X103099014Y-51701231D01*
X103213605Y-51611703D01*
X103213606Y-51611702D01*
X103215979Y-51609848D01*
X103224790Y-51599641D01*
X103339015Y-51467309D01*
X103339016Y-51467308D01*
X103340982Y-51465030D01*
X103435476Y-51298691D01*
X103465668Y-51207929D01*
X103494911Y-51120023D01*
X103494912Y-51120019D01*
X103495861Y-51117166D01*
X103519838Y-50927369D01*
X103520220Y-50900000D01*
X103501552Y-50709608D01*
X103446259Y-50526467D01*
X103440922Y-50516429D01*
X103363117Y-50370100D01*
X103358605Y-50323246D01*
X103366901Y-50306152D01*
X103464597Y-50165444D01*
X103514196Y-50094008D01*
X103729902Y-49730454D01*
X103919124Y-49352438D01*
X104078518Y-48967629D01*
X104080478Y-48962896D01*
X104080481Y-48962887D01*
X104080896Y-48961886D01*
X104081237Y-48960861D01*
X104081242Y-48960848D01*
X104214050Y-48561823D01*
X104214054Y-48561811D01*
X104214394Y-48560788D01*
X104222244Y-48530035D01*
X104318670Y-48152243D01*
X104318670Y-48152242D01*
X104318939Y-48151189D01*
X104325041Y-48117371D01*
X104393329Y-47738870D01*
X104393996Y-47735175D01*
X104439184Y-47314867D01*
X104453849Y-46904300D01*
X104454227Y-46901056D01*
X104454227Y-46898346D01*
X104455408Y-46892406D01*
X104451682Y-46873674D01*
X104450500Y-46861676D01*
X104450500Y-46500492D01*
X104468513Y-46457005D01*
X104474561Y-46451701D01*
X104482557Y-46445566D01*
X104574791Y-46374791D01*
X104659024Y-46265017D01*
X104661507Y-46259024D01*
X104710431Y-46140908D01*
X104711974Y-46137183D01*
X104730035Y-46000000D01*
X104711974Y-45862817D01*
X104695616Y-45823324D01*
X104660566Y-45738705D01*
X104660565Y-45738703D01*
X104659024Y-45734983D01*
X104603649Y-45662817D01*
X104577245Y-45628407D01*
X104574791Y-45625209D01*
X104465018Y-45540976D01*
X104461298Y-45539435D01*
X104461296Y-45539434D01*
X104340908Y-45489569D01*
X104340909Y-45489569D01*
X104337183Y-45488026D01*
X104200000Y-45469965D01*
X104062817Y-45488026D01*
X104059092Y-45489569D01*
X103938705Y-45539434D01*
X103938703Y-45539435D01*
X103934983Y-45540976D01*
X103825209Y-45625209D01*
X103822755Y-45628407D01*
X103796351Y-45662817D01*
X103740976Y-45734983D01*
X103739435Y-45738703D01*
X103739434Y-45738705D01*
X103704384Y-45823324D01*
X103688026Y-45862817D01*
X103669965Y-46000000D01*
X103688026Y-46137183D01*
X103689569Y-46140908D01*
X103738494Y-46259024D01*
X103740976Y-46265017D01*
X103825209Y-46374791D01*
X103917444Y-46445566D01*
X103925439Y-46451701D01*
X103948974Y-46492465D01*
X103949500Y-46500492D01*
X103949500Y-46861676D01*
X103948318Y-46873674D01*
X103944592Y-46892406D01*
X103945773Y-46898344D01*
X103945773Y-46898347D01*
X103947270Y-46905873D01*
X103948404Y-46920283D01*
X103932895Y-47315012D01*
X103932516Y-47319823D01*
X103916194Y-47457729D01*
X103883089Y-47737435D01*
X103882333Y-47742204D01*
X103800296Y-48154626D01*
X103799169Y-48159322D01*
X103685023Y-48564053D01*
X103683531Y-48568645D01*
X103537984Y-48963167D01*
X103536136Y-48967629D01*
X103360077Y-49349530D01*
X103357896Y-49353809D01*
X103152402Y-49720746D01*
X103149905Y-49724820D01*
X102985620Y-49970690D01*
X102946483Y-49996840D01*
X102916301Y-49995272D01*
X102737101Y-49939801D01*
X102711803Y-49937142D01*
X102549830Y-49920118D01*
X102549831Y-49920118D01*
X102546843Y-49919804D01*
X102543854Y-49920076D01*
X102543853Y-49920076D01*
X102359322Y-49936869D01*
X102359319Y-49936869D01*
X102356325Y-49937142D01*
X102172803Y-49991156D01*
X102170133Y-49992552D01*
X102005935Y-50078392D01*
X102005930Y-50078396D01*
X102003268Y-50079787D01*
X102000924Y-50081672D01*
X102000922Y-50081673D01*
X101896732Y-50165444D01*
X101854176Y-50199660D01*
X101852246Y-50201960D01*
X101844128Y-50211635D01*
X101731207Y-50346208D01*
X101729762Y-50348837D01*
X101729761Y-50348838D01*
X101718072Y-50370100D01*
X101639045Y-50513850D01*
X101638137Y-50516713D01*
X101597125Y-50646000D01*
X101581200Y-50696201D01*
X101559876Y-50886314D01*
X101575884Y-51076948D01*
X101576711Y-51079833D01*
X101576712Y-51079837D01*
X101587416Y-51117166D01*
X101628614Y-51260843D01*
X101716060Y-51430993D01*
X101834889Y-51580918D01*
X101980575Y-51704907D01*
X101983201Y-51706375D01*
X101983203Y-51706376D01*
X102122659Y-51784315D01*
X102151832Y-51821255D01*
X102146341Y-51868003D01*
X102109401Y-51897176D01*
X102092656Y-51899500D01*
X100443127Y-51899500D01*
X100399640Y-51881487D01*
X100381627Y-51838000D01*
X100399640Y-51794513D01*
X100415398Y-51783106D01*
X100525228Y-51727627D01*
X100559014Y-51701231D01*
X100673605Y-51611703D01*
X100673606Y-51611702D01*
X100675979Y-51609848D01*
X100684790Y-51599641D01*
X100799015Y-51467309D01*
X100799016Y-51467308D01*
X100800982Y-51465030D01*
X100895476Y-51298691D01*
X100925668Y-51207929D01*
X100954911Y-51120023D01*
X100954912Y-51120019D01*
X100955861Y-51117166D01*
X100979838Y-50927369D01*
X100980220Y-50900000D01*
X100961552Y-50709608D01*
X100906259Y-50526467D01*
X100816446Y-50357555D01*
X100805319Y-50343911D01*
X100697437Y-50211635D01*
X100695535Y-50209303D01*
X100670500Y-50188592D01*
X100550446Y-50089275D01*
X100550444Y-50089274D01*
X100548132Y-50087361D01*
X100545488Y-50085932D01*
X100545486Y-50085930D01*
X100382495Y-49997800D01*
X100382490Y-49997798D01*
X100379851Y-49996371D01*
X100376986Y-49995484D01*
X100376981Y-49995482D01*
X100293815Y-49969739D01*
X100257599Y-49939672D01*
X100250500Y-49910989D01*
X100250500Y-48531971D01*
X100251683Y-48519967D01*
X100254226Y-48507191D01*
X100254226Y-48507190D01*
X100255408Y-48501250D01*
X100253640Y-48492355D01*
X100252846Y-48487252D01*
X100238917Y-48363534D01*
X100238916Y-48363531D01*
X100238530Y-48360100D01*
X100191627Y-48226026D01*
X100157751Y-48172103D01*
X100148855Y-48131363D01*
X100149645Y-48125362D01*
X100149645Y-48125361D01*
X100150171Y-48121366D01*
X100132110Y-47984183D01*
X100085173Y-47870866D01*
X100080702Y-47860071D01*
X100080701Y-47860069D01*
X100079160Y-47856349D01*
X100029482Y-47791608D01*
X99997381Y-47749773D01*
X99994927Y-47746575D01*
X99885154Y-47662342D01*
X99881434Y-47660801D01*
X99881432Y-47660800D01*
X99761044Y-47610935D01*
X99761045Y-47610935D01*
X99757319Y-47609392D01*
X99620136Y-47591331D01*
X99482953Y-47609392D01*
X99479228Y-47610935D01*
X99358841Y-47660800D01*
X99358839Y-47660801D01*
X99355119Y-47662342D01*
X99319785Y-47689455D01*
X99260597Y-47734872D01*
X99245345Y-47746575D01*
X99242891Y-47749773D01*
X99210790Y-47791608D01*
X99170026Y-47815143D01*
X99124560Y-47802960D01*
X99101025Y-47762196D01*
X99100499Y-47754169D01*
X99100499Y-47736862D01*
X99094259Y-47689455D01*
X99045747Y-47585421D01*
X98964579Y-47504253D01*
X98911009Y-47479273D01*
X98879209Y-47444569D01*
X98875500Y-47423535D01*
X98875500Y-47199781D01*
X98893513Y-47156294D01*
X98911009Y-47144043D01*
X99009702Y-47098021D01*
X99014579Y-47095747D01*
X99095747Y-47014579D01*
X99144259Y-46910545D01*
X99145081Y-46904305D01*
X99150238Y-46865128D01*
X99150500Y-46863139D01*
X99150499Y-46236862D01*
X99144259Y-46189455D01*
X99095747Y-46085421D01*
X99014579Y-46004253D01*
X98910545Y-45955741D01*
X98905883Y-45955127D01*
X98905882Y-45955127D01*
X98878976Y-45951585D01*
X98863139Y-45949500D01*
X98625060Y-45949500D01*
X98386862Y-45949501D01*
X98384872Y-45949763D01*
X98384871Y-45949763D01*
X98344119Y-45955127D01*
X98344118Y-45955127D01*
X98339455Y-45955741D01*
X98235421Y-46004253D01*
X98182687Y-46056987D01*
X98139200Y-46075000D01*
X97460800Y-46075000D01*
X97417313Y-46056987D01*
X97364579Y-46004253D01*
X97311009Y-45979273D01*
X97279209Y-45944569D01*
X97275500Y-45923535D01*
X97275500Y-45699781D01*
X97293513Y-45656294D01*
X97311009Y-45644043D01*
X97409702Y-45598021D01*
X97414579Y-45595747D01*
X97495747Y-45514579D01*
X97544259Y-45410545D01*
X97550500Y-45363139D01*
X97550499Y-44736862D01*
X97544259Y-44689455D01*
X97497169Y-44588470D01*
X97495116Y-44541446D01*
X97526916Y-44506742D01*
X97552907Y-44500980D01*
X100619753Y-44500980D01*
X100631750Y-44502162D01*
X100650483Y-44505888D01*
X100656421Y-44504707D01*
X100656427Y-44504707D01*
X100660438Y-44503909D01*
X100676821Y-44502884D01*
X100873654Y-44516959D01*
X100882339Y-44518207D01*
X101089420Y-44563253D01*
X101096679Y-44564832D01*
X101105098Y-44567304D01*
X101310621Y-44643958D01*
X101318596Y-44647600D01*
X101485902Y-44738955D01*
X101511113Y-44752721D01*
X101518492Y-44757463D01*
X101602736Y-44820526D01*
X101694095Y-44888915D01*
X101700727Y-44894662D01*
X101855827Y-45049761D01*
X101861573Y-45056392D01*
X101993026Y-45231990D01*
X101997769Y-45239370D01*
X102091239Y-45410545D01*
X102102893Y-45431888D01*
X102106537Y-45439868D01*
X102175666Y-45625209D01*
X102183189Y-45645380D01*
X102185661Y-45653795D01*
X102188493Y-45666814D01*
X102232290Y-45868145D01*
X102233538Y-45876830D01*
X102247611Y-46073589D01*
X102246586Y-46089974D01*
X102244592Y-46100000D01*
X102245774Y-46105942D01*
X102248318Y-46118732D01*
X102249500Y-46130730D01*
X102249500Y-47499508D01*
X102231487Y-47542995D01*
X102225439Y-47548299D01*
X102169359Y-47591331D01*
X102125209Y-47625209D01*
X102040976Y-47734983D01*
X102039435Y-47738703D01*
X102039434Y-47738705D01*
X102039366Y-47738870D01*
X101988026Y-47862817D01*
X101969965Y-48000000D01*
X101988026Y-48137183D01*
X101989569Y-48140908D01*
X102024826Y-48226026D01*
X102040976Y-48265017D01*
X102125209Y-48374791D01*
X102234982Y-48459024D01*
X102238702Y-48460565D01*
X102238704Y-48460566D01*
X102309324Y-48489817D01*
X102362817Y-48511974D01*
X102500000Y-48530035D01*
X102637183Y-48511974D01*
X102690676Y-48489817D01*
X102761296Y-48460566D01*
X102761298Y-48460565D01*
X102765018Y-48459024D01*
X102874791Y-48374791D01*
X102959024Y-48265017D01*
X102975175Y-48226026D01*
X103010431Y-48140908D01*
X103011974Y-48137183D01*
X103030035Y-48000000D01*
X103011974Y-47862817D01*
X102960634Y-47738870D01*
X102960566Y-47738705D01*
X102960565Y-47738703D01*
X102959024Y-47734983D01*
X102874791Y-47625209D01*
X102774561Y-47548298D01*
X102751026Y-47507535D01*
X102750500Y-47499508D01*
X102750500Y-46130730D01*
X102751682Y-46118732D01*
X102754225Y-46105946D01*
X102755408Y-46100000D01*
X102754808Y-46096986D01*
X102754349Y-46089974D01*
X102739460Y-45862817D01*
X102737001Y-45825305D01*
X102683296Y-45555310D01*
X102594808Y-45294635D01*
X102591549Y-45288026D01*
X102473942Y-45049544D01*
X102473940Y-45049540D01*
X102473052Y-45047740D01*
X102396582Y-44933295D01*
X102321231Y-44820526D01*
X102321230Y-44820525D01*
X102320111Y-44818850D01*
X102318787Y-44817341D01*
X102318783Y-44817335D01*
X102139928Y-44613393D01*
X102138602Y-44611881D01*
X102080333Y-44560781D01*
X101933151Y-44431707D01*
X101933150Y-44431706D01*
X101931632Y-44430375D01*
X101920445Y-44422900D01*
X101704415Y-44278556D01*
X101704413Y-44278555D01*
X101702740Y-44277437D01*
X101455844Y-44155683D01*
X101195168Y-44067198D01*
X101193186Y-44066804D01*
X101193183Y-44066803D01*
X101060170Y-44040347D01*
X100925172Y-44013496D01*
X100653641Y-43995701D01*
X100650477Y-43995072D01*
X100644540Y-43996253D01*
X100644538Y-43996253D01*
X100631746Y-43998798D01*
X100619747Y-43999980D01*
X96380253Y-43999980D01*
X96368254Y-43998798D01*
X96355465Y-43996254D01*
X96349523Y-43995072D01*
X96344747Y-43996022D01*
X96341207Y-43996254D01*
X96340967Y-43996254D01*
X96340730Y-43996285D01*
X96087908Y-44012853D01*
X96085927Y-44013247D01*
X95832745Y-44063606D01*
X95832743Y-44063607D01*
X95830770Y-44063999D01*
X95582507Y-44148270D01*
X95580699Y-44149162D01*
X95580698Y-44149162D01*
X95565666Y-44156575D01*
X95347368Y-44264225D01*
X95345695Y-44265343D01*
X95345693Y-44265344D01*
X95181892Y-44374791D01*
X95129376Y-44409881D01*
X94932260Y-44582744D01*
X94930934Y-44584256D01*
X94760723Y-44778342D01*
X94760719Y-44778348D01*
X94759395Y-44779857D01*
X94758276Y-44781532D01*
X94758275Y-44781533D01*
X94732221Y-44820526D01*
X94613737Y-44997848D01*
X94612849Y-44999648D01*
X94612847Y-44999652D01*
X94498668Y-45231182D01*
X94498665Y-45231190D01*
X94497779Y-45232986D01*
X94413505Y-45481248D01*
X94413111Y-45483229D01*
X94380036Y-45649507D01*
X94362356Y-45738386D01*
X94347653Y-45962715D01*
X94345776Y-45991348D01*
X94345773Y-45991371D01*
X94345773Y-45991392D01*
X94345512Y-45995374D01*
X94344592Y-46000000D01*
X94345774Y-46005941D01*
X94348318Y-46018732D01*
X94349500Y-46030730D01*
X94349500Y-47369270D01*
X94348318Y-47381268D01*
X94344592Y-47400000D01*
X94345774Y-47405942D01*
X94345774Y-47406952D01*
X94346430Y-47411936D01*
X94361043Y-47634875D01*
X94361437Y-47636855D01*
X94361437Y-47636856D01*
X94405097Y-47856349D01*
X94406963Y-47865732D01*
X94407609Y-47867634D01*
X94407610Y-47867639D01*
X94481975Y-48086712D01*
X94482623Y-48088620D01*
X94516345Y-48157001D01*
X94584627Y-48295464D01*
X94586728Y-48299725D01*
X94611736Y-48337152D01*
X94713744Y-48489817D01*
X94717498Y-48495436D01*
X94802131Y-48591942D01*
X94864807Y-48663411D01*
X94867868Y-48667400D01*
X94868585Y-48668116D01*
X94871948Y-48673150D01*
X94876983Y-48676514D01*
X94887833Y-48683764D01*
X94897152Y-48691412D01*
X96583345Y-50377606D01*
X96601358Y-50421093D01*
X96593751Y-50450720D01*
X96559045Y-50513850D01*
X96558137Y-50516713D01*
X96517125Y-50646000D01*
X96501200Y-50696201D01*
X96479876Y-50886314D01*
X96495884Y-51076948D01*
X96496711Y-51079833D01*
X96496712Y-51079837D01*
X96507416Y-51117166D01*
X96548614Y-51260843D01*
X96636060Y-51430993D01*
X96754889Y-51580918D01*
X96900575Y-51704907D01*
X96903201Y-51706375D01*
X96903203Y-51706376D01*
X97042659Y-51784315D01*
X97071832Y-51821255D01*
X97066341Y-51868003D01*
X97029401Y-51897176D01*
X97012656Y-51899500D01*
X96335526Y-51899500D01*
X96292039Y-51881487D01*
X96274026Y-51838000D01*
X96274386Y-51831358D01*
X96277820Y-51799749D01*
X96278000Y-51796422D01*
X96277999Y-51166234D01*
X96274416Y-51157583D01*
X96265765Y-51154000D01*
X94727500Y-51154000D01*
X94684013Y-51135987D01*
X94666000Y-51092500D01*
X94666000Y-50633766D01*
X95174000Y-50633766D01*
X95177583Y-50642417D01*
X95186234Y-50646000D01*
X96265765Y-50646000D01*
X96274416Y-50642417D01*
X96277999Y-50633766D01*
X96277999Y-50520291D01*
X96277755Y-50516429D01*
X96267618Y-50436454D01*
X96265519Y-50428560D01*
X96212874Y-50301775D01*
X96208774Y-50294730D01*
X96159836Y-50231753D01*
X96157302Y-50228882D01*
X95591137Y-49662717D01*
X95588228Y-49660153D01*
X95524504Y-49610767D01*
X95517449Y-49606676D01*
X95390563Y-49554247D01*
X95382690Y-49552167D01*
X95303538Y-49542238D01*
X95299733Y-49542000D01*
X95186234Y-49542000D01*
X95177583Y-49545583D01*
X95174000Y-49554234D01*
X95174000Y-50633766D01*
X94666000Y-50633766D01*
X94666000Y-49554234D01*
X94662417Y-49545583D01*
X94653766Y-49542000D01*
X94023581Y-49542001D01*
X94020249Y-49542182D01*
X93963629Y-49548331D01*
X93956179Y-49550103D01*
X93827646Y-49598288D01*
X93820029Y-49602458D01*
X93710600Y-49684470D01*
X93705487Y-49689583D01*
X93662000Y-49707596D01*
X93618513Y-49689583D01*
X93600500Y-49646096D01*
X93600500Y-38862000D01*
X93618513Y-38818513D01*
X93662000Y-38800500D01*
X96460771Y-38800500D01*
X96504258Y-38818513D01*
G37*
%TD.AperFunction*%
%TD*%
M02*
