%TF.GenerationSoftware,KiCad,Pcbnew,(6.0.1-0)*%
%TF.CreationDate,2022-01-30T07:56:12+00:00*%
%TF.ProjectId,Generic2,47656e65-7269-4633-922e-6b696361645f,1*%
%TF.SameCoordinates,Original*%
%TF.FileFunction,Legend,Top*%
%TF.FilePolarity,Positive*%
%FSLAX46Y46*%
G04 Gerber Fmt 4.6, Leading zero omitted, Abs format (unit mm)*
G04 Created by KiCad (PCBNEW (6.0.1-0)) date 2022-01-30 07:56:12*
%MOMM*%
%LPD*%
G01*
G04 APERTURE LIST*
%ADD10C,0.080000*%
%ADD11C,0.120000*%
G04 APERTURE END LIST*
D10*
X182640476Y-115938095D02*
X182640476Y-115461904D01*
X182783333Y-115842857D02*
X182783333Y-115557142D01*
X182426190Y-115700000D02*
X182640476Y-115700000D01*
X182926190Y-115652380D02*
X182926190Y-115747619D01*
D11*
%TO.C,JP8*%
X161522936Y-90900000D02*
X162977064Y-90900000D01*
X161522936Y-89080000D02*
X162977064Y-89080000D01*
%TO.C,JP7*%
X161522936Y-93400000D02*
X162977064Y-93400000D01*
X161522936Y-91580000D02*
X162977064Y-91580000D01*
%TO.C,JP6*%
X155700000Y-90535436D02*
X155700000Y-91989564D01*
X157520000Y-90535436D02*
X157520000Y-91989564D01*
%TO.C,JP5*%
X161522936Y-95900000D02*
X162977064Y-95900000D01*
X161522936Y-94080000D02*
X162977064Y-94080000D01*
%TO.C,JP4*%
X133977064Y-106600000D02*
X132522936Y-106600000D01*
X133977064Y-108420000D02*
X132522936Y-108420000D01*
%TO.C,JP3*%
X133977064Y-104350000D02*
X132522936Y-104350000D01*
X133977064Y-106170000D02*
X132522936Y-106170000D01*
%TO.C,JP2*%
X138300000Y-105622936D02*
X138300000Y-107077064D01*
X140120000Y-105622936D02*
X140120000Y-107077064D01*
%TO.C,JP1*%
X133977064Y-101700000D02*
X132522936Y-101700000D01*
X133977064Y-103520000D02*
X132522936Y-103520000D01*
%TO.C,U2*%
X139340000Y-96715000D02*
X139340000Y-95990000D01*
X143560000Y-99485000D02*
X143560000Y-100210000D01*
X143560000Y-96715000D02*
X143560000Y-95990000D01*
X143560000Y-100210000D02*
X142835000Y-100210000D01*
X139340000Y-95990000D02*
X140065000Y-95990000D01*
X143560000Y-95990000D02*
X142835000Y-95990000D01*
X139932843Y-99900000D02*
G75*
G03*
X139932843Y-99900000I-282843J0D01*
G01*
%TO.C,R3*%
X142100000Y-91058217D02*
X142100000Y-90458217D01*
X143100000Y-91058217D02*
X143100000Y-90458217D01*
%TO.C,D2*%
X157325000Y-106835000D02*
X157325000Y-104565000D01*
X157325000Y-104565000D02*
X153440000Y-104565000D01*
X153440000Y-106835000D02*
X157325000Y-106835000D01*
%TO.C,C1*%
X141080000Y-102480000D02*
X141680000Y-102480000D01*
X141080000Y-101480000D02*
X141680000Y-101480000D01*
%TO.C,R5*%
X150525000Y-102200000D02*
X149925000Y-102200000D01*
X150525000Y-101200000D02*
X149925000Y-101200000D01*
%TO.C,D4*%
X134410000Y-95700000D02*
X134410000Y-93800000D01*
X132090000Y-94300000D02*
X132090000Y-95700000D01*
%TO.C,D3*%
X134410000Y-100200000D02*
X134410000Y-98300000D01*
X132090000Y-98800000D02*
X132090000Y-100200000D01*
%TO.C,R4*%
X145400000Y-102200000D02*
X144800000Y-102200000D01*
X145400000Y-101200000D02*
X144800000Y-101200000D01*
%TO.C,R6*%
X146100000Y-97900000D02*
X145500000Y-97900000D01*
X146100000Y-96900000D02*
X145500000Y-96900000D01*
%TO.C,R7*%
X145500000Y-98100000D02*
X146100000Y-98100000D01*
X145500000Y-99100000D02*
X146100000Y-99100000D01*
%TO.C,R1*%
X140900000Y-91058217D02*
X140900000Y-90458217D01*
X141900000Y-91058217D02*
X141900000Y-90458217D01*
%TO.C,R2*%
X143300000Y-91058217D02*
X143300000Y-90458217D01*
X144300000Y-91058217D02*
X144300000Y-90458217D01*
%TO.C,C4*%
X155400000Y-103400000D02*
X154800000Y-103400000D01*
X155400000Y-104400000D02*
X154800000Y-104400000D01*
%TO.C,C2*%
X146100000Y-95700000D02*
X145500000Y-95700000D01*
X146100000Y-96700000D02*
X145500000Y-96700000D01*
%TO.C,C3*%
X146100000Y-99300000D02*
X145500000Y-99300000D01*
X146100000Y-100300000D02*
X145500000Y-100300000D01*
%TO.C,D8*%
X161090000Y-101800000D02*
X161090000Y-103700000D01*
X163410000Y-103200000D02*
X163410000Y-101800000D01*
%TO.C,R9*%
X153500000Y-98900000D02*
X152900000Y-98900000D01*
X153500000Y-97900000D02*
X152900000Y-97900000D01*
%TO.C,D9*%
X161090000Y-106300000D02*
X161090000Y-108200000D01*
X163410000Y-107700000D02*
X163410000Y-106300000D01*
%TO.C,D7*%
X161090000Y-97550000D02*
X161090000Y-99450000D01*
X163410000Y-98950000D02*
X163410000Y-97550000D01*
%TO.C,R8*%
X153500000Y-97700000D02*
X152900000Y-97700000D01*
X153500000Y-96700000D02*
X152900000Y-96700000D01*
%TO.C,D5*%
X134410000Y-91200000D02*
X134410000Y-89300000D01*
X132090000Y-89800000D02*
X132090000Y-91200000D01*
%TD*%
M02*
