%TF.GenerationSoftware,KiCad,Pcbnew,(6.0.2-0)*%
%TF.CreationDate,2022-05-02T09:33:13+01:00*%
%TF.ProjectId,Generic6,47656e65-7269-4633-962e-6b696361645f,1*%
%TF.SameCoordinates,Original*%
%TF.FileFunction,Soldermask,Bot*%
%TF.FilePolarity,Negative*%
%FSLAX46Y46*%
G04 Gerber Fmt 4.6, Leading zero omitted, Abs format (unit mm)*
G04 Created by KiCad (PCBNEW (6.0.2-0)) date 2022-05-02 09:33:13*
%MOMM*%
%LPD*%
G01*
G04 APERTURE LIST*
G04 Aperture macros list*
%AMRoundRect*
0 Rectangle with rounded corners*
0 $1 Rounding radius*
0 $2 $3 $4 $5 $6 $7 $8 $9 X,Y pos of 4 corners*
0 Add a 4 corners polygon primitive as box body*
4,1,4,$2,$3,$4,$5,$6,$7,$8,$9,$2,$3,0*
0 Add four circle primitives for the rounded corners*
1,1,$1+$1,$2,$3*
1,1,$1+$1,$4,$5*
1,1,$1+$1,$6,$7*
1,1,$1+$1,$8,$9*
0 Add four rect primitives between the rounded corners*
20,1,$1+$1,$2,$3,$4,$5,0*
20,1,$1+$1,$4,$5,$6,$7,0*
20,1,$1+$1,$6,$7,$8,$9,0*
20,1,$1+$1,$8,$9,$2,$3,0*%
G04 Aperture macros list end*
%ADD10O,1.720000X1.720000*%
%ADD11RoundRect,0.010000X-0.850000X-0.850000X0.850000X-0.850000X0.850000X0.850000X-0.850000X0.850000X0*%
%ADD12RoundRect,0.010000X0.850000X0.850000X-0.850000X0.850000X-0.850000X-0.850000X0.850000X-0.850000X0*%
%ADD13RoundRect,0.210000X-0.275000X0.200000X-0.275000X-0.200000X0.275000X-0.200000X0.275000X0.200000X0*%
%ADD14RoundRect,0.210000X0.275000X-0.200000X0.275000X0.200000X-0.275000X0.200000X-0.275000X-0.200000X0*%
%ADD15RoundRect,0.010000X-0.850000X0.850000X-0.850000X-0.850000X0.850000X-0.850000X0.850000X0.850000X0*%
%ADD16RoundRect,0.210000X-0.200000X-0.275000X0.200000X-0.275000X0.200000X0.275000X-0.200000X0.275000X0*%
%ADD17RoundRect,0.010000X-0.425000X-0.250000X0.425000X-0.250000X0.425000X0.250000X-0.425000X0.250000X0*%
%ADD18RoundRect,0.010000X-0.300000X0.550000X-0.300000X-0.550000X0.300000X-0.550000X0.300000X0.550000X0*%
%ADD19RoundRect,0.010000X-0.712500X1.850000X-0.712500X-1.850000X0.712500X-1.850000X0.712500X1.850000X0*%
%ADD20RoundRect,0.259375X-0.463125X-0.625625X0.463125X-0.625625X0.463125X0.625625X-0.463125X0.625625X0*%
%ADD21RoundRect,0.235000X-0.250000X0.225000X-0.250000X-0.225000X0.250000X-0.225000X0.250000X0.225000X0*%
%ADD22RoundRect,0.260000X0.475000X-0.250000X0.475000X0.250000X-0.475000X0.250000X-0.475000X-0.250000X0*%
G04 APERTURE END LIST*
D10*
%TO.C,J2*%
X92390000Y-50935000D03*
X92390000Y-48395000D03*
X92390000Y-45855000D03*
X92390000Y-43315000D03*
D11*
X92390000Y-40775000D03*
%TD*%
D12*
%TO.C,J3*%
X107630000Y-50950000D03*
D10*
X107630000Y-48410000D03*
X107630000Y-45870000D03*
X107630000Y-43330000D03*
X107630000Y-40790000D03*
%TD*%
D13*
%TO.C,R2*%
X104600000Y-43875000D03*
X104600000Y-45525000D03*
%TD*%
D14*
%TO.C,C1*%
X98400000Y-49125000D03*
X98400000Y-47575000D03*
%TD*%
%TO.C,R6*%
X99600000Y-48725000D03*
X99600000Y-47075000D03*
%TD*%
D15*
%TO.C,J1*%
X94930000Y-50950000D03*
D10*
X97470000Y-50950000D03*
X100010000Y-50950000D03*
X102550000Y-50950000D03*
X105090000Y-50950000D03*
%TD*%
D13*
%TO.C,R1*%
X103350000Y-43875000D03*
X103350000Y-45525000D03*
%TD*%
%TO.C,R3*%
X105850000Y-43875000D03*
X105850000Y-45525000D03*
%TD*%
D16*
%TO.C,R4*%
X97225000Y-47600000D03*
X95575000Y-47600000D03*
%TD*%
D17*
%TO.C,D1*%
X105775000Y-41100000D03*
X104025000Y-41100000D03*
X104025000Y-42100000D03*
X105775000Y-42100000D03*
%TD*%
D16*
%TO.C,C5*%
X97175000Y-48775000D03*
X95625000Y-48775000D03*
%TD*%
D18*
%TO.C,U2*%
X97400000Y-45150000D03*
D19*
X98850000Y-43750000D03*
D20*
X97247500Y-40630000D03*
D21*
X94350000Y-42775000D03*
X94350000Y-44325000D03*
D18*
X97400000Y-42450000D03*
X95500000Y-42450000D03*
D22*
X95600000Y-41200000D03*
D18*
X96450000Y-42450000D03*
X96450000Y-45150000D03*
D22*
X95600000Y-39300000D03*
X101850000Y-39300000D03*
D20*
X100212500Y-40630000D03*
D22*
X101850000Y-41200000D03*
D19*
X101850000Y-43750000D03*
D18*
X95500000Y-45150000D03*
%TD*%
D14*
%TO.C,R5*%
X94350000Y-47175000D03*
X94350000Y-45525000D03*
%TD*%
M02*
