%TF.GenerationSoftware,KiCad,Pcbnew,(6.0.2-0)*%
%TF.CreationDate,2022-05-03T11:34:54+01:00*%
%TF.ProjectId,Generic6,47656e65-7269-4633-962e-6b696361645f,1*%
%TF.SameCoordinates,Original*%
%TF.FileFunction,Soldermask,Bot*%
%TF.FilePolarity,Negative*%
%FSLAX46Y46*%
G04 Gerber Fmt 4.6, Leading zero omitted, Abs format (unit mm)*
G04 Created by KiCad (PCBNEW (6.0.2-0)) date 2022-05-03 11:34:54*
%MOMM*%
%LPD*%
G01*
G04 APERTURE LIST*
G04 Aperture macros list*
%AMRoundRect*
0 Rectangle with rounded corners*
0 $1 Rounding radius*
0 $2 $3 $4 $5 $6 $7 $8 $9 X,Y pos of 4 corners*
0 Add a 4 corners polygon primitive as box body*
4,1,4,$2,$3,$4,$5,$6,$7,$8,$9,$2,$3,0*
0 Add four circle primitives for the rounded corners*
1,1,$1+$1,$2,$3*
1,1,$1+$1,$4,$5*
1,1,$1+$1,$6,$7*
1,1,$1+$1,$8,$9*
0 Add four rect primitives between the rounded corners*
20,1,$1+$1,$2,$3,$4,$5,0*
20,1,$1+$1,$4,$5,$6,$7,0*
20,1,$1+$1,$6,$7,$8,$9,0*
20,1,$1+$1,$8,$9,$2,$3,0*%
%AMFreePoly0*
4,1,14,0.857071,0.857071,0.860000,0.850000,0.860000,-0.850000,0.857071,-0.857071,0.850000,-0.860000,-0.340000,-0.860000,-0.347071,-0.857071,-0.857071,-0.347071,-0.860000,-0.340000,-0.860000,0.850000,-0.857071,0.857071,-0.850000,0.860000,0.850000,0.860000,0.857071,0.857071,0.857071,0.857071,$1*%
G04 Aperture macros list end*
%ADD10C,1.720000*%
%ADD11RoundRect,0.145000X-0.185000X0.135000X-0.185000X-0.135000X0.185000X-0.135000X0.185000X0.135000X0*%
%ADD12RoundRect,0.145000X0.135000X0.185000X-0.135000X0.185000X-0.135000X-0.185000X0.135000X-0.185000X0*%
%ADD13FreePoly0,270.000000*%
%ADD14O,1.720000X1.720000*%
%ADD15RoundRect,0.145000X-0.135000X-0.185000X0.135000X-0.185000X0.135000X0.185000X-0.135000X0.185000X0*%
%ADD16RoundRect,0.010000X-0.425000X-0.250000X0.425000X-0.250000X0.425000X0.250000X-0.425000X0.250000X0*%
%ADD17RoundRect,0.010000X0.300000X-0.550000X0.300000X0.550000X-0.300000X0.550000X-0.300000X-0.550000X0*%
%ADD18RoundRect,0.235000X0.250000X-0.225000X0.250000X0.225000X-0.250000X0.225000X-0.250000X-0.225000X0*%
%ADD19RoundRect,0.259375X0.463125X0.625625X-0.463125X0.625625X-0.463125X-0.625625X0.463125X-0.625625X0*%
%ADD20RoundRect,0.010000X0.712500X-1.850000X0.712500X1.850000X-0.712500X1.850000X-0.712500X-1.850000X0*%
%ADD21RoundRect,0.260000X-0.475000X0.250000X-0.475000X-0.250000X0.475000X-0.250000X0.475000X0.250000X0*%
G04 APERTURE END LIST*
D10*
%TO.C,P2*%
X92710000Y-52070000D03*
%TD*%
D11*
%TO.C,R2*%
X103869502Y-42277704D03*
X103869502Y-43277704D03*
%TD*%
D10*
%TO.C,P8*%
X92710000Y-46990000D03*
%TD*%
%TO.C,P4*%
X97790000Y-52070000D03*
%TD*%
%TO.C,P11*%
X92710000Y-41910000D03*
%TD*%
%TO.C,P10*%
X92710000Y-39370000D03*
%TD*%
%TO.C,P7*%
X107950000Y-39370000D03*
%TD*%
%TO.C,P6*%
X95250000Y-52070000D03*
%TD*%
D12*
%TO.C,C1*%
X98300000Y-48500000D03*
X97300000Y-48500000D03*
%TD*%
D10*
%TO.C,P1*%
X102870000Y-52070000D03*
%TD*%
%TO.C,P12*%
X105410000Y-52070000D03*
%TD*%
D11*
%TO.C,R6*%
X102600000Y-40400000D03*
X102600000Y-41400000D03*
%TD*%
D10*
%TO.C,P3*%
X92710000Y-44450000D03*
%TD*%
D13*
%TO.C,J1*%
X107950000Y-52070000D03*
D14*
X107950000Y-49530000D03*
X107950000Y-46990000D03*
X107950000Y-44450000D03*
X107950000Y-41910000D03*
%TD*%
D11*
%TO.C,R1*%
X104769502Y-42277704D03*
X104769502Y-43277704D03*
%TD*%
%TO.C,R3*%
X105669502Y-42277704D03*
X105669502Y-43277704D03*
%TD*%
D15*
%TO.C,R4*%
X94700000Y-48500000D03*
X95700000Y-48500000D03*
%TD*%
D16*
%TO.C,D1*%
X105644502Y-40277704D03*
X103894502Y-40277704D03*
X103894502Y-41277704D03*
X105644502Y-41277704D03*
%TD*%
D10*
%TO.C,P9*%
X100330000Y-52070000D03*
%TD*%
D11*
%TO.C,C5*%
X106400000Y-47800000D03*
X106400000Y-48800000D03*
%TD*%
D17*
%TO.C,U2*%
X99550000Y-44250000D03*
D18*
X102600000Y-42375000D03*
X102600000Y-43925000D03*
D19*
X99702500Y-46070000D03*
D17*
X99550000Y-41550000D03*
D20*
X98100000Y-42950000D03*
D17*
X101450000Y-44250000D03*
D21*
X101350000Y-45500000D03*
D17*
X100500000Y-44250000D03*
D19*
X96737500Y-46070000D03*
D17*
X100500000Y-41550000D03*
D21*
X101350000Y-47400000D03*
X95100000Y-47400000D03*
X95100000Y-45500000D03*
D20*
X95100000Y-42950000D03*
D17*
X101450000Y-41550000D03*
%TD*%
D10*
%TO.C,P5*%
X92710000Y-49530000D03*
%TD*%
D15*
%TO.C,R5*%
X94600000Y-40400000D03*
X95600000Y-40400000D03*
%TD*%
M02*
