%TF.GenerationSoftware,KiCad,Pcbnew,(6.0.1-0)*%
%TF.CreationDate,2022-01-18T14:36:21+00:00*%
%TF.ProjectId,Generic,47656e65-7269-4632-9e6b-696361645f70,6*%
%TF.SameCoordinates,Original*%
%TF.FileFunction,Soldermask,Top*%
%TF.FilePolarity,Negative*%
%FSLAX46Y46*%
G04 Gerber Fmt 4.6, Leading zero omitted, Abs format (unit mm)*
G04 Created by KiCad (PCBNEW (6.0.1-0)) date 2022-01-18 14:36:21*
%MOMM*%
%LPD*%
G01*
G04 APERTURE LIST*
G04 Aperture macros list*
%AMRoundRect*
0 Rectangle with rounded corners*
0 $1 Rounding radius*
0 $2 $3 $4 $5 $6 $7 $8 $9 X,Y pos of 4 corners*
0 Add a 4 corners polygon primitive as box body*
4,1,4,$2,$3,$4,$5,$6,$7,$8,$9,$2,$3,0*
0 Add four circle primitives for the rounded corners*
1,1,$1+$1,$2,$3*
1,1,$1+$1,$4,$5*
1,1,$1+$1,$6,$7*
1,1,$1+$1,$8,$9*
0 Add four rect primitives between the rounded corners*
20,1,$1+$1,$2,$3,$4,$5,0*
20,1,$1+$1,$4,$5,$6,$7,0*
20,1,$1+$1,$6,$7,$8,$9,0*
20,1,$1+$1,$8,$9,$2,$3,0*%
%AMFreePoly0*
4,1,6,1.000000,-1.000000,-1.000000,-1.000000,-1.000000,0.750000,-0.750000,1.000000,1.000000,1.000000,1.000000,-1.000000,1.000000,-1.000000,$1*%
G04 Aperture macros list end*
%ADD10O,1.700000X1.700000*%
%ADD11R,1.700000X1.700000*%
%ADD12RoundRect,0.225000X-0.250000X0.225000X-0.250000X-0.225000X0.250000X-0.225000X0.250000X0.225000X0*%
%ADD13RoundRect,0.225000X-0.225000X-0.250000X0.225000X-0.250000X0.225000X0.250000X-0.225000X0.250000X0*%
%ADD14RoundRect,0.200000X-0.200000X-0.275000X0.200000X-0.275000X0.200000X0.275000X-0.200000X0.275000X0*%
%ADD15R,0.850000X0.500000*%
%ADD16RoundRect,0.200000X-0.275000X0.200000X-0.275000X-0.200000X0.275000X-0.200000X0.275000X0.200000X0*%
%ADD17RoundRect,0.200000X0.275000X-0.200000X0.275000X0.200000X-0.275000X0.200000X-0.275000X-0.200000X0*%
%ADD18R,0.650000X0.400000*%
%ADD19RoundRect,0.249750X-0.312750X-0.625250X0.312750X-0.625250X0.312750X0.625250X-0.312750X0.625250X0*%
%ADD20RoundRect,0.250100X-0.262400X-0.449900X0.262400X-0.449900X0.262400X0.449900X-0.262400X0.449900X0*%
%ADD21RoundRect,0.225000X-0.335876X-0.017678X-0.017678X-0.335876X0.335876X0.017678X0.017678X0.335876X0*%
%ADD22RoundRect,0.250000X-0.625000X0.375000X-0.625000X-0.375000X0.625000X-0.375000X0.625000X0.375000X0*%
%ADD23R,0.800000X0.400000*%
%ADD24RoundRect,0.200000X0.200000X0.275000X-0.200000X0.275000X-0.200000X-0.275000X0.200000X-0.275000X0*%
%ADD25RoundRect,0.062500X0.062500X-0.287500X0.062500X0.287500X-0.062500X0.287500X-0.062500X-0.287500X0*%
%ADD26RoundRect,0.062500X0.287500X-0.062500X0.287500X0.062500X-0.287500X0.062500X-0.287500X-0.062500X0*%
%ADD27C,0.350000*%
%ADD28FreePoly0,90.000000*%
%ADD29RoundRect,0.249750X0.625250X-0.312750X0.625250X0.312750X-0.625250X0.312750X-0.625250X-0.312750X0*%
%ADD30RoundRect,0.250100X0.449900X-0.262400X0.449900X0.262400X-0.449900X0.262400X-0.449900X-0.262400X0*%
%ADD31R,1.140000X0.600000*%
%ADD32C,0.800000*%
%ADD33RoundRect,0.075000X0.495000X-0.075000X0.495000X0.075000X-0.495000X0.075000X-0.495000X-0.075000X0*%
%ADD34C,1.500000*%
%ADD35C,1.250000*%
%ADD36R,5.490000X5.000000*%
%ADD37RoundRect,0.225000X0.250000X-0.225000X0.250000X0.225000X-0.250000X0.225000X-0.250000X-0.225000X0*%
%ADD38RoundRect,0.249375X-0.463125X-0.625625X0.463125X-0.625625X0.463125X0.625625X-0.463125X0.625625X0*%
%ADD39R,1.425000X3.700000*%
%ADD40R,0.600000X1.100000*%
%ADD41RoundRect,0.250000X-0.475000X0.250000X-0.475000X-0.250000X0.475000X-0.250000X0.475000X0.250000X0*%
G04 APERTURE END LIST*
D10*
%TO.C,J1*%
X120345000Y-120500000D03*
X122885000Y-120500000D03*
X125425000Y-120500000D03*
X127965000Y-120500000D03*
X130505000Y-120500000D03*
D11*
X133045000Y-120500000D03*
%TD*%
D12*
%TO.C,C4*%
X131600000Y-116800000D03*
X131600000Y-118350000D03*
%TD*%
%TO.C,C3*%
X132800000Y-116800000D03*
X132800000Y-118350000D03*
%TD*%
D13*
%TO.C,C5*%
X122925000Y-109300000D03*
X124475000Y-109300000D03*
%TD*%
D14*
%TO.C,R9*%
X118375000Y-103600000D03*
X120025000Y-103600000D03*
%TD*%
%TO.C,R8*%
X118375000Y-101200000D03*
X120025000Y-101200000D03*
%TD*%
D15*
%TO.C,D1*%
X120075000Y-100200000D03*
X118325000Y-100200000D03*
X118325000Y-99200000D03*
X120075000Y-99200000D03*
%TD*%
D16*
%TO.C,R14*%
X125700000Y-113575000D03*
X125700000Y-115225000D03*
%TD*%
D17*
%TO.C,R13*%
X126900000Y-115225000D03*
X126900000Y-113575000D03*
%TD*%
D16*
%TO.C,R11*%
X128100000Y-113575000D03*
X128100000Y-115225000D03*
%TD*%
D18*
%TO.C,D3*%
X127500000Y-117150000D03*
X127500000Y-117800000D03*
X127500000Y-118450000D03*
X129400000Y-118450000D03*
X129400000Y-117800000D03*
X129400000Y-117150000D03*
%TD*%
%TO.C,D4*%
X123250000Y-117150000D03*
X123250000Y-117800000D03*
X123250000Y-118450000D03*
X125150000Y-118450000D03*
X125150000Y-117800000D03*
X125150000Y-117150000D03*
%TD*%
D19*
%TO.C,R7*%
X118587500Y-117800000D03*
X121512500Y-117800000D03*
D20*
X120962500Y-117800000D03*
X119137500Y-117800000D03*
%TD*%
D16*
%TO.C,R12*%
X128100000Y-107675000D03*
X128100000Y-109325000D03*
%TD*%
D21*
%TO.C,C2*%
X119051992Y-114751992D03*
X120148008Y-115848008D03*
%TD*%
D18*
%TO.C,U3*%
X123850000Y-103050000D03*
X123850000Y-103700000D03*
X123850000Y-104350000D03*
X125750000Y-104350000D03*
X125750000Y-103700000D03*
X125750000Y-103050000D03*
%TD*%
D16*
%TO.C,R18*%
X126800000Y-102875000D03*
X126800000Y-104525000D03*
%TD*%
D14*
%TO.C,R15*%
X123975000Y-101400000D03*
X125625000Y-101400000D03*
%TD*%
D22*
%TO.C,D2*%
X126100000Y-106000000D03*
X126100000Y-108800000D03*
%TD*%
D23*
%TO.C,Q1*%
X119250000Y-107750000D03*
X119250000Y-108400000D03*
X119250000Y-109050000D03*
X121150000Y-109050000D03*
X121150000Y-107750000D03*
%TD*%
D24*
%TO.C,R20*%
X124425000Y-106900000D03*
X122775000Y-106900000D03*
%TD*%
D14*
%TO.C,R19*%
X122775000Y-105700000D03*
X124425000Y-105700000D03*
%TD*%
%TO.C,R10*%
X118375000Y-102400000D03*
X120025000Y-102400000D03*
%TD*%
D24*
%TO.C,R1*%
X121025000Y-106700000D03*
X119375000Y-106700000D03*
%TD*%
D25*
%TO.C,U2*%
X121700000Y-114600000D03*
X122200000Y-114600000D03*
X122700000Y-114600000D03*
X123200000Y-114600000D03*
X123700000Y-114600000D03*
D26*
X124600000Y-113700000D03*
X124600000Y-113200000D03*
X124600000Y-112700000D03*
X124600000Y-112200000D03*
X124600000Y-111700000D03*
D25*
X123700000Y-110800000D03*
X123200000Y-110800000D03*
X122700000Y-110800000D03*
X122200000Y-110800000D03*
X121700000Y-110800000D03*
D26*
X120800000Y-111700000D03*
X120800000Y-112200000D03*
X120800000Y-112700000D03*
X120800000Y-113200000D03*
X120800000Y-113700000D03*
D27*
X122700000Y-112700000D03*
D28*
X122700000Y-112700000D03*
%TD*%
D29*
%TO.C,C1*%
X135000000Y-120562500D03*
X135000000Y-117637500D03*
D30*
X135000000Y-118187500D03*
X135000000Y-120012500D03*
%TD*%
D11*
%TO.C,J3*%
X134000000Y-125800000D03*
D10*
X134000000Y-123260000D03*
%TD*%
D31*
%TO.C,J2*%
X129385000Y-114300000D03*
D32*
X130455000Y-113990000D03*
X130455000Y-108210000D03*
D31*
X129385000Y-107900000D03*
D33*
X129385000Y-112850000D03*
X129385000Y-109350000D03*
X129385000Y-112350000D03*
X129385000Y-109850000D03*
X129385000Y-111850000D03*
X129385000Y-110350000D03*
X129385000Y-111350000D03*
X129385000Y-110850000D03*
D34*
X129965000Y-115420000D03*
X129965000Y-106780000D03*
D35*
X134135000Y-115420000D03*
X134135000Y-106780000D03*
D31*
X129385000Y-108700000D03*
X129385000Y-113500000D03*
D36*
X133500000Y-111100000D03*
%TD*%
D29*
%TO.C,R6*%
X119700000Y-125812500D03*
X119700000Y-122887500D03*
D30*
X119700000Y-123437500D03*
X119700000Y-125262500D03*
%TD*%
D29*
%TO.C,R5*%
X122970000Y-125812500D03*
X122970000Y-122887500D03*
D30*
X122970000Y-123437500D03*
X122970000Y-125262500D03*
%TD*%
D29*
%TO.C,R4*%
X125470000Y-125812500D03*
X125470000Y-122887500D03*
D30*
X125470000Y-123437500D03*
X125470000Y-125262500D03*
%TD*%
D29*
%TO.C,R3*%
X127970000Y-125812500D03*
X127970000Y-122887500D03*
D30*
X127970000Y-123437500D03*
X127970000Y-125262500D03*
%TD*%
D29*
%TO.C,R2*%
X130470000Y-125812500D03*
X130470000Y-122887500D03*
D30*
X130470000Y-123437500D03*
X130470000Y-125262500D03*
%TD*%
D24*
%TO.C,R16*%
X127925000Y-99600000D03*
X126275000Y-99600000D03*
%TD*%
D14*
%TO.C,R17*%
X123575000Y-99600000D03*
X125225000Y-99600000D03*
%TD*%
D37*
%TO.C,U4*%
X127960000Y-102775000D03*
D38*
X130857500Y-104920000D03*
D39*
X132460000Y-101800000D03*
D40*
X131010000Y-103100000D03*
D37*
X127960000Y-101225000D03*
D40*
X131010000Y-100400000D03*
X129110000Y-103100000D03*
D41*
X129210000Y-104350000D03*
D40*
X130060000Y-103100000D03*
D41*
X135460000Y-106250000D03*
X129210000Y-106250000D03*
D38*
X133822500Y-104920000D03*
D40*
X130060000Y-100400000D03*
D41*
X135460000Y-104350000D03*
D39*
X135460000Y-101800000D03*
D40*
X129110000Y-100400000D03*
%TD*%
M02*
