%TF.GenerationSoftware,KiCad,Pcbnew,(6.0.10-0)*%
%TF.CreationDate,2023-01-05T15:58:09+00:00*%
%TF.ProjectId,Generic5,47656e65-7269-4633-952e-6b696361645f,1*%
%TF.SameCoordinates,Original*%
%TF.FileFunction,Copper,L2,Bot*%
%TF.FilePolarity,Positive*%
%FSLAX46Y46*%
G04 Gerber Fmt 4.6, Leading zero omitted, Abs format (unit mm)*
G04 Created by KiCad (PCBNEW (6.0.10-0)) date 2023-01-05 15:58:09*
%MOMM*%
%LPD*%
G01*
G04 APERTURE LIST*
G04 Aperture macros list*
%AMRoundRect*
0 Rectangle with rounded corners*
0 $1 Rounding radius*
0 $2 $3 $4 $5 $6 $7 $8 $9 X,Y pos of 4 corners*
0 Add a 4 corners polygon primitive as box body*
4,1,4,$2,$3,$4,$5,$6,$7,$8,$9,$2,$3,0*
0 Add four circle primitives for the rounded corners*
1,1,$1+$1,$2,$3*
1,1,$1+$1,$4,$5*
1,1,$1+$1,$6,$7*
1,1,$1+$1,$8,$9*
0 Add four rect primitives between the rounded corners*
20,1,$1+$1,$2,$3,$4,$5,0*
20,1,$1+$1,$4,$5,$6,$7,0*
20,1,$1+$1,$6,$7,$8,$9,0*
20,1,$1+$1,$8,$9,$2,$3,0*%
%AMOutline5P*
0 Free polygon, 5 corners , with rotation*
0 The origin of the aperture is its center*
0 number of corners: always 5*
0 $1 to $10 corner X, Y*
0 $11 Rotation angle, in degrees counterclockwise*
0 create outline with 5 corners*
4,1,5,$1,$2,$3,$4,$5,$6,$7,$8,$9,$10,$1,$2,$11*%
%AMOutline6P*
0 Free polygon, 6 corners , with rotation*
0 The origin of the aperture is its center*
0 number of corners: always 6*
0 $1 to $12 corner X, Y*
0 $13 Rotation angle, in degrees counterclockwise*
0 create outline with 6 corners*
4,1,6,$1,$2,$3,$4,$5,$6,$7,$8,$9,$10,$11,$12,$1,$2,$13*%
%AMOutline7P*
0 Free polygon, 7 corners , with rotation*
0 The origin of the aperture is its center*
0 number of corners: always 7*
0 $1 to $14 corner X, Y*
0 $15 Rotation angle, in degrees counterclockwise*
0 create outline with 7 corners*
4,1,7,$1,$2,$3,$4,$5,$6,$7,$8,$9,$10,$11,$12,$13,$14,$1,$2,$15*%
%AMOutline8P*
0 Free polygon, 8 corners , with rotation*
0 The origin of the aperture is its center*
0 number of corners: always 8*
0 $1 to $16 corner X, Y*
0 $17 Rotation angle, in degrees counterclockwise*
0 create outline with 8 corners*
4,1,8,$1,$2,$3,$4,$5,$6,$7,$8,$9,$10,$11,$12,$13,$14,$15,$16,$1,$2,$17*%
%AMFreePoly0*
4,1,43,1.487500,0.558253,1.533253,0.512500,1.550000,0.450000,1.535584,0.322050,1.493057,0.200517,1.424553,0.091493,1.333507,0.000447,1.224483,-0.068057,1.102950,-0.110584,0.975000,-0.125000,-0.975000,-0.125000,-1.102950,-0.110584,-1.224483,-0.068057,-1.333507,0.000447,-1.424553,0.091493,-1.493057,0.200517,-1.535584,0.322050,-1.550000,0.450000,-1.533253,0.512500,-1.487500,0.558253,
-1.425000,0.575000,-1.362500,0.558253,-1.316747,0.512500,-1.300000,0.450000,-1.302546,0.440498,-1.287946,0.348318,-1.241208,0.256589,-1.168411,0.183792,-1.076682,0.137054,-0.984502,0.122454,-0.975000,0.125000,0.975000,0.125000,0.984502,0.122454,1.076682,0.137054,1.168411,0.183792,1.241208,0.256589,1.287946,0.348318,1.302546,0.440498,1.300000,0.450000,1.316747,0.512500,
1.362500,0.558253,1.425000,0.575000,1.487500,0.558253,1.487500,0.558253,$1*%
%AMFreePoly1*
4,1,24,1.427950,0.110584,1.549483,0.068057,1.658507,-0.000447,1.749553,-0.091493,1.818057,-0.200517,1.860584,-0.322050,1.875000,-0.450000,1.858253,-0.512500,1.812500,-0.558253,1.750000,-0.575000,1.687500,-0.558253,1.641747,-0.512500,1.625000,-0.450000,1.627546,-0.440498,1.612946,-0.348318,1.566208,-0.256589,1.493411,-0.183792,1.401682,-0.137054,1.309502,-0.122454,1.300000,-0.125000,
-1.300000,-0.125000,-1.300000,0.125000,1.300000,0.125000,1.427950,0.110584,1.427950,0.110584,$1*%
%AMFreePoly2*
4,1,37,0.195330,0.234644,0.385859,0.188955,0.566907,0.114054,0.734028,0.011782,0.883114,-0.115347,1.010503,-0.264212,1.113065,-0.431154,1.188281,-0.612072,1.234302,-0.802521,1.249998,-0.997821,1.231134,-1.093525,1.177083,-1.174726,1.096071,-1.229060,1.000434,-1.248257,0.904730,-1.229393,0.823529,-1.175342,0.769195,-1.094330,0.749998,-0.998693,0.752406,-0.986479,0.738923,-0.851847,
0.695885,-0.710689,0.626163,-0.580624,0.532432,-0.466640,0.418285,-0.373107,0.288099,-0.303612,0.146866,-0.260820,0.012209,-0.247572,0.000002,-0.250000,-0.095669,-0.230970,-0.176775,-0.176777,-0.230968,-0.095671,-0.249998,0.000000,-0.230968,0.095671,-0.176775,0.176777,-0.095669,0.230970,0.000002,0.250000,0.195330,0.234644,0.195330,0.234644,$1*%
%AMFreePoly3*
4,1,72,6.695652,0.230924,6.776741,0.176741,6.830924,0.095652,6.849950,0.000000,6.830924,-0.095652,6.776741,-0.176741,6.695652,-0.230924,6.600000,-0.249950,5.112450,-0.249950,5.112450,-1.380300,5.176741,-1.423259,5.230924,-1.504348,5.249950,-1.600000,5.249950,-6.400000,5.236501,-6.536553,5.196669,-6.667859,5.131987,-6.788871,5.044939,-6.894939,4.938871,-6.981987,4.817859,-7.046669,
4.686553,-7.086501,4.550000,-7.099950,1.550000,-7.099950,1.413447,-7.086501,1.282141,-7.046669,1.161129,-6.981987,1.055061,-6.894939,0.968013,-6.788871,0.903331,-6.667859,0.863499,-6.536553,0.850050,-6.400000,0.850050,-5.900000,0.869076,-5.804348,0.923259,-5.723259,1.004348,-5.669076,1.100000,-5.650050,1.195652,-5.669076,1.276741,-5.723259,1.330924,-5.804348,1.349950,-5.900000,
1.349950,-6.400000,1.348562,-6.406980,1.357369,-6.462590,1.386138,-6.519052,1.430948,-6.563862,1.487410,-6.592631,1.543020,-6.601438,1.550000,-6.600050,4.550000,-6.600050,4.556980,-6.601438,4.612590,-6.592631,4.669052,-6.563862,4.713862,-6.519052,4.742631,-6.462590,4.751438,-6.406980,4.750050,-6.400000,4.750050,-1.819700,4.685759,-1.776741,4.631576,-1.695652,4.612550,-1.600000,
4.612550,-0.249950,0.000000,-0.249950,-0.095652,-0.230924,-0.176741,-0.176741,-0.230924,-0.095652,-0.249950,0.000000,-0.230924,0.095652,-0.176741,0.176741,-0.095652,0.230924,0.000000,0.249950,6.600000,0.249950,6.695652,0.230924,6.695652,0.230924,$1*%
G04 Aperture macros list end*
%ADD10C,0.100000*%
%TA.AperFunction,NonConductor*%
%ADD11C,0.100000*%
%TD*%
%TA.AperFunction,ComponentPad*%
%ADD12C,1.250000*%
%TD*%
%TA.AperFunction,ComponentPad*%
%ADD13C,1.500000*%
%TD*%
%TA.AperFunction,ComponentPad*%
%ADD14C,0.670000*%
%TD*%
%TA.AperFunction,ComponentPad*%
%ADD15RoundRect,0.250000X0.600000X0.675000X-0.600000X0.675000X-0.600000X-0.675000X0.600000X-0.675000X0*%
%TD*%
%TA.AperFunction,ComponentPad*%
%ADD16O,1.700000X1.850000*%
%TD*%
%TA.AperFunction,SMDPad,CuDef*%
%ADD17R,1.100000X0.600000*%
%TD*%
%TA.AperFunction,SMDPad,CuDef*%
%ADD18R,3.700000X1.425000*%
%TD*%
%TA.AperFunction,SMDPad,CuDef*%
%ADD19FreePoly0,90.000000*%
%TD*%
%TA.AperFunction,SMDPad,CuDef*%
%ADD20R,2.000000X0.500000*%
%TD*%
%TA.AperFunction,SMDPad,CuDef*%
%ADD21RoundRect,0.225000X-0.225000X-0.250000X0.225000X-0.250000X0.225000X0.250000X-0.225000X0.250000X0*%
%TD*%
%TA.AperFunction,SMDPad,CuDef*%
%ADD22FreePoly1,90.000000*%
%TD*%
%TA.AperFunction,SMDPad,CuDef*%
%ADD23RoundRect,0.249375X0.625625X-0.463125X0.625625X0.463125X-0.625625X0.463125X-0.625625X-0.463125X0*%
%TD*%
%TA.AperFunction,SMDPad,CuDef*%
%ADD24R,0.500000X2.000000*%
%TD*%
%TA.AperFunction,SMDPad,CuDef*%
%ADD25RoundRect,0.250000X0.250000X0.475000X-0.250000X0.475000X-0.250000X-0.475000X0.250000X-0.475000X0*%
%TD*%
%TA.AperFunction,SMDPad,CuDef*%
%ADD26FreePoly2,90.000000*%
%TD*%
%TA.AperFunction,SMDPad,CuDef*%
%ADD27FreePoly3,90.000000*%
%TD*%
%TA.AperFunction,SMDPad,CuDef*%
%ADD28R,4.000000X0.500000*%
%TD*%
%TA.AperFunction,SMDPad,CuDef*%
%ADD29RoundRect,0.200000X0.275000X-0.200000X0.275000X0.200000X-0.275000X0.200000X-0.275000X-0.200000X0*%
%TD*%
%TA.AperFunction,SMDPad,CuDef*%
%ADD30RoundRect,0.200000X-0.275000X0.200000X-0.275000X-0.200000X0.275000X-0.200000X0.275000X0.200000X0*%
%TD*%
%TA.AperFunction,SMDPad,CuDef*%
%ADD31RoundRect,0.250000X0.625000X-0.375000X0.625000X0.375000X-0.625000X0.375000X-0.625000X-0.375000X0*%
%TD*%
%TA.AperFunction,SMDPad,CuDef*%
%ADD32RoundRect,0.200000X0.200000X0.275000X-0.200000X0.275000X-0.200000X-0.275000X0.200000X-0.275000X0*%
%TD*%
%TA.AperFunction,SMDPad,CuDef*%
%ADD33RoundRect,0.200000X-0.200000X-0.275000X0.200000X-0.275000X0.200000X0.275000X-0.200000X0.275000X0*%
%TD*%
%TA.AperFunction,SMDPad,CuDef*%
%ADD34R,0.450000X0.700000*%
%TD*%
%TA.AperFunction,SMDPad,CuDef*%
%ADD35RoundRect,0.062500X0.247487X-0.159099X-0.159099X0.247487X-0.247487X0.159099X0.159099X-0.247487X0*%
%TD*%
%TA.AperFunction,SMDPad,CuDef*%
%ADD36RoundRect,0.062500X0.247487X0.159099X0.159099X0.247487X-0.247487X-0.159099X-0.159099X-0.247487X0*%
%TD*%
%TA.AperFunction,SMDPad,CuDef*%
%ADD37Outline5P,-1.000000X1.000000X1.000000X1.000000X1.000000X-1.000000X-0.750000X-1.000000X-1.000000X-0.750000X135.000000*%
%TD*%
%TA.AperFunction,SMDPad,CuDef*%
%ADD38R,0.500000X0.850000*%
%TD*%
%TA.AperFunction,ViaPad*%
%ADD39C,0.800000*%
%TD*%
%TA.AperFunction,Conductor*%
%ADD40C,0.250000*%
%TD*%
%TA.AperFunction,Conductor*%
%ADD41C,0.200000*%
%TD*%
G04 APERTURE END LIST*
D10*
D11*
X160660714Y-21707857D02*
X160625000Y-21743571D01*
X160589285Y-21815000D01*
X160589285Y-21993571D01*
X160625000Y-22065000D01*
X160660714Y-22100714D01*
X160732142Y-22136428D01*
X160803571Y-22136428D01*
X160910714Y-22100714D01*
X161339285Y-21672142D01*
X161339285Y-22136428D01*
X160589285Y-22600714D02*
X160589285Y-22672142D01*
X160625000Y-22743571D01*
X160660714Y-22779285D01*
X160732142Y-22815000D01*
X160875000Y-22850714D01*
X161053571Y-22850714D01*
X161196428Y-22815000D01*
X161267857Y-22779285D01*
X161303571Y-22743571D01*
X161339285Y-22672142D01*
X161339285Y-22600714D01*
X161303571Y-22529285D01*
X161267857Y-22493571D01*
X161196428Y-22457857D01*
X161053571Y-22422142D01*
X160875000Y-22422142D01*
X160732142Y-22457857D01*
X160660714Y-22493571D01*
X160625000Y-22529285D01*
X160589285Y-22600714D01*
X160660714Y-23136428D02*
X160625000Y-23172142D01*
X160589285Y-23243571D01*
X160589285Y-23422142D01*
X160625000Y-23493571D01*
X160660714Y-23529285D01*
X160732142Y-23565000D01*
X160803571Y-23565000D01*
X160910714Y-23529285D01*
X161339285Y-23100714D01*
X161339285Y-23565000D01*
X160660714Y-23850714D02*
X160625000Y-23886428D01*
X160589285Y-23957857D01*
X160589285Y-24136428D01*
X160625000Y-24207857D01*
X160660714Y-24243571D01*
X160732142Y-24279285D01*
X160803571Y-24279285D01*
X160910714Y-24243571D01*
X161339285Y-23815000D01*
X161339285Y-24279285D01*
X161053571Y-24600714D02*
X161053571Y-25172142D01*
X160589285Y-25672142D02*
X160589285Y-25743571D01*
X160625000Y-25815000D01*
X160660714Y-25850714D01*
X160732142Y-25886428D01*
X160875000Y-25922142D01*
X161053571Y-25922142D01*
X161196428Y-25886428D01*
X161267857Y-25850714D01*
X161303571Y-25815000D01*
X161339285Y-25743571D01*
X161339285Y-25672142D01*
X161303571Y-25600714D01*
X161267857Y-25565000D01*
X161196428Y-25529285D01*
X161053571Y-25493571D01*
X160875000Y-25493571D01*
X160732142Y-25529285D01*
X160660714Y-25565000D01*
X160625000Y-25600714D01*
X160589285Y-25672142D01*
X160589285Y-26172142D02*
X160589285Y-26636428D01*
X160875000Y-26386428D01*
X160875000Y-26493571D01*
X160910714Y-26565000D01*
X160946428Y-26600714D01*
X161017857Y-26636428D01*
X161196428Y-26636428D01*
X161267857Y-26600714D01*
X161303571Y-26565000D01*
X161339285Y-26493571D01*
X161339285Y-26279285D01*
X161303571Y-26207857D01*
X161267857Y-26172142D01*
X161053571Y-26957857D02*
X161053571Y-27529285D01*
X161339285Y-28279285D02*
X161339285Y-27850714D01*
X161339285Y-28065000D02*
X160589285Y-28065000D01*
X160696428Y-27993571D01*
X160767857Y-27922142D01*
X160803571Y-27850714D01*
X160589285Y-28743571D02*
X160589285Y-28815000D01*
X160625000Y-28886428D01*
X160660714Y-28922142D01*
X160732142Y-28957857D01*
X160875000Y-28993571D01*
X161053571Y-28993571D01*
X161196428Y-28957857D01*
X161267857Y-28922142D01*
X161303571Y-28886428D01*
X161339285Y-28815000D01*
X161339285Y-28743571D01*
X161303571Y-28672142D01*
X161267857Y-28636428D01*
X161196428Y-28600714D01*
X161053571Y-28565000D01*
X160875000Y-28565000D01*
X160732142Y-28600714D01*
X160660714Y-28636428D01*
X160625000Y-28672142D01*
X160589285Y-28743571D01*
%TO.C,JP3*%
G36*
X154250000Y-25300000D02*
G01*
X153250000Y-25300000D01*
X153250000Y-24900000D01*
X154250000Y-24900000D01*
X154250000Y-25300000D01*
G37*
%TD*%
D12*
%TO.P,J2,S1,SHIELD*%
%TO.N,GND*%
X149930000Y-49240000D03*
X158570000Y-49240000D03*
D13*
X149930000Y-45070000D03*
D14*
X157140000Y-45560000D03*
D13*
X158570000Y-45070000D03*
D14*
X151360000Y-45560000D03*
%TD*%
D15*
%TO.P,J1,1,Pin_1*%
%TO.N,IO1*%
X157500000Y-27600000D03*
D16*
%TO.P,J1,2,Pin_2*%
%TO.N,Net-(J1-Pad2)*%
X155000000Y-27600000D03*
%TO.P,J1,3,Pin_3*%
%TO.N,IO3*%
X152500000Y-27600000D03*
%TO.P,J1,4,Pin_4*%
%TO.N,IO4*%
X150000000Y-27600000D03*
%TD*%
D17*
%TO.P,U3,*%
%TO.N,*%
X154150000Y-48350000D03*
D18*
X155450000Y-46900000D03*
D19*
X155050000Y-49775000D03*
D20*
X153200000Y-48350000D03*
D21*
X154475000Y-51400000D03*
D22*
X155950000Y-50100000D03*
D21*
X156025000Y-51400000D03*
D23*
X152330000Y-48502500D03*
D24*
X154150000Y-47400000D03*
D17*
X156850000Y-48350000D03*
%TO.P,U3,1,SHDN*%
%TO.N,VBUS*%
X154150000Y-50250000D03*
D25*
%TO.P,U3,2,VIN*%
X152900000Y-50150000D03*
D26*
X152950000Y-50360000D03*
D17*
X154150000Y-49300000D03*
D27*
%TO.P,U3,3,GND*%
%TO.N,GND*%
X151000000Y-50400000D03*
D25*
X151000000Y-43900000D03*
D17*
X156850000Y-49300000D03*
D23*
X152330000Y-45537500D03*
D25*
X151000000Y-50150000D03*
D28*
%TO.P,U3,4,VOUT*%
%TO.N,+3V3*%
X154700000Y-43900000D03*
D25*
X152900000Y-43900000D03*
D18*
X155450000Y-43900000D03*
D17*
%TO.P,U3,5,FB*%
%TO.N,Net-(R10-Pad2)*%
X156850000Y-50250000D03*
%TD*%
D29*
%TO.P,R11,1*%
%TO.N,VBUS*%
X149250000Y-40575000D03*
%TO.P,R11,2*%
%TO.N,Net-(R11-Pad2)*%
X149250000Y-38925000D03*
%TD*%
D30*
%TO.P,R10,1*%
%TO.N,GND*%
X157250000Y-38925000D03*
%TO.P,R10,2*%
%TO.N,Net-(R10-Pad2)*%
X157250000Y-40575000D03*
%TD*%
D29*
%TO.P,R7,1*%
%TO.N,Net-(J2-PadA7)*%
X153500000Y-40575000D03*
%TO.P,R7,2*%
%TO.N,D-*%
X153500000Y-38925000D03*
%TD*%
D30*
%TO.P,R4,1*%
%TO.N,Net-(D2-Pad4)*%
X157900000Y-21675000D03*
%TO.P,R4,2*%
%TO.N,B*%
X157900000Y-23325000D03*
%TD*%
%TO.P,C1,1*%
%TO.N,+3V3*%
X150500000Y-33725000D03*
%TO.P,C1,2*%
%TO.N,GND*%
X150500000Y-35275000D03*
%TD*%
D31*
%TO.P,D1,1,K*%
%TO.N,IO3*%
X150100000Y-24700000D03*
%TO.P,D1,2,A*%
%TO.N,GND*%
X150100000Y-21900000D03*
%TD*%
D32*
%TO.P,R1,1*%
%TO.N,+3V3*%
X158825000Y-32250000D03*
%TO.P,R1,2*%
%TO.N,EN*%
X157175000Y-32250000D03*
%TD*%
D30*
%TO.P,R9,1*%
%TO.N,+3V3*%
X158500000Y-38925000D03*
%TO.P,R9,2*%
%TO.N,Net-(R10-Pad2)*%
X158500000Y-40575000D03*
%TD*%
D33*
%TO.P,R3,1*%
%TO.N,Net-(D2-Pad3)*%
X154274520Y-23474520D03*
%TO.P,R3,2*%
%TO.N,G*%
X155924520Y-23474520D03*
%TD*%
D30*
%TO.P,JP1,1,A*%
%TO.N,GND*%
X158400000Y-24325000D03*
%TO.P,JP1,2,B*%
%TO.N,IO1*%
X158400000Y-25975000D03*
%TD*%
D34*
%TO.P,Q1,1,G*%
%TO.N,FET*%
X151050000Y-31700000D03*
%TO.P,Q1,2,S*%
%TO.N,+3V3*%
X149750000Y-31700000D03*
%TO.P,Q1,3,D*%
%TO.N,IO3*%
X150400000Y-29700000D03*
%TD*%
D29*
%TO.P,R8,1*%
%TO.N,Net-(J2-PadA6)*%
X154750000Y-40575000D03*
%TO.P,R8,2*%
%TO.N,D+*%
X154750000Y-38925000D03*
%TD*%
%TO.P,R12,1*%
%TO.N,Net-(R11-Pad2)*%
X149250000Y-37750000D03*
%TO.P,R12,2*%
%TO.N,GND*%
X149250000Y-36100000D03*
%TD*%
%TO.P,R5,1*%
%TO.N,Net-(J2-PadA5)*%
X150500000Y-40575000D03*
%TO.P,R5,2*%
%TO.N,GND*%
X150500000Y-38925000D03*
%TD*%
D33*
%TO.P,R2,1*%
%TO.N,Net-(D2-Pad2)*%
X154274520Y-22274520D03*
%TO.P,R2,2*%
%TO.N,R*%
X155924520Y-22274520D03*
%TD*%
D35*
%TO.P,U2,1,RXD*%
%TO.N,O*%
X156550610Y-35136396D03*
%TO.P,U2,2,~{RI}*%
%TO.N,GND*%
X156197056Y-35489949D03*
%TO.P,U2,3,GND*%
X155843503Y-35843503D03*
%TO.P,U2,4,~{DSR}*%
X155489949Y-36197056D03*
%TO.P,U2,5,~{DCD}*%
X155136396Y-36550610D03*
D36*
%TO.P,U2,6,~{CTS}*%
X153863604Y-36550610D03*
%TO.P,U2,7,CBUS2*%
%TO.N,Net-(R11-Pad2)*%
X153510051Y-36197056D03*
%TO.P,U2,8,USBDP*%
%TO.N,D+*%
X153156497Y-35843503D03*
%TO.P,U2,9,USBDM*%
%TO.N,D-*%
X152802944Y-35489949D03*
%TO.P,U2,10,3V3OUT*%
%TO.N,+3V3*%
X152449390Y-35136396D03*
D35*
%TO.P,U2,11,~{RESET}*%
X152449390Y-33863604D03*
%TO.P,U2,12,VCC*%
X152802944Y-33510051D03*
%TO.P,U2,13,GND*%
%TO.N,GND*%
X153156497Y-33156497D03*
%TO.P,U2,14,CBUS1*%
%TO.N,unconnected-(U2-Pad14)*%
X153510051Y-32802944D03*
%TO.P,U2,15,CBUS0*%
%TO.N,unconnected-(U2-Pad15)*%
X153863604Y-32449390D03*
D36*
%TO.P,U2,16,CBUS3*%
%TO.N,unconnected-(U2-Pad16)*%
X155136396Y-32449390D03*
%TO.P,U2,17,TXD*%
%TO.N,I*%
X155489949Y-32802944D03*
%TO.P,U2,18,~{DTR}*%
%TO.N,GPIO0*%
X155843503Y-33156497D03*
%TO.P,U2,19,~{RTS}*%
%TO.N,EN*%
X156197056Y-33510051D03*
%TO.P,U2,20,VCCIO*%
%TO.N,+3V3*%
X156550610Y-33863604D03*
D37*
%TO.P,U2,21,GND*%
%TO.N,GND*%
X154500000Y-34500000D03*
%TD*%
D30*
%TO.P,R6,1*%
%TO.N,GND*%
X156000000Y-38925000D03*
%TO.P,R6,2*%
%TO.N,Net-(J2-PadB5)*%
X156000000Y-40575000D03*
%TD*%
D32*
%TO.P,JP2,1,A*%
%TO.N,VBUS*%
X157125000Y-25100000D03*
%TO.P,JP2,2,B*%
%TO.N,Net-(J1-Pad2)*%
X155475000Y-25100000D03*
%TD*%
D38*
%TO.P,D2,1,A*%
%TO.N,+3V3*%
X152100000Y-21925000D03*
%TO.P,D2,2,RK*%
%TO.N,Net-(D2-Pad2)*%
X152100000Y-23675000D03*
%TO.P,D2,3,GK*%
%TO.N,Net-(D2-Pad3)*%
X153100000Y-23675000D03*
%TO.P,D2,4,BK*%
%TO.N,Net-(D2-Pad4)*%
X153100000Y-21925000D03*
%TD*%
D32*
%TO.P,JP3,1,A*%
%TO.N,Net-(J1-Pad2)*%
X154575000Y-25100000D03*
%TO.P,JP3,2,B*%
%TO.N,IO2*%
X152925000Y-25100000D03*
%TD*%
D39*
%TO.N,GND*%
X157100000Y-42500000D03*
X159100000Y-23700000D03*
X149300000Y-22900000D03*
X154500000Y-34500000D03*
X149696389Y-42874208D03*
X156704194Y-39622760D03*
X151500000Y-34500000D03*
X150000000Y-26000000D03*
%TO.N,VBUS*%
X149250550Y-43830717D03*
X159000000Y-42900000D03*
%TO.N,+3V3*%
X152000000Y-32250498D03*
X152000000Y-40500000D03*
%TO.N,IO2*%
X152100000Y-24700000D03*
%TO.N,FET*%
X152200000Y-31200000D03*
%TO.N,Net-(J2-PadA7)*%
X153750000Y-42500000D03*
%TO.N,Net-(J2-PadA6)*%
X154750000Y-42500000D03*
%TO.N,Net-(J2-PadB5)*%
X155750000Y-42500000D03*
%TO.N,R*%
X158685916Y-22489953D03*
%TO.N,G*%
X156825020Y-23124520D03*
%TO.N,B*%
X158250000Y-30750000D03*
%TO.N,EN*%
X151061333Y-32736539D03*
%TO.N,GPIO0*%
X155500000Y-30750000D03*
%TO.N,I*%
X154500000Y-30750000D03*
%TO.N,O*%
X158224500Y-34500000D03*
%TO.N,Net-(R11-Pad2)*%
X157649502Y-37500000D03*
X151750000Y-39000000D03*
%TO.N,Net-(J2-PadA5)*%
X150842521Y-42467345D03*
%TD*%
D40*
%TO.N,GND*%
X154500000Y-35914214D02*
X154500000Y-34500000D01*
X149930000Y-49240000D02*
X149930000Y-47680000D01*
X155843503Y-35843503D02*
X154500000Y-34500000D01*
X153864814Y-31814884D02*
X153544197Y-31814884D01*
X158750000Y-46750000D02*
X159000000Y-47000000D01*
X156462741Y-36600000D02*
X156800000Y-36600000D01*
X155207107Y-34500000D02*
X154500000Y-34500000D01*
X152875545Y-32483536D02*
X152875545Y-32875545D01*
X149100000Y-35950000D02*
X149100000Y-29500000D01*
X149930000Y-49240000D02*
X150090000Y-49240000D01*
X149696389Y-42894348D02*
X149696389Y-42874208D01*
X153863604Y-36550610D02*
X154500000Y-35914214D01*
X153156497Y-33156497D02*
X154375000Y-34375000D01*
X155136396Y-36550610D02*
X154500000Y-35914214D01*
X151325480Y-26825480D02*
X150500000Y-26000000D01*
X156441421Y-35734314D02*
X156197056Y-35489949D01*
X154500000Y-32450070D02*
X153864814Y-31814884D01*
X151360000Y-45560000D02*
X152307500Y-45560000D01*
X150500000Y-26000000D02*
X150000000Y-26000000D01*
X153544197Y-31814884D02*
X152875545Y-32483536D01*
X149250000Y-36100000D02*
X149100000Y-35950000D01*
X152875545Y-32875545D02*
X153156497Y-33156497D01*
X151000000Y-43900000D02*
X151000000Y-44000000D01*
X156197056Y-35489949D02*
X155207107Y-34500000D01*
X149930000Y-46820000D02*
X149930000Y-45070000D01*
X156006434Y-38925000D02*
X156704194Y-39622760D01*
X158510000Y-49300000D02*
X156850000Y-49300000D01*
X154500000Y-34500000D02*
X154500000Y-32450070D01*
X149930000Y-47680000D02*
X149500000Y-47250000D01*
X159000000Y-47000000D02*
X159000000Y-48810000D01*
X158400000Y-24300000D02*
X158929289Y-23770711D01*
X151325480Y-28138816D02*
X151325480Y-26825480D01*
X158570000Y-45070000D02*
X158750000Y-45250000D01*
X159000000Y-48810000D02*
X158570000Y-49240000D01*
X149100000Y-29500000D02*
X149700000Y-28900000D01*
X149700000Y-28900000D02*
X150564296Y-28900000D01*
X150564296Y-28900000D02*
X151325480Y-28138816D01*
X155489949Y-36197056D02*
X154500000Y-35207107D01*
X152307500Y-45560000D02*
X152330000Y-45537500D01*
X158750000Y-45250000D02*
X158750000Y-46750000D01*
X149500000Y-47250000D02*
X149930000Y-46820000D01*
X154375000Y-34375000D02*
X154500000Y-34500000D01*
X150539229Y-43737188D02*
X149696389Y-42894348D01*
X156000000Y-38925000D02*
X156006434Y-38925000D01*
X157700000Y-43100000D02*
X157700000Y-44200000D01*
X151000000Y-50150000D02*
G75*
G03*
X150090000Y-49240000I-910000J0D01*
G01*
X158570000Y-45070000D02*
G75*
G02*
X157700000Y-44200000I0J870000D01*
G01*
X149930000Y-45070000D02*
G75*
G03*
X151000000Y-44000000I0J1070000D01*
G01*
X150539214Y-43737207D02*
G75*
G03*
X151000000Y-43900000I463886J579507D01*
G01*
X157700000Y-43100000D02*
G75*
G03*
X157100000Y-42500000I-600000J0D01*
G01*
X156441428Y-35734307D02*
G75*
G02*
X156800000Y-36600000I-865728J-865693D01*
G01*
X156462741Y-36599981D02*
G75*
G02*
X155489949Y-36197056I-41J1375681D01*
G01*
X159100000Y-23699994D02*
G75*
G03*
X158929289Y-23770711I0J-241406D01*
G01*
X158510000Y-49300000D02*
G75*
G03*
X158570000Y-49240000I0J60000D01*
G01*
D41*
%TO.N,VBUS*%
X152900000Y-50150000D02*
X152900000Y-50500000D01*
D40*
X148971888Y-40853112D02*
X148971888Y-43552055D01*
X157100000Y-25100000D02*
X158766783Y-25100000D01*
X148971888Y-43552055D02*
X149250550Y-43830717D01*
D41*
X148880489Y-44200778D02*
X148880489Y-50030489D01*
D40*
X159549520Y-25949520D02*
X159549520Y-41249520D01*
X150350000Y-51500000D02*
X151900000Y-51500000D01*
X149250000Y-40575000D02*
X148971888Y-40853112D01*
X159549520Y-25882737D02*
X159549520Y-25949520D01*
X154150000Y-50250000D02*
X154150000Y-49300000D01*
X159549520Y-41249520D02*
X159549520Y-41573342D01*
X151900000Y-51500000D02*
G75*
G03*
X152900000Y-50500000I0J1000000D01*
G01*
D41*
X150350000Y-51500011D02*
G75*
G02*
X148880489Y-50030489I0J1469511D01*
G01*
D40*
X159549500Y-25882737D02*
G75*
G03*
X158766783Y-25100000I-782700J37D01*
G01*
D41*
X148880417Y-44200778D02*
G75*
G02*
X149250550Y-43830717I370083J-22D01*
G01*
D40*
X158999988Y-42899988D02*
G75*
G03*
X159549520Y-41573342I-1326688J1326688D01*
G01*
%TO.N,+3V3*%
X152600000Y-39400000D02*
X152600000Y-39265685D01*
X153700000Y-29500000D02*
X153700000Y-27000000D01*
X157500000Y-33250000D02*
X158979290Y-33250000D01*
X157525499Y-30525499D02*
X157525499Y-30865329D01*
X152802944Y-33510051D02*
X152322872Y-33029979D01*
X157762500Y-31437500D02*
X158575000Y-32250000D01*
X149750000Y-31700000D02*
X149750000Y-31225736D01*
X152094975Y-38194974D02*
X152200000Y-38300000D01*
X152000000Y-40500000D02*
X152246447Y-40253554D01*
X149750000Y-31700000D02*
X149750000Y-32975000D01*
X152449390Y-33863604D02*
X152449390Y-35136396D01*
X153700000Y-29500000D02*
X156500000Y-29500000D01*
X152000000Y-40500000D02*
X152000000Y-43000000D01*
X152449390Y-33863604D02*
X152449391Y-33863604D01*
X159100000Y-33300000D02*
X159100000Y-37476472D01*
X159100000Y-32913908D02*
X159100000Y-33300000D01*
X151375499Y-25001387D02*
X151375499Y-22649501D01*
X152889949Y-29500000D02*
X153700000Y-29500000D01*
X152612944Y-25912944D02*
X152287056Y-25912944D01*
X152449390Y-33863604D02*
X152310786Y-33725000D01*
X152449391Y-33863604D02*
X152802944Y-33510051D01*
X156550610Y-33863604D02*
X156926777Y-33487437D01*
X152449390Y-35136396D02*
X152317158Y-35268628D01*
X152310786Y-33725000D02*
X150500000Y-33725000D01*
X152900000Y-43900000D02*
G75*
G02*
X152000000Y-43000000I0J900000D01*
G01*
X157762508Y-31437492D02*
G75*
G02*
X157525499Y-30865329I572192J572192D01*
G01*
X151599992Y-37000000D02*
G75*
G02*
X152317158Y-35268628I2448508J0D01*
G01*
X152612944Y-25912900D02*
G75*
G02*
X153700000Y-27000000I-44J-1087100D01*
G01*
X151199989Y-30199989D02*
G75*
G02*
X150475736Y-30500000I-724289J724289D01*
G01*
X150475736Y-30500000D02*
G75*
G03*
X149750000Y-31225736I-36J-725700D01*
G01*
X159099996Y-32913908D02*
G75*
G03*
X158825000Y-32250000I-938896J8D01*
G01*
X152000016Y-32250498D02*
G75*
G03*
X152322872Y-33029979I1102384J-2D01*
G01*
X158500008Y-38925008D02*
G75*
G03*
X159100000Y-37476472I-1448508J1448508D01*
G01*
X157525500Y-30525499D02*
G75*
G03*
X156500000Y-29500000I-1025500J-1D01*
G01*
X152600002Y-39400000D02*
G75*
G02*
X152246447Y-40253554I-1207102J0D01*
G01*
X152094964Y-38194985D02*
G75*
G02*
X151600000Y-37000000I1195036J1194985D01*
G01*
X150500000Y-33725000D02*
G75*
G02*
X149750000Y-32975000I0J750000D01*
G01*
X151375556Y-25001387D02*
G75*
G03*
X152287056Y-25912944I911544J-13D01*
G01*
X159100003Y-33299997D02*
G75*
G03*
X158979290Y-33250000I-120703J-120703D01*
G01*
X157500000Y-33250012D02*
G75*
G03*
X156926777Y-33487437I0J-810688D01*
G01*
X152100000Y-21924999D02*
G75*
G03*
X151375499Y-22649501I0J-724501D01*
G01*
X152889949Y-29500021D02*
G75*
G03*
X151200000Y-30200000I-49J-2389879D01*
G01*
X152199996Y-38300004D02*
G75*
G02*
X152600000Y-39265685I-965696J-965696D01*
G01*
%TO.N,IO2*%
X152217158Y-24817157D02*
X152100000Y-24700000D01*
X152217154Y-24817161D02*
G75*
G03*
X152900000Y-25100000I682846J682861D01*
G01*
%TO.N,IO1*%
X158400000Y-25950000D02*
X158400000Y-26700000D01*
X157500000Y-27600000D02*
G75*
G03*
X158400000Y-26700000I0J900000D01*
G01*
%TO.N,IO3*%
X150400000Y-29700000D02*
X152500000Y-27600000D01*
X150100000Y-24769763D02*
X152500000Y-27169763D01*
X152500000Y-27169763D02*
X152500000Y-27600000D01*
X150100000Y-24700000D02*
X150100000Y-24769763D01*
%TO.N,FET*%
X152200000Y-31200000D02*
X152159620Y-31240380D01*
X151050000Y-31700011D02*
G75*
G03*
X152159620Y-31240380I0J1569211D01*
G01*
%TO.N,Net-(J2-PadA7)*%
X153500000Y-40575000D02*
X153500000Y-42250000D01*
X153750000Y-42500000D02*
G75*
G02*
X153500000Y-42250000I0J250000D01*
G01*
%TO.N,Net-(J2-PadA6)*%
X154750000Y-40575000D02*
X154750000Y-42500000D01*
%TO.N,Net-(J2-PadB5)*%
X155750000Y-42500000D02*
X155750000Y-40825000D01*
X156000000Y-40575000D02*
G75*
G03*
X155750000Y-40825000I0J-250000D01*
G01*
%TO.N,R*%
X157226440Y-22274520D02*
X157325960Y-22374040D01*
X157325960Y-22374040D02*
X157441873Y-22489953D01*
X155924520Y-22274520D02*
X157226440Y-22274520D01*
X157441873Y-22489953D02*
X158685916Y-22489953D01*
%TO.N,G*%
X155924520Y-23474520D02*
X155980046Y-23474520D01*
X156825007Y-23124507D02*
G75*
G02*
X155980046Y-23474520I-845007J845007D01*
G01*
%TO.N,B*%
X158250000Y-30150000D02*
X158250000Y-30750000D01*
X156300480Y-24682737D02*
X156300480Y-28200480D01*
X157899520Y-23299520D02*
X157242964Y-23956076D01*
X157100000Y-29000020D02*
G75*
G02*
X156300480Y-28200480I0J799520D01*
G01*
X156300486Y-24682737D02*
G75*
G02*
X156874531Y-24108686I574014J37D01*
G01*
X158250000Y-30150000D02*
G75*
G03*
X157100000Y-29000000I-1150000J0D01*
G01*
X156874531Y-24108695D02*
G75*
G03*
X157242964Y-23956076I-31J521095D01*
G01*
%TO.N,D-*%
X152802944Y-35489949D02*
X152564865Y-35728028D01*
X152627388Y-38052389D02*
X153500000Y-38925000D01*
X152627415Y-38052362D02*
G75*
G02*
X152114736Y-36814736I1237585J1237662D01*
G01*
X152114770Y-36814736D02*
G75*
G02*
X152564866Y-35728029I1536830J36D01*
G01*
%TO.N,D+*%
X153156497Y-35843503D02*
X152953554Y-36046446D01*
X153400000Y-37700000D02*
X154100000Y-37700000D01*
X154750000Y-38350000D02*
X154750000Y-38925000D01*
X154750000Y-38350000D02*
G75*
G03*
X154100000Y-37700000I-650000J0D01*
G01*
X152599999Y-36900000D02*
G75*
G02*
X152953555Y-36046447I1207101J0D01*
G01*
X152600000Y-36900000D02*
G75*
G03*
X153400000Y-37700000I800000J0D01*
G01*
%TO.N,EN*%
X150699021Y-32699021D02*
X150945533Y-32699021D01*
X150945533Y-32699021D02*
X150970757Y-32699021D01*
X152662298Y-30001403D02*
X156401403Y-30001403D01*
X150400000Y-31500000D02*
X150400000Y-32400000D01*
X156975520Y-32731587D02*
X156197056Y-33510051D01*
X151700000Y-30400000D02*
X151341422Y-30758578D01*
X157023561Y-32098561D02*
X157023561Y-30623561D01*
X157175000Y-32250000D02*
X157023561Y-32098561D01*
X150699021Y-32699000D02*
G75*
G02*
X150400000Y-32400000I-21J299000D01*
G01*
X151000000Y-30900012D02*
G75*
G03*
X151341422Y-30758578I0J482812D01*
G01*
X151061352Y-32736520D02*
G75*
G03*
X150970757Y-32699021I-90552J-90580D01*
G01*
X151700001Y-30400001D02*
G75*
G02*
X152662298Y-30001403I962299J-962299D01*
G01*
X150400000Y-31500000D02*
G75*
G02*
X151000000Y-30900000I600000J0D01*
G01*
X156975527Y-32731594D02*
G75*
G03*
X157175000Y-32250000I-481627J481594D01*
G01*
X156401403Y-30001439D02*
G75*
G02*
X157023561Y-30623561I-3J-622161D01*
G01*
%TO.N,GPIO0*%
X155500000Y-30750000D02*
X156250000Y-31500000D01*
X156250000Y-32750000D02*
X155843503Y-33156497D01*
X156250000Y-31500000D02*
X156250000Y-32750000D01*
%TO.N,I*%
X155770902Y-32521991D02*
X155770902Y-32045502D01*
X154500000Y-30774600D02*
X154500000Y-30750000D01*
X155770902Y-32045502D02*
X154500000Y-30774600D01*
X155489949Y-32802944D02*
X155770902Y-32521991D01*
%TO.N,O*%
X158222308Y-34502192D02*
X158224500Y-34500000D01*
X157944736Y-34502192D02*
X158222308Y-34502192D01*
X157944737Y-34502207D02*
G75*
G03*
X156550610Y-35136396I153463J-2186793D01*
G01*
D41*
%TO.N,Net-(R10-Pad2)*%
X158600000Y-43850000D02*
X158850000Y-43850000D01*
X159619511Y-44680489D02*
X159619511Y-44619511D01*
D40*
X157250000Y-40575000D02*
X158500000Y-40575000D01*
D41*
X159619511Y-45020489D02*
X159619511Y-49080489D01*
X156850000Y-50250000D02*
X158450000Y-50250000D01*
X158200000Y-42868502D02*
X158200000Y-43450000D01*
X159619511Y-44680489D02*
X159619511Y-45020489D01*
X157904084Y-42154064D02*
G75*
G02*
X157250000Y-40575000I1579016J1579064D01*
G01*
X158850000Y-43849989D02*
G75*
G02*
X159619511Y-44619511I0J-769511D01*
G01*
X158450000Y-50250011D02*
G75*
G03*
X159619511Y-49080489I0J1169511D01*
G01*
X158199984Y-42868502D02*
G75*
G03*
X157904073Y-42154075I-1010384J2D01*
G01*
X158600000Y-43850000D02*
G75*
G02*
X158200000Y-43450000I0J400000D01*
G01*
D40*
%TO.N,Net-(R11-Pad2)*%
X153236396Y-36470711D02*
X153510051Y-36197056D01*
X149250000Y-38925000D02*
X149250000Y-37750000D01*
X153485116Y-37185116D02*
X157334618Y-37185116D01*
X151100480Y-39649520D02*
X149974520Y-39649520D01*
X153099984Y-36800000D02*
G75*
G03*
X153485116Y-37185116I385116J0D01*
G01*
X151100480Y-39649500D02*
G75*
G03*
X151750000Y-39000000I20J649500D01*
G01*
X157649484Y-37500000D02*
G75*
G03*
X157334618Y-37185116I-314884J0D01*
G01*
X153236393Y-36470708D02*
G75*
G03*
X153100000Y-36800000I329307J-329292D01*
G01*
X149249980Y-38925000D02*
G75*
G03*
X149974520Y-39649520I724520J0D01*
G01*
%TO.N,Net-(J2-PadA5)*%
X150834804Y-42475062D02*
X150842521Y-42467345D01*
X150500000Y-40575000D02*
X150500000Y-42250000D01*
X150635325Y-42475062D02*
X150834804Y-42475062D01*
X150635335Y-42475044D02*
G75*
G02*
X150500000Y-42250000I123765J227644D01*
G01*
%TO.N,Net-(D2-Pad2)*%
X152100000Y-23675000D02*
X152100000Y-23500000D01*
X152800000Y-22800000D02*
X153100000Y-22800000D01*
X154207980Y-22341059D02*
X154274520Y-22274520D01*
X154207976Y-22341055D02*
G75*
G02*
X153100000Y-22800000I-1107976J1107955D01*
G01*
X152800000Y-22800000D02*
G75*
G03*
X152100000Y-23500000I0J-700000D01*
G01*
%TO.N,Net-(J1-Pad2)*%
X155000000Y-25100000D02*
X155450000Y-25100000D01*
X155000000Y-27600000D02*
X155000000Y-25100000D01*
X154550000Y-25100000D02*
X155000000Y-25100000D01*
%TO.N,Net-(D2-Pad3)*%
X153100000Y-23675000D02*
X153790519Y-23675000D01*
X154274515Y-23474515D02*
G75*
G02*
X153790519Y-23675000I-484015J484015D01*
G01*
%TO.N,Net-(D2-Pad4)*%
X153500000Y-21400000D02*
X157650000Y-21400000D01*
X153100000Y-21925000D02*
X153100000Y-21800000D01*
X157899500Y-21649520D02*
G75*
G03*
X157650000Y-21400000I-249500J20D01*
G01*
X153500000Y-21400000D02*
G75*
G03*
X153100000Y-21800000I0J-400000D01*
G01*
%TD*%
%TA.AperFunction,Conductor*%
%TO.N,GND*%
G36*
X149414239Y-46217546D02*
G01*
X149493113Y-46254326D01*
X149503405Y-46258072D01*
X149705401Y-46312196D01*
X149716196Y-46314099D01*
X149924525Y-46332326D01*
X149935476Y-46332326D01*
X150099340Y-46317990D01*
X150168944Y-46331979D01*
X150219937Y-46381379D01*
X150236321Y-46443511D01*
X150236321Y-47992120D01*
X150216319Y-48060241D01*
X150162663Y-48106734D01*
X150085740Y-48115699D01*
X150054607Y-48109506D01*
X150043160Y-48108303D01*
X149846507Y-48105730D01*
X149835027Y-48106633D01*
X149641199Y-48139938D01*
X149630079Y-48142918D01*
X149445557Y-48210992D01*
X149435185Y-48215939D01*
X149425413Y-48221753D01*
X149356643Y-48239393D01*
X149289252Y-48217053D01*
X149244638Y-48161826D01*
X149234989Y-48113468D01*
X149234989Y-46331741D01*
X149254991Y-46263620D01*
X149308647Y-46217127D01*
X149378921Y-46207023D01*
X149414239Y-46217546D01*
G37*
%TD.AperFunction*%
%TA.AperFunction,Conductor*%
G36*
X159220765Y-46235865D02*
G01*
X159259622Y-46295284D01*
X159265011Y-46331741D01*
X159265011Y-48112063D01*
X159245009Y-48180184D01*
X159191353Y-48226677D01*
X159121079Y-48236781D01*
X159086690Y-48225877D01*
X159086575Y-48226165D01*
X159082615Y-48224585D01*
X159081804Y-48224328D01*
X159081203Y-48224022D01*
X158898531Y-48151143D01*
X158887504Y-48147876D01*
X158715098Y-48113583D01*
X158652188Y-48080676D01*
X158617056Y-48018981D01*
X158613679Y-47990004D01*
X158613679Y-46444441D01*
X158633681Y-46376320D01*
X158687337Y-46329827D01*
X158728697Y-46318921D01*
X158783796Y-46314100D01*
X158794601Y-46312195D01*
X158996595Y-46258072D01*
X159006887Y-46254326D01*
X159085761Y-46217546D01*
X159155952Y-46206885D01*
X159220765Y-46235865D01*
G37*
%TD.AperFunction*%
%TA.AperFunction,Conductor*%
G36*
X156686095Y-41127999D02*
G01*
X156699859Y-41136845D01*
X156739873Y-41166399D01*
X156759924Y-41181209D01*
X156888873Y-41226493D01*
X156896518Y-41227216D01*
X156904021Y-41228862D01*
X156903655Y-41230531D01*
X156960926Y-41253400D01*
X157004203Y-41317631D01*
X157036862Y-41430993D01*
X157038216Y-41434261D01*
X157038216Y-41434262D01*
X157104576Y-41594469D01*
X157148084Y-41699508D01*
X157149794Y-41702602D01*
X157149795Y-41702604D01*
X157154865Y-41711778D01*
X157288672Y-41953881D01*
X157456856Y-42190914D01*
X157541404Y-42285524D01*
X157633976Y-42389112D01*
X157648291Y-42405131D01*
X157650280Y-42407868D01*
X157658300Y-42413695D01*
X157665311Y-42420705D01*
X157664738Y-42421278D01*
X157674627Y-42430604D01*
X157727096Y-42494538D01*
X157740818Y-42515075D01*
X157789726Y-42606575D01*
X157799176Y-42629388D01*
X157818895Y-42694393D01*
X157829295Y-42728677D01*
X157834113Y-42752901D01*
X157842220Y-42835210D01*
X157841820Y-42848792D01*
X157842632Y-42848792D01*
X157842632Y-42858709D01*
X157841081Y-42868502D01*
X157842632Y-42878294D01*
X157842632Y-42878295D01*
X157843949Y-42886610D01*
X157845500Y-42906321D01*
X157845500Y-43412180D01*
X157843949Y-43431891D01*
X157843074Y-43437419D01*
X157841081Y-43449999D01*
X157842633Y-43459796D01*
X157842633Y-43459945D01*
X157843476Y-43466519D01*
X157848776Y-43520329D01*
X157856416Y-43597907D01*
X157899559Y-43740132D01*
X157908793Y-43757408D01*
X157949413Y-43833402D01*
X157963885Y-43902908D01*
X157938481Y-43969204D01*
X157910561Y-43996011D01*
X157762795Y-44099477D01*
X157761495Y-44100568D01*
X157760807Y-44100869D01*
X157758285Y-44102635D01*
X157757930Y-44102128D01*
X157696456Y-44129036D01*
X157626350Y-44117821D01*
X157573437Y-44070485D01*
X157554500Y-44004050D01*
X157554499Y-43168623D01*
X157554499Y-43162434D01*
X157539734Y-43088199D01*
X157520712Y-43059730D01*
X157490377Y-43014332D01*
X157483484Y-43004016D01*
X157399301Y-42947766D01*
X157325067Y-42933000D01*
X156467826Y-42933000D01*
X156399705Y-42912998D01*
X156353212Y-42859342D01*
X156343108Y-42789068D01*
X156350918Y-42760004D01*
X156386842Y-42670641D01*
X156403501Y-42553586D01*
X156408581Y-42517891D01*
X156408581Y-42517888D01*
X156409162Y-42513807D01*
X156409307Y-42500000D01*
X156390276Y-42342733D01*
X156334280Y-42194546D01*
X156306068Y-42153497D01*
X156248855Y-42070251D01*
X156248854Y-42070249D01*
X156244553Y-42063992D01*
X156171681Y-41999065D01*
X156134126Y-41938816D01*
X156129500Y-41904989D01*
X156129500Y-41355499D01*
X156149502Y-41287378D01*
X156203158Y-41240885D01*
X156255500Y-41229499D01*
X156329314Y-41229499D01*
X156332262Y-41229220D01*
X156332271Y-41229220D01*
X156353478Y-41227216D01*
X156353480Y-41227216D01*
X156361127Y-41226493D01*
X156490076Y-41181209D01*
X156510127Y-41166399D01*
X156550141Y-41136845D01*
X156616819Y-41112462D01*
X156686095Y-41127999D01*
G37*
%TD.AperFunction*%
%TA.AperFunction,Conductor*%
G36*
X149936095Y-41127999D02*
G01*
X149949859Y-41136845D01*
X149989873Y-41166399D01*
X150009924Y-41181209D01*
X150036250Y-41190454D01*
X150093895Y-41231898D01*
X150119982Y-41297928D01*
X150120500Y-41309336D01*
X150120500Y-42212725D01*
X150119137Y-42231207D01*
X150115788Y-42253792D01*
X150119207Y-42274080D01*
X150120109Y-42280409D01*
X150127480Y-42343568D01*
X150132795Y-42389112D01*
X150134959Y-42395454D01*
X150134959Y-42395456D01*
X150138260Y-42405131D01*
X150176786Y-42518065D01*
X150180236Y-42523803D01*
X150183065Y-42529890D01*
X150181649Y-42530548D01*
X150195527Y-42571636D01*
X150200634Y-42617898D01*
X150203244Y-42625029D01*
X150203244Y-42625031D01*
X150224375Y-42682775D01*
X150245519Y-42740552D01*
X150249011Y-42750095D01*
X150253637Y-42820941D01*
X150219859Y-42882413D01*
X150150695Y-42951697D01*
X150146855Y-42957927D01*
X150146854Y-42957928D01*
X150066554Y-43088199D01*
X150057885Y-43102262D01*
X150002203Y-43270139D01*
X150001503Y-43276975D01*
X150001502Y-43276978D01*
X149992692Y-43362965D01*
X149965851Y-43428692D01*
X149907735Y-43469474D01*
X149836798Y-43472362D01*
X149775559Y-43436440D01*
X149763511Y-43421493D01*
X149745103Y-43394709D01*
X149626825Y-43289328D01*
X149486824Y-43215201D01*
X149446693Y-43205121D01*
X149385497Y-43169127D01*
X149353476Y-43105761D01*
X149351388Y-43082917D01*
X149351388Y-41355499D01*
X149371390Y-41287378D01*
X149425046Y-41240885D01*
X149477388Y-41229499D01*
X149579314Y-41229499D01*
X149582262Y-41229220D01*
X149582271Y-41229220D01*
X149603478Y-41227216D01*
X149603480Y-41227216D01*
X149611127Y-41226493D01*
X149740076Y-41181209D01*
X149760127Y-41166399D01*
X149800141Y-41136845D01*
X149866819Y-41112462D01*
X149936095Y-41127999D01*
G37*
%TD.AperFunction*%
%TA.AperFunction,Conductor*%
G36*
X156676853Y-39771909D02*
G01*
X156695682Y-39780411D01*
X156694577Y-39782859D01*
X156743037Y-39815245D01*
X156771367Y-39880345D01*
X156760004Y-39950426D01*
X156721208Y-39997387D01*
X156699860Y-40013155D01*
X156633181Y-40037538D01*
X156563906Y-40022001D01*
X156550140Y-40013155D01*
X156528792Y-39997387D01*
X156485882Y-39940826D01*
X156480362Y-39870044D01*
X156513986Y-39807515D01*
X156555205Y-39782375D01*
X156554318Y-39780411D01*
X156573147Y-39771909D01*
X156643464Y-39762105D01*
X156676853Y-39771909D01*
G37*
%TD.AperFunction*%
%TA.AperFunction,Conductor*%
G36*
X149208581Y-28450620D02*
G01*
X149351165Y-28574350D01*
X149351170Y-28574354D01*
X149355696Y-28578281D01*
X149538126Y-28683819D01*
X149737222Y-28752957D01*
X149743155Y-28753817D01*
X149743158Y-28753818D01*
X149939860Y-28782338D01*
X149939863Y-28782338D01*
X149945800Y-28783199D01*
X150156333Y-28773455D01*
X150162157Y-28772051D01*
X150162160Y-28772051D01*
X150355393Y-28725482D01*
X150355395Y-28725481D01*
X150361226Y-28724076D01*
X150366684Y-28721594D01*
X150366688Y-28721593D01*
X150544414Y-28640785D01*
X150553084Y-28636843D01*
X150620241Y-28589205D01*
X150687375Y-28566107D01*
X150756340Y-28582971D01*
X150805239Y-28634443D01*
X150818548Y-28704181D01*
X150792042Y-28770043D01*
X150782236Y-28781070D01*
X150504711Y-29058595D01*
X150442399Y-29092621D01*
X150415616Y-29095500D01*
X150183633Y-29095501D01*
X150149934Y-29095501D01*
X150114182Y-29102612D01*
X150087874Y-29107844D01*
X150087872Y-29107845D01*
X150075699Y-29110266D01*
X150065379Y-29117161D01*
X150065378Y-29117162D01*
X150044718Y-29130967D01*
X149991516Y-29166516D01*
X149935266Y-29250699D01*
X149920500Y-29324933D01*
X149920501Y-30075066D01*
X149923469Y-30089988D01*
X149935266Y-30149301D01*
X149933938Y-30149565D01*
X149940105Y-30206923D01*
X149908325Y-30270410D01*
X149888378Y-30287764D01*
X149767101Y-30372683D01*
X149767098Y-30372685D01*
X149762590Y-30375842D01*
X149625842Y-30512590D01*
X149622685Y-30517098D01*
X149622683Y-30517101D01*
X149600644Y-30548576D01*
X149514917Y-30671007D01*
X149512594Y-30675989D01*
X149512591Y-30675994D01*
X149456351Y-30796601D01*
X149433186Y-30846279D01*
X149431764Y-30851587D01*
X149431763Y-30851589D01*
X149413261Y-30920641D01*
X149383133Y-31033081D01*
X149382654Y-31038556D01*
X149382651Y-31038573D01*
X149377997Y-31091770D01*
X149352134Y-31157888D01*
X149348855Y-31161612D01*
X149341516Y-31166516D01*
X149285266Y-31250699D01*
X149270500Y-31324933D01*
X149270501Y-32075066D01*
X149285266Y-32149301D01*
X149292161Y-32159621D01*
X149292162Y-32159622D01*
X149341516Y-32233484D01*
X149340251Y-32234329D01*
X149367621Y-32284452D01*
X149370500Y-32311235D01*
X149370500Y-32935212D01*
X149368949Y-32954922D01*
X149365769Y-32975000D01*
X149366698Y-32980867D01*
X149367319Y-32987965D01*
X149367319Y-32987969D01*
X149371992Y-33041382D01*
X149383410Y-33171885D01*
X149384834Y-33177198D01*
X149384834Y-33177200D01*
X149426624Y-33333161D01*
X149434562Y-33362788D01*
X149436884Y-33367769D01*
X149436885Y-33367770D01*
X149515761Y-33536921D01*
X149515764Y-33536926D01*
X149518087Y-33541908D01*
X149521244Y-33546416D01*
X149593426Y-33649502D01*
X149631447Y-33703802D01*
X149733596Y-33805951D01*
X149767622Y-33868263D01*
X149770501Y-33895046D01*
X149770501Y-33979314D01*
X149773507Y-34011127D01*
X149818791Y-34140076D01*
X149899990Y-34250010D01*
X149907561Y-34255602D01*
X149908461Y-34256502D01*
X149942487Y-34318814D01*
X149937422Y-34389629D01*
X149894875Y-34446465D01*
X149884637Y-34453373D01*
X149791429Y-34509821D01*
X149779557Y-34519131D01*
X149669131Y-34629557D01*
X149659824Y-34641426D01*
X149578921Y-34775012D01*
X149572715Y-34788757D01*
X149525744Y-34938644D01*
X149523131Y-34951694D01*
X149518087Y-35006586D01*
X149521475Y-35018124D01*
X149522865Y-35019329D01*
X149530548Y-35021000D01*
X151464884Y-35021000D01*
X151480123Y-35016525D01*
X151481328Y-35015135D01*
X151482291Y-35010706D01*
X151476868Y-34951685D01*
X151474257Y-34938649D01*
X151427285Y-34788757D01*
X151421079Y-34775012D01*
X151340176Y-34641426D01*
X151330869Y-34629557D01*
X151220443Y-34519131D01*
X151208571Y-34509821D01*
X151115363Y-34453373D01*
X151067456Y-34400976D01*
X151055483Y-34330996D01*
X151083244Y-34265652D01*
X151091539Y-34256502D01*
X151092439Y-34255602D01*
X151100010Y-34250010D01*
X151105602Y-34242439D01*
X151105605Y-34242436D01*
X151169713Y-34155641D01*
X151226274Y-34112730D01*
X151271064Y-34104500D01*
X151943890Y-34104500D01*
X152012011Y-34124502D01*
X152058504Y-34178158D01*
X152069890Y-34230500D01*
X152069890Y-34922515D01*
X152049888Y-34990636D01*
X152045054Y-34996634D01*
X152045467Y-34996934D01*
X152042282Y-35001318D01*
X152033704Y-35011877D01*
X152001785Y-35047094D01*
X151997520Y-35051572D01*
X151951485Y-35097607D01*
X151948970Y-35100884D01*
X151948967Y-35100888D01*
X151929687Y-35126014D01*
X151923085Y-35133925D01*
X151905609Y-35153207D01*
X151859797Y-35203753D01*
X151694274Y-35426936D01*
X151692691Y-35429577D01*
X151692685Y-35429586D01*
X151656286Y-35490315D01*
X151604108Y-35538461D01*
X151534184Y-35550755D01*
X151499370Y-35535508D01*
X151469452Y-35529000D01*
X150772115Y-35529000D01*
X150756876Y-35533475D01*
X150755671Y-35534865D01*
X150754000Y-35542548D01*
X150754000Y-36164884D01*
X150758475Y-36180123D01*
X150759865Y-36181328D01*
X150767548Y-36182999D01*
X150828705Y-36182999D01*
X150834454Y-36182736D01*
X150898315Y-36176868D01*
X150911351Y-36174257D01*
X151061243Y-36127285D01*
X151074994Y-36121076D01*
X151141165Y-36081001D01*
X151209794Y-36062821D01*
X151277358Y-36084631D01*
X151322405Y-36139506D01*
X151330632Y-36210025D01*
X151328661Y-36219391D01*
X151271495Y-36447614D01*
X151230724Y-36722471D01*
X151230573Y-36725553D01*
X151230572Y-36725559D01*
X151218018Y-36981104D01*
X151217320Y-36987852D01*
X151217320Y-36990207D01*
X151215769Y-37000000D01*
X151217321Y-37009797D01*
X151217321Y-37010611D01*
X151218404Y-37020731D01*
X151230272Y-37232070D01*
X151269207Y-37461222D01*
X151333553Y-37684573D01*
X151334907Y-37687841D01*
X151334907Y-37687842D01*
X151397217Y-37838271D01*
X151422502Y-37899315D01*
X151534936Y-38102748D01*
X151536981Y-38105630D01*
X151536984Y-38105635D01*
X151594307Y-38186424D01*
X151617414Y-38253555D01*
X151600559Y-38322522D01*
X151549094Y-38371428D01*
X151534411Y-38376875D01*
X151534689Y-38377622D01*
X151527567Y-38380270D01*
X151520184Y-38382043D01*
X151515331Y-38384548D01*
X151445416Y-38389481D01*
X151383137Y-38355396D01*
X151364543Y-38331658D01*
X151340181Y-38291432D01*
X151330869Y-38279557D01*
X151220443Y-38169131D01*
X151208574Y-38159824D01*
X151074988Y-38078921D01*
X151061243Y-38072715D01*
X150911356Y-38025744D01*
X150898306Y-38023131D01*
X150834479Y-38017266D01*
X150828691Y-38017000D01*
X150772115Y-38017000D01*
X150756876Y-38021475D01*
X150755671Y-38022865D01*
X150754000Y-38030548D01*
X150754000Y-39053000D01*
X150733998Y-39121121D01*
X150680342Y-39167614D01*
X150628000Y-39179000D01*
X150372000Y-39179000D01*
X150303879Y-39158998D01*
X150257386Y-39105342D01*
X150246000Y-39053000D01*
X150246000Y-38035116D01*
X150241525Y-38019877D01*
X150240135Y-38018672D01*
X150232452Y-38017001D01*
X150171295Y-38017001D01*
X150165546Y-38017264D01*
X150117028Y-38021722D01*
X150047363Y-38008036D01*
X149996156Y-37958859D01*
X149979500Y-37896250D01*
X149979499Y-37498654D01*
X149979499Y-37495686D01*
X149979205Y-37492566D01*
X149977216Y-37471522D01*
X149977216Y-37471520D01*
X149976493Y-37463873D01*
X149931209Y-37334924D01*
X149850010Y-37224990D01*
X149818409Y-37201649D01*
X149778792Y-37172387D01*
X149735881Y-37115826D01*
X149730362Y-37045044D01*
X149763986Y-36982514D01*
X149805209Y-36957372D01*
X149804323Y-36955409D01*
X149824988Y-36946079D01*
X149958574Y-36865176D01*
X149970443Y-36855869D01*
X150080869Y-36745443D01*
X150090176Y-36733574D01*
X150171079Y-36599988D01*
X150177285Y-36586243D01*
X150224256Y-36436356D01*
X150226869Y-36423306D01*
X150231913Y-36368414D01*
X150228525Y-36356876D01*
X150227135Y-36355671D01*
X150219452Y-36354000D01*
X149122000Y-36354000D01*
X149053879Y-36333998D01*
X149007386Y-36280342D01*
X149000000Y-36246388D01*
X149000000Y-35827885D01*
X149504000Y-35827885D01*
X149508475Y-35843124D01*
X149509865Y-35844329D01*
X149517548Y-35846000D01*
X150227885Y-35846000D01*
X150243124Y-35841525D01*
X150244329Y-35840135D01*
X150246000Y-35832452D01*
X150246000Y-35547115D01*
X150241525Y-35531876D01*
X150240135Y-35530671D01*
X150232452Y-35529000D01*
X149522115Y-35529000D01*
X149506876Y-35533475D01*
X149505671Y-35534865D01*
X149504000Y-35542548D01*
X149504000Y-35827885D01*
X149000000Y-35827885D01*
X149000000Y-28545785D01*
X149020002Y-28477664D01*
X149073658Y-28431171D01*
X149143932Y-28421067D01*
X149208581Y-28450620D01*
G37*
%TD.AperFunction*%
%TA.AperFunction,Conductor*%
G36*
X156956651Y-37584618D02*
G01*
X157003144Y-37638274D01*
X157007371Y-37650642D01*
X157007615Y-37650553D01*
X157048723Y-37762886D01*
X157062055Y-37799319D01*
X157066288Y-37805619D01*
X157066293Y-37805628D01*
X157076439Y-37820726D01*
X157097831Y-37888423D01*
X157079226Y-37956939D01*
X157026533Y-38004520D01*
X156971857Y-38017001D01*
X156921295Y-38017001D01*
X156915546Y-38017264D01*
X156851685Y-38023132D01*
X156838649Y-38025743D01*
X156688761Y-38072714D01*
X156676853Y-38078091D01*
X156606536Y-38087895D01*
X156573147Y-38078091D01*
X156561239Y-38072714D01*
X156411356Y-38025744D01*
X156398306Y-38023131D01*
X156334479Y-38017266D01*
X156328691Y-38017000D01*
X156272115Y-38017000D01*
X156256876Y-38021475D01*
X156255671Y-38022865D01*
X156254000Y-38030548D01*
X156254000Y-38652885D01*
X156258475Y-38668124D01*
X156259865Y-38669329D01*
X156267548Y-38671000D01*
X157378000Y-38671000D01*
X157446121Y-38691002D01*
X157492614Y-38744658D01*
X157504000Y-38797000D01*
X157504000Y-39053000D01*
X157483998Y-39121121D01*
X157430342Y-39167614D01*
X157378000Y-39179000D01*
X155872000Y-39179000D01*
X155803879Y-39158998D01*
X155757386Y-39105342D01*
X155746000Y-39053000D01*
X155746000Y-38035116D01*
X155741525Y-38019877D01*
X155740135Y-38018672D01*
X155732452Y-38017001D01*
X155671295Y-38017001D01*
X155665546Y-38017264D01*
X155601685Y-38023132D01*
X155588649Y-38025743D01*
X155438757Y-38072715D01*
X155425012Y-38078921D01*
X155284930Y-38163758D01*
X155283487Y-38161375D01*
X155229674Y-38182838D01*
X155159978Y-38169312D01*
X155108659Y-38120252D01*
X155096152Y-38090005D01*
X155078233Y-38023131D01*
X155071109Y-37996545D01*
X155027214Y-37902411D01*
X154997305Y-37838271D01*
X154997302Y-37838266D01*
X154994979Y-37833284D01*
X154945686Y-37762886D01*
X154922999Y-37695612D01*
X154940284Y-37626752D01*
X154992054Y-37578168D01*
X155048900Y-37564616D01*
X156888530Y-37564616D01*
X156956651Y-37584618D01*
G37*
%TD.AperFunction*%
%TA.AperFunction,Conductor*%
G36*
X157718622Y-34939130D02*
G01*
X157763464Y-34965433D01*
X157814506Y-35011877D01*
X157842576Y-35037419D01*
X157981793Y-35113008D01*
X158135022Y-35153207D01*
X158218977Y-35154526D01*
X158285819Y-35155576D01*
X158285822Y-35155576D01*
X158293416Y-35155695D01*
X158447832Y-35120329D01*
X158537886Y-35075037D01*
X158607731Y-35062299D01*
X158673375Y-35089343D01*
X158713976Y-35147584D01*
X158720500Y-35187602D01*
X158720500Y-37436684D01*
X158718949Y-37456394D01*
X158715769Y-37476472D01*
X158717320Y-37486265D01*
X158717320Y-37492566D01*
X158718194Y-37511648D01*
X158706761Y-37686082D01*
X158704610Y-37702422D01*
X158666056Y-37896250D01*
X158665240Y-37900350D01*
X158660975Y-37916267D01*
X158647169Y-37956939D01*
X158596108Y-38107359D01*
X158589802Y-38122584D01*
X158566150Y-38170546D01*
X158551512Y-38200229D01*
X158503443Y-38252477D01*
X158438506Y-38270500D01*
X158183321Y-38270501D01*
X158170686Y-38270501D01*
X158167735Y-38270780D01*
X158167732Y-38270780D01*
X158161488Y-38271370D01*
X158139373Y-38273460D01*
X158069675Y-38259956D01*
X158038426Y-38237114D01*
X158022344Y-38221032D01*
X157988318Y-38158720D01*
X157993383Y-38087905D01*
X158029608Y-38036126D01*
X158129038Y-37951204D01*
X158129038Y-37951203D01*
X158134816Y-37946269D01*
X158227257Y-37817624D01*
X158286344Y-37670641D01*
X158292590Y-37626752D01*
X158308083Y-37517891D01*
X158308083Y-37517888D01*
X158308664Y-37513807D01*
X158308809Y-37500000D01*
X158307910Y-37492566D01*
X158290690Y-37350273D01*
X158289778Y-37342733D01*
X158233782Y-37194546D01*
X158198899Y-37143791D01*
X158148357Y-37070251D01*
X158148356Y-37070249D01*
X158144055Y-37063992D01*
X158025777Y-36958611D01*
X157885776Y-36884484D01*
X157732135Y-36845892D01*
X157724536Y-36845852D01*
X157724535Y-36845852D01*
X157653764Y-36845481D01*
X157585904Y-36845126D01*
X157549992Y-36839703D01*
X157470740Y-36815663D01*
X157422099Y-36810872D01*
X157408152Y-36808692D01*
X157400767Y-36806098D01*
X157395202Y-36805616D01*
X157374924Y-36805616D01*
X157362578Y-36805010D01*
X157361183Y-36804872D01*
X157353846Y-36803930D01*
X157344412Y-36802436D01*
X157344411Y-36802436D01*
X157334617Y-36800885D01*
X157315392Y-36803930D01*
X157314540Y-36804065D01*
X157294829Y-36805616D01*
X156379616Y-36805616D01*
X156311495Y-36785614D01*
X156265002Y-36731958D01*
X156254898Y-36661684D01*
X156284392Y-36597104D01*
X156302912Y-36579654D01*
X156376293Y-36523347D01*
X156382483Y-36517918D01*
X156517918Y-36382483D01*
X156523347Y-36376292D01*
X156584291Y-36296870D01*
X156591618Y-36284179D01*
X156637731Y-36238066D01*
X156650417Y-36230741D01*
X156729845Y-36169793D01*
X156736036Y-36164364D01*
X156871471Y-36028929D01*
X156876900Y-36022738D01*
X156937848Y-35943310D01*
X156946032Y-35929135D01*
X156997201Y-35805604D01*
X157001438Y-35789792D01*
X157018889Y-35657236D01*
X157018889Y-35640860D01*
X157013279Y-35598251D01*
X157024218Y-35528103D01*
X157043472Y-35498724D01*
X157045597Y-35496301D01*
X157048515Y-35493383D01*
X157076862Y-35456440D01*
X157086637Y-35429586D01*
X157111327Y-35361751D01*
X157111327Y-35361750D01*
X157115098Y-35351390D01*
X157115098Y-35239600D01*
X157119003Y-35239600D01*
X157124590Y-35189380D01*
X157169341Y-35134263D01*
X157181911Y-35126646D01*
X157340992Y-35042527D01*
X157354625Y-35036325D01*
X157541736Y-34964298D01*
X157556010Y-34959758D01*
X157647674Y-34936498D01*
X157718622Y-34939130D01*
G37*
%TD.AperFunction*%
%TA.AperFunction,Conductor*%
G36*
X153825142Y-30400905D02*
G01*
X153871635Y-30454561D01*
X153881739Y-30524835D01*
X153874414Y-30552672D01*
X153864167Y-30578954D01*
X153864166Y-30578958D01*
X153861406Y-30586037D01*
X153860414Y-30593570D01*
X153860414Y-30593571D01*
X153850220Y-30671007D01*
X153840729Y-30743096D01*
X153843467Y-30767892D01*
X153856759Y-30888288D01*
X153858113Y-30900553D01*
X153860723Y-30907684D01*
X153860723Y-30907686D01*
X153908621Y-31038573D01*
X153912553Y-31049319D01*
X153916789Y-31055622D01*
X153916789Y-31055623D01*
X153958009Y-31116964D01*
X154000908Y-31180805D01*
X154006527Y-31185918D01*
X154006528Y-31185919D01*
X154112460Y-31282309D01*
X154118076Y-31287419D01*
X154257293Y-31363008D01*
X154410522Y-31403207D01*
X154543780Y-31405300D01*
X154611577Y-31426369D01*
X154630895Y-31442189D01*
X155029804Y-31841098D01*
X155063830Y-31903410D01*
X155058765Y-31974225D01*
X155029804Y-32019288D01*
X154848739Y-32200353D01*
X154786427Y-32234379D01*
X154759644Y-32237258D01*
X154240356Y-32237258D01*
X154172235Y-32217256D01*
X154151261Y-32200353D01*
X153902393Y-31951485D01*
X153865450Y-31923138D01*
X153856388Y-31919840D01*
X153856387Y-31919839D01*
X153770761Y-31888673D01*
X153770760Y-31888673D01*
X153760400Y-31884902D01*
X153648610Y-31884902D01*
X153638250Y-31888673D01*
X153638249Y-31888673D01*
X153552623Y-31919839D01*
X153552622Y-31919840D01*
X153543560Y-31923138D01*
X153506617Y-31951485D01*
X153365699Y-32092403D01*
X153337352Y-32129346D01*
X153334054Y-32138407D01*
X153318128Y-32182163D01*
X153276033Y-32239334D01*
X153242823Y-32257468D01*
X153190007Y-32276692D01*
X153153064Y-32305039D01*
X153150139Y-32307964D01*
X153147724Y-32310082D01*
X153083320Y-32339960D01*
X153048197Y-32340274D01*
X153005586Y-32334664D01*
X152989210Y-32334664D01*
X152856656Y-32352116D01*
X152840832Y-32356356D01*
X152833041Y-32359583D01*
X152762451Y-32367172D01*
X152698964Y-32335392D01*
X152662737Y-32274333D01*
X152659292Y-32251909D01*
X152659307Y-32250498D01*
X152640276Y-32093231D01*
X152584280Y-31945044D01*
X152579981Y-31938789D01*
X152579979Y-31938785D01*
X152556519Y-31904651D01*
X152534419Y-31837181D01*
X152552305Y-31768474D01*
X152578528Y-31737473D01*
X152679536Y-31651204D01*
X152679536Y-31651203D01*
X152685314Y-31646269D01*
X152777755Y-31517624D01*
X152836842Y-31370641D01*
X152855380Y-31240380D01*
X152858581Y-31217891D01*
X152858581Y-31217888D01*
X152859162Y-31213807D01*
X152859307Y-31200000D01*
X152840276Y-31042733D01*
X152784280Y-30894546D01*
X152747573Y-30841137D01*
X152698855Y-30770251D01*
X152698854Y-30770249D01*
X152694553Y-30763992D01*
X152576275Y-30658611D01*
X152514066Y-30625673D01*
X152463223Y-30576121D01*
X152447241Y-30506946D01*
X152471195Y-30440113D01*
X152527479Y-30396839D01*
X152563137Y-30388707D01*
X152627478Y-30383643D01*
X152642587Y-30384237D01*
X152642587Y-30384082D01*
X152652503Y-30384082D01*
X152662298Y-30385634D01*
X152672091Y-30384083D01*
X152672092Y-30384083D01*
X152679833Y-30382857D01*
X152682376Y-30382454D01*
X152702086Y-30380903D01*
X153757021Y-30380903D01*
X153825142Y-30400905D01*
G37*
%TD.AperFunction*%
%TA.AperFunction,Conductor*%
G36*
X149201563Y-25500582D02*
G01*
X149230236Y-25522071D01*
X149319954Y-25555704D01*
X149358157Y-25570026D01*
X149358159Y-25570026D01*
X149365552Y-25572798D01*
X149373402Y-25573651D01*
X149373403Y-25573651D01*
X149385821Y-25575000D01*
X149427244Y-25579500D01*
X150320853Y-25579500D01*
X150388974Y-25599502D01*
X150409948Y-25616405D01*
X151557949Y-26764406D01*
X151591975Y-26826718D01*
X151586910Y-26897533D01*
X151574708Y-26921844D01*
X151514948Y-27014397D01*
X151436166Y-27209878D01*
X151395771Y-27416729D01*
X151395500Y-27422270D01*
X151395500Y-27727659D01*
X151410493Y-27884806D01*
X151450245Y-28020307D01*
X151450229Y-28091301D01*
X151418436Y-28144870D01*
X151106628Y-28456678D01*
X151044316Y-28490704D01*
X150973501Y-28485639D01*
X150916665Y-28443092D01*
X150891854Y-28376572D01*
X150906945Y-28307198D01*
X150911681Y-28299236D01*
X150981797Y-28190645D01*
X150981799Y-28190641D01*
X150985052Y-28185603D01*
X151063834Y-27990122D01*
X151104229Y-27783271D01*
X151104500Y-27777730D01*
X151104500Y-27472341D01*
X151089507Y-27315194D01*
X151079968Y-27282677D01*
X151031868Y-27118722D01*
X151030177Y-27112958D01*
X150979415Y-27014397D01*
X150936422Y-26930921D01*
X150936420Y-26930918D01*
X150933676Y-26925590D01*
X150827761Y-26790754D01*
X150807192Y-26764568D01*
X150807188Y-26764564D01*
X150803486Y-26759851D01*
X150798955Y-26755919D01*
X150648835Y-26625650D01*
X150648830Y-26625646D01*
X150644304Y-26621719D01*
X150461874Y-26516181D01*
X150262778Y-26447043D01*
X150256845Y-26446183D01*
X150256842Y-26446182D01*
X150060140Y-26417662D01*
X150060137Y-26417662D01*
X150054200Y-26416801D01*
X149843667Y-26426545D01*
X149837843Y-26427949D01*
X149837840Y-26427949D01*
X149644607Y-26474518D01*
X149644605Y-26474519D01*
X149638774Y-26475924D01*
X149633316Y-26478406D01*
X149633312Y-26478407D01*
X149554562Y-26514213D01*
X149446916Y-26563157D01*
X149314259Y-26657257D01*
X149281058Y-26680809D01*
X149275014Y-26685096D01*
X149270876Y-26689419D01*
X149270871Y-26689423D01*
X149217018Y-26745679D01*
X149155462Y-26781055D01*
X149084553Y-26777536D01*
X149026803Y-26736239D01*
X149000547Y-26670276D01*
X149000000Y-26658548D01*
X149000000Y-25601409D01*
X149020002Y-25533288D01*
X149073658Y-25486795D01*
X149143932Y-25476691D01*
X149201563Y-25500582D01*
G37*
%TD.AperFunction*%
%TA.AperFunction,Conductor*%
G36*
X159688121Y-21274002D02*
G01*
X159734614Y-21327658D01*
X159746000Y-21380000D01*
X159746000Y-24914111D01*
X159725998Y-24982232D01*
X159672342Y-25028725D01*
X159602068Y-25038829D01*
X159537488Y-25009335D01*
X159530905Y-25003206D01*
X159516709Y-24989010D01*
X159391227Y-24901147D01*
X159346898Y-24845690D01*
X159339589Y-24775071D01*
X159343263Y-24760255D01*
X159374256Y-24661356D01*
X159376869Y-24648306D01*
X159381913Y-24593414D01*
X159378525Y-24581876D01*
X159377135Y-24580671D01*
X159369452Y-24579000D01*
X159001000Y-24579000D01*
X158932879Y-24558998D01*
X158886386Y-24505342D01*
X158875000Y-24453000D01*
X158875000Y-24197000D01*
X158895002Y-24128879D01*
X158948658Y-24082386D01*
X159001000Y-24071000D01*
X159364884Y-24071000D01*
X159380123Y-24066525D01*
X159381328Y-24065135D01*
X159382291Y-24060706D01*
X159376868Y-24001685D01*
X159374257Y-23988649D01*
X159327285Y-23838757D01*
X159321079Y-23825012D01*
X159240176Y-23691426D01*
X159230869Y-23679557D01*
X159120443Y-23569131D01*
X159108574Y-23559824D01*
X158974988Y-23478921D01*
X158961243Y-23472715D01*
X158811356Y-23425744D01*
X158798306Y-23423131D01*
X158743971Y-23418138D01*
X158677966Y-23391987D01*
X158636578Y-23334303D01*
X158629500Y-23292673D01*
X158629499Y-23271360D01*
X158649498Y-23203238D01*
X158703151Y-23156743D01*
X158742331Y-23146044D01*
X158747235Y-23145529D01*
X158754832Y-23145648D01*
X158909248Y-23110282D01*
X158979658Y-23074870D01*
X159043988Y-23042516D01*
X159043991Y-23042514D01*
X159050771Y-23039104D01*
X159056542Y-23034175D01*
X159056545Y-23034173D01*
X159165452Y-22941157D01*
X159165452Y-22941156D01*
X159171230Y-22936222D01*
X159263671Y-22807577D01*
X159322758Y-22660594D01*
X159345078Y-22503760D01*
X159345223Y-22489953D01*
X159326192Y-22332686D01*
X159270196Y-22184499D01*
X159180469Y-22053945D01*
X159062191Y-21948564D01*
X158922190Y-21874437D01*
X158815559Y-21847653D01*
X158775919Y-21837696D01*
X158775917Y-21837696D01*
X158768549Y-21835845D01*
X158760949Y-21835805D01*
X158760948Y-21835805D01*
X158754838Y-21835773D01*
X158686824Y-21815414D01*
X158640613Y-21761515D01*
X158629500Y-21709775D01*
X158629499Y-21423654D01*
X158629499Y-21420686D01*
X158628813Y-21413423D01*
X158626775Y-21391851D01*
X158640281Y-21322151D01*
X158689326Y-21270818D01*
X158752216Y-21254000D01*
X159620000Y-21254000D01*
X159688121Y-21274002D01*
G37*
%TD.AperFunction*%
%TA.AperFunction,Conductor*%
G36*
X150296121Y-21666002D02*
G01*
X150342614Y-21719658D01*
X150354000Y-21772000D01*
X150354000Y-23014884D01*
X150358475Y-23030123D01*
X150359865Y-23031328D01*
X150367548Y-23032999D01*
X150772095Y-23032999D01*
X150778614Y-23032662D01*
X150856996Y-23024529D01*
X150926817Y-23037394D01*
X150978599Y-23085965D01*
X150995999Y-23149856D01*
X150995999Y-23707157D01*
X150975997Y-23775278D01*
X150922341Y-23821771D01*
X150852067Y-23831875D01*
X150841594Y-23829881D01*
X150834448Y-23827202D01*
X150826594Y-23826349D01*
X150826591Y-23826348D01*
X150776153Y-23820869D01*
X150776152Y-23820869D01*
X150772756Y-23820500D01*
X149427244Y-23820500D01*
X149423848Y-23820869D01*
X149423847Y-23820869D01*
X149373403Y-23826349D01*
X149373402Y-23826349D01*
X149365552Y-23827202D01*
X149358159Y-23829974D01*
X149358157Y-23829974D01*
X149323693Y-23842894D01*
X149230236Y-23877929D01*
X149201563Y-23899418D01*
X149135059Y-23924265D01*
X149065677Y-23909212D01*
X149015446Y-23859039D01*
X149000000Y-23798591D01*
X149000000Y-23090627D01*
X149020002Y-23022506D01*
X149073658Y-22976013D01*
X149143932Y-22965909D01*
X149165668Y-22971034D01*
X149313710Y-23020138D01*
X149327086Y-23023005D01*
X149421438Y-23032672D01*
X149427854Y-23033000D01*
X149827885Y-23033000D01*
X149843124Y-23028525D01*
X149844329Y-23027135D01*
X149846000Y-23019452D01*
X149846000Y-21772000D01*
X149866002Y-21703879D01*
X149919658Y-21657386D01*
X149972000Y-21646000D01*
X150228000Y-21646000D01*
X150296121Y-21666002D01*
G37*
%TD.AperFunction*%
%TD*%
M02*
