M48
; DRILL file {KiCad (6.0.2-0)} date Saturday, 05 March 2022 at 08:37:34
; FORMAT={-:-/ absolute / inch / decimal}
; #@! TF.CreationDate,2022-03-05T08:37:34+00:00
; #@! TF.GenerationSoftware,Kicad,Pcbnew,(6.0.2-0)
; #@! TF.FileFunction,Plated,1,2,PTH
FMAT,2
INCH
; #@! TA.AperFunction,Plated,PTH,ViaDrill
T1C0.0157
; #@! TA.AperFunction,Plated,PTH,ComponentDrill
T2C0.0236
; #@! TA.AperFunction,Plated,PTH,ComponentDrill
T3C0.0335
; #@! TA.AperFunction,Plated,PTH,ComponentDrill
T4C0.0394
; #@! TA.AperFunction,Plated,PTH,ComponentDrill
T5C0.0492
%
G90
G05
T1
X5.876Y-1.6732
X5.9154Y-1.2106
X5.935Y-1.6732
X5.9449Y-1.0236
X5.9646Y-1.3583
X5.9744Y-1.2308
X5.9744Y-1.5354
X5.9843Y-1.5945
X6.0138Y-1.2598
X6.0531Y-1.128
X6.0531Y-1.6732
X6.0827Y-1.2106
X6.0827Y-1.3583
X6.0916Y-0.9154
X6.0925Y-1.6732
X6.122Y-1.2106
X6.1319Y-1.6732
X6.1695Y-1.56
X6.1713Y-1.6732
X6.1811Y-0.8858
X6.2067Y-1.4764
X6.2106Y-1.3583
X6.2205Y-0.8563
X6.2303Y-1.2106
X6.2815Y-1.6732
T2
X5.9591Y-1.7937
X6.1866Y-1.7937
T3
X5.9055Y-1.0866
X6.0039Y-1.0866
X6.1024Y-1.0866
X6.2008Y-1.0866
T4
X5.9028Y-1.9386
X6.2429Y-1.9386
T5
X5.9028Y-1.7744
X6.2429Y-1.7744
T0
M30
