M48
; DRILL file {KiCad (6.0.2-0)} date Sunday, 01 May 2022 at 12:34:26
; FORMAT={-:-/ absolute / inch / decimal}
; #@! TF.CreationDate,2022-05-01T12:34:26+01:00
; #@! TF.GenerationSoftware,Kicad,Pcbnew,(6.0.2-0)
; #@! TF.FileFunction,Plated,1,2,PTH
FMAT,2
INCH
; #@! TA.AperFunction,Plated,PTH,ViaDrill
T1C0.0157
; #@! TA.AperFunction,Plated,PTH,ComponentDrill
T2C0.0394
%
G90
G05
T1
X3.6023Y-1.8534
X3.7372Y-1.6467
X3.7776Y-1.5994
X3.7884Y-1.8504
X3.8327Y-1.8918
X3.8402Y-1.7815
X3.9365Y-1.8824
X3.9764Y-1.8819
X4.0157Y-1.8698
X4.0709Y-1.8581
X4.0866Y-1.6949
X4.0941Y-1.7658
X4.1293Y-1.5902
X4.131Y-1.8808
X4.138Y-1.8359
X4.1862Y-1.9735
T2
X3.6299Y-1.6033
X3.6299Y-1.7033
X3.6299Y-1.8033
X3.6299Y-1.9033
X3.6299Y-2.0033
X3.7374Y-2.0039
X3.8374Y-2.0039
X3.9374Y-2.0039
X4.0374Y-2.0039
X4.1374Y-2.0039
X4.2441Y-1.6039
X4.2441Y-1.7039
X4.2441Y-1.8039
X4.2441Y-1.9039
X4.2441Y-2.0039
T0
M30
