%TF.GenerationSoftware,KiCad,Pcbnew,(6.0.2-0)*%
%TF.CreationDate,2022-02-21T08:29:35+00:00*%
%TF.ProjectId,Generic4,47656e65-7269-4633-942e-6b696361645f,1*%
%TF.SameCoordinates,Original*%
%TF.FileFunction,Paste,Top*%
%TF.FilePolarity,Positive*%
%FSLAX46Y46*%
G04 Gerber Fmt 4.6, Leading zero omitted, Abs format (unit mm)*
G04 Created by KiCad (PCBNEW (6.0.2-0)) date 2022-02-21 08:29:35*
%MOMM*%
%LPD*%
G01*
G04 APERTURE LIST*
%ADD10C,0.010000*%
%ADD11R,0.768000X0.384000*%
%ADD12R,0.384000X0.768000*%
%ADD13R,1.392000X1.392000*%
%ADD14R,0.672000X0.672000*%
G04 APERTURE END LIST*
D10*
%TO.C,U1*%
X98775000Y-42968250D02*
X98775000Y-41518250D01*
X98775000Y-41518250D02*
X97925000Y-41518250D01*
X97925000Y-41518250D02*
X97325000Y-42118250D01*
X97325000Y-42118250D02*
X97325000Y-42968250D01*
X97325000Y-42968250D02*
X98775000Y-42968250D01*
G36*
X98775000Y-42968250D02*
G01*
X97325000Y-42968250D01*
X97325000Y-42118250D01*
X97925000Y-41518250D01*
X98775000Y-41518250D01*
X98775000Y-42968250D01*
G37*
X98775000Y-42968250D02*
X97325000Y-42968250D01*
X97325000Y-42118250D01*
X97925000Y-41518250D01*
X98775000Y-41518250D01*
X98775000Y-42968250D01*
%TD*%
D11*
%TO.C,U1*%
X94100000Y-40193250D03*
X94100000Y-40993250D03*
X94100000Y-41793250D03*
X94100000Y-42593250D03*
X94100000Y-43393250D03*
X94100000Y-44193250D03*
X94100000Y-44993250D03*
X94100000Y-45793250D03*
X94100000Y-46593250D03*
X94100000Y-47393250D03*
X94100000Y-48193250D03*
D12*
X95200000Y-49093250D03*
X96000000Y-49093250D03*
X96800000Y-49093250D03*
X97600000Y-49093250D03*
X98400000Y-49093250D03*
X99200000Y-49093250D03*
X100000000Y-49093250D03*
X100800000Y-49093250D03*
X101600000Y-49093250D03*
X102400000Y-49093250D03*
X103200000Y-49093250D03*
X104000000Y-49093250D03*
X104800000Y-49093250D03*
D11*
X105900000Y-48193250D03*
X105900000Y-47393250D03*
X105900000Y-46593250D03*
X105900000Y-45793250D03*
X105900000Y-44993250D03*
X105900000Y-44193250D03*
X105900000Y-43393250D03*
X105900000Y-42593250D03*
X105900000Y-41793250D03*
X105900000Y-40993250D03*
X105900000Y-40193250D03*
D12*
X104800000Y-39293250D03*
X104000000Y-39293250D03*
X103200000Y-39293250D03*
X102400000Y-39293250D03*
X101600000Y-39293250D03*
X100800000Y-39293250D03*
X100000000Y-39293250D03*
X99200000Y-39293250D03*
X98400000Y-39293250D03*
X97600000Y-39293250D03*
X96800000Y-39293250D03*
X96000000Y-39293250D03*
X95200000Y-39293250D03*
D13*
X100000000Y-44193250D03*
D14*
X105950000Y-39243250D03*
X105950000Y-49143250D03*
X94050000Y-49143250D03*
X94050000Y-39243250D03*
D13*
X98050000Y-44193250D03*
X98050000Y-46143250D03*
X100000000Y-46143250D03*
X101950000Y-46143250D03*
X101950000Y-44193250D03*
X101950000Y-42243250D03*
X100000000Y-42243250D03*
%TD*%
M02*
