%TF.GenerationSoftware,KiCad,Pcbnew,(6.0.1-0)*%
%TF.CreationDate,2022-01-18T14:36:20+00:00*%
%TF.ProjectId,Generic,47656e65-7269-4632-9e6b-696361645f70,6*%
%TF.SameCoordinates,Original*%
%TF.FileFunction,Copper,L2,Bot*%
%TF.FilePolarity,Positive*%
%FSLAX46Y46*%
G04 Gerber Fmt 4.6, Leading zero omitted, Abs format (unit mm)*
G04 Created by KiCad (PCBNEW (6.0.1-0)) date 2022-01-18 14:36:20*
%MOMM*%
%LPD*%
G01*
G04 APERTURE LIST*
%ADD10C,0.100000*%
%TA.AperFunction,NonConductor*%
%ADD11C,0.100000*%
%TD*%
%TA.AperFunction,SMDPad,CuDef*%
%ADD12R,2.000000X0.900000*%
%TD*%
%TA.AperFunction,SMDPad,CuDef*%
%ADD13R,0.900000X2.000000*%
%TD*%
%TA.AperFunction,SMDPad,CuDef*%
%ADD14R,5.000000X5.000000*%
%TD*%
%TA.AperFunction,ComponentPad*%
%ADD15O,1.700000X1.700000*%
%TD*%
%TA.AperFunction,ComponentPad*%
%ADD16R,1.700000X1.700000*%
%TD*%
%TA.AperFunction,ComponentPad*%
%ADD17C,0.350000*%
%TD*%
%TA.AperFunction,ComponentPad*%
%ADD18C,0.600000*%
%TD*%
%TA.AperFunction,ComponentPad*%
%ADD19C,1.500000*%
%TD*%
%TA.AperFunction,ComponentPad*%
%ADD20C,1.250000*%
%TD*%
%TA.AperFunction,ViaPad*%
%ADD21C,0.800000*%
%TD*%
%TA.AperFunction,Conductor*%
%ADD22C,0.500000*%
%TD*%
%TA.AperFunction,Conductor*%
%ADD23C,0.250000*%
%TD*%
G04 APERTURE END LIST*
D10*
D11*
X130557142Y-124685714D02*
X130366666Y-125352380D01*
X130176190Y-124876190D01*
X129985714Y-125352380D01*
X129795238Y-124685714D01*
X129509523Y-124685714D02*
X129319047Y-125352380D01*
X129128571Y-124876190D01*
X128938095Y-125352380D01*
X128747619Y-124685714D01*
X128461904Y-124685714D02*
X128271428Y-125352380D01*
X128080952Y-124876190D01*
X127890476Y-125352380D01*
X127700000Y-124685714D01*
X127319047Y-125257142D02*
X127271428Y-125304761D01*
X127319047Y-125352380D01*
X127366666Y-125304761D01*
X127319047Y-125257142D01*
X127319047Y-125352380D01*
X126842857Y-125352380D02*
X126842857Y-124685714D01*
X126842857Y-124780952D02*
X126795238Y-124733333D01*
X126700000Y-124685714D01*
X126557142Y-124685714D01*
X126461904Y-124733333D01*
X126414285Y-124828571D01*
X126414285Y-125352380D01*
X126414285Y-124828571D02*
X126366666Y-124733333D01*
X126271428Y-124685714D01*
X126128571Y-124685714D01*
X126033333Y-124733333D01*
X125985714Y-124828571D01*
X125985714Y-125352380D01*
X125128571Y-125304761D02*
X125223809Y-125352380D01*
X125414285Y-125352380D01*
X125509523Y-125304761D01*
X125557142Y-125209523D01*
X125557142Y-124828571D01*
X125509523Y-124733333D01*
X125414285Y-124685714D01*
X125223809Y-124685714D01*
X125128571Y-124733333D01*
X125080952Y-124828571D01*
X125080952Y-124923809D01*
X125557142Y-125019047D01*
X124652380Y-125257142D02*
X124604761Y-125304761D01*
X124652380Y-125352380D01*
X124700000Y-125304761D01*
X124652380Y-125257142D01*
X124652380Y-125352380D01*
X123747619Y-124685714D02*
X123747619Y-125352380D01*
X124176190Y-124685714D02*
X124176190Y-125209523D01*
X124128571Y-125304761D01*
X124033333Y-125352380D01*
X123890476Y-125352380D01*
X123795238Y-125304761D01*
X123747619Y-125257142D01*
X123271428Y-125352380D02*
X123271428Y-124352380D01*
X123176190Y-124971428D02*
X122890476Y-125352380D01*
X122890476Y-124685714D02*
X123271428Y-125066666D01*
D12*
%TO.P,U1,1,GND*%
%TO.N,GND*%
X135200000Y-99895000D03*
%TO.P,U1,2,VDD*%
%TO.N,+3V3*%
X135200000Y-101165000D03*
%TO.P,U1,3,EN*%
%TO.N,Net-(Q1-Pad5)*%
X135200000Y-102435000D03*
%TO.P,U1,4,SENSOR_VP*%
%TO.N,unconnected-(U1-Pad4)*%
X135200000Y-103705000D03*
%TO.P,U1,5,SENSOR_VN*%
%TO.N,unconnected-(U1-Pad5)*%
X135200000Y-104975000D03*
%TO.P,U1,6,IO34*%
%TO.N,GND*%
X135200000Y-106245000D03*
%TO.P,U1,7,IO35*%
X135200000Y-107515000D03*
%TO.P,U1,8,IO32*%
%TO.N,R*%
X135200000Y-108785000D03*
%TO.P,U1,9,IO33*%
%TO.N,B*%
X135200000Y-110055000D03*
%TO.P,U1,10,IO25*%
%TO.N,G*%
X135200000Y-111325000D03*
%TO.P,U1,11,IO26*%
%TO.N,ADC*%
X135200000Y-112595000D03*
%TO.P,U1,12,IO27*%
%TO.N,IO4*%
X135200000Y-113865000D03*
%TO.P,U1,13,IO14*%
%TO.N,GND*%
X135200000Y-115135000D03*
%TO.P,U1,14,IO12*%
X135200000Y-116405000D03*
D13*
%TO.P,U1,15,GND*%
X132415000Y-117405000D03*
%TO.P,U1,16,IO13*%
%TO.N,IO1*%
X131145000Y-117405000D03*
%TO.P,U1,17,SHD/SD2*%
%TO.N,unconnected-(U1-Pad17)*%
X129875000Y-117405000D03*
%TO.P,U1,18,SWP/SD3*%
%TO.N,unconnected-(U1-Pad18)*%
X128605000Y-117405000D03*
%TO.P,U1,19,SCS/CMD*%
%TO.N,unconnected-(U1-Pad19)*%
X127335000Y-117405000D03*
%TO.P,U1,20,SCK/CLK*%
%TO.N,unconnected-(U1-Pad20)*%
X126065000Y-117405000D03*
%TO.P,U1,21,SDO/SD0*%
%TO.N,unconnected-(U1-Pad21)*%
X124795000Y-117405000D03*
%TO.P,U1,22,SDI/SD1*%
%TO.N,unconnected-(U1-Pad22)*%
X123525000Y-117405000D03*
%TO.P,U1,23,IO15*%
%TO.N,IO2*%
X122255000Y-117405000D03*
%TO.P,U1,24,IO2*%
%TO.N,IO3*%
X120985000Y-117405000D03*
D12*
%TO.P,U1,25,IO0*%
%TO.N,Net-(Q1-Pad4)*%
X118200000Y-116405000D03*
%TO.P,U1,26,IO4*%
%TO.N,IO5*%
X118200000Y-115135000D03*
%TO.P,U1,27,IO16*%
%TO.N,unconnected-(U1-Pad27)*%
X118200000Y-113865000D03*
%TO.P,U1,28,IO17*%
%TO.N,USB*%
X118200000Y-112595000D03*
%TO.P,U1,29,IO5*%
%TO.N,CHARGER*%
X118200000Y-111325000D03*
%TO.P,U1,30,IO18*%
%TO.N,unconnected-(U1-Pad30)*%
X118200000Y-110055000D03*
%TO.P,U1,31,IO19*%
%TO.N,unconnected-(U1-Pad31)*%
X118200000Y-108785000D03*
%TO.P,U1,32,NC*%
%TO.N,unconnected-(U1-Pad32)*%
X118200000Y-107515000D03*
%TO.P,U1,33,IO21*%
%TO.N,unconnected-(U1-Pad33)*%
X118200000Y-106245000D03*
%TO.P,U1,34,RXD0/IO3*%
%TO.N,I*%
X118200000Y-104975000D03*
%TO.P,U1,35,TXD0/IO1*%
%TO.N,O*%
X118200000Y-103705000D03*
%TO.P,U1,36,IO22*%
%TO.N,ADCON*%
X118200000Y-102435000D03*
%TO.P,U1,37,IO23*%
%TO.N,unconnected-(U1-Pad37)*%
X118200000Y-101165000D03*
%TO.P,U1,38,GND*%
%TO.N,GND*%
X118200000Y-99895000D03*
D14*
%TO.P,U1,39,GND*%
X127700000Y-107395000D03*
%TD*%
D15*
%TO.P,J1,6,Pin_6*%
%TO.N,Net-(J1-Pad6)*%
X120345000Y-120500000D03*
%TO.P,J1,5,Pin_5*%
%TO.N,IO4*%
X122885000Y-120500000D03*
%TO.P,J1,4,Pin_4*%
%TO.N,IO3*%
X125425000Y-120500000D03*
%TO.P,J1,3,Pin_3*%
%TO.N,IO2*%
X127965000Y-120500000D03*
%TO.P,J1,2,Pin_2*%
%TO.N,IO1*%
X130505000Y-120500000D03*
D16*
%TO.P,J1,1,Pin_1*%
%TO.N,GND*%
X133045000Y-120500000D03*
%TD*%
D17*
%TO.P,U2,21,GND*%
%TO.N,GND*%
X122700000Y-112700000D03*
%TD*%
D16*
%TO.P,J3,1,Pin_1*%
%TO.N,GND*%
X134000000Y-125800000D03*
D15*
%TO.P,J3,2,Pin_2*%
%TO.N,DC*%
X134000000Y-123260000D03*
%TD*%
D18*
%TO.P,J2,S1,SHIELD*%
%TO.N,GND*%
X130455000Y-113990000D03*
X130455000Y-108210000D03*
D19*
X129965000Y-115420000D03*
X129965000Y-106780000D03*
D20*
X134135000Y-115420000D03*
X134135000Y-106780000D03*
%TD*%
D21*
%TO.N,GND*%
X124225500Y-99600000D03*
%TO.N,+3V3*%
X121560000Y-100100000D03*
%TO.N,GND*%
X122300000Y-104600000D03*
X133700000Y-118500000D03*
X121520001Y-124179999D03*
%TO.N,IO5*%
X119800000Y-113925010D03*
%TO.N,O*%
X121110205Y-114651712D03*
%TO.N,I*%
X119837340Y-109937340D03*
%TO.N,DC*%
X121251168Y-125928298D03*
X127890000Y-104110000D03*
%TO.N,Net-(Q1-Pad5)*%
X122447374Y-100763201D03*
%TO.N,Net-(Q1-Pad4)*%
X122600011Y-108003478D03*
%TO.N,ADCON*%
X123000000Y-103700000D03*
%TO.N,ADC*%
X123575645Y-107774980D03*
%TO.N,CHARGER*%
X121200000Y-109850002D03*
%TO.N,USB*%
X121112119Y-110913201D03*
%TO.N,Net-(C2-Pad1)*%
X124624012Y-110903845D03*
X124284095Y-115314543D03*
%TO.N,R*%
X120922814Y-101087818D03*
%TO.N,G*%
X120940798Y-103237244D03*
%TO.N,B*%
X120760687Y-102141490D03*
%TO.N,Net-(C4-Pad1)*%
X125818304Y-114598388D03*
X125577979Y-110605596D03*
X131300000Y-115800000D03*
%TO.N,Net-(C3-Pad1)*%
X127077230Y-110545028D03*
X132400000Y-115804998D03*
X126882276Y-114597468D03*
X127077238Y-112187497D03*
%TD*%
D22*
%TO.N,GND*%
X133445000Y-99635000D02*
G75*
G03*
X132213616Y-99124944I-1231383J-1231382D01*
G01*
X125775056Y-99124944D02*
X132213616Y-99124944D01*
X133445000Y-99635000D02*
X133705000Y-99895000D01*
X133705000Y-99895000D02*
X135200000Y-99895000D01*
D23*
%TO.N,+3V3*%
X121728994Y-100030001D02*
G75*
G03*
X121560001Y-100100001I-5J-238980D01*
G01*
X121728994Y-100030000D02*
X122427660Y-100030000D01*
X122995000Y-100265000D02*
G75*
G03*
X122427660Y-100030000I-567338J-567335D01*
G01*
X123751126Y-100709999D02*
G75*
G02*
X123220001Y-100489999I0J751124D01*
G01*
X133690000Y-101040000D02*
G75*
G03*
X132893310Y-100710000I-796690J-796690D01*
G01*
X133991776Y-101165000D02*
G75*
G02*
X133690000Y-101040000I3J426781D01*
G01*
X122995000Y-100265000D02*
X123220000Y-100490000D01*
X123751126Y-100710000D02*
X132893310Y-100710000D01*
X133991776Y-101165000D02*
X135200000Y-101165000D01*
%TO.N,R*%
X131327520Y-101657522D02*
X122052478Y-101657522D01*
X121096567Y-101261570D02*
G75*
G03*
X122052478Y-101657522I955907J955899D01*
G01*
X121096567Y-101261570D02*
X120922814Y-101087818D01*
%TO.N,IO5*%
X119800000Y-114600000D02*
X119800000Y-113925010D01*
X118200000Y-115135000D02*
X119265000Y-115135000D01*
X119800000Y-114600000D02*
G75*
G02*
X119265000Y-115135000I-535000J0D01*
G01*
%TO.N,Net-(Q1-Pad4)*%
X119524511Y-115909511D02*
G75*
G02*
X120053534Y-115380488I529022J1D01*
G01*
X119029022Y-116405000D02*
G75*
G03*
X119524511Y-115909511I1J495488D01*
G01*
X122856706Y-108312604D02*
X122990836Y-108544925D01*
X121369512Y-115380488D02*
G75*
G03*
X123200001Y-113549999I-1J1830490D01*
G01*
X122600011Y-108003478D02*
X122693399Y-108099779D01*
X123197942Y-109317851D02*
X123200001Y-109451981D01*
X122990836Y-108544925D02*
X123093495Y-108792765D01*
X122693399Y-108099779D02*
X122856706Y-108312604D01*
X123093495Y-108792765D02*
X123162926Y-109051885D01*
X123200001Y-109451981D02*
X123200001Y-113549999D01*
X123162926Y-109051885D02*
X123197942Y-109317851D01*
X121369512Y-115380488D02*
X120053534Y-115380488D01*
X119029022Y-116405000D02*
X118200000Y-116405000D01*
%TO.N,GND*%
X124225500Y-99600000D02*
X124700556Y-99124944D01*
D22*
X125775056Y-99124944D02*
X121387346Y-99124944D01*
D23*
X124700556Y-99124944D02*
X125775056Y-99124944D01*
D22*
X121024944Y-99275056D02*
G75*
G02*
X121387346Y-99124944I362399J-362395D01*
G01*
X120405000Y-99895000D02*
X118200000Y-99895000D01*
X121024944Y-99275056D02*
X120405000Y-99895000D01*
D23*
X135200000Y-106245000D02*
X134670000Y-106245000D01*
X134870000Y-107515000D02*
X134135000Y-106780000D01*
X125800000Y-116000000D02*
X127500000Y-116000000D01*
X132605000Y-117405000D02*
X133700000Y-118500000D01*
X122300000Y-104600000D02*
X121836193Y-105063807D01*
X127500000Y-116000000D02*
X128945000Y-114555000D01*
X135120000Y-116405000D02*
X134135000Y-115420000D01*
X135200000Y-116405000D02*
X135305000Y-116405000D01*
X135200000Y-116405000D02*
X135120000Y-116405000D01*
X132415000Y-117405000D02*
X132605000Y-117405000D01*
X122525001Y-109325001D02*
X122525001Y-112525001D01*
X135750000Y-116850000D02*
X135750000Y-125250000D01*
X125009096Y-113290904D02*
X125009096Y-115209096D01*
X121836193Y-108548518D02*
X122375238Y-109087563D01*
X128945000Y-114555000D02*
X128945000Y-114400000D01*
X122375238Y-109087563D02*
X122375238Y-109175238D01*
X135250000Y-125750000D02*
X134050000Y-125750000D01*
X134670000Y-106245000D02*
X134135000Y-106780000D01*
X128945000Y-114400000D02*
X129965000Y-115420000D01*
X135200000Y-115135000D02*
X134420000Y-115135000D01*
X134420000Y-115135000D02*
X134135000Y-115420000D01*
X121836193Y-105063807D02*
X121836193Y-108548518D01*
X135200000Y-107515000D02*
X134870000Y-107515000D01*
X122375238Y-109175238D02*
X122525001Y-109325001D01*
X122525001Y-112525001D02*
X122700000Y-112700000D01*
X134000000Y-125800000D02*
G75*
G02*
X134050000Y-125750000I50001J-1D01*
G01*
X135250000Y-125750000D02*
G75*
G03*
X135750000Y-125250000I-1J500001D01*
G01*
X125800000Y-116000000D02*
G75*
G02*
X125009096Y-115209096I-1J790903D01*
G01*
X135750000Y-116850000D02*
G75*
G03*
X135305000Y-116405000I-444998J2D01*
G01*
%TO.N,IO4*%
X133750000Y-117500000D02*
X134500000Y-117500000D01*
X135172811Y-118172811D02*
X135172811Y-120657191D01*
X135200000Y-113865000D02*
X133950000Y-113865000D01*
X133184999Y-114630001D02*
X133184999Y-116080489D01*
X122885000Y-121035000D02*
X122885000Y-120500000D01*
X133189511Y-116085001D02*
X133189511Y-116939511D01*
X134080002Y-121750000D02*
X123600000Y-121750000D01*
X133189511Y-116085001D02*
G75*
G03*
X133184999Y-116080489I-4514J-2D01*
G01*
X122885000Y-121035000D02*
G75*
G03*
X123600000Y-121750000I715001J1D01*
G01*
X134080002Y-121750000D02*
G75*
G03*
X135172811Y-120657191I1J1092808D01*
G01*
X133750000Y-117500000D02*
G75*
G02*
X133189511Y-116939511I-1J560488D01*
G01*
X135172811Y-118172811D02*
G75*
G03*
X134500000Y-117500000I-672812J-1D01*
G01*
X133184999Y-114630001D02*
G75*
G02*
X133950000Y-113865000I765002J-1D01*
G01*
%TO.N,IO3*%
X120985000Y-117405000D02*
X120985000Y-118655000D01*
X121654999Y-119324999D02*
X124249999Y-119324999D01*
X121654999Y-119324999D02*
G75*
G02*
X120985000Y-118655000I-1J669998D01*
G01*
X125425000Y-120500000D02*
G75*
G03*
X124249999Y-119324999I-1175002J-1D01*
G01*
%TO.N,IO2*%
X122255000Y-117405000D02*
X122255000Y-118455000D01*
X122530001Y-118730001D02*
X126195001Y-118730001D01*
X127965000Y-120500000D02*
G75*
G03*
X126195001Y-118730001I-1770000J-1D01*
G01*
X122530001Y-118730001D02*
G75*
G02*
X122255000Y-118455000I0J275001D01*
G01*
%TO.N,IO1*%
X131145000Y-117405000D02*
X131145000Y-119860000D01*
X130505000Y-120500000D02*
G75*
G03*
X131145000Y-119860000I-1J640001D01*
G01*
%TO.N,O*%
X120525001Y-113317459D02*
X120525001Y-114068293D01*
X122000000Y-109600000D02*
X122000000Y-110500000D01*
X120915704Y-114622101D02*
X121080594Y-114622101D01*
X121080594Y-114622101D02*
X121110205Y-114651712D01*
X120200000Y-104653137D02*
X120200000Y-108400000D01*
X118200000Y-103705000D02*
X119251863Y-103705000D01*
X120800000Y-109000000D02*
X121400000Y-109000000D01*
X121575736Y-111524264D02*
X121050000Y-112050000D01*
X120200000Y-104653137D02*
G75*
G03*
X119251863Y-103705000I-948137J0D01*
G01*
X121575736Y-111524264D02*
G75*
G03*
X122000000Y-110500000I-1024267J1024265D01*
G01*
X120915704Y-114622101D02*
G75*
G02*
X120525001Y-114068293I199924J555765D01*
G01*
X122000000Y-109600000D02*
G75*
G03*
X121400000Y-109000000I-600000J0D01*
G01*
X120525001Y-113317459D02*
G75*
G02*
X121050000Y-112050000I1792464J-3D01*
G01*
X120800000Y-109000000D02*
G75*
G02*
X120200000Y-108400000I0J600000D01*
G01*
%TO.N,I*%
X119749989Y-105274989D02*
X119749989Y-109726457D01*
X118200000Y-104975000D02*
X119450000Y-104975000D01*
X119749989Y-105274989D02*
G75*
G03*
X119450000Y-104975000I-299990J-1D01*
G01*
X119837340Y-109937340D02*
G75*
G02*
X119749989Y-109726457I210885J210884D01*
G01*
D22*
%TO.N,DC*%
X120084999Y-116194242D02*
X120084999Y-118235175D01*
X121664836Y-115954999D02*
X120324242Y-115954999D01*
X119675000Y-119225000D02*
X119375000Y-119525000D01*
X124428685Y-104921998D02*
X124428685Y-109363511D01*
X123774512Y-110017684D02*
X123774512Y-113845323D01*
X118800000Y-120913172D02*
X118800000Y-123477130D01*
X121251168Y-125928298D02*
X130550381Y-125928298D01*
X134000000Y-123260000D02*
X131884180Y-125375820D01*
X124428685Y-109363511D02*
X123774512Y-110017684D01*
X127890000Y-104110000D02*
X125240683Y-104110000D01*
X118800000Y-120913172D02*
G75*
G02*
X119375000Y-119525000I1963161J4D01*
G01*
X121251168Y-125928298D02*
G75*
G02*
X118800000Y-123477130I-2J2451166D01*
G01*
X124428685Y-104921998D02*
G75*
G02*
X125240683Y-104110000I811999J-1D01*
G01*
X120084999Y-116194242D02*
G75*
G02*
X120324242Y-115954999I239244J-1D01*
G01*
X119675000Y-119225000D02*
G75*
G03*
X120084999Y-118235175I-989824J989825D01*
G01*
X130550381Y-125928298D02*
G75*
G03*
X131884180Y-125375820I-1J1886278D01*
G01*
X121664836Y-115954999D02*
G75*
G03*
X123774512Y-113845323I-1J2109677D01*
G01*
D23*
%TO.N,Net-(Q1-Pad5)*%
X122847373Y-101163200D02*
X131221208Y-101163200D01*
X134291604Y-102435000D02*
X135200000Y-102435000D01*
X134291604Y-102434999D02*
G75*
G02*
X133000001Y-101899999I0J1826603D01*
G01*
X122847373Y-101163200D02*
G75*
G02*
X122447374Y-100763201I0J399999D01*
G01*
X133000000Y-101900000D02*
G75*
G03*
X131221208Y-101163200I-1778792J-1778792D01*
G01*
%TO.N,ADCON*%
X122000000Y-103700000D02*
X121556286Y-104143714D01*
X118200000Y-102435000D02*
X119450000Y-102435000D01*
X123000000Y-103700000D02*
X122000000Y-103700000D01*
X120719981Y-104143714D02*
X120009041Y-103432774D01*
X121556286Y-104143714D02*
X120719981Y-104143714D01*
X120009041Y-103432774D02*
X120009041Y-102994041D01*
X120009041Y-102994041D02*
G75*
G03*
X119450000Y-102435000I-559040J1D01*
G01*
%TO.N,ADC*%
X123575645Y-107774980D02*
X123575645Y-104975645D01*
X135200000Y-112595000D02*
X133813644Y-112595000D01*
X131657952Y-103557952D02*
X131657952Y-110439308D01*
X125349287Y-103202003D02*
X131302003Y-103202003D01*
X125349287Y-103202003D02*
G75*
G03*
X123575645Y-104975645I1J-1773643D01*
G01*
X131657952Y-103557952D02*
G75*
G03*
X131302003Y-103202003I-355949J0D01*
G01*
X131657952Y-110439308D02*
G75*
G03*
X133813644Y-112595000I2155693J1D01*
G01*
%TO.N,CHARGER*%
X120854618Y-109993064D02*
X120123841Y-110723841D01*
X118672515Y-111325000D02*
X118200000Y-111325000D01*
X118672515Y-111325000D02*
G75*
G03*
X120123841Y-110723841I3J2052477D01*
G01*
X120854618Y-109993064D02*
G75*
G02*
X121200000Y-109850002I345385J-345388D01*
G01*
%TO.N,USB*%
X118606767Y-112595000D02*
X118200000Y-112595000D01*
X121112119Y-110913201D02*
X120012660Y-112012660D01*
X118606767Y-112595000D02*
G75*
G03*
X120012660Y-112012660I4J1988223D01*
G01*
%TO.N,Net-(C2-Pad1)*%
X124517912Y-115080726D02*
X124517912Y-111009945D01*
X124624012Y-110903845D02*
G75*
G03*
X124517912Y-111009945I0J-106100D01*
G01*
X124517912Y-115080726D02*
G75*
G02*
X124284095Y-115314543I-233816J-1D01*
G01*
%TO.N,R*%
X135200000Y-108785000D02*
X133950000Y-108785000D01*
X133184999Y-108019999D02*
X133184999Y-103515001D01*
X133184999Y-108019999D02*
G75*
G03*
X133950000Y-108785000I765002J1D01*
G01*
X131327520Y-101657522D02*
G75*
G02*
X133184999Y-103515001I0J-1857479D01*
G01*
%TO.N,G*%
X120994793Y-103183249D02*
X120940798Y-103237244D01*
X135200000Y-111325000D02*
X133950000Y-111325000D01*
X132284977Y-109659977D02*
X132284977Y-103565023D01*
X120994793Y-103015368D02*
X120994793Y-103183249D01*
X131277498Y-102557544D02*
X121643646Y-102557544D01*
X132284977Y-109659977D02*
G75*
G03*
X133950000Y-111325000I1665023J0D01*
G01*
X120994793Y-103015368D02*
G75*
G02*
X121643646Y-102557545I651084J-234045D01*
G01*
X131277498Y-102557544D02*
G75*
G02*
X132284977Y-103565023I-1J-1007480D01*
G01*
%TO.N,B*%
X131307533Y-102107533D02*
X120793901Y-102107533D01*
X132734988Y-108839988D02*
X132734988Y-103534988D01*
X120769492Y-102114879D02*
X120760687Y-102123684D01*
X120760687Y-102123684D02*
X120760687Y-102141490D01*
X135200000Y-110055000D02*
X133950000Y-110055000D01*
X131307533Y-102107533D02*
G75*
G02*
X132734988Y-103534988I0J-1427455D01*
G01*
X120769492Y-102114879D02*
G75*
G02*
X120793901Y-102107533I31722J-61180D01*
G01*
X132734988Y-108839988D02*
G75*
G03*
X133950000Y-110055000I1215013J1D01*
G01*
%TO.N,Net-(C4-Pad1)*%
X125818304Y-114598388D02*
X125818304Y-110958689D01*
X125818304Y-114968304D02*
X125818304Y-114598388D01*
X125637890Y-110665507D02*
X125577979Y-110605596D01*
X128651373Y-113901373D02*
X127422886Y-115129860D01*
X125641454Y-110665507D02*
X125637890Y-110665507D01*
X131300000Y-115800000D02*
X131300000Y-113909998D01*
X130755001Y-113364999D02*
X129946294Y-113364999D01*
X126650000Y-115450000D02*
X126300000Y-115450000D01*
X126650000Y-115449999D02*
G75*
G03*
X127422886Y-115129860I-1J1093028D01*
G01*
X130755001Y-113364999D02*
G75*
G02*
X131300000Y-113909998I-2J-545001D01*
G01*
X128651373Y-113901373D02*
G75*
G02*
X129946294Y-113364999I1294921J-1294921D01*
G01*
X125641454Y-110665508D02*
G75*
G02*
X125818304Y-110958689I-159172J-295943D01*
G01*
X125818304Y-114968304D02*
G75*
G03*
X126300000Y-115450000I481694J-2D01*
G01*
%TO.N,Net-(C3-Pad1)*%
X127077230Y-110545028D02*
X127077230Y-112187489D01*
X127077230Y-112187489D02*
X127077238Y-112187497D01*
X132400000Y-115804998D02*
X132400000Y-114373587D01*
X127939872Y-113539872D02*
X126882276Y-114597468D01*
X126882276Y-114597468D02*
X126882276Y-112658176D01*
X130941401Y-112914988D02*
X129448475Y-112914988D01*
X127939872Y-113539872D02*
G75*
G02*
X129448475Y-112914988I1508603J-1508602D01*
G01*
X127077238Y-112187497D02*
G75*
G03*
X126882276Y-112658176I470681J-470680D01*
G01*
X130941401Y-112914988D02*
G75*
G02*
X132400000Y-114373587I-1J-1458600D01*
G01*
%TD*%
%TA.AperFunction,Conductor*%
%TO.N,GND*%
G36*
X119502531Y-117014414D02*
G01*
X119559367Y-117056961D01*
X119584178Y-117123481D01*
X119584499Y-117132470D01*
X119584499Y-118186434D01*
X119582999Y-118205818D01*
X119579390Y-118228998D01*
X119581173Y-118242634D01*
X119581849Y-118268853D01*
X119574205Y-118365975D01*
X119571112Y-118385502D01*
X119554071Y-118456486D01*
X119542798Y-118503440D01*
X119536690Y-118522239D01*
X119490269Y-118634308D01*
X119481303Y-118651906D01*
X119421400Y-118749658D01*
X119417924Y-118755330D01*
X119406308Y-118771318D01*
X119347539Y-118840129D01*
X119335379Y-118851397D01*
X119335523Y-118851545D01*
X119329097Y-118857816D01*
X119321848Y-118863112D01*
X119302823Y-118887862D01*
X119292030Y-118900156D01*
X119058273Y-119133913D01*
X119042256Y-119147461D01*
X119030267Y-119155997D01*
X119030263Y-119156000D01*
X119026297Y-119158824D01*
X119017454Y-119167453D01*
X119012732Y-119173753D01*
X119011908Y-119174853D01*
X119005035Y-119183246D01*
X118833961Y-119374676D01*
X118831926Y-119377544D01*
X118816775Y-119398897D01*
X118673834Y-119600353D01*
X118539982Y-119842540D01*
X118538630Y-119845803D01*
X118538628Y-119845808D01*
X118459428Y-120037014D01*
X118434088Y-120098190D01*
X118433109Y-120101587D01*
X118433109Y-120101588D01*
X118422681Y-120137784D01*
X118357484Y-120364090D01*
X118311133Y-120636894D01*
X118297982Y-120871079D01*
X118297608Y-120877734D01*
X118296062Y-120891557D01*
X118294504Y-120900819D01*
X118294353Y-120913173D01*
X118298227Y-120940224D01*
X118299500Y-120958086D01*
X118299500Y-123424554D01*
X118297754Y-123445459D01*
X118294504Y-123464776D01*
X118294353Y-123477130D01*
X118295042Y-123481944D01*
X118295359Y-123486801D01*
X118295330Y-123486803D01*
X118295473Y-123488240D01*
X118313437Y-123808132D01*
X118368970Y-124134973D01*
X118460747Y-124453540D01*
X118462101Y-124456808D01*
X118462101Y-124456809D01*
X118482151Y-124505214D01*
X118587616Y-124759829D01*
X118747980Y-125049987D01*
X118850667Y-125194710D01*
X118935392Y-125314118D01*
X118939824Y-125320365D01*
X119160734Y-125567564D01*
X119407933Y-125788474D01*
X119678311Y-125980318D01*
X119681410Y-125982031D01*
X119681412Y-125982032D01*
X119836142Y-126067548D01*
X119968469Y-126140682D01*
X120274758Y-126267551D01*
X120593325Y-126359328D01*
X120652354Y-126369358D01*
X120759746Y-126387605D01*
X120823438Y-126418630D01*
X120865962Y-126457323D01*
X120871578Y-126462433D01*
X120878251Y-126466056D01*
X121003267Y-126533935D01*
X121003269Y-126533936D01*
X121009944Y-126537560D01*
X121017293Y-126539488D01*
X121154887Y-126575585D01*
X121154889Y-126575585D01*
X121162237Y-126577513D01*
X121245548Y-126578822D01*
X121312066Y-126579867D01*
X121312069Y-126579867D01*
X121319663Y-126579986D01*
X121473136Y-126544836D01*
X121613793Y-126474093D01*
X121631480Y-126458987D01*
X121696270Y-126429956D01*
X121713310Y-126428798D01*
X130497805Y-126428798D01*
X130518710Y-126430544D01*
X130538027Y-126433794D01*
X130544147Y-126433869D01*
X130545517Y-126433886D01*
X130545523Y-126433886D01*
X130550381Y-126433945D01*
X130560932Y-126432434D01*
X130571713Y-126431361D01*
X130818037Y-126417528D01*
X131082326Y-126372623D01*
X131339926Y-126298410D01*
X131587596Y-126195821D01*
X131597451Y-126190374D01*
X131819127Y-126067859D01*
X131819132Y-126067856D01*
X131822224Y-126066147D01*
X132040857Y-125911019D01*
X132213472Y-125756760D01*
X132224346Y-125748073D01*
X132232884Y-125741995D01*
X132241726Y-125733366D01*
X132244643Y-125729474D01*
X132244650Y-125729466D01*
X132258119Y-125711494D01*
X132269850Y-125697964D01*
X132445972Y-125521842D01*
X132508284Y-125487816D01*
X132579099Y-125492881D01*
X132616679Y-125521013D01*
X132618514Y-125518896D01*
X132647865Y-125544329D01*
X132655548Y-125546000D01*
X135339884Y-125546000D01*
X135355123Y-125541525D01*
X135356328Y-125540135D01*
X135357999Y-125532452D01*
X135357999Y-124905331D01*
X135357629Y-124898510D01*
X135352105Y-124847648D01*
X135348479Y-124832396D01*
X135303324Y-124711946D01*
X135294786Y-124696351D01*
X135218285Y-124594276D01*
X135205724Y-124581715D01*
X135103649Y-124505214D01*
X135088054Y-124496676D01*
X134967606Y-124451522D01*
X134952351Y-124447895D01*
X134901486Y-124442369D01*
X134894672Y-124442000D01*
X134624662Y-124442000D01*
X134556541Y-124421998D01*
X134510048Y-124368342D01*
X134499944Y-124298068D01*
X134529438Y-124233488D01*
X134563096Y-124206065D01*
X134620964Y-124173658D01*
X134620965Y-124173657D01*
X134626001Y-124170837D01*
X134781505Y-124041505D01*
X134910837Y-123886001D01*
X135009664Y-123709531D01*
X135046479Y-123601080D01*
X135072820Y-123523481D01*
X135072820Y-123523479D01*
X135074678Y-123518007D01*
X135075507Y-123512291D01*
X135075508Y-123512286D01*
X135103167Y-123321516D01*
X135103700Y-123317842D01*
X135105215Y-123260000D01*
X135086708Y-123058591D01*
X135031807Y-122863926D01*
X134942351Y-122682527D01*
X134924079Y-122658057D01*
X134824788Y-122525091D01*
X134824787Y-122525090D01*
X134821335Y-122520467D01*
X134798350Y-122499220D01*
X134677053Y-122387094D01*
X134677051Y-122387092D01*
X134672812Y-122383174D01*
X134667934Y-122380096D01*
X134667922Y-122380087D01*
X134509446Y-122280096D01*
X134462508Y-122226830D01*
X134451820Y-122156642D01*
X134480774Y-122091818D01*
X134532650Y-122055479D01*
X134687301Y-121997797D01*
X134687303Y-121997796D01*
X134691518Y-121996224D01*
X134715722Y-121983008D01*
X134871904Y-121897726D01*
X134875858Y-121895567D01*
X135043997Y-121769700D01*
X135192511Y-121621186D01*
X135318378Y-121453047D01*
X135391083Y-121319898D01*
X135416880Y-121272654D01*
X135416881Y-121272652D01*
X135419035Y-121268707D01*
X135438030Y-121217780D01*
X135490865Y-121076126D01*
X135490867Y-121076120D01*
X135492434Y-121071918D01*
X135494354Y-121063095D01*
X135505726Y-121010817D01*
X135537079Y-120866687D01*
X135545019Y-120755671D01*
X135547028Y-120727581D01*
X135547663Y-120723131D01*
X135547834Y-120722643D01*
X135548311Y-120717136D01*
X135548311Y-120714136D01*
X135548632Y-120705147D01*
X135550911Y-120673282D01*
X135551440Y-120668669D01*
X135551440Y-120666988D01*
X135552992Y-120657191D01*
X135549862Y-120637428D01*
X135548311Y-120617718D01*
X135548311Y-118212283D01*
X135549862Y-118192572D01*
X135550834Y-118186434D01*
X135552992Y-118172810D01*
X135551480Y-118163260D01*
X135551442Y-118162825D01*
X135551442Y-118161696D01*
X135551099Y-118158906D01*
X135536328Y-117990078D01*
X135488852Y-117812898D01*
X135411331Y-117646654D01*
X135351545Y-117561270D01*
X135328857Y-117493996D01*
X135346142Y-117425136D01*
X135397912Y-117376552D01*
X135454758Y-117363000D01*
X135824000Y-117362999D01*
X135892120Y-117383001D01*
X135938613Y-117436656D01*
X135950000Y-117488999D01*
X135950000Y-126562966D01*
X135947579Y-126587547D01*
X135945102Y-126600000D01*
X135947523Y-126612171D01*
X135947523Y-126618963D01*
X135946916Y-126631313D01*
X135936806Y-126733964D01*
X135931988Y-126758189D01*
X135896512Y-126875139D01*
X135887062Y-126897954D01*
X135829457Y-127005724D01*
X135829452Y-127005734D01*
X135815729Y-127026271D01*
X135738202Y-127120737D01*
X135720737Y-127138202D01*
X135626271Y-127215729D01*
X135605736Y-127229451D01*
X135497954Y-127287062D01*
X135475139Y-127296512D01*
X135358189Y-127331988D01*
X135333966Y-127336806D01*
X135249731Y-127345102D01*
X135231313Y-127346916D01*
X135218963Y-127347523D01*
X135212171Y-127347523D01*
X135200000Y-127345102D01*
X135187829Y-127347523D01*
X135187547Y-127347579D01*
X135162966Y-127350000D01*
X135125098Y-127350000D01*
X135056977Y-127329998D01*
X135010484Y-127276342D01*
X135000380Y-127206068D01*
X135029874Y-127141488D01*
X135080868Y-127106018D01*
X135088054Y-127103324D01*
X135103649Y-127094786D01*
X135205724Y-127018285D01*
X135218285Y-127005724D01*
X135294786Y-126903649D01*
X135303324Y-126888054D01*
X135348478Y-126767606D01*
X135352105Y-126752351D01*
X135357631Y-126701486D01*
X135358000Y-126694672D01*
X135358000Y-126072115D01*
X135353525Y-126056876D01*
X135352135Y-126055671D01*
X135344452Y-126054000D01*
X132660116Y-126054000D01*
X132644877Y-126058475D01*
X132643672Y-126059865D01*
X132642001Y-126067548D01*
X132642001Y-126694669D01*
X132642371Y-126701490D01*
X132647895Y-126752352D01*
X132651521Y-126767604D01*
X132696676Y-126888054D01*
X132705214Y-126903649D01*
X132781715Y-127005724D01*
X132794276Y-127018285D01*
X132896351Y-127094786D01*
X132911946Y-127103324D01*
X132919132Y-127106018D01*
X132975896Y-127148660D01*
X133000596Y-127215222D01*
X132985388Y-127284570D01*
X132935102Y-127334688D01*
X132874902Y-127350000D01*
X118237034Y-127350000D01*
X118212453Y-127347579D01*
X118212171Y-127347523D01*
X118200000Y-127345102D01*
X118187829Y-127347523D01*
X118181037Y-127347523D01*
X118168687Y-127346916D01*
X118150269Y-127345102D01*
X118066034Y-127336806D01*
X118041811Y-127331988D01*
X117924861Y-127296512D01*
X117902046Y-127287062D01*
X117794264Y-127229451D01*
X117773729Y-127215729D01*
X117679263Y-127138202D01*
X117661798Y-127120737D01*
X117584271Y-127026271D01*
X117570548Y-127005734D01*
X117570543Y-127005724D01*
X117512938Y-126897954D01*
X117503488Y-126875139D01*
X117468012Y-126758189D01*
X117463194Y-126733964D01*
X117453084Y-126631313D01*
X117452477Y-126618963D01*
X117452477Y-126612171D01*
X117454898Y-126600000D01*
X117452421Y-126587547D01*
X117450000Y-126562966D01*
X117450000Y-117231500D01*
X117470002Y-117163379D01*
X117523658Y-117116886D01*
X117576000Y-117105500D01*
X119224674Y-117105500D01*
X119297740Y-117090966D01*
X119328643Y-117070318D01*
X119380601Y-117035601D01*
X119381414Y-117036817D01*
X119431716Y-117009349D01*
X119502531Y-117014414D01*
G37*
%TD.AperFunction*%
%TA.AperFunction,Conductor*%
G36*
X121373524Y-119661960D02*
G01*
X121414757Y-119673008D01*
X121472757Y-119688549D01*
X121565134Y-119696631D01*
X121579836Y-119697917D01*
X121586350Y-119698899D01*
X121589547Y-119700022D01*
X121595054Y-119700499D01*
X121603843Y-119700499D01*
X121614822Y-119700978D01*
X121627538Y-119702090D01*
X121640928Y-119703262D01*
X121643917Y-119703629D01*
X121645126Y-119703629D01*
X121645309Y-119703645D01*
X121655000Y-119705180D01*
X121674763Y-119702050D01*
X121694473Y-119700499D01*
X121854952Y-119700499D01*
X121923073Y-119720501D01*
X121969566Y-119774157D01*
X121979670Y-119844431D01*
X121960827Y-119894584D01*
X121958089Y-119898057D01*
X121955401Y-119903166D01*
X121955399Y-119903169D01*
X121940941Y-119930650D01*
X121863914Y-120077053D01*
X121803937Y-120270213D01*
X121780164Y-120471069D01*
X121793392Y-120672894D01*
X121804628Y-120717136D01*
X121841470Y-120862201D01*
X121843178Y-120868928D01*
X121927856Y-121052607D01*
X121948555Y-121081895D01*
X122014906Y-121175780D01*
X122044588Y-121217780D01*
X122189466Y-121358913D01*
X122357637Y-121471282D01*
X122362940Y-121473560D01*
X122362943Y-121473562D01*
X122451291Y-121511519D01*
X122543470Y-121551122D01*
X122598973Y-121563681D01*
X122660999Y-121598224D01*
X122674378Y-121614304D01*
X122758275Y-121734122D01*
X122758280Y-121734128D01*
X122761438Y-121738638D01*
X122896362Y-121873562D01*
X122900870Y-121876719D01*
X122900873Y-121876721D01*
X123048158Y-121979851D01*
X123052667Y-121983008D01*
X123057649Y-121985331D01*
X123057654Y-121985334D01*
X123208081Y-122055479D01*
X123225602Y-122063649D01*
X123230910Y-122065071D01*
X123230912Y-122065072D01*
X123247897Y-122069623D01*
X123409913Y-122113035D01*
X123471318Y-122118407D01*
X123526173Y-122123207D01*
X123531785Y-122124053D01*
X123534548Y-122125023D01*
X123540055Y-122125500D01*
X123546880Y-122125500D01*
X123557863Y-122125980D01*
X123588140Y-122128629D01*
X123588151Y-122128629D01*
X123592734Y-122129030D01*
X123599999Y-122130181D01*
X123609792Y-122128630D01*
X123609793Y-122128630D01*
X123619761Y-122127051D01*
X123639472Y-122125500D01*
X133296163Y-122125500D01*
X133364284Y-122145502D01*
X133410777Y-122199158D01*
X133420881Y-122269432D01*
X133391387Y-122334012D01*
X133360588Y-122359783D01*
X133350371Y-122365862D01*
X133198305Y-122499220D01*
X133073089Y-122658057D01*
X132978914Y-122837053D01*
X132918937Y-123030213D01*
X132895164Y-123231069D01*
X132908392Y-123432894D01*
X132915272Y-123459982D01*
X132933469Y-123531635D01*
X132930851Y-123602583D01*
X132900441Y-123651745D01*
X131564738Y-124987448D01*
X131549971Y-125000094D01*
X131538279Y-125008635D01*
X131538276Y-125008638D01*
X131531028Y-125013933D01*
X131525554Y-125021054D01*
X131521293Y-125026596D01*
X131504477Y-125044535D01*
X131400194Y-125135989D01*
X131387118Y-125146022D01*
X131346002Y-125173495D01*
X131278249Y-125194710D01*
X131209782Y-125175927D01*
X131162339Y-125123110D01*
X131150000Y-125068730D01*
X131150000Y-123545000D01*
X122250000Y-123545000D01*
X122250000Y-125301798D01*
X122229998Y-125369919D01*
X122176342Y-125416412D01*
X122124000Y-125427798D01*
X121715312Y-125427798D01*
X121647191Y-125407796D01*
X121631499Y-125395879D01*
X121625144Y-125390217D01*
X121608022Y-125381151D01*
X121492711Y-125320097D01*
X121492712Y-125320097D01*
X121485999Y-125316543D01*
X121469290Y-125312346D01*
X121340666Y-125280038D01*
X121340664Y-125280038D01*
X121333296Y-125278187D01*
X121325698Y-125278147D01*
X121325696Y-125278147D01*
X121258487Y-125277795D01*
X121175852Y-125277363D01*
X121168473Y-125279135D01*
X121168469Y-125279135D01*
X121030135Y-125312346D01*
X121030131Y-125312347D01*
X121022756Y-125314118D01*
X120918976Y-125367682D01*
X120849271Y-125381151D01*
X120836616Y-125379297D01*
X120754389Y-125362940D01*
X120738479Y-125358677D01*
X120512498Y-125281967D01*
X120497273Y-125275661D01*
X120283241Y-125170112D01*
X120268967Y-125161871D01*
X120070546Y-125029290D01*
X120057470Y-125019257D01*
X119878046Y-124861906D01*
X119866392Y-124850252D01*
X119709041Y-124670828D01*
X119699008Y-124657752D01*
X119566427Y-124459331D01*
X119558186Y-124445057D01*
X119452637Y-124231025D01*
X119446330Y-124215798D01*
X119443026Y-124206065D01*
X119369621Y-123989819D01*
X119365356Y-123973902D01*
X119318799Y-123739842D01*
X119316648Y-123723502D01*
X119304072Y-123531635D01*
X119303208Y-123518454D01*
X119304171Y-123496828D01*
X119304228Y-123492177D01*
X119305609Y-123483307D01*
X119303822Y-123469637D01*
X119301564Y-123452374D01*
X119300500Y-123436037D01*
X119300500Y-121317613D01*
X119320502Y-121249492D01*
X119374158Y-121202999D01*
X119444432Y-121192895D01*
X119509012Y-121222389D01*
X119514421Y-121227359D01*
X119556866Y-121268707D01*
X119649466Y-121358913D01*
X119817637Y-121471282D01*
X119822940Y-121473560D01*
X119822943Y-121473562D01*
X119911291Y-121511519D01*
X120003470Y-121551122D01*
X120200740Y-121595760D01*
X120206509Y-121595987D01*
X120206512Y-121595987D01*
X120282683Y-121598979D01*
X120402842Y-121603700D01*
X120489132Y-121591189D01*
X120597286Y-121575508D01*
X120597291Y-121575507D01*
X120603007Y-121574678D01*
X120608479Y-121572820D01*
X120608481Y-121572820D01*
X120789067Y-121511519D01*
X120789069Y-121511518D01*
X120794531Y-121509664D01*
X120971001Y-121410837D01*
X121033433Y-121358913D01*
X121122073Y-121285191D01*
X121126505Y-121281505D01*
X121255837Y-121126001D01*
X121354664Y-120949531D01*
X121357824Y-120940224D01*
X121417820Y-120763481D01*
X121417820Y-120763479D01*
X121419678Y-120758007D01*
X121420507Y-120752291D01*
X121420508Y-120752286D01*
X121438581Y-120627636D01*
X121448700Y-120557842D01*
X121450215Y-120500000D01*
X121431708Y-120298591D01*
X121376807Y-120103926D01*
X121287351Y-119922527D01*
X121273767Y-119904335D01*
X121239955Y-119859056D01*
X121215223Y-119792506D01*
X121230397Y-119723150D01*
X121280659Y-119673008D01*
X121350051Y-119657999D01*
X121373524Y-119661960D01*
G37*
%TD.AperFunction*%
%TA.AperFunction,Conductor*%
G36*
X133531610Y-117850001D02*
G01*
X133581530Y-117863377D01*
X133581537Y-117863378D01*
X133586847Y-117864801D01*
X133671564Y-117872213D01*
X133680294Y-117873529D01*
X133684548Y-117875023D01*
X133690055Y-117875500D01*
X133703633Y-117875500D01*
X133714617Y-117875980D01*
X133730021Y-117877328D01*
X133738745Y-117878399D01*
X133740204Y-117878630D01*
X133740209Y-117878630D01*
X133750001Y-117880181D01*
X133769764Y-117877051D01*
X133789474Y-117875500D01*
X134460526Y-117875500D01*
X134480237Y-117877051D01*
X134490206Y-117878630D01*
X134499999Y-117880181D01*
X134509793Y-117878630D01*
X134509839Y-117878630D01*
X134529549Y-117880181D01*
X134557025Y-117884532D01*
X134572164Y-117886930D01*
X134609654Y-117899111D01*
X134656976Y-117923223D01*
X134688868Y-117946395D01*
X134726416Y-117983943D01*
X134749588Y-118015835D01*
X134773699Y-118063155D01*
X134785881Y-118100648D01*
X134792630Y-118143262D01*
X134794181Y-118162972D01*
X134794181Y-118163018D01*
X134792630Y-118172812D01*
X134794181Y-118182605D01*
X134795760Y-118192574D01*
X134797311Y-118212285D01*
X134797311Y-120617718D01*
X134795760Y-120637428D01*
X134792630Y-120657191D01*
X134794181Y-120666984D01*
X134794181Y-120676900D01*
X134793501Y-120676900D01*
X134793931Y-120691505D01*
X134792145Y-120709636D01*
X134787612Y-120755671D01*
X134784745Y-120784777D01*
X134779926Y-120809003D01*
X134746309Y-120919822D01*
X134736857Y-120942642D01*
X134682273Y-121044762D01*
X134668550Y-121065300D01*
X134626399Y-121116661D01*
X134567722Y-121156629D01*
X134496751Y-121158530D01*
X134436019Y-121121759D01*
X134404807Y-121057991D01*
X134403000Y-121036727D01*
X134403000Y-120772115D01*
X134398525Y-120756876D01*
X134397135Y-120755671D01*
X134389452Y-120754000D01*
X132917000Y-120754000D01*
X132848879Y-120733998D01*
X132802386Y-120680342D01*
X132791000Y-120628000D01*
X132791000Y-120227885D01*
X133299000Y-120227885D01*
X133303475Y-120243124D01*
X133304865Y-120244329D01*
X133312548Y-120246000D01*
X134384884Y-120246000D01*
X134400123Y-120241525D01*
X134401328Y-120240135D01*
X134402999Y-120232452D01*
X134402999Y-119605331D01*
X134402629Y-119598510D01*
X134397105Y-119547648D01*
X134393479Y-119532396D01*
X134348324Y-119411946D01*
X134339786Y-119396351D01*
X134263285Y-119294276D01*
X134250724Y-119281715D01*
X134148649Y-119205214D01*
X134133054Y-119196676D01*
X134012606Y-119151522D01*
X133997351Y-119147895D01*
X133946486Y-119142369D01*
X133939672Y-119142000D01*
X133317115Y-119142000D01*
X133301876Y-119146475D01*
X133300671Y-119147865D01*
X133299000Y-119155548D01*
X133299000Y-120227885D01*
X132791000Y-120227885D01*
X132791000Y-119160116D01*
X132786525Y-119144877D01*
X132774231Y-119134224D01*
X132735847Y-119074498D01*
X132735847Y-119003501D01*
X132774230Y-118943775D01*
X132838811Y-118914282D01*
X132856743Y-118912999D01*
X132909669Y-118912999D01*
X132916490Y-118912629D01*
X132967352Y-118907105D01*
X132982604Y-118903479D01*
X133103054Y-118858324D01*
X133118649Y-118849786D01*
X133220724Y-118773285D01*
X133233285Y-118760724D01*
X133309786Y-118658649D01*
X133318324Y-118643054D01*
X133363478Y-118522606D01*
X133367105Y-118507351D01*
X133372631Y-118456486D01*
X133373000Y-118449672D01*
X133373000Y-117971708D01*
X133393002Y-117903587D01*
X133446658Y-117857094D01*
X133516932Y-117846990D01*
X133531610Y-117850001D01*
G37*
%TD.AperFunction*%
%TA.AperFunction,Conductor*%
G36*
X134955303Y-114585502D02*
G01*
X134976277Y-114602405D01*
X135054946Y-114681074D01*
X135088972Y-114743386D01*
X135083907Y-114814201D01*
X135054946Y-114859264D01*
X135046022Y-114868188D01*
X135040513Y-114878277D01*
X135047814Y-114881000D01*
X135328000Y-114881000D01*
X135396121Y-114901002D01*
X135442614Y-114954658D01*
X135454000Y-115007000D01*
X135454000Y-116533000D01*
X135433998Y-116601121D01*
X135380342Y-116647614D01*
X135328000Y-116659000D01*
X135072000Y-116659000D01*
X135003879Y-116638998D01*
X134957386Y-116585342D01*
X134946000Y-116533000D01*
X134946000Y-116285987D01*
X134942763Y-116274962D01*
X134935672Y-116278200D01*
X134873926Y-116339946D01*
X134811614Y-116373972D01*
X134740799Y-116368907D01*
X134695736Y-116339946D01*
X133839287Y-115483497D01*
X133805261Y-115421185D01*
X133805253Y-115421132D01*
X134499408Y-115421132D01*
X134499539Y-115422965D01*
X134503790Y-115429580D01*
X134933188Y-115858978D01*
X134943277Y-115864487D01*
X134946000Y-115857186D01*
X134946000Y-115407115D01*
X134941525Y-115391876D01*
X134940135Y-115390671D01*
X134932452Y-115389000D01*
X134543325Y-115389000D01*
X134517680Y-115396530D01*
X134507022Y-115407188D01*
X134499408Y-115421132D01*
X133805253Y-115421132D01*
X133802703Y-115403392D01*
X133801934Y-115392636D01*
X133792186Y-115389000D01*
X133778000Y-115389000D01*
X133709879Y-115368998D01*
X133663386Y-115315342D01*
X133652000Y-115263000D01*
X133652000Y-115007000D01*
X133672002Y-114938879D01*
X133725658Y-114892386D01*
X133778000Y-114881000D01*
X134296675Y-114881000D01*
X134322320Y-114873470D01*
X134593385Y-114602405D01*
X134655697Y-114568379D01*
X134682480Y-114565500D01*
X134887182Y-114565500D01*
X134955303Y-114585502D01*
G37*
%TD.AperFunction*%
%TA.AperFunction,Conductor*%
G36*
X125323442Y-111208606D02*
G01*
X125330081Y-111211235D01*
X125336755Y-111214858D01*
X125348778Y-111218012D01*
X125409593Y-111254646D01*
X125440948Y-111318344D01*
X125442804Y-111339888D01*
X125442804Y-114005394D01*
X125422802Y-114073515D01*
X125399635Y-114100341D01*
X125331338Y-114159921D01*
X125311749Y-114187793D01*
X125271472Y-114245102D01*
X125240805Y-114288736D01*
X125183613Y-114435427D01*
X125180403Y-114459809D01*
X125164553Y-114580202D01*
X125163062Y-114591526D01*
X125180339Y-114748021D01*
X125234447Y-114895878D01*
X125238684Y-114902184D01*
X125238686Y-114902187D01*
X125273946Y-114954658D01*
X125322262Y-115026560D01*
X125327881Y-115031673D01*
X125327882Y-115031674D01*
X125434201Y-115128417D01*
X125469977Y-115185036D01*
X125504221Y-115297926D01*
X125583818Y-115446841D01*
X125690937Y-115577367D01*
X125821463Y-115684486D01*
X125970378Y-115764083D01*
X126010683Y-115776309D01*
X126126035Y-115811301D01*
X126126041Y-115811302D01*
X126131961Y-115813098D01*
X126195811Y-115819387D01*
X126220507Y-115821819D01*
X126229373Y-115823205D01*
X126234548Y-115825023D01*
X126240055Y-115825500D01*
X126251695Y-115825500D01*
X126264043Y-115826107D01*
X126275051Y-115827191D01*
X126287406Y-115828408D01*
X126289143Y-115828631D01*
X126289671Y-115828631D01*
X126291103Y-115828772D01*
X126300002Y-115830181D01*
X126319765Y-115827051D01*
X126339475Y-115825500D01*
X126610527Y-115825500D01*
X126630238Y-115827051D01*
X126639210Y-115828472D01*
X126650000Y-115830181D01*
X126659793Y-115828630D01*
X126659794Y-115828630D01*
X126660792Y-115828472D01*
X126672260Y-115827191D01*
X126837977Y-115816329D01*
X126837981Y-115816328D01*
X126842092Y-115816059D01*
X126846132Y-115815255D01*
X126846135Y-115815255D01*
X127026848Y-115779310D01*
X127026854Y-115779308D01*
X127030898Y-115778504D01*
X127034804Y-115777178D01*
X127034808Y-115777177D01*
X127209286Y-115717949D01*
X127209288Y-115717948D01*
X127213186Y-115716625D01*
X127385838Y-115631483D01*
X127545899Y-115524533D01*
X127548987Y-115521825D01*
X127549000Y-115521815D01*
X127636145Y-115445391D01*
X127641092Y-115441657D01*
X127641786Y-115441323D01*
X127646017Y-115437766D01*
X127651493Y-115432290D01*
X127657512Y-115426652D01*
X127673871Y-115412306D01*
X127682883Y-115405105D01*
X127683695Y-115404515D01*
X127691714Y-115398689D01*
X127703477Y-115382499D01*
X127716317Y-115367466D01*
X128888975Y-114194808D01*
X128904009Y-114181967D01*
X128912182Y-114176029D01*
X128912183Y-114176028D01*
X128920202Y-114170202D01*
X128926028Y-114162183D01*
X128930862Y-114157349D01*
X128943232Y-114143790D01*
X128971861Y-114118684D01*
X129053858Y-114046775D01*
X129066918Y-114036753D01*
X129211532Y-113940126D01*
X129225797Y-113931890D01*
X129381782Y-113854966D01*
X129397009Y-113848659D01*
X129397401Y-113848526D01*
X129561692Y-113792757D01*
X129577602Y-113788494D01*
X129662891Y-113771529D01*
X129748177Y-113754565D01*
X129764517Y-113752414D01*
X129911339Y-113742790D01*
X129929646Y-113743629D01*
X129936502Y-113743629D01*
X129946294Y-113745180D01*
X129966057Y-113742050D01*
X129985767Y-113740499D01*
X130715527Y-113740499D01*
X130735238Y-113742050D01*
X130745207Y-113743629D01*
X130755000Y-113745180D01*
X130762312Y-113744022D01*
X130782903Y-113746050D01*
X130795281Y-113748512D01*
X130840704Y-113767327D01*
X130854016Y-113776222D01*
X130888777Y-113810983D01*
X130897672Y-113824295D01*
X130916487Y-113869718D01*
X130918949Y-113882096D01*
X130920977Y-113902687D01*
X130919819Y-113909999D01*
X130921370Y-113919792D01*
X130922949Y-113929761D01*
X130924500Y-113949472D01*
X130924500Y-114314071D01*
X130904498Y-114382192D01*
X130850842Y-114428685D01*
X130780568Y-114438789D01*
X130726229Y-114417284D01*
X130600912Y-114329536D01*
X130591416Y-114324053D01*
X130401887Y-114235674D01*
X130391595Y-114231928D01*
X130189599Y-114177804D01*
X130178804Y-114175901D01*
X129970475Y-114157674D01*
X129959525Y-114157674D01*
X129751196Y-114175901D01*
X129740401Y-114177804D01*
X129538405Y-114231928D01*
X129528113Y-114235674D01*
X129338583Y-114324054D01*
X129329093Y-114329534D01*
X129287851Y-114358411D01*
X129279477Y-114368886D01*
X129286545Y-114382333D01*
X130235116Y-115330905D01*
X130269141Y-115393217D01*
X130264076Y-115464033D01*
X130235115Y-115509095D01*
X130054095Y-115690115D01*
X129991783Y-115724141D01*
X129920968Y-115719076D01*
X129875905Y-115690116D01*
X128926611Y-114740822D01*
X128914838Y-114734394D01*
X128902824Y-114743689D01*
X128874534Y-114784093D01*
X128869054Y-114793583D01*
X128780674Y-114983113D01*
X128776928Y-114993405D01*
X128722804Y-115195401D01*
X128720901Y-115206196D01*
X128702674Y-115414525D01*
X128702674Y-115425475D01*
X128720901Y-115633804D01*
X128722804Y-115644599D01*
X128776928Y-115846595D01*
X128780674Y-115856887D01*
X128835868Y-115975250D01*
X128846529Y-116045441D01*
X128817549Y-116110254D01*
X128758130Y-116149111D01*
X128721673Y-116154500D01*
X128130326Y-116154500D01*
X128057260Y-116169034D01*
X128046940Y-116175930D01*
X128046939Y-116175930D01*
X128040001Y-116180565D01*
X127972248Y-116201780D01*
X127899999Y-116180565D01*
X127893061Y-116175930D01*
X127893060Y-116175930D01*
X127882740Y-116169034D01*
X127809674Y-116154500D01*
X126860326Y-116154500D01*
X126787260Y-116169034D01*
X126776940Y-116175930D01*
X126776939Y-116175930D01*
X126770001Y-116180565D01*
X126702248Y-116201780D01*
X126629999Y-116180565D01*
X126623061Y-116175930D01*
X126623060Y-116175930D01*
X126612740Y-116169034D01*
X126539674Y-116154500D01*
X125590326Y-116154500D01*
X125517260Y-116169034D01*
X125506940Y-116175930D01*
X125506939Y-116175930D01*
X125500001Y-116180565D01*
X125432248Y-116201780D01*
X125359999Y-116180565D01*
X125353061Y-116175930D01*
X125353060Y-116175930D01*
X125342740Y-116169034D01*
X125269674Y-116154500D01*
X124592792Y-116154500D01*
X124524671Y-116134498D01*
X124478178Y-116080842D01*
X124468074Y-116010568D01*
X124497568Y-115945988D01*
X124536178Y-115915935D01*
X124593903Y-115886902D01*
X124646720Y-115860338D01*
X124688069Y-115825023D01*
X124760669Y-115763017D01*
X124760671Y-115763014D01*
X124766443Y-115758085D01*
X124858319Y-115630226D01*
X124917045Y-115484141D01*
X124926953Y-115414525D01*
X124938648Y-115332350D01*
X124938648Y-115332347D01*
X124939229Y-115328266D01*
X124939373Y-115314543D01*
X124933774Y-115268275D01*
X124921371Y-115165780D01*
X124921371Y-115165778D01*
X124920458Y-115158237D01*
X124904676Y-115116469D01*
X124898146Y-115080716D01*
X124898093Y-115080724D01*
X124897738Y-115078484D01*
X124896150Y-115068453D01*
X124894963Y-115060962D01*
X124893412Y-115041251D01*
X124893412Y-111574195D01*
X124913414Y-111506074D01*
X124962797Y-111461631D01*
X124979847Y-111453056D01*
X124979853Y-111453052D01*
X124986637Y-111449640D01*
X125051965Y-111393845D01*
X125100586Y-111352319D01*
X125100588Y-111352316D01*
X125106360Y-111347387D01*
X125112731Y-111338521D01*
X125174737Y-111252232D01*
X125230731Y-111208584D01*
X125301435Y-111202138D01*
X125323442Y-111208606D01*
G37*
%TD.AperFunction*%
%TA.AperFunction,Conductor*%
G36*
X122470131Y-104095502D02*
G01*
X122497391Y-104119169D01*
X122499726Y-104121875D01*
X122503958Y-104128172D01*
X122509568Y-104133277D01*
X122509570Y-104133279D01*
X122614212Y-104228495D01*
X122620410Y-104234135D01*
X122673685Y-104263061D01*
X122752099Y-104305637D01*
X122752101Y-104305638D01*
X122758776Y-104309262D01*
X122766125Y-104311190D01*
X122903719Y-104347287D01*
X122903721Y-104347287D01*
X122911069Y-104349215D01*
X122994380Y-104350524D01*
X123060898Y-104351569D01*
X123060901Y-104351569D01*
X123068495Y-104351688D01*
X123075897Y-104349993D01*
X123075904Y-104349992D01*
X123101346Y-104344165D01*
X123172213Y-104348455D01*
X123229510Y-104390377D01*
X123255047Y-104456622D01*
X123253410Y-104489694D01*
X123233887Y-104596229D01*
X123216224Y-104692610D01*
X123211915Y-104716121D01*
X123211686Y-104719911D01*
X123211685Y-104719917D01*
X123207286Y-104792648D01*
X123197104Y-104960990D01*
X123197050Y-104961875D01*
X123197015Y-104962195D01*
X123197015Y-104962448D01*
X123196682Y-104967953D01*
X123195464Y-104975645D01*
X123197015Y-104985438D01*
X123198594Y-104995407D01*
X123200145Y-105015118D01*
X123200145Y-107181986D01*
X123180143Y-107250107D01*
X123156976Y-107276933D01*
X123088679Y-107336513D01*
X123084309Y-107342730D01*
X123084307Y-107342733D01*
X123055431Y-107383818D01*
X122999897Y-107428050D01*
X122929265Y-107435235D01*
X122893390Y-107422723D01*
X122834842Y-107391723D01*
X122767313Y-107374761D01*
X122689509Y-107355218D01*
X122689507Y-107355218D01*
X122682139Y-107353367D01*
X122674541Y-107353327D01*
X122674539Y-107353327D01*
X122607330Y-107352975D01*
X122524695Y-107352543D01*
X122517316Y-107354315D01*
X122517312Y-107354315D01*
X122378978Y-107387526D01*
X122378974Y-107387527D01*
X122371599Y-107389298D01*
X122231690Y-107461510D01*
X122225968Y-107466502D01*
X122225966Y-107466503D01*
X122118770Y-107560016D01*
X122118767Y-107560019D01*
X122113045Y-107565011D01*
X122022512Y-107693826D01*
X121965320Y-107840517D01*
X121944769Y-107996616D01*
X121962046Y-108153111D01*
X122016154Y-108300968D01*
X122103969Y-108431650D01*
X122220421Y-108537613D01*
X122227096Y-108541237D01*
X122352110Y-108609115D01*
X122352112Y-108609116D01*
X122358787Y-108612740D01*
X122366136Y-108614668D01*
X122503730Y-108650765D01*
X122503732Y-108650765D01*
X122511080Y-108652693D01*
X122547052Y-108653258D01*
X122614850Y-108674327D01*
X122661482Y-108731024D01*
X122733999Y-108906095D01*
X122739297Y-108921702D01*
X122791714Y-109117325D01*
X122794929Y-109133489D01*
X122821869Y-109338108D01*
X122822932Y-109352622D01*
X122824486Y-109453888D01*
X122824501Y-109455821D01*
X122824501Y-113510526D01*
X122822950Y-113530236D01*
X122819820Y-113549999D01*
X122821371Y-113559792D01*
X122821371Y-113569709D01*
X122821191Y-113569709D01*
X122821777Y-113584609D01*
X122809387Y-113742050D01*
X122807366Y-113767724D01*
X122804273Y-113787252D01*
X122755604Y-113989971D01*
X122749494Y-114008775D01*
X122669709Y-114201392D01*
X122660733Y-114219008D01*
X122551806Y-114396762D01*
X122540184Y-114412759D01*
X122405507Y-114570445D01*
X122404784Y-114571291D01*
X122390805Y-114585270D01*
X122302926Y-114660326D01*
X122232272Y-114720671D01*
X122216275Y-114732293D01*
X122038521Y-114841220D01*
X122020906Y-114850195D01*
X121925474Y-114889725D01*
X121854884Y-114897315D01*
X121791397Y-114865536D01*
X121755169Y-114804478D01*
X121752512Y-114755564D01*
X121764758Y-114669519D01*
X121764758Y-114669516D01*
X121765339Y-114665435D01*
X121765483Y-114651712D01*
X121746568Y-114495406D01*
X121732866Y-114459145D01*
X121693599Y-114355226D01*
X121693598Y-114355223D01*
X121690915Y-114348124D01*
X121601736Y-114218369D01*
X121506678Y-114133675D01*
X121489853Y-114118684D01*
X121489850Y-114118682D01*
X121484181Y-114113631D01*
X121457017Y-114099248D01*
X121399886Y-114068999D01*
X121345036Y-114039957D01*
X121337671Y-114038107D01*
X121199703Y-114003452D01*
X121199701Y-114003452D01*
X121192333Y-114001601D01*
X121184735Y-114001561D01*
X121184733Y-114001561D01*
X121111915Y-114001180D01*
X121039896Y-114000803D01*
X121039895Y-114000803D01*
X121034889Y-114000777D01*
X121034893Y-113999943D01*
X120971018Y-113988952D01*
X120918665Y-113940997D01*
X120900501Y-113875826D01*
X120900501Y-113356933D01*
X120902052Y-113337222D01*
X120903631Y-113327253D01*
X120905182Y-113317460D01*
X120903631Y-113307668D01*
X120903631Y-113300812D01*
X120902792Y-113282504D01*
X120912084Y-113140750D01*
X120914235Y-113124411D01*
X120947172Y-112958822D01*
X120951436Y-112942909D01*
X121005707Y-112783032D01*
X121012013Y-112767808D01*
X121086685Y-112616388D01*
X121094926Y-112602114D01*
X121147187Y-112523899D01*
X121188723Y-112461736D01*
X121198754Y-112448663D01*
X121205224Y-112441286D01*
X121292425Y-112341852D01*
X121305963Y-112329501D01*
X121310809Y-112324655D01*
X121318829Y-112318828D01*
X121324656Y-112310808D01*
X121324658Y-112310806D01*
X121330591Y-112302639D01*
X121343432Y-112287605D01*
X121813342Y-111817695D01*
X121828376Y-111804854D01*
X121836543Y-111798921D01*
X121836545Y-111798919D01*
X121844565Y-111793092D01*
X121849479Y-111786329D01*
X121851931Y-111783533D01*
X121852532Y-111782932D01*
X121853287Y-111781987D01*
X121998952Y-111615886D01*
X122001676Y-111612780D01*
X122134516Y-111413971D01*
X122164920Y-111352319D01*
X122218988Y-111242679D01*
X122240270Y-111199523D01*
X122260954Y-111138590D01*
X122315800Y-110977019D01*
X122315801Y-110977015D01*
X122317128Y-110973106D01*
X122317934Y-110969056D01*
X122362973Y-110742633D01*
X122362974Y-110742627D01*
X122363776Y-110738594D01*
X122364679Y-110724827D01*
X122373478Y-110590569D01*
X122375440Y-110560635D01*
X122375881Y-110560664D01*
X122376187Y-110559769D01*
X122375500Y-110559724D01*
X122377305Y-110532188D01*
X122378496Y-110514017D01*
X122378631Y-110512809D01*
X122378631Y-110511955D01*
X122378873Y-110508262D01*
X122380181Y-110500000D01*
X122377051Y-110480237D01*
X122375500Y-110460527D01*
X122375500Y-109639473D01*
X122377051Y-109619762D01*
X122378630Y-109609794D01*
X122378630Y-109609793D01*
X122380181Y-109600000D01*
X122378629Y-109590203D01*
X122378629Y-109590012D01*
X122377664Y-109582153D01*
X122364829Y-109435440D01*
X122364828Y-109435435D01*
X122364349Y-109429959D01*
X122362758Y-109424019D01*
X122339969Y-109338972D01*
X122320171Y-109265085D01*
X122317394Y-109259128D01*
X122250359Y-109115371D01*
X122248035Y-109110387D01*
X122178776Y-109011475D01*
X122153290Y-108975077D01*
X122153288Y-108975074D01*
X122150131Y-108970566D01*
X122029434Y-108849869D01*
X122024926Y-108846712D01*
X122024923Y-108846710D01*
X121894117Y-108755119D01*
X121889613Y-108751965D01*
X121802524Y-108711355D01*
X121739904Y-108682155D01*
X121739900Y-108682154D01*
X121734915Y-108679829D01*
X121634087Y-108652812D01*
X121575356Y-108637075D01*
X121575354Y-108637075D01*
X121570041Y-108635651D01*
X121564565Y-108635172D01*
X121564560Y-108635171D01*
X121514372Y-108630780D01*
X121477257Y-108627533D01*
X121469325Y-108626337D01*
X121465452Y-108624977D01*
X121459945Y-108624500D01*
X121448090Y-108624500D01*
X121437109Y-108624021D01*
X121434646Y-108623806D01*
X121417846Y-108622336D01*
X121409991Y-108621371D01*
X121409797Y-108621371D01*
X121400000Y-108619819D01*
X121390207Y-108621370D01*
X121390206Y-108621370D01*
X121380238Y-108622949D01*
X121360527Y-108624500D01*
X120839473Y-108624500D01*
X120819762Y-108622949D01*
X120809793Y-108621370D01*
X120800000Y-108619819D01*
X120790206Y-108621370D01*
X120790158Y-108621370D01*
X120770449Y-108619819D01*
X120750338Y-108616634D01*
X120712846Y-108604453D01*
X120685820Y-108590682D01*
X120653929Y-108567511D01*
X120632489Y-108546071D01*
X120609317Y-108514179D01*
X120595548Y-108487156D01*
X120583366Y-108449662D01*
X120580181Y-108429551D01*
X120578630Y-108409842D01*
X120578630Y-108409794D01*
X120580181Y-108400000D01*
X120577051Y-108380237D01*
X120575500Y-108360527D01*
X120575500Y-104692610D01*
X120577051Y-104672899D01*
X120578630Y-104662932D01*
X120578630Y-104662930D01*
X120580181Y-104653137D01*
X120579012Y-104645757D01*
X120578961Y-104645105D01*
X120598628Y-104578113D01*
X120652282Y-104531618D01*
X120699681Y-104520327D01*
X120717112Y-104519642D01*
X120725538Y-104519311D01*
X120730483Y-104519214D01*
X121502790Y-104519214D01*
X121526087Y-104521693D01*
X121528172Y-104521791D01*
X121538352Y-104523983D01*
X121571270Y-104520087D01*
X121577107Y-104519743D01*
X121577099Y-104519642D01*
X121582278Y-104519214D01*
X121587479Y-104519214D01*
X121592607Y-104518360D01*
X121592613Y-104518360D01*
X121606273Y-104516086D01*
X121612149Y-104515249D01*
X121617238Y-104514647D01*
X121662496Y-104509290D01*
X121670663Y-104505368D01*
X121679599Y-104503881D01*
X121688761Y-104498937D01*
X121688765Y-104498936D01*
X121724215Y-104479808D01*
X121729506Y-104477112D01*
X121768035Y-104458611D01*
X121768036Y-104458610D01*
X121775186Y-104455177D01*
X121779417Y-104451620D01*
X121781349Y-104449688D01*
X121783223Y-104447969D01*
X121783360Y-104447895D01*
X121783460Y-104448005D01*
X121783940Y-104447582D01*
X121789615Y-104444520D01*
X121825827Y-104405346D01*
X121829256Y-104401781D01*
X122118632Y-104112405D01*
X122180944Y-104078379D01*
X122207727Y-104075500D01*
X122402010Y-104075500D01*
X122470131Y-104095502D01*
G37*
%TD.AperFunction*%
%TA.AperFunction,Conductor*%
G36*
X131224573Y-103597505D02*
G01*
X131271066Y-103651161D01*
X131282452Y-103703503D01*
X131282452Y-106068640D01*
X131262450Y-106136761D01*
X131208794Y-106183254D01*
X131138520Y-106193358D01*
X131073940Y-106163864D01*
X131053238Y-106140910D01*
X131026589Y-106102851D01*
X131016113Y-106094477D01*
X131002666Y-106101545D01*
X130337021Y-106767189D01*
X130329408Y-106781132D01*
X130329539Y-106782966D01*
X130333790Y-106789579D01*
X130672402Y-107128191D01*
X130696528Y-107141365D01*
X130746730Y-107191567D01*
X130754473Y-107210262D01*
X131003387Y-107459176D01*
X131015161Y-107465606D01*
X131027176Y-107456310D01*
X131053238Y-107419090D01*
X131108695Y-107374761D01*
X131179314Y-107367452D01*
X131242675Y-107399482D01*
X131278661Y-107460683D01*
X131282452Y-107491360D01*
X131282452Y-110399835D01*
X131280901Y-110419545D01*
X131277771Y-110439308D01*
X131277860Y-110439870D01*
X131285298Y-110562835D01*
X131295957Y-110739044D01*
X131296315Y-110744967D01*
X131300477Y-110767677D01*
X131350767Y-111042103D01*
X131351512Y-111046169D01*
X131442613Y-111338521D01*
X131568289Y-111617761D01*
X131570261Y-111621023D01*
X131721757Y-111871628D01*
X131726707Y-111879817D01*
X131792370Y-111963630D01*
X131910924Y-112114952D01*
X131915557Y-112120866D01*
X132132086Y-112337395D01*
X132373135Y-112526245D01*
X132376387Y-112528211D01*
X132376390Y-112528213D01*
X132513916Y-112611350D01*
X132635191Y-112684663D01*
X132914431Y-112810339D01*
X133206783Y-112901440D01*
X133210528Y-112902126D01*
X133210535Y-112902128D01*
X133393477Y-112935653D01*
X133507985Y-112956637D01*
X133511777Y-112956866D01*
X133511782Y-112956867D01*
X133662123Y-112965961D01*
X133813082Y-112975092D01*
X133813644Y-112975181D01*
X133823437Y-112973630D01*
X133826990Y-112973630D01*
X133895111Y-112993632D01*
X133941604Y-113047288D01*
X133950569Y-113075048D01*
X133964034Y-113142740D01*
X133970930Y-113153060D01*
X133970930Y-113153061D01*
X133975565Y-113159999D01*
X133996780Y-113227752D01*
X133975565Y-113300001D01*
X133972170Y-113305083D01*
X133964034Y-113317260D01*
X133949500Y-113390326D01*
X133947684Y-113389965D01*
X133924354Y-113447736D01*
X133866398Y-113488744D01*
X133836530Y-113495070D01*
X133751197Y-113502536D01*
X133745887Y-113503959D01*
X133745886Y-113503959D01*
X133742759Y-113504797D01*
X133558435Y-113554187D01*
X133493195Y-113584609D01*
X133382558Y-113636199D01*
X133382553Y-113636202D01*
X133377571Y-113638525D01*
X133302728Y-113690931D01*
X133218611Y-113749830D01*
X133218608Y-113749832D01*
X133214100Y-113752989D01*
X133072988Y-113894101D01*
X133069831Y-113898609D01*
X133069829Y-113898612D01*
X132964251Y-114049393D01*
X132908794Y-114093721D01*
X132838174Y-114101030D01*
X132774814Y-114068999D01*
X132737459Y-114001703D01*
X132717611Y-113901921D01*
X132716805Y-113897869D01*
X132709323Y-113875826D01*
X132640849Y-113674108D01*
X132640848Y-113674107D01*
X132639523Y-113670202D01*
X132570500Y-113530237D01*
X132535012Y-113458274D01*
X132535009Y-113458269D01*
X132533185Y-113454570D01*
X132461319Y-113347015D01*
X132401904Y-113258094D01*
X132401900Y-113258089D01*
X132399611Y-113254663D01*
X132241087Y-113073901D01*
X132060325Y-112915377D01*
X132056899Y-112913088D01*
X132056894Y-112913084D01*
X131866856Y-112786105D01*
X131860418Y-112781803D01*
X131856719Y-112779979D01*
X131856714Y-112779976D01*
X131746776Y-112725761D01*
X131644786Y-112675465D01*
X131640880Y-112674139D01*
X131421032Y-112599511D01*
X131421028Y-112599510D01*
X131417119Y-112598183D01*
X131413075Y-112597379D01*
X131413069Y-112597377D01*
X131185352Y-112552081D01*
X131185346Y-112552080D01*
X131181313Y-112551278D01*
X131177208Y-112551009D01*
X131177201Y-112551008D01*
X130977769Y-112537937D01*
X130955201Y-112536458D01*
X130954316Y-112536359D01*
X130953693Y-112536359D01*
X130949437Y-112536080D01*
X130941401Y-112534807D01*
X130931608Y-112536358D01*
X130931607Y-112536358D01*
X130921639Y-112537937D01*
X130901928Y-112539488D01*
X129487948Y-112539488D01*
X129468237Y-112537937D01*
X129458268Y-112536358D01*
X129448475Y-112534807D01*
X129441353Y-112535935D01*
X129434225Y-112536335D01*
X129434224Y-112536335D01*
X129260549Y-112546089D01*
X129167115Y-112551336D01*
X128889293Y-112598540D01*
X128655798Y-112665809D01*
X128622281Y-112675465D01*
X128618504Y-112676553D01*
X128615236Y-112677907D01*
X128615235Y-112677907D01*
X128361419Y-112783040D01*
X128361414Y-112783043D01*
X128358151Y-112784394D01*
X128111510Y-112920708D01*
X127881683Y-113083780D01*
X127676873Y-113266808D01*
X127671043Y-113271044D01*
X127665215Y-113279066D01*
X127659281Y-113287233D01*
X127646440Y-113302267D01*
X127472871Y-113475836D01*
X127410559Y-113509862D01*
X127339744Y-113504797D01*
X127282908Y-113462250D01*
X127258097Y-113395730D01*
X127257776Y-113386741D01*
X127257776Y-112902540D01*
X127277778Y-112834419D01*
X127327162Y-112789975D01*
X127373084Y-112766879D01*
X127439863Y-112733292D01*
X127494967Y-112686229D01*
X127553812Y-112635971D01*
X127553814Y-112635968D01*
X127559586Y-112631039D01*
X127651462Y-112503180D01*
X127710188Y-112357095D01*
X127725310Y-112250840D01*
X127731791Y-112205304D01*
X127731791Y-112205301D01*
X127732372Y-112201220D01*
X127732516Y-112187497D01*
X127713601Y-112031191D01*
X127657948Y-111883909D01*
X127568769Y-111754154D01*
X127494911Y-111688349D01*
X127457355Y-111628099D01*
X127452730Y-111594273D01*
X127452730Y-111137914D01*
X127472732Y-111069793D01*
X127496899Y-111042103D01*
X127553806Y-110993500D01*
X127553807Y-110993499D01*
X127559578Y-110988570D01*
X127651454Y-110860711D01*
X127710180Y-110714626D01*
X127727836Y-110590569D01*
X127731783Y-110562835D01*
X127731783Y-110562832D01*
X127732364Y-110558751D01*
X127732508Y-110545028D01*
X127732011Y-110540922D01*
X127731785Y-110536816D01*
X127733639Y-110536714D01*
X127744070Y-110474113D01*
X127791748Y-110421508D01*
X127857487Y-110402999D01*
X130244669Y-110402999D01*
X130251490Y-110402629D01*
X130302352Y-110397105D01*
X130317604Y-110393479D01*
X130438054Y-110348324D01*
X130453649Y-110339786D01*
X130555724Y-110263285D01*
X130568285Y-110250724D01*
X130644786Y-110148649D01*
X130653324Y-110133054D01*
X130698478Y-110012606D01*
X130702105Y-109997351D01*
X130707631Y-109946486D01*
X130708000Y-109939672D01*
X130708000Y-107890764D01*
X130703525Y-107875525D01*
X130690354Y-107864112D01*
X130683771Y-107857982D01*
X130487601Y-107661812D01*
X130464139Y-107649000D01*
X127572000Y-107649000D01*
X127503879Y-107628998D01*
X127457386Y-107575342D01*
X127446000Y-107523000D01*
X127446000Y-107267000D01*
X127466002Y-107198879D01*
X127519658Y-107152386D01*
X127572000Y-107141000D01*
X129948675Y-107141000D01*
X129959700Y-107137763D01*
X129956462Y-107130672D01*
X129694885Y-106869095D01*
X129660859Y-106806783D01*
X129665924Y-106735968D01*
X129694885Y-106690905D01*
X129965000Y-106420790D01*
X130688958Y-105696831D01*
X130702544Y-105685058D01*
X130703741Y-105684162D01*
X130707999Y-105672746D01*
X130707999Y-104850331D01*
X130707629Y-104843510D01*
X130702105Y-104792648D01*
X130698479Y-104777396D01*
X130653324Y-104656946D01*
X130644786Y-104641351D01*
X130568285Y-104539276D01*
X130555724Y-104526715D01*
X130453649Y-104450214D01*
X130438054Y-104441676D01*
X130317606Y-104396522D01*
X130302351Y-104392895D01*
X130251486Y-104387369D01*
X130244672Y-104387000D01*
X128652866Y-104387000D01*
X128584745Y-104366998D01*
X128538252Y-104313342D01*
X128528123Y-104243248D01*
X128545134Y-104123723D01*
X128545278Y-104110000D01*
X128526363Y-103953694D01*
X128470710Y-103806412D01*
X128466412Y-103800158D01*
X128466408Y-103800151D01*
X128449033Y-103774871D01*
X128426932Y-103707402D01*
X128444817Y-103638695D01*
X128497008Y-103590564D01*
X128552872Y-103577503D01*
X131156452Y-103577503D01*
X131224573Y-103597505D01*
G37*
%TD.AperFunction*%
%TA.AperFunction,Conductor*%
G36*
X134828863Y-105831093D02*
G01*
X134873926Y-105860054D01*
X134992060Y-105978188D01*
X135015522Y-105991000D01*
X135328000Y-105991000D01*
X135396121Y-106011002D01*
X135442614Y-106064658D01*
X135454000Y-106117000D01*
X135454000Y-107643000D01*
X135433998Y-107711121D01*
X135380342Y-107757614D01*
X135328000Y-107769000D01*
X134804872Y-107769000D01*
X134804872Y-107767442D01*
X134778505Y-107767442D01*
X134778106Y-107771157D01*
X134758040Y-107769000D01*
X133778000Y-107769000D01*
X133709879Y-107748998D01*
X133663386Y-107695342D01*
X133652000Y-107643000D01*
X133652000Y-107387000D01*
X133672002Y-107318879D01*
X133725658Y-107272386D01*
X133778000Y-107261000D01*
X134238675Y-107261000D01*
X134249700Y-107257763D01*
X134246462Y-107250672D01*
X133864885Y-106869095D01*
X133830859Y-106806783D01*
X133832694Y-106781132D01*
X134499408Y-106781132D01*
X134499539Y-106782965D01*
X134503790Y-106789580D01*
X134933188Y-107218978D01*
X134943277Y-107224487D01*
X134946000Y-107217186D01*
X134946000Y-106517115D01*
X134941525Y-106501876D01*
X134940135Y-106500671D01*
X134932452Y-106499000D01*
X134793325Y-106499000D01*
X134767680Y-106506530D01*
X134507022Y-106767188D01*
X134499408Y-106781132D01*
X133832694Y-106781132D01*
X133835924Y-106735968D01*
X133864885Y-106690905D01*
X134043978Y-106511812D01*
X134049487Y-106501723D01*
X134042186Y-106499000D01*
X133778000Y-106499000D01*
X133709879Y-106478998D01*
X133663386Y-106425342D01*
X133652000Y-106373000D01*
X133652000Y-106117000D01*
X133672002Y-106048879D01*
X133725658Y-106002386D01*
X133778000Y-105991000D01*
X134546675Y-105991000D01*
X134572320Y-105983470D01*
X134695736Y-105860054D01*
X134758048Y-105826028D01*
X134828863Y-105831093D01*
G37*
%TD.AperFunction*%
%TA.AperFunction,Conductor*%
G36*
X133836684Y-98870002D02*
G01*
X133883177Y-98923658D01*
X133893281Y-98993932D01*
X133863787Y-99058512D01*
X133844667Y-99076324D01*
X133831715Y-99089276D01*
X133755214Y-99191351D01*
X133746676Y-99206946D01*
X133701522Y-99327394D01*
X133697895Y-99342649D01*
X133692369Y-99393514D01*
X133692000Y-99400328D01*
X133692000Y-99622885D01*
X133696475Y-99638124D01*
X133697865Y-99639329D01*
X133705548Y-99641000D01*
X135328000Y-99641000D01*
X135396121Y-99661002D01*
X135442614Y-99714658D01*
X135454000Y-99767000D01*
X135454000Y-100023000D01*
X135433998Y-100091121D01*
X135380342Y-100137614D01*
X135328000Y-100149000D01*
X133710116Y-100149000D01*
X133694877Y-100153475D01*
X133693672Y-100154865D01*
X133692001Y-100162548D01*
X133692001Y-100353017D01*
X133671999Y-100421138D01*
X133618343Y-100467631D01*
X133548069Y-100477735D01*
X133510276Y-100466024D01*
X133469407Y-100445870D01*
X133396549Y-100421138D01*
X133286853Y-100383901D01*
X133286849Y-100383900D01*
X133282940Y-100382573D01*
X133278896Y-100381769D01*
X133278890Y-100381767D01*
X133093845Y-100344959D01*
X133093839Y-100344958D01*
X133089806Y-100344156D01*
X133085699Y-100343887D01*
X133085693Y-100343886D01*
X132965149Y-100335985D01*
X132959312Y-100335170D01*
X132958762Y-100334977D01*
X132953255Y-100334500D01*
X132946610Y-100334500D01*
X132938371Y-100334230D01*
X132929792Y-100333668D01*
X132914772Y-100332683D01*
X132903312Y-100331403D01*
X132893310Y-100329819D01*
X132883517Y-100331370D01*
X132873548Y-100332949D01*
X132853837Y-100334500D01*
X123790599Y-100334500D01*
X123770888Y-100332949D01*
X123760920Y-100331370D01*
X123760919Y-100331370D01*
X123751126Y-100329819D01*
X123741330Y-100331371D01*
X123735626Y-100331371D01*
X123719177Y-100330293D01*
X123700288Y-100327806D01*
X123670353Y-100323865D01*
X123638583Y-100315352D01*
X123578639Y-100290523D01*
X123550154Y-100274077D01*
X123511092Y-100244104D01*
X123498701Y-100233237D01*
X123494655Y-100229191D01*
X123488829Y-100221172D01*
X123472639Y-100209409D01*
X123457606Y-100196569D01*
X123288432Y-100027395D01*
X123275591Y-100012361D01*
X123269658Y-100004194D01*
X123269655Y-100004191D01*
X123263829Y-99996172D01*
X123255809Y-99990345D01*
X123255412Y-99989948D01*
X123249380Y-99985193D01*
X123125883Y-99879716D01*
X123125878Y-99879712D01*
X123122118Y-99876501D01*
X122964042Y-99779632D01*
X122792758Y-99708683D01*
X122612484Y-99665404D01*
X122501621Y-99656679D01*
X122495341Y-99655760D01*
X122493112Y-99654977D01*
X122487605Y-99654500D01*
X122478894Y-99654500D01*
X122469010Y-99654112D01*
X122457319Y-99653192D01*
X122445623Y-99652272D01*
X122438011Y-99651370D01*
X122437453Y-99651370D01*
X122427659Y-99649819D01*
X122417866Y-99651370D01*
X122407897Y-99652949D01*
X122388186Y-99654500D01*
X122085875Y-99654500D01*
X122017754Y-99634498D01*
X122002056Y-99622576D01*
X121939648Y-99566972D01*
X121939645Y-99566970D01*
X121933976Y-99561919D01*
X121794831Y-99488245D01*
X121657229Y-99453682D01*
X121649498Y-99451740D01*
X121649496Y-99451740D01*
X121642128Y-99449889D01*
X121634530Y-99449849D01*
X121634528Y-99449849D01*
X121567319Y-99449497D01*
X121484684Y-99449065D01*
X121477305Y-99450837D01*
X121477301Y-99450837D01*
X121338967Y-99484048D01*
X121338963Y-99484049D01*
X121331588Y-99485820D01*
X121191679Y-99558032D01*
X121185957Y-99563024D01*
X121185955Y-99563025D01*
X121078759Y-99656538D01*
X121078756Y-99656541D01*
X121073034Y-99661533D01*
X120982501Y-99790348D01*
X120925309Y-99937039D01*
X120924318Y-99944568D01*
X120907101Y-100075342D01*
X120904758Y-100093138D01*
X120922035Y-100249633D01*
X120924645Y-100256765D01*
X120930405Y-100272505D01*
X120935031Y-100343350D01*
X120900622Y-100405451D01*
X120841494Y-100438324D01*
X120783302Y-100452295D01*
X120701781Y-100471866D01*
X120701777Y-100471867D01*
X120694402Y-100473638D01*
X120554493Y-100545850D01*
X120548771Y-100550842D01*
X120548769Y-100550843D01*
X120441573Y-100644356D01*
X120441570Y-100644359D01*
X120435848Y-100649351D01*
X120431481Y-100655565D01*
X120356800Y-100761825D01*
X120345315Y-100778166D01*
X120288123Y-100924857D01*
X120281322Y-100976518D01*
X120271551Y-101050736D01*
X120267572Y-101080956D01*
X120284849Y-101237451D01*
X120338957Y-101385308D01*
X120343194Y-101391614D01*
X120343196Y-101391617D01*
X120387487Y-101457528D01*
X120408880Y-101525225D01*
X120390276Y-101593741D01*
X120365736Y-101622752D01*
X120325821Y-101657573D01*
X120273721Y-101703023D01*
X120269354Y-101709237D01*
X120202473Y-101804399D01*
X120183188Y-101831838D01*
X120125996Y-101978529D01*
X120115626Y-102057301D01*
X120111076Y-102091859D01*
X120082354Y-102156786D01*
X120023089Y-102195878D01*
X119952097Y-102196723D01*
X119923334Y-102184608D01*
X119919056Y-102181613D01*
X119770853Y-102112505D01*
X119765545Y-102111083D01*
X119765543Y-102111082D01*
X119693801Y-102091859D01*
X119612901Y-102070182D01*
X119563551Y-102065865D01*
X119497433Y-102040002D01*
X119455793Y-101982499D01*
X119450828Y-101960261D01*
X119450500Y-101960326D01*
X119438387Y-101899431D01*
X119435966Y-101887260D01*
X119429070Y-101876939D01*
X119424435Y-101870001D01*
X119403220Y-101802248D01*
X119424435Y-101729999D01*
X119429070Y-101723061D01*
X119429070Y-101723060D01*
X119435966Y-101712740D01*
X119450500Y-101639674D01*
X119450500Y-100855173D01*
X119470502Y-100787052D01*
X119500935Y-100754347D01*
X119555724Y-100713285D01*
X119568285Y-100700724D01*
X119644786Y-100598649D01*
X119653324Y-100583054D01*
X119698478Y-100462606D01*
X119702105Y-100447351D01*
X119707631Y-100396486D01*
X119708000Y-100389672D01*
X119708000Y-100167115D01*
X119703525Y-100151876D01*
X119702135Y-100150671D01*
X119694452Y-100149000D01*
X118072000Y-100149000D01*
X118003879Y-100128998D01*
X117957386Y-100075342D01*
X117946000Y-100023000D01*
X117946000Y-99767000D01*
X117966002Y-99698879D01*
X118019658Y-99652386D01*
X118072000Y-99641000D01*
X119689884Y-99641000D01*
X119705123Y-99636525D01*
X119706328Y-99635135D01*
X119707999Y-99627452D01*
X119707999Y-99400331D01*
X119707629Y-99393510D01*
X119702105Y-99342648D01*
X119698479Y-99327396D01*
X119653324Y-99206946D01*
X119644786Y-99191351D01*
X119568285Y-99089276D01*
X119549374Y-99070365D01*
X119550328Y-99069411D01*
X119513358Y-99019969D01*
X119508331Y-98949150D01*
X119542390Y-98886857D01*
X119604720Y-98852865D01*
X119631437Y-98850000D01*
X133768563Y-98850000D01*
X133836684Y-98870002D01*
G37*
%TD.AperFunction*%
%TD*%
M02*
