%TF.GenerationSoftware,KiCad,Pcbnew,(6.0.1-0)*%
%TF.CreationDate,2022-02-10T08:46:39+00:00*%
%TF.ProjectId,Generic2,47656e65-7269-4633-922e-6b696361645f,1*%
%TF.SameCoordinates,Original*%
%TF.FileFunction,Copper,L2,Bot*%
%TF.FilePolarity,Positive*%
%FSLAX46Y46*%
G04 Gerber Fmt 4.6, Leading zero omitted, Abs format (unit mm)*
G04 Created by KiCad (PCBNEW (6.0.1-0)) date 2022-02-10 08:46:39*
%MOMM*%
%LPD*%
G01*
G04 APERTURE LIST*
G04 Aperture macros list*
%AMRoundRect*
0 Rectangle with rounded corners*
0 $1 Rounding radius*
0 $2 $3 $4 $5 $6 $7 $8 $9 X,Y pos of 4 corners*
0 Add a 4 corners polygon primitive as box body*
4,1,4,$2,$3,$4,$5,$6,$7,$8,$9,$2,$3,0*
0 Add four circle primitives for the rounded corners*
1,1,$1+$1,$2,$3*
1,1,$1+$1,$4,$5*
1,1,$1+$1,$6,$7*
1,1,$1+$1,$8,$9*
0 Add four rect primitives between the rounded corners*
20,1,$1+$1,$2,$3,$4,$5,0*
20,1,$1+$1,$4,$5,$6,$7,0*
20,1,$1+$1,$6,$7,$8,$9,0*
20,1,$1+$1,$8,$9,$2,$3,0*%
G04 Aperture macros list end*
%TA.AperFunction,ComponentPad*%
%ADD10C,0.600000*%
%TD*%
%TA.AperFunction,ComponentPad*%
%ADD11C,1.500000*%
%TD*%
%TA.AperFunction,ComponentPad*%
%ADD12C,1.250000*%
%TD*%
%TA.AperFunction,ComponentPad*%
%ADD13C,0.350000*%
%TD*%
%TA.AperFunction,ComponentPad*%
%ADD14R,2.000000X2.000000*%
%TD*%
%TA.AperFunction,ComponentPad*%
%ADD15C,2.000000*%
%TD*%
%TA.AperFunction,SMDPad,CuDef*%
%ADD16R,2.000000X0.900000*%
%TD*%
%TA.AperFunction,SMDPad,CuDef*%
%ADD17R,0.900000X2.000000*%
%TD*%
%TA.AperFunction,SMDPad,CuDef*%
%ADD18R,5.000000X5.000000*%
%TD*%
%TA.AperFunction,ComponentPad*%
%ADD19RoundRect,0.250000X0.675000X-0.600000X0.675000X0.600000X-0.675000X0.600000X-0.675000X-0.600000X0*%
%TD*%
%TA.AperFunction,ComponentPad*%
%ADD20O,1.850000X1.700000*%
%TD*%
%TA.AperFunction,ComponentPad*%
%ADD21RoundRect,0.250000X-0.675000X0.600000X-0.675000X-0.600000X0.675000X-0.600000X0.675000X0.600000X0*%
%TD*%
%TA.AperFunction,ViaPad*%
%ADD22C,0.800000*%
%TD*%
%TA.AperFunction,Conductor*%
%ADD23C,0.500000*%
%TD*%
%TA.AperFunction,Conductor*%
%ADD24C,0.250000*%
%TD*%
G04 APERTURE END LIST*
D10*
%TO.P,J3,S1,SHIELD*%
%TO.N,GND*%
X144810000Y-104160000D03*
X150590000Y-104160000D03*
D11*
X143380000Y-103670000D03*
X152020000Y-103670000D03*
D12*
X143380000Y-107840000D03*
X152020000Y-107840000D03*
%TD*%
D13*
%TO.P,U2,21,GND*%
%TO.N,GND*%
X141450000Y-98050000D03*
%TD*%
D14*
%TO.P,J4,1,Pin_1*%
%TO.N,GND*%
X153705000Y-108610000D03*
D15*
%TO.P,J4,2,Pin_2*%
%TO.N,DC*%
X156245000Y-108610000D03*
%TD*%
D16*
%TO.P,U1,1,GND*%
%TO.N,GND*%
X156200000Y-88295000D03*
%TO.P,U1,2,VDD*%
%TO.N,+3V3*%
X156200000Y-89565000D03*
%TO.P,U1,3,EN*%
%TO.N,EN*%
X156200000Y-90835000D03*
%TO.P,U1,4,SENSOR_VP*%
%TO.N,unconnected-(U1-Pad4)*%
X156200000Y-92105000D03*
%TO.P,U1,5,SENSOR_VN*%
%TO.N,unconnected-(U1-Pad5)*%
X156200000Y-93375000D03*
%TO.P,U1,6,IO34*%
%TO.N,R1*%
X156200000Y-94645000D03*
%TO.P,U1,7,IO35*%
%TO.N,unconnected-(U1-Pad7)*%
X156200000Y-95915000D03*
%TO.P,U1,8,IO32*%
%TO.N,R3*%
X156200000Y-97185000D03*
%TO.P,U1,9,IO33*%
%TO.N,R4*%
X156200000Y-98455000D03*
%TO.P,U1,10,IO25*%
%TO.N,R5*%
X156200000Y-99725000D03*
%TO.P,U1,11,IO26*%
%TO.N,R1*%
X156200000Y-100995000D03*
%TO.P,U1,12,IO27*%
%TO.N,R6*%
X156200000Y-102265000D03*
%TO.P,U1,13,IO14*%
%TO.N,R7*%
X156200000Y-103535000D03*
%TO.P,U1,14,IO12*%
%TO.N,R8*%
X156200000Y-104805000D03*
D17*
%TO.P,U1,15,GND*%
%TO.N,GND*%
X153415000Y-105805000D03*
%TO.P,U1,16,IO13*%
%TO.N,R2*%
X152145000Y-105805000D03*
%TO.P,U1,17,SHD/SD2*%
%TO.N,unconnected-(U1-Pad17)*%
X150875000Y-105805000D03*
%TO.P,U1,18,SWP/SD3*%
%TO.N,unconnected-(U1-Pad18)*%
X149605000Y-105805000D03*
%TO.P,U1,19,SCS/CMD*%
%TO.N,unconnected-(U1-Pad19)*%
X148335000Y-105805000D03*
%TO.P,U1,20,SCK/CLK*%
%TO.N,unconnected-(U1-Pad20)*%
X147065000Y-105805000D03*
%TO.P,U1,21,SDO/SD0*%
%TO.N,unconnected-(U1-Pad21)*%
X145795000Y-105805000D03*
%TO.P,U1,22,SDI/SD1*%
%TO.N,unconnected-(U1-Pad22)*%
X144525000Y-105805000D03*
%TO.P,U1,23,IO15*%
%TO.N,L2*%
X143255000Y-105805000D03*
%TO.P,U1,24,IO2*%
%TO.N,L1*%
X141985000Y-105805000D03*
D16*
%TO.P,U1,25,IO0*%
%TO.N,GPIO0*%
X139200000Y-104805000D03*
%TO.P,U1,26,IO4*%
%TO.N,L3*%
X139200000Y-103535000D03*
%TO.P,U1,27,IO16*%
%TO.N,L7*%
X139200000Y-102265000D03*
%TO.P,U1,28,IO17*%
%TO.N,L4*%
X139200000Y-100995000D03*
%TO.P,U1,29,IO5*%
%TO.N,L6*%
X139200000Y-99725000D03*
%TO.P,U1,30,IO18*%
%TO.N,L5*%
X139200000Y-98455000D03*
%TO.P,U1,31,IO19*%
%TO.N,L8*%
X139200000Y-97185000D03*
%TO.P,U1,32,NC*%
%TO.N,unconnected-(U1-Pad32)*%
X139200000Y-95915000D03*
%TO.P,U1,33,IO21*%
%TO.N,G*%
X139200000Y-94645000D03*
%TO.P,U1,34,RXD0/IO3*%
%TO.N,I*%
X139200000Y-93375000D03*
%TO.P,U1,35,TXD0/IO1*%
%TO.N,O*%
X139200000Y-92105000D03*
%TO.P,U1,36,IO22*%
%TO.N,B*%
X139200000Y-90835000D03*
%TO.P,U1,37,IO23*%
%TO.N,R*%
X139200000Y-89565000D03*
%TO.P,U1,38,GND*%
%TO.N,GND*%
X139200000Y-88295000D03*
D18*
%TO.P,U1,39,GND*%
X148700000Y-95795000D03*
%TD*%
D19*
%TO.P,J1,1,Pin_1*%
%TO.N,L1*%
X136600000Y-107500000D03*
D20*
%TO.P,J1,2,Pin_2*%
%TO.N,Net-(J1-Pad2)*%
X136600000Y-105000000D03*
%TO.P,J1,3,Pin_3*%
%TO.N,L3*%
X136600000Y-102500000D03*
%TO.P,J1,4,Pin_4*%
%TO.N,L4*%
X136600000Y-100000000D03*
%TO.P,J1,5,Pin_5*%
%TO.N,L5*%
X136600000Y-97500000D03*
%TO.P,J1,6,Pin_6*%
%TO.N,L6*%
X136600000Y-95000000D03*
%TO.P,J1,7,Pin_7*%
%TO.N,L7*%
X136600000Y-92500000D03*
%TO.P,J1,8,Pin_8*%
%TO.N,L8*%
X136600000Y-90000000D03*
%TD*%
D21*
%TO.P,J2,1,Pin_1*%
%TO.N,R1*%
X158900000Y-90000000D03*
D20*
%TO.P,J2,2,Pin_2*%
%TO.N,Net-(J2-Pad2)*%
X158900000Y-92500000D03*
%TO.P,J2,3,Pin_3*%
%TO.N,R3*%
X158900000Y-95000000D03*
%TO.P,J2,4,Pin_4*%
%TO.N,R4*%
X158900000Y-97500000D03*
%TO.P,J2,5,Pin_5*%
%TO.N,R5*%
X158900000Y-100000000D03*
%TO.P,J2,6,Pin_6*%
%TO.N,R6*%
X158900000Y-102500000D03*
%TO.P,J2,7,Pin_7*%
%TO.N,R7*%
X158900000Y-105000000D03*
%TO.P,J2,8,Pin_8*%
%TO.N,R8*%
X158900000Y-107500000D03*
%TD*%
D22*
%TO.N,GND*%
X133400000Y-96950000D03*
X149361658Y-98969837D03*
X152900000Y-91950000D03*
X134700000Y-92350000D03*
X134100000Y-99400000D03*
X146000000Y-88950000D03*
X162100000Y-88550000D03*
X163800000Y-108550000D03*
%TO.N,+3V3*%
X153140500Y-88850000D03*
%TO.N,VBUS*%
X143981866Y-100102267D03*
X143808443Y-94904941D03*
%TO.N,Net-(C1-Pad1)*%
X141037879Y-101649366D03*
X143251000Y-96070208D03*
%TO.N,O*%
X142711018Y-100924866D03*
%TO.N,I*%
X140879297Y-93950500D03*
%TO.N,EN*%
X141400000Y-103050000D03*
%TO.N,GPIO0*%
X140419217Y-106005634D03*
%TO.N,DC*%
X162400000Y-91450000D03*
%TO.N,R*%
X141400000Y-88900000D03*
%TO.N,G*%
X144522672Y-92475500D03*
%TO.N,B*%
X142600000Y-88900000D03*
%TO.N,Net-(C3-Pad1)*%
X148797352Y-100671911D03*
X147200000Y-100650000D03*
%TO.N,L2*%
X140900000Y-108250000D03*
%TO.N,R2*%
X162250000Y-93750000D03*
%TD*%
D23*
%TO.N,GND*%
X152020000Y-103670000D02*
X152570000Y-103670000D01*
X153400000Y-104500000D02*
X153400000Y-105790000D01*
X153415000Y-105805000D02*
G75*
G02*
X153400000Y-105790000I-1J14999D01*
G01*
X153400000Y-104500000D02*
G75*
G03*
X152570000Y-103670000I-829999J1D01*
G01*
D24*
%TO.N,+3V3*%
X156200000Y-89565000D02*
X153855500Y-89565000D01*
X153140500Y-88850000D02*
G75*
G03*
X153855500Y-89565000I715001J1D01*
G01*
%TO.N,VBUS*%
X143981866Y-100102267D02*
X143981866Y-95078364D01*
X143808443Y-94904941D02*
G75*
G02*
X143981866Y-95078364I1J-173422D01*
G01*
%TO.N,Net-(C1-Pad1)*%
X141177798Y-101311572D02*
X142594685Y-99894685D01*
X143251000Y-96070208D02*
X143251000Y-98310201D01*
X142594685Y-99894685D02*
G75*
G03*
X143251000Y-98310201I-1584489J1584486D01*
G01*
X141177798Y-101311572D02*
G75*
G03*
X141037879Y-101649366I337795J-337795D01*
G01*
%TO.N,L4*%
X139200000Y-100995000D02*
X139002142Y-100995000D01*
X136600000Y-100000000D02*
G75*
G03*
X139002142Y-100995000I2402143J2402145D01*
G01*
%TO.N,L3*%
X139200000Y-103535000D02*
X139098711Y-103535000D01*
X136600000Y-102500000D02*
G75*
G03*
X139098711Y-103535000I2498713J2498717D01*
G01*
%TO.N,L6*%
X135350480Y-96249520D02*
X135350480Y-97650480D01*
X136525480Y-98825480D02*
X137137251Y-98825480D01*
X137800000Y-99100000D02*
X137876992Y-99176992D01*
X139200000Y-99724999D02*
G75*
G02*
X137876992Y-99176992I1J1871018D01*
G01*
X137800000Y-99100000D02*
G75*
G03*
X137137251Y-98825480I-662750J-662751D01*
G01*
X135350480Y-96249520D02*
G75*
G02*
X136600000Y-95000000I1249520J0D01*
G01*
X136525480Y-98825480D02*
G75*
G02*
X135350480Y-97650480I2J1175002D01*
G01*
%TO.N,L5*%
X139200000Y-98455000D02*
X138905573Y-98455000D01*
X136600000Y-97500000D02*
G75*
G03*
X138905573Y-98455000I2305571J2305568D01*
G01*
%TO.N,O*%
X145247173Y-92352827D02*
X145247173Y-99861560D01*
X139554001Y-91750999D02*
X144645345Y-91750999D01*
X139200000Y-92105000D02*
X139554001Y-91750999D01*
X144183867Y-100924866D02*
X142711018Y-100924866D01*
X145247173Y-92352827D02*
G75*
G03*
X144645345Y-91750999I-601827J1D01*
G01*
X144183867Y-100924866D02*
G75*
G03*
X145247173Y-99861560I0J1063306D01*
G01*
%TO.N,I*%
X139200000Y-93375000D02*
X140303797Y-93375000D01*
X140879297Y-93950500D02*
G75*
G03*
X140303797Y-93375000I-575500J0D01*
G01*
%TO.N,L8*%
X139200000Y-97185000D02*
X138285000Y-97185000D01*
X137875489Y-96775489D02*
X137875489Y-91275489D01*
X137875489Y-96775489D02*
G75*
G03*
X138285000Y-97185000I409511J0D01*
G01*
X136600000Y-90000000D02*
G75*
G02*
X137875489Y-91275489I0J-1275489D01*
G01*
%TO.N,L7*%
X134900969Y-100000969D02*
X134900969Y-95399031D01*
X137774566Y-101674566D02*
X137700000Y-101600000D01*
X136150000Y-101250000D02*
X136855026Y-101250000D01*
X136600000Y-92500000D02*
X135749498Y-93350502D01*
X137774566Y-101674566D02*
G75*
G03*
X139200000Y-102265000I1425436J1425438D01*
G01*
X136855026Y-101250001D02*
G75*
G02*
X137699999Y-101600001I1J-1194970D01*
G01*
X136150000Y-101250000D02*
G75*
G02*
X134900969Y-100000969I1J1249032D01*
G01*
X134900969Y-95399031D02*
G75*
G02*
X135749498Y-93350502I2897046J4D01*
G01*
%TO.N,EN*%
X154950000Y-90835000D02*
X156200000Y-90835000D01*
X154300000Y-101900000D02*
X154300000Y-91485000D01*
X141854511Y-102595489D02*
X153604511Y-102595489D01*
X141854511Y-102595489D02*
G75*
G03*
X141400000Y-103050000I-1J-454510D01*
G01*
X154950000Y-90835000D02*
G75*
G03*
X154300000Y-91485000I1J-650001D01*
G01*
X154300000Y-101900000D02*
G75*
G02*
X153604511Y-102595489I-695489J0D01*
G01*
%TO.N,R4*%
X156200000Y-98455000D02*
X156594427Y-98455000D01*
X158900000Y-97500000D02*
G75*
G02*
X156594427Y-98455000I-2305571J2305568D01*
G01*
%TO.N,R3*%
X156200000Y-97185000D02*
X156246264Y-97185000D01*
X157900000Y-96500000D02*
X158546446Y-95853554D01*
X158900000Y-95000000D02*
G75*
G02*
X158546446Y-95853554I-1207111J2D01*
G01*
X157900000Y-96500000D02*
G75*
G02*
X156246264Y-97185000I-1653734J1653730D01*
G01*
%TO.N,R6*%
X156200000Y-102265000D02*
X158332660Y-102265000D01*
X158900000Y-102500000D02*
G75*
G03*
X158332660Y-102265000I-567338J-567335D01*
G01*
%TO.N,GPIO0*%
X139200000Y-104805000D02*
X140105000Y-104805000D01*
X140400000Y-105100000D02*
X140400000Y-105986417D01*
X140419217Y-106005634D02*
G75*
G02*
X140400000Y-105986417I2J19219D01*
G01*
X140400000Y-105100000D02*
G75*
G03*
X140105000Y-104805000I-294998J2D01*
G01*
%TO.N,DC*%
X163750000Y-109450000D02*
X157085000Y-109450000D01*
X164700000Y-92200000D02*
X164700000Y-108500000D01*
X162400000Y-91450000D02*
X163950000Y-91450000D01*
X164700000Y-92200000D02*
G75*
G03*
X163950000Y-91450000I-750000J0D01*
G01*
X156245000Y-108610000D02*
G75*
G03*
X157085000Y-109450000I839999J-1D01*
G01*
X163750000Y-109450000D02*
G75*
G03*
X164700000Y-108500000I-2J950002D01*
G01*
%TO.N,R*%
X139200000Y-89565000D02*
X140735000Y-89565000D01*
X140735000Y-89565000D02*
G75*
G03*
X141400000Y-88900000I0J665000D01*
G01*
X141400000Y-88850000D02*
G75*
G02*
X140685000Y-89565000I-715001J1D01*
G01*
%TO.N,G*%
X139230000Y-94675000D02*
X141075000Y-94675000D01*
X141750000Y-94000000D02*
X141750000Y-93250000D01*
X144522672Y-92475500D02*
X142524500Y-92475500D01*
X139230000Y-94675000D02*
G75*
G02*
X139200000Y-94645000I1J30001D01*
G01*
X141750000Y-94000000D02*
G75*
G02*
X141075000Y-94675000I-675000J0D01*
G01*
X141750000Y-93250000D02*
G75*
G02*
X142524500Y-92475500I774501J-1D01*
G01*
%TO.N,B*%
X139200000Y-90835000D02*
X140715000Y-90835000D01*
X142600000Y-88950000D02*
G75*
G02*
X140715000Y-90835000I-1885001J1D01*
G01*
X140665000Y-90835000D02*
G75*
G03*
X142600000Y-88900000I1J1934999D01*
G01*
%TO.N,R5*%
X156200000Y-99725000D02*
X158236092Y-99725000D01*
X158900000Y-100000000D02*
G75*
G03*
X158236092Y-99725000I-663908J-663907D01*
G01*
%TO.N,Net-(C3-Pad1)*%
X148775441Y-100650000D02*
X148797352Y-100671911D01*
X147200000Y-100650000D02*
X148775441Y-100650000D01*
%TO.N,R8*%
X158895000Y-107500000D02*
X156200000Y-104805000D01*
X158900000Y-107500000D02*
X158895000Y-107500000D01*
%TO.N,R7*%
X158308277Y-104408277D02*
X158900000Y-105000000D01*
X158308277Y-104408277D02*
G75*
G03*
X156200000Y-103535000I-2108276J-2108275D01*
G01*
%TO.N,L1*%
X142000000Y-106900000D02*
X142000000Y-105820000D01*
X136600000Y-107500000D02*
X141400000Y-107500000D01*
X141985000Y-105805000D02*
G75*
G02*
X142000000Y-105820000I1J-14999D01*
G01*
X142000000Y-106900000D02*
G75*
G02*
X141400000Y-107500000I-600000J0D01*
G01*
%TO.N,R1*%
X156200000Y-94645000D02*
X157155000Y-94645000D01*
X154875489Y-95224511D02*
X154875489Y-100624511D01*
X156200000Y-100995000D02*
X155245978Y-100995000D01*
X157600000Y-90800000D02*
X157600000Y-94200000D01*
X158900000Y-90000000D02*
X158400000Y-90000000D01*
X156200000Y-94645000D02*
X155455000Y-94645000D01*
X157600000Y-94200000D02*
G75*
G02*
X157155000Y-94645000I-444998J-2D01*
G01*
X157600000Y-90800000D02*
G75*
G02*
X158400000Y-90000000I800001J-1D01*
G01*
X154875489Y-95224511D02*
G75*
G02*
X155455000Y-94645000I579512J-1D01*
G01*
X154875489Y-100624511D02*
G75*
G03*
X155245978Y-100995000I370490J1D01*
G01*
%TO.N,L2*%
X142141387Y-107735800D02*
X143138594Y-106738594D01*
X143255000Y-106622188D02*
X143138594Y-106738594D01*
X143255000Y-105805000D02*
X143255000Y-106622188D01*
X142141387Y-107735800D02*
G75*
G02*
X140900000Y-108250000I-1241386J1241382D01*
G01*
%TO.N,R2*%
X152145000Y-106104012D02*
X152145000Y-105805000D01*
X160300000Y-94150000D02*
X160300000Y-107600000D01*
X162250000Y-93750000D02*
X160700000Y-93750000D01*
X158030184Y-108366206D02*
X157331989Y-107668011D01*
X156322822Y-107250000D02*
X153142495Y-107250000D01*
X158774520Y-108674520D02*
X159225480Y-108674520D01*
X160300000Y-107600000D02*
G75*
G02*
X159225480Y-108674520I-1074521J1D01*
G01*
X152511406Y-106988594D02*
G75*
G03*
X153142495Y-107250000I631086J631081D01*
G01*
X152145000Y-106104012D02*
G75*
G03*
X152511406Y-106988594I1250980J-3D01*
G01*
X156322822Y-107250000D02*
G75*
G02*
X157331989Y-107668011I2J-1427172D01*
G01*
X160300000Y-94150000D02*
G75*
G02*
X160700000Y-93750000I399999J1D01*
G01*
X158030184Y-108366206D02*
G75*
G03*
X158774520Y-108674520I744335J744333D01*
G01*
%TD*%
%TA.AperFunction,Conductor*%
%TO.N,GND*%
G36*
X137634121Y-87724002D02*
G01*
X137680614Y-87777658D01*
X137692000Y-87830000D01*
X137692000Y-88022885D01*
X137696475Y-88038124D01*
X137697865Y-88039329D01*
X137705548Y-88041000D01*
X140689884Y-88041000D01*
X140705123Y-88036525D01*
X140706328Y-88035135D01*
X140707999Y-88027452D01*
X140707999Y-87830000D01*
X140728001Y-87761879D01*
X140781657Y-87715386D01*
X140833999Y-87704000D01*
X154566000Y-87704000D01*
X154634121Y-87724002D01*
X154680614Y-87777658D01*
X154692000Y-87830000D01*
X154692000Y-88022885D01*
X154696475Y-88038124D01*
X154697865Y-88039329D01*
X154705548Y-88041000D01*
X157689884Y-88041000D01*
X157705123Y-88036525D01*
X157706328Y-88035135D01*
X157707999Y-88027452D01*
X157707999Y-87830000D01*
X157728001Y-87761879D01*
X157781657Y-87715386D01*
X157833999Y-87704000D01*
X165120000Y-87704000D01*
X165188121Y-87724002D01*
X165234614Y-87777658D01*
X165246000Y-87830000D01*
X165246000Y-91738304D01*
X165225998Y-91806425D01*
X165172342Y-91852918D01*
X165102068Y-91863022D01*
X165037488Y-91833528D01*
X165005805Y-91791554D01*
X164934239Y-91638080D01*
X164934236Y-91638075D01*
X164931913Y-91633093D01*
X164926961Y-91626021D01*
X164821712Y-91475709D01*
X164821710Y-91475706D01*
X164818553Y-91471198D01*
X164678802Y-91331447D01*
X164650874Y-91311891D01*
X164530692Y-91227739D01*
X164516908Y-91218087D01*
X164511926Y-91215764D01*
X164511921Y-91215761D01*
X164342770Y-91136885D01*
X164342769Y-91136884D01*
X164337788Y-91134562D01*
X164332480Y-91133140D01*
X164332478Y-91133139D01*
X164224583Y-91104229D01*
X164146885Y-91083410D01*
X164023789Y-91072640D01*
X164018677Y-91071870D01*
X164016149Y-91070982D01*
X164010584Y-91070500D01*
X164004831Y-91070500D01*
X163993848Y-91070020D01*
X163962980Y-91067319D01*
X163962965Y-91067319D01*
X163955867Y-91066698D01*
X163950000Y-91065769D01*
X163929923Y-91068949D01*
X163910212Y-91070500D01*
X162999682Y-91070500D01*
X162931561Y-91050498D01*
X162905114Y-91024860D01*
X162903878Y-91025949D01*
X162898855Y-91020251D01*
X162894553Y-91013992D01*
X162776275Y-90908611D01*
X162768889Y-90904700D01*
X162669254Y-90851946D01*
X162636274Y-90834484D01*
X162482633Y-90795892D01*
X162475034Y-90795852D01*
X162475033Y-90795852D01*
X162409181Y-90795507D01*
X162324221Y-90795062D01*
X162316841Y-90796834D01*
X162316839Y-90796834D01*
X162177563Y-90830271D01*
X162177560Y-90830272D01*
X162170184Y-90832043D01*
X162029414Y-90904700D01*
X161910039Y-91008838D01*
X161818950Y-91138444D01*
X161816190Y-91145524D01*
X161787453Y-91219231D01*
X161761406Y-91286037D01*
X161760414Y-91293570D01*
X161760414Y-91293571D01*
X161741793Y-91435017D01*
X161740729Y-91443096D01*
X161745356Y-91485001D01*
X161756934Y-91589873D01*
X161758113Y-91600553D01*
X161760723Y-91607684D01*
X161760723Y-91607686D01*
X161803340Y-91724142D01*
X161812553Y-91749319D01*
X161816789Y-91755622D01*
X161816789Y-91755623D01*
X161873461Y-91839959D01*
X161900908Y-91880805D01*
X161906527Y-91885918D01*
X161906528Y-91885919D01*
X162012460Y-91982309D01*
X162018076Y-91987419D01*
X162157293Y-92063008D01*
X162310522Y-92103207D01*
X162394477Y-92104526D01*
X162461319Y-92105576D01*
X162461322Y-92105576D01*
X162468916Y-92105695D01*
X162623332Y-92070329D01*
X162703363Y-92030078D01*
X162758072Y-92002563D01*
X162758075Y-92002561D01*
X162764855Y-91999151D01*
X162770626Y-91994222D01*
X162770629Y-91994220D01*
X162879542Y-91901199D01*
X162879543Y-91901198D01*
X162885314Y-91896269D01*
X162895586Y-91881974D01*
X162951581Y-91838326D01*
X162997909Y-91829500D01*
X163910212Y-91829500D01*
X163929923Y-91831051D01*
X163940206Y-91832680D01*
X163940207Y-91832680D01*
X163950000Y-91834231D01*
X163959796Y-91832679D01*
X163965890Y-91832679D01*
X163982337Y-91833757D01*
X164017044Y-91838326D01*
X164029447Y-91839959D01*
X164061214Y-91848471D01*
X164119927Y-91872791D01*
X164148407Y-91889235D01*
X164198822Y-91927920D01*
X164222080Y-91951178D01*
X164260765Y-92001593D01*
X164277209Y-92030073D01*
X164301529Y-92088786D01*
X164310041Y-92120553D01*
X164312850Y-92141885D01*
X164316243Y-92167659D01*
X164317321Y-92184110D01*
X164317321Y-92190204D01*
X164315769Y-92200000D01*
X164317320Y-92209793D01*
X164317320Y-92209794D01*
X164318949Y-92220077D01*
X164320500Y-92239788D01*
X164320500Y-108460211D01*
X164318949Y-108479921D01*
X164315769Y-108499999D01*
X164317320Y-108509793D01*
X164317320Y-108519708D01*
X164316295Y-108519708D01*
X164316622Y-108534410D01*
X164307785Y-108612841D01*
X164301506Y-108640349D01*
X164268691Y-108734129D01*
X164256449Y-108759550D01*
X164203586Y-108843681D01*
X164185994Y-108865740D01*
X164115740Y-108935994D01*
X164093681Y-108953586D01*
X164009550Y-109006449D01*
X163984129Y-109018691D01*
X163890349Y-109051506D01*
X163862841Y-109057785D01*
X163784410Y-109066622D01*
X163769708Y-109066295D01*
X163769708Y-109067320D01*
X163759793Y-109067320D01*
X163749999Y-109065769D01*
X163732548Y-109068533D01*
X163729922Y-109068949D01*
X163710211Y-109070500D01*
X160055425Y-109070500D01*
X159987304Y-109050498D01*
X159940811Y-108996842D01*
X159930707Y-108926568D01*
X159960201Y-108861988D01*
X159989590Y-108837067D01*
X160012224Y-108823197D01*
X160082774Y-108779964D01*
X160242288Y-108643726D01*
X160253050Y-108634534D01*
X160256806Y-108631326D01*
X160405444Y-108457294D01*
X160525027Y-108262152D01*
X160532921Y-108243096D01*
X160610717Y-108055279D01*
X160610718Y-108055277D01*
X160612611Y-108050706D01*
X160648912Y-107899502D01*
X160664884Y-107832975D01*
X160664885Y-107832969D01*
X160666039Y-107828162D01*
X160678584Y-107668770D01*
X160678931Y-107666396D01*
X160679018Y-107666149D01*
X160679500Y-107660584D01*
X160679500Y-107658029D01*
X160679744Y-107654023D01*
X160682895Y-107613995D01*
X160682895Y-107613994D01*
X160683764Y-107602949D01*
X160684231Y-107600000D01*
X160681051Y-107579922D01*
X160679500Y-107560212D01*
X160679500Y-94255500D01*
X160699502Y-94187379D01*
X160753158Y-94140886D01*
X160805500Y-94129500D01*
X161650141Y-94129500D01*
X161718262Y-94149502D01*
X161745522Y-94173169D01*
X161746672Y-94174501D01*
X161750908Y-94180805D01*
X161756525Y-94185916D01*
X161838585Y-94260584D01*
X161868076Y-94287419D01*
X162007293Y-94363008D01*
X162160522Y-94403207D01*
X162244477Y-94404526D01*
X162311319Y-94405576D01*
X162311322Y-94405576D01*
X162318916Y-94405695D01*
X162473332Y-94370329D01*
X162543742Y-94334917D01*
X162608072Y-94302563D01*
X162608075Y-94302561D01*
X162614855Y-94299151D01*
X162620626Y-94294222D01*
X162620629Y-94294220D01*
X162729536Y-94201204D01*
X162729536Y-94201203D01*
X162735314Y-94196269D01*
X162827755Y-94067624D01*
X162886842Y-93920641D01*
X162909162Y-93763807D01*
X162909307Y-93750000D01*
X162905713Y-93720296D01*
X162893841Y-93622195D01*
X162890276Y-93592733D01*
X162834280Y-93444546D01*
X162793726Y-93385539D01*
X162748855Y-93320251D01*
X162748854Y-93320249D01*
X162744553Y-93313992D01*
X162626275Y-93208611D01*
X162618889Y-93204700D01*
X162492988Y-93138039D01*
X162492989Y-93138039D01*
X162486274Y-93134484D01*
X162332633Y-93095892D01*
X162325034Y-93095852D01*
X162325033Y-93095852D01*
X162259181Y-93095507D01*
X162174221Y-93095062D01*
X162166841Y-93096834D01*
X162166839Y-93096834D01*
X162027563Y-93130271D01*
X162027560Y-93130272D01*
X162020184Y-93132043D01*
X161879414Y-93204700D01*
X161760039Y-93308838D01*
X161755672Y-93315051D01*
X161755667Y-93315057D01*
X161754336Y-93316951D01*
X161753013Y-93318005D01*
X161750589Y-93320697D01*
X161750140Y-93320293D01*
X161698802Y-93361183D01*
X161651250Y-93370500D01*
X160739789Y-93370500D01*
X160720078Y-93368949D01*
X160709795Y-93367320D01*
X160709794Y-93367320D01*
X160700001Y-93365769D01*
X160687650Y-93367725D01*
X160680303Y-93368668D01*
X160547192Y-93381778D01*
X160400255Y-93426351D01*
X160394800Y-93429267D01*
X160394797Y-93429268D01*
X160286238Y-93487294D01*
X160264837Y-93498733D01*
X160146143Y-93596143D01*
X160048733Y-93714837D01*
X160045816Y-93720295D01*
X160045815Y-93720296D01*
X159987520Y-93829360D01*
X159976351Y-93850255D01*
X159931778Y-93997192D01*
X159925240Y-94063578D01*
X159924997Y-94066043D01*
X159923201Y-94077531D01*
X159920982Y-94083851D01*
X159920500Y-94089416D01*
X159920500Y-94090812D01*
X159918630Y-94099498D01*
X159916559Y-94099052D01*
X159897801Y-94154025D01*
X159842186Y-94198155D01*
X159771541Y-94205212D01*
X159707716Y-94172404D01*
X159683793Y-94149502D01*
X159662660Y-94129272D01*
X159615212Y-94098635D01*
X159490640Y-94018200D01*
X159490637Y-94018199D01*
X159485603Y-94014948D01*
X159290122Y-93936166D01*
X159155739Y-93909923D01*
X159087717Y-93896639D01*
X159087714Y-93896639D01*
X159083271Y-93895771D01*
X159077730Y-93895500D01*
X158772341Y-93895500D01*
X158615194Y-93910493D01*
X158609434Y-93912183D01*
X158609433Y-93912183D01*
X158445719Y-93960212D01*
X158412958Y-93969823D01*
X158407619Y-93972573D01*
X158230921Y-94063578D01*
X158230918Y-94063580D01*
X158225590Y-94066324D01*
X158213236Y-94076028D01*
X158183333Y-94099517D01*
X158117407Y-94125867D01*
X158047701Y-94112392D01*
X157996346Y-94063370D01*
X157979500Y-94000431D01*
X157979500Y-93500153D01*
X157999502Y-93432032D01*
X158053158Y-93385539D01*
X158123432Y-93375435D01*
X158173847Y-93394301D01*
X158309355Y-93481797D01*
X158309359Y-93481799D01*
X158314397Y-93485052D01*
X158319960Y-93487294D01*
X158351867Y-93500153D01*
X158509878Y-93563834D01*
X158610024Y-93583391D01*
X158712283Y-93603361D01*
X158712286Y-93603361D01*
X158716729Y-93604229D01*
X158722270Y-93604500D01*
X159027659Y-93604500D01*
X159184806Y-93589507D01*
X159205654Y-93583391D01*
X159381278Y-93531868D01*
X159387042Y-93530177D01*
X159470304Y-93487294D01*
X159569079Y-93436422D01*
X159569082Y-93436420D01*
X159574410Y-93433676D01*
X159648554Y-93375435D01*
X159735432Y-93307192D01*
X159735436Y-93307188D01*
X159740149Y-93303486D01*
X159769140Y-93270077D01*
X159874350Y-93148835D01*
X159874354Y-93148830D01*
X159878281Y-93144304D01*
X159983819Y-92961874D01*
X160052957Y-92762778D01*
X160056480Y-92738484D01*
X160082338Y-92560140D01*
X160082338Y-92560137D01*
X160083199Y-92554200D01*
X160073455Y-92343667D01*
X160071271Y-92334602D01*
X160025482Y-92144607D01*
X160025481Y-92144605D01*
X160024076Y-92138774D01*
X160015792Y-92120553D01*
X159939323Y-91952371D01*
X159936843Y-91946916D01*
X159814904Y-91775014D01*
X159662660Y-91629272D01*
X159560596Y-91563370D01*
X159490640Y-91518200D01*
X159490637Y-91518199D01*
X159485603Y-91514948D01*
X159290122Y-91436166D01*
X159147055Y-91408227D01*
X159087717Y-91396639D01*
X159087714Y-91396639D01*
X159083271Y-91395771D01*
X159077730Y-91395500D01*
X158772341Y-91395500D01*
X158615194Y-91410493D01*
X158609434Y-91412183D01*
X158609433Y-91412183D01*
X158478326Y-91450646D01*
X158412958Y-91469823D01*
X158401530Y-91475709D01*
X158230921Y-91563578D01*
X158230918Y-91563580D01*
X158225590Y-91566324D01*
X158220875Y-91570028D01*
X158183333Y-91599517D01*
X158117407Y-91625867D01*
X158047701Y-91612392D01*
X157996346Y-91563370D01*
X157979500Y-91500431D01*
X157979500Y-91223447D01*
X157999502Y-91155326D01*
X158053158Y-91108833D01*
X158119107Y-91098184D01*
X158177244Y-91104500D01*
X159622756Y-91104500D01*
X159633241Y-91103361D01*
X159676597Y-91098651D01*
X159676598Y-91098651D01*
X159684448Y-91097798D01*
X159691841Y-91095026D01*
X159691843Y-91095026D01*
X159730046Y-91080704D01*
X159819764Y-91047071D01*
X159826943Y-91041691D01*
X159826946Y-91041689D01*
X159914977Y-90975713D01*
X159935404Y-90960404D01*
X160000176Y-90873979D01*
X160016689Y-90851946D01*
X160016691Y-90851943D01*
X160022071Y-90844764D01*
X160055704Y-90755046D01*
X160070026Y-90716843D01*
X160070026Y-90716841D01*
X160072798Y-90709448D01*
X160079500Y-90647756D01*
X160079500Y-89352244D01*
X160072798Y-89290552D01*
X160066781Y-89274500D01*
X160039244Y-89201045D01*
X160022071Y-89155236D01*
X160016691Y-89148057D01*
X160016689Y-89148054D01*
X159940785Y-89046776D01*
X159935404Y-89039596D01*
X159899525Y-89012706D01*
X159826946Y-88958311D01*
X159826943Y-88958309D01*
X159819764Y-88952929D01*
X159705044Y-88909923D01*
X159691843Y-88904974D01*
X159691841Y-88904974D01*
X159684448Y-88902202D01*
X159676598Y-88901349D01*
X159676597Y-88901349D01*
X159626153Y-88895869D01*
X159626152Y-88895869D01*
X159622756Y-88895500D01*
X158177244Y-88895500D01*
X158173848Y-88895869D01*
X158173847Y-88895869D01*
X158123403Y-88901349D01*
X158123402Y-88901349D01*
X158115552Y-88902202D01*
X158108159Y-88904974D01*
X158108157Y-88904974D01*
X158094956Y-88909923D01*
X157980236Y-88952929D01*
X157973057Y-88958309D01*
X157973054Y-88958311D01*
X157957694Y-88969823D01*
X157886092Y-89023486D01*
X157819588Y-89048333D01*
X157750205Y-89033280D01*
X157699975Y-88983106D01*
X157684845Y-88913741D01*
X157692546Y-88878432D01*
X157698478Y-88862608D01*
X157702105Y-88847351D01*
X157707631Y-88796486D01*
X157708000Y-88789672D01*
X157708000Y-88567115D01*
X157703525Y-88551876D01*
X157702135Y-88550671D01*
X157694452Y-88549000D01*
X154710116Y-88549000D01*
X154694877Y-88553475D01*
X154693672Y-88554865D01*
X154692001Y-88562548D01*
X154692001Y-88789669D01*
X154692371Y-88796490D01*
X154697895Y-88847352D01*
X154701521Y-88862604D01*
X154746678Y-88983060D01*
X154755400Y-88998990D01*
X154770570Y-89068347D01*
X154745834Y-89134895D01*
X154689046Y-89177506D01*
X154644881Y-89185500D01*
X153896430Y-89185500D01*
X153828309Y-89165498D01*
X153781816Y-89111842D01*
X153771712Y-89041568D01*
X153774612Y-89027432D01*
X153777342Y-89020641D01*
X153794511Y-88900000D01*
X153799081Y-88867891D01*
X153799081Y-88867888D01*
X153799662Y-88863807D01*
X153799807Y-88850000D01*
X153780776Y-88692733D01*
X153724780Y-88544546D01*
X153702626Y-88512311D01*
X153639355Y-88420251D01*
X153639354Y-88420249D01*
X153635053Y-88413992D01*
X153516775Y-88308611D01*
X153509389Y-88304700D01*
X153383488Y-88238039D01*
X153383489Y-88238039D01*
X153376774Y-88234484D01*
X153223133Y-88195892D01*
X153215534Y-88195852D01*
X153215533Y-88195852D01*
X153149681Y-88195507D01*
X153064721Y-88195062D01*
X153057341Y-88196834D01*
X153057339Y-88196834D01*
X152918063Y-88230271D01*
X152918060Y-88230272D01*
X152910684Y-88232043D01*
X152769914Y-88304700D01*
X152650539Y-88408838D01*
X152559450Y-88538444D01*
X152501906Y-88686037D01*
X152500914Y-88693570D01*
X152500914Y-88693571D01*
X152487365Y-88796490D01*
X152481229Y-88843096D01*
X152487755Y-88902202D01*
X152496687Y-88983106D01*
X152498613Y-89000553D01*
X152501223Y-89007684D01*
X152501223Y-89007686D01*
X152547775Y-89134895D01*
X152553053Y-89149319D01*
X152557289Y-89155622D01*
X152557289Y-89155623D01*
X152586652Y-89199319D01*
X152641408Y-89280805D01*
X152647027Y-89285918D01*
X152647028Y-89285919D01*
X152752960Y-89382309D01*
X152758576Y-89387419D01*
X152765249Y-89391042D01*
X152891116Y-89459383D01*
X152891118Y-89459384D01*
X152897793Y-89463008D01*
X152905142Y-89464936D01*
X152905147Y-89464938D01*
X152915309Y-89467604D01*
X152976124Y-89504238D01*
X152986547Y-89517209D01*
X153010699Y-89551702D01*
X153010704Y-89551708D01*
X153013862Y-89556218D01*
X153149282Y-89691638D01*
X153153790Y-89694795D01*
X153153793Y-89694797D01*
X153279866Y-89783074D01*
X153306160Y-89801485D01*
X153311142Y-89803808D01*
X153311147Y-89803811D01*
X153472137Y-89878882D01*
X153479729Y-89882422D01*
X153485037Y-89883844D01*
X153485039Y-89883845D01*
X153659401Y-89930565D01*
X153659403Y-89930565D01*
X153664716Y-89931989D01*
X153670192Y-89932468D01*
X153670197Y-89932469D01*
X153746470Y-89939142D01*
X153780668Y-89942134D01*
X153786482Y-89943010D01*
X153789351Y-89944018D01*
X153794916Y-89944500D01*
X153802207Y-89944500D01*
X153813189Y-89944979D01*
X153843365Y-89947619D01*
X153843854Y-89947679D01*
X153844049Y-89947679D01*
X153847741Y-89948002D01*
X153855499Y-89949231D01*
X153865292Y-89947680D01*
X153865293Y-89947680D01*
X153875576Y-89946051D01*
X153895287Y-89944500D01*
X154823087Y-89944500D01*
X154891208Y-89964502D01*
X154937701Y-90018158D01*
X154946663Y-90045909D01*
X154960266Y-90114301D01*
X154970753Y-90129995D01*
X154991970Y-90197748D01*
X154970753Y-90270004D01*
X154960266Y-90285699D01*
X154945500Y-90359933D01*
X154942869Y-90359410D01*
X154920661Y-90414453D01*
X154862718Y-90455480D01*
X154832810Y-90461820D01*
X154770546Y-90467267D01*
X154596545Y-90513891D01*
X154524194Y-90547629D01*
X154438271Y-90587695D01*
X154438266Y-90587698D01*
X154433284Y-90590021D01*
X154428777Y-90593177D01*
X154428775Y-90593178D01*
X154290233Y-90690186D01*
X154290230Y-90690188D01*
X154285722Y-90693345D01*
X154158345Y-90820722D01*
X154155188Y-90825230D01*
X154155186Y-90825233D01*
X154058178Y-90963775D01*
X154055021Y-90968284D01*
X154052698Y-90973266D01*
X154052695Y-90973271D01*
X154028639Y-91024860D01*
X153978891Y-91131545D01*
X153932267Y-91305546D01*
X153930001Y-91331447D01*
X153923284Y-91408227D01*
X153922208Y-91415360D01*
X153920982Y-91418851D01*
X153920500Y-91424416D01*
X153920500Y-91434541D01*
X153920021Y-91445523D01*
X153917935Y-91469366D01*
X153917321Y-91474364D01*
X153917321Y-91475202D01*
X153915769Y-91484999D01*
X153917320Y-91494792D01*
X153917320Y-91494793D01*
X153918949Y-91505076D01*
X153920500Y-91524787D01*
X153920500Y-101860212D01*
X153918949Y-101879922D01*
X153915769Y-101900000D01*
X153917320Y-101909795D01*
X153917320Y-101910156D01*
X153915769Y-101929866D01*
X153908156Y-101977935D01*
X153895975Y-102015426D01*
X153869210Y-102067955D01*
X153846038Y-102099847D01*
X153804358Y-102141527D01*
X153772467Y-102164698D01*
X153719937Y-102191464D01*
X153682447Y-102203645D01*
X153663949Y-102206575D01*
X153634377Y-102211258D01*
X153614667Y-102212809D01*
X153614306Y-102212809D01*
X153604511Y-102211258D01*
X153584434Y-102214438D01*
X153564723Y-102215989D01*
X141894300Y-102215989D01*
X141874589Y-102214438D01*
X141864306Y-102212809D01*
X141864305Y-102212809D01*
X141854512Y-102211258D01*
X141844716Y-102212810D01*
X141844286Y-102212810D01*
X141839186Y-102213464D01*
X141691017Y-102228057D01*
X141690907Y-102226945D01*
X141626271Y-102221161D01*
X141570203Y-102177607D01*
X141546584Y-102110654D01*
X141562911Y-102041561D01*
X141570074Y-102030393D01*
X141615634Y-101966990D01*
X141674721Y-101820007D01*
X141689566Y-101715699D01*
X141696460Y-101667257D01*
X141696460Y-101667254D01*
X141697041Y-101663173D01*
X141697186Y-101649366D01*
X141695257Y-101633421D01*
X141692107Y-101607395D01*
X141678155Y-101492099D01*
X141667369Y-101463554D01*
X141662002Y-101392761D01*
X141696141Y-101329923D01*
X141897805Y-101128259D01*
X141960117Y-101094233D01*
X142030932Y-101099298D01*
X142087768Y-101141845D01*
X142105226Y-101174054D01*
X142120959Y-101217049D01*
X142120961Y-101217053D01*
X142123571Y-101224185D01*
X142127807Y-101230488D01*
X142127807Y-101230489D01*
X142190100Y-101323190D01*
X142211926Y-101355671D01*
X142217545Y-101360784D01*
X142217546Y-101360785D01*
X142300389Y-101436166D01*
X142329094Y-101462285D01*
X142468311Y-101537874D01*
X142621540Y-101578073D01*
X142705495Y-101579392D01*
X142772337Y-101580442D01*
X142772340Y-101580442D01*
X142779934Y-101580561D01*
X142934350Y-101545195D01*
X143039921Y-101492099D01*
X143069090Y-101477429D01*
X143069093Y-101477427D01*
X143075873Y-101474017D01*
X143081644Y-101469088D01*
X143081647Y-101469086D01*
X143190560Y-101376065D01*
X143190561Y-101376064D01*
X143196332Y-101371135D01*
X143206604Y-101356840D01*
X143262599Y-101313192D01*
X143308927Y-101304366D01*
X144144079Y-101304366D01*
X144163789Y-101305917D01*
X144183867Y-101309097D01*
X144187255Y-101308560D01*
X144410269Y-101291009D01*
X144415076Y-101289855D01*
X144415082Y-101289854D01*
X144576415Y-101251121D01*
X144631097Y-101237993D01*
X144635668Y-101236100D01*
X144635670Y-101236099D01*
X144707452Y-101206365D01*
X144840912Y-101151084D01*
X145024918Y-101038326D01*
X145030323Y-101035014D01*
X145030326Y-101035012D01*
X145034549Y-101032424D01*
X145067900Y-101003940D01*
X145203483Y-100888140D01*
X145207239Y-100884932D01*
X145216594Y-100873979D01*
X145351514Y-100716009D01*
X145351516Y-100716006D01*
X145354731Y-100712242D01*
X145376913Y-100676045D01*
X145397104Y-100643096D01*
X146540729Y-100643096D01*
X146558113Y-100800553D01*
X146560723Y-100807684D01*
X146560723Y-100807686D01*
X146606829Y-100933676D01*
X146612553Y-100949319D01*
X146616789Y-100955622D01*
X146616789Y-100955623D01*
X146668024Y-101031868D01*
X146700908Y-101080805D01*
X146706527Y-101085918D01*
X146706528Y-101085919D01*
X146775302Y-101148498D01*
X146818076Y-101187419D01*
X146957293Y-101263008D01*
X147110522Y-101303207D01*
X147194477Y-101304526D01*
X147261319Y-101305576D01*
X147261322Y-101305576D01*
X147268916Y-101305695D01*
X147423332Y-101270329D01*
X147514217Y-101224619D01*
X147558072Y-101202563D01*
X147558075Y-101202561D01*
X147564855Y-101199151D01*
X147570626Y-101194222D01*
X147570629Y-101194220D01*
X147679542Y-101101199D01*
X147679543Y-101101198D01*
X147685314Y-101096269D01*
X147695586Y-101081974D01*
X147751581Y-101038326D01*
X147797909Y-101029500D01*
X148181924Y-101029500D01*
X148250045Y-101049502D01*
X148286506Y-101085225D01*
X148293928Y-101096269D01*
X148298260Y-101102716D01*
X148303879Y-101107829D01*
X148303880Y-101107830D01*
X148397680Y-101193181D01*
X148415428Y-101209330D01*
X148554645Y-101284919D01*
X148707874Y-101325118D01*
X148791829Y-101326437D01*
X148858671Y-101327487D01*
X148858674Y-101327487D01*
X148866268Y-101327606D01*
X149020684Y-101292240D01*
X149126247Y-101239148D01*
X149155424Y-101224474D01*
X149155427Y-101224472D01*
X149162207Y-101221062D01*
X149167978Y-101216133D01*
X149167981Y-101216131D01*
X149276888Y-101123115D01*
X149276888Y-101123114D01*
X149282666Y-101118180D01*
X149375107Y-100989535D01*
X149434194Y-100842552D01*
X149441246Y-100793003D01*
X149455933Y-100689802D01*
X149455933Y-100689799D01*
X149456514Y-100685718D01*
X149456659Y-100671911D01*
X149437628Y-100514644D01*
X149381632Y-100366457D01*
X149327646Y-100287906D01*
X149296207Y-100242162D01*
X149296206Y-100242160D01*
X149291905Y-100235903D01*
X149280519Y-100225758D01*
X149244739Y-100193880D01*
X149173627Y-100130522D01*
X149166241Y-100126611D01*
X149040340Y-100059950D01*
X149040341Y-100059950D01*
X149033626Y-100056395D01*
X148879985Y-100017803D01*
X148872386Y-100017763D01*
X148872385Y-100017763D01*
X148806533Y-100017418D01*
X148721573Y-100016973D01*
X148714193Y-100018745D01*
X148714191Y-100018745D01*
X148574915Y-100052182D01*
X148574912Y-100052183D01*
X148567536Y-100053954D01*
X148426766Y-100126611D01*
X148421047Y-100131600D01*
X148314142Y-100224860D01*
X148307391Y-100230749D01*
X148307329Y-100230678D01*
X148249922Y-100266049D01*
X148216728Y-100270500D01*
X147799682Y-100270500D01*
X147731561Y-100250498D01*
X147705114Y-100224860D01*
X147703878Y-100225949D01*
X147698855Y-100220251D01*
X147694553Y-100213992D01*
X147685735Y-100206135D01*
X147641111Y-100166377D01*
X147576275Y-100108611D01*
X147568889Y-100104700D01*
X147479621Y-100057435D01*
X147436274Y-100034484D01*
X147282633Y-99995892D01*
X147275034Y-99995852D01*
X147275033Y-99995852D01*
X147209181Y-99995507D01*
X147124221Y-99995062D01*
X147116841Y-99996834D01*
X147116839Y-99996834D01*
X146977563Y-100030271D01*
X146977560Y-100030272D01*
X146970184Y-100032043D01*
X146829414Y-100104700D01*
X146710039Y-100208838D01*
X146618950Y-100338444D01*
X146600488Y-100385796D01*
X146571187Y-100460951D01*
X146561406Y-100486037D01*
X146560414Y-100493570D01*
X146560414Y-100493571D01*
X146544320Y-100615820D01*
X146540729Y-100643096D01*
X145397104Y-100643096D01*
X145441084Y-100571325D01*
X145473391Y-100518605D01*
X145550592Y-100332228D01*
X145558406Y-100313363D01*
X145558407Y-100313361D01*
X145560300Y-100308790D01*
X145580450Y-100224860D01*
X145612161Y-100092775D01*
X145612162Y-100092769D01*
X145613316Y-100087962D01*
X145625701Y-99930588D01*
X145626074Y-99928041D01*
X145626191Y-99927709D01*
X145626673Y-99922144D01*
X145626673Y-99919407D01*
X145626689Y-99919037D01*
X145626960Y-99914589D01*
X145627527Y-99907392D01*
X145630867Y-99864948D01*
X145631404Y-99861560D01*
X145628224Y-99841482D01*
X145626673Y-99821772D01*
X145626673Y-92392616D01*
X145628224Y-92372905D01*
X145629853Y-92362622D01*
X145629853Y-92362621D01*
X145631404Y-92352828D01*
X145629852Y-92343031D01*
X145629852Y-92342949D01*
X145628827Y-92334602D01*
X145620827Y-92243158D01*
X145615457Y-92181771D01*
X145578486Y-92043794D01*
X145572438Y-92021221D01*
X145572437Y-92021219D01*
X145571015Y-92015911D01*
X145564791Y-92002563D01*
X145500773Y-91865275D01*
X145500770Y-91865270D01*
X145498447Y-91860288D01*
X145495232Y-91855696D01*
X145403117Y-91724142D01*
X145403115Y-91724139D01*
X145399958Y-91719631D01*
X145278541Y-91598214D01*
X145274033Y-91595057D01*
X145274030Y-91595055D01*
X145142393Y-91502882D01*
X145142391Y-91502881D01*
X145137884Y-91499725D01*
X145132902Y-91497402D01*
X145132897Y-91497399D01*
X144987243Y-91429480D01*
X144987242Y-91429480D01*
X144982261Y-91427157D01*
X144976953Y-91425735D01*
X144976951Y-91425734D01*
X144911613Y-91408227D01*
X144816401Y-91382715D01*
X144736774Y-91375749D01*
X144723558Y-91374593D01*
X144715449Y-91373370D01*
X144711494Y-91371981D01*
X144705929Y-91371499D01*
X144693700Y-91371499D01*
X144682720Y-91371020D01*
X144670465Y-91369948D01*
X144663569Y-91369345D01*
X144655223Y-91368320D01*
X144655141Y-91368320D01*
X144645344Y-91366768D01*
X144635551Y-91368319D01*
X144635550Y-91368319D01*
X144625267Y-91369948D01*
X144605556Y-91371499D01*
X141383695Y-91371499D01*
X141315574Y-91351497D01*
X141269081Y-91297841D01*
X141258977Y-91227567D01*
X141288471Y-91162987D01*
X141346210Y-91125204D01*
X141398746Y-91108833D01*
X141519470Y-91071214D01*
X141522940Y-91069652D01*
X141522946Y-91069650D01*
X141705933Y-90987294D01*
X141769289Y-90958780D01*
X141772546Y-90956811D01*
X141772550Y-90956809D01*
X141977960Y-90832634D01*
X142003734Y-90817053D01*
X142028382Y-90797743D01*
X142216383Y-90650453D01*
X142216386Y-90650450D01*
X142219386Y-90648100D01*
X142413100Y-90454386D01*
X142481807Y-90366688D01*
X142579710Y-90241725D01*
X142579712Y-90241722D01*
X142582053Y-90238734D01*
X142651038Y-90124619D01*
X142721809Y-90007550D01*
X142721811Y-90007546D01*
X142723780Y-90004289D01*
X142812114Y-89808019D01*
X142834650Y-89757946D01*
X142834652Y-89757940D01*
X142836214Y-89754470D01*
X142909731Y-89518544D01*
X142949094Y-89459459D01*
X142958823Y-89452184D01*
X142964855Y-89449151D01*
X143068196Y-89360889D01*
X143079536Y-89351204D01*
X143079536Y-89351203D01*
X143085314Y-89346269D01*
X143177755Y-89217624D01*
X143236842Y-89070641D01*
X143251431Y-88968132D01*
X143258581Y-88917891D01*
X143258581Y-88917888D01*
X143259162Y-88913807D01*
X143259307Y-88900000D01*
X143258771Y-88895566D01*
X143246781Y-88796490D01*
X143240276Y-88742733D01*
X143184280Y-88594546D01*
X143164103Y-88565188D01*
X143098855Y-88470251D01*
X143098854Y-88470249D01*
X143094553Y-88463992D01*
X142976275Y-88358611D01*
X142968889Y-88354700D01*
X142842988Y-88288039D01*
X142842989Y-88288039D01*
X142836274Y-88284484D01*
X142682633Y-88245892D01*
X142675034Y-88245852D01*
X142675033Y-88245852D01*
X142609181Y-88245507D01*
X142524221Y-88245062D01*
X142516841Y-88246834D01*
X142516839Y-88246834D01*
X142377563Y-88280271D01*
X142377560Y-88280272D01*
X142370184Y-88282043D01*
X142229414Y-88354700D01*
X142110039Y-88458838D01*
X142105672Y-88465051D01*
X142105668Y-88465056D01*
X142103542Y-88468081D01*
X142101430Y-88469763D01*
X142100589Y-88470697D01*
X142100433Y-88470557D01*
X142048007Y-88512311D01*
X141977375Y-88519496D01*
X141914071Y-88487353D01*
X141904115Y-88475740D01*
X141903878Y-88475949D01*
X141898855Y-88470251D01*
X141894553Y-88463992D01*
X141776275Y-88358611D01*
X141768889Y-88354700D01*
X141642988Y-88288039D01*
X141642989Y-88288039D01*
X141636274Y-88284484D01*
X141482633Y-88245892D01*
X141475034Y-88245852D01*
X141475033Y-88245852D01*
X141409181Y-88245507D01*
X141324221Y-88245062D01*
X141316841Y-88246834D01*
X141316839Y-88246834D01*
X141177563Y-88280271D01*
X141177560Y-88280272D01*
X141170184Y-88282043D01*
X141029414Y-88354700D01*
X140910039Y-88458838D01*
X140905672Y-88465051D01*
X140905667Y-88465057D01*
X140871430Y-88513771D01*
X140815896Y-88558003D01*
X140745264Y-88565188D01*
X140725846Y-88555829D01*
X140694452Y-88549000D01*
X137710116Y-88549000D01*
X137694877Y-88553475D01*
X137693672Y-88554865D01*
X137692001Y-88562548D01*
X137692001Y-88789669D01*
X137692371Y-88796490D01*
X137697895Y-88847352D01*
X137701521Y-88862604D01*
X137746676Y-88983054D01*
X137755214Y-88998649D01*
X137831715Y-89100724D01*
X137844272Y-89113281D01*
X137895065Y-89151348D01*
X137937580Y-89208208D01*
X137945500Y-89252175D01*
X137945500Y-89544227D01*
X137925498Y-89612348D01*
X137871842Y-89658841D01*
X137801568Y-89668945D01*
X137736988Y-89639451D01*
X137704801Y-89596380D01*
X137636843Y-89446916D01*
X137524314Y-89288280D01*
X137518370Y-89279900D01*
X137518369Y-89279899D01*
X137514904Y-89275014D01*
X137362660Y-89129272D01*
X137282781Y-89077695D01*
X137190640Y-89018200D01*
X137190637Y-89018199D01*
X137185603Y-89014948D01*
X136990122Y-88936166D01*
X136830397Y-88904974D01*
X136787717Y-88896639D01*
X136787714Y-88896639D01*
X136783271Y-88895771D01*
X136777730Y-88895500D01*
X136472341Y-88895500D01*
X136315194Y-88910493D01*
X136309434Y-88912183D01*
X136309433Y-88912183D01*
X136118722Y-88968132D01*
X136112958Y-88969823D01*
X136056989Y-88998649D01*
X135930921Y-89063578D01*
X135930918Y-89063580D01*
X135925590Y-89066324D01*
X135895533Y-89089934D01*
X135764568Y-89192808D01*
X135764564Y-89192812D01*
X135759851Y-89196514D01*
X135755920Y-89201044D01*
X135755919Y-89201045D01*
X135625650Y-89351165D01*
X135625646Y-89351170D01*
X135621719Y-89355696D01*
X135516181Y-89538126D01*
X135447043Y-89737222D01*
X135446183Y-89743155D01*
X135446182Y-89743158D01*
X135418651Y-89933039D01*
X135416801Y-89945800D01*
X135426545Y-90156333D01*
X135445619Y-90235480D01*
X135474202Y-90354079D01*
X135475924Y-90361226D01*
X135478406Y-90366684D01*
X135478407Y-90366688D01*
X135523920Y-90466788D01*
X135563157Y-90553084D01*
X135685096Y-90724986D01*
X135837340Y-90870728D01*
X135842375Y-90873979D01*
X136009360Y-90981800D01*
X136009363Y-90981801D01*
X136014397Y-90985052D01*
X136209878Y-91063834D01*
X136317418Y-91084835D01*
X136412283Y-91103361D01*
X136412286Y-91103361D01*
X136416729Y-91104229D01*
X136422270Y-91104500D01*
X136727659Y-91104500D01*
X136884806Y-91089507D01*
X136900732Y-91084835D01*
X137081278Y-91031868D01*
X137087042Y-91030177D01*
X137272956Y-90934425D01*
X137342674Y-90921016D01*
X137408574Y-90947429D01*
X137451221Y-91009865D01*
X137475170Y-91088814D01*
X137479989Y-91113040D01*
X137492590Y-91240979D01*
X137492154Y-91255778D01*
X137492809Y-91255778D01*
X137492809Y-91265696D01*
X137491258Y-91275489D01*
X137492809Y-91285281D01*
X137494438Y-91295566D01*
X137495989Y-91315277D01*
X137495989Y-91484021D01*
X137475987Y-91552142D01*
X137422331Y-91598635D01*
X137352057Y-91608739D01*
X137301642Y-91589874D01*
X137243198Y-91552136D01*
X137190640Y-91518200D01*
X137190637Y-91518199D01*
X137185603Y-91514948D01*
X136990122Y-91436166D01*
X136847055Y-91408227D01*
X136787717Y-91396639D01*
X136787714Y-91396639D01*
X136783271Y-91395771D01*
X136777730Y-91395500D01*
X136472341Y-91395500D01*
X136315194Y-91410493D01*
X136309434Y-91412183D01*
X136309433Y-91412183D01*
X136178326Y-91450646D01*
X136112958Y-91469823D01*
X136101530Y-91475709D01*
X135930921Y-91563578D01*
X135930918Y-91563580D01*
X135925590Y-91566324D01*
X135882015Y-91600553D01*
X135764568Y-91692808D01*
X135764564Y-91692812D01*
X135759851Y-91696514D01*
X135755920Y-91701044D01*
X135755919Y-91701045D01*
X135625650Y-91851165D01*
X135625646Y-91851170D01*
X135621719Y-91855696D01*
X135516181Y-92038126D01*
X135447043Y-92237222D01*
X135446183Y-92243155D01*
X135446182Y-92243158D01*
X135431609Y-92343667D01*
X135416801Y-92445800D01*
X135426545Y-92656333D01*
X135427949Y-92662158D01*
X135474424Y-92855000D01*
X135475924Y-92861226D01*
X135478404Y-92866681D01*
X135478405Y-92866683D01*
X135509061Y-92934106D01*
X135519049Y-93004397D01*
X135489448Y-93068928D01*
X135485333Y-93073341D01*
X135477806Y-93078809D01*
X135473562Y-93084651D01*
X135469182Y-93089483D01*
X135469146Y-93089503D01*
X135468991Y-93089694D01*
X135262159Y-93317897D01*
X135260318Y-93320380D01*
X135260315Y-93320383D01*
X135177511Y-93432032D01*
X135070383Y-93576477D01*
X134904875Y-93852609D01*
X134903561Y-93855388D01*
X134903559Y-93855391D01*
X134768550Y-94140842D01*
X134768546Y-94140851D01*
X134767230Y-94143634D01*
X134725385Y-94260584D01*
X134666958Y-94423877D01*
X134658774Y-94446749D01*
X134650284Y-94480643D01*
X134586847Y-94733898D01*
X134580550Y-94759035D01*
X134533313Y-95077485D01*
X134533161Y-95080569D01*
X134533161Y-95080574D01*
X134518201Y-95385104D01*
X134518189Y-95385216D01*
X134518194Y-95385243D01*
X134517867Y-95391902D01*
X134516738Y-95399032D01*
X134518289Y-95408824D01*
X134519918Y-95419109D01*
X134521469Y-95438820D01*
X134521469Y-99961181D01*
X134519918Y-99980891D01*
X134516738Y-100000969D01*
X134517779Y-100007543D01*
X134533928Y-100233325D01*
X134537664Y-100250498D01*
X134580419Y-100447040D01*
X134583445Y-100460951D01*
X134585017Y-100465166D01*
X134585018Y-100465169D01*
X134663281Y-100675001D01*
X134664852Y-100679213D01*
X134776493Y-100883668D01*
X134779194Y-100887276D01*
X134909686Y-101061592D01*
X134916095Y-101070154D01*
X135080815Y-101234874D01*
X135084418Y-101237571D01*
X135084419Y-101237572D01*
X135155802Y-101291009D01*
X135267301Y-101374476D01*
X135307889Y-101396639D01*
X135449597Y-101474017D01*
X135471756Y-101486117D01*
X135657176Y-101555275D01*
X135714011Y-101597821D01*
X135738822Y-101664341D01*
X135723731Y-101733715D01*
X135708309Y-101755910D01*
X135646567Y-101827061D01*
X135621719Y-101855696D01*
X135516181Y-102038126D01*
X135447043Y-102237222D01*
X135446183Y-102243155D01*
X135446182Y-102243158D01*
X135417707Y-102439548D01*
X135416801Y-102445800D01*
X135426545Y-102656333D01*
X135427949Y-102662158D01*
X135470213Y-102837527D01*
X135475924Y-102861226D01*
X135478406Y-102866684D01*
X135478407Y-102866688D01*
X135529800Y-102979720D01*
X135563157Y-103053084D01*
X135685096Y-103224986D01*
X135837340Y-103370728D01*
X135842375Y-103373979D01*
X136009360Y-103481800D01*
X136009363Y-103481801D01*
X136014397Y-103485052D01*
X136209878Y-103563834D01*
X136330650Y-103587419D01*
X136412283Y-103603361D01*
X136412286Y-103603361D01*
X136416729Y-103604229D01*
X136422270Y-103604500D01*
X136727659Y-103604500D01*
X136884806Y-103589507D01*
X136891924Y-103587419D01*
X137081278Y-103531868D01*
X137087042Y-103530177D01*
X137182904Y-103480805D01*
X137187801Y-103478283D01*
X137257520Y-103464874D01*
X137303673Y-103478535D01*
X137443341Y-103551241D01*
X137759039Y-103682007D01*
X137761659Y-103682833D01*
X137761667Y-103682836D01*
X137857390Y-103713017D01*
X137916343Y-103752577D01*
X137944550Y-103817730D01*
X137945501Y-103833185D01*
X137945501Y-104010066D01*
X137960266Y-104084301D01*
X137968481Y-104096595D01*
X137970753Y-104099995D01*
X137991970Y-104167748D01*
X137970753Y-104240004D01*
X137960266Y-104255699D01*
X137945500Y-104329933D01*
X137945500Y-104544226D01*
X137925498Y-104612347D01*
X137871842Y-104658840D01*
X137801568Y-104668944D01*
X137736988Y-104639450D01*
X137704799Y-104596377D01*
X137693789Y-104572161D01*
X137636843Y-104446916D01*
X137514904Y-104275014D01*
X137362660Y-104129272D01*
X137312052Y-104096595D01*
X137190640Y-104018200D01*
X137190637Y-104018199D01*
X137185603Y-104014948D01*
X136990122Y-103936166D01*
X136855739Y-103909923D01*
X136787717Y-103896639D01*
X136787714Y-103896639D01*
X136783271Y-103895771D01*
X136777730Y-103895500D01*
X136472341Y-103895500D01*
X136315194Y-103910493D01*
X136309434Y-103912183D01*
X136309433Y-103912183D01*
X136231600Y-103935017D01*
X136112958Y-103969823D01*
X136107619Y-103972573D01*
X135930921Y-104063578D01*
X135930918Y-104063580D01*
X135925590Y-104066324D01*
X135889569Y-104094619D01*
X135764568Y-104192808D01*
X135764564Y-104192812D01*
X135759851Y-104196514D01*
X135755920Y-104201044D01*
X135755919Y-104201045D01*
X135625650Y-104351165D01*
X135625646Y-104351170D01*
X135621719Y-104355696D01*
X135516181Y-104538126D01*
X135447043Y-104737222D01*
X135446183Y-104743155D01*
X135446182Y-104743158D01*
X135431609Y-104843667D01*
X135416801Y-104945800D01*
X135426545Y-105156333D01*
X135427949Y-105162158D01*
X135473172Y-105349805D01*
X135475924Y-105361226D01*
X135478406Y-105366684D01*
X135478407Y-105366688D01*
X135505978Y-105427327D01*
X135563157Y-105553084D01*
X135627864Y-105644304D01*
X135670620Y-105704578D01*
X135685096Y-105724986D01*
X135837340Y-105870728D01*
X135842375Y-105873979D01*
X136009360Y-105981800D01*
X136009363Y-105981801D01*
X136014397Y-105985052D01*
X136209878Y-106063834D01*
X136332688Y-106087817D01*
X136412283Y-106103361D01*
X136412286Y-106103361D01*
X136416729Y-106104229D01*
X136422270Y-106104500D01*
X136727659Y-106104500D01*
X136884806Y-106089507D01*
X137087042Y-106030177D01*
X137174094Y-105985342D01*
X137269079Y-105936422D01*
X137269082Y-105936420D01*
X137274410Y-105933676D01*
X137350408Y-105873979D01*
X137435432Y-105807192D01*
X137435436Y-105807188D01*
X137440149Y-105803486D01*
X137453696Y-105787875D01*
X137574350Y-105648835D01*
X137574354Y-105648830D01*
X137578281Y-105644304D01*
X137683819Y-105461874D01*
X137722736Y-105349805D01*
X137763978Y-105292015D01*
X137829916Y-105265696D01*
X137899616Y-105279204D01*
X137950948Y-105328251D01*
X137957887Y-105342341D01*
X137960266Y-105354301D01*
X137967159Y-105364618D01*
X137967160Y-105364619D01*
X137986459Y-105393501D01*
X138016516Y-105438484D01*
X138100699Y-105494734D01*
X138174933Y-105509500D01*
X138216451Y-105509500D01*
X139727642Y-105509499D01*
X139795763Y-105529501D01*
X139842256Y-105583157D01*
X139852360Y-105653431D01*
X139839737Y-105691844D01*
X139838167Y-105694078D01*
X139824502Y-105729128D01*
X139792403Y-105811458D01*
X139780623Y-105841671D01*
X139779631Y-105849204D01*
X139779631Y-105849205D01*
X139761452Y-105987294D01*
X139759946Y-105998730D01*
X139763418Y-106030177D01*
X139775912Y-106143340D01*
X139777330Y-106156187D01*
X139779940Y-106163318D01*
X139779940Y-106163320D01*
X139818689Y-106269206D01*
X139831770Y-106304953D01*
X139836006Y-106311256D01*
X139836006Y-106311257D01*
X139903826Y-106412183D01*
X139920125Y-106436439D01*
X139925744Y-106441552D01*
X139925745Y-106441553D01*
X139936526Y-106451363D01*
X140037293Y-106543053D01*
X140176510Y-106618642D01*
X140329739Y-106658841D01*
X140413694Y-106660160D01*
X140480536Y-106661210D01*
X140480539Y-106661210D01*
X140488133Y-106661329D01*
X140642549Y-106625963D01*
X140712959Y-106590551D01*
X140777289Y-106558197D01*
X140777292Y-106558195D01*
X140784072Y-106554785D01*
X140789843Y-106549856D01*
X140789846Y-106549854D01*
X140898753Y-106456838D01*
X140898753Y-106456837D01*
X140904531Y-106451903D01*
X140996972Y-106323258D01*
X141037594Y-106222209D01*
X141081561Y-106166465D01*
X141148686Y-106143340D01*
X141217657Y-106160177D01*
X141266577Y-106211630D01*
X141280501Y-106269205D01*
X141280501Y-106830066D01*
X141284565Y-106850498D01*
X141290853Y-106882112D01*
X141295266Y-106904301D01*
X141302162Y-106914621D01*
X141308762Y-106924499D01*
X141329976Y-106992252D01*
X141311192Y-107060719D01*
X141258375Y-107108161D01*
X141203996Y-107120500D01*
X137905500Y-107120500D01*
X137837379Y-107100498D01*
X137790886Y-107046842D01*
X137779500Y-106994500D01*
X137779500Y-106852244D01*
X137772798Y-106790552D01*
X137722071Y-106655236D01*
X137716691Y-106648057D01*
X137716689Y-106648054D01*
X137640785Y-106546776D01*
X137635404Y-106539596D01*
X137542306Y-106469823D01*
X137526946Y-106458311D01*
X137526943Y-106458309D01*
X137519764Y-106452929D01*
X137405044Y-106409923D01*
X137391843Y-106404974D01*
X137391841Y-106404974D01*
X137384448Y-106402202D01*
X137376598Y-106401349D01*
X137376597Y-106401349D01*
X137326153Y-106395869D01*
X137326152Y-106395869D01*
X137322756Y-106395500D01*
X135877244Y-106395500D01*
X135873848Y-106395869D01*
X135873847Y-106395869D01*
X135823403Y-106401349D01*
X135823402Y-106401349D01*
X135815552Y-106402202D01*
X135808159Y-106404974D01*
X135808157Y-106404974D01*
X135794956Y-106409923D01*
X135680236Y-106452929D01*
X135673057Y-106458309D01*
X135673054Y-106458311D01*
X135657694Y-106469823D01*
X135564596Y-106539596D01*
X135559215Y-106546776D01*
X135483311Y-106648054D01*
X135483309Y-106648057D01*
X135477929Y-106655236D01*
X135427202Y-106790552D01*
X135420500Y-106852244D01*
X135420500Y-108147756D01*
X135420869Y-108151152D01*
X135420869Y-108151153D01*
X135423927Y-108179297D01*
X135427202Y-108209448D01*
X135477929Y-108344764D01*
X135483309Y-108351943D01*
X135483311Y-108351946D01*
X135525086Y-108407686D01*
X135564596Y-108460404D01*
X135571776Y-108465785D01*
X135673054Y-108541689D01*
X135673057Y-108541691D01*
X135680236Y-108547071D01*
X135765210Y-108578926D01*
X135808157Y-108595026D01*
X135808159Y-108595026D01*
X135815552Y-108597798D01*
X135823402Y-108598651D01*
X135823403Y-108598651D01*
X135873847Y-108604131D01*
X135877244Y-108604500D01*
X137322756Y-108604500D01*
X137326153Y-108604131D01*
X137376597Y-108598651D01*
X137376598Y-108598651D01*
X137384448Y-108597798D01*
X137391841Y-108595026D01*
X137391843Y-108595026D01*
X137434790Y-108578926D01*
X137519764Y-108547071D01*
X137526943Y-108541691D01*
X137526946Y-108541689D01*
X137628224Y-108465785D01*
X137635404Y-108460404D01*
X137674914Y-108407686D01*
X137716689Y-108351946D01*
X137716691Y-108351943D01*
X137722071Y-108344764D01*
X137772798Y-108209448D01*
X137776074Y-108179297D01*
X137779131Y-108151153D01*
X137779131Y-108151152D01*
X137779500Y-108147756D01*
X137779500Y-108005500D01*
X137799502Y-107937379D01*
X137853158Y-107890886D01*
X137905500Y-107879500D01*
X140157568Y-107879500D01*
X140225689Y-107899502D01*
X140272182Y-107953158D01*
X140282286Y-108023432D01*
X140274961Y-108051269D01*
X140264167Y-108078954D01*
X140264166Y-108078958D01*
X140261406Y-108086037D01*
X140260414Y-108093570D01*
X140260414Y-108093571D01*
X140243103Y-108225066D01*
X140240729Y-108243096D01*
X140241563Y-108250646D01*
X140252747Y-108351946D01*
X140258113Y-108400553D01*
X140260723Y-108407684D01*
X140260723Y-108407686D01*
X140309761Y-108541689D01*
X140312553Y-108549319D01*
X140316789Y-108555622D01*
X140316789Y-108555623D01*
X140373723Y-108640349D01*
X140400908Y-108680805D01*
X140406527Y-108685918D01*
X140406528Y-108685919D01*
X140487448Y-108759550D01*
X140518076Y-108787419D01*
X140657293Y-108863008D01*
X140810522Y-108903207D01*
X140894477Y-108904526D01*
X140961319Y-108905576D01*
X140961322Y-108905576D01*
X140968916Y-108905695D01*
X141123332Y-108870329D01*
X141206155Y-108828674D01*
X141258072Y-108802563D01*
X141258075Y-108802561D01*
X141264521Y-108799319D01*
X142785041Y-108799319D01*
X142794923Y-108811809D01*
X142832259Y-108836756D01*
X142842371Y-108842247D01*
X143023081Y-108919885D01*
X143034014Y-108923437D01*
X143225844Y-108966845D01*
X143237253Y-108968347D01*
X143433783Y-108976068D01*
X143445265Y-108975466D01*
X143639905Y-108947245D01*
X143651101Y-108944557D01*
X143837343Y-108881336D01*
X143847840Y-108876662D01*
X143966401Y-108810266D01*
X143976264Y-108800189D01*
X143973309Y-108792519D01*
X143392812Y-108212022D01*
X143378868Y-108204408D01*
X143377035Y-108204539D01*
X143370420Y-108208790D01*
X142791237Y-108787973D01*
X142785041Y-108799319D01*
X141264521Y-108799319D01*
X141264855Y-108799151D01*
X141270626Y-108794222D01*
X141270629Y-108794220D01*
X141379536Y-108701204D01*
X141379536Y-108701203D01*
X141385314Y-108696269D01*
X141468345Y-108580720D01*
X141524337Y-108537074D01*
X141535783Y-108533173D01*
X141602881Y-108513842D01*
X141606286Y-108512861D01*
X141609549Y-108511510D01*
X141609556Y-108511507D01*
X141824571Y-108422445D01*
X141824576Y-108422442D01*
X141827839Y-108421091D01*
X141852094Y-108407686D01*
X142034636Y-108306798D01*
X142037725Y-108305091D01*
X142146769Y-108227720D01*
X142213899Y-108204613D01*
X142282866Y-108221468D01*
X142334107Y-108277729D01*
X142392173Y-108403685D01*
X142397922Y-108413642D01*
X142407850Y-108427690D01*
X142418439Y-108436078D01*
X142431740Y-108429050D01*
X143290905Y-107569885D01*
X143353217Y-107535859D01*
X143424032Y-107540924D01*
X143469095Y-107569885D01*
X144328603Y-108429393D01*
X144340983Y-108436153D01*
X144347563Y-108431227D01*
X144416662Y-108307840D01*
X144421336Y-108297343D01*
X144484557Y-108111101D01*
X144487245Y-108099905D01*
X144515762Y-107903224D01*
X144516392Y-107895843D01*
X144517757Y-107843704D01*
X144517514Y-107836305D01*
X144499330Y-107638397D01*
X144497233Y-107627083D01*
X144443846Y-107437789D01*
X144439724Y-107427050D01*
X144350180Y-107245473D01*
X144351402Y-107244870D01*
X144334614Y-107182794D01*
X144356074Y-107115119D01*
X144410716Y-107069789D01*
X144460585Y-107059500D01*
X144985959Y-107059499D01*
X145000066Y-107059499D01*
X145035818Y-107052388D01*
X145062126Y-107047156D01*
X145062128Y-107047155D01*
X145074301Y-107044734D01*
X145089996Y-107034247D01*
X145157748Y-107013030D01*
X145230004Y-107034247D01*
X145245699Y-107044734D01*
X145319933Y-107059500D01*
X145794923Y-107059500D01*
X146270066Y-107059499D01*
X146305818Y-107052388D01*
X146332126Y-107047156D01*
X146332128Y-107047155D01*
X146344301Y-107044734D01*
X146359996Y-107034247D01*
X146427748Y-107013030D01*
X146500004Y-107034247D01*
X146515699Y-107044734D01*
X146589933Y-107059500D01*
X147064923Y-107059500D01*
X147540066Y-107059499D01*
X147575818Y-107052388D01*
X147602126Y-107047156D01*
X147602128Y-107047155D01*
X147614301Y-107044734D01*
X147629996Y-107034247D01*
X147697748Y-107013030D01*
X147770004Y-107034247D01*
X147785699Y-107044734D01*
X147859933Y-107059500D01*
X148334923Y-107059500D01*
X148810066Y-107059499D01*
X148845818Y-107052388D01*
X148872126Y-107047156D01*
X148872128Y-107047155D01*
X148884301Y-107044734D01*
X148899996Y-107034247D01*
X148967748Y-107013030D01*
X149040004Y-107034247D01*
X149055699Y-107044734D01*
X149129933Y-107059500D01*
X149604923Y-107059500D01*
X150080066Y-107059499D01*
X150115818Y-107052388D01*
X150142126Y-107047156D01*
X150142128Y-107047155D01*
X150154301Y-107044734D01*
X150169996Y-107034247D01*
X150237748Y-107013030D01*
X150310004Y-107034247D01*
X150325699Y-107044734D01*
X150399933Y-107059500D01*
X150414111Y-107059500D01*
X150941640Y-107059499D01*
X151009760Y-107079501D01*
X151056253Y-107133156D01*
X151066357Y-107203430D01*
X151053148Y-107244166D01*
X150971449Y-107399452D01*
X150967048Y-107410076D01*
X150908724Y-107597910D01*
X150906332Y-107609164D01*
X150883215Y-107804479D01*
X150882914Y-107815980D01*
X150895777Y-108012233D01*
X150897577Y-108023601D01*
X150945991Y-108214228D01*
X150949829Y-108225066D01*
X151032173Y-108403685D01*
X151037922Y-108413642D01*
X151047850Y-108427690D01*
X151058439Y-108436078D01*
X151071740Y-108429050D01*
X151930905Y-107569885D01*
X151993217Y-107535859D01*
X152064032Y-107540924D01*
X152109095Y-107569885D01*
X152939946Y-108400736D01*
X152973972Y-108463048D01*
X152968907Y-108533863D01*
X152939946Y-108578926D01*
X152758926Y-108759946D01*
X152696614Y-108793972D01*
X152625799Y-108788907D01*
X152580736Y-108759946D01*
X152032812Y-108212022D01*
X152018868Y-108204408D01*
X152017035Y-108204539D01*
X152010420Y-108208790D01*
X151431237Y-108787973D01*
X151425041Y-108799319D01*
X151434923Y-108811809D01*
X151472259Y-108836756D01*
X151482371Y-108842247D01*
X151663081Y-108919885D01*
X151674014Y-108923437D01*
X151865844Y-108966845D01*
X151877253Y-108968347D01*
X152075947Y-108976153D01*
X152143230Y-108998814D01*
X152187581Y-109054253D01*
X152197001Y-109102056D01*
X152197001Y-109570000D01*
X152176999Y-109638121D01*
X152123343Y-109684614D01*
X152071001Y-109696000D01*
X130380000Y-109696000D01*
X130311879Y-109675998D01*
X130265386Y-109622342D01*
X130254000Y-109570000D01*
X130254000Y-87830000D01*
X130274002Y-87761879D01*
X130327658Y-87715386D01*
X130380000Y-87704000D01*
X137566000Y-87704000D01*
X137634121Y-87724002D01*
G37*
%TD.AperFunction*%
%TA.AperFunction,Conductor*%
G36*
X154864892Y-101271220D02*
G01*
X154871959Y-101274997D01*
X154878894Y-101278704D01*
X154929543Y-101328453D01*
X154945501Y-101389827D01*
X154945501Y-101470066D01*
X154949006Y-101487688D01*
X154955075Y-101518200D01*
X154960266Y-101544301D01*
X154970753Y-101559995D01*
X154991970Y-101627748D01*
X154970753Y-101700004D01*
X154960266Y-101715699D01*
X154945500Y-101789933D01*
X154945501Y-102740066D01*
X154960266Y-102814301D01*
X154970753Y-102829995D01*
X154991970Y-102897748D01*
X154970753Y-102970004D01*
X154960266Y-102985699D01*
X154945500Y-103059933D01*
X154945501Y-104010066D01*
X154960266Y-104084301D01*
X154968481Y-104096595D01*
X154970753Y-104099995D01*
X154991970Y-104167748D01*
X154970753Y-104240004D01*
X154960266Y-104255699D01*
X154945500Y-104329933D01*
X154945501Y-105280066D01*
X154960266Y-105354301D01*
X154967161Y-105364621D01*
X154967162Y-105364622D01*
X154986459Y-105393501D01*
X155016516Y-105438484D01*
X155100699Y-105494734D01*
X155174933Y-105509500D01*
X155301358Y-105509500D01*
X156315615Y-105509499D01*
X156383736Y-105529501D01*
X156404710Y-105546404D01*
X157781030Y-106922724D01*
X157815056Y-106985036D01*
X157810963Y-107053152D01*
X157809178Y-107058293D01*
X157747043Y-107237222D01*
X157746183Y-107243155D01*
X157746182Y-107243158D01*
X157743558Y-107261257D01*
X157713987Y-107325803D01*
X157654215Y-107364115D01*
X157583219Y-107364029D01*
X157535784Y-107337907D01*
X157428127Y-107243493D01*
X157428113Y-107243482D01*
X157425018Y-107240768D01*
X157421592Y-107238479D01*
X157421587Y-107238475D01*
X157245025Y-107120500D01*
X157228100Y-107109191D01*
X157224401Y-107107367D01*
X157224396Y-107107364D01*
X157083410Y-107037838D01*
X157015692Y-107004443D01*
X156986401Y-106994500D01*
X156795341Y-106929644D01*
X156795337Y-106929643D01*
X156791428Y-106928316D01*
X156787384Y-106927512D01*
X156787378Y-106927510D01*
X156563200Y-106882918D01*
X156563197Y-106882918D01*
X156559147Y-106882112D01*
X156389187Y-106870973D01*
X156386558Y-106870773D01*
X156386112Y-106870734D01*
X156386104Y-106870734D01*
X156383406Y-106870500D01*
X156383430Y-106870221D01*
X156382023Y-106869741D01*
X156381973Y-106870500D01*
X156337781Y-106867604D01*
X156335250Y-106867321D01*
X156333467Y-106867321D01*
X156332019Y-106867226D01*
X156322821Y-106865769D01*
X156313028Y-106867320D01*
X156313027Y-106867320D01*
X156302744Y-106868949D01*
X156283033Y-106870500D01*
X154499000Y-106870500D01*
X154430879Y-106850498D01*
X154384386Y-106796842D01*
X154373000Y-106744500D01*
X154373000Y-106077115D01*
X154368525Y-106061876D01*
X154367135Y-106060671D01*
X154359452Y-106059000D01*
X153287000Y-106059000D01*
X153218879Y-106038998D01*
X153172386Y-105985342D01*
X153161000Y-105933000D01*
X153161000Y-105532885D01*
X153669000Y-105532885D01*
X153673475Y-105548124D01*
X153674865Y-105549329D01*
X153682548Y-105551000D01*
X154354884Y-105551000D01*
X154370123Y-105546525D01*
X154371328Y-105545135D01*
X154372999Y-105537452D01*
X154372999Y-104760331D01*
X154372629Y-104753510D01*
X154367105Y-104702648D01*
X154363479Y-104687396D01*
X154318324Y-104566946D01*
X154309786Y-104551351D01*
X154233285Y-104449276D01*
X154220724Y-104436715D01*
X154118649Y-104360214D01*
X154103054Y-104351676D01*
X153982606Y-104306522D01*
X153967351Y-104302895D01*
X153916486Y-104297369D01*
X153909672Y-104297000D01*
X153687115Y-104297000D01*
X153671876Y-104301475D01*
X153670671Y-104302865D01*
X153669000Y-104310548D01*
X153669000Y-105532885D01*
X153161000Y-105532885D01*
X153161000Y-104315116D01*
X153153624Y-104289995D01*
X153153624Y-104218998D01*
X153160325Y-104201247D01*
X153204326Y-104106887D01*
X153208072Y-104096595D01*
X153262196Y-103894599D01*
X153264099Y-103883804D01*
X153282326Y-103675475D01*
X153282326Y-103664525D01*
X153264099Y-103456196D01*
X153262196Y-103445401D01*
X153208072Y-103243405D01*
X153204326Y-103233113D01*
X153167546Y-103154239D01*
X153156885Y-103084048D01*
X153185865Y-103019235D01*
X153245284Y-102980378D01*
X153281741Y-102974989D01*
X153564723Y-102974989D01*
X153584433Y-102976540D01*
X153604511Y-102979720D01*
X153613326Y-102978324D01*
X153615098Y-102978169D01*
X153615846Y-102978169D01*
X153617695Y-102977942D01*
X153791894Y-102962701D01*
X153797207Y-102961277D01*
X153797209Y-102961277D01*
X153968273Y-102915441D01*
X153968275Y-102915440D01*
X153973583Y-102914018D01*
X153978565Y-102911695D01*
X154139072Y-102836850D01*
X154139077Y-102836847D01*
X154144059Y-102834524D01*
X154246523Y-102762778D01*
X154293629Y-102729794D01*
X154293632Y-102729792D01*
X154298140Y-102726635D01*
X154431146Y-102593629D01*
X154539035Y-102439548D01*
X154541358Y-102434566D01*
X154541361Y-102434561D01*
X154616206Y-102274054D01*
X154616206Y-102274053D01*
X154618529Y-102269072D01*
X154621295Y-102258751D01*
X154665788Y-102092698D01*
X154665788Y-102092696D01*
X154667212Y-102087383D01*
X154671026Y-102043794D01*
X154677009Y-101975419D01*
X154677947Y-101969200D01*
X154679018Y-101966149D01*
X154679500Y-101960584D01*
X154679500Y-101952440D01*
X154679979Y-101941459D01*
X154681517Y-101923877D01*
X154682452Y-101913187D01*
X154682680Y-101911335D01*
X154682680Y-101910587D01*
X154682835Y-101908815D01*
X154684231Y-101900000D01*
X154681051Y-101879922D01*
X154679500Y-101860212D01*
X154679500Y-101382344D01*
X154699502Y-101314223D01*
X154753158Y-101267730D01*
X154823432Y-101257626D01*
X154864892Y-101271220D01*
G37*
%TD.AperFunction*%
%TA.AperFunction,Conductor*%
G36*
X150826380Y-102994991D02*
G01*
X150872873Y-103048647D01*
X150882977Y-103118921D01*
X150872454Y-103154239D01*
X150835674Y-103233113D01*
X150831928Y-103243405D01*
X150777804Y-103445401D01*
X150775901Y-103456196D01*
X150757674Y-103664525D01*
X150757674Y-103675475D01*
X150775901Y-103883804D01*
X150777804Y-103894599D01*
X150831928Y-104096595D01*
X150835674Y-104106887D01*
X150924056Y-104296421D01*
X150929534Y-104305907D01*
X150961969Y-104352230D01*
X150984657Y-104419504D01*
X150967372Y-104488364D01*
X150915602Y-104536948D01*
X150858756Y-104550500D01*
X150411754Y-104550501D01*
X150399934Y-104550501D01*
X150364182Y-104557612D01*
X150337874Y-104562844D01*
X150337872Y-104562845D01*
X150325699Y-104565266D01*
X150310004Y-104575753D01*
X150242252Y-104596970D01*
X150169996Y-104575753D01*
X150154301Y-104565266D01*
X150080067Y-104550500D01*
X149605077Y-104550500D01*
X149129934Y-104550501D01*
X149094182Y-104557612D01*
X149067874Y-104562844D01*
X149067872Y-104562845D01*
X149055699Y-104565266D01*
X149040004Y-104575753D01*
X148972252Y-104596970D01*
X148899996Y-104575753D01*
X148884301Y-104565266D01*
X148810067Y-104550500D01*
X148335077Y-104550500D01*
X147859934Y-104550501D01*
X147824182Y-104557612D01*
X147797874Y-104562844D01*
X147797872Y-104562845D01*
X147785699Y-104565266D01*
X147770004Y-104575753D01*
X147702252Y-104596970D01*
X147629996Y-104575753D01*
X147614301Y-104565266D01*
X147540067Y-104550500D01*
X147065077Y-104550500D01*
X146589934Y-104550501D01*
X146554182Y-104557612D01*
X146527874Y-104562844D01*
X146527872Y-104562845D01*
X146515699Y-104565266D01*
X146500004Y-104575753D01*
X146432252Y-104596970D01*
X146359996Y-104575753D01*
X146344301Y-104565266D01*
X146270067Y-104550500D01*
X145795077Y-104550500D01*
X145319934Y-104550501D01*
X145284182Y-104557612D01*
X145257874Y-104562844D01*
X145257872Y-104562845D01*
X145245699Y-104565266D01*
X145230004Y-104575753D01*
X145162252Y-104596970D01*
X145089996Y-104575753D01*
X145074301Y-104565266D01*
X145000067Y-104550500D01*
X144541242Y-104550500D01*
X144473123Y-104530499D01*
X144426630Y-104476844D01*
X144416526Y-104406570D01*
X144438030Y-104352232D01*
X144470467Y-104305905D01*
X144475944Y-104296421D01*
X144564326Y-104106887D01*
X144568072Y-104096595D01*
X144622196Y-103894599D01*
X144624099Y-103883804D01*
X144642326Y-103675475D01*
X144642326Y-103664525D01*
X144624099Y-103456196D01*
X144622196Y-103445401D01*
X144568072Y-103243405D01*
X144564326Y-103233113D01*
X144527546Y-103154239D01*
X144516885Y-103084048D01*
X144545865Y-103019235D01*
X144605284Y-102980378D01*
X144641741Y-102974989D01*
X150758259Y-102974989D01*
X150826380Y-102994991D01*
G37*
%TD.AperFunction*%
%TA.AperFunction,Conductor*%
G36*
X143990934Y-92875002D02*
G01*
X144018194Y-92898669D01*
X144019344Y-92900001D01*
X144023580Y-92906305D01*
X144140748Y-93012919D01*
X144279965Y-93088508D01*
X144433194Y-93128707D01*
X144517149Y-93130026D01*
X144583991Y-93131076D01*
X144583994Y-93131076D01*
X144591588Y-93131195D01*
X144598992Y-93129499D01*
X144598994Y-93129499D01*
X144713544Y-93103264D01*
X144784411Y-93107553D01*
X144841709Y-93149476D01*
X144867246Y-93215720D01*
X144867673Y-93226084D01*
X144867673Y-99821772D01*
X144866122Y-99841482D01*
X144862942Y-99861560D01*
X144864493Y-99871354D01*
X144864493Y-99881268D01*
X144863471Y-99881268D01*
X144863796Y-99895961D01*
X144862509Y-99907392D01*
X144835011Y-99972847D01*
X144776490Y-100013045D01*
X144705527Y-100015223D01*
X144644652Y-99978690D01*
X144619434Y-99937834D01*
X144598059Y-99881268D01*
X144566146Y-99796813D01*
X144559614Y-99787309D01*
X144480721Y-99672518D01*
X144480720Y-99672516D01*
X144476419Y-99666259D01*
X144463190Y-99654472D01*
X144427858Y-99622993D01*
X144403547Y-99601332D01*
X144365992Y-99541083D01*
X144361366Y-99507256D01*
X144361366Y-95297698D01*
X144380930Y-95236944D01*
X144378105Y-95235391D01*
X144381764Y-95228735D01*
X144386198Y-95222565D01*
X144389031Y-95215517D01*
X144389033Y-95215514D01*
X144442449Y-95082636D01*
X144445285Y-95075582D01*
X144467605Y-94918748D01*
X144467750Y-94904941D01*
X144448719Y-94747674D01*
X144392723Y-94599487D01*
X144341033Y-94524277D01*
X144307298Y-94475192D01*
X144307297Y-94475190D01*
X144302996Y-94468933D01*
X144290675Y-94457955D01*
X144238634Y-94411589D01*
X144184718Y-94363552D01*
X144177332Y-94359641D01*
X144051431Y-94292980D01*
X144051432Y-94292980D01*
X144044717Y-94289425D01*
X143891076Y-94250833D01*
X143883477Y-94250793D01*
X143883476Y-94250793D01*
X143817624Y-94250448D01*
X143732664Y-94250003D01*
X143725284Y-94251775D01*
X143725282Y-94251775D01*
X143586006Y-94285212D01*
X143586003Y-94285213D01*
X143578627Y-94286984D01*
X143437857Y-94359641D01*
X143318482Y-94463779D01*
X143227393Y-94593385D01*
X143169849Y-94740978D01*
X143168857Y-94748511D01*
X143168857Y-94748512D01*
X143150380Y-94888864D01*
X143149172Y-94898037D01*
X143152853Y-94931377D01*
X143165116Y-95042447D01*
X143166556Y-95055494D01*
X143169166Y-95062625D01*
X143169166Y-95062627D01*
X143217352Y-95194301D01*
X143220996Y-95204260D01*
X143225232Y-95210563D01*
X143225233Y-95210566D01*
X143235618Y-95226020D01*
X143257011Y-95293717D01*
X143238407Y-95362233D01*
X143185715Y-95409815D01*
X143160451Y-95418816D01*
X143150409Y-95421227D01*
X143028563Y-95450479D01*
X143028560Y-95450480D01*
X143021184Y-95452251D01*
X142880414Y-95524908D01*
X142761039Y-95629046D01*
X142669950Y-95758652D01*
X142667190Y-95765732D01*
X142617420Y-95893386D01*
X142612406Y-95906245D01*
X142611414Y-95913778D01*
X142611414Y-95913779D01*
X142595868Y-96031868D01*
X142591729Y-96063304D01*
X142598568Y-96125246D01*
X142607984Y-96210531D01*
X142609113Y-96220761D01*
X142611723Y-96227893D01*
X142623221Y-96259312D01*
X142663553Y-96369527D01*
X142667789Y-96375830D01*
X142667789Y-96375831D01*
X142727239Y-96464301D01*
X142751908Y-96501013D01*
X142757527Y-96506126D01*
X142757528Y-96506127D01*
X142830299Y-96572343D01*
X142867222Y-96632983D01*
X142871500Y-96665537D01*
X142871500Y-98270413D01*
X142869949Y-98290123D01*
X142866769Y-98310201D01*
X142868320Y-98319994D01*
X142868320Y-98326295D01*
X142869194Y-98345377D01*
X142856116Y-98544905D01*
X142853965Y-98561246D01*
X142809687Y-98783844D01*
X142805421Y-98799763D01*
X142732472Y-99014667D01*
X142726165Y-99029894D01*
X142625786Y-99233442D01*
X142617545Y-99247716D01*
X142491458Y-99436418D01*
X142481425Y-99449493D01*
X142349579Y-99599835D01*
X142335467Y-99612711D01*
X142331012Y-99617166D01*
X142322992Y-99622993D01*
X142317166Y-99631012D01*
X142317163Y-99631015D01*
X142311044Y-99639438D01*
X142298203Y-99654472D01*
X141639313Y-100313363D01*
X140982160Y-100970516D01*
X140922479Y-101003940D01*
X140815443Y-101029637D01*
X140815441Y-101029638D01*
X140808063Y-101031409D01*
X140667293Y-101104066D01*
X140661573Y-101109056D01*
X140655285Y-101113329D01*
X140654197Y-101111728D01*
X140598862Y-101137230D01*
X140528554Y-101127369D01*
X140474738Y-101081062D01*
X140454500Y-101012575D01*
X140454499Y-100526123D01*
X140454499Y-100519934D01*
X140445810Y-100476247D01*
X140442156Y-100457874D01*
X140442155Y-100457872D01*
X140439734Y-100445699D01*
X140429247Y-100430004D01*
X140408030Y-100362252D01*
X140429247Y-100289995D01*
X140430643Y-100287906D01*
X140439734Y-100274301D01*
X140454500Y-100200067D01*
X140454499Y-99249934D01*
X140447388Y-99214182D01*
X140442156Y-99187874D01*
X140442155Y-99187872D01*
X140439734Y-99175699D01*
X140429247Y-99160004D01*
X140408030Y-99092252D01*
X140429247Y-99019995D01*
X140439734Y-99004301D01*
X140454500Y-98930067D01*
X140454499Y-97979934D01*
X140439734Y-97905699D01*
X140429247Y-97890004D01*
X140408030Y-97822252D01*
X140429247Y-97749995D01*
X140439734Y-97734301D01*
X140454500Y-97660067D01*
X140454499Y-96709934D01*
X140445669Y-96665537D01*
X140442156Y-96647874D01*
X140442155Y-96647872D01*
X140439734Y-96635699D01*
X140429247Y-96620004D01*
X140408030Y-96552252D01*
X140429247Y-96479995D01*
X140439734Y-96464301D01*
X140454500Y-96390067D01*
X140454499Y-95439934D01*
X140439734Y-95365699D01*
X140429247Y-95350004D01*
X140408030Y-95282252D01*
X140429247Y-95209995D01*
X140439734Y-95194301D01*
X140447369Y-95155918D01*
X140480277Y-95093008D01*
X140541973Y-95057877D01*
X140570948Y-95054500D01*
X141035212Y-95054500D01*
X141054922Y-95056051D01*
X141075000Y-95059231D01*
X141084795Y-95057680D01*
X141086016Y-95057680D01*
X141089282Y-95057279D01*
X141121045Y-95054500D01*
X141258811Y-95042447D01*
X141264124Y-95041023D01*
X141264126Y-95041023D01*
X141431728Y-94996114D01*
X141431730Y-94996113D01*
X141437038Y-94994691D01*
X141442020Y-94992368D01*
X141599277Y-94919038D01*
X141599282Y-94919035D01*
X141604264Y-94916712D01*
X141715504Y-94838821D01*
X141750898Y-94814038D01*
X141750901Y-94814036D01*
X141755409Y-94810879D01*
X141885879Y-94680409D01*
X141900131Y-94660056D01*
X141988555Y-94533773D01*
X141988556Y-94533771D01*
X141991712Y-94529264D01*
X141994035Y-94524282D01*
X141994038Y-94524277D01*
X142067368Y-94367020D01*
X142067369Y-94367019D01*
X142069691Y-94362038D01*
X142071391Y-94355696D01*
X142109790Y-94212387D01*
X142117447Y-94183811D01*
X142126877Y-94076023D01*
X142127876Y-94069400D01*
X142129018Y-94066149D01*
X142129500Y-94060584D01*
X142129500Y-94051552D01*
X142129980Y-94040570D01*
X142132280Y-94014282D01*
X142132680Y-94011021D01*
X142132680Y-94009795D01*
X142134231Y-94000000D01*
X142131051Y-93979922D01*
X142129500Y-93960212D01*
X142129500Y-93289788D01*
X142131051Y-93270077D01*
X142132680Y-93259794D01*
X142132680Y-93259793D01*
X142134231Y-93250000D01*
X142132679Y-93240204D01*
X142132679Y-93234112D01*
X142133757Y-93217661D01*
X142140794Y-93164213D01*
X142149307Y-93132441D01*
X142149873Y-93131076D01*
X142176073Y-93067823D01*
X142192517Y-93039341D01*
X142235098Y-92983849D01*
X142258349Y-92960598D01*
X142313841Y-92918017D01*
X142342323Y-92901573D01*
X142360936Y-92893863D01*
X142406943Y-92874807D01*
X142438713Y-92866294D01*
X142492161Y-92859257D01*
X142508612Y-92858179D01*
X142514704Y-92858179D01*
X142524500Y-92859731D01*
X142534293Y-92858180D01*
X142534294Y-92858180D01*
X142544577Y-92856551D01*
X142564288Y-92855000D01*
X143922813Y-92855000D01*
X143990934Y-92875002D01*
G37*
%TD.AperFunction*%
%TD*%
M02*
