%TF.GenerationSoftware,KiCad,Pcbnew,(6.0.2-0)*%
%TF.CreationDate,2022-03-05T07:56:46+00:00*%
%TF.ProjectId,Generic01,47656e65-7269-4633-9031-2e6b69636164,1*%
%TF.SameCoordinates,Original*%
%TF.FileFunction,Paste,Top*%
%TF.FilePolarity,Positive*%
%FSLAX46Y46*%
G04 Gerber Fmt 4.6, Leading zero omitted, Abs format (unit mm)*
G04 Created by KiCad (PCBNEW (6.0.2-0)) date 2022-03-05 07:56:46*
%MOMM*%
%LPD*%
G01*
G04 APERTURE LIST*
G04 Aperture macros list*
%AMFreePoly0*
4,1,6,0.696000,-0.696000,-0.696000,-0.696000,-0.696000,0.118488,-0.118488,0.696000,0.696000,0.696000,0.696000,-0.696000,0.696000,-0.696000,$1*%
G04 Aperture macros list end*
%ADD10R,0.768000X0.384000*%
%ADD11R,0.384000X0.768000*%
%ADD12FreePoly0,180.000000*%
%ADD13R,1.392000X1.392000*%
%ADD14R,0.672000X0.672000*%
G04 APERTURE END LIST*
D10*
%TO.C,U1*%
X151500000Y-119400000D03*
X151500000Y-118600000D03*
X151500000Y-117800000D03*
X151500000Y-117000000D03*
X151500000Y-116200000D03*
X151500000Y-115400000D03*
X151500000Y-114600000D03*
X151500000Y-113800000D03*
X151500000Y-113000000D03*
X151500000Y-112200000D03*
X151500000Y-111400000D03*
D11*
X150400000Y-110500000D03*
X149600000Y-110500000D03*
X148800000Y-110500000D03*
X148000000Y-110500000D03*
X147200000Y-110500000D03*
X146400000Y-110500000D03*
X145600000Y-110500000D03*
X144800000Y-110500000D03*
X144000000Y-110500000D03*
X143200000Y-110500000D03*
X142400000Y-110500000D03*
X141600000Y-110500000D03*
X140800000Y-110500000D03*
D10*
X139700000Y-111400000D03*
X139700000Y-112200000D03*
X139700000Y-113000000D03*
X139700000Y-113800000D03*
X139700000Y-114600000D03*
X139700000Y-115400000D03*
X139700000Y-116200000D03*
X139700000Y-117000000D03*
X139700000Y-117800000D03*
X139700000Y-118600000D03*
X139700000Y-119400000D03*
D11*
X140800000Y-120300000D03*
X141600000Y-120300000D03*
X142400000Y-120300000D03*
X143200000Y-120300000D03*
X144000000Y-120300000D03*
X144800000Y-120300000D03*
X145600000Y-120300000D03*
X146400000Y-120300000D03*
X147200000Y-120300000D03*
X148000000Y-120300000D03*
X148800000Y-120300000D03*
X149600000Y-120300000D03*
X150400000Y-120300000D03*
D12*
X147575000Y-117375000D03*
D13*
X147575000Y-113425000D03*
X143625000Y-113425000D03*
X147575000Y-115400000D03*
X145600000Y-117375000D03*
X145600000Y-113425000D03*
X143625000Y-117375000D03*
X143625000Y-115400000D03*
X145600000Y-115400000D03*
D14*
X139650000Y-120350000D03*
X139650000Y-110450000D03*
X151550000Y-110450000D03*
X151550000Y-120350000D03*
%TD*%
M02*
