M48
; DRILL file {KiCad (6.0.2-0)} date Monday, 04 April 2022 at 17:26:30
; FORMAT={-:-/ absolute / inch / decimal}
; #@! TF.CreationDate,2022-04-04T17:26:30+01:00
; #@! TF.GenerationSoftware,Kicad,Pcbnew,(6.0.2-0)
; #@! TF.FileFunction,Plated,1,2,PTH
FMAT,2
INCH
; #@! TA.AperFunction,Plated,PTH,ViaDrill
T1C0.0157
; #@! TA.AperFunction,Plated,PTH,ComponentDrill
T2C0.0335
; #@! TA.AperFunction,Plated,PTH,ComponentDrill
T3C0.0394
%
G90
G05
T1
X3.7372Y-1.6467
X3.7776Y-1.5994
X3.7884Y-1.8504
X3.8328Y-1.8935
X3.8402Y-1.7815
X3.9646Y-1.8935
X4.0276Y-1.874
X4.0684Y-1.874
X4.0696Y-1.8276
X4.0846Y-2.1752
X4.0866Y-1.6949
X4.0941Y-1.7658
X4.1293Y-1.5902
X4.1299Y-1.8935
X4.1319Y-1.8367
T2
X3.7894Y-2.0252
X3.8878Y-2.0252
X3.9862Y-2.0252
X4.0846Y-2.0252
T3
X3.7374Y-2.1295
X3.7374Y-2.2252
X3.8374Y-2.1295
X3.8374Y-2.2252
X3.9374Y-2.1295
X3.9374Y-2.2252
X4.0374Y-2.1295
X4.0374Y-2.2252
X4.1374Y-2.1295
X4.1374Y-2.2252
T0
M30
