%TF.GenerationSoftware,KiCad,Pcbnew,(6.0.1-0)*%
%TF.CreationDate,2022-01-29T13:53:11+00:00*%
%TF.ProjectId,Generic,47656e65-7269-4632-9e6b-696361645f70,6*%
%TF.SameCoordinates,Original*%
%TF.FileFunction,Legend,Bot*%
%TF.FilePolarity,Positive*%
%FSLAX46Y46*%
G04 Gerber Fmt 4.6, Leading zero omitted, Abs format (unit mm)*
G04 Created by KiCad (PCBNEW (6.0.1-0)) date 2022-01-29 13:53:11*
%MOMM*%
%LPD*%
G01*
G04 APERTURE LIST*
%ADD10C,0.080000*%
%ADD11C,0.150000*%
%ADD12C,0.120000*%
G04 APERTURE END LIST*
D10*
X133238095Y-121940476D02*
X132761904Y-121940476D01*
X133142857Y-122083333D02*
X132857142Y-122083333D01*
X133000000Y-121726190D02*
X133000000Y-121940476D01*
X132952380Y-122226190D02*
X133047619Y-122226190D01*
X132173809Y-123680952D02*
X132673809Y-123680952D01*
X132673809Y-123561904D01*
X132650000Y-123490476D01*
X132602380Y-123442857D01*
X132554761Y-123419047D01*
X132459523Y-123395238D01*
X132388095Y-123395238D01*
X132292857Y-123419047D01*
X132245238Y-123442857D01*
X132197619Y-123490476D01*
X132173809Y-123561904D01*
X132173809Y-123680952D01*
X132221428Y-122895238D02*
X132197619Y-122919047D01*
X132173809Y-122990476D01*
X132173809Y-123038095D01*
X132197619Y-123109523D01*
X132245238Y-123157142D01*
X132292857Y-123180952D01*
X132388095Y-123204761D01*
X132459523Y-123204761D01*
X132554761Y-123180952D01*
X132602380Y-123157142D01*
X132650000Y-123109523D01*
X132673809Y-123038095D01*
X132673809Y-122990476D01*
X132650000Y-122919047D01*
X132626190Y-122895238D01*
X125642857Y-121723809D02*
X125619047Y-121700000D01*
X125571428Y-121676190D01*
X125452380Y-121676190D01*
X125404761Y-121700000D01*
X125380952Y-121723809D01*
X125357142Y-121771428D01*
X125357142Y-121819047D01*
X125380952Y-121890476D01*
X125666666Y-122176190D01*
X125357142Y-122176190D01*
X128095238Y-122176190D02*
X128380952Y-122176190D01*
X128238095Y-122176190D02*
X128238095Y-121676190D01*
X128285714Y-121747619D01*
X128333333Y-121795238D01*
X128380952Y-121819047D01*
X127642857Y-121676190D02*
X127880952Y-121676190D01*
X127904761Y-121914285D01*
X127880952Y-121890476D01*
X127833333Y-121866666D01*
X127714285Y-121866666D01*
X127666666Y-121890476D01*
X127642857Y-121914285D01*
X127619047Y-121961904D01*
X127619047Y-122080952D01*
X127642857Y-122128571D01*
X127666666Y-122152380D01*
X127714285Y-122176190D01*
X127833333Y-122176190D01*
X127880952Y-122152380D01*
X127904761Y-122128571D01*
D11*
X131957142Y-101747619D02*
X131909523Y-101700000D01*
X131814285Y-101652380D01*
X131576190Y-101652380D01*
X131480952Y-101700000D01*
X131433333Y-101747619D01*
X131385714Y-101842857D01*
X131385714Y-101938095D01*
X131433333Y-102080952D01*
X132004761Y-102652380D01*
X131385714Y-102652380D01*
X130766666Y-101652380D02*
X130671428Y-101652380D01*
X130576190Y-101700000D01*
X130528571Y-101747619D01*
X130480952Y-101842857D01*
X130433333Y-102033333D01*
X130433333Y-102271428D01*
X130480952Y-102461904D01*
X130528571Y-102557142D01*
X130576190Y-102604761D01*
X130671428Y-102652380D01*
X130766666Y-102652380D01*
X130861904Y-102604761D01*
X130909523Y-102557142D01*
X130957142Y-102461904D01*
X131004761Y-102271428D01*
X131004761Y-102033333D01*
X130957142Y-101842857D01*
X130909523Y-101747619D01*
X130861904Y-101700000D01*
X130766666Y-101652380D01*
X130052380Y-101747619D02*
X130004761Y-101700000D01*
X129909523Y-101652380D01*
X129671428Y-101652380D01*
X129576190Y-101700000D01*
X129528571Y-101747619D01*
X129480952Y-101842857D01*
X129480952Y-101938095D01*
X129528571Y-102080952D01*
X130100000Y-102652380D01*
X129480952Y-102652380D01*
X129100000Y-101747619D02*
X129052380Y-101700000D01*
X128957142Y-101652380D01*
X128719047Y-101652380D01*
X128623809Y-101700000D01*
X128576190Y-101747619D01*
X128528571Y-101842857D01*
X128528571Y-101938095D01*
X128576190Y-102080952D01*
X129147619Y-102652380D01*
X128528571Y-102652380D01*
X128100000Y-102271428D02*
X127338095Y-102271428D01*
X126671428Y-101652380D02*
X126576190Y-101652380D01*
X126480952Y-101700000D01*
X126433333Y-101747619D01*
X126385714Y-101842857D01*
X126338095Y-102033333D01*
X126338095Y-102271428D01*
X126385714Y-102461904D01*
X126433333Y-102557142D01*
X126480952Y-102604761D01*
X126576190Y-102652380D01*
X126671428Y-102652380D01*
X126766666Y-102604761D01*
X126814285Y-102557142D01*
X126861904Y-102461904D01*
X126909523Y-102271428D01*
X126909523Y-102033333D01*
X126861904Y-101842857D01*
X126814285Y-101747619D01*
X126766666Y-101700000D01*
X126671428Y-101652380D01*
X125385714Y-102652380D02*
X125957142Y-102652380D01*
X125671428Y-102652380D02*
X125671428Y-101652380D01*
X125766666Y-101795238D01*
X125861904Y-101890476D01*
X125957142Y-101938095D01*
X124957142Y-102271428D02*
X124195238Y-102271428D01*
X123766666Y-101747619D02*
X123719047Y-101700000D01*
X123623809Y-101652380D01*
X123385714Y-101652380D01*
X123290476Y-101700000D01*
X123242857Y-101747619D01*
X123195238Y-101842857D01*
X123195238Y-101938095D01*
X123242857Y-102080952D01*
X123814285Y-102652380D01*
X123195238Y-102652380D01*
X122290476Y-101652380D02*
X122766666Y-101652380D01*
X122814285Y-102128571D01*
X122766666Y-102080952D01*
X122671428Y-102033333D01*
X122433333Y-102033333D01*
X122338095Y-102080952D01*
X122290476Y-102128571D01*
X122242857Y-102223809D01*
X122242857Y-102461904D01*
X122290476Y-102557142D01*
X122338095Y-102604761D01*
X122433333Y-102652380D01*
X122671428Y-102652380D01*
X122766666Y-102604761D01*
X122814285Y-102557142D01*
D10*
X132738095Y-125740476D02*
X132261904Y-125740476D01*
X132642857Y-125883333D02*
X132357142Y-125883333D01*
X132500000Y-125526190D02*
X132500000Y-125740476D01*
X132452380Y-126026190D02*
X132547619Y-126026190D01*
X123130952Y-121723809D02*
X123107142Y-121700000D01*
X123059523Y-121676190D01*
X122940476Y-121676190D01*
X122892857Y-121700000D01*
X122869047Y-121723809D01*
X122845238Y-121771428D01*
X122845238Y-121819047D01*
X122869047Y-121890476D01*
X123154761Y-122176190D01*
X122845238Y-122176190D01*
X122678571Y-121676190D02*
X122345238Y-121676190D01*
X122559523Y-122176190D01*
X130595238Y-122226190D02*
X130880952Y-122226190D01*
X130738095Y-122226190D02*
X130738095Y-121726190D01*
X130785714Y-121797619D01*
X130833333Y-121845238D01*
X130880952Y-121869047D01*
X130428571Y-121726190D02*
X130119047Y-121726190D01*
X130285714Y-121916666D01*
X130214285Y-121916666D01*
X130166666Y-121940476D01*
X130142857Y-121964285D01*
X130119047Y-122011904D01*
X130119047Y-122130952D01*
X130142857Y-122178571D01*
X130166666Y-122202380D01*
X130214285Y-122226190D01*
X130357142Y-122226190D01*
X130404761Y-122202380D01*
X130428571Y-122178571D01*
X120154761Y-121842857D02*
X120154761Y-122176190D01*
X120273809Y-121652380D02*
X120392857Y-122009523D01*
X120083333Y-122009523D01*
D12*
%TO.C,J1*%
X117870000Y-119100000D02*
X117870000Y-127100000D01*
X135570000Y-119100000D02*
X117870000Y-119100000D01*
X135570000Y-119100000D02*
X135570000Y-127100000D01*
%TO.C,U1*%
X135820000Y-117250000D02*
X135820000Y-118030000D01*
X135820000Y-118030000D02*
X134820000Y-118030000D01*
X135820000Y-92285000D02*
X135820000Y-98705000D01*
X117580000Y-92285000D02*
X117580000Y-98705000D01*
X117580000Y-117250000D02*
X117580000Y-118030000D01*
X135820000Y-92285000D02*
X117580000Y-92285000D01*
X117580000Y-118030000D02*
X118580000Y-118030000D01*
X135820000Y-98705000D02*
X136200000Y-98705000D01*
%TD*%
M02*
