M48
; DRILL file {KiCad (6.0.2-0)} date Thursday, 03 March 2022 at 14:58:58
; FORMAT={-:-/ absolute / inch / decimal}
; #@! TF.CreationDate,2022-03-03T14:58:58+00:00
; #@! TF.GenerationSoftware,Kicad,Pcbnew,(6.0.2-0)
; #@! TF.FileFunction,Plated,1,2,PTH
FMAT,2
INCH
; #@! TA.AperFunction,Plated,PTH,ViaDrill
T1C0.0157
; #@! TA.AperFunction,Plated,PTH,ComponentDrill
T2C0.0335
; #@! TA.AperFunction,Plated,PTH,ComponentDrill
T3C0.0394
%
G90
G05
T1
X3.7028Y-2.0689
X3.7402Y-1.7973
X3.7788Y-1.5778
X3.8425Y-1.8858
X3.8425Y-2.1732
X3.8583Y-1.7795
X3.9291Y-1.8935
X3.937Y-2.1811
X4.0472Y-1.8701
X4.0699Y-1.703
X4.0748Y-1.6142
X4.0866Y-1.8829
X4.125Y-2.0787
X4.126Y-1.8898
X4.1277Y-1.5914
X4.1555Y-2.2539
T2
X3.7894Y-2.0252
X3.8878Y-2.0252
X3.9862Y-2.0252
X4.0846Y-2.0252
T3
X3.787Y-2.1252
X3.787Y-2.2252
X3.887Y-2.1252
X3.887Y-2.2252
X3.987Y-2.1252
X3.987Y-2.2252
X4.087Y-2.1252
X4.087Y-2.2252
T0
M30
