%TF.GenerationSoftware,KiCad,Pcbnew,(6.0.2-0)*%
%TF.CreationDate,2022-02-18T12:15:39+00:00*%
%TF.ProjectId,Generic3,47656e65-7269-4633-932e-6b696361645f,1*%
%TF.SameCoordinates,Original*%
%TF.FileFunction,Copper,L2,Bot*%
%TF.FilePolarity,Positive*%
%FSLAX46Y46*%
G04 Gerber Fmt 4.6, Leading zero omitted, Abs format (unit mm)*
G04 Created by KiCad (PCBNEW (6.0.2-0)) date 2022-02-18 12:15:39*
%MOMM*%
%LPD*%
G01*
G04 APERTURE LIST*
G04 Aperture macros list*
%AMRoundRect*
0 Rectangle with rounded corners*
0 $1 Rounding radius*
0 $2 $3 $4 $5 $6 $7 $8 $9 X,Y pos of 4 corners*
0 Add a 4 corners polygon primitive as box body*
4,1,4,$2,$3,$4,$5,$6,$7,$8,$9,$2,$3,0*
0 Add four circle primitives for the rounded corners*
1,1,$1+$1,$2,$3*
1,1,$1+$1,$4,$5*
1,1,$1+$1,$6,$7*
1,1,$1+$1,$8,$9*
0 Add four rect primitives between the rounded corners*
20,1,$1+$1,$2,$3,$4,$5,0*
20,1,$1+$1,$4,$5,$6,$7,0*
20,1,$1+$1,$6,$7,$8,$9,0*
20,1,$1+$1,$8,$9,$2,$3,0*%
G04 Aperture macros list end*
%ADD10C,0.100000*%
%TA.AperFunction,NonConductor*%
%ADD11C,0.100000*%
%TD*%
%TA.AperFunction,EtchedComponent*%
%ADD12C,0.080000*%
%TD*%
%TA.AperFunction,EtchedComponent*%
%ADD13C,0.250000*%
%TD*%
%TA.AperFunction,SMDPad,CuDef*%
%ADD14R,0.400000X0.200000*%
%TD*%
%TA.AperFunction,SMDPad,CuDef*%
%ADD15R,0.200000X0.200000*%
%TD*%
%TA.AperFunction,SMDPad,CuDef*%
%ADD16R,0.200000X1.200000*%
%TD*%
%TA.AperFunction,SMDPad,CuDef*%
%ADD17R,1.000000X0.200000*%
%TD*%
%TA.AperFunction,SMDPad,CuDef*%
%ADD18R,0.400000X0.600000*%
%TD*%
%TA.AperFunction,SMDPad,CuDef*%
%ADD19R,0.600000X0.200000*%
%TD*%
%TA.AperFunction,SMDPad,CuDef*%
%ADD20R,0.200000X0.400000*%
%TD*%
%TA.AperFunction,SMDPad,CuDef*%
%ADD21R,0.200000X0.800000*%
%TD*%
%TA.AperFunction,SMDPad,CuDef*%
%ADD22R,1.400000X0.200000*%
%TD*%
%TA.AperFunction,SMDPad,CuDef*%
%ADD23R,0.600000X0.600000*%
%TD*%
%TA.AperFunction,SMDPad,CuDef*%
%ADD24R,0.200000X0.600000*%
%TD*%
%TA.AperFunction,SMDPad,CuDef*%
%ADD25R,0.200000X1.400000*%
%TD*%
%TA.AperFunction,SMDPad,CuDef*%
%ADD26R,0.400000X0.400000*%
%TD*%
%TA.AperFunction,ComponentPad*%
%ADD27C,0.600000*%
%TD*%
%TA.AperFunction,ComponentPad*%
%ADD28C,1.250000*%
%TD*%
%TA.AperFunction,ComponentPad*%
%ADD29C,1.500000*%
%TD*%
%TA.AperFunction,ComponentPad*%
%ADD30RoundRect,0.250000X-0.600000X-0.675000X0.600000X-0.675000X0.600000X0.675000X-0.600000X0.675000X0*%
%TD*%
%TA.AperFunction,ComponentPad*%
%ADD31O,1.700000X1.850000*%
%TD*%
%TA.AperFunction,SMDPad,CuDef*%
%ADD32R,0.650000X0.400000*%
%TD*%
%TA.AperFunction,SMDPad,CuDef*%
%ADD33RoundRect,0.247500X-0.315000X-0.627500X0.315000X-0.627500X0.315000X0.627500X-0.315000X0.627500X0*%
%TD*%
%TA.AperFunction,SMDPad,CuDef*%
%ADD34RoundRect,0.256250X-0.256250X-0.443750X0.256250X-0.443750X0.256250X0.443750X-0.256250X0.443750X0*%
%TD*%
%TA.AperFunction,ViaPad*%
%ADD35C,0.800000*%
%TD*%
%TA.AperFunction,Conductor*%
%ADD36C,0.250000*%
%TD*%
%TA.AperFunction,Conductor*%
%ADD37C,0.200000*%
%TD*%
G04 APERTURE END LIST*
D10*
D11*
X143323809Y-59421428D02*
X143300000Y-59445238D01*
X143276190Y-59492857D01*
X143276190Y-59611904D01*
X143300000Y-59659523D01*
X143323809Y-59683333D01*
X143371428Y-59707142D01*
X143419047Y-59707142D01*
X143490476Y-59683333D01*
X143776190Y-59397619D01*
X143776190Y-59707142D01*
X143276190Y-60016666D02*
X143276190Y-60064285D01*
X143300000Y-60111904D01*
X143323809Y-60135714D01*
X143371428Y-60159523D01*
X143466666Y-60183333D01*
X143585714Y-60183333D01*
X143680952Y-60159523D01*
X143728571Y-60135714D01*
X143752380Y-60111904D01*
X143776190Y-60064285D01*
X143776190Y-60016666D01*
X143752380Y-59969047D01*
X143728571Y-59945238D01*
X143680952Y-59921428D01*
X143585714Y-59897619D01*
X143466666Y-59897619D01*
X143371428Y-59921428D01*
X143323809Y-59945238D01*
X143300000Y-59969047D01*
X143276190Y-60016666D01*
X143323809Y-60373809D02*
X143300000Y-60397619D01*
X143276190Y-60445238D01*
X143276190Y-60564285D01*
X143300000Y-60611904D01*
X143323809Y-60635714D01*
X143371428Y-60659523D01*
X143419047Y-60659523D01*
X143490476Y-60635714D01*
X143776190Y-60350000D01*
X143776190Y-60659523D01*
X143323809Y-60850000D02*
X143300000Y-60873809D01*
X143276190Y-60921428D01*
X143276190Y-61040476D01*
X143300000Y-61088095D01*
X143323809Y-61111904D01*
X143371428Y-61135714D01*
X143419047Y-61135714D01*
X143490476Y-61111904D01*
X143776190Y-60826190D01*
X143776190Y-61135714D01*
X143585714Y-61350000D02*
X143585714Y-61730952D01*
X143276190Y-62064285D02*
X143276190Y-62111904D01*
X143300000Y-62159523D01*
X143323809Y-62183333D01*
X143371428Y-62207142D01*
X143466666Y-62230952D01*
X143585714Y-62230952D01*
X143680952Y-62207142D01*
X143728571Y-62183333D01*
X143752380Y-62159523D01*
X143776190Y-62111904D01*
X143776190Y-62064285D01*
X143752380Y-62016666D01*
X143728571Y-61992857D01*
X143680952Y-61969047D01*
X143585714Y-61945238D01*
X143466666Y-61945238D01*
X143371428Y-61969047D01*
X143323809Y-61992857D01*
X143300000Y-62016666D01*
X143276190Y-62064285D01*
X143323809Y-62421428D02*
X143300000Y-62445238D01*
X143276190Y-62492857D01*
X143276190Y-62611904D01*
X143300000Y-62659523D01*
X143323809Y-62683333D01*
X143371428Y-62707142D01*
X143419047Y-62707142D01*
X143490476Y-62683333D01*
X143776190Y-62397619D01*
X143776190Y-62707142D01*
X143585714Y-62921428D02*
X143585714Y-63302380D01*
X143776190Y-63802380D02*
X143776190Y-63516666D01*
X143776190Y-63659523D02*
X143276190Y-63659523D01*
X143347619Y-63611904D01*
X143395238Y-63564285D01*
X143419047Y-63516666D01*
X143490476Y-64088095D02*
X143466666Y-64040476D01*
X143442857Y-64016666D01*
X143395238Y-63992857D01*
X143371428Y-63992857D01*
X143323809Y-64016666D01*
X143300000Y-64040476D01*
X143276190Y-64088095D01*
X143276190Y-64183333D01*
X143300000Y-64230952D01*
X143323809Y-64254761D01*
X143371428Y-64278571D01*
X143395238Y-64278571D01*
X143442857Y-64254761D01*
X143466666Y-64230952D01*
X143490476Y-64183333D01*
X143490476Y-64088095D01*
X143514285Y-64040476D01*
X143538095Y-64016666D01*
X143585714Y-63992857D01*
X143680952Y-63992857D01*
X143728571Y-64016666D01*
X143752380Y-64040476D01*
X143776190Y-64088095D01*
X143776190Y-64183333D01*
X143752380Y-64230952D01*
X143728571Y-64254761D01*
X143680952Y-64278571D01*
X143585714Y-64278571D01*
X143538095Y-64254761D01*
X143514285Y-64230952D01*
X143490476Y-64183333D01*
D12*
%TO.C,Logo1*%
X165450000Y-58500000D02*
X165750000Y-58500000D01*
D13*
X167550000Y-60100000D02*
X169650000Y-61900000D01*
X165450000Y-60100000D02*
X169650000Y-60100000D01*
D12*
X165450000Y-58500000D02*
X165450000Y-58600000D01*
X165610000Y-58500000D02*
X165610000Y-58600000D01*
D13*
X165550000Y-61900000D02*
X167550000Y-60100000D01*
X167550000Y-60100000D02*
X167550000Y-58600000D01*
X165450000Y-60100000D02*
X169650000Y-57100000D01*
D12*
X165610000Y-58600000D02*
X165750000Y-58700000D01*
D13*
X169650000Y-60100000D02*
G75*
G03*
X169650000Y-58600000I0J750000D01*
G01*
D12*
X165450000Y-58600000D02*
G75*
G03*
X165610000Y-58600000I80000J0D01*
G01*
X165910000Y-58580000D02*
G75*
G03*
X165910000Y-58580000I-300000J0D01*
G01*
%TD*%
D14*
%TO.P,U4,*%
%TO.N,*%
X140900000Y-62200000D03*
D15*
X139800000Y-63400000D03*
D14*
X140500000Y-61800000D03*
D16*
X138200000Y-63100000D03*
D15*
X138200000Y-62000000D03*
X142000000Y-61800000D03*
D17*
X141600000Y-59800000D03*
D15*
X142200000Y-62000000D03*
D14*
X138900000Y-60000000D03*
D18*
X140100000Y-63400000D03*
D19*
X139800000Y-60200000D03*
D15*
X141600000Y-62200000D03*
D14*
X140900000Y-61400000D03*
D20*
X140600000Y-63500000D03*
D14*
X138300000Y-60400000D03*
D20*
X138200000Y-60100000D03*
D15*
X140400000Y-62400000D03*
D16*
X142200000Y-63100000D03*
D14*
X140700000Y-62000000D03*
D21*
X140200000Y-62300000D03*
D19*
X139200000Y-62200000D03*
D20*
X140600000Y-61100000D03*
D22*
X138800000Y-63800000D03*
D15*
X140400000Y-62800000D03*
D23*
X141600000Y-63200000D03*
D19*
X139400000Y-61600000D03*
D14*
X140100000Y-61600000D03*
X141300000Y-62000000D03*
D20*
X139400000Y-60300000D03*
D24*
X138200000Y-61400000D03*
D20*
X141600000Y-61500000D03*
D16*
X142200000Y-60300000D03*
D15*
X139200000Y-62000000D03*
D22*
X141600000Y-63800000D03*
D15*
X139600000Y-61400000D03*
D25*
X140200000Y-60800000D03*
D15*
X138400000Y-60800000D03*
D22*
X141600000Y-61000000D03*
D15*
X138800000Y-60400000D03*
D20*
X139800000Y-62500000D03*
D15*
X139200000Y-61400000D03*
D14*
X141500000Y-61800000D03*
X140100000Y-59800000D03*
D17*
X138800000Y-62600000D03*
D15*
X140400000Y-63800000D03*
D16*
X139400000Y-63100000D03*
D15*
X140200000Y-63000000D03*
D17*
X141600000Y-62600000D03*
D15*
X138400000Y-61800000D03*
X139200000Y-60200000D03*
D14*
X140700000Y-61600000D03*
D26*
X140500000Y-59900000D03*
D20*
X139800000Y-59900000D03*
D14*
X139900000Y-62800000D03*
D15*
X139600000Y-62000000D03*
X142200000Y-61600000D03*
X141000000Y-61800000D03*
D20*
X139800000Y-61700000D03*
X141200000Y-61500000D03*
D15*
X138800000Y-61600000D03*
D16*
X141000000Y-63100000D03*
D21*
X140600000Y-62700000D03*
D20*
X140400000Y-60900000D03*
D15*
X138600000Y-61000000D03*
D24*
X141800000Y-61800000D03*
D14*
X142100000Y-62200000D03*
X139100000Y-60800000D03*
D19*
X139400000Y-61000000D03*
D16*
X141000000Y-60300000D03*
D15*
X140400000Y-63400000D03*
X140600000Y-60400000D03*
D26*
X138500000Y-62100000D03*
D23*
X141600000Y-60400000D03*
D14*
X139900000Y-63800000D03*
D20*
X139000000Y-61700000D03*
D15*
X140000000Y-62000000D03*
X138800000Y-62000000D03*
X138400000Y-61200000D03*
D23*
X138800000Y-63200000D03*
D15*
X139000000Y-61200000D03*
D14*
X139500000Y-60600000D03*
D20*
X140000000Y-60700000D03*
D14*
X139300000Y-59800000D03*
D15*
X138600000Y-60600000D03*
%TD*%
D27*
%TO.P,J3,S1,SHIELD*%
%TO.N,GND*%
X142740000Y-58960000D03*
D28*
X139060000Y-57530000D03*
D29*
X143230000Y-66170000D03*
X143230000Y-57530000D03*
D27*
X142740000Y-64740000D03*
D28*
X139060000Y-66170000D03*
%TD*%
D30*
%TO.P,J1,1,Pin_1*%
%TO.N,GND*%
X139400000Y-69150000D03*
D31*
%TO.P,J1,2,Pin_2*%
%TO.N,DC*%
X141900000Y-69150000D03*
%TD*%
D30*
%TO.P,J2,1,Pin_1*%
%TO.N,IO1*%
X147000000Y-69150000D03*
D31*
%TO.P,J2,2,Pin_2*%
%TO.N,IO2*%
X149500000Y-69150000D03*
%TO.P,J2,3,Pin_3*%
%TO.N,IO3*%
X152000000Y-69150000D03*
%TO.P,J2,4,Pin_4*%
%TO.N,IO4*%
X154500000Y-69150000D03*
%TO.P,J2,5,Pin_5*%
%TO.N,IO5*%
X157000000Y-69150000D03*
%TO.P,J2,6,Pin_6*%
%TO.N,IO6*%
X159500000Y-69150000D03*
%TO.P,J2,7,Pin_7*%
%TO.N,IO7*%
X162000000Y-69150000D03*
%TO.P,J2,8,Pin_8*%
%TO.N,IO8*%
X164500000Y-69150000D03*
%TO.P,J2,9,Pin_9*%
%TO.N,IO9*%
X167000000Y-69150000D03*
%TO.P,J2,10,Pin_10*%
%TO.N,IO10*%
X169500000Y-69150000D03*
%TD*%
D32*
%TO.P,D4,1,A1*%
%TO.N,GND*%
X164200000Y-71850000D03*
%TO.P,D4,2,K2*%
%TO.N,+3V3*%
X164200000Y-72500000D03*
%TO.P,D4,3,K1A2*%
%TO.N,IO8*%
X164200000Y-73150000D03*
%TO.P,D4,4,A3*%
%TO.N,GND*%
X162300000Y-73150000D03*
%TO.P,D4,5,K4*%
%TO.N,+3V3*%
X162300000Y-72500000D03*
%TO.P,D4,6,K3A4*%
%TO.N,IO7*%
X162300000Y-71850000D03*
%TD*%
D33*
%TO.P,JP1,1,A*%
%TO.N,GND*%
X139087500Y-71250000D03*
D34*
X139637500Y-71250000D03*
D33*
%TO.P,JP1,2,B*%
%TO.N,IO1*%
X142012500Y-71250000D03*
D34*
X141462500Y-71250000D03*
%TD*%
D32*
%TO.P,D1,1,A1*%
%TO.N,GND*%
X149200000Y-71850000D03*
%TO.P,D1,2,K2*%
%TO.N,+3V3*%
X149200000Y-72500000D03*
%TO.P,D1,3,K1A2*%
%TO.N,IO2*%
X149200000Y-73150000D03*
%TO.P,D1,4,A3*%
%TO.N,GND*%
X147300000Y-73150000D03*
%TO.P,D1,5,K4*%
%TO.N,+3V3*%
X147300000Y-72500000D03*
%TO.P,D1,6,K3A4*%
%TO.N,IO1*%
X147300000Y-71850000D03*
%TD*%
%TO.P,D3,1,A1*%
%TO.N,GND*%
X159200000Y-71850000D03*
%TO.P,D3,2,K2*%
%TO.N,+3V3*%
X159200000Y-72500000D03*
%TO.P,D3,3,K1A2*%
%TO.N,IO6*%
X159200000Y-73150000D03*
%TO.P,D3,4,A3*%
%TO.N,GND*%
X157300000Y-73150000D03*
%TO.P,D3,5,K4*%
%TO.N,+3V3*%
X157300000Y-72500000D03*
%TO.P,D3,6,K3A4*%
%TO.N,IO5*%
X157300000Y-71850000D03*
%TD*%
%TO.P,D2,1,A1*%
%TO.N,GND*%
X154200000Y-71850000D03*
%TO.P,D2,2,K2*%
%TO.N,+3V3*%
X154200000Y-72500000D03*
%TO.P,D2,3,K1A2*%
%TO.N,IO4*%
X154200000Y-73150000D03*
%TO.P,D2,4,A3*%
%TO.N,GND*%
X152300000Y-73150000D03*
%TO.P,D2,5,K4*%
%TO.N,+3V3*%
X152300000Y-72500000D03*
%TO.P,D2,6,K3A4*%
%TO.N,IO3*%
X152300000Y-71850000D03*
%TD*%
%TO.P,D5,1,A1*%
%TO.N,GND*%
X169200000Y-71850000D03*
%TO.P,D5,2,K2*%
%TO.N,+3V3*%
X169200000Y-72500000D03*
%TO.P,D5,3,K1A2*%
%TO.N,IO10*%
X169200000Y-73150000D03*
%TO.P,D5,4,A3*%
%TO.N,GND*%
X167300000Y-73150000D03*
%TO.P,D5,5,K4*%
%TO.N,+3V3*%
X167300000Y-72500000D03*
%TO.P,D5,6,K3A4*%
%TO.N,IO9*%
X167300000Y-71850000D03*
%TD*%
D33*
%TO.P,JP2,1,A*%
%TO.N,+3V3*%
X139087500Y-74025000D03*
D34*
X139637500Y-74025000D03*
D33*
%TO.P,JP2,2,B*%
%TO.N,IO2*%
X142012500Y-74025000D03*
D34*
X141462500Y-74025000D03*
%TD*%
D35*
%TO.N,+3V3*%
X168000000Y-55949502D03*
%TO.N,GND*%
X163600000Y-60000000D03*
X159600000Y-58900000D03*
X158200000Y-67800000D03*
%TO.N,+3V3*%
X159400000Y-55100000D03*
X153250000Y-72500000D03*
X148250000Y-72500000D03*
X138400499Y-55131249D03*
X168250000Y-72500000D03*
X146100000Y-54700000D03*
X158250000Y-72500000D03*
X163250000Y-72500000D03*
%TO.N,IO3*%
X163162629Y-65749621D03*
%TO.N,IO9*%
X163000000Y-63300000D03*
%TO.N,DC*%
X150200000Y-59900000D03*
X146600000Y-66600000D03*
%TO.N,IO10*%
X163082801Y-61600739D03*
%TO.N,R*%
X146400000Y-56375500D03*
X162325213Y-55975500D03*
%TO.N,G*%
X145219602Y-56244200D03*
X163200000Y-56700000D03*
%TO.N,B*%
X162500000Y-57600000D03*
X141900000Y-56000000D03*
%TO.N,EN*%
X164773930Y-55965767D03*
X155518647Y-63935145D03*
%TO.N,CHARGER*%
X167016992Y-55768667D03*
X159900000Y-64800000D03*
%TO.N,USB*%
X158800000Y-64900000D03*
X166044629Y-56000001D03*
%TO.N,I*%
X166417551Y-65339785D03*
X155584144Y-65384146D03*
%TO.N,O*%
X153800000Y-63300000D03*
X167150500Y-66019337D03*
%TO.N,Net-(C1-Pad1)*%
X146700000Y-60600000D03*
X147142791Y-64475980D03*
%TO.N,Net-(C2-Pad1)*%
X146300000Y-61600000D03*
X146300000Y-63900000D03*
%TO.N,Net-(C4-Pad1)*%
X154637683Y-62754754D03*
X150200000Y-67100000D03*
%TD*%
D36*
%TO.N,O*%
X153800000Y-63300000D02*
X153800000Y-65600000D01*
X153800000Y-65600000D02*
X154699901Y-66499901D01*
X160387819Y-66499901D02*
X161952016Y-64935704D01*
X161952016Y-64935704D02*
X163364296Y-64935704D01*
X154699901Y-66499901D02*
X160387819Y-66499901D01*
X163364296Y-64935704D02*
X163602613Y-65174021D01*
X163602613Y-65174021D02*
X165174021Y-65174021D01*
X165174021Y-65174021D02*
X166200000Y-66200000D01*
X166200000Y-66200000D02*
X166969837Y-66200000D01*
X166969837Y-66200000D02*
X167150500Y-66019337D01*
%TO.N,I*%
X155584144Y-65384146D02*
X155900000Y-65700000D01*
X155900000Y-65700000D02*
X160239696Y-65700000D01*
X160239696Y-65700000D02*
X161494848Y-64444848D01*
X161494848Y-64444848D02*
X163509144Y-64444848D01*
X163509144Y-64444848D02*
X163788806Y-64724510D01*
X163788806Y-64724510D02*
X165802276Y-64724510D01*
X165802276Y-64724510D02*
X166417551Y-65339785D01*
%TO.N,IO9*%
X163000000Y-63300000D02*
X163975000Y-64275000D01*
X163975000Y-64275000D02*
X166625000Y-64275000D01*
X166625000Y-64275000D02*
X167875000Y-65525000D01*
X167875000Y-65525000D02*
X167875000Y-68275000D01*
X167875000Y-68275000D02*
X167000000Y-69150000D01*
%TO.N,IO3*%
X152000000Y-69075000D02*
X154075000Y-67000000D01*
X162350379Y-65749621D02*
X163162629Y-65749621D01*
X161100000Y-67000000D02*
X162350379Y-65749621D01*
X152000000Y-69150000D02*
X152000000Y-69075000D01*
X154075000Y-67000000D02*
X161100000Y-67000000D01*
%TO.N,IO10*%
X163082801Y-61600739D02*
X163700739Y-61600739D01*
X165050000Y-62950000D02*
X167500000Y-62950000D01*
X163700739Y-61600739D02*
X165050000Y-62950000D01*
X167500000Y-62950000D02*
X169500000Y-64950000D01*
X169500000Y-64950000D02*
X169500000Y-69150000D01*
%TO.N,+3V3*%
X168000000Y-54600000D02*
X159450000Y-54600000D01*
X159450000Y-54600000D02*
X138931748Y-54600000D01*
X159400000Y-55100000D02*
X159450000Y-55050000D01*
X159450000Y-55050000D02*
X159450000Y-54600000D01*
X138931748Y-54600000D02*
X138400499Y-55131249D01*
%TO.N,CHARGER*%
X159900000Y-62500000D02*
X165675499Y-56724501D01*
%TO.N,+3V3*%
X168000000Y-55949502D02*
X168000000Y-54600000D01*
X168000000Y-54600000D02*
X171500000Y-54600000D01*
%TO.N,USB*%
X158800000Y-62964296D02*
X165764295Y-56000001D01*
%TO.N,CHARGER*%
X166500099Y-56724501D02*
X167016992Y-56207608D01*
X165675499Y-56724501D02*
X166500099Y-56724501D01*
%TO.N,USB*%
X165764295Y-56000001D02*
X166044629Y-56000001D01*
%TO.N,CHARGER*%
X159900000Y-64800000D02*
X159900000Y-62500000D01*
%TO.N,+3V3*%
X171550000Y-54650000D02*
X171550000Y-74900000D01*
%TO.N,CHARGER*%
X167016992Y-56207608D02*
X167016992Y-55768667D01*
%TO.N,USB*%
X158800000Y-64900000D02*
X158800000Y-62964296D01*
%TO.N,+3V3*%
X171500000Y-54600000D02*
X171550000Y-54650000D01*
X168250000Y-72500000D02*
X169200000Y-72500000D01*
X171225480Y-75224520D02*
X153374520Y-75224520D01*
X140287020Y-75224520D02*
X153374520Y-75224520D01*
X167300000Y-72500000D02*
X168250000Y-72500000D01*
X152300000Y-72500000D02*
X153250000Y-72500000D01*
X148250000Y-72500000D02*
X149200000Y-72500000D01*
X158250000Y-72500000D02*
X159200000Y-72500000D01*
X163250000Y-72500000D02*
X164200000Y-72500000D01*
X147300000Y-72500000D02*
X148250000Y-72500000D01*
X153250000Y-72500000D02*
X153250000Y-75100000D01*
X171550000Y-74900000D02*
X171225480Y-75224520D01*
X153250000Y-72500000D02*
X154200000Y-72500000D01*
X162300000Y-72500000D02*
X163250000Y-72500000D01*
X139087500Y-74025000D02*
X140287020Y-75224520D01*
X153250000Y-75100000D02*
X153374520Y-75224520D01*
X157300000Y-72500000D02*
X158250000Y-72500000D01*
%TO.N,IO2*%
X148325000Y-74025000D02*
X149200000Y-73150000D01*
X149849511Y-73024511D02*
X149724022Y-73150000D01*
X149500000Y-69150000D02*
X149849511Y-69499511D01*
X149724022Y-73150000D02*
X149200000Y-73150000D01*
X149849511Y-69499511D02*
X149849511Y-73024511D01*
X142012500Y-74025000D02*
X148325000Y-74025000D01*
%TO.N,IO1*%
X142012500Y-71825000D02*
X142037500Y-71850000D01*
X142037500Y-71850000D02*
X147300000Y-71850000D01*
X147000000Y-69150000D02*
X147000000Y-71550000D01*
X147000000Y-71550000D02*
X147300000Y-71850000D01*
%TO.N,IO4*%
X154849511Y-72850489D02*
X154550000Y-73150000D01*
X154849511Y-69499511D02*
X154849511Y-72850489D01*
X154500000Y-69150000D02*
X154849511Y-69499511D01*
X154550000Y-73150000D02*
X154200000Y-73150000D01*
%TO.N,IO3*%
X152000000Y-69150000D02*
X152000000Y-71550000D01*
X152000000Y-71550000D02*
X152300000Y-71850000D01*
%TO.N,IO5*%
X157000000Y-69150000D02*
X157000000Y-71550000D01*
X157000000Y-71550000D02*
X157300000Y-71850000D01*
%TO.N,IO6*%
X159849511Y-73075489D02*
X159775000Y-73150000D01*
X159849511Y-69499511D02*
X159849511Y-73075489D01*
X159500000Y-69150000D02*
X159849511Y-69499511D01*
X159775000Y-73150000D02*
X159200000Y-73150000D01*
%TO.N,IO7*%
X162000000Y-71550000D02*
X162300000Y-71850000D01*
X162000000Y-69150000D02*
X162000000Y-71550000D01*
%TO.N,IO8*%
X164724022Y-73150000D02*
X164200000Y-73150000D01*
X164849511Y-73024511D02*
X164724022Y-73150000D01*
X164500000Y-69150000D02*
X164849511Y-69499511D01*
X164849511Y-69499511D02*
X164849511Y-73024511D01*
%TO.N,IO9*%
X167000000Y-69150000D02*
X167000000Y-71550000D01*
X167000000Y-71550000D02*
X167300000Y-71850000D01*
%TO.N,DC*%
X148700000Y-64900000D02*
X148700000Y-60600000D01*
X147000000Y-66600000D02*
X148700000Y-64900000D01*
X149400000Y-59900000D02*
X150200000Y-59900000D01*
X146600000Y-66600000D02*
X147000000Y-66600000D01*
X148700000Y-60600000D02*
X149400000Y-59900000D01*
%TO.N,IO10*%
X169849511Y-69499511D02*
X169849511Y-73075489D01*
X169775000Y-73150000D02*
X169200000Y-73150000D01*
X169849511Y-73075489D02*
X169775000Y-73150000D01*
X169500000Y-69150000D02*
X169849511Y-69499511D01*
%TO.N,R*%
X162325213Y-55975500D02*
X147175500Y-55975500D01*
X147175500Y-55975500D02*
X146775500Y-56375500D01*
X146775500Y-56375500D02*
X146400000Y-56375500D01*
%TO.N,G*%
X163200000Y-56700000D02*
X147124600Y-56700000D01*
X146700099Y-57124501D02*
X146099903Y-57124501D01*
X147124600Y-56700000D02*
X146700099Y-57124501D01*
X146099903Y-57124501D02*
X145219602Y-56244200D01*
%TO.N,B*%
X162500000Y-57600000D02*
X144819589Y-57600000D01*
X144819589Y-57600000D02*
X143219589Y-56000000D01*
X143219589Y-56000000D02*
X141900000Y-56000000D01*
%TO.N,EN*%
X157189455Y-63935145D02*
X164773930Y-56350670D01*
X164773930Y-56350670D02*
X164773930Y-55965767D01*
X155518647Y-63935145D02*
X157189455Y-63935145D01*
D37*
%TO.N,Net-(C1-Pad1)*%
X147142791Y-61042791D02*
X147142791Y-64475980D01*
X146700000Y-60600000D02*
X147142791Y-61042791D01*
%TO.N,Net-(C2-Pad1)*%
X146300000Y-61600000D02*
X146300000Y-63900000D01*
D36*
%TO.N,Net-(C4-Pad1)*%
X151400000Y-62300000D02*
X154182929Y-62300000D01*
X150200000Y-67100000D02*
X150200000Y-63500000D01*
X150200000Y-63500000D02*
X151400000Y-62300000D01*
X154182929Y-62300000D02*
X154637683Y-62754754D01*
%TD*%
%TA.AperFunction,Conductor*%
%TO.N,GND*%
G36*
X137866882Y-54524002D02*
G01*
X137913375Y-54577658D01*
X137923479Y-54647932D01*
X137901848Y-54702451D01*
X137819449Y-54819693D01*
X137761905Y-54967286D01*
X137760913Y-54974819D01*
X137760913Y-54974820D01*
X137742626Y-55113729D01*
X137741228Y-55124345D01*
X137748257Y-55188012D01*
X137757380Y-55270641D01*
X137758612Y-55281802D01*
X137761222Y-55288933D01*
X137761222Y-55288935D01*
X137809486Y-55420822D01*
X137813052Y-55430568D01*
X137817288Y-55436871D01*
X137817288Y-55436872D01*
X137890752Y-55546197D01*
X137901407Y-55562054D01*
X137907026Y-55567167D01*
X137907027Y-55567168D01*
X138002687Y-55654211D01*
X138018575Y-55668668D01*
X138157792Y-55744257D01*
X138311021Y-55784456D01*
X138394976Y-55785775D01*
X138461818Y-55786825D01*
X138461821Y-55786825D01*
X138469415Y-55786944D01*
X138623831Y-55751578D01*
X138707769Y-55709362D01*
X138758571Y-55683812D01*
X138758574Y-55683810D01*
X138765354Y-55680400D01*
X138771125Y-55675471D01*
X138771128Y-55675469D01*
X138880035Y-55582453D01*
X138880035Y-55582452D01*
X138885813Y-55577518D01*
X138978254Y-55448873D01*
X139037341Y-55301890D01*
X139047240Y-55232334D01*
X139059080Y-55149140D01*
X139059080Y-55149137D01*
X139059661Y-55145056D01*
X139059806Y-55131249D01*
X139058521Y-55120633D01*
X139070196Y-55050605D01*
X139117878Y-54998004D01*
X139183609Y-54979500D01*
X145432098Y-54979500D01*
X145500219Y-54999502D01*
X145536679Y-55035224D01*
X145596667Y-55124495D01*
X145596671Y-55124499D01*
X145600908Y-55130805D01*
X145606527Y-55135918D01*
X145606528Y-55135919D01*
X145695475Y-55216854D01*
X145718076Y-55237419D01*
X145857293Y-55313008D01*
X146010522Y-55353207D01*
X146092266Y-55354491D01*
X146161319Y-55355576D01*
X146161322Y-55355576D01*
X146168916Y-55355695D01*
X146323332Y-55320329D01*
X146414947Y-55274252D01*
X146458072Y-55252563D01*
X146458075Y-55252561D01*
X146464855Y-55249151D01*
X146470626Y-55244222D01*
X146470629Y-55244220D01*
X146579536Y-55151204D01*
X146579536Y-55151203D01*
X146585314Y-55146269D01*
X146667445Y-55031971D01*
X146723437Y-54988326D01*
X146769765Y-54979500D01*
X158615505Y-54979500D01*
X158683626Y-54999502D01*
X158730119Y-55053158D01*
X158738636Y-55093327D01*
X158740729Y-55093096D01*
X158756102Y-55232334D01*
X158758113Y-55250553D01*
X158760723Y-55257684D01*
X158760723Y-55257686D01*
X158808425Y-55388038D01*
X158812553Y-55399319D01*
X158816789Y-55405622D01*
X158820239Y-55412394D01*
X158817306Y-55413889D01*
X158834217Y-55467453D01*
X158815596Y-55535964D01*
X158762891Y-55583532D01*
X158708243Y-55596000D01*
X147229420Y-55596000D01*
X147205473Y-55593451D01*
X147203807Y-55593372D01*
X147193624Y-55591180D01*
X147183282Y-55592404D01*
X147183279Y-55592404D01*
X147160287Y-55595126D01*
X147154346Y-55595477D01*
X147154354Y-55595572D01*
X147149174Y-55596000D01*
X147143976Y-55596000D01*
X147138854Y-55596853D01*
X147138849Y-55596853D01*
X147124927Y-55599171D01*
X147119050Y-55600008D01*
X147112549Y-55600777D01*
X147078497Y-55604807D01*
X147078495Y-55604808D01*
X147068159Y-55606031D01*
X147059910Y-55609992D01*
X147050874Y-55611496D01*
X147041705Y-55616443D01*
X147041703Y-55616444D01*
X147005740Y-55635848D01*
X147000451Y-55638543D01*
X146969447Y-55653431D01*
X146954268Y-55660720D01*
X146949992Y-55664314D01*
X146948052Y-55666254D01*
X146946141Y-55668007D01*
X146946051Y-55668056D01*
X146945939Y-55667933D01*
X146945404Y-55668405D01*
X146939686Y-55671490D01*
X146932619Y-55679135D01*
X146903084Y-55711086D01*
X146899654Y-55714652D01*
X146844645Y-55769661D01*
X146782333Y-55803687D01*
X146711518Y-55798622D01*
X146696599Y-55791925D01*
X146636274Y-55759984D01*
X146482633Y-55721392D01*
X146475034Y-55721352D01*
X146475033Y-55721352D01*
X146409181Y-55721007D01*
X146324221Y-55720562D01*
X146316841Y-55722334D01*
X146316839Y-55722334D01*
X146177563Y-55755771D01*
X146177560Y-55755772D01*
X146170184Y-55757543D01*
X146029414Y-55830200D01*
X146023697Y-55835187D01*
X146023690Y-55835192D01*
X145948346Y-55900919D01*
X145883864Y-55930627D01*
X145813557Y-55920757D01*
X145761677Y-55877337D01*
X145718457Y-55814451D01*
X145718456Y-55814449D01*
X145714155Y-55808192D01*
X145595877Y-55702811D01*
X145588491Y-55698900D01*
X145530004Y-55667933D01*
X145455876Y-55628684D01*
X145302235Y-55590092D01*
X145294636Y-55590052D01*
X145294635Y-55590052D01*
X145228783Y-55589707D01*
X145143823Y-55589262D01*
X145136443Y-55591034D01*
X145136441Y-55591034D01*
X144997165Y-55624471D01*
X144997162Y-55624472D01*
X144989786Y-55626243D01*
X144849016Y-55698900D01*
X144729641Y-55803038D01*
X144638552Y-55932644D01*
X144631266Y-55951332D01*
X144594399Y-56045892D01*
X144581008Y-56080237D01*
X144580016Y-56087770D01*
X144580016Y-56087771D01*
X144570025Y-56163664D01*
X144560331Y-56237296D01*
X144564306Y-56273300D01*
X144576564Y-56384327D01*
X144577715Y-56394753D01*
X144580325Y-56401884D01*
X144580325Y-56401886D01*
X144627847Y-56531747D01*
X144632473Y-56602593D01*
X144598063Y-56664693D01*
X144535541Y-56698332D01*
X144464758Y-56692829D01*
X144420426Y-56664143D01*
X143526067Y-55769784D01*
X143510925Y-55751036D01*
X143509810Y-55749811D01*
X143504160Y-55741060D01*
X143495982Y-55734613D01*
X143495980Y-55734611D01*
X143477789Y-55720271D01*
X143473348Y-55716325D01*
X143473286Y-55716398D01*
X143469322Y-55713039D01*
X143465645Y-55709362D01*
X143449897Y-55698108D01*
X143445227Y-55694602D01*
X143404942Y-55662844D01*
X143396308Y-55659812D01*
X143388855Y-55654486D01*
X143339739Y-55639797D01*
X143334097Y-55637964D01*
X143293222Y-55623610D01*
X143293221Y-55623610D01*
X143285738Y-55620982D01*
X143280173Y-55620500D01*
X143277465Y-55620500D01*
X143274831Y-55620386D01*
X143274733Y-55620357D01*
X143274740Y-55620193D01*
X143274036Y-55620149D01*
X143267811Y-55618287D01*
X143213954Y-55620403D01*
X143209007Y-55620500D01*
X142499682Y-55620500D01*
X142431561Y-55600498D01*
X142405114Y-55574860D01*
X142403878Y-55575949D01*
X142398855Y-55570251D01*
X142394553Y-55563992D01*
X142388770Y-55558839D01*
X142332206Y-55508443D01*
X142276275Y-55458611D01*
X142268889Y-55454700D01*
X142164292Y-55399319D01*
X142136274Y-55384484D01*
X141982633Y-55345892D01*
X141975034Y-55345852D01*
X141975033Y-55345852D01*
X141909181Y-55345507D01*
X141824221Y-55345062D01*
X141816841Y-55346834D01*
X141816839Y-55346834D01*
X141677563Y-55380271D01*
X141677560Y-55380272D01*
X141670184Y-55382043D01*
X141529414Y-55454700D01*
X141410039Y-55558838D01*
X141318950Y-55688444D01*
X141291779Y-55758134D01*
X141265408Y-55825773D01*
X141261406Y-55836037D01*
X141260414Y-55843570D01*
X141260414Y-55843571D01*
X141243046Y-55975500D01*
X141240729Y-55993096D01*
X141246466Y-56045062D01*
X141254756Y-56120143D01*
X141258113Y-56150553D01*
X141260723Y-56157684D01*
X141260723Y-56157686D01*
X141303032Y-56273300D01*
X141312553Y-56299319D01*
X141316789Y-56305622D01*
X141316789Y-56305623D01*
X141389638Y-56414033D01*
X141400908Y-56430805D01*
X141406527Y-56435918D01*
X141406528Y-56435919D01*
X141512460Y-56532309D01*
X141518076Y-56537419D01*
X141657293Y-56613008D01*
X141810522Y-56653207D01*
X141894477Y-56654526D01*
X141961319Y-56655576D01*
X141961322Y-56655576D01*
X141968916Y-56655695D01*
X142051809Y-56636710D01*
X142122675Y-56640999D01*
X142179973Y-56682921D01*
X142205511Y-56749166D01*
X142191180Y-56818701D01*
X142183151Y-56831800D01*
X142139534Y-56894093D01*
X142134056Y-56903579D01*
X142045674Y-57093113D01*
X142041928Y-57103405D01*
X141987804Y-57305401D01*
X141985901Y-57316196D01*
X141967674Y-57524525D01*
X141967674Y-57535475D01*
X141985901Y-57743804D01*
X141987804Y-57754599D01*
X142041928Y-57956595D01*
X142045674Y-57966887D01*
X142134054Y-58156417D01*
X142139534Y-58165907D01*
X142168411Y-58207149D01*
X142178886Y-58215523D01*
X142192333Y-58208455D01*
X143140905Y-57259884D01*
X143203217Y-57225859D01*
X143274033Y-57230924D01*
X143319095Y-57259884D01*
X144268389Y-58209178D01*
X144280162Y-58215606D01*
X144292176Y-58206311D01*
X144320466Y-58165907D01*
X144325946Y-58156417D01*
X144416329Y-57962591D01*
X144463247Y-57909306D01*
X144531524Y-57889845D01*
X144599484Y-57910387D01*
X144608528Y-57916890D01*
X144634236Y-57937156D01*
X144642870Y-57940188D01*
X144650323Y-57945514D01*
X144699439Y-57960203D01*
X144705081Y-57962036D01*
X144718895Y-57966887D01*
X144753440Y-57979018D01*
X144759005Y-57979500D01*
X144761713Y-57979500D01*
X144764347Y-57979614D01*
X144764445Y-57979643D01*
X144764438Y-57979807D01*
X144765142Y-57979851D01*
X144771367Y-57981713D01*
X144825224Y-57979597D01*
X144830171Y-57979500D01*
X161900141Y-57979500D01*
X161968262Y-57999502D01*
X161995522Y-58023169D01*
X161996672Y-58024501D01*
X162000908Y-58030805D01*
X162006525Y-58035916D01*
X162098266Y-58119393D01*
X162118076Y-58137419D01*
X162124751Y-58141043D01*
X162124752Y-58141044D01*
X162185227Y-58173879D01*
X162235549Y-58223961D01*
X162250806Y-58293299D01*
X162226154Y-58359878D01*
X162214201Y-58373705D01*
X157069166Y-63518740D01*
X157006854Y-63552766D01*
X156980071Y-63555645D01*
X156118329Y-63555645D01*
X156050208Y-63535643D01*
X156023761Y-63510005D01*
X156022525Y-63511094D01*
X156017502Y-63505396D01*
X156013200Y-63499137D01*
X155894922Y-63393756D01*
X155887536Y-63389845D01*
X155794745Y-63340715D01*
X155754921Y-63319629D01*
X155601280Y-63281037D01*
X155593681Y-63280997D01*
X155593680Y-63280997D01*
X155527828Y-63280652D01*
X155442868Y-63280207D01*
X155435488Y-63281979D01*
X155435486Y-63281979D01*
X155316991Y-63310427D01*
X155246083Y-63306880D01*
X155188349Y-63265560D01*
X155162119Y-63199586D01*
X155175722Y-63129905D01*
X155185255Y-63114382D01*
X155206666Y-63084585D01*
X155215438Y-63072378D01*
X155274525Y-62925395D01*
X155283264Y-62863992D01*
X155296264Y-62772645D01*
X155296264Y-62772642D01*
X155296845Y-62768561D01*
X155296990Y-62754754D01*
X155277959Y-62597487D01*
X155221963Y-62449300D01*
X155132236Y-62318746D01*
X155013958Y-62213365D01*
X155004298Y-62208250D01*
X154880671Y-62142793D01*
X154880672Y-62142793D01*
X154873957Y-62139238D01*
X154720316Y-62100646D01*
X154712717Y-62100606D01*
X154712716Y-62100606D01*
X154573444Y-62099876D01*
X154505429Y-62079517D01*
X154481902Y-62055927D01*
X154480159Y-62057513D01*
X154473149Y-62049810D01*
X154467500Y-62041060D01*
X154459322Y-62034613D01*
X154459320Y-62034611D01*
X154441129Y-62020271D01*
X154436688Y-62016325D01*
X154436626Y-62016398D01*
X154432662Y-62013039D01*
X154428985Y-62009362D01*
X154413237Y-61998108D01*
X154408567Y-61994602D01*
X154368282Y-61962844D01*
X154359648Y-61959812D01*
X154352195Y-61954486D01*
X154303079Y-61939797D01*
X154297437Y-61937964D01*
X154256562Y-61923610D01*
X154256561Y-61923610D01*
X154249078Y-61920982D01*
X154243513Y-61920500D01*
X154240805Y-61920500D01*
X154238171Y-61920386D01*
X154238073Y-61920357D01*
X154238080Y-61920193D01*
X154237376Y-61920149D01*
X154231151Y-61918287D01*
X154177294Y-61920403D01*
X154172347Y-61920500D01*
X151453920Y-61920500D01*
X151429973Y-61917951D01*
X151428307Y-61917872D01*
X151418124Y-61915680D01*
X151407782Y-61916904D01*
X151407779Y-61916904D01*
X151384787Y-61919626D01*
X151378846Y-61919977D01*
X151378854Y-61920072D01*
X151373674Y-61920500D01*
X151368476Y-61920500D01*
X151363354Y-61921353D01*
X151363349Y-61921353D01*
X151349427Y-61923671D01*
X151343550Y-61924508D01*
X151337049Y-61925277D01*
X151302997Y-61929307D01*
X151302995Y-61929308D01*
X151292659Y-61930531D01*
X151284410Y-61934492D01*
X151275374Y-61935996D01*
X151266205Y-61940943D01*
X151266203Y-61940944D01*
X151230240Y-61960348D01*
X151224951Y-61963043D01*
X151214768Y-61967933D01*
X151178768Y-61985220D01*
X151174492Y-61988814D01*
X151172552Y-61990754D01*
X151170641Y-61992507D01*
X151170551Y-61992556D01*
X151170439Y-61992433D01*
X151169904Y-61992905D01*
X151164186Y-61995990D01*
X151157119Y-62003635D01*
X151127584Y-62035586D01*
X151124154Y-62039152D01*
X149969784Y-63193522D01*
X149951036Y-63208664D01*
X149949811Y-63209779D01*
X149941060Y-63215429D01*
X149934613Y-63223607D01*
X149934611Y-63223609D01*
X149920271Y-63241800D01*
X149916325Y-63246241D01*
X149916398Y-63246303D01*
X149913039Y-63250267D01*
X149909362Y-63253944D01*
X149898108Y-63269692D01*
X149894602Y-63274362D01*
X149862844Y-63314647D01*
X149859812Y-63323281D01*
X149854486Y-63330734D01*
X149851501Y-63340715D01*
X149839799Y-63379844D01*
X149837964Y-63385492D01*
X149829733Y-63408930D01*
X149820982Y-63433851D01*
X149820500Y-63439416D01*
X149820500Y-63442124D01*
X149820386Y-63444758D01*
X149820357Y-63444856D01*
X149820193Y-63444849D01*
X149820149Y-63445553D01*
X149818287Y-63451778D01*
X149818696Y-63462183D01*
X149820403Y-63505635D01*
X149820500Y-63510582D01*
X149820500Y-66505187D01*
X149800498Y-66573308D01*
X149777330Y-66600135D01*
X149710039Y-66658838D01*
X149618950Y-66788444D01*
X149596389Y-66846311D01*
X149572463Y-66907678D01*
X149561406Y-66936037D01*
X149560414Y-66943570D01*
X149560414Y-66943571D01*
X149546894Y-67046269D01*
X149540729Y-67093096D01*
X149548861Y-67166756D01*
X149554863Y-67221112D01*
X149558113Y-67250553D01*
X149560723Y-67257684D01*
X149560723Y-67257686D01*
X149605620Y-67380373D01*
X149612553Y-67399319D01*
X149700908Y-67530805D01*
X149706527Y-67535918D01*
X149706528Y-67535919D01*
X149717903Y-67546269D01*
X149818076Y-67637419D01*
X149957293Y-67713008D01*
X150110522Y-67753207D01*
X150194477Y-67754526D01*
X150261319Y-67755576D01*
X150261322Y-67755576D01*
X150268916Y-67755695D01*
X150423332Y-67720329D01*
X150493742Y-67684917D01*
X150558072Y-67652563D01*
X150558075Y-67652561D01*
X150564855Y-67649151D01*
X150570626Y-67644222D01*
X150570629Y-67644220D01*
X150679536Y-67551204D01*
X150679536Y-67551203D01*
X150685314Y-67546269D01*
X150777755Y-67417624D01*
X150836842Y-67270641D01*
X150851627Y-67166756D01*
X150858581Y-67117891D01*
X150858581Y-67117888D01*
X150859162Y-67113807D01*
X150859307Y-67100000D01*
X150840276Y-66942733D01*
X150784280Y-66794546D01*
X150746209Y-66739152D01*
X150698855Y-66670251D01*
X150698854Y-66670249D01*
X150694553Y-66663992D01*
X150621681Y-66599065D01*
X150584126Y-66538816D01*
X150579500Y-66504989D01*
X150579500Y-63709384D01*
X150599502Y-63641263D01*
X150616405Y-63620289D01*
X151520289Y-62716405D01*
X151582601Y-62682379D01*
X151609384Y-62679500D01*
X153193519Y-62679500D01*
X153261640Y-62699502D01*
X153308133Y-62753158D01*
X153318237Y-62823432D01*
X153296606Y-62877951D01*
X153218950Y-62988444D01*
X153216190Y-62995524D01*
X153167078Y-63121490D01*
X153161406Y-63136037D01*
X153160414Y-63143570D01*
X153160414Y-63143571D01*
X153142073Y-63282888D01*
X153140729Y-63293096D01*
X153147177Y-63351499D01*
X153157001Y-63440480D01*
X153158113Y-63450553D01*
X153160723Y-63457684D01*
X153160723Y-63457686D01*
X153206299Y-63582228D01*
X153212553Y-63599319D01*
X153216789Y-63605622D01*
X153216789Y-63605623D01*
X153286514Y-63709384D01*
X153300908Y-63730805D01*
X153306527Y-63735918D01*
X153306528Y-63735919D01*
X153379299Y-63802135D01*
X153416222Y-63862775D01*
X153420500Y-63895329D01*
X153420500Y-65546080D01*
X153417951Y-65570028D01*
X153417872Y-65571693D01*
X153415680Y-65581876D01*
X153416904Y-65592217D01*
X153419627Y-65615223D01*
X153419977Y-65621154D01*
X153420072Y-65621146D01*
X153420500Y-65626324D01*
X153420500Y-65631524D01*
X153421354Y-65636653D01*
X153421354Y-65636656D01*
X153423669Y-65650565D01*
X153424506Y-65656443D01*
X153430530Y-65707341D01*
X153434493Y-65715593D01*
X153435996Y-65724626D01*
X153440943Y-65733795D01*
X153440944Y-65733797D01*
X153460334Y-65769732D01*
X153463031Y-65775025D01*
X153481785Y-65814082D01*
X153481788Y-65814086D01*
X153485219Y-65821232D01*
X153488814Y-65825508D01*
X153490737Y-65827431D01*
X153492509Y-65829363D01*
X153492552Y-65829442D01*
X153492428Y-65829555D01*
X153492904Y-65830095D01*
X153495990Y-65835814D01*
X153503635Y-65842881D01*
X153535586Y-65872416D01*
X153539152Y-65875846D01*
X154075628Y-66412322D01*
X154109654Y-66474634D01*
X154104589Y-66545449D01*
X154062042Y-66602285D01*
X154001341Y-66626544D01*
X153986941Y-66628248D01*
X153978000Y-66629306D01*
X153977999Y-66629306D01*
X153967659Y-66630530D01*
X153959407Y-66634493D01*
X153950374Y-66635996D01*
X153941205Y-66640943D01*
X153941203Y-66640944D01*
X153905268Y-66660334D01*
X153899975Y-66663031D01*
X153860918Y-66681785D01*
X153860914Y-66681788D01*
X153853768Y-66685219D01*
X153849492Y-66688814D01*
X153847569Y-66690737D01*
X153845637Y-66692509D01*
X153845558Y-66692552D01*
X153845445Y-66692428D01*
X153844905Y-66692904D01*
X153839186Y-66695990D01*
X153832119Y-66703635D01*
X153802584Y-66735586D01*
X153799154Y-66739152D01*
X152525319Y-68012987D01*
X152463007Y-68047013D01*
X152394891Y-68042920D01*
X152268443Y-67999010D01*
X152268441Y-67999009D01*
X152262778Y-67997043D01*
X152256845Y-67996183D01*
X152256842Y-67996182D01*
X152060140Y-67967662D01*
X152060137Y-67967662D01*
X152054200Y-67966801D01*
X151843667Y-67976545D01*
X151837843Y-67977949D01*
X151837840Y-67977949D01*
X151644607Y-68024518D01*
X151644605Y-68024519D01*
X151638774Y-68025924D01*
X151633316Y-68028406D01*
X151633312Y-68028407D01*
X151554562Y-68064213D01*
X151446916Y-68113157D01*
X151275014Y-68235096D01*
X151129272Y-68387340D01*
X151126021Y-68392375D01*
X151035092Y-68533200D01*
X151014948Y-68564397D01*
X150936166Y-68759878D01*
X150895771Y-68966729D01*
X150895500Y-68972270D01*
X150895500Y-69277659D01*
X150910493Y-69434806D01*
X150969823Y-69637042D01*
X150972573Y-69642381D01*
X151051960Y-69796520D01*
X151066324Y-69824410D01*
X151078721Y-69840192D01*
X151192808Y-69985432D01*
X151192812Y-69985436D01*
X151196514Y-69990149D01*
X151201044Y-69994080D01*
X151201045Y-69994081D01*
X151351165Y-70124350D01*
X151351170Y-70124354D01*
X151355696Y-70128281D01*
X151538126Y-70233819D01*
X151543791Y-70235786D01*
X151546953Y-70237234D01*
X151600564Y-70283779D01*
X151620500Y-70351797D01*
X151620500Y-71496080D01*
X151617951Y-71520028D01*
X151617872Y-71521693D01*
X151615680Y-71531876D01*
X151616904Y-71542217D01*
X151619627Y-71565223D01*
X151619977Y-71571154D01*
X151620072Y-71571146D01*
X151620500Y-71576324D01*
X151620500Y-71581524D01*
X151621354Y-71586653D01*
X151621354Y-71586656D01*
X151623669Y-71600565D01*
X151624506Y-71606443D01*
X151626695Y-71624934D01*
X151630530Y-71657341D01*
X151634493Y-71665593D01*
X151635996Y-71674626D01*
X151640943Y-71683795D01*
X151640944Y-71683797D01*
X151660334Y-71719732D01*
X151663031Y-71725025D01*
X151681785Y-71764082D01*
X151681788Y-71764086D01*
X151685219Y-71771232D01*
X151688814Y-71775508D01*
X151689800Y-71776494D01*
X151694624Y-71783964D01*
X151692917Y-71785066D01*
X151718660Y-71837460D01*
X151720500Y-71858913D01*
X151720501Y-71971844D01*
X151720501Y-72075066D01*
X151733511Y-72140479D01*
X151735266Y-72149301D01*
X151731066Y-72150136D01*
X151736157Y-72197324D01*
X151735172Y-72200680D01*
X151735266Y-72200699D01*
X151720500Y-72274933D01*
X151720500Y-72442825D01*
X151700499Y-72510944D01*
X151670066Y-72543651D01*
X151619273Y-72581718D01*
X151606715Y-72594276D01*
X151530214Y-72696351D01*
X151521676Y-72711946D01*
X151476522Y-72832394D01*
X151472895Y-72847649D01*
X151467369Y-72898514D01*
X151467000Y-72905328D01*
X151467000Y-72931885D01*
X151471475Y-72947124D01*
X151472865Y-72948329D01*
X151480548Y-72950000D01*
X151914900Y-72950000D01*
X151939481Y-72952421D01*
X151949933Y-72954500D01*
X151965280Y-72954500D01*
X152374001Y-72954499D01*
X152442120Y-72974501D01*
X152488614Y-73028156D01*
X152500000Y-73080499D01*
X152500000Y-73839884D01*
X152504475Y-73855123D01*
X152505865Y-73856328D01*
X152513548Y-73857999D01*
X152669669Y-73857999D01*
X152676488Y-73857630D01*
X152730894Y-73851720D01*
X152800776Y-73864249D01*
X152852791Y-73912570D01*
X152870500Y-73976983D01*
X152870500Y-74719020D01*
X152850498Y-74787141D01*
X152796842Y-74833634D01*
X152744500Y-74845020D01*
X142954177Y-74845020D01*
X142886056Y-74825018D01*
X142839563Y-74771362D01*
X142829141Y-74706822D01*
X142828947Y-74706811D01*
X142828995Y-74705918D01*
X142828914Y-74705414D01*
X142829131Y-74703419D01*
X142829132Y-74703408D01*
X142829500Y-74700017D01*
X142829500Y-74530500D01*
X142849502Y-74462379D01*
X142903158Y-74415886D01*
X142955500Y-74404500D01*
X148271080Y-74404500D01*
X148295028Y-74407049D01*
X148296693Y-74407128D01*
X148306876Y-74409320D01*
X148317217Y-74408096D01*
X148340223Y-74405373D01*
X148346154Y-74405023D01*
X148346146Y-74404928D01*
X148351324Y-74404500D01*
X148356524Y-74404500D01*
X148361653Y-74403646D01*
X148361656Y-74403646D01*
X148375565Y-74401331D01*
X148381443Y-74400494D01*
X148422001Y-74395694D01*
X148422002Y-74395694D01*
X148432341Y-74394470D01*
X148440593Y-74390507D01*
X148449626Y-74389004D01*
X148458795Y-74384057D01*
X148458797Y-74384056D01*
X148494732Y-74364666D01*
X148500025Y-74361969D01*
X148539082Y-74343215D01*
X148539086Y-74343212D01*
X148546232Y-74339781D01*
X148550508Y-74336186D01*
X148552431Y-74334263D01*
X148554363Y-74332491D01*
X148554442Y-74332448D01*
X148554555Y-74332572D01*
X148555095Y-74332096D01*
X148560814Y-74329010D01*
X148597417Y-74289413D01*
X148600846Y-74285848D01*
X149245290Y-73641404D01*
X149307602Y-73607378D01*
X149334385Y-73604499D01*
X149550066Y-73604499D01*
X149624301Y-73589734D01*
X149634621Y-73582839D01*
X149634622Y-73582838D01*
X149682368Y-73550935D01*
X149737584Y-73530570D01*
X149739268Y-73530371D01*
X149745176Y-73530023D01*
X149745168Y-73529928D01*
X149750346Y-73529500D01*
X149755546Y-73529500D01*
X149760675Y-73528646D01*
X149760678Y-73528646D01*
X149774587Y-73526331D01*
X149780465Y-73525494D01*
X149821023Y-73520694D01*
X149821024Y-73520694D01*
X149831363Y-73519470D01*
X149839615Y-73515507D01*
X149848648Y-73514004D01*
X149857817Y-73509057D01*
X149857819Y-73509056D01*
X149893754Y-73489666D01*
X149899047Y-73486969D01*
X149938104Y-73468215D01*
X149938108Y-73468212D01*
X149945254Y-73464781D01*
X149949530Y-73461186D01*
X149951453Y-73459263D01*
X149953385Y-73457491D01*
X149953464Y-73457448D01*
X149953577Y-73457572D01*
X149954117Y-73457096D01*
X149959836Y-73454010D01*
X149996439Y-73414413D01*
X149999868Y-73410848D01*
X150016047Y-73394669D01*
X151467001Y-73394669D01*
X151467371Y-73401490D01*
X151472895Y-73452352D01*
X151476521Y-73467604D01*
X151521676Y-73588054D01*
X151530214Y-73603649D01*
X151606715Y-73705724D01*
X151619276Y-73718285D01*
X151721351Y-73794786D01*
X151736946Y-73803324D01*
X151857394Y-73848478D01*
X151872649Y-73852105D01*
X151923514Y-73857631D01*
X151930328Y-73858000D01*
X152081885Y-73858000D01*
X152097124Y-73853525D01*
X152098329Y-73852135D01*
X152100000Y-73844452D01*
X152100000Y-73368115D01*
X152095525Y-73352876D01*
X152094135Y-73351671D01*
X152086452Y-73350000D01*
X151485116Y-73350000D01*
X151469877Y-73354475D01*
X151468672Y-73355865D01*
X151467001Y-73363548D01*
X151467001Y-73394669D01*
X150016047Y-73394669D01*
X150079727Y-73330989D01*
X150098475Y-73315847D01*
X150099700Y-73314732D01*
X150108451Y-73309082D01*
X150114898Y-73300904D01*
X150114900Y-73300902D01*
X150129240Y-73282711D01*
X150133189Y-73278267D01*
X150133115Y-73278205D01*
X150136468Y-73274248D01*
X150140149Y-73270567D01*
X150151376Y-73254857D01*
X150154932Y-73250120D01*
X150155420Y-73249502D01*
X150186667Y-73209864D01*
X150189700Y-73201227D01*
X150195024Y-73193777D01*
X150209713Y-73144662D01*
X150211545Y-73139025D01*
X150225901Y-73098144D01*
X150225901Y-73098143D01*
X150228529Y-73090660D01*
X150229011Y-73085095D01*
X150229011Y-73082387D01*
X150229125Y-73079753D01*
X150229154Y-73079655D01*
X150229318Y-73079662D01*
X150229362Y-73078958D01*
X150231224Y-73072733D01*
X150229108Y-73018876D01*
X150229011Y-73013929D01*
X150229011Y-70111287D01*
X150249013Y-70043166D01*
X150263993Y-70024156D01*
X150301064Y-69985432D01*
X150370728Y-69912660D01*
X150427710Y-69824410D01*
X150481800Y-69740640D01*
X150481801Y-69740637D01*
X150485052Y-69735603D01*
X150563834Y-69540122D01*
X150604229Y-69333271D01*
X150604500Y-69327730D01*
X150604500Y-69022341D01*
X150589507Y-68865194D01*
X150530177Y-68662958D01*
X150476929Y-68559571D01*
X150436422Y-68480921D01*
X150436420Y-68480918D01*
X150433676Y-68475590D01*
X150368310Y-68392375D01*
X150307192Y-68314568D01*
X150307188Y-68314564D01*
X150303486Y-68309851D01*
X150298955Y-68305919D01*
X150148835Y-68175650D01*
X150148830Y-68175646D01*
X150144304Y-68171719D01*
X149961874Y-68066181D01*
X149762778Y-67997043D01*
X149756845Y-67996183D01*
X149756842Y-67996182D01*
X149560140Y-67967662D01*
X149560137Y-67967662D01*
X149554200Y-67966801D01*
X149343667Y-67976545D01*
X149337843Y-67977949D01*
X149337840Y-67977949D01*
X149144607Y-68024518D01*
X149144605Y-68024519D01*
X149138774Y-68025924D01*
X149133316Y-68028406D01*
X149133312Y-68028407D01*
X149054562Y-68064213D01*
X148946916Y-68113157D01*
X148775014Y-68235096D01*
X148629272Y-68387340D01*
X148626021Y-68392375D01*
X148535092Y-68533200D01*
X148514948Y-68564397D01*
X148436166Y-68759878D01*
X148395771Y-68966729D01*
X148395500Y-68972270D01*
X148395500Y-69277659D01*
X148410493Y-69434806D01*
X148469823Y-69637042D01*
X148472573Y-69642381D01*
X148551960Y-69796520D01*
X148566324Y-69824410D01*
X148578721Y-69840192D01*
X148692808Y-69985432D01*
X148692812Y-69985436D01*
X148696514Y-69990149D01*
X148701044Y-69994080D01*
X148701045Y-69994081D01*
X148851165Y-70124350D01*
X148851170Y-70124354D01*
X148855696Y-70128281D01*
X149038126Y-70233819D01*
X149237222Y-70302957D01*
X149243155Y-70303817D01*
X149243158Y-70303818D01*
X149362091Y-70321062D01*
X149426637Y-70350632D01*
X149464949Y-70410403D01*
X149470011Y-70445758D01*
X149470011Y-71032440D01*
X149450009Y-71100561D01*
X149420517Y-71126116D01*
X149401671Y-71147865D01*
X149400000Y-71155548D01*
X149400000Y-71919500D01*
X149379998Y-71987621D01*
X149326342Y-72034114D01*
X149274001Y-72045500D01*
X149212550Y-72045500D01*
X149125999Y-72045501D01*
X149057880Y-72025499D01*
X149011387Y-71971844D01*
X149000000Y-71919501D01*
X149000000Y-71160116D01*
X148995525Y-71144877D01*
X148994135Y-71143672D01*
X148986452Y-71142001D01*
X148830331Y-71142001D01*
X148823510Y-71142371D01*
X148772648Y-71147895D01*
X148757396Y-71151521D01*
X148636946Y-71196676D01*
X148621351Y-71205214D01*
X148519276Y-71281715D01*
X148506715Y-71294276D01*
X148430214Y-71396351D01*
X148421676Y-71411946D01*
X148376522Y-71532394D01*
X148372895Y-71547649D01*
X148367369Y-71598514D01*
X148367000Y-71605328D01*
X148367000Y-71719410D01*
X148346998Y-71787531D01*
X148293342Y-71834024D01*
X148240341Y-71845408D01*
X148200598Y-71845200D01*
X148174221Y-71845062D01*
X148166841Y-71846834D01*
X148166839Y-71846834D01*
X148034913Y-71878507D01*
X147964005Y-71874960D01*
X147906271Y-71833640D01*
X147880041Y-71767667D01*
X147879499Y-71755988D01*
X147879499Y-71624934D01*
X147869090Y-71572599D01*
X147867156Y-71562874D01*
X147867155Y-71562872D01*
X147864734Y-71550699D01*
X147836521Y-71508475D01*
X147815377Y-71476832D01*
X147808484Y-71466516D01*
X147724301Y-71410266D01*
X147650067Y-71395500D01*
X147505500Y-71395500D01*
X147437379Y-71375498D01*
X147390886Y-71321842D01*
X147379500Y-71269500D01*
X147379500Y-70455500D01*
X147399502Y-70387379D01*
X147453158Y-70340886D01*
X147505500Y-70329500D01*
X147647756Y-70329500D01*
X147651153Y-70329131D01*
X147701597Y-70323651D01*
X147701598Y-70323651D01*
X147709448Y-70322798D01*
X147716841Y-70320026D01*
X147716843Y-70320026D01*
X147760078Y-70303818D01*
X147844764Y-70272071D01*
X147851943Y-70266691D01*
X147851946Y-70266689D01*
X147953224Y-70190785D01*
X147960404Y-70185404D01*
X148003426Y-70128000D01*
X148041689Y-70076946D01*
X148041691Y-70076943D01*
X148047071Y-70069764D01*
X148097798Y-69934448D01*
X148104500Y-69872756D01*
X148104500Y-68427244D01*
X148100704Y-68392301D01*
X148098651Y-68373403D01*
X148098651Y-68373402D01*
X148097798Y-68365552D01*
X148091456Y-68348633D01*
X148075443Y-68305919D01*
X148047071Y-68230236D01*
X148041691Y-68223057D01*
X148041689Y-68223054D01*
X147965785Y-68121776D01*
X147960404Y-68114596D01*
X147899812Y-68069185D01*
X147851946Y-68033311D01*
X147851943Y-68033309D01*
X147844764Y-68027929D01*
X147755046Y-67994296D01*
X147716843Y-67979974D01*
X147716841Y-67979974D01*
X147709448Y-67977202D01*
X147701598Y-67976349D01*
X147701597Y-67976349D01*
X147651153Y-67970869D01*
X147651152Y-67970869D01*
X147647756Y-67970500D01*
X146352244Y-67970500D01*
X146348848Y-67970869D01*
X146348847Y-67970869D01*
X146298403Y-67976349D01*
X146298402Y-67976349D01*
X146290552Y-67977202D01*
X146283159Y-67979974D01*
X146283157Y-67979974D01*
X146244954Y-67994296D01*
X146155236Y-68027929D01*
X146148057Y-68033309D01*
X146148054Y-68033311D01*
X146100188Y-68069185D01*
X146039596Y-68114596D01*
X146034215Y-68121776D01*
X145958311Y-68223054D01*
X145958309Y-68223057D01*
X145952929Y-68230236D01*
X145924557Y-68305919D01*
X145908545Y-68348633D01*
X145902202Y-68365552D01*
X145901349Y-68373402D01*
X145901349Y-68373403D01*
X145899296Y-68392301D01*
X145895500Y-68427244D01*
X145895500Y-69872756D01*
X145902202Y-69934448D01*
X145952929Y-70069764D01*
X145958309Y-70076943D01*
X145958311Y-70076946D01*
X145996574Y-70128000D01*
X146039596Y-70185404D01*
X146046776Y-70190785D01*
X146148054Y-70266689D01*
X146148057Y-70266691D01*
X146155236Y-70272071D01*
X146239922Y-70303818D01*
X146283157Y-70320026D01*
X146283159Y-70320026D01*
X146290552Y-70322798D01*
X146298402Y-70323651D01*
X146298403Y-70323651D01*
X146348847Y-70329131D01*
X146352244Y-70329500D01*
X146494500Y-70329500D01*
X146562621Y-70349502D01*
X146609114Y-70403158D01*
X146620500Y-70455500D01*
X146620500Y-71344500D01*
X146600498Y-71412621D01*
X146546842Y-71459114D01*
X146494500Y-71470500D01*
X142955500Y-71470500D01*
X142887379Y-71450498D01*
X142840886Y-71396842D01*
X142829500Y-71344500D01*
X142829499Y-70578402D01*
X142829499Y-70574984D01*
X142829130Y-70571584D01*
X142823685Y-70521452D01*
X142823684Y-70521448D01*
X142822831Y-70513594D01*
X142772355Y-70378949D01*
X142735296Y-70329500D01*
X142691496Y-70271058D01*
X142686118Y-70263882D01*
X142653378Y-70239345D01*
X142610863Y-70182485D01*
X142605837Y-70111667D01*
X142637924Y-70051389D01*
X142770728Y-69912660D01*
X142827710Y-69824410D01*
X142881800Y-69740640D01*
X142881801Y-69740637D01*
X142885052Y-69735603D01*
X142963834Y-69540122D01*
X143004229Y-69333271D01*
X143004500Y-69327730D01*
X143004500Y-69022341D01*
X142989507Y-68865194D01*
X142930177Y-68662958D01*
X142876929Y-68559571D01*
X142836422Y-68480921D01*
X142836420Y-68480918D01*
X142833676Y-68475590D01*
X142768310Y-68392375D01*
X142707192Y-68314568D01*
X142707188Y-68314564D01*
X142703486Y-68309851D01*
X142698955Y-68305919D01*
X142548835Y-68175650D01*
X142548830Y-68175646D01*
X142544304Y-68171719D01*
X142361874Y-68066181D01*
X142162778Y-67997043D01*
X142156845Y-67996183D01*
X142156842Y-67996182D01*
X141960140Y-67967662D01*
X141960137Y-67967662D01*
X141954200Y-67966801D01*
X141743667Y-67976545D01*
X141737843Y-67977949D01*
X141737840Y-67977949D01*
X141544607Y-68024518D01*
X141544605Y-68024519D01*
X141538774Y-68025924D01*
X141533316Y-68028406D01*
X141533312Y-68028407D01*
X141454562Y-68064213D01*
X141346916Y-68113157D01*
X141175014Y-68235096D01*
X141029272Y-68387340D01*
X141026021Y-68392375D01*
X140986447Y-68453664D01*
X140932692Y-68500042D01*
X140862396Y-68509995D01*
X140797879Y-68480363D01*
X140759623Y-68420555D01*
X140755268Y-68398319D01*
X140747743Y-68325794D01*
X140744851Y-68312400D01*
X140693412Y-68158216D01*
X140687239Y-68145038D01*
X140601937Y-68007193D01*
X140592901Y-67995792D01*
X140478171Y-67881261D01*
X140466760Y-67872249D01*
X140328757Y-67787184D01*
X140315576Y-67781037D01*
X140161290Y-67729862D01*
X140147914Y-67726995D01*
X140053562Y-67717328D01*
X140047145Y-67717000D01*
X139672115Y-67717000D01*
X139656876Y-67721475D01*
X139655671Y-67722865D01*
X139654000Y-67730548D01*
X139654000Y-69983885D01*
X139658475Y-69999124D01*
X139659865Y-70000329D01*
X139667548Y-70002000D01*
X139765500Y-70002000D01*
X139833621Y-70022002D01*
X139880114Y-70075658D01*
X139891500Y-70128000D01*
X139891500Y-70249000D01*
X139871498Y-70317121D01*
X139817842Y-70363614D01*
X139765500Y-70375000D01*
X139402500Y-70375000D01*
X139402500Y-70497000D01*
X139382498Y-70565121D01*
X139328842Y-70611614D01*
X139276500Y-70623000D01*
X139272000Y-70623000D01*
X139203879Y-70602998D01*
X139157386Y-70549342D01*
X139146000Y-70497000D01*
X139146000Y-69422115D01*
X139141525Y-69406876D01*
X139140135Y-69405671D01*
X139132452Y-69404000D01*
X138060116Y-69404000D01*
X138044877Y-69408475D01*
X138043672Y-69409865D01*
X138042001Y-69417548D01*
X138042001Y-69872095D01*
X138042338Y-69878614D01*
X138052257Y-69974206D01*
X138055149Y-69987600D01*
X138106590Y-70141791D01*
X138109971Y-70149007D01*
X138120758Y-70219179D01*
X138103132Y-70268576D01*
X138086965Y-70294804D01*
X138080819Y-70307986D01*
X138029826Y-70461725D01*
X138026960Y-70475090D01*
X138017328Y-70569105D01*
X138017000Y-70575522D01*
X138017000Y-70977885D01*
X138021475Y-70993124D01*
X138022865Y-70994329D01*
X138030548Y-70996000D01*
X139276500Y-70996000D01*
X139344621Y-71016002D01*
X139391114Y-71069658D01*
X139402500Y-71122000D01*
X139402500Y-71397086D01*
X139382498Y-71465207D01*
X139366718Y-71478880D01*
X139368604Y-71480514D01*
X139343171Y-71509865D01*
X139341500Y-71517548D01*
X139341500Y-72614885D01*
X139345975Y-72630124D01*
X139347365Y-72631329D01*
X139355048Y-72633000D01*
X139449430Y-72633000D01*
X139455946Y-72632663D01*
X139551190Y-72622781D01*
X139564586Y-72619888D01*
X139718216Y-72568633D01*
X139731395Y-72562459D01*
X139869728Y-72476856D01*
X139936031Y-72458000D01*
X139941266Y-72458000D01*
X139947781Y-72457663D01*
X140044241Y-72447654D01*
X140057641Y-72444760D01*
X140213209Y-72392859D01*
X140226377Y-72386691D01*
X140365466Y-72300619D01*
X140376867Y-72291583D01*
X140492428Y-72175821D01*
X140494726Y-72172911D01*
X140496803Y-72171438D01*
X140497599Y-72170641D01*
X140497735Y-72170777D01*
X140552641Y-72131847D01*
X140593610Y-72125000D01*
X140889857Y-72125000D01*
X140950365Y-72140479D01*
X140951267Y-72140973D01*
X140958454Y-72146359D01*
X140966859Y-72149510D01*
X140966863Y-72149512D01*
X141088051Y-72194943D01*
X141088053Y-72194943D01*
X141095446Y-72197715D01*
X141103294Y-72198568D01*
X141103296Y-72198568D01*
X141154507Y-72204131D01*
X141157904Y-72204500D01*
X141256872Y-72204500D01*
X141324993Y-72224502D01*
X141338082Y-72235050D01*
X141338882Y-72236118D01*
X141346058Y-72241496D01*
X141446764Y-72316970D01*
X141453949Y-72322355D01*
X141462357Y-72325507D01*
X141581199Y-72370059D01*
X141581201Y-72370059D01*
X141588594Y-72372831D01*
X141596442Y-72373684D01*
X141596444Y-72373684D01*
X141646577Y-72379130D01*
X141649983Y-72379500D01*
X142012446Y-72379500D01*
X142375016Y-72379499D01*
X142378411Y-72379130D01*
X142378416Y-72379130D01*
X142428548Y-72373685D01*
X142428552Y-72373684D01*
X142436406Y-72372831D01*
X142571051Y-72322355D01*
X142578234Y-72316972D01*
X142578238Y-72316970D01*
X142661361Y-72254673D01*
X142727867Y-72229826D01*
X142736925Y-72229500D01*
X146594500Y-72229500D01*
X146662621Y-72249502D01*
X146709114Y-72303158D01*
X146720500Y-72355499D01*
X146720500Y-72442825D01*
X146700500Y-72510944D01*
X146670066Y-72543651D01*
X146619273Y-72581718D01*
X146606715Y-72594276D01*
X146530214Y-72696351D01*
X146521676Y-72711946D01*
X146476522Y-72832394D01*
X146472895Y-72847649D01*
X146467369Y-72898514D01*
X146467000Y-72905328D01*
X146467000Y-72931885D01*
X146471475Y-72947124D01*
X146472865Y-72948329D01*
X146480548Y-72950000D01*
X146914900Y-72950000D01*
X146939481Y-72952421D01*
X146949933Y-72954500D01*
X146965280Y-72954500D01*
X147374001Y-72954499D01*
X147442120Y-72974501D01*
X147488614Y-73028156D01*
X147500000Y-73080499D01*
X147500000Y-73224000D01*
X147479998Y-73292121D01*
X147426342Y-73338614D01*
X147374000Y-73350000D01*
X146485116Y-73350000D01*
X146469877Y-73354475D01*
X146468672Y-73355865D01*
X146467001Y-73363548D01*
X146467001Y-73394669D01*
X146467371Y-73401490D01*
X146472895Y-73452352D01*
X146476521Y-73467603D01*
X146479395Y-73475270D01*
X146484578Y-73546077D01*
X146450658Y-73608446D01*
X146388403Y-73642575D01*
X146361413Y-73645500D01*
X142955499Y-73645500D01*
X142887378Y-73625498D01*
X142840885Y-73571842D01*
X142829499Y-73519500D01*
X142829499Y-73349984D01*
X142828264Y-73338614D01*
X142823685Y-73296452D01*
X142823684Y-73296448D01*
X142822831Y-73288594D01*
X142772355Y-73153949D01*
X142758161Y-73135009D01*
X142691496Y-73046058D01*
X142686118Y-73038882D01*
X142595054Y-72970634D01*
X142578234Y-72958028D01*
X142578233Y-72958027D01*
X142571051Y-72952645D01*
X142512793Y-72930805D01*
X142443801Y-72904941D01*
X142443799Y-72904941D01*
X142436406Y-72902169D01*
X142428558Y-72901316D01*
X142428556Y-72901316D01*
X142378414Y-72895869D01*
X142378413Y-72895869D01*
X142375017Y-72895500D01*
X142012554Y-72895500D01*
X141649984Y-72895501D01*
X141646589Y-72895870D01*
X141646584Y-72895870D01*
X141596452Y-72901315D01*
X141596448Y-72901316D01*
X141588594Y-72902169D01*
X141453949Y-72952645D01*
X141446767Y-72958027D01*
X141446766Y-72958028D01*
X141429946Y-72970634D01*
X141338882Y-73038882D01*
X141338128Y-73037876D01*
X141283655Y-73067621D01*
X141256872Y-73070500D01*
X141157904Y-73070500D01*
X141154507Y-73070869D01*
X141103296Y-73076432D01*
X141103294Y-73076432D01*
X141095446Y-73077285D01*
X141088053Y-73080057D01*
X141088051Y-73080057D01*
X140966863Y-73125488D01*
X140966859Y-73125490D01*
X140958454Y-73128641D01*
X140951267Y-73134027D01*
X140950365Y-73134521D01*
X140889857Y-73150000D01*
X140210143Y-73150000D01*
X140149635Y-73134521D01*
X140148733Y-73134027D01*
X140141546Y-73128641D01*
X140133141Y-73125490D01*
X140133137Y-73125488D01*
X140011949Y-73080057D01*
X140011947Y-73080057D01*
X140004554Y-73077285D01*
X139996706Y-73076432D01*
X139996704Y-73076432D01*
X139945493Y-73070869D01*
X139942096Y-73070500D01*
X139843128Y-73070500D01*
X139775007Y-73050498D01*
X139761918Y-73039950D01*
X139761118Y-73038882D01*
X139670054Y-72970634D01*
X139653234Y-72958028D01*
X139653233Y-72958027D01*
X139646051Y-72952645D01*
X139587793Y-72930805D01*
X139518801Y-72904941D01*
X139518799Y-72904941D01*
X139511406Y-72902169D01*
X139503558Y-72901316D01*
X139503556Y-72901316D01*
X139453414Y-72895869D01*
X139453413Y-72895869D01*
X139450017Y-72895500D01*
X139087554Y-72895500D01*
X138724984Y-72895501D01*
X138721589Y-72895870D01*
X138721584Y-72895870D01*
X138671452Y-72901315D01*
X138671448Y-72901316D01*
X138663594Y-72902169D01*
X138528949Y-72952645D01*
X138521767Y-72958027D01*
X138521766Y-72958028D01*
X138504946Y-72970634D01*
X138413882Y-73038882D01*
X138408504Y-73046058D01*
X138341840Y-73135009D01*
X138327645Y-73153949D01*
X138324493Y-73162357D01*
X138279944Y-73281193D01*
X138277169Y-73288594D01*
X138276316Y-73296442D01*
X138276316Y-73296444D01*
X138272563Y-73330989D01*
X138270500Y-73349983D01*
X138270501Y-74700016D01*
X138270870Y-74703411D01*
X138270870Y-74703416D01*
X138275149Y-74742806D01*
X138277169Y-74761406D01*
X138327645Y-74896051D01*
X138413882Y-75011118D01*
X138528949Y-75097355D01*
X138537357Y-75100507D01*
X138656199Y-75145059D01*
X138656201Y-75145059D01*
X138663594Y-75147831D01*
X138671442Y-75148684D01*
X138671444Y-75148684D01*
X138721577Y-75154130D01*
X138724983Y-75154500D01*
X139087446Y-75154500D01*
X139450016Y-75154499D01*
X139453411Y-75154130D01*
X139453416Y-75154130D01*
X139478588Y-75151396D01*
X139511406Y-75147831D01*
X139518801Y-75145059D01*
X139518804Y-75145058D01*
X139553440Y-75132073D01*
X139624247Y-75126890D01*
X139686765Y-75160960D01*
X139806710Y-75280905D01*
X139840736Y-75343217D01*
X139835671Y-75414032D01*
X139793124Y-75470868D01*
X139726604Y-75495679D01*
X139717615Y-75496000D01*
X137330000Y-75496000D01*
X137261879Y-75475998D01*
X137215386Y-75422342D01*
X137204000Y-75370000D01*
X137204000Y-71924430D01*
X138017000Y-71924430D01*
X138017337Y-71930946D01*
X138027219Y-72026190D01*
X138030112Y-72039586D01*
X138081367Y-72193216D01*
X138087541Y-72206395D01*
X138172535Y-72343744D01*
X138181571Y-72355145D01*
X138295889Y-72469264D01*
X138307300Y-72478276D01*
X138444808Y-72563037D01*
X138457986Y-72569181D01*
X138611725Y-72620174D01*
X138625090Y-72623040D01*
X138719105Y-72632672D01*
X138725521Y-72633000D01*
X138815385Y-72633000D01*
X138830624Y-72628525D01*
X138831829Y-72627135D01*
X138833500Y-72619452D01*
X138833500Y-71522115D01*
X138829025Y-71506876D01*
X138827635Y-71505671D01*
X138819952Y-71504000D01*
X138035115Y-71504000D01*
X138019876Y-71508475D01*
X138018671Y-71509865D01*
X138017000Y-71517548D01*
X138017000Y-71924430D01*
X137204000Y-71924430D01*
X137204000Y-68877885D01*
X138042000Y-68877885D01*
X138046475Y-68893124D01*
X138047865Y-68894329D01*
X138055548Y-68896000D01*
X139127885Y-68896000D01*
X139143124Y-68891525D01*
X139144329Y-68890135D01*
X139146000Y-68882452D01*
X139146000Y-67735116D01*
X139141525Y-67719877D01*
X139140135Y-67718672D01*
X139132452Y-67717001D01*
X138752905Y-67717001D01*
X138746386Y-67717338D01*
X138650794Y-67727257D01*
X138637400Y-67730149D01*
X138483216Y-67781588D01*
X138470038Y-67787761D01*
X138332193Y-67873063D01*
X138320792Y-67882099D01*
X138206261Y-67996829D01*
X138197249Y-68008240D01*
X138112184Y-68146243D01*
X138106037Y-68159424D01*
X138054862Y-68313710D01*
X138051995Y-68327086D01*
X138042328Y-68421438D01*
X138042000Y-68427855D01*
X138042000Y-68877885D01*
X137204000Y-68877885D01*
X137204000Y-67129319D01*
X138465041Y-67129319D01*
X138474923Y-67141809D01*
X138512259Y-67166756D01*
X138522371Y-67172247D01*
X138703081Y-67249885D01*
X138714014Y-67253437D01*
X138905844Y-67296845D01*
X138917253Y-67298347D01*
X139113783Y-67306068D01*
X139125265Y-67305466D01*
X139319905Y-67277245D01*
X139331101Y-67274557D01*
X139491346Y-67220161D01*
X142544393Y-67220161D01*
X142553687Y-67232175D01*
X142594088Y-67260464D01*
X142603584Y-67265947D01*
X142793113Y-67354326D01*
X142803405Y-67358072D01*
X143005401Y-67412196D01*
X143016196Y-67414099D01*
X143224525Y-67432326D01*
X143235475Y-67432326D01*
X143443804Y-67414099D01*
X143454599Y-67412196D01*
X143656595Y-67358072D01*
X143666887Y-67354326D01*
X143856416Y-67265947D01*
X143865912Y-67260464D01*
X143907148Y-67231590D01*
X143915523Y-67221112D01*
X143908457Y-67207668D01*
X143242811Y-66542021D01*
X143228868Y-66534408D01*
X143227034Y-66534539D01*
X143220420Y-66538790D01*
X142550820Y-67208391D01*
X142544393Y-67220161D01*
X139491346Y-67220161D01*
X139517343Y-67211336D01*
X139527840Y-67206662D01*
X139646401Y-67140266D01*
X139656264Y-67130189D01*
X139653309Y-67122519D01*
X139072812Y-66542022D01*
X139058868Y-66534408D01*
X139057035Y-66534539D01*
X139050420Y-66538790D01*
X138471237Y-67117973D01*
X138465041Y-67129319D01*
X137204000Y-67129319D01*
X137204000Y-66145980D01*
X137922914Y-66145980D01*
X137935777Y-66342233D01*
X137937577Y-66353601D01*
X137985991Y-66544228D01*
X137989829Y-66555066D01*
X138072173Y-66733685D01*
X138077922Y-66743642D01*
X138087850Y-66757690D01*
X138098439Y-66766078D01*
X138111740Y-66759050D01*
X138687978Y-66182812D01*
X138694356Y-66171132D01*
X139424408Y-66171132D01*
X139424539Y-66172965D01*
X139428790Y-66179580D01*
X140008603Y-66759393D01*
X140020983Y-66766153D01*
X140027563Y-66761227D01*
X140096662Y-66637840D01*
X140101336Y-66627343D01*
X140164557Y-66441101D01*
X140167245Y-66429905D01*
X140195762Y-66233224D01*
X140196392Y-66225843D01*
X140197711Y-66175475D01*
X141967674Y-66175475D01*
X141985901Y-66383804D01*
X141987804Y-66394599D01*
X142041928Y-66596595D01*
X142045674Y-66606887D01*
X142134054Y-66796417D01*
X142139534Y-66805907D01*
X142168411Y-66847149D01*
X142178887Y-66855523D01*
X142192334Y-66848455D01*
X142857979Y-66182811D01*
X142864356Y-66171132D01*
X143594408Y-66171132D01*
X143594539Y-66172966D01*
X143598790Y-66179580D01*
X144268391Y-66849180D01*
X144280161Y-66855607D01*
X144292176Y-66846311D01*
X144320466Y-66805907D01*
X144325946Y-66796417D01*
X144414326Y-66606887D01*
X144418072Y-66596595D01*
X144419010Y-66593096D01*
X145940729Y-66593096D01*
X145947165Y-66651390D01*
X145956461Y-66735586D01*
X145958113Y-66750553D01*
X145960723Y-66757684D01*
X145960723Y-66757686D01*
X145999780Y-66864414D01*
X146012553Y-66899319D01*
X146016789Y-66905622D01*
X146016789Y-66905623D01*
X146044294Y-66946554D01*
X146100908Y-67030805D01*
X146106527Y-67035918D01*
X146106528Y-67035919D01*
X146196615Y-67117891D01*
X146218076Y-67137419D01*
X146357293Y-67213008D01*
X146510522Y-67253207D01*
X146594477Y-67254526D01*
X146661319Y-67255576D01*
X146661322Y-67255576D01*
X146668916Y-67255695D01*
X146823332Y-67220329D01*
X146893742Y-67184917D01*
X146958072Y-67152563D01*
X146958075Y-67152561D01*
X146964855Y-67149151D01*
X146970626Y-67144222D01*
X146970629Y-67144220D01*
X147079537Y-67051203D01*
X147085314Y-67046269D01*
X147139194Y-66971288D01*
X147186974Y-66931232D01*
X147214081Y-66918216D01*
X147214088Y-66918211D01*
X147221232Y-66914781D01*
X147225508Y-66911186D01*
X147227431Y-66909263D01*
X147229363Y-66907491D01*
X147229442Y-66907448D01*
X147229555Y-66907572D01*
X147230095Y-66907096D01*
X147235814Y-66904010D01*
X147272417Y-66864413D01*
X147275846Y-66860848D01*
X148930216Y-65206478D01*
X148948964Y-65191336D01*
X148950189Y-65190221D01*
X148958940Y-65184571D01*
X148965387Y-65176393D01*
X148965389Y-65176391D01*
X148979729Y-65158200D01*
X148983675Y-65153759D01*
X148983602Y-65153697D01*
X148986961Y-65149733D01*
X148990638Y-65146056D01*
X149001892Y-65130308D01*
X149005398Y-65125638D01*
X149037156Y-65085353D01*
X149040188Y-65076719D01*
X149045514Y-65069266D01*
X149060203Y-65020150D01*
X149062036Y-65014508D01*
X149076390Y-64973633D01*
X149076390Y-64973632D01*
X149079018Y-64966149D01*
X149079500Y-64960584D01*
X149079500Y-64957876D01*
X149079614Y-64955242D01*
X149079643Y-64955144D01*
X149079807Y-64955151D01*
X149079851Y-64954447D01*
X149081713Y-64948222D01*
X149079597Y-64894365D01*
X149079500Y-64889418D01*
X149079500Y-60809385D01*
X149099502Y-60741264D01*
X149116405Y-60720289D01*
X149515329Y-60321366D01*
X149577641Y-60287341D01*
X149648457Y-60292406D01*
X149698501Y-60327223D01*
X149700908Y-60330805D01*
X149706528Y-60335919D01*
X149706529Y-60335920D01*
X149812085Y-60431968D01*
X149818076Y-60437419D01*
X149957293Y-60513008D01*
X150110522Y-60553207D01*
X150194477Y-60554526D01*
X150261319Y-60555576D01*
X150261322Y-60555576D01*
X150268916Y-60555695D01*
X150423332Y-60520329D01*
X150498152Y-60482699D01*
X150558072Y-60452563D01*
X150558075Y-60452561D01*
X150564855Y-60449151D01*
X150570626Y-60444222D01*
X150570629Y-60444220D01*
X150679536Y-60351204D01*
X150679536Y-60351203D01*
X150685314Y-60346269D01*
X150777755Y-60217624D01*
X150836842Y-60070641D01*
X150849703Y-59980271D01*
X150858581Y-59917891D01*
X150858581Y-59917888D01*
X150859162Y-59913807D01*
X150859307Y-59900000D01*
X150840276Y-59742733D01*
X150784280Y-59594546D01*
X150762629Y-59563043D01*
X150698855Y-59470251D01*
X150698854Y-59470249D01*
X150694553Y-59463992D01*
X150576275Y-59358611D01*
X150568889Y-59354700D01*
X150442988Y-59288039D01*
X150442989Y-59288039D01*
X150436274Y-59284484D01*
X150282633Y-59245892D01*
X150275034Y-59245852D01*
X150275033Y-59245852D01*
X150209181Y-59245507D01*
X150124221Y-59245062D01*
X150116841Y-59246834D01*
X150116839Y-59246834D01*
X149977563Y-59280271D01*
X149977560Y-59280272D01*
X149970184Y-59282043D01*
X149829414Y-59354700D01*
X149710039Y-59458838D01*
X149705672Y-59465051D01*
X149705667Y-59465057D01*
X149704336Y-59466951D01*
X149703013Y-59468005D01*
X149700589Y-59470697D01*
X149700140Y-59470293D01*
X149648802Y-59511183D01*
X149601250Y-59520500D01*
X149453920Y-59520500D01*
X149429973Y-59517951D01*
X149428307Y-59517872D01*
X149418124Y-59515680D01*
X149407782Y-59516904D01*
X149407779Y-59516904D01*
X149384787Y-59519626D01*
X149378846Y-59519977D01*
X149378854Y-59520072D01*
X149373674Y-59520500D01*
X149368476Y-59520500D01*
X149363354Y-59521353D01*
X149363349Y-59521353D01*
X149349427Y-59523671D01*
X149343550Y-59524508D01*
X149337049Y-59525277D01*
X149302997Y-59529307D01*
X149302995Y-59529308D01*
X149292659Y-59530531D01*
X149284410Y-59534492D01*
X149275374Y-59535996D01*
X149266205Y-59540943D01*
X149266203Y-59540944D01*
X149230240Y-59560348D01*
X149224951Y-59563043D01*
X149185915Y-59581788D01*
X149178768Y-59585220D01*
X149174492Y-59588814D01*
X149172552Y-59590754D01*
X149170641Y-59592507D01*
X149170551Y-59592556D01*
X149170439Y-59592433D01*
X149169904Y-59592905D01*
X149164186Y-59595990D01*
X149157119Y-59603635D01*
X149127584Y-59635586D01*
X149124154Y-59639152D01*
X148469784Y-60293522D01*
X148451036Y-60308664D01*
X148449811Y-60309779D01*
X148441060Y-60315429D01*
X148434613Y-60323607D01*
X148434611Y-60323609D01*
X148420271Y-60341800D01*
X148416325Y-60346241D01*
X148416398Y-60346303D01*
X148413039Y-60350267D01*
X148409362Y-60353944D01*
X148398108Y-60369692D01*
X148394602Y-60374362D01*
X148362844Y-60414647D01*
X148359812Y-60423281D01*
X148354486Y-60430734D01*
X148340073Y-60478929D01*
X148339799Y-60479844D01*
X148337964Y-60485492D01*
X148325135Y-60522024D01*
X148320982Y-60533851D01*
X148320500Y-60539416D01*
X148320500Y-60542124D01*
X148320386Y-60544758D01*
X148320357Y-60544856D01*
X148320193Y-60544849D01*
X148320149Y-60545553D01*
X148318287Y-60551778D01*
X148319910Y-60593096D01*
X148320403Y-60605635D01*
X148320500Y-60610582D01*
X148320500Y-64690616D01*
X148300498Y-64758737D01*
X148283595Y-64779711D01*
X147060663Y-66002643D01*
X146998351Y-66036669D01*
X146927536Y-66031604D01*
X146912621Y-66024908D01*
X146836274Y-65984484D01*
X146682633Y-65945892D01*
X146675034Y-65945852D01*
X146675033Y-65945852D01*
X146609181Y-65945507D01*
X146524221Y-65945062D01*
X146516841Y-65946834D01*
X146516839Y-65946834D01*
X146377563Y-65980271D01*
X146377560Y-65980272D01*
X146370184Y-65982043D01*
X146229414Y-66054700D01*
X146110039Y-66158838D01*
X146018950Y-66288444D01*
X146013593Y-66302184D01*
X145973384Y-66405316D01*
X145961406Y-66436037D01*
X145960414Y-66443570D01*
X145960414Y-66443571D01*
X145942228Y-66581713D01*
X145940729Y-66593096D01*
X144419010Y-66593096D01*
X144472196Y-66394599D01*
X144474099Y-66383804D01*
X144492326Y-66175475D01*
X144492326Y-66164525D01*
X144474099Y-65956196D01*
X144472196Y-65945401D01*
X144418072Y-65743405D01*
X144414326Y-65733113D01*
X144325946Y-65543583D01*
X144320466Y-65534093D01*
X144291589Y-65492851D01*
X144281113Y-65484477D01*
X144267666Y-65491545D01*
X143602021Y-66157189D01*
X143594408Y-66171132D01*
X142864356Y-66171132D01*
X142865592Y-66168868D01*
X142865461Y-66167034D01*
X142861210Y-66160420D01*
X142191609Y-65490820D01*
X142179839Y-65484393D01*
X142167824Y-65493689D01*
X142139534Y-65534093D01*
X142134054Y-65543583D01*
X142045674Y-65733113D01*
X142041928Y-65743405D01*
X141987804Y-65945401D01*
X141985901Y-65956196D01*
X141967674Y-66164525D01*
X141967674Y-66175475D01*
X140197711Y-66175475D01*
X140197757Y-66173704D01*
X140197514Y-66166305D01*
X140179330Y-65968397D01*
X140177233Y-65957083D01*
X140123846Y-65767789D01*
X140119724Y-65757050D01*
X140032736Y-65580656D01*
X140031577Y-65578765D01*
X140022732Y-65572126D01*
X140010312Y-65578898D01*
X139432022Y-66157188D01*
X139424408Y-66171132D01*
X138694356Y-66171132D01*
X138695592Y-66168868D01*
X138695461Y-66167035D01*
X138691210Y-66160420D01*
X138110031Y-65579241D01*
X138097651Y-65572481D01*
X138091685Y-65576947D01*
X138011452Y-65729445D01*
X138007047Y-65740079D01*
X137948724Y-65927910D01*
X137946332Y-65939164D01*
X137923215Y-66134479D01*
X137922914Y-66145980D01*
X137204000Y-66145980D01*
X137204000Y-65210436D01*
X138464547Y-65210436D01*
X138468033Y-65218823D01*
X139047188Y-65797978D01*
X139061132Y-65805592D01*
X139062965Y-65805461D01*
X139069580Y-65801210D01*
X139648407Y-65222383D01*
X139655167Y-65210003D01*
X139649137Y-65201948D01*
X139581459Y-65159246D01*
X139571211Y-65154025D01*
X139388531Y-65081143D01*
X139377504Y-65077876D01*
X139184605Y-65039506D01*
X139173159Y-65038303D01*
X138976507Y-65035730D01*
X138965027Y-65036633D01*
X138771199Y-65069938D01*
X138760079Y-65072918D01*
X138575557Y-65140992D01*
X138565179Y-65145942D01*
X138474146Y-65200101D01*
X138464547Y-65210436D01*
X137204000Y-65210436D01*
X137204000Y-64876000D01*
X137224002Y-64807879D01*
X137277658Y-64761386D01*
X137330000Y-64750000D01*
X142730168Y-64750000D01*
X142798289Y-64770002D01*
X142844782Y-64823658D01*
X142854886Y-64893932D01*
X142825392Y-64958512D01*
X142783418Y-64990195D01*
X142603583Y-65074054D01*
X142594093Y-65079534D01*
X142552851Y-65108411D01*
X142544477Y-65118887D01*
X142551545Y-65132334D01*
X143217189Y-65797979D01*
X143231132Y-65805592D01*
X143232966Y-65805461D01*
X143239580Y-65801210D01*
X143909180Y-65131609D01*
X143915607Y-65119839D01*
X143906313Y-65107825D01*
X143865912Y-65079536D01*
X143856416Y-65074053D01*
X143666887Y-64985674D01*
X143656595Y-64981928D01*
X143449284Y-64926380D01*
X143449609Y-64925166D01*
X143391503Y-64896368D01*
X143355033Y-64835454D01*
X143357286Y-64764493D01*
X143397545Y-64706015D01*
X143463029Y-64678585D01*
X143476995Y-64677809D01*
X144281500Y-64677809D01*
X144281500Y-63893096D01*
X145640729Y-63893096D01*
X145646610Y-63946362D01*
X145656945Y-64039972D01*
X145658113Y-64050553D01*
X145660723Y-64057684D01*
X145660723Y-64057686D01*
X145704616Y-64177629D01*
X145712553Y-64199319D01*
X145716789Y-64205622D01*
X145716789Y-64205623D01*
X145792783Y-64318713D01*
X145800908Y-64330805D01*
X145918076Y-64437419D01*
X146057293Y-64513008D01*
X146210522Y-64553207D01*
X146299911Y-64554611D01*
X146361322Y-64555576D01*
X146361324Y-64555576D01*
X146368916Y-64555695D01*
X146374002Y-64554530D01*
X146442845Y-64567122D01*
X146494690Y-64615626D01*
X146504499Y-64636357D01*
X146551390Y-64764493D01*
X146555344Y-64775299D01*
X146559580Y-64781602D01*
X146559580Y-64781603D01*
X146598356Y-64839307D01*
X146643699Y-64906785D01*
X146649318Y-64911898D01*
X146649319Y-64911899D01*
X146755251Y-65008289D01*
X146760867Y-65013399D01*
X146900084Y-65088988D01*
X147053313Y-65129187D01*
X147137268Y-65130506D01*
X147204110Y-65131556D01*
X147204113Y-65131556D01*
X147211707Y-65131675D01*
X147366123Y-65096309D01*
X147457100Y-65050553D01*
X147500863Y-65028543D01*
X147500866Y-65028541D01*
X147507646Y-65025131D01*
X147513417Y-65020202D01*
X147513420Y-65020200D01*
X147622327Y-64927184D01*
X147622327Y-64927183D01*
X147628105Y-64922249D01*
X147720546Y-64793604D01*
X147779633Y-64646621D01*
X147801953Y-64489787D01*
X147802098Y-64475980D01*
X147783067Y-64318713D01*
X147727071Y-64170526D01*
X147683132Y-64106594D01*
X147641646Y-64046231D01*
X147641645Y-64046229D01*
X147637344Y-64039972D01*
X147621703Y-64026036D01*
X147539472Y-63952772D01*
X147501917Y-63892522D01*
X147497291Y-63858695D01*
X147497291Y-61094048D01*
X147499397Y-61074254D01*
X147499602Y-61069901D01*
X147501794Y-61059721D01*
X147498164Y-61029051D01*
X147497849Y-61023708D01*
X147497719Y-61023719D01*
X147497291Y-61018539D01*
X147497291Y-61013340D01*
X147496438Y-61008216D01*
X147496437Y-61008203D01*
X147494364Y-60995750D01*
X147493527Y-60989875D01*
X147489146Y-60952862D01*
X147487922Y-60942521D01*
X147484221Y-60934813D01*
X147482816Y-60926374D01*
X147460162Y-60884390D01*
X147457481Y-60879127D01*
X147440266Y-60843277D01*
X147436836Y-60836133D01*
X147433480Y-60832141D01*
X147431533Y-60830194D01*
X147430043Y-60828569D01*
X147429810Y-60828137D01*
X147429846Y-60828104D01*
X147429707Y-60827946D01*
X147426774Y-60822511D01*
X147389909Y-60788433D01*
X147386343Y-60785004D01*
X147385738Y-60784399D01*
X147351712Y-60722087D01*
X147350090Y-60677551D01*
X147358581Y-60617891D01*
X147358581Y-60617888D01*
X147359162Y-60613807D01*
X147359307Y-60600000D01*
X147340276Y-60442733D01*
X147284280Y-60294546D01*
X147273939Y-60279500D01*
X147198855Y-60170251D01*
X147198854Y-60170249D01*
X147194553Y-60163992D01*
X147076275Y-60058611D01*
X147068889Y-60054700D01*
X146942988Y-59988039D01*
X146942989Y-59988039D01*
X146936274Y-59984484D01*
X146782633Y-59945892D01*
X146775034Y-59945852D01*
X146775033Y-59945852D01*
X146709181Y-59945507D01*
X146624221Y-59945062D01*
X146616841Y-59946834D01*
X146616839Y-59946834D01*
X146477563Y-59980271D01*
X146477560Y-59980272D01*
X146470184Y-59982043D01*
X146329414Y-60054700D01*
X146210039Y-60158838D01*
X146118950Y-60288444D01*
X146097651Y-60343074D01*
X146064470Y-60428179D01*
X146061406Y-60436037D01*
X146060414Y-60443570D01*
X146060414Y-60443571D01*
X146043750Y-60570152D01*
X146040729Y-60593096D01*
X146044023Y-60622932D01*
X146056935Y-60739881D01*
X146058113Y-60750553D01*
X146060723Y-60757684D01*
X146060723Y-60757686D01*
X146093110Y-60846188D01*
X146097736Y-60917034D01*
X146063326Y-60979134D01*
X146032574Y-61001455D01*
X145929414Y-61054700D01*
X145810039Y-61158838D01*
X145718950Y-61288444D01*
X145661406Y-61436037D01*
X145640729Y-61593096D01*
X145646285Y-61643421D01*
X145655056Y-61722862D01*
X145658113Y-61750553D01*
X145660723Y-61757684D01*
X145660723Y-61757686D01*
X145704894Y-61878389D01*
X145712553Y-61899319D01*
X145716789Y-61905622D01*
X145716789Y-61905623D01*
X145795296Y-62022453D01*
X145800908Y-62030805D01*
X145806527Y-62035918D01*
X145806528Y-62035919D01*
X145904299Y-62124883D01*
X145941222Y-62185523D01*
X145945500Y-62218077D01*
X145945500Y-63283378D01*
X145925498Y-63351499D01*
X145902330Y-63378327D01*
X145810039Y-63458838D01*
X145718950Y-63588444D01*
X145710323Y-63610571D01*
X145671798Y-63709384D01*
X145661406Y-63736037D01*
X145660414Y-63743570D01*
X145660414Y-63743571D01*
X145643046Y-63875498D01*
X145640729Y-63893096D01*
X144281500Y-63893096D01*
X144281500Y-59022190D01*
X143477001Y-59022190D01*
X143408880Y-59002188D01*
X143362387Y-58948532D01*
X143352283Y-58878258D01*
X143381777Y-58813678D01*
X143441503Y-58775294D01*
X143453703Y-58772436D01*
X143656595Y-58718072D01*
X143666887Y-58714326D01*
X143856416Y-58625947D01*
X143865912Y-58620464D01*
X143907148Y-58591590D01*
X143915523Y-58581112D01*
X143908457Y-58567668D01*
X143242811Y-57902021D01*
X143228868Y-57894408D01*
X143227034Y-57894539D01*
X143220420Y-57898790D01*
X142550820Y-58568391D01*
X142544393Y-58580161D01*
X142553688Y-58592176D01*
X142594549Y-58620787D01*
X142638878Y-58676244D01*
X142646187Y-58746863D01*
X142614157Y-58810223D01*
X142552956Y-58846209D01*
X142522279Y-58850000D01*
X139459596Y-58850000D01*
X139391475Y-58829998D01*
X139344982Y-58776342D01*
X139334878Y-58706068D01*
X139364372Y-58641488D01*
X139419094Y-58604687D01*
X139517343Y-58571336D01*
X139527840Y-58566662D01*
X139646401Y-58500266D01*
X139656264Y-58490189D01*
X139653309Y-58482519D01*
X139072812Y-57902022D01*
X139058868Y-57894408D01*
X139057035Y-57894539D01*
X139050420Y-57898790D01*
X138471237Y-58477973D01*
X138465041Y-58489319D01*
X138474923Y-58501809D01*
X138512259Y-58526756D01*
X138522372Y-58532247D01*
X138699234Y-58608232D01*
X138753928Y-58653500D01*
X138775465Y-58721151D01*
X138757008Y-58789707D01*
X138704418Y-58837401D01*
X138649497Y-58850000D01*
X137330000Y-58850000D01*
X137261879Y-58829998D01*
X137215386Y-58776342D01*
X137204000Y-58724000D01*
X137204000Y-57505980D01*
X137922914Y-57505980D01*
X137935777Y-57702233D01*
X137937577Y-57713601D01*
X137985991Y-57904228D01*
X137989829Y-57915066D01*
X138072173Y-58093685D01*
X138077922Y-58103642D01*
X138087850Y-58117690D01*
X138098439Y-58126078D01*
X138111740Y-58119050D01*
X138687978Y-57542812D01*
X138694356Y-57531132D01*
X139424408Y-57531132D01*
X139424539Y-57532965D01*
X139428790Y-57539580D01*
X140008603Y-58119393D01*
X140020983Y-58126153D01*
X140027563Y-58121227D01*
X140096662Y-57997840D01*
X140101336Y-57987343D01*
X140164557Y-57801101D01*
X140167245Y-57789905D01*
X140195762Y-57593224D01*
X140196392Y-57585843D01*
X140197757Y-57533704D01*
X140197514Y-57526305D01*
X140179330Y-57328397D01*
X140177233Y-57317083D01*
X140123846Y-57127789D01*
X140119724Y-57117050D01*
X140032736Y-56940656D01*
X140031577Y-56938765D01*
X140022732Y-56932126D01*
X140010312Y-56938898D01*
X139432022Y-57517188D01*
X139424408Y-57531132D01*
X138694356Y-57531132D01*
X138695592Y-57528868D01*
X138695461Y-57527035D01*
X138691210Y-57520420D01*
X138110031Y-56939241D01*
X138097651Y-56932481D01*
X138091685Y-56936947D01*
X138011452Y-57089445D01*
X138007047Y-57100079D01*
X137948724Y-57287910D01*
X137946332Y-57299164D01*
X137923215Y-57494479D01*
X137922914Y-57505980D01*
X137204000Y-57505980D01*
X137204000Y-56570436D01*
X138464547Y-56570436D01*
X138468033Y-56578823D01*
X139047188Y-57157978D01*
X139061132Y-57165592D01*
X139062965Y-57165461D01*
X139069580Y-57161210D01*
X139648407Y-56582383D01*
X139655167Y-56570003D01*
X139649137Y-56561948D01*
X139581459Y-56519246D01*
X139571211Y-56514025D01*
X139388531Y-56441143D01*
X139377504Y-56437876D01*
X139184605Y-56399506D01*
X139173159Y-56398303D01*
X138976507Y-56395730D01*
X138965027Y-56396633D01*
X138771199Y-56429938D01*
X138760079Y-56432918D01*
X138575557Y-56500992D01*
X138565179Y-56505942D01*
X138474146Y-56560101D01*
X138464547Y-56570436D01*
X137204000Y-56570436D01*
X137204000Y-54630000D01*
X137224002Y-54561879D01*
X137277658Y-54515386D01*
X137330000Y-54504000D01*
X137798761Y-54504000D01*
X137866882Y-54524002D01*
G37*
%TD.AperFunction*%
%TA.AperFunction,Conductor*%
G36*
X171112621Y-54999502D02*
G01*
X171159114Y-55053158D01*
X171170500Y-55105500D01*
X171170500Y-74690616D01*
X171150498Y-74758737D01*
X171133595Y-74779711D01*
X171105191Y-74808115D01*
X171042879Y-74842141D01*
X171016096Y-74845020D01*
X153755500Y-74845020D01*
X153687379Y-74825018D01*
X153640886Y-74771362D01*
X153629500Y-74719020D01*
X153629500Y-73714185D01*
X153649502Y-73646064D01*
X153703158Y-73599571D01*
X153780081Y-73590606D01*
X153825153Y-73599571D01*
X153849933Y-73604500D01*
X154199943Y-73604500D01*
X154550066Y-73604499D01*
X154585818Y-73597388D01*
X154612126Y-73592156D01*
X154612128Y-73592155D01*
X154624301Y-73589734D01*
X154634621Y-73582839D01*
X154634622Y-73582838D01*
X154698168Y-73540377D01*
X154708484Y-73533484D01*
X154728505Y-73503521D01*
X154764642Y-73467945D01*
X154771232Y-73464781D01*
X154775508Y-73461186D01*
X154777425Y-73459269D01*
X154779363Y-73457491D01*
X154779442Y-73457448D01*
X154779555Y-73457572D01*
X154780095Y-73457096D01*
X154785814Y-73454010D01*
X154822417Y-73414413D01*
X154825846Y-73410848D01*
X154842025Y-73394669D01*
X156467001Y-73394669D01*
X156467371Y-73401490D01*
X156472895Y-73452352D01*
X156476521Y-73467604D01*
X156521676Y-73588054D01*
X156530214Y-73603649D01*
X156606715Y-73705724D01*
X156619276Y-73718285D01*
X156721351Y-73794786D01*
X156736946Y-73803324D01*
X156857394Y-73848478D01*
X156872649Y-73852105D01*
X156923514Y-73857631D01*
X156930328Y-73858000D01*
X157081885Y-73858000D01*
X157097124Y-73853525D01*
X157098329Y-73852135D01*
X157100000Y-73844452D01*
X157100000Y-73368115D01*
X157095525Y-73352876D01*
X157094135Y-73351671D01*
X157086452Y-73350000D01*
X156485116Y-73350000D01*
X156469877Y-73354475D01*
X156468672Y-73355865D01*
X156467001Y-73363548D01*
X156467001Y-73394669D01*
X154842025Y-73394669D01*
X155079727Y-73156967D01*
X155098475Y-73141825D01*
X155099700Y-73140710D01*
X155108451Y-73135060D01*
X155114898Y-73126882D01*
X155114900Y-73126880D01*
X155129240Y-73108689D01*
X155133187Y-73104247D01*
X155133114Y-73104185D01*
X155136472Y-73100222D01*
X155140149Y-73096545D01*
X155148331Y-73085095D01*
X155151370Y-73080843D01*
X155154933Y-73076097D01*
X155180218Y-73044022D01*
X155186667Y-73035842D01*
X155189700Y-73027206D01*
X155195025Y-73019754D01*
X155209715Y-72970634D01*
X155211550Y-72964987D01*
X155225902Y-72924119D01*
X155225902Y-72924117D01*
X155228529Y-72916638D01*
X155229011Y-72911073D01*
X155229011Y-72908366D01*
X155229125Y-72905734D01*
X155229155Y-72905633D01*
X155229318Y-72905640D01*
X155229362Y-72904940D01*
X155231225Y-72898711D01*
X155229108Y-72844839D01*
X155229011Y-72839891D01*
X155229011Y-70111287D01*
X155249013Y-70043166D01*
X155263993Y-70024156D01*
X155301064Y-69985432D01*
X155370728Y-69912660D01*
X155427710Y-69824410D01*
X155481800Y-69740640D01*
X155481801Y-69740637D01*
X155485052Y-69735603D01*
X155563834Y-69540122D01*
X155604229Y-69333271D01*
X155604500Y-69327730D01*
X155604500Y-69277659D01*
X155895500Y-69277659D01*
X155910493Y-69434806D01*
X155969823Y-69637042D01*
X155972573Y-69642381D01*
X156051960Y-69796520D01*
X156066324Y-69824410D01*
X156078721Y-69840192D01*
X156192808Y-69985432D01*
X156192812Y-69985436D01*
X156196514Y-69990149D01*
X156201044Y-69994080D01*
X156201045Y-69994081D01*
X156351165Y-70124350D01*
X156351170Y-70124354D01*
X156355696Y-70128281D01*
X156538126Y-70233819D01*
X156543791Y-70235786D01*
X156546953Y-70237234D01*
X156600564Y-70283779D01*
X156620500Y-70351797D01*
X156620500Y-71496080D01*
X156617951Y-71520028D01*
X156617872Y-71521693D01*
X156615680Y-71531876D01*
X156616904Y-71542217D01*
X156619627Y-71565223D01*
X156619977Y-71571154D01*
X156620072Y-71571146D01*
X156620500Y-71576324D01*
X156620500Y-71581524D01*
X156621354Y-71586653D01*
X156621354Y-71586656D01*
X156623669Y-71600565D01*
X156624506Y-71606443D01*
X156626695Y-71624934D01*
X156630530Y-71657341D01*
X156634493Y-71665593D01*
X156635996Y-71674626D01*
X156640943Y-71683795D01*
X156640944Y-71683797D01*
X156660334Y-71719732D01*
X156663031Y-71725025D01*
X156681785Y-71764082D01*
X156681788Y-71764086D01*
X156685219Y-71771232D01*
X156688814Y-71775508D01*
X156689800Y-71776494D01*
X156694624Y-71783964D01*
X156692917Y-71785066D01*
X156718660Y-71837460D01*
X156720500Y-71858913D01*
X156720501Y-71971844D01*
X156720501Y-72075066D01*
X156733511Y-72140479D01*
X156735266Y-72149301D01*
X156731066Y-72150136D01*
X156736157Y-72197324D01*
X156735172Y-72200680D01*
X156735266Y-72200699D01*
X156720500Y-72274933D01*
X156720500Y-72442825D01*
X156700499Y-72510944D01*
X156670066Y-72543651D01*
X156619273Y-72581718D01*
X156606715Y-72594276D01*
X156530214Y-72696351D01*
X156521676Y-72711946D01*
X156476522Y-72832394D01*
X156472895Y-72847649D01*
X156467369Y-72898514D01*
X156467000Y-72905328D01*
X156467000Y-72931885D01*
X156471475Y-72947124D01*
X156472865Y-72948329D01*
X156480548Y-72950000D01*
X156914900Y-72950000D01*
X156939481Y-72952421D01*
X156949933Y-72954500D01*
X156965280Y-72954500D01*
X157374001Y-72954499D01*
X157442120Y-72974501D01*
X157488614Y-73028156D01*
X157500000Y-73080499D01*
X157500000Y-73839884D01*
X157504475Y-73855123D01*
X157505865Y-73856328D01*
X157513548Y-73857999D01*
X157669669Y-73857999D01*
X157676490Y-73857629D01*
X157727352Y-73852105D01*
X157742604Y-73848479D01*
X157863054Y-73803324D01*
X157878649Y-73794786D01*
X157980724Y-73718285D01*
X157993285Y-73705724D01*
X158069786Y-73603649D01*
X158078324Y-73588054D01*
X158123478Y-73467606D01*
X158127105Y-73452351D01*
X158132631Y-73401486D01*
X158133000Y-73394672D01*
X158133000Y-73280769D01*
X158153002Y-73212648D01*
X158206658Y-73166155D01*
X158260979Y-73154785D01*
X158311318Y-73155576D01*
X158311321Y-73155576D01*
X158318916Y-73155695D01*
X158466372Y-73121923D01*
X158537238Y-73126212D01*
X158594536Y-73168134D01*
X158620074Y-73234379D01*
X158620501Y-73244733D01*
X158620501Y-73375066D01*
X158635266Y-73449301D01*
X158642161Y-73459621D01*
X158642162Y-73459622D01*
X158677385Y-73512336D01*
X158691516Y-73533484D01*
X158775699Y-73589734D01*
X158849933Y-73604500D01*
X159199943Y-73604500D01*
X159550066Y-73604499D01*
X159585818Y-73597388D01*
X159612126Y-73592156D01*
X159612128Y-73592155D01*
X159624301Y-73589734D01*
X159634621Y-73582839D01*
X159634622Y-73582838D01*
X159678403Y-73553584D01*
X159746156Y-73532369D01*
X159747936Y-73532395D01*
X159756876Y-73534320D01*
X159790223Y-73530373D01*
X159796154Y-73530023D01*
X159796146Y-73529928D01*
X159801324Y-73529500D01*
X159806524Y-73529500D01*
X159811653Y-73528646D01*
X159811656Y-73528646D01*
X159825565Y-73526331D01*
X159831443Y-73525494D01*
X159872001Y-73520694D01*
X159872002Y-73520694D01*
X159882341Y-73519470D01*
X159890593Y-73515507D01*
X159899626Y-73514004D01*
X159908795Y-73509057D01*
X159908797Y-73509056D01*
X159944732Y-73489666D01*
X159950025Y-73486969D01*
X159989082Y-73468215D01*
X159989086Y-73468212D01*
X159996232Y-73464781D01*
X160000508Y-73461186D01*
X160002431Y-73459263D01*
X160004363Y-73457491D01*
X160004442Y-73457448D01*
X160004555Y-73457571D01*
X160005092Y-73457097D01*
X160010814Y-73454010D01*
X160047417Y-73414414D01*
X160050829Y-73410866D01*
X160067026Y-73394669D01*
X161467001Y-73394669D01*
X161467371Y-73401490D01*
X161472895Y-73452352D01*
X161476521Y-73467604D01*
X161521676Y-73588054D01*
X161530214Y-73603649D01*
X161606715Y-73705724D01*
X161619276Y-73718285D01*
X161721351Y-73794786D01*
X161736946Y-73803324D01*
X161857394Y-73848478D01*
X161872649Y-73852105D01*
X161923514Y-73857631D01*
X161930328Y-73858000D01*
X162081885Y-73858000D01*
X162097124Y-73853525D01*
X162098329Y-73852135D01*
X162100000Y-73844452D01*
X162100000Y-73368115D01*
X162095525Y-73352876D01*
X162094135Y-73351671D01*
X162086452Y-73350000D01*
X161485116Y-73350000D01*
X161469877Y-73354475D01*
X161468672Y-73355865D01*
X161467001Y-73363548D01*
X161467001Y-73394669D01*
X160067026Y-73394669D01*
X160079731Y-73381964D01*
X160098473Y-73366827D01*
X160099700Y-73365710D01*
X160108451Y-73360060D01*
X160114899Y-73351881D01*
X160129242Y-73333687D01*
X160133187Y-73329248D01*
X160133114Y-73329186D01*
X160136474Y-73325221D01*
X160140149Y-73321546D01*
X160143166Y-73317324D01*
X160143171Y-73317318D01*
X160151373Y-73305839D01*
X160154939Y-73301089D01*
X160155086Y-73300902D01*
X160186667Y-73260842D01*
X160189700Y-73252205D01*
X160195024Y-73244755D01*
X160209713Y-73195640D01*
X160211545Y-73190003D01*
X160225901Y-73149122D01*
X160225901Y-73149121D01*
X160228529Y-73141638D01*
X160229011Y-73136073D01*
X160229011Y-73133365D01*
X160229125Y-73130731D01*
X160229154Y-73130633D01*
X160229318Y-73130640D01*
X160229362Y-73129936D01*
X160231224Y-73123711D01*
X160229108Y-73069854D01*
X160229011Y-73064907D01*
X160229011Y-70111287D01*
X160249013Y-70043166D01*
X160263993Y-70024156D01*
X160301064Y-69985432D01*
X160370728Y-69912660D01*
X160427710Y-69824410D01*
X160481800Y-69740640D01*
X160481801Y-69740637D01*
X160485052Y-69735603D01*
X160563834Y-69540122D01*
X160604229Y-69333271D01*
X160604500Y-69327730D01*
X160604500Y-69277659D01*
X160895500Y-69277659D01*
X160910493Y-69434806D01*
X160969823Y-69637042D01*
X160972573Y-69642381D01*
X161051960Y-69796520D01*
X161066324Y-69824410D01*
X161078721Y-69840192D01*
X161192808Y-69985432D01*
X161192812Y-69985436D01*
X161196514Y-69990149D01*
X161201044Y-69994080D01*
X161201045Y-69994081D01*
X161351165Y-70124350D01*
X161351170Y-70124354D01*
X161355696Y-70128281D01*
X161538126Y-70233819D01*
X161543791Y-70235786D01*
X161546953Y-70237234D01*
X161600564Y-70283779D01*
X161620500Y-70351797D01*
X161620500Y-71496080D01*
X161617951Y-71520028D01*
X161617872Y-71521693D01*
X161615680Y-71531876D01*
X161616904Y-71542217D01*
X161619627Y-71565223D01*
X161619977Y-71571154D01*
X161620072Y-71571146D01*
X161620500Y-71576324D01*
X161620500Y-71581524D01*
X161621354Y-71586653D01*
X161621354Y-71586656D01*
X161623669Y-71600565D01*
X161624506Y-71606443D01*
X161626695Y-71624934D01*
X161630530Y-71657341D01*
X161634493Y-71665593D01*
X161635996Y-71674626D01*
X161640943Y-71683795D01*
X161640944Y-71683797D01*
X161660334Y-71719732D01*
X161663031Y-71725025D01*
X161681785Y-71764082D01*
X161681788Y-71764086D01*
X161685219Y-71771232D01*
X161688814Y-71775508D01*
X161689800Y-71776494D01*
X161694624Y-71783964D01*
X161692917Y-71785066D01*
X161718660Y-71837460D01*
X161720500Y-71858913D01*
X161720501Y-71971844D01*
X161720501Y-72075066D01*
X161733511Y-72140479D01*
X161735266Y-72149301D01*
X161731066Y-72150136D01*
X161736157Y-72197324D01*
X161735172Y-72200680D01*
X161735266Y-72200699D01*
X161720500Y-72274933D01*
X161720500Y-72442825D01*
X161700499Y-72510944D01*
X161670066Y-72543651D01*
X161619273Y-72581718D01*
X161606715Y-72594276D01*
X161530214Y-72696351D01*
X161521676Y-72711946D01*
X161476522Y-72832394D01*
X161472895Y-72847649D01*
X161467369Y-72898514D01*
X161467000Y-72905328D01*
X161467000Y-72931885D01*
X161471475Y-72947124D01*
X161472865Y-72948329D01*
X161480548Y-72950000D01*
X161914900Y-72950000D01*
X161939481Y-72952421D01*
X161949933Y-72954500D01*
X161965280Y-72954500D01*
X162374001Y-72954499D01*
X162442120Y-72974501D01*
X162488614Y-73028156D01*
X162500000Y-73080499D01*
X162500000Y-73839884D01*
X162504475Y-73855123D01*
X162505865Y-73856328D01*
X162513548Y-73857999D01*
X162669669Y-73857999D01*
X162676490Y-73857629D01*
X162727352Y-73852105D01*
X162742604Y-73848479D01*
X162863054Y-73803324D01*
X162878649Y-73794786D01*
X162980724Y-73718285D01*
X162993285Y-73705724D01*
X163069786Y-73603649D01*
X163078324Y-73588054D01*
X163123478Y-73467606D01*
X163127105Y-73452351D01*
X163132631Y-73401486D01*
X163133000Y-73394672D01*
X163133000Y-73280769D01*
X163153002Y-73212648D01*
X163206658Y-73166155D01*
X163260979Y-73154785D01*
X163311318Y-73155576D01*
X163311321Y-73155576D01*
X163318916Y-73155695D01*
X163466372Y-73121923D01*
X163537238Y-73126212D01*
X163594536Y-73168134D01*
X163620074Y-73234379D01*
X163620501Y-73244733D01*
X163620501Y-73375066D01*
X163635266Y-73449301D01*
X163642161Y-73459621D01*
X163642162Y-73459622D01*
X163677385Y-73512336D01*
X163691516Y-73533484D01*
X163775699Y-73589734D01*
X163849933Y-73604500D01*
X164199943Y-73604500D01*
X164550066Y-73604499D01*
X164624301Y-73589734D01*
X164634621Y-73582839D01*
X164634622Y-73582838D01*
X164682368Y-73550935D01*
X164737584Y-73530570D01*
X164739268Y-73530371D01*
X164745176Y-73530023D01*
X164745168Y-73529928D01*
X164750346Y-73529500D01*
X164755546Y-73529500D01*
X164760675Y-73528646D01*
X164760678Y-73528646D01*
X164774587Y-73526331D01*
X164780465Y-73525494D01*
X164821023Y-73520694D01*
X164821024Y-73520694D01*
X164831363Y-73519470D01*
X164839615Y-73515507D01*
X164848648Y-73514004D01*
X164857817Y-73509057D01*
X164857819Y-73509056D01*
X164893754Y-73489666D01*
X164899047Y-73486969D01*
X164938104Y-73468215D01*
X164938108Y-73468212D01*
X164945254Y-73464781D01*
X164949530Y-73461186D01*
X164951453Y-73459263D01*
X164953385Y-73457491D01*
X164953464Y-73457448D01*
X164953577Y-73457572D01*
X164954117Y-73457096D01*
X164959836Y-73454010D01*
X164996439Y-73414413D01*
X164999868Y-73410848D01*
X165016047Y-73394669D01*
X166467001Y-73394669D01*
X166467371Y-73401490D01*
X166472895Y-73452352D01*
X166476521Y-73467604D01*
X166521676Y-73588054D01*
X166530214Y-73603649D01*
X166606715Y-73705724D01*
X166619276Y-73718285D01*
X166721351Y-73794786D01*
X166736946Y-73803324D01*
X166857394Y-73848478D01*
X166872649Y-73852105D01*
X166923514Y-73857631D01*
X166930328Y-73858000D01*
X167081885Y-73858000D01*
X167097124Y-73853525D01*
X167098329Y-73852135D01*
X167100000Y-73844452D01*
X167100000Y-73368115D01*
X167095525Y-73352876D01*
X167094135Y-73351671D01*
X167086452Y-73350000D01*
X166485116Y-73350000D01*
X166469877Y-73354475D01*
X166468672Y-73355865D01*
X166467001Y-73363548D01*
X166467001Y-73394669D01*
X165016047Y-73394669D01*
X165079727Y-73330989D01*
X165098475Y-73315847D01*
X165099700Y-73314732D01*
X165108451Y-73309082D01*
X165114898Y-73300904D01*
X165114900Y-73300902D01*
X165129240Y-73282711D01*
X165133189Y-73278267D01*
X165133115Y-73278205D01*
X165136468Y-73274248D01*
X165140149Y-73270567D01*
X165151376Y-73254857D01*
X165154932Y-73250120D01*
X165155420Y-73249502D01*
X165186667Y-73209864D01*
X165189700Y-73201227D01*
X165195024Y-73193777D01*
X165209713Y-73144662D01*
X165211545Y-73139025D01*
X165225901Y-73098144D01*
X165225901Y-73098143D01*
X165228529Y-73090660D01*
X165229011Y-73085095D01*
X165229011Y-73082387D01*
X165229125Y-73079753D01*
X165229154Y-73079655D01*
X165229318Y-73079662D01*
X165229362Y-73078958D01*
X165231224Y-73072733D01*
X165229108Y-73018876D01*
X165229011Y-73013929D01*
X165229011Y-70111287D01*
X165249013Y-70043166D01*
X165263993Y-70024156D01*
X165301064Y-69985432D01*
X165370728Y-69912660D01*
X165427710Y-69824410D01*
X165481800Y-69740640D01*
X165481801Y-69740637D01*
X165485052Y-69735603D01*
X165563834Y-69540122D01*
X165604229Y-69333271D01*
X165604500Y-69327730D01*
X165604500Y-69022341D01*
X165589507Y-68865194D01*
X165530177Y-68662958D01*
X165476929Y-68559571D01*
X165436422Y-68480921D01*
X165436420Y-68480918D01*
X165433676Y-68475590D01*
X165368310Y-68392375D01*
X165307192Y-68314568D01*
X165307188Y-68314564D01*
X165303486Y-68309851D01*
X165298955Y-68305919D01*
X165148835Y-68175650D01*
X165148830Y-68175646D01*
X165144304Y-68171719D01*
X164961874Y-68066181D01*
X164762778Y-67997043D01*
X164756845Y-67996183D01*
X164756842Y-67996182D01*
X164560140Y-67967662D01*
X164560137Y-67967662D01*
X164554200Y-67966801D01*
X164343667Y-67976545D01*
X164337843Y-67977949D01*
X164337840Y-67977949D01*
X164144607Y-68024518D01*
X164144605Y-68024519D01*
X164138774Y-68025924D01*
X164133316Y-68028406D01*
X164133312Y-68028407D01*
X164054562Y-68064213D01*
X163946916Y-68113157D01*
X163775014Y-68235096D01*
X163629272Y-68387340D01*
X163626021Y-68392375D01*
X163535092Y-68533200D01*
X163514948Y-68564397D01*
X163436166Y-68759878D01*
X163395771Y-68966729D01*
X163395500Y-68972270D01*
X163395500Y-69277659D01*
X163410493Y-69434806D01*
X163469823Y-69637042D01*
X163472573Y-69642381D01*
X163551960Y-69796520D01*
X163566324Y-69824410D01*
X163578721Y-69840192D01*
X163692808Y-69985432D01*
X163692812Y-69985436D01*
X163696514Y-69990149D01*
X163701044Y-69994080D01*
X163701045Y-69994081D01*
X163851165Y-70124350D01*
X163851170Y-70124354D01*
X163855696Y-70128281D01*
X164038126Y-70233819D01*
X164237222Y-70302957D01*
X164243155Y-70303817D01*
X164243158Y-70303818D01*
X164362091Y-70321062D01*
X164426637Y-70350632D01*
X164464949Y-70410403D01*
X164470011Y-70445758D01*
X164470011Y-71032440D01*
X164450009Y-71100561D01*
X164420517Y-71126116D01*
X164401671Y-71147865D01*
X164400000Y-71155548D01*
X164400000Y-71919500D01*
X164379998Y-71987621D01*
X164326342Y-72034114D01*
X164274001Y-72045500D01*
X164212550Y-72045500D01*
X164125999Y-72045501D01*
X164057880Y-72025499D01*
X164011387Y-71971844D01*
X164000000Y-71919501D01*
X164000000Y-71160116D01*
X163995525Y-71144877D01*
X163994135Y-71143672D01*
X163986452Y-71142001D01*
X163830331Y-71142001D01*
X163823510Y-71142371D01*
X163772648Y-71147895D01*
X163757396Y-71151521D01*
X163636946Y-71196676D01*
X163621351Y-71205214D01*
X163519276Y-71281715D01*
X163506715Y-71294276D01*
X163430214Y-71396351D01*
X163421676Y-71411946D01*
X163376522Y-71532394D01*
X163372895Y-71547649D01*
X163367369Y-71598514D01*
X163367000Y-71605328D01*
X163367000Y-71719410D01*
X163346998Y-71787531D01*
X163293342Y-71834024D01*
X163240341Y-71845408D01*
X163200598Y-71845200D01*
X163174221Y-71845062D01*
X163166841Y-71846834D01*
X163166839Y-71846834D01*
X163034913Y-71878507D01*
X162964005Y-71874960D01*
X162906271Y-71833640D01*
X162880041Y-71767667D01*
X162879499Y-71755988D01*
X162879499Y-71624934D01*
X162869090Y-71572599D01*
X162867156Y-71562874D01*
X162867155Y-71562872D01*
X162864734Y-71550699D01*
X162836521Y-71508475D01*
X162815377Y-71476832D01*
X162808484Y-71466516D01*
X162724301Y-71410266D01*
X162650067Y-71395500D01*
X162505500Y-71395500D01*
X162437379Y-71375498D01*
X162390886Y-71321842D01*
X162379500Y-71269500D01*
X162379500Y-70346891D01*
X162399502Y-70278770D01*
X162453349Y-70232190D01*
X162544414Y-70190785D01*
X162553084Y-70186843D01*
X162724986Y-70064904D01*
X162870728Y-69912660D01*
X162927710Y-69824410D01*
X162981800Y-69740640D01*
X162981801Y-69740637D01*
X162985052Y-69735603D01*
X163063834Y-69540122D01*
X163104229Y-69333271D01*
X163104500Y-69327730D01*
X163104500Y-69022341D01*
X163089507Y-68865194D01*
X163030177Y-68662958D01*
X162976929Y-68559571D01*
X162936422Y-68480921D01*
X162936420Y-68480918D01*
X162933676Y-68475590D01*
X162868310Y-68392375D01*
X162807192Y-68314568D01*
X162807188Y-68314564D01*
X162803486Y-68309851D01*
X162798955Y-68305919D01*
X162648835Y-68175650D01*
X162648830Y-68175646D01*
X162644304Y-68171719D01*
X162461874Y-68066181D01*
X162262778Y-67997043D01*
X162256845Y-67996183D01*
X162256842Y-67996182D01*
X162060140Y-67967662D01*
X162060137Y-67967662D01*
X162054200Y-67966801D01*
X161843667Y-67976545D01*
X161837843Y-67977949D01*
X161837840Y-67977949D01*
X161644607Y-68024518D01*
X161644605Y-68024519D01*
X161638774Y-68025924D01*
X161633316Y-68028406D01*
X161633312Y-68028407D01*
X161554562Y-68064213D01*
X161446916Y-68113157D01*
X161275014Y-68235096D01*
X161129272Y-68387340D01*
X161126021Y-68392375D01*
X161035092Y-68533200D01*
X161014948Y-68564397D01*
X160936166Y-68759878D01*
X160895771Y-68966729D01*
X160895500Y-68972270D01*
X160895500Y-69277659D01*
X160604500Y-69277659D01*
X160604500Y-69022341D01*
X160589507Y-68865194D01*
X160530177Y-68662958D01*
X160476929Y-68559571D01*
X160436422Y-68480921D01*
X160436420Y-68480918D01*
X160433676Y-68475590D01*
X160368310Y-68392375D01*
X160307192Y-68314568D01*
X160307188Y-68314564D01*
X160303486Y-68309851D01*
X160298955Y-68305919D01*
X160148835Y-68175650D01*
X160148830Y-68175646D01*
X160144304Y-68171719D01*
X159961874Y-68066181D01*
X159762778Y-67997043D01*
X159756845Y-67996183D01*
X159756842Y-67996182D01*
X159560140Y-67967662D01*
X159560137Y-67967662D01*
X159554200Y-67966801D01*
X159343667Y-67976545D01*
X159337843Y-67977949D01*
X159337840Y-67977949D01*
X159144607Y-68024518D01*
X159144605Y-68024519D01*
X159138774Y-68025924D01*
X159133316Y-68028406D01*
X159133312Y-68028407D01*
X159054562Y-68064213D01*
X158946916Y-68113157D01*
X158775014Y-68235096D01*
X158629272Y-68387340D01*
X158626021Y-68392375D01*
X158535092Y-68533200D01*
X158514948Y-68564397D01*
X158436166Y-68759878D01*
X158395771Y-68966729D01*
X158395500Y-68972270D01*
X158395500Y-69277659D01*
X158410493Y-69434806D01*
X158469823Y-69637042D01*
X158472573Y-69642381D01*
X158551960Y-69796520D01*
X158566324Y-69824410D01*
X158578721Y-69840192D01*
X158692808Y-69985432D01*
X158692812Y-69985436D01*
X158696514Y-69990149D01*
X158701044Y-69994080D01*
X158701045Y-69994081D01*
X158851165Y-70124350D01*
X158851170Y-70124354D01*
X158855696Y-70128281D01*
X159038126Y-70233819D01*
X159237222Y-70302957D01*
X159243155Y-70303817D01*
X159243158Y-70303818D01*
X159362091Y-70321062D01*
X159426637Y-70350632D01*
X159464949Y-70410403D01*
X159470011Y-70445758D01*
X159470011Y-71032440D01*
X159450009Y-71100561D01*
X159420517Y-71126116D01*
X159401671Y-71147865D01*
X159400000Y-71155548D01*
X159400000Y-71919500D01*
X159379998Y-71987621D01*
X159326342Y-72034114D01*
X159274001Y-72045500D01*
X159212550Y-72045500D01*
X159125999Y-72045501D01*
X159057880Y-72025499D01*
X159011387Y-71971844D01*
X159000000Y-71919501D01*
X159000000Y-71160116D01*
X158995525Y-71144877D01*
X158994135Y-71143672D01*
X158986452Y-71142001D01*
X158830331Y-71142001D01*
X158823510Y-71142371D01*
X158772648Y-71147895D01*
X158757396Y-71151521D01*
X158636946Y-71196676D01*
X158621351Y-71205214D01*
X158519276Y-71281715D01*
X158506715Y-71294276D01*
X158430214Y-71396351D01*
X158421676Y-71411946D01*
X158376522Y-71532394D01*
X158372895Y-71547649D01*
X158367369Y-71598514D01*
X158367000Y-71605328D01*
X158367000Y-71719410D01*
X158346998Y-71787531D01*
X158293342Y-71834024D01*
X158240341Y-71845408D01*
X158200598Y-71845200D01*
X158174221Y-71845062D01*
X158166841Y-71846834D01*
X158166839Y-71846834D01*
X158034913Y-71878507D01*
X157964005Y-71874960D01*
X157906271Y-71833640D01*
X157880041Y-71767667D01*
X157879499Y-71755988D01*
X157879499Y-71624934D01*
X157869090Y-71572599D01*
X157867156Y-71562874D01*
X157867155Y-71562872D01*
X157864734Y-71550699D01*
X157836521Y-71508475D01*
X157815377Y-71476832D01*
X157808484Y-71466516D01*
X157724301Y-71410266D01*
X157650067Y-71395500D01*
X157505500Y-71395500D01*
X157437379Y-71375498D01*
X157390886Y-71321842D01*
X157379500Y-71269500D01*
X157379500Y-70346891D01*
X157399502Y-70278770D01*
X157453349Y-70232190D01*
X157544414Y-70190785D01*
X157553084Y-70186843D01*
X157724986Y-70064904D01*
X157870728Y-69912660D01*
X157927710Y-69824410D01*
X157981800Y-69740640D01*
X157981801Y-69740637D01*
X157985052Y-69735603D01*
X158063834Y-69540122D01*
X158104229Y-69333271D01*
X158104500Y-69327730D01*
X158104500Y-69022341D01*
X158089507Y-68865194D01*
X158030177Y-68662958D01*
X157976929Y-68559571D01*
X157936422Y-68480921D01*
X157936420Y-68480918D01*
X157933676Y-68475590D01*
X157868310Y-68392375D01*
X157807192Y-68314568D01*
X157807188Y-68314564D01*
X157803486Y-68309851D01*
X157798955Y-68305919D01*
X157648835Y-68175650D01*
X157648830Y-68175646D01*
X157644304Y-68171719D01*
X157461874Y-68066181D01*
X157262778Y-67997043D01*
X157256845Y-67996183D01*
X157256842Y-67996182D01*
X157060140Y-67967662D01*
X157060137Y-67967662D01*
X157054200Y-67966801D01*
X156843667Y-67976545D01*
X156837843Y-67977949D01*
X156837840Y-67977949D01*
X156644607Y-68024518D01*
X156644605Y-68024519D01*
X156638774Y-68025924D01*
X156633316Y-68028406D01*
X156633312Y-68028407D01*
X156554562Y-68064213D01*
X156446916Y-68113157D01*
X156275014Y-68235096D01*
X156129272Y-68387340D01*
X156126021Y-68392375D01*
X156035092Y-68533200D01*
X156014948Y-68564397D01*
X155936166Y-68759878D01*
X155895771Y-68966729D01*
X155895500Y-68972270D01*
X155895500Y-69277659D01*
X155604500Y-69277659D01*
X155604500Y-69022341D01*
X155589507Y-68865194D01*
X155530177Y-68662958D01*
X155476929Y-68559571D01*
X155436422Y-68480921D01*
X155436420Y-68480918D01*
X155433676Y-68475590D01*
X155368310Y-68392375D01*
X155307192Y-68314568D01*
X155307188Y-68314564D01*
X155303486Y-68309851D01*
X155298955Y-68305919D01*
X155148835Y-68175650D01*
X155148830Y-68175646D01*
X155144304Y-68171719D01*
X154961874Y-68066181D01*
X154762778Y-67997043D01*
X154756845Y-67996183D01*
X154756842Y-67996182D01*
X154560140Y-67967662D01*
X154560137Y-67967662D01*
X154554200Y-67966801D01*
X154343667Y-67976545D01*
X154337843Y-67977949D01*
X154337840Y-67977949D01*
X154144607Y-68024518D01*
X154144605Y-68024519D01*
X154138774Y-68025924D01*
X154133316Y-68028406D01*
X154133312Y-68028407D01*
X154054562Y-68064213D01*
X153946916Y-68113157D01*
X153775014Y-68235096D01*
X153629272Y-68387340D01*
X153626021Y-68392375D01*
X153535092Y-68533200D01*
X153514948Y-68564397D01*
X153436166Y-68759878D01*
X153395771Y-68966729D01*
X153395500Y-68972270D01*
X153395500Y-69277659D01*
X153410493Y-69434806D01*
X153469823Y-69637042D01*
X153472573Y-69642381D01*
X153551960Y-69796520D01*
X153566324Y-69824410D01*
X153578721Y-69840192D01*
X153692808Y-69985432D01*
X153692812Y-69985436D01*
X153696514Y-69990149D01*
X153701044Y-69994080D01*
X153701045Y-69994081D01*
X153851165Y-70124350D01*
X153851170Y-70124354D01*
X153855696Y-70128281D01*
X154038126Y-70233819D01*
X154237222Y-70302957D01*
X154243155Y-70303817D01*
X154243158Y-70303818D01*
X154362091Y-70321062D01*
X154426637Y-70350632D01*
X154464949Y-70410403D01*
X154470011Y-70445758D01*
X154470011Y-71032440D01*
X154450009Y-71100561D01*
X154420517Y-71126116D01*
X154401671Y-71147865D01*
X154400000Y-71155548D01*
X154400000Y-71919500D01*
X154379998Y-71987621D01*
X154326342Y-72034114D01*
X154274001Y-72045500D01*
X154212550Y-72045500D01*
X154125999Y-72045501D01*
X154057880Y-72025499D01*
X154011387Y-71971844D01*
X154000000Y-71919501D01*
X154000000Y-71160116D01*
X153995525Y-71144877D01*
X153994135Y-71143672D01*
X153986452Y-71142001D01*
X153830331Y-71142001D01*
X153823510Y-71142371D01*
X153772648Y-71147895D01*
X153757396Y-71151521D01*
X153636946Y-71196676D01*
X153621351Y-71205214D01*
X153519276Y-71281715D01*
X153506715Y-71294276D01*
X153430214Y-71396351D01*
X153421676Y-71411946D01*
X153376522Y-71532394D01*
X153372895Y-71547649D01*
X153367369Y-71598514D01*
X153367000Y-71605328D01*
X153367000Y-71719410D01*
X153346998Y-71787531D01*
X153293342Y-71834024D01*
X153240341Y-71845408D01*
X153200598Y-71845200D01*
X153174221Y-71845062D01*
X153166841Y-71846834D01*
X153166839Y-71846834D01*
X153034913Y-71878507D01*
X152964005Y-71874960D01*
X152906271Y-71833640D01*
X152880041Y-71767667D01*
X152879499Y-71755988D01*
X152879499Y-71624934D01*
X152869090Y-71572599D01*
X152867156Y-71562874D01*
X152867155Y-71562872D01*
X152864734Y-71550699D01*
X152836521Y-71508475D01*
X152815377Y-71476832D01*
X152808484Y-71466516D01*
X152724301Y-71410266D01*
X152650067Y-71395500D01*
X152505500Y-71395500D01*
X152437379Y-71375498D01*
X152390886Y-71321842D01*
X152379500Y-71269500D01*
X152379500Y-70346891D01*
X152399502Y-70278770D01*
X152453349Y-70232190D01*
X152544414Y-70190785D01*
X152553084Y-70186843D01*
X152724986Y-70064904D01*
X152870728Y-69912660D01*
X152927710Y-69824410D01*
X152981800Y-69740640D01*
X152981801Y-69740637D01*
X152985052Y-69735603D01*
X153063834Y-69540122D01*
X153104229Y-69333271D01*
X153104500Y-69327730D01*
X153104500Y-69022341D01*
X153089507Y-68865194D01*
X153032743Y-68671705D01*
X153032760Y-68600709D01*
X153064553Y-68547141D01*
X154195289Y-67416405D01*
X154257601Y-67382379D01*
X154284384Y-67379500D01*
X161046080Y-67379500D01*
X161070028Y-67382049D01*
X161071693Y-67382128D01*
X161081876Y-67384320D01*
X161092217Y-67383096D01*
X161115223Y-67380373D01*
X161121154Y-67380023D01*
X161121146Y-67379928D01*
X161126324Y-67379500D01*
X161131524Y-67379500D01*
X161136653Y-67378646D01*
X161136656Y-67378646D01*
X161150565Y-67376331D01*
X161156443Y-67375494D01*
X161197001Y-67370694D01*
X161197002Y-67370694D01*
X161207341Y-67369470D01*
X161215593Y-67365507D01*
X161224626Y-67364004D01*
X161233795Y-67359057D01*
X161233797Y-67359056D01*
X161269732Y-67339666D01*
X161275025Y-67336969D01*
X161314082Y-67318215D01*
X161314086Y-67318212D01*
X161321232Y-67314781D01*
X161325508Y-67311186D01*
X161327431Y-67309263D01*
X161329363Y-67307491D01*
X161329442Y-67307448D01*
X161329555Y-67307572D01*
X161330095Y-67307096D01*
X161335814Y-67304010D01*
X161372417Y-67264413D01*
X161375846Y-67260848D01*
X162470668Y-66166026D01*
X162532980Y-66132000D01*
X162559763Y-66129121D01*
X162562770Y-66129121D01*
X162630891Y-66149123D01*
X162658151Y-66172790D01*
X162659301Y-66174122D01*
X162663537Y-66180426D01*
X162780705Y-66287040D01*
X162919922Y-66362629D01*
X163073151Y-66402828D01*
X163157106Y-66404147D01*
X163223948Y-66405197D01*
X163223951Y-66405197D01*
X163231545Y-66405316D01*
X163385961Y-66369950D01*
X163456371Y-66334538D01*
X163520701Y-66302184D01*
X163520704Y-66302182D01*
X163527484Y-66298772D01*
X163533255Y-66293843D01*
X163533258Y-66293841D01*
X163642165Y-66200825D01*
X163642165Y-66200824D01*
X163647943Y-66195890D01*
X163740384Y-66067245D01*
X163799471Y-65920262D01*
X163813731Y-65820064D01*
X163821210Y-65767512D01*
X163821210Y-65767509D01*
X163821791Y-65763428D01*
X163821936Y-65749621D01*
X163819938Y-65733113D01*
X163815285Y-65694658D01*
X163826958Y-65624627D01*
X163874640Y-65572025D01*
X163940372Y-65553521D01*
X164964637Y-65553521D01*
X165032758Y-65573523D01*
X165053732Y-65590426D01*
X165893522Y-66430216D01*
X165908664Y-66448964D01*
X165909779Y-66450189D01*
X165915429Y-66458940D01*
X165923607Y-66465387D01*
X165923609Y-66465389D01*
X165941800Y-66479729D01*
X165946244Y-66483678D01*
X165946306Y-66483604D01*
X165950263Y-66486957D01*
X165953944Y-66490638D01*
X165969654Y-66501865D01*
X165974380Y-66505413D01*
X166014647Y-66537156D01*
X166023284Y-66540189D01*
X166030734Y-66545513D01*
X166040710Y-66548497D01*
X166040711Y-66548497D01*
X166056046Y-66553083D01*
X166079849Y-66560202D01*
X166085486Y-66562034D01*
X166117591Y-66573308D01*
X166133851Y-66579018D01*
X166139416Y-66579500D01*
X166142124Y-66579500D01*
X166144758Y-66579614D01*
X166144856Y-66579643D01*
X166144849Y-66579807D01*
X166145553Y-66579851D01*
X166151778Y-66581713D01*
X166205635Y-66579597D01*
X166210582Y-66579500D01*
X166778465Y-66579500D01*
X166838587Y-66594769D01*
X166907793Y-66632345D01*
X167061022Y-66672544D01*
X167144977Y-66673863D01*
X167211819Y-66674913D01*
X167211822Y-66674913D01*
X167219416Y-66675032D01*
X167226820Y-66673336D01*
X167226822Y-66673336D01*
X167341371Y-66647101D01*
X167412238Y-66651390D01*
X167469536Y-66693312D01*
X167495073Y-66759557D01*
X167495500Y-66769921D01*
X167495500Y-67900722D01*
X167475498Y-67968843D01*
X167421842Y-68015336D01*
X167351568Y-68025440D01*
X167328166Y-68019749D01*
X167268449Y-67999012D01*
X167268446Y-67999011D01*
X167262778Y-67997043D01*
X167256845Y-67996183D01*
X167256842Y-67996182D01*
X167060140Y-67967662D01*
X167060137Y-67967662D01*
X167054200Y-67966801D01*
X166843667Y-67976545D01*
X166837843Y-67977949D01*
X166837840Y-67977949D01*
X166644607Y-68024518D01*
X166644605Y-68024519D01*
X166638774Y-68025924D01*
X166633316Y-68028406D01*
X166633312Y-68028407D01*
X166554562Y-68064213D01*
X166446916Y-68113157D01*
X166275014Y-68235096D01*
X166129272Y-68387340D01*
X166126021Y-68392375D01*
X166035092Y-68533200D01*
X166014948Y-68564397D01*
X165936166Y-68759878D01*
X165895771Y-68966729D01*
X165895500Y-68972270D01*
X165895500Y-69277659D01*
X165910493Y-69434806D01*
X165969823Y-69637042D01*
X165972573Y-69642381D01*
X166051960Y-69796520D01*
X166066324Y-69824410D01*
X166078721Y-69840192D01*
X166192808Y-69985432D01*
X166192812Y-69985436D01*
X166196514Y-69990149D01*
X166201044Y-69994080D01*
X166201045Y-69994081D01*
X166351165Y-70124350D01*
X166351170Y-70124354D01*
X166355696Y-70128281D01*
X166538126Y-70233819D01*
X166543791Y-70235786D01*
X166546953Y-70237234D01*
X166600564Y-70283779D01*
X166620500Y-70351797D01*
X166620500Y-71496080D01*
X166617951Y-71520028D01*
X166617872Y-71521693D01*
X166615680Y-71531876D01*
X166616904Y-71542217D01*
X166619627Y-71565223D01*
X166619977Y-71571154D01*
X166620072Y-71571146D01*
X166620500Y-71576324D01*
X166620500Y-71581524D01*
X166621354Y-71586653D01*
X166621354Y-71586656D01*
X166623669Y-71600565D01*
X166624506Y-71606443D01*
X166626695Y-71624934D01*
X166630530Y-71657341D01*
X166634493Y-71665593D01*
X166635996Y-71674626D01*
X166640943Y-71683795D01*
X166640944Y-71683797D01*
X166660334Y-71719732D01*
X166663031Y-71725025D01*
X166681785Y-71764082D01*
X166681788Y-71764086D01*
X166685219Y-71771232D01*
X166688814Y-71775508D01*
X166689800Y-71776494D01*
X166694624Y-71783964D01*
X166692917Y-71785066D01*
X166718660Y-71837460D01*
X166720500Y-71858913D01*
X166720501Y-71971844D01*
X166720501Y-72075066D01*
X166733511Y-72140479D01*
X166735266Y-72149301D01*
X166731066Y-72150136D01*
X166736157Y-72197324D01*
X166735172Y-72200680D01*
X166735266Y-72200699D01*
X166720500Y-72274933D01*
X166720500Y-72442825D01*
X166700499Y-72510944D01*
X166670066Y-72543651D01*
X166619273Y-72581718D01*
X166606715Y-72594276D01*
X166530214Y-72696351D01*
X166521676Y-72711946D01*
X166476522Y-72832394D01*
X166472895Y-72847649D01*
X166467369Y-72898514D01*
X166467000Y-72905328D01*
X166467000Y-72931885D01*
X166471475Y-72947124D01*
X166472865Y-72948329D01*
X166480548Y-72950000D01*
X166914900Y-72950000D01*
X166939481Y-72952421D01*
X166949933Y-72954500D01*
X166965280Y-72954500D01*
X167374001Y-72954499D01*
X167442120Y-72974501D01*
X167488614Y-73028156D01*
X167500000Y-73080499D01*
X167500000Y-73839884D01*
X167504475Y-73855123D01*
X167505865Y-73856328D01*
X167513548Y-73857999D01*
X167669669Y-73857999D01*
X167676490Y-73857629D01*
X167727352Y-73852105D01*
X167742604Y-73848479D01*
X167863054Y-73803324D01*
X167878649Y-73794786D01*
X167980724Y-73718285D01*
X167993285Y-73705724D01*
X168069786Y-73603649D01*
X168078324Y-73588054D01*
X168123478Y-73467606D01*
X168127105Y-73452351D01*
X168132631Y-73401486D01*
X168133000Y-73394672D01*
X168133000Y-73280769D01*
X168153002Y-73212648D01*
X168206658Y-73166155D01*
X168260979Y-73154785D01*
X168311318Y-73155576D01*
X168311321Y-73155576D01*
X168318916Y-73155695D01*
X168466372Y-73121923D01*
X168537238Y-73126212D01*
X168594536Y-73168134D01*
X168620074Y-73234379D01*
X168620501Y-73244733D01*
X168620501Y-73375066D01*
X168635266Y-73449301D01*
X168642161Y-73459621D01*
X168642162Y-73459622D01*
X168677385Y-73512336D01*
X168691516Y-73533484D01*
X168775699Y-73589734D01*
X168849933Y-73604500D01*
X169199943Y-73604500D01*
X169550066Y-73604499D01*
X169585818Y-73597388D01*
X169612126Y-73592156D01*
X169612128Y-73592155D01*
X169624301Y-73589734D01*
X169634621Y-73582839D01*
X169634622Y-73582838D01*
X169678403Y-73553584D01*
X169746156Y-73532369D01*
X169747936Y-73532395D01*
X169756876Y-73534320D01*
X169790223Y-73530373D01*
X169796154Y-73530023D01*
X169796146Y-73529928D01*
X169801324Y-73529500D01*
X169806524Y-73529500D01*
X169811653Y-73528646D01*
X169811656Y-73528646D01*
X169825565Y-73526331D01*
X169831443Y-73525494D01*
X169872001Y-73520694D01*
X169872002Y-73520694D01*
X169882341Y-73519470D01*
X169890593Y-73515507D01*
X169899626Y-73514004D01*
X169908795Y-73509057D01*
X169908797Y-73509056D01*
X169944732Y-73489666D01*
X169950025Y-73486969D01*
X169989082Y-73468215D01*
X169989086Y-73468212D01*
X169996232Y-73464781D01*
X170000508Y-73461186D01*
X170002431Y-73459263D01*
X170004363Y-73457491D01*
X170004442Y-73457448D01*
X170004555Y-73457571D01*
X170005092Y-73457097D01*
X170010814Y-73454010D01*
X170047417Y-73414414D01*
X170050829Y-73410866D01*
X170079731Y-73381964D01*
X170098473Y-73366827D01*
X170099700Y-73365710D01*
X170108451Y-73360060D01*
X170114899Y-73351881D01*
X170129242Y-73333687D01*
X170133187Y-73329248D01*
X170133114Y-73329186D01*
X170136474Y-73325221D01*
X170140149Y-73321546D01*
X170143166Y-73317324D01*
X170143171Y-73317318D01*
X170151373Y-73305839D01*
X170154939Y-73301089D01*
X170155086Y-73300902D01*
X170186667Y-73260842D01*
X170189700Y-73252205D01*
X170195024Y-73244755D01*
X170209713Y-73195640D01*
X170211545Y-73190003D01*
X170225901Y-73149122D01*
X170225901Y-73149121D01*
X170228529Y-73141638D01*
X170229011Y-73136073D01*
X170229011Y-73133365D01*
X170229125Y-73130731D01*
X170229154Y-73130633D01*
X170229318Y-73130640D01*
X170229362Y-73129936D01*
X170231224Y-73123711D01*
X170229108Y-73069854D01*
X170229011Y-73064907D01*
X170229011Y-70111287D01*
X170249013Y-70043166D01*
X170263993Y-70024156D01*
X170301064Y-69985432D01*
X170370728Y-69912660D01*
X170427710Y-69824410D01*
X170481800Y-69740640D01*
X170481801Y-69740637D01*
X170485052Y-69735603D01*
X170563834Y-69540122D01*
X170604229Y-69333271D01*
X170604500Y-69327730D01*
X170604500Y-69022341D01*
X170589507Y-68865194D01*
X170530177Y-68662958D01*
X170476929Y-68559571D01*
X170436422Y-68480921D01*
X170436420Y-68480918D01*
X170433676Y-68475590D01*
X170368310Y-68392375D01*
X170307192Y-68314568D01*
X170307188Y-68314564D01*
X170303486Y-68309851D01*
X170298955Y-68305919D01*
X170148835Y-68175650D01*
X170148830Y-68175646D01*
X170144304Y-68171719D01*
X169961874Y-68066181D01*
X169956207Y-68064213D01*
X169953047Y-68062766D01*
X169899436Y-68016221D01*
X169879500Y-67948203D01*
X169879500Y-65003920D01*
X169882049Y-64979972D01*
X169882128Y-64978307D01*
X169884320Y-64968124D01*
X169880373Y-64934777D01*
X169880023Y-64928846D01*
X169879928Y-64928854D01*
X169879500Y-64923676D01*
X169879500Y-64918476D01*
X169877554Y-64906785D01*
X169876331Y-64899435D01*
X169875494Y-64893557D01*
X169870694Y-64852999D01*
X169870694Y-64852998D01*
X169869470Y-64842659D01*
X169865507Y-64834407D01*
X169864004Y-64825374D01*
X169839665Y-64780266D01*
X169836969Y-64774975D01*
X169818215Y-64735918D01*
X169818212Y-64735914D01*
X169814781Y-64728768D01*
X169811186Y-64724492D01*
X169809263Y-64722569D01*
X169807491Y-64720637D01*
X169807448Y-64720558D01*
X169807572Y-64720445D01*
X169807096Y-64719905D01*
X169804010Y-64714186D01*
X169764413Y-64677583D01*
X169760848Y-64674154D01*
X167806478Y-62719784D01*
X167791336Y-62701036D01*
X167790221Y-62699811D01*
X167784571Y-62691060D01*
X167776393Y-62684613D01*
X167776391Y-62684611D01*
X167758200Y-62670271D01*
X167753759Y-62666325D01*
X167753697Y-62666398D01*
X167749733Y-62663039D01*
X167746056Y-62659362D01*
X167730308Y-62648108D01*
X167725638Y-62644602D01*
X167685353Y-62612844D01*
X167676719Y-62609812D01*
X167669266Y-62604486D01*
X167620150Y-62589797D01*
X167614508Y-62587964D01*
X167573633Y-62573610D01*
X167573632Y-62573610D01*
X167566149Y-62570982D01*
X167560584Y-62570500D01*
X167557876Y-62570500D01*
X167555242Y-62570386D01*
X167555144Y-62570357D01*
X167555151Y-62570193D01*
X167554447Y-62570149D01*
X167548222Y-62568287D01*
X167494365Y-62570403D01*
X167489418Y-62570500D01*
X165259384Y-62570500D01*
X165191263Y-62550498D01*
X165170289Y-62533595D01*
X164007217Y-61370523D01*
X163992075Y-61351775D01*
X163990960Y-61350550D01*
X163985310Y-61341799D01*
X163977132Y-61335352D01*
X163977130Y-61335350D01*
X163958939Y-61321010D01*
X163954498Y-61317064D01*
X163954436Y-61317137D01*
X163950472Y-61313778D01*
X163946795Y-61310101D01*
X163931047Y-61298847D01*
X163926377Y-61295341D01*
X163886092Y-61263583D01*
X163877458Y-61260551D01*
X163870005Y-61255225D01*
X163820889Y-61240536D01*
X163815247Y-61238703D01*
X163774372Y-61224349D01*
X163774371Y-61224349D01*
X163766888Y-61221721D01*
X163761323Y-61221239D01*
X163758615Y-61221239D01*
X163755981Y-61221125D01*
X163755883Y-61221096D01*
X163755890Y-61220932D01*
X163755186Y-61220888D01*
X163748961Y-61219026D01*
X163695104Y-61221142D01*
X163690157Y-61221239D01*
X163682483Y-61221239D01*
X163614362Y-61201237D01*
X163587915Y-61175599D01*
X163586679Y-61176688D01*
X163581656Y-61170990D01*
X163577354Y-61164731D01*
X163459076Y-61059350D01*
X163451690Y-61055439D01*
X163387924Y-61021677D01*
X163319075Y-60985223D01*
X163165434Y-60946631D01*
X163157835Y-60946591D01*
X163157834Y-60946591D01*
X163091982Y-60946246D01*
X163007022Y-60945801D01*
X162999642Y-60947573D01*
X162999640Y-60947573D01*
X162860364Y-60981010D01*
X162860361Y-60981011D01*
X162852985Y-60982782D01*
X162712215Y-61055439D01*
X162592840Y-61159577D01*
X162501751Y-61289183D01*
X162444207Y-61436776D01*
X162443215Y-61444309D01*
X162443215Y-61444310D01*
X162424619Y-61585565D01*
X162423530Y-61593835D01*
X162424364Y-61601385D01*
X162439999Y-61743003D01*
X162440914Y-61751292D01*
X162443524Y-61758423D01*
X162443524Y-61758425D01*
X162491165Y-61888610D01*
X162495354Y-61900058D01*
X162499590Y-61906361D01*
X162499590Y-61906362D01*
X162578976Y-62024500D01*
X162583709Y-62031544D01*
X162589328Y-62036657D01*
X162589329Y-62036658D01*
X162661686Y-62102497D01*
X162700877Y-62138158D01*
X162840094Y-62213747D01*
X162993323Y-62253946D01*
X163077278Y-62255265D01*
X163144120Y-62256315D01*
X163144123Y-62256315D01*
X163151717Y-62256434D01*
X163306133Y-62221068D01*
X163390453Y-62178660D01*
X163440873Y-62153302D01*
X163440876Y-62153300D01*
X163447656Y-62149890D01*
X163453429Y-62144959D01*
X163453434Y-62144956D01*
X163502308Y-62103213D01*
X163567097Y-62074181D01*
X163637297Y-62084786D01*
X163673234Y-62109928D01*
X164743522Y-63180216D01*
X164758664Y-63198964D01*
X164759779Y-63200189D01*
X164765429Y-63208940D01*
X164773607Y-63215387D01*
X164773609Y-63215389D01*
X164791800Y-63229729D01*
X164796244Y-63233678D01*
X164796306Y-63233604D01*
X164800263Y-63236957D01*
X164803944Y-63240638D01*
X164819654Y-63251865D01*
X164824380Y-63255413D01*
X164864647Y-63287156D01*
X164873284Y-63290189D01*
X164880734Y-63295513D01*
X164890710Y-63298497D01*
X164890711Y-63298497D01*
X164895737Y-63300000D01*
X164929849Y-63310202D01*
X164935486Y-63312034D01*
X164976367Y-63326390D01*
X164983851Y-63329018D01*
X164989416Y-63329500D01*
X164992124Y-63329500D01*
X164994758Y-63329614D01*
X164994856Y-63329643D01*
X164994849Y-63329807D01*
X164995553Y-63329851D01*
X165001778Y-63331713D01*
X165055635Y-63329597D01*
X165060582Y-63329500D01*
X167290616Y-63329500D01*
X167358737Y-63349502D01*
X167379711Y-63366405D01*
X169083595Y-65070289D01*
X169117621Y-65132601D01*
X169120500Y-65159384D01*
X169120500Y-67953109D01*
X169100498Y-68021230D01*
X169046651Y-68067810D01*
X169041971Y-68069938D01*
X168946916Y-68113157D01*
X168775014Y-68235096D01*
X168629272Y-68387340D01*
X168626021Y-68392375D01*
X168535092Y-68533200D01*
X168514948Y-68564397D01*
X168436166Y-68759878D01*
X168395771Y-68966729D01*
X168395500Y-68972270D01*
X168395500Y-69277659D01*
X168410493Y-69434806D01*
X168469823Y-69637042D01*
X168472573Y-69642381D01*
X168551960Y-69796520D01*
X168566324Y-69824410D01*
X168578721Y-69840192D01*
X168692808Y-69985432D01*
X168692812Y-69985436D01*
X168696514Y-69990149D01*
X168701044Y-69994080D01*
X168701045Y-69994081D01*
X168851165Y-70124350D01*
X168851170Y-70124354D01*
X168855696Y-70128281D01*
X169038126Y-70233819D01*
X169237222Y-70302957D01*
X169243155Y-70303817D01*
X169243158Y-70303818D01*
X169362091Y-70321062D01*
X169426637Y-70350632D01*
X169464949Y-70410403D01*
X169470011Y-70445758D01*
X169470011Y-71032440D01*
X169450009Y-71100561D01*
X169420517Y-71126116D01*
X169401671Y-71147865D01*
X169400000Y-71155548D01*
X169400000Y-71919500D01*
X169379998Y-71987621D01*
X169326342Y-72034114D01*
X169274001Y-72045500D01*
X169212550Y-72045500D01*
X169125999Y-72045501D01*
X169057880Y-72025499D01*
X169011387Y-71971844D01*
X169000000Y-71919501D01*
X169000000Y-71160116D01*
X168995525Y-71144877D01*
X168994135Y-71143672D01*
X168986452Y-71142001D01*
X168830331Y-71142001D01*
X168823510Y-71142371D01*
X168772648Y-71147895D01*
X168757396Y-71151521D01*
X168636946Y-71196676D01*
X168621351Y-71205214D01*
X168519276Y-71281715D01*
X168506715Y-71294276D01*
X168430214Y-71396351D01*
X168421676Y-71411946D01*
X168376522Y-71532394D01*
X168372895Y-71547649D01*
X168367369Y-71598514D01*
X168367000Y-71605328D01*
X168367000Y-71719410D01*
X168346998Y-71787531D01*
X168293342Y-71834024D01*
X168240341Y-71845408D01*
X168200598Y-71845200D01*
X168174221Y-71845062D01*
X168166841Y-71846834D01*
X168166839Y-71846834D01*
X168034913Y-71878507D01*
X167964005Y-71874960D01*
X167906271Y-71833640D01*
X167880041Y-71767667D01*
X167879499Y-71755988D01*
X167879499Y-71624934D01*
X167869090Y-71572599D01*
X167867156Y-71562874D01*
X167867155Y-71562872D01*
X167864734Y-71550699D01*
X167836521Y-71508475D01*
X167815377Y-71476832D01*
X167808484Y-71466516D01*
X167724301Y-71410266D01*
X167650067Y-71395500D01*
X167505500Y-71395500D01*
X167437379Y-71375498D01*
X167390886Y-71321842D01*
X167379500Y-71269500D01*
X167379500Y-70346891D01*
X167399502Y-70278770D01*
X167453349Y-70232190D01*
X167544414Y-70190785D01*
X167553084Y-70186843D01*
X167724986Y-70064904D01*
X167870728Y-69912660D01*
X167927710Y-69824410D01*
X167981800Y-69740640D01*
X167981801Y-69740637D01*
X167985052Y-69735603D01*
X168063834Y-69540122D01*
X168104229Y-69333271D01*
X168104500Y-69327730D01*
X168104500Y-69022341D01*
X168089507Y-68865194D01*
X168049755Y-68729693D01*
X168049771Y-68658699D01*
X168081564Y-68605130D01*
X168105216Y-68581478D01*
X168123964Y-68566336D01*
X168125189Y-68565221D01*
X168133940Y-68559571D01*
X168140387Y-68551393D01*
X168140389Y-68551391D01*
X168154729Y-68533200D01*
X168158675Y-68528759D01*
X168158602Y-68528697D01*
X168161961Y-68524733D01*
X168165638Y-68521056D01*
X168176892Y-68505308D01*
X168180398Y-68500638D01*
X168212156Y-68460353D01*
X168215188Y-68451719D01*
X168220514Y-68444266D01*
X168235203Y-68395150D01*
X168237036Y-68389508D01*
X168251390Y-68348633D01*
X168251390Y-68348632D01*
X168254018Y-68341149D01*
X168254500Y-68335584D01*
X168254500Y-68332876D01*
X168254614Y-68330242D01*
X168254643Y-68330144D01*
X168254807Y-68330151D01*
X168254851Y-68329447D01*
X168256713Y-68323222D01*
X168254597Y-68269365D01*
X168254500Y-68264418D01*
X168254500Y-65578920D01*
X168257049Y-65554972D01*
X168257128Y-65553307D01*
X168259320Y-65543124D01*
X168255373Y-65509777D01*
X168255023Y-65503846D01*
X168254928Y-65503854D01*
X168254500Y-65498676D01*
X168254500Y-65493476D01*
X168252209Y-65479711D01*
X168251331Y-65474435D01*
X168250494Y-65468557D01*
X168245694Y-65427999D01*
X168245694Y-65427998D01*
X168244470Y-65417659D01*
X168240507Y-65409407D01*
X168239004Y-65400374D01*
X168230597Y-65384792D01*
X168214666Y-65355268D01*
X168211969Y-65349975D01*
X168193215Y-65310918D01*
X168193212Y-65310914D01*
X168189781Y-65303768D01*
X168186186Y-65299492D01*
X168184263Y-65297569D01*
X168182491Y-65295637D01*
X168182448Y-65295558D01*
X168182572Y-65295445D01*
X168182096Y-65294905D01*
X168179010Y-65289186D01*
X168139413Y-65252583D01*
X168135848Y-65249154D01*
X166931478Y-64044784D01*
X166916336Y-64026036D01*
X166915221Y-64024811D01*
X166909571Y-64016060D01*
X166901393Y-64009613D01*
X166901391Y-64009611D01*
X166883200Y-63995271D01*
X166878759Y-63991325D01*
X166878697Y-63991398D01*
X166874733Y-63988039D01*
X166871056Y-63984362D01*
X166855308Y-63973108D01*
X166850638Y-63969602D01*
X166810353Y-63937844D01*
X166801719Y-63934812D01*
X166794266Y-63929486D01*
X166745150Y-63914797D01*
X166739508Y-63912964D01*
X166698633Y-63898610D01*
X166698632Y-63898610D01*
X166691149Y-63895982D01*
X166685584Y-63895500D01*
X166682876Y-63895500D01*
X166680242Y-63895386D01*
X166680144Y-63895357D01*
X166680151Y-63895193D01*
X166679447Y-63895149D01*
X166673222Y-63893287D01*
X166619365Y-63895403D01*
X166614418Y-63895500D01*
X164184384Y-63895500D01*
X164116263Y-63875498D01*
X164095289Y-63858595D01*
X163690143Y-63453449D01*
X163656117Y-63391137D01*
X163654495Y-63346601D01*
X163658581Y-63317892D01*
X163658581Y-63317886D01*
X163659162Y-63313807D01*
X163659307Y-63300000D01*
X163656973Y-63280708D01*
X163653734Y-63253944D01*
X163640276Y-63142733D01*
X163584280Y-62994546D01*
X163494553Y-62863992D01*
X163376275Y-62758611D01*
X163368991Y-62754754D01*
X163242988Y-62688039D01*
X163242989Y-62688039D01*
X163236274Y-62684484D01*
X163082633Y-62645892D01*
X163075034Y-62645852D01*
X163075033Y-62645852D01*
X163009181Y-62645507D01*
X162924221Y-62645062D01*
X162916841Y-62646834D01*
X162916839Y-62646834D01*
X162777563Y-62680271D01*
X162777560Y-62680272D01*
X162770184Y-62682043D01*
X162629414Y-62754700D01*
X162510039Y-62858838D01*
X162418950Y-62988444D01*
X162416190Y-62995524D01*
X162367078Y-63121490D01*
X162361406Y-63136037D01*
X162360414Y-63143570D01*
X162360414Y-63143571D01*
X162342073Y-63282888D01*
X162340729Y-63293096D01*
X162347177Y-63351499D01*
X162357001Y-63440480D01*
X162358113Y-63450553D01*
X162360723Y-63457684D01*
X162360723Y-63457686D01*
X162406299Y-63582228D01*
X162412553Y-63599319D01*
X162416789Y-63605622D01*
X162416789Y-63605623D01*
X162486514Y-63709384D01*
X162500908Y-63730805D01*
X162506527Y-63735918D01*
X162506528Y-63735919D01*
X162514938Y-63743571D01*
X162618076Y-63837419D01*
X162619989Y-63838458D01*
X162662498Y-63892409D01*
X162669313Y-63963077D01*
X162636840Y-64026212D01*
X162575389Y-64061768D01*
X162545568Y-64065348D01*
X161548768Y-64065348D01*
X161524820Y-64062799D01*
X161523155Y-64062720D01*
X161512972Y-64060528D01*
X161502631Y-64061752D01*
X161479625Y-64064475D01*
X161473694Y-64064825D01*
X161473702Y-64064920D01*
X161468524Y-64065348D01*
X161463324Y-64065348D01*
X161458195Y-64066202D01*
X161458192Y-64066202D01*
X161444283Y-64068517D01*
X161438405Y-64069354D01*
X161397847Y-64074154D01*
X161397846Y-64074154D01*
X161387507Y-64075378D01*
X161379255Y-64079341D01*
X161370222Y-64080844D01*
X161361053Y-64085791D01*
X161361051Y-64085792D01*
X161325116Y-64105182D01*
X161319823Y-64107879D01*
X161280766Y-64126633D01*
X161280762Y-64126636D01*
X161273616Y-64130067D01*
X161269340Y-64133662D01*
X161267417Y-64135585D01*
X161265485Y-64137357D01*
X161265406Y-64137400D01*
X161265293Y-64137276D01*
X161264753Y-64137752D01*
X161259034Y-64140838D01*
X161251967Y-64148483D01*
X161222432Y-64180434D01*
X161219002Y-64184000D01*
X160738591Y-64664411D01*
X160676279Y-64698437D01*
X160605464Y-64693372D01*
X160548628Y-64650825D01*
X160531632Y-64619858D01*
X160484280Y-64494546D01*
X160441506Y-64432309D01*
X160398855Y-64370251D01*
X160398854Y-64370249D01*
X160394553Y-64363992D01*
X160321681Y-64299065D01*
X160284126Y-64238816D01*
X160279500Y-64204989D01*
X160279500Y-62709384D01*
X160299502Y-62641263D01*
X160316405Y-62620289D01*
X164356694Y-58580000D01*
X165010874Y-58580000D01*
X165031289Y-58735065D01*
X165091142Y-58879563D01*
X165186354Y-59003646D01*
X165310437Y-59098858D01*
X165454935Y-59158711D01*
X165610000Y-59179126D01*
X165618188Y-59178048D01*
X165618189Y-59178048D01*
X165694656Y-59167981D01*
X165764805Y-59178920D01*
X165817903Y-59226048D01*
X165837093Y-59294402D01*
X165816282Y-59362280D01*
X165784338Y-59395433D01*
X165287563Y-59750273D01*
X165255700Y-59773032D01*
X165242294Y-59781391D01*
X165229173Y-59788471D01*
X165214496Y-59796390D01*
X165207428Y-59804036D01*
X165207427Y-59804037D01*
X165178441Y-59835394D01*
X165174992Y-59838979D01*
X165144792Y-59869166D01*
X165144789Y-59869170D01*
X165137426Y-59876530D01*
X165134051Y-59883415D01*
X165128849Y-59889043D01*
X165107362Y-59937645D01*
X165105297Y-59942079D01*
X165081893Y-59989826D01*
X165080930Y-59997432D01*
X165077831Y-60004443D01*
X165076933Y-60014814D01*
X165073248Y-60057357D01*
X165072721Y-60062305D01*
X165066052Y-60115002D01*
X165067605Y-60122508D01*
X165066943Y-60130147D01*
X165069454Y-60140255D01*
X165069454Y-60140257D01*
X165079749Y-60181702D01*
X165080853Y-60186552D01*
X165091612Y-60238561D01*
X165095513Y-60245160D01*
X165097361Y-60252601D01*
X165119793Y-60287341D01*
X165126177Y-60297228D01*
X165128794Y-60301463D01*
X165150517Y-60338215D01*
X165150519Y-60338217D01*
X165155816Y-60347179D01*
X165161645Y-60352160D01*
X165165803Y-60358599D01*
X165173981Y-60365046D01*
X165173982Y-60365047D01*
X165207512Y-60391479D01*
X165211353Y-60394632D01*
X165251743Y-60429144D01*
X165258871Y-60431968D01*
X165264890Y-60436713D01*
X165274717Y-60440164D01*
X165314991Y-60454307D01*
X165319653Y-60456048D01*
X165359369Y-60471783D01*
X165359370Y-60471783D01*
X165369047Y-60475617D01*
X165376708Y-60475980D01*
X165383938Y-60478519D01*
X165389491Y-60479000D01*
X165437467Y-60479000D01*
X165443430Y-60479141D01*
X165495080Y-60481588D01*
X165502512Y-60479430D01*
X165509827Y-60479000D01*
X166233991Y-60479000D01*
X166302112Y-60499002D01*
X166348605Y-60552658D01*
X166358709Y-60622932D01*
X166329215Y-60687512D01*
X166318281Y-60698655D01*
X165691265Y-61262970D01*
X165273058Y-61639356D01*
X165269819Y-61643419D01*
X165269817Y-61643421D01*
X165254639Y-61662460D01*
X165214303Y-61713055D01*
X165171847Y-61831872D01*
X165171708Y-61842284D01*
X165171708Y-61842286D01*
X165171007Y-61894954D01*
X165170168Y-61958036D01*
X165209445Y-62077941D01*
X165215717Y-62086253D01*
X165267107Y-62154359D01*
X165285443Y-62178660D01*
X165389970Y-62249330D01*
X165400022Y-62252054D01*
X165400024Y-62252055D01*
X165501699Y-62279609D01*
X165501701Y-62279609D01*
X165511752Y-62282333D01*
X165590109Y-62277215D01*
X165627264Y-62274788D01*
X165637658Y-62274109D01*
X165754112Y-62225544D01*
X165758562Y-62222187D01*
X167473841Y-60678436D01*
X167537854Y-60647734D01*
X167608305Y-60656514D01*
X167640129Y-60676426D01*
X169344585Y-62137388D01*
X169427257Y-62208250D01*
X169474341Y-62236710D01*
X169499003Y-62251618D01*
X169499005Y-62251619D01*
X169507919Y-62257007D01*
X169518099Y-62259218D01*
X169518100Y-62259218D01*
X169569494Y-62270378D01*
X169631221Y-62283782D01*
X169641559Y-62282577D01*
X169641562Y-62282577D01*
X169693884Y-62276478D01*
X169756547Y-62269173D01*
X169870384Y-62214756D01*
X169960458Y-62126401D01*
X169965128Y-62117095D01*
X169965130Y-62117093D01*
X169993633Y-62060300D01*
X170017055Y-62013631D01*
X170034072Y-61888610D01*
X170020958Y-61822064D01*
X170011691Y-61775038D01*
X170011690Y-61775035D01*
X170009676Y-61764816D01*
X170001853Y-61751292D01*
X169950464Y-61662460D01*
X169946495Y-61655599D01*
X169942592Y-61651620D01*
X169699868Y-61443571D01*
X168833145Y-60700666D01*
X168794441Y-60641147D01*
X168794060Y-60570152D01*
X168832122Y-60510220D01*
X168896544Y-60480381D01*
X168915145Y-60479000D01*
X169610256Y-60479000D01*
X169629966Y-60480551D01*
X169650000Y-60483724D01*
X169655797Y-60482806D01*
X169846798Y-60466095D01*
X169975514Y-60431606D01*
X170032306Y-60416389D01*
X170032308Y-60416388D01*
X170037616Y-60414966D01*
X170084684Y-60393018D01*
X170211670Y-60333804D01*
X170211675Y-60333801D01*
X170216657Y-60331478D01*
X170349436Y-60238505D01*
X170373969Y-60221327D01*
X170373972Y-60221325D01*
X170378480Y-60218168D01*
X170518168Y-60078480D01*
X170528543Y-60063664D01*
X170585694Y-59982043D01*
X170631478Y-59916657D01*
X170633801Y-59911675D01*
X170633804Y-59911670D01*
X170712643Y-59742598D01*
X170712643Y-59742597D01*
X170714966Y-59737616D01*
X170720269Y-59717827D01*
X170764671Y-59552113D01*
X170764671Y-59552112D01*
X170766095Y-59546798D01*
X170783313Y-59350000D01*
X170766095Y-59153202D01*
X170764671Y-59147887D01*
X170716389Y-58967694D01*
X170716388Y-58967692D01*
X170714966Y-58962384D01*
X170665469Y-58856237D01*
X170633801Y-58788325D01*
X170633799Y-58788322D01*
X170631478Y-58783344D01*
X170518168Y-58621520D01*
X170378480Y-58481832D01*
X170373972Y-58478675D01*
X170373969Y-58478673D01*
X170286325Y-58417304D01*
X170216657Y-58368522D01*
X170211675Y-58366199D01*
X170211670Y-58366196D01*
X170042598Y-58287357D01*
X170042597Y-58287357D01*
X170037616Y-58285034D01*
X170032308Y-58283612D01*
X170032306Y-58283611D01*
X169963219Y-58265100D01*
X169846798Y-58233905D01*
X169655797Y-58217194D01*
X169650000Y-58216276D01*
X169640208Y-58217827D01*
X169541214Y-58233506D01*
X169541213Y-58233506D01*
X169531423Y-58235057D01*
X169424453Y-58289561D01*
X169339561Y-58374453D01*
X169285057Y-58481423D01*
X169283506Y-58491213D01*
X169283506Y-58491214D01*
X169281828Y-58501809D01*
X169266276Y-58600000D01*
X169285057Y-58718577D01*
X169339561Y-58825547D01*
X169424453Y-58910439D01*
X169531423Y-58964943D01*
X169541213Y-58966494D01*
X169541214Y-58966494D01*
X169615480Y-58978256D01*
X169650000Y-58983724D01*
X169659793Y-58982173D01*
X169663053Y-58982173D01*
X169680984Y-58983455D01*
X169736591Y-58991450D01*
X169771002Y-59001554D01*
X169786582Y-59008669D01*
X169834100Y-59030370D01*
X169864269Y-59049758D01*
X169916694Y-59095185D01*
X169940177Y-59122287D01*
X169977679Y-59180642D01*
X169992577Y-59213263D01*
X170012120Y-59279819D01*
X170017224Y-59315318D01*
X170017224Y-59384682D01*
X170012120Y-59420181D01*
X169992577Y-59486737D01*
X169977679Y-59519358D01*
X169940177Y-59577713D01*
X169916694Y-59604815D01*
X169864270Y-59650241D01*
X169834100Y-59669630D01*
X169802550Y-59684039D01*
X169771002Y-59698446D01*
X169736591Y-59708550D01*
X169680984Y-59716545D01*
X169663053Y-59717827D01*
X169659793Y-59717827D01*
X169650000Y-59716276D01*
X169629967Y-59719449D01*
X169610256Y-59721000D01*
X168055000Y-59721000D01*
X167986879Y-59700998D01*
X167940386Y-59647342D01*
X167929000Y-59595000D01*
X167929000Y-58859881D01*
X167949002Y-58791760D01*
X167981763Y-58757352D01*
X169621876Y-57585843D01*
X169891679Y-57393127D01*
X169891682Y-57393124D01*
X169895912Y-57390103D01*
X169962573Y-57323470D01*
X170018107Y-57210174D01*
X170029891Y-57117050D01*
X170032640Y-57095330D01*
X170032640Y-57095327D01*
X170033947Y-57084998D01*
X170031838Y-57074801D01*
X170010497Y-56971632D01*
X170010496Y-56971629D01*
X170008388Y-56961439D01*
X169944184Y-56852821D01*
X169848256Y-56770856D01*
X169730953Y-56724383D01*
X169720552Y-56723890D01*
X169720551Y-56723890D01*
X169636461Y-56719906D01*
X169604920Y-56718412D01*
X169594918Y-56721316D01*
X169594915Y-56721316D01*
X169491359Y-56751379D01*
X169491358Y-56751380D01*
X169483747Y-56753589D01*
X169478949Y-56756425D01*
X168429572Y-57505980D01*
X167339823Y-58284372D01*
X167334945Y-58287687D01*
X167291401Y-58315803D01*
X167286651Y-58321828D01*
X167281028Y-58326369D01*
X166992798Y-58532247D01*
X166328165Y-59006985D01*
X166261107Y-59030303D01*
X166192087Y-59013665D01*
X166143020Y-58962354D01*
X166129482Y-58892660D01*
X166138520Y-58856237D01*
X166165227Y-58791760D01*
X166188711Y-58735065D01*
X166209126Y-58580000D01*
X166188711Y-58424935D01*
X166128858Y-58280437D01*
X166033646Y-58156354D01*
X165909563Y-58061142D01*
X165765065Y-58001289D01*
X165610000Y-57980874D01*
X165454935Y-58001289D01*
X165310437Y-58061142D01*
X165186354Y-58156354D01*
X165091142Y-58280437D01*
X165031289Y-58424935D01*
X165010874Y-58580000D01*
X164356694Y-58580000D01*
X165795788Y-57140906D01*
X165858100Y-57106880D01*
X165884883Y-57104001D01*
X166446179Y-57104001D01*
X166470127Y-57106550D01*
X166471792Y-57106629D01*
X166481975Y-57108821D01*
X166492316Y-57107597D01*
X166515322Y-57104874D01*
X166521253Y-57104524D01*
X166521245Y-57104429D01*
X166526423Y-57104001D01*
X166531623Y-57104001D01*
X166536752Y-57103147D01*
X166536755Y-57103147D01*
X166550664Y-57100832D01*
X166556542Y-57099995D01*
X166597100Y-57095195D01*
X166597101Y-57095195D01*
X166607440Y-57093971D01*
X166615692Y-57090008D01*
X166624725Y-57088505D01*
X166633894Y-57083558D01*
X166633896Y-57083557D01*
X166669831Y-57064167D01*
X166675124Y-57061470D01*
X166714181Y-57042716D01*
X166714185Y-57042713D01*
X166721331Y-57039282D01*
X166725607Y-57035687D01*
X166727530Y-57033764D01*
X166729462Y-57031992D01*
X166729541Y-57031949D01*
X166729654Y-57032073D01*
X166730194Y-57031597D01*
X166735913Y-57028511D01*
X166772516Y-56988914D01*
X166775945Y-56985349D01*
X167247208Y-56514086D01*
X167265956Y-56498944D01*
X167267181Y-56497829D01*
X167275932Y-56492179D01*
X167282379Y-56484001D01*
X167282381Y-56483999D01*
X167296721Y-56465808D01*
X167300667Y-56461367D01*
X167300594Y-56461305D01*
X167303953Y-56457341D01*
X167307630Y-56453664D01*
X167318884Y-56437916D01*
X167322396Y-56433239D01*
X167337537Y-56414032D01*
X167395418Y-56372921D01*
X167466338Y-56369629D01*
X167521283Y-56398847D01*
X167581527Y-56453664D01*
X167618076Y-56486921D01*
X167757293Y-56562510D01*
X167910522Y-56602709D01*
X167994477Y-56604028D01*
X168061319Y-56605078D01*
X168061322Y-56605078D01*
X168068916Y-56605197D01*
X168223332Y-56569831D01*
X168299054Y-56531747D01*
X168358072Y-56502065D01*
X168358075Y-56502063D01*
X168364855Y-56498653D01*
X168370626Y-56493724D01*
X168370629Y-56493722D01*
X168479536Y-56400706D01*
X168479536Y-56400705D01*
X168485314Y-56395771D01*
X168577755Y-56267126D01*
X168636842Y-56120143D01*
X168659162Y-55963309D01*
X168659307Y-55949502D01*
X168640276Y-55792235D01*
X168584280Y-55644048D01*
X168558152Y-55606031D01*
X168498855Y-55519753D01*
X168498854Y-55519751D01*
X168494553Y-55513494D01*
X168421681Y-55448567D01*
X168384126Y-55388318D01*
X168379500Y-55354491D01*
X168379500Y-55105500D01*
X168399502Y-55037379D01*
X168453158Y-54990886D01*
X168505500Y-54979500D01*
X171044500Y-54979500D01*
X171112621Y-54999502D01*
G37*
%TD.AperFunction*%
%TD*%
M02*
