%TF.GenerationSoftware,KiCad,Pcbnew,(6.0.2-0)*%
%TF.CreationDate,2022-04-04T13:20:23+01:00*%
%TF.ProjectId,Generic0,47656e65-7269-4633-902e-6b696361645f,1*%
%TF.SameCoordinates,Original*%
%TF.FileFunction,Copper,L2,Bot*%
%TF.FilePolarity,Positive*%
%FSLAX46Y46*%
G04 Gerber Fmt 4.6, Leading zero omitted, Abs format (unit mm)*
G04 Created by KiCad (PCBNEW (6.0.2-0)) date 2022-04-04 13:20:23*
%MOMM*%
%LPD*%
G01*
G04 APERTURE LIST*
G04 Aperture macros list*
%AMRoundRect*
0 Rectangle with rounded corners*
0 $1 Rounding radius*
0 $2 $3 $4 $5 $6 $7 $8 $9 X,Y pos of 4 corners*
0 Add a 4 corners polygon primitive as box body*
4,1,4,$2,$3,$4,$5,$6,$7,$8,$9,$2,$3,0*
0 Add four circle primitives for the rounded corners*
1,1,$1+$1,$2,$3*
1,1,$1+$1,$4,$5*
1,1,$1+$1,$6,$7*
1,1,$1+$1,$8,$9*
0 Add four rect primitives between the rounded corners*
20,1,$1+$1,$2,$3,$4,$5,0*
20,1,$1+$1,$4,$5,$6,$7,0*
20,1,$1+$1,$6,$7,$8,$9,0*
20,1,$1+$1,$8,$9,$2,$3,0*%
G04 Aperture macros list end*
%TA.AperFunction,SMDPad,CuDef*%
%ADD10RoundRect,0.200000X0.200000X0.275000X-0.200000X0.275000X-0.200000X-0.275000X0.200000X-0.275000X0*%
%TD*%
%TA.AperFunction,ComponentPad*%
%ADD11R,1.700000X1.700000*%
%TD*%
%TA.AperFunction,ComponentPad*%
%ADD12O,1.700000X1.700000*%
%TD*%
%TA.AperFunction,SMDPad,CuDef*%
%ADD13RoundRect,0.200000X-0.275000X0.200000X-0.275000X-0.200000X0.275000X-0.200000X0.275000X0.200000X0*%
%TD*%
%TA.AperFunction,SMDPad,CuDef*%
%ADD14R,0.850000X0.500000*%
%TD*%
%TA.AperFunction,ViaPad*%
%ADD15C,0.800000*%
%TD*%
%TA.AperFunction,Conductor*%
%ADD16C,0.250000*%
%TD*%
G04 APERTURE END LIST*
%TO.C,R4*%
G36*
X98300000Y-46750000D02*
G01*
X97300000Y-46750000D01*
X97300000Y-46350000D01*
X98300000Y-46350000D01*
X98300000Y-46750000D01*
G37*
%TD*%
D10*
%TO.P,R4,1*%
%TO.N,+3V3*%
X98625000Y-46550000D03*
%TO.P,R4,2*%
%TO.N,EN*%
X96975000Y-46550000D03*
%TD*%
D11*
%TO.P,J1,1,GND*%
%TO.N,GND*%
X94920000Y-50900000D03*
D12*
%TO.P,J1,2,0*%
%TO.N,GPIO0*%
X97460000Y-50900000D03*
%TO.P,J1,3,3V3*%
%TO.N,+3V3*%
X100000000Y-50900000D03*
%TO.P,J1,4,Rx*%
%TO.N,RX*%
X102540000Y-50900000D03*
%TO.P,J1,5,Tx*%
%TO.N,TX*%
X105080000Y-50900000D03*
%TD*%
D13*
%TO.P,R2,1*%
%TO.N,Net-(D1-Pad3)*%
X102600000Y-40575000D03*
%TO.P,R2,2*%
%TO.N,G*%
X102600000Y-42225000D03*
%TD*%
D10*
%TO.P,C1,1*%
%TO.N,GND*%
X98575000Y-45050000D03*
%TO.P,C1,2*%
%TO.N,EN*%
X97025000Y-45050000D03*
%TD*%
D13*
%TO.P,R1,1*%
%TO.N,Net-(D1-Pad2)*%
X99400000Y-40575000D03*
%TO.P,R1,2*%
%TO.N,R*%
X99400000Y-42225000D03*
%TD*%
%TO.P,R3,1*%
%TO.N,Net-(D1-Pad4)*%
X101000000Y-40575000D03*
%TO.P,R3,2*%
%TO.N,B*%
X101000000Y-42225000D03*
%TD*%
D14*
%TO.P,D1,1,A*%
%TO.N,+3V3*%
X105875000Y-39500000D03*
%TO.P,D1,2,RK*%
%TO.N,Net-(D1-Pad2)*%
X104125000Y-39500000D03*
%TO.P,D1,3,GK*%
%TO.N,Net-(D1-Pad3)*%
X104125000Y-40500000D03*
%TO.P,D1,4,BK*%
%TO.N,Net-(D1-Pad4)*%
X105875000Y-40500000D03*
%TD*%
D10*
%TO.P,C2,1*%
%TO.N,+3V3*%
X98575000Y-48050000D03*
%TO.P,C2,2*%
%TO.N,GND*%
X97025000Y-48050000D03*
%TD*%
D15*
%TO.N,GPIO0*%
X102500000Y-48000000D03*
%TO.N,EN*%
X95900000Y-45800000D03*
%TO.N,GND*%
X94800000Y-40000000D03*
X95400000Y-47400000D03*
X95600000Y-43200000D03*
X106000000Y-49700000D03*
%TO.N,TX*%
X104200000Y-45000000D03*
%TO.N,RX*%
X104200000Y-46000000D03*
%TO.N,B*%
X103600000Y-43000000D03*
%TO.N,R*%
X97469964Y-41069964D03*
%TO.N,G*%
X104402456Y-42024020D03*
%TO.N,+3V3*%
X99620136Y-48121366D03*
X95600000Y-41800000D03*
%TD*%
D16*
%TO.N,GPIO0*%
X102500000Y-48000000D02*
X102500000Y-46100000D01*
X100650480Y-44250480D02*
G75*
G02*
X102500000Y-46100000I0J-1849520D01*
G01*
X96100000Y-48900000D02*
G75*
G02*
X97460000Y-50260000I-1J-1360001D01*
G01*
X96349520Y-44250480D02*
G75*
G03*
X94600000Y-46000000I2J-1749522D01*
G01*
X94600000Y-47400000D02*
G75*
G03*
X96100000Y-48900000I1500001J1D01*
G01*
X94600000Y-47400000D02*
X94600000Y-46000000D01*
X97460000Y-50900000D02*
X97460000Y-50260000D01*
X96349520Y-44250480D02*
X100650480Y-44250480D01*
%TO.N,TX*%
X105080000Y-50900000D02*
X105080000Y-46520000D01*
X104556741Y-45256741D02*
X104300000Y-45000000D01*
X104556741Y-45256741D02*
G75*
G02*
X105080000Y-46520000I-1263263J-1263261D01*
G01*
%TO.N,RX*%
X104600000Y-46400000D02*
G75*
G03*
X104200000Y-46000000I-399999J1D01*
G01*
X103770000Y-49670000D02*
G75*
G03*
X104600000Y-47666203I-2003798J2003797D01*
G01*
X104600000Y-46400000D02*
X104600000Y-47666203D01*
X103770000Y-49670000D02*
X102540000Y-50900000D01*
%TO.N,GND*%
X97025000Y-48050000D02*
X97050000Y-48050000D01*
X97050000Y-48050000D02*
X98300000Y-49300000D01*
%TO.N,EN*%
X96975000Y-46550000D02*
X96650000Y-46550000D01*
X95900000Y-45800000D02*
G75*
G03*
X96650000Y-46550000I750000J0D01*
G01*
%TO.N,Net-(D1-Pad2)*%
X99400000Y-40575000D02*
G75*
G02*
X100475000Y-39500000I1074999J1D01*
G01*
X104125000Y-39500000D02*
X100475000Y-39500000D01*
%TO.N,+3V3*%
X100000000Y-48501230D02*
G75*
G03*
X99620136Y-48121366I-379865J-1D01*
G01*
X100000000Y-48501230D02*
X100000000Y-50900000D01*
%TO.N,TX*%
X104200000Y-45000000D02*
X104300000Y-45000000D01*
%TO.N,R*%
X99400000Y-42225000D02*
X98625000Y-42225000D01*
X97469964Y-41069964D02*
G75*
G03*
X98625000Y-42225000I1155035J-1D01*
G01*
%TO.N,B*%
X101775000Y-43000000D02*
G75*
G02*
X101000000Y-42225000I-1J774999D01*
G01*
X101775000Y-43000000D02*
X103600000Y-43000000D01*
%TO.N,Net-(D1-Pad4)*%
X105075480Y-41299520D02*
G75*
G03*
X105875000Y-40500000I0J799520D01*
G01*
X101000000Y-40575000D02*
G75*
G03*
X101724520Y-41299520I724520J0D01*
G01*
X105075480Y-41299520D02*
X101724520Y-41299520D01*
%TO.N,G*%
X104201476Y-42225000D02*
X104402456Y-42024020D01*
X102600000Y-42225000D02*
X104201476Y-42225000D01*
%TO.N,+3V3*%
X97474511Y-38925489D02*
G75*
G03*
X95600000Y-40800000I2J-1874513D01*
G01*
X105875000Y-39500000D02*
G75*
G03*
X105300489Y-38925489I-574510J1D01*
G01*
X95600000Y-41800000D02*
X95600000Y-40800000D01*
X97474511Y-38925489D02*
X105300489Y-38925489D01*
%TO.N,Net-(D1-Pad3)*%
X102600000Y-40575000D02*
X104050000Y-40575000D01*
X104050000Y-40575000D02*
X104125000Y-40500000D01*
%TO.N,+3V3*%
X98646366Y-48121366D02*
X98575000Y-48050000D01*
X99620136Y-48121366D02*
X98646366Y-48121366D01*
X98625000Y-46550000D02*
X98625000Y-48000000D01*
X98625000Y-48000000D02*
X98575000Y-48050000D01*
%TO.N,EN*%
X97025000Y-45050000D02*
X97025000Y-46500000D01*
X97025000Y-46500000D02*
X96975000Y-46550000D01*
%TD*%
%TA.AperFunction,Conductor*%
%TO.N,GND*%
G36*
X98034348Y-48633244D02*
G01*
X98043498Y-48641539D01*
X98044398Y-48642439D01*
X98049990Y-48650010D01*
X98159924Y-48731209D01*
X98288873Y-48776493D01*
X98296515Y-48777215D01*
X98296518Y-48777216D01*
X98311421Y-48778624D01*
X98320685Y-48779500D01*
X98574828Y-48779500D01*
X98829314Y-48779499D01*
X98832262Y-48779220D01*
X98832271Y-48779220D01*
X98853478Y-48777216D01*
X98853480Y-48777216D01*
X98861127Y-48776493D01*
X98990076Y-48731209D01*
X99089063Y-48658096D01*
X99155740Y-48633713D01*
X99225016Y-48649249D01*
X99233839Y-48654806D01*
X99238212Y-48658785D01*
X99377429Y-48734374D01*
X99384771Y-48736300D01*
X99384773Y-48736301D01*
X99469662Y-48758571D01*
X99514916Y-48770443D01*
X99526473Y-48773475D01*
X99587289Y-48810109D01*
X99618644Y-48873806D01*
X99620500Y-48895351D01*
X99620500Y-49774839D01*
X99600498Y-49842960D01*
X99546842Y-49889453D01*
X99538118Y-49893049D01*
X99522463Y-49898824D01*
X99348010Y-50002612D01*
X99343670Y-50006418D01*
X99343666Y-50006421D01*
X99323723Y-50023911D01*
X99195392Y-50136455D01*
X99069720Y-50295869D01*
X99067031Y-50300980D01*
X99067029Y-50300983D01*
X99055507Y-50322883D01*
X98975203Y-50475515D01*
X98915007Y-50669378D01*
X98891148Y-50870964D01*
X98904424Y-51073522D01*
X98905845Y-51079118D01*
X98905846Y-51079123D01*
X98924863Y-51154000D01*
X98954392Y-51270269D01*
X98956809Y-51275512D01*
X98994010Y-51356208D01*
X99039377Y-51454616D01*
X99156533Y-51620389D01*
X99166141Y-51629748D01*
X99200977Y-51691609D01*
X99196838Y-51762485D01*
X99155039Y-51819872D01*
X99088849Y-51845551D01*
X99078217Y-51846000D01*
X98378575Y-51846000D01*
X98310454Y-51825998D01*
X98263961Y-51772342D01*
X98253857Y-51702068D01*
X98281701Y-51639431D01*
X98370449Y-51532724D01*
X98370456Y-51532714D01*
X98374147Y-51528276D01*
X98473334Y-51351165D01*
X98475190Y-51345698D01*
X98475192Y-51345693D01*
X98536728Y-51164414D01*
X98536729Y-51164409D01*
X98538584Y-51158945D01*
X98539412Y-51153236D01*
X98539413Y-51153231D01*
X98567179Y-50961727D01*
X98567712Y-50958053D01*
X98569232Y-50900000D01*
X98550658Y-50697859D01*
X98549090Y-50692299D01*
X98497125Y-50508046D01*
X98497124Y-50508044D01*
X98495557Y-50502487D01*
X98486995Y-50485123D01*
X98408331Y-50325609D01*
X98405776Y-50320428D01*
X98284320Y-50157779D01*
X98135258Y-50019987D01*
X98130375Y-50016906D01*
X98130371Y-50016903D01*
X97968464Y-49914748D01*
X97963581Y-49911667D01*
X97851475Y-49866941D01*
X97795617Y-49823122D01*
X97775046Y-49776697D01*
X97774642Y-49774839D01*
X97773301Y-49768674D01*
X97750356Y-49707155D01*
X97687917Y-49539752D01*
X97686346Y-49535540D01*
X97620392Y-49414753D01*
X97569257Y-49321107D01*
X97567098Y-49317153D01*
X97493886Y-49219353D01*
X97456950Y-49170012D01*
X97432139Y-49103492D01*
X97447231Y-49034117D01*
X97497433Y-48983915D01*
X97505971Y-48979664D01*
X97524992Y-48971077D01*
X97658574Y-48890176D01*
X97670443Y-48880869D01*
X97780869Y-48770443D01*
X97790179Y-48758571D01*
X97846627Y-48665363D01*
X97899024Y-48617456D01*
X97969004Y-48605483D01*
X98034348Y-48633244D01*
G37*
%TD.AperFunction*%
%TA.AperFunction,Conductor*%
G36*
X96006540Y-38874002D02*
G01*
X96053033Y-38927658D01*
X96063137Y-38997932D01*
X96033643Y-39062512D01*
X96016126Y-39079185D01*
X95977094Y-39109765D01*
X95784276Y-39302583D01*
X95781926Y-39305583D01*
X95781923Y-39305586D01*
X95673161Y-39444411D01*
X95616106Y-39517236D01*
X95475036Y-39750594D01*
X95425969Y-39859617D01*
X95367408Y-39989734D01*
X95363122Y-39999256D01*
X95361989Y-40002892D01*
X95307128Y-40178950D01*
X95281998Y-40259594D01*
X95232845Y-40527812D01*
X95232616Y-40531606D01*
X95232615Y-40531610D01*
X95217543Y-40780787D01*
X95216758Y-40793759D01*
X95215769Y-40800000D01*
X95217321Y-40809796D01*
X95218949Y-40820077D01*
X95220500Y-40839788D01*
X95220500Y-41205187D01*
X95200498Y-41273308D01*
X95177330Y-41300135D01*
X95110039Y-41358838D01*
X95018950Y-41488444D01*
X94993483Y-41553763D01*
X94965344Y-41625937D01*
X94961406Y-41636037D01*
X94960414Y-41643570D01*
X94960414Y-41643571D01*
X94950267Y-41720649D01*
X94940729Y-41793096D01*
X94946515Y-41845500D01*
X94953120Y-41905324D01*
X94958113Y-41950553D01*
X94960723Y-41957684D01*
X94960723Y-41957686D01*
X95005712Y-42080624D01*
X95012553Y-42099319D01*
X95100908Y-42230805D01*
X95106527Y-42235918D01*
X95106528Y-42235919D01*
X95117903Y-42246269D01*
X95218076Y-42337419D01*
X95357293Y-42413008D01*
X95510522Y-42453207D01*
X95594477Y-42454526D01*
X95661319Y-42455576D01*
X95661322Y-42455576D01*
X95668916Y-42455695D01*
X95823332Y-42420329D01*
X95893742Y-42384917D01*
X95958072Y-42352563D01*
X95958075Y-42352561D01*
X95964855Y-42349151D01*
X95970626Y-42344222D01*
X95970629Y-42344220D01*
X96079536Y-42251204D01*
X96079536Y-42251203D01*
X96085314Y-42246269D01*
X96177755Y-42117624D01*
X96236842Y-41970641D01*
X96250554Y-41874293D01*
X96258581Y-41817891D01*
X96258581Y-41817888D01*
X96259162Y-41813807D01*
X96259307Y-41800000D01*
X96240276Y-41642733D01*
X96184280Y-41494546D01*
X96175814Y-41482228D01*
X96098855Y-41370251D01*
X96098854Y-41370249D01*
X96094553Y-41363992D01*
X96021681Y-41299065D01*
X95984126Y-41238816D01*
X95979500Y-41204989D01*
X95979500Y-40839788D01*
X95981051Y-40820077D01*
X95982680Y-40809792D01*
X95984231Y-40800000D01*
X95982680Y-40790207D01*
X95982680Y-40780787D01*
X95982003Y-40765002D01*
X95994075Y-40596220D01*
X95996633Y-40578429D01*
X96007479Y-40528575D01*
X96038143Y-40387615D01*
X96043206Y-40370369D01*
X96111454Y-40187391D01*
X96118922Y-40171039D01*
X96212510Y-39999645D01*
X96222230Y-39984521D01*
X96339260Y-39828188D01*
X96351033Y-39814602D01*
X96489113Y-39676522D01*
X96502699Y-39664749D01*
X96659032Y-39547719D01*
X96674156Y-39537999D01*
X96845550Y-39444411D01*
X96861902Y-39436943D01*
X97018198Y-39378647D01*
X97044883Y-39368694D01*
X97062126Y-39363632D01*
X97252944Y-39322121D01*
X97270731Y-39319564D01*
X97439516Y-39307492D01*
X97455298Y-39308169D01*
X97464718Y-39308169D01*
X97474511Y-39309720D01*
X97494589Y-39306540D01*
X97514299Y-39304989D01*
X99380858Y-39304989D01*
X99448979Y-39324991D01*
X99495472Y-39378647D01*
X99505576Y-39448921D01*
X99476082Y-39513501D01*
X99462692Y-39526797D01*
X99443332Y-39543332D01*
X99440119Y-39547094D01*
X99297860Y-39713657D01*
X99297856Y-39713662D01*
X99294645Y-39717422D01*
X99207508Y-39859619D01*
X99207069Y-39860335D01*
X99154422Y-39907967D01*
X99099636Y-39920501D01*
X99070686Y-39920501D01*
X99067738Y-39920780D01*
X99067729Y-39920780D01*
X99046522Y-39922784D01*
X99046520Y-39922784D01*
X99038873Y-39923507D01*
X98909924Y-39968791D01*
X98799990Y-40049990D01*
X98718791Y-40159924D01*
X98673507Y-40288873D01*
X98670500Y-40320685D01*
X98670501Y-40829314D01*
X98670780Y-40832262D01*
X98670780Y-40832271D01*
X98672784Y-40853478D01*
X98673507Y-40861127D01*
X98718791Y-40990076D01*
X98799990Y-41100010D01*
X98909924Y-41181209D01*
X99038873Y-41226493D01*
X99046515Y-41227215D01*
X99046518Y-41227216D01*
X99061421Y-41228624D01*
X99070685Y-41229500D01*
X99399777Y-41229500D01*
X99729314Y-41229499D01*
X99732262Y-41229220D01*
X99732271Y-41229220D01*
X99753478Y-41227216D01*
X99753480Y-41227216D01*
X99761127Y-41226493D01*
X99890076Y-41181209D01*
X100000010Y-41100010D01*
X100081209Y-40990076D01*
X100084330Y-40981188D01*
X100088645Y-40973039D01*
X100138198Y-40922195D01*
X100207372Y-40906213D01*
X100274206Y-40930166D01*
X100311355Y-40973039D01*
X100315670Y-40981188D01*
X100318791Y-40990076D01*
X100399990Y-41100010D01*
X100509924Y-41181209D01*
X100638873Y-41226493D01*
X100646515Y-41227215D01*
X100646518Y-41227216D01*
X100661421Y-41228624D01*
X100670685Y-41229500D01*
X100769455Y-41229500D01*
X100837576Y-41249502D01*
X100868344Y-41279075D01*
X100868867Y-41278637D01*
X100872402Y-41282850D01*
X100875561Y-41287361D01*
X100943606Y-41355406D01*
X100977632Y-41417718D01*
X100972567Y-41488533D01*
X100930020Y-41545369D01*
X100863500Y-41570180D01*
X100854520Y-41570501D01*
X100670686Y-41570501D01*
X100667738Y-41570780D01*
X100667729Y-41570780D01*
X100646522Y-41572784D01*
X100646520Y-41572784D01*
X100638873Y-41573507D01*
X100509924Y-41618791D01*
X100399990Y-41699990D01*
X100318791Y-41809924D01*
X100315670Y-41818812D01*
X100311355Y-41826961D01*
X100261802Y-41877805D01*
X100192628Y-41893787D01*
X100125794Y-41869834D01*
X100088645Y-41826961D01*
X100084330Y-41818812D01*
X100081209Y-41809924D01*
X100000010Y-41699990D01*
X99890076Y-41618791D01*
X99761127Y-41573507D01*
X99753485Y-41572785D01*
X99753482Y-41572784D01*
X99738579Y-41571376D01*
X99729315Y-41570500D01*
X99400223Y-41570500D01*
X99070686Y-41570501D01*
X99067738Y-41570780D01*
X99067729Y-41570780D01*
X99046522Y-41572784D01*
X99046520Y-41572784D01*
X99038873Y-41573507D01*
X98909924Y-41618791D01*
X98799990Y-41699990D01*
X98794398Y-41707561D01*
X98794395Y-41707564D01*
X98732636Y-41791179D01*
X98676075Y-41834090D01*
X98632909Y-41842022D01*
X98625000Y-41840769D01*
X98615207Y-41842320D01*
X98605289Y-41842320D01*
X98605289Y-41841665D01*
X98590490Y-41842101D01*
X98486052Y-41831815D01*
X98461828Y-41826996D01*
X98340087Y-41790066D01*
X98317267Y-41780614D01*
X98205080Y-41720649D01*
X98184542Y-41706926D01*
X98086206Y-41626223D01*
X98068741Y-41608758D01*
X98034217Y-41566691D01*
X98006463Y-41501344D01*
X98018444Y-41431366D01*
X98029293Y-41413232D01*
X98043286Y-41393759D01*
X98043290Y-41393751D01*
X98047719Y-41387588D01*
X98054689Y-41370251D01*
X98069858Y-41332515D01*
X98106806Y-41240605D01*
X98126815Y-41100010D01*
X98128545Y-41087855D01*
X98128545Y-41087852D01*
X98129126Y-41083771D01*
X98129271Y-41069964D01*
X98110240Y-40912697D01*
X98054244Y-40764510D01*
X97964517Y-40633956D01*
X97846239Y-40528575D01*
X97838853Y-40524664D01*
X97712952Y-40458003D01*
X97712953Y-40458003D01*
X97706238Y-40454448D01*
X97552597Y-40415856D01*
X97544998Y-40415816D01*
X97544997Y-40415816D01*
X97479145Y-40415471D01*
X97394185Y-40415026D01*
X97386805Y-40416798D01*
X97386803Y-40416798D01*
X97247527Y-40450235D01*
X97247524Y-40450236D01*
X97240148Y-40452007D01*
X97099378Y-40524664D01*
X96980003Y-40628802D01*
X96888914Y-40758408D01*
X96878087Y-40786179D01*
X96839550Y-40885021D01*
X96831370Y-40906001D01*
X96830378Y-40913534D01*
X96830378Y-40913535D01*
X96816753Y-41017033D01*
X96810693Y-41063060D01*
X96815390Y-41105602D01*
X96826363Y-41204989D01*
X96828077Y-41220517D01*
X96830687Y-41227648D01*
X96830687Y-41227650D01*
X96878695Y-41358838D01*
X96882517Y-41369283D01*
X96886753Y-41375586D01*
X96886753Y-41375587D01*
X96912050Y-41413232D01*
X96970872Y-41500769D01*
X96976491Y-41505882D01*
X96976492Y-41505883D01*
X97082424Y-41602273D01*
X97088040Y-41607383D01*
X97109051Y-41618791D01*
X97172639Y-41653317D01*
X97222961Y-41703400D01*
X97224898Y-41707258D01*
X97225571Y-41709062D01*
X97330768Y-41901716D01*
X97462312Y-42077439D01*
X97617525Y-42232652D01*
X97793248Y-42364196D01*
X97797202Y-42366355D01*
X97956260Y-42453207D01*
X97985902Y-42469393D01*
X97990114Y-42470964D01*
X98187349Y-42544529D01*
X98187352Y-42544530D01*
X98191567Y-42546102D01*
X98195958Y-42547057D01*
X98195964Y-42547059D01*
X98316001Y-42573171D01*
X98406055Y-42592761D01*
X98410543Y-42593082D01*
X98554777Y-42603398D01*
X98558662Y-42603952D01*
X98558851Y-42604018D01*
X98564416Y-42604500D01*
X98567128Y-42604500D01*
X98569857Y-42604618D01*
X98569856Y-42604649D01*
X98574680Y-42604821D01*
X98583764Y-42605471D01*
X98610276Y-42607367D01*
X98612999Y-42607679D01*
X98614645Y-42607679D01*
X98615664Y-42607752D01*
X98625000Y-42609231D01*
X98632517Y-42608040D01*
X98699409Y-42627685D01*
X98732635Y-42658820D01*
X98788840Y-42734914D01*
X98799990Y-42750010D01*
X98909924Y-42831209D01*
X99038873Y-42876493D01*
X99046515Y-42877215D01*
X99046518Y-42877216D01*
X99061421Y-42878624D01*
X99070685Y-42879500D01*
X99399777Y-42879500D01*
X99729314Y-42879499D01*
X99732262Y-42879220D01*
X99732271Y-42879220D01*
X99753478Y-42877216D01*
X99753480Y-42877216D01*
X99761127Y-42876493D01*
X99890076Y-42831209D01*
X100000010Y-42750010D01*
X100081209Y-42640076D01*
X100084330Y-42631188D01*
X100088645Y-42623039D01*
X100138198Y-42572195D01*
X100207372Y-42556213D01*
X100274206Y-42580166D01*
X100311355Y-42623039D01*
X100315670Y-42631188D01*
X100318791Y-42640076D01*
X100399990Y-42750010D01*
X100509924Y-42831209D01*
X100638873Y-42876493D01*
X100646515Y-42877215D01*
X100646518Y-42877216D01*
X100661421Y-42878624D01*
X100670685Y-42879500D01*
X100758310Y-42879500D01*
X100826431Y-42899502D01*
X100861522Y-42933228D01*
X100887223Y-42969933D01*
X101030067Y-43112777D01*
X101034575Y-43115934D01*
X101034578Y-43115936D01*
X101101957Y-43163115D01*
X101195545Y-43228646D01*
X101200527Y-43230969D01*
X101200532Y-43230972D01*
X101373648Y-43311697D01*
X101378630Y-43314020D01*
X101383938Y-43315442D01*
X101383940Y-43315443D01*
X101568443Y-43364880D01*
X101568445Y-43364880D01*
X101573758Y-43366304D01*
X101579234Y-43366783D01*
X101579239Y-43366784D01*
X101689437Y-43376425D01*
X101701960Y-43377520D01*
X101706560Y-43378214D01*
X101708851Y-43379018D01*
X101714416Y-43379500D01*
X101719086Y-43379500D01*
X101730069Y-43379980D01*
X101760927Y-43382680D01*
X101760940Y-43382680D01*
X101770473Y-43383514D01*
X101775000Y-43384231D01*
X101795078Y-43381051D01*
X101814788Y-43379500D01*
X103000141Y-43379500D01*
X103068262Y-43399502D01*
X103095522Y-43423169D01*
X103096672Y-43424501D01*
X103100908Y-43430805D01*
X103218076Y-43537419D01*
X103357293Y-43613008D01*
X103510522Y-43653207D01*
X103594477Y-43654526D01*
X103661319Y-43655576D01*
X103661322Y-43655576D01*
X103668916Y-43655695D01*
X103823332Y-43620329D01*
X103893742Y-43584917D01*
X103958072Y-43552563D01*
X103958075Y-43552561D01*
X103964855Y-43549151D01*
X103970626Y-43544222D01*
X103970629Y-43544220D01*
X104079536Y-43451204D01*
X104079536Y-43451203D01*
X104085314Y-43446269D01*
X104177755Y-43317624D01*
X104236842Y-43170641D01*
X104259162Y-43013807D01*
X104259307Y-43000000D01*
X104240276Y-42842733D01*
X104237590Y-42835624D01*
X104237198Y-42834029D01*
X104240374Y-42763103D01*
X104281391Y-42705154D01*
X104347226Y-42678579D01*
X104361540Y-42677990D01*
X104463774Y-42679596D01*
X104463777Y-42679596D01*
X104471372Y-42679715D01*
X104625788Y-42644349D01*
X104699319Y-42607367D01*
X104760528Y-42576583D01*
X104760531Y-42576581D01*
X104767311Y-42573171D01*
X104773082Y-42568242D01*
X104773085Y-42568240D01*
X104881992Y-42475224D01*
X104881992Y-42475223D01*
X104887770Y-42470289D01*
X104980211Y-42341644D01*
X105039298Y-42194661D01*
X105061618Y-42037827D01*
X105061763Y-42024020D01*
X105042732Y-41866753D01*
X105040047Y-41859647D01*
X105035445Y-41847467D01*
X105030077Y-41776673D01*
X105063835Y-41714216D01*
X105126002Y-41679925D01*
X105143422Y-41677318D01*
X105260490Y-41668105D01*
X105265297Y-41666951D01*
X105265303Y-41666950D01*
X105395754Y-41635631D01*
X105440944Y-41624782D01*
X105456470Y-41618351D01*
X105607825Y-41555658D01*
X105607829Y-41555656D01*
X105612399Y-41553763D01*
X105770634Y-41456797D01*
X105911751Y-41336271D01*
X106032277Y-41195154D01*
X106108993Y-41069964D01*
X106112241Y-41064664D01*
X106164889Y-41017033D01*
X106219674Y-41004499D01*
X106220000Y-41004499D01*
X106288121Y-41024501D01*
X106334614Y-41078157D01*
X106346000Y-41130499D01*
X106346000Y-50429395D01*
X106325998Y-50497516D01*
X106272342Y-50544009D01*
X106202068Y-50554113D01*
X106137488Y-50524619D01*
X106106994Y-50485123D01*
X106028331Y-50325609D01*
X106025776Y-50320428D01*
X105904320Y-50157779D01*
X105755258Y-50019987D01*
X105750375Y-50016906D01*
X105750371Y-50016903D01*
X105588464Y-49914748D01*
X105583581Y-49911667D01*
X105538810Y-49893805D01*
X105482951Y-49849985D01*
X105459500Y-49776775D01*
X105459500Y-46559788D01*
X105461051Y-46540077D01*
X105462680Y-46529792D01*
X105464231Y-46520000D01*
X105462680Y-46510207D01*
X105462680Y-46508677D01*
X105461832Y-46500751D01*
X105449470Y-46280630D01*
X105449272Y-46277101D01*
X105408520Y-46037256D01*
X105341171Y-45803482D01*
X105323277Y-45760283D01*
X105249425Y-45581987D01*
X105249423Y-45581982D01*
X105248071Y-45578719D01*
X105242883Y-45569331D01*
X105132098Y-45368882D01*
X105130391Y-45365793D01*
X105008444Y-45193925D01*
X104991646Y-45170250D01*
X104991646Y-45170249D01*
X104989611Y-45167382D01*
X104888706Y-45054469D01*
X104857570Y-44985646D01*
X104843423Y-44868742D01*
X104840276Y-44842733D01*
X104784280Y-44694546D01*
X104751505Y-44646858D01*
X104698855Y-44570251D01*
X104698854Y-44570249D01*
X104694553Y-44563992D01*
X104576275Y-44458611D01*
X104568889Y-44454700D01*
X104442988Y-44388039D01*
X104442989Y-44388039D01*
X104436274Y-44384484D01*
X104282633Y-44345892D01*
X104275034Y-44345852D01*
X104275033Y-44345852D01*
X104209181Y-44345507D01*
X104124221Y-44345062D01*
X104116841Y-44346834D01*
X104116839Y-44346834D01*
X103977563Y-44380271D01*
X103977560Y-44380272D01*
X103970184Y-44382043D01*
X103829414Y-44454700D01*
X103710039Y-44558838D01*
X103618950Y-44688444D01*
X103592619Y-44755980D01*
X103572577Y-44807386D01*
X103561406Y-44836037D01*
X103560414Y-44843570D01*
X103560414Y-44843571D01*
X103541975Y-44983635D01*
X103540729Y-44993096D01*
X103549421Y-45071824D01*
X103555951Y-45130967D01*
X103558113Y-45150553D01*
X103560723Y-45157684D01*
X103560723Y-45157686D01*
X103598889Y-45261979D01*
X103612553Y-45299319D01*
X103616789Y-45305622D01*
X103616789Y-45305623D01*
X103700908Y-45430805D01*
X103698109Y-45432686D01*
X103721235Y-45483528D01*
X103711026Y-45553787D01*
X103699580Y-45573720D01*
X103618950Y-45688444D01*
X103602277Y-45731209D01*
X103565076Y-45826625D01*
X103561406Y-45836037D01*
X103560414Y-45843570D01*
X103560414Y-45843571D01*
X103542415Y-45980290D01*
X103540729Y-45993096D01*
X103545686Y-46037995D01*
X103553153Y-46105623D01*
X103558113Y-46150553D01*
X103560723Y-46157684D01*
X103560723Y-46157686D01*
X103603148Y-46273617D01*
X103612553Y-46299319D01*
X103700908Y-46430805D01*
X103706527Y-46435918D01*
X103706528Y-46435919D01*
X103803648Y-46524291D01*
X103818076Y-46537419D01*
X103957293Y-46613008D01*
X104033907Y-46633107D01*
X104103180Y-46651281D01*
X104103181Y-46651281D01*
X104110522Y-46653207D01*
X104113424Y-46653253D01*
X104176375Y-46681495D01*
X104215157Y-46740964D01*
X104220500Y-46777268D01*
X104220500Y-47626415D01*
X104218949Y-47646125D01*
X104215769Y-47666203D01*
X104217321Y-47676000D01*
X104217321Y-47678258D01*
X104218506Y-47701713D01*
X104209075Y-47869658D01*
X104205465Y-47933932D01*
X104203883Y-47947973D01*
X104160151Y-48205360D01*
X104157007Y-48219135D01*
X104147954Y-48250558D01*
X104084729Y-48470016D01*
X104080068Y-48483337D01*
X104024738Y-48616916D01*
X103980154Y-48724550D01*
X103974023Y-48737280D01*
X103847743Y-48965767D01*
X103840226Y-48977731D01*
X103689144Y-49190662D01*
X103680340Y-49201703D01*
X103577167Y-49317153D01*
X103525351Y-49375135D01*
X103507924Y-49390885D01*
X103506327Y-49392482D01*
X103498308Y-49398308D01*
X103492481Y-49406328D01*
X103486360Y-49414753D01*
X103473519Y-49429787D01*
X103065144Y-49838162D01*
X103002832Y-49872188D01*
X102929360Y-49866097D01*
X102855039Y-49836446D01*
X102849379Y-49835320D01*
X102849375Y-49835319D01*
X102661613Y-49797971D01*
X102661610Y-49797971D01*
X102655946Y-49796844D01*
X102650171Y-49796768D01*
X102650167Y-49796768D01*
X102548793Y-49795441D01*
X102452971Y-49794187D01*
X102447274Y-49795166D01*
X102447273Y-49795166D01*
X102349620Y-49811946D01*
X102252910Y-49828564D01*
X102062463Y-49898824D01*
X101888010Y-50002612D01*
X101883670Y-50006418D01*
X101883666Y-50006421D01*
X101863723Y-50023911D01*
X101735392Y-50136455D01*
X101609720Y-50295869D01*
X101607031Y-50300980D01*
X101607029Y-50300983D01*
X101595507Y-50322883D01*
X101515203Y-50475515D01*
X101455007Y-50669378D01*
X101431148Y-50870964D01*
X101444424Y-51073522D01*
X101445845Y-51079118D01*
X101445846Y-51079123D01*
X101464863Y-51154000D01*
X101494392Y-51270269D01*
X101496809Y-51275512D01*
X101534010Y-51356208D01*
X101579377Y-51454616D01*
X101696533Y-51620389D01*
X101706141Y-51629748D01*
X101740977Y-51691609D01*
X101736838Y-51762485D01*
X101695039Y-51819872D01*
X101628849Y-51845551D01*
X101618217Y-51846000D01*
X100918575Y-51846000D01*
X100850454Y-51825998D01*
X100803961Y-51772342D01*
X100793857Y-51702068D01*
X100821701Y-51639431D01*
X100910449Y-51532724D01*
X100910456Y-51532714D01*
X100914147Y-51528276D01*
X101013334Y-51351165D01*
X101015190Y-51345698D01*
X101015192Y-51345693D01*
X101076728Y-51164414D01*
X101076729Y-51164409D01*
X101078584Y-51158945D01*
X101079412Y-51153236D01*
X101079413Y-51153231D01*
X101107179Y-50961727D01*
X101107712Y-50958053D01*
X101109232Y-50900000D01*
X101090658Y-50697859D01*
X101089090Y-50692299D01*
X101037125Y-50508046D01*
X101037124Y-50508044D01*
X101035557Y-50502487D01*
X101026995Y-50485123D01*
X100948331Y-50325609D01*
X100945776Y-50320428D01*
X100824320Y-50157779D01*
X100675258Y-50019987D01*
X100670375Y-50016906D01*
X100670371Y-50016903D01*
X100508464Y-49914748D01*
X100503581Y-49911667D01*
X100458810Y-49893805D01*
X100402951Y-49849985D01*
X100379500Y-49776775D01*
X100379500Y-48541017D01*
X100381051Y-48521306D01*
X100382680Y-48511021D01*
X100384231Y-48501229D01*
X100382680Y-48491436D01*
X100382680Y-48491431D01*
X100382016Y-48487238D01*
X100381072Y-48479882D01*
X100371166Y-48379314D01*
X100368512Y-48352368D01*
X100359846Y-48323798D01*
X100326888Y-48215152D01*
X100325091Y-48209228D01*
X100322176Y-48203774D01*
X100322172Y-48203765D01*
X100290957Y-48145366D01*
X100276992Y-48101108D01*
X100265928Y-48009682D01*
X100260412Y-47964099D01*
X100204416Y-47815912D01*
X100174639Y-47772586D01*
X100118991Y-47691617D01*
X100118990Y-47691615D01*
X100114689Y-47685358D01*
X99996411Y-47579977D01*
X99989025Y-47576066D01*
X99935870Y-47547922D01*
X99856410Y-47505850D01*
X99702769Y-47467258D01*
X99695170Y-47467218D01*
X99695169Y-47467218D01*
X99629317Y-47466873D01*
X99544357Y-47466428D01*
X99536977Y-47468200D01*
X99536975Y-47468200D01*
X99397699Y-47501637D01*
X99397696Y-47501638D01*
X99390320Y-47503409D01*
X99383575Y-47506890D01*
X99383576Y-47506890D01*
X99304078Y-47547922D01*
X99234371Y-47561391D01*
X99168447Y-47535036D01*
X99144937Y-47510815D01*
X99105609Y-47457569D01*
X99105605Y-47457565D01*
X99100010Y-47449990D01*
X99059159Y-47419817D01*
X99016248Y-47363256D01*
X99010728Y-47292475D01*
X99044352Y-47229945D01*
X99059158Y-47217115D01*
X99142439Y-47155602D01*
X99150010Y-47150010D01*
X99231209Y-47040076D01*
X99276493Y-46911127D01*
X99279500Y-46879315D01*
X99279499Y-46220686D01*
X99276493Y-46188873D01*
X99231209Y-46059924D01*
X99215012Y-46037995D01*
X99190631Y-45971316D01*
X99206169Y-45902041D01*
X99227270Y-45874042D01*
X99330869Y-45770443D01*
X99340176Y-45758574D01*
X99421079Y-45624988D01*
X99427285Y-45611243D01*
X99474256Y-45461356D01*
X99476869Y-45448306D01*
X99482734Y-45384479D01*
X99483000Y-45378691D01*
X99483000Y-45322115D01*
X99478525Y-45306876D01*
X99477135Y-45305671D01*
X99469452Y-45304000D01*
X98447000Y-45304000D01*
X98378879Y-45283998D01*
X98332386Y-45230342D01*
X98321000Y-45178000D01*
X98321000Y-44922000D01*
X98341002Y-44853879D01*
X98394658Y-44807386D01*
X98447000Y-44796000D01*
X99464884Y-44796000D01*
X99480123Y-44791525D01*
X99481328Y-44790135D01*
X99482999Y-44782452D01*
X99482999Y-44755980D01*
X99503001Y-44687859D01*
X99556657Y-44641366D01*
X99608999Y-44629980D01*
X100610692Y-44629980D01*
X100630402Y-44631531D01*
X100650480Y-44634711D01*
X100660273Y-44633160D01*
X100669693Y-44633160D01*
X100685475Y-44632483D01*
X100829021Y-44642750D01*
X100850695Y-44644300D01*
X100868489Y-44646858D01*
X100899569Y-44653619D01*
X101055827Y-44687611D01*
X101073074Y-44692675D01*
X101094939Y-44700830D01*
X101252707Y-44759675D01*
X101269059Y-44767143D01*
X101437325Y-44859022D01*
X101452449Y-44868742D01*
X101605927Y-44983635D01*
X101619513Y-44995408D01*
X101755072Y-45130967D01*
X101766845Y-45144553D01*
X101881738Y-45298031D01*
X101891458Y-45313155D01*
X101983337Y-45481421D01*
X101990805Y-45497773D01*
X102014743Y-45561953D01*
X102053314Y-45665363D01*
X102057805Y-45677405D01*
X102062869Y-45694653D01*
X102077146Y-45760283D01*
X102103622Y-45881991D01*
X102106180Y-45899785D01*
X102117634Y-46059924D01*
X102117997Y-46065002D01*
X102117320Y-46080787D01*
X102117320Y-46090207D01*
X102115769Y-46100000D01*
X102117320Y-46109792D01*
X102118949Y-46120077D01*
X102120500Y-46139788D01*
X102120500Y-47405187D01*
X102100498Y-47473308D01*
X102077330Y-47500135D01*
X102010039Y-47558838D01*
X101918950Y-47688444D01*
X101890178Y-47762241D01*
X101878098Y-47793225D01*
X101861406Y-47836037D01*
X101860414Y-47843570D01*
X101860414Y-47843571D01*
X101843554Y-47971639D01*
X101840729Y-47993096D01*
X101849421Y-48071825D01*
X101855236Y-48124492D01*
X101858113Y-48150553D01*
X101860723Y-48157684D01*
X101860723Y-48157686D01*
X101899876Y-48264676D01*
X101912553Y-48299319D01*
X101916789Y-48305622D01*
X101916789Y-48305623D01*
X101967836Y-48381588D01*
X102000908Y-48430805D01*
X102006527Y-48435918D01*
X102006528Y-48435919D01*
X102100368Y-48521306D01*
X102118076Y-48537419D01*
X102257293Y-48613008D01*
X102410522Y-48653207D01*
X102494477Y-48654526D01*
X102561319Y-48655576D01*
X102561322Y-48655576D01*
X102568916Y-48655695D01*
X102723332Y-48620329D01*
X102803419Y-48580050D01*
X102858072Y-48552563D01*
X102858075Y-48552561D01*
X102864855Y-48549151D01*
X102870626Y-48544222D01*
X102870629Y-48544220D01*
X102979536Y-48451204D01*
X102979536Y-48451203D01*
X102985314Y-48446269D01*
X103077755Y-48317624D01*
X103136842Y-48170641D01*
X103159162Y-48013807D01*
X103159307Y-48000000D01*
X103140276Y-47842733D01*
X103084280Y-47694546D01*
X103073086Y-47678258D01*
X102998855Y-47570251D01*
X102998854Y-47570249D01*
X102994553Y-47563992D01*
X102921681Y-47499065D01*
X102884126Y-47438816D01*
X102879500Y-47404989D01*
X102879500Y-46139788D01*
X102881051Y-46120077D01*
X102882680Y-46109794D01*
X102882680Y-46109792D01*
X102884231Y-46100000D01*
X102883168Y-46093289D01*
X102880692Y-46052350D01*
X102867522Y-45834627D01*
X102867521Y-45834622D01*
X102867292Y-45830830D01*
X102818684Y-45565586D01*
X102797553Y-45497773D01*
X102739593Y-45311772D01*
X102739591Y-45311767D01*
X102738459Y-45308134D01*
X102627787Y-45062229D01*
X102613618Y-45038791D01*
X102490254Y-44834723D01*
X102490252Y-44834720D01*
X102488280Y-44831458D01*
X102460501Y-44796000D01*
X102401495Y-44720685D01*
X102321975Y-44619185D01*
X102131295Y-44428505D01*
X101919022Y-44262200D01*
X101740954Y-44154553D01*
X101691510Y-44124663D01*
X101691508Y-44124662D01*
X101688251Y-44122693D01*
X101442346Y-44012021D01*
X101438713Y-44010889D01*
X101438708Y-44010887D01*
X101188527Y-43932928D01*
X101188526Y-43932928D01*
X101184894Y-43931796D01*
X100919650Y-43883188D01*
X100915858Y-43882959D01*
X100915853Y-43882958D01*
X100835828Y-43878118D01*
X100657191Y-43867312D01*
X100650480Y-43866249D01*
X100640687Y-43867800D01*
X100640686Y-43867800D01*
X100630403Y-43869429D01*
X100610692Y-43870980D01*
X96389308Y-43870980D01*
X96369597Y-43869429D01*
X96349520Y-43866249D01*
X96347764Y-43866527D01*
X96337537Y-43867197D01*
X96337536Y-43867197D01*
X96075143Y-43884395D01*
X96075136Y-43884396D01*
X96071031Y-43884665D01*
X96066998Y-43885467D01*
X96066992Y-43885468D01*
X95801357Y-43938307D01*
X95801351Y-43938309D01*
X95797307Y-43939113D01*
X95793398Y-43940440D01*
X95793394Y-43940441D01*
X95585866Y-44010887D01*
X95533031Y-44028822D01*
X95414717Y-44087168D01*
X95286430Y-44150432D01*
X95286425Y-44150435D01*
X95282726Y-44152259D01*
X95279293Y-44154553D01*
X95054105Y-44305018D01*
X95054100Y-44305022D01*
X95050674Y-44307311D01*
X95047580Y-44310025D01*
X95047574Y-44310029D01*
X94886579Y-44451219D01*
X94840846Y-44491326D01*
X94838137Y-44494415D01*
X94659549Y-44698054D01*
X94659545Y-44698060D01*
X94656831Y-44701154D01*
X94654542Y-44704580D01*
X94654538Y-44704585D01*
X94551347Y-44859022D01*
X94501779Y-44933206D01*
X94378342Y-45183511D01*
X94377017Y-45187416D01*
X94377016Y-45187417D01*
X94294398Y-45430805D01*
X94288633Y-45447787D01*
X94287829Y-45451831D01*
X94287827Y-45451837D01*
X94235762Y-45713585D01*
X94234185Y-45721511D01*
X94233916Y-45725616D01*
X94233915Y-45725623D01*
X94223090Y-45890794D01*
X94216047Y-45998244D01*
X94215769Y-46000000D01*
X94218949Y-46020077D01*
X94220500Y-46039788D01*
X94220500Y-47360212D01*
X94218949Y-47379922D01*
X94215769Y-47400000D01*
X94216960Y-47407518D01*
X94217321Y-47413026D01*
X94217321Y-47413133D01*
X94217338Y-47413286D01*
X94232109Y-47638644D01*
X94232581Y-47645851D01*
X94233385Y-47649891D01*
X94233385Y-47649894D01*
X94270412Y-47836037D01*
X94280647Y-47887494D01*
X94281973Y-47891400D01*
X94281974Y-47891404D01*
X94324911Y-48017891D01*
X94359843Y-48120797D01*
X94361664Y-48124490D01*
X94361665Y-48124492D01*
X94452396Y-48308475D01*
X94468813Y-48341766D01*
X94605693Y-48546622D01*
X94768141Y-48731859D01*
X94953378Y-48894307D01*
X95158234Y-49031187D01*
X95161933Y-49033011D01*
X95161938Y-49033014D01*
X95334192Y-49117960D01*
X95379203Y-49140157D01*
X95383101Y-49141480D01*
X95383103Y-49141481D01*
X95608596Y-49218026D01*
X95608600Y-49218027D01*
X95612506Y-49219353D01*
X95616550Y-49220157D01*
X95616556Y-49220159D01*
X95850106Y-49266615D01*
X95850109Y-49266615D01*
X95854149Y-49267419D01*
X95858260Y-49267688D01*
X95858264Y-49267689D01*
X95953453Y-49273928D01*
X96086727Y-49282663D01*
X96086879Y-49282680D01*
X96086986Y-49282680D01*
X96092479Y-49283040D01*
X96100000Y-49284231D01*
X96109792Y-49282680D01*
X96119712Y-49282680D01*
X96119712Y-49283054D01*
X96134660Y-49282532D01*
X96259274Y-49293435D01*
X96280903Y-49297248D01*
X96424706Y-49335780D01*
X96445342Y-49343291D01*
X96580259Y-49406203D01*
X96599277Y-49417183D01*
X96651240Y-49453568D01*
X96721227Y-49502574D01*
X96738051Y-49516692D01*
X96843308Y-49621949D01*
X96857426Y-49638773D01*
X96942814Y-49760719D01*
X96953787Y-49779722D01*
X96955326Y-49783021D01*
X96965999Y-49853210D01*
X96937029Y-49918028D01*
X96905563Y-49944574D01*
X96812978Y-49999656D01*
X96812977Y-49999657D01*
X96808010Y-50002612D01*
X96803670Y-50006418D01*
X96803666Y-50006421D01*
X96783723Y-50023911D01*
X96655392Y-50136455D01*
X96529720Y-50295869D01*
X96527031Y-50300980D01*
X96527029Y-50300983D01*
X96515507Y-50322883D01*
X96466087Y-50373856D01*
X96396955Y-50390018D01*
X96330059Y-50366239D01*
X96286638Y-50310068D01*
X96277999Y-50264215D01*
X96277999Y-50005331D01*
X96277629Y-49998510D01*
X96272105Y-49947648D01*
X96268479Y-49932396D01*
X96223324Y-49811946D01*
X96214786Y-49796351D01*
X96138285Y-49694276D01*
X96125724Y-49681715D01*
X96023649Y-49605214D01*
X96008054Y-49596676D01*
X95887606Y-49551522D01*
X95872351Y-49547895D01*
X95821486Y-49542369D01*
X95814672Y-49542000D01*
X95192115Y-49542000D01*
X95176876Y-49546475D01*
X95175671Y-49547865D01*
X95174000Y-49555548D01*
X95174000Y-51028000D01*
X95153998Y-51096121D01*
X95100342Y-51142614D01*
X95048000Y-51154000D01*
X94792000Y-51154000D01*
X94723879Y-51133998D01*
X94677386Y-51080342D01*
X94666000Y-51028000D01*
X94666000Y-49560116D01*
X94661525Y-49544877D01*
X94660135Y-49543672D01*
X94652452Y-49542001D01*
X94025331Y-49542001D01*
X94018510Y-49542371D01*
X93967648Y-49547895D01*
X93952397Y-49551521D01*
X93824230Y-49599569D01*
X93753423Y-49604752D01*
X93691054Y-49570831D01*
X93656924Y-49508576D01*
X93654000Y-49481587D01*
X93654000Y-38980000D01*
X93674002Y-38911879D01*
X93727658Y-38865386D01*
X93780000Y-38854000D01*
X95938419Y-38854000D01*
X96006540Y-38874002D01*
G37*
%TD.AperFunction*%
%TA.AperFunction,Conductor*%
G36*
X95208487Y-45748054D02*
G01*
X95242066Y-45810608D01*
X95243995Y-45822677D01*
X95244895Y-45830830D01*
X95254985Y-45922217D01*
X95258113Y-45950553D01*
X95260723Y-45957684D01*
X95260723Y-45957686D01*
X95307570Y-46085701D01*
X95312553Y-46099319D01*
X95316789Y-46105622D01*
X95316789Y-46105623D01*
X95319591Y-46109792D01*
X95400908Y-46230805D01*
X95518076Y-46337419D01*
X95524749Y-46341042D01*
X95650616Y-46409383D01*
X95650618Y-46409384D01*
X95657293Y-46413008D01*
X95664643Y-46414936D01*
X95664645Y-46414937D01*
X95665342Y-46415120D01*
X95665793Y-46415392D01*
X95671704Y-46417732D01*
X95671314Y-46418717D01*
X95726157Y-46451755D01*
X95736579Y-46464724D01*
X95775284Y-46520000D01*
X95781447Y-46528802D01*
X95921198Y-46668553D01*
X95925706Y-46671710D01*
X95925709Y-46671712D01*
X96076459Y-46777268D01*
X96083093Y-46781913D01*
X96088075Y-46784236D01*
X96088080Y-46784239D01*
X96257225Y-46863113D01*
X96257230Y-46863115D01*
X96262212Y-46865438D01*
X96261826Y-46866267D01*
X96315024Y-46905431D01*
X96333643Y-46939989D01*
X96368791Y-47040076D01*
X96374387Y-47047652D01*
X96384988Y-47062005D01*
X96409369Y-47128684D01*
X96393831Y-47197959D01*
X96372730Y-47225958D01*
X96269131Y-47329557D01*
X96259824Y-47341426D01*
X96178921Y-47475012D01*
X96172715Y-47488757D01*
X96125744Y-47638644D01*
X96123131Y-47651694D01*
X96117266Y-47715521D01*
X96117000Y-47721309D01*
X96117000Y-47777885D01*
X96121475Y-47793124D01*
X96122865Y-47794329D01*
X96130548Y-47796000D01*
X97153000Y-47796000D01*
X97221121Y-47816002D01*
X97267614Y-47869658D01*
X97279000Y-47922000D01*
X97279000Y-48178000D01*
X97258998Y-48246121D01*
X97205342Y-48292614D01*
X97153000Y-48304000D01*
X96135116Y-48304000D01*
X96119877Y-48308475D01*
X96118672Y-48309865D01*
X96117001Y-48317548D01*
X96117001Y-48378714D01*
X96117002Y-48378736D01*
X96117001Y-48378740D01*
X96117001Y-48381588D01*
X96116304Y-48381588D01*
X96100135Y-48447700D01*
X96048660Y-48496597D01*
X95980152Y-48510015D01*
X95950791Y-48507446D01*
X95916414Y-48504438D01*
X95894786Y-48500625D01*
X95727414Y-48455778D01*
X95706778Y-48448267D01*
X95549737Y-48375038D01*
X95530717Y-48364056D01*
X95388787Y-48264676D01*
X95371962Y-48250558D01*
X95249442Y-48128038D01*
X95235324Y-48111213D01*
X95228249Y-48101108D01*
X95135944Y-47969283D01*
X95124962Y-47950263D01*
X95068396Y-47828957D01*
X95051733Y-47793222D01*
X95044222Y-47772586D01*
X94999376Y-47605220D01*
X94995563Y-47583591D01*
X94982532Y-47434652D01*
X94983054Y-47419711D01*
X94982679Y-47419711D01*
X94982679Y-47409795D01*
X94984231Y-47400000D01*
X94981051Y-47379922D01*
X94979500Y-47360212D01*
X94979500Y-46039788D01*
X94981051Y-46020077D01*
X94982680Y-46009794D01*
X94982680Y-46009790D01*
X94984231Y-46000000D01*
X94982679Y-45990205D01*
X94982679Y-45980290D01*
X94982834Y-45980290D01*
X94982240Y-45965180D01*
X94993145Y-45826625D01*
X95018431Y-45760283D01*
X95075569Y-45718144D01*
X95146419Y-45713585D01*
X95208487Y-45748054D01*
G37*
%TD.AperFunction*%
%TD*%
M02*
