%TF.GenerationSoftware,KiCad,Pcbnew,(6.0.2-0)*%
%TF.CreationDate,2022-02-23T18:51:26+00:00*%
%TF.ProjectId,Generic01,47656e65-7269-4633-9031-2e6b69636164,1*%
%TF.SameCoordinates,Original*%
%TF.FileFunction,Legend,Top*%
%TF.FilePolarity,Positive*%
%FSLAX46Y46*%
G04 Gerber Fmt 4.6, Leading zero omitted, Abs format (unit mm)*
G04 Created by KiCad (PCBNEW (6.0.2-0)) date 2022-02-23 18:51:26*
%MOMM*%
%LPD*%
G01*
G04 APERTURE LIST*
%ADD10C,0.100000*%
G04 APERTURE END LIST*
D10*
%TO.C,U1*%
X149242857Y-119339285D02*
X149207142Y-119375000D01*
X149135714Y-119410714D01*
X148957142Y-119410714D01*
X148885714Y-119375000D01*
X148850000Y-119339285D01*
X148814285Y-119267857D01*
X148814285Y-119196428D01*
X148850000Y-119089285D01*
X149278571Y-118660714D01*
X148814285Y-118660714D01*
X148350000Y-119410714D02*
X148278571Y-119410714D01*
X148207142Y-119375000D01*
X148171428Y-119339285D01*
X148135714Y-119267857D01*
X148100000Y-119125000D01*
X148100000Y-118946428D01*
X148135714Y-118803571D01*
X148171428Y-118732142D01*
X148207142Y-118696428D01*
X148278571Y-118660714D01*
X148350000Y-118660714D01*
X148421428Y-118696428D01*
X148457142Y-118732142D01*
X148492857Y-118803571D01*
X148528571Y-118946428D01*
X148528571Y-119125000D01*
X148492857Y-119267857D01*
X148457142Y-119339285D01*
X148421428Y-119375000D01*
X148350000Y-119410714D01*
X147814285Y-119339285D02*
X147778571Y-119375000D01*
X147707142Y-119410714D01*
X147528571Y-119410714D01*
X147457142Y-119375000D01*
X147421428Y-119339285D01*
X147385714Y-119267857D01*
X147385714Y-119196428D01*
X147421428Y-119089285D01*
X147850000Y-118660714D01*
X147385714Y-118660714D01*
X147100000Y-119339285D02*
X147064285Y-119375000D01*
X146992857Y-119410714D01*
X146814285Y-119410714D01*
X146742857Y-119375000D01*
X146707142Y-119339285D01*
X146671428Y-119267857D01*
X146671428Y-119196428D01*
X146707142Y-119089285D01*
X147135714Y-118660714D01*
X146671428Y-118660714D01*
X146350000Y-118946428D02*
X145778571Y-118946428D01*
X145278571Y-119410714D02*
X145207142Y-119410714D01*
X145135714Y-119375000D01*
X145100000Y-119339285D01*
X145064285Y-119267857D01*
X145028571Y-119125000D01*
X145028571Y-118946428D01*
X145064285Y-118803571D01*
X145100000Y-118732142D01*
X145135714Y-118696428D01*
X145207142Y-118660714D01*
X145278571Y-118660714D01*
X145350000Y-118696428D01*
X145385714Y-118732142D01*
X145421428Y-118803571D01*
X145457142Y-118946428D01*
X145457142Y-119125000D01*
X145421428Y-119267857D01*
X145385714Y-119339285D01*
X145350000Y-119375000D01*
X145278571Y-119410714D01*
X144742857Y-119339285D02*
X144707142Y-119375000D01*
X144635714Y-119410714D01*
X144457142Y-119410714D01*
X144385714Y-119375000D01*
X144350000Y-119339285D01*
X144314285Y-119267857D01*
X144314285Y-119196428D01*
X144350000Y-119089285D01*
X144778571Y-118660714D01*
X144314285Y-118660714D01*
X143992857Y-118946428D02*
X143421428Y-118946428D01*
X143100000Y-119339285D02*
X143064285Y-119375000D01*
X142992857Y-119410714D01*
X142814285Y-119410714D01*
X142742857Y-119375000D01*
X142707142Y-119339285D01*
X142671428Y-119267857D01*
X142671428Y-119196428D01*
X142707142Y-119089285D01*
X143135714Y-118660714D01*
X142671428Y-118660714D01*
X141957142Y-118660714D02*
X142385714Y-118660714D01*
X142171428Y-118660714D02*
X142171428Y-119410714D01*
X142242857Y-119303571D01*
X142314285Y-119232142D01*
X142385714Y-119196428D01*
%TD*%
M02*
