%TF.GenerationSoftware,KiCad,Pcbnew,(6.0.2-0)*%
%TF.CreationDate,2022-02-18T14:15:32+00:00*%
%TF.ProjectId,Generic,47656e65-7269-4632-9e6b-696361645f70,6*%
%TF.SameCoordinates,Original*%
%TF.FileFunction,Paste,Top*%
%TF.FilePolarity,Positive*%
%FSLAX46Y46*%
G04 Gerber Fmt 4.6, Leading zero omitted, Abs format (unit mm)*
G04 Created by KiCad (PCBNEW (6.0.2-0)) date 2022-02-18 14:15:32*
%MOMM*%
%LPD*%
G01*
G04 APERTURE LIST*
G04 Aperture macros list*
%AMRoundRect*
0 Rectangle with rounded corners*
0 $1 Rounding radius*
0 $2 $3 $4 $5 $6 $7 $8 $9 X,Y pos of 4 corners*
0 Add a 4 corners polygon primitive as box body*
4,1,4,$2,$3,$4,$5,$6,$7,$8,$9,$2,$3,0*
0 Add four circle primitives for the rounded corners*
1,1,$1+$1,$2,$3*
1,1,$1+$1,$4,$5*
1,1,$1+$1,$6,$7*
1,1,$1+$1,$8,$9*
0 Add four rect primitives between the rounded corners*
20,1,$1+$1,$2,$3,$4,$5,0*
20,1,$1+$1,$4,$5,$6,$7,0*
20,1,$1+$1,$6,$7,$8,$9,0*
20,1,$1+$1,$8,$9,$2,$3,0*%
G04 Aperture macros list end*
%ADD10R,0.798000X0.420000*%
%ADD11RoundRect,0.069000X0.478200X-0.075000X0.478200X0.075000X-0.478200X0.075000X-0.478200X-0.075000X0*%
%ADD12RoundRect,0.232500X0.232500X-0.232500X0.232500X0.232500X-0.232500X0.232500X-0.232500X-0.232500X0*%
%ADD13RoundRect,0.186000X0.189000X-0.189000X0.189000X0.189000X-0.189000X0.189000X-0.189000X-0.189000X0*%
%ADD14RoundRect,0.048500X0.071500X-0.287500X0.071500X0.287500X-0.071500X0.287500X-0.071500X-0.287500X0*%
%ADD15RoundRect,0.057500X0.278500X-0.062500X0.278500X0.062500X-0.278500X0.062500X-0.278500X-0.062500X0*%
%ADD16RoundRect,0.184000X-0.200000X-0.272000X0.200000X-0.272000X0.200000X0.272000X-0.200000X0.272000X0*%
%ADD17RoundRect,0.225000X0.375000X0.615000X-0.375000X0.615000X-0.375000X-0.615000X0.375000X-0.615000X0*%
%ADD18RoundRect,0.207000X-0.335169X-0.016971X-0.016971X-0.335169X0.335169X0.016971X0.016971X0.335169X0*%
%ADD19RoundRect,0.184000X-0.272000X0.200000X-0.272000X-0.200000X0.272000X-0.200000X0.272000X0.200000X0*%
%ADD20R,0.624000X0.384000*%
%ADD21RoundRect,0.184000X0.272000X-0.200000X0.272000X0.200000X-0.272000X0.200000X-0.272000X-0.200000X0*%
%ADD22R,0.816000X0.480000*%
%ADD23RoundRect,0.207000X-0.225000X-0.249000X0.225000X-0.249000X0.225000X0.249000X-0.225000X0.249000X0*%
%ADD24RoundRect,0.207000X-0.249000X0.225000X-0.249000X-0.225000X0.249000X-0.225000X0.249000X0.225000X0*%
%ADD25RoundRect,0.184000X0.200000X0.272000X-0.200000X0.272000X-0.200000X-0.272000X0.200000X-0.272000X0*%
%ADD26RoundRect,0.207000X0.249000X-0.225000X0.249000X0.225000X-0.249000X0.225000X-0.249000X-0.225000X0*%
%ADD27RoundRect,0.250000X-0.350000X-0.250000X0.350000X-0.250000X0.350000X0.250000X-0.350000X0.250000X0*%
%ADD28RoundRect,0.220875X-0.463125X-0.619125X0.463125X-0.619125X0.463125X0.619125X-0.463125X0.619125X0*%
%ADD29R,0.576000X1.056000*%
%ADD30RoundRect,0.230000X-0.466000X0.250000X-0.466000X-0.250000X0.466000X-0.250000X0.466000X0.250000X0*%
G04 APERTURE END LIST*
D10*
%TO.C,J2*%
X129385000Y-114300000D03*
X129385000Y-107900000D03*
D11*
X129385000Y-112850000D03*
X129385000Y-109350000D03*
X129385000Y-112350000D03*
X129385000Y-109850000D03*
X129385000Y-111850000D03*
X129385000Y-110350000D03*
X129385000Y-111350000D03*
X129385000Y-110850000D03*
D10*
X129385000Y-108700000D03*
X129385000Y-113500000D03*
D12*
X131810000Y-111685000D03*
X134110000Y-112835000D03*
X132960000Y-112835000D03*
X131810000Y-112835000D03*
X134110000Y-109385000D03*
X132960000Y-109385000D03*
X131810000Y-109385000D03*
X134110000Y-110535000D03*
X132960000Y-110535000D03*
X131810000Y-110535000D03*
X134110000Y-111685000D03*
X132960000Y-111685000D03*
%TD*%
D13*
%TO.C,U2*%
X123200000Y-112200000D03*
X123200000Y-113200000D03*
X122200000Y-113200000D03*
X122200000Y-112200000D03*
D14*
X121700000Y-114600000D03*
X122200000Y-114600000D03*
X122700000Y-114600000D03*
X123200000Y-114600000D03*
X123700000Y-114600000D03*
D15*
X124600000Y-113700000D03*
X124600000Y-113200000D03*
X124600000Y-112700000D03*
X124600000Y-112200000D03*
X124600000Y-111700000D03*
D14*
X123700000Y-110800000D03*
X123200000Y-110800000D03*
X122700000Y-110800000D03*
X122200000Y-110800000D03*
X121700000Y-110800000D03*
D15*
X120800000Y-111700000D03*
X120800000Y-112200000D03*
X120800000Y-112700000D03*
X120800000Y-113200000D03*
X120800000Y-113700000D03*
%TD*%
D16*
%TO.C,R9*%
X118375000Y-102400000D03*
X120025000Y-102400000D03*
%TD*%
D17*
%TO.C,D2*%
X126700000Y-107600000D03*
X123900000Y-107600000D03*
%TD*%
D18*
%TO.C,C2*%
X119051992Y-114751992D03*
X120148008Y-115848008D03*
%TD*%
D19*
%TO.C,R11*%
X128100000Y-107675000D03*
X128100000Y-109325000D03*
%TD*%
D20*
%TO.C,D4*%
X123250000Y-117150000D03*
X123250000Y-117800000D03*
X123250000Y-118450000D03*
X125150000Y-118450000D03*
X125150000Y-117800000D03*
X125150000Y-117150000D03*
%TD*%
%TO.C,D3*%
X127500000Y-117150000D03*
X127500000Y-117800000D03*
X127500000Y-118450000D03*
X129400000Y-118450000D03*
X129400000Y-117800000D03*
X129400000Y-117150000D03*
%TD*%
D19*
%TO.C,R10*%
X128100000Y-113575000D03*
X128100000Y-115225000D03*
%TD*%
D21*
%TO.C,R12*%
X126900000Y-115225000D03*
X126900000Y-113575000D03*
%TD*%
D19*
%TO.C,R13*%
X125700000Y-113575000D03*
X125700000Y-115225000D03*
%TD*%
D22*
%TO.C,D1*%
X120075000Y-100200000D03*
X118325000Y-100200000D03*
X118325000Y-99200000D03*
X120075000Y-99200000D03*
%TD*%
D16*
%TO.C,R7*%
X118375000Y-101200000D03*
X120025000Y-101200000D03*
%TD*%
%TO.C,R8*%
X118375000Y-103600000D03*
X120025000Y-103600000D03*
%TD*%
D23*
%TO.C,C5*%
X122925000Y-109300000D03*
X124475000Y-109300000D03*
%TD*%
D24*
%TO.C,C3*%
X132800000Y-116800000D03*
X132800000Y-118350000D03*
%TD*%
%TO.C,C4*%
X131600000Y-116800000D03*
X131600000Y-118350000D03*
%TD*%
D16*
%TO.C,R15*%
X123575000Y-99600000D03*
X125225000Y-99600000D03*
%TD*%
D25*
%TO.C,R14*%
X127925000Y-99600000D03*
X126275000Y-99600000D03*
%TD*%
D26*
%TO.C,U3*%
X127960000Y-102775000D03*
D27*
X132460000Y-100650000D03*
D28*
X130857500Y-104920000D03*
D27*
X132460000Y-101800000D03*
X132460000Y-102950000D03*
D29*
X131010000Y-103100000D03*
D27*
X135460000Y-102950000D03*
D26*
X127960000Y-101225000D03*
D27*
X135460000Y-100650000D03*
X135460000Y-101800000D03*
D29*
X131010000Y-100400000D03*
X129110000Y-103100000D03*
D30*
X129210000Y-104350000D03*
D29*
X130060000Y-103100000D03*
D30*
X135460000Y-106250000D03*
X129210000Y-106250000D03*
D28*
X133822500Y-104920000D03*
D29*
X130060000Y-100400000D03*
D30*
X135460000Y-104350000D03*
D29*
X129110000Y-100400000D03*
%TD*%
M02*
