%TF.GenerationSoftware,KiCad,Pcbnew,(6.0.2-0)*%
%TF.CreationDate,2022-03-05T13:26:59+00:00*%
%TF.ProjectId,Generic3,47656e65-7269-4633-932e-6b696361645f,1*%
%TF.SameCoordinates,Original*%
%TF.FileFunction,Soldermask,Top*%
%TF.FilePolarity,Negative*%
%FSLAX46Y46*%
G04 Gerber Fmt 4.6, Leading zero omitted, Abs format (unit mm)*
G04 Created by KiCad (PCBNEW (6.0.2-0)) date 2022-03-05 13:26:59*
%MOMM*%
%LPD*%
G01*
G04 APERTURE LIST*
G04 Aperture macros list*
%AMRoundRect*
0 Rectangle with rounded corners*
0 $1 Rounding radius*
0 $2 $3 $4 $5 $6 $7 $8 $9 X,Y pos of 4 corners*
0 Add a 4 corners polygon primitive as box body*
4,1,4,$2,$3,$4,$5,$6,$7,$8,$9,$2,$3,0*
0 Add four circle primitives for the rounded corners*
1,1,$1+$1,$2,$3*
1,1,$1+$1,$4,$5*
1,1,$1+$1,$6,$7*
1,1,$1+$1,$8,$9*
0 Add four rect primitives between the rounded corners*
20,1,$1+$1,$2,$3,$4,$5,0*
20,1,$1+$1,$4,$5,$6,$7,0*
20,1,$1+$1,$6,$7,$8,$9,0*
20,1,$1+$1,$8,$9,$2,$3,0*%
%AMOutline5P*
0 Free polygon, 5 corners , with rotation*
0 The origin of the aperture is its center*
0 number of corners: always 5*
0 $1 to $10 corner X, Y*
0 $11 Rotation angle, in degrees counterclockwise*
0 create outline with 5 corners*
4,1,5,$1,$2,$3,$4,$5,$6,$7,$8,$9,$10,$1,$2,$11*%
%AMOutline6P*
0 Free polygon, 6 corners , with rotation*
0 The origin of the aperture is its center*
0 number of corners: always 6*
0 $1 to $12 corner X, Y*
0 $13 Rotation angle, in degrees counterclockwise*
0 create outline with 6 corners*
4,1,6,$1,$2,$3,$4,$5,$6,$7,$8,$9,$10,$11,$12,$1,$2,$13*%
%AMOutline7P*
0 Free polygon, 7 corners , with rotation*
0 The origin of the aperture is its center*
0 number of corners: always 7*
0 $1 to $14 corner X, Y*
0 $15 Rotation angle, in degrees counterclockwise*
0 create outline with 7 corners*
4,1,7,$1,$2,$3,$4,$5,$6,$7,$8,$9,$10,$11,$12,$13,$14,$1,$2,$15*%
%AMOutline8P*
0 Free polygon, 8 corners , with rotation*
0 The origin of the aperture is its center*
0 number of corners: always 8*
0 $1 to $16 corner X, Y*
0 $17 Rotation angle, in degrees counterclockwise*
0 create outline with 8 corners*
4,1,8,$1,$2,$3,$4,$5,$6,$7,$8,$9,$10,$11,$12,$13,$14,$15,$16,$1,$2,$17*%
G04 Aperture macros list end*
%ADD10R,0.450000X0.700000*%
%ADD11RoundRect,0.200000X0.275000X-0.200000X0.275000X0.200000X-0.275000X0.200000X-0.275000X-0.200000X0*%
%ADD12RoundRect,0.200000X-0.200000X-0.275000X0.200000X-0.275000X0.200000X0.275000X-0.200000X0.275000X0*%
%ADD13RoundRect,0.200000X-0.275000X0.200000X-0.275000X-0.200000X0.275000X-0.200000X0.275000X0.200000X0*%
%ADD14RoundRect,0.250000X0.375000X0.625000X-0.375000X0.625000X-0.375000X-0.625000X0.375000X-0.625000X0*%
%ADD15R,0.600000X1.100000*%
%ADD16RoundRect,0.225000X0.250000X-0.225000X0.250000X0.225000X-0.250000X0.225000X-0.250000X-0.225000X0*%
%ADD17RoundRect,0.249375X-0.463125X-0.625625X0.463125X-0.625625X0.463125X0.625625X-0.463125X0.625625X0*%
%ADD18R,1.425000X3.700000*%
%ADD19RoundRect,0.250000X-0.475000X0.250000X-0.475000X-0.250000X0.475000X-0.250000X0.475000X0.250000X0*%
%ADD20R,1.140000X0.600000*%
%ADD21RoundRect,0.075000X-0.495000X0.075000X-0.495000X-0.075000X0.495000X-0.075000X0.495000X0.075000X0*%
%ADD22C,0.870000*%
%ADD23C,1.500000*%
%ADD24R,5.490000X5.000000*%
%ADD25C,1.250000*%
%ADD26RoundRect,0.250000X-0.600000X-0.675000X0.600000X-0.675000X0.600000X0.675000X-0.600000X0.675000X0*%
%ADD27O,1.700000X1.850000*%
%ADD28R,0.400000X0.800000*%
%ADD29R,0.800000X0.400000*%
%ADD30R,1.450000X1.450000*%
%ADD31Outline5P,-0.725000X0.130500X-0.130500X0.725000X0.725000X0.725000X0.725000X-0.725000X-0.725000X-0.725000X270.000000*%
%ADD32R,0.700000X0.700000*%
%ADD33RoundRect,0.062500X-0.062500X0.287500X-0.062500X-0.287500X0.062500X-0.287500X0.062500X0.287500X0*%
%ADD34RoundRect,0.062500X-0.287500X0.062500X-0.287500X-0.062500X0.287500X-0.062500X0.287500X0.062500X0*%
%ADD35Outline5P,-1.000000X0.750000X-0.750000X1.000000X1.000000X1.000000X1.000000X-1.000000X-1.000000X-1.000000X270.000000*%
%ADD36RoundRect,0.250000X-0.375000X-0.625000X0.375000X-0.625000X0.375000X0.625000X-0.375000X0.625000X0*%
%ADD37R,0.850000X0.500000*%
%ADD38R,1.600000X1.600000*%
%ADD39C,1.600000*%
G04 APERTURE END LIST*
D10*
%TO.C,Q1*%
X160250000Y-56750000D03*
X158950000Y-56750000D03*
X159600000Y-58750000D03*
%TD*%
D11*
%TO.C,C1*%
X148600000Y-60675000D03*
X148600000Y-59125000D03*
%TD*%
D12*
%TO.C,R4*%
X140225000Y-56850000D03*
X141875000Y-56850000D03*
%TD*%
%TO.C,C4*%
X140225000Y-67200000D03*
X141775000Y-67200000D03*
%TD*%
D13*
%TO.C,R1*%
X159500000Y-61575000D03*
X159500000Y-63225000D03*
%TD*%
D14*
%TO.C,D8*%
X147900000Y-66600000D03*
X145100000Y-66600000D03*
%TD*%
D12*
%TO.C,C2*%
X156425000Y-63200000D03*
X157975000Y-63200000D03*
%TD*%
D11*
%TO.C,R12*%
X150100000Y-62325000D03*
X150100000Y-60675000D03*
%TD*%
D15*
%TO.C,U3*%
X153350000Y-55950000D03*
D16*
X150300000Y-56775000D03*
D17*
X153197500Y-60470000D03*
D16*
X150300000Y-58325000D03*
D18*
X154800000Y-57350000D03*
D15*
X153350000Y-58650000D03*
X151450000Y-58650000D03*
D19*
X151550000Y-59900000D03*
D15*
X152400000Y-58650000D03*
X152400000Y-55950000D03*
D19*
X157800000Y-61800000D03*
X151550000Y-61800000D03*
D17*
X156162500Y-60470000D03*
D19*
X157800000Y-59900000D03*
D18*
X157800000Y-57350000D03*
D15*
X151450000Y-55950000D03*
%TD*%
D20*
%TO.C,J3*%
X143810000Y-58650000D03*
X143810000Y-59450000D03*
D21*
X143810000Y-60600000D03*
X143810000Y-61600000D03*
X143810000Y-62100000D03*
X143810000Y-63100000D03*
D20*
X143810000Y-65050000D03*
X143810000Y-64250000D03*
D21*
X143810000Y-63600000D03*
X143810000Y-62600000D03*
X143810000Y-61100000D03*
X143810000Y-60100000D03*
D22*
X142740000Y-64740000D03*
D23*
X143230000Y-57530000D03*
D24*
X139695000Y-61850000D03*
D25*
X139060000Y-57530000D03*
D22*
X142740000Y-58960000D03*
D25*
X139060000Y-66170000D03*
D23*
X143230000Y-66170000D03*
%TD*%
D12*
%TO.C,R3*%
X143075000Y-56100000D03*
X144725000Y-56100000D03*
%TD*%
D11*
%TO.C,C3*%
X147400000Y-60675000D03*
X147400000Y-59125000D03*
%TD*%
D26*
%TO.C,J1*%
X139400000Y-69150000D03*
D27*
X141900000Y-69150000D03*
%TD*%
D12*
%TO.C,R10*%
X146975000Y-58000000D03*
X148625000Y-58000000D03*
%TD*%
D11*
%TO.C,R5*%
X145100000Y-60325000D03*
X145100000Y-58675000D03*
%TD*%
D13*
%TO.C,R8*%
X147400000Y-61700000D03*
X147400000Y-63350000D03*
%TD*%
D28*
%TO.C,U1*%
X170356750Y-54950000D03*
X169556750Y-54950000D03*
X168756750Y-54950000D03*
X167956750Y-54950000D03*
X167156750Y-54950000D03*
X166356750Y-54950000D03*
X165556750Y-54950000D03*
X164756750Y-54950000D03*
X163956750Y-54950000D03*
X163156750Y-54950000D03*
X162356750Y-54950000D03*
D29*
X161456750Y-56050000D03*
X161456750Y-56850000D03*
X161456750Y-57650000D03*
X161456750Y-58450000D03*
X161456750Y-59250000D03*
X161456750Y-60050000D03*
X161456750Y-60850000D03*
X161456750Y-61650000D03*
X161456750Y-62450000D03*
X161456750Y-63250000D03*
X161456750Y-64050000D03*
X161456750Y-64850000D03*
X161456750Y-65650000D03*
D28*
X162356750Y-66750000D03*
X163156750Y-66750000D03*
X163956750Y-66750000D03*
X164756750Y-66750000D03*
X165556750Y-66750000D03*
X166356750Y-66750000D03*
X167156750Y-66750000D03*
X167956750Y-66750000D03*
X168756750Y-66750000D03*
X169556750Y-66750000D03*
X170356750Y-66750000D03*
D29*
X171256750Y-65650000D03*
X171256750Y-64850000D03*
X171256750Y-64050000D03*
X171256750Y-63250000D03*
X171256750Y-62450000D03*
X171256750Y-61650000D03*
X171256750Y-60850000D03*
X171256750Y-60050000D03*
X171256750Y-59250000D03*
X171256750Y-58450000D03*
X171256750Y-57650000D03*
X171256750Y-56850000D03*
X171256750Y-56050000D03*
D30*
X164381750Y-58875000D03*
X166356750Y-60850000D03*
X164381750Y-62825000D03*
D31*
X168331750Y-58875000D03*
D30*
X168331750Y-60850000D03*
X166356750Y-62825000D03*
X164381750Y-60850000D03*
X166356750Y-58875000D03*
X168331750Y-62825000D03*
D32*
X171306750Y-66800000D03*
X161406750Y-66800000D03*
X161406750Y-54900000D03*
X171306750Y-54900000D03*
%TD*%
D26*
%TO.C,J2*%
X147000000Y-69150000D03*
D27*
X149500000Y-69150000D03*
X152000000Y-69150000D03*
X154500000Y-69150000D03*
X157000000Y-69150000D03*
X159500000Y-69150000D03*
X162000000Y-69150000D03*
X164500000Y-69150000D03*
X167000000Y-69150000D03*
X169500000Y-69150000D03*
%TD*%
D33*
%TO.C,U2*%
X153175000Y-63250000D03*
X152675000Y-63250000D03*
X152175000Y-63250000D03*
X151675000Y-63250000D03*
X151175000Y-63250000D03*
D34*
X150275000Y-64150000D03*
X150275000Y-64650000D03*
X150275000Y-65150000D03*
X150275000Y-65650000D03*
X150275000Y-66150000D03*
D33*
X151175000Y-67050000D03*
X151675000Y-67050000D03*
X152175000Y-67050000D03*
X152675000Y-67050000D03*
X153175000Y-67050000D03*
D34*
X154075000Y-66150000D03*
X154075000Y-65650000D03*
X154075000Y-65150000D03*
X154075000Y-64650000D03*
X154075000Y-64150000D03*
D35*
X152175000Y-65150000D03*
%TD*%
D36*
%TO.C,D6*%
X146000000Y-55200000D03*
X148800000Y-55200000D03*
%TD*%
D37*
%TO.C,D7*%
X137675000Y-54900000D03*
X139425000Y-54900000D03*
X139425000Y-55900000D03*
X137675000Y-55900000D03*
%TD*%
D12*
%TO.C,R11*%
X146975000Y-64500000D03*
X148625000Y-64500000D03*
%TD*%
%TO.C,R9*%
X146975000Y-56800000D03*
X148625000Y-56800000D03*
%TD*%
D13*
%TO.C,R7*%
X148600000Y-61700000D03*
X148600000Y-63350000D03*
%TD*%
D11*
%TO.C,R6*%
X145100000Y-65125000D03*
X145100000Y-63475000D03*
%TD*%
D12*
%TO.C,R2*%
X143075000Y-54900000D03*
X144725000Y-54900000D03*
%TD*%
D38*
%TO.C,BZ1*%
X144450000Y-69000000D03*
D39*
X144450000Y-73000000D03*
%TD*%
M02*
