%TF.GenerationSoftware,KiCad,Pcbnew,(6.0.1-0)*%
%TF.CreationDate,2022-01-30T16:14:42+00:00*%
%TF.ProjectId,Generic2,47656e65-7269-4633-922e-6b696361645f,1*%
%TF.SameCoordinates,Original*%
%TF.FileFunction,Soldermask,Bot*%
%TF.FilePolarity,Negative*%
%FSLAX46Y46*%
G04 Gerber Fmt 4.6, Leading zero omitted, Abs format (unit mm)*
G04 Created by KiCad (PCBNEW (6.0.1-0)) date 2022-01-30 16:14:42*
%MOMM*%
%LPD*%
G01*
G04 APERTURE LIST*
G04 Aperture macros list*
%AMRoundRect*
0 Rectangle with rounded corners*
0 $1 Rounding radius*
0 $2 $3 $4 $5 $6 $7 $8 $9 X,Y pos of 4 corners*
0 Add a 4 corners polygon primitive as box body*
4,1,4,$2,$3,$4,$5,$6,$7,$8,$9,$2,$3,0*
0 Add four circle primitives for the rounded corners*
1,1,$1+$1,$2,$3*
1,1,$1+$1,$4,$5*
1,1,$1+$1,$6,$7*
1,1,$1+$1,$8,$9*
0 Add four rect primitives between the rounded corners*
20,1,$1+$1,$2,$3,$4,$5,0*
20,1,$1+$1,$4,$5,$6,$7,0*
20,1,$1+$1,$6,$7,$8,$9,0*
20,1,$1+$1,$8,$9,$2,$3,0*%
G04 Aperture macros list end*
%ADD10C,1.250000*%
%ADD11C,1.500000*%
%ADD12C,0.350000*%
%ADD13R,2.000000X2.000000*%
%ADD14C,2.000000*%
%ADD15R,2.000000X0.900000*%
%ADD16R,0.900000X2.000000*%
%ADD17R,5.000000X5.000000*%
%ADD18RoundRect,0.250000X0.675000X-0.600000X0.675000X0.600000X-0.675000X0.600000X-0.675000X-0.600000X0*%
%ADD19O,1.850000X1.700000*%
%ADD20RoundRect,0.250000X-0.675000X0.600000X-0.675000X-0.600000X0.675000X-0.600000X0.675000X0.600000X0*%
G04 APERTURE END LIST*
D10*
%TO.C,J3*%
X143380000Y-107840000D03*
D11*
X143380000Y-103670000D03*
D10*
X152020000Y-107840000D03*
D11*
X152020000Y-103670000D03*
%TD*%
D12*
%TO.C,U2*%
X141450000Y-98050000D03*
%TD*%
D13*
%TO.C,J4*%
X153705000Y-108610000D03*
D14*
X156245000Y-108610000D03*
%TD*%
D15*
%TO.C,U1*%
X156200000Y-88295000D03*
X156200000Y-89565000D03*
X156200000Y-90835000D03*
X156200000Y-92105000D03*
X156200000Y-93375000D03*
X156200000Y-94645000D03*
X156200000Y-95915000D03*
X156200000Y-97185000D03*
X156200000Y-98455000D03*
X156200000Y-99725000D03*
X156200000Y-100995000D03*
X156200000Y-102265000D03*
X156200000Y-103535000D03*
X156200000Y-104805000D03*
D16*
X153415000Y-105805000D03*
X152145000Y-105805000D03*
X150875000Y-105805000D03*
X149605000Y-105805000D03*
X148335000Y-105805000D03*
X147065000Y-105805000D03*
X145795000Y-105805000D03*
X144525000Y-105805000D03*
X143255000Y-105805000D03*
X141985000Y-105805000D03*
D15*
X139200000Y-104805000D03*
X139200000Y-103535000D03*
X139200000Y-102265000D03*
X139200000Y-100995000D03*
X139200000Y-99725000D03*
X139200000Y-98455000D03*
X139200000Y-97185000D03*
X139200000Y-95915000D03*
X139200000Y-94645000D03*
X139200000Y-93375000D03*
X139200000Y-92105000D03*
X139200000Y-90835000D03*
X139200000Y-89565000D03*
X139200000Y-88295000D03*
D17*
X148700000Y-95795000D03*
%TD*%
D18*
%TO.C,J1*%
X136600000Y-107500000D03*
D19*
X136600000Y-105000000D03*
X136600000Y-102500000D03*
X136600000Y-100000000D03*
X136600000Y-97500000D03*
X136600000Y-95000000D03*
X136600000Y-92500000D03*
X136600000Y-90000000D03*
%TD*%
D20*
%TO.C,J2*%
X158900000Y-90000000D03*
D19*
X158900000Y-92500000D03*
X158900000Y-95000000D03*
X158900000Y-97500000D03*
X158900000Y-100000000D03*
X158900000Y-102500000D03*
X158900000Y-105000000D03*
X158900000Y-107500000D03*
%TD*%
M02*
