M48
; DRILL file {KiCad (6.0.2-0)} date Saturday, 05 March 2022 at 08:05:07
; FORMAT={-:-/ absolute / inch / decimal}
; #@! TF.CreationDate,2022-03-05T08:05:07+00:00
; #@! TF.GenerationSoftware,Kicad,Pcbnew,(6.0.2-0)
; #@! TF.FileFunction,Plated,1,2,PTH
FMAT,2
INCH
; #@! TA.AperFunction,Plated,PTH,ViaDrill
T1C0.0157
; #@! TA.AperFunction,Plated,PTH,ComponentDrill
T2C0.0236
; #@! TA.AperFunction,Plated,PTH,ComponentDrill
T3C0.0335
; #@! TA.AperFunction,Plated,PTH,ComponentDrill
T4C0.0394
; #@! TA.AperFunction,Plated,PTH,ComponentDrill
T5C0.0492
%
G90
G05
T1
X5.4488Y-2.1705
X5.5512Y-2.2047
X5.7294Y-2.2417
X5.7402Y-2.7874
X5.7431Y-2.3425
X5.7431Y-2.5315
X5.7638Y-2.2156
X5.7668Y-2.1743
X5.7778Y-2.6083
X5.8115Y-2.4747
X5.8366Y-2.8622
X5.876Y-2.5984
X5.9134Y-2.3465
X5.9134Y-2.6417
X6.0335Y-2.8622
X6.0551Y-2.4921
X6.0877Y-2.4689
X6.0906Y-2.3819
X6.1251Y-2.5803
X6.128Y-2.5224
X6.2303Y-2.6906
X6.2303Y-2.8622
X6.2432Y-2.5662
X6.2657Y-2.4488
X6.2835Y-2.185
X6.2835Y-2.5669
X6.2874Y-2.3031
X6.3976Y-2.2835
X6.3977Y-2.2048
X6.3979Y-2.2441
X6.4058Y-2.5894
X6.4173Y-2.4291
X6.4173Y-2.4921
X6.4272Y-2.8622
X6.4449Y-2.2283
X6.4872Y-2.2034
X6.5286Y-2.7628
X6.5372Y-2.2047
X6.5519Y-2.5701
X6.5779Y-2.1962
X6.5807Y-2.5992
X6.6166Y-2.2032
X6.624Y-2.8642
X6.7067Y-2.2067
T2
X5.6197Y-2.3213
X5.6197Y-2.5488
T3
X5.4882Y-2.7224
X5.5866Y-2.7224
X5.7874Y-2.7224
X5.8858Y-2.7224
X5.9843Y-2.7224
X6.0827Y-2.7224
X6.1811Y-2.7224
X6.2795Y-2.7224
X6.378Y-2.7224
X6.4764Y-2.7224
X6.5748Y-2.7224
X6.6732Y-2.7224
T4
X5.4748Y-2.265
X5.4748Y-2.6051
T5
X5.639Y-2.265
X5.639Y-2.6051
T0
M30
