%TF.GenerationSoftware,KiCad,Pcbnew,(6.0.2-0)*%
%TF.CreationDate,2022-03-04T13:01:28+00:00*%
%TF.ProjectId,Generic5,47656e65-7269-4633-952e-6b696361645f,1*%
%TF.SameCoordinates,Original*%
%TF.FileFunction,Copper,L1,Top*%
%TF.FilePolarity,Positive*%
%FSLAX46Y46*%
G04 Gerber Fmt 4.6, Leading zero omitted, Abs format (unit mm)*
G04 Created by KiCad (PCBNEW (6.0.2-0)) date 2022-03-04 13:01:28*
%MOMM*%
%LPD*%
G01*
G04 APERTURE LIST*
G04 Aperture macros list*
%AMRoundRect*
0 Rectangle with rounded corners*
0 $1 Rounding radius*
0 $2 $3 $4 $5 $6 $7 $8 $9 X,Y pos of 4 corners*
0 Add a 4 corners polygon primitive as box body*
4,1,4,$2,$3,$4,$5,$6,$7,$8,$9,$2,$3,0*
0 Add four circle primitives for the rounded corners*
1,1,$1+$1,$2,$3*
1,1,$1+$1,$4,$5*
1,1,$1+$1,$6,$7*
1,1,$1+$1,$8,$9*
0 Add four rect primitives between the rounded corners*
20,1,$1+$1,$2,$3,$4,$5,0*
20,1,$1+$1,$4,$5,$6,$7,0*
20,1,$1+$1,$6,$7,$8,$9,0*
20,1,$1+$1,$8,$9,$2,$3,0*%
%AMOutline5P*
0 Free polygon, 5 corners , with rotation*
0 The origin of the aperture is its center*
0 number of corners: always 5*
0 $1 to $10 corner X, Y*
0 $11 Rotation angle, in degrees counterclockwise*
0 create outline with 5 corners*
4,1,5,$1,$2,$3,$4,$5,$6,$7,$8,$9,$10,$1,$2,$11*%
%AMOutline6P*
0 Free polygon, 6 corners , with rotation*
0 The origin of the aperture is its center*
0 number of corners: always 6*
0 $1 to $12 corner X, Y*
0 $13 Rotation angle, in degrees counterclockwise*
0 create outline with 6 corners*
4,1,6,$1,$2,$3,$4,$5,$6,$7,$8,$9,$10,$11,$12,$1,$2,$13*%
%AMOutline7P*
0 Free polygon, 7 corners , with rotation*
0 The origin of the aperture is its center*
0 number of corners: always 7*
0 $1 to $14 corner X, Y*
0 $15 Rotation angle, in degrees counterclockwise*
0 create outline with 7 corners*
4,1,7,$1,$2,$3,$4,$5,$6,$7,$8,$9,$10,$11,$12,$13,$14,$1,$2,$15*%
%AMOutline8P*
0 Free polygon, 8 corners , with rotation*
0 The origin of the aperture is its center*
0 number of corners: always 8*
0 $1 to $16 corner X, Y*
0 $17 Rotation angle, in degrees counterclockwise*
0 create outline with 8 corners*
4,1,8,$1,$2,$3,$4,$5,$6,$7,$8,$9,$10,$11,$12,$13,$14,$15,$16,$1,$2,$17*%
%AMFreePoly0*
4,1,136,3.383385,4.221938,3.559722,4.168447,3.722236,4.081581,3.864680,3.964680,3.981581,3.822236,4.068447,3.659722,4.121938,3.483385,4.125213,3.450138,4.182769,3.539508,4.186818,3.554319,4.232803,3.599839,4.295387,3.616268,4.357802,3.599205,4.403322,3.553220,4.419751,3.490636,4.402688,3.428221,4.402685,3.428218,4.172864,3.069999,4.056927,2.918726,3.981581,2.777764,
3.864680,2.635320,3.750000,2.541204,3.750000,0.022998,4.066621,-0.229499,4.408387,-0.546611,4.440740,-0.602647,4.440740,-0.667351,4.408387,-0.723387,4.352351,-0.755740,4.287647,-0.755740,4.231611,-0.723387,4.223834,-0.709917,3.889556,-0.400914,3.520256,-0.109781,3.483169,-0.085000,2.500000,-0.085000,2.500000,-1.185000,3.750000,-1.185000,3.750000,-2.745000,-3.750000,-2.745000,
-3.750000,-1.185000,-2.500000,-1.185000,-2.500000,-0.085000,-3.483168,-0.085000,-3.520257,-0.109782,-3.889557,-0.400914,-4.223835,-0.709917,-4.231612,-0.723388,-4.287648,-0.755741,-4.352352,-0.755741,-4.408388,-0.723388,-4.440741,-0.667352,-4.440741,-0.602648,-4.408388,-0.546612,-4.066622,-0.229500,-3.750000,0.022998,-3.750000,2.541204,-3.864680,2.635320,-3.981581,2.777764,-4.057059,2.918973,
-4.182136,3.083248,-4.410822,3.442198,-4.427688,3.504666,-4.411060,3.567198,-4.365394,3.613038,-4.302926,3.629904,-4.240394,3.613276,-4.194554,3.567610,-4.190552,3.552787,-4.125171,3.450557,-4.121938,3.483385,-4.068447,3.659722,-3.981581,3.822236,-3.864680,3.964680,-3.722236,4.081581,-3.559722,4.168447,-3.383385,4.221938,-3.200000,4.240000,-3.137500,4.223253,-3.091747,4.177500,
-3.075000,4.115000,-3.091747,4.052500,-3.137500,4.006747,-3.200000,3.990000,-3.211471,3.993074,-3.354511,3.976957,-3.501274,3.925602,-3.632930,3.842877,-3.742877,3.732930,-3.825602,3.601274,-3.876957,3.454511,-3.894366,3.300000,-3.876957,3.145489,-3.839657,3.038894,-3.713800,2.875371,-3.594054,2.745000,-2.998152,2.745000,-3.015000,3.045000,-2.998253,3.107500,-2.952500,3.153253,
-2.890000,3.170000,-2.827500,3.153253,-2.781747,3.107500,-2.765000,3.045000,-2.768849,3.030634,-2.752213,2.745000,2.752213,2.745000,2.768849,3.030634,2.765000,3.045000,2.781747,3.107500,2.827500,3.153253,2.890000,3.170000,2.952500,3.153253,2.998253,3.107500,3.015000,3.045000,2.998152,2.745000,3.594234,2.745000,3.703871,2.863608,3.839648,3.038866,3.876957,3.145489,
3.894366,3.300000,3.876957,3.454511,3.825602,3.601274,3.742877,3.732930,3.632930,3.842877,3.501274,3.925602,3.354511,3.976957,3.211471,3.993074,3.200000,3.990000,3.137500,4.006747,3.091747,4.052500,3.075000,4.115000,3.091747,4.177500,3.137500,4.223253,3.200000,4.240000,3.383385,4.221938,3.383385,4.221938,$1*%
G04 Aperture macros list end*
%TA.AperFunction,SMDPad,CuDef*%
%ADD10R,0.400000X0.800000*%
%TD*%
%TA.AperFunction,SMDPad,CuDef*%
%ADD11R,0.800000X0.400000*%
%TD*%
%TA.AperFunction,SMDPad,CuDef*%
%ADD12R,1.450000X1.450000*%
%TD*%
%TA.AperFunction,SMDPad,CuDef*%
%ADD13Outline5P,-0.725000X0.130500X-0.130500X0.725000X0.725000X0.725000X0.725000X-0.725000X-0.725000X-0.725000X90.000000*%
%TD*%
%TA.AperFunction,SMDPad,CuDef*%
%ADD14R,0.700000X0.700000*%
%TD*%
%TA.AperFunction,SMDPad,CuDef*%
%ADD15R,0.600000X1.140000*%
%TD*%
%TA.AperFunction,SMDPad,CuDef*%
%ADD16RoundRect,0.075000X-0.075000X-0.495000X0.075000X-0.495000X0.075000X0.495000X-0.075000X0.495000X0*%
%TD*%
%TA.AperFunction,ComponentPad*%
%ADD17C,1.250000*%
%TD*%
%TA.AperFunction,SMDPad,CuDef*%
%ADD18R,5.000000X5.490000*%
%TD*%
%TA.AperFunction,ComponentPad*%
%ADD19C,0.670000*%
%TD*%
%TA.AperFunction,ComponentPad*%
%ADD20C,1.500000*%
%TD*%
%TA.AperFunction,SMDPad,CuDef*%
%ADD21FreePoly0,0.000000*%
%TD*%
%TA.AperFunction,ComponentPad*%
%ADD22RoundRect,0.250000X0.600000X0.675000X-0.600000X0.675000X-0.600000X-0.675000X0.600000X-0.675000X0*%
%TD*%
%TA.AperFunction,ComponentPad*%
%ADD23O,1.700000X1.850000*%
%TD*%
%TA.AperFunction,ViaPad*%
%ADD24C,0.800000*%
%TD*%
%TA.AperFunction,Conductor*%
%ADD25C,0.250000*%
%TD*%
G04 APERTURE END LIST*
D10*
%TO.P,U1,1,GND*%
%TO.N,GND*%
X150350000Y-41450000D03*
%TO.P,U1,2,GND*%
X151150000Y-41450000D03*
%TO.P,U1,3,3V3*%
%TO.N,+3V3*%
X151950000Y-41450000D03*
%TO.P,U1,4,I36*%
%TO.N,unconnected-(U1-Pad4)*%
X152750000Y-41450000D03*
%TO.P,U1,5,I37*%
%TO.N,unconnected-(U1-Pad5)*%
X153550000Y-41450000D03*
%TO.P,U1,6,I38*%
%TO.N,unconnected-(U1-Pad6)*%
X154350000Y-41450000D03*
%TO.P,U1,7,I39*%
%TO.N,unconnected-(U1-Pad7)*%
X155150000Y-41450000D03*
%TO.P,U1,8,EN*%
%TO.N,EN*%
X155950000Y-41450000D03*
%TO.P,U1,9,I34*%
%TO.N,unconnected-(U1-Pad9)*%
X156750000Y-41450000D03*
%TO.P,U1,10,I35*%
%TO.N,unconnected-(U1-Pad10)*%
X157550000Y-41450000D03*
%TO.P,U1,11,GND*%
%TO.N,GND*%
X158350000Y-41450000D03*
D11*
%TO.P,U1,12,IO32*%
%TO.N,unconnected-(U1-Pad12)*%
X159250000Y-40350000D03*
%TO.P,U1,13,IO33*%
%TO.N,unconnected-(U1-Pad13)*%
X159250000Y-39550000D03*
%TO.P,U1,14,GND*%
%TO.N,GND*%
X159250000Y-38750000D03*
%TO.P,U1,15,IO25*%
%TO.N,unconnected-(U1-Pad15)*%
X159250000Y-37950000D03*
%TO.P,U1,16,IO26*%
%TO.N,unconnected-(U1-Pad16)*%
X159250000Y-37150000D03*
%TO.P,U1,17,IO27*%
%TO.N,unconnected-(U1-Pad17)*%
X159250000Y-36350000D03*
%TO.P,U1,18,IO14*%
%TO.N,unconnected-(U1-Pad18)*%
X159250000Y-35550000D03*
%TO.P,U1,19,IO12*%
%TO.N,unconnected-(U1-Pad19)*%
X159250000Y-34750000D03*
%TO.P,U1,20,IO13*%
%TO.N,unconnected-(U1-Pad20)*%
X159250000Y-33950000D03*
%TO.P,U1,21,IO15*%
%TO.N,unconnected-(U1-Pad21)*%
X159250000Y-33150000D03*
%TO.P,U1,22,IO2*%
%TO.N,unconnected-(U1-Pad22)*%
X159250000Y-32350000D03*
%TO.P,U1,23,IO0*%
%TO.N,GPIO0*%
X159250000Y-31550000D03*
%TO.P,U1,24,IO4*%
%TO.N,B*%
X159250000Y-30750000D03*
D10*
%TO.P,U1,25,NC*%
%TO.N,unconnected-(U1-Pad25)*%
X158350000Y-29650000D03*
%TO.P,U1,26,IO20*%
%TO.N,R*%
X157550000Y-29650000D03*
%TO.P,U1,27,IO7*%
%TO.N,IO1*%
X156750000Y-29650000D03*
%TO.P,U1,28,IO8*%
%TO.N,G*%
X155950000Y-29650000D03*
%TO.P,U1,29,IO5*%
%TO.N,unconnected-(U1-Pad29)*%
X155150000Y-29650000D03*
%TO.P,U1,30,RXD0*%
%TO.N,I*%
X154350000Y-29650000D03*
%TO.P,U1,31,TXD0*%
%TO.N,O*%
X153550000Y-29650000D03*
%TO.P,U1,32,NC*%
%TO.N,unconnected-(U1-Pad32)*%
X152750000Y-29650000D03*
%TO.P,U1,33,IO19*%
%TO.N,IO2*%
X151950000Y-29650000D03*
%TO.P,U1,34,IO22*%
%TO.N,IO3*%
X151150000Y-29650000D03*
%TO.P,U1,35,IO21*%
%TO.N,IO4*%
X150350000Y-29650000D03*
D11*
%TO.P,U1,36,GND*%
%TO.N,GND*%
X149450000Y-30750000D03*
%TO.P,U1,37,GND*%
X149450000Y-31550000D03*
%TO.P,U1,38,GND*%
X149450000Y-32350000D03*
%TO.P,U1,39,GND*%
X149450000Y-33150000D03*
%TO.P,U1,40,GND*%
X149450000Y-33950000D03*
%TO.P,U1,41,GND*%
X149450000Y-34750000D03*
%TO.P,U1,42,GND*%
X149450000Y-35550000D03*
%TO.P,U1,43,GND*%
X149450000Y-36350000D03*
%TO.P,U1,44,GND*%
X149450000Y-37150000D03*
%TO.P,U1,45,GND*%
X149450000Y-37950000D03*
%TO.P,U1,46,GND*%
X149450000Y-38750000D03*
%TO.P,U1,47,GND*%
X149450000Y-39550000D03*
%TO.P,U1,48,GND*%
X149450000Y-40350000D03*
D12*
%TO.P,U1,49,GND*%
X154350000Y-37525000D03*
X156325000Y-37525000D03*
X154350000Y-33575000D03*
X152375000Y-33575000D03*
X152375000Y-35550000D03*
X154350000Y-35550000D03*
X156325000Y-35550000D03*
D13*
X152375000Y-37525000D03*
D12*
X156325000Y-33575000D03*
D14*
%TO.P,U1,50,GND*%
X149400000Y-29600000D03*
%TO.P,U1,51,GND*%
X159300000Y-29600000D03*
%TO.P,U1,52,GND*%
X159300000Y-41500000D03*
%TO.P,U1,53,GND*%
X149400000Y-41500000D03*
%TD*%
D15*
%TO.P,J2,A1,GND*%
%TO.N,GND*%
X151050000Y-44490000D03*
%TO.P,J2,A4,VBUS*%
%TO.N,VBUS*%
X151850000Y-44490000D03*
D16*
%TO.P,J2,A5,CC1*%
%TO.N,Net-(J2-PadA5)*%
X153000000Y-44490000D03*
%TO.P,J2,A6,D+*%
%TO.N,Net-(J2-PadA6)*%
X154000000Y-44490000D03*
%TO.P,J2,A7,D-*%
%TO.N,Net-(J2-PadA7)*%
X154500000Y-44490000D03*
%TO.P,J2,A8,SBU1*%
%TO.N,unconnected-(J2-PadA8)*%
X155500000Y-44490000D03*
D15*
%TO.P,J2,A9,VBUS*%
%TO.N,VBUS*%
X156650000Y-44490000D03*
%TO.P,J2,A12,GND*%
%TO.N,GND*%
X157450000Y-44490000D03*
%TO.P,J2,B1,GND*%
X157450000Y-44490000D03*
%TO.P,J2,B4,VBUS*%
%TO.N,VBUS*%
X156650000Y-44490000D03*
D16*
%TO.P,J2,B5,CC2*%
%TO.N,Net-(J2-PadB5)*%
X156000000Y-44490000D03*
%TO.P,J2,B6,D+*%
%TO.N,Net-(J2-PadA6)*%
X155000000Y-44490000D03*
%TO.P,J2,B7,D-*%
%TO.N,Net-(J2-PadA7)*%
X153500000Y-44490000D03*
%TO.P,J2,B8,SBU2*%
%TO.N,unconnected-(J2-PadB8)*%
X152500000Y-44490000D03*
D15*
%TO.P,J2,B9,VBUS*%
%TO.N,VBUS*%
X151850000Y-44490000D03*
%TO.P,J2,B12,GND*%
%TO.N,GND*%
X151050000Y-44490000D03*
D17*
%TO.P,J2,S1,SHIELD*%
X158570000Y-49240000D03*
D18*
X154250000Y-48605000D03*
D19*
X157140000Y-45560000D03*
X151360000Y-45560000D03*
D20*
X158570000Y-45070000D03*
D17*
X149930000Y-49240000D03*
D21*
X154250000Y-48605000D03*
D20*
X149930000Y-45070000D03*
%TD*%
D22*
%TO.P,J1,1,Pin_1*%
%TO.N,IO1*%
X157500000Y-27600000D03*
D23*
%TO.P,J1,2,Pin_2*%
%TO.N,IO2*%
X155000000Y-27600000D03*
%TO.P,J1,3,Pin_3*%
%TO.N,IO3*%
X152500000Y-27600000D03*
%TO.P,J1,4,Pin_4*%
%TO.N,IO4*%
X150000000Y-27600000D03*
%TD*%
D24*
%TO.N,GND*%
X157454194Y-39622760D03*
%TO.N,EN*%
X151012299Y-31262299D03*
%TO.N,GND*%
X158250000Y-42500000D03*
X149500000Y-25750000D03*
X154375000Y-34375000D03*
X151500000Y-34500000D03*
X158000000Y-21750000D03*
%TO.N,VBUS*%
X149250000Y-42500000D03*
%TO.N,+3V3*%
X152500000Y-31250000D03*
X152000000Y-40500000D03*
%TO.N,Net-(J2-PadA7)*%
X154781215Y-42517981D03*
X152750000Y-42500000D03*
%TO.N,Net-(J2-PadA6)*%
X153762299Y-42512299D03*
%TO.N,Net-(J2-PadB5)*%
X155780550Y-42499655D03*
%TO.N,R*%
X154800000Y-22400000D03*
%TO.N,G*%
X154816777Y-23995974D03*
%TO.N,B*%
X158250000Y-30750000D03*
%TO.N,GPIO0*%
X156250000Y-30750000D03*
%TO.N,I*%
X154500000Y-30750000D03*
%TO.N,O*%
X157750000Y-34750000D03*
%TO.N,Net-(R11-Pad2)*%
X151750000Y-39000000D03*
X158000000Y-37250000D03*
%TO.N,Net-(J2-PadA5)*%
X150750000Y-42500000D03*
%TD*%
D25*
%TO.N,EN*%
X151012299Y-31262299D02*
G75*
G03*
X150775499Y-31499099I0J-236800D01*
G01*
X155950000Y-41150000D02*
G75*
G03*
X154524501Y-39724501I-1425499J0D01*
G01*
X150775499Y-39050099D02*
G75*
G03*
X151449901Y-39724501I674403J1D01*
G01*
X150775499Y-39050099D02*
X150775499Y-31499099D01*
X155950000Y-41150000D02*
X155950000Y-41450000D01*
X154524501Y-39724501D02*
X151449901Y-39724501D01*
%TO.N,GND*%
X152375000Y-33575000D02*
X152375000Y-33625000D01*
X152375000Y-33625000D02*
X151500000Y-34500000D01*
X149500000Y-25914243D02*
X149500000Y-25750000D01*
X149400000Y-29600000D02*
X149400000Y-29115046D01*
X148825480Y-27474520D02*
X148825480Y-27728033D01*
X149181989Y-26681989D02*
X149133795Y-26730183D01*
X149131989Y-28468011D02*
G75*
G02*
X149400000Y-29115046I-647036J-647036D01*
G01*
X149131989Y-28468011D02*
G75*
G02*
X148825480Y-27728033I739978J739978D01*
G01*
X149500000Y-25914243D02*
G75*
G02*
X149181989Y-26681989I-1085753J-1D01*
G01*
X148825481Y-27474520D02*
G75*
G02*
X149133796Y-26730184I1052652J-1D01*
G01*
%TO.N,VBUS*%
X156650000Y-44490000D02*
X156650000Y-43950000D01*
X150975499Y-43224501D02*
X150475499Y-43224501D01*
X149250000Y-42500000D02*
X149620242Y-42870242D01*
X159000000Y-43500000D02*
X157100000Y-43500000D01*
X159644511Y-49955489D02*
X159644511Y-44144511D01*
X150850000Y-51750000D02*
X157850000Y-51750000D01*
X148855489Y-42894511D02*
X148855489Y-49755489D01*
X151850000Y-44490000D02*
X151850000Y-44099002D01*
X150475499Y-43224500D02*
G75*
G02*
X149620243Y-42870241I2J1209520D01*
G01*
X148855489Y-42894511D02*
G75*
G02*
X149250000Y-42500000I394512J-1D01*
G01*
X159644511Y-49955489D02*
G75*
G02*
X157850000Y-51750000I-1794511J0D01*
G01*
X150975499Y-43224501D02*
G75*
G02*
X151850000Y-44099002I1J-874500D01*
G01*
X159000000Y-43500000D02*
G75*
G02*
X159644511Y-44144511I0J-644511D01*
G01*
X150850000Y-51750000D02*
G75*
G02*
X148855489Y-49755489I1J1994512D01*
G01*
X157100000Y-43500000D02*
G75*
G03*
X156650000Y-43950000I0J-450000D01*
G01*
%TO.N,+3V3*%
X152000000Y-41400000D02*
X151950000Y-41450000D01*
X150250000Y-31250000D02*
X150250000Y-39160304D01*
X151750000Y-30500000D02*
X151000000Y-30500000D01*
X152000000Y-40500000D02*
X152000000Y-41400000D01*
X152000000Y-40500000D02*
X151589696Y-40500000D01*
X150250000Y-31250000D02*
G75*
G02*
X151000000Y-30500000I750000J0D01*
G01*
X151750000Y-30500000D02*
G75*
G02*
X152500000Y-31250000I0J-750000D01*
G01*
X150250000Y-39160304D02*
G75*
G03*
X151589696Y-40500000I1339696J0D01*
G01*
%TO.N,IO2*%
X151950000Y-29650000D02*
X151950000Y-29150978D01*
X152175489Y-28925489D02*
X153674511Y-28925489D01*
X152175489Y-28925489D02*
G75*
G03*
X151950000Y-29150978I-1J-225488D01*
G01*
X155000000Y-27600000D02*
G75*
G02*
X153674511Y-28925489I-1325490J1D01*
G01*
%TO.N,IO1*%
X156750000Y-29650000D02*
X156750000Y-29410660D01*
X157500000Y-27600000D02*
G75*
G03*
X156750000Y-29410660I1810664J-1810662D01*
G01*
%TO.N,IO4*%
X150350000Y-29650000D02*
X150350000Y-27950000D01*
X150000000Y-27600000D02*
G75*
G02*
X150350000Y-27950000I-1J-350001D01*
G01*
%TO.N,IO3*%
X151150000Y-29650000D02*
X151150000Y-28950000D01*
X152500000Y-27600000D02*
G75*
G03*
X151150000Y-28950000I1J-1350001D01*
G01*
%TO.N,Net-(J2-PadA7)*%
X152876813Y-42806152D02*
X153135330Y-43064670D01*
X153500000Y-44490000D02*
X153500000Y-43945061D01*
X154500000Y-43196894D02*
X154500000Y-44490000D01*
X153135330Y-43064670D02*
G75*
G02*
X153500000Y-43945061I-880396J-880393D01*
G01*
X152876813Y-42806152D02*
G75*
G02*
X152750000Y-42500000I306140J306148D01*
G01*
X154500001Y-43196894D02*
G75*
G02*
X154781216Y-42517982I960123J2D01*
G01*
%TO.N,Net-(J2-PadA6)*%
X154000000Y-43086159D02*
X154000000Y-44490000D01*
X154000000Y-45125006D02*
X154000000Y-44490000D01*
X154740486Y-45384520D02*
X154259514Y-45384520D01*
X155000000Y-45125006D02*
X155000000Y-44490000D01*
X154000000Y-45125006D02*
G75*
G03*
X154259514Y-45384520I259514J0D01*
G01*
X155000000Y-45125006D02*
G75*
G02*
X154740486Y-45384520I-259514J0D01*
G01*
X153999999Y-43086159D02*
G75*
G03*
X153762298Y-42512300I-811564J-2D01*
G01*
%TO.N,Net-(J2-PadB5)*%
X156000000Y-42719105D02*
X155780550Y-42499655D01*
X156000000Y-44490000D02*
X156000000Y-42719105D01*
%TO.N,R*%
X158391677Y-25991677D02*
X154800000Y-22400000D01*
X157900480Y-28849520D02*
X158400480Y-28849520D01*
X157550000Y-29650000D02*
X157550000Y-29200000D01*
X158674520Y-28575480D02*
X158674520Y-26674520D01*
X157900480Y-28849520D02*
G75*
G03*
X157550000Y-29200000I-1J-350479D01*
G01*
X158391677Y-25991677D02*
G75*
G02*
X158674520Y-26674520I-682848J-682845D01*
G01*
X158674520Y-28575480D02*
G75*
G02*
X158400480Y-28849520I-274038J-2D01*
G01*
%TO.N,G*%
X155950000Y-29650000D02*
X155950000Y-29062132D01*
X156250000Y-28337868D02*
X156250000Y-25429197D01*
X156249999Y-28337868D02*
G75*
G02*
X156100000Y-28700000I-512125J-3D01*
G01*
X156100000Y-28700000D02*
G75*
G03*
X155950000Y-29062132I362137J-362134D01*
G01*
X154816777Y-23995974D02*
G75*
G02*
X156250000Y-25429197I1J-1433222D01*
G01*
%TO.N,B*%
X159250000Y-30750000D02*
X158250000Y-30750000D01*
%TO.N,GPIO0*%
X157050000Y-31550000D02*
X159250000Y-31550000D01*
X157050000Y-31550000D02*
G75*
G02*
X156250000Y-30750000I1J800001D01*
G01*
%TO.N,I*%
X154350000Y-29650000D02*
X154350000Y-30600000D01*
X154350000Y-30600000D02*
X154500000Y-30750000D01*
%TO.N,O*%
X157750000Y-32950000D02*
X157750000Y-34750000D01*
X154000000Y-32250000D02*
X157050000Y-32250000D01*
X153550000Y-29650000D02*
X153550000Y-31800000D01*
X157750000Y-32950000D02*
G75*
G03*
X157050000Y-32250000I-699999J1D01*
G01*
X154000000Y-32250000D02*
G75*
G02*
X153550000Y-31800000I0J450000D01*
G01*
%TO.N,Net-(R11-Pad2)*%
X158000000Y-37250000D02*
X158000000Y-37700000D01*
X151750000Y-39000000D02*
X156700000Y-39000000D01*
X156700000Y-39000000D02*
G75*
G03*
X158000000Y-37700000I1J1299999D01*
G01*
%TO.N,Net-(J2-PadA5)*%
X152371752Y-43171751D02*
X152400000Y-43200000D01*
X153000000Y-43800000D02*
X153000000Y-44490000D01*
X152400000Y-43200000D02*
X153000000Y-43800000D01*
X152371752Y-43171751D02*
G75*
G03*
X150750000Y-42500000I-1621754J-1621760D01*
G01*
%TD*%
%TA.AperFunction,Conductor*%
%TO.N,GND*%
G36*
X150955421Y-43605552D02*
G01*
X150975499Y-43608732D01*
X150985293Y-43607181D01*
X150995208Y-43607181D01*
X150995208Y-43608206D01*
X151009909Y-43607879D01*
X151045260Y-43611862D01*
X151071541Y-43614823D01*
X151099047Y-43621101D01*
X151176874Y-43648334D01*
X151202293Y-43660575D01*
X151245034Y-43687430D01*
X151292073Y-43740608D01*
X151304000Y-43794118D01*
X151304000Y-43839790D01*
X151301579Y-43864371D01*
X151295500Y-43894933D01*
X151295501Y-44451601D01*
X151295501Y-44618000D01*
X151275499Y-44686121D01*
X151221843Y-44732614D01*
X151169501Y-44744000D01*
X150633326Y-44744000D01*
X150607681Y-44751530D01*
X150302021Y-45057189D01*
X150294408Y-45071132D01*
X150294539Y-45072966D01*
X150298790Y-45079580D01*
X150968391Y-45749180D01*
X150980161Y-45755607D01*
X150992176Y-45746311D01*
X151020466Y-45705907D01*
X151025946Y-45696417D01*
X151051904Y-45640749D01*
X151098821Y-45587464D01*
X151166099Y-45567999D01*
X151394669Y-45567999D01*
X151401490Y-45567629D01*
X151452352Y-45562105D01*
X151467604Y-45558479D01*
X151588054Y-45513324D01*
X151603649Y-45504786D01*
X151705724Y-45428285D01*
X151718281Y-45415728D01*
X151756348Y-45364935D01*
X151813208Y-45322420D01*
X151857175Y-45314500D01*
X152163177Y-45314499D01*
X152175066Y-45314499D01*
X152249301Y-45299734D01*
X152249782Y-45302153D01*
X152303294Y-45296404D01*
X152320298Y-45301803D01*
X152320412Y-45301411D01*
X152329671Y-45304110D01*
X152338404Y-45308182D01*
X152347957Y-45309440D01*
X152347958Y-45309440D01*
X152373858Y-45312850D01*
X152386392Y-45314500D01*
X152613608Y-45314500D01*
X152661596Y-45308182D01*
X152696752Y-45291789D01*
X152766942Y-45281128D01*
X152803246Y-45291788D01*
X152838404Y-45308182D01*
X152886392Y-45314500D01*
X153113608Y-45314500D01*
X153161596Y-45308182D01*
X153196752Y-45291789D01*
X153266942Y-45281128D01*
X153303246Y-45291788D01*
X153338404Y-45308182D01*
X153386392Y-45314500D01*
X153559415Y-45314500D01*
X153627536Y-45334502D01*
X153674029Y-45388158D01*
X153677313Y-45396321D01*
X153677802Y-45397337D01*
X153680140Y-45404018D01*
X153756752Y-45525945D01*
X153858575Y-45627768D01*
X153980502Y-45704380D01*
X154116420Y-45751940D01*
X154123447Y-45752732D01*
X154123448Y-45752732D01*
X154148221Y-45755523D01*
X154168478Y-45757805D01*
X154180890Y-45759836D01*
X154185888Y-45760912D01*
X154193365Y-45763538D01*
X154198930Y-45764020D01*
X154216555Y-45764020D01*
X154230663Y-45764812D01*
X154241668Y-45766052D01*
X154247275Y-45766812D01*
X154259514Y-45768751D01*
X154269307Y-45767200D01*
X154269308Y-45767200D01*
X154279591Y-45765571D01*
X154299302Y-45764020D01*
X154700698Y-45764020D01*
X154720409Y-45765571D01*
X154730692Y-45767200D01*
X154730693Y-45767200D01*
X154740486Y-45768751D01*
X154752739Y-45766810D01*
X154758334Y-45766052D01*
X154876553Y-45752732D01*
X154876555Y-45752732D01*
X154883580Y-45751940D01*
X155019498Y-45704380D01*
X155141425Y-45627768D01*
X155243248Y-45525945D01*
X155319860Y-45404018D01*
X155322197Y-45397338D01*
X155325267Y-45390964D01*
X155326806Y-45391705D01*
X155363032Y-45341195D01*
X155429032Y-45315031D01*
X155440585Y-45314500D01*
X155613608Y-45314500D01*
X155661596Y-45308182D01*
X155696752Y-45291789D01*
X155766942Y-45281128D01*
X155803246Y-45291788D01*
X155838404Y-45308182D01*
X155886392Y-45314500D01*
X156113608Y-45314500D01*
X156126142Y-45312850D01*
X156152042Y-45309440D01*
X156152043Y-45309440D01*
X156161596Y-45308182D01*
X156170329Y-45304110D01*
X156179588Y-45301411D01*
X156180343Y-45304001D01*
X156236031Y-45295545D01*
X156250129Y-45299353D01*
X156250699Y-45299734D01*
X156253882Y-45300367D01*
X156253889Y-45300369D01*
X156318223Y-45313165D01*
X156324933Y-45314500D01*
X156642826Y-45314500D01*
X156710944Y-45334501D01*
X156743651Y-45364934D01*
X156781718Y-45415727D01*
X156794276Y-45428285D01*
X156896351Y-45504786D01*
X156911946Y-45513324D01*
X157032394Y-45558478D01*
X157047649Y-45562105D01*
X157098514Y-45567631D01*
X157105328Y-45568000D01*
X157333901Y-45568000D01*
X157402022Y-45588002D01*
X157448095Y-45640749D01*
X157474052Y-45696412D01*
X157479534Y-45705907D01*
X157508411Y-45747149D01*
X157518887Y-45755523D01*
X157532334Y-45748455D01*
X158197979Y-45082811D01*
X158205592Y-45068868D01*
X158205461Y-45067034D01*
X158201210Y-45060421D01*
X157897597Y-44756808D01*
X157874141Y-44744000D01*
X157330500Y-44744000D01*
X157262379Y-44723998D01*
X157215886Y-44670342D01*
X157204500Y-44618000D01*
X157204499Y-44005500D01*
X157224501Y-43937379D01*
X157278157Y-43890886D01*
X157330499Y-43879500D01*
X157578000Y-43879500D01*
X157646121Y-43899502D01*
X157692614Y-43953158D01*
X157704000Y-44005500D01*
X157704000Y-44082235D01*
X157707237Y-44093260D01*
X157714330Y-44090021D01*
X157742686Y-44061665D01*
X157804998Y-44027639D01*
X157875813Y-44032704D01*
X157920876Y-44061665D01*
X158082399Y-44223188D01*
X158105861Y-44236000D01*
X158172000Y-44236000D01*
X158240121Y-44256002D01*
X158286614Y-44309658D01*
X158298000Y-44362000D01*
X158298000Y-44420674D01*
X158305531Y-44446321D01*
X158840115Y-44980905D01*
X158874141Y-45043217D01*
X158869076Y-45114032D01*
X158840115Y-45159095D01*
X158570000Y-45429210D01*
X157890824Y-46108387D01*
X157884394Y-46120162D01*
X157893690Y-46132176D01*
X157934088Y-46160464D01*
X157943584Y-46165947D01*
X158133113Y-46254326D01*
X158143405Y-46258072D01*
X158345401Y-46312196D01*
X158356196Y-46314099D01*
X158564525Y-46332326D01*
X158575475Y-46332326D01*
X158783804Y-46314099D01*
X158794599Y-46312196D01*
X158996595Y-46258072D01*
X159006887Y-46254326D01*
X159085761Y-46217546D01*
X159155952Y-46206885D01*
X159220765Y-46235865D01*
X159259622Y-46295284D01*
X159265011Y-46331741D01*
X159265011Y-48112063D01*
X159245009Y-48180184D01*
X159191353Y-48226677D01*
X159121079Y-48236781D01*
X159086690Y-48225877D01*
X159086575Y-48226165D01*
X159082615Y-48224585D01*
X159081804Y-48224328D01*
X159081203Y-48224022D01*
X158898531Y-48151143D01*
X158887504Y-48147876D01*
X158694605Y-48109506D01*
X158683159Y-48108303D01*
X158486507Y-48105730D01*
X158475027Y-48106633D01*
X158281199Y-48139938D01*
X158270079Y-48142918D01*
X158085557Y-48210992D01*
X158075179Y-48215942D01*
X157984146Y-48270101D01*
X157974547Y-48280436D01*
X157978033Y-48288823D01*
X158840115Y-49150905D01*
X158874141Y-49213217D01*
X158869076Y-49284032D01*
X158840115Y-49329095D01*
X157981237Y-50187973D01*
X157975041Y-50199319D01*
X157984923Y-50211809D01*
X158022259Y-50236756D01*
X158032371Y-50242247D01*
X158213081Y-50319885D01*
X158224014Y-50323437D01*
X158415844Y-50366845D01*
X158427253Y-50368347D01*
X158623783Y-50376068D01*
X158635265Y-50375466D01*
X158829905Y-50347245D01*
X158841101Y-50344557D01*
X159013679Y-50285974D01*
X159084614Y-50283018D01*
X159145887Y-50318881D01*
X159178044Y-50382178D01*
X159170590Y-50453505D01*
X159114579Y-50588728D01*
X159105603Y-50606344D01*
X158999949Y-50778757D01*
X158988330Y-50794750D01*
X158857004Y-50948513D01*
X158843026Y-50962491D01*
X158689261Y-51093819D01*
X158673268Y-51105438D01*
X158500855Y-51211092D01*
X158483239Y-51220068D01*
X158464807Y-51227703D01*
X158296420Y-51297450D01*
X158277625Y-51303558D01*
X158133182Y-51338236D01*
X158080998Y-51350764D01*
X158061470Y-51353857D01*
X157884820Y-51367760D01*
X157869710Y-51367166D01*
X157869710Y-51367321D01*
X157859795Y-51367321D01*
X157850000Y-51365769D01*
X157840207Y-51367320D01*
X157840206Y-51367320D01*
X157832465Y-51368546D01*
X157830043Y-51368930D01*
X157829923Y-51368949D01*
X157810212Y-51370500D01*
X150889788Y-51370500D01*
X150870077Y-51368949D01*
X150850000Y-51365769D01*
X150840207Y-51367320D01*
X150830789Y-51367320D01*
X150815006Y-51367997D01*
X150651547Y-51356306D01*
X150629151Y-51354704D01*
X150611357Y-51352146D01*
X150563785Y-51341798D01*
X150403804Y-51306996D01*
X150386556Y-51301932D01*
X150187539Y-51227702D01*
X150171189Y-51220234D01*
X149984766Y-51118439D01*
X149969643Y-51108720D01*
X149799604Y-50981431D01*
X149786018Y-50969658D01*
X149635831Y-50819471D01*
X149624058Y-50805885D01*
X149496769Y-50635846D01*
X149487050Y-50620723D01*
X149420675Y-50499167D01*
X149405583Y-50429793D01*
X149430394Y-50363272D01*
X149487229Y-50320725D01*
X149558045Y-50315660D01*
X149570195Y-50318947D01*
X149584017Y-50323438D01*
X149775844Y-50366845D01*
X149787253Y-50368347D01*
X149983783Y-50376068D01*
X149995265Y-50375466D01*
X150189905Y-50347245D01*
X150201101Y-50344557D01*
X150387343Y-50281336D01*
X150397840Y-50276662D01*
X150516401Y-50210266D01*
X150526264Y-50200189D01*
X150523309Y-50192519D01*
X149659885Y-49329095D01*
X149625859Y-49266783D01*
X149627694Y-49241132D01*
X150294408Y-49241132D01*
X150294539Y-49242965D01*
X150298790Y-49249580D01*
X150878603Y-49829393D01*
X150890983Y-49836153D01*
X150897563Y-49831227D01*
X150966662Y-49707840D01*
X150971336Y-49697343D01*
X151034557Y-49511101D01*
X151037245Y-49499905D01*
X151065762Y-49303224D01*
X151066392Y-49295843D01*
X151067757Y-49243704D01*
X151067514Y-49236305D01*
X151065647Y-49215980D01*
X157432914Y-49215980D01*
X157445777Y-49412233D01*
X157447577Y-49423601D01*
X157495991Y-49614228D01*
X157499829Y-49625066D01*
X157582173Y-49803685D01*
X157587922Y-49813642D01*
X157597850Y-49827690D01*
X157608439Y-49836078D01*
X157621740Y-49829050D01*
X158197978Y-49252812D01*
X158205592Y-49238868D01*
X158205461Y-49237035D01*
X158201210Y-49230420D01*
X157620031Y-48649241D01*
X157607651Y-48642481D01*
X157601685Y-48646947D01*
X157521452Y-48799445D01*
X157517047Y-48810079D01*
X157458724Y-48997910D01*
X157456332Y-49009164D01*
X157433215Y-49204479D01*
X157432914Y-49215980D01*
X151065647Y-49215980D01*
X151049330Y-49038397D01*
X151047233Y-49027083D01*
X150993846Y-48837789D01*
X150989724Y-48827050D01*
X150902736Y-48650656D01*
X150901577Y-48648765D01*
X150892732Y-48642126D01*
X150880312Y-48648898D01*
X150302022Y-49227188D01*
X150294408Y-49241132D01*
X149627694Y-49241132D01*
X149630924Y-49195968D01*
X149659885Y-49150905D01*
X150518407Y-48292383D01*
X150525167Y-48280003D01*
X150519137Y-48271948D01*
X150451459Y-48229246D01*
X150441211Y-48224025D01*
X150258531Y-48151143D01*
X150247504Y-48147876D01*
X150054605Y-48109506D01*
X150043159Y-48108303D01*
X149846507Y-48105730D01*
X149835027Y-48106633D01*
X149641199Y-48139938D01*
X149630079Y-48142918D01*
X149445557Y-48210992D01*
X149435185Y-48215939D01*
X149425413Y-48221753D01*
X149356643Y-48239393D01*
X149289252Y-48217053D01*
X149244638Y-48161826D01*
X149234989Y-48113468D01*
X149234989Y-46331741D01*
X149254991Y-46263620D01*
X149308647Y-46217127D01*
X149378921Y-46207023D01*
X149414239Y-46217546D01*
X149493113Y-46254326D01*
X149503405Y-46258072D01*
X149705401Y-46312196D01*
X149716196Y-46314099D01*
X149924525Y-46332326D01*
X149935475Y-46332326D01*
X150143804Y-46314099D01*
X150154599Y-46312196D01*
X150356595Y-46258072D01*
X150366887Y-46254326D01*
X150556416Y-46165947D01*
X150565912Y-46160464D01*
X150607148Y-46131590D01*
X150615523Y-46121113D01*
X150608455Y-46107667D01*
X149659884Y-45159095D01*
X149625859Y-45096783D01*
X149630924Y-45025967D01*
X149659885Y-44980905D01*
X149930000Y-44710790D01*
X150189188Y-44451601D01*
X150202000Y-44428139D01*
X150202000Y-44362000D01*
X150222002Y-44293879D01*
X150275658Y-44247386D01*
X150328000Y-44236000D01*
X150386674Y-44236000D01*
X150412319Y-44228470D01*
X150579124Y-44061665D01*
X150641436Y-44027639D01*
X150712251Y-44032704D01*
X150757314Y-44061665D01*
X150783190Y-44087541D01*
X150793276Y-44093048D01*
X150796000Y-44085744D01*
X150796000Y-43730001D01*
X150816002Y-43661880D01*
X150869658Y-43615387D01*
X150922000Y-43604001D01*
X150935711Y-43604001D01*
X150955421Y-43605552D01*
G37*
%TD.AperFunction*%
%TA.AperFunction,Conductor*%
G36*
X158324951Y-38528898D02*
G01*
X158331953Y-38534541D01*
X158347865Y-38548329D01*
X158355548Y-38550000D01*
X159324000Y-38550000D01*
X159392121Y-38570002D01*
X159438614Y-38623658D01*
X159450000Y-38676000D01*
X159450000Y-38824000D01*
X159429998Y-38892121D01*
X159376342Y-38938614D01*
X159324000Y-38950000D01*
X158360116Y-38950000D01*
X158344877Y-38954475D01*
X158343672Y-38955865D01*
X158342001Y-38963548D01*
X158342001Y-38994669D01*
X158342371Y-39001490D01*
X158347895Y-39052352D01*
X158351521Y-39067604D01*
X158396676Y-39188054D01*
X158405214Y-39203649D01*
X158481715Y-39305724D01*
X158494272Y-39318281D01*
X158545065Y-39356348D01*
X158587580Y-39413208D01*
X158595500Y-39457175D01*
X158595501Y-39645895D01*
X158595501Y-39775066D01*
X158610266Y-39849301D01*
X158617161Y-39859621D01*
X158617162Y-39859622D01*
X158630777Y-39879998D01*
X158651992Y-39947751D01*
X158630777Y-40020002D01*
X158617161Y-40040379D01*
X158617160Y-40040382D01*
X158610266Y-40050699D01*
X158595500Y-40124933D01*
X158595501Y-40348718D01*
X158595501Y-40450287D01*
X158575499Y-40518407D01*
X158564726Y-40532799D01*
X158551671Y-40547865D01*
X158550000Y-40555548D01*
X158550000Y-41227885D01*
X158554475Y-41243124D01*
X158555865Y-41244329D01*
X158563548Y-41246000D01*
X159428000Y-41246000D01*
X159496121Y-41266002D01*
X159542614Y-41319658D01*
X159554000Y-41372000D01*
X159554000Y-42339884D01*
X159558475Y-42355123D01*
X159559865Y-42356328D01*
X159567548Y-42357999D01*
X159620000Y-42357999D01*
X159688121Y-42378001D01*
X159734614Y-42431657D01*
X159746000Y-42483999D01*
X159746000Y-43174735D01*
X159725998Y-43242856D01*
X159672342Y-43289349D01*
X159602068Y-43299453D01*
X159547729Y-43277948D01*
X159532599Y-43267354D01*
X159513962Y-43254304D01*
X159508980Y-43251981D01*
X159508975Y-43251978D01*
X159356552Y-43180902D01*
X159356550Y-43180901D01*
X159351570Y-43178579D01*
X159346262Y-43177157D01*
X159346260Y-43177156D01*
X159246442Y-43150410D01*
X159178497Y-43132204D01*
X159076936Y-43123319D01*
X159069693Y-43122227D01*
X159066149Y-43120982D01*
X159060584Y-43120500D01*
X159050218Y-43120500D01*
X159039235Y-43120020D01*
X159015931Y-43117981D01*
X159010551Y-43117321D01*
X159009796Y-43117321D01*
X159000000Y-43115769D01*
X158990207Y-43117320D01*
X158990206Y-43117320D01*
X158979923Y-43118949D01*
X158960212Y-43120500D01*
X157139788Y-43120500D01*
X157120077Y-43118949D01*
X157114275Y-43118030D01*
X157100000Y-43115769D01*
X157090207Y-43117320D01*
X157089858Y-43117320D01*
X157084331Y-43118029D01*
X156937389Y-43132502D01*
X156931469Y-43134298D01*
X156931463Y-43134299D01*
X156858066Y-43156564D01*
X156781028Y-43179933D01*
X156775574Y-43182848D01*
X156775572Y-43182849D01*
X156698687Y-43223945D01*
X156636924Y-43256958D01*
X156632139Y-43260885D01*
X156585434Y-43299215D01*
X156520087Y-43326969D01*
X156450108Y-43314987D01*
X156397717Y-43267075D01*
X156379500Y-43201816D01*
X156379500Y-42788933D01*
X156388593Y-42741937D01*
X156414556Y-42677353D01*
X156414558Y-42677346D01*
X156417392Y-42670296D01*
X156439712Y-42513462D01*
X156439857Y-42499655D01*
X156437963Y-42483999D01*
X156435652Y-42464909D01*
X156420826Y-42342388D01*
X156394924Y-42273841D01*
X156389556Y-42203049D01*
X156423313Y-42140592D01*
X156485479Y-42106300D01*
X156522708Y-42104057D01*
X156524933Y-42104500D01*
X156749963Y-42104500D01*
X156975066Y-42104499D01*
X157010818Y-42097388D01*
X157037126Y-42092156D01*
X157037128Y-42092155D01*
X157049301Y-42089734D01*
X157059621Y-42082839D01*
X157059622Y-42082838D01*
X157079998Y-42069223D01*
X157147751Y-42048008D01*
X157220002Y-42069223D01*
X157240379Y-42082839D01*
X157240382Y-42082840D01*
X157250699Y-42089734D01*
X157324933Y-42104500D01*
X157345051Y-42104500D01*
X157642825Y-42104499D01*
X157710944Y-42124501D01*
X157743650Y-42154934D01*
X157781715Y-42205724D01*
X157794276Y-42218285D01*
X157896351Y-42294786D01*
X157911946Y-42303324D01*
X158032394Y-42348478D01*
X158047649Y-42352105D01*
X158098514Y-42357631D01*
X158105328Y-42358000D01*
X158131885Y-42358000D01*
X158147124Y-42353525D01*
X158148329Y-42352135D01*
X158150000Y-42344452D01*
X158150000Y-42339884D01*
X158550000Y-42339884D01*
X158554475Y-42355123D01*
X158555865Y-42356328D01*
X158563548Y-42357999D01*
X158594669Y-42357999D01*
X158601490Y-42357629D01*
X158652352Y-42352105D01*
X158667603Y-42348479D01*
X158705770Y-42334171D01*
X158776577Y-42328988D01*
X158794230Y-42334171D01*
X158832394Y-42348478D01*
X158847649Y-42352105D01*
X158898514Y-42357631D01*
X158905328Y-42358000D01*
X159027885Y-42358000D01*
X159043124Y-42353525D01*
X159044329Y-42352135D01*
X159046000Y-42344452D01*
X159046000Y-41772115D01*
X159041525Y-41756876D01*
X159040135Y-41755671D01*
X159032452Y-41754000D01*
X158568115Y-41754000D01*
X158552876Y-41758475D01*
X158551671Y-41759865D01*
X158550000Y-41767548D01*
X158550000Y-42339884D01*
X158150000Y-42339884D01*
X158150000Y-40560116D01*
X158145525Y-40544877D01*
X158144135Y-40543672D01*
X158136452Y-40542001D01*
X158105331Y-40542001D01*
X158098510Y-40542371D01*
X158047648Y-40547895D01*
X158032396Y-40551521D01*
X157911946Y-40596676D01*
X157896351Y-40605214D01*
X157794276Y-40681715D01*
X157781719Y-40694272D01*
X157743652Y-40745065D01*
X157686792Y-40787580D01*
X157642825Y-40795500D01*
X157345059Y-40795501D01*
X157324934Y-40795501D01*
X157289182Y-40802612D01*
X157262874Y-40807844D01*
X157262872Y-40807845D01*
X157250699Y-40810266D01*
X157240379Y-40817161D01*
X157240378Y-40817162D01*
X157220002Y-40830777D01*
X157152249Y-40851992D01*
X157079998Y-40830777D01*
X157059621Y-40817161D01*
X157059618Y-40817160D01*
X157049301Y-40810266D01*
X156975067Y-40795500D01*
X156750037Y-40795500D01*
X156524934Y-40795501D01*
X156450699Y-40810266D01*
X156446347Y-40813174D01*
X156380698Y-40820232D01*
X156317212Y-40788452D01*
X156279492Y-40720816D01*
X156272541Y-40685871D01*
X156271737Y-40681829D01*
X156253126Y-40627001D01*
X156197007Y-40461681D01*
X156197006Y-40461680D01*
X156195681Y-40457775D01*
X156112457Y-40289014D01*
X156092857Y-40249268D01*
X156092854Y-40249263D01*
X156091030Y-40245564D01*
X155959576Y-40048828D01*
X155956862Y-40045734D01*
X155956858Y-40045728D01*
X155806276Y-39874023D01*
X155803567Y-39870934D01*
X155778899Y-39849301D01*
X155628773Y-39717643D01*
X155628767Y-39717639D01*
X155625673Y-39714925D01*
X155622243Y-39712633D01*
X155622235Y-39712627D01*
X155469038Y-39610265D01*
X155423510Y-39555789D01*
X155414661Y-39485346D01*
X155445302Y-39421301D01*
X155505704Y-39383990D01*
X155539039Y-39379500D01*
X156660212Y-39379500D01*
X156679922Y-39381051D01*
X156700000Y-39384231D01*
X156705077Y-39383427D01*
X156939628Y-39366652D01*
X156944032Y-39365694D01*
X157169971Y-39316544D01*
X157169975Y-39316543D01*
X157174378Y-39315585D01*
X157178595Y-39314012D01*
X157178599Y-39314011D01*
X157395260Y-39233201D01*
X157399472Y-39231630D01*
X157450716Y-39203649D01*
X157606372Y-39118654D01*
X157610326Y-39116495D01*
X157802648Y-38972524D01*
X157972524Y-38802648D01*
X158116495Y-38610326D01*
X158138514Y-38570002D01*
X158138854Y-38569380D01*
X158189056Y-38519178D01*
X158258431Y-38504087D01*
X158324951Y-38528898D01*
G37*
%TD.AperFunction*%
%TA.AperFunction,Conductor*%
G36*
X149596121Y-29366002D02*
G01*
X149642614Y-29419658D01*
X149654000Y-29472000D01*
X149654000Y-30479612D01*
X149651121Y-30506395D01*
X149650000Y-30511548D01*
X149650000Y-40587803D01*
X149654000Y-40615623D01*
X149654000Y-41227885D01*
X149658475Y-41243124D01*
X149659865Y-41244329D01*
X149667548Y-41246000D01*
X150131885Y-41246000D01*
X150147124Y-41241525D01*
X150148329Y-41240135D01*
X150150000Y-41232452D01*
X150150000Y-40628000D01*
X150170002Y-40559879D01*
X150223658Y-40513386D01*
X150276000Y-40502000D01*
X150339885Y-40502000D01*
X150388502Y-40487725D01*
X150459499Y-40487725D01*
X150519225Y-40526109D01*
X150548718Y-40590690D01*
X150550000Y-40608621D01*
X150550000Y-41231885D01*
X150554475Y-41247124D01*
X150555865Y-41248329D01*
X150563548Y-41250000D01*
X151224000Y-41250000D01*
X151292121Y-41270002D01*
X151338614Y-41323658D01*
X151350000Y-41376000D01*
X151350000Y-41524000D01*
X151329998Y-41592121D01*
X151276342Y-41638614D01*
X151224000Y-41650000D01*
X150316115Y-41650000D01*
X150300876Y-41654475D01*
X150298708Y-41656976D01*
X150265883Y-41717094D01*
X150203571Y-41751120D01*
X150176786Y-41754000D01*
X149272000Y-41754000D01*
X149203879Y-41733998D01*
X149157386Y-41680342D01*
X149146000Y-41628000D01*
X149146000Y-40721540D01*
X149166002Y-40653419D01*
X149219658Y-40606926D01*
X149236503Y-40600644D01*
X149247124Y-40597526D01*
X149248329Y-40596135D01*
X149250000Y-40588452D01*
X149250000Y-30516115D01*
X149245525Y-30500876D01*
X149243024Y-30498708D01*
X149182906Y-30465883D01*
X149148880Y-30403571D01*
X149146000Y-30376786D01*
X149146000Y-29472000D01*
X149166002Y-29403879D01*
X149219658Y-29357386D01*
X149272000Y-29346000D01*
X149528000Y-29346000D01*
X149596121Y-29366002D01*
G37*
%TD.AperFunction*%
%TA.AperFunction,Conductor*%
G36*
X151822369Y-31387910D02*
G01*
X151871289Y-31439362D01*
X151877539Y-31453638D01*
X151912553Y-31549319D01*
X152000908Y-31680805D01*
X152006527Y-31685918D01*
X152006528Y-31685919D01*
X152108971Y-31779134D01*
X152118076Y-31787419D01*
X152257293Y-31863008D01*
X152410522Y-31903207D01*
X152494477Y-31904526D01*
X152561319Y-31905576D01*
X152561322Y-31905576D01*
X152568916Y-31905695D01*
X152723332Y-31870329D01*
X152793742Y-31834917D01*
X152858072Y-31802563D01*
X152858075Y-31802561D01*
X152864855Y-31799151D01*
X152870628Y-31794220D01*
X152870633Y-31794217D01*
X152959490Y-31718326D01*
X153024279Y-31689295D01*
X153094479Y-31699900D01*
X153147802Y-31746775D01*
X153163335Y-31800382D01*
X153165768Y-31799997D01*
X153167085Y-31808311D01*
X153168029Y-31815669D01*
X153182502Y-31962611D01*
X153184298Y-31968531D01*
X153184299Y-31968537D01*
X153209223Y-32050699D01*
X153229933Y-32118972D01*
X153250049Y-32156606D01*
X153264520Y-32226109D01*
X153239117Y-32292406D01*
X153181904Y-32334444D01*
X153138926Y-32342000D01*
X152647115Y-32342000D01*
X152631876Y-32346475D01*
X152630671Y-32347865D01*
X152629000Y-32355548D01*
X152629000Y-33302885D01*
X152633475Y-33318124D01*
X152634865Y-33319329D01*
X152642548Y-33321000D01*
X156453000Y-33321000D01*
X156521121Y-33341002D01*
X156567614Y-33394658D01*
X156579000Y-33447000D01*
X156579000Y-35277885D01*
X156583475Y-35293124D01*
X156584865Y-35294329D01*
X156592548Y-35296000D01*
X157351880Y-35296000D01*
X157412002Y-35311269D01*
X157507293Y-35363008D01*
X157660522Y-35403207D01*
X157744477Y-35404526D01*
X157811319Y-35405576D01*
X157811322Y-35405576D01*
X157818916Y-35405695D01*
X157973332Y-35370329D01*
X158075658Y-35318865D01*
X158108072Y-35302563D01*
X158108075Y-35302561D01*
X158114855Y-35299151D01*
X158120626Y-35294222D01*
X158120629Y-35294220D01*
X158229536Y-35201204D01*
X158229536Y-35201203D01*
X158235314Y-35196269D01*
X158327755Y-35067624D01*
X158361291Y-34984201D01*
X158405258Y-34928457D01*
X158472383Y-34905332D01*
X158541354Y-34922169D01*
X158590274Y-34973622D01*
X158601776Y-35006617D01*
X158610266Y-35049301D01*
X158617161Y-35059621D01*
X158617162Y-35059622D01*
X158630777Y-35079998D01*
X158651992Y-35147751D01*
X158630777Y-35220002D01*
X158617161Y-35240379D01*
X158617160Y-35240382D01*
X158610266Y-35250699D01*
X158595500Y-35324933D01*
X158595501Y-35775066D01*
X158610266Y-35849301D01*
X158617161Y-35859621D01*
X158617162Y-35859622D01*
X158630777Y-35879998D01*
X158651992Y-35947751D01*
X158630777Y-36020002D01*
X158617161Y-36040379D01*
X158617160Y-36040382D01*
X158610266Y-36050699D01*
X158595500Y-36124933D01*
X158595501Y-36575066D01*
X158601648Y-36605971D01*
X158595320Y-36676682D01*
X158551765Y-36732749D01*
X158484812Y-36756368D01*
X158415719Y-36740041D01*
X158394250Y-36724626D01*
X158381946Y-36713664D01*
X158376275Y-36708611D01*
X158368889Y-36704700D01*
X158242988Y-36638039D01*
X158242989Y-36638039D01*
X158236274Y-36634484D01*
X158082633Y-36595892D01*
X158075034Y-36595852D01*
X158075033Y-36595852D01*
X158009181Y-36595507D01*
X157924221Y-36595062D01*
X157916841Y-36596834D01*
X157916839Y-36596834D01*
X157777563Y-36630271D01*
X157777560Y-36630272D01*
X157770184Y-36632043D01*
X157763439Y-36635524D01*
X157763440Y-36635524D01*
X157694605Y-36671052D01*
X157624897Y-36684521D01*
X157558974Y-36658166D01*
X157518833Y-36603314D01*
X157510741Y-36581728D01*
X157505558Y-36510921D01*
X157510741Y-36493271D01*
X157548478Y-36392609D01*
X157552105Y-36377351D01*
X157557631Y-36326486D01*
X157558000Y-36319672D01*
X157558000Y-35822115D01*
X157553525Y-35806876D01*
X157552135Y-35805671D01*
X157544452Y-35804000D01*
X156597115Y-35804000D01*
X156581876Y-35808475D01*
X156580671Y-35809865D01*
X156579000Y-35817548D01*
X156579000Y-37653000D01*
X156558998Y-37721121D01*
X156505342Y-37767614D01*
X156453000Y-37779000D01*
X152247000Y-37779000D01*
X152178879Y-37758998D01*
X152132386Y-37705342D01*
X152121000Y-37653000D01*
X152121000Y-37252885D01*
X152629000Y-37252885D01*
X152633475Y-37268124D01*
X152634865Y-37269329D01*
X152642548Y-37271000D01*
X154077885Y-37271000D01*
X154093124Y-37266525D01*
X154094329Y-37265135D01*
X154096000Y-37257452D01*
X154096000Y-37252885D01*
X154604000Y-37252885D01*
X154608475Y-37268124D01*
X154609865Y-37269329D01*
X154617548Y-37271000D01*
X156052885Y-37271000D01*
X156068124Y-37266525D01*
X156069329Y-37265135D01*
X156071000Y-37257452D01*
X156071000Y-35822115D01*
X156066525Y-35806876D01*
X156065135Y-35805671D01*
X156057452Y-35804000D01*
X154622115Y-35804000D01*
X154606876Y-35808475D01*
X154605671Y-35809865D01*
X154604000Y-35817548D01*
X154604000Y-37252885D01*
X154096000Y-37252885D01*
X154096000Y-35822115D01*
X154091525Y-35806876D01*
X154090135Y-35805671D01*
X154082452Y-35804000D01*
X152647115Y-35804000D01*
X152631876Y-35808475D01*
X152630671Y-35809865D01*
X152629000Y-35817548D01*
X152629000Y-37252885D01*
X152121000Y-37252885D01*
X152121000Y-35277885D01*
X152629000Y-35277885D01*
X152633475Y-35293124D01*
X152634865Y-35294329D01*
X152642548Y-35296000D01*
X154077885Y-35296000D01*
X154093124Y-35291525D01*
X154094329Y-35290135D01*
X154096000Y-35282452D01*
X154096000Y-35277885D01*
X154604000Y-35277885D01*
X154608475Y-35293124D01*
X154609865Y-35294329D01*
X154617548Y-35296000D01*
X156052885Y-35296000D01*
X156068124Y-35291525D01*
X156069329Y-35290135D01*
X156071000Y-35282452D01*
X156071000Y-33847115D01*
X156066525Y-33831876D01*
X156065135Y-33830671D01*
X156057452Y-33829000D01*
X154622115Y-33829000D01*
X154606876Y-33833475D01*
X154605671Y-33834865D01*
X154604000Y-33842548D01*
X154604000Y-35277885D01*
X154096000Y-35277885D01*
X154096000Y-33847115D01*
X154091525Y-33831876D01*
X154090135Y-33830671D01*
X154082452Y-33829000D01*
X152647115Y-33829000D01*
X152631876Y-33833475D01*
X152630671Y-33834865D01*
X152629000Y-33842548D01*
X152629000Y-35277885D01*
X152121000Y-35277885D01*
X152121000Y-32360116D01*
X152116525Y-32344877D01*
X152115135Y-32343672D01*
X152107452Y-32342001D01*
X151605331Y-32342001D01*
X151598510Y-32342371D01*
X151547648Y-32347895D01*
X151532396Y-32351521D01*
X151411946Y-32396676D01*
X151396351Y-32405214D01*
X151356564Y-32435033D01*
X151290057Y-32459881D01*
X151220675Y-32444828D01*
X151170445Y-32394654D01*
X151154999Y-32334207D01*
X151154999Y-31999242D01*
X151175001Y-31931121D01*
X151228657Y-31884628D01*
X151230914Y-31883708D01*
X151235631Y-31882628D01*
X151242411Y-31879218D01*
X151242414Y-31879217D01*
X151370371Y-31814862D01*
X151370374Y-31814860D01*
X151377154Y-31811450D01*
X151382925Y-31806521D01*
X151382928Y-31806519D01*
X151491835Y-31713503D01*
X151491835Y-31713502D01*
X151497613Y-31708568D01*
X151590054Y-31579923D01*
X151592888Y-31572874D01*
X151592891Y-31572868D01*
X151642306Y-31449943D01*
X151686272Y-31394198D01*
X151753397Y-31371073D01*
X151822369Y-31387910D01*
G37*
%TD.AperFunction*%
%TA.AperFunction,Conductor*%
G36*
X159688121Y-21274002D02*
G01*
X159734614Y-21327658D01*
X159746000Y-21380000D01*
X159746000Y-28616000D01*
X159725998Y-28684121D01*
X159672342Y-28730614D01*
X159620000Y-28742000D01*
X159572115Y-28742000D01*
X159556876Y-28746475D01*
X159555671Y-28747865D01*
X159554000Y-28755548D01*
X159554000Y-29728000D01*
X159533998Y-29796121D01*
X159480342Y-29842614D01*
X159428000Y-29854000D01*
X159172000Y-29854000D01*
X159103879Y-29833998D01*
X159057386Y-29780342D01*
X159046000Y-29728000D01*
X159046000Y-28752786D01*
X159042594Y-28713598D01*
X159047999Y-28665617D01*
X159050030Y-28653200D01*
X159050911Y-28649109D01*
X159053538Y-28641629D01*
X159054020Y-28636064D01*
X159054020Y-28619254D01*
X159054812Y-28605151D01*
X159056368Y-28591337D01*
X159057128Y-28585725D01*
X159057200Y-28585272D01*
X159057200Y-28585269D01*
X159058751Y-28575477D01*
X159055570Y-28555395D01*
X159054020Y-28535695D01*
X159054020Y-26714307D01*
X159055571Y-26694596D01*
X159057200Y-26684311D01*
X159058751Y-26674519D01*
X159056506Y-26660344D01*
X159055226Y-26648883D01*
X159054448Y-26637004D01*
X159052509Y-26607430D01*
X159045643Y-26502673D01*
X159045642Y-26502666D01*
X159045373Y-26498561D01*
X159040871Y-26475924D01*
X159011777Y-26329663D01*
X159011775Y-26329657D01*
X159010971Y-26325613D01*
X159008538Y-26318444D01*
X158955619Y-26162550D01*
X158955619Y-26162549D01*
X158954290Y-26158635D01*
X158952467Y-26154939D01*
X158952464Y-26154931D01*
X158878119Y-26004177D01*
X158876298Y-26000484D01*
X158778332Y-25853866D01*
X158711658Y-25777838D01*
X158707124Y-25771833D01*
X158706457Y-25770445D01*
X158702863Y-25766169D01*
X158694080Y-25757386D01*
X158688444Y-25751369D01*
X158679005Y-25740606D01*
X158671808Y-25731599D01*
X158663370Y-25719985D01*
X158646921Y-25708034D01*
X158631887Y-25695193D01*
X155490143Y-22553449D01*
X155456117Y-22491137D01*
X155454495Y-22446601D01*
X155458581Y-22417892D01*
X155458581Y-22417886D01*
X155459162Y-22413807D01*
X155459307Y-22400000D01*
X155440276Y-22242733D01*
X155384280Y-22094546D01*
X155294553Y-21963992D01*
X155176275Y-21858611D01*
X155168889Y-21854700D01*
X155042988Y-21788039D01*
X155042989Y-21788039D01*
X155036274Y-21784484D01*
X154882633Y-21745892D01*
X154875034Y-21745852D01*
X154875033Y-21745852D01*
X154809181Y-21745507D01*
X154724221Y-21745062D01*
X154716841Y-21746834D01*
X154716839Y-21746834D01*
X154577563Y-21780271D01*
X154577560Y-21780272D01*
X154570184Y-21782043D01*
X154429414Y-21854700D01*
X154310039Y-21958838D01*
X154218950Y-22088444D01*
X154161406Y-22236037D01*
X154140729Y-22393096D01*
X154143016Y-22413807D01*
X154153518Y-22508930D01*
X154158113Y-22550553D01*
X154212553Y-22699319D01*
X154300908Y-22830805D01*
X154418076Y-22937419D01*
X154557293Y-23013008D01*
X154710522Y-23053207D01*
X154807138Y-23054725D01*
X154868772Y-23055693D01*
X154936570Y-23076762D01*
X154955888Y-23092582D01*
X154990211Y-23126905D01*
X155024237Y-23189217D01*
X155019172Y-23260032D01*
X154976625Y-23316868D01*
X154910105Y-23341679D01*
X154899412Y-23341390D01*
X154899410Y-23341866D01*
X154740998Y-23341036D01*
X154733618Y-23342808D01*
X154733616Y-23342808D01*
X154594340Y-23376245D01*
X154594337Y-23376246D01*
X154586961Y-23378017D01*
X154446191Y-23450674D01*
X154326816Y-23554812D01*
X154235727Y-23684418D01*
X154178183Y-23832011D01*
X154157506Y-23989070D01*
X154174890Y-24146527D01*
X154229330Y-24295293D01*
X154317685Y-24426779D01*
X154323304Y-24431892D01*
X154323305Y-24431893D01*
X154416448Y-24516646D01*
X154434853Y-24533393D01*
X154574070Y-24608982D01*
X154727299Y-24649181D01*
X154811254Y-24650500D01*
X154878096Y-24651550D01*
X154878099Y-24651550D01*
X154885693Y-24651669D01*
X155040109Y-24616303D01*
X155181632Y-24545125D01*
X155198755Y-24530501D01*
X155263541Y-24501470D01*
X155333742Y-24512074D01*
X155352854Y-24523098D01*
X155431624Y-24578254D01*
X155485071Y-24615678D01*
X155501895Y-24629796D01*
X155616178Y-24744079D01*
X155630296Y-24760903D01*
X155723004Y-24893304D01*
X155733986Y-24912325D01*
X155802294Y-25058811D01*
X155809805Y-25079447D01*
X155851640Y-25235577D01*
X155855453Y-25257200D01*
X155867469Y-25394545D01*
X155866946Y-25409487D01*
X155867321Y-25409487D01*
X155867321Y-25419401D01*
X155865769Y-25429197D01*
X155867320Y-25438990D01*
X155867320Y-25438991D01*
X155868949Y-25449274D01*
X155870500Y-25468985D01*
X155870500Y-26541840D01*
X155850498Y-26609961D01*
X155796842Y-26656454D01*
X155726568Y-26666558D01*
X155661918Y-26637004D01*
X155648835Y-26625651D01*
X155648834Y-26625650D01*
X155644304Y-26621719D01*
X155461874Y-26516181D01*
X155262778Y-26447043D01*
X155256845Y-26446183D01*
X155256842Y-26446182D01*
X155060140Y-26417662D01*
X155060137Y-26417662D01*
X155054200Y-26416801D01*
X154843667Y-26426545D01*
X154837843Y-26427949D01*
X154837840Y-26427949D01*
X154644607Y-26474518D01*
X154644605Y-26474519D01*
X154638774Y-26475924D01*
X154633316Y-26478406D01*
X154633312Y-26478407D01*
X154554562Y-26514213D01*
X154446916Y-26563157D01*
X154275014Y-26685096D01*
X154129272Y-26837340D01*
X154126021Y-26842375D01*
X154068848Y-26930921D01*
X154014948Y-27014397D01*
X153936166Y-27209878D01*
X153895771Y-27416729D01*
X153895500Y-27422270D01*
X153895500Y-27727659D01*
X153910493Y-27884806D01*
X153969823Y-28087042D01*
X154066324Y-28274410D01*
X154070028Y-28279125D01*
X154070029Y-28279127D01*
X154073245Y-28283221D01*
X154099597Y-28349146D01*
X154086123Y-28418852D01*
X154037103Y-28470209D01*
X154027413Y-28475250D01*
X154008051Y-28484279D01*
X153987410Y-28491792D01*
X153849423Y-28528765D01*
X153827794Y-28532578D01*
X153709167Y-28542957D01*
X153694222Y-28542436D01*
X153694222Y-28542810D01*
X153684306Y-28542810D01*
X153674511Y-28541258D01*
X153664718Y-28542809D01*
X153664717Y-28542809D01*
X153654434Y-28544438D01*
X153634723Y-28545989D01*
X153483695Y-28545989D01*
X153415574Y-28525987D01*
X153369081Y-28472331D01*
X153358977Y-28402057D01*
X153377843Y-28351642D01*
X153481797Y-28190645D01*
X153481799Y-28190641D01*
X153485052Y-28185603D01*
X153563834Y-27990122D01*
X153604229Y-27783271D01*
X153604500Y-27777730D01*
X153604500Y-27472341D01*
X153589507Y-27315194D01*
X153530177Y-27112958D01*
X153479415Y-27014397D01*
X153436422Y-26930921D01*
X153436420Y-26930918D01*
X153433676Y-26925590D01*
X153364355Y-26837340D01*
X153307192Y-26764568D01*
X153307188Y-26764564D01*
X153303486Y-26759851D01*
X153298955Y-26755919D01*
X153148835Y-26625650D01*
X153148830Y-26625646D01*
X153144304Y-26621719D01*
X152961874Y-26516181D01*
X152762778Y-26447043D01*
X152756845Y-26446183D01*
X152756842Y-26446182D01*
X152560140Y-26417662D01*
X152560137Y-26417662D01*
X152554200Y-26416801D01*
X152343667Y-26426545D01*
X152337843Y-26427949D01*
X152337840Y-26427949D01*
X152144607Y-26474518D01*
X152144605Y-26474519D01*
X152138774Y-26475924D01*
X152133316Y-26478406D01*
X152133312Y-26478407D01*
X152054562Y-26514213D01*
X151946916Y-26563157D01*
X151775014Y-26685096D01*
X151629272Y-26837340D01*
X151626021Y-26842375D01*
X151568848Y-26930921D01*
X151514948Y-27014397D01*
X151436166Y-27209878D01*
X151395771Y-27416729D01*
X151395500Y-27422270D01*
X151395500Y-27556428D01*
X151375498Y-27624549D01*
X151358595Y-27645523D01*
X151319595Y-27684523D01*
X151257283Y-27718549D01*
X151186468Y-27713484D01*
X151129632Y-27670937D01*
X151104821Y-27604417D01*
X151104500Y-27595428D01*
X151104500Y-27472341D01*
X151089507Y-27315194D01*
X151030177Y-27112958D01*
X150979415Y-27014397D01*
X150936422Y-26930921D01*
X150936420Y-26930918D01*
X150933676Y-26925590D01*
X150864355Y-26837340D01*
X150807192Y-26764568D01*
X150807188Y-26764564D01*
X150803486Y-26759851D01*
X150798955Y-26755919D01*
X150648835Y-26625650D01*
X150648830Y-26625646D01*
X150644304Y-26621719D01*
X150461874Y-26516181D01*
X150262778Y-26447043D01*
X150256845Y-26446183D01*
X150256842Y-26446182D01*
X150060140Y-26417662D01*
X150060137Y-26417662D01*
X150054200Y-26416801D01*
X149843667Y-26426545D01*
X149837843Y-26427949D01*
X149837840Y-26427949D01*
X149644607Y-26474518D01*
X149644605Y-26474519D01*
X149638774Y-26475924D01*
X149633316Y-26478406D01*
X149633312Y-26478407D01*
X149554562Y-26514213D01*
X149446916Y-26563157D01*
X149275014Y-26685096D01*
X149270876Y-26689419D01*
X149270871Y-26689423D01*
X149217018Y-26745679D01*
X149155462Y-26781055D01*
X149084553Y-26777536D01*
X149026803Y-26736239D01*
X149000547Y-26670276D01*
X149000000Y-26658548D01*
X149000000Y-21380000D01*
X149020002Y-21311879D01*
X149073658Y-21265386D01*
X149126000Y-21254000D01*
X159620000Y-21254000D01*
X159688121Y-21274002D01*
G37*
%TD.AperFunction*%
%TA.AperFunction,Conductor*%
G36*
X149208580Y-28450620D02*
G01*
X149282661Y-28514904D01*
X149289497Y-28520836D01*
X149327838Y-28580590D01*
X149327787Y-28651586D01*
X149289360Y-28711285D01*
X149224758Y-28740731D01*
X149206916Y-28742001D01*
X149126000Y-28742001D01*
X149057879Y-28721999D01*
X149011386Y-28668343D01*
X149000000Y-28616001D01*
X149000000Y-28545785D01*
X149020002Y-28477664D01*
X149073658Y-28431171D01*
X149143932Y-28421067D01*
X149208580Y-28450620D01*
G37*
%TD.AperFunction*%
%TD*%
M02*
