%TF.GenerationSoftware,KiCad,Pcbnew,(6.0.0-0)*%
%TF.CreationDate,2021-12-30T08:15:42+00:00*%
%TF.ProjectId,Generic,47656e65-7269-4632-9e6b-696361645f70,6*%
%TF.SameCoordinates,Original*%
%TF.FileFunction,Paste,Bot*%
%TF.FilePolarity,Positive*%
%FSLAX46Y46*%
G04 Gerber Fmt 4.6, Leading zero omitted, Abs format (unit mm)*
G04 Created by KiCad (PCBNEW (6.0.0-0)) date 2021-12-30 08:15:42*
%MOMM*%
%LPD*%
G01*
G04 APERTURE LIST*
G04 Aperture macros list*
%AMRoundRect*
0 Rectangle with rounded corners*
0 $1 Rounding radius*
0 $2 $3 $4 $5 $6 $7 $8 $9 X,Y pos of 4 corners*
0 Add a 4 corners polygon primitive as box body*
4,1,4,$2,$3,$4,$5,$6,$7,$8,$9,$2,$3,0*
0 Add four circle primitives for the rounded corners*
1,1,$1+$1,$2,$3*
1,1,$1+$1,$4,$5*
1,1,$1+$1,$6,$7*
1,1,$1+$1,$8,$9*
0 Add four rect primitives between the rounded corners*
20,1,$1+$1,$2,$3,$4,$5,0*
20,1,$1+$1,$4,$5,$6,$7,0*
20,1,$1+$1,$6,$7,$8,$9,0*
20,1,$1+$1,$8,$9,$2,$3,0*%
G04 Aperture macros list end*
%ADD10RoundRect,0.232500X0.232500X0.232500X-0.232500X0.232500X-0.232500X-0.232500X0.232500X-0.232500X0*%
%ADD11R,1.920000X0.864000*%
%ADD12R,0.864000X1.920000*%
G04 APERTURE END LIST*
D10*
%TO.C,U1*%
X127135000Y-105665000D03*
X127135000Y-106815000D03*
X127135000Y-107965000D03*
X128285000Y-107965000D03*
X125985000Y-105665000D03*
X129435000Y-109115000D03*
X125985000Y-107965000D03*
X125985000Y-106815000D03*
X128285000Y-109115000D03*
X129435000Y-106815000D03*
X127135000Y-109115000D03*
X125985000Y-109115000D03*
X128285000Y-105665000D03*
X129435000Y-105665000D03*
X129435000Y-107965000D03*
X128285000Y-106815000D03*
D11*
X135200000Y-99895000D03*
X135200000Y-101165000D03*
X135200000Y-102435000D03*
X135200000Y-103705000D03*
X135200000Y-104975000D03*
X135200000Y-106245000D03*
X135200000Y-107515000D03*
X135200000Y-108785000D03*
X135200000Y-110055000D03*
X135200000Y-111325000D03*
X135200000Y-112595000D03*
X135200000Y-113865000D03*
X135200000Y-115135000D03*
X135200000Y-116405000D03*
D12*
X132415000Y-117405000D03*
X131145000Y-117405000D03*
X129875000Y-117405000D03*
X128605000Y-117405000D03*
X127335000Y-117405000D03*
X126065000Y-117405000D03*
X124795000Y-117405000D03*
X123525000Y-117405000D03*
X122255000Y-117405000D03*
X120985000Y-117405000D03*
D11*
X118200000Y-116405000D03*
X118200000Y-115135000D03*
X118200000Y-113865000D03*
X118200000Y-112595000D03*
X118200000Y-111325000D03*
X118200000Y-110055000D03*
X118200000Y-108785000D03*
X118200000Y-107515000D03*
X118200000Y-106245000D03*
X118200000Y-104975000D03*
X118200000Y-103705000D03*
X118200000Y-102435000D03*
X118200000Y-101165000D03*
X118200000Y-99895000D03*
%TD*%
M02*
