%TF.GenerationSoftware,KiCad,Pcbnew,(6.0.2-0)*%
%TF.CreationDate,2022-03-04T11:33:52+00:00*%
%TF.ProjectId,Generic5,47656e65-7269-4633-952e-6b696361645f,1*%
%TF.SameCoordinates,Original*%
%TF.FileFunction,Soldermask,Top*%
%TF.FilePolarity,Negative*%
%FSLAX46Y46*%
G04 Gerber Fmt 4.6, Leading zero omitted, Abs format (unit mm)*
G04 Created by KiCad (PCBNEW (6.0.2-0)) date 2022-03-04 11:33:52*
%MOMM*%
%LPD*%
G01*
G04 APERTURE LIST*
G04 Aperture macros list*
%AMRoundRect*
0 Rectangle with rounded corners*
0 $1 Rounding radius*
0 $2 $3 $4 $5 $6 $7 $8 $9 X,Y pos of 4 corners*
0 Add a 4 corners polygon primitive as box body*
4,1,4,$2,$3,$4,$5,$6,$7,$8,$9,$2,$3,0*
0 Add four circle primitives for the rounded corners*
1,1,$1+$1,$2,$3*
1,1,$1+$1,$4,$5*
1,1,$1+$1,$6,$7*
1,1,$1+$1,$8,$9*
0 Add four rect primitives between the rounded corners*
20,1,$1+$1,$2,$3,$4,$5,0*
20,1,$1+$1,$4,$5,$6,$7,0*
20,1,$1+$1,$6,$7,$8,$9,0*
20,1,$1+$1,$8,$9,$2,$3,0*%
%AMOutline5P*
0 Free polygon, 5 corners , with rotation*
0 The origin of the aperture is its center*
0 number of corners: always 5*
0 $1 to $10 corner X, Y*
0 $11 Rotation angle, in degrees counterclockwise*
0 create outline with 5 corners*
4,1,5,$1,$2,$3,$4,$5,$6,$7,$8,$9,$10,$1,$2,$11*%
%AMOutline6P*
0 Free polygon, 6 corners , with rotation*
0 The origin of the aperture is its center*
0 number of corners: always 6*
0 $1 to $12 corner X, Y*
0 $13 Rotation angle, in degrees counterclockwise*
0 create outline with 6 corners*
4,1,6,$1,$2,$3,$4,$5,$6,$7,$8,$9,$10,$11,$12,$1,$2,$13*%
%AMOutline7P*
0 Free polygon, 7 corners , with rotation*
0 The origin of the aperture is its center*
0 number of corners: always 7*
0 $1 to $14 corner X, Y*
0 $15 Rotation angle, in degrees counterclockwise*
0 create outline with 7 corners*
4,1,7,$1,$2,$3,$4,$5,$6,$7,$8,$9,$10,$11,$12,$13,$14,$1,$2,$15*%
%AMOutline8P*
0 Free polygon, 8 corners , with rotation*
0 The origin of the aperture is its center*
0 number of corners: always 8*
0 $1 to $16 corner X, Y*
0 $17 Rotation angle, in degrees counterclockwise*
0 create outline with 8 corners*
4,1,8,$1,$2,$3,$4,$5,$6,$7,$8,$9,$10,$11,$12,$13,$14,$15,$16,$1,$2,$17*%
G04 Aperture macros list end*
%ADD10R,0.400000X0.800000*%
%ADD11R,0.800000X0.400000*%
%ADD12R,1.450000X1.450000*%
%ADD13Outline5P,-0.725000X0.130500X-0.130500X0.725000X0.725000X0.725000X0.725000X-0.725000X-0.725000X-0.725000X90.000000*%
%ADD14R,0.700000X0.700000*%
%ADD15R,0.600000X1.140000*%
%ADD16RoundRect,0.075000X-0.075000X-0.495000X0.075000X-0.495000X0.075000X0.495000X-0.075000X0.495000X0*%
%ADD17C,1.250000*%
%ADD18R,5.000000X5.490000*%
%ADD19C,0.870000*%
%ADD20C,1.500000*%
%ADD21RoundRect,0.250000X0.600000X0.675000X-0.600000X0.675000X-0.600000X-0.675000X0.600000X-0.675000X0*%
%ADD22O,1.700000X1.850000*%
G04 APERTURE END LIST*
D10*
%TO.C,U1*%
X150350000Y-41450000D03*
X151150000Y-41450000D03*
X151950000Y-41450000D03*
X152750000Y-41450000D03*
X153550000Y-41450000D03*
X154350000Y-41450000D03*
X155150000Y-41450000D03*
X155950000Y-41450000D03*
X156750000Y-41450000D03*
X157550000Y-41450000D03*
X158350000Y-41450000D03*
D11*
X159250000Y-40350000D03*
X159250000Y-39550000D03*
X159250000Y-38750000D03*
X159250000Y-37950000D03*
X159250000Y-37150000D03*
X159250000Y-36350000D03*
X159250000Y-35550000D03*
X159250000Y-34750000D03*
X159250000Y-33950000D03*
X159250000Y-33150000D03*
X159250000Y-32350000D03*
X159250000Y-31550000D03*
X159250000Y-30750000D03*
D10*
X158350000Y-29650000D03*
X157550000Y-29650000D03*
X156750000Y-29650000D03*
X155950000Y-29650000D03*
X155150000Y-29650000D03*
X154350000Y-29650000D03*
X153550000Y-29650000D03*
X152750000Y-29650000D03*
X151950000Y-29650000D03*
X151150000Y-29650000D03*
X150350000Y-29650000D03*
D11*
X149450000Y-30750000D03*
X149450000Y-31550000D03*
X149450000Y-32350000D03*
X149450000Y-33150000D03*
X149450000Y-33950000D03*
X149450000Y-34750000D03*
X149450000Y-35550000D03*
X149450000Y-36350000D03*
X149450000Y-37150000D03*
X149450000Y-37950000D03*
X149450000Y-38750000D03*
X149450000Y-39550000D03*
X149450000Y-40350000D03*
D12*
X154350000Y-37525000D03*
X156325000Y-37525000D03*
X154350000Y-33575000D03*
X152375000Y-33575000D03*
X152375000Y-35550000D03*
X154350000Y-35550000D03*
X156325000Y-35550000D03*
D13*
X152375000Y-37525000D03*
D12*
X156325000Y-33575000D03*
D14*
X149400000Y-29600000D03*
X159300000Y-29600000D03*
X159300000Y-41500000D03*
X149400000Y-41500000D03*
%TD*%
D15*
%TO.C,J2*%
X151050000Y-44490000D03*
X151850000Y-44490000D03*
D16*
X153000000Y-44490000D03*
X154000000Y-44490000D03*
X154500000Y-44490000D03*
X155500000Y-44490000D03*
D15*
X157450000Y-44490000D03*
X156650000Y-44490000D03*
D16*
X156000000Y-44490000D03*
X155000000Y-44490000D03*
X153500000Y-44490000D03*
X152500000Y-44490000D03*
D17*
X158570000Y-49240000D03*
D18*
X154250000Y-48605000D03*
D19*
X157140000Y-45560000D03*
X151360000Y-45560000D03*
D20*
X158570000Y-45070000D03*
D17*
X149930000Y-49240000D03*
D20*
X149930000Y-45070000D03*
%TD*%
D21*
%TO.C,J1*%
X157500000Y-27600000D03*
D22*
X155000000Y-27600000D03*
X152500000Y-27600000D03*
X150000000Y-27600000D03*
%TD*%
M02*
