M48
; DRILL file {KiCad (6.0.2-0)} date Monday, 02 May 2022 at 09:33:14
; FORMAT={-:-/ absolute / inch / decimal}
; #@! TF.CreationDate,2022-05-02T09:33:14+01:00
; #@! TF.GenerationSoftware,Kicad,Pcbnew,(6.0.2-0)
; #@! TF.FileFunction,Plated,1,2,PTH
FMAT,2
INCH
; #@! TA.AperFunction,Plated,PTH,ViaDrill
T1C0.0157
; #@! TA.AperFunction,Plated,PTH,ComponentDrill
T2C0.0394
%
G90
G05
T1
X3.6672Y-1.5472
X3.7618Y-1.8424
X3.8021Y-1.8661
X4.0157Y-1.8209
X4.0374Y-1.8935
X4.0585Y-1.5961
X4.0689Y-1.7667
X4.0709Y-1.8581
X4.131Y-1.8808
X4.138Y-1.8359
X4.1803Y-1.9663
X4.2081Y-1.7549
X4.2165Y-1.5433
T2
X3.6374Y-1.6053
X3.6374Y-1.7053
X3.6374Y-1.8053
X3.6374Y-1.9053
X3.6374Y-2.0053
X3.7374Y-2.0059
X3.8374Y-2.0059
X3.9374Y-2.0059
X4.0374Y-2.0059
X4.1374Y-2.0059
X4.2374Y-1.6059
X4.2374Y-1.7059
X4.2374Y-1.8059
X4.2374Y-1.9059
X4.2374Y-2.0059
T0
M30
