M48
; DRILL file {KiCad (6.0.2-0)} date Wednesday, 16 March 2022 at 16:58:33
; FORMAT={-:-/ absolute / inch / decimal}
; #@! TF.CreationDate,2022-03-16T16:58:33+00:00
; #@! TF.GenerationSoftware,Kicad,Pcbnew,(6.0.2-0)
; #@! TF.FileFunction,Plated,1,2,PTH
FMAT,2
INCH
; #@! TA.AperFunction,Plated,PTH,ViaDrill
T1C0.0157
; #@! TA.AperFunction,Plated,PTH,ComponentDrill
T2C0.0335
; #@! TA.AperFunction,Plated,PTH,ComponentDrill
T3C0.0394
%
G90
G05
T1
X3.7372Y-1.6467
X3.7441Y-1.8935
X3.7776Y-1.5994
X3.7835Y-1.8935
X3.8402Y-1.7815
X3.8701Y-1.8858
X4.0292Y-1.8722
X4.0684Y-1.8755
X4.0696Y-1.8276
X4.0846Y-2.1752
X4.0866Y-1.6949
X4.0941Y-1.7658
X4.1293Y-1.5902
X4.1299Y-1.8935
X4.1319Y-1.8367
T2
X3.7894Y-2.0252
X3.8878Y-2.0252
X3.9862Y-2.0252
X4.0846Y-2.0252
T3
X3.7372Y-2.1252
X3.7372Y-2.2252
X3.8372Y-2.1252
X3.8372Y-2.2252
X3.9372Y-2.1252
X3.9372Y-2.2252
X4.0372Y-2.1252
X4.0372Y-2.2252
X4.1372Y-2.1252
X4.1372Y-2.2252
T0
M30
