%TF.GenerationSoftware,KiCad,Pcbnew,(5.1.9-0-10_14)*%
%TF.CreationDate,2021-08-24T14:59:31+01:00*%
%TF.ProjectId,Generic,47656e65-7269-4632-9e6b-696361645f70,6*%
%TF.SameCoordinates,Original*%
%TF.FileFunction,Soldermask,Top*%
%TF.FilePolarity,Negative*%
%FSLAX46Y46*%
G04 Gerber Fmt 4.6, Leading zero omitted, Abs format (unit mm)*
G04 Created by KiCad (PCBNEW (5.1.9-0-10_14)) date 2021-08-24 14:59:31*
%MOMM*%
%LPD*%
G01*
G04 APERTURE LIST*
%ADD10R,0.850000X0.500000*%
%ADD11R,0.650000X0.400000*%
%ADD12C,0.350000*%
%ADD13C,0.100000*%
%ADD14R,0.600000X1.100000*%
%ADD15R,1.425000X3.700000*%
%ADD16R,0.800000X0.400000*%
%ADD17O,1.700000X1.700000*%
%ADD18R,1.700000X1.700000*%
%ADD19R,5.490000X5.000000*%
%ADD20R,1.140000X0.600000*%
%ADD21C,1.250000*%
%ADD22C,1.500000*%
%ADD23R,1.140000X0.300000*%
%ADD24C,0.800000*%
G04 APERTURE END LIST*
D10*
%TO.C,D1*%
X120075000Y-99200000D03*
X118325000Y-99200000D03*
X118325000Y-100200000D03*
X120075000Y-100200000D03*
%TD*%
%TO.C,C5*%
G36*
G01*
X131350000Y-117900000D02*
X131850000Y-117900000D01*
G75*
G02*
X132075000Y-118125000I0J-225000D01*
G01*
X132075000Y-118575000D01*
G75*
G02*
X131850000Y-118800000I-225000J0D01*
G01*
X131350000Y-118800000D01*
G75*
G02*
X131125000Y-118575000I0J225000D01*
G01*
X131125000Y-118125000D01*
G75*
G02*
X131350000Y-117900000I225000J0D01*
G01*
G37*
G36*
G01*
X131350000Y-116350000D02*
X131850000Y-116350000D01*
G75*
G02*
X132075000Y-116575000I0J-225000D01*
G01*
X132075000Y-117025000D01*
G75*
G02*
X131850000Y-117250000I-225000J0D01*
G01*
X131350000Y-117250000D01*
G75*
G02*
X131125000Y-117025000I0J225000D01*
G01*
X131125000Y-116575000D01*
G75*
G02*
X131350000Y-116350000I225000J0D01*
G01*
G37*
%TD*%
%TO.C,C4*%
G36*
G01*
X132550000Y-117900000D02*
X133050000Y-117900000D01*
G75*
G02*
X133275000Y-118125000I0J-225000D01*
G01*
X133275000Y-118575000D01*
G75*
G02*
X133050000Y-118800000I-225000J0D01*
G01*
X132550000Y-118800000D01*
G75*
G02*
X132325000Y-118575000I0J225000D01*
G01*
X132325000Y-118125000D01*
G75*
G02*
X132550000Y-117900000I225000J0D01*
G01*
G37*
G36*
G01*
X132550000Y-116350000D02*
X133050000Y-116350000D01*
G75*
G02*
X133275000Y-116575000I0J-225000D01*
G01*
X133275000Y-117025000D01*
G75*
G02*
X133050000Y-117250000I-225000J0D01*
G01*
X132550000Y-117250000D01*
G75*
G02*
X132325000Y-117025000I0J225000D01*
G01*
X132325000Y-116575000D01*
G75*
G02*
X132550000Y-116350000I225000J0D01*
G01*
G37*
%TD*%
%TO.C,C3*%
G36*
G01*
X124025000Y-109550000D02*
X124025000Y-109050000D01*
G75*
G02*
X124250000Y-108825000I225000J0D01*
G01*
X124700000Y-108825000D01*
G75*
G02*
X124925000Y-109050000I0J-225000D01*
G01*
X124925000Y-109550000D01*
G75*
G02*
X124700000Y-109775000I-225000J0D01*
G01*
X124250000Y-109775000D01*
G75*
G02*
X124025000Y-109550000I0J225000D01*
G01*
G37*
G36*
G01*
X122475000Y-109550000D02*
X122475000Y-109050000D01*
G75*
G02*
X122700000Y-108825000I225000J0D01*
G01*
X123150000Y-108825000D01*
G75*
G02*
X123375000Y-109050000I0J-225000D01*
G01*
X123375000Y-109550000D01*
G75*
G02*
X123150000Y-109775000I-225000J0D01*
G01*
X122700000Y-109775000D01*
G75*
G02*
X122475000Y-109550000I0J225000D01*
G01*
G37*
%TD*%
%TO.C,R18*%
G36*
G01*
X125425000Y-114825000D02*
X125975000Y-114825000D01*
G75*
G02*
X126175000Y-115025000I0J-200000D01*
G01*
X126175000Y-115425000D01*
G75*
G02*
X125975000Y-115625000I-200000J0D01*
G01*
X125425000Y-115625000D01*
G75*
G02*
X125225000Y-115425000I0J200000D01*
G01*
X125225000Y-115025000D01*
G75*
G02*
X125425000Y-114825000I200000J0D01*
G01*
G37*
G36*
G01*
X125425000Y-113175000D02*
X125975000Y-113175000D01*
G75*
G02*
X126175000Y-113375000I0J-200000D01*
G01*
X126175000Y-113775000D01*
G75*
G02*
X125975000Y-113975000I-200000J0D01*
G01*
X125425000Y-113975000D01*
G75*
G02*
X125225000Y-113775000I0J200000D01*
G01*
X125225000Y-113375000D01*
G75*
G02*
X125425000Y-113175000I200000J0D01*
G01*
G37*
%TD*%
%TO.C,R17*%
G36*
G01*
X127175000Y-113975000D02*
X126625000Y-113975000D01*
G75*
G02*
X126425000Y-113775000I0J200000D01*
G01*
X126425000Y-113375000D01*
G75*
G02*
X126625000Y-113175000I200000J0D01*
G01*
X127175000Y-113175000D01*
G75*
G02*
X127375000Y-113375000I0J-200000D01*
G01*
X127375000Y-113775000D01*
G75*
G02*
X127175000Y-113975000I-200000J0D01*
G01*
G37*
G36*
G01*
X127175000Y-115625000D02*
X126625000Y-115625000D01*
G75*
G02*
X126425000Y-115425000I0J200000D01*
G01*
X126425000Y-115025000D01*
G75*
G02*
X126625000Y-114825000I200000J0D01*
G01*
X127175000Y-114825000D01*
G75*
G02*
X127375000Y-115025000I0J-200000D01*
G01*
X127375000Y-115425000D01*
G75*
G02*
X127175000Y-115625000I-200000J0D01*
G01*
G37*
%TD*%
D11*
%TO.C,D3*%
X129400000Y-117150000D03*
X129400000Y-118450000D03*
X127500000Y-117800000D03*
X129400000Y-117800000D03*
X127500000Y-118450000D03*
X127500000Y-117150000D03*
%TD*%
%TO.C,D4*%
X125150000Y-117150000D03*
X125150000Y-118450000D03*
X123250000Y-117800000D03*
X125150000Y-117800000D03*
X123250000Y-118450000D03*
X123250000Y-117150000D03*
%TD*%
%TO.C,R13*%
G36*
G01*
X125225000Y-101675000D02*
X125225000Y-101125000D01*
G75*
G02*
X125425000Y-100925000I200000J0D01*
G01*
X125825000Y-100925000D01*
G75*
G02*
X126025000Y-101125000I0J-200000D01*
G01*
X126025000Y-101675000D01*
G75*
G02*
X125825000Y-101875000I-200000J0D01*
G01*
X125425000Y-101875000D01*
G75*
G02*
X125225000Y-101675000I0J200000D01*
G01*
G37*
G36*
G01*
X123575000Y-101675000D02*
X123575000Y-101125000D01*
G75*
G02*
X123775000Y-100925000I200000J0D01*
G01*
X124175000Y-100925000D01*
G75*
G02*
X124375000Y-101125000I0J-200000D01*
G01*
X124375000Y-101675000D01*
G75*
G02*
X124175000Y-101875000I-200000J0D01*
G01*
X123775000Y-101875000D01*
G75*
G02*
X123575000Y-101675000I0J200000D01*
G01*
G37*
%TD*%
%TO.C,R10*%
G36*
G01*
X119625000Y-103875000D02*
X119625000Y-103325000D01*
G75*
G02*
X119825000Y-103125000I200000J0D01*
G01*
X120225000Y-103125000D01*
G75*
G02*
X120425000Y-103325000I0J-200000D01*
G01*
X120425000Y-103875000D01*
G75*
G02*
X120225000Y-104075000I-200000J0D01*
G01*
X119825000Y-104075000D01*
G75*
G02*
X119625000Y-103875000I0J200000D01*
G01*
G37*
G36*
G01*
X117975000Y-103875000D02*
X117975000Y-103325000D01*
G75*
G02*
X118175000Y-103125000I200000J0D01*
G01*
X118575000Y-103125000D01*
G75*
G02*
X118775000Y-103325000I0J-200000D01*
G01*
X118775000Y-103875000D01*
G75*
G02*
X118575000Y-104075000I-200000J0D01*
G01*
X118175000Y-104075000D01*
G75*
G02*
X117975000Y-103875000I0J200000D01*
G01*
G37*
%TD*%
%TO.C,R9*%
G36*
G01*
X119625000Y-101475000D02*
X119625000Y-100925000D01*
G75*
G02*
X119825000Y-100725000I200000J0D01*
G01*
X120225000Y-100725000D01*
G75*
G02*
X120425000Y-100925000I0J-200000D01*
G01*
X120425000Y-101475000D01*
G75*
G02*
X120225000Y-101675000I-200000J0D01*
G01*
X119825000Y-101675000D01*
G75*
G02*
X119625000Y-101475000I0J200000D01*
G01*
G37*
G36*
G01*
X117975000Y-101475000D02*
X117975000Y-100925000D01*
G75*
G02*
X118175000Y-100725000I200000J0D01*
G01*
X118575000Y-100725000D01*
G75*
G02*
X118775000Y-100925000I0J-200000D01*
G01*
X118775000Y-101475000D01*
G75*
G02*
X118575000Y-101675000I-200000J0D01*
G01*
X118175000Y-101675000D01*
G75*
G02*
X117975000Y-101475000I0J200000D01*
G01*
G37*
%TD*%
D12*
%TO.C,U2*%
X122700000Y-112700000D03*
D13*
G36*
X123700000Y-111700000D02*
G01*
X123700000Y-113700000D01*
X121950000Y-113700000D01*
X121700000Y-113450000D01*
X121700000Y-111700000D01*
X123700000Y-111700000D01*
G37*
G36*
G01*
X121087500Y-113825000D02*
X120512500Y-113825000D01*
G75*
G02*
X120450000Y-113762500I0J62500D01*
G01*
X120450000Y-113637500D01*
G75*
G02*
X120512500Y-113575000I62500J0D01*
G01*
X121087500Y-113575000D01*
G75*
G02*
X121150000Y-113637500I0J-62500D01*
G01*
X121150000Y-113762500D01*
G75*
G02*
X121087500Y-113825000I-62500J0D01*
G01*
G37*
G36*
G01*
X121087500Y-113325000D02*
X120512500Y-113325000D01*
G75*
G02*
X120450000Y-113262500I0J62500D01*
G01*
X120450000Y-113137500D01*
G75*
G02*
X120512500Y-113075000I62500J0D01*
G01*
X121087500Y-113075000D01*
G75*
G02*
X121150000Y-113137500I0J-62500D01*
G01*
X121150000Y-113262500D01*
G75*
G02*
X121087500Y-113325000I-62500J0D01*
G01*
G37*
G36*
G01*
X121087500Y-112825000D02*
X120512500Y-112825000D01*
G75*
G02*
X120450000Y-112762500I0J62500D01*
G01*
X120450000Y-112637500D01*
G75*
G02*
X120512500Y-112575000I62500J0D01*
G01*
X121087500Y-112575000D01*
G75*
G02*
X121150000Y-112637500I0J-62500D01*
G01*
X121150000Y-112762500D01*
G75*
G02*
X121087500Y-112825000I-62500J0D01*
G01*
G37*
G36*
G01*
X121087500Y-112325000D02*
X120512500Y-112325000D01*
G75*
G02*
X120450000Y-112262500I0J62500D01*
G01*
X120450000Y-112137500D01*
G75*
G02*
X120512500Y-112075000I62500J0D01*
G01*
X121087500Y-112075000D01*
G75*
G02*
X121150000Y-112137500I0J-62500D01*
G01*
X121150000Y-112262500D01*
G75*
G02*
X121087500Y-112325000I-62500J0D01*
G01*
G37*
G36*
G01*
X121087500Y-111825000D02*
X120512500Y-111825000D01*
G75*
G02*
X120450000Y-111762500I0J62500D01*
G01*
X120450000Y-111637500D01*
G75*
G02*
X120512500Y-111575000I62500J0D01*
G01*
X121087500Y-111575000D01*
G75*
G02*
X121150000Y-111637500I0J-62500D01*
G01*
X121150000Y-111762500D01*
G75*
G02*
X121087500Y-111825000I-62500J0D01*
G01*
G37*
G36*
G01*
X121762500Y-111150000D02*
X121637500Y-111150000D01*
G75*
G02*
X121575000Y-111087500I0J62500D01*
G01*
X121575000Y-110512500D01*
G75*
G02*
X121637500Y-110450000I62500J0D01*
G01*
X121762500Y-110450000D01*
G75*
G02*
X121825000Y-110512500I0J-62500D01*
G01*
X121825000Y-111087500D01*
G75*
G02*
X121762500Y-111150000I-62500J0D01*
G01*
G37*
G36*
G01*
X122262500Y-111150000D02*
X122137500Y-111150000D01*
G75*
G02*
X122075000Y-111087500I0J62500D01*
G01*
X122075000Y-110512500D01*
G75*
G02*
X122137500Y-110450000I62500J0D01*
G01*
X122262500Y-110450000D01*
G75*
G02*
X122325000Y-110512500I0J-62500D01*
G01*
X122325000Y-111087500D01*
G75*
G02*
X122262500Y-111150000I-62500J0D01*
G01*
G37*
G36*
G01*
X122762500Y-111150000D02*
X122637500Y-111150000D01*
G75*
G02*
X122575000Y-111087500I0J62500D01*
G01*
X122575000Y-110512500D01*
G75*
G02*
X122637500Y-110450000I62500J0D01*
G01*
X122762500Y-110450000D01*
G75*
G02*
X122825000Y-110512500I0J-62500D01*
G01*
X122825000Y-111087500D01*
G75*
G02*
X122762500Y-111150000I-62500J0D01*
G01*
G37*
G36*
G01*
X123262500Y-111150000D02*
X123137500Y-111150000D01*
G75*
G02*
X123075000Y-111087500I0J62500D01*
G01*
X123075000Y-110512500D01*
G75*
G02*
X123137500Y-110450000I62500J0D01*
G01*
X123262500Y-110450000D01*
G75*
G02*
X123325000Y-110512500I0J-62500D01*
G01*
X123325000Y-111087500D01*
G75*
G02*
X123262500Y-111150000I-62500J0D01*
G01*
G37*
G36*
G01*
X123762500Y-111150000D02*
X123637500Y-111150000D01*
G75*
G02*
X123575000Y-111087500I0J62500D01*
G01*
X123575000Y-110512500D01*
G75*
G02*
X123637500Y-110450000I62500J0D01*
G01*
X123762500Y-110450000D01*
G75*
G02*
X123825000Y-110512500I0J-62500D01*
G01*
X123825000Y-111087500D01*
G75*
G02*
X123762500Y-111150000I-62500J0D01*
G01*
G37*
G36*
G01*
X124887500Y-111825000D02*
X124312500Y-111825000D01*
G75*
G02*
X124250000Y-111762500I0J62500D01*
G01*
X124250000Y-111637500D01*
G75*
G02*
X124312500Y-111575000I62500J0D01*
G01*
X124887500Y-111575000D01*
G75*
G02*
X124950000Y-111637500I0J-62500D01*
G01*
X124950000Y-111762500D01*
G75*
G02*
X124887500Y-111825000I-62500J0D01*
G01*
G37*
G36*
G01*
X124887500Y-112325000D02*
X124312500Y-112325000D01*
G75*
G02*
X124250000Y-112262500I0J62500D01*
G01*
X124250000Y-112137500D01*
G75*
G02*
X124312500Y-112075000I62500J0D01*
G01*
X124887500Y-112075000D01*
G75*
G02*
X124950000Y-112137500I0J-62500D01*
G01*
X124950000Y-112262500D01*
G75*
G02*
X124887500Y-112325000I-62500J0D01*
G01*
G37*
G36*
G01*
X124887500Y-112825000D02*
X124312500Y-112825000D01*
G75*
G02*
X124250000Y-112762500I0J62500D01*
G01*
X124250000Y-112637500D01*
G75*
G02*
X124312500Y-112575000I62500J0D01*
G01*
X124887500Y-112575000D01*
G75*
G02*
X124950000Y-112637500I0J-62500D01*
G01*
X124950000Y-112762500D01*
G75*
G02*
X124887500Y-112825000I-62500J0D01*
G01*
G37*
G36*
G01*
X124887500Y-113325000D02*
X124312500Y-113325000D01*
G75*
G02*
X124250000Y-113262500I0J62500D01*
G01*
X124250000Y-113137500D01*
G75*
G02*
X124312500Y-113075000I62500J0D01*
G01*
X124887500Y-113075000D01*
G75*
G02*
X124950000Y-113137500I0J-62500D01*
G01*
X124950000Y-113262500D01*
G75*
G02*
X124887500Y-113325000I-62500J0D01*
G01*
G37*
G36*
G01*
X124887500Y-113825000D02*
X124312500Y-113825000D01*
G75*
G02*
X124250000Y-113762500I0J62500D01*
G01*
X124250000Y-113637500D01*
G75*
G02*
X124312500Y-113575000I62500J0D01*
G01*
X124887500Y-113575000D01*
G75*
G02*
X124950000Y-113637500I0J-62500D01*
G01*
X124950000Y-113762500D01*
G75*
G02*
X124887500Y-113825000I-62500J0D01*
G01*
G37*
G36*
G01*
X123762500Y-114950000D02*
X123637500Y-114950000D01*
G75*
G02*
X123575000Y-114887500I0J62500D01*
G01*
X123575000Y-114312500D01*
G75*
G02*
X123637500Y-114250000I62500J0D01*
G01*
X123762500Y-114250000D01*
G75*
G02*
X123825000Y-114312500I0J-62500D01*
G01*
X123825000Y-114887500D01*
G75*
G02*
X123762500Y-114950000I-62500J0D01*
G01*
G37*
G36*
G01*
X123262500Y-114950000D02*
X123137500Y-114950000D01*
G75*
G02*
X123075000Y-114887500I0J62500D01*
G01*
X123075000Y-114312500D01*
G75*
G02*
X123137500Y-114250000I62500J0D01*
G01*
X123262500Y-114250000D01*
G75*
G02*
X123325000Y-114312500I0J-62500D01*
G01*
X123325000Y-114887500D01*
G75*
G02*
X123262500Y-114950000I-62500J0D01*
G01*
G37*
G36*
G01*
X122762500Y-114950000D02*
X122637500Y-114950000D01*
G75*
G02*
X122575000Y-114887500I0J62500D01*
G01*
X122575000Y-114312500D01*
G75*
G02*
X122637500Y-114250000I62500J0D01*
G01*
X122762500Y-114250000D01*
G75*
G02*
X122825000Y-114312500I0J-62500D01*
G01*
X122825000Y-114887500D01*
G75*
G02*
X122762500Y-114950000I-62500J0D01*
G01*
G37*
G36*
G01*
X122262500Y-114950000D02*
X122137500Y-114950000D01*
G75*
G02*
X122075000Y-114887500I0J62500D01*
G01*
X122075000Y-114312500D01*
G75*
G02*
X122137500Y-114250000I62500J0D01*
G01*
X122262500Y-114250000D01*
G75*
G02*
X122325000Y-114312500I0J-62500D01*
G01*
X122325000Y-114887500D01*
G75*
G02*
X122262500Y-114950000I-62500J0D01*
G01*
G37*
G36*
G01*
X121762500Y-114950000D02*
X121637500Y-114950000D01*
G75*
G02*
X121575000Y-114887500I0J62500D01*
G01*
X121575000Y-114312500D01*
G75*
G02*
X121637500Y-114250000I62500J0D01*
G01*
X121762500Y-114250000D01*
G75*
G02*
X121825000Y-114312500I0J-62500D01*
G01*
X121825000Y-114887500D01*
G75*
G02*
X121762500Y-114950000I-62500J0D01*
G01*
G37*
%TD*%
D11*
%TO.C,U3*%
X125750000Y-103050000D03*
X125750000Y-104350000D03*
X123850000Y-103700000D03*
X125750000Y-103700000D03*
X123850000Y-104350000D03*
X123850000Y-103050000D03*
%TD*%
%TO.C,C2*%
G36*
G01*
X119653033Y-115706587D02*
X120006587Y-115353033D01*
G75*
G02*
X120324785Y-115353033I159099J-159099D01*
G01*
X120642983Y-115671231D01*
G75*
G02*
X120642983Y-115989429I-159099J-159099D01*
G01*
X120289429Y-116342983D01*
G75*
G02*
X119971231Y-116342983I-159099J159099D01*
G01*
X119653033Y-116024785D01*
G75*
G02*
X119653033Y-115706587I159099J159099D01*
G01*
G37*
G36*
G01*
X118557017Y-114610571D02*
X118910571Y-114257017D01*
G75*
G02*
X119228769Y-114257017I159099J-159099D01*
G01*
X119546967Y-114575215D01*
G75*
G02*
X119546967Y-114893413I-159099J-159099D01*
G01*
X119193413Y-115246967D01*
G75*
G02*
X118875215Y-115246967I-159099J159099D01*
G01*
X118557017Y-114928769D01*
G75*
G02*
X118557017Y-114610571I159099J159099D01*
G01*
G37*
%TD*%
D14*
%TO.C,Reg1*%
X131000000Y-100400000D03*
X129100000Y-100400000D03*
X130050000Y-100400000D03*
X129100000Y-103100000D03*
X130050000Y-103100000D03*
X131000000Y-103100000D03*
G36*
G01*
X134975000Y-103850000D02*
X135925000Y-103850000D01*
G75*
G02*
X136175000Y-104100000I0J-250000D01*
G01*
X136175000Y-104600000D01*
G75*
G02*
X135925000Y-104850000I-250000J0D01*
G01*
X134975000Y-104850000D01*
G75*
G02*
X134725000Y-104600000I0J250000D01*
G01*
X134725000Y-104100000D01*
G75*
G02*
X134975000Y-103850000I250000J0D01*
G01*
G37*
G36*
G01*
X134975000Y-105750000D02*
X135925000Y-105750000D01*
G75*
G02*
X136175000Y-106000000I0J-250000D01*
G01*
X136175000Y-106500000D01*
G75*
G02*
X135925000Y-106750000I-250000J0D01*
G01*
X134975000Y-106750000D01*
G75*
G02*
X134725000Y-106500000I0J250000D01*
G01*
X134725000Y-106000000D01*
G75*
G02*
X134975000Y-105750000I250000J0D01*
G01*
G37*
G36*
G01*
X128725000Y-105750000D02*
X129675000Y-105750000D01*
G75*
G02*
X129925000Y-106000000I0J-250000D01*
G01*
X129925000Y-106500000D01*
G75*
G02*
X129675000Y-106750000I-250000J0D01*
G01*
X128725000Y-106750000D01*
G75*
G02*
X128475000Y-106500000I0J250000D01*
G01*
X128475000Y-106000000D01*
G75*
G02*
X128725000Y-105750000I250000J0D01*
G01*
G37*
G36*
G01*
X128725000Y-103850000D02*
X129675000Y-103850000D01*
G75*
G02*
X129925000Y-104100000I0J-250000D01*
G01*
X129925000Y-104600000D01*
G75*
G02*
X129675000Y-104850000I-250000J0D01*
G01*
X128725000Y-104850000D01*
G75*
G02*
X128475000Y-104600000I0J250000D01*
G01*
X128475000Y-104100000D01*
G75*
G02*
X128725000Y-103850000I250000J0D01*
G01*
G37*
G36*
G01*
X128200000Y-101425000D02*
X127700000Y-101425000D01*
G75*
G02*
X127475000Y-101200000I0J225000D01*
G01*
X127475000Y-100750000D01*
G75*
G02*
X127700000Y-100525000I225000J0D01*
G01*
X128200000Y-100525000D01*
G75*
G02*
X128425000Y-100750000I0J-225000D01*
G01*
X128425000Y-101200000D01*
G75*
G02*
X128200000Y-101425000I-225000J0D01*
G01*
G37*
G36*
G01*
X128200000Y-102975000D02*
X127700000Y-102975000D01*
G75*
G02*
X127475000Y-102750000I0J225000D01*
G01*
X127475000Y-102300000D01*
G75*
G02*
X127700000Y-102075000I225000J0D01*
G01*
X128200000Y-102075000D01*
G75*
G02*
X128425000Y-102300000I0J-225000D01*
G01*
X128425000Y-102750000D01*
G75*
G02*
X128200000Y-102975000I-225000J0D01*
G01*
G37*
G36*
G01*
X130125000Y-105545626D02*
X130125000Y-104294374D01*
G75*
G02*
X130374374Y-104045000I249374J0D01*
G01*
X131300626Y-104045000D01*
G75*
G02*
X131550000Y-104294374I0J-249374D01*
G01*
X131550000Y-105545626D01*
G75*
G02*
X131300626Y-105795000I-249374J0D01*
G01*
X130374374Y-105795000D01*
G75*
G02*
X130125000Y-105545626I0J249374D01*
G01*
G37*
G36*
G01*
X133100000Y-105545626D02*
X133100000Y-104294374D01*
G75*
G02*
X133349374Y-104045000I249374J0D01*
G01*
X134275626Y-104045000D01*
G75*
G02*
X134525000Y-104294374I0J-249374D01*
G01*
X134525000Y-105545626D01*
G75*
G02*
X134275626Y-105795000I-249374J0D01*
G01*
X133349374Y-105795000D01*
G75*
G02*
X133100000Y-105545626I0J249374D01*
G01*
G37*
D15*
X135450000Y-101800000D03*
X132450000Y-101800000D03*
%TD*%
%TO.C,R14*%
G36*
G01*
X126525000Y-104125000D02*
X127075000Y-104125000D01*
G75*
G02*
X127275000Y-104325000I0J-200000D01*
G01*
X127275000Y-104725000D01*
G75*
G02*
X127075000Y-104925000I-200000J0D01*
G01*
X126525000Y-104925000D01*
G75*
G02*
X126325000Y-104725000I0J200000D01*
G01*
X126325000Y-104325000D01*
G75*
G02*
X126525000Y-104125000I200000J0D01*
G01*
G37*
G36*
G01*
X126525000Y-102475000D02*
X127075000Y-102475000D01*
G75*
G02*
X127275000Y-102675000I0J-200000D01*
G01*
X127275000Y-103075000D01*
G75*
G02*
X127075000Y-103275000I-200000J0D01*
G01*
X126525000Y-103275000D01*
G75*
G02*
X126325000Y-103075000I0J200000D01*
G01*
X126325000Y-102675000D01*
G75*
G02*
X126525000Y-102475000I200000J0D01*
G01*
G37*
%TD*%
%TO.C,D2*%
G36*
G01*
X125475000Y-108175000D02*
X126725000Y-108175000D01*
G75*
G02*
X126975000Y-108425000I0J-250000D01*
G01*
X126975000Y-109175000D01*
G75*
G02*
X126725000Y-109425000I-250000J0D01*
G01*
X125475000Y-109425000D01*
G75*
G02*
X125225000Y-109175000I0J250000D01*
G01*
X125225000Y-108425000D01*
G75*
G02*
X125475000Y-108175000I250000J0D01*
G01*
G37*
G36*
G01*
X125475000Y-105375000D02*
X126725000Y-105375000D01*
G75*
G02*
X126975000Y-105625000I0J-250000D01*
G01*
X126975000Y-106375000D01*
G75*
G02*
X126725000Y-106625000I-250000J0D01*
G01*
X125475000Y-106625000D01*
G75*
G02*
X125225000Y-106375000I0J250000D01*
G01*
X125225000Y-105625000D01*
G75*
G02*
X125475000Y-105375000I250000J0D01*
G01*
G37*
%TD*%
D16*
%TO.C,Q1*%
X121150000Y-107750000D03*
X121150000Y-109050000D03*
X119250000Y-109050000D03*
X119250000Y-108400000D03*
X119250000Y-107750000D03*
%TD*%
D17*
%TO.C,J3*%
X134000000Y-123260000D03*
D18*
X134000000Y-125800000D03*
%TD*%
%TO.C,R16*%
G36*
G01*
X123175000Y-106625000D02*
X123175000Y-107175000D01*
G75*
G02*
X122975000Y-107375000I-200000J0D01*
G01*
X122575000Y-107375000D01*
G75*
G02*
X122375000Y-107175000I0J200000D01*
G01*
X122375000Y-106625000D01*
G75*
G02*
X122575000Y-106425000I200000J0D01*
G01*
X122975000Y-106425000D01*
G75*
G02*
X123175000Y-106625000I0J-200000D01*
G01*
G37*
G36*
G01*
X124825000Y-106625000D02*
X124825000Y-107175000D01*
G75*
G02*
X124625000Y-107375000I-200000J0D01*
G01*
X124225000Y-107375000D01*
G75*
G02*
X124025000Y-107175000I0J200000D01*
G01*
X124025000Y-106625000D01*
G75*
G02*
X124225000Y-106425000I200000J0D01*
G01*
X124625000Y-106425000D01*
G75*
G02*
X124825000Y-106625000I0J-200000D01*
G01*
G37*
%TD*%
%TO.C,R15*%
G36*
G01*
X124025000Y-105975000D02*
X124025000Y-105425000D01*
G75*
G02*
X124225000Y-105225000I200000J0D01*
G01*
X124625000Y-105225000D01*
G75*
G02*
X124825000Y-105425000I0J-200000D01*
G01*
X124825000Y-105975000D01*
G75*
G02*
X124625000Y-106175000I-200000J0D01*
G01*
X124225000Y-106175000D01*
G75*
G02*
X124025000Y-105975000I0J200000D01*
G01*
G37*
G36*
G01*
X122375000Y-105975000D02*
X122375000Y-105425000D01*
G75*
G02*
X122575000Y-105225000I200000J0D01*
G01*
X122975000Y-105225000D01*
G75*
G02*
X123175000Y-105425000I0J-200000D01*
G01*
X123175000Y-105975000D01*
G75*
G02*
X122975000Y-106175000I-200000J0D01*
G01*
X122575000Y-106175000D01*
G75*
G02*
X122375000Y-105975000I0J200000D01*
G01*
G37*
%TD*%
%TO.C,R8*%
G36*
G01*
X119625000Y-102675000D02*
X119625000Y-102125000D01*
G75*
G02*
X119825000Y-101925000I200000J0D01*
G01*
X120225000Y-101925000D01*
G75*
G02*
X120425000Y-102125000I0J-200000D01*
G01*
X120425000Y-102675000D01*
G75*
G02*
X120225000Y-102875000I-200000J0D01*
G01*
X119825000Y-102875000D01*
G75*
G02*
X119625000Y-102675000I0J200000D01*
G01*
G37*
G36*
G01*
X117975000Y-102675000D02*
X117975000Y-102125000D01*
G75*
G02*
X118175000Y-101925000I200000J0D01*
G01*
X118575000Y-101925000D01*
G75*
G02*
X118775000Y-102125000I0J-200000D01*
G01*
X118775000Y-102675000D01*
G75*
G02*
X118575000Y-102875000I-200000J0D01*
G01*
X118175000Y-102875000D01*
G75*
G02*
X117975000Y-102675000I0J200000D01*
G01*
G37*
%TD*%
%TO.C,R1*%
G36*
G01*
X119775000Y-106425000D02*
X119775000Y-106975000D01*
G75*
G02*
X119575000Y-107175000I-200000J0D01*
G01*
X119175000Y-107175000D01*
G75*
G02*
X118975000Y-106975000I0J200000D01*
G01*
X118975000Y-106425000D01*
G75*
G02*
X119175000Y-106225000I200000J0D01*
G01*
X119575000Y-106225000D01*
G75*
G02*
X119775000Y-106425000I0J-200000D01*
G01*
G37*
G36*
G01*
X121425000Y-106425000D02*
X121425000Y-106975000D01*
G75*
G02*
X121225000Y-107175000I-200000J0D01*
G01*
X120825000Y-107175000D01*
G75*
G02*
X120625000Y-106975000I0J200000D01*
G01*
X120625000Y-106425000D01*
G75*
G02*
X120825000Y-106225000I200000J0D01*
G01*
X121225000Y-106225000D01*
G75*
G02*
X121425000Y-106425000I0J-200000D01*
G01*
G37*
%TD*%
%TO.C,R12*%
G36*
G01*
X127825000Y-108925000D02*
X128375000Y-108925000D01*
G75*
G02*
X128575000Y-109125000I0J-200000D01*
G01*
X128575000Y-109525000D01*
G75*
G02*
X128375000Y-109725000I-200000J0D01*
G01*
X127825000Y-109725000D01*
G75*
G02*
X127625000Y-109525000I0J200000D01*
G01*
X127625000Y-109125000D01*
G75*
G02*
X127825000Y-108925000I200000J0D01*
G01*
G37*
G36*
G01*
X127825000Y-107275000D02*
X128375000Y-107275000D01*
G75*
G02*
X128575000Y-107475000I0J-200000D01*
G01*
X128575000Y-107875000D01*
G75*
G02*
X128375000Y-108075000I-200000J0D01*
G01*
X127825000Y-108075000D01*
G75*
G02*
X127625000Y-107875000I0J200000D01*
G01*
X127625000Y-107475000D01*
G75*
G02*
X127825000Y-107275000I200000J0D01*
G01*
G37*
%TD*%
%TO.C,R11*%
G36*
G01*
X127825000Y-114825000D02*
X128375000Y-114825000D01*
G75*
G02*
X128575000Y-115025000I0J-200000D01*
G01*
X128575000Y-115425000D01*
G75*
G02*
X128375000Y-115625000I-200000J0D01*
G01*
X127825000Y-115625000D01*
G75*
G02*
X127625000Y-115425000I0J200000D01*
G01*
X127625000Y-115025000D01*
G75*
G02*
X127825000Y-114825000I200000J0D01*
G01*
G37*
G36*
G01*
X127825000Y-113175000D02*
X128375000Y-113175000D01*
G75*
G02*
X128575000Y-113375000I0J-200000D01*
G01*
X128575000Y-113775000D01*
G75*
G02*
X128375000Y-113975000I-200000J0D01*
G01*
X127825000Y-113975000D01*
G75*
G02*
X127625000Y-113775000I0J200000D01*
G01*
X127625000Y-113375000D01*
G75*
G02*
X127825000Y-113175000I200000J0D01*
G01*
G37*
%TD*%
%TO.C,R7*%
G36*
G01*
X118625000Y-118249900D02*
X118625000Y-117350100D01*
G75*
G02*
X118875100Y-117100000I250100J0D01*
G01*
X119399900Y-117100000D01*
G75*
G02*
X119650000Y-117350100I0J-250100D01*
G01*
X119650000Y-118249900D01*
G75*
G02*
X119399900Y-118500000I-250100J0D01*
G01*
X118875100Y-118500000D01*
G75*
G02*
X118625000Y-118249900I0J250100D01*
G01*
G37*
G36*
G01*
X120450000Y-118249900D02*
X120450000Y-117350100D01*
G75*
G02*
X120700100Y-117100000I250100J0D01*
G01*
X121224900Y-117100000D01*
G75*
G02*
X121475000Y-117350100I0J-250100D01*
G01*
X121475000Y-118249900D01*
G75*
G02*
X121224900Y-118500000I-250100J0D01*
G01*
X120700100Y-118500000D01*
G75*
G02*
X120450000Y-118249900I0J250100D01*
G01*
G37*
G36*
G01*
X120950000Y-118425250D02*
X120950000Y-117174750D01*
G75*
G02*
X121199750Y-116925000I249750J0D01*
G01*
X121825250Y-116925000D01*
G75*
G02*
X122075000Y-117174750I0J-249750D01*
G01*
X122075000Y-118425250D01*
G75*
G02*
X121825250Y-118675000I-249750J0D01*
G01*
X121199750Y-118675000D01*
G75*
G02*
X120950000Y-118425250I0J249750D01*
G01*
G37*
G36*
G01*
X118025000Y-118425250D02*
X118025000Y-117174750D01*
G75*
G02*
X118274750Y-116925000I249750J0D01*
G01*
X118900250Y-116925000D01*
G75*
G02*
X119150000Y-117174750I0J-249750D01*
G01*
X119150000Y-118425250D01*
G75*
G02*
X118900250Y-118675000I-249750J0D01*
G01*
X118274750Y-118675000D01*
G75*
G02*
X118025000Y-118425250I0J249750D01*
G01*
G37*
%TD*%
%TO.C,R6*%
G36*
G01*
X120149900Y-125775000D02*
X119250100Y-125775000D01*
G75*
G02*
X119000000Y-125524900I0J250100D01*
G01*
X119000000Y-125000100D01*
G75*
G02*
X119250100Y-124750000I250100J0D01*
G01*
X120149900Y-124750000D01*
G75*
G02*
X120400000Y-125000100I0J-250100D01*
G01*
X120400000Y-125524900D01*
G75*
G02*
X120149900Y-125775000I-250100J0D01*
G01*
G37*
G36*
G01*
X120149900Y-123950000D02*
X119250100Y-123950000D01*
G75*
G02*
X119000000Y-123699900I0J250100D01*
G01*
X119000000Y-123175100D01*
G75*
G02*
X119250100Y-122925000I250100J0D01*
G01*
X120149900Y-122925000D01*
G75*
G02*
X120400000Y-123175100I0J-250100D01*
G01*
X120400000Y-123699900D01*
G75*
G02*
X120149900Y-123950000I-250100J0D01*
G01*
G37*
G36*
G01*
X120325250Y-123450000D02*
X119074750Y-123450000D01*
G75*
G02*
X118825000Y-123200250I0J249750D01*
G01*
X118825000Y-122574750D01*
G75*
G02*
X119074750Y-122325000I249750J0D01*
G01*
X120325250Y-122325000D01*
G75*
G02*
X120575000Y-122574750I0J-249750D01*
G01*
X120575000Y-123200250D01*
G75*
G02*
X120325250Y-123450000I-249750J0D01*
G01*
G37*
G36*
G01*
X120325250Y-126375000D02*
X119074750Y-126375000D01*
G75*
G02*
X118825000Y-126125250I0J249750D01*
G01*
X118825000Y-125499750D01*
G75*
G02*
X119074750Y-125250000I249750J0D01*
G01*
X120325250Y-125250000D01*
G75*
G02*
X120575000Y-125499750I0J-249750D01*
G01*
X120575000Y-126125250D01*
G75*
G02*
X120325250Y-126375000I-249750J0D01*
G01*
G37*
%TD*%
%TO.C,R5*%
G36*
G01*
X123419900Y-125775000D02*
X122520100Y-125775000D01*
G75*
G02*
X122270000Y-125524900I0J250100D01*
G01*
X122270000Y-125000100D01*
G75*
G02*
X122520100Y-124750000I250100J0D01*
G01*
X123419900Y-124750000D01*
G75*
G02*
X123670000Y-125000100I0J-250100D01*
G01*
X123670000Y-125524900D01*
G75*
G02*
X123419900Y-125775000I-250100J0D01*
G01*
G37*
G36*
G01*
X123419900Y-123950000D02*
X122520100Y-123950000D01*
G75*
G02*
X122270000Y-123699900I0J250100D01*
G01*
X122270000Y-123175100D01*
G75*
G02*
X122520100Y-122925000I250100J0D01*
G01*
X123419900Y-122925000D01*
G75*
G02*
X123670000Y-123175100I0J-250100D01*
G01*
X123670000Y-123699900D01*
G75*
G02*
X123419900Y-123950000I-250100J0D01*
G01*
G37*
G36*
G01*
X123595250Y-123450000D02*
X122344750Y-123450000D01*
G75*
G02*
X122095000Y-123200250I0J249750D01*
G01*
X122095000Y-122574750D01*
G75*
G02*
X122344750Y-122325000I249750J0D01*
G01*
X123595250Y-122325000D01*
G75*
G02*
X123845000Y-122574750I0J-249750D01*
G01*
X123845000Y-123200250D01*
G75*
G02*
X123595250Y-123450000I-249750J0D01*
G01*
G37*
G36*
G01*
X123595250Y-126375000D02*
X122344750Y-126375000D01*
G75*
G02*
X122095000Y-126125250I0J249750D01*
G01*
X122095000Y-125499750D01*
G75*
G02*
X122344750Y-125250000I249750J0D01*
G01*
X123595250Y-125250000D01*
G75*
G02*
X123845000Y-125499750I0J-249750D01*
G01*
X123845000Y-126125250D01*
G75*
G02*
X123595250Y-126375000I-249750J0D01*
G01*
G37*
%TD*%
%TO.C,R4*%
G36*
G01*
X125919900Y-125775000D02*
X125020100Y-125775000D01*
G75*
G02*
X124770000Y-125524900I0J250100D01*
G01*
X124770000Y-125000100D01*
G75*
G02*
X125020100Y-124750000I250100J0D01*
G01*
X125919900Y-124750000D01*
G75*
G02*
X126170000Y-125000100I0J-250100D01*
G01*
X126170000Y-125524900D01*
G75*
G02*
X125919900Y-125775000I-250100J0D01*
G01*
G37*
G36*
G01*
X125919900Y-123950000D02*
X125020100Y-123950000D01*
G75*
G02*
X124770000Y-123699900I0J250100D01*
G01*
X124770000Y-123175100D01*
G75*
G02*
X125020100Y-122925000I250100J0D01*
G01*
X125919900Y-122925000D01*
G75*
G02*
X126170000Y-123175100I0J-250100D01*
G01*
X126170000Y-123699900D01*
G75*
G02*
X125919900Y-123950000I-250100J0D01*
G01*
G37*
G36*
G01*
X126095250Y-123450000D02*
X124844750Y-123450000D01*
G75*
G02*
X124595000Y-123200250I0J249750D01*
G01*
X124595000Y-122574750D01*
G75*
G02*
X124844750Y-122325000I249750J0D01*
G01*
X126095250Y-122325000D01*
G75*
G02*
X126345000Y-122574750I0J-249750D01*
G01*
X126345000Y-123200250D01*
G75*
G02*
X126095250Y-123450000I-249750J0D01*
G01*
G37*
G36*
G01*
X126095250Y-126375000D02*
X124844750Y-126375000D01*
G75*
G02*
X124595000Y-126125250I0J249750D01*
G01*
X124595000Y-125499750D01*
G75*
G02*
X124844750Y-125250000I249750J0D01*
G01*
X126095250Y-125250000D01*
G75*
G02*
X126345000Y-125499750I0J-249750D01*
G01*
X126345000Y-126125250D01*
G75*
G02*
X126095250Y-126375000I-249750J0D01*
G01*
G37*
%TD*%
%TO.C,R3*%
G36*
G01*
X128419900Y-125775000D02*
X127520100Y-125775000D01*
G75*
G02*
X127270000Y-125524900I0J250100D01*
G01*
X127270000Y-125000100D01*
G75*
G02*
X127520100Y-124750000I250100J0D01*
G01*
X128419900Y-124750000D01*
G75*
G02*
X128670000Y-125000100I0J-250100D01*
G01*
X128670000Y-125524900D01*
G75*
G02*
X128419900Y-125775000I-250100J0D01*
G01*
G37*
G36*
G01*
X128419900Y-123950000D02*
X127520100Y-123950000D01*
G75*
G02*
X127270000Y-123699900I0J250100D01*
G01*
X127270000Y-123175100D01*
G75*
G02*
X127520100Y-122925000I250100J0D01*
G01*
X128419900Y-122925000D01*
G75*
G02*
X128670000Y-123175100I0J-250100D01*
G01*
X128670000Y-123699900D01*
G75*
G02*
X128419900Y-123950000I-250100J0D01*
G01*
G37*
G36*
G01*
X128595250Y-123450000D02*
X127344750Y-123450000D01*
G75*
G02*
X127095000Y-123200250I0J249750D01*
G01*
X127095000Y-122574750D01*
G75*
G02*
X127344750Y-122325000I249750J0D01*
G01*
X128595250Y-122325000D01*
G75*
G02*
X128845000Y-122574750I0J-249750D01*
G01*
X128845000Y-123200250D01*
G75*
G02*
X128595250Y-123450000I-249750J0D01*
G01*
G37*
G36*
G01*
X128595250Y-126375000D02*
X127344750Y-126375000D01*
G75*
G02*
X127095000Y-126125250I0J249750D01*
G01*
X127095000Y-125499750D01*
G75*
G02*
X127344750Y-125250000I249750J0D01*
G01*
X128595250Y-125250000D01*
G75*
G02*
X128845000Y-125499750I0J-249750D01*
G01*
X128845000Y-126125250D01*
G75*
G02*
X128595250Y-126375000I-249750J0D01*
G01*
G37*
%TD*%
%TO.C,R2*%
G36*
G01*
X130919900Y-125775000D02*
X130020100Y-125775000D01*
G75*
G02*
X129770000Y-125524900I0J250100D01*
G01*
X129770000Y-125000100D01*
G75*
G02*
X130020100Y-124750000I250100J0D01*
G01*
X130919900Y-124750000D01*
G75*
G02*
X131170000Y-125000100I0J-250100D01*
G01*
X131170000Y-125524900D01*
G75*
G02*
X130919900Y-125775000I-250100J0D01*
G01*
G37*
G36*
G01*
X130919900Y-123950000D02*
X130020100Y-123950000D01*
G75*
G02*
X129770000Y-123699900I0J250100D01*
G01*
X129770000Y-123175100D01*
G75*
G02*
X130020100Y-122925000I250100J0D01*
G01*
X130919900Y-122925000D01*
G75*
G02*
X131170000Y-123175100I0J-250100D01*
G01*
X131170000Y-123699900D01*
G75*
G02*
X130919900Y-123950000I-250100J0D01*
G01*
G37*
G36*
G01*
X131095250Y-123450000D02*
X129844750Y-123450000D01*
G75*
G02*
X129595000Y-123200250I0J249750D01*
G01*
X129595000Y-122574750D01*
G75*
G02*
X129844750Y-122325000I249750J0D01*
G01*
X131095250Y-122325000D01*
G75*
G02*
X131345000Y-122574750I0J-249750D01*
G01*
X131345000Y-123200250D01*
G75*
G02*
X131095250Y-123450000I-249750J0D01*
G01*
G37*
G36*
G01*
X131095250Y-126375000D02*
X129844750Y-126375000D01*
G75*
G02*
X129595000Y-126125250I0J249750D01*
G01*
X129595000Y-125499750D01*
G75*
G02*
X129844750Y-125250000I249750J0D01*
G01*
X131095250Y-125250000D01*
G75*
G02*
X131345000Y-125499750I0J-249750D01*
G01*
X131345000Y-126125250D01*
G75*
G02*
X131095250Y-126375000I-249750J0D01*
G01*
G37*
%TD*%
%TO.C,C1*%
G36*
G01*
X135449900Y-120525000D02*
X134550100Y-120525000D01*
G75*
G02*
X134300000Y-120274900I0J250100D01*
G01*
X134300000Y-119750100D01*
G75*
G02*
X134550100Y-119500000I250100J0D01*
G01*
X135449900Y-119500000D01*
G75*
G02*
X135700000Y-119750100I0J-250100D01*
G01*
X135700000Y-120274900D01*
G75*
G02*
X135449900Y-120525000I-250100J0D01*
G01*
G37*
G36*
G01*
X135449900Y-118700000D02*
X134550100Y-118700000D01*
G75*
G02*
X134300000Y-118449900I0J250100D01*
G01*
X134300000Y-117925100D01*
G75*
G02*
X134550100Y-117675000I250100J0D01*
G01*
X135449900Y-117675000D01*
G75*
G02*
X135700000Y-117925100I0J-250100D01*
G01*
X135700000Y-118449900D01*
G75*
G02*
X135449900Y-118700000I-250100J0D01*
G01*
G37*
G36*
G01*
X135625250Y-118200000D02*
X134374750Y-118200000D01*
G75*
G02*
X134125000Y-117950250I0J249750D01*
G01*
X134125000Y-117324750D01*
G75*
G02*
X134374750Y-117075000I249750J0D01*
G01*
X135625250Y-117075000D01*
G75*
G02*
X135875000Y-117324750I0J-249750D01*
G01*
X135875000Y-117950250D01*
G75*
G02*
X135625250Y-118200000I-249750J0D01*
G01*
G37*
G36*
G01*
X135625250Y-121125000D02*
X134374750Y-121125000D01*
G75*
G02*
X134125000Y-120875250I0J249750D01*
G01*
X134125000Y-120249750D01*
G75*
G02*
X134374750Y-120000000I249750J0D01*
G01*
X135625250Y-120000000D01*
G75*
G02*
X135875000Y-120249750I0J-249750D01*
G01*
X135875000Y-120875250D01*
G75*
G02*
X135625250Y-121125000I-249750J0D01*
G01*
G37*
%TD*%
%TO.C,J1*%
X133045000Y-120500000D03*
D17*
X130505000Y-120500000D03*
X127965000Y-120500000D03*
X125425000Y-120500000D03*
X122885000Y-120500000D03*
X120345000Y-120500000D03*
%TD*%
D19*
%TO.C,J2*%
X133500000Y-111100000D03*
D20*
X129385000Y-113500000D03*
X129385000Y-108700000D03*
D21*
X134135000Y-106780000D03*
X134135000Y-115420000D03*
D22*
X129965000Y-106780000D03*
X129965000Y-115420000D03*
D23*
X129385000Y-110850000D03*
X129385000Y-111350000D03*
X129385000Y-110350000D03*
X129385000Y-111850000D03*
X129385000Y-109850000D03*
X129385000Y-112350000D03*
X129385000Y-109350000D03*
X129385000Y-112850000D03*
D20*
X129385000Y-107900000D03*
D24*
X130455000Y-108210000D03*
X130455000Y-113990000D03*
D20*
X129385000Y-114300000D03*
%TD*%
M02*
