M48
; DRILL file {KiCad (6.0.1-0)} date Thursday, 10 February 2022 at 08:46:42
; FORMAT={-:-/ absolute / inch / decimal}
; #@! TF.CreationDate,2022-02-10T08:46:42+00:00
; #@! TF.GenerationSoftware,Kicad,Pcbnew,(6.0.1-0)
; #@! TF.FileFunction,Plated,1,2,PTH
FMAT,2
INCH
; #@! TA.AperFunction,Plated,PTH,ComponentDrill
T1C0.0098
; #@! TA.AperFunction,Plated,PTH,ViaDrill
T2C0.0157
; #@! TA.AperFunction,Plated,PTH,ComponentDrill
T3C0.0236
; #@! TA.AperFunction,Plated,PTH,ComponentDrill
T4C0.0335
; #@! TA.AperFunction,Plated,PTH,ComponentDrill
T5C0.0394
; #@! TA.AperFunction,Plated,PTH,ComponentDrill
T6C0.0492
%
G90
G05
T1
X5.5689Y-3.8602
T2
X5.252Y-3.8169
X5.2795Y-3.9134
X5.3031Y-3.6358
X5.5283Y-4.1735
X5.5464Y-3.6988
X5.5472Y-4.2618
X5.5527Y-4.0019
X5.5669Y-3.5
X5.5669Y-4.0571
X5.6142Y-3.5
X5.6185Y-3.9734
X5.6398Y-3.7823
X5.6617Y-3.7364
X5.6686Y-3.941
X5.6899Y-3.6408
X5.748Y-3.502
X5.7953Y-3.9626
X5.8582Y-3.9635
X5.8804Y-3.8965
X6.0197Y-3.6201
X6.0292Y-3.498
X6.3819Y-3.4862
X6.3878Y-3.6909
X6.3937Y-3.6004
X6.4488Y-4.2736
T3
X5.7012Y-4.1008
X5.9287Y-4.1008
T4
X5.378Y-3.5433
X5.378Y-3.6417
X5.378Y-3.7402
X5.378Y-3.8386
X5.378Y-3.937
X5.378Y-4.0354
X5.378Y-4.1339
X5.378Y-4.2323
X6.2559Y-3.5433
X6.2559Y-3.6417
X6.2559Y-3.7402
X6.2559Y-3.8386
X6.2559Y-3.937
X6.2559Y-4.0354
X6.2559Y-4.1339
X6.2559Y-4.2323
T5
X5.6449Y-4.2457
X5.985Y-4.2457
X6.0514Y-4.276
X6.1514Y-4.276
T6
X5.6449Y-4.0815
X5.985Y-4.0815
T0
M30
