%TF.GenerationSoftware,KiCad,Pcbnew,(6.0.2-0)*%
%TF.CreationDate,2022-03-05T14:02:12+00:00*%
%TF.ProjectId,Generic5,47656e65-7269-4633-952e-6b696361645f,1*%
%TF.SameCoordinates,Original*%
%TF.FileFunction,Legend,Bot*%
%TF.FilePolarity,Positive*%
%FSLAX46Y46*%
G04 Gerber Fmt 4.6, Leading zero omitted, Abs format (unit mm)*
G04 Created by KiCad (PCBNEW (6.0.2-0)) date 2022-03-05 14:02:12*
%MOMM*%
%LPD*%
G01*
G04 APERTURE LIST*
%ADD10C,0.100000*%
%ADD11C,0.150000*%
%ADD12C,0.120000*%
G04 APERTURE END LIST*
D10*
X152126190Y-30704761D02*
X152126190Y-30419047D01*
X152126190Y-30561904D02*
X151626190Y-30561904D01*
X151697619Y-30514285D01*
X151745238Y-30466666D01*
X151769047Y-30419047D01*
X151840476Y-30990476D02*
X151816666Y-30942857D01*
X151792857Y-30919047D01*
X151745238Y-30895238D01*
X151721428Y-30895238D01*
X151673809Y-30919047D01*
X151650000Y-30942857D01*
X151626190Y-30990476D01*
X151626190Y-31085714D01*
X151650000Y-31133333D01*
X151673809Y-31157142D01*
X151721428Y-31180952D01*
X151745238Y-31180952D01*
X151792857Y-31157142D01*
X151816666Y-31133333D01*
X151840476Y-31085714D01*
X151840476Y-30990476D01*
X151864285Y-30942857D01*
X151888095Y-30919047D01*
X151935714Y-30895238D01*
X152030952Y-30895238D01*
X152078571Y-30919047D01*
X152102380Y-30942857D01*
X152126190Y-30990476D01*
X152126190Y-31085714D01*
X152102380Y-31133333D01*
X152078571Y-31157142D01*
X152030952Y-31180952D01*
X151935714Y-31180952D01*
X151888095Y-31157142D01*
X151864285Y-31133333D01*
X151840476Y-31085714D01*
X156026190Y-25004761D02*
X156026190Y-24766666D01*
X156264285Y-24742857D01*
X156240476Y-24766666D01*
X156216666Y-24814285D01*
X156216666Y-24933333D01*
X156240476Y-24980952D01*
X156264285Y-25004761D01*
X156311904Y-25028571D01*
X156430952Y-25028571D01*
X156478571Y-25004761D01*
X156502380Y-24980952D01*
X156526190Y-24933333D01*
X156526190Y-24814285D01*
X156502380Y-24766666D01*
X156478571Y-24742857D01*
X156026190Y-25171428D02*
X156526190Y-25338095D01*
X156026190Y-25504761D01*
X152880952Y-28773809D02*
X152857142Y-28750000D01*
X152809523Y-28726190D01*
X152690476Y-28726190D01*
X152642857Y-28750000D01*
X152619047Y-28773809D01*
X152595238Y-28821428D01*
X152595238Y-28869047D01*
X152619047Y-28940476D01*
X152904761Y-29226190D01*
X152595238Y-29226190D01*
X152404761Y-28773809D02*
X152380952Y-28750000D01*
X152333333Y-28726190D01*
X152214285Y-28726190D01*
X152166666Y-28750000D01*
X152142857Y-28773809D01*
X152119047Y-28821428D01*
X152119047Y-28869047D01*
X152142857Y-28940476D01*
X152428571Y-29226190D01*
X152119047Y-29226190D01*
X152326190Y-25004761D02*
X152326190Y-24719047D01*
X152326190Y-24861904D02*
X151826190Y-24861904D01*
X151897619Y-24814285D01*
X151945238Y-24766666D01*
X151969047Y-24719047D01*
X152326190Y-25242857D02*
X152326190Y-25338095D01*
X152302380Y-25385714D01*
X152278571Y-25409523D01*
X152207142Y-25457142D01*
X152111904Y-25480952D01*
X151921428Y-25480952D01*
X151873809Y-25457142D01*
X151850000Y-25433333D01*
X151826190Y-25385714D01*
X151826190Y-25290476D01*
X151850000Y-25242857D01*
X151873809Y-25219047D01*
X151921428Y-25195238D01*
X152040476Y-25195238D01*
X152088095Y-25219047D01*
X152111904Y-25242857D01*
X152135714Y-25290476D01*
X152135714Y-25385714D01*
X152111904Y-25433333D01*
X152088095Y-25457142D01*
X152040476Y-25480952D01*
X155095238Y-29226190D02*
X155380952Y-29226190D01*
X155238095Y-29226190D02*
X155238095Y-28726190D01*
X155285714Y-28797619D01*
X155333333Y-28845238D01*
X155380952Y-28869047D01*
X154857142Y-29226190D02*
X154761904Y-29226190D01*
X154714285Y-29202380D01*
X154690476Y-29178571D01*
X154642857Y-29107142D01*
X154619047Y-29011904D01*
X154619047Y-28821428D01*
X154642857Y-28773809D01*
X154666666Y-28750000D01*
X154714285Y-28726190D01*
X154809523Y-28726190D01*
X154857142Y-28750000D01*
X154880952Y-28773809D01*
X154904761Y-28821428D01*
X154904761Y-28940476D01*
X154880952Y-28988095D01*
X154857142Y-29011904D01*
X154809523Y-29035714D01*
X154714285Y-29035714D01*
X154666666Y-29011904D01*
X154642857Y-28988095D01*
X154619047Y-28940476D01*
X150380952Y-28773809D02*
X150357142Y-28750000D01*
X150309523Y-28726190D01*
X150190476Y-28726190D01*
X150142857Y-28750000D01*
X150119047Y-28773809D01*
X150095238Y-28821428D01*
X150095238Y-28869047D01*
X150119047Y-28940476D01*
X150404761Y-29226190D01*
X150095238Y-29226190D01*
X149619047Y-29226190D02*
X149904761Y-29226190D01*
X149761904Y-29226190D02*
X149761904Y-28726190D01*
X149809523Y-28797619D01*
X149857142Y-28845238D01*
X149904761Y-28869047D01*
X148326190Y-21669761D02*
X148088095Y-21503095D01*
X148326190Y-21384047D02*
X147826190Y-21384047D01*
X147826190Y-21574523D01*
X147850000Y-21622142D01*
X147873809Y-21645952D01*
X147921428Y-21669761D01*
X147992857Y-21669761D01*
X148040476Y-21645952D01*
X148064285Y-21622142D01*
X148088095Y-21574523D01*
X148088095Y-21384047D01*
X147850000Y-22145952D02*
X147826190Y-22098333D01*
X147826190Y-22026904D01*
X147850000Y-21955476D01*
X147897619Y-21907857D01*
X147945238Y-21884047D01*
X148040476Y-21860238D01*
X148111904Y-21860238D01*
X148207142Y-21884047D01*
X148254761Y-21907857D01*
X148302380Y-21955476D01*
X148326190Y-22026904D01*
X148326190Y-22074523D01*
X148302380Y-22145952D01*
X148278571Y-22169761D01*
X148111904Y-22169761D01*
X148111904Y-22074523D01*
X148064285Y-22550714D02*
X148088095Y-22622142D01*
X148111904Y-22645952D01*
X148159523Y-22669761D01*
X148230952Y-22669761D01*
X148278571Y-22645952D01*
X148302380Y-22622142D01*
X148326190Y-22574523D01*
X148326190Y-22384047D01*
X147826190Y-22384047D01*
X147826190Y-22550714D01*
X147850000Y-22598333D01*
X147873809Y-22622142D01*
X147921428Y-22645952D01*
X147969047Y-22645952D01*
X148016666Y-22622142D01*
X148040476Y-22598333D01*
X148064285Y-22550714D01*
X148064285Y-22384047D01*
X148278571Y-22884047D02*
X148302380Y-22907857D01*
X148326190Y-22884047D01*
X148302380Y-22860238D01*
X148278571Y-22884047D01*
X148326190Y-22884047D01*
X148016666Y-22884047D02*
X148040476Y-22907857D01*
X148064285Y-22884047D01*
X148040476Y-22860238D01*
X148016666Y-22884047D01*
X148064285Y-22884047D01*
X147873809Y-23479285D02*
X147850000Y-23503095D01*
X147826190Y-23550714D01*
X147826190Y-23669761D01*
X147850000Y-23717380D01*
X147873809Y-23741190D01*
X147921428Y-23765000D01*
X147969047Y-23765000D01*
X148040476Y-23741190D01*
X148326190Y-23455476D01*
X148326190Y-23765000D01*
X147826190Y-24074523D02*
X147826190Y-24122142D01*
X147850000Y-24169761D01*
X147873809Y-24193571D01*
X147921428Y-24217380D01*
X148016666Y-24241190D01*
X148135714Y-24241190D01*
X148230952Y-24217380D01*
X148278571Y-24193571D01*
X148302380Y-24169761D01*
X148326190Y-24122142D01*
X148326190Y-24074523D01*
X148302380Y-24026904D01*
X148278571Y-24003095D01*
X148230952Y-23979285D01*
X148135714Y-23955476D01*
X148016666Y-23955476D01*
X147921428Y-23979285D01*
X147873809Y-24003095D01*
X147850000Y-24026904D01*
X147826190Y-24074523D01*
X147802380Y-24812619D02*
X148445238Y-24384047D01*
X148040476Y-25050714D02*
X148016666Y-25003095D01*
X147992857Y-24979285D01*
X147945238Y-24955476D01*
X147921428Y-24955476D01*
X147873809Y-24979285D01*
X147850000Y-25003095D01*
X147826190Y-25050714D01*
X147826190Y-25145952D01*
X147850000Y-25193571D01*
X147873809Y-25217380D01*
X147921428Y-25241190D01*
X147945238Y-25241190D01*
X147992857Y-25217380D01*
X148016666Y-25193571D01*
X148040476Y-25145952D01*
X148040476Y-25050714D01*
X148064285Y-25003095D01*
X148088095Y-24979285D01*
X148135714Y-24955476D01*
X148230952Y-24955476D01*
X148278571Y-24979285D01*
X148302380Y-25003095D01*
X148326190Y-25050714D01*
X148326190Y-25145952D01*
X148302380Y-25193571D01*
X148278571Y-25217380D01*
X148230952Y-25241190D01*
X148135714Y-25241190D01*
X148088095Y-25217380D01*
X148064285Y-25193571D01*
X148040476Y-25145952D01*
X147802380Y-25812619D02*
X148445238Y-25384047D01*
X147992857Y-26193571D02*
X148326190Y-26193571D01*
X147802380Y-26074523D02*
X148159523Y-25955476D01*
X148159523Y-26265000D01*
X159075000Y-37575000D02*
X159110714Y-37646428D01*
X159110714Y-37753571D01*
X159075000Y-37860714D01*
X159003571Y-37932142D01*
X158932142Y-37967857D01*
X158789285Y-38003571D01*
X158682142Y-38003571D01*
X158539285Y-37967857D01*
X158467857Y-37932142D01*
X158396428Y-37860714D01*
X158360714Y-37753571D01*
X158360714Y-37682142D01*
X158396428Y-37575000D01*
X158432142Y-37539285D01*
X158682142Y-37539285D01*
X158682142Y-37682142D01*
X158396428Y-36932142D02*
X158360714Y-37003571D01*
X158360714Y-37146428D01*
X158396428Y-37217857D01*
X158467857Y-37253571D01*
X158753571Y-37253571D01*
X158825000Y-37217857D01*
X158860714Y-37146428D01*
X158860714Y-37003571D01*
X158825000Y-36932142D01*
X158753571Y-36896428D01*
X158682142Y-36896428D01*
X158610714Y-37253571D01*
X158860714Y-36575000D02*
X158360714Y-36575000D01*
X158789285Y-36575000D02*
X158825000Y-36539285D01*
X158860714Y-36467857D01*
X158860714Y-36360714D01*
X158825000Y-36289285D01*
X158753571Y-36253571D01*
X158360714Y-36253571D01*
X158396428Y-35610714D02*
X158360714Y-35682142D01*
X158360714Y-35825000D01*
X158396428Y-35896428D01*
X158467857Y-35932142D01*
X158753571Y-35932142D01*
X158825000Y-35896428D01*
X158860714Y-35825000D01*
X158860714Y-35682142D01*
X158825000Y-35610714D01*
X158753571Y-35575000D01*
X158682142Y-35575000D01*
X158610714Y-35932142D01*
X158360714Y-35253571D02*
X158860714Y-35253571D01*
X158717857Y-35253571D02*
X158789285Y-35217857D01*
X158825000Y-35182142D01*
X158860714Y-35110714D01*
X158860714Y-35039285D01*
X158360714Y-34789285D02*
X158860714Y-34789285D01*
X159110714Y-34789285D02*
X159075000Y-34825000D01*
X159039285Y-34789285D01*
X159075000Y-34753571D01*
X159110714Y-34789285D01*
X159039285Y-34789285D01*
X158396428Y-34110714D02*
X158360714Y-34182142D01*
X158360714Y-34325000D01*
X158396428Y-34396428D01*
X158432142Y-34432142D01*
X158503571Y-34467857D01*
X158717857Y-34467857D01*
X158789285Y-34432142D01*
X158825000Y-34396428D01*
X158860714Y-34325000D01*
X158860714Y-34182142D01*
X158825000Y-34110714D01*
X159110714Y-33432142D02*
X159110714Y-33789285D01*
X158753571Y-33825000D01*
X158789285Y-33789285D01*
X158825000Y-33717857D01*
X158825000Y-33539285D01*
X158789285Y-33467857D01*
X158753571Y-33432142D01*
X158682142Y-33396428D01*
X158503571Y-33396428D01*
X158432142Y-33432142D01*
X158396428Y-33467857D01*
X158360714Y-33539285D01*
X158360714Y-33717857D01*
X158396428Y-33789285D01*
X158432142Y-33825000D01*
X158340476Y-24761904D02*
X158340476Y-25238095D01*
X158483333Y-24857142D02*
X158483333Y-25142857D01*
X158126190Y-25000000D02*
X158340476Y-25000000D01*
X158626190Y-25047619D02*
X158626190Y-24952380D01*
D11*
X147757142Y-30785714D02*
X147566666Y-31452380D01*
X147376190Y-30976190D01*
X147185714Y-31452380D01*
X146995238Y-30785714D01*
X146709523Y-30785714D02*
X146519047Y-31452380D01*
X146328571Y-30976190D01*
X146138095Y-31452380D01*
X145947619Y-30785714D01*
X145661904Y-30785714D02*
X145471428Y-31452380D01*
X145280952Y-30976190D01*
X145090476Y-31452380D01*
X144900000Y-30785714D01*
X144519047Y-31357142D02*
X144471428Y-31404761D01*
X144519047Y-31452380D01*
X144566666Y-31404761D01*
X144519047Y-31357142D01*
X144519047Y-31452380D01*
X144042857Y-31452380D02*
X144042857Y-30785714D01*
X144042857Y-30880952D02*
X143995238Y-30833333D01*
X143900000Y-30785714D01*
X143757142Y-30785714D01*
X143661904Y-30833333D01*
X143614285Y-30928571D01*
X143614285Y-31452380D01*
X143614285Y-30928571D02*
X143566666Y-30833333D01*
X143471428Y-30785714D01*
X143328571Y-30785714D01*
X143233333Y-30833333D01*
X143185714Y-30928571D01*
X143185714Y-31452380D01*
X142328571Y-31404761D02*
X142423809Y-31452380D01*
X142614285Y-31452380D01*
X142709523Y-31404761D01*
X142757142Y-31309523D01*
X142757142Y-30928571D01*
X142709523Y-30833333D01*
X142614285Y-30785714D01*
X142423809Y-30785714D01*
X142328571Y-30833333D01*
X142280952Y-30928571D01*
X142280952Y-31023809D01*
X142757142Y-31119047D01*
X141852380Y-31357142D02*
X141804761Y-31404761D01*
X141852380Y-31452380D01*
X141900000Y-31404761D01*
X141852380Y-31357142D01*
X141852380Y-31452380D01*
X140947619Y-30785714D02*
X140947619Y-31452380D01*
X141376190Y-30785714D02*
X141376190Y-31309523D01*
X141328571Y-31404761D01*
X141233333Y-31452380D01*
X141090476Y-31452380D01*
X140995238Y-31404761D01*
X140947619Y-31357142D01*
X140471428Y-31452380D02*
X140471428Y-30452380D01*
X140376190Y-31071428D02*
X140090476Y-31452380D01*
X140090476Y-30785714D02*
X140471428Y-31166666D01*
D10*
X157666666Y-28726190D02*
X157333333Y-28726190D01*
X157547619Y-29226190D01*
D12*
%TO.C,U3*%
X156175000Y-50850000D02*
X156175000Y-47750000D01*
X153125000Y-47575000D02*
X151525000Y-47575000D01*
%TO.C,R11*%
X148750000Y-40050000D02*
X148750000Y-39450000D01*
X149750000Y-40050000D02*
X149750000Y-39450000D01*
%TO.C,R10*%
X156750000Y-39450000D02*
X156750000Y-40050000D01*
X157750000Y-39450000D02*
X157750000Y-40050000D01*
%TO.C,R7*%
X154000000Y-40050000D02*
X154000000Y-39450000D01*
X153000000Y-40050000D02*
X153000000Y-39450000D01*
%TO.C,R4*%
X158399520Y-22174520D02*
X158399520Y-22774520D01*
X157399520Y-22174520D02*
X157399520Y-22774520D01*
%TO.C,C1*%
X150000000Y-34200000D02*
X150000000Y-34800000D01*
X151000000Y-34200000D02*
X151000000Y-34800000D01*
%TO.C,D1*%
X151035000Y-21700000D02*
X151035000Y-25585000D01*
X148765000Y-25585000D02*
X148765000Y-21700000D01*
X151035000Y-25585000D02*
X148765000Y-25585000D01*
%TO.C,R1*%
X158300000Y-32750000D02*
X157700000Y-32750000D01*
X158300000Y-31750000D02*
X157700000Y-31750000D01*
%TO.C,R9*%
X159000000Y-39450000D02*
X159000000Y-40050000D01*
X158000000Y-39450000D02*
X158000000Y-40050000D01*
%TO.C,R3*%
X154799520Y-23974520D02*
X155399520Y-23974520D01*
X154799520Y-22974520D02*
X155399520Y-22974520D01*
%TO.C,JP1*%
X158950000Y-24372936D02*
X158950000Y-25827064D01*
X157850000Y-24372936D02*
X157850000Y-25827064D01*
%TO.C,Q1*%
X151360000Y-29970000D02*
X151360000Y-32000000D01*
X151360000Y-29970000D02*
X150700000Y-29970000D01*
X149700000Y-29970000D02*
X149040000Y-29970000D01*
X149040000Y-31380000D02*
X149040000Y-29970000D01*
%TO.C,R8*%
X155250000Y-40050000D02*
X155250000Y-39450000D01*
X154250000Y-40050000D02*
X154250000Y-39450000D01*
%TO.C,R12*%
X148750000Y-37225000D02*
X148750000Y-36625000D01*
X149750000Y-37225000D02*
X149750000Y-36625000D01*
%TO.C,R5*%
X151000000Y-40050000D02*
X151000000Y-39450000D01*
X150000000Y-40050000D02*
X150000000Y-39450000D01*
%TO.C,R2*%
X154799520Y-21774520D02*
X155399520Y-21774520D01*
X154799520Y-22774520D02*
X155399520Y-22774520D01*
%TO.C,U2*%
X155012652Y-32028662D02*
X154500000Y-31516009D01*
X154500000Y-31516009D02*
X153987348Y-32028662D01*
X152028662Y-35012652D02*
X151516009Y-34500000D01*
X153987348Y-36971338D02*
X154500000Y-37483991D01*
X151516009Y-34500000D02*
X152028662Y-33987348D01*
X154500000Y-37483991D02*
X155012652Y-36971338D01*
X157328426Y-34500000D02*
G75*
G03*
X157328426Y-34500000I-282842J0D01*
G01*
%TO.C,R6*%
X156500000Y-39450000D02*
X156500000Y-40050000D01*
X155500000Y-39450000D02*
X155500000Y-40050000D01*
%TO.C,JP2*%
X157027064Y-25650000D02*
X155572936Y-25650000D01*
X157027064Y-24550000D02*
X155572936Y-24550000D01*
%TO.C,D2*%
X152349520Y-22624520D02*
X151349520Y-22624520D01*
X152349520Y-21524520D02*
X152349520Y-22624520D01*
%TO.C,JP3*%
X154477064Y-24550000D02*
X153022936Y-24550000D01*
X154477064Y-25650000D02*
X153022936Y-25650000D01*
%TD*%
M02*
