%TF.GenerationSoftware,KiCad,Pcbnew,(6.0.2-0)*%
%TF.CreationDate,2022-04-04T13:20:22+01:00*%
%TF.ProjectId,Generic0,47656e65-7269-4633-902e-6b696361645f,1*%
%TF.SameCoordinates,Original*%
%TF.FileFunction,Copper,L1,Top*%
%TF.FilePolarity,Positive*%
%FSLAX46Y46*%
G04 Gerber Fmt 4.6, Leading zero omitted, Abs format (unit mm)*
G04 Created by KiCad (PCBNEW (6.0.2-0)) date 2022-04-04 13:20:22*
%MOMM*%
%LPD*%
G01*
G04 APERTURE LIST*
G04 Aperture macros list*
%AMOutline5P*
0 Free polygon, 5 corners , with rotation*
0 The origin of the aperture is its center*
0 number of corners: always 5*
0 $1 to $10 corner X, Y*
0 $11 Rotation angle, in degrees counterclockwise*
0 create outline with 5 corners*
4,1,5,$1,$2,$3,$4,$5,$6,$7,$8,$9,$10,$1,$2,$11*%
%AMOutline6P*
0 Free polygon, 6 corners , with rotation*
0 The origin of the aperture is its center*
0 number of corners: always 6*
0 $1 to $12 corner X, Y*
0 $13 Rotation angle, in degrees counterclockwise*
0 create outline with 6 corners*
4,1,6,$1,$2,$3,$4,$5,$6,$7,$8,$9,$10,$11,$12,$1,$2,$13*%
%AMOutline7P*
0 Free polygon, 7 corners , with rotation*
0 The origin of the aperture is its center*
0 number of corners: always 7*
0 $1 to $14 corner X, Y*
0 $15 Rotation angle, in degrees counterclockwise*
0 create outline with 7 corners*
4,1,7,$1,$2,$3,$4,$5,$6,$7,$8,$9,$10,$11,$12,$13,$14,$1,$2,$15*%
%AMOutline8P*
0 Free polygon, 8 corners , with rotation*
0 The origin of the aperture is its center*
0 number of corners: always 8*
0 $1 to $16 corner X, Y*
0 $17 Rotation angle, in degrees counterclockwise*
0 create outline with 8 corners*
4,1,8,$1,$2,$3,$4,$5,$6,$7,$8,$9,$10,$11,$12,$13,$14,$15,$16,$1,$2,$17*%
G04 Aperture macros list end*
%TA.AperFunction,ComponentPad*%
%ADD10R,1.700000X1.700000*%
%TD*%
%TA.AperFunction,ComponentPad*%
%ADD11O,1.700000X1.700000*%
%TD*%
%TA.AperFunction,SMDPad,CuDef*%
%ADD12R,0.800000X0.400000*%
%TD*%
%TA.AperFunction,SMDPad,CuDef*%
%ADD13R,0.400000X0.800000*%
%TD*%
%TA.AperFunction,SMDPad,CuDef*%
%ADD14R,1.450000X1.450000*%
%TD*%
%TA.AperFunction,SMDPad,CuDef*%
%ADD15Outline5P,-0.725000X0.130500X-0.130500X0.725000X0.725000X0.725000X0.725000X-0.725000X-0.725000X-0.725000X0.000000*%
%TD*%
%TA.AperFunction,SMDPad,CuDef*%
%ADD16R,0.700000X0.700000*%
%TD*%
%TA.AperFunction,ViaPad*%
%ADD17C,0.800000*%
%TD*%
%TA.AperFunction,Conductor*%
%ADD18C,0.250000*%
%TD*%
G04 APERTURE END LIST*
D10*
%TO.P,J1,1,GND*%
%TO.N,GND*%
X94920000Y-50900000D03*
D11*
%TO.P,J1,2,0*%
%TO.N,GPIO0*%
X97460000Y-50900000D03*
%TO.P,J1,3,3V3*%
%TO.N,+3V3*%
X100000000Y-50900000D03*
%TO.P,J1,4,Rx*%
%TO.N,RX*%
X102540000Y-50900000D03*
%TO.P,J1,5,Tx*%
%TO.N,TX*%
X105080000Y-50900000D03*
%TD*%
D12*
%TO.P,U1,1,GND*%
%TO.N,GND*%
X94100000Y-40193250D03*
%TO.P,U1,2,GND*%
X94100000Y-40993250D03*
%TO.P,U1,3,3V3*%
%TO.N,+3V3*%
X94100000Y-41793250D03*
%TO.P,U1,4,I36*%
%TO.N,unconnected-(U1-Pad4)*%
X94100000Y-42593250D03*
%TO.P,U1,5,I37*%
%TO.N,unconnected-(U1-Pad5)*%
X94100000Y-43393250D03*
%TO.P,U1,6,I38*%
%TO.N,unconnected-(U1-Pad6)*%
X94100000Y-44193250D03*
%TO.P,U1,7,I39*%
%TO.N,unconnected-(U1-Pad7)*%
X94100000Y-44993250D03*
%TO.P,U1,8,EN*%
%TO.N,EN*%
X94100000Y-45793250D03*
%TO.P,U1,9,I34*%
%TO.N,unconnected-(U1-Pad9)*%
X94100000Y-46593250D03*
%TO.P,U1,10,I35*%
%TO.N,unconnected-(U1-Pad10)*%
X94100000Y-47393250D03*
%TO.P,U1,11,GND*%
%TO.N,GND*%
X94100000Y-48193250D03*
D13*
%TO.P,U1,12,IO32*%
%TO.N,unconnected-(U1-Pad12)*%
X95200000Y-49093250D03*
%TO.P,U1,13,IO33*%
%TO.N,unconnected-(U1-Pad13)*%
X96000000Y-49093250D03*
%TO.P,U1,14,GND*%
%TO.N,GND*%
X96800000Y-49093250D03*
%TO.P,U1,15,IO25*%
%TO.N,unconnected-(U1-Pad15)*%
X97600000Y-49093250D03*
%TO.P,U1,16,IO26*%
%TO.N,unconnected-(U1-Pad16)*%
X98400000Y-49093250D03*
%TO.P,U1,17,IO27*%
%TO.N,unconnected-(U1-Pad17)*%
X99200000Y-49093250D03*
%TO.P,U1,18,IO14*%
%TO.N,unconnected-(U1-Pad18)*%
X100000000Y-49093250D03*
%TO.P,U1,19,IO12*%
%TO.N,unconnected-(U1-Pad19)*%
X100800000Y-49093250D03*
%TO.P,U1,20,IO13*%
%TO.N,unconnected-(U1-Pad20)*%
X101600000Y-49093250D03*
%TO.P,U1,21,IO15*%
%TO.N,unconnected-(U1-Pad21)*%
X102400000Y-49093250D03*
%TO.P,U1,22,IO2*%
%TO.N,unconnected-(U1-Pad22)*%
X103200000Y-49093250D03*
%TO.P,U1,23,IO0*%
%TO.N,GPIO0*%
X104000000Y-49093250D03*
%TO.P,U1,24,IO4*%
%TO.N,unconnected-(U1-Pad24)*%
X104800000Y-49093250D03*
D12*
%TO.P,U1,25,NC*%
%TO.N,unconnected-(U1-Pad25)*%
X105900000Y-48193250D03*
%TO.P,U1,26,IO20*%
%TO.N,unconnected-(U1-Pad26)*%
X105900000Y-47393250D03*
%TO.P,U1,27,IO7*%
%TO.N,B*%
X105900000Y-46593250D03*
%TO.P,U1,28,IO8*%
%TO.N,unconnected-(U1-Pad28)*%
X105900000Y-45793250D03*
%TO.P,U1,29,IO5*%
%TO.N,unconnected-(U1-Pad29)*%
X105900000Y-44993250D03*
%TO.P,U1,30,RXD0*%
%TO.N,RX*%
X105900000Y-44193250D03*
%TO.P,U1,31,TXD0*%
%TO.N,TX*%
X105900000Y-43393250D03*
%TO.P,U1,32,NC*%
%TO.N,unconnected-(U1-Pad32)*%
X105900000Y-42593250D03*
%TO.P,U1,33,IO19*%
%TO.N,G*%
X105900000Y-41793250D03*
%TO.P,U1,34,IO22*%
%TO.N,R*%
X105900000Y-40993250D03*
%TO.P,U1,35,IO21*%
%TO.N,unconnected-(U1-Pad35)*%
X105900000Y-40193250D03*
D13*
%TO.P,U1,36,GND*%
%TO.N,GND*%
X104800000Y-39293250D03*
%TO.P,U1,37,GND*%
X104000000Y-39293250D03*
%TO.P,U1,38,GND*%
X103200000Y-39293250D03*
%TO.P,U1,39,GND*%
X102400000Y-39293250D03*
%TO.P,U1,40,GND*%
X101600000Y-39293250D03*
%TO.P,U1,41,GND*%
X100800000Y-39293250D03*
%TO.P,U1,42,GND*%
X100000000Y-39293250D03*
%TO.P,U1,43,GND*%
X99200000Y-39293250D03*
%TO.P,U1,44,GND*%
X98400000Y-39293250D03*
%TO.P,U1,45,GND*%
X97600000Y-39293250D03*
%TO.P,U1,46,GND*%
X96800000Y-39293250D03*
%TO.P,U1,47,GND*%
X96000000Y-39293250D03*
%TO.P,U1,48,GND*%
X95200000Y-39293250D03*
D14*
%TO.P,U1,49,GND*%
X101975000Y-44193250D03*
X98025000Y-44193250D03*
X100000000Y-44193250D03*
X101975000Y-42218250D03*
X101975000Y-46168250D03*
D15*
X98025000Y-42218250D03*
D14*
X100000000Y-42218250D03*
X98025000Y-46168250D03*
X100000000Y-46168250D03*
D16*
%TO.P,U1,50,GND*%
X105950000Y-39243250D03*
%TO.P,U1,51,GND*%
X105950000Y-49143250D03*
%TO.P,U1,52,GND*%
X94050000Y-49143250D03*
%TO.P,U1,53,GND*%
X94050000Y-39243250D03*
%TD*%
D17*
%TO.N,GPIO0*%
X102500000Y-48000000D03*
%TO.N,EN*%
X95900000Y-45800000D03*
%TO.N,GND*%
X94800000Y-40000000D03*
X95400000Y-47400000D03*
X95600000Y-43200000D03*
X106000000Y-49700000D03*
%TO.N,TX*%
X104200000Y-45000000D03*
%TO.N,RX*%
X104200000Y-46000000D03*
%TO.N,B*%
X103600000Y-43000000D03*
%TO.N,R*%
X97469964Y-41069964D03*
%TO.N,G*%
X104402456Y-42024020D03*
%TO.N,+3V3*%
X99620136Y-48121366D03*
X95600000Y-41800000D03*
%TD*%
D18*
%TO.N,GPIO0*%
X103556750Y-48000000D02*
X102500000Y-48000000D01*
X104000000Y-48443250D02*
X103556750Y-48000000D01*
X104000000Y-49093250D02*
X104000000Y-48443250D01*
%TO.N,EN*%
X95900000Y-45800000D02*
X94106750Y-45800000D01*
X94100000Y-45793250D02*
G75*
G03*
X94106750Y-45800000I6750J0D01*
G01*
%TO.N,G*%
X105900000Y-41793250D02*
X104633226Y-41793250D01*
X104633226Y-41793250D02*
X104402456Y-42024020D01*
%TO.N,RX*%
X104224600Y-46000000D02*
X104200000Y-46000000D01*
X104924501Y-45300099D02*
X104224600Y-46000000D01*
%TO.N,TX*%
X105900000Y-43393250D02*
X105250000Y-43393250D01*
%TO.N,RX*%
X104924501Y-44518749D02*
X104924501Y-45300099D01*
X105250000Y-44193250D02*
X104924501Y-44518749D01*
X105900000Y-44193250D02*
X105250000Y-44193250D01*
%TO.N,TX*%
X104200000Y-44443250D02*
X104200000Y-45000000D01*
X105250000Y-43393250D02*
X104200000Y-44443250D01*
%TO.N,B*%
X103463200Y-43136800D02*
X103600000Y-43000000D01*
X103463200Y-46287800D02*
X103463200Y-43136800D01*
X105900000Y-46593250D02*
X105768749Y-46724501D01*
X103899901Y-46724501D02*
X103463200Y-46287800D01*
X105768749Y-46724501D02*
X103899901Y-46724501D01*
%TO.N,GND*%
X94920000Y-50900000D02*
X94050000Y-50030000D01*
X94050000Y-50030000D02*
X94050000Y-49143250D01*
%TO.N,R*%
X97469964Y-41069964D02*
X97546678Y-40993250D01*
X97546678Y-40993250D02*
X105900000Y-40993250D01*
%TO.N,+3V3*%
X95600000Y-41800000D02*
X96800000Y-43000000D01*
X97879094Y-48121366D02*
X99620136Y-48121366D01*
X96800000Y-43000000D02*
X96800000Y-47042272D01*
X96800000Y-47042272D02*
X97879094Y-48121366D01*
X94106750Y-41800000D02*
X94100000Y-41793250D01*
X95600000Y-41800000D02*
X94106750Y-41800000D01*
%TD*%
%TA.AperFunction,Conductor*%
%TO.N,GND*%
G36*
X106146121Y-48909252D02*
G01*
X106192614Y-48962908D01*
X106204000Y-49015250D01*
X106204000Y-49983134D01*
X106208475Y-49998373D01*
X106209865Y-49999578D01*
X106217548Y-50001249D01*
X106220000Y-50001249D01*
X106227009Y-50003307D01*
X106230783Y-50004128D01*
X106230724Y-50004398D01*
X106288121Y-50021251D01*
X106334614Y-50074907D01*
X106346000Y-50127249D01*
X106346000Y-50429395D01*
X106325998Y-50497516D01*
X106272342Y-50544009D01*
X106202068Y-50554113D01*
X106137488Y-50524619D01*
X106106994Y-50485123D01*
X106028331Y-50325609D01*
X106025776Y-50320428D01*
X105904320Y-50157779D01*
X105755258Y-50019987D01*
X105750371Y-50016904D01*
X105745787Y-50013386D01*
X105747387Y-50011301D01*
X105707831Y-49966419D01*
X105696000Y-49913114D01*
X105696000Y-49015250D01*
X105716002Y-48947129D01*
X105769658Y-48900636D01*
X105822000Y-48889250D01*
X106078000Y-48889250D01*
X106146121Y-48909252D01*
G37*
%TD.AperFunction*%
%TA.AperFunction,Conductor*%
G36*
X95368262Y-46199502D02*
G01*
X95395522Y-46223169D01*
X95396672Y-46224501D01*
X95400908Y-46230805D01*
X95406525Y-46235916D01*
X95504427Y-46324999D01*
X95518076Y-46337419D01*
X95657293Y-46413008D01*
X95810522Y-46453207D01*
X95894477Y-46454526D01*
X95961319Y-46455576D01*
X95961322Y-46455576D01*
X95968916Y-46455695D01*
X96123332Y-46420329D01*
X96237886Y-46362715D01*
X96307731Y-46349977D01*
X96373375Y-46377021D01*
X96413976Y-46435262D01*
X96420500Y-46475280D01*
X96420500Y-46988352D01*
X96417951Y-47012300D01*
X96417872Y-47013965D01*
X96415680Y-47024148D01*
X96416904Y-47034489D01*
X96419627Y-47057495D01*
X96419977Y-47063426D01*
X96420072Y-47063418D01*
X96420500Y-47068596D01*
X96420500Y-47073796D01*
X96421354Y-47078925D01*
X96421354Y-47078928D01*
X96423669Y-47092837D01*
X96424506Y-47098715D01*
X96425394Y-47106214D01*
X96430530Y-47149613D01*
X96434493Y-47157865D01*
X96435996Y-47166898D01*
X96440943Y-47176067D01*
X96440944Y-47176069D01*
X96460334Y-47212004D01*
X96463031Y-47217297D01*
X96481785Y-47256354D01*
X96481788Y-47256358D01*
X96485219Y-47263504D01*
X96488814Y-47267780D01*
X96490737Y-47269703D01*
X96492509Y-47271635D01*
X96492552Y-47271714D01*
X96492428Y-47271827D01*
X96492904Y-47272367D01*
X96495990Y-47278086D01*
X96503635Y-47285153D01*
X96535586Y-47314688D01*
X96539152Y-47318118D01*
X97196939Y-47975905D01*
X97230965Y-48038217D01*
X97225900Y-48109032D01*
X97183353Y-48165868D01*
X97116833Y-48190679D01*
X97094237Y-48190263D01*
X97051488Y-48185619D01*
X97044672Y-48185250D01*
X97018115Y-48185250D01*
X97002876Y-48189725D01*
X97001671Y-48191115D01*
X97000000Y-48198798D01*
X97000000Y-49167250D01*
X96979998Y-49235371D01*
X96926342Y-49281864D01*
X96874000Y-49293250D01*
X96726000Y-49293250D01*
X96657879Y-49273248D01*
X96611386Y-49219592D01*
X96600000Y-49167250D01*
X96600000Y-48203366D01*
X96595525Y-48188127D01*
X96594135Y-48186922D01*
X96586452Y-48185251D01*
X96555331Y-48185251D01*
X96548510Y-48185621D01*
X96497648Y-48191145D01*
X96482396Y-48194771D01*
X96361946Y-48239926D01*
X96346351Y-48248464D01*
X96244276Y-48324965D01*
X96231719Y-48337522D01*
X96193652Y-48388315D01*
X96136792Y-48430830D01*
X96092825Y-48438750D01*
X95795059Y-48438751D01*
X95774934Y-48438751D01*
X95739182Y-48445862D01*
X95712874Y-48451094D01*
X95712872Y-48451095D01*
X95700699Y-48453516D01*
X95690379Y-48460411D01*
X95690378Y-48460412D01*
X95670002Y-48474027D01*
X95602249Y-48495242D01*
X95529998Y-48474027D01*
X95509621Y-48460411D01*
X95509618Y-48460410D01*
X95499301Y-48453516D01*
X95425067Y-48438750D01*
X95403802Y-48438750D01*
X95099712Y-48438751D01*
X95031593Y-48418749D01*
X95017201Y-48407976D01*
X95002135Y-48394921D01*
X94994452Y-48393250D01*
X94322115Y-48393250D01*
X94306876Y-48397725D01*
X94305671Y-48399115D01*
X94304000Y-48406798D01*
X94304000Y-49271250D01*
X94283998Y-49339371D01*
X94230342Y-49385864D01*
X94178000Y-49397250D01*
X93922000Y-49397250D01*
X93853879Y-49377248D01*
X93807386Y-49323592D01*
X93796000Y-49271250D01*
X93796000Y-48364790D01*
X93816002Y-48296669D01*
X93869658Y-48250176D01*
X93886503Y-48243894D01*
X93897124Y-48240776D01*
X93898329Y-48239385D01*
X93900000Y-48231702D01*
X93900000Y-48119250D01*
X93920002Y-48051129D01*
X93973658Y-48004636D01*
X94026000Y-47993250D01*
X94989884Y-47993250D01*
X95005123Y-47988775D01*
X95006328Y-47987385D01*
X95007999Y-47979702D01*
X95007999Y-47948581D01*
X95007629Y-47941760D01*
X95002105Y-47890898D01*
X94998479Y-47875646D01*
X94953324Y-47755196D01*
X94944786Y-47739601D01*
X94868285Y-47637526D01*
X94855728Y-47624969D01*
X94804935Y-47586902D01*
X94762420Y-47530042D01*
X94754500Y-47486075D01*
X94754499Y-47174373D01*
X94754499Y-47168184D01*
X94745712Y-47124003D01*
X94742156Y-47106124D01*
X94742155Y-47106122D01*
X94739734Y-47093949D01*
X94729698Y-47078928D01*
X94719223Y-47063252D01*
X94698008Y-46995499D01*
X94719223Y-46923248D01*
X94732839Y-46902871D01*
X94732840Y-46902868D01*
X94739734Y-46892551D01*
X94754500Y-46818317D01*
X94754499Y-46368184D01*
X94746920Y-46330079D01*
X94753249Y-46259366D01*
X94796804Y-46203299D01*
X94870499Y-46179500D01*
X95300141Y-46179500D01*
X95368262Y-46199502D01*
G37*
%TD.AperFunction*%
%TA.AperFunction,Conductor*%
G36*
X94896581Y-39009252D02*
G01*
X94943074Y-39062908D01*
X94949356Y-39079753D01*
X94952474Y-39090374D01*
X94953865Y-39091579D01*
X94961548Y-39093250D01*
X105033885Y-39093250D01*
X105049124Y-39088775D01*
X105051292Y-39086274D01*
X105084117Y-39026156D01*
X105146429Y-38992130D01*
X105173214Y-38989250D01*
X106078000Y-38989250D01*
X106146121Y-39009252D01*
X106192614Y-39062908D01*
X106204000Y-39115250D01*
X106204000Y-39371250D01*
X106183998Y-39439371D01*
X106130342Y-39485864D01*
X106078000Y-39497250D01*
X105070388Y-39497250D01*
X105043605Y-39494371D01*
X105038452Y-39493250D01*
X105018115Y-39493250D01*
X105002876Y-39497725D01*
X105001671Y-39499115D01*
X105000000Y-39506798D01*
X105000000Y-40183134D01*
X105004475Y-40198373D01*
X105005865Y-40199578D01*
X105013548Y-40201249D01*
X105044669Y-40201249D01*
X105051488Y-40200880D01*
X105105895Y-40194970D01*
X105175777Y-40207499D01*
X105227792Y-40255820D01*
X105245501Y-40320232D01*
X105245501Y-40418316D01*
X105253395Y-40458003D01*
X105254423Y-40463172D01*
X105248093Y-40533886D01*
X105204537Y-40589952D01*
X105130843Y-40613750D01*
X97989827Y-40613750D01*
X97921706Y-40593748D01*
X97906008Y-40581827D01*
X97900292Y-40576734D01*
X97846239Y-40528575D01*
X97838853Y-40524664D01*
X97712952Y-40458003D01*
X97712953Y-40458003D01*
X97706238Y-40454448D01*
X97698876Y-40452599D01*
X97698874Y-40452598D01*
X97686352Y-40449453D01*
X97625157Y-40413457D01*
X97593137Y-40350091D01*
X97600458Y-40279473D01*
X97644796Y-40224024D01*
X97717049Y-40201249D01*
X97844669Y-40201249D01*
X97851490Y-40200879D01*
X97902352Y-40195355D01*
X97917603Y-40191729D01*
X97955770Y-40177421D01*
X98026577Y-40172238D01*
X98044230Y-40177421D01*
X98082394Y-40191728D01*
X98097649Y-40195355D01*
X98148514Y-40200881D01*
X98155328Y-40201250D01*
X98181885Y-40201250D01*
X98197124Y-40196775D01*
X98198329Y-40195385D01*
X98200000Y-40187702D01*
X98200000Y-40183134D01*
X98600000Y-40183134D01*
X98604475Y-40198373D01*
X98605865Y-40199578D01*
X98613548Y-40201249D01*
X98644669Y-40201249D01*
X98651490Y-40200879D01*
X98702352Y-40195355D01*
X98717603Y-40191729D01*
X98755770Y-40177421D01*
X98826577Y-40172238D01*
X98844230Y-40177421D01*
X98882394Y-40191728D01*
X98897649Y-40195355D01*
X98948514Y-40200881D01*
X98955328Y-40201250D01*
X98981885Y-40201250D01*
X98997124Y-40196775D01*
X98998329Y-40195385D01*
X99000000Y-40187702D01*
X99000000Y-40183134D01*
X99400000Y-40183134D01*
X99404475Y-40198373D01*
X99405865Y-40199578D01*
X99413548Y-40201249D01*
X99444669Y-40201249D01*
X99451490Y-40200879D01*
X99502352Y-40195355D01*
X99517603Y-40191729D01*
X99555770Y-40177421D01*
X99626577Y-40172238D01*
X99644230Y-40177421D01*
X99682394Y-40191728D01*
X99697649Y-40195355D01*
X99748514Y-40200881D01*
X99755328Y-40201250D01*
X99781885Y-40201250D01*
X99797124Y-40196775D01*
X99798329Y-40195385D01*
X99800000Y-40187702D01*
X99800000Y-40183134D01*
X100200000Y-40183134D01*
X100204475Y-40198373D01*
X100205865Y-40199578D01*
X100213548Y-40201249D01*
X100244669Y-40201249D01*
X100251490Y-40200879D01*
X100302352Y-40195355D01*
X100317603Y-40191729D01*
X100355770Y-40177421D01*
X100426577Y-40172238D01*
X100444230Y-40177421D01*
X100482394Y-40191728D01*
X100497649Y-40195355D01*
X100548514Y-40200881D01*
X100555328Y-40201250D01*
X100581885Y-40201250D01*
X100597124Y-40196775D01*
X100598329Y-40195385D01*
X100600000Y-40187702D01*
X100600000Y-40183134D01*
X101000000Y-40183134D01*
X101004475Y-40198373D01*
X101005865Y-40199578D01*
X101013548Y-40201249D01*
X101044669Y-40201249D01*
X101051490Y-40200879D01*
X101102352Y-40195355D01*
X101117603Y-40191729D01*
X101155770Y-40177421D01*
X101226577Y-40172238D01*
X101244230Y-40177421D01*
X101282394Y-40191728D01*
X101297649Y-40195355D01*
X101348514Y-40200881D01*
X101355328Y-40201250D01*
X101381885Y-40201250D01*
X101397124Y-40196775D01*
X101398329Y-40195385D01*
X101400000Y-40187702D01*
X101400000Y-40183134D01*
X101800000Y-40183134D01*
X101804475Y-40198373D01*
X101805865Y-40199578D01*
X101813548Y-40201249D01*
X101844669Y-40201249D01*
X101851490Y-40200879D01*
X101902352Y-40195355D01*
X101917603Y-40191729D01*
X101955770Y-40177421D01*
X102026577Y-40172238D01*
X102044230Y-40177421D01*
X102082394Y-40191728D01*
X102097649Y-40195355D01*
X102148514Y-40200881D01*
X102155328Y-40201250D01*
X102181885Y-40201250D01*
X102197124Y-40196775D01*
X102198329Y-40195385D01*
X102200000Y-40187702D01*
X102200000Y-40183134D01*
X102600000Y-40183134D01*
X102604475Y-40198373D01*
X102605865Y-40199578D01*
X102613548Y-40201249D01*
X102644669Y-40201249D01*
X102651490Y-40200879D01*
X102702352Y-40195355D01*
X102717603Y-40191729D01*
X102755770Y-40177421D01*
X102826577Y-40172238D01*
X102844230Y-40177421D01*
X102882394Y-40191728D01*
X102897649Y-40195355D01*
X102948514Y-40200881D01*
X102955328Y-40201250D01*
X102981885Y-40201250D01*
X102997124Y-40196775D01*
X102998329Y-40195385D01*
X103000000Y-40187702D01*
X103000000Y-40183134D01*
X103400000Y-40183134D01*
X103404475Y-40198373D01*
X103405865Y-40199578D01*
X103413548Y-40201249D01*
X103444669Y-40201249D01*
X103451490Y-40200879D01*
X103502352Y-40195355D01*
X103517603Y-40191729D01*
X103555770Y-40177421D01*
X103626577Y-40172238D01*
X103644230Y-40177421D01*
X103682394Y-40191728D01*
X103697649Y-40195355D01*
X103748514Y-40200881D01*
X103755328Y-40201250D01*
X103781885Y-40201250D01*
X103797124Y-40196775D01*
X103798329Y-40195385D01*
X103800000Y-40187702D01*
X103800000Y-40183134D01*
X104200000Y-40183134D01*
X104204475Y-40198373D01*
X104205865Y-40199578D01*
X104213548Y-40201249D01*
X104244669Y-40201249D01*
X104251490Y-40200879D01*
X104302352Y-40195355D01*
X104317603Y-40191729D01*
X104355770Y-40177421D01*
X104426577Y-40172238D01*
X104444230Y-40177421D01*
X104482394Y-40191728D01*
X104497649Y-40195355D01*
X104548514Y-40200881D01*
X104555328Y-40201250D01*
X104581885Y-40201250D01*
X104597124Y-40196775D01*
X104598329Y-40195385D01*
X104600000Y-40187702D01*
X104600000Y-39511365D01*
X104595525Y-39496126D01*
X104594135Y-39494921D01*
X104586452Y-39493250D01*
X104218115Y-39493250D01*
X104202876Y-39497725D01*
X104201671Y-39499115D01*
X104200000Y-39506798D01*
X104200000Y-40183134D01*
X103800000Y-40183134D01*
X103800000Y-39511365D01*
X103795525Y-39496126D01*
X103794135Y-39494921D01*
X103786452Y-39493250D01*
X103418115Y-39493250D01*
X103402876Y-39497725D01*
X103401671Y-39499115D01*
X103400000Y-39506798D01*
X103400000Y-40183134D01*
X103000000Y-40183134D01*
X103000000Y-39511365D01*
X102995525Y-39496126D01*
X102994135Y-39494921D01*
X102986452Y-39493250D01*
X102618115Y-39493250D01*
X102602876Y-39497725D01*
X102601671Y-39499115D01*
X102600000Y-39506798D01*
X102600000Y-40183134D01*
X102200000Y-40183134D01*
X102200000Y-39511365D01*
X102195525Y-39496126D01*
X102194135Y-39494921D01*
X102186452Y-39493250D01*
X101818115Y-39493250D01*
X101802876Y-39497725D01*
X101801671Y-39499115D01*
X101800000Y-39506798D01*
X101800000Y-40183134D01*
X101400000Y-40183134D01*
X101400000Y-39511365D01*
X101395525Y-39496126D01*
X101394135Y-39494921D01*
X101386452Y-39493250D01*
X101018115Y-39493250D01*
X101002876Y-39497725D01*
X101001671Y-39499115D01*
X101000000Y-39506798D01*
X101000000Y-40183134D01*
X100600000Y-40183134D01*
X100600000Y-39511365D01*
X100595525Y-39496126D01*
X100594135Y-39494921D01*
X100586452Y-39493250D01*
X100218115Y-39493250D01*
X100202876Y-39497725D01*
X100201671Y-39499115D01*
X100200000Y-39506798D01*
X100200000Y-40183134D01*
X99800000Y-40183134D01*
X99800000Y-39511365D01*
X99795525Y-39496126D01*
X99794135Y-39494921D01*
X99786452Y-39493250D01*
X99418115Y-39493250D01*
X99402876Y-39497725D01*
X99401671Y-39499115D01*
X99400000Y-39506798D01*
X99400000Y-40183134D01*
X99000000Y-40183134D01*
X99000000Y-39511365D01*
X98995525Y-39496126D01*
X98994135Y-39494921D01*
X98986452Y-39493250D01*
X98618115Y-39493250D01*
X98602876Y-39497725D01*
X98601671Y-39499115D01*
X98600000Y-39506798D01*
X98600000Y-40183134D01*
X98200000Y-40183134D01*
X98200000Y-39511365D01*
X98195525Y-39496126D01*
X98194135Y-39494921D01*
X98186452Y-39493250D01*
X97018115Y-39493250D01*
X97002876Y-39497725D01*
X97001671Y-39499115D01*
X97000000Y-39506798D01*
X97000000Y-40183134D01*
X97004475Y-40198373D01*
X97005865Y-40199578D01*
X97013548Y-40201249D01*
X97044669Y-40201249D01*
X97051490Y-40200879D01*
X97102352Y-40195355D01*
X97117603Y-40191729D01*
X97155770Y-40177421D01*
X97226577Y-40172238D01*
X97244230Y-40177421D01*
X97282397Y-40191729D01*
X97292793Y-40194201D01*
X97354440Y-40229417D01*
X97387262Y-40292372D01*
X97380837Y-40363077D01*
X97337205Y-40419085D01*
X97293064Y-40439302D01*
X97247533Y-40450233D01*
X97247525Y-40450236D01*
X97240148Y-40452007D01*
X97099378Y-40524664D01*
X96980003Y-40628802D01*
X96888914Y-40758408D01*
X96831370Y-40906001D01*
X96810693Y-41063060D01*
X96819385Y-41141788D01*
X96825067Y-41193250D01*
X96828077Y-41220517D01*
X96830687Y-41227648D01*
X96830687Y-41227650D01*
X96878695Y-41358838D01*
X96882517Y-41369283D01*
X96886753Y-41375586D01*
X96886753Y-41375587D01*
X96956056Y-41478720D01*
X96970872Y-41500769D01*
X96976685Y-41506058D01*
X96976784Y-41506221D01*
X96981453Y-41511630D01*
X96980551Y-41512408D01*
X97013608Y-41566696D01*
X97011887Y-41637672D01*
X96980982Y-41688348D01*
X96914164Y-41755166D01*
X96908899Y-41761140D01*
X96863418Y-41819826D01*
X96855024Y-41834298D01*
X96805892Y-41953206D01*
X96805741Y-41953777D01*
X96806842Y-41960569D01*
X96819808Y-41964250D01*
X103189884Y-41964250D01*
X103205123Y-41959775D01*
X103206328Y-41958385D01*
X103207999Y-41950702D01*
X103207999Y-41498750D01*
X103228001Y-41430629D01*
X103281657Y-41384136D01*
X103333999Y-41372750D01*
X103819904Y-41372750D01*
X103888025Y-41392752D01*
X103934518Y-41446408D01*
X103944622Y-41516682D01*
X103914422Y-41581177D01*
X103912495Y-41582858D01*
X103821406Y-41712464D01*
X103763862Y-41860057D01*
X103762870Y-41867590D01*
X103762870Y-41867591D01*
X103751524Y-41953777D01*
X103743185Y-42017116D01*
X103760569Y-42174573D01*
X103763179Y-42181705D01*
X103764914Y-42189102D01*
X103762101Y-42189762D01*
X103765862Y-42247205D01*
X103731463Y-42309311D01*
X103668948Y-42342961D01*
X103642245Y-42345680D01*
X103570806Y-42345306D01*
X103524221Y-42345062D01*
X103516841Y-42346834D01*
X103516839Y-42346834D01*
X103377563Y-42380271D01*
X103377560Y-42380272D01*
X103370184Y-42382043D01*
X103229414Y-42454700D01*
X103228602Y-42453128D01*
X103166451Y-42472250D01*
X102247115Y-42472250D01*
X102231876Y-42476725D01*
X102230671Y-42478115D01*
X102229000Y-42485798D01*
X102229000Y-47326540D01*
X102208998Y-47394661D01*
X102160789Y-47438506D01*
X102136161Y-47451217D01*
X102136157Y-47451220D01*
X102129414Y-47454700D01*
X102010039Y-47558838D01*
X101918950Y-47688444D01*
X101892925Y-47755196D01*
X101871649Y-47809766D01*
X101861406Y-47836037D01*
X101860414Y-47843570D01*
X101860414Y-47843571D01*
X101843554Y-47971639D01*
X101840729Y-47993096D01*
X101841563Y-48000646D01*
X101856866Y-48139257D01*
X101858113Y-48150553D01*
X101860723Y-48157686D01*
X101860724Y-48157689D01*
X101901622Y-48269450D01*
X101906248Y-48340295D01*
X101871838Y-48402396D01*
X101809316Y-48436034D01*
X101783296Y-48438750D01*
X101433021Y-48438751D01*
X101374934Y-48438751D01*
X101339182Y-48445862D01*
X101312874Y-48451094D01*
X101312872Y-48451095D01*
X101300699Y-48453516D01*
X101290379Y-48460411D01*
X101290378Y-48460412D01*
X101270002Y-48474027D01*
X101202249Y-48495242D01*
X101129998Y-48474027D01*
X101109621Y-48460411D01*
X101109618Y-48460410D01*
X101099301Y-48453516D01*
X101025067Y-48438750D01*
X100800037Y-48438750D01*
X100574934Y-48438751D01*
X100539182Y-48445862D01*
X100512874Y-48451094D01*
X100512872Y-48451095D01*
X100500699Y-48453516D01*
X100490379Y-48460411D01*
X100490378Y-48460412D01*
X100470002Y-48474027D01*
X100402249Y-48495242D01*
X100330000Y-48474028D01*
X100299826Y-48453867D01*
X100254297Y-48399391D01*
X100245448Y-48328948D01*
X100252919Y-48302104D01*
X100254143Y-48299060D01*
X100254144Y-48299058D01*
X100256978Y-48292007D01*
X100271933Y-48186922D01*
X100278717Y-48139257D01*
X100278717Y-48139254D01*
X100279298Y-48135173D01*
X100279443Y-48121366D01*
X100277951Y-48109032D01*
X100275238Y-48086620D01*
X100260412Y-47964099D01*
X100204416Y-47815912D01*
X100148540Y-47734611D01*
X100118991Y-47691617D01*
X100118990Y-47691615D01*
X100114689Y-47685358D01*
X100109023Y-47680309D01*
X100109016Y-47680302D01*
X100042821Y-47621325D01*
X100005265Y-47561075D01*
X100006245Y-47490085D01*
X100045450Y-47430895D01*
X100110432Y-47402296D01*
X100126640Y-47401249D01*
X100769669Y-47401249D01*
X100776490Y-47400879D01*
X100827352Y-47395355D01*
X100842606Y-47391728D01*
X100943271Y-47353991D01*
X101014078Y-47348808D01*
X101031729Y-47353991D01*
X101132391Y-47391728D01*
X101147649Y-47395355D01*
X101198514Y-47400881D01*
X101205328Y-47401250D01*
X101702885Y-47401250D01*
X101718124Y-47396775D01*
X101719329Y-47395385D01*
X101721000Y-47387702D01*
X101721000Y-46440365D01*
X101716525Y-46425126D01*
X101715135Y-46423921D01*
X101707452Y-46422250D01*
X98297115Y-46422250D01*
X98281876Y-46426725D01*
X98280671Y-46428115D01*
X98279000Y-46435798D01*
X98279000Y-47383134D01*
X98283475Y-47398373D01*
X98284865Y-47399578D01*
X98292548Y-47401249D01*
X98794669Y-47401249D01*
X98801490Y-47400879D01*
X98852352Y-47395355D01*
X98867606Y-47391728D01*
X98968271Y-47353991D01*
X99039078Y-47348808D01*
X99056729Y-47353991D01*
X99157397Y-47391730D01*
X99157726Y-47391808D01*
X99157956Y-47391939D01*
X99164792Y-47394502D01*
X99164377Y-47395608D01*
X99219372Y-47427025D01*
X99252192Y-47489980D01*
X99245766Y-47560686D01*
X99211408Y-47609339D01*
X99135901Y-47675208D01*
X99135897Y-47675212D01*
X99130175Y-47680204D01*
X99125808Y-47686417D01*
X99125803Y-47686423D01*
X99124472Y-47688317D01*
X99123149Y-47689371D01*
X99120725Y-47692063D01*
X99120276Y-47691659D01*
X99068938Y-47732549D01*
X99021386Y-47741866D01*
X98088478Y-47741866D01*
X98020357Y-47721864D01*
X97999383Y-47704961D01*
X97803771Y-47509349D01*
X97769745Y-47447037D01*
X97769745Y-47393471D01*
X97771000Y-47387702D01*
X97771000Y-45896135D01*
X98279000Y-45896135D01*
X98283475Y-45911374D01*
X98284865Y-45912579D01*
X98292548Y-45914250D01*
X99727885Y-45914250D01*
X99743124Y-45909775D01*
X99744329Y-45908385D01*
X99746000Y-45900702D01*
X99746000Y-45896135D01*
X100254000Y-45896135D01*
X100258475Y-45911374D01*
X100259865Y-45912579D01*
X100267548Y-45914250D01*
X101702885Y-45914250D01*
X101718124Y-45909775D01*
X101719329Y-45908385D01*
X101721000Y-45900702D01*
X101721000Y-44465365D01*
X101716525Y-44450126D01*
X101715135Y-44448921D01*
X101707452Y-44447250D01*
X100272115Y-44447250D01*
X100256876Y-44451725D01*
X100255671Y-44453115D01*
X100254000Y-44460798D01*
X100254000Y-45896135D01*
X99746000Y-45896135D01*
X99746000Y-44465365D01*
X99741525Y-44450126D01*
X99740135Y-44448921D01*
X99732452Y-44447250D01*
X98297115Y-44447250D01*
X98281876Y-44451725D01*
X98280671Y-44453115D01*
X98279000Y-44460798D01*
X98279000Y-45896135D01*
X97771000Y-45896135D01*
X97771000Y-43921135D01*
X98279000Y-43921135D01*
X98283475Y-43936374D01*
X98284865Y-43937579D01*
X98292548Y-43939250D01*
X99727885Y-43939250D01*
X99743124Y-43934775D01*
X99744329Y-43933385D01*
X99746000Y-43925702D01*
X99746000Y-43921135D01*
X100254000Y-43921135D01*
X100258475Y-43936374D01*
X100259865Y-43937579D01*
X100267548Y-43939250D01*
X101702885Y-43939250D01*
X101718124Y-43934775D01*
X101719329Y-43933385D01*
X101721000Y-43925702D01*
X101721000Y-42490365D01*
X101716525Y-42475126D01*
X101715135Y-42473921D01*
X101707452Y-42472250D01*
X100272115Y-42472250D01*
X100256876Y-42476725D01*
X100255671Y-42478115D01*
X100254000Y-42485798D01*
X100254000Y-43921135D01*
X99746000Y-43921135D01*
X99746000Y-42490365D01*
X99741525Y-42475126D01*
X99740135Y-42473921D01*
X99732452Y-42472250D01*
X98297115Y-42472250D01*
X98281876Y-42476725D01*
X98280671Y-42478115D01*
X98279000Y-42485798D01*
X98279000Y-43921135D01*
X97771000Y-43921135D01*
X97771000Y-42490365D01*
X97766525Y-42475126D01*
X97765135Y-42473921D01*
X97757452Y-42472250D01*
X96861134Y-42472250D01*
X96793013Y-42452248D01*
X96772039Y-42435345D01*
X96290143Y-41953449D01*
X96256117Y-41891137D01*
X96254495Y-41846601D01*
X96258581Y-41817892D01*
X96258581Y-41817886D01*
X96259162Y-41813807D01*
X96259307Y-41800000D01*
X96240276Y-41642733D01*
X96184280Y-41494546D01*
X96128751Y-41413750D01*
X96098855Y-41370251D01*
X96098854Y-41370249D01*
X96094553Y-41363992D01*
X95976275Y-41258611D01*
X95968889Y-41254700D01*
X95842988Y-41188039D01*
X95842989Y-41188039D01*
X95836274Y-41184484D01*
X95682633Y-41145892D01*
X95675034Y-41145852D01*
X95675033Y-41145852D01*
X95609181Y-41145507D01*
X95524221Y-41145062D01*
X95516841Y-41146834D01*
X95516839Y-41146834D01*
X95377563Y-41180271D01*
X95377560Y-41180272D01*
X95370184Y-41182043D01*
X95229414Y-41254700D01*
X95223697Y-41259687D01*
X95223690Y-41259692D01*
X95211566Y-41270269D01*
X95147084Y-41299978D01*
X95076777Y-41290109D01*
X95022966Y-41243795D01*
X95007840Y-41210820D01*
X95003525Y-41196126D01*
X95002135Y-41194921D01*
X94994452Y-41193250D01*
X94026000Y-41193250D01*
X93957879Y-41173248D01*
X93911386Y-41119592D01*
X93900000Y-41067250D01*
X93900000Y-40775135D01*
X94300000Y-40775135D01*
X94304475Y-40790374D01*
X94305865Y-40791579D01*
X94313548Y-40793250D01*
X94989884Y-40793250D01*
X95005123Y-40788775D01*
X95006328Y-40787385D01*
X95007999Y-40779702D01*
X95007999Y-40748581D01*
X95007629Y-40741760D01*
X95002105Y-40690898D01*
X94998479Y-40675647D01*
X94984171Y-40637480D01*
X94978988Y-40566673D01*
X94984171Y-40549020D01*
X94998478Y-40510856D01*
X95002105Y-40495601D01*
X95007631Y-40444736D01*
X95008000Y-40437922D01*
X95008000Y-40411365D01*
X95003525Y-40396126D01*
X95002135Y-40394921D01*
X94994452Y-40393250D01*
X94318115Y-40393250D01*
X94302876Y-40397725D01*
X94301671Y-40399115D01*
X94300000Y-40406798D01*
X94300000Y-40775135D01*
X93900000Y-40775135D01*
X93900000Y-40183134D01*
X95400000Y-40183134D01*
X95404475Y-40198373D01*
X95405865Y-40199578D01*
X95413548Y-40201249D01*
X95444669Y-40201249D01*
X95451490Y-40200879D01*
X95502352Y-40195355D01*
X95517603Y-40191729D01*
X95555770Y-40177421D01*
X95626577Y-40172238D01*
X95644230Y-40177421D01*
X95682394Y-40191728D01*
X95697649Y-40195355D01*
X95748514Y-40200881D01*
X95755328Y-40201250D01*
X95781885Y-40201250D01*
X95797124Y-40196775D01*
X95798329Y-40195385D01*
X95800000Y-40187702D01*
X95800000Y-40183134D01*
X96200000Y-40183134D01*
X96204475Y-40198373D01*
X96205865Y-40199578D01*
X96213548Y-40201249D01*
X96244669Y-40201249D01*
X96251490Y-40200879D01*
X96302352Y-40195355D01*
X96317603Y-40191729D01*
X96355770Y-40177421D01*
X96426577Y-40172238D01*
X96444230Y-40177421D01*
X96482394Y-40191728D01*
X96497649Y-40195355D01*
X96548514Y-40200881D01*
X96555328Y-40201250D01*
X96581885Y-40201250D01*
X96597124Y-40196775D01*
X96598329Y-40195385D01*
X96600000Y-40187702D01*
X96600000Y-39511365D01*
X96595525Y-39496126D01*
X96594135Y-39494921D01*
X96586452Y-39493250D01*
X96218115Y-39493250D01*
X96202876Y-39497725D01*
X96201671Y-39499115D01*
X96200000Y-39506798D01*
X96200000Y-40183134D01*
X95800000Y-40183134D01*
X95800000Y-39511365D01*
X95795525Y-39496126D01*
X95794135Y-39494921D01*
X95786452Y-39493250D01*
X95418115Y-39493250D01*
X95402876Y-39497725D01*
X95401671Y-39499115D01*
X95400000Y-39506798D01*
X95400000Y-40183134D01*
X93900000Y-40183134D01*
X93900000Y-40159365D01*
X93895525Y-40144126D01*
X93893024Y-40141958D01*
X93832906Y-40109133D01*
X93798880Y-40046821D01*
X93796000Y-40020036D01*
X93796000Y-39975135D01*
X94304000Y-39975135D01*
X94308475Y-39990374D01*
X94309865Y-39991579D01*
X94317548Y-39993250D01*
X94981885Y-39993250D01*
X94997124Y-39988775D01*
X94998329Y-39987385D01*
X95000000Y-39979702D01*
X95000000Y-39511365D01*
X94995525Y-39496126D01*
X94994135Y-39494921D01*
X94986452Y-39493250D01*
X94962197Y-39493250D01*
X94934377Y-39497250D01*
X94322115Y-39497250D01*
X94306876Y-39501725D01*
X94305671Y-39503115D01*
X94304000Y-39510798D01*
X94304000Y-39975135D01*
X93796000Y-39975135D01*
X93796000Y-39115250D01*
X93816002Y-39047129D01*
X93869658Y-39000636D01*
X93922000Y-38989250D01*
X94828460Y-38989250D01*
X94896581Y-39009252D01*
G37*
%TD.AperFunction*%
%TA.AperFunction,Conductor*%
G36*
X95068262Y-42199502D02*
G01*
X95095522Y-42223169D01*
X95096672Y-42224501D01*
X95100908Y-42230805D01*
X95125353Y-42253048D01*
X95187186Y-42309311D01*
X95218076Y-42337419D01*
X95357293Y-42413008D01*
X95510522Y-42453207D01*
X95607138Y-42454725D01*
X95668772Y-42455693D01*
X95736570Y-42476762D01*
X95755888Y-42492582D01*
X96383595Y-43120289D01*
X96417621Y-43182601D01*
X96420500Y-43209384D01*
X96420500Y-45125689D01*
X96400498Y-45193810D01*
X96346842Y-45240303D01*
X96276568Y-45250407D01*
X96235544Y-45237045D01*
X96136274Y-45184484D01*
X95982633Y-45145892D01*
X95975034Y-45145852D01*
X95975033Y-45145852D01*
X95909181Y-45145507D01*
X95824221Y-45145062D01*
X95816841Y-45146834D01*
X95816839Y-45146834D01*
X95677563Y-45180271D01*
X95677560Y-45180272D01*
X95670184Y-45182043D01*
X95529414Y-45254700D01*
X95410039Y-45358838D01*
X95405672Y-45365051D01*
X95405667Y-45365057D01*
X95404336Y-45366951D01*
X95403013Y-45368005D01*
X95400589Y-45370697D01*
X95400140Y-45370293D01*
X95348802Y-45411183D01*
X95301250Y-45420500D01*
X94867815Y-45420500D01*
X94799694Y-45400498D01*
X94753201Y-45346842D01*
X94744236Y-45269919D01*
X94753293Y-45224385D01*
X94754500Y-45218317D01*
X94754499Y-44768184D01*
X94739734Y-44693949D01*
X94719223Y-44663252D01*
X94698008Y-44595499D01*
X94719223Y-44523248D01*
X94732839Y-44502871D01*
X94732840Y-44502868D01*
X94739734Y-44492551D01*
X94754500Y-44418317D01*
X94754499Y-43968184D01*
X94739734Y-43893949D01*
X94719223Y-43863252D01*
X94698008Y-43795499D01*
X94719223Y-43723248D01*
X94732839Y-43702871D01*
X94732840Y-43702868D01*
X94739734Y-43692551D01*
X94754500Y-43618317D01*
X94754499Y-43168184D01*
X94739734Y-43093949D01*
X94719223Y-43063252D01*
X94698008Y-42995499D01*
X94719223Y-42923248D01*
X94732839Y-42902871D01*
X94732840Y-42902868D01*
X94739734Y-42892551D01*
X94754500Y-42818317D01*
X94754499Y-42368184D01*
X94746920Y-42330079D01*
X94753249Y-42259366D01*
X94796804Y-42203299D01*
X94870499Y-42179500D01*
X95000141Y-42179500D01*
X95068262Y-42199502D01*
G37*
%TD.AperFunction*%
%TD*%
M02*
