%TF.GenerationSoftware,KiCad,Pcbnew,(6.0.2-0)*%
%TF.CreationDate,2022-02-18T12:15:39+00:00*%
%TF.ProjectId,Generic3,47656e65-7269-4633-932e-6b696361645f,1*%
%TF.SameCoordinates,Original*%
%TF.FileFunction,Copper,L1,Top*%
%TF.FilePolarity,Positive*%
%FSLAX46Y46*%
G04 Gerber Fmt 4.6, Leading zero omitted, Abs format (unit mm)*
G04 Created by KiCad (PCBNEW (6.0.2-0)) date 2022-02-18 12:15:39*
%MOMM*%
%LPD*%
G01*
G04 APERTURE LIST*
G04 Aperture macros list*
%AMRoundRect*
0 Rectangle with rounded corners*
0 $1 Rounding radius*
0 $2 $3 $4 $5 $6 $7 $8 $9 X,Y pos of 4 corners*
0 Add a 4 corners polygon primitive as box body*
4,1,4,$2,$3,$4,$5,$6,$7,$8,$9,$2,$3,0*
0 Add four circle primitives for the rounded corners*
1,1,$1+$1,$2,$3*
1,1,$1+$1,$4,$5*
1,1,$1+$1,$6,$7*
1,1,$1+$1,$8,$9*
0 Add four rect primitives between the rounded corners*
20,1,$1+$1,$2,$3,$4,$5,0*
20,1,$1+$1,$4,$5,$6,$7,0*
20,1,$1+$1,$6,$7,$8,$9,0*
20,1,$1+$1,$8,$9,$2,$3,0*%
%AMFreePoly0*
4,1,24,1.812500,0.558253,1.858253,0.512500,1.875000,0.450000,1.860584,0.322050,1.818057,0.200517,1.749553,0.091493,1.658507,0.000447,1.549483,-0.068057,1.427950,-0.110584,1.300000,-0.125000,-1.300000,-0.125000,-1.300000,0.125000,1.300000,0.125000,1.309502,0.122454,1.401682,0.137054,1.493411,0.183792,1.566208,0.256589,1.612946,0.348318,1.627546,0.440498,1.625000,0.450000,
1.641747,0.512500,1.687500,0.558253,1.750000,0.575000,1.812500,0.558253,1.812500,0.558253,$1*%
%AMFreePoly1*
4,1,43,1.102950,0.110584,1.224483,0.068057,1.333507,-0.000447,1.424553,-0.091493,1.493057,-0.200517,1.535584,-0.322050,1.550000,-0.450000,1.533253,-0.512500,1.487500,-0.558253,1.425000,-0.575000,1.362500,-0.558253,1.316747,-0.512500,1.300000,-0.450000,1.302546,-0.440498,1.287946,-0.348318,1.241208,-0.256589,1.168411,-0.183792,1.076682,-0.137054,0.984502,-0.122454,0.975000,-0.125000,
-0.975000,-0.125000,-0.984502,-0.122454,-1.076682,-0.137054,-1.168411,-0.183792,-1.241208,-0.256589,-1.287946,-0.348318,-1.302546,-0.440498,-1.300000,-0.450000,-1.316747,-0.512500,-1.362500,-0.558253,-1.425000,-0.575000,-1.487500,-0.558253,-1.533253,-0.512500,-1.550000,-0.450000,-1.535584,-0.322050,-1.493057,-0.200517,-1.424553,-0.091493,-1.333507,-0.000447,-1.224483,0.068057,-1.102950,0.110584,
-0.975000,0.125000,0.975000,0.125000,1.102950,0.110584,1.102950,0.110584,$1*%
%AMFreePoly2*
4,1,37,1.095671,1.230970,1.176777,1.176777,1.230970,1.095671,1.250000,1.000000,1.234611,0.804457,1.188821,0.613729,1.113759,0.432512,1.011272,0.265269,0.883885,0.116117,0.734733,-0.011271,0.567490,-0.113758,0.386273,-0.188820,0.195545,-0.234610,0.000002,-0.250000,-0.095669,-0.230970,-0.176775,-0.176777,-0.230968,-0.095671,-0.249998,0.000000,-0.230968,0.095671,-0.176775,0.176777,
-0.095669,0.230970,0.000002,0.250000,0.012204,0.247573,0.147027,0.260852,0.288403,0.303738,0.418695,0.373381,0.532897,0.467104,0.626620,0.581306,0.696263,0.711599,0.739148,0.852974,0.752427,0.987798,0.750000,1.000000,0.769030,1.095671,0.823223,1.176777,0.904329,1.230970,1.000000,1.250000,1.095671,1.230970,1.095671,1.230970,$1*%
%AMFreePoly3*
4,1,72,4.686563,7.086550,4.817878,7.046716,4.938899,6.982029,5.044975,6.894975,5.132029,6.788899,5.196716,6.667878,5.236550,6.536563,5.250000,6.400000,5.250000,1.600000,5.230970,1.504329,5.176777,1.423223,5.112500,1.380275,5.112500,0.250000,6.600000,0.250000,6.695671,0.230970,6.776777,0.176777,6.830970,0.095671,6.850000,0.000000,6.830970,-0.095671,6.776777,-0.176777,
6.695671,-0.230970,6.600000,-0.250000,0.000000,-0.250000,-0.095671,-0.230970,-0.176777,-0.176777,-0.230970,-0.095671,-0.250000,0.000000,-0.230970,0.095671,-0.176777,0.176777,-0.095671,0.230970,0.000000,0.250000,4.612500,0.250000,4.612500,1.600000,4.631530,1.695671,4.685723,1.776777,4.750000,1.819725,4.750000,6.400000,4.751388,6.406978,4.742582,6.462574,4.713820,6.519022,
4.669022,6.563820,4.612574,6.592582,4.556978,6.601388,4.550000,6.600000,1.550000,6.600000,1.543022,6.601388,1.487426,6.592582,1.430978,6.563820,1.386180,6.519022,1.357418,6.462574,1.348612,6.406978,1.350000,6.400000,1.350000,5.900000,1.330970,5.804329,1.276777,5.723223,1.195671,5.669030,1.100000,5.650000,1.004329,5.669030,0.923223,5.723223,0.869030,5.804329,
0.850000,5.900000,0.850000,6.400000,0.863450,6.536563,0.903284,6.667878,0.967971,6.788899,1.055025,6.894975,1.161101,6.982029,1.282122,7.046716,1.413437,7.086550,1.550000,7.100000,4.550000,7.100000,4.686563,7.086550,4.686563,7.086550,$1*%
%AMFreePoly4*
4,1,136,3.383385,4.221938,3.559722,4.168447,3.722236,4.081581,3.864680,3.964680,3.981581,3.822236,4.068447,3.659722,4.121938,3.483385,4.125213,3.450138,4.182769,3.539508,4.186818,3.554319,4.232803,3.599839,4.295387,3.616268,4.357802,3.599205,4.403322,3.553220,4.419751,3.490636,4.402688,3.428221,4.402685,3.428218,4.172864,3.069999,4.056927,2.918726,3.981581,2.777764,
3.864680,2.635320,3.750000,2.541204,3.750000,0.022998,4.066621,-0.229499,4.408387,-0.546611,4.440740,-0.602647,4.440740,-0.667351,4.408387,-0.723387,4.352351,-0.755740,4.287647,-0.755740,4.231611,-0.723387,4.223834,-0.709917,3.889556,-0.400914,3.520256,-0.109781,3.483169,-0.085000,2.500000,-0.085000,2.500000,-1.185000,3.750000,-1.185000,3.750000,-2.745000,-3.750000,-2.745000,
-3.750000,-1.185000,-2.500000,-1.185000,-2.500000,-0.085000,-3.483168,-0.085000,-3.520257,-0.109782,-3.889557,-0.400914,-4.223835,-0.709917,-4.231612,-0.723388,-4.287648,-0.755741,-4.352352,-0.755741,-4.408388,-0.723388,-4.440741,-0.667352,-4.440741,-0.602648,-4.408388,-0.546612,-4.066622,-0.229500,-3.750000,0.022998,-3.750000,2.541204,-3.864680,2.635320,-3.981581,2.777764,-4.057059,2.918973,
-4.182136,3.083248,-4.410822,3.442198,-4.427688,3.504666,-4.411060,3.567198,-4.365394,3.613038,-4.302926,3.629904,-4.240394,3.613276,-4.194554,3.567610,-4.190552,3.552787,-4.125171,3.450557,-4.121938,3.483385,-4.068447,3.659722,-3.981581,3.822236,-3.864680,3.964680,-3.722236,4.081581,-3.559722,4.168447,-3.383385,4.221938,-3.200000,4.240000,-3.137500,4.223253,-3.091747,4.177500,
-3.075000,4.115000,-3.091747,4.052500,-3.137500,4.006747,-3.200000,3.990000,-3.211471,3.993074,-3.354511,3.976957,-3.501274,3.925602,-3.632930,3.842877,-3.742877,3.732930,-3.825602,3.601274,-3.876957,3.454511,-3.894366,3.300000,-3.876957,3.145489,-3.839657,3.038894,-3.713800,2.875371,-3.594054,2.745000,-2.998152,2.745000,-3.015000,3.045000,-2.998253,3.107500,-2.952500,3.153253,
-2.890000,3.170000,-2.827500,3.153253,-2.781747,3.107500,-2.765000,3.045000,-2.768849,3.030634,-2.752213,2.745000,2.752213,2.745000,2.768849,3.030634,2.765000,3.045000,2.781747,3.107500,2.827500,3.153253,2.890000,3.170000,2.952500,3.153253,2.998253,3.107500,3.015000,3.045000,2.998152,2.745000,3.594234,2.745000,3.703871,2.863608,3.839648,3.038866,3.876957,3.145489,
3.894366,3.300000,3.876957,3.454511,3.825602,3.601274,3.742877,3.732930,3.632930,3.842877,3.501274,3.925602,3.354511,3.976957,3.211471,3.993074,3.200000,3.990000,3.137500,4.006747,3.091747,4.052500,3.075000,4.115000,3.091747,4.177500,3.137500,4.223253,3.200000,4.240000,3.383385,4.221938,3.383385,4.221938,$1*%
%AMFreePoly5*
4,1,18,-0.124998,0.730000,0.725000,0.730000,0.728536,0.728536,0.730000,0.725000,0.730000,-0.725000,0.728536,-0.728536,0.725000,-0.730000,-0.725000,-0.730000,-0.728536,-0.728536,-0.730000,-0.725000,-0.730000,0.124998,-0.730001,0.125000,-0.728536,0.128536,-0.128536,0.728535,-0.128536,0.728536,-0.126768,0.729268,-0.125000,0.730001,-0.124998,0.730000,-0.124998,0.730000,$1*%
G04 Aperture macros list end*
%TA.AperFunction,SMDPad,CuDef*%
%ADD10RoundRect,0.225000X0.250000X-0.225000X0.250000X0.225000X-0.250000X0.225000X-0.250000X-0.225000X0*%
%TD*%
%TA.AperFunction,SMDPad,CuDef*%
%ADD11RoundRect,0.062500X-0.062500X0.350000X-0.062500X-0.350000X0.062500X-0.350000X0.062500X0.350000X0*%
%TD*%
%TA.AperFunction,SMDPad,CuDef*%
%ADD12RoundRect,0.062500X-0.350000X0.062500X-0.350000X-0.062500X0.350000X-0.062500X0.350000X0.062500X0*%
%TD*%
%TA.AperFunction,SMDPad,CuDef*%
%ADD13R,2.500000X2.500000*%
%TD*%
%TA.AperFunction,SMDPad,CuDef*%
%ADD14RoundRect,0.200000X-0.200000X-0.275000X0.200000X-0.275000X0.200000X0.275000X-0.200000X0.275000X0*%
%TD*%
%TA.AperFunction,SMDPad,CuDef*%
%ADD15RoundRect,0.225000X-0.225000X-0.250000X0.225000X-0.250000X0.225000X0.250000X-0.225000X0.250000X0*%
%TD*%
%TA.AperFunction,SMDPad,CuDef*%
%ADD16RoundRect,0.250000X0.375000X0.625000X-0.375000X0.625000X-0.375000X-0.625000X0.375000X-0.625000X0*%
%TD*%
%TA.AperFunction,SMDPad,CuDef*%
%ADD17R,1.425000X3.700000*%
%TD*%
%TA.AperFunction,SMDPad,CuDef*%
%ADD18R,0.500000X2.000000*%
%TD*%
%TA.AperFunction,SMDPad,CuDef*%
%ADD19R,2.000000X0.500000*%
%TD*%
%TA.AperFunction,SMDPad,CuDef*%
%ADD20FreePoly0,0.000000*%
%TD*%
%TA.AperFunction,SMDPad,CuDef*%
%ADD21RoundRect,0.249375X-0.463125X-0.625625X0.463125X-0.625625X0.463125X0.625625X-0.463125X0.625625X0*%
%TD*%
%TA.AperFunction,SMDPad,CuDef*%
%ADD22R,0.600000X1.100000*%
%TD*%
%TA.AperFunction,SMDPad,CuDef*%
%ADD23FreePoly1,0.000000*%
%TD*%
%TA.AperFunction,SMDPad,CuDef*%
%ADD24RoundRect,0.250000X-0.475000X0.250000X-0.475000X-0.250000X0.475000X-0.250000X0.475000X0.250000X0*%
%TD*%
%TA.AperFunction,SMDPad,CuDef*%
%ADD25FreePoly2,0.000000*%
%TD*%
%TA.AperFunction,SMDPad,CuDef*%
%ADD26FreePoly3,0.000000*%
%TD*%
%TA.AperFunction,SMDPad,CuDef*%
%ADD27R,0.500000X4.000000*%
%TD*%
%TA.AperFunction,SMDPad,CuDef*%
%ADD28R,1.140000X0.600000*%
%TD*%
%TA.AperFunction,SMDPad,CuDef*%
%ADD29RoundRect,0.075000X-0.495000X0.075000X-0.495000X-0.075000X0.495000X-0.075000X0.495000X0.075000X0*%
%TD*%
%TA.AperFunction,ComponentPad*%
%ADD30C,0.600000*%
%TD*%
%TA.AperFunction,ComponentPad*%
%ADD31C,1.250000*%
%TD*%
%TA.AperFunction,ComponentPad*%
%ADD32C,1.500000*%
%TD*%
%TA.AperFunction,SMDPad,CuDef*%
%ADD33R,5.490000X5.000000*%
%TD*%
%TA.AperFunction,SMDPad,CuDef*%
%ADD34FreePoly4,270.000000*%
%TD*%
%TA.AperFunction,ComponentPad*%
%ADD35RoundRect,0.250000X-0.600000X-0.675000X0.600000X-0.675000X0.600000X0.675000X-0.600000X0.675000X0*%
%TD*%
%TA.AperFunction,ComponentPad*%
%ADD36O,1.700000X1.850000*%
%TD*%
%TA.AperFunction,SMDPad,CuDef*%
%ADD37RoundRect,0.200000X0.275000X-0.200000X0.275000X0.200000X-0.275000X0.200000X-0.275000X-0.200000X0*%
%TD*%
%TA.AperFunction,SMDPad,CuDef*%
%ADD38RoundRect,0.200000X-0.275000X0.200000X-0.275000X-0.200000X0.275000X-0.200000X0.275000X0.200000X0*%
%TD*%
%TA.AperFunction,SMDPad,CuDef*%
%ADD39R,0.400000X0.800000*%
%TD*%
%TA.AperFunction,SMDPad,CuDef*%
%ADD40R,0.800000X0.400000*%
%TD*%
%TA.AperFunction,SMDPad,CuDef*%
%ADD41R,1.450000X1.450000*%
%TD*%
%TA.AperFunction,SMDPad,CuDef*%
%ADD42R,0.700000X0.700000*%
%TD*%
%TA.AperFunction,SMDPad,CuDef*%
%ADD43FreePoly5,270.000000*%
%TD*%
%TA.AperFunction,SMDPad,CuDef*%
%ADD44R,0.850000X0.500000*%
%TD*%
%TA.AperFunction,ViaPad*%
%ADD45C,0.800000*%
%TD*%
%TA.AperFunction,Conductor*%
%ADD46C,0.250000*%
%TD*%
%TA.AperFunction,Conductor*%
%ADD47C,0.200000*%
%TD*%
G04 APERTURE END LIST*
D10*
%TO.P,C1,1*%
%TO.N,Net-(C1-Pad1)*%
X147800000Y-59475000D03*
%TO.P,C1,2*%
%TO.N,GND*%
X147800000Y-57925000D03*
%TD*%
D11*
%TO.P,U3,1,RXD*%
%TO.N,O*%
X153175000Y-63212500D03*
%TO.P,U3,2,~{RI}*%
%TO.N,GND*%
X152675000Y-63212500D03*
%TO.P,U3,3,GND*%
X152175000Y-63212500D03*
%TO.P,U3,4,~{DSR}*%
X151675000Y-63212500D03*
%TO.P,U3,5,~{DCD}*%
X151175000Y-63212500D03*
D12*
%TO.P,U3,6,~{CTS}*%
X150237500Y-64150000D03*
%TO.P,U3,7,CBUS2*%
%TO.N,unconnected-(U3-Pad7)*%
X150237500Y-64650000D03*
%TO.P,U3,8,USBDP*%
%TO.N,D+*%
X150237500Y-65150000D03*
%TO.P,U3,9,USBDM*%
%TO.N,D-*%
X150237500Y-65650000D03*
%TO.P,U3,10,3V3OUT*%
%TO.N,Net-(C4-Pad1)*%
X150237500Y-66150000D03*
D11*
%TO.P,U3,11,~{RESET}*%
X151175000Y-67087500D03*
%TO.P,U3,12,VCC*%
%TO.N,VBUS*%
X151675000Y-67087500D03*
%TO.P,U3,13,GND*%
%TO.N,GND*%
X152175000Y-67087500D03*
%TO.P,U3,14,CBUS1*%
%TO.N,CHARGER*%
X152675000Y-67087500D03*
%TO.P,U3,15,CBUS0*%
%TO.N,USB*%
X153175000Y-67087500D03*
D12*
%TO.P,U3,16,CBUS3*%
%TO.N,unconnected-(U3-Pad16)*%
X154112500Y-66150000D03*
%TO.P,U3,17,TXD*%
%TO.N,I*%
X154112500Y-65650000D03*
%TO.P,U3,18,~{DTR}*%
%TO.N,GPIO0*%
X154112500Y-65150000D03*
%TO.P,U3,19,~{RTS}*%
%TO.N,EN*%
X154112500Y-64650000D03*
%TO.P,U3,20,VCCIO*%
%TO.N,Net-(C4-Pad1)*%
X154112500Y-64150000D03*
D13*
%TO.P,U3,21,GND*%
%TO.N,GND*%
X152175000Y-65150000D03*
%TD*%
D14*
%TO.P,R3,1*%
%TO.N,Net-(D6-Pad4)*%
X140225000Y-56850000D03*
%TO.P,R3,2*%
%TO.N,B*%
X141875000Y-56850000D03*
%TD*%
D15*
%TO.P,C3,1*%
%TO.N,GND*%
X140225000Y-67200000D03*
%TO.P,C3,2*%
%TO.N,VBUS*%
X141775000Y-67200000D03*
%TD*%
D16*
%TO.P,D7,1,K*%
%TO.N,DC*%
X147900000Y-66600000D03*
%TO.P,D7,2,A*%
%TO.N,VBUS*%
X145100000Y-66600000D03*
%TD*%
D15*
%TO.P,C4,1*%
%TO.N,Net-(C4-Pad1)*%
X156425000Y-63200000D03*
%TO.P,C4,2*%
%TO.N,GND*%
X157975000Y-63200000D03*
%TD*%
D17*
%TO.P,U2,*%
%TO.N,*%
X154800000Y-57350000D03*
D18*
X153350000Y-59600000D03*
D19*
X154300000Y-58650000D03*
D10*
X150300000Y-56775000D03*
X150300000Y-58325000D03*
D20*
X151600000Y-56850000D03*
D21*
X153197500Y-60470000D03*
D22*
X153350000Y-55950000D03*
X153350000Y-58650000D03*
D23*
X151925000Y-57750000D03*
D22*
%TO.P,U2,1,SHDN*%
%TO.N,DC*%
X151450000Y-58650000D03*
D24*
%TO.P,U2,2,VIN*%
X151550000Y-59900000D03*
D22*
X152400000Y-58650000D03*
D25*
X151340000Y-59850000D03*
D24*
%TO.P,U2,3,GND*%
%TO.N,GND*%
X151550000Y-61800000D03*
D22*
X152400000Y-55950000D03*
D24*
X157800000Y-61800000D03*
D21*
X156162500Y-60470000D03*
D26*
X151300000Y-61800000D03*
D17*
%TO.P,U2,4,VOUT*%
%TO.N,+3V3*%
X157800000Y-57350000D03*
D27*
X157800000Y-58100000D03*
D24*
X157800000Y-59900000D03*
D22*
%TO.P,U2,5,FB*%
%TO.N,Net-(R8-Pad2)*%
X151450000Y-55950000D03*
%TD*%
D28*
%TO.P,J3,A1,GND*%
%TO.N,GND*%
X143810000Y-58650000D03*
%TO.P,J3,A4,VBUS*%
%TO.N,VBUS*%
X143810000Y-59450000D03*
D29*
%TO.P,J3,A5,CC1*%
%TO.N,Net-(J3-PadA5)*%
X143810000Y-60600000D03*
%TO.P,J3,A6,D+*%
%TO.N,Net-(C2-Pad1)*%
X143810000Y-61600000D03*
%TO.P,J3,A7,D-*%
%TO.N,Net-(C1-Pad1)*%
X143810000Y-62100000D03*
%TO.P,J3,A8,SBU1*%
%TO.N,unconnected-(J3-PadA8)*%
X143810000Y-63100000D03*
D28*
%TO.P,J3,A9,VBUS*%
%TO.N,VBUS*%
X143810000Y-64250000D03*
%TO.P,J3,A12,GND*%
%TO.N,GND*%
X143810000Y-65050000D03*
%TO.P,J3,B1,GND*%
X143810000Y-65050000D03*
%TO.P,J3,B4,VBUS*%
%TO.N,VBUS*%
X143810000Y-64250000D03*
D29*
%TO.P,J3,B5,CC2*%
%TO.N,Net-(J3-PadB5)*%
X143810000Y-63600000D03*
%TO.P,J3,B6,D+*%
%TO.N,Net-(C2-Pad1)*%
X143810000Y-62600000D03*
%TO.P,J3,B7,D-*%
%TO.N,Net-(C1-Pad1)*%
X143810000Y-61100000D03*
%TO.P,J3,B8,SBU2*%
%TO.N,unconnected-(J3-PadB8)*%
X143810000Y-60100000D03*
D28*
%TO.P,J3,B9,VBUS*%
%TO.N,VBUS*%
X143810000Y-59450000D03*
%TO.P,J3,B12,GND*%
%TO.N,GND*%
X143810000Y-58650000D03*
D30*
%TO.P,J3,S1,SHIELD*%
X142740000Y-58960000D03*
D31*
X139060000Y-57530000D03*
D32*
X143230000Y-66170000D03*
D33*
X139695000Y-61850000D03*
D34*
X139695000Y-61850000D03*
D32*
X143230000Y-57530000D03*
D30*
X142740000Y-64740000D03*
D31*
X139060000Y-66170000D03*
%TD*%
D14*
%TO.P,R2,1*%
%TO.N,Net-(D6-Pad3)*%
X143075000Y-56100000D03*
%TO.P,R2,2*%
%TO.N,G*%
X144725000Y-56100000D03*
%TD*%
D10*
%TO.P,C2,1*%
%TO.N,Net-(C2-Pad1)*%
X149000000Y-59475000D03*
%TO.P,C2,2*%
%TO.N,GND*%
X149000000Y-57925000D03*
%TD*%
D35*
%TO.P,J1,1,Pin_1*%
%TO.N,GND*%
X139400000Y-69150000D03*
D36*
%TO.P,J1,2,Pin_2*%
%TO.N,DC*%
X141900000Y-69150000D03*
%TD*%
D14*
%TO.P,R9,1*%
%TO.N,GND*%
X147475000Y-54900000D03*
%TO.P,R9,2*%
%TO.N,Net-(R8-Pad2)*%
X149125000Y-54900000D03*
%TD*%
D37*
%TO.P,R4,1*%
%TO.N,Net-(J3-PadA5)*%
X145100000Y-60225000D03*
%TO.P,R4,2*%
%TO.N,GND*%
X145100000Y-58575000D03*
%TD*%
D38*
%TO.P,R7,1*%
%TO.N,Net-(C2-Pad1)*%
X149000000Y-60565000D03*
%TO.P,R7,2*%
%TO.N,D+*%
X149000000Y-62215000D03*
%TD*%
D39*
%TO.P,U1,1,GND*%
%TO.N,GND*%
X170356750Y-54950000D03*
%TO.P,U1,2,GND*%
X169556750Y-54950000D03*
%TO.P,U1,3,3V3*%
%TO.N,+3V3*%
X168756750Y-54950000D03*
%TO.P,U1,4,I36*%
%TO.N,unconnected-(U1-Pad4)*%
X167956750Y-54950000D03*
%TO.P,U1,5,I37*%
%TO.N,CHARGER*%
X167156750Y-54950000D03*
%TO.P,U1,6,I38*%
%TO.N,USB*%
X166356750Y-54950000D03*
%TO.P,U1,7,I39*%
%TO.N,unconnected-(U1-Pad7)*%
X165556750Y-54950000D03*
%TO.P,U1,8,EN*%
%TO.N,EN*%
X164756750Y-54950000D03*
%TO.P,U1,9,I34*%
%TO.N,unconnected-(U1-Pad9)*%
X163956750Y-54950000D03*
%TO.P,U1,10,I35*%
%TO.N,unconnected-(U1-Pad10)*%
X163156750Y-54950000D03*
%TO.P,U1,11,GND*%
%TO.N,GND*%
X162356750Y-54950000D03*
D40*
%TO.P,U1,12,IO32*%
%TO.N,R*%
X161456750Y-56050000D03*
%TO.P,U1,13,IO33*%
%TO.N,G*%
X161456750Y-56850000D03*
%TO.P,U1,14,GND*%
%TO.N,GND*%
X161456750Y-57650000D03*
%TO.P,U1,15,IO25*%
%TO.N,B*%
X161456750Y-58450000D03*
%TO.P,U1,16,IO26*%
%TO.N,unconnected-(U1-Pad16)*%
X161456750Y-59250000D03*
%TO.P,U1,17,IO27*%
%TO.N,unconnected-(U1-Pad17)*%
X161456750Y-60050000D03*
%TO.P,U1,18,IO14*%
%TO.N,unconnected-(U1-Pad18)*%
X161456750Y-60850000D03*
%TO.P,U1,19,IO12*%
%TO.N,IO10*%
X161456750Y-61650000D03*
%TO.P,U1,20,IO13*%
%TO.N,IO9*%
X161456750Y-62450000D03*
%TO.P,U1,21,IO15*%
%TO.N,IO3*%
X161456750Y-63250000D03*
%TO.P,U1,22,IO2*%
%TO.N,unconnected-(U1-Pad22)*%
X161456750Y-64050000D03*
%TO.P,U1,23,IO0*%
%TO.N,GPIO0*%
X161456750Y-64850000D03*
%TO.P,U1,24,IO4*%
%TO.N,IO4*%
X161456750Y-65650000D03*
D39*
%TO.P,U1,25,NC*%
%TO.N,unconnected-(U1-Pad25)*%
X162356750Y-66750000D03*
%TO.P,U1,26,IO20*%
%TO.N,IO6*%
X163156750Y-66750000D03*
%TO.P,U1,27,IO7*%
%TO.N,IO7*%
X163956750Y-66750000D03*
%TO.P,U1,28,IO8*%
%TO.N,IO5*%
X164756750Y-66750000D03*
%TO.P,U1,29,IO5*%
%TO.N,unconnected-(U1-Pad29)*%
X165556750Y-66750000D03*
%TO.P,U1,30,RXD0*%
%TO.N,I*%
X166356750Y-66750000D03*
%TO.P,U1,31,TXD0*%
%TO.N,O*%
X167156750Y-66750000D03*
%TO.P,U1,32,NC*%
%TO.N,unconnected-(U1-Pad32)*%
X167956750Y-66750000D03*
%TO.P,U1,33,IO19*%
%TO.N,IO8*%
X168756750Y-66750000D03*
%TO.P,U1,34,IO22*%
%TO.N,IO2*%
X169556750Y-66750000D03*
%TO.P,U1,35,IO21*%
%TO.N,IO1*%
X170356750Y-66750000D03*
D40*
%TO.P,U1,36,GND*%
%TO.N,GND*%
X171256750Y-65650000D03*
%TO.P,U1,37,GND*%
X171256750Y-64850000D03*
%TO.P,U1,38,GND*%
X171256750Y-64050000D03*
%TO.P,U1,39,GND*%
X171256750Y-63250000D03*
%TO.P,U1,40,GND*%
X171256750Y-62450000D03*
%TO.P,U1,41,GND*%
X171256750Y-61650000D03*
%TO.P,U1,42,GND*%
X171256750Y-60850000D03*
%TO.P,U1,43,GND*%
X171256750Y-60050000D03*
%TO.P,U1,44,GND*%
X171256750Y-59250000D03*
%TO.P,U1,45,GND*%
X171256750Y-58450000D03*
%TO.P,U1,46,GND*%
X171256750Y-57650000D03*
%TO.P,U1,47,GND*%
X171256750Y-56850000D03*
%TO.P,U1,48,GND*%
X171256750Y-56050000D03*
D41*
%TO.P,U1,49,GND*%
X166356750Y-60850000D03*
D42*
%TO.P,U1,50,GND*%
X171306750Y-66800000D03*
%TO.P,U1,51,GND*%
X161406750Y-66800000D03*
%TO.P,U1,52,GND*%
X161406750Y-54900000D03*
%TO.P,U1,53,GND*%
X171306750Y-54900000D03*
D41*
%TO.P,U1,54,GND*%
X166356750Y-58900000D03*
%TO.P,U1,55,GND*%
X164406750Y-58900000D03*
%TO.P,U1,56,GND*%
X164406750Y-60850000D03*
%TO.P,U1,57,GND*%
X164406750Y-62800000D03*
%TO.P,U1,58,GND*%
X166356750Y-62800000D03*
%TO.P,U1,59,GND*%
X168306750Y-62800000D03*
%TO.P,U1,60,GND*%
X168306750Y-60850000D03*
D43*
%TO.P,U1,61,GND*%
X168306750Y-58900000D03*
%TD*%
D35*
%TO.P,J2,1,Pin_1*%
%TO.N,IO1*%
X147000000Y-69150000D03*
D36*
%TO.P,J2,2,Pin_2*%
%TO.N,IO2*%
X149500000Y-69150000D03*
%TO.P,J2,3,Pin_3*%
%TO.N,IO3*%
X152000000Y-69150000D03*
%TO.P,J2,4,Pin_4*%
%TO.N,IO4*%
X154500000Y-69150000D03*
%TO.P,J2,5,Pin_5*%
%TO.N,IO5*%
X157000000Y-69150000D03*
%TO.P,J2,6,Pin_6*%
%TO.N,IO6*%
X159500000Y-69150000D03*
%TO.P,J2,7,Pin_7*%
%TO.N,IO7*%
X162000000Y-69150000D03*
%TO.P,J2,8,Pin_8*%
%TO.N,IO8*%
X164500000Y-69150000D03*
%TO.P,J2,9,Pin_9*%
%TO.N,IO9*%
X167000000Y-69150000D03*
%TO.P,J2,10,Pin_10*%
%TO.N,IO10*%
X169500000Y-69150000D03*
%TD*%
D44*
%TO.P,D6,1,A*%
%TO.N,+3V3*%
X137675000Y-54900000D03*
%TO.P,D6,2,RK*%
%TO.N,Net-(D6-Pad2)*%
X139425000Y-54900000D03*
%TO.P,D6,3,GK*%
%TO.N,Net-(D6-Pad3)*%
X139425000Y-55900000D03*
%TO.P,D6,4,BK*%
%TO.N,Net-(D6-Pad4)*%
X137675000Y-55900000D03*
%TD*%
D14*
%TO.P,R8,1*%
%TO.N,+3V3*%
X147475000Y-56100000D03*
%TO.P,R8,2*%
%TO.N,Net-(R8-Pad2)*%
X149125000Y-56100000D03*
%TD*%
D38*
%TO.P,R6,1*%
%TO.N,Net-(C1-Pad1)*%
X147800000Y-60575000D03*
%TO.P,R6,2*%
%TO.N,D-*%
X147800000Y-62225000D03*
%TD*%
D37*
%TO.P,R5,1*%
%TO.N,GND*%
X145100000Y-65125000D03*
%TO.P,R5,2*%
%TO.N,Net-(J3-PadB5)*%
X145100000Y-63475000D03*
%TD*%
D14*
%TO.P,R1,1*%
%TO.N,Net-(D6-Pad2)*%
X143075000Y-54900000D03*
%TO.P,R1,2*%
%TO.N,R*%
X144725000Y-54900000D03*
%TD*%
D45*
%TO.N,+3V3*%
X168000000Y-55949502D03*
%TO.N,GND*%
X163600000Y-60000000D03*
X159600000Y-58900000D03*
X158200000Y-67800000D03*
%TO.N,+3V3*%
X159400000Y-55100000D03*
X153250000Y-72500000D03*
X148250000Y-72500000D03*
X138400499Y-55131249D03*
X168250000Y-72500000D03*
X146100000Y-54700000D03*
X158250000Y-72500000D03*
X163250000Y-72500000D03*
%TO.N,IO3*%
X163162629Y-65749621D03*
%TO.N,IO9*%
X163000000Y-63300000D03*
%TO.N,DC*%
X150200000Y-59900000D03*
X146600000Y-66600000D03*
%TO.N,IO10*%
X163082801Y-61600739D03*
%TO.N,R*%
X146400000Y-56375500D03*
X162325213Y-55975500D03*
%TO.N,G*%
X145219602Y-56244200D03*
X163200000Y-56700000D03*
%TO.N,B*%
X162500000Y-57600000D03*
X141900000Y-56000000D03*
%TO.N,EN*%
X164773930Y-55965767D03*
X155518647Y-63935145D03*
%TO.N,CHARGER*%
X167016992Y-55768667D03*
X159900000Y-64800000D03*
%TO.N,USB*%
X158800000Y-64900000D03*
X166044629Y-56000001D03*
%TO.N,I*%
X166417551Y-65339785D03*
X155584144Y-65384146D03*
%TO.N,O*%
X153800000Y-63300000D03*
X167150500Y-66019337D03*
%TO.N,Net-(C1-Pad1)*%
X146700000Y-60600000D03*
X147142791Y-64475980D03*
%TO.N,Net-(C2-Pad1)*%
X146300000Y-61600000D03*
X146300000Y-63900000D03*
%TO.N,Net-(C4-Pad1)*%
X154637683Y-62754754D03*
X150200000Y-67100000D03*
%TD*%
D46*
%TO.N,GPIO0*%
X154112500Y-65150000D02*
X154859643Y-65150000D01*
X154859643Y-65150000D02*
X154859643Y-65084047D01*
X156040355Y-64659645D02*
X156700000Y-64000000D01*
X154859643Y-65084047D02*
X155284045Y-64659645D01*
X161050000Y-64850000D02*
X161456750Y-64850000D01*
X155284045Y-64659645D02*
X156040355Y-64659645D01*
X156700000Y-64000000D02*
X160200000Y-64000000D01*
X160200000Y-64000000D02*
X161050000Y-64850000D01*
%TO.N,I*%
X166356750Y-65400586D02*
X166417551Y-65339785D01*
X166356750Y-66750000D02*
X166356750Y-65400586D01*
%TO.N,O*%
X167156750Y-66025587D02*
X167150500Y-66019337D01*
X167156750Y-66750000D02*
X167156750Y-66025587D01*
%TO.N,IO3*%
X161825400Y-63250000D02*
X163162629Y-64587229D01*
X163162629Y-64587229D02*
X163162629Y-65749621D01*
X161456750Y-63250000D02*
X161825400Y-63250000D01*
%TO.N,USB*%
X166356750Y-55404309D02*
X166044629Y-55716430D01*
X166044629Y-55716430D02*
X166044629Y-56000001D01*
%TO.N,+3V3*%
X168756750Y-55600000D02*
X168407248Y-55949502D01*
%TO.N,USB*%
X166356750Y-54950000D02*
X166356750Y-55404309D01*
%TO.N,+3V3*%
X168407248Y-55949502D02*
X168000000Y-55949502D01*
%TO.N,CHARGER*%
X167156750Y-55628909D02*
X167016992Y-55768667D01*
%TO.N,+3V3*%
X168756750Y-54950000D02*
X168756750Y-55600000D01*
%TO.N,CHARGER*%
X167156750Y-54950000D02*
X167156750Y-55628909D01*
%TO.N,GND*%
X151175000Y-64150000D02*
X152175000Y-65150000D01*
X166356750Y-58900000D02*
X168306750Y-58900000D01*
X157800000Y-61800000D02*
X157800000Y-63025000D01*
X145100000Y-57400000D02*
X145100000Y-58575000D01*
X152675000Y-64650000D02*
X152175000Y-65150000D01*
X147591783Y-57200000D02*
X145300000Y-57200000D01*
X143810000Y-58650000D02*
X145025000Y-58650000D01*
X152175000Y-63212500D02*
X152175000Y-65150000D01*
X145025000Y-65050000D02*
X145100000Y-65125000D01*
X148200000Y-56591783D02*
X147591783Y-57200000D01*
X145300000Y-57200000D02*
X145100000Y-57400000D01*
X151675000Y-63212500D02*
X151675000Y-61925000D01*
X168306750Y-58900000D02*
X168306750Y-60850000D01*
X143810000Y-65050000D02*
X145025000Y-65050000D01*
X157800000Y-63025000D02*
X157975000Y-63200000D01*
X151675000Y-61925000D02*
X151550000Y-61800000D01*
X152675000Y-63212500D02*
X152675000Y-64650000D01*
X150237500Y-64150000D02*
X151175000Y-64150000D01*
X151675000Y-63212500D02*
X151675000Y-64650000D01*
X147475000Y-54900000D02*
X147491783Y-54900000D01*
X152175000Y-67087500D02*
X152175000Y-65150000D01*
X148200000Y-55608217D02*
X148200000Y-56591783D01*
X147491783Y-54900000D02*
X148200000Y-55608217D01*
X151175000Y-63212500D02*
X151175000Y-64150000D01*
X145025000Y-58650000D02*
X145100000Y-58575000D01*
%TO.N,VBUS*%
X141775000Y-67200000D02*
X141819511Y-67244511D01*
X151397808Y-67824520D02*
X151675000Y-67547328D01*
X141819511Y-67244511D02*
X144455489Y-67244511D01*
X144455489Y-67244511D02*
X145100000Y-66600000D01*
X143810000Y-64250000D02*
X145441783Y-64250000D01*
X145899520Y-64707737D02*
X145899520Y-65200480D01*
X143324994Y-59450000D02*
X143810000Y-59450000D01*
X149475499Y-67400099D02*
X149899920Y-67824520D01*
X151675000Y-67547328D02*
X151675000Y-67087500D01*
X142915480Y-59859514D02*
X143324994Y-59450000D01*
X142915480Y-63840486D02*
X142915480Y-59859514D01*
X148312973Y-65200480D02*
X149475499Y-66363006D01*
X143810000Y-64250000D02*
X143324994Y-64250000D01*
X145899520Y-65200480D02*
X145899520Y-65800480D01*
X149899920Y-67824520D02*
X151397808Y-67824520D01*
X145899520Y-65200480D02*
X148312973Y-65200480D01*
X145899520Y-65800480D02*
X145100000Y-66600000D01*
X145441783Y-64250000D02*
X145899520Y-64707737D01*
X143324994Y-64250000D02*
X142915480Y-63840486D01*
X149475499Y-66363006D02*
X149475499Y-67400099D01*
%TO.N,+3V3*%
X137675000Y-54900000D02*
X138169250Y-54900000D01*
X157800000Y-56700000D02*
X157800000Y-57350000D01*
X148250000Y-72500000D02*
X153250000Y-72500000D01*
X153250000Y-72500000D02*
X158250000Y-72500000D01*
X147458217Y-56100000D02*
X146100000Y-54741783D01*
X163250000Y-72500000D02*
X168250000Y-72500000D01*
X158250000Y-72500000D02*
X163250000Y-72500000D01*
X147475000Y-56100000D02*
X147458217Y-56100000D01*
X159400000Y-55100000D02*
X157800000Y-56700000D01*
X138169250Y-54900000D02*
X138400499Y-55131249D01*
X146100000Y-54741783D02*
X146100000Y-54700000D01*
%TO.N,IO2*%
X168325480Y-68430292D02*
X169556750Y-67199022D01*
X149500000Y-69150000D02*
X149500000Y-70800000D01*
X169556750Y-67199022D02*
X169556750Y-66750000D01*
X149500000Y-70800000D02*
X149900000Y-71200000D01*
X167700000Y-71200000D02*
X168325480Y-70574520D01*
X149900000Y-71200000D02*
X167700000Y-71200000D01*
X168325480Y-70574520D02*
X168325480Y-68430292D01*
%TO.N,IO1*%
X170674520Y-67717770D02*
X170356750Y-67400000D01*
X169750489Y-71649511D02*
X170674520Y-70725480D01*
X149499511Y-71649511D02*
X169750489Y-71649511D01*
X170674520Y-70725480D02*
X170674520Y-67717770D01*
X170356750Y-67400000D02*
X170356750Y-66750000D01*
X147000000Y-69150000D02*
X149499511Y-71649511D01*
%TO.N,IO4*%
X154500000Y-69150000D02*
X154500000Y-68764296D01*
X161256750Y-65650000D02*
X161456750Y-65650000D01*
X154500000Y-68764296D02*
X156913807Y-66350489D01*
X156913807Y-66350489D02*
X160556261Y-66350489D01*
X160556261Y-66350489D02*
X161256750Y-65650000D01*
%TO.N,IO5*%
X162486502Y-70399520D02*
X159013498Y-70399520D01*
X159013498Y-70399520D02*
X157763978Y-69150000D01*
X163174520Y-69711502D02*
X162486502Y-70399520D01*
X163174520Y-68739458D02*
X163174520Y-69711502D01*
X164756750Y-67157228D02*
X163174520Y-68739458D01*
X164756750Y-66750000D02*
X164756750Y-67157228D01*
X157763978Y-69150000D02*
X157000000Y-69150000D01*
%TO.N,IO6*%
X162455292Y-67900480D02*
X160749520Y-67900480D01*
X163156750Y-66750000D02*
X163156750Y-67199022D01*
X160749520Y-67900480D02*
X159500000Y-69150000D01*
X163156750Y-67199022D02*
X162455292Y-67900480D01*
%TO.N,IO7*%
X163956750Y-67193250D02*
X162000000Y-69150000D01*
X163956750Y-66750000D02*
X163956750Y-67193250D01*
%TO.N,IO8*%
X165749520Y-67850480D02*
X166100000Y-67500000D01*
X168756750Y-66750000D02*
X168756750Y-67199022D01*
X166100000Y-67500000D02*
X168455772Y-67500000D01*
X165749520Y-67900480D02*
X165749520Y-67850480D01*
X168455772Y-67500000D02*
X168756750Y-67199022D01*
X165749520Y-67900480D02*
X164500000Y-69150000D01*
%TO.N,IO9*%
X161456750Y-62450000D02*
X162150000Y-62450000D01*
X162150000Y-62450000D02*
X163000000Y-63300000D01*
%TO.N,DC*%
X143149520Y-67900480D02*
X146599520Y-67900480D01*
X150200000Y-59900000D02*
X151550000Y-59900000D01*
X147900000Y-66600000D02*
X146600000Y-66600000D01*
X151450000Y-58650000D02*
X152400000Y-58650000D01*
X146599520Y-67900480D02*
X147900000Y-66600000D01*
X141900000Y-69150000D02*
X143149520Y-67900480D01*
%TO.N,IO10*%
X163033540Y-61650000D02*
X163082801Y-61600739D01*
X161456750Y-61650000D02*
X163033540Y-61650000D01*
%TO.N,Net-(J3-PadB5)*%
X144975000Y-63600000D02*
X145100000Y-63475000D01*
X143810000Y-63600000D02*
X144975000Y-63600000D01*
%TO.N,Net-(J3-PadA5)*%
X144725000Y-60600000D02*
X145100000Y-60225000D01*
X143810000Y-60600000D02*
X144725000Y-60600000D01*
%TO.N,R*%
X162250713Y-56050000D02*
X162325213Y-55975500D01*
X144924500Y-54900000D02*
X146400000Y-56375500D01*
X144725000Y-54900000D02*
X144924500Y-54900000D01*
X161456750Y-56050000D02*
X162250713Y-56050000D01*
%TO.N,G*%
X144725000Y-56100000D02*
X145075402Y-56100000D01*
X163050000Y-56850000D02*
X163200000Y-56700000D01*
X161456750Y-56850000D02*
X163050000Y-56850000D01*
X145075402Y-56100000D02*
X145219602Y-56244200D01*
%TO.N,B*%
X141900000Y-56825000D02*
X141875000Y-56850000D01*
X162106750Y-58450000D02*
X162500000Y-58056750D01*
X161456750Y-58450000D02*
X162106750Y-58450000D01*
X162500000Y-58056750D02*
X162500000Y-57600000D01*
X141900000Y-56000000D02*
X141900000Y-56825000D01*
D47*
%TO.N,D-*%
X149450000Y-65650000D02*
X150237500Y-65650000D01*
X147800000Y-64000000D02*
X149450000Y-65650000D01*
X147800000Y-62225000D02*
X147800000Y-64000000D01*
%TO.N,D+*%
X149000000Y-62215000D02*
X149000000Y-64336973D01*
X149813027Y-65150000D02*
X150237500Y-65150000D01*
X149000000Y-64336973D02*
X149813027Y-65150000D01*
D46*
%TO.N,EN*%
X164756750Y-55948587D02*
X164773930Y-55965767D01*
X164756750Y-54950000D02*
X164756750Y-55948587D01*
X154112500Y-64650000D02*
X154657986Y-64650000D01*
X154657986Y-64650000D02*
X155372841Y-63935145D01*
X155372841Y-63935145D02*
X155518647Y-63935145D01*
%TO.N,CHARGER*%
X152675000Y-67087500D02*
X152675000Y-67775000D01*
X158104091Y-65624501D02*
X159100099Y-65624501D01*
X154728592Y-67900000D02*
X156727614Y-65900978D01*
X159900000Y-64824600D02*
X159900000Y-64800000D01*
X152800000Y-67900000D02*
X154728592Y-67900000D01*
X159100099Y-65624501D02*
X159900000Y-64824600D01*
X157827613Y-65900979D02*
X158104091Y-65624501D01*
X156727614Y-65900978D02*
X157827613Y-65900979D01*
X152675000Y-67775000D02*
X152800000Y-67900000D01*
%TO.N,USB*%
X157241419Y-65451468D02*
X157792887Y-64900000D01*
X157792887Y-64900000D02*
X158800000Y-64900000D01*
X156541421Y-65451467D02*
X156641420Y-65451468D01*
X153175000Y-67087500D02*
X154905388Y-67087500D01*
X154905388Y-67087500D02*
X156541421Y-65451467D01*
X156641420Y-65451468D02*
X157241419Y-65451468D01*
%TO.N,I*%
X154112500Y-65650000D02*
X155318290Y-65650000D01*
X155318290Y-65650000D02*
X155584144Y-65384146D01*
%TO.N,O*%
X153712500Y-63212500D02*
X153800000Y-63300000D01*
X153175000Y-63212500D02*
X153712500Y-63212500D01*
D47*
%TO.N,Net-(C1-Pad1)*%
X147142791Y-64475980D02*
X147142791Y-63753547D01*
X145489245Y-62100000D02*
X143810000Y-62100000D01*
X145406427Y-61100000D02*
X145906427Y-60600000D01*
X143810000Y-61100000D02*
X145406427Y-61100000D01*
X147142791Y-63753547D02*
X145489245Y-62100000D01*
D46*
X147800000Y-59475000D02*
X147800000Y-60575000D01*
D47*
X145906427Y-60600000D02*
X146700000Y-60600000D01*
X147775000Y-60600000D02*
X147800000Y-60575000D01*
X146700000Y-60600000D02*
X147775000Y-60600000D01*
D46*
%TO.N,Net-(D6-Pad2)*%
X139599011Y-54725989D02*
X142900989Y-54725989D01*
X139425000Y-54900000D02*
X139599011Y-54725989D01*
X142900989Y-54725989D02*
X143075000Y-54900000D01*
%TO.N,Net-(D6-Pad3)*%
X139425000Y-55900000D02*
X139600000Y-55900000D01*
X143024600Y-56100000D02*
X143075000Y-56100000D01*
X139600000Y-55900000D02*
X140224501Y-55275499D01*
X140224501Y-55275499D02*
X142200099Y-55275499D01*
X142200099Y-55275499D02*
X143024600Y-56100000D01*
%TO.N,Net-(D6-Pad4)*%
X139849511Y-56474511D02*
X140225000Y-56850000D01*
X137675000Y-55900000D02*
X138249511Y-56474511D01*
X138249511Y-56474511D02*
X139849511Y-56474511D01*
D47*
%TO.N,Net-(C2-Pad1)*%
X146300000Y-61600000D02*
X146500000Y-61400000D01*
X143810000Y-61600000D02*
X146263027Y-61600000D01*
D46*
X149000000Y-59475000D02*
X149000000Y-60565000D01*
D47*
X148165000Y-61400000D02*
X149000000Y-60565000D01*
X145406427Y-62600000D02*
X146300000Y-63493573D01*
X143810000Y-62600000D02*
X145406427Y-62600000D01*
X146300000Y-63493573D02*
X146300000Y-63900000D01*
X146500000Y-61400000D02*
X148165000Y-61400000D01*
D46*
%TO.N,Net-(C4-Pad1)*%
X154637683Y-63624817D02*
X154637683Y-62754754D01*
X150237500Y-66150000D02*
X150237500Y-66361522D01*
X150963478Y-67087500D02*
X151175000Y-67087500D01*
X155979754Y-62754754D02*
X156425000Y-63200000D01*
X154112500Y-64150000D02*
X154637683Y-63624817D01*
X154637683Y-62754754D02*
X155979754Y-62754754D01*
X150237500Y-66361522D02*
X150587989Y-66712011D01*
X150587989Y-66712011D02*
X150963478Y-67087500D01*
X150587989Y-66712011D02*
X150200000Y-67100000D01*
%TO.N,Net-(R8-Pad2)*%
X149275000Y-55950000D02*
X149125000Y-56100000D01*
X151450000Y-55950000D02*
X149275000Y-55950000D01*
X149125000Y-54900000D02*
X149125000Y-56100000D01*
%TD*%
%TA.AperFunction,Conductor*%
%TO.N,GND*%
G36*
X171502871Y-54666002D02*
G01*
X171549364Y-54719658D01*
X171560750Y-54772000D01*
X171560750Y-55678460D01*
X171540748Y-55746581D01*
X171487092Y-55793074D01*
X171470247Y-55799356D01*
X171459626Y-55802474D01*
X171458421Y-55803865D01*
X171456750Y-55811548D01*
X171456750Y-65883885D01*
X171461225Y-65899124D01*
X171463726Y-65901292D01*
X171523844Y-65934117D01*
X171557870Y-65996429D01*
X171560750Y-66023214D01*
X171560750Y-67639884D01*
X171565225Y-67655123D01*
X171566615Y-67656328D01*
X171587533Y-67660878D01*
X171587069Y-67663011D01*
X171638121Y-67678001D01*
X171684614Y-67731657D01*
X171696000Y-67783999D01*
X171696000Y-75370000D01*
X171675998Y-75438121D01*
X171622342Y-75484614D01*
X171570000Y-75496000D01*
X137330000Y-75496000D01*
X137261879Y-75475998D01*
X137215386Y-75422342D01*
X137204000Y-75370000D01*
X137204000Y-69872095D01*
X138042001Y-69872095D01*
X138042338Y-69878614D01*
X138052257Y-69974206D01*
X138055149Y-69987600D01*
X138106588Y-70141784D01*
X138112761Y-70154962D01*
X138198063Y-70292807D01*
X138207099Y-70304208D01*
X138321829Y-70418739D01*
X138333240Y-70427751D01*
X138471243Y-70512816D01*
X138484424Y-70518963D01*
X138638710Y-70570138D01*
X138652086Y-70573005D01*
X138746438Y-70582672D01*
X138752854Y-70583000D01*
X139127885Y-70583000D01*
X139143124Y-70578525D01*
X139144329Y-70577135D01*
X139146000Y-70569452D01*
X139146000Y-69422115D01*
X139141525Y-69406876D01*
X139140135Y-69405671D01*
X139132452Y-69404000D01*
X138060116Y-69404000D01*
X138044877Y-69408475D01*
X138043672Y-69409865D01*
X138042001Y-69417548D01*
X138042001Y-69872095D01*
X137204000Y-69872095D01*
X137204000Y-66145980D01*
X137922914Y-66145980D01*
X137935777Y-66342233D01*
X137937577Y-66353601D01*
X137985991Y-66544228D01*
X137989829Y-66555066D01*
X138072173Y-66733685D01*
X138077922Y-66743642D01*
X138087850Y-66757690D01*
X138098439Y-66766078D01*
X138111740Y-66759050D01*
X138687978Y-66182812D01*
X138694356Y-66171132D01*
X139424408Y-66171132D01*
X139424539Y-66172965D01*
X139428790Y-66179580D01*
X139967033Y-66717823D01*
X139971000Y-66707186D01*
X139971000Y-66303000D01*
X139991002Y-66234879D01*
X140044658Y-66188386D01*
X140097000Y-66177000D01*
X140179556Y-66177000D01*
X140194795Y-66172525D01*
X140196574Y-66170472D01*
X140197517Y-66166393D01*
X140197514Y-66166305D01*
X140179330Y-65968397D01*
X140177233Y-65957083D01*
X140123846Y-65767789D01*
X140119724Y-65757050D01*
X140032736Y-65580656D01*
X140031577Y-65578765D01*
X140022732Y-65572126D01*
X140010312Y-65578898D01*
X139432022Y-66157188D01*
X139424408Y-66171132D01*
X138694356Y-66171132D01*
X138695592Y-66168868D01*
X138695461Y-66167035D01*
X138691210Y-66160420D01*
X138110031Y-65579241D01*
X138097651Y-65572481D01*
X138091685Y-65576947D01*
X138011452Y-65729445D01*
X138007047Y-65740079D01*
X137948724Y-65927910D01*
X137946332Y-65939164D01*
X137923215Y-66134479D01*
X137922914Y-66145980D01*
X137204000Y-66145980D01*
X137204000Y-65210436D01*
X138464547Y-65210436D01*
X138468033Y-65218823D01*
X139047188Y-65797978D01*
X139061132Y-65805592D01*
X139062965Y-65805461D01*
X139069580Y-65801210D01*
X139648407Y-65222383D01*
X139655167Y-65210003D01*
X139649137Y-65201948D01*
X139581459Y-65159246D01*
X139571211Y-65154025D01*
X139483134Y-65118886D01*
X142544477Y-65118886D01*
X142551546Y-65132335D01*
X142679188Y-65259977D01*
X142681721Y-65261360D01*
X142731923Y-65311562D01*
X142733076Y-65313865D01*
X143217189Y-65797979D01*
X143231132Y-65805592D01*
X143232966Y-65805461D01*
X143239579Y-65801210D01*
X143543192Y-65497597D01*
X143556000Y-65474141D01*
X143556000Y-65322115D01*
X143551525Y-65306876D01*
X143550135Y-65305671D01*
X143542452Y-65304000D01*
X142818000Y-65304000D01*
X142749879Y-65283998D01*
X142703386Y-65230342D01*
X142692000Y-65178000D01*
X142692000Y-65050939D01*
X142687525Y-65035700D01*
X142687414Y-65035604D01*
X142683606Y-65036738D01*
X142603585Y-65074054D01*
X142594093Y-65079533D01*
X142552851Y-65108411D01*
X142544477Y-65118886D01*
X139483134Y-65118886D01*
X139388531Y-65081143D01*
X139377504Y-65077876D01*
X139184605Y-65039506D01*
X139173159Y-65038303D01*
X138976507Y-65035730D01*
X138965027Y-65036633D01*
X138771199Y-65069938D01*
X138760079Y-65072918D01*
X138575557Y-65140992D01*
X138565179Y-65145942D01*
X138474146Y-65200101D01*
X138464547Y-65210436D01*
X137204000Y-65210436D01*
X137204000Y-58489319D01*
X138465041Y-58489319D01*
X138474923Y-58501809D01*
X138512259Y-58526756D01*
X138522371Y-58532247D01*
X138703081Y-58609885D01*
X138714014Y-58613437D01*
X138905844Y-58656845D01*
X138917253Y-58658347D01*
X139113783Y-58666068D01*
X139125265Y-58665466D01*
X139319905Y-58637245D01*
X139331101Y-58634557D01*
X139491343Y-58580162D01*
X142544394Y-58580162D01*
X142553690Y-58592176D01*
X142594093Y-58620467D01*
X142603581Y-58625945D01*
X142675582Y-58659519D01*
X142689523Y-58661637D01*
X142692000Y-58657849D01*
X142692000Y-58522000D01*
X142712002Y-58453879D01*
X142765658Y-58407386D01*
X142818000Y-58396000D01*
X143537885Y-58396000D01*
X143553124Y-58391525D01*
X143554329Y-58390135D01*
X143556000Y-58382452D01*
X143556000Y-58233326D01*
X143548470Y-58207681D01*
X143242811Y-57902021D01*
X143228868Y-57894408D01*
X143227034Y-57894539D01*
X143220420Y-57898790D01*
X142736021Y-58383190D01*
X142734639Y-58385721D01*
X142684437Y-58435923D01*
X142682136Y-58437075D01*
X142550824Y-58568387D01*
X142544394Y-58580162D01*
X139491343Y-58580162D01*
X139517343Y-58571336D01*
X139527840Y-58566662D01*
X139646401Y-58500266D01*
X139656264Y-58490189D01*
X139653309Y-58482519D01*
X139072812Y-57902022D01*
X139058868Y-57894408D01*
X139057035Y-57894539D01*
X139050420Y-57898790D01*
X138471237Y-58477973D01*
X138465041Y-58489319D01*
X137204000Y-58489319D01*
X137204000Y-56530500D01*
X137224002Y-56462379D01*
X137277658Y-56415886D01*
X137330000Y-56404500D01*
X137590616Y-56404500D01*
X137658737Y-56424502D01*
X137679711Y-56441405D01*
X137943033Y-56704727D01*
X137958175Y-56723475D01*
X137959290Y-56724700D01*
X137964940Y-56733451D01*
X137973118Y-56739898D01*
X137973120Y-56739900D01*
X137991311Y-56754240D01*
X137995755Y-56758189D01*
X137995817Y-56758115D01*
X137999774Y-56761468D01*
X138003455Y-56765149D01*
X138019165Y-56776376D01*
X138023891Y-56779924D01*
X138034665Y-56788417D01*
X138047908Y-56798857D01*
X138089021Y-56856739D01*
X138092315Y-56927659D01*
X138081411Y-56956474D01*
X138011449Y-57089452D01*
X138007048Y-57100076D01*
X137948724Y-57287910D01*
X137946332Y-57299164D01*
X137923215Y-57494479D01*
X137922914Y-57505980D01*
X137935777Y-57702233D01*
X137937577Y-57713601D01*
X137985991Y-57904228D01*
X137989829Y-57915066D01*
X138072173Y-58093685D01*
X138077922Y-58103642D01*
X138087850Y-58117690D01*
X138098439Y-58126078D01*
X138111740Y-58119050D01*
X138970905Y-57259885D01*
X139033217Y-57225859D01*
X139104032Y-57230924D01*
X139149095Y-57259885D01*
X140008603Y-58119393D01*
X140020983Y-58126153D01*
X140027563Y-58121227D01*
X140096662Y-57997840D01*
X140101336Y-57987343D01*
X140164557Y-57801101D01*
X140167244Y-57789907D01*
X140182105Y-57687419D01*
X140211675Y-57622874D01*
X140271447Y-57584561D01*
X140306800Y-57579500D01*
X140474862Y-57579499D01*
X140479314Y-57579499D01*
X140482262Y-57579220D01*
X140482271Y-57579220D01*
X140503478Y-57577216D01*
X140503480Y-57577216D01*
X140511127Y-57576493D01*
X140522122Y-57572632D01*
X140627928Y-57535475D01*
X140640076Y-57531209D01*
X140750010Y-57450010D01*
X140831209Y-57340076D01*
X140876493Y-57211127D01*
X140879500Y-57179315D01*
X140879499Y-56520686D01*
X140877846Y-56503186D01*
X140877216Y-56496522D01*
X140877215Y-56496518D01*
X140876493Y-56488873D01*
X140831209Y-56359924D01*
X140750010Y-56249990D01*
X140640076Y-56168791D01*
X140511127Y-56123507D01*
X140503485Y-56122785D01*
X140503482Y-56122784D01*
X140488579Y-56121376D01*
X140479315Y-56120500D01*
X140470701Y-56120500D01*
X140230500Y-56120501D01*
X140162380Y-56100499D01*
X140115887Y-56046844D01*
X140104500Y-55994501D01*
X140104500Y-55984384D01*
X140124502Y-55916263D01*
X140141405Y-55895289D01*
X140344790Y-55691904D01*
X140407102Y-55657878D01*
X140433885Y-55654999D01*
X141147626Y-55654999D01*
X141215747Y-55675001D01*
X141262240Y-55728657D01*
X141272344Y-55798931D01*
X141265021Y-55826764D01*
X141261406Y-55836037D01*
X141260414Y-55843570D01*
X141260414Y-55843571D01*
X141241876Y-55984384D01*
X141240729Y-55993096D01*
X141245591Y-56037131D01*
X141254334Y-56116320D01*
X141258113Y-56150553D01*
X141260723Y-56157686D01*
X141260724Y-56157689D01*
X141289594Y-56236582D01*
X141294220Y-56307428D01*
X141277762Y-56343478D01*
X141278794Y-56344025D01*
X141274389Y-56352345D01*
X141268791Y-56359924D01*
X141223507Y-56488873D01*
X141222785Y-56496515D01*
X141222784Y-56496518D01*
X141222260Y-56502065D01*
X141220500Y-56520685D01*
X141220501Y-57179314D01*
X141223507Y-57211127D01*
X141268791Y-57340076D01*
X141349990Y-57450010D01*
X141459924Y-57531209D01*
X141588873Y-57576493D01*
X141596515Y-57577215D01*
X141596518Y-57577216D01*
X141611421Y-57578624D01*
X141620685Y-57579500D01*
X141856069Y-57579500D01*
X141924188Y-57599501D01*
X141970681Y-57653156D01*
X141981589Y-57694518D01*
X141985901Y-57743805D01*
X141987804Y-57754598D01*
X142041928Y-57956595D01*
X142045674Y-57966887D01*
X142134054Y-58156417D01*
X142139534Y-58165907D01*
X142168411Y-58207149D01*
X142178886Y-58215523D01*
X142192333Y-58208455D01*
X143140905Y-57259884D01*
X143203217Y-57225859D01*
X143274033Y-57230924D01*
X143319095Y-57259885D01*
X143848401Y-57789191D01*
X143871859Y-57802000D01*
X143938000Y-57802000D01*
X144006121Y-57822002D01*
X144052614Y-57875658D01*
X144064000Y-57928000D01*
X144064000Y-57986674D01*
X144071530Y-58012319D01*
X144248997Y-58189786D01*
X144283023Y-58252098D01*
X144278930Y-58309320D01*
X144279506Y-58317365D01*
X144289253Y-58321000D01*
X144827885Y-58321000D01*
X144843124Y-58316525D01*
X144844329Y-58315135D01*
X144846000Y-58307452D01*
X144846000Y-58302885D01*
X145354000Y-58302885D01*
X145358475Y-58318124D01*
X145359865Y-58319329D01*
X145367548Y-58321000D01*
X146064884Y-58321000D01*
X146080123Y-58316525D01*
X146081328Y-58315135D01*
X146082291Y-58310706D01*
X146076868Y-58251685D01*
X146074257Y-58238649D01*
X146027285Y-58088757D01*
X146021079Y-58075012D01*
X145940176Y-57941426D01*
X145930869Y-57929557D01*
X145820443Y-57819131D01*
X145808574Y-57809824D01*
X145674988Y-57728921D01*
X145661243Y-57722715D01*
X145511356Y-57675744D01*
X145498306Y-57673131D01*
X145434479Y-57667266D01*
X145428691Y-57667000D01*
X145372115Y-57667000D01*
X145356876Y-57671475D01*
X145355671Y-57672865D01*
X145354000Y-57680548D01*
X145354000Y-58302885D01*
X144846000Y-58302885D01*
X144846000Y-57685116D01*
X144841525Y-57669877D01*
X144840135Y-57668672D01*
X144832452Y-57667001D01*
X144771295Y-57667001D01*
X144765546Y-57667264D01*
X144701685Y-57673132D01*
X144688655Y-57675742D01*
X144653777Y-57686671D01*
X144582792Y-57687954D01*
X144522381Y-57650656D01*
X144491726Y-57586619D01*
X144490578Y-57555454D01*
X144492326Y-57535475D01*
X144492326Y-57524525D01*
X144474099Y-57316196D01*
X144472196Y-57305401D01*
X144418072Y-57103405D01*
X144414324Y-57093108D01*
X144374987Y-57008751D01*
X144364325Y-56938559D01*
X144393304Y-56873746D01*
X144452724Y-56834890D01*
X144489181Y-56829500D01*
X144637407Y-56829500D01*
X144893861Y-56829499D01*
X144953984Y-56844769D01*
X144970214Y-56853582D01*
X144970224Y-56853586D01*
X144976895Y-56857208D01*
X145130124Y-56897407D01*
X145214079Y-56898726D01*
X145280921Y-56899776D01*
X145280924Y-56899776D01*
X145288518Y-56899895D01*
X145442934Y-56864529D01*
X145531423Y-56820024D01*
X145577674Y-56796763D01*
X145577677Y-56796761D01*
X145584457Y-56793351D01*
X145590230Y-56788420D01*
X145590235Y-56788417D01*
X145672450Y-56718199D01*
X145737239Y-56689168D01*
X145807439Y-56699773D01*
X145858862Y-56743734D01*
X145881813Y-56777888D01*
X145900908Y-56806305D01*
X145906527Y-56811418D01*
X145906528Y-56811419D01*
X146001028Y-56897407D01*
X146018076Y-56912919D01*
X146157293Y-56988508D01*
X146310522Y-57028707D01*
X146394477Y-57030026D01*
X146461319Y-57031076D01*
X146461322Y-57031076D01*
X146468916Y-57031195D01*
X146623332Y-56995829D01*
X146693742Y-56960417D01*
X146758072Y-56928063D01*
X146758075Y-56928061D01*
X146764855Y-56924651D01*
X146770626Y-56919722D01*
X146770629Y-56919720D01*
X146879537Y-56826703D01*
X146885314Y-56821769D01*
X146891235Y-56813529D01*
X146892704Y-56812384D01*
X146894887Y-56810010D01*
X146895283Y-56810374D01*
X146947229Y-56769882D01*
X147017932Y-56763436D01*
X147052422Y-56775668D01*
X147059924Y-56781209D01*
X147182417Y-56824226D01*
X147240058Y-56865667D01*
X147266146Y-56931696D01*
X147252395Y-57001348D01*
X147206967Y-57050250D01*
X147097827Y-57117788D01*
X147086426Y-57126824D01*
X146976014Y-57237429D01*
X146967002Y-57248840D01*
X146884996Y-57381880D01*
X146878849Y-57395061D01*
X146829509Y-57543814D01*
X146826642Y-57557190D01*
X146817328Y-57648097D01*
X146817071Y-57653126D01*
X146821475Y-57668124D01*
X146822865Y-57669329D01*
X146830548Y-57671000D01*
X149128000Y-57671000D01*
X149196121Y-57691002D01*
X149242614Y-57744658D01*
X149254000Y-57797000D01*
X149254000Y-58053000D01*
X149233998Y-58121121D01*
X149180342Y-58167614D01*
X149128000Y-58179000D01*
X146835115Y-58179000D01*
X146819876Y-58183475D01*
X146818671Y-58184865D01*
X146817000Y-58192548D01*
X146817000Y-58195438D01*
X146817337Y-58201953D01*
X146826894Y-58294057D01*
X146829788Y-58307456D01*
X146879381Y-58456107D01*
X146885555Y-58469286D01*
X146967788Y-58602173D01*
X146976824Y-58613574D01*
X147087429Y-58723986D01*
X147098840Y-58732998D01*
X147145102Y-58761514D01*
X147192595Y-58814286D01*
X147204019Y-58884358D01*
X147179812Y-58944339D01*
X147130468Y-59010179D01*
X147130466Y-59010182D01*
X147125083Y-59017365D01*
X147121933Y-59025769D01*
X147121932Y-59025770D01*
X147096295Y-59094160D01*
X147076870Y-59145976D01*
X147070500Y-59204611D01*
X147070501Y-59745388D01*
X147070870Y-59748782D01*
X147070870Y-59748788D01*
X147075784Y-59794023D01*
X147076870Y-59804024D01*
X147081835Y-59817269D01*
X147087018Y-59888074D01*
X147053097Y-59950443D01*
X146990842Y-59984573D01*
X146933158Y-59983701D01*
X146790004Y-59947743D01*
X146790000Y-59947743D01*
X146782633Y-59945892D01*
X146775034Y-59945852D01*
X146775033Y-59945852D01*
X146709181Y-59945507D01*
X146624221Y-59945062D01*
X146616841Y-59946834D01*
X146616839Y-59946834D01*
X146477563Y-59980271D01*
X146477560Y-59980272D01*
X146470184Y-59982043D01*
X146329414Y-60054700D01*
X146210039Y-60158838D01*
X146205672Y-60165052D01*
X146205669Y-60165055D01*
X146186767Y-60191950D01*
X146131233Y-60236182D01*
X146083680Y-60245500D01*
X145957684Y-60245500D01*
X145931175Y-60242680D01*
X145928991Y-60242210D01*
X145866604Y-60208324D01*
X145832440Y-60146088D01*
X145829500Y-60119031D01*
X145829499Y-59973654D01*
X145829499Y-59970686D01*
X145827587Y-59950443D01*
X145827216Y-59946522D01*
X145827216Y-59946520D01*
X145826493Y-59938873D01*
X145781209Y-59809924D01*
X145700010Y-59699990D01*
X145653967Y-59665982D01*
X145628792Y-59647387D01*
X145585881Y-59590826D01*
X145580362Y-59520044D01*
X145613986Y-59457514D01*
X145655209Y-59432372D01*
X145654323Y-59430409D01*
X145674988Y-59421079D01*
X145808574Y-59340176D01*
X145820443Y-59330869D01*
X145930869Y-59220443D01*
X145940176Y-59208574D01*
X146021079Y-59074988D01*
X146027285Y-59061243D01*
X146074256Y-58911356D01*
X146076869Y-58898306D01*
X146081913Y-58843414D01*
X146078525Y-58831876D01*
X146077135Y-58830671D01*
X146069452Y-58829000D01*
X144946115Y-58829000D01*
X144930876Y-58833475D01*
X144908611Y-58859170D01*
X144907189Y-58857938D01*
X144902185Y-58867100D01*
X144839871Y-58901122D01*
X144813094Y-58904000D01*
X144460210Y-58904000D01*
X144435629Y-58901579D01*
X144411135Y-58896707D01*
X144405067Y-58895500D01*
X143810097Y-58895500D01*
X143214934Y-58895501D01*
X143187475Y-58900962D01*
X143184375Y-58901579D01*
X143159796Y-58904000D01*
X142740322Y-58904000D01*
X142740159Y-58903952D01*
X142737593Y-58905341D01*
X142733672Y-58909865D01*
X142732001Y-58917548D01*
X142732001Y-58994669D01*
X142732371Y-59001490D01*
X142737895Y-59052352D01*
X142741521Y-59067604D01*
X142786676Y-59188054D01*
X142795212Y-59203644D01*
X142832274Y-59253096D01*
X142857122Y-59319603D01*
X142842069Y-59388985D01*
X142820543Y-59417757D01*
X142685264Y-59553036D01*
X142666516Y-59568178D01*
X142665291Y-59569293D01*
X142656540Y-59574943D01*
X142650093Y-59583121D01*
X142650091Y-59583123D01*
X142635751Y-59601314D01*
X142631805Y-59605755D01*
X142631878Y-59605817D01*
X142628519Y-59609781D01*
X142624842Y-59613458D01*
X142613588Y-59629206D01*
X142610082Y-59633876D01*
X142578324Y-59674161D01*
X142575292Y-59682795D01*
X142569966Y-59690248D01*
X142558870Y-59727352D01*
X142555279Y-59739358D01*
X142553444Y-59745006D01*
X142548486Y-59759125D01*
X142536462Y-59793365D01*
X142535980Y-59798930D01*
X142535980Y-59801638D01*
X142535866Y-59804272D01*
X142535837Y-59804370D01*
X142535673Y-59804363D01*
X142535629Y-59805067D01*
X142533767Y-59811292D01*
X142534322Y-59825415D01*
X142535883Y-59865149D01*
X142535980Y-59870096D01*
X142535980Y-63786566D01*
X142533431Y-63810514D01*
X142533352Y-63812179D01*
X142531160Y-63822362D01*
X142534331Y-63849151D01*
X142535107Y-63855709D01*
X142535457Y-63861640D01*
X142535552Y-63861632D01*
X142535980Y-63866810D01*
X142535980Y-63872010D01*
X142536834Y-63877139D01*
X142536834Y-63877142D01*
X142539149Y-63891051D01*
X142539986Y-63896929D01*
X142542756Y-63920329D01*
X142546010Y-63947827D01*
X142549973Y-63956079D01*
X142551476Y-63965112D01*
X142556423Y-63974281D01*
X142556424Y-63974283D01*
X142575814Y-64010218D01*
X142578511Y-64015511D01*
X142597265Y-64054568D01*
X142597268Y-64054572D01*
X142600699Y-64061718D01*
X142604294Y-64065994D01*
X142606217Y-64067917D01*
X142607989Y-64069849D01*
X142608032Y-64069928D01*
X142607908Y-64070041D01*
X142608384Y-64070581D01*
X142611470Y-64076300D01*
X142619115Y-64083367D01*
X142651066Y-64112902D01*
X142654632Y-64116332D01*
X142820543Y-64282243D01*
X142854569Y-64344555D01*
X142849504Y-64415370D01*
X142832274Y-64446904D01*
X142795212Y-64496356D01*
X142786676Y-64511946D01*
X142741522Y-64632394D01*
X142737895Y-64647649D01*
X142732369Y-64698514D01*
X142732000Y-64705328D01*
X142732000Y-64777885D01*
X142736475Y-64793125D01*
X142740473Y-64796590D01*
X142748716Y-64796000D01*
X143159790Y-64796000D01*
X143184371Y-64798421D01*
X143189665Y-64799474D01*
X143214933Y-64804500D01*
X143809903Y-64804500D01*
X144405066Y-64804499D01*
X144435625Y-64798421D01*
X144460204Y-64796000D01*
X144816975Y-64796000D01*
X144885096Y-64816002D01*
X144923586Y-64860422D01*
X144933865Y-64869329D01*
X144941548Y-64871000D01*
X145228000Y-64871000D01*
X145296121Y-64891002D01*
X145342614Y-64944658D01*
X145354000Y-64997000D01*
X145354000Y-65253000D01*
X145333998Y-65321121D01*
X145280342Y-65367614D01*
X145228000Y-65379000D01*
X144292764Y-65379000D01*
X144279233Y-65382973D01*
X144278317Y-65389346D01*
X144285358Y-65438312D01*
X144255865Y-65502893D01*
X144249735Y-65509476D01*
X144076812Y-65682399D01*
X144064000Y-65705861D01*
X144064000Y-65772000D01*
X144043998Y-65840121D01*
X143990342Y-65886614D01*
X143938000Y-65898000D01*
X143879326Y-65898000D01*
X143853681Y-65905530D01*
X143589210Y-66170000D01*
X143319095Y-66440116D01*
X143256783Y-66474141D01*
X143185967Y-66469076D01*
X143140905Y-66440115D01*
X142870790Y-66170000D01*
X142191613Y-65490824D01*
X142179839Y-65484394D01*
X142167824Y-65493690D01*
X142139534Y-65534093D01*
X142134054Y-65543583D01*
X142045674Y-65733113D01*
X142041928Y-65743405D01*
X141987804Y-65945401D01*
X141985901Y-65956196D01*
X141967674Y-66164525D01*
X141967674Y-66175475D01*
X141981501Y-66333518D01*
X141967512Y-66403123D01*
X141918112Y-66454116D01*
X141855980Y-66470500D01*
X141514198Y-66470501D01*
X141504612Y-66470501D01*
X141501218Y-66470870D01*
X141501212Y-66470870D01*
X141453834Y-66476016D01*
X141453830Y-66476017D01*
X141445976Y-66476870D01*
X141378930Y-66502004D01*
X141330391Y-66520200D01*
X141317365Y-66525083D01*
X141310186Y-66530463D01*
X141310183Y-66530465D01*
X141244308Y-66579837D01*
X141177802Y-66604685D01*
X141108419Y-66589633D01*
X141061598Y-66545314D01*
X141032212Y-66497827D01*
X141023176Y-66486426D01*
X140912571Y-66376014D01*
X140901160Y-66367002D01*
X140768120Y-66284996D01*
X140754939Y-66278849D01*
X140606186Y-66229509D01*
X140592810Y-66226642D01*
X140501903Y-66217328D01*
X140496874Y-66217071D01*
X140481876Y-66221475D01*
X140480671Y-66222865D01*
X140479000Y-66230548D01*
X140479000Y-67328000D01*
X140458998Y-67396121D01*
X140405342Y-67442614D01*
X140353000Y-67454000D01*
X140097000Y-67454000D01*
X140028879Y-67433998D01*
X139982386Y-67380342D01*
X139971000Y-67328000D01*
X139971000Y-66935987D01*
X139966888Y-66921984D01*
X139798926Y-67089946D01*
X139736614Y-67123972D01*
X139665799Y-67118907D01*
X139620736Y-67089946D01*
X139072812Y-66542022D01*
X139058868Y-66534408D01*
X139057035Y-66534539D01*
X139050420Y-66538790D01*
X138471237Y-67117973D01*
X138465041Y-67129319D01*
X138474923Y-67141809D01*
X138512259Y-67166756D01*
X138522371Y-67172247D01*
X138703081Y-67249885D01*
X138714014Y-67253437D01*
X138905844Y-67296845D01*
X138917253Y-67298347D01*
X139113783Y-67306068D01*
X139131036Y-67305164D01*
X139131131Y-67306973D01*
X139193222Y-67315834D01*
X139246926Y-67362271D01*
X139267000Y-67430503D01*
X139267000Y-67495438D01*
X139267337Y-67501953D01*
X139275228Y-67577996D01*
X139262364Y-67647817D01*
X139213793Y-67699600D01*
X139149901Y-67717001D01*
X138752905Y-67717001D01*
X138746386Y-67717338D01*
X138650794Y-67727257D01*
X138637400Y-67730149D01*
X138483216Y-67781588D01*
X138470038Y-67787761D01*
X138332193Y-67873063D01*
X138320792Y-67882099D01*
X138206261Y-67996829D01*
X138197249Y-68008240D01*
X138112184Y-68146243D01*
X138106037Y-68159424D01*
X138054862Y-68313710D01*
X138051995Y-68327086D01*
X138042328Y-68421438D01*
X138042000Y-68427855D01*
X138042000Y-68877885D01*
X138046475Y-68893124D01*
X138047865Y-68894329D01*
X138055548Y-68896000D01*
X139528000Y-68896000D01*
X139596121Y-68916002D01*
X139642614Y-68969658D01*
X139654000Y-69022000D01*
X139654000Y-70564884D01*
X139658475Y-70580123D01*
X139659865Y-70581328D01*
X139667548Y-70582999D01*
X140047095Y-70582999D01*
X140053614Y-70582662D01*
X140149206Y-70572743D01*
X140162600Y-70569851D01*
X140316784Y-70518412D01*
X140329962Y-70512239D01*
X140467807Y-70426937D01*
X140479208Y-70417901D01*
X140593739Y-70303171D01*
X140602751Y-70291760D01*
X140687816Y-70153757D01*
X140693963Y-70140576D01*
X140745138Y-69986290D01*
X140748005Y-69972914D01*
X140754869Y-69905919D01*
X140781710Y-69840192D01*
X140839824Y-69799410D01*
X140910762Y-69796520D01*
X140972001Y-69832442D01*
X140979299Y-69840928D01*
X141096514Y-69990149D01*
X141101044Y-69994080D01*
X141101045Y-69994081D01*
X141251165Y-70124350D01*
X141251170Y-70124354D01*
X141255696Y-70128281D01*
X141438126Y-70233819D01*
X141637222Y-70302957D01*
X141643155Y-70303817D01*
X141643158Y-70303818D01*
X141839860Y-70332338D01*
X141839863Y-70332338D01*
X141845800Y-70333199D01*
X142056333Y-70323455D01*
X142062157Y-70322051D01*
X142062160Y-70322051D01*
X142255393Y-70275482D01*
X142255395Y-70275481D01*
X142261226Y-70274076D01*
X142266684Y-70271594D01*
X142266688Y-70271593D01*
X142444414Y-70190785D01*
X142453084Y-70186843D01*
X142624986Y-70064904D01*
X142770728Y-69912660D01*
X142817045Y-69840928D01*
X142881800Y-69740640D01*
X142881801Y-69740637D01*
X142885052Y-69735603D01*
X142963834Y-69540122D01*
X143004229Y-69333271D01*
X143004500Y-69327730D01*
X143004500Y-69022341D01*
X142989507Y-68865194D01*
X142949755Y-68729693D01*
X142949771Y-68658699D01*
X142981564Y-68605130D01*
X143269809Y-68316885D01*
X143332121Y-68282859D01*
X143358904Y-68279980D01*
X145771069Y-68279980D01*
X145839190Y-68299982D01*
X145885683Y-68353638D01*
X145896332Y-68419590D01*
X145895500Y-68427244D01*
X145895500Y-69872756D01*
X145902202Y-69934448D01*
X145904974Y-69941841D01*
X145904974Y-69941843D01*
X145912603Y-69962193D01*
X145952929Y-70069764D01*
X145958309Y-70076943D01*
X145958311Y-70076946D01*
X146011475Y-70147882D01*
X146039596Y-70185404D01*
X146046776Y-70190785D01*
X146148054Y-70266689D01*
X146148057Y-70266691D01*
X146155236Y-70272071D01*
X146238196Y-70303171D01*
X146283157Y-70320026D01*
X146283159Y-70320026D01*
X146290552Y-70322798D01*
X146298402Y-70323651D01*
X146298403Y-70323651D01*
X146299149Y-70323732D01*
X146352244Y-70329500D01*
X147590616Y-70329500D01*
X147658737Y-70349502D01*
X147679711Y-70366405D01*
X149193033Y-71879727D01*
X149208175Y-71898475D01*
X149209289Y-71899700D01*
X149214940Y-71908451D01*
X149219548Y-71912083D01*
X149249441Y-71973545D01*
X149241047Y-72044043D01*
X149195871Y-72098812D01*
X149125196Y-72120500D01*
X148849682Y-72120500D01*
X148781561Y-72100498D01*
X148755114Y-72074860D01*
X148753878Y-72075949D01*
X148748855Y-72070251D01*
X148744553Y-72063992D01*
X148626275Y-71958611D01*
X148618889Y-71954700D01*
X148533897Y-71909699D01*
X148486274Y-71884484D01*
X148332633Y-71845892D01*
X148325034Y-71845852D01*
X148325033Y-71845852D01*
X148259181Y-71845507D01*
X148174221Y-71845062D01*
X148166841Y-71846834D01*
X148166839Y-71846834D01*
X148027563Y-71880271D01*
X148027560Y-71880272D01*
X148020184Y-71882043D01*
X147879414Y-71954700D01*
X147760039Y-72058838D01*
X147668950Y-72188444D01*
X147611406Y-72336037D01*
X147590729Y-72493096D01*
X147608113Y-72650553D01*
X147662553Y-72799319D01*
X147750908Y-72930805D01*
X147756525Y-72935916D01*
X147756528Y-72935919D01*
X147767903Y-72946269D01*
X147868076Y-73037419D01*
X148007293Y-73113008D01*
X148160522Y-73153207D01*
X148244477Y-73154526D01*
X148311319Y-73155576D01*
X148311322Y-73155576D01*
X148318916Y-73155695D01*
X148473332Y-73120329D01*
X148543742Y-73084917D01*
X148608072Y-73052563D01*
X148608075Y-73052561D01*
X148614855Y-73049151D01*
X148620626Y-73044222D01*
X148620629Y-73044220D01*
X148729542Y-72951199D01*
X148729543Y-72951198D01*
X148735314Y-72946269D01*
X148745586Y-72931974D01*
X148801581Y-72888326D01*
X148847909Y-72879500D01*
X152650141Y-72879500D01*
X152718262Y-72899502D01*
X152745522Y-72923169D01*
X152746671Y-72924500D01*
X152750908Y-72930805D01*
X152868076Y-73037419D01*
X153007293Y-73113008D01*
X153160522Y-73153207D01*
X153244477Y-73154526D01*
X153311319Y-73155576D01*
X153311322Y-73155576D01*
X153318916Y-73155695D01*
X153473332Y-73120329D01*
X153543742Y-73084917D01*
X153608072Y-73052563D01*
X153608075Y-73052561D01*
X153614855Y-73049151D01*
X153620626Y-73044222D01*
X153620629Y-73044220D01*
X153729542Y-72951199D01*
X153729543Y-72951198D01*
X153735314Y-72946269D01*
X153745586Y-72931974D01*
X153801581Y-72888326D01*
X153847909Y-72879500D01*
X157650141Y-72879500D01*
X157718262Y-72899502D01*
X157745522Y-72923169D01*
X157746671Y-72924500D01*
X157750908Y-72930805D01*
X157868076Y-73037419D01*
X158007293Y-73113008D01*
X158160522Y-73153207D01*
X158244477Y-73154526D01*
X158311319Y-73155576D01*
X158311322Y-73155576D01*
X158318916Y-73155695D01*
X158473332Y-73120329D01*
X158543742Y-73084917D01*
X158608072Y-73052563D01*
X158608075Y-73052561D01*
X158614855Y-73049151D01*
X158620626Y-73044222D01*
X158620629Y-73044220D01*
X158729542Y-72951199D01*
X158729543Y-72951198D01*
X158735314Y-72946269D01*
X158745586Y-72931974D01*
X158801581Y-72888326D01*
X158847909Y-72879500D01*
X162650141Y-72879500D01*
X162718262Y-72899502D01*
X162745522Y-72923169D01*
X162746671Y-72924500D01*
X162750908Y-72930805D01*
X162868076Y-73037419D01*
X163007293Y-73113008D01*
X163160522Y-73153207D01*
X163244477Y-73154526D01*
X163311319Y-73155576D01*
X163311322Y-73155576D01*
X163318916Y-73155695D01*
X163473332Y-73120329D01*
X163543742Y-73084917D01*
X163608072Y-73052563D01*
X163608075Y-73052561D01*
X163614855Y-73049151D01*
X163620626Y-73044222D01*
X163620629Y-73044220D01*
X163729542Y-72951199D01*
X163729543Y-72951198D01*
X163735314Y-72946269D01*
X163745586Y-72931974D01*
X163801581Y-72888326D01*
X163847909Y-72879500D01*
X167650141Y-72879500D01*
X167718262Y-72899502D01*
X167745522Y-72923169D01*
X167746671Y-72924500D01*
X167750908Y-72930805D01*
X167868076Y-73037419D01*
X168007293Y-73113008D01*
X168160522Y-73153207D01*
X168244477Y-73154526D01*
X168311319Y-73155576D01*
X168311322Y-73155576D01*
X168318916Y-73155695D01*
X168473332Y-73120329D01*
X168543742Y-73084917D01*
X168608072Y-73052563D01*
X168608075Y-73052561D01*
X168614855Y-73049151D01*
X168620626Y-73044222D01*
X168620629Y-73044220D01*
X168729536Y-72951204D01*
X168729536Y-72951203D01*
X168735314Y-72946269D01*
X168827755Y-72817624D01*
X168886842Y-72670641D01*
X168909162Y-72513807D01*
X168909307Y-72500000D01*
X168890276Y-72342733D01*
X168836171Y-72199549D01*
X168830803Y-72128756D01*
X168864561Y-72066298D01*
X168926726Y-72032006D01*
X168954037Y-72029011D01*
X169696569Y-72029011D01*
X169720517Y-72031560D01*
X169722182Y-72031639D01*
X169732365Y-72033831D01*
X169742706Y-72032607D01*
X169765712Y-72029884D01*
X169771643Y-72029534D01*
X169771635Y-72029439D01*
X169776813Y-72029011D01*
X169782013Y-72029011D01*
X169787142Y-72028157D01*
X169787145Y-72028157D01*
X169801054Y-72025842D01*
X169806932Y-72025005D01*
X169847490Y-72020205D01*
X169847491Y-72020205D01*
X169857830Y-72018981D01*
X169866082Y-72015018D01*
X169875115Y-72013515D01*
X169884284Y-72008568D01*
X169884286Y-72008567D01*
X169920221Y-71989177D01*
X169925514Y-71986480D01*
X169964571Y-71967726D01*
X169964575Y-71967723D01*
X169971721Y-71964292D01*
X169975997Y-71960697D01*
X169977920Y-71958774D01*
X169979852Y-71957002D01*
X169979931Y-71956959D01*
X169980044Y-71957083D01*
X169980584Y-71956607D01*
X169986303Y-71953521D01*
X170022906Y-71913924D01*
X170026335Y-71910359D01*
X170904736Y-71031958D01*
X170923484Y-71016816D01*
X170924709Y-71015701D01*
X170933460Y-71010051D01*
X170939907Y-71001873D01*
X170939909Y-71001871D01*
X170954249Y-70983680D01*
X170958198Y-70979236D01*
X170958124Y-70979174D01*
X170961477Y-70975217D01*
X170965158Y-70971536D01*
X170976385Y-70955826D01*
X170979941Y-70951089D01*
X171005228Y-70919012D01*
X171011676Y-70910833D01*
X171014709Y-70902196D01*
X171020033Y-70894746D01*
X171034722Y-70845631D01*
X171036554Y-70839994D01*
X171050910Y-70799113D01*
X171050910Y-70799112D01*
X171053538Y-70791629D01*
X171054020Y-70786064D01*
X171054020Y-70783356D01*
X171054134Y-70780722D01*
X171054163Y-70780624D01*
X171054327Y-70780631D01*
X171054371Y-70779927D01*
X171056233Y-70773702D01*
X171054117Y-70719845D01*
X171054020Y-70714898D01*
X171054020Y-67771695D01*
X171056570Y-67747737D01*
X171056648Y-67746078D01*
X171058841Y-67735894D01*
X171057617Y-67725552D01*
X171057617Y-67725549D01*
X171054894Y-67702549D01*
X171054544Y-67696618D01*
X171054448Y-67696626D01*
X171054020Y-67691448D01*
X171054020Y-67686246D01*
X171053166Y-67681112D01*
X171052738Y-67675940D01*
X171053676Y-67675863D01*
X171054116Y-67658000D01*
X171052750Y-67658000D01*
X171052750Y-65920388D01*
X171055629Y-65893605D01*
X171056750Y-65888452D01*
X171056750Y-65868115D01*
X171052275Y-65852876D01*
X171050885Y-65851671D01*
X171043202Y-65850000D01*
X170366866Y-65850000D01*
X170351627Y-65854475D01*
X170350422Y-65855865D01*
X170348751Y-65863548D01*
X170348751Y-65894669D01*
X170349120Y-65901488D01*
X170355030Y-65955895D01*
X170342501Y-66025777D01*
X170294180Y-66077792D01*
X170229768Y-66095501D01*
X170131684Y-66095501D01*
X170103232Y-66101160D01*
X170069624Y-66107844D01*
X170069622Y-66107845D01*
X170057449Y-66110266D01*
X170047129Y-66117161D01*
X170047128Y-66117162D01*
X170026752Y-66130777D01*
X169958999Y-66151992D01*
X169886748Y-66130777D01*
X169866371Y-66117161D01*
X169866368Y-66117160D01*
X169856051Y-66110266D01*
X169781817Y-66095500D01*
X169556787Y-66095500D01*
X169331684Y-66095501D01*
X169303232Y-66101160D01*
X169269624Y-66107844D01*
X169269622Y-66107845D01*
X169257449Y-66110266D01*
X169247129Y-66117161D01*
X169247128Y-66117162D01*
X169226752Y-66130777D01*
X169158999Y-66151992D01*
X169086748Y-66130777D01*
X169066371Y-66117161D01*
X169066368Y-66117160D01*
X169056051Y-66110266D01*
X168981817Y-66095500D01*
X168756787Y-66095500D01*
X168531684Y-66095501D01*
X168503232Y-66101160D01*
X168469624Y-66107844D01*
X168469622Y-66107845D01*
X168457449Y-66110266D01*
X168447129Y-66117161D01*
X168447128Y-66117162D01*
X168426752Y-66130777D01*
X168358999Y-66151992D01*
X168286748Y-66130777D01*
X168266371Y-66117161D01*
X168266368Y-66117160D01*
X168256051Y-66110266D01*
X168181817Y-66095500D01*
X168164495Y-66095500D01*
X167930695Y-66095501D01*
X167862575Y-66075499D01*
X167816082Y-66021844D01*
X167805608Y-65984638D01*
X167805589Y-65984484D01*
X167790776Y-65862070D01*
X167734780Y-65713883D01*
X167683386Y-65639104D01*
X167649355Y-65589588D01*
X167649354Y-65589586D01*
X167645053Y-65583329D01*
X167632878Y-65572481D01*
X167569053Y-65515616D01*
X167526775Y-65477948D01*
X167439777Y-65431885D01*
X170348750Y-65431885D01*
X170353225Y-65447124D01*
X170354615Y-65448329D01*
X170362298Y-65450000D01*
X171038635Y-65450000D01*
X171053874Y-65445525D01*
X171055079Y-65444135D01*
X171056750Y-65436452D01*
X171056750Y-65068115D01*
X171052275Y-65052876D01*
X171050885Y-65051671D01*
X171043202Y-65050000D01*
X170366866Y-65050000D01*
X170351627Y-65054475D01*
X170350422Y-65055865D01*
X170348751Y-65063548D01*
X170348751Y-65094669D01*
X170349121Y-65101490D01*
X170354645Y-65152352D01*
X170358271Y-65167603D01*
X170372579Y-65205770D01*
X170377762Y-65276577D01*
X170372579Y-65294230D01*
X170358272Y-65332394D01*
X170354645Y-65347649D01*
X170349119Y-65398514D01*
X170348750Y-65405328D01*
X170348750Y-65431885D01*
X167439777Y-65431885D01*
X167386774Y-65403821D01*
X167233133Y-65365229D01*
X167225534Y-65365189D01*
X167225533Y-65365189D01*
X167212449Y-65365121D01*
X167190921Y-65365008D01*
X167122907Y-65344650D01*
X167076696Y-65290752D01*
X167066495Y-65254147D01*
X167063724Y-65231246D01*
X167057827Y-65182518D01*
X167001831Y-65034331D01*
X166912104Y-64903777D01*
X166904643Y-64897129D01*
X166819174Y-64820980D01*
X166793826Y-64798396D01*
X166786440Y-64794485D01*
X166660539Y-64727824D01*
X166660540Y-64727824D01*
X166653825Y-64724269D01*
X166500184Y-64685677D01*
X166492585Y-64685637D01*
X166492584Y-64685637D01*
X166426732Y-64685292D01*
X166341772Y-64684847D01*
X166334392Y-64686619D01*
X166334390Y-64686619D01*
X166195114Y-64720056D01*
X166195111Y-64720057D01*
X166187735Y-64721828D01*
X166046965Y-64794485D01*
X165927590Y-64898623D01*
X165836501Y-65028229D01*
X165816232Y-65080216D01*
X165785420Y-65159246D01*
X165778957Y-65175822D01*
X165777965Y-65183355D01*
X165777965Y-65183356D01*
X165759976Y-65320002D01*
X165758280Y-65332881D01*
X165766505Y-65407376D01*
X165774214Y-65477202D01*
X165775664Y-65490338D01*
X165778274Y-65497469D01*
X165778274Y-65497471D01*
X165815788Y-65599982D01*
X165830104Y-65639104D01*
X165834340Y-65645407D01*
X165834340Y-65645408D01*
X165908584Y-65755894D01*
X165918459Y-65770590D01*
X165936049Y-65786595D01*
X165972971Y-65847233D01*
X165977250Y-65879789D01*
X165977250Y-65980843D01*
X165957248Y-66048964D01*
X165903592Y-66095457D01*
X165826670Y-66104422D01*
X165781817Y-66095500D01*
X165556787Y-66095500D01*
X165331684Y-66095501D01*
X165303232Y-66101160D01*
X165269624Y-66107844D01*
X165269622Y-66107845D01*
X165257449Y-66110266D01*
X165247129Y-66117161D01*
X165247128Y-66117162D01*
X165226752Y-66130777D01*
X165158999Y-66151992D01*
X165086748Y-66130777D01*
X165066371Y-66117161D01*
X165066368Y-66117160D01*
X165056051Y-66110266D01*
X164981817Y-66095500D01*
X164756787Y-66095500D01*
X164531684Y-66095501D01*
X164503232Y-66101160D01*
X164469624Y-66107844D01*
X164469622Y-66107845D01*
X164457449Y-66110266D01*
X164447129Y-66117161D01*
X164447128Y-66117162D01*
X164426752Y-66130777D01*
X164358999Y-66151992D01*
X164286748Y-66130777D01*
X164266371Y-66117161D01*
X164266368Y-66117160D01*
X164256051Y-66110266D01*
X164181817Y-66095500D01*
X164167158Y-66095500D01*
X163915476Y-66095501D01*
X163847357Y-66075499D01*
X163800864Y-66021844D01*
X163790759Y-65951570D01*
X163795263Y-65934806D01*
X163794671Y-65934647D01*
X163796635Y-65927316D01*
X163799471Y-65920262D01*
X163806680Y-65869610D01*
X163821210Y-65767512D01*
X163821210Y-65767509D01*
X163821791Y-65763428D01*
X163821936Y-65749621D01*
X163819495Y-65729445D01*
X163808562Y-65639104D01*
X163802905Y-65592354D01*
X163746909Y-65444167D01*
X163730526Y-65420329D01*
X163661484Y-65319872D01*
X163661483Y-65319870D01*
X163657182Y-65313613D01*
X163584310Y-65248686D01*
X163546755Y-65188437D01*
X163542129Y-65154610D01*
X163542129Y-64641149D01*
X163543115Y-64631885D01*
X170348750Y-64631885D01*
X170353225Y-64647124D01*
X170354615Y-64648329D01*
X170362298Y-64650000D01*
X171038635Y-64650000D01*
X171053874Y-64645525D01*
X171055079Y-64644135D01*
X171056750Y-64636452D01*
X171056750Y-64268115D01*
X171052275Y-64252876D01*
X171050885Y-64251671D01*
X171043202Y-64250000D01*
X170366866Y-64250000D01*
X170351627Y-64254475D01*
X170350422Y-64255865D01*
X170348751Y-64263548D01*
X170348751Y-64294669D01*
X170349121Y-64301490D01*
X170354645Y-64352352D01*
X170358271Y-64367603D01*
X170372579Y-64405770D01*
X170377762Y-64476577D01*
X170372579Y-64494230D01*
X170358272Y-64532394D01*
X170354645Y-64547649D01*
X170349119Y-64598514D01*
X170348750Y-64605328D01*
X170348750Y-64631885D01*
X163543115Y-64631885D01*
X163544678Y-64617202D01*
X163544757Y-64615536D01*
X163546949Y-64605353D01*
X163545725Y-64595011D01*
X163545725Y-64595008D01*
X163543003Y-64572016D01*
X163542652Y-64566075D01*
X163542557Y-64566083D01*
X163542129Y-64560903D01*
X163542129Y-64555705D01*
X163538958Y-64536653D01*
X163538121Y-64530776D01*
X163537788Y-64527958D01*
X163536334Y-64515679D01*
X163533322Y-64490226D01*
X163533321Y-64490224D01*
X163532098Y-64479888D01*
X163528137Y-64471639D01*
X163526633Y-64462603D01*
X163521537Y-64453158D01*
X163502281Y-64417469D01*
X163499586Y-64412180D01*
X163480841Y-64373144D01*
X163477409Y-64365997D01*
X163473815Y-64361721D01*
X163471875Y-64359781D01*
X163470122Y-64357870D01*
X163470073Y-64357780D01*
X163470196Y-64357668D01*
X163469724Y-64357133D01*
X163466639Y-64351415D01*
X163427042Y-64314812D01*
X163423477Y-64311383D01*
X163285123Y-64173029D01*
X163251097Y-64110717D01*
X163256162Y-64039902D01*
X163298709Y-63983066D01*
X163365229Y-63958255D01*
X163434728Y-63973415D01*
X163443690Y-63978322D01*
X163564144Y-64023478D01*
X163579399Y-64027105D01*
X163630264Y-64032631D01*
X163637078Y-64033000D01*
X164134635Y-64033000D01*
X164149874Y-64028525D01*
X164151079Y-64027135D01*
X164152750Y-64019452D01*
X164152750Y-64014884D01*
X164660750Y-64014884D01*
X164665225Y-64030123D01*
X164666615Y-64031328D01*
X164674298Y-64032999D01*
X165176419Y-64032999D01*
X165183240Y-64032629D01*
X165234102Y-64027105D01*
X165249354Y-64023479D01*
X165337520Y-63990427D01*
X165408328Y-63985244D01*
X165425980Y-63990427D01*
X165514144Y-64023478D01*
X165529399Y-64027105D01*
X165580264Y-64032631D01*
X165587078Y-64033000D01*
X166084635Y-64033000D01*
X166099874Y-64028525D01*
X166101079Y-64027135D01*
X166102750Y-64019452D01*
X166102750Y-64014884D01*
X166610750Y-64014884D01*
X166615225Y-64030123D01*
X166616615Y-64031328D01*
X166624298Y-64032999D01*
X167126419Y-64032999D01*
X167133240Y-64032629D01*
X167184102Y-64027105D01*
X167199354Y-64023479D01*
X167287520Y-63990427D01*
X167358328Y-63985244D01*
X167375980Y-63990427D01*
X167464144Y-64023478D01*
X167479399Y-64027105D01*
X167530264Y-64032631D01*
X167537078Y-64033000D01*
X168034635Y-64033000D01*
X168049874Y-64028525D01*
X168051079Y-64027135D01*
X168052750Y-64019452D01*
X168052750Y-64014884D01*
X168560750Y-64014884D01*
X168565225Y-64030123D01*
X168566615Y-64031328D01*
X168574298Y-64032999D01*
X169076419Y-64032999D01*
X169083240Y-64032629D01*
X169134102Y-64027105D01*
X169149354Y-64023479D01*
X169269804Y-63978324D01*
X169285399Y-63969786D01*
X169387474Y-63893285D01*
X169400035Y-63880724D01*
X169436638Y-63831885D01*
X170348750Y-63831885D01*
X170353225Y-63847124D01*
X170354615Y-63848329D01*
X170362298Y-63850000D01*
X171038635Y-63850000D01*
X171053874Y-63845525D01*
X171055079Y-63844135D01*
X171056750Y-63836452D01*
X171056750Y-63468115D01*
X171052275Y-63452876D01*
X171050885Y-63451671D01*
X171043202Y-63450000D01*
X170366866Y-63450000D01*
X170351627Y-63454475D01*
X170350422Y-63455865D01*
X170348751Y-63463548D01*
X170348751Y-63494669D01*
X170349121Y-63501490D01*
X170354645Y-63552352D01*
X170358271Y-63567603D01*
X170372579Y-63605770D01*
X170377762Y-63676577D01*
X170372579Y-63694230D01*
X170358272Y-63732394D01*
X170354645Y-63747649D01*
X170349119Y-63798514D01*
X170348750Y-63805328D01*
X170348750Y-63831885D01*
X169436638Y-63831885D01*
X169476536Y-63778649D01*
X169485074Y-63763054D01*
X169530228Y-63642606D01*
X169533855Y-63627351D01*
X169539381Y-63576486D01*
X169539750Y-63569672D01*
X169539750Y-63072115D01*
X169535275Y-63056876D01*
X169533885Y-63055671D01*
X169526202Y-63054000D01*
X168578865Y-63054000D01*
X168563626Y-63058475D01*
X168562421Y-63059865D01*
X168560750Y-63067548D01*
X168560750Y-64014884D01*
X168052750Y-64014884D01*
X168052750Y-63072115D01*
X168048275Y-63056876D01*
X168046885Y-63055671D01*
X168039202Y-63054000D01*
X166628865Y-63054000D01*
X166613626Y-63058475D01*
X166612421Y-63059865D01*
X166610750Y-63067548D01*
X166610750Y-64014884D01*
X166102750Y-64014884D01*
X166102750Y-63072115D01*
X166098275Y-63056876D01*
X166096885Y-63055671D01*
X166089202Y-63054000D01*
X164678865Y-63054000D01*
X164663626Y-63058475D01*
X164662421Y-63059865D01*
X164660750Y-63067548D01*
X164660750Y-64014884D01*
X164152750Y-64014884D01*
X164152750Y-63031885D01*
X170348750Y-63031885D01*
X170353225Y-63047124D01*
X170354615Y-63048329D01*
X170362298Y-63050000D01*
X171038635Y-63050000D01*
X171053874Y-63045525D01*
X171055079Y-63044135D01*
X171056750Y-63036452D01*
X171056750Y-62668115D01*
X171052275Y-62652876D01*
X171050885Y-62651671D01*
X171043202Y-62650000D01*
X170366866Y-62650000D01*
X170351627Y-62654475D01*
X170350422Y-62655865D01*
X170348751Y-62663548D01*
X170348751Y-62694669D01*
X170349121Y-62701490D01*
X170354645Y-62752352D01*
X170358271Y-62767603D01*
X170372579Y-62805770D01*
X170377762Y-62876577D01*
X170372579Y-62894230D01*
X170358272Y-62932394D01*
X170354645Y-62947649D01*
X170349119Y-62998514D01*
X170348750Y-63005328D01*
X170348750Y-63031885D01*
X164152750Y-63031885D01*
X164152750Y-62527885D01*
X164660750Y-62527885D01*
X164665225Y-62543124D01*
X164666615Y-62544329D01*
X164674298Y-62546000D01*
X166084635Y-62546000D01*
X166099874Y-62541525D01*
X166101079Y-62540135D01*
X166102750Y-62532452D01*
X166102750Y-62527885D01*
X166610750Y-62527885D01*
X166615225Y-62543124D01*
X166616615Y-62544329D01*
X166624298Y-62546000D01*
X168034635Y-62546000D01*
X168049874Y-62541525D01*
X168051079Y-62540135D01*
X168052750Y-62532452D01*
X168052750Y-62527885D01*
X168560750Y-62527885D01*
X168565225Y-62543124D01*
X168566615Y-62544329D01*
X168574298Y-62546000D01*
X169521634Y-62546000D01*
X169536873Y-62541525D01*
X169538078Y-62540135D01*
X169539749Y-62532452D01*
X169539749Y-62231885D01*
X170348750Y-62231885D01*
X170353225Y-62247124D01*
X170354615Y-62248329D01*
X170362298Y-62250000D01*
X171038635Y-62250000D01*
X171053874Y-62245525D01*
X171055079Y-62244135D01*
X171056750Y-62236452D01*
X171056750Y-61868115D01*
X171052275Y-61852876D01*
X171050885Y-61851671D01*
X171043202Y-61850000D01*
X170366866Y-61850000D01*
X170351627Y-61854475D01*
X170350422Y-61855865D01*
X170348751Y-61863548D01*
X170348751Y-61894669D01*
X170349121Y-61901490D01*
X170354645Y-61952352D01*
X170358271Y-61967603D01*
X170372579Y-62005770D01*
X170377762Y-62076577D01*
X170372579Y-62094230D01*
X170358272Y-62132394D01*
X170354645Y-62147649D01*
X170349119Y-62198514D01*
X170348750Y-62205328D01*
X170348750Y-62231885D01*
X169539749Y-62231885D01*
X169539749Y-62030331D01*
X169539379Y-62023510D01*
X169533855Y-61972648D01*
X169530229Y-61957396D01*
X169497177Y-61869230D01*
X169491994Y-61798422D01*
X169497177Y-61780770D01*
X169530228Y-61692606D01*
X169533855Y-61677351D01*
X169539381Y-61626486D01*
X169539750Y-61619672D01*
X169539750Y-61431885D01*
X170348750Y-61431885D01*
X170353225Y-61447124D01*
X170354615Y-61448329D01*
X170362298Y-61450000D01*
X171038635Y-61450000D01*
X171053874Y-61445525D01*
X171055079Y-61444135D01*
X171056750Y-61436452D01*
X171056750Y-61068115D01*
X171052275Y-61052876D01*
X171050885Y-61051671D01*
X171043202Y-61050000D01*
X170366866Y-61050000D01*
X170351627Y-61054475D01*
X170350422Y-61055865D01*
X170348751Y-61063548D01*
X170348751Y-61094669D01*
X170349121Y-61101490D01*
X170354645Y-61152352D01*
X170358271Y-61167603D01*
X170372579Y-61205770D01*
X170377762Y-61276577D01*
X170372579Y-61294230D01*
X170358272Y-61332394D01*
X170354645Y-61347649D01*
X170349119Y-61398514D01*
X170348750Y-61405328D01*
X170348750Y-61431885D01*
X169539750Y-61431885D01*
X169539750Y-61122115D01*
X169535275Y-61106876D01*
X169533885Y-61105671D01*
X169526202Y-61104000D01*
X168578865Y-61104000D01*
X168563626Y-61108475D01*
X168562421Y-61109865D01*
X168560750Y-61117548D01*
X168560750Y-62527885D01*
X168052750Y-62527885D01*
X168052750Y-61122115D01*
X168048275Y-61106876D01*
X168046885Y-61105671D01*
X168039202Y-61104000D01*
X166628865Y-61104000D01*
X166613626Y-61108475D01*
X166612421Y-61109865D01*
X166610750Y-61117548D01*
X166610750Y-62527885D01*
X166102750Y-62527885D01*
X166102750Y-61122115D01*
X166098275Y-61106876D01*
X166096885Y-61105671D01*
X166089202Y-61104000D01*
X164678865Y-61104000D01*
X164663626Y-61108475D01*
X164662421Y-61109865D01*
X164660750Y-61117548D01*
X164660750Y-62527885D01*
X164152750Y-62527885D01*
X164152750Y-61122115D01*
X164148275Y-61106876D01*
X164146885Y-61105671D01*
X164139202Y-61104000D01*
X163557178Y-61104000D01*
X163489057Y-61083998D01*
X163473358Y-61072075D01*
X163464748Y-61064403D01*
X163464745Y-61064401D01*
X163459076Y-61059350D01*
X163451690Y-61055439D01*
X163325789Y-60988778D01*
X163325790Y-60988778D01*
X163319075Y-60985223D01*
X163165434Y-60946631D01*
X163157835Y-60946591D01*
X163157834Y-60946591D01*
X163091982Y-60946246D01*
X163007022Y-60945801D01*
X162999642Y-60947573D01*
X162999640Y-60947573D01*
X162860364Y-60981010D01*
X162860361Y-60981011D01*
X162852985Y-60982782D01*
X162712215Y-61055439D01*
X162592840Y-61159577D01*
X162578488Y-61179998D01*
X162552517Y-61216951D01*
X162496983Y-61261182D01*
X162449430Y-61270500D01*
X162225907Y-61270500D01*
X162157786Y-61250498D01*
X162111293Y-61196842D01*
X162102328Y-61119920D01*
X162111250Y-61075067D01*
X162111249Y-60631885D01*
X170348750Y-60631885D01*
X170353225Y-60647124D01*
X170354615Y-60648329D01*
X170362298Y-60650000D01*
X171038635Y-60650000D01*
X171053874Y-60645525D01*
X171055079Y-60644135D01*
X171056750Y-60636452D01*
X171056750Y-60268115D01*
X171052275Y-60252876D01*
X171050885Y-60251671D01*
X171043202Y-60250000D01*
X170366866Y-60250000D01*
X170351627Y-60254475D01*
X170350422Y-60255865D01*
X170348751Y-60263548D01*
X170348751Y-60294669D01*
X170349121Y-60301490D01*
X170354645Y-60352352D01*
X170358271Y-60367603D01*
X170372579Y-60405770D01*
X170377762Y-60476577D01*
X170372579Y-60494230D01*
X170358272Y-60532394D01*
X170354645Y-60547649D01*
X170349119Y-60598514D01*
X170348750Y-60605328D01*
X170348750Y-60631885D01*
X162111249Y-60631885D01*
X162111249Y-60624934D01*
X162101891Y-60577885D01*
X163173750Y-60577885D01*
X163178225Y-60593124D01*
X163179615Y-60594329D01*
X163187298Y-60596000D01*
X164134635Y-60596000D01*
X164149874Y-60591525D01*
X164151079Y-60590135D01*
X164152750Y-60582452D01*
X164152750Y-60577885D01*
X164660750Y-60577885D01*
X164665225Y-60593124D01*
X164666615Y-60594329D01*
X164674298Y-60596000D01*
X166084635Y-60596000D01*
X166099874Y-60591525D01*
X166101079Y-60590135D01*
X166102750Y-60582452D01*
X166102750Y-60577885D01*
X166610750Y-60577885D01*
X166615225Y-60593124D01*
X166616615Y-60594329D01*
X166624298Y-60596000D01*
X169521634Y-60596000D01*
X169536873Y-60591525D01*
X169538078Y-60590135D01*
X169539749Y-60582452D01*
X169539749Y-60080331D01*
X169539379Y-60073510D01*
X169533855Y-60022648D01*
X169530228Y-60007394D01*
X169501789Y-59931531D01*
X169496606Y-59860724D01*
X169506753Y-59831885D01*
X170348750Y-59831885D01*
X170353225Y-59847124D01*
X170354615Y-59848329D01*
X170362298Y-59850000D01*
X171038635Y-59850000D01*
X171053874Y-59845525D01*
X171055079Y-59844135D01*
X171056750Y-59836452D01*
X171056750Y-59468115D01*
X171052275Y-59452876D01*
X171050885Y-59451671D01*
X171043202Y-59450000D01*
X170366866Y-59450000D01*
X170351627Y-59454475D01*
X170350422Y-59455865D01*
X170348751Y-59463548D01*
X170348751Y-59494669D01*
X170349121Y-59501490D01*
X170354645Y-59552352D01*
X170358271Y-59567603D01*
X170372579Y-59605770D01*
X170377762Y-59676577D01*
X170372579Y-59694230D01*
X170358272Y-59732394D01*
X170354645Y-59747649D01*
X170349119Y-59798514D01*
X170348750Y-59805328D01*
X170348750Y-59831885D01*
X169506753Y-59831885D01*
X169507098Y-59830904D01*
X169507912Y-59829279D01*
X169510204Y-59825415D01*
X169511377Y-59822583D01*
X169511398Y-59822533D01*
X169511810Y-59821538D01*
X169529035Y-59762874D01*
X169540498Y-59723835D01*
X169540499Y-59723831D01*
X169542717Y-59716276D01*
X169545323Y-59643567D01*
X169547781Y-59624005D01*
X169550479Y-59624005D01*
X169550479Y-59031885D01*
X170348750Y-59031885D01*
X170353225Y-59047124D01*
X170354615Y-59048329D01*
X170362298Y-59050000D01*
X171038635Y-59050000D01*
X171053874Y-59045525D01*
X171055079Y-59044135D01*
X171056750Y-59036452D01*
X171056750Y-58668115D01*
X171052275Y-58652876D01*
X171050885Y-58651671D01*
X171043202Y-58650000D01*
X170366866Y-58650000D01*
X170351627Y-58654475D01*
X170350422Y-58655865D01*
X170348751Y-58663548D01*
X170348751Y-58694669D01*
X170349121Y-58701490D01*
X170354645Y-58752352D01*
X170358271Y-58767603D01*
X170372579Y-58805770D01*
X170377762Y-58876577D01*
X170372579Y-58894230D01*
X170358272Y-58932394D01*
X170354645Y-58947649D01*
X170349119Y-58998514D01*
X170348750Y-59005328D01*
X170348750Y-59031885D01*
X169550479Y-59031885D01*
X169550479Y-58775995D01*
X169548858Y-58775995D01*
X169546598Y-58757990D01*
X169546800Y-58752352D01*
X169547954Y-58720147D01*
X169511810Y-58578462D01*
X169511398Y-58577467D01*
X169511377Y-58577417D01*
X169510204Y-58574585D01*
X169481487Y-58522000D01*
X169461310Y-58485053D01*
X169461309Y-58485051D01*
X169457529Y-58478130D01*
X169408045Y-58424994D01*
X169395935Y-58409408D01*
X169397843Y-58407500D01*
X169222228Y-58231885D01*
X170348750Y-58231885D01*
X170353225Y-58247124D01*
X170354615Y-58248329D01*
X170362298Y-58250000D01*
X171038635Y-58250000D01*
X171053874Y-58245525D01*
X171055079Y-58244135D01*
X171056750Y-58236452D01*
X171056750Y-57868115D01*
X171052275Y-57852876D01*
X171050885Y-57851671D01*
X171043202Y-57850000D01*
X170366866Y-57850000D01*
X170351627Y-57854475D01*
X170350422Y-57855865D01*
X170348751Y-57863548D01*
X170348751Y-57894669D01*
X170349121Y-57901490D01*
X170354645Y-57952352D01*
X170358271Y-57967603D01*
X170372579Y-58005770D01*
X170377762Y-58076577D01*
X170372579Y-58094230D01*
X170358272Y-58132394D01*
X170354645Y-58147649D01*
X170349119Y-58198514D01*
X170348750Y-58205328D01*
X170348750Y-58231885D01*
X169222228Y-58231885D01*
X168799250Y-57808907D01*
X168798099Y-57810058D01*
X168783775Y-57798932D01*
X168764019Y-57777718D01*
X168764018Y-57777717D01*
X168757877Y-57771123D01*
X168750128Y-57766526D01*
X168750126Y-57766525D01*
X168635991Y-57698824D01*
X168635990Y-57698823D01*
X168632115Y-57696525D01*
X168631120Y-57696113D01*
X168628338Y-57694961D01*
X168523026Y-57664033D01*
X168463152Y-57661887D01*
X168450317Y-57661427D01*
X168430755Y-57658969D01*
X168430755Y-57656271D01*
X167582745Y-57656271D01*
X167582745Y-57657892D01*
X167564741Y-57660152D01*
X167526897Y-57658796D01*
X167385212Y-57694940D01*
X167384217Y-57695352D01*
X167384167Y-57695373D01*
X167381335Y-57696546D01*
X167378383Y-57698158D01*
X167375327Y-57699620D01*
X167374810Y-57698539D01*
X167310204Y-57712573D01*
X167275000Y-57704879D01*
X167199359Y-57676522D01*
X167184101Y-57672895D01*
X167133236Y-57667369D01*
X167126422Y-57667000D01*
X166628865Y-57667000D01*
X166613626Y-57671475D01*
X166612421Y-57672865D01*
X166610750Y-57680548D01*
X166610750Y-60577885D01*
X166102750Y-60577885D01*
X166102750Y-59172115D01*
X166098275Y-59156876D01*
X166096885Y-59155671D01*
X166089202Y-59154000D01*
X164678865Y-59154000D01*
X164663626Y-59158475D01*
X164662421Y-59159865D01*
X164660750Y-59167548D01*
X164660750Y-60577885D01*
X164152750Y-60577885D01*
X164152750Y-59172115D01*
X164148275Y-59156876D01*
X164146885Y-59155671D01*
X164139202Y-59154000D01*
X163191866Y-59154000D01*
X163176627Y-59158475D01*
X163175422Y-59159865D01*
X163173751Y-59167548D01*
X163173751Y-59669669D01*
X163174121Y-59676490D01*
X163179645Y-59727352D01*
X163183271Y-59742604D01*
X163216323Y-59830770D01*
X163221506Y-59901578D01*
X163216323Y-59919230D01*
X163183272Y-60007394D01*
X163179645Y-60022649D01*
X163174119Y-60073514D01*
X163173750Y-60080328D01*
X163173750Y-60577885D01*
X162101891Y-60577885D01*
X162096484Y-60550699D01*
X162084653Y-60532992D01*
X162075973Y-60520002D01*
X162054758Y-60452249D01*
X162075973Y-60379998D01*
X162089589Y-60359621D01*
X162089590Y-60359618D01*
X162096484Y-60349301D01*
X162111250Y-60275067D01*
X162111249Y-59824934D01*
X162103482Y-59785881D01*
X162098906Y-59762874D01*
X162098905Y-59762872D01*
X162096484Y-59750699D01*
X162075973Y-59720002D01*
X162054758Y-59652249D01*
X162075973Y-59579998D01*
X162089589Y-59559621D01*
X162089590Y-59559618D01*
X162096484Y-59549301D01*
X162111250Y-59475067D01*
X162111249Y-59024934D01*
X162100278Y-58969773D01*
X162106607Y-58899059D01*
X162150163Y-58842993D01*
X162194375Y-58825779D01*
X162193742Y-58823602D01*
X162203750Y-58820694D01*
X162214091Y-58819470D01*
X162222343Y-58815507D01*
X162231376Y-58814004D01*
X162240545Y-58809057D01*
X162240547Y-58809056D01*
X162276482Y-58789666D01*
X162281775Y-58786969D01*
X162320832Y-58768215D01*
X162320836Y-58768212D01*
X162327982Y-58764781D01*
X162332258Y-58761186D01*
X162334181Y-58759263D01*
X162336113Y-58757491D01*
X162336192Y-58757448D01*
X162336305Y-58757572D01*
X162336845Y-58757096D01*
X162342564Y-58754010D01*
X162379153Y-58714428D01*
X162382583Y-58710861D01*
X162730222Y-58363223D01*
X162748959Y-58348091D01*
X162750191Y-58346970D01*
X162758940Y-58341321D01*
X162779729Y-58314950D01*
X162783676Y-58310509D01*
X162783603Y-58310447D01*
X162786963Y-58306482D01*
X162790638Y-58302807D01*
X162793655Y-58298585D01*
X162793660Y-58298579D01*
X162801862Y-58287100D01*
X162805428Y-58282350D01*
X162825926Y-58256348D01*
X162837156Y-58242103D01*
X162840189Y-58233466D01*
X162845513Y-58226016D01*
X162859110Y-58180552D01*
X162897995Y-58120846D01*
X162965921Y-58062832D01*
X163030709Y-58033802D01*
X163100909Y-58044407D01*
X163154231Y-58091282D01*
X163173750Y-58158644D01*
X163173750Y-58627885D01*
X163178225Y-58643124D01*
X163179615Y-58644329D01*
X163187298Y-58646000D01*
X164134635Y-58646000D01*
X164149874Y-58641525D01*
X164151079Y-58640135D01*
X164152750Y-58632452D01*
X164152750Y-58627885D01*
X164660750Y-58627885D01*
X164665225Y-58643124D01*
X164666615Y-58644329D01*
X164674298Y-58646000D01*
X166084635Y-58646000D01*
X166099874Y-58641525D01*
X166101079Y-58640135D01*
X166102750Y-58632452D01*
X166102750Y-57685116D01*
X166098275Y-57669877D01*
X166096885Y-57668672D01*
X166089202Y-57667001D01*
X165587081Y-57667001D01*
X165580260Y-57667371D01*
X165529398Y-57672895D01*
X165514146Y-57676521D01*
X165425980Y-57709573D01*
X165355172Y-57714756D01*
X165337520Y-57709573D01*
X165249356Y-57676522D01*
X165234101Y-57672895D01*
X165183236Y-57667369D01*
X165176422Y-57667000D01*
X164678865Y-57667000D01*
X164663626Y-57671475D01*
X164662421Y-57672865D01*
X164660750Y-57680548D01*
X164660750Y-58627885D01*
X164152750Y-58627885D01*
X164152750Y-57685116D01*
X164148275Y-57669877D01*
X164146885Y-57668672D01*
X164139202Y-57667001D01*
X163637081Y-57667001D01*
X163630260Y-57667371D01*
X163579398Y-57672895D01*
X163564146Y-57676521D01*
X163443696Y-57721676D01*
X163428101Y-57730214D01*
X163351622Y-57787532D01*
X163285115Y-57812380D01*
X163215733Y-57797327D01*
X163165503Y-57747153D01*
X163150373Y-57677787D01*
X163151314Y-57668953D01*
X163158581Y-57617891D01*
X163158581Y-57617888D01*
X163159162Y-57613807D01*
X163159307Y-57600000D01*
X163146758Y-57496299D01*
X163157495Y-57431885D01*
X170348750Y-57431885D01*
X170353225Y-57447124D01*
X170354615Y-57448329D01*
X170362298Y-57450000D01*
X171038635Y-57450000D01*
X171053874Y-57445525D01*
X171055079Y-57444135D01*
X171056750Y-57436452D01*
X171056750Y-57068115D01*
X171052275Y-57052876D01*
X171050885Y-57051671D01*
X171043202Y-57050000D01*
X170366866Y-57050000D01*
X170351627Y-57054475D01*
X170350422Y-57055865D01*
X170348751Y-57063548D01*
X170348751Y-57094669D01*
X170349121Y-57101490D01*
X170354645Y-57152352D01*
X170358271Y-57167603D01*
X170372579Y-57205770D01*
X170377762Y-57276577D01*
X170372579Y-57294230D01*
X170358272Y-57332394D01*
X170354645Y-57347649D01*
X170349119Y-57398514D01*
X170348750Y-57405328D01*
X170348750Y-57431885D01*
X163157495Y-57431885D01*
X163158431Y-57426270D01*
X163206113Y-57373668D01*
X163258678Y-57355853D01*
X163261317Y-57355576D01*
X163268916Y-57355695D01*
X163423332Y-57320329D01*
X163510324Y-57276577D01*
X163558072Y-57252563D01*
X163558075Y-57252561D01*
X163564855Y-57249151D01*
X163570626Y-57244222D01*
X163570629Y-57244220D01*
X163679536Y-57151204D01*
X163679536Y-57151203D01*
X163685314Y-57146269D01*
X163777755Y-57017624D01*
X163836842Y-56870641D01*
X163852099Y-56763436D01*
X163858581Y-56717891D01*
X163858581Y-56717888D01*
X163859162Y-56713807D01*
X163859248Y-56705605D01*
X163859264Y-56704134D01*
X163859264Y-56704128D01*
X163859307Y-56700000D01*
X163857499Y-56685055D01*
X163853931Y-56655577D01*
X163840276Y-56542733D01*
X163784280Y-56394546D01*
X163760485Y-56359924D01*
X163698855Y-56270251D01*
X163698854Y-56270249D01*
X163694553Y-56263992D01*
X163685432Y-56255865D01*
X163638351Y-56213918D01*
X163576275Y-56158611D01*
X163436274Y-56084484D01*
X163282633Y-56045892D01*
X163275034Y-56045852D01*
X163275033Y-56045852D01*
X163206425Y-56045493D01*
X163124221Y-56045062D01*
X163118605Y-56046410D01*
X163049402Y-56034502D01*
X162997051Y-55986545D01*
X162979802Y-55936514D01*
X162979280Y-55932194D01*
X162965489Y-55818233D01*
X162962805Y-55811130D01*
X162962804Y-55811126D01*
X162949167Y-55775039D01*
X162943799Y-55704245D01*
X162977556Y-55641788D01*
X163039722Y-55607496D01*
X163067033Y-55604500D01*
X163362133Y-55604499D01*
X163381816Y-55604499D01*
X163417568Y-55597388D01*
X163443876Y-55592156D01*
X163443878Y-55592155D01*
X163456051Y-55589734D01*
X163466371Y-55582839D01*
X163466372Y-55582838D01*
X163486748Y-55569223D01*
X163554501Y-55548008D01*
X163626752Y-55569223D01*
X163647129Y-55582839D01*
X163647132Y-55582840D01*
X163657449Y-55589734D01*
X163731683Y-55604500D01*
X163749078Y-55604500D01*
X164027900Y-55604499D01*
X164096019Y-55624501D01*
X164142512Y-55678156D01*
X164152617Y-55748430D01*
X164145294Y-55776264D01*
X164135336Y-55801804D01*
X164134344Y-55809337D01*
X164134344Y-55809338D01*
X164121556Y-55906476D01*
X164114659Y-55958863D01*
X164118594Y-55994501D01*
X164128921Y-56088039D01*
X164132043Y-56116320D01*
X164134653Y-56123451D01*
X164134653Y-56123453D01*
X164183590Y-56257180D01*
X164186483Y-56265086D01*
X164190719Y-56271389D01*
X164190719Y-56271390D01*
X164270158Y-56389607D01*
X164274838Y-56396572D01*
X164280457Y-56401685D01*
X164280458Y-56401686D01*
X164381605Y-56493722D01*
X164392006Y-56503186D01*
X164531223Y-56578775D01*
X164684452Y-56618974D01*
X164768407Y-56620293D01*
X164835249Y-56621343D01*
X164835252Y-56621343D01*
X164842846Y-56621462D01*
X164997262Y-56586096D01*
X165088161Y-56540379D01*
X165132002Y-56518330D01*
X165132005Y-56518328D01*
X165138785Y-56514918D01*
X165144556Y-56509989D01*
X165144559Y-56509987D01*
X165253466Y-56416971D01*
X165253466Y-56416970D01*
X165259244Y-56412036D01*
X165294881Y-56362443D01*
X165350875Y-56318796D01*
X165421578Y-56312350D01*
X165484542Y-56345153D01*
X165501784Y-56365695D01*
X165530746Y-56408794D01*
X165545537Y-56430806D01*
X165551156Y-56435919D01*
X165551157Y-56435920D01*
X165643563Y-56520002D01*
X165662705Y-56537420D01*
X165801922Y-56613009D01*
X165955151Y-56653208D01*
X166039106Y-56654527D01*
X166105948Y-56655577D01*
X166105951Y-56655577D01*
X166113545Y-56655696D01*
X166217509Y-56631885D01*
X170348750Y-56631885D01*
X170353225Y-56647124D01*
X170354615Y-56648329D01*
X170362298Y-56650000D01*
X171038635Y-56650000D01*
X171053874Y-56645525D01*
X171055079Y-56644135D01*
X171056750Y-56636452D01*
X171056750Y-56268115D01*
X171052275Y-56252876D01*
X171050885Y-56251671D01*
X171043202Y-56250000D01*
X170366866Y-56250000D01*
X170351627Y-56254475D01*
X170350422Y-56255865D01*
X170348751Y-56263548D01*
X170348751Y-56294669D01*
X170349121Y-56301490D01*
X170354645Y-56352352D01*
X170358271Y-56367603D01*
X170372579Y-56405770D01*
X170377762Y-56476577D01*
X170372579Y-56494230D01*
X170358272Y-56532394D01*
X170354645Y-56547649D01*
X170349119Y-56598514D01*
X170348750Y-56605328D01*
X170348750Y-56631885D01*
X166217509Y-56631885D01*
X166267961Y-56620330D01*
X166350585Y-56578775D01*
X166402701Y-56552564D01*
X166402704Y-56552562D01*
X166409484Y-56549152D01*
X166415255Y-56544223D01*
X166415258Y-56544221D01*
X166524165Y-56451205D01*
X166524165Y-56451204D01*
X166529943Y-56446270D01*
X166567088Y-56394578D01*
X166623080Y-56350932D01*
X166693783Y-56344486D01*
X166729530Y-56357375D01*
X166774285Y-56381675D01*
X166927514Y-56421874D01*
X167011469Y-56423193D01*
X167078311Y-56424243D01*
X167078314Y-56424243D01*
X167085908Y-56424362D01*
X167240324Y-56388996D01*
X167340310Y-56338709D01*
X167410153Y-56325971D01*
X167475797Y-56353015D01*
X167492304Y-56368943D01*
X167496672Y-56374004D01*
X167500908Y-56380307D01*
X167506525Y-56385418D01*
X167612254Y-56481623D01*
X167618076Y-56486921D01*
X167757293Y-56562510D01*
X167910522Y-56602709D01*
X167994477Y-56604028D01*
X168061319Y-56605078D01*
X168061322Y-56605078D01*
X168068916Y-56605197D01*
X168223332Y-56569831D01*
X168322912Y-56519748D01*
X168358072Y-56502065D01*
X168358075Y-56502063D01*
X168364855Y-56498653D01*
X168370626Y-56493724D01*
X168370629Y-56493722D01*
X168479542Y-56400701D01*
X168479543Y-56400700D01*
X168485314Y-56395771D01*
X168535374Y-56326105D01*
X168583156Y-56286047D01*
X168606024Y-56275066D01*
X168628480Y-56264283D01*
X168632756Y-56260688D01*
X168634679Y-56258765D01*
X168636611Y-56256993D01*
X168636690Y-56256950D01*
X168636803Y-56257074D01*
X168637343Y-56256598D01*
X168643062Y-56253512D01*
X168679663Y-56213918D01*
X168683092Y-56210353D01*
X168986969Y-55906476D01*
X169005711Y-55891339D01*
X169006940Y-55890221D01*
X169015690Y-55884571D01*
X169022138Y-55876392D01*
X169031639Y-55864340D01*
X169089520Y-55823227D01*
X169160440Y-55819933D01*
X169174818Y-55824364D01*
X169239141Y-55848478D01*
X169254399Y-55852105D01*
X169305264Y-55857631D01*
X169312078Y-55858000D01*
X169338635Y-55858000D01*
X169353874Y-55853525D01*
X169355079Y-55852135D01*
X169356750Y-55844452D01*
X169356750Y-55839884D01*
X169756750Y-55839884D01*
X169761225Y-55855123D01*
X169762615Y-55856328D01*
X169770298Y-55857999D01*
X169801419Y-55857999D01*
X169808240Y-55857629D01*
X169859102Y-55852105D01*
X169874353Y-55848479D01*
X169912520Y-55834171D01*
X169983327Y-55828988D01*
X170000980Y-55834171D01*
X170039144Y-55848478D01*
X170054399Y-55852105D01*
X170105264Y-55857631D01*
X170112078Y-55858000D01*
X170138635Y-55858000D01*
X170153874Y-55853525D01*
X170155079Y-55852135D01*
X170156750Y-55844452D01*
X170156750Y-55831885D01*
X170556750Y-55831885D01*
X170561225Y-55847124D01*
X170562615Y-55848329D01*
X170570298Y-55850000D01*
X171038635Y-55850000D01*
X171053874Y-55845525D01*
X171055079Y-55844135D01*
X171056750Y-55836452D01*
X171056750Y-55812197D01*
X171052750Y-55784377D01*
X171052750Y-55172115D01*
X171048275Y-55156876D01*
X171046885Y-55155671D01*
X171039202Y-55154000D01*
X170574865Y-55154000D01*
X170559626Y-55158475D01*
X170558421Y-55159865D01*
X170556750Y-55167548D01*
X170556750Y-55831885D01*
X170156750Y-55831885D01*
X170156750Y-55168115D01*
X170152275Y-55152876D01*
X170150885Y-55151671D01*
X170143202Y-55150000D01*
X169774865Y-55150000D01*
X169759626Y-55154475D01*
X169758421Y-55155865D01*
X169756750Y-55163548D01*
X169756750Y-55839884D01*
X169356750Y-55839884D01*
X169356750Y-54876000D01*
X169376752Y-54807879D01*
X169430408Y-54761386D01*
X169482750Y-54750000D01*
X170390635Y-54750000D01*
X170405874Y-54745525D01*
X170408042Y-54743024D01*
X170440867Y-54682906D01*
X170503179Y-54648880D01*
X170529964Y-54646000D01*
X171434750Y-54646000D01*
X171502871Y-54666002D01*
G37*
%TD.AperFunction*%
%TA.AperFunction,Conductor*%
G36*
X161602871Y-66566002D02*
G01*
X161649364Y-66619658D01*
X161660750Y-66672000D01*
X161660750Y-66928000D01*
X161640748Y-66996121D01*
X161587092Y-67042614D01*
X161534750Y-67054000D01*
X160566866Y-67054000D01*
X160551627Y-67058475D01*
X160550422Y-67059865D01*
X160548751Y-67067548D01*
X160548751Y-67194669D01*
X160549121Y-67201490D01*
X160554645Y-67252352D01*
X160558271Y-67267604D01*
X160603427Y-67388056D01*
X160609647Y-67399417D01*
X160624817Y-67468774D01*
X160600082Y-67535322D01*
X160553669Y-67573511D01*
X160528288Y-67585699D01*
X160524012Y-67589294D01*
X160522089Y-67591217D01*
X160520157Y-67592989D01*
X160520078Y-67593032D01*
X160519965Y-67592908D01*
X160519425Y-67593384D01*
X160513706Y-67596470D01*
X160506639Y-67604115D01*
X160477104Y-67636066D01*
X160473674Y-67639632D01*
X160080987Y-68032319D01*
X160018675Y-68066345D01*
X159950558Y-68062251D01*
X159768449Y-67999012D01*
X159768446Y-67999011D01*
X159762778Y-67997043D01*
X159756845Y-67996183D01*
X159756842Y-67996182D01*
X159560140Y-67967662D01*
X159560137Y-67967662D01*
X159554200Y-67966801D01*
X159343667Y-67976545D01*
X159337843Y-67977949D01*
X159337840Y-67977949D01*
X159144607Y-68024518D01*
X159144605Y-68024519D01*
X159138774Y-68025924D01*
X159133316Y-68028406D01*
X159133312Y-68028407D01*
X159079912Y-68052687D01*
X158946916Y-68113157D01*
X158857485Y-68176595D01*
X158795075Y-68220866D01*
X158775014Y-68235096D01*
X158629272Y-68387340D01*
X158626021Y-68392375D01*
X158518204Y-68559355D01*
X158514948Y-68564397D01*
X158436166Y-68759878D01*
X158395771Y-68966729D01*
X158393684Y-68966321D01*
X158369066Y-69023554D01*
X158310205Y-69063252D01*
X158239226Y-69064827D01*
X158182940Y-69032268D01*
X158129307Y-68978635D01*
X158095281Y-68916323D01*
X158092972Y-68901509D01*
X158090077Y-68871169D01*
X158089507Y-68865194D01*
X158030177Y-68662958D01*
X157979415Y-68564397D01*
X157936422Y-68480921D01*
X157936420Y-68480918D01*
X157933676Y-68475590D01*
X157878570Y-68405437D01*
X157807192Y-68314568D01*
X157807188Y-68314564D01*
X157803486Y-68309851D01*
X157768510Y-68279500D01*
X157648835Y-68175650D01*
X157648830Y-68175646D01*
X157644304Y-68171719D01*
X157461874Y-68066181D01*
X157262778Y-67997043D01*
X157256845Y-67996183D01*
X157256842Y-67996182D01*
X157060140Y-67967662D01*
X157060137Y-67967662D01*
X157054200Y-67966801D01*
X156843667Y-67976545D01*
X156837843Y-67977949D01*
X156837840Y-67977949D01*
X156644607Y-68024518D01*
X156644605Y-68024519D01*
X156638774Y-68025924D01*
X156633316Y-68028406D01*
X156633312Y-68028407D01*
X156579912Y-68052687D01*
X156446916Y-68113157D01*
X156357485Y-68176595D01*
X156295075Y-68220866D01*
X156275014Y-68235096D01*
X156129272Y-68387340D01*
X156126021Y-68392375D01*
X156018204Y-68559355D01*
X156014948Y-68564397D01*
X155936166Y-68759878D01*
X155914432Y-68871171D01*
X155899702Y-68946602D01*
X155895771Y-68966729D01*
X155895500Y-68972270D01*
X155895500Y-69277659D01*
X155910493Y-69434806D01*
X155969823Y-69637042D01*
X155972573Y-69642381D01*
X156051960Y-69796520D01*
X156066324Y-69824410D01*
X156073994Y-69834174D01*
X156192808Y-69985432D01*
X156192812Y-69985436D01*
X156196514Y-69990149D01*
X156201044Y-69994080D01*
X156201045Y-69994081D01*
X156351165Y-70124350D01*
X156351170Y-70124354D01*
X156355696Y-70128281D01*
X156538126Y-70233819D01*
X156737222Y-70302957D01*
X156743155Y-70303817D01*
X156743158Y-70303818D01*
X156939860Y-70332338D01*
X156939863Y-70332338D01*
X156945800Y-70333199D01*
X157156333Y-70323455D01*
X157162157Y-70322051D01*
X157162160Y-70322051D01*
X157355393Y-70275482D01*
X157355395Y-70275481D01*
X157361226Y-70274076D01*
X157366684Y-70271594D01*
X157366688Y-70271593D01*
X157544414Y-70190785D01*
X157553084Y-70186843D01*
X157724986Y-70064904D01*
X157729128Y-70060577D01*
X157729134Y-70060572D01*
X157839983Y-69944777D01*
X157901538Y-69909400D01*
X157972447Y-69912919D01*
X158020096Y-69942812D01*
X158682689Y-70605405D01*
X158716715Y-70667717D01*
X158711650Y-70738532D01*
X158669103Y-70795368D01*
X158602583Y-70820179D01*
X158593594Y-70820500D01*
X150109384Y-70820500D01*
X150041263Y-70800498D01*
X150020289Y-70783595D01*
X149916405Y-70679711D01*
X149882379Y-70617399D01*
X149879500Y-70590616D01*
X149879500Y-70346891D01*
X149899502Y-70278770D01*
X149953349Y-70232190D01*
X150044414Y-70190785D01*
X150053084Y-70186843D01*
X150224986Y-70064904D01*
X150370728Y-69912660D01*
X150417045Y-69840928D01*
X150481800Y-69740640D01*
X150481801Y-69740637D01*
X150485052Y-69735603D01*
X150563834Y-69540122D01*
X150604229Y-69333271D01*
X150604500Y-69327730D01*
X150604500Y-69022341D01*
X150589507Y-68865194D01*
X150530177Y-68662958D01*
X150479415Y-68564397D01*
X150436422Y-68480921D01*
X150436420Y-68480918D01*
X150433676Y-68475590D01*
X150393082Y-68423912D01*
X150380468Y-68407853D01*
X150354118Y-68341927D01*
X150367593Y-68272221D01*
X150416615Y-68220866D01*
X150479554Y-68204020D01*
X151016299Y-68204020D01*
X151084420Y-68224022D01*
X151130913Y-68277678D01*
X151141017Y-68347952D01*
X151122151Y-68398367D01*
X151018203Y-68559355D01*
X151018201Y-68559359D01*
X151014948Y-68564397D01*
X150936166Y-68759878D01*
X150914432Y-68871171D01*
X150899702Y-68946602D01*
X150895771Y-68966729D01*
X150895500Y-68972270D01*
X150895500Y-69277659D01*
X150910493Y-69434806D01*
X150969823Y-69637042D01*
X150972573Y-69642381D01*
X151051960Y-69796520D01*
X151066324Y-69824410D01*
X151073994Y-69834174D01*
X151192808Y-69985432D01*
X151192812Y-69985436D01*
X151196514Y-69990149D01*
X151201044Y-69994080D01*
X151201045Y-69994081D01*
X151351165Y-70124350D01*
X151351170Y-70124354D01*
X151355696Y-70128281D01*
X151538126Y-70233819D01*
X151737222Y-70302957D01*
X151743155Y-70303817D01*
X151743158Y-70303818D01*
X151939860Y-70332338D01*
X151939863Y-70332338D01*
X151945800Y-70333199D01*
X152156333Y-70323455D01*
X152162157Y-70322051D01*
X152162160Y-70322051D01*
X152355393Y-70275482D01*
X152355395Y-70275481D01*
X152361226Y-70274076D01*
X152366684Y-70271594D01*
X152366688Y-70271593D01*
X152544414Y-70190785D01*
X152553084Y-70186843D01*
X152724986Y-70064904D01*
X152870728Y-69912660D01*
X152917045Y-69840928D01*
X152981800Y-69740640D01*
X152981801Y-69740637D01*
X152985052Y-69735603D01*
X153063834Y-69540122D01*
X153104229Y-69333271D01*
X153104500Y-69327730D01*
X153104500Y-69022341D01*
X153089507Y-68865194D01*
X153030177Y-68662958D01*
X152933676Y-68475590D01*
X152931471Y-68472783D01*
X152911733Y-68405437D01*
X152931769Y-68337327D01*
X152985448Y-68290860D01*
X153037733Y-68279500D01*
X153467563Y-68279500D01*
X153535684Y-68299502D01*
X153582177Y-68353158D01*
X153592281Y-68423432D01*
X153573416Y-68473847D01*
X153550075Y-68509995D01*
X153518204Y-68559355D01*
X153514948Y-68564397D01*
X153436166Y-68759878D01*
X153414432Y-68871171D01*
X153399702Y-68946602D01*
X153395771Y-68966729D01*
X153395500Y-68972270D01*
X153395500Y-69277659D01*
X153410493Y-69434806D01*
X153469823Y-69637042D01*
X153472573Y-69642381D01*
X153551960Y-69796520D01*
X153566324Y-69824410D01*
X153573994Y-69834174D01*
X153692808Y-69985432D01*
X153692812Y-69985436D01*
X153696514Y-69990149D01*
X153701044Y-69994080D01*
X153701045Y-69994081D01*
X153851165Y-70124350D01*
X153851170Y-70124354D01*
X153855696Y-70128281D01*
X154038126Y-70233819D01*
X154237222Y-70302957D01*
X154243155Y-70303817D01*
X154243158Y-70303818D01*
X154439860Y-70332338D01*
X154439863Y-70332338D01*
X154445800Y-70333199D01*
X154656333Y-70323455D01*
X154662157Y-70322051D01*
X154662160Y-70322051D01*
X154855393Y-70275482D01*
X154855395Y-70275481D01*
X154861226Y-70274076D01*
X154866684Y-70271594D01*
X154866688Y-70271593D01*
X155044414Y-70190785D01*
X155053084Y-70186843D01*
X155224986Y-70064904D01*
X155370728Y-69912660D01*
X155417045Y-69840928D01*
X155481800Y-69740640D01*
X155481801Y-69740637D01*
X155485052Y-69735603D01*
X155563834Y-69540122D01*
X155604229Y-69333271D01*
X155604500Y-69327730D01*
X155604500Y-69022341D01*
X155589507Y-68865194D01*
X155530177Y-68662958D01*
X155479415Y-68564397D01*
X155438976Y-68485880D01*
X155425567Y-68416161D01*
X155451980Y-68350261D01*
X155461897Y-68339093D01*
X157034096Y-66766894D01*
X157096408Y-66732868D01*
X157123191Y-66729989D01*
X160502341Y-66729989D01*
X160526289Y-66732538D01*
X160527954Y-66732617D01*
X160538137Y-66734809D01*
X160548478Y-66733585D01*
X160571484Y-66730862D01*
X160577415Y-66730512D01*
X160577407Y-66730417D01*
X160582585Y-66729989D01*
X160587785Y-66729989D01*
X160592914Y-66729135D01*
X160592917Y-66729135D01*
X160606826Y-66726820D01*
X160612704Y-66725983D01*
X160653262Y-66721183D01*
X160653263Y-66721183D01*
X160663602Y-66719959D01*
X160671854Y-66715996D01*
X160680887Y-66714493D01*
X160690056Y-66709546D01*
X160690058Y-66709545D01*
X160725993Y-66690155D01*
X160731286Y-66687458D01*
X160770343Y-66668704D01*
X160770347Y-66668701D01*
X160777493Y-66665270D01*
X160781769Y-66661675D01*
X160783692Y-66659752D01*
X160785624Y-66657980D01*
X160785703Y-66657937D01*
X160785816Y-66658061D01*
X160786356Y-66657585D01*
X160792075Y-66654499D01*
X160828678Y-66614902D01*
X160832107Y-66611337D01*
X160860539Y-66582905D01*
X160922851Y-66548879D01*
X160949634Y-66546000D01*
X161534750Y-66546000D01*
X161602871Y-66566002D01*
G37*
%TD.AperFunction*%
%TA.AperFunction,Conductor*%
G36*
X160490871Y-54524002D02*
G01*
X160537364Y-54577658D01*
X160546974Y-54621838D01*
X160553225Y-54643124D01*
X160554615Y-54644329D01*
X160562298Y-54646000D01*
X162185210Y-54646000D01*
X162253331Y-54666002D01*
X162299824Y-54719658D01*
X162306106Y-54736503D01*
X162309224Y-54747124D01*
X162310615Y-54748329D01*
X162318298Y-54750000D01*
X162430750Y-54750000D01*
X162498871Y-54770002D01*
X162545364Y-54823658D01*
X162556750Y-54876000D01*
X162556750Y-55024000D01*
X162536748Y-55092121D01*
X162483092Y-55138614D01*
X162430750Y-55150000D01*
X162318947Y-55150000D01*
X162291127Y-55154000D01*
X160566866Y-55154000D01*
X160551627Y-55158475D01*
X160550422Y-55159865D01*
X160548751Y-55167548D01*
X160548751Y-55294669D01*
X160549121Y-55301490D01*
X160554645Y-55352352D01*
X160558271Y-55367604D01*
X160603426Y-55488054D01*
X160611964Y-55503649D01*
X160688465Y-55605724D01*
X160701026Y-55618285D01*
X160761396Y-55663530D01*
X160803911Y-55720389D01*
X160809410Y-55788937D01*
X160802250Y-55824933D01*
X160802251Y-56275066D01*
X160817016Y-56349301D01*
X160823911Y-56359621D01*
X160823912Y-56359622D01*
X160837527Y-56379998D01*
X160858742Y-56447751D01*
X160837527Y-56520002D01*
X160823911Y-56540379D01*
X160823910Y-56540382D01*
X160817016Y-56550699D01*
X160802250Y-56624933D01*
X160802251Y-56844769D01*
X160802251Y-56942824D01*
X160782249Y-57010944D01*
X160751816Y-57043650D01*
X160701026Y-57081715D01*
X160688465Y-57094276D01*
X160611964Y-57196351D01*
X160603426Y-57211946D01*
X160558272Y-57332394D01*
X160554645Y-57347649D01*
X160549119Y-57398514D01*
X160548750Y-57405328D01*
X160548750Y-57431885D01*
X160553225Y-57447124D01*
X160554615Y-57448329D01*
X160562298Y-57450000D01*
X161530750Y-57450000D01*
X161598871Y-57470002D01*
X161645364Y-57523658D01*
X161656750Y-57576000D01*
X161656750Y-57724000D01*
X161636748Y-57792121D01*
X161583092Y-57838614D01*
X161530750Y-57850000D01*
X160566866Y-57850000D01*
X160551627Y-57854475D01*
X160550422Y-57855865D01*
X160548751Y-57863548D01*
X160548751Y-57894669D01*
X160549121Y-57901490D01*
X160554645Y-57952352D01*
X160558271Y-57967604D01*
X160603426Y-58088054D01*
X160611964Y-58103649D01*
X160688465Y-58205724D01*
X160701022Y-58218281D01*
X160751815Y-58256348D01*
X160794330Y-58313208D01*
X160802250Y-58357175D01*
X160802251Y-58522000D01*
X160802251Y-58675066D01*
X160806150Y-58694669D01*
X160809720Y-58712616D01*
X160817016Y-58749301D01*
X160823911Y-58759621D01*
X160823912Y-58759622D01*
X160837527Y-58779998D01*
X160858742Y-58847751D01*
X160837527Y-58920002D01*
X160823911Y-58940379D01*
X160823910Y-58940382D01*
X160817016Y-58950699D01*
X160802250Y-59024933D01*
X160802251Y-59475066D01*
X160806150Y-59494669D01*
X160811567Y-59521903D01*
X160817016Y-59549301D01*
X160823911Y-59559621D01*
X160823912Y-59559622D01*
X160837527Y-59579998D01*
X160858742Y-59647751D01*
X160837527Y-59720002D01*
X160823911Y-59740379D01*
X160823910Y-59740382D01*
X160817016Y-59750699D01*
X160802250Y-59824933D01*
X160802251Y-60275066D01*
X160817016Y-60349301D01*
X160823911Y-60359621D01*
X160823912Y-60359622D01*
X160837527Y-60379998D01*
X160858742Y-60447751D01*
X160837527Y-60520002D01*
X160823911Y-60540379D01*
X160823910Y-60540382D01*
X160817016Y-60550699D01*
X160802250Y-60624933D01*
X160802251Y-61075066D01*
X160817016Y-61149301D01*
X160823911Y-61159621D01*
X160823912Y-61159622D01*
X160837527Y-61179998D01*
X160858742Y-61247751D01*
X160837527Y-61320002D01*
X160823911Y-61340379D01*
X160823910Y-61340382D01*
X160817016Y-61350699D01*
X160802250Y-61424933D01*
X160802251Y-61875066D01*
X160806150Y-61894669D01*
X160811882Y-61923486D01*
X160817016Y-61949301D01*
X160823911Y-61959621D01*
X160823912Y-61959622D01*
X160837527Y-61979998D01*
X160858742Y-62047751D01*
X160837527Y-62120002D01*
X160823911Y-62140379D01*
X160823910Y-62140382D01*
X160817016Y-62150699D01*
X160802250Y-62224933D01*
X160802251Y-62675066D01*
X160817016Y-62749301D01*
X160823911Y-62759621D01*
X160823912Y-62759622D01*
X160837527Y-62779998D01*
X160858742Y-62847751D01*
X160837527Y-62920002D01*
X160823911Y-62940379D01*
X160823910Y-62940382D01*
X160817016Y-62950699D01*
X160802250Y-63024933D01*
X160802251Y-63475066D01*
X160806150Y-63494669D01*
X160814141Y-63534844D01*
X160817016Y-63549301D01*
X160823911Y-63559621D01*
X160823912Y-63559622D01*
X160837527Y-63579998D01*
X160858742Y-63647751D01*
X160837527Y-63720002D01*
X160823911Y-63740379D01*
X160823910Y-63740382D01*
X160817016Y-63750699D01*
X160811457Y-63778649D01*
X160808317Y-63794434D01*
X160775411Y-63857344D01*
X160713716Y-63892476D01*
X160642821Y-63888677D01*
X160595643Y-63858949D01*
X160506478Y-63769784D01*
X160491336Y-63751036D01*
X160490221Y-63749811D01*
X160484571Y-63741060D01*
X160476393Y-63734613D01*
X160476391Y-63734611D01*
X160458200Y-63720271D01*
X160453759Y-63716325D01*
X160453697Y-63716398D01*
X160449733Y-63713039D01*
X160446056Y-63709362D01*
X160430308Y-63698108D01*
X160425638Y-63694602D01*
X160385353Y-63662844D01*
X160376719Y-63659812D01*
X160369266Y-63654486D01*
X160320150Y-63639797D01*
X160314508Y-63637964D01*
X160273633Y-63623610D01*
X160273632Y-63623610D01*
X160266149Y-63620982D01*
X160260584Y-63620500D01*
X160257876Y-63620500D01*
X160255242Y-63620386D01*
X160255144Y-63620357D01*
X160255151Y-63620193D01*
X160254447Y-63620149D01*
X160248222Y-63618287D01*
X160194365Y-63620403D01*
X160189418Y-63620500D01*
X159059000Y-63620500D01*
X158990879Y-63600498D01*
X158944386Y-63546842D01*
X158933000Y-63494500D01*
X158933000Y-63472115D01*
X158928525Y-63456876D01*
X158927135Y-63455671D01*
X158919452Y-63454000D01*
X157847000Y-63454000D01*
X157778879Y-63433998D01*
X157732386Y-63380342D01*
X157721000Y-63328000D01*
X157721000Y-63072000D01*
X157741002Y-63003879D01*
X157794658Y-62957386D01*
X157847000Y-62946000D01*
X158914885Y-62946000D01*
X158930124Y-62941525D01*
X158931329Y-62940135D01*
X158933000Y-62932452D01*
X158933000Y-62904562D01*
X158932663Y-62898047D01*
X158923106Y-62805943D01*
X158920212Y-62792544D01*
X158870616Y-62643884D01*
X158868984Y-62640400D01*
X158868583Y-62637790D01*
X158868301Y-62636945D01*
X158868446Y-62636897D01*
X158858201Y-62570227D01*
X158875826Y-62520836D01*
X158963275Y-62378968D01*
X158963276Y-62378966D01*
X158967115Y-62372738D01*
X159005936Y-62255695D01*
X159020632Y-62211389D01*
X159020632Y-62211387D01*
X159022797Y-62204861D01*
X159033500Y-62100400D01*
X159033500Y-61499600D01*
X159033163Y-61496350D01*
X159023238Y-61400692D01*
X159023237Y-61400688D01*
X159022526Y-61393834D01*
X159008566Y-61351989D01*
X158968868Y-61233002D01*
X158966550Y-61226054D01*
X158873478Y-61075652D01*
X158748303Y-60950695D01*
X158741645Y-60946591D01*
X158603968Y-60861725D01*
X158603966Y-60861724D01*
X158597738Y-60857885D01*
X158472516Y-60816351D01*
X158444680Y-60807118D01*
X158386320Y-60766687D01*
X158359083Y-60701123D01*
X158371616Y-60631242D01*
X158419941Y-60579230D01*
X158442599Y-60568642D01*
X158442799Y-60568572D01*
X158488184Y-60552634D01*
X158495754Y-60547042D01*
X158495757Y-60547041D01*
X158589579Y-60477742D01*
X158597150Y-60472150D01*
X158614137Y-60449151D01*
X158672041Y-60370757D01*
X158672042Y-60370754D01*
X158677634Y-60363184D01*
X158722519Y-60235369D01*
X158725500Y-60203834D01*
X158725500Y-59596166D01*
X158722519Y-59564631D01*
X158692539Y-59479260D01*
X158688841Y-59408360D01*
X158706658Y-59367509D01*
X158714979Y-59355057D01*
X158733158Y-59327850D01*
X158745339Y-59309621D01*
X158745340Y-59309618D01*
X158752234Y-59299301D01*
X158767000Y-59225067D01*
X158766999Y-56321885D01*
X158787001Y-56253764D01*
X158803904Y-56232790D01*
X159246178Y-55790516D01*
X159308490Y-55756490D01*
X159337252Y-55753627D01*
X159461318Y-55755576D01*
X159461321Y-55755576D01*
X159468916Y-55755695D01*
X159623332Y-55720329D01*
X159706580Y-55678460D01*
X159758072Y-55652563D01*
X159758075Y-55652561D01*
X159764855Y-55649151D01*
X159770626Y-55644222D01*
X159770629Y-55644220D01*
X159879536Y-55551204D01*
X159879536Y-55551203D01*
X159885314Y-55546269D01*
X159977755Y-55417624D01*
X160036842Y-55270641D01*
X160045514Y-55209703D01*
X160058581Y-55117891D01*
X160058581Y-55117888D01*
X160059162Y-55113807D01*
X160059307Y-55100000D01*
X160040276Y-54942733D01*
X159984280Y-54794546D01*
X159920240Y-54701367D01*
X159898140Y-54633898D01*
X159916026Y-54565191D01*
X159968217Y-54517060D01*
X160024080Y-54504000D01*
X160422750Y-54504000D01*
X160490871Y-54524002D01*
G37*
%TD.AperFunction*%
%TA.AperFunction,Conductor*%
G36*
X148463237Y-55518103D02*
G01*
X148503199Y-55576785D01*
X148505091Y-55647757D01*
X148502174Y-55657242D01*
X148473507Y-55738873D01*
X148472785Y-55746515D01*
X148472784Y-55746518D01*
X148472389Y-55750699D01*
X148470500Y-55770685D01*
X148470501Y-56429314D01*
X148470780Y-56432262D01*
X148470780Y-56432271D01*
X148472569Y-56451205D01*
X148473507Y-56461127D01*
X148518791Y-56590076D01*
X148599990Y-56700010D01*
X148607561Y-56705602D01*
X148607564Y-56705605D01*
X148667942Y-56750201D01*
X148710853Y-56806762D01*
X148716373Y-56877544D01*
X148682749Y-56940073D01*
X148620657Y-56974498D01*
X148606092Y-56976879D01*
X148605941Y-56976895D01*
X148592544Y-56979788D01*
X148440105Y-57030645D01*
X148369155Y-57033229D01*
X148360561Y-57030714D01*
X148206186Y-56979509D01*
X148192810Y-56976642D01*
X148101903Y-56967328D01*
X148095486Y-56967000D01*
X148021203Y-56967000D01*
X147953082Y-56946998D01*
X147906589Y-56893342D01*
X147896485Y-56823068D01*
X147925979Y-56758488D01*
X147946344Y-56739649D01*
X147992436Y-56705605D01*
X147992439Y-56705602D01*
X148000010Y-56700010D01*
X148081209Y-56590076D01*
X148126493Y-56461127D01*
X148127758Y-56447751D01*
X148129106Y-56433484D01*
X148129500Y-56429315D01*
X148129499Y-55774003D01*
X148149501Y-55705882D01*
X148166404Y-55684908D01*
X148230869Y-55620443D01*
X148240179Y-55608571D01*
X148275516Y-55550222D01*
X148327914Y-55502315D01*
X148397893Y-55490342D01*
X148463237Y-55518103D01*
G37*
%TD.AperFunction*%
%TD*%
M02*
