%TF.GenerationSoftware,KiCad,Pcbnew,(6.0.2-0)*%
%TF.CreationDate,2022-03-04T10:49:06+00:00*%
%TF.ProjectId,Generic5,47656e65-7269-4633-952e-6b696361645f,1*%
%TF.SameCoordinates,Original*%
%TF.FileFunction,Legend,Bot*%
%TF.FilePolarity,Positive*%
%FSLAX46Y46*%
G04 Gerber Fmt 4.6, Leading zero omitted, Abs format (unit mm)*
G04 Created by KiCad (PCBNEW (6.0.2-0)) date 2022-03-04 10:49:06*
%MOMM*%
%LPD*%
G01*
G04 APERTURE LIST*
%ADD10C,0.150000*%
%ADD11C,0.120000*%
G04 APERTURE END LIST*
D10*
X157857142Y-29285714D02*
X157666666Y-29952380D01*
X157476190Y-29476190D01*
X157285714Y-29952380D01*
X157095238Y-29285714D01*
X156809523Y-29285714D02*
X156619047Y-29952380D01*
X156428571Y-29476190D01*
X156238095Y-29952380D01*
X156047619Y-29285714D01*
X155761904Y-29285714D02*
X155571428Y-29952380D01*
X155380952Y-29476190D01*
X155190476Y-29952380D01*
X155000000Y-29285714D01*
X154619047Y-29857142D02*
X154571428Y-29904761D01*
X154619047Y-29952380D01*
X154666666Y-29904761D01*
X154619047Y-29857142D01*
X154619047Y-29952380D01*
X154142857Y-29952380D02*
X154142857Y-29285714D01*
X154142857Y-29380952D02*
X154095238Y-29333333D01*
X154000000Y-29285714D01*
X153857142Y-29285714D01*
X153761904Y-29333333D01*
X153714285Y-29428571D01*
X153714285Y-29952380D01*
X153714285Y-29428571D02*
X153666666Y-29333333D01*
X153571428Y-29285714D01*
X153428571Y-29285714D01*
X153333333Y-29333333D01*
X153285714Y-29428571D01*
X153285714Y-29952380D01*
X152428571Y-29904761D02*
X152523809Y-29952380D01*
X152714285Y-29952380D01*
X152809523Y-29904761D01*
X152857142Y-29809523D01*
X152857142Y-29428571D01*
X152809523Y-29333333D01*
X152714285Y-29285714D01*
X152523809Y-29285714D01*
X152428571Y-29333333D01*
X152380952Y-29428571D01*
X152380952Y-29523809D01*
X152857142Y-29619047D01*
X151952380Y-29857142D02*
X151904761Y-29904761D01*
X151952380Y-29952380D01*
X152000000Y-29904761D01*
X151952380Y-29857142D01*
X151952380Y-29952380D01*
X151047619Y-29285714D02*
X151047619Y-29952380D01*
X151476190Y-29285714D02*
X151476190Y-29809523D01*
X151428571Y-29904761D01*
X151333333Y-29952380D01*
X151190476Y-29952380D01*
X151095238Y-29904761D01*
X151047619Y-29857142D01*
X150571428Y-29952380D02*
X150571428Y-28952380D01*
X150476190Y-29571428D02*
X150190476Y-29952380D01*
X150190476Y-29285714D02*
X150571428Y-29666666D01*
D11*
%TO.C,R8*%
X155250000Y-40050000D02*
X155250000Y-39450000D01*
X154250000Y-40050000D02*
X154250000Y-39450000D01*
%TO.C,R7*%
X154000000Y-40050000D02*
X154000000Y-39450000D01*
X153000000Y-40050000D02*
X153000000Y-39450000D01*
%TO.C,U3*%
X156175000Y-50850000D02*
X156175000Y-47750000D01*
X153125000Y-47575000D02*
X151525000Y-47575000D01*
%TO.C,R11*%
X149750000Y-40050000D02*
X149750000Y-39450000D01*
X148750000Y-40050000D02*
X148750000Y-39450000D01*
%TO.C,R10*%
X158500000Y-39450000D02*
X158500000Y-40050000D01*
X157500000Y-39450000D02*
X157500000Y-40050000D01*
%TO.C,R4*%
X152700000Y-22250000D02*
X153300000Y-22250000D01*
X152700000Y-21250000D02*
X153300000Y-21250000D01*
%TO.C,C1*%
X158800000Y-36500000D02*
X158200000Y-36500000D01*
X158800000Y-35500000D02*
X158200000Y-35500000D01*
%TO.C,R1*%
X158550000Y-32250000D02*
X157950000Y-32250000D01*
X158550000Y-33250000D02*
X157950000Y-33250000D01*
%TO.C,R9*%
X159750000Y-39450000D02*
X159750000Y-40050000D01*
X158750000Y-39450000D02*
X158750000Y-40050000D01*
%TO.C,R3*%
X152700000Y-23500000D02*
X153300000Y-23500000D01*
X152700000Y-22500000D02*
X153300000Y-22500000D01*
%TO.C,R12*%
X149750000Y-37225000D02*
X149750000Y-36625000D01*
X148750000Y-37225000D02*
X148750000Y-36625000D01*
%TO.C,R5*%
X150000000Y-40050000D02*
X150000000Y-39450000D01*
X151000000Y-40050000D02*
X151000000Y-39450000D01*
%TO.C,R2*%
X152700000Y-24750000D02*
X153300000Y-24750000D01*
X152700000Y-23750000D02*
X153300000Y-23750000D01*
%TO.C,U2*%
X155012652Y-32028662D02*
X154500000Y-31516009D01*
X153987348Y-36971338D02*
X154500000Y-37483991D01*
X152028662Y-35012652D02*
X151516009Y-34500000D01*
X154500000Y-37483991D02*
X155012652Y-36971338D01*
X154500000Y-31516009D02*
X153987348Y-32028662D01*
X151516009Y-34500000D02*
X152028662Y-33987348D01*
X157328426Y-34500000D02*
G75*
G03*
X157328426Y-34500000I-282842J0D01*
G01*
%TO.C,R6*%
X156250000Y-39450000D02*
X156250000Y-40050000D01*
X157250000Y-39450000D02*
X157250000Y-40050000D01*
%TO.C,D1*%
X150250000Y-21650000D02*
X150250000Y-22750000D01*
X150250000Y-22750000D02*
X149250000Y-22750000D01*
%TD*%
M02*
