M48
; DRILL file {KiCad (6.0.0-0)} date Thursday, 30 December 2021 at 08:15:40
; FORMAT={-:-/ absolute / inch / decimal}
; #@! TF.CreationDate,2021-12-30T08:15:40+00:00
; #@! TF.GenerationSoftware,Kicad,Pcbnew,(6.0.0-0)
; #@! TF.FileFunction,Plated,1,2,PTH
FMAT,2
INCH
; #@! TA.AperFunction,Plated,PTH,ComponentDrill
T1C0.0098
; #@! TA.AperFunction,Plated,PTH,ViaDrill
T2C0.0157
; #@! TA.AperFunction,Plated,PTH,ComponentDrill
T3C0.0236
; #@! TA.AperFunction,Plated,PTH,ComponentDrill
T4C0.0394
; #@! TA.AperFunction,Plated,PTH,ComponentDrill
T5C0.0492
%
G90
G05
T1
X4.8307Y-4.437
T2
X4.7165Y-4.4852
X4.718Y-4.3282
X4.7618Y-4.023
X4.7619Y-3.9806
X4.7621Y-4.0633
X4.7681Y-4.5139
X4.7682Y-4.3667
X4.7717Y-4.3248
X4.7737Y-4.9578
X4.7843Y-4.889
X4.815Y-4.1181
X4.8189Y-3.9252
X4.8208Y-3.9671
X4.8268Y-4.2521
X4.8425Y-4.0827
X4.8652Y-4.2431
X4.8931Y-4.5399
X4.9023Y-4.3663
X4.9406Y-4.3556
X4.9535Y-4.5117
X4.9954Y-4.5117
X4.9961Y-3.936
X5.003Y-4.3522
X5.003Y-4.4168
X5.035Y-4.0988
X5.1693Y-4.5591
X5.2126Y-4.5593
X5.2638Y-4.6654
T3
X5.136Y-4.2602
X5.136Y-4.4878
T4
X4.738Y-4.7441
X4.838Y-4.7441
X4.938Y-4.7441
X5.038Y-4.7441
X5.138Y-4.7441
X5.238Y-4.7441
X5.2756Y-4.8528
X5.2756Y-4.9528
X5.2809Y-4.2039
X5.2809Y-4.5441
T5
X5.1167Y-4.2039
X5.1167Y-4.5441
T0
M30
