%TF.GenerationSoftware,KiCad,Pcbnew,(6.0.2-0)*%
%TF.CreationDate,2022-05-01T12:34:24+01:00*%
%TF.ProjectId,Generic6,47656e65-7269-4633-962e-6b696361645f,1*%
%TF.SameCoordinates,Original*%
%TF.FileFunction,Copper,L2,Bot*%
%TF.FilePolarity,Positive*%
%FSLAX46Y46*%
G04 Gerber Fmt 4.6, Leading zero omitted, Abs format (unit mm)*
G04 Created by KiCad (PCBNEW (6.0.2-0)) date 2022-05-01 12:34:24*
%MOMM*%
%LPD*%
G01*
G04 APERTURE LIST*
G04 Aperture macros list*
%AMRoundRect*
0 Rectangle with rounded corners*
0 $1 Rounding radius*
0 $2 $3 $4 $5 $6 $7 $8 $9 X,Y pos of 4 corners*
0 Add a 4 corners polygon primitive as box body*
4,1,4,$2,$3,$4,$5,$6,$7,$8,$9,$2,$3,0*
0 Add four circle primitives for the rounded corners*
1,1,$1+$1,$2,$3*
1,1,$1+$1,$4,$5*
1,1,$1+$1,$6,$7*
1,1,$1+$1,$8,$9*
0 Add four rect primitives between the rounded corners*
20,1,$1+$1,$2,$3,$4,$5,0*
20,1,$1+$1,$4,$5,$6,$7,0*
20,1,$1+$1,$6,$7,$8,$9,0*
20,1,$1+$1,$8,$9,$2,$3,0*%
%AMFreePoly0*
4,1,43,1.487500,0.558253,1.533253,0.512500,1.550000,0.450000,1.535584,0.322050,1.493057,0.200517,1.424553,0.091493,1.333507,0.000447,1.224483,-0.068057,1.102950,-0.110584,0.975000,-0.125000,-0.975000,-0.125000,-1.102950,-0.110584,-1.224483,-0.068057,-1.333507,0.000447,-1.424553,0.091493,-1.493057,0.200517,-1.535584,0.322050,-1.550000,0.450000,-1.533253,0.512500,-1.487500,0.558253,
-1.425000,0.575000,-1.362500,0.558253,-1.316747,0.512500,-1.300000,0.450000,-1.302546,0.440498,-1.287946,0.348318,-1.241208,0.256589,-1.168411,0.183792,-1.076682,0.137054,-0.984502,0.122454,-0.975000,0.125000,0.975000,0.125000,0.984502,0.122454,1.076682,0.137054,1.168411,0.183792,1.241208,0.256589,1.287946,0.348318,1.302546,0.440498,1.300000,0.450000,1.316747,0.512500,
1.362500,0.558253,1.425000,0.575000,1.487500,0.558253,1.487500,0.558253,$1*%
%AMFreePoly1*
4,1,24,1.427950,0.110584,1.549483,0.068057,1.658507,-0.000447,1.749553,-0.091493,1.818057,-0.200517,1.860584,-0.322050,1.875000,-0.450000,1.858253,-0.512500,1.812500,-0.558253,1.750000,-0.575000,1.687500,-0.558253,1.641747,-0.512500,1.625000,-0.450000,1.627546,-0.440498,1.612946,-0.348318,1.566208,-0.256589,1.493411,-0.183792,1.401682,-0.137054,1.309502,-0.122454,1.300000,-0.125000,
-1.300000,-0.125000,-1.300000,0.125000,1.300000,0.125000,1.427950,0.110584,1.427950,0.110584,$1*%
%AMFreePoly2*
4,1,37,0.195545,0.234610,0.386273,0.188820,0.567490,0.113758,0.734733,0.011271,0.883885,-0.116117,1.011272,-0.265269,1.113759,-0.432512,1.188821,-0.613729,1.234611,-0.804457,1.250000,-1.000000,1.230970,-1.095671,1.176777,-1.176777,1.095671,-1.230970,1.000000,-1.250000,0.904329,-1.230970,0.823223,-1.176777,0.769030,-1.095671,0.750000,-1.000000,0.752427,-0.987798,0.739148,-0.852974,
0.696263,-0.711599,0.626620,-0.581306,0.532897,-0.467104,0.418695,-0.373381,0.288403,-0.303738,0.147027,-0.260852,0.012204,-0.247573,0.000002,-0.250000,-0.095669,-0.230970,-0.176775,-0.176777,-0.230968,-0.095671,-0.249998,0.000000,-0.230968,0.095671,-0.176775,0.176777,-0.095669,0.230970,0.000002,0.250000,0.195545,0.234610,0.195545,0.234610,$1*%
%AMFreePoly3*
4,1,72,6.695652,0.230924,6.776741,0.176741,6.830924,0.095652,6.849950,0.000000,6.830924,-0.095652,6.776741,-0.176741,6.695652,-0.230924,6.600000,-0.249950,5.112450,-0.249950,5.112450,-1.380300,5.176741,-1.423259,5.230924,-1.504348,5.249950,-1.600000,5.249950,-6.400000,5.236501,-6.536553,5.196669,-6.667859,5.131987,-6.788871,5.044939,-6.894939,4.938871,-6.981987,4.817859,-7.046669,
4.686553,-7.086501,4.550000,-7.099950,1.550000,-7.099950,1.413447,-7.086501,1.282141,-7.046669,1.161129,-6.981987,1.055061,-6.894939,0.968013,-6.788871,0.903331,-6.667859,0.863499,-6.536553,0.850050,-6.400000,0.850050,-5.900000,0.869076,-5.804348,0.923259,-5.723259,1.004348,-5.669076,1.100000,-5.650050,1.195652,-5.669076,1.276741,-5.723259,1.330924,-5.804348,1.349950,-5.900000,
1.349950,-6.400000,1.348562,-6.406980,1.357369,-6.462590,1.386138,-6.519052,1.430948,-6.563862,1.487410,-6.592631,1.543020,-6.601438,1.550000,-6.600050,4.550000,-6.600050,4.556980,-6.601438,4.612590,-6.592631,4.669052,-6.563862,4.713862,-6.519052,4.742631,-6.462590,4.751438,-6.406980,4.750050,-6.400000,4.750050,-1.819700,4.685759,-1.776741,4.631576,-1.695652,4.612550,-1.600000,
4.612550,-0.249950,0.000000,-0.249950,-0.095652,-0.230924,-0.176741,-0.176741,-0.230924,-0.095652,-0.249950,0.000000,-0.230924,0.095652,-0.176741,0.176741,-0.095652,0.230924,0.000000,0.249950,6.600000,0.249950,6.695652,0.230924,6.695652,0.230924,$1*%
G04 Aperture macros list end*
%TA.AperFunction,ComponentPad*%
%ADD10R,1.700000X1.700000*%
%TD*%
%TA.AperFunction,ComponentPad*%
%ADD11O,1.700000X1.700000*%
%TD*%
%TA.AperFunction,SMDPad,CuDef*%
%ADD12RoundRect,0.200000X-0.275000X0.200000X-0.275000X-0.200000X0.275000X-0.200000X0.275000X0.200000X0*%
%TD*%
%TA.AperFunction,SMDPad,CuDef*%
%ADD13RoundRect,0.200000X0.275000X-0.200000X0.275000X0.200000X-0.275000X0.200000X-0.275000X-0.200000X0*%
%TD*%
%TA.AperFunction,SMDPad,CuDef*%
%ADD14RoundRect,0.200000X-0.200000X-0.275000X0.200000X-0.275000X0.200000X0.275000X-0.200000X0.275000X0*%
%TD*%
%TA.AperFunction,SMDPad,CuDef*%
%ADD15R,0.850000X0.500000*%
%TD*%
%TA.AperFunction,SMDPad,CuDef*%
%ADD16R,0.500000X2.000000*%
%TD*%
%TA.AperFunction,SMDPad,CuDef*%
%ADD17R,0.600000X1.100000*%
%TD*%
%TA.AperFunction,SMDPad,CuDef*%
%ADD18R,1.425000X3.700000*%
%TD*%
%TA.AperFunction,SMDPad,CuDef*%
%ADD19FreePoly0,180.000000*%
%TD*%
%TA.AperFunction,SMDPad,CuDef*%
%ADD20RoundRect,0.249375X0.463125X0.625625X-0.463125X0.625625X-0.463125X-0.625625X0.463125X-0.625625X0*%
%TD*%
%TA.AperFunction,SMDPad,CuDef*%
%ADD21R,2.000000X0.500000*%
%TD*%
%TA.AperFunction,SMDPad,CuDef*%
%ADD22RoundRect,0.225000X0.250000X-0.225000X0.250000X0.225000X-0.250000X0.225000X-0.250000X-0.225000X0*%
%TD*%
%TA.AperFunction,SMDPad,CuDef*%
%ADD23FreePoly1,180.000000*%
%TD*%
%TA.AperFunction,SMDPad,CuDef*%
%ADD24RoundRect,0.250000X-0.475000X0.250000X-0.475000X-0.250000X0.475000X-0.250000X0.475000X0.250000X0*%
%TD*%
%TA.AperFunction,SMDPad,CuDef*%
%ADD25FreePoly2,180.000000*%
%TD*%
%TA.AperFunction,SMDPad,CuDef*%
%ADD26FreePoly3,180.000000*%
%TD*%
%TA.AperFunction,SMDPad,CuDef*%
%ADD27R,0.500000X4.000000*%
%TD*%
%TA.AperFunction,SMDPad,CuDef*%
%ADD28RoundRect,0.200000X0.200000X0.275000X-0.200000X0.275000X-0.200000X-0.275000X0.200000X-0.275000X0*%
%TD*%
%TA.AperFunction,ViaPad*%
%ADD29C,0.800000*%
%TD*%
%TA.AperFunction,Conductor*%
%ADD30C,0.250000*%
%TD*%
G04 APERTURE END LIST*
D10*
%TO.P,J3,1,Pin_1*%
%TO.N,IO1*%
X107800000Y-50900000D03*
D11*
%TO.P,J3,2,Pin_2*%
%TO.N,IO2*%
X107800000Y-48360000D03*
%TO.P,J3,3,Pin_3*%
%TO.N,IO3*%
X107800000Y-45820000D03*
%TO.P,J3,4,Pin_4*%
%TO.N,IO4*%
X107800000Y-43280000D03*
%TO.P,J3,5,Pin_5*%
%TO.N,IO5*%
X107800000Y-40740000D03*
%TD*%
D10*
%TO.P,J2,1,Pin_1*%
%TO.N,IO6*%
X92200000Y-40725000D03*
D11*
%TO.P,J2,2,Pin_2*%
%TO.N,IO7*%
X92200000Y-43265000D03*
%TO.P,J2,3,Pin_3*%
%TO.N,IO8*%
X92200000Y-45805000D03*
%TO.P,J2,4,Pin_4*%
%TO.N,IO9*%
X92200000Y-48345000D03*
%TO.P,J2,5,Pin_5*%
%TO.N,IO10*%
X92200000Y-50885000D03*
%TD*%
D12*
%TO.P,R2,1*%
%TO.N,Net-(D1-Pad3)*%
X104550000Y-43900000D03*
%TO.P,R2,2*%
%TO.N,G*%
X104550000Y-45550000D03*
%TD*%
D13*
%TO.P,C1,1*%
%TO.N,GND*%
X98400000Y-48775000D03*
%TO.P,C1,2*%
%TO.N,EN*%
X98400000Y-47225000D03*
%TD*%
D14*
%TO.P,R6,1*%
%TO.N,GND*%
X101700000Y-39500000D03*
%TO.P,R6,2*%
%TO.N,Net-(R5-Pad2)*%
X103350000Y-39500000D03*
%TD*%
D10*
%TO.P,J1,1,GND*%
%TO.N,GND*%
X94930000Y-50900000D03*
D11*
%TO.P,J1,2,0*%
%TO.N,GPIO0*%
X97470000Y-50900000D03*
%TO.P,J1,3,3V3*%
%TO.N,+3V3*%
X100010000Y-50900000D03*
%TO.P,J1,4,Rx*%
%TO.N,RX*%
X102550000Y-50900000D03*
%TO.P,J1,5,Tx*%
%TO.N,TX*%
X105090000Y-50900000D03*
%TD*%
D12*
%TO.P,R1,1*%
%TO.N,Net-(D1-Pad2)*%
X102700000Y-43875000D03*
%TO.P,R1,2*%
%TO.N,R*%
X102700000Y-45525000D03*
%TD*%
%TO.P,R3,1*%
%TO.N,Net-(D1-Pad4)*%
X105850000Y-43875000D03*
%TO.P,R3,2*%
%TO.N,B*%
X105850000Y-45525000D03*
%TD*%
D14*
%TO.P,R4,1*%
%TO.N,+3V3*%
X95575000Y-47200000D03*
%TO.P,R4,2*%
%TO.N,EN*%
X97225000Y-47200000D03*
%TD*%
D15*
%TO.P,D1,1,A*%
%TO.N,+3V3*%
X105775000Y-41100000D03*
%TO.P,D1,2,RK*%
%TO.N,Net-(D1-Pad2)*%
X104025000Y-41100000D03*
%TO.P,D1,3,GK*%
%TO.N,Net-(D1-Pad3)*%
X104025000Y-42100000D03*
%TO.P,D1,4,BK*%
%TO.N,Net-(D1-Pad4)*%
X105775000Y-42100000D03*
%TD*%
D14*
%TO.P,C5,2*%
%TO.N,GND*%
X96175000Y-48600000D03*
%TO.P,C5,1*%
%TO.N,+3V3*%
X94625000Y-48600000D03*
%TD*%
D16*
%TO.P,U2,*%
%TO.N,*%
X98900000Y-43900000D03*
D17*
X98900000Y-40250000D03*
D18*
X97450000Y-41650000D03*
D19*
X100325000Y-42050000D03*
D20*
X99052500Y-44770000D03*
D21*
X97950000Y-42950000D03*
D22*
X101950000Y-42625000D03*
D23*
X100650000Y-41150000D03*
D22*
X101950000Y-41075000D03*
D17*
X98900000Y-42950000D03*
%TO.P,U2,1,SHDN*%
%TO.N,DC*%
X100800000Y-42950000D03*
D24*
%TO.P,U2,2,VIN*%
X100700000Y-44200000D03*
D17*
X99850000Y-42950000D03*
D25*
X100910000Y-44150000D03*
D17*
%TO.P,U2,3,GND*%
%TO.N,GND*%
X99850000Y-40250000D03*
D24*
X100700000Y-46100000D03*
X94450000Y-46100000D03*
D26*
X100950000Y-46100000D03*
D20*
X96087500Y-44770000D03*
D27*
%TO.P,U2,4,VOUT*%
%TO.N,+3V3*%
X94450000Y-42400000D03*
D24*
X94450000Y-44200000D03*
D18*
X94450000Y-41650000D03*
D17*
%TO.P,U2,5,FB*%
%TO.N,Net-(R5-Pad2)*%
X100800000Y-40250000D03*
%TD*%
D28*
%TO.P,R5,1*%
%TO.N,+3V3*%
X105825000Y-39500000D03*
%TO.P,R5,2*%
%TO.N,Net-(R5-Pad2)*%
X104175000Y-39500000D03*
%TD*%
D29*
%TO.N,IO10*%
X91499500Y-47076004D03*
%TO.N,IO1*%
X104927650Y-47771626D03*
%TO.N,GND*%
X106330718Y-50126609D03*
%TO.N,TX*%
X103400000Y-47194717D03*
%TO.N,RX*%
X102000000Y-47492752D03*
%TO.N,GPIO0*%
X101000000Y-47800000D03*
%TO.N,+3V3*%
X99987701Y-47812299D03*
%TO.N,GND*%
X97540500Y-45250000D03*
X95950000Y-40625000D03*
%TO.N,EN*%
X97350097Y-48050500D03*
%TO.N,R*%
X103800000Y-43050000D03*
%TO.N,G*%
X103989877Y-44851802D03*
%TO.N,B*%
X105104749Y-46631984D03*
%TO.N,+3V3*%
X96225500Y-47000000D03*
X104884187Y-40391384D03*
X94925000Y-41825000D03*
%TD*%
D30*
%TO.N,IO10*%
X93374511Y-47858501D02*
X93374511Y-49710489D01*
X91499500Y-47076004D02*
X92592014Y-47076004D01*
X92592014Y-47076004D02*
X93374511Y-47858501D01*
X93374511Y-49710489D02*
X92200000Y-50885000D01*
%TO.N,TX*%
X103400000Y-47194717D02*
X103400000Y-48350000D01*
X105090000Y-50900000D02*
X103400000Y-49210000D01*
X103400000Y-49210000D02*
X103400000Y-48350000D01*
%TO.N,IO1*%
X107800000Y-50900000D02*
X107800000Y-50150000D01*
X107800000Y-50150000D02*
X105421626Y-47771626D01*
X105421626Y-47771626D02*
X104927650Y-47771626D01*
%TO.N,GND*%
X104950000Y-49650000D02*
X105854109Y-49650000D01*
X104200761Y-48032008D02*
X104200761Y-48900761D01*
X104000000Y-46400000D02*
X104189743Y-46589743D01*
X104189743Y-48020990D02*
X104200761Y-48032008D01*
X105854109Y-49650000D02*
X106330718Y-50126609D01*
X104189743Y-46589743D02*
X104189743Y-48020990D01*
X101000000Y-46400000D02*
X104000000Y-46400000D01*
X100700000Y-46100000D02*
X101000000Y-46400000D01*
X104200761Y-48900761D02*
X104950000Y-49650000D01*
%TO.N,B*%
X105191127Y-46559716D02*
G75*
G03*
X105899999Y-45600000I-298540J962164D01*
G01*
X105191127Y-46559717D02*
X105177016Y-46559717D01*
X105177016Y-46559717D02*
X105104749Y-46631984D01*
%TO.N,RX*%
X102550000Y-50900000D02*
X102550000Y-48042752D01*
X102550000Y-48042752D02*
X102000000Y-47492752D01*
%TO.N,+3V3*%
X100010000Y-50900000D02*
X100010000Y-47834598D01*
%TO.N,GPIO0*%
X99263200Y-47512200D02*
X99699901Y-47075499D01*
%TO.N,+3V3*%
X100010000Y-47834598D02*
X99987701Y-47812299D01*
%TO.N,GPIO0*%
X97569148Y-50900000D02*
X99263200Y-49205948D01*
X97470000Y-50900000D02*
X97569148Y-50900000D01*
X99263200Y-49205948D02*
X99263200Y-47512200D01*
X99699901Y-47075499D02*
X100324501Y-47075499D01*
X101000000Y-47800000D02*
X100324501Y-47124501D01*
X100324501Y-47124501D02*
X100324501Y-47075499D01*
%TO.N,EN*%
X97225000Y-47200000D02*
X97350097Y-47325097D01*
%TO.N,GND*%
X98400000Y-48775000D02*
X97055000Y-48775000D01*
%TO.N,EN*%
X97350097Y-47325097D02*
X97350097Y-48050500D01*
%TO.N,GND*%
X97055000Y-48775000D02*
X96115000Y-49715000D01*
X96175000Y-49655000D02*
X96115000Y-49715000D01*
X96115000Y-49715000D02*
X94930000Y-50900000D01*
X96175000Y-48600000D02*
X96175000Y-49655000D01*
%TO.N,+3V3*%
X95575000Y-47200000D02*
X95575000Y-47650000D01*
X95575000Y-47650000D02*
X94625000Y-48600000D01*
%TO.N,EN*%
X97225000Y-47200000D02*
X98225000Y-47200000D01*
%TO.N,GND*%
X93900480Y-46649520D02*
X93900480Y-50200480D01*
X93900480Y-50200480D02*
X94600000Y-50900000D01*
X99650000Y-39450000D02*
X99650000Y-40250000D01*
X94450000Y-46100000D02*
X93900480Y-46649520D01*
X101575000Y-39500000D02*
X101375000Y-39300000D01*
X101375000Y-39300000D02*
X99800000Y-39300000D01*
X95887500Y-44770000D02*
X97060500Y-44770000D01*
X94600000Y-50900000D02*
X94930000Y-50900000D01*
X97540500Y-45250000D02*
G75*
G03*
X97060500Y-44770000I-480001J-1D01*
G01*
X99650000Y-39450000D02*
G75*
G02*
X99800000Y-39300000I150000J0D01*
G01*
%TO.N,Net-(D1-Pad2)*%
X102749520Y-43825480D02*
X102749520Y-42200480D01*
X103850000Y-41100000D02*
X104025000Y-41100000D01*
X102700000Y-43875000D02*
X102749520Y-43825480D01*
X103850000Y-41100000D02*
G75*
G03*
X102749520Y-42200480I0J-1100480D01*
G01*
%TO.N,DC*%
X100600000Y-42950000D02*
X99650000Y-42950000D01*
%TO.N,Net-(D1-Pad3)*%
X104725000Y-42800000D02*
X104725000Y-43650000D01*
X104550000Y-43900000D02*
G75*
G03*
X104800000Y-43650000I1J249999D01*
G01*
X104725000Y-42800000D02*
G75*
G03*
X104025000Y-42100000I-699999J1D01*
G01*
%TO.N,Net-(D1-Pad4)*%
X105775000Y-42100000D02*
X105775000Y-43750000D01*
X105975000Y-43875000D02*
G75*
G02*
X105850000Y-43750000I1J125001D01*
G01*
%TO.N,R*%
X103499520Y-44296271D02*
X103499520Y-43350480D01*
X103499520Y-44296271D02*
X102700000Y-45095791D01*
X102700000Y-45095791D02*
X102700000Y-45525000D01*
X103800000Y-43050000D02*
G75*
G03*
X103499520Y-43350480I2J-300482D01*
G01*
%TO.N,G*%
X104052739Y-44914664D02*
X103989877Y-44851802D01*
X103989877Y-44989877D02*
X103989877Y-44851802D01*
X103989877Y-44989877D02*
G75*
G03*
X104550000Y-45550000I560122J-1D01*
G01*
%TO.N,B*%
X105975000Y-45600000D02*
X105975000Y-45525000D01*
%TO.N,+3V3*%
X96225500Y-47000000D02*
X96057842Y-47000000D01*
X105775000Y-39550000D02*
X105825000Y-39500000D01*
X105775000Y-41100000D02*
X105775000Y-39550000D01*
X104884187Y-40391384D02*
X105740619Y-39534952D01*
X105825000Y-39500000D02*
G75*
G03*
X105740619Y-39534952I1J-119334D01*
G01*
X95575000Y-47200000D02*
G75*
G02*
X96057842Y-47000000I482841J-482839D01*
G01*
%TO.N,Net-(R5-Pad2)*%
X100649520Y-40299520D02*
X102425480Y-40299520D01*
X103225000Y-39500000D02*
X104175000Y-39500000D01*
X103225000Y-39500000D02*
G75*
G02*
X102425480Y-40299520I-799520J0D01*
G01*
%TD*%
%TA.AperFunction,Conductor*%
%TO.N,GND*%
G36*
X103615621Y-45393385D02*
G01*
X103702242Y-45440416D01*
X103745333Y-45478876D01*
X103797714Y-45553684D01*
X103820501Y-45625955D01*
X103820501Y-45804314D01*
X103820780Y-45807262D01*
X103820780Y-45807271D01*
X103822784Y-45828478D01*
X103823507Y-45836127D01*
X103868791Y-45965076D01*
X103949990Y-46075010D01*
X104059924Y-46156209D01*
X104188873Y-46201493D01*
X104196515Y-46202215D01*
X104196518Y-46202216D01*
X104211421Y-46203624D01*
X104220685Y-46204500D01*
X104384534Y-46204500D01*
X104452655Y-46224502D01*
X104499148Y-46278158D01*
X104509252Y-46348432D01*
X104501927Y-46376269D01*
X104468916Y-46460938D01*
X104468915Y-46460942D01*
X104466155Y-46468021D01*
X104465163Y-46475554D01*
X104465163Y-46475555D01*
X104449634Y-46593513D01*
X104445478Y-46625080D01*
X104450740Y-46672738D01*
X104459674Y-46753658D01*
X104462862Y-46782537D01*
X104465472Y-46789668D01*
X104465472Y-46789670D01*
X104502276Y-46890241D01*
X104517302Y-46931303D01*
X104521537Y-46937606D01*
X104521541Y-46937613D01*
X104596463Y-47049108D01*
X104617856Y-47116805D01*
X104599252Y-47185321D01*
X104563045Y-47223239D01*
X104557064Y-47226326D01*
X104437689Y-47330464D01*
X104346600Y-47460070D01*
X104320760Y-47526346D01*
X104307200Y-47561127D01*
X104289056Y-47607663D01*
X104288064Y-47615196D01*
X104288064Y-47615197D01*
X104270606Y-47747808D01*
X104268379Y-47764722D01*
X104274178Y-47817244D01*
X104284686Y-47912421D01*
X104285763Y-47922179D01*
X104288373Y-47929310D01*
X104288373Y-47929312D01*
X104330195Y-48043596D01*
X104340203Y-48070945D01*
X104344439Y-48077248D01*
X104344439Y-48077249D01*
X104418419Y-48187342D01*
X104428558Y-48202431D01*
X104434177Y-48207544D01*
X104434178Y-48207545D01*
X104524487Y-48289719D01*
X104545726Y-48309045D01*
X104684943Y-48384634D01*
X104838172Y-48424833D01*
X104922127Y-48426152D01*
X104988969Y-48427202D01*
X104988972Y-48427202D01*
X104996566Y-48427321D01*
X105150982Y-48391955D01*
X105292505Y-48320777D01*
X105293547Y-48319887D01*
X105358816Y-48299637D01*
X105427234Y-48318597D01*
X105449833Y-48336527D01*
X106563095Y-49449789D01*
X106597121Y-49512101D01*
X106600000Y-49538884D01*
X106600000Y-51720000D01*
X106579998Y-51788121D01*
X106526342Y-51834614D01*
X106474000Y-51846000D01*
X106008575Y-51846000D01*
X105940454Y-51825998D01*
X105893961Y-51772342D01*
X105883857Y-51702068D01*
X105911701Y-51639431D01*
X106000449Y-51532724D01*
X106000456Y-51532714D01*
X106004147Y-51528276D01*
X106103334Y-51351165D01*
X106105190Y-51345698D01*
X106105192Y-51345693D01*
X106166728Y-51164414D01*
X106166729Y-51164409D01*
X106168584Y-51158945D01*
X106169412Y-51153236D01*
X106169413Y-51153231D01*
X106187570Y-51028000D01*
X106197712Y-50958053D01*
X106199232Y-50900000D01*
X106187797Y-50775551D01*
X106181187Y-50703613D01*
X106181186Y-50703610D01*
X106180658Y-50697859D01*
X106179089Y-50692295D01*
X106127125Y-50508046D01*
X106127124Y-50508044D01*
X106125557Y-50502487D01*
X106122119Y-50495514D01*
X106038331Y-50325609D01*
X106035776Y-50320428D01*
X105914320Y-50157779D01*
X105776982Y-50030825D01*
X105769503Y-50023911D01*
X105765258Y-50019987D01*
X105760375Y-50016906D01*
X105760371Y-50016903D01*
X105598464Y-49914748D01*
X105593581Y-49911667D01*
X105405039Y-49836446D01*
X105399379Y-49835320D01*
X105399375Y-49835319D01*
X105211613Y-49797971D01*
X105211610Y-49797971D01*
X105205946Y-49796844D01*
X105200171Y-49796768D01*
X105200167Y-49796768D01*
X105098793Y-49795441D01*
X105002971Y-49794187D01*
X104997274Y-49795166D01*
X104997273Y-49795166D01*
X104909892Y-49810181D01*
X104802910Y-49828564D01*
X104697671Y-49867389D01*
X104626839Y-49872201D01*
X104564966Y-49838272D01*
X103816405Y-49089711D01*
X103782379Y-49027399D01*
X103779500Y-49000616D01*
X103779500Y-47789447D01*
X103799502Y-47721326D01*
X103823669Y-47693636D01*
X103879536Y-47645921D01*
X103885314Y-47640986D01*
X103977755Y-47512341D01*
X104036842Y-47365358D01*
X104055918Y-47231319D01*
X104058581Y-47212608D01*
X104058581Y-47212605D01*
X104059162Y-47208524D01*
X104059307Y-47194717D01*
X104057664Y-47181135D01*
X104049879Y-47116805D01*
X104040276Y-47037450D01*
X103984280Y-46889263D01*
X103912874Y-46785366D01*
X103898855Y-46764968D01*
X103898854Y-46764966D01*
X103894553Y-46758709D01*
X103776275Y-46653328D01*
X103768889Y-46649417D01*
X103708700Y-46617549D01*
X103636274Y-46579201D01*
X103482633Y-46540609D01*
X103475034Y-46540569D01*
X103475033Y-46540569D01*
X103409181Y-46540224D01*
X103324221Y-46539779D01*
X103316841Y-46541551D01*
X103316839Y-46541551D01*
X103177563Y-46574988D01*
X103177560Y-46574989D01*
X103170184Y-46576760D01*
X103029414Y-46649417D01*
X102910039Y-46753555D01*
X102818950Y-46883161D01*
X102816190Y-46890241D01*
X102774299Y-46997686D01*
X102761406Y-47030754D01*
X102760414Y-47038287D01*
X102760414Y-47038288D01*
X102758479Y-47052987D01*
X102729757Y-47117914D01*
X102670492Y-47157006D01*
X102599500Y-47157851D01*
X102539321Y-47120181D01*
X102529717Y-47107908D01*
X102498855Y-47063003D01*
X102498854Y-47063001D01*
X102494553Y-47056744D01*
X102485983Y-47049108D01*
X102423486Y-46993426D01*
X102376275Y-46951363D01*
X102236274Y-46877236D01*
X102082633Y-46838644D01*
X102075034Y-46838604D01*
X102075033Y-46838604D01*
X101986135Y-46838138D01*
X101918120Y-46817779D01*
X101871909Y-46763881D01*
X101862174Y-46693555D01*
X101867203Y-46672473D01*
X101920632Y-46511389D01*
X101920632Y-46511387D01*
X101922797Y-46504861D01*
X101933500Y-46400400D01*
X101933500Y-46176747D01*
X101953502Y-46108626D01*
X102007158Y-46062133D01*
X102077432Y-46052029D01*
X102134359Y-46075396D01*
X102209924Y-46131209D01*
X102338873Y-46176493D01*
X102346515Y-46177215D01*
X102346518Y-46177216D01*
X102361421Y-46178624D01*
X102370685Y-46179500D01*
X102699777Y-46179500D01*
X103029314Y-46179499D01*
X103032262Y-46179220D01*
X103032271Y-46179220D01*
X103053478Y-46177216D01*
X103053480Y-46177216D01*
X103061127Y-46176493D01*
X103190076Y-46131209D01*
X103300010Y-46050010D01*
X103381209Y-45940076D01*
X103426493Y-45811127D01*
X103427418Y-45801347D01*
X103429221Y-45782265D01*
X103429500Y-45779315D01*
X103429499Y-45504114D01*
X103449501Y-45435996D01*
X103503156Y-45389503D01*
X103573430Y-45379398D01*
X103615621Y-45393385D01*
G37*
%TD.AperFunction*%
%TA.AperFunction,Conductor*%
G36*
X95289629Y-49162578D02*
G01*
X95346465Y-49205125D01*
X95353373Y-49215363D01*
X95409821Y-49308571D01*
X95419131Y-49320443D01*
X95425593Y-49326905D01*
X95459619Y-49389217D01*
X95454554Y-49460032D01*
X95412007Y-49516868D01*
X95345487Y-49541679D01*
X95336498Y-49542000D01*
X95202115Y-49542000D01*
X95186876Y-49546475D01*
X95185671Y-49547865D01*
X95184000Y-49555548D01*
X95184000Y-51028000D01*
X95163998Y-51096121D01*
X95110342Y-51142614D01*
X95058000Y-51154000D01*
X94802000Y-51154000D01*
X94733879Y-51133998D01*
X94687386Y-51080342D01*
X94676000Y-51028000D01*
X94676000Y-49560116D01*
X94669010Y-49536311D01*
X94639889Y-49490998D01*
X94639889Y-49420001D01*
X94678272Y-49360275D01*
X94742853Y-49330782D01*
X94760782Y-49329499D01*
X94879314Y-49329499D01*
X94882262Y-49329220D01*
X94882271Y-49329220D01*
X94903478Y-49327216D01*
X94903480Y-49327216D01*
X94911127Y-49326493D01*
X95040076Y-49281209D01*
X95150010Y-49200010D01*
X95155602Y-49192439D01*
X95156502Y-49191539D01*
X95218814Y-49157513D01*
X95289629Y-49162578D01*
G37*
%TD.AperFunction*%
%TA.AperFunction,Conductor*%
G36*
X98596121Y-48541002D02*
G01*
X98642614Y-48594658D01*
X98654000Y-48647000D01*
X98654000Y-48903000D01*
X98633998Y-48971121D01*
X98580342Y-49017614D01*
X98528000Y-49029000D01*
X97435116Y-49029000D01*
X97419877Y-49033475D01*
X97418672Y-49034865D01*
X97417709Y-49039294D01*
X97423132Y-49098315D01*
X97425743Y-49111351D01*
X97472715Y-49261243D01*
X97478921Y-49274988D01*
X97559824Y-49408574D01*
X97569131Y-49420443D01*
X97679557Y-49530869D01*
X97691426Y-49540176D01*
X97761307Y-49582498D01*
X97809213Y-49634896D01*
X97821186Y-49704876D01*
X97793424Y-49770220D01*
X97734742Y-49810181D01*
X97671455Y-49813853D01*
X97585946Y-49796844D01*
X97580171Y-49796768D01*
X97580167Y-49796768D01*
X97478793Y-49795441D01*
X97382971Y-49794187D01*
X97377274Y-49795166D01*
X97377273Y-49795166D01*
X97289892Y-49810181D01*
X97182910Y-49828564D01*
X96992463Y-49898824D01*
X96818010Y-50002612D01*
X96813670Y-50006418D01*
X96813666Y-50006421D01*
X96737324Y-50073372D01*
X96665392Y-50136455D01*
X96539720Y-50295869D01*
X96537031Y-50300980D01*
X96537029Y-50300983D01*
X96525507Y-50322883D01*
X96476087Y-50373856D01*
X96406955Y-50390018D01*
X96340059Y-50366239D01*
X96296638Y-50310068D01*
X96287999Y-50264215D01*
X96287999Y-50005331D01*
X96287629Y-49998510D01*
X96282105Y-49947648D01*
X96278479Y-49932396D01*
X96233324Y-49811946D01*
X96224786Y-49796352D01*
X96215951Y-49784563D01*
X96191104Y-49718057D01*
X96206157Y-49648674D01*
X96256332Y-49598445D01*
X96316778Y-49582999D01*
X96428705Y-49582999D01*
X96434454Y-49582736D01*
X96498315Y-49576868D01*
X96511351Y-49574257D01*
X96661243Y-49527285D01*
X96674988Y-49521079D01*
X96808574Y-49440176D01*
X96820443Y-49430869D01*
X96930869Y-49320443D01*
X96940176Y-49308574D01*
X97021079Y-49174988D01*
X97027285Y-49161243D01*
X97074256Y-49011356D01*
X97076869Y-48998306D01*
X97082734Y-48934479D01*
X97083000Y-48928691D01*
X97083000Y-48820429D01*
X97103002Y-48752308D01*
X97156658Y-48705815D01*
X97226932Y-48695711D01*
X97240975Y-48698554D01*
X97253265Y-48701778D01*
X97253267Y-48701778D01*
X97260619Y-48703707D01*
X97344574Y-48705026D01*
X97411416Y-48706076D01*
X97411419Y-48706076D01*
X97419013Y-48706195D01*
X97573429Y-48670829D01*
X97643839Y-48635417D01*
X97708169Y-48603063D01*
X97708172Y-48603061D01*
X97714952Y-48599651D01*
X97771694Y-48551188D01*
X97836482Y-48522158D01*
X97853524Y-48521000D01*
X98528000Y-48521000D01*
X98596121Y-48541002D01*
G37*
%TD.AperFunction*%
%TA.AperFunction,Conductor*%
G36*
X98176325Y-43720502D02*
G01*
X98222818Y-43774158D01*
X98232922Y-43844432D01*
X98209556Y-43901357D01*
X98187301Y-43931488D01*
X98142478Y-44059125D01*
X98139500Y-44090627D01*
X98139501Y-44697873D01*
X98139501Y-45210321D01*
X98119499Y-45278442D01*
X98065843Y-45324935D01*
X98013501Y-45336321D01*
X97434500Y-45336321D01*
X97366379Y-45316319D01*
X97319886Y-45262663D01*
X97308500Y-45210321D01*
X97308499Y-44097291D01*
X97308499Y-44094024D01*
X97305672Y-44066770D01*
X97298245Y-43995195D01*
X97297534Y-43988338D01*
X97267772Y-43899129D01*
X97256845Y-43866376D01*
X97254261Y-43795426D01*
X97290445Y-43734342D01*
X97353909Y-43702518D01*
X97376369Y-43700500D01*
X98108204Y-43700500D01*
X98176325Y-43720502D01*
G37*
%TD.AperFunction*%
%TD*%
M02*
