%TF.GenerationSoftware,KiCad,Pcbnew,(6.0.2-0)*%
%TF.CreationDate,2022-03-05T14:02:11+00:00*%
%TF.ProjectId,Generic5,47656e65-7269-4633-952e-6b696361645f,1*%
%TF.SameCoordinates,Original*%
%TF.FileFunction,Copper,L1,Top*%
%TF.FilePolarity,Positive*%
%FSLAX46Y46*%
G04 Gerber Fmt 4.6, Leading zero omitted, Abs format (unit mm)*
G04 Created by KiCad (PCBNEW (6.0.2-0)) date 2022-03-05 14:02:11*
%MOMM*%
%LPD*%
G01*
G04 APERTURE LIST*
G04 Aperture macros list*
%AMRoundRect*
0 Rectangle with rounded corners*
0 $1 Rounding radius*
0 $2 $3 $4 $5 $6 $7 $8 $9 X,Y pos of 4 corners*
0 Add a 4 corners polygon primitive as box body*
4,1,4,$2,$3,$4,$5,$6,$7,$8,$9,$2,$3,0*
0 Add four circle primitives for the rounded corners*
1,1,$1+$1,$2,$3*
1,1,$1+$1,$4,$5*
1,1,$1+$1,$6,$7*
1,1,$1+$1,$8,$9*
0 Add four rect primitives between the rounded corners*
20,1,$1+$1,$2,$3,$4,$5,0*
20,1,$1+$1,$4,$5,$6,$7,0*
20,1,$1+$1,$6,$7,$8,$9,0*
20,1,$1+$1,$8,$9,$2,$3,0*%
%AMOutline5P*
0 Free polygon, 5 corners , with rotation*
0 The origin of the aperture is its center*
0 number of corners: always 5*
0 $1 to $10 corner X, Y*
0 $11 Rotation angle, in degrees counterclockwise*
0 create outline with 5 corners*
4,1,5,$1,$2,$3,$4,$5,$6,$7,$8,$9,$10,$1,$2,$11*%
%AMOutline6P*
0 Free polygon, 6 corners , with rotation*
0 The origin of the aperture is its center*
0 number of corners: always 6*
0 $1 to $12 corner X, Y*
0 $13 Rotation angle, in degrees counterclockwise*
0 create outline with 6 corners*
4,1,6,$1,$2,$3,$4,$5,$6,$7,$8,$9,$10,$11,$12,$1,$2,$13*%
%AMOutline7P*
0 Free polygon, 7 corners , with rotation*
0 The origin of the aperture is its center*
0 number of corners: always 7*
0 $1 to $14 corner X, Y*
0 $15 Rotation angle, in degrees counterclockwise*
0 create outline with 7 corners*
4,1,7,$1,$2,$3,$4,$5,$6,$7,$8,$9,$10,$11,$12,$13,$14,$1,$2,$15*%
%AMOutline8P*
0 Free polygon, 8 corners , with rotation*
0 The origin of the aperture is its center*
0 number of corners: always 8*
0 $1 to $16 corner X, Y*
0 $17 Rotation angle, in degrees counterclockwise*
0 create outline with 8 corners*
4,1,8,$1,$2,$3,$4,$5,$6,$7,$8,$9,$10,$11,$12,$13,$14,$15,$16,$1,$2,$17*%
%AMFreePoly0*
4,1,136,3.383385,4.221938,3.559722,4.168447,3.722236,4.081581,3.864680,3.964680,3.981581,3.822236,4.068447,3.659722,4.121938,3.483385,4.125213,3.450138,4.182769,3.539508,4.186818,3.554319,4.232803,3.599839,4.295387,3.616268,4.357802,3.599205,4.403322,3.553220,4.419751,3.490636,4.402688,3.428221,4.402685,3.428218,4.172864,3.069999,4.056927,2.918726,3.981581,2.777764,
3.864680,2.635320,3.750000,2.541204,3.750000,0.022998,4.066621,-0.229499,4.408387,-0.546611,4.440740,-0.602647,4.440740,-0.667351,4.408387,-0.723387,4.352351,-0.755740,4.287647,-0.755740,4.231611,-0.723387,4.223834,-0.709917,3.889556,-0.400914,3.520256,-0.109781,3.483169,-0.085000,2.500000,-0.085000,2.500000,-1.185000,3.750000,-1.185000,3.750000,-2.745000,-3.750000,-2.745000,
-3.750000,-1.185000,-2.500000,-1.185000,-2.500000,-0.085000,-3.483168,-0.085000,-3.520257,-0.109782,-3.889557,-0.400914,-4.223835,-0.709917,-4.231612,-0.723388,-4.287648,-0.755741,-4.352352,-0.755741,-4.408388,-0.723388,-4.440741,-0.667352,-4.440741,-0.602648,-4.408388,-0.546612,-4.066622,-0.229500,-3.750000,0.022998,-3.750000,2.541204,-3.864680,2.635320,-3.981581,2.777764,-4.057059,2.918973,
-4.182136,3.083248,-4.410822,3.442198,-4.427688,3.504666,-4.411060,3.567198,-4.365394,3.613038,-4.302926,3.629904,-4.240394,3.613276,-4.194554,3.567610,-4.190552,3.552787,-4.125171,3.450557,-4.121938,3.483385,-4.068447,3.659722,-3.981581,3.822236,-3.864680,3.964680,-3.722236,4.081581,-3.559722,4.168447,-3.383385,4.221938,-3.200000,4.240000,-3.137500,4.223253,-3.091747,4.177500,
-3.075000,4.115000,-3.091747,4.052500,-3.137500,4.006747,-3.200000,3.990000,-3.211471,3.993074,-3.354511,3.976957,-3.501274,3.925602,-3.632930,3.842877,-3.742877,3.732930,-3.825602,3.601274,-3.876957,3.454511,-3.894366,3.300000,-3.876957,3.145489,-3.839657,3.038894,-3.713800,2.875371,-3.594054,2.745000,-2.998152,2.745000,-3.015000,3.045000,-2.998253,3.107500,-2.952500,3.153253,
-2.890000,3.170000,-2.827500,3.153253,-2.781747,3.107500,-2.765000,3.045000,-2.768849,3.030634,-2.752213,2.745000,2.752213,2.745000,2.768849,3.030634,2.765000,3.045000,2.781747,3.107500,2.827500,3.153253,2.890000,3.170000,2.952500,3.153253,2.998253,3.107500,3.015000,3.045000,2.998152,2.745000,3.594234,2.745000,3.703871,2.863608,3.839648,3.038866,3.876957,3.145489,
3.894366,3.300000,3.876957,3.454511,3.825602,3.601274,3.742877,3.732930,3.632930,3.842877,3.501274,3.925602,3.354511,3.976957,3.211471,3.993074,3.200000,3.990000,3.137500,4.006747,3.091747,4.052500,3.075000,4.115000,3.091747,4.177500,3.137500,4.223253,3.200000,4.240000,3.383385,4.221938,3.383385,4.221938,$1*%
G04 Aperture macros list end*
%TA.AperFunction,EtchedComponent*%
%ADD10C,0.080000*%
%TD*%
%TA.AperFunction,EtchedComponent*%
%ADD11C,0.250000*%
%TD*%
%TA.AperFunction,SMDPad,CuDef*%
%ADD12R,0.400000X0.800000*%
%TD*%
%TA.AperFunction,SMDPad,CuDef*%
%ADD13R,0.800000X0.400000*%
%TD*%
%TA.AperFunction,SMDPad,CuDef*%
%ADD14R,1.450000X1.450000*%
%TD*%
%TA.AperFunction,SMDPad,CuDef*%
%ADD15Outline5P,-0.725000X0.130500X-0.130500X0.725000X0.725000X0.725000X0.725000X-0.725000X-0.725000X-0.725000X90.000000*%
%TD*%
%TA.AperFunction,SMDPad,CuDef*%
%ADD16R,0.700000X0.700000*%
%TD*%
%TA.AperFunction,SMDPad,CuDef*%
%ADD17R,0.600000X1.140000*%
%TD*%
%TA.AperFunction,SMDPad,CuDef*%
%ADD18RoundRect,0.075000X-0.075000X-0.495000X0.075000X-0.495000X0.075000X0.495000X-0.075000X0.495000X0*%
%TD*%
%TA.AperFunction,SMDPad,CuDef*%
%ADD19R,5.000000X5.490000*%
%TD*%
%TA.AperFunction,ComponentPad*%
%ADD20C,1.250000*%
%TD*%
%TA.AperFunction,ComponentPad*%
%ADD21C,1.500000*%
%TD*%
%TA.AperFunction,ComponentPad*%
%ADD22C,0.670000*%
%TD*%
%TA.AperFunction,SMDPad,CuDef*%
%ADD23FreePoly0,0.000000*%
%TD*%
%TA.AperFunction,ComponentPad*%
%ADD24RoundRect,0.250000X0.600000X0.675000X-0.600000X0.675000X-0.600000X-0.675000X0.600000X-0.675000X0*%
%TD*%
%TA.AperFunction,ComponentPad*%
%ADD25O,1.700000X1.850000*%
%TD*%
%TA.AperFunction,ViaPad*%
%ADD26C,0.800000*%
%TD*%
%TA.AperFunction,Conductor*%
%ADD27C,0.250000*%
%TD*%
G04 APERTURE END LIST*
D10*
%TO.C,Logo1*%
X154010000Y-24450000D02*
X154150000Y-24350000D01*
D11*
X149800000Y-23700000D02*
X154000000Y-26700000D01*
D10*
X153850000Y-24550000D02*
X153850000Y-24450000D01*
D11*
X151900000Y-23700000D02*
X154000000Y-21900000D01*
X151900000Y-23700000D02*
X151900000Y-25200000D01*
X149900000Y-21900000D02*
X151900000Y-23700000D01*
X149800000Y-23700000D02*
X154000000Y-23700000D01*
D10*
X153850000Y-24550000D02*
X154150000Y-24550000D01*
X154010000Y-24550000D02*
X154010000Y-24450000D01*
D11*
X154000000Y-25200000D02*
G75*
G03*
X154000000Y-23700000I0J750000D01*
G01*
D10*
X154010000Y-24450000D02*
G75*
G03*
X153850000Y-24450000I-80000J0D01*
G01*
X154310000Y-24470000D02*
G75*
G03*
X154310000Y-24470000I-300000J0D01*
G01*
%TD*%
D12*
%TO.P,U1,1,GND*%
%TO.N,GND*%
X150350000Y-41450000D03*
%TO.P,U1,2,GND*%
X151150000Y-41450000D03*
%TO.P,U1,3,3V3*%
%TO.N,+3V3*%
X151950000Y-41450000D03*
%TO.P,U1,4,I36*%
%TO.N,unconnected-(U1-Pad4)*%
X152750000Y-41450000D03*
%TO.P,U1,5,I37*%
%TO.N,unconnected-(U1-Pad5)*%
X153550000Y-41450000D03*
%TO.P,U1,6,I38*%
%TO.N,unconnected-(U1-Pad6)*%
X154350000Y-41450000D03*
%TO.P,U1,7,I39*%
%TO.N,unconnected-(U1-Pad7)*%
X155150000Y-41450000D03*
%TO.P,U1,8,EN*%
%TO.N,EN*%
X155950000Y-41450000D03*
%TO.P,U1,9,I34*%
%TO.N,unconnected-(U1-Pad9)*%
X156750000Y-41450000D03*
%TO.P,U1,10,I35*%
%TO.N,unconnected-(U1-Pad10)*%
X157550000Y-41450000D03*
%TO.P,U1,11,GND*%
%TO.N,GND*%
X158350000Y-41450000D03*
D13*
%TO.P,U1,12,IO32*%
%TO.N,unconnected-(U1-Pad12)*%
X159250000Y-40350000D03*
%TO.P,U1,13,IO33*%
%TO.N,unconnected-(U1-Pad13)*%
X159250000Y-39550000D03*
%TO.P,U1,14,GND*%
%TO.N,GND*%
X159250000Y-38750000D03*
%TO.P,U1,15,IO25*%
%TO.N,unconnected-(U1-Pad15)*%
X159250000Y-37950000D03*
%TO.P,U1,16,IO26*%
%TO.N,unconnected-(U1-Pad16)*%
X159250000Y-37150000D03*
%TO.P,U1,17,IO27*%
%TO.N,unconnected-(U1-Pad17)*%
X159250000Y-36350000D03*
%TO.P,U1,18,IO14*%
%TO.N,FET*%
X159250000Y-35550000D03*
%TO.P,U1,19,IO12*%
%TO.N,unconnected-(U1-Pad19)*%
X159250000Y-34750000D03*
%TO.P,U1,20,IO13*%
%TO.N,unconnected-(U1-Pad20)*%
X159250000Y-33950000D03*
%TO.P,U1,21,IO15*%
%TO.N,unconnected-(U1-Pad21)*%
X159250000Y-33150000D03*
%TO.P,U1,22,IO2*%
%TO.N,unconnected-(U1-Pad22)*%
X159250000Y-32350000D03*
%TO.P,U1,23,IO0*%
%TO.N,GPIO0*%
X159250000Y-31550000D03*
%TO.P,U1,24,IO4*%
%TO.N,B*%
X159250000Y-30750000D03*
D12*
%TO.P,U1,25,NC*%
%TO.N,unconnected-(U1-Pad25)*%
X158350000Y-29650000D03*
%TO.P,U1,26,IO20*%
%TO.N,R*%
X157550000Y-29650000D03*
%TO.P,U1,27,IO7*%
%TO.N,IO1*%
X156750000Y-29650000D03*
%TO.P,U1,28,IO8*%
%TO.N,G*%
X155950000Y-29650000D03*
%TO.P,U1,29,IO5*%
%TO.N,unconnected-(U1-Pad29)*%
X155150000Y-29650000D03*
%TO.P,U1,30,RXD0*%
%TO.N,I*%
X154350000Y-29650000D03*
%TO.P,U1,31,TXD0*%
%TO.N,O*%
X153550000Y-29650000D03*
%TO.P,U1,32,NC*%
%TO.N,unconnected-(U1-Pad32)*%
X152750000Y-29650000D03*
%TO.P,U1,33,IO19*%
%TO.N,IO2*%
X151950000Y-29650000D03*
%TO.P,U1,34,IO22*%
%TO.N,IO3*%
X151150000Y-29650000D03*
%TO.P,U1,35,IO21*%
%TO.N,IO4*%
X150350000Y-29650000D03*
D13*
%TO.P,U1,36,GND*%
%TO.N,GND*%
X149450000Y-30750000D03*
%TO.P,U1,37,GND*%
X149450000Y-31550000D03*
%TO.P,U1,38,GND*%
X149450000Y-32350000D03*
%TO.P,U1,39,GND*%
X149450000Y-33150000D03*
%TO.P,U1,40,GND*%
X149450000Y-33950000D03*
%TO.P,U1,41,GND*%
X149450000Y-34750000D03*
%TO.P,U1,42,GND*%
X149450000Y-35550000D03*
%TO.P,U1,43,GND*%
X149450000Y-36350000D03*
%TO.P,U1,44,GND*%
X149450000Y-37150000D03*
%TO.P,U1,45,GND*%
X149450000Y-37950000D03*
%TO.P,U1,46,GND*%
X149450000Y-38750000D03*
%TO.P,U1,47,GND*%
X149450000Y-39550000D03*
%TO.P,U1,48,GND*%
X149450000Y-40350000D03*
D14*
%TO.P,U1,49,GND*%
X154350000Y-35550000D03*
X154350000Y-33575000D03*
X152375000Y-35550000D03*
D15*
X152375000Y-37525000D03*
D14*
X154350000Y-37525000D03*
X156325000Y-35550000D03*
X156325000Y-37525000D03*
X156325000Y-33575000D03*
X152375000Y-33575000D03*
D16*
%TO.P,U1,50,GND*%
X149400000Y-29600000D03*
%TO.P,U1,51,GND*%
X159300000Y-29600000D03*
%TO.P,U1,52,GND*%
X159300000Y-41500000D03*
%TO.P,U1,53,GND*%
X149400000Y-41500000D03*
%TD*%
D17*
%TO.P,J2,A1,GND*%
%TO.N,GND*%
X151050000Y-44490000D03*
%TO.P,J2,A4,VBUS*%
%TO.N,VBUS*%
X151850000Y-44490000D03*
D18*
%TO.P,J2,A5,CC1*%
%TO.N,Net-(J2-PadA5)*%
X153000000Y-44490000D03*
%TO.P,J2,A6,D+*%
%TO.N,Net-(J2-PadA6)*%
X154000000Y-44490000D03*
%TO.P,J2,A7,D-*%
%TO.N,Net-(J2-PadA7)*%
X154500000Y-44490000D03*
%TO.P,J2,A8,SBU1*%
%TO.N,unconnected-(J2-PadA8)*%
X155500000Y-44490000D03*
D17*
%TO.P,J2,A9,VBUS*%
%TO.N,VBUS*%
X156650000Y-44490000D03*
%TO.P,J2,A12,GND*%
%TO.N,GND*%
X157450000Y-44490000D03*
%TO.P,J2,B1,GND*%
X157450000Y-44490000D03*
%TO.P,J2,B4,VBUS*%
%TO.N,VBUS*%
X156650000Y-44490000D03*
D18*
%TO.P,J2,B5,CC2*%
%TO.N,Net-(J2-PadB5)*%
X156000000Y-44490000D03*
%TO.P,J2,B6,D+*%
%TO.N,Net-(J2-PadA6)*%
X155000000Y-44490000D03*
%TO.P,J2,B7,D-*%
%TO.N,Net-(J2-PadA7)*%
X153500000Y-44490000D03*
%TO.P,J2,B8,SBU2*%
%TO.N,unconnected-(J2-PadB8)*%
X152500000Y-44490000D03*
D17*
%TO.P,J2,B9,VBUS*%
%TO.N,VBUS*%
X151850000Y-44490000D03*
%TO.P,J2,B12,GND*%
%TO.N,GND*%
X151050000Y-44490000D03*
D19*
%TO.P,J2,S1,SHIELD*%
X154250000Y-48605000D03*
D20*
X149930000Y-49240000D03*
D21*
X158570000Y-45070000D03*
X149930000Y-45070000D03*
D22*
X157140000Y-45560000D03*
X151360000Y-45560000D03*
D23*
X154250000Y-48605000D03*
D20*
X158570000Y-49240000D03*
%TD*%
D24*
%TO.P,J1,1,Pin_1*%
%TO.N,IO1*%
X157500000Y-27600000D03*
D25*
%TO.P,J1,2,Pin_2*%
%TO.N,Net-(J1-Pad2)*%
X155000000Y-27600000D03*
%TO.P,J1,3,Pin_3*%
%TO.N,IO3*%
X152500000Y-27600000D03*
%TO.P,J1,4,Pin_4*%
%TO.N,IO4*%
X150000000Y-27600000D03*
%TD*%
D26*
%TO.N,GND*%
X159100000Y-23700000D03*
X149300000Y-26100000D03*
X149300000Y-22900000D03*
X149696389Y-42874208D03*
%TO.N,VBUS*%
X149250550Y-43830717D03*
%TO.N,FET*%
X152600000Y-31200000D03*
%TO.N,O*%
X158224500Y-34500000D03*
%TO.N,+3V3*%
X152000000Y-32250498D03*
%TO.N,EN*%
X150945533Y-32699021D03*
%TO.N,GND*%
X158000000Y-42500000D03*
X154500000Y-34500000D03*
X156704194Y-39622760D03*
X151500000Y-34500000D03*
%TO.N,VBUS*%
X159550500Y-42500000D03*
%TO.N,+3V3*%
X152000000Y-40500000D03*
%TO.N,IO2*%
X153750000Y-28650498D03*
%TO.N,Net-(J2-PadA7)*%
X153750000Y-42500000D03*
%TO.N,Net-(J2-PadA6)*%
X154750000Y-42500000D03*
%TO.N,Net-(J2-PadB5)*%
X155750000Y-42500000D03*
%TO.N,R*%
X158975500Y-22331283D03*
%TO.N,G*%
X156825020Y-23124520D03*
%TO.N,B*%
X158250000Y-30750000D03*
%TO.N,GPIO0*%
X155500000Y-30750000D03*
%TO.N,I*%
X154500000Y-30750000D03*
%TO.N,Net-(R11-Pad2)*%
X157649502Y-37500000D03*
X151750000Y-39000000D03*
%TO.N,Net-(J2-PadA5)*%
X150842521Y-42467345D03*
%TD*%
D27*
%TO.N,GND*%
X159100000Y-23700000D02*
X159700000Y-23700000D01*
X159700000Y-28800000D02*
X159700000Y-23700000D01*
X159700000Y-23700000D02*
X159700000Y-21900000D01*
%TO.N,R*%
X158200000Y-23000000D02*
G75*
G02*
X158868717Y-22331283I668718J-1D01*
G01*
X157550000Y-29200000D02*
G75*
G02*
X157900480Y-28849520I350479J1D01*
G01*
X158500000Y-25700000D02*
G75*
G02*
X158200000Y-24975736I724274J724268D01*
G01*
X158674519Y-26121328D02*
G75*
G03*
X158499999Y-25700001I-595844J1D01*
G01*
X157550000Y-29200000D02*
X157550000Y-29650000D01*
X158250480Y-28849520D02*
G75*
G03*
X158674520Y-28425480I2J424038D01*
G01*
X158975500Y-22331283D02*
X158868717Y-22331283D01*
X158200000Y-23000000D02*
X158200000Y-24975736D01*
X158674520Y-26121328D02*
X158674520Y-28425480D01*
X158250480Y-28849520D02*
X157900480Y-28849520D01*
%TO.N,GND*%
X149300000Y-21600000D02*
G75*
G02*
X149600000Y-21300000I300000J0D01*
G01*
X159100000Y-21300000D02*
X149600000Y-21300000D01*
X149300000Y-21600000D02*
X149300000Y-22900000D01*
X159300000Y-29600000D02*
X159417157Y-29482843D01*
X159700000Y-28800000D02*
G75*
G02*
X159417157Y-29482843I-965680J-2D01*
G01*
X159100000Y-21300000D02*
G75*
G02*
X159700000Y-21900000I0J-600000D01*
G01*
%TO.N,G*%
X156250000Y-28337868D02*
X156250000Y-26150000D01*
X156250000Y-23699540D02*
G75*
G02*
X156825020Y-23124520I575018J2D01*
G01*
X156250000Y-23699540D02*
X156250000Y-26150000D01*
%TO.N,VBUS*%
X150767441Y-43400000D02*
X151200000Y-43400000D01*
X151850000Y-44490000D02*
X151850000Y-44050000D01*
X151200000Y-43400000D02*
G75*
G02*
X151850000Y-44050000I-1J-650001D01*
G01*
X150295489Y-43595489D02*
G75*
G02*
X149727599Y-43830717I-567891J567891D01*
G01*
X150767441Y-43400000D02*
G75*
G03*
X150295489Y-43595489I0J-667440D01*
G01*
X149250550Y-43830717D02*
X149727599Y-43830717D01*
%TO.N,GND*%
X157733363Y-36133363D02*
G75*
G03*
X156325000Y-35550000I-1408362J-1408360D01*
G01*
X158400000Y-37082842D02*
G75*
G03*
X158200000Y-36600000I-682850J-4D01*
G01*
X158350000Y-41450000D02*
G75*
G03*
X158400000Y-41329290I-120713J120712D01*
G01*
X157733363Y-36133363D02*
X158200000Y-36600000D01*
X158400000Y-37082842D02*
X158400000Y-41329290D01*
%TO.N,VBUS*%
X150275262Y-51750000D02*
G75*
G02*
X148855489Y-50330227I0J1419773D01*
G01*
X159644511Y-42726962D02*
X159643672Y-42684816D01*
X159579709Y-42530395D02*
X159550500Y-42500000D01*
X157978194Y-51747873D02*
X158231972Y-51711385D01*
X158231972Y-51711385D02*
X158477974Y-51639153D01*
X148855489Y-44225778D02*
X148855489Y-50330227D01*
X148855489Y-44225778D02*
G75*
G02*
X149250550Y-43830717I395062J-1D01*
G01*
X159427156Y-50816681D02*
X159533664Y-50583463D01*
X150275262Y-51750000D02*
X157850000Y-51750000D01*
X158477974Y-51639153D02*
X158711192Y-51532645D01*
X158711192Y-51532645D02*
X158926879Y-51394032D01*
X158926879Y-51394032D02*
X159120644Y-51226133D01*
X159288543Y-51032368D02*
X159427156Y-50816681D01*
X159605896Y-50337461D02*
X159642384Y-50083683D01*
X159120644Y-51226133D02*
X159288543Y-51032368D01*
X157850000Y-51750000D02*
X157978194Y-51747873D01*
X159621855Y-42603395D02*
X159579709Y-42530395D01*
X159533664Y-50583463D02*
X159605896Y-50337461D01*
X159643672Y-42684816D02*
X159621855Y-42603395D01*
X159642384Y-50083683D02*
X159644511Y-49955489D01*
X159644511Y-49955489D02*
X159644511Y-42726962D01*
%TO.N,GND*%
X149691843Y-42869662D02*
X149696389Y-42874208D01*
X149562600Y-42869661D02*
G75*
G02*
X149400001Y-42600000I146624J272263D01*
G01*
X149562600Y-42869662D02*
X149691843Y-42869662D01*
X149400000Y-41500000D02*
X149400000Y-42600000D01*
%TO.N,Net-(J2-PadA5)*%
X152334283Y-42501966D02*
G75*
G02*
X152999999Y-43250000I-89753J-750122D01*
G01*
X152334283Y-42501965D02*
X150877141Y-42501965D01*
X153000000Y-44490000D02*
X153000000Y-43250000D01*
X150877141Y-42501965D02*
X150842521Y-42467345D01*
%TO.N,O*%
X158198041Y-33414389D02*
X158198041Y-34473541D01*
X154250000Y-31500000D02*
G75*
G02*
X153550000Y-30800000I-1J699999D01*
G01*
X157600000Y-32100000D02*
G75*
G03*
X156151472Y-31500000I-1448530J-1448532D01*
G01*
%TO.N,FET*%
X156900000Y-32300000D02*
G75*
G02*
X157500000Y-32900000I0J-600000D01*
G01*
X156900000Y-32300000D02*
X156400000Y-32300000D01*
X159200000Y-35600000D02*
X158100000Y-35600000D01*
X159200000Y-35600000D02*
G75*
G03*
X159250000Y-35550000I-1J50001D01*
G01*
X152600000Y-31200000D02*
G75*
G03*
X153700000Y-32300000I1100002J2D01*
G01*
%TO.N,O*%
X153550000Y-29650000D02*
X153550000Y-30800000D01*
X158198041Y-34473541D02*
X158224500Y-34500000D01*
X154250000Y-31500000D02*
X156151472Y-31500000D01*
%TO.N,FET*%
X157500000Y-34900000D02*
X157500000Y-32900000D01*
X157500000Y-35000000D02*
G75*
G03*
X158100000Y-35600000I600000J0D01*
G01*
X156400000Y-32300000D02*
X153700000Y-32300000D01*
%TO.N,O*%
X158198041Y-33414389D02*
G75*
G03*
X157600000Y-32100000I-2062565J-145210D01*
G01*
%TO.N,FET*%
X157500000Y-35000000D02*
X157500000Y-34900000D01*
%TO.N,+3V3*%
X151006436Y-31751638D02*
X151248362Y-31751638D01*
X151501140Y-31751638D02*
G75*
G02*
X152000000Y-32250498I-1J-498861D01*
G01*
X151501140Y-31751638D02*
X151248362Y-31751638D01*
X150221032Y-39378968D02*
G75*
G03*
X151342064Y-40500000I1121033J1D01*
G01*
X150221032Y-39378968D02*
X150221032Y-32621032D01*
X152000000Y-40500000D02*
X151342064Y-40500000D01*
X151006436Y-31751638D02*
G75*
G03*
X150221032Y-32621032I90606J-871314D01*
G01*
%TO.N,EN*%
X150775499Y-39050099D02*
X150775499Y-33109519D01*
X150945533Y-32699021D02*
G75*
G03*
X150775499Y-33109519I410493J-410496D01*
G01*
%TO.N,GND*%
X152375000Y-33575000D02*
X152375000Y-33625000D01*
X152375000Y-33625000D02*
X151500000Y-34500000D01*
%TO.N,VBUS*%
X156650000Y-44490000D02*
X156650000Y-43950000D01*
X159000000Y-43500000D02*
X157100000Y-43500000D01*
X159000000Y-43500000D02*
G75*
G02*
X159644511Y-44144511I0J-644511D01*
G01*
X157100000Y-43500000D02*
G75*
G03*
X156650000Y-43950000I0J-450000D01*
G01*
%TO.N,+3V3*%
X152000000Y-41400000D02*
X151950000Y-41450000D01*
X152000000Y-40500000D02*
X152000000Y-41400000D01*
%TO.N,IO2*%
X153500498Y-28900000D02*
X152500000Y-28900000D01*
X151950000Y-29450000D02*
X151950000Y-29650000D01*
X153750000Y-28650498D02*
X153500498Y-28900000D01*
X151950000Y-29450000D02*
G75*
G02*
X152500000Y-28900000I549999J1D01*
G01*
%TO.N,IO1*%
X156750000Y-29650000D02*
X156750000Y-29410660D01*
X157500000Y-27600000D02*
G75*
G03*
X156750000Y-29410660I1810664J-1810662D01*
G01*
%TO.N,IO4*%
X150350000Y-29650000D02*
X150350000Y-27950000D01*
X150000000Y-27600000D02*
G75*
G02*
X150350000Y-27950000I-1J-350001D01*
G01*
%TO.N,IO3*%
X151150000Y-29650000D02*
X151150000Y-28950000D01*
X152500000Y-27600000D02*
G75*
G03*
X151150000Y-28950000I1J-1350001D01*
G01*
%TO.N,Net-(J2-PadA7)*%
X154500000Y-44000000D02*
X154500000Y-44490000D01*
X153500000Y-44490000D02*
X153500000Y-44000000D01*
X154000000Y-43500000D02*
X154000000Y-42750000D01*
X153750000Y-42500000D02*
G75*
G02*
X154000000Y-42750000I1J-249999D01*
G01*
X154500000Y-44000000D02*
G75*
G03*
X154000000Y-43500000I-500001J-1D01*
G01*
X154000000Y-43500000D02*
G75*
G03*
X153500000Y-44000000I1J-500001D01*
G01*
%TO.N,Net-(J2-PadA6)*%
X154000000Y-44490000D02*
X154000000Y-45000000D01*
X155000000Y-42750000D02*
X155000000Y-44490000D01*
X155000000Y-45000000D02*
X155000000Y-44490000D01*
X155000000Y-45000000D02*
G75*
G02*
X154500000Y-45500000I-500001J1D01*
G01*
X154500000Y-45500000D02*
G75*
G02*
X154000000Y-45000000I1J500001D01*
G01*
X155000000Y-42750000D02*
G75*
G03*
X154750000Y-42500000I-249999J1D01*
G01*
%TO.N,Net-(J2-PadB5)*%
X156000000Y-44490000D02*
X156000000Y-42750000D01*
X155750000Y-42500000D02*
G75*
G02*
X156000000Y-42750000I1J-249999D01*
G01*
%TO.N,G*%
X155950000Y-29650000D02*
X155950000Y-29062132D01*
X156249999Y-28337868D02*
G75*
G02*
X156100000Y-28700000I-512125J-3D01*
G01*
X156100000Y-28700000D02*
G75*
G03*
X155950000Y-29062132I362137J-362134D01*
G01*
%TO.N,B*%
X159250000Y-30750000D02*
X158250000Y-30750000D01*
%TO.N,EN*%
X155950000Y-40800000D02*
X155950000Y-41450000D01*
X151449901Y-39724501D02*
X152025499Y-39724501D01*
X152791994Y-40041993D02*
X153000000Y-40250000D01*
X153603553Y-40500000D02*
X155650000Y-40500000D01*
X151449901Y-39724501D02*
G75*
G02*
X150775499Y-39050099I1J674403D01*
G01*
X152791994Y-40041993D02*
G75*
G03*
X152025499Y-39724501I-766497J-766503D01*
G01*
X153603553Y-40500000D02*
G75*
G02*
X153000000Y-40250000I0J853552D01*
G01*
X155950000Y-40800000D02*
G75*
G03*
X155650000Y-40500000I-300000J0D01*
G01*
%TO.N,GPIO0*%
X157000000Y-31000000D02*
X157196446Y-31196446D01*
X155500000Y-30750000D02*
X156396447Y-30750000D01*
X159250000Y-31550000D02*
X158050000Y-31550000D01*
X158050000Y-31550000D02*
G75*
G02*
X157196446Y-31196446I2J1207111D01*
G01*
X157000000Y-31000000D02*
G75*
G03*
X156396447Y-30750000I-603555J-603556D01*
G01*
%TO.N,I*%
X154350000Y-29650000D02*
X154350000Y-30600000D01*
X154350000Y-30600000D02*
X154500000Y-30750000D01*
%TO.N,Net-(R11-Pad2)*%
X156750000Y-38750000D02*
X152000000Y-38750000D01*
X157649502Y-37500000D02*
X157649502Y-37850498D01*
X151750000Y-39000000D02*
G75*
G02*
X152000000Y-38750000I249999J1D01*
G01*
X156750000Y-38750000D02*
G75*
G03*
X157649502Y-37850498I0J899502D01*
G01*
%TD*%
%TA.AperFunction,Conductor*%
%TO.N,GND*%
G36*
X151179919Y-43781051D02*
G01*
X151189208Y-43782522D01*
X151253361Y-43812932D01*
X151290890Y-43873200D01*
X151295500Y-43906971D01*
X151295501Y-44486412D01*
X151295501Y-44618000D01*
X151275499Y-44686121D01*
X151221843Y-44732614D01*
X151169501Y-44744000D01*
X150633326Y-44744000D01*
X150607681Y-44751530D01*
X150302021Y-45057189D01*
X150294408Y-45071132D01*
X150294539Y-45072966D01*
X150298790Y-45079580D01*
X150968391Y-45749180D01*
X150980161Y-45755607D01*
X150992176Y-45746311D01*
X151020466Y-45705907D01*
X151025946Y-45696417D01*
X151051904Y-45640749D01*
X151098821Y-45587464D01*
X151166099Y-45567999D01*
X151394669Y-45567999D01*
X151401490Y-45567629D01*
X151452352Y-45562105D01*
X151467604Y-45558479D01*
X151588054Y-45513324D01*
X151603649Y-45504786D01*
X151705724Y-45428285D01*
X151718281Y-45415728D01*
X151756348Y-45364935D01*
X151813208Y-45322420D01*
X151857175Y-45314500D01*
X152163177Y-45314499D01*
X152175066Y-45314499D01*
X152249301Y-45299734D01*
X152249782Y-45302153D01*
X152303294Y-45296404D01*
X152320298Y-45301803D01*
X152320412Y-45301411D01*
X152329671Y-45304110D01*
X152338404Y-45308182D01*
X152347957Y-45309440D01*
X152347958Y-45309440D01*
X152373858Y-45312850D01*
X152386392Y-45314500D01*
X152613608Y-45314500D01*
X152661596Y-45308182D01*
X152696752Y-45291789D01*
X152766942Y-45281128D01*
X152803246Y-45291788D01*
X152838404Y-45308182D01*
X152886392Y-45314500D01*
X153113608Y-45314500D01*
X153161596Y-45308182D01*
X153196752Y-45291789D01*
X153266942Y-45281128D01*
X153303246Y-45291788D01*
X153338404Y-45308182D01*
X153386392Y-45314500D01*
X153595327Y-45314500D01*
X153663448Y-45334502D01*
X153706449Y-45381103D01*
X153765184Y-45490988D01*
X153875090Y-45624910D01*
X154009012Y-45734816D01*
X154034529Y-45748455D01*
X154156343Y-45813567D01*
X154156346Y-45813568D01*
X154161801Y-45816484D01*
X154327587Y-45866775D01*
X154488371Y-45882611D01*
X154494734Y-45883427D01*
X154495109Y-45883456D01*
X154499999Y-45884231D01*
X154500001Y-45884231D01*
X154504891Y-45883456D01*
X154505266Y-45883427D01*
X154511629Y-45882611D01*
X154672413Y-45866775D01*
X154838199Y-45816484D01*
X154843654Y-45813568D01*
X154843657Y-45813567D01*
X154965471Y-45748455D01*
X154990988Y-45734816D01*
X155124910Y-45624910D01*
X155234816Y-45490988D01*
X155293551Y-45381103D01*
X155343304Y-45330455D01*
X155404673Y-45314500D01*
X155613608Y-45314500D01*
X155661596Y-45308182D01*
X155696752Y-45291789D01*
X155766942Y-45281128D01*
X155803246Y-45291788D01*
X155838404Y-45308182D01*
X155886392Y-45314500D01*
X156113608Y-45314500D01*
X156126142Y-45312850D01*
X156152042Y-45309440D01*
X156152043Y-45309440D01*
X156161596Y-45308182D01*
X156170329Y-45304110D01*
X156179588Y-45301411D01*
X156180343Y-45304001D01*
X156236031Y-45295545D01*
X156250129Y-45299353D01*
X156250699Y-45299734D01*
X156253882Y-45300367D01*
X156253889Y-45300369D01*
X156318223Y-45313165D01*
X156324933Y-45314500D01*
X156642826Y-45314500D01*
X156710944Y-45334501D01*
X156743651Y-45364934D01*
X156781718Y-45415727D01*
X156794276Y-45428285D01*
X156896351Y-45504786D01*
X156911946Y-45513324D01*
X157032394Y-45558478D01*
X157047649Y-45562105D01*
X157098514Y-45567631D01*
X157105328Y-45568000D01*
X157333901Y-45568000D01*
X157402022Y-45588002D01*
X157448095Y-45640749D01*
X157474052Y-45696412D01*
X157479534Y-45705907D01*
X157508411Y-45747149D01*
X157518887Y-45755523D01*
X157532334Y-45748455D01*
X158197979Y-45082811D01*
X158205592Y-45068868D01*
X158205461Y-45067034D01*
X158201210Y-45060421D01*
X157897597Y-44756808D01*
X157874141Y-44744000D01*
X157330500Y-44744000D01*
X157262379Y-44723998D01*
X157215886Y-44670342D01*
X157204500Y-44618000D01*
X157204499Y-44005500D01*
X157224501Y-43937379D01*
X157278157Y-43890886D01*
X157330499Y-43879500D01*
X157578000Y-43879500D01*
X157646121Y-43899502D01*
X157692614Y-43953158D01*
X157704000Y-44005500D01*
X157704000Y-44082235D01*
X157707237Y-44093260D01*
X157714330Y-44090021D01*
X157742686Y-44061665D01*
X157804998Y-44027639D01*
X157875813Y-44032704D01*
X157920876Y-44061665D01*
X158082399Y-44223188D01*
X158105861Y-44236000D01*
X158172000Y-44236000D01*
X158240121Y-44256002D01*
X158286614Y-44309658D01*
X158298000Y-44362000D01*
X158298000Y-44420674D01*
X158305531Y-44446321D01*
X158840115Y-44980905D01*
X158874141Y-45043217D01*
X158869076Y-45114032D01*
X158840115Y-45159095D01*
X158570000Y-45429210D01*
X157890824Y-46108387D01*
X157884394Y-46120162D01*
X157893690Y-46132176D01*
X157934088Y-46160464D01*
X157943584Y-46165947D01*
X158133113Y-46254326D01*
X158143405Y-46258072D01*
X158345401Y-46312196D01*
X158356196Y-46314099D01*
X158564525Y-46332326D01*
X158575475Y-46332326D01*
X158783804Y-46314099D01*
X158794599Y-46312196D01*
X158996595Y-46258072D01*
X159006887Y-46254326D01*
X159085761Y-46217546D01*
X159155952Y-46206885D01*
X159220765Y-46235865D01*
X159259622Y-46295284D01*
X159265011Y-46331741D01*
X159265011Y-48112063D01*
X159245009Y-48180184D01*
X159191353Y-48226677D01*
X159121079Y-48236781D01*
X159086690Y-48225877D01*
X159086575Y-48226165D01*
X159082615Y-48224585D01*
X159081804Y-48224328D01*
X159081203Y-48224022D01*
X158898531Y-48151143D01*
X158887504Y-48147876D01*
X158694605Y-48109506D01*
X158683159Y-48108303D01*
X158486507Y-48105730D01*
X158475027Y-48106633D01*
X158281199Y-48139938D01*
X158270079Y-48142918D01*
X158085557Y-48210992D01*
X158075179Y-48215942D01*
X157984146Y-48270101D01*
X157974547Y-48280436D01*
X157978033Y-48288823D01*
X158840115Y-49150905D01*
X158874141Y-49213217D01*
X158869076Y-49284032D01*
X158840115Y-49329095D01*
X157981237Y-50187973D01*
X157975041Y-50199319D01*
X157984923Y-50211809D01*
X158022259Y-50236756D01*
X158032371Y-50242247D01*
X158213081Y-50319885D01*
X158224014Y-50323437D01*
X158415844Y-50366845D01*
X158427253Y-50368347D01*
X158623783Y-50376068D01*
X158635265Y-50375466D01*
X158829905Y-50347245D01*
X158841101Y-50344557D01*
X159019188Y-50284104D01*
X159090123Y-50281148D01*
X159151396Y-50317011D01*
X159183553Y-50380308D01*
X159180592Y-50438894D01*
X159179726Y-50441843D01*
X159173442Y-50458694D01*
X159096968Y-50626146D01*
X159088353Y-50641924D01*
X158988832Y-50796782D01*
X158978058Y-50811173D01*
X158857509Y-50950294D01*
X158844803Y-50963001D01*
X158705679Y-51083553D01*
X158691298Y-51094318D01*
X158536433Y-51193844D01*
X158520657Y-51202458D01*
X158353209Y-51278930D01*
X158336374Y-51285209D01*
X158159735Y-51337074D01*
X158142191Y-51340891D01*
X157955794Y-51367691D01*
X157939967Y-51368955D01*
X157847866Y-51370483D01*
X157845776Y-51370500D01*
X150315050Y-51370500D01*
X150295339Y-51368949D01*
X150285056Y-51367320D01*
X150285055Y-51367320D01*
X150275262Y-51365769D01*
X150265467Y-51367321D01*
X150255551Y-51367321D01*
X150255551Y-51366946D01*
X150240613Y-51367469D01*
X150105596Y-51355656D01*
X150083977Y-51351844D01*
X149930114Y-51310616D01*
X149909477Y-51303105D01*
X149765116Y-51235788D01*
X149746096Y-51224806D01*
X149615614Y-51133442D01*
X149598789Y-51119324D01*
X149486165Y-51006700D01*
X149472047Y-50989876D01*
X149380683Y-50859395D01*
X149369701Y-50840374D01*
X149302384Y-50696012D01*
X149294872Y-50675374D01*
X149281681Y-50626146D01*
X149253645Y-50521512D01*
X149249832Y-50499889D01*
X149239211Y-50378490D01*
X149253200Y-50308885D01*
X149302600Y-50257892D01*
X149371726Y-50241702D01*
X149414469Y-50251740D01*
X149573081Y-50319885D01*
X149584014Y-50323437D01*
X149775844Y-50366845D01*
X149787253Y-50368347D01*
X149983783Y-50376068D01*
X149995265Y-50375466D01*
X150189905Y-50347245D01*
X150201101Y-50344557D01*
X150387343Y-50281336D01*
X150397840Y-50276662D01*
X150516401Y-50210266D01*
X150526264Y-50200189D01*
X150523309Y-50192519D01*
X149659885Y-49329095D01*
X149625859Y-49266783D01*
X149627694Y-49241132D01*
X150294408Y-49241132D01*
X150294539Y-49242965D01*
X150298790Y-49249580D01*
X150878603Y-49829393D01*
X150890983Y-49836153D01*
X150897563Y-49831227D01*
X150966662Y-49707840D01*
X150971336Y-49697343D01*
X151034557Y-49511101D01*
X151037245Y-49499905D01*
X151065762Y-49303224D01*
X151066392Y-49295843D01*
X151067757Y-49243704D01*
X151067514Y-49236305D01*
X151065647Y-49215980D01*
X157432914Y-49215980D01*
X157445777Y-49412233D01*
X157447577Y-49423601D01*
X157495991Y-49614228D01*
X157499829Y-49625066D01*
X157582173Y-49803685D01*
X157587922Y-49813642D01*
X157597850Y-49827690D01*
X157608439Y-49836078D01*
X157621740Y-49829050D01*
X158197978Y-49252812D01*
X158205592Y-49238868D01*
X158205461Y-49237035D01*
X158201210Y-49230420D01*
X157620031Y-48649241D01*
X157607651Y-48642481D01*
X157601685Y-48646947D01*
X157521452Y-48799445D01*
X157517047Y-48810079D01*
X157458724Y-48997910D01*
X157456332Y-49009164D01*
X157433215Y-49204479D01*
X157432914Y-49215980D01*
X151065647Y-49215980D01*
X151049330Y-49038397D01*
X151047233Y-49027083D01*
X150993846Y-48837789D01*
X150989724Y-48827050D01*
X150902736Y-48650656D01*
X150901577Y-48648765D01*
X150892732Y-48642126D01*
X150880312Y-48648898D01*
X150302022Y-49227188D01*
X150294408Y-49241132D01*
X149627694Y-49241132D01*
X149630924Y-49195968D01*
X149659885Y-49150905D01*
X150518407Y-48292383D01*
X150525167Y-48280003D01*
X150519137Y-48271948D01*
X150451459Y-48229246D01*
X150441211Y-48224025D01*
X150258531Y-48151143D01*
X150247504Y-48147876D01*
X150054605Y-48109506D01*
X150043159Y-48108303D01*
X149846507Y-48105730D01*
X149835027Y-48106633D01*
X149641199Y-48139938D01*
X149630079Y-48142918D01*
X149445557Y-48210992D01*
X149435185Y-48215939D01*
X149425413Y-48221753D01*
X149356643Y-48239393D01*
X149289252Y-48217053D01*
X149244638Y-48161826D01*
X149234989Y-48113468D01*
X149234989Y-46331741D01*
X149254991Y-46263620D01*
X149308647Y-46217127D01*
X149378921Y-46207023D01*
X149414239Y-46217546D01*
X149493113Y-46254326D01*
X149503405Y-46258072D01*
X149705401Y-46312196D01*
X149716196Y-46314099D01*
X149924525Y-46332326D01*
X149935475Y-46332326D01*
X150143804Y-46314099D01*
X150154599Y-46312196D01*
X150356595Y-46258072D01*
X150366887Y-46254326D01*
X150556416Y-46165947D01*
X150565912Y-46160464D01*
X150607148Y-46131590D01*
X150615523Y-46121113D01*
X150608455Y-46107667D01*
X149659884Y-45159095D01*
X149625859Y-45096783D01*
X149630924Y-45025967D01*
X149659885Y-44980905D01*
X149930000Y-44710790D01*
X150189188Y-44451601D01*
X150202000Y-44428139D01*
X150202000Y-44362000D01*
X150222002Y-44293879D01*
X150275658Y-44247386D01*
X150328000Y-44236000D01*
X150386674Y-44236000D01*
X150412319Y-44228470D01*
X150579124Y-44061665D01*
X150641436Y-44027639D01*
X150712251Y-44032704D01*
X150757314Y-44061665D01*
X150783190Y-44087541D01*
X150793276Y-44093048D01*
X150796000Y-44085744D01*
X150796000Y-43905500D01*
X150816002Y-43837379D01*
X150869658Y-43790886D01*
X150922000Y-43779500D01*
X151160211Y-43779500D01*
X151179919Y-43781051D01*
G37*
%TD.AperFunction*%
%TA.AperFunction,Conductor*%
G36*
X149596121Y-29366002D02*
G01*
X149642614Y-29419658D01*
X149654000Y-29472000D01*
X149654000Y-30479612D01*
X149651121Y-30506395D01*
X149650000Y-30511548D01*
X149650000Y-30531885D01*
X149654475Y-30547124D01*
X149655865Y-30548329D01*
X149663548Y-30550000D01*
X150339884Y-30550000D01*
X150355123Y-30545525D01*
X150356328Y-30544135D01*
X150357999Y-30536452D01*
X150357999Y-30505331D01*
X150357630Y-30498512D01*
X150351720Y-30444105D01*
X150364249Y-30374223D01*
X150412570Y-30322208D01*
X150476982Y-30304499D01*
X150575066Y-30304499D01*
X150617762Y-30296007D01*
X150637126Y-30292156D01*
X150637128Y-30292155D01*
X150649301Y-30289734D01*
X150659621Y-30282839D01*
X150659622Y-30282838D01*
X150679998Y-30269223D01*
X150747751Y-30248008D01*
X150820002Y-30269223D01*
X150840379Y-30282839D01*
X150840382Y-30282840D01*
X150850699Y-30289734D01*
X150924933Y-30304500D01*
X151149963Y-30304500D01*
X151375066Y-30304499D01*
X151417762Y-30296007D01*
X151437126Y-30292156D01*
X151437128Y-30292155D01*
X151449301Y-30289734D01*
X151459621Y-30282839D01*
X151459622Y-30282838D01*
X151479998Y-30269223D01*
X151547751Y-30248008D01*
X151620002Y-30269223D01*
X151640379Y-30282839D01*
X151640382Y-30282840D01*
X151650699Y-30289734D01*
X151724933Y-30304500D01*
X151949963Y-30304500D01*
X152175066Y-30304499D01*
X152217762Y-30296007D01*
X152237126Y-30292156D01*
X152237128Y-30292155D01*
X152249301Y-30289734D01*
X152259621Y-30282839D01*
X152259622Y-30282838D01*
X152279998Y-30269223D01*
X152347751Y-30248008D01*
X152420002Y-30269223D01*
X152440379Y-30282839D01*
X152440382Y-30282840D01*
X152450699Y-30289734D01*
X152509290Y-30301388D01*
X152572199Y-30334295D01*
X152607332Y-30395990D01*
X152603532Y-30466884D01*
X152562007Y-30524471D01*
X152514123Y-30547486D01*
X152377564Y-30580271D01*
X152377562Y-30580272D01*
X152370184Y-30582043D01*
X152229414Y-30654700D01*
X152110039Y-30758838D01*
X152018950Y-30888444D01*
X152004794Y-30924753D01*
X151977534Y-30994672D01*
X151961406Y-31036037D01*
X151960414Y-31043570D01*
X151960414Y-31043571D01*
X151946577Y-31148679D01*
X151940729Y-31193096D01*
X151945068Y-31232397D01*
X151950939Y-31285572D01*
X151938533Y-31355476D01*
X151890304Y-31407576D01*
X151821563Y-31425331D01*
X151789124Y-31419973D01*
X151734021Y-31403258D01*
X151673329Y-31384847D01*
X151580999Y-31375753D01*
X151572369Y-31374404D01*
X151567289Y-31372620D01*
X151561724Y-31372138D01*
X151550479Y-31372138D01*
X151538130Y-31371531D01*
X151522564Y-31369998D01*
X151512874Y-31369044D01*
X151512206Y-31368958D01*
X151512005Y-31368958D01*
X151509172Y-31368679D01*
X151501141Y-31367407D01*
X151481064Y-31370587D01*
X151461353Y-31372138D01*
X151019957Y-31372138D01*
X151013224Y-31371958D01*
X150976599Y-31369998D01*
X150966695Y-31369468D01*
X150958450Y-31371668D01*
X150955830Y-31372158D01*
X150955160Y-31372228D01*
X150953752Y-31372547D01*
X150770488Y-31406843D01*
X150770486Y-31406844D01*
X150765450Y-31407786D01*
X150760635Y-31409531D01*
X150760633Y-31409532D01*
X150708966Y-31428262D01*
X150572905Y-31477586D01*
X150568431Y-31480092D01*
X150568422Y-31480096D01*
X150545569Y-31492896D01*
X150476361Y-31508732D01*
X150409578Y-31484638D01*
X150366423Y-31428262D01*
X150357999Y-31382964D01*
X150357999Y-31305331D01*
X150357629Y-31298510D01*
X150352105Y-31247648D01*
X150348479Y-31232397D01*
X150334171Y-31194230D01*
X150328988Y-31123423D01*
X150334171Y-31105770D01*
X150348478Y-31067606D01*
X150352105Y-31052351D01*
X150357631Y-31001486D01*
X150358000Y-30994672D01*
X150358000Y-30968115D01*
X150353525Y-30952876D01*
X150352135Y-30951671D01*
X150344452Y-30950000D01*
X149668115Y-30950000D01*
X149652876Y-30954475D01*
X149651671Y-30955865D01*
X149650000Y-30963548D01*
X149650000Y-40587803D01*
X149654000Y-40615623D01*
X149654000Y-41227885D01*
X149658475Y-41243124D01*
X149659865Y-41244329D01*
X149667548Y-41246000D01*
X150131885Y-41246000D01*
X150147124Y-41241525D01*
X150148329Y-41240135D01*
X150150000Y-41232452D01*
X150150000Y-40628000D01*
X150170002Y-40559879D01*
X150223658Y-40513386D01*
X150276000Y-40502000D01*
X150296422Y-40502000D01*
X150364543Y-40522002D01*
X150371931Y-40527132D01*
X150499509Y-40622636D01*
X150542056Y-40679472D01*
X150550000Y-40723504D01*
X150550000Y-41231885D01*
X150554475Y-41247124D01*
X150555865Y-41248329D01*
X150563548Y-41250000D01*
X151224000Y-41250000D01*
X151292121Y-41270002D01*
X151338614Y-41323658D01*
X151350000Y-41376000D01*
X151350000Y-41524000D01*
X151329998Y-41592121D01*
X151276342Y-41638614D01*
X151224000Y-41650000D01*
X150316115Y-41650000D01*
X150300876Y-41654475D01*
X150298708Y-41656976D01*
X150265883Y-41717094D01*
X150203571Y-41751120D01*
X150176786Y-41754000D01*
X149672115Y-41754000D01*
X149656876Y-41758475D01*
X149655671Y-41759865D01*
X149654000Y-41767548D01*
X149654000Y-42339884D01*
X149658475Y-42355123D01*
X149659865Y-42356328D01*
X149667548Y-42357999D01*
X149794669Y-42357999D01*
X149801490Y-42357629D01*
X149852352Y-42352105D01*
X149867603Y-42348479D01*
X149905770Y-42334171D01*
X149976577Y-42328988D01*
X149994230Y-42334171D01*
X150032394Y-42348478D01*
X150047649Y-42352105D01*
X150072257Y-42354779D01*
X150137819Y-42382022D01*
X150178245Y-42440385D01*
X150183887Y-42466215D01*
X150199800Y-42610348D01*
X150200634Y-42617898D01*
X150203244Y-42625029D01*
X150203244Y-42625031D01*
X150248977Y-42750002D01*
X150255074Y-42766664D01*
X150259310Y-42772967D01*
X150259310Y-42772968D01*
X150335875Y-42886908D01*
X150343429Y-42898150D01*
X150353274Y-42907108D01*
X150356476Y-42910022D01*
X150393396Y-42970664D01*
X150391671Y-43041639D01*
X150351847Y-43100415D01*
X150319891Y-43119622D01*
X150295239Y-43129833D01*
X150295234Y-43129835D01*
X150290670Y-43131726D01*
X150150162Y-43217829D01*
X150099750Y-43260885D01*
X150042924Y-43309419D01*
X150035157Y-43315542D01*
X150031814Y-43317971D01*
X150031813Y-43317972D01*
X150023796Y-43323797D01*
X150017971Y-43331814D01*
X150010956Y-43338829D01*
X150010494Y-43338367D01*
X150000337Y-43349139D01*
X149972542Y-43371950D01*
X149952005Y-43385672D01*
X149900655Y-43413120D01*
X149877834Y-43422573D01*
X149869052Y-43425237D01*
X149798058Y-43425871D01*
X149746368Y-43393289D01*
X149745103Y-43394709D01*
X149682384Y-43338829D01*
X149626825Y-43289328D01*
X149619439Y-43285417D01*
X149573047Y-43260854D01*
X149486824Y-43215201D01*
X149333183Y-43176609D01*
X149325584Y-43176569D01*
X149325583Y-43176569D01*
X149259731Y-43176224D01*
X149174771Y-43175779D01*
X149167386Y-43177552D01*
X149155413Y-43180426D01*
X149084505Y-43176878D01*
X149026771Y-43135558D01*
X149000542Y-43069584D01*
X149000000Y-43057907D01*
X149000000Y-42484000D01*
X149020002Y-42415879D01*
X149073658Y-42369386D01*
X149126000Y-42358000D01*
X149127885Y-42358000D01*
X149143124Y-42353525D01*
X149144329Y-42352135D01*
X149146000Y-42344452D01*
X149146000Y-40721540D01*
X149166002Y-40653419D01*
X149219658Y-40606926D01*
X149236503Y-40600644D01*
X149247124Y-40597526D01*
X149248329Y-40596135D01*
X149250000Y-40588452D01*
X149250000Y-30516115D01*
X149245525Y-30500876D01*
X149243024Y-30498708D01*
X149182906Y-30465883D01*
X149148880Y-30403571D01*
X149146000Y-30376786D01*
X149146000Y-29472000D01*
X149166002Y-29403879D01*
X149219658Y-29357386D01*
X149272000Y-29346000D01*
X149528000Y-29346000D01*
X149596121Y-29366002D01*
G37*
%TD.AperFunction*%
%TA.AperFunction,Conductor*%
G36*
X157737249Y-35911606D02*
G01*
X157763711Y-35923945D01*
X157769019Y-35925367D01*
X157769021Y-35925368D01*
X157923947Y-35966880D01*
X157923949Y-35966880D01*
X157929262Y-35968304D01*
X157934746Y-35968784D01*
X157934753Y-35968785D01*
X158021735Y-35976396D01*
X158029883Y-35977624D01*
X158033851Y-35979018D01*
X158039416Y-35979500D01*
X158051729Y-35979500D01*
X158062691Y-35979978D01*
X158081696Y-35981641D01*
X158090160Y-35982680D01*
X158090205Y-35982680D01*
X158100000Y-35984231D01*
X158120078Y-35981051D01*
X158139788Y-35979500D01*
X158471414Y-35979500D01*
X158539535Y-35999502D01*
X158586028Y-36053158D01*
X158596807Y-36117850D01*
X158596707Y-36118865D01*
X158595500Y-36124933D01*
X158595501Y-36575066D01*
X158610266Y-36649301D01*
X158617161Y-36659621D01*
X158617162Y-36659622D01*
X158630777Y-36679998D01*
X158651992Y-36747751D01*
X158630777Y-36820002D01*
X158617161Y-36840379D01*
X158617160Y-36840382D01*
X158610266Y-36850699D01*
X158595500Y-36924933D01*
X158595501Y-37375066D01*
X158610266Y-37449301D01*
X158617161Y-37459621D01*
X158617162Y-37459622D01*
X158630777Y-37479998D01*
X158651992Y-37547751D01*
X158630777Y-37620002D01*
X158617161Y-37640379D01*
X158617160Y-37640382D01*
X158610266Y-37650699D01*
X158595500Y-37724933D01*
X158595501Y-37946269D01*
X158595501Y-38042824D01*
X158575499Y-38110944D01*
X158545066Y-38143650D01*
X158494276Y-38181715D01*
X158481715Y-38194276D01*
X158405214Y-38296351D01*
X158396676Y-38311946D01*
X158351522Y-38432394D01*
X158347895Y-38447649D01*
X158342369Y-38498514D01*
X158342000Y-38505328D01*
X158342000Y-38531885D01*
X158346475Y-38547124D01*
X158347865Y-38548329D01*
X158355548Y-38550000D01*
X159324000Y-38550000D01*
X159392121Y-38570002D01*
X159438614Y-38623658D01*
X159450000Y-38676000D01*
X159450000Y-38824000D01*
X159429998Y-38892121D01*
X159376342Y-38938614D01*
X159324000Y-38950000D01*
X158360116Y-38950000D01*
X158344877Y-38954475D01*
X158343672Y-38955865D01*
X158342001Y-38963548D01*
X158342001Y-38994669D01*
X158342371Y-39001490D01*
X158347895Y-39052352D01*
X158351521Y-39067604D01*
X158396676Y-39188054D01*
X158405214Y-39203649D01*
X158481715Y-39305724D01*
X158494272Y-39318281D01*
X158545065Y-39356348D01*
X158587580Y-39413208D01*
X158595500Y-39457175D01*
X158595501Y-39642640D01*
X158595501Y-39775066D01*
X158610266Y-39849301D01*
X158617161Y-39859621D01*
X158617162Y-39859622D01*
X158630777Y-39879998D01*
X158651992Y-39947751D01*
X158630777Y-40020002D01*
X158617161Y-40040379D01*
X158617160Y-40040382D01*
X158610266Y-40050699D01*
X158595500Y-40124933D01*
X158595500Y-40131120D01*
X158595501Y-40450287D01*
X158575499Y-40518407D01*
X158564726Y-40532799D01*
X158551671Y-40547865D01*
X158550000Y-40555548D01*
X158550000Y-41227885D01*
X158554475Y-41243124D01*
X158555865Y-41244329D01*
X158563548Y-41246000D01*
X159428000Y-41246000D01*
X159496121Y-41266002D01*
X159542614Y-41319658D01*
X159554000Y-41372000D01*
X159554000Y-41628000D01*
X159533998Y-41696121D01*
X159480342Y-41742614D01*
X159428000Y-41754000D01*
X158568115Y-41754000D01*
X158552876Y-41758475D01*
X158551671Y-41759865D01*
X158550000Y-41767548D01*
X158550000Y-42339884D01*
X158554475Y-42355123D01*
X158555865Y-42356328D01*
X158563548Y-42357999D01*
X158594669Y-42357999D01*
X158601490Y-42357629D01*
X158652352Y-42352105D01*
X158667603Y-42348479D01*
X158705770Y-42334171D01*
X158776577Y-42328988D01*
X158794231Y-42334172D01*
X158812844Y-42341150D01*
X158869608Y-42383792D01*
X158894307Y-42450354D01*
X158893535Y-42475575D01*
X158892220Y-42485561D01*
X158892220Y-42485569D01*
X158891229Y-42493096D01*
X158899921Y-42571824D01*
X158905008Y-42617898D01*
X158908613Y-42650553D01*
X158911223Y-42657684D01*
X158911223Y-42657686D01*
X158952353Y-42770079D01*
X158963053Y-42799319D01*
X158967288Y-42805622D01*
X158967292Y-42805629D01*
X159046985Y-42924224D01*
X159068378Y-42991921D01*
X159049774Y-43060437D01*
X158997081Y-43108018D01*
X158942404Y-43120500D01*
X157139788Y-43120500D01*
X157120077Y-43118949D01*
X157114275Y-43118030D01*
X157100000Y-43115769D01*
X157090207Y-43117320D01*
X157089858Y-43117320D01*
X157084331Y-43118029D01*
X156937389Y-43132502D01*
X156931469Y-43134298D01*
X156931463Y-43134299D01*
X156840670Y-43161841D01*
X156781028Y-43179933D01*
X156775574Y-43182848D01*
X156775572Y-43182849D01*
X156642383Y-43254040D01*
X156636924Y-43256958D01*
X156632139Y-43260885D01*
X156585434Y-43299215D01*
X156520087Y-43326969D01*
X156450108Y-43314987D01*
X156397717Y-43267075D01*
X156379500Y-43201816D01*
X156379500Y-42789790D01*
X156381051Y-42770079D01*
X156382680Y-42759794D01*
X156384231Y-42750002D01*
X156382081Y-42736429D01*
X156381325Y-42730841D01*
X156380573Y-42724168D01*
X156384067Y-42677545D01*
X156386842Y-42670641D01*
X156409162Y-42513807D01*
X156409307Y-42500000D01*
X156390276Y-42342733D01*
X156362729Y-42269832D01*
X156362261Y-42268594D01*
X156356893Y-42197801D01*
X156390650Y-42135343D01*
X156452816Y-42101051D01*
X156504708Y-42100477D01*
X156524933Y-42104500D01*
X156749963Y-42104500D01*
X156975066Y-42104499D01*
X157010818Y-42097388D01*
X157037126Y-42092156D01*
X157037128Y-42092155D01*
X157049301Y-42089734D01*
X157059621Y-42082839D01*
X157059622Y-42082838D01*
X157079998Y-42069223D01*
X157147751Y-42048008D01*
X157220002Y-42069223D01*
X157240379Y-42082839D01*
X157240382Y-42082840D01*
X157250699Y-42089734D01*
X157324933Y-42104500D01*
X157345051Y-42104500D01*
X157642825Y-42104499D01*
X157710944Y-42124501D01*
X157743650Y-42154934D01*
X157781715Y-42205724D01*
X157794276Y-42218285D01*
X157896351Y-42294786D01*
X157911946Y-42303324D01*
X158032394Y-42348478D01*
X158047649Y-42352105D01*
X158098514Y-42357631D01*
X158105328Y-42358000D01*
X158131885Y-42358000D01*
X158147124Y-42353525D01*
X158148329Y-42352135D01*
X158150000Y-42344452D01*
X158150000Y-40560116D01*
X158145525Y-40544877D01*
X158144135Y-40543672D01*
X158136452Y-40542001D01*
X158105331Y-40542001D01*
X158098510Y-40542371D01*
X158047648Y-40547895D01*
X158032396Y-40551521D01*
X157911946Y-40596676D01*
X157896351Y-40605214D01*
X157794276Y-40681715D01*
X157781719Y-40694272D01*
X157743652Y-40745065D01*
X157686792Y-40787580D01*
X157642825Y-40795500D01*
X157345059Y-40795501D01*
X157324934Y-40795501D01*
X157289182Y-40802612D01*
X157262874Y-40807844D01*
X157262872Y-40807845D01*
X157250699Y-40810266D01*
X157240379Y-40817161D01*
X157240378Y-40817162D01*
X157220002Y-40830777D01*
X157152249Y-40851992D01*
X157079998Y-40830777D01*
X157059621Y-40817161D01*
X157059618Y-40817160D01*
X157049301Y-40810266D01*
X156975067Y-40795500D01*
X156750037Y-40795500D01*
X156524934Y-40795501D01*
X156471933Y-40806043D01*
X156401222Y-40799715D01*
X156345155Y-40756160D01*
X156322147Y-40696572D01*
X156317448Y-40654868D01*
X156317448Y-40654867D01*
X156316656Y-40647840D01*
X156266083Y-40503310D01*
X156184616Y-40373658D01*
X156076342Y-40265384D01*
X155946690Y-40183917D01*
X155802160Y-40133344D01*
X155795133Y-40132552D01*
X155795132Y-40132552D01*
X155764979Y-40129155D01*
X155738526Y-40126175D01*
X155726113Y-40124144D01*
X155723629Y-40123609D01*
X155716149Y-40120982D01*
X155710584Y-40120500D01*
X155695245Y-40120500D01*
X155681138Y-40119708D01*
X155673655Y-40118865D01*
X155662225Y-40117577D01*
X155660329Y-40117320D01*
X155659943Y-40117320D01*
X155659428Y-40117262D01*
X155650000Y-40115769D01*
X155630453Y-40118865D01*
X155629923Y-40118949D01*
X155610212Y-40120500D01*
X153643341Y-40120500D01*
X153623630Y-40118949D01*
X153623100Y-40118865D01*
X153603553Y-40115769D01*
X153593760Y-40117320D01*
X153583842Y-40117320D01*
X153583842Y-40116665D01*
X153569043Y-40117101D01*
X153523420Y-40112607D01*
X153499197Y-40107789D01*
X153434015Y-40088016D01*
X153411195Y-40078564D01*
X153351129Y-40046458D01*
X153330593Y-40032736D01*
X153295153Y-40003652D01*
X153284999Y-39992879D01*
X153284534Y-39993344D01*
X153277524Y-39986334D01*
X153271693Y-39978308D01*
X153255249Y-39966361D01*
X153240213Y-39953519D01*
X153088471Y-39801776D01*
X153075635Y-39786748D01*
X153063685Y-39770300D01*
X153055666Y-39764474D01*
X153055662Y-39764470D01*
X153054320Y-39763495D01*
X153045308Y-39756295D01*
X152918324Y-39644934D01*
X152758812Y-39538351D01*
X152755113Y-39536527D01*
X152755108Y-39536524D01*
X152668217Y-39493675D01*
X152586753Y-39453501D01*
X152582847Y-39452175D01*
X152436851Y-39402616D01*
X152378774Y-39361779D01*
X152351996Y-39296026D01*
X152360445Y-39236306D01*
X152371622Y-39208503D01*
X152415589Y-39152759D01*
X152488529Y-39129500D01*
X156710212Y-39129500D01*
X156729922Y-39131051D01*
X156750000Y-39134231D01*
X156759738Y-39132689D01*
X156759852Y-39132680D01*
X156761466Y-39132680D01*
X156764660Y-39132302D01*
X156862546Y-39124598D01*
X156950699Y-39117660D01*
X156955506Y-39116506D01*
X156955512Y-39116505D01*
X157141653Y-39071816D01*
X157141652Y-39071816D01*
X157146456Y-39070663D01*
X157332450Y-38993621D01*
X157504103Y-38888432D01*
X157657188Y-38757686D01*
X157787934Y-38604601D01*
X157893123Y-38432948D01*
X157970165Y-38246954D01*
X158008946Y-38085417D01*
X158044298Y-38023849D01*
X158049635Y-38019021D01*
X158129034Y-37951208D01*
X158129037Y-37951205D01*
X158134816Y-37946269D01*
X158227257Y-37817624D01*
X158286344Y-37670641D01*
X158308664Y-37513807D01*
X158308809Y-37500000D01*
X158289778Y-37342733D01*
X158233782Y-37194546D01*
X158144055Y-37063992D01*
X158025777Y-36958611D01*
X158018391Y-36954700D01*
X157892490Y-36888039D01*
X157892491Y-36888039D01*
X157885776Y-36884484D01*
X157732135Y-36845892D01*
X157724536Y-36845852D01*
X157724535Y-36845852D01*
X157701220Y-36845730D01*
X157680572Y-36845622D01*
X157612558Y-36825264D01*
X157566347Y-36771365D01*
X157555970Y-36733230D01*
X157552105Y-36697648D01*
X157548478Y-36682394D01*
X157510741Y-36581729D01*
X157505558Y-36510922D01*
X157510741Y-36493271D01*
X157548478Y-36392609D01*
X157552105Y-36377351D01*
X157557631Y-36326486D01*
X157558000Y-36319672D01*
X157558000Y-36025801D01*
X157578002Y-35957680D01*
X157631658Y-35911187D01*
X157701932Y-35901083D01*
X157737249Y-35911606D01*
G37*
%TD.AperFunction*%
%TA.AperFunction,Conductor*%
G36*
X156521121Y-33341002D02*
G01*
X156567614Y-33394658D01*
X156579000Y-33447000D01*
X156579000Y-37653000D01*
X156558998Y-37721121D01*
X156505342Y-37767614D01*
X156453000Y-37779000D01*
X152247000Y-37779000D01*
X152178879Y-37758998D01*
X152132386Y-37705342D01*
X152121000Y-37653000D01*
X152121000Y-37252885D01*
X152629000Y-37252885D01*
X152633475Y-37268124D01*
X152634865Y-37269329D01*
X152642548Y-37271000D01*
X154077885Y-37271000D01*
X154093124Y-37266525D01*
X154094329Y-37265135D01*
X154096000Y-37257452D01*
X154096000Y-37252885D01*
X154604000Y-37252885D01*
X154608475Y-37268124D01*
X154609865Y-37269329D01*
X154617548Y-37271000D01*
X156052885Y-37271000D01*
X156068124Y-37266525D01*
X156069329Y-37265135D01*
X156071000Y-37257452D01*
X156071000Y-35822115D01*
X156066525Y-35806876D01*
X156065135Y-35805671D01*
X156057452Y-35804000D01*
X154622115Y-35804000D01*
X154606876Y-35808475D01*
X154605671Y-35809865D01*
X154604000Y-35817548D01*
X154604000Y-37252885D01*
X154096000Y-37252885D01*
X154096000Y-35822115D01*
X154091525Y-35806876D01*
X154090135Y-35805671D01*
X154082452Y-35804000D01*
X152647115Y-35804000D01*
X152631876Y-35808475D01*
X152630671Y-35809865D01*
X152629000Y-35817548D01*
X152629000Y-37252885D01*
X152121000Y-37252885D01*
X152121000Y-35277885D01*
X152629000Y-35277885D01*
X152633475Y-35293124D01*
X152634865Y-35294329D01*
X152642548Y-35296000D01*
X154077885Y-35296000D01*
X154093124Y-35291525D01*
X154094329Y-35290135D01*
X154096000Y-35282452D01*
X154096000Y-35277885D01*
X154604000Y-35277885D01*
X154608475Y-35293124D01*
X154609865Y-35294329D01*
X154617548Y-35296000D01*
X156052885Y-35296000D01*
X156068124Y-35291525D01*
X156069329Y-35290135D01*
X156071000Y-35282452D01*
X156071000Y-33847115D01*
X156066525Y-33831876D01*
X156065135Y-33830671D01*
X156057452Y-33829000D01*
X154622115Y-33829000D01*
X154606876Y-33833475D01*
X154605671Y-33834865D01*
X154604000Y-33842548D01*
X154604000Y-35277885D01*
X154096000Y-35277885D01*
X154096000Y-33847115D01*
X154091525Y-33831876D01*
X154090135Y-33830671D01*
X154082452Y-33829000D01*
X152647115Y-33829000D01*
X152631876Y-33833475D01*
X152630671Y-33834865D01*
X152629000Y-33842548D01*
X152629000Y-35277885D01*
X152121000Y-35277885D01*
X152121000Y-33447000D01*
X152141002Y-33378879D01*
X152194658Y-33332386D01*
X152247000Y-33321000D01*
X156453000Y-33321000D01*
X156521121Y-33341002D01*
G37*
%TD.AperFunction*%
%TA.AperFunction,Conductor*%
G36*
X159707340Y-22681127D02*
G01*
X159742575Y-22742764D01*
X159746000Y-22771944D01*
X159746000Y-28616000D01*
X159725998Y-28684121D01*
X159672342Y-28730614D01*
X159620000Y-28742000D01*
X159572115Y-28742000D01*
X159556876Y-28746475D01*
X159555671Y-28747865D01*
X159554000Y-28755548D01*
X159554000Y-29728000D01*
X159533998Y-29796121D01*
X159480342Y-29842614D01*
X159428000Y-29854000D01*
X159172000Y-29854000D01*
X159103879Y-29833998D01*
X159057386Y-29780342D01*
X159046000Y-29728000D01*
X159046000Y-28760116D01*
X159032727Y-28714914D01*
X159026747Y-28705609D01*
X159027066Y-28633529D01*
X159031756Y-28618070D01*
X159042394Y-28583000D01*
X159049737Y-28508443D01*
X159051425Y-28497646D01*
X159053538Y-28491629D01*
X159054020Y-28486064D01*
X159054020Y-28471144D01*
X159054627Y-28458795D01*
X159056158Y-28443249D01*
X159057102Y-28435888D01*
X159057200Y-28435271D01*
X159058751Y-28425478D01*
X159055570Y-28405396D01*
X159054020Y-28385696D01*
X159054020Y-26161117D01*
X159055571Y-26141406D01*
X159057200Y-26131123D01*
X159057200Y-26131119D01*
X159058751Y-26121329D01*
X159056115Y-26104688D01*
X159054952Y-26094867D01*
X159044990Y-25968279D01*
X159041126Y-25952182D01*
X159010306Y-25823809D01*
X159009151Y-25818997D01*
X159007257Y-25814424D01*
X158952295Y-25681734D01*
X158952293Y-25681730D01*
X158950400Y-25677160D01*
X158870184Y-25546260D01*
X158857173Y-25531026D01*
X158787722Y-25449708D01*
X158781600Y-25441943D01*
X158777524Y-25436333D01*
X158777521Y-25436330D01*
X158771692Y-25428307D01*
X158763668Y-25422477D01*
X158756656Y-25415466D01*
X158757121Y-25415001D01*
X158746348Y-25404847D01*
X158696035Y-25343539D01*
X158682313Y-25323003D01*
X158634429Y-25233419D01*
X158624979Y-25210606D01*
X158595491Y-25113395D01*
X158590673Y-25089173D01*
X158582899Y-25010245D01*
X158583335Y-24995444D01*
X158582680Y-24995444D01*
X158582680Y-24985527D01*
X158584231Y-24975734D01*
X158581051Y-24955656D01*
X158579500Y-24935946D01*
X158579500Y-23067395D01*
X158599502Y-22999274D01*
X158653158Y-22952781D01*
X158723432Y-22942677D01*
X158737473Y-22945519D01*
X158886022Y-22984490D01*
X158969977Y-22985809D01*
X159036819Y-22986859D01*
X159036822Y-22986859D01*
X159044416Y-22986978D01*
X159198832Y-22951612D01*
X159269242Y-22916200D01*
X159333572Y-22883846D01*
X159333575Y-22883844D01*
X159340355Y-22880434D01*
X159346126Y-22875505D01*
X159346129Y-22875503D01*
X159455036Y-22782487D01*
X159455036Y-22782486D01*
X159460814Y-22777552D01*
X159517679Y-22698416D01*
X159573673Y-22654770D01*
X159644376Y-22648324D01*
X159707340Y-22681127D01*
G37*
%TD.AperFunction*%
%TA.AperFunction,Conductor*%
G36*
X159688121Y-21274002D02*
G01*
X159734614Y-21327658D01*
X159746000Y-21380000D01*
X159746000Y-21890994D01*
X159725998Y-21959115D01*
X159672342Y-22005608D01*
X159602068Y-22015712D01*
X159537488Y-21986218D01*
X159516160Y-21962361D01*
X159474355Y-21901534D01*
X159474354Y-21901532D01*
X159470053Y-21895275D01*
X159351775Y-21789894D01*
X159344389Y-21785983D01*
X159258144Y-21740319D01*
X159211774Y-21715767D01*
X159058133Y-21677175D01*
X159050534Y-21677135D01*
X159050533Y-21677135D01*
X158984681Y-21676790D01*
X158899721Y-21676345D01*
X158892341Y-21678117D01*
X158892339Y-21678117D01*
X158753063Y-21711554D01*
X158753060Y-21711555D01*
X158745684Y-21713326D01*
X158604914Y-21785983D01*
X158485539Y-21890121D01*
X158446473Y-21945706D01*
X158418001Y-21986218D01*
X158394450Y-22019727D01*
X158390577Y-22029660D01*
X158389211Y-22031430D01*
X158388103Y-22033497D01*
X158387759Y-22033312D01*
X158347201Y-22085861D01*
X158343115Y-22088513D01*
X158342607Y-22088750D01*
X158304365Y-22115527D01*
X158196874Y-22190793D01*
X158196871Y-22190795D01*
X158192363Y-22193952D01*
X158062669Y-22323646D01*
X158059512Y-22328154D01*
X158059510Y-22328157D01*
X157960624Y-22469381D01*
X157957467Y-22473890D01*
X157955144Y-22478872D01*
X157955141Y-22478877D01*
X157882276Y-22635137D01*
X157879953Y-22640119D01*
X157878531Y-22645427D01*
X157878530Y-22645429D01*
X157866986Y-22688512D01*
X157832482Y-22817283D01*
X157823163Y-22923792D01*
X157822147Y-22930535D01*
X157820982Y-22933851D01*
X157820500Y-22939416D01*
X157820500Y-22948726D01*
X157820020Y-22959708D01*
X157817775Y-22985367D01*
X157817320Y-22989075D01*
X157817320Y-22990206D01*
X157815769Y-22999999D01*
X157817320Y-23009791D01*
X157818949Y-23020076D01*
X157820500Y-23039787D01*
X157820500Y-24935950D01*
X157818949Y-24955661D01*
X157817321Y-24965942D01*
X157815769Y-24975738D01*
X157817798Y-24988544D01*
X157819080Y-25000014D01*
X157820466Y-25021165D01*
X157824924Y-25089173D01*
X157829524Y-25159358D01*
X157830326Y-25163391D01*
X157830327Y-25163397D01*
X157864618Y-25335787D01*
X157865424Y-25339837D01*
X157866750Y-25343742D01*
X157866752Y-25343751D01*
X157919719Y-25499787D01*
X157924573Y-25514086D01*
X157926396Y-25517782D01*
X157926399Y-25517790D01*
X157949653Y-25564943D01*
X158005961Y-25679123D01*
X158108193Y-25832126D01*
X158204599Y-25942057D01*
X158213478Y-25952182D01*
X158220681Y-25961197D01*
X158222480Y-25963673D01*
X158222484Y-25963677D01*
X158228308Y-25971693D01*
X158236324Y-25977517D01*
X158240643Y-25981836D01*
X158251503Y-25994217D01*
X158255934Y-25999993D01*
X158272383Y-26028482D01*
X158281300Y-26050011D01*
X158289811Y-26081775D01*
X158290761Y-26088989D01*
X158291840Y-26105440D01*
X158291840Y-26111534D01*
X158290289Y-26121327D01*
X158291840Y-26131119D01*
X158293469Y-26141404D01*
X158295020Y-26161115D01*
X158295020Y-26296069D01*
X158275018Y-26364190D01*
X158221362Y-26410683D01*
X158155410Y-26421332D01*
X158147756Y-26420500D01*
X156852244Y-26420500D01*
X156790552Y-26427202D01*
X156784169Y-26429595D01*
X156713748Y-26425919D01*
X156656104Y-26384474D01*
X156630017Y-26318444D01*
X156629500Y-26307038D01*
X156629500Y-23904056D01*
X156649502Y-23835935D01*
X156703158Y-23789442D01*
X156757479Y-23778072D01*
X156886338Y-23780096D01*
X156886341Y-23780096D01*
X156893936Y-23780215D01*
X157048352Y-23744849D01*
X157138438Y-23699541D01*
X157183092Y-23677083D01*
X157183095Y-23677081D01*
X157189875Y-23673671D01*
X157195646Y-23668742D01*
X157195649Y-23668740D01*
X157304556Y-23575724D01*
X157304556Y-23575723D01*
X157310334Y-23570789D01*
X157402775Y-23442144D01*
X157461862Y-23295161D01*
X157473135Y-23215948D01*
X157483601Y-23142411D01*
X157483601Y-23142408D01*
X157484182Y-23138327D01*
X157484327Y-23124520D01*
X157465296Y-22967253D01*
X157409300Y-22819066D01*
X157356859Y-22742764D01*
X157323875Y-22694771D01*
X157323874Y-22694769D01*
X157319573Y-22688512D01*
X157201295Y-22583131D01*
X157193909Y-22579220D01*
X157068008Y-22512559D01*
X157068009Y-22512559D01*
X157061294Y-22509004D01*
X156907653Y-22470412D01*
X156900054Y-22470372D01*
X156900053Y-22470372D01*
X156834201Y-22470027D01*
X156749241Y-22469582D01*
X156741861Y-22471354D01*
X156741859Y-22471354D01*
X156602583Y-22504791D01*
X156602580Y-22504792D01*
X156595204Y-22506563D01*
X156454434Y-22579220D01*
X156335059Y-22683358D01*
X156243970Y-22812964D01*
X156186426Y-22960557D01*
X156185900Y-22964555D01*
X156153757Y-23020907D01*
X156091022Y-23083642D01*
X156087865Y-23088150D01*
X156087863Y-23088153D01*
X156065275Y-23120412D01*
X155995223Y-23220457D01*
X155992900Y-23225439D01*
X155992897Y-23225444D01*
X155938700Y-23341672D01*
X155924638Y-23371828D01*
X155923216Y-23377136D01*
X155923215Y-23377138D01*
X155889790Y-23501884D01*
X155881410Y-23533157D01*
X155880931Y-23538635D01*
X155873767Y-23620522D01*
X155872461Y-23629180D01*
X155870982Y-23633391D01*
X155870500Y-23638956D01*
X155870500Y-23652361D01*
X155870021Y-23663338D01*
X155868576Y-23679861D01*
X155867507Y-23688567D01*
X155865769Y-23699541D01*
X155867320Y-23709334D01*
X155867320Y-23709335D01*
X155868949Y-23719618D01*
X155870500Y-23739329D01*
X155870500Y-26541840D01*
X155850498Y-26609961D01*
X155796842Y-26656454D01*
X155726568Y-26666558D01*
X155661918Y-26637004D01*
X155648835Y-26625651D01*
X155648834Y-26625650D01*
X155644304Y-26621719D01*
X155461874Y-26516181D01*
X155262778Y-26447043D01*
X155256845Y-26446183D01*
X155256842Y-26446182D01*
X155060140Y-26417662D01*
X155060137Y-26417662D01*
X155054200Y-26416801D01*
X154843667Y-26426545D01*
X154837843Y-26427949D01*
X154837840Y-26427949D01*
X154644607Y-26474518D01*
X154644605Y-26474519D01*
X154638774Y-26475924D01*
X154481573Y-26547399D01*
X154411284Y-26557385D01*
X154346752Y-26527785D01*
X154326358Y-26505178D01*
X154273766Y-26430384D01*
X154269527Y-26426765D01*
X154261272Y-26420868D01*
X153227622Y-25682547D01*
X152331763Y-25042648D01*
X152287958Y-24986779D01*
X152279000Y-24940119D01*
X152279000Y-24205000D01*
X152299002Y-24136879D01*
X152352658Y-24090386D01*
X152405000Y-24079000D01*
X153340444Y-24079000D01*
X153408565Y-24099002D01*
X153455058Y-24152658D01*
X153465162Y-24222932D01*
X153456853Y-24253218D01*
X153431289Y-24314935D01*
X153410874Y-24470000D01*
X153431289Y-24625065D01*
X153491142Y-24769563D01*
X153586354Y-24893646D01*
X153592900Y-24898669D01*
X153592904Y-24898673D01*
X153607014Y-24909500D01*
X153648881Y-24966838D01*
X153653103Y-25037709D01*
X153642577Y-25066664D01*
X153635057Y-25081423D01*
X153633506Y-25091213D01*
X153633506Y-25091214D01*
X153629993Y-25113397D01*
X153616276Y-25200000D01*
X153635057Y-25318577D01*
X153689561Y-25425547D01*
X153774453Y-25510439D01*
X153881423Y-25564943D01*
X153891213Y-25566494D01*
X153891214Y-25566494D01*
X153990208Y-25582173D01*
X154000000Y-25583724D01*
X154005797Y-25582806D01*
X154196798Y-25566095D01*
X154327679Y-25531026D01*
X154382306Y-25516389D01*
X154382308Y-25516388D01*
X154387616Y-25514966D01*
X154392598Y-25512643D01*
X154561670Y-25433804D01*
X154561675Y-25433801D01*
X154566657Y-25431478D01*
X154705944Y-25333948D01*
X154723969Y-25321327D01*
X154723972Y-25321325D01*
X154728480Y-25318168D01*
X154868168Y-25178480D01*
X154878730Y-25163397D01*
X154942312Y-25072591D01*
X154981478Y-25016657D01*
X154983801Y-25011675D01*
X154983804Y-25011670D01*
X155062643Y-24842598D01*
X155062643Y-24842597D01*
X155064966Y-24837616D01*
X155116095Y-24646798D01*
X155133313Y-24450000D01*
X155116095Y-24253202D01*
X155106848Y-24218690D01*
X155066389Y-24067694D01*
X155066388Y-24067692D01*
X155064966Y-24062384D01*
X155054429Y-24039788D01*
X154983801Y-23888325D01*
X154983799Y-23888322D01*
X154981478Y-23883344D01*
X154868168Y-23721520D01*
X154728480Y-23581832D01*
X154723972Y-23578675D01*
X154723969Y-23578673D01*
X154628136Y-23511570D01*
X154566657Y-23468522D01*
X154561675Y-23466199D01*
X154561670Y-23466196D01*
X154392598Y-23387357D01*
X154392597Y-23387357D01*
X154387616Y-23385034D01*
X154382308Y-23383612D01*
X154382306Y-23383611D01*
X154202113Y-23335329D01*
X154202112Y-23335329D01*
X154196798Y-23333905D01*
X154191322Y-23333426D01*
X154191317Y-23333425D01*
X154109140Y-23326236D01*
X154073658Y-23323132D01*
X154068580Y-23322365D01*
X154066062Y-23321481D01*
X154060509Y-23321000D01*
X154054794Y-23321000D01*
X154043833Y-23320522D01*
X154005797Y-23317194D01*
X154000000Y-23316276D01*
X153988023Y-23318173D01*
X153979967Y-23319449D01*
X153960256Y-23321000D01*
X153265144Y-23321000D01*
X153197023Y-23300998D01*
X153150530Y-23247342D01*
X153140426Y-23177068D01*
X153169920Y-23112488D01*
X153183144Y-23099334D01*
X153201452Y-23083642D01*
X154270557Y-22167266D01*
X154295775Y-22137158D01*
X154324390Y-22102994D01*
X154324391Y-22102993D01*
X154331077Y-22095010D01*
X154357325Y-22026804D01*
X154372655Y-21986971D01*
X154372656Y-21986968D01*
X154376394Y-21977254D01*
X154379660Y-21890224D01*
X154380735Y-21861574D01*
X154380735Y-21861571D01*
X154381125Y-21851168D01*
X154344759Y-21730348D01*
X154338689Y-21721885D01*
X154277292Y-21636287D01*
X154277290Y-21636285D01*
X154271219Y-21627821D01*
X154168432Y-21554642D01*
X154047484Y-21518704D01*
X154037081Y-21519131D01*
X154037080Y-21519131D01*
X153995140Y-21520854D01*
X153921416Y-21523881D01*
X153911711Y-21527655D01*
X153911708Y-21527656D01*
X153811210Y-21566741D01*
X153811208Y-21566742D01*
X153803821Y-21569615D01*
X153799292Y-21572863D01*
X152753354Y-22469381D01*
X151990129Y-23123574D01*
X151925390Y-23152720D01*
X151855172Y-23142239D01*
X151823842Y-23121565D01*
X150130133Y-21597227D01*
X150125754Y-21594433D01*
X150125751Y-21594431D01*
X150059453Y-21552134D01*
X150050674Y-21546533D01*
X149928056Y-21516785D01*
X149917686Y-21517740D01*
X149917684Y-21517740D01*
X149857704Y-21523265D01*
X149802413Y-21528358D01*
X149750440Y-21551675D01*
X149696794Y-21575742D01*
X149696792Y-21575744D01*
X149687293Y-21580005D01*
X149595109Y-21666156D01*
X149590214Y-21675347D01*
X149590213Y-21675349D01*
X149569989Y-21713326D01*
X149535801Y-21777524D01*
X149515764Y-21902097D01*
X149537160Y-22026445D01*
X149542155Y-22035583D01*
X149542156Y-22035585D01*
X149574641Y-22095010D01*
X149597681Y-22137158D01*
X149601486Y-22141230D01*
X149603516Y-22143057D01*
X149603517Y-22143058D01*
X150668280Y-23101345D01*
X150705533Y-23161783D01*
X150704197Y-23232767D01*
X150664696Y-23291760D01*
X150599572Y-23320033D01*
X150583990Y-23321000D01*
X149831935Y-23321000D01*
X149816170Y-23320010D01*
X149795167Y-23317361D01*
X149795165Y-23317361D01*
X149784832Y-23316058D01*
X149774631Y-23318173D01*
X149732826Y-23326840D01*
X149727934Y-23327754D01*
X149693863Y-23333425D01*
X149675538Y-23336475D01*
X149668790Y-23340116D01*
X149661285Y-23341672D01*
X149618738Y-23366846D01*
X149615581Y-23368714D01*
X149611271Y-23371151D01*
X149564496Y-23396390D01*
X149559292Y-23402020D01*
X149552695Y-23405923D01*
X149545935Y-23413841D01*
X149545934Y-23413842D01*
X149518191Y-23446339D01*
X149514915Y-23450027D01*
X149478849Y-23489043D01*
X149475751Y-23496051D01*
X149470771Y-23501884D01*
X149466939Y-23511568D01*
X149466938Y-23511570D01*
X149451219Y-23551297D01*
X149449297Y-23555887D01*
X149432043Y-23594914D01*
X149432042Y-23594918D01*
X149427831Y-23604443D01*
X149427170Y-23612078D01*
X149424348Y-23619209D01*
X149423860Y-23629616D01*
X149423859Y-23629619D01*
X149421858Y-23672258D01*
X149421527Y-23677223D01*
X149420442Y-23689752D01*
X149416943Y-23730147D01*
X149418791Y-23737588D01*
X149418432Y-23745245D01*
X149421339Y-23755243D01*
X149433262Y-23796253D01*
X149434555Y-23801053D01*
X149444849Y-23842491D01*
X149444850Y-23842494D01*
X149447361Y-23852601D01*
X149451518Y-23859040D01*
X149453659Y-23866402D01*
X149459648Y-23874919D01*
X149459650Y-23874924D01*
X149484212Y-23909857D01*
X149486990Y-23913978D01*
X149510153Y-23949850D01*
X149510155Y-23949853D01*
X149515803Y-23958599D01*
X149521824Y-23963346D01*
X149526233Y-23969616D01*
X149530473Y-23973235D01*
X149532692Y-23974820D01*
X149569509Y-24001118D01*
X149574279Y-24004698D01*
X149614890Y-24036713D01*
X149622192Y-24039277D01*
X149628391Y-24043176D01*
X151653642Y-25489784D01*
X151665929Y-25499784D01*
X151689043Y-25521151D01*
X151698568Y-25525362D01*
X151698571Y-25525364D01*
X151699589Y-25525814D01*
X151721877Y-25538524D01*
X151918716Y-25679123D01*
X152593505Y-26161115D01*
X152632454Y-26188936D01*
X152676260Y-26244806D01*
X152682906Y-26315491D01*
X152650282Y-26378548D01*
X152588746Y-26413957D01*
X152555908Y-26417049D01*
X152554200Y-26416801D01*
X152548210Y-26417078D01*
X152548206Y-26417078D01*
X152410868Y-26423435D01*
X152343667Y-26426545D01*
X152337843Y-26427949D01*
X152337840Y-26427949D01*
X152144607Y-26474518D01*
X152144605Y-26474519D01*
X152138774Y-26475924D01*
X152133316Y-26478406D01*
X152133312Y-26478407D01*
X152054562Y-26514213D01*
X151946916Y-26563157D01*
X151775014Y-26685096D01*
X151629272Y-26837340D01*
X151626021Y-26842375D01*
X151545946Y-26966390D01*
X151514948Y-27014397D01*
X151436166Y-27209878D01*
X151395771Y-27416729D01*
X151395500Y-27422270D01*
X151395500Y-27556428D01*
X151375498Y-27624549D01*
X151358595Y-27645523D01*
X151319595Y-27684523D01*
X151257283Y-27718549D01*
X151186468Y-27713484D01*
X151129632Y-27670937D01*
X151104821Y-27604417D01*
X151104500Y-27595428D01*
X151104500Y-27472341D01*
X151089507Y-27315194D01*
X151030177Y-27112958D01*
X150979415Y-27014397D01*
X150936422Y-26930921D01*
X150936420Y-26930918D01*
X150933676Y-26925590D01*
X150864355Y-26837340D01*
X150807192Y-26764568D01*
X150807188Y-26764564D01*
X150803486Y-26759851D01*
X150798955Y-26755919D01*
X150648835Y-26625650D01*
X150648830Y-26625646D01*
X150644304Y-26621719D01*
X150461874Y-26516181D01*
X150262778Y-26447043D01*
X150256845Y-26446183D01*
X150256842Y-26446182D01*
X150060140Y-26417662D01*
X150060137Y-26417662D01*
X150054200Y-26416801D01*
X149843667Y-26426545D01*
X149837843Y-26427949D01*
X149837840Y-26427949D01*
X149644607Y-26474518D01*
X149644605Y-26474519D01*
X149638774Y-26475924D01*
X149633316Y-26478406D01*
X149633312Y-26478407D01*
X149554562Y-26514213D01*
X149446916Y-26563157D01*
X149275014Y-26685096D01*
X149270876Y-26689419D01*
X149270871Y-26689423D01*
X149217018Y-26745679D01*
X149155462Y-26781055D01*
X149084553Y-26777536D01*
X149026803Y-26736239D01*
X149000547Y-26670276D01*
X149000000Y-26658548D01*
X149000000Y-21380000D01*
X149020002Y-21311879D01*
X149073658Y-21265386D01*
X149126000Y-21254000D01*
X159620000Y-21254000D01*
X159688121Y-21274002D01*
G37*
%TD.AperFunction*%
%TD*%
M02*
