%TF.GenerationSoftware,KiCad,Pcbnew,(6.0.2-0)*%
%TF.CreationDate,2022-03-16T16:58:31+00:00*%
%TF.ProjectId,Generic4,47656e65-7269-4633-942e-6b696361645f,1*%
%TF.SameCoordinates,Original*%
%TF.FileFunction,Copper,L2,Bot*%
%TF.FilePolarity,Positive*%
%FSLAX46Y46*%
G04 Gerber Fmt 4.6, Leading zero omitted, Abs format (unit mm)*
G04 Created by KiCad (PCBNEW (6.0.2-0)) date 2022-03-16 16:58:31*
%MOMM*%
%LPD*%
G01*
G04 APERTURE LIST*
G04 Aperture macros list*
%AMRoundRect*
0 Rectangle with rounded corners*
0 $1 Rounding radius*
0 $2 $3 $4 $5 $6 $7 $8 $9 X,Y pos of 4 corners*
0 Add a 4 corners polygon primitive as box body*
4,1,4,$2,$3,$4,$5,$6,$7,$8,$9,$2,$3,0*
0 Add four circle primitives for the rounded corners*
1,1,$1+$1,$2,$3*
1,1,$1+$1,$4,$5*
1,1,$1+$1,$6,$7*
1,1,$1+$1,$8,$9*
0 Add four rect primitives between the rounded corners*
20,1,$1+$1,$2,$3,$4,$5,0*
20,1,$1+$1,$4,$5,$6,$7,0*
20,1,$1+$1,$6,$7,$8,$9,0*
20,1,$1+$1,$8,$9,$2,$3,0*%
%AMFreePoly0*
4,1,43,1.487500,0.558253,1.533253,0.512500,1.550000,0.450000,1.535584,0.322050,1.493057,0.200517,1.424553,0.091493,1.333507,0.000447,1.224483,-0.068057,1.102950,-0.110584,0.975000,-0.125000,-0.975000,-0.125000,-1.102950,-0.110584,-1.224483,-0.068057,-1.333507,0.000447,-1.424553,0.091493,-1.493057,0.200517,-1.535584,0.322050,-1.550000,0.450000,-1.533253,0.512500,-1.487500,0.558253,
-1.425000,0.575000,-1.362500,0.558253,-1.316747,0.512500,-1.300000,0.450000,-1.302546,0.440498,-1.287946,0.348318,-1.241208,0.256589,-1.168411,0.183792,-1.076682,0.137054,-0.984502,0.122454,-0.975000,0.125000,0.975000,0.125000,0.984502,0.122454,1.076682,0.137054,1.168411,0.183792,1.241208,0.256589,1.287946,0.348318,1.302546,0.440498,1.300000,0.450000,1.316747,0.512500,
1.362500,0.558253,1.425000,0.575000,1.487500,0.558253,1.487500,0.558253,$1*%
%AMFreePoly1*
4,1,24,1.427950,0.110584,1.549483,0.068057,1.658507,-0.000447,1.749553,-0.091493,1.818057,-0.200517,1.860584,-0.322050,1.875000,-0.450000,1.858253,-0.512500,1.812500,-0.558253,1.750000,-0.575000,1.687500,-0.558253,1.641747,-0.512500,1.625000,-0.450000,1.627546,-0.440498,1.612946,-0.348318,1.566208,-0.256589,1.493411,-0.183792,1.401682,-0.137054,1.309502,-0.122454,1.300000,-0.125000,
-1.300000,-0.125000,-1.300000,0.125000,1.300000,0.125000,1.427950,0.110584,1.427950,0.110584,$1*%
%AMFreePoly2*
4,1,37,0.195545,0.234610,0.386273,0.188820,0.567490,0.113758,0.734733,0.011271,0.883885,-0.116117,1.011272,-0.265269,1.113759,-0.432512,1.188821,-0.613729,1.234611,-0.804457,1.250000,-1.000000,1.230970,-1.095671,1.176777,-1.176777,1.095671,-1.230970,1.000000,-1.250000,0.904329,-1.230970,0.823223,-1.176777,0.769030,-1.095671,0.750000,-1.000000,0.752427,-0.987798,0.739148,-0.852974,
0.696263,-0.711599,0.626620,-0.581306,0.532897,-0.467104,0.418695,-0.373381,0.288403,-0.303738,0.147027,-0.260852,0.012204,-0.247573,0.000002,-0.250000,-0.095669,-0.230970,-0.176775,-0.176777,-0.230968,-0.095671,-0.249998,0.000000,-0.230968,0.095671,-0.176775,0.176777,-0.095669,0.230970,0.000002,0.250000,0.195545,0.234610,0.195545,0.234610,$1*%
%AMFreePoly3*
4,1,72,6.695652,0.230924,6.776741,0.176741,6.830924,0.095652,6.849950,0.000000,6.830924,-0.095652,6.776741,-0.176741,6.695652,-0.230924,6.600000,-0.249950,5.112450,-0.249950,5.112450,-1.380300,5.176741,-1.423259,5.230924,-1.504348,5.249950,-1.600000,5.249950,-6.400000,5.236501,-6.536553,5.196669,-6.667859,5.131987,-6.788871,5.044939,-6.894939,4.938871,-6.981987,4.817859,-7.046669,
4.686553,-7.086501,4.550000,-7.099950,1.550000,-7.099950,1.413447,-7.086501,1.282141,-7.046669,1.161129,-6.981987,1.055061,-6.894939,0.968013,-6.788871,0.903331,-6.667859,0.863499,-6.536553,0.850050,-6.400000,0.850050,-5.900000,0.869076,-5.804348,0.923259,-5.723259,1.004348,-5.669076,1.100000,-5.650050,1.195652,-5.669076,1.276741,-5.723259,1.330924,-5.804348,1.349950,-5.900000,
1.349950,-6.400000,1.348562,-6.406980,1.357369,-6.462590,1.386138,-6.519052,1.430948,-6.563862,1.487410,-6.592631,1.543020,-6.601438,1.550000,-6.600050,4.550000,-6.600050,4.556980,-6.601438,4.612590,-6.592631,4.669052,-6.563862,4.713862,-6.519052,4.742631,-6.462590,4.751438,-6.406980,4.750050,-6.400000,4.750050,-1.819700,4.685759,-1.776741,4.631576,-1.695652,4.612550,-1.600000,
4.612550,-0.249950,0.000000,-0.249950,-0.095652,-0.230924,-0.176741,-0.176741,-0.230924,-0.095652,-0.249950,0.000000,-0.230924,0.095652,-0.176741,0.176741,-0.095652,0.230924,0.000000,0.249950,6.600000,0.249950,6.695652,0.230924,6.695652,0.230924,$1*%
G04 Aperture macros list end*
%TA.AperFunction,ComponentPad*%
%ADD10RoundRect,0.250000X-0.600000X-0.675000X0.600000X-0.675000X0.600000X0.675000X-0.600000X0.675000X0*%
%TD*%
%TA.AperFunction,ComponentPad*%
%ADD11O,1.700000X1.850000*%
%TD*%
%TA.AperFunction,SMDPad,CuDef*%
%ADD12RoundRect,0.200000X-0.275000X0.200000X-0.275000X-0.200000X0.275000X-0.200000X0.275000X0.200000X0*%
%TD*%
%TA.AperFunction,SMDPad,CuDef*%
%ADD13RoundRect,0.200000X-0.200000X-0.275000X0.200000X-0.275000X0.200000X0.275000X-0.200000X0.275000X0*%
%TD*%
%TA.AperFunction,ComponentPad*%
%ADD14R,1.700000X1.700000*%
%TD*%
%TA.AperFunction,ComponentPad*%
%ADD15O,1.700000X1.700000*%
%TD*%
%TA.AperFunction,SMDPad,CuDef*%
%ADD16R,0.850000X0.500000*%
%TD*%
%TA.AperFunction,SMDPad,CuDef*%
%ADD17R,0.500000X2.000000*%
%TD*%
%TA.AperFunction,SMDPad,CuDef*%
%ADD18R,0.600000X1.100000*%
%TD*%
%TA.AperFunction,SMDPad,CuDef*%
%ADD19R,1.425000X3.700000*%
%TD*%
%TA.AperFunction,SMDPad,CuDef*%
%ADD20FreePoly0,180.000000*%
%TD*%
%TA.AperFunction,SMDPad,CuDef*%
%ADD21RoundRect,0.249375X0.463125X0.625625X-0.463125X0.625625X-0.463125X-0.625625X0.463125X-0.625625X0*%
%TD*%
%TA.AperFunction,SMDPad,CuDef*%
%ADD22R,2.000000X0.500000*%
%TD*%
%TA.AperFunction,SMDPad,CuDef*%
%ADD23RoundRect,0.225000X0.250000X-0.225000X0.250000X0.225000X-0.250000X0.225000X-0.250000X-0.225000X0*%
%TD*%
%TA.AperFunction,SMDPad,CuDef*%
%ADD24FreePoly1,180.000000*%
%TD*%
%TA.AperFunction,SMDPad,CuDef*%
%ADD25RoundRect,0.250000X-0.475000X0.250000X-0.475000X-0.250000X0.475000X-0.250000X0.475000X0.250000X0*%
%TD*%
%TA.AperFunction,SMDPad,CuDef*%
%ADD26FreePoly2,180.000000*%
%TD*%
%TA.AperFunction,SMDPad,CuDef*%
%ADD27FreePoly3,180.000000*%
%TD*%
%TA.AperFunction,SMDPad,CuDef*%
%ADD28R,0.500000X4.000000*%
%TD*%
%TA.AperFunction,SMDPad,CuDef*%
%ADD29RoundRect,0.200000X0.200000X0.275000X-0.200000X0.275000X-0.200000X-0.275000X0.200000X-0.275000X0*%
%TD*%
%TA.AperFunction,ViaPad*%
%ADD30C,0.800000*%
%TD*%
%TA.AperFunction,Conductor*%
%ADD31C,0.250000*%
%TD*%
G04 APERTURE END LIST*
D10*
%TO.P,J2,1,Pin_1*%
%TO.N,GND*%
X96250000Y-51440000D03*
D11*
%TO.P,J2,2,Pin_2*%
%TO.N,DC*%
X98750000Y-51440000D03*
%TO.P,J2,3,Pin_3*%
%TO.N,IO6*%
X101250000Y-51440000D03*
%TO.P,J2,4,Pin_4*%
%TO.N,IO7*%
X103750000Y-51440000D03*
%TD*%
D12*
%TO.P,R2,1*%
%TO.N,Net-(D1-Pad3)*%
X104550000Y-43900000D03*
%TO.P,R2,2*%
%TO.N,G*%
X104550000Y-45550000D03*
%TD*%
D13*
%TO.P,R5,1*%
%TO.N,GND*%
X101700000Y-39500000D03*
%TO.P,R5,2*%
%TO.N,Net-(R4-Pad2)*%
X103350000Y-39500000D03*
%TD*%
D14*
%TO.P,J1,1,Pin_1*%
%TO.N,GND*%
X94925000Y-53980000D03*
D15*
%TO.P,J1,2,Pin_2*%
%TO.N,IO1*%
X94925000Y-56520000D03*
%TO.P,J1,3,Pin_3*%
%TO.N,GPIO0*%
X97465000Y-53980000D03*
%TO.P,J1,4,Pin_4*%
%TO.N,IO2*%
X97465000Y-56520000D03*
%TO.P,J1,5,Pin_5*%
%TO.N,EN*%
X100005000Y-53980000D03*
%TO.P,J1,6,Pin_6*%
%TO.N,IO3*%
X100005000Y-56520000D03*
%TO.P,J1,7,Pin_7*%
%TO.N,RX*%
X102545000Y-53980000D03*
%TO.P,J1,8,Pin_8*%
%TO.N,IO4*%
X102545000Y-56520000D03*
%TO.P,J1,9,Pin_9*%
%TO.N,TX*%
X105085000Y-53980000D03*
%TO.P,J1,10,Pin_10*%
%TO.N,IO5*%
X105085000Y-56520000D03*
%TD*%
D12*
%TO.P,R1,1*%
%TO.N,Net-(D1-Pad2)*%
X102700000Y-43875000D03*
%TO.P,R1,2*%
%TO.N,R*%
X102700000Y-45525000D03*
%TD*%
%TO.P,R3,1*%
%TO.N,Net-(D1-Pad4)*%
X105850000Y-43875000D03*
%TO.P,R3,2*%
%TO.N,B*%
X105850000Y-45525000D03*
%TD*%
D16*
%TO.P,D1,1,A*%
%TO.N,EN*%
X105775000Y-41100000D03*
%TO.P,D1,2,RK*%
%TO.N,Net-(D1-Pad2)*%
X104025000Y-41100000D03*
%TO.P,D1,3,GK*%
%TO.N,Net-(D1-Pad3)*%
X104025000Y-42100000D03*
%TO.P,D1,4,BK*%
%TO.N,Net-(D1-Pad4)*%
X105775000Y-42100000D03*
%TD*%
D17*
%TO.P,U2,*%
%TO.N,*%
X98900000Y-43900000D03*
D18*
X98900000Y-40250000D03*
D19*
X97450000Y-41650000D03*
D20*
X100325000Y-42050000D03*
D21*
X99052500Y-44770000D03*
D22*
X97950000Y-42950000D03*
D23*
X101950000Y-42625000D03*
D24*
X100650000Y-41150000D03*
D23*
X101950000Y-41075000D03*
D18*
X98900000Y-42950000D03*
%TO.P,U2,1,SHDN*%
%TO.N,DC*%
X100800000Y-42950000D03*
D25*
%TO.P,U2,2,VIN*%
X100700000Y-44200000D03*
D18*
X99850000Y-42950000D03*
D26*
X100910000Y-44150000D03*
D18*
%TO.P,U2,3,GND*%
%TO.N,GND*%
X99850000Y-40250000D03*
D25*
X100700000Y-46100000D03*
X94450000Y-46100000D03*
D27*
X100950000Y-46100000D03*
D21*
X96087500Y-44770000D03*
D28*
%TO.P,U2,4,VOUT*%
%TO.N,EN*%
X94450000Y-42400000D03*
D25*
X94450000Y-44200000D03*
D19*
X94450000Y-41650000D03*
D18*
%TO.P,U2,5,FB*%
%TO.N,Net-(R4-Pad2)*%
X100800000Y-40250000D03*
%TD*%
D29*
%TO.P,R4,1*%
%TO.N,EN*%
X105825000Y-39500000D03*
%TO.P,R4,2*%
%TO.N,Net-(R4-Pad2)*%
X104175000Y-39500000D03*
%TD*%
D30*
%TO.N,GND*%
X97540500Y-45250000D03*
X96100000Y-48093748D03*
X103750000Y-55250000D03*
X95950000Y-40625000D03*
%TO.N,TX*%
X103367943Y-46421273D03*
%TO.N,RX*%
X103336743Y-47638860D03*
%TO.N,EN*%
X104884187Y-40391384D03*
X95099502Y-48093748D03*
X94925000Y-41825000D03*
%TO.N,IO2*%
X98300000Y-47900000D03*
%TO.N,GPIO0*%
X102340895Y-47553469D03*
%TO.N,IO5*%
X104900000Y-48093748D03*
%TO.N,R*%
X103800000Y-43050000D03*
%TO.N,G*%
X103989877Y-44851802D03*
%TO.N,B*%
X104950581Y-46652981D03*
%TD*%
D31*
%TO.N,GND*%
X99650000Y-39450000D02*
X99650000Y-40250000D01*
X94925000Y-53980000D02*
X94925000Y-54225000D01*
X100700000Y-46100000D02*
X100700000Y-47200000D01*
X101575000Y-39500000D02*
X101375000Y-39300000D01*
X96100000Y-48093748D02*
X96100000Y-51290000D01*
X101375000Y-39300000D02*
X99800000Y-39300000D01*
X95887500Y-44770000D02*
X97060500Y-44770000D01*
X100000000Y-47900000D02*
G75*
G03*
X100700000Y-47200000I1J699999D01*
G01*
X96250000Y-51440000D02*
G75*
G02*
X96100000Y-51290000I0J150000D01*
G01*
X97540500Y-45250000D02*
G75*
G03*
X97060500Y-44770000I-480001J-1D01*
G01*
X96000000Y-55300000D02*
G75*
G02*
X94925000Y-54225000I-1J1074999D01*
G01*
X99650000Y-39450000D02*
G75*
G02*
X99800000Y-39300000I150000J0D01*
G01*
%TO.N,TX*%
X104061244Y-47114574D02*
X104061244Y-49032907D01*
X105085000Y-51504472D02*
X105085000Y-53980000D01*
X105084999Y-51504472D02*
G75*
G03*
X104699999Y-50575001I-1314466J2D01*
G01*
X104061244Y-47114574D02*
G75*
G03*
X103367943Y-46421273I-693300J1D01*
G01*
X104700000Y-50575000D02*
G75*
G02*
X104061244Y-49032907I1542104J1542098D01*
G01*
%TO.N,RX*%
X102545000Y-51115624D02*
X102545000Y-53980000D01*
X103336743Y-47638860D02*
X103336743Y-49204188D01*
X102800000Y-50500000D02*
G75*
G03*
X103336743Y-49204188I-1295814J1295813D01*
G01*
X102545000Y-51115624D02*
G75*
G02*
X102800000Y-50500000I870616J3D01*
G01*
%TO.N,Net-(D1-Pad2)*%
X102749520Y-43825480D02*
X102749520Y-42200480D01*
X103850000Y-41100000D02*
X104025000Y-41100000D01*
X102700000Y-43875000D02*
X102749520Y-43825480D01*
X103850000Y-41100000D02*
G75*
G03*
X102749520Y-42200480I0J-1100480D01*
G01*
%TO.N,DC*%
X100700000Y-44200000D02*
X101250000Y-44200000D01*
X101800000Y-44750000D02*
X101800000Y-46858579D01*
X101500000Y-47582842D02*
X101500000Y-48690000D01*
X100600000Y-42950000D02*
X99650000Y-42950000D01*
X100490000Y-49700000D02*
G75*
G03*
X101500000Y-48690000I1J1009999D01*
G01*
X101700000Y-47100000D02*
G75*
G03*
X101800000Y-46858579I-241431J241425D01*
G01*
X98750000Y-51440000D02*
G75*
G02*
X100490000Y-49700000I1739999J1D01*
G01*
X101800000Y-44750000D02*
G75*
G03*
X101250000Y-44200000I-549999J1D01*
G01*
X101500001Y-47582842D02*
G75*
G02*
X101700001Y-47100001I682833J3D01*
G01*
%TO.N,EN*%
X95099502Y-48069646D02*
X95099502Y-48093748D01*
X96290489Y-53493501D02*
X96292145Y-53420280D01*
X96388269Y-53145572D02*
X96479574Y-53031080D01*
X105775000Y-39550000D02*
X105825000Y-39500000D01*
X98120489Y-55154511D02*
X96978501Y-55154511D01*
X105775000Y-41100000D02*
X105775000Y-39550000D01*
X96479574Y-53031080D02*
X96594066Y-52939775D01*
X96393767Y-54833912D02*
X96326670Y-54694584D01*
X96726005Y-52876237D02*
X96868774Y-52843651D01*
X96611088Y-55051233D02*
X96490184Y-54954816D01*
X97480569Y-52231856D02*
X97480569Y-48255969D01*
X96292145Y-53420280D02*
X96324731Y-53277511D01*
X96750416Y-55118330D02*
X96611088Y-55051233D01*
X104884187Y-40391384D02*
X105740619Y-39534952D01*
X100005000Y-53980000D02*
X99295000Y-53980000D01*
X96490184Y-54954816D02*
X96393767Y-54833912D01*
X96594066Y-52939775D02*
X96726005Y-52876237D01*
X96292259Y-54543820D02*
X96290489Y-54466499D01*
X96326670Y-54694584D02*
X96292259Y-54543820D01*
X96901180Y-55152741D02*
X96750416Y-55118330D01*
X96290489Y-54466499D02*
X96290489Y-53493501D01*
X96324731Y-53277511D02*
X96388269Y-53145572D01*
X96978501Y-55154511D02*
X96901180Y-55152741D01*
X96593847Y-47369247D02*
X95799901Y-47369247D01*
X105825000Y-39500000D02*
G75*
G03*
X105740619Y-39534952I1J-119334D01*
G01*
X97480569Y-52231856D02*
G75*
G02*
X96868774Y-52843651I-611796J1D01*
G01*
X98750000Y-54525000D02*
G75*
G02*
X99295000Y-53980000I545001J-1D01*
G01*
X96593847Y-47369247D02*
G75*
G02*
X97480569Y-48255969I0J-886722D01*
G01*
X95099502Y-48069646D02*
G75*
G02*
X95799901Y-47369247I700399J0D01*
G01*
X98120489Y-55154511D02*
G75*
G03*
X98750000Y-54525000I-2J629513D01*
G01*
%TO.N,IO2*%
X93750489Y-50016099D02*
X93750489Y-56570489D01*
X94940000Y-57760000D02*
X96225000Y-57760000D01*
X97310000Y-46910000D02*
X95516485Y-46910000D01*
X97465000Y-56520000D02*
G75*
G02*
X96225000Y-57760000I-1240001J1D01*
G01*
X94937789Y-47149704D02*
G75*
G02*
X95516485Y-46910000I578696J-578695D01*
G01*
X97310000Y-46910000D02*
G75*
G02*
X98300000Y-47900000I1J-989999D01*
G01*
X93750489Y-50016099D02*
G75*
G02*
X94937789Y-47149704I4053691J1D01*
G01*
X94940000Y-57760000D02*
G75*
G02*
X93750489Y-56570489I1J1189512D01*
G01*
%TO.N,Net-(D1-Pad3)*%
X104725000Y-42800000D02*
X104725000Y-43650000D01*
X104550000Y-43900000D02*
G75*
G03*
X104800000Y-43650000I1J249999D01*
G01*
X104725000Y-42800000D02*
G75*
G03*
X104025000Y-42100000I-699999J1D01*
G01*
%TO.N,Net-(D1-Pad4)*%
X105775000Y-42100000D02*
X105775000Y-43750000D01*
X105975000Y-43875000D02*
G75*
G02*
X105850000Y-43750000I1J125001D01*
G01*
%TO.N,GPIO0*%
X102340895Y-47553469D02*
X102340895Y-49059105D01*
X98850000Y-52900000D02*
X98545000Y-52900000D01*
X100075480Y-51324520D02*
X100075480Y-51674520D01*
X98850000Y-52900000D02*
G75*
G03*
X100075480Y-51674520I-1J1225481D01*
G01*
X101300000Y-50100000D02*
G75*
G03*
X102340895Y-49059105I0J1040895D01*
G01*
X100075480Y-51324520D02*
G75*
G02*
X101300000Y-50100000I1224521J-1D01*
G01*
X97465000Y-53980000D02*
G75*
G02*
X98545000Y-52900000I1080001J-1D01*
G01*
%TO.N,IO5*%
X106270000Y-55335000D02*
X106270000Y-51401220D01*
X106270000Y-55335000D02*
G75*
G02*
X105085000Y-56520000I-1184998J-2D01*
G01*
X104900000Y-48093748D02*
G75*
G02*
X106270000Y-51401220I-3307467J-3307470D01*
G01*
%TO.N,R*%
X103499520Y-44296271D02*
X103499520Y-43350480D01*
X103499520Y-44296271D02*
X102700000Y-45095791D01*
X102700000Y-45095791D02*
X102700000Y-45525000D01*
X103800000Y-43050000D02*
G75*
G03*
X103499520Y-43350480I2J-300482D01*
G01*
%TO.N,G*%
X104052739Y-44914664D02*
X103989877Y-44851802D01*
X103989877Y-44989877D02*
X103989877Y-44851802D01*
X103989877Y-44989877D02*
G75*
G03*
X104550000Y-45550000I560122J-1D01*
G01*
%TO.N,B*%
X105043845Y-46559717D02*
X104950581Y-46652981D01*
X105975000Y-45600000D02*
X105975000Y-45525000D01*
X105191127Y-46559717D02*
X105043845Y-46559717D01*
X105191127Y-46559716D02*
G75*
G03*
X105899999Y-45600000I-298540J962164D01*
G01*
%TO.N,Net-(R4-Pad2)*%
X100649520Y-40299520D02*
X102425480Y-40299520D01*
X103225000Y-39500000D02*
X104175000Y-39500000D01*
X103225000Y-39500000D02*
G75*
G02*
X102425480Y-40299520I-799520J0D01*
G01*
%TD*%
%TA.AperFunction,Conductor*%
%TO.N,GND*%
G36*
X100490756Y-52318975D02*
G01*
X100497827Y-52324677D01*
X100548208Y-52368395D01*
X100605696Y-52418281D01*
X100788126Y-52523819D01*
X100987222Y-52592957D01*
X100993155Y-52593817D01*
X100993158Y-52593818D01*
X101189860Y-52622338D01*
X101189863Y-52622338D01*
X101195800Y-52623199D01*
X101406333Y-52613455D01*
X101412157Y-52612051D01*
X101412160Y-52612051D01*
X101605393Y-52565482D01*
X101605395Y-52565481D01*
X101611226Y-52564076D01*
X101616684Y-52561594D01*
X101616688Y-52561593D01*
X101731294Y-52509484D01*
X101803084Y-52476843D01*
X101904856Y-52404651D01*
X101966600Y-52360853D01*
X102033734Y-52337755D01*
X102102699Y-52354619D01*
X102151598Y-52406091D01*
X102165500Y-52463623D01*
X102165500Y-52854839D01*
X102145498Y-52922960D01*
X102091842Y-52969453D01*
X102083118Y-52973049D01*
X102067463Y-52978824D01*
X101893010Y-53082612D01*
X101888670Y-53086418D01*
X101888666Y-53086421D01*
X101780099Y-53181633D01*
X101740392Y-53216455D01*
X101614720Y-53375869D01*
X101612031Y-53380980D01*
X101612029Y-53380983D01*
X101587633Y-53427352D01*
X101520203Y-53555515D01*
X101460007Y-53749378D01*
X101436148Y-53950964D01*
X101449424Y-54153522D01*
X101450845Y-54159118D01*
X101450846Y-54159123D01*
X101469863Y-54234000D01*
X101499392Y-54350269D01*
X101501809Y-54355512D01*
X101581959Y-54529371D01*
X101584377Y-54534616D01*
X101701533Y-54700389D01*
X101846938Y-54842035D01*
X101851742Y-54845245D01*
X101890917Y-54871421D01*
X102015720Y-54954812D01*
X102021023Y-54957090D01*
X102021026Y-54957092D01*
X102194058Y-55031432D01*
X102202228Y-55034942D01*
X102275244Y-55051464D01*
X102394579Y-55078467D01*
X102394584Y-55078468D01*
X102400216Y-55079742D01*
X102405987Y-55079969D01*
X102405989Y-55079969D01*
X102465756Y-55082317D01*
X102603053Y-55087712D01*
X102703499Y-55073148D01*
X102798231Y-55059413D01*
X102798236Y-55059412D01*
X102803945Y-55058584D01*
X102809409Y-55056729D01*
X102809414Y-55056728D01*
X102990693Y-54995192D01*
X102990698Y-54995190D01*
X102996165Y-54993334D01*
X103173276Y-54894147D01*
X103185351Y-54884105D01*
X103324913Y-54768031D01*
X103329345Y-54764345D01*
X103386463Y-54695669D01*
X103455453Y-54612718D01*
X103455455Y-54612715D01*
X103459147Y-54608276D01*
X103558334Y-54431165D01*
X103560190Y-54425698D01*
X103560192Y-54425693D01*
X103621728Y-54244414D01*
X103621729Y-54244409D01*
X103623584Y-54238945D01*
X103624412Y-54233236D01*
X103624413Y-54233231D01*
X103652179Y-54041727D01*
X103652712Y-54038053D01*
X103654232Y-53980000D01*
X103637255Y-53795235D01*
X103636187Y-53783613D01*
X103636186Y-53783610D01*
X103635658Y-53777859D01*
X103634090Y-53772299D01*
X103582125Y-53588046D01*
X103582124Y-53588044D01*
X103580557Y-53582487D01*
X103569978Y-53561033D01*
X103493331Y-53405609D01*
X103490776Y-53400428D01*
X103369320Y-53237779D01*
X103220258Y-53099987D01*
X103215375Y-53096906D01*
X103215371Y-53096903D01*
X103053464Y-52994748D01*
X103048581Y-52991667D01*
X103003810Y-52973805D01*
X102947951Y-52929985D01*
X102924500Y-52856775D01*
X102924500Y-52531915D01*
X102944502Y-52463794D01*
X102998158Y-52417301D01*
X103068432Y-52407197D01*
X103113595Y-52422851D01*
X103207728Y-52477308D01*
X103288126Y-52523819D01*
X103487222Y-52592957D01*
X103493155Y-52593817D01*
X103493158Y-52593818D01*
X103689860Y-52622338D01*
X103689863Y-52622338D01*
X103695800Y-52623199D01*
X103906333Y-52613455D01*
X103912157Y-52612051D01*
X103912160Y-52612051D01*
X104105393Y-52565482D01*
X104105395Y-52565481D01*
X104111226Y-52564076D01*
X104116684Y-52561594D01*
X104116688Y-52561593D01*
X104231294Y-52509484D01*
X104303084Y-52476843D01*
X104458179Y-52366826D01*
X104470100Y-52358370D01*
X104470101Y-52358369D01*
X104474986Y-52354904D01*
X104479124Y-52350581D01*
X104479129Y-52350577D01*
X104488482Y-52340806D01*
X104550038Y-52305430D01*
X104620947Y-52308949D01*
X104678697Y-52350246D01*
X104704953Y-52416209D01*
X104705500Y-52427937D01*
X104705500Y-52854839D01*
X104685498Y-52922960D01*
X104631842Y-52969453D01*
X104623118Y-52973049D01*
X104607463Y-52978824D01*
X104433010Y-53082612D01*
X104428670Y-53086418D01*
X104428666Y-53086421D01*
X104320099Y-53181633D01*
X104280392Y-53216455D01*
X104154720Y-53375869D01*
X104152031Y-53380980D01*
X104152029Y-53380983D01*
X104127633Y-53427352D01*
X104060203Y-53555515D01*
X104000007Y-53749378D01*
X103976148Y-53950964D01*
X103989424Y-54153522D01*
X103990845Y-54159118D01*
X103990846Y-54159123D01*
X104009863Y-54234000D01*
X104039392Y-54350269D01*
X104041809Y-54355512D01*
X104121959Y-54529371D01*
X104124377Y-54534616D01*
X104241533Y-54700389D01*
X104386938Y-54842035D01*
X104391742Y-54845245D01*
X104430917Y-54871421D01*
X104555720Y-54954812D01*
X104561023Y-54957090D01*
X104561026Y-54957092D01*
X104734058Y-55031432D01*
X104742228Y-55034942D01*
X104815244Y-55051464D01*
X104934579Y-55078467D01*
X104934584Y-55078468D01*
X104940216Y-55079742D01*
X104945987Y-55079969D01*
X104945989Y-55079969D01*
X105005756Y-55082317D01*
X105143053Y-55087712D01*
X105243499Y-55073148D01*
X105338231Y-55059413D01*
X105338236Y-55059412D01*
X105343945Y-55058584D01*
X105349409Y-55056729D01*
X105349414Y-55056728D01*
X105530693Y-54995192D01*
X105530698Y-54995190D01*
X105536165Y-54993334D01*
X105702936Y-54899937D01*
X105772142Y-54884105D01*
X105838924Y-54908202D01*
X105882077Y-54964579D01*
X105890500Y-55009873D01*
X105890500Y-55295213D01*
X105888949Y-55314923D01*
X105885769Y-55335001D01*
X105887320Y-55344794D01*
X105887320Y-55354712D01*
X105886665Y-55354712D01*
X105887101Y-55369512D01*
X105876239Y-55479796D01*
X105871420Y-55504023D01*
X105866934Y-55518811D01*
X105828019Y-55578192D01*
X105763177Y-55607107D01*
X105692996Y-55596376D01*
X105679125Y-55588796D01*
X105612109Y-55546512D01*
X105588581Y-55531667D01*
X105400039Y-55456446D01*
X105394379Y-55455320D01*
X105394375Y-55455319D01*
X105206613Y-55417971D01*
X105206610Y-55417971D01*
X105200946Y-55416844D01*
X105195171Y-55416768D01*
X105195167Y-55416768D01*
X105093793Y-55415441D01*
X104997971Y-55414187D01*
X104992274Y-55415166D01*
X104992273Y-55415166D01*
X104806389Y-55447107D01*
X104797910Y-55448564D01*
X104607463Y-55518824D01*
X104433010Y-55622612D01*
X104428670Y-55626418D01*
X104428666Y-55626421D01*
X104303248Y-55736411D01*
X104280392Y-55756455D01*
X104154720Y-55915869D01*
X104152031Y-55920980D01*
X104152029Y-55920983D01*
X104139073Y-55945609D01*
X104060203Y-56095515D01*
X104000007Y-56289378D01*
X103976148Y-56490964D01*
X103989424Y-56693522D01*
X103990845Y-56699118D01*
X103990846Y-56699123D01*
X104011119Y-56778945D01*
X104039392Y-56890269D01*
X104041809Y-56895512D01*
X104079010Y-56976208D01*
X104124377Y-57074616D01*
X104241533Y-57240389D01*
X104245675Y-57244424D01*
X104310970Y-57308031D01*
X104386938Y-57382035D01*
X104555720Y-57494812D01*
X104561023Y-57497090D01*
X104561026Y-57497092D01*
X104649707Y-57535192D01*
X104742228Y-57574942D01*
X104816524Y-57591753D01*
X104840183Y-57597107D01*
X104902210Y-57631650D01*
X104935714Y-57694243D01*
X104930060Y-57765014D01*
X104887041Y-57821494D01*
X104820316Y-57845749D01*
X104812375Y-57846000D01*
X102835687Y-57846000D01*
X102767566Y-57825998D01*
X102721073Y-57772342D01*
X102710969Y-57702068D01*
X102740463Y-57637488D01*
X102804033Y-57598843D01*
X102803945Y-57598584D01*
X102880309Y-57572662D01*
X102990693Y-57535192D01*
X102990698Y-57535190D01*
X102996165Y-57533334D01*
X103173276Y-57434147D01*
X103235934Y-57382035D01*
X103324913Y-57308031D01*
X103329345Y-57304345D01*
X103386463Y-57235669D01*
X103455453Y-57152718D01*
X103455455Y-57152715D01*
X103459147Y-57148276D01*
X103518845Y-57041677D01*
X103555510Y-56976208D01*
X103555511Y-56976206D01*
X103558334Y-56971165D01*
X103560190Y-56965698D01*
X103560192Y-56965693D01*
X103621728Y-56784414D01*
X103621729Y-56784409D01*
X103623584Y-56778945D01*
X103624412Y-56773236D01*
X103624413Y-56773231D01*
X103652179Y-56581727D01*
X103652712Y-56578053D01*
X103654232Y-56520000D01*
X103642797Y-56395551D01*
X103636187Y-56323613D01*
X103636186Y-56323610D01*
X103635658Y-56317859D01*
X103634090Y-56312299D01*
X103582125Y-56128046D01*
X103582124Y-56128044D01*
X103580557Y-56122487D01*
X103569978Y-56101033D01*
X103493331Y-55945609D01*
X103490776Y-55940428D01*
X103369320Y-55777779D01*
X103220258Y-55639987D01*
X103215375Y-55636906D01*
X103215371Y-55636903D01*
X103053464Y-55534748D01*
X103048581Y-55531667D01*
X102860039Y-55456446D01*
X102854379Y-55455320D01*
X102854375Y-55455319D01*
X102666613Y-55417971D01*
X102666610Y-55417971D01*
X102660946Y-55416844D01*
X102655171Y-55416768D01*
X102655167Y-55416768D01*
X102553793Y-55415441D01*
X102457971Y-55414187D01*
X102452274Y-55415166D01*
X102452273Y-55415166D01*
X102266389Y-55447107D01*
X102257910Y-55448564D01*
X102067463Y-55518824D01*
X101893010Y-55622612D01*
X101888670Y-55626418D01*
X101888666Y-55626421D01*
X101763248Y-55736411D01*
X101740392Y-55756455D01*
X101614720Y-55915869D01*
X101612031Y-55920980D01*
X101612029Y-55920983D01*
X101599073Y-55945609D01*
X101520203Y-56095515D01*
X101460007Y-56289378D01*
X101436148Y-56490964D01*
X101449424Y-56693522D01*
X101450845Y-56699118D01*
X101450846Y-56699123D01*
X101471119Y-56778945D01*
X101499392Y-56890269D01*
X101501809Y-56895512D01*
X101539010Y-56976208D01*
X101584377Y-57074616D01*
X101701533Y-57240389D01*
X101705675Y-57244424D01*
X101770970Y-57308031D01*
X101846938Y-57382035D01*
X102015720Y-57494812D01*
X102021023Y-57497090D01*
X102021026Y-57497092D01*
X102109707Y-57535192D01*
X102202228Y-57574942D01*
X102276524Y-57591753D01*
X102300183Y-57597107D01*
X102362210Y-57631650D01*
X102395714Y-57694243D01*
X102390060Y-57765014D01*
X102347041Y-57821494D01*
X102280316Y-57845749D01*
X102272375Y-57846000D01*
X100295687Y-57846000D01*
X100227566Y-57825998D01*
X100181073Y-57772342D01*
X100170969Y-57702068D01*
X100200463Y-57637488D01*
X100264033Y-57598843D01*
X100263945Y-57598584D01*
X100340309Y-57572662D01*
X100450693Y-57535192D01*
X100450698Y-57535190D01*
X100456165Y-57533334D01*
X100633276Y-57434147D01*
X100695934Y-57382035D01*
X100784913Y-57308031D01*
X100789345Y-57304345D01*
X100846463Y-57235669D01*
X100915453Y-57152718D01*
X100915455Y-57152715D01*
X100919147Y-57148276D01*
X100978845Y-57041677D01*
X101015510Y-56976208D01*
X101015511Y-56976206D01*
X101018334Y-56971165D01*
X101020190Y-56965698D01*
X101020192Y-56965693D01*
X101081728Y-56784414D01*
X101081729Y-56784409D01*
X101083584Y-56778945D01*
X101084412Y-56773236D01*
X101084413Y-56773231D01*
X101112179Y-56581727D01*
X101112712Y-56578053D01*
X101114232Y-56520000D01*
X101102797Y-56395551D01*
X101096187Y-56323613D01*
X101096186Y-56323610D01*
X101095658Y-56317859D01*
X101094090Y-56312299D01*
X101042125Y-56128046D01*
X101042124Y-56128044D01*
X101040557Y-56122487D01*
X101029978Y-56101033D01*
X100953331Y-55945609D01*
X100950776Y-55940428D01*
X100829320Y-55777779D01*
X100680258Y-55639987D01*
X100675375Y-55636906D01*
X100675371Y-55636903D01*
X100513464Y-55534748D01*
X100508581Y-55531667D01*
X100320039Y-55456446D01*
X100314379Y-55455320D01*
X100314375Y-55455319D01*
X100126613Y-55417971D01*
X100126610Y-55417971D01*
X100120946Y-55416844D01*
X100115171Y-55416768D01*
X100115167Y-55416768D01*
X100013793Y-55415441D01*
X99917971Y-55414187D01*
X99912274Y-55415166D01*
X99912273Y-55415166D01*
X99726389Y-55447107D01*
X99717910Y-55448564D01*
X99527463Y-55518824D01*
X99353010Y-55622612D01*
X99348670Y-55626418D01*
X99348666Y-55626421D01*
X99223248Y-55736411D01*
X99200392Y-55756455D01*
X99074720Y-55915869D01*
X99072031Y-55920980D01*
X99072029Y-55920983D01*
X99059073Y-55945609D01*
X98980203Y-56095515D01*
X98920007Y-56289378D01*
X98896148Y-56490964D01*
X98909424Y-56693522D01*
X98910845Y-56699118D01*
X98910846Y-56699123D01*
X98931119Y-56778945D01*
X98959392Y-56890269D01*
X98961809Y-56895512D01*
X98999010Y-56976208D01*
X99044377Y-57074616D01*
X99161533Y-57240389D01*
X99165675Y-57244424D01*
X99230970Y-57308031D01*
X99306938Y-57382035D01*
X99475720Y-57494812D01*
X99481023Y-57497090D01*
X99481026Y-57497092D01*
X99569707Y-57535192D01*
X99662228Y-57574942D01*
X99736524Y-57591753D01*
X99760183Y-57597107D01*
X99822210Y-57631650D01*
X99855714Y-57694243D01*
X99850060Y-57765014D01*
X99807041Y-57821494D01*
X99740316Y-57845749D01*
X99732375Y-57846000D01*
X97755687Y-57846000D01*
X97687566Y-57825998D01*
X97641073Y-57772342D01*
X97630969Y-57702068D01*
X97660463Y-57637488D01*
X97724033Y-57598843D01*
X97723945Y-57598584D01*
X97800309Y-57572662D01*
X97910693Y-57535192D01*
X97910698Y-57535190D01*
X97916165Y-57533334D01*
X98093276Y-57434147D01*
X98155934Y-57382035D01*
X98244913Y-57308031D01*
X98249345Y-57304345D01*
X98306463Y-57235669D01*
X98375453Y-57152718D01*
X98375455Y-57152715D01*
X98379147Y-57148276D01*
X98438845Y-57041677D01*
X98475510Y-56976208D01*
X98475511Y-56976206D01*
X98478334Y-56971165D01*
X98480190Y-56965698D01*
X98480192Y-56965693D01*
X98541728Y-56784414D01*
X98541729Y-56784409D01*
X98543584Y-56778945D01*
X98544412Y-56773236D01*
X98544413Y-56773231D01*
X98572179Y-56581727D01*
X98572712Y-56578053D01*
X98574232Y-56520000D01*
X98562797Y-56395551D01*
X98556187Y-56323613D01*
X98556186Y-56323610D01*
X98555658Y-56317859D01*
X98554090Y-56312299D01*
X98502125Y-56128046D01*
X98502124Y-56128044D01*
X98500557Y-56122487D01*
X98489978Y-56101033D01*
X98413331Y-55945609D01*
X98410776Y-55940428D01*
X98289320Y-55777779D01*
X98244565Y-55736408D01*
X98208122Y-55675483D01*
X98210403Y-55604523D01*
X98250685Y-55546060D01*
X98297485Y-55522179D01*
X98461596Y-55478205D01*
X98461597Y-55478205D01*
X98466910Y-55476781D01*
X98471889Y-55474459D01*
X98471895Y-55474457D01*
X98621940Y-55404489D01*
X98621943Y-55404487D01*
X98626921Y-55402166D01*
X98771546Y-55300899D01*
X98896388Y-55176057D01*
X98997655Y-55031432D01*
X99007709Y-55009873D01*
X99069949Y-54876399D01*
X99069950Y-54876396D01*
X99072270Y-54871421D01*
X99073691Y-54866118D01*
X99074539Y-54863788D01*
X99116634Y-54806617D01*
X99182956Y-54781281D01*
X99252448Y-54795823D01*
X99280859Y-54816630D01*
X99306938Y-54842035D01*
X99311742Y-54845245D01*
X99350917Y-54871421D01*
X99475720Y-54954812D01*
X99481023Y-54957090D01*
X99481026Y-54957092D01*
X99654058Y-55031432D01*
X99662228Y-55034942D01*
X99735244Y-55051464D01*
X99854579Y-55078467D01*
X99854584Y-55078468D01*
X99860216Y-55079742D01*
X99865987Y-55079969D01*
X99865989Y-55079969D01*
X99925756Y-55082317D01*
X100063053Y-55087712D01*
X100163499Y-55073148D01*
X100258231Y-55059413D01*
X100258236Y-55059412D01*
X100263945Y-55058584D01*
X100269409Y-55056729D01*
X100269414Y-55056728D01*
X100450693Y-54995192D01*
X100450698Y-54995190D01*
X100456165Y-54993334D01*
X100633276Y-54894147D01*
X100645351Y-54884105D01*
X100784913Y-54768031D01*
X100789345Y-54764345D01*
X100846463Y-54695669D01*
X100915453Y-54612718D01*
X100915455Y-54612715D01*
X100919147Y-54608276D01*
X101018334Y-54431165D01*
X101020190Y-54425698D01*
X101020192Y-54425693D01*
X101081728Y-54244414D01*
X101081729Y-54244409D01*
X101083584Y-54238945D01*
X101084412Y-54233236D01*
X101084413Y-54233231D01*
X101112179Y-54041727D01*
X101112712Y-54038053D01*
X101114232Y-53980000D01*
X101097255Y-53795235D01*
X101096187Y-53783613D01*
X101096186Y-53783610D01*
X101095658Y-53777859D01*
X101094090Y-53772299D01*
X101042125Y-53588046D01*
X101042124Y-53588044D01*
X101040557Y-53582487D01*
X101029978Y-53561033D01*
X100953331Y-53405609D01*
X100950776Y-53400428D01*
X100829320Y-53237779D01*
X100680258Y-53099987D01*
X100675375Y-53096906D01*
X100675371Y-53096903D01*
X100513464Y-52994748D01*
X100508581Y-52991667D01*
X100320039Y-52916446D01*
X100314382Y-52915321D01*
X100314376Y-52915319D01*
X100196899Y-52891952D01*
X100172469Y-52887093D01*
X100109560Y-52854186D01*
X100074428Y-52792491D01*
X100078228Y-52721596D01*
X100096183Y-52688005D01*
X100200943Y-52548062D01*
X100203644Y-52544454D01*
X100304660Y-52359457D01*
X100354861Y-52309256D01*
X100424235Y-52294164D01*
X100490756Y-52318975D01*
G37*
%TD.AperFunction*%
%TA.AperFunction,Conductor*%
G36*
X96217571Y-55225245D02*
G01*
X96235807Y-55237356D01*
X96241481Y-55241881D01*
X96247190Y-55246719D01*
X96275554Y-55272240D01*
X96275557Y-55272242D01*
X96283296Y-55279205D01*
X96292081Y-55282948D01*
X96300700Y-55289107D01*
X96351881Y-55329922D01*
X96362517Y-55339437D01*
X96377758Y-55354712D01*
X96387040Y-55364015D01*
X96391845Y-55366864D01*
X96432485Y-55386435D01*
X96439125Y-55389880D01*
X96472472Y-55408458D01*
X96472478Y-55408460D01*
X96481573Y-55413527D01*
X96490973Y-55415222D01*
X96500746Y-55419309D01*
X96559717Y-55447708D01*
X96572203Y-55454618D01*
X96601586Y-55473126D01*
X96606904Y-55474834D01*
X96650901Y-55484876D01*
X96658126Y-55486753D01*
X96670187Y-55490271D01*
X96729976Y-55528552D01*
X96759580Y-55593082D01*
X96749596Y-55663373D01*
X96717971Y-55705958D01*
X96664739Y-55752642D01*
X96664735Y-55752647D01*
X96660392Y-55756455D01*
X96534720Y-55915869D01*
X96532031Y-55920980D01*
X96532029Y-55920983D01*
X96519073Y-55945609D01*
X96440203Y-56095515D01*
X96380007Y-56289378D01*
X96356148Y-56490964D01*
X96369424Y-56693522D01*
X96370845Y-56699118D01*
X96370846Y-56699123D01*
X96391119Y-56778945D01*
X96419392Y-56890269D01*
X96421809Y-56895512D01*
X96459010Y-56976208D01*
X96504377Y-57074616D01*
X96552303Y-57142430D01*
X96575283Y-57209602D01*
X96558299Y-57278537D01*
X96506742Y-57327347D01*
X96485981Y-57335722D01*
X96404751Y-57360363D01*
X96380525Y-57365182D01*
X96259510Y-57377101D01*
X96244711Y-57376665D01*
X96244711Y-57377320D01*
X96234793Y-57377320D01*
X96225000Y-57375769D01*
X96204923Y-57378949D01*
X96185212Y-57380500D01*
X95914685Y-57380500D01*
X95846564Y-57360498D01*
X95800071Y-57306842D01*
X95789967Y-57236568D01*
X95817811Y-57173931D01*
X95835448Y-57152724D01*
X95835450Y-57152721D01*
X95839147Y-57148276D01*
X95898845Y-57041677D01*
X95935510Y-56976208D01*
X95935511Y-56976206D01*
X95938334Y-56971165D01*
X95940190Y-56965698D01*
X95940192Y-56965693D01*
X96001728Y-56784414D01*
X96001729Y-56784409D01*
X96003584Y-56778945D01*
X96004412Y-56773236D01*
X96004413Y-56773231D01*
X96032179Y-56581727D01*
X96032712Y-56578053D01*
X96034232Y-56520000D01*
X96022797Y-56395551D01*
X96016187Y-56323613D01*
X96016186Y-56323610D01*
X96015658Y-56317859D01*
X96014090Y-56312299D01*
X95962125Y-56128046D01*
X95962124Y-56128044D01*
X95960557Y-56122487D01*
X95949978Y-56101033D01*
X95873331Y-55945609D01*
X95870776Y-55940428D01*
X95749320Y-55777779D01*
X95600258Y-55639987D01*
X95490224Y-55570561D01*
X95443286Y-55517294D01*
X95432597Y-55447107D01*
X95461552Y-55382282D01*
X95520956Y-55343403D01*
X95557460Y-55337999D01*
X95819669Y-55337999D01*
X95826490Y-55337629D01*
X95877352Y-55332105D01*
X95892604Y-55328479D01*
X96013054Y-55283324D01*
X96028644Y-55274789D01*
X96081682Y-55235039D01*
X96148189Y-55210192D01*
X96217571Y-55225245D01*
G37*
%TD.AperFunction*%
%TA.AperFunction,Conductor*%
G36*
X96573769Y-47750298D02*
G01*
X96593847Y-47753478D01*
X96603641Y-47751927D01*
X96613555Y-47751927D01*
X96613555Y-47752950D01*
X96628258Y-47752625D01*
X96692608Y-47759875D01*
X96720117Y-47766154D01*
X96800524Y-47794290D01*
X96825941Y-47806530D01*
X96898077Y-47851856D01*
X96920135Y-47869447D01*
X96980369Y-47929681D01*
X96997960Y-47951739D01*
X97027379Y-47998559D01*
X97043285Y-48023873D01*
X97055526Y-48049292D01*
X97083662Y-48129699D01*
X97089941Y-48157208D01*
X97097191Y-48221558D01*
X97096866Y-48236261D01*
X97097889Y-48236261D01*
X97097889Y-48246175D01*
X97096338Y-48255969D01*
X97097889Y-48265761D01*
X97099518Y-48276046D01*
X97101069Y-48295757D01*
X97101069Y-49887994D01*
X97081067Y-49956115D01*
X97027411Y-50002608D01*
X96962227Y-50013338D01*
X96903563Y-50007328D01*
X96897145Y-50007000D01*
X96522115Y-50007000D01*
X96506876Y-50011475D01*
X96505671Y-50012865D01*
X96504000Y-50020548D01*
X96504000Y-51568000D01*
X96483998Y-51636121D01*
X96430342Y-51682614D01*
X96378000Y-51694000D01*
X94910116Y-51694000D01*
X94894877Y-51698475D01*
X94893672Y-51699865D01*
X94892001Y-51707548D01*
X94892001Y-52162095D01*
X94892338Y-52168614D01*
X94902257Y-52264206D01*
X94905149Y-52277600D01*
X94956591Y-52431792D01*
X94962756Y-52444954D01*
X95038031Y-52566596D01*
X95053031Y-52580047D01*
X95075395Y-52585112D01*
X95074659Y-52588360D01*
X95121121Y-52602002D01*
X95167614Y-52655658D01*
X95179000Y-52708000D01*
X95179000Y-54108000D01*
X95158998Y-54176121D01*
X95105342Y-54222614D01*
X95053000Y-54234000D01*
X94797000Y-54234000D01*
X94728879Y-54213998D01*
X94682386Y-54160342D01*
X94671000Y-54108000D01*
X94671000Y-52640115D01*
X94666525Y-52624876D01*
X94665135Y-52623671D01*
X94657452Y-52622000D01*
X94255989Y-52622001D01*
X94187869Y-52601999D01*
X94141375Y-52548344D01*
X94129989Y-52496001D01*
X94129989Y-51167885D01*
X94892000Y-51167885D01*
X94896475Y-51183124D01*
X94897865Y-51184329D01*
X94905548Y-51186000D01*
X95977885Y-51186000D01*
X95993124Y-51181525D01*
X95994329Y-51180135D01*
X95996000Y-51172452D01*
X95996000Y-50025116D01*
X95991525Y-50009877D01*
X95990135Y-50008672D01*
X95982452Y-50007001D01*
X95602905Y-50007001D01*
X95596386Y-50007338D01*
X95500794Y-50017257D01*
X95487400Y-50020149D01*
X95333216Y-50071588D01*
X95320038Y-50077761D01*
X95182193Y-50163063D01*
X95170792Y-50172099D01*
X95056261Y-50286829D01*
X95047249Y-50298240D01*
X94962184Y-50436243D01*
X94956037Y-50449424D01*
X94904862Y-50603710D01*
X94901995Y-50617086D01*
X94892328Y-50711438D01*
X94892000Y-50717855D01*
X94892000Y-51167885D01*
X94129989Y-51167885D01*
X94129989Y-50055887D01*
X94131540Y-50036176D01*
X94133169Y-50025893D01*
X94133169Y-50025892D01*
X94134720Y-50016099D01*
X94132995Y-50005211D01*
X94131564Y-49980009D01*
X94132608Y-49956115D01*
X94143730Y-49701367D01*
X94144688Y-49690418D01*
X94158160Y-49588089D01*
X94185091Y-49383525D01*
X94186997Y-49372720D01*
X94253995Y-49070512D01*
X94256838Y-49059901D01*
X94260275Y-49049000D01*
X94349917Y-48764694D01*
X94353673Y-48754372D01*
X94355808Y-48749219D01*
X94421742Y-48590039D01*
X94466290Y-48534758D01*
X94533654Y-48512337D01*
X94602445Y-48529895D01*
X94622950Y-48545063D01*
X94702790Y-48617711D01*
X94717578Y-48631167D01*
X94856795Y-48706756D01*
X95010024Y-48746955D01*
X95093979Y-48748274D01*
X95160821Y-48749324D01*
X95160824Y-48749324D01*
X95168418Y-48749443D01*
X95322834Y-48714077D01*
X95398049Y-48676248D01*
X95457574Y-48646311D01*
X95457577Y-48646309D01*
X95464357Y-48642899D01*
X95470128Y-48637970D01*
X95470131Y-48637968D01*
X95579038Y-48544952D01*
X95579038Y-48544951D01*
X95584816Y-48540017D01*
X95677257Y-48411372D01*
X95736344Y-48264389D01*
X95748696Y-48177595D01*
X95758083Y-48111639D01*
X95758083Y-48111636D01*
X95758664Y-48107555D01*
X95758809Y-48093748D01*
X95739778Y-47936481D01*
X95733280Y-47919284D01*
X95727912Y-47848493D01*
X95761669Y-47786035D01*
X95823834Y-47751743D01*
X95851146Y-47748747D01*
X96554059Y-47748747D01*
X96573769Y-47750298D01*
G37*
%TD.AperFunction*%
%TA.AperFunction,Conductor*%
G36*
X99681916Y-46883681D02*
G01*
X99702813Y-46900506D01*
X99751697Y-46949305D01*
X99757927Y-46953145D01*
X99757928Y-46953146D01*
X99844705Y-47006636D01*
X99902262Y-47042115D01*
X99979715Y-47067805D01*
X100063611Y-47095632D01*
X100063613Y-47095632D01*
X100070139Y-47097797D01*
X100076975Y-47098497D01*
X100076978Y-47098498D01*
X100120031Y-47102909D01*
X100174600Y-47108500D01*
X101044363Y-47108500D01*
X101112484Y-47128502D01*
X101158977Y-47182158D01*
X101169081Y-47252432D01*
X101166883Y-47263911D01*
X101130335Y-47416142D01*
X101126197Y-47468721D01*
X101123327Y-47505196D01*
X101122117Y-47513462D01*
X101120982Y-47516693D01*
X101120500Y-47522258D01*
X101120500Y-47536158D01*
X101120112Y-47546044D01*
X101119033Y-47559754D01*
X101117870Y-47569576D01*
X101117320Y-47573047D01*
X101117320Y-47573050D01*
X101115769Y-47582844D01*
X101118950Y-47602926D01*
X101120500Y-47622626D01*
X101120500Y-48650212D01*
X101118949Y-48669922D01*
X101115769Y-48690000D01*
X101117320Y-48699794D01*
X101117320Y-48709708D01*
X101116297Y-48709708D01*
X101116622Y-48724411D01*
X101106281Y-48816195D01*
X101100002Y-48843703D01*
X101062750Y-48950164D01*
X101050509Y-48975583D01*
X101016797Y-49029235D01*
X100990497Y-49071092D01*
X100972905Y-49093151D01*
X100893151Y-49172905D01*
X100871092Y-49190497D01*
X100775585Y-49250508D01*
X100750164Y-49262750D01*
X100643703Y-49300002D01*
X100616195Y-49306281D01*
X100524411Y-49316622D01*
X100509704Y-49316297D01*
X100509704Y-49317320D01*
X100499792Y-49317320D01*
X100490000Y-49315769D01*
X100488029Y-49316081D01*
X100477894Y-49316745D01*
X100477893Y-49316745D01*
X100216868Y-49333853D01*
X100216861Y-49333854D01*
X100212756Y-49334123D01*
X100208723Y-49334925D01*
X100208717Y-49334926D01*
X99944306Y-49387521D01*
X99944300Y-49387523D01*
X99940256Y-49388327D01*
X99936347Y-49389654D01*
X99936343Y-49389655D01*
X99888817Y-49405788D01*
X99677162Y-49477635D01*
X99617711Y-49506953D01*
X99431680Y-49598693D01*
X99431675Y-49598696D01*
X99427976Y-49600520D01*
X99424543Y-49602814D01*
X99200392Y-49752586D01*
X99200387Y-49752590D01*
X99196961Y-49754879D01*
X99193867Y-49757593D01*
X99193861Y-49757597D01*
X99045173Y-49887994D01*
X98988071Y-49938071D01*
X98985362Y-49941160D01*
X98807597Y-50143861D01*
X98807593Y-50143867D01*
X98804879Y-50146961D01*
X98802587Y-50150391D01*
X98802581Y-50150399D01*
X98764526Y-50207353D01*
X98710050Y-50252881D01*
X98665587Y-50263216D01*
X98593667Y-50266545D01*
X98587843Y-50267949D01*
X98587840Y-50267949D01*
X98394607Y-50314518D01*
X98394605Y-50314519D01*
X98388774Y-50315924D01*
X98383316Y-50318406D01*
X98383312Y-50318407D01*
X98323120Y-50345775D01*
X98196916Y-50403157D01*
X98114359Y-50461719D01*
X98058969Y-50501010D01*
X97991835Y-50524108D01*
X97922870Y-50507244D01*
X97873971Y-50455772D01*
X97860069Y-50398240D01*
X97860069Y-48617711D01*
X97880071Y-48549590D01*
X97933727Y-48503097D01*
X98004001Y-48492993D01*
X98046189Y-48506979D01*
X98057293Y-48513008D01*
X98210522Y-48553207D01*
X98294477Y-48554526D01*
X98361319Y-48555576D01*
X98361322Y-48555576D01*
X98368916Y-48555695D01*
X98523332Y-48520329D01*
X98636689Y-48463317D01*
X98658072Y-48452563D01*
X98658075Y-48452561D01*
X98664855Y-48449151D01*
X98670626Y-48444222D01*
X98670629Y-48444220D01*
X98779536Y-48351204D01*
X98779536Y-48351203D01*
X98785314Y-48346269D01*
X98877755Y-48217624D01*
X98936842Y-48070641D01*
X98950443Y-47975072D01*
X98958581Y-47917891D01*
X98958581Y-47917888D01*
X98959162Y-47913807D01*
X98959307Y-47900000D01*
X98940276Y-47742733D01*
X98884280Y-47594546D01*
X98867119Y-47569576D01*
X98798855Y-47470251D01*
X98798854Y-47470249D01*
X98794553Y-47463992D01*
X98676275Y-47358611D01*
X98669563Y-47355057D01*
X98669560Y-47355055D01*
X98570771Y-47302749D01*
X98522298Y-47257230D01*
X98520041Y-47253546D01*
X98476294Y-47182158D01*
X98423959Y-47096755D01*
X98423956Y-47096751D01*
X98421375Y-47092539D01*
X98413900Y-47083786D01*
X98403414Y-47071509D01*
X98374383Y-47006719D01*
X98384989Y-46936519D01*
X98431865Y-46883197D01*
X98499226Y-46863679D01*
X99613795Y-46863679D01*
X99681916Y-46883681D01*
G37*
%TD.AperFunction*%
%TA.AperFunction,Conductor*%
G36*
X98176325Y-43720502D02*
G01*
X98222818Y-43774158D01*
X98232922Y-43844432D01*
X98209556Y-43901357D01*
X98187301Y-43931488D01*
X98142478Y-44059125D01*
X98139500Y-44090627D01*
X98139501Y-44695636D01*
X98139501Y-45210321D01*
X98119499Y-45278442D01*
X98065843Y-45324935D01*
X98013501Y-45336321D01*
X97434500Y-45336321D01*
X97366379Y-45316319D01*
X97319886Y-45262663D01*
X97308500Y-45210321D01*
X97308499Y-44097291D01*
X97308499Y-44094024D01*
X97305672Y-44066770D01*
X97298245Y-43995195D01*
X97297534Y-43988338D01*
X97267898Y-43899508D01*
X97256845Y-43866376D01*
X97254261Y-43795426D01*
X97290445Y-43734342D01*
X97353909Y-43702518D01*
X97376369Y-43700500D01*
X98108204Y-43700500D01*
X98176325Y-43720502D01*
G37*
%TD.AperFunction*%
%TD*%
M02*
