%TF.GenerationSoftware,KiCad,Pcbnew,(6.0.2-0)*%
%TF.CreationDate,2022-03-05T11:21:56+00:00*%
%TF.ProjectId,Generic3,47656e65-7269-4633-932e-6b696361645f,1*%
%TF.SameCoordinates,Original*%
%TF.FileFunction,Legend,Top*%
%TF.FilePolarity,Positive*%
%FSLAX46Y46*%
G04 Gerber Fmt 4.6, Leading zero omitted, Abs format (unit mm)*
G04 Created by KiCad (PCBNEW (6.0.2-0)) date 2022-03-05 11:21:56*
%MOMM*%
%LPD*%
G01*
G04 APERTURE LIST*
%ADD10C,0.150000*%
%ADD11C,0.100000*%
%ADD12C,0.120000*%
G04 APERTURE END LIST*
D10*
X138923809Y-71180952D02*
X139876190Y-71180952D01*
X139114285Y-71466666D02*
X139685714Y-71466666D01*
X139400000Y-70752380D02*
X139400000Y-71180952D01*
X139495238Y-71752380D02*
X139304761Y-71752380D01*
X154640476Y-71085714D02*
X154640476Y-71752380D01*
X154402380Y-70704761D02*
X154164285Y-71419047D01*
X154783333Y-71419047D01*
X164209523Y-71752380D02*
X163638095Y-71752380D01*
X163923809Y-71752380D02*
X163923809Y-70752380D01*
X163828571Y-70895238D01*
X163733333Y-70990476D01*
X163638095Y-71038095D01*
X164685714Y-71752380D02*
X164876190Y-71752380D01*
X164971428Y-71704761D01*
X165019047Y-71657142D01*
X165114285Y-71514285D01*
X165161904Y-71323809D01*
X165161904Y-70942857D01*
X165114285Y-70847619D01*
X165066666Y-70800000D01*
X164971428Y-70752380D01*
X164780952Y-70752380D01*
X164685714Y-70800000D01*
X164638095Y-70847619D01*
X164590476Y-70942857D01*
X164590476Y-71180952D01*
X164638095Y-71276190D01*
X164685714Y-71323809D01*
X164780952Y-71371428D01*
X164971428Y-71371428D01*
X165066666Y-71323809D01*
X165114285Y-71276190D01*
X165161904Y-71180952D01*
X145859404Y-73750000D02*
X145764166Y-73702380D01*
X145621309Y-73702380D01*
X145478452Y-73750000D01*
X145383214Y-73845238D01*
X145335595Y-73940476D01*
X145287976Y-74130952D01*
X145287976Y-74273809D01*
X145335595Y-74464285D01*
X145383214Y-74559523D01*
X145478452Y-74654761D01*
X145621309Y-74702380D01*
X145716547Y-74702380D01*
X145859404Y-74654761D01*
X145907023Y-74607142D01*
X145907023Y-74273809D01*
X145716547Y-74273809D01*
X146716547Y-74654761D02*
X146621309Y-74702380D01*
X146430833Y-74702380D01*
X146335595Y-74654761D01*
X146287976Y-74559523D01*
X146287976Y-74178571D01*
X146335595Y-74083333D01*
X146430833Y-74035714D01*
X146621309Y-74035714D01*
X146716547Y-74083333D01*
X146764166Y-74178571D01*
X146764166Y-74273809D01*
X146287976Y-74369047D01*
X147192738Y-74035714D02*
X147192738Y-74702380D01*
X147192738Y-74130952D02*
X147240357Y-74083333D01*
X147335595Y-74035714D01*
X147478452Y-74035714D01*
X147573690Y-74083333D01*
X147621309Y-74178571D01*
X147621309Y-74702380D01*
X148478452Y-74654761D02*
X148383214Y-74702380D01*
X148192738Y-74702380D01*
X148097500Y-74654761D01*
X148049880Y-74559523D01*
X148049880Y-74178571D01*
X148097500Y-74083333D01*
X148192738Y-74035714D01*
X148383214Y-74035714D01*
X148478452Y-74083333D01*
X148526071Y-74178571D01*
X148526071Y-74273809D01*
X148049880Y-74369047D01*
X148954642Y-74702380D02*
X148954642Y-74035714D01*
X148954642Y-74226190D02*
X149002261Y-74130952D01*
X149049880Y-74083333D01*
X149145119Y-74035714D01*
X149240357Y-74035714D01*
X149573690Y-74702380D02*
X149573690Y-74035714D01*
X149573690Y-73702380D02*
X149526071Y-73750000D01*
X149573690Y-73797619D01*
X149621309Y-73750000D01*
X149573690Y-73702380D01*
X149573690Y-73797619D01*
X150478452Y-74654761D02*
X150383214Y-74702380D01*
X150192738Y-74702380D01*
X150097500Y-74654761D01*
X150049880Y-74607142D01*
X150002261Y-74511904D01*
X150002261Y-74226190D01*
X150049880Y-74130952D01*
X150097500Y-74083333D01*
X150192738Y-74035714D01*
X150383214Y-74035714D01*
X150478452Y-74083333D01*
X150811785Y-73702380D02*
X151430833Y-73702380D01*
X151097500Y-74083333D01*
X151240357Y-74083333D01*
X151335595Y-74130952D01*
X151383214Y-74178571D01*
X151430833Y-74273809D01*
X151430833Y-74511904D01*
X151383214Y-74607142D01*
X151335595Y-74654761D01*
X151240357Y-74702380D01*
X150954642Y-74702380D01*
X150859404Y-74654761D01*
X150811785Y-74607142D01*
X151759523Y-71752380D02*
X151188095Y-71752380D01*
X151473809Y-71752380D02*
X151473809Y-70752380D01*
X151378571Y-70895238D01*
X151283333Y-70990476D01*
X151188095Y-71038095D01*
X152664285Y-70752380D02*
X152188095Y-70752380D01*
X152140476Y-71228571D01*
X152188095Y-71180952D01*
X152283333Y-71133333D01*
X152521428Y-71133333D01*
X152616666Y-71180952D01*
X152664285Y-71228571D01*
X152711904Y-71323809D01*
X152711904Y-71561904D01*
X152664285Y-71657142D01*
X152616666Y-71704761D01*
X152521428Y-71752380D01*
X152283333Y-71752380D01*
X152188095Y-71704761D01*
X152140476Y-71657142D01*
X146188095Y-70847619D02*
X146235714Y-70800000D01*
X146330952Y-70752380D01*
X146569047Y-70752380D01*
X146664285Y-70800000D01*
X146711904Y-70847619D01*
X146759523Y-70942857D01*
X146759523Y-71038095D01*
X146711904Y-71180952D01*
X146140476Y-71752380D01*
X146759523Y-71752380D01*
X147711904Y-71752380D02*
X147140476Y-71752380D01*
X147426190Y-71752380D02*
X147426190Y-70752380D01*
X147330952Y-70895238D01*
X147235714Y-70990476D01*
X147140476Y-71038095D01*
X169259523Y-71752380D02*
X168688095Y-71752380D01*
X168973809Y-71752380D02*
X168973809Y-70752380D01*
X168878571Y-70895238D01*
X168783333Y-70990476D01*
X168688095Y-71038095D01*
X170116666Y-71085714D02*
X170116666Y-71752380D01*
X169878571Y-70704761D02*
X169640476Y-71419047D01*
X170259523Y-71419047D01*
X161566666Y-70752380D02*
X162233333Y-70752380D01*
X161804761Y-71752380D01*
X148688095Y-70847619D02*
X148735714Y-70800000D01*
X148830952Y-70752380D01*
X149069047Y-70752380D01*
X149164285Y-70800000D01*
X149211904Y-70847619D01*
X149259523Y-70942857D01*
X149259523Y-71038095D01*
X149211904Y-71180952D01*
X148640476Y-71752380D01*
X149259523Y-71752380D01*
X149640476Y-70847619D02*
X149688095Y-70800000D01*
X149783333Y-70752380D01*
X150021428Y-70752380D01*
X150116666Y-70800000D01*
X150164285Y-70847619D01*
X150211904Y-70942857D01*
X150211904Y-71038095D01*
X150164285Y-71180952D01*
X149592857Y-71752380D01*
X150211904Y-71752380D01*
X141138095Y-71752380D02*
X141138095Y-70752380D01*
X141376190Y-70752380D01*
X141519047Y-70800000D01*
X141614285Y-70895238D01*
X141661904Y-70990476D01*
X141709523Y-71180952D01*
X141709523Y-71323809D01*
X141661904Y-71514285D01*
X141614285Y-71609523D01*
X141519047Y-71704761D01*
X141376190Y-71752380D01*
X141138095Y-71752380D01*
X142709523Y-71657142D02*
X142661904Y-71704761D01*
X142519047Y-71752380D01*
X142423809Y-71752380D01*
X142280952Y-71704761D01*
X142185714Y-71609523D01*
X142138095Y-71514285D01*
X142090476Y-71323809D01*
X142090476Y-71180952D01*
X142138095Y-70990476D01*
X142185714Y-70895238D01*
X142280952Y-70800000D01*
X142423809Y-70752380D01*
X142519047Y-70752380D01*
X142661904Y-70800000D01*
X142709523Y-70847619D01*
X138511904Y-74035714D02*
X138511904Y-74702380D01*
X138273809Y-73654761D02*
X138035714Y-74369047D01*
X138654761Y-74369047D01*
X138892857Y-73702380D02*
X139226190Y-74702380D01*
X139559523Y-73702380D01*
X139892857Y-74321428D02*
X140654761Y-74321428D01*
X141559523Y-74035714D02*
X141559523Y-74702380D01*
X141321428Y-73654761D02*
X141083333Y-74369047D01*
X141702380Y-74369047D01*
X142273809Y-73702380D02*
X142369047Y-73702380D01*
X142464285Y-73750000D01*
X142511904Y-73797619D01*
X142559523Y-73892857D01*
X142607142Y-74083333D01*
X142607142Y-74321428D01*
X142559523Y-74511904D01*
X142511904Y-74607142D01*
X142464285Y-74654761D01*
X142369047Y-74702380D01*
X142273809Y-74702380D01*
X142178571Y-74654761D01*
X142130952Y-74607142D01*
X142083333Y-74511904D01*
X142035714Y-74321428D01*
X142035714Y-74083333D01*
X142083333Y-73892857D01*
X142130952Y-73797619D01*
X142178571Y-73750000D01*
X142273809Y-73702380D01*
X142892857Y-73702380D02*
X143226190Y-74702380D01*
X143559523Y-73702380D01*
X156904761Y-71180952D02*
X156809523Y-71133333D01*
X156761904Y-71085714D01*
X156714285Y-70990476D01*
X156714285Y-70942857D01*
X156761904Y-70847619D01*
X156809523Y-70800000D01*
X156904761Y-70752380D01*
X157095238Y-70752380D01*
X157190476Y-70800000D01*
X157238095Y-70847619D01*
X157285714Y-70942857D01*
X157285714Y-70990476D01*
X157238095Y-71085714D01*
X157190476Y-71133333D01*
X157095238Y-71180952D01*
X156904761Y-71180952D01*
X156809523Y-71228571D01*
X156761904Y-71276190D01*
X156714285Y-71371428D01*
X156714285Y-71561904D01*
X156761904Y-71657142D01*
X156809523Y-71704761D01*
X156904761Y-71752380D01*
X157095238Y-71752380D01*
X157190476Y-71704761D01*
X157238095Y-71657142D01*
X157285714Y-71561904D01*
X157285714Y-71371428D01*
X157238095Y-71276190D01*
X157190476Y-71228571D01*
X157095238Y-71180952D01*
X166759523Y-71752380D02*
X166188095Y-71752380D01*
X166473809Y-71752380D02*
X166473809Y-70752380D01*
X166378571Y-70895238D01*
X166283333Y-70990476D01*
X166188095Y-71038095D01*
X167092857Y-70752380D02*
X167711904Y-70752380D01*
X167378571Y-71133333D01*
X167521428Y-71133333D01*
X167616666Y-71180952D01*
X167664285Y-71228571D01*
X167711904Y-71323809D01*
X167711904Y-71561904D01*
X167664285Y-71657142D01*
X167616666Y-71704761D01*
X167521428Y-71752380D01*
X167235714Y-71752380D01*
X167140476Y-71704761D01*
X167092857Y-71657142D01*
X158738095Y-70847619D02*
X158785714Y-70800000D01*
X158880952Y-70752380D01*
X159119047Y-70752380D01*
X159214285Y-70800000D01*
X159261904Y-70847619D01*
X159309523Y-70942857D01*
X159309523Y-71038095D01*
X159261904Y-71180952D01*
X158690476Y-71752380D01*
X159309523Y-71752380D01*
X159928571Y-70752380D02*
X160023809Y-70752380D01*
X160119047Y-70800000D01*
X160166666Y-70847619D01*
X160214285Y-70942857D01*
X160261904Y-71133333D01*
X160261904Y-71371428D01*
X160214285Y-71561904D01*
X160166666Y-71657142D01*
X160119047Y-71704761D01*
X160023809Y-71752380D01*
X159928571Y-71752380D01*
X159833333Y-71704761D01*
X159785714Y-71657142D01*
X159738095Y-71561904D01*
X159690476Y-71371428D01*
X159690476Y-71133333D01*
X159738095Y-70942857D01*
X159785714Y-70847619D01*
X159833333Y-70800000D01*
X159928571Y-70752380D01*
D11*
%TO.C,U1*%
X170296035Y-57207142D02*
X170331750Y-57242857D01*
X170367464Y-57314285D01*
X170367464Y-57492857D01*
X170331750Y-57564285D01*
X170296035Y-57600000D01*
X170224607Y-57635714D01*
X170153178Y-57635714D01*
X170046035Y-57600000D01*
X169617464Y-57171428D01*
X169617464Y-57635714D01*
X170367464Y-58100000D02*
X170367464Y-58171428D01*
X170331750Y-58242857D01*
X170296035Y-58278571D01*
X170224607Y-58314285D01*
X170081750Y-58350000D01*
X169903178Y-58350000D01*
X169760321Y-58314285D01*
X169688892Y-58278571D01*
X169653178Y-58242857D01*
X169617464Y-58171428D01*
X169617464Y-58100000D01*
X169653178Y-58028571D01*
X169688892Y-57992857D01*
X169760321Y-57957142D01*
X169903178Y-57921428D01*
X170081750Y-57921428D01*
X170224607Y-57957142D01*
X170296035Y-57992857D01*
X170331750Y-58028571D01*
X170367464Y-58100000D01*
X170296035Y-58635714D02*
X170331750Y-58671428D01*
X170367464Y-58742857D01*
X170367464Y-58921428D01*
X170331750Y-58992857D01*
X170296035Y-59028571D01*
X170224607Y-59064285D01*
X170153178Y-59064285D01*
X170046035Y-59028571D01*
X169617464Y-58600000D01*
X169617464Y-59064285D01*
X170296035Y-59350000D02*
X170331750Y-59385714D01*
X170367464Y-59457142D01*
X170367464Y-59635714D01*
X170331750Y-59707142D01*
X170296035Y-59742857D01*
X170224607Y-59778571D01*
X170153178Y-59778571D01*
X170046035Y-59742857D01*
X169617464Y-59314285D01*
X169617464Y-59778571D01*
X169903178Y-60100000D02*
X169903178Y-60671428D01*
X170367464Y-61171428D02*
X170367464Y-61242857D01*
X170331750Y-61314285D01*
X170296035Y-61350000D01*
X170224607Y-61385714D01*
X170081750Y-61421428D01*
X169903178Y-61421428D01*
X169760321Y-61385714D01*
X169688892Y-61350000D01*
X169653178Y-61314285D01*
X169617464Y-61242857D01*
X169617464Y-61171428D01*
X169653178Y-61100000D01*
X169688892Y-61064285D01*
X169760321Y-61028571D01*
X169903178Y-60992857D01*
X170081750Y-60992857D01*
X170224607Y-61028571D01*
X170296035Y-61064285D01*
X170331750Y-61100000D01*
X170367464Y-61171428D01*
X170367464Y-61671428D02*
X170367464Y-62135714D01*
X170081750Y-61885714D01*
X170081750Y-61992857D01*
X170046035Y-62064285D01*
X170010321Y-62100000D01*
X169938892Y-62135714D01*
X169760321Y-62135714D01*
X169688892Y-62100000D01*
X169653178Y-62064285D01*
X169617464Y-61992857D01*
X169617464Y-61778571D01*
X169653178Y-61707142D01*
X169688892Y-61671428D01*
X169903178Y-62457142D02*
X169903178Y-63028571D01*
X170367464Y-63528571D02*
X170367464Y-63600000D01*
X170331750Y-63671428D01*
X170296035Y-63707142D01*
X170224607Y-63742857D01*
X170081750Y-63778571D01*
X169903178Y-63778571D01*
X169760321Y-63742857D01*
X169688892Y-63707142D01*
X169653178Y-63671428D01*
X169617464Y-63600000D01*
X169617464Y-63528571D01*
X169653178Y-63457142D01*
X169688892Y-63421428D01*
X169760321Y-63385714D01*
X169903178Y-63350000D01*
X170081750Y-63350000D01*
X170224607Y-63385714D01*
X170296035Y-63421428D01*
X170331750Y-63457142D01*
X170367464Y-63528571D01*
X170367464Y-64421428D02*
X170367464Y-64278571D01*
X170331750Y-64207142D01*
X170296035Y-64171428D01*
X170188892Y-64100000D01*
X170046035Y-64064285D01*
X169760321Y-64064285D01*
X169688892Y-64100000D01*
X169653178Y-64135714D01*
X169617464Y-64207142D01*
X169617464Y-64350000D01*
X169653178Y-64421428D01*
X169688892Y-64457142D01*
X169760321Y-64492857D01*
X169938892Y-64492857D01*
X170010321Y-64457142D01*
X170046035Y-64421428D01*
X170081750Y-64350000D01*
X170081750Y-64207142D01*
X170046035Y-64135714D01*
X170010321Y-64100000D01*
X169938892Y-64064285D01*
D12*
%TO.C,C1*%
X148250000Y-58850000D02*
X148250000Y-58250000D01*
X149250000Y-58850000D02*
X149250000Y-58250000D01*
%TO.C,R4*%
X140750000Y-56350000D02*
X141350000Y-56350000D01*
X140750000Y-57350000D02*
X141350000Y-57350000D01*
%TO.C,C4*%
X140700000Y-67700000D02*
X141300000Y-67700000D01*
X140700000Y-66700000D02*
X141300000Y-66700000D01*
%TO.C,R1*%
X159000000Y-60700000D02*
X159000000Y-61300000D01*
X160000000Y-60700000D02*
X160000000Y-61300000D01*
%TO.C,D7*%
X148785000Y-67735000D02*
X148785000Y-65465000D01*
X144900000Y-67735000D02*
X148785000Y-67735000D01*
X148785000Y-65465000D02*
X144900000Y-65465000D01*
%TO.C,C2*%
X156900000Y-63700000D02*
X157500000Y-63700000D01*
X156900000Y-62700000D02*
X157500000Y-62700000D01*
%TO.C,R12*%
X150600000Y-61800000D02*
X150600000Y-61200000D01*
X149600000Y-61800000D02*
X149600000Y-61200000D01*
%TO.C,U3*%
X150850000Y-56625000D02*
X153950000Y-56625000D01*
X154125000Y-59675000D02*
X154125000Y-61275000D01*
%TO.C,R3*%
X143600000Y-56600000D02*
X144200000Y-56600000D01*
X143600000Y-55600000D02*
X144200000Y-55600000D01*
%TO.C,C3*%
X148000000Y-58860000D02*
X148000000Y-58260000D01*
X147000000Y-58860000D02*
X147000000Y-58260000D01*
%TO.C,J1*%
X136800000Y-67750000D02*
X136800000Y-75750000D01*
X136800000Y-67750000D02*
X144500000Y-67750000D01*
X144500000Y-67750000D02*
X144500000Y-75750000D01*
%TO.C,R10*%
X148000000Y-54400000D02*
X148600000Y-54400000D01*
X148000000Y-55400000D02*
X148600000Y-55400000D01*
%TO.C,R5*%
X145600000Y-59800000D02*
X145600000Y-59200000D01*
X144600000Y-59800000D02*
X144600000Y-59200000D01*
%TO.C,R8*%
X148000000Y-60950000D02*
X148000000Y-61550000D01*
X147000000Y-60950000D02*
X147000000Y-61550000D01*
%TO.C,U1*%
X161056750Y-54250000D02*
X171656750Y-54250000D01*
X161056750Y-67450000D02*
X171656750Y-67450000D01*
X160756750Y-54550000D02*
X160756750Y-67150000D01*
%TO.C,J2*%
X144400000Y-67750000D02*
X144400000Y-75750000D01*
X144400000Y-67750000D02*
X172100000Y-67750000D01*
X172100000Y-67750000D02*
X172100000Y-75750000D01*
%TO.C,U2*%
X154285000Y-67260000D02*
X153560000Y-67260000D01*
X150065000Y-63765000D02*
X150065000Y-63040000D01*
X150065000Y-63040000D02*
X150790000Y-63040000D01*
X150065000Y-66535000D02*
X150065000Y-67260000D01*
X154285000Y-66535000D02*
X154285000Y-67260000D01*
X150065000Y-67260000D02*
X150790000Y-67260000D01*
X154257843Y-63350000D02*
G75*
G03*
X154257843Y-63350000I-282843J0D01*
G01*
%TO.C,D6*%
X137450000Y-55400000D02*
X138550000Y-55400000D01*
X138550000Y-55400000D02*
X138550000Y-54400000D01*
%TO.C,R11*%
X147750000Y-64450000D02*
X148350000Y-64450000D01*
X147750000Y-63450000D02*
X148350000Y-63450000D01*
%TO.C,R9*%
X148000000Y-56600000D02*
X148600000Y-56600000D01*
X148000000Y-55600000D02*
X148600000Y-55600000D01*
%TO.C,R7*%
X148250000Y-60950000D02*
X148250000Y-61550000D01*
X149250000Y-60950000D02*
X149250000Y-61550000D01*
%TO.C,R6*%
X144600000Y-64600000D02*
X144600000Y-64000000D01*
X145600000Y-64600000D02*
X145600000Y-64000000D01*
%TO.C,R2*%
X143600000Y-54400000D02*
X144200000Y-54400000D01*
X143600000Y-55400000D02*
X144200000Y-55400000D01*
%TD*%
M02*
