%TF.GenerationSoftware,KiCad,Pcbnew,(6.0.1-0)*%
%TF.CreationDate,2022-01-30T07:56:11+00:00*%
%TF.ProjectId,Generic2,47656e65-7269-4633-922e-6b696361645f,1*%
%TF.SameCoordinates,Original*%
%TF.FileFunction,Copper,L1,Top*%
%TF.FilePolarity,Positive*%
%FSLAX46Y46*%
G04 Gerber Fmt 4.6, Leading zero omitted, Abs format (unit mm)*
G04 Created by KiCad (PCBNEW (6.0.1-0)) date 2022-01-30 07:56:11*
%MOMM*%
%LPD*%
G01*
G04 APERTURE LIST*
G04 Aperture macros list*
%AMRoundRect*
0 Rectangle with rounded corners*
0 $1 Rounding radius*
0 $2 $3 $4 $5 $6 $7 $8 $9 X,Y pos of 4 corners*
0 Add a 4 corners polygon primitive as box body*
4,1,4,$2,$3,$4,$5,$6,$7,$8,$9,$2,$3,0*
0 Add four circle primitives for the rounded corners*
1,1,$1+$1,$2,$3*
1,1,$1+$1,$4,$5*
1,1,$1+$1,$6,$7*
1,1,$1+$1,$8,$9*
0 Add four rect primitives between the rounded corners*
20,1,$1+$1,$2,$3,$4,$5,0*
20,1,$1+$1,$4,$5,$6,$7,0*
20,1,$1+$1,$6,$7,$8,$9,0*
20,1,$1+$1,$8,$9,$2,$3,0*%
%AMFreePoly0*
4,1,137,3.383385,4.221938,3.559722,4.168447,3.722236,4.081581,3.864680,3.964680,3.981581,3.822236,4.068447,3.659722,4.121938,3.483385,4.125210,3.450161,4.182771,3.539516,4.186818,3.554319,4.232803,3.599839,4.295387,3.616268,4.357802,3.599205,4.403322,3.553220,4.419751,3.490636,4.402688,3.428221,4.402683,3.428217,4.172250,3.069125,4.056972,2.918810,3.981581,2.777764,
3.864680,2.635320,3.750000,2.541204,3.750000,0.022998,4.066622,-0.229500,4.408388,-0.546612,4.440741,-0.602648,4.440741,-0.667352,4.408388,-0.723388,4.352352,-0.755741,4.287648,-0.755741,4.231612,-0.723388,4.223835,-0.709917,3.889557,-0.400914,3.520257,-0.109782,3.483168,-0.085000,2.500000,-0.085000,2.500000,-1.185000,3.750000,-1.185000,3.750000,-2.745000,-3.750000,-2.745000,
-3.750000,-1.185000,-2.500000,-1.185000,-2.500000,-0.085000,-3.483168,-0.085000,-3.520257,-0.109782,-3.889557,-0.400914,-4.223835,-0.709917,-4.231612,-0.723388,-4.287648,-0.755741,-4.352352,-0.755741,-4.408388,-0.723388,-4.440741,-0.667352,-4.440741,-0.602648,-4.408388,-0.546612,-4.066622,-0.229500,-3.750000,0.022998,-3.750000,2.541204,-3.864680,2.635320,-3.981581,2.777764,-4.057035,2.918929,
-4.196742,3.104304,-4.424150,3.465322,-4.424153,3.465325,-4.440691,3.527880,-4.423736,3.590324,-4.377831,3.635925,-4.315276,3.652463,-4.252832,3.635508,-4.207231,3.589603,-4.203309,3.574768,-4.125116,3.451113,-4.121938,3.483385,-4.068447,3.659722,-3.981581,3.822236,-3.864680,3.964680,-3.722236,4.081581,-3.559722,4.168447,-3.383385,4.221938,-3.200000,4.240000,-3.137500,4.223253,
-3.091747,4.177500,-3.075000,4.115000,-3.091747,4.052500,-3.137500,4.006747,-3.200000,3.990000,-3.211471,3.993074,-3.354511,3.976957,-3.501274,3.925602,-3.632930,3.842877,-3.742877,3.732930,-3.825602,3.601274,-3.876957,3.454511,-3.894366,3.300000,-3.876957,3.145489,-3.839596,3.038718,-3.728752,2.893230,-3.593879,2.745000,-2.998152,2.745000,-3.015000,3.045000,-2.998253,3.107500,
-2.952500,3.153253,-2.890000,3.170000,-2.827500,3.153253,-2.781747,3.107500,-2.765000,3.045000,-2.768849,3.030634,-2.752213,2.745000,2.752213,2.745000,2.768849,3.030634,2.765000,3.045000,2.781747,3.107500,2.827500,3.153253,2.890000,3.170000,2.952500,3.153253,2.998253,3.107500,3.015000,3.045000,2.998152,2.745000,3.594239,2.745000,3.702502,2.861993,3.839668,3.038924,
3.876957,3.145489,3.894366,3.300000,3.876957,3.454511,3.825602,3.601274,3.742877,3.732930,3.632930,3.842877,3.501274,3.925602,3.354511,3.976957,3.211471,3.993074,3.200000,3.990000,3.137500,4.006747,3.091747,4.052500,3.075000,4.115000,3.091747,4.177500,3.137500,4.223253,3.200000,4.240000,3.383385,4.221938,3.383385,4.221938,$1*%
%AMFreePoly1*
4,1,6,1.000000,-1.000000,-1.000000,-1.000000,-1.000000,0.750000,-0.750000,1.000000,1.000000,1.000000,1.000000,-1.000000,1.000000,-1.000000,$1*%
%AMFreePoly2*
4,1,43,1.102950,0.110584,1.224483,0.068057,1.333507,-0.000447,1.424553,-0.091493,1.493057,-0.200517,1.535584,-0.322050,1.550000,-0.450000,1.533253,-0.512500,1.487500,-0.558253,1.425000,-0.575000,1.362500,-0.558253,1.316747,-0.512500,1.300000,-0.450000,1.302546,-0.440498,1.287946,-0.348318,1.241208,-0.256589,1.168411,-0.183792,1.076682,-0.137054,0.984502,-0.122454,0.975000,-0.125000,
-0.975000,-0.125000,-0.984502,-0.122454,-1.076682,-0.137054,-1.168411,-0.183792,-1.241208,-0.256589,-1.287946,-0.348318,-1.302546,-0.440498,-1.300000,-0.450000,-1.316747,-0.512500,-1.362500,-0.558253,-1.425000,-0.575000,-1.487500,-0.558253,-1.533253,-0.512500,-1.550000,-0.450000,-1.535584,-0.322050,-1.493057,-0.200517,-1.424553,-0.091493,-1.333507,-0.000447,-1.224483,0.068057,-1.102950,0.110584,
-0.975000,0.125000,0.975000,0.125000,1.102950,0.110584,1.102950,0.110584,$1*%
%AMFreePoly3*
4,1,24,1.812500,0.558253,1.858253,0.512500,1.875000,0.450000,1.860584,0.322050,1.818057,0.200517,1.749553,0.091493,1.658507,0.000447,1.549483,-0.068057,1.427950,-0.110584,1.300000,-0.125000,-1.300000,-0.125000,-1.300000,0.125000,1.300000,0.125000,1.309502,0.122454,1.401682,0.137054,1.493411,0.183792,1.566208,0.256589,1.612946,0.348318,1.627546,0.440498,1.625000,0.450000,
1.641747,0.512500,1.687500,0.558253,1.750000,0.575000,1.812500,0.558253,1.812500,0.558253,$1*%
%AMFreePoly4*
4,1,37,1.095671,1.230970,1.176777,1.176777,1.230970,1.095671,1.250000,1.000000,1.234611,0.804457,1.188821,0.613729,1.113759,0.432512,1.011272,0.265269,0.883885,0.116117,0.734733,-0.011271,0.567490,-0.113758,0.386273,-0.188820,0.195545,-0.234610,0.000002,-0.250000,-0.095669,-0.230970,-0.176775,-0.176777,-0.230968,-0.095671,-0.249998,0.000000,-0.230968,0.095671,-0.176775,0.176777,
-0.095669,0.230970,0.000002,0.250000,0.012204,0.247573,0.147027,0.260852,0.288403,0.303738,0.418695,0.373381,0.532897,0.467104,0.626620,0.581306,0.696263,0.711599,0.739148,0.852974,0.752427,0.987798,0.750000,1.000000,0.769030,1.095671,0.823223,1.176777,0.904329,1.230970,1.000000,1.250000,1.095671,1.230970,1.095671,1.230970,$1*%
%AMFreePoly5*
4,1,72,4.686563,7.086550,4.817878,7.046716,4.938899,6.982029,5.044975,6.894975,5.132029,6.788899,5.196716,6.667878,5.236550,6.536563,5.250000,6.400000,5.250000,1.600000,5.230970,1.504329,5.176777,1.423223,5.112500,1.380275,5.112500,0.250000,6.600000,0.250000,6.695671,0.230970,6.776777,0.176777,6.830970,0.095671,6.850000,0.000000,6.830970,-0.095671,6.776777,-0.176777,
6.695671,-0.230970,6.600000,-0.250000,0.000000,-0.250000,-0.095671,-0.230970,-0.176777,-0.176777,-0.230970,-0.095671,-0.250000,0.000000,-0.230970,0.095671,-0.176777,0.176777,-0.095671,0.230970,0.000000,0.250000,4.612500,0.250000,4.612500,1.600000,4.631530,1.695671,4.685723,1.776777,4.750000,1.819725,4.750000,6.400000,4.751388,6.406978,4.742582,6.462574,4.713820,6.519022,
4.669022,6.563820,4.612574,6.592582,4.556978,6.601388,4.550000,6.600000,1.550000,6.600000,1.543022,6.601388,1.487426,6.592582,1.430978,6.563820,1.386180,6.519022,1.357418,6.462574,1.348612,6.406978,1.350000,6.400000,1.350000,5.900000,1.330970,5.804329,1.276777,5.723223,1.195671,5.669030,1.100000,5.650000,1.004329,5.669030,0.923223,5.723223,0.869030,5.804329,
0.850000,5.900000,0.850000,6.400000,0.863450,6.536563,0.903284,6.667878,0.967971,6.788899,1.055025,6.894975,1.161101,6.982029,1.282122,7.046716,1.413437,7.086550,1.550000,7.100000,4.550000,7.100000,4.686563,7.086550,4.686563,7.086550,$1*%
G04 Aperture macros list end*
%TA.AperFunction,ComponentPad*%
%ADD10R,2.000000X2.000000*%
%TD*%
%TA.AperFunction,ComponentPad*%
%ADD11C,2.000000*%
%TD*%
%TA.AperFunction,SMDPad,CuDef*%
%ADD12RoundRect,0.256250X-0.256250X-0.443750X0.256250X-0.443750X0.256250X0.443750X-0.256250X0.443750X0*%
%TD*%
%TA.AperFunction,SMDPad,CuDef*%
%ADD13RoundRect,0.247500X-0.315000X-0.627500X0.315000X-0.627500X0.315000X0.627500X-0.315000X0.627500X0*%
%TD*%
%TA.AperFunction,SMDPad,CuDef*%
%ADD14RoundRect,0.256250X-0.443750X0.256250X-0.443750X-0.256250X0.443750X-0.256250X0.443750X0.256250X0*%
%TD*%
%TA.AperFunction,SMDPad,CuDef*%
%ADD15RoundRect,0.247500X-0.627500X0.315000X-0.627500X-0.315000X0.627500X-0.315000X0.627500X0.315000X0*%
%TD*%
%TA.AperFunction,SMDPad,CuDef*%
%ADD16RoundRect,0.256250X0.256250X0.443750X-0.256250X0.443750X-0.256250X-0.443750X0.256250X-0.443750X0*%
%TD*%
%TA.AperFunction,SMDPad,CuDef*%
%ADD17RoundRect,0.247500X0.315000X0.627500X-0.315000X0.627500X-0.315000X-0.627500X0.315000X-0.627500X0*%
%TD*%
%TA.AperFunction,SMDPad,CuDef*%
%ADD18R,0.600000X1.140000*%
%TD*%
%TA.AperFunction,ComponentPad*%
%ADD19C,0.600000*%
%TD*%
%TA.AperFunction,SMDPad,CuDef*%
%ADD20RoundRect,0.075000X-0.075000X-0.495000X0.075000X-0.495000X0.075000X0.495000X-0.075000X0.495000X0*%
%TD*%
%TA.AperFunction,ComponentPad*%
%ADD21C,1.500000*%
%TD*%
%TA.AperFunction,ComponentPad*%
%ADD22C,1.250000*%
%TD*%
%TA.AperFunction,SMDPad,CuDef*%
%ADD23FreePoly0,0.000000*%
%TD*%
%TA.AperFunction,SMDPad,CuDef*%
%ADD24R,5.000000X5.490000*%
%TD*%
%TA.AperFunction,SMDPad,CuDef*%
%ADD25RoundRect,0.062500X0.062500X-0.287500X0.062500X0.287500X-0.062500X0.287500X-0.062500X-0.287500X0*%
%TD*%
%TA.AperFunction,SMDPad,CuDef*%
%ADD26RoundRect,0.062500X0.287500X-0.062500X0.287500X0.062500X-0.287500X0.062500X-0.287500X-0.062500X0*%
%TD*%
%TA.AperFunction,ComponentPad*%
%ADD27C,0.350000*%
%TD*%
%TA.AperFunction,SMDPad,CuDef*%
%ADD28FreePoly1,90.000000*%
%TD*%
%TA.AperFunction,SMDPad,CuDef*%
%ADD29RoundRect,0.200000X0.275000X-0.200000X0.275000X0.200000X-0.275000X0.200000X-0.275000X-0.200000X0*%
%TD*%
%TA.AperFunction,SMDPad,CuDef*%
%ADD30RoundRect,0.250000X0.375000X0.625000X-0.375000X0.625000X-0.375000X-0.625000X0.375000X-0.625000X0*%
%TD*%
%TA.AperFunction,SMDPad,CuDef*%
%ADD31RoundRect,0.225000X-0.225000X-0.250000X0.225000X-0.250000X0.225000X0.250000X-0.225000X0.250000X0*%
%TD*%
%TA.AperFunction,SMDPad,CuDef*%
%ADD32RoundRect,0.200000X0.200000X0.275000X-0.200000X0.275000X-0.200000X-0.275000X0.200000X-0.275000X0*%
%TD*%
%TA.AperFunction,SMDPad,CuDef*%
%ADD33R,0.400000X0.650000*%
%TD*%
%TA.AperFunction,SMDPad,CuDef*%
%ADD34RoundRect,0.200000X-0.200000X-0.275000X0.200000X-0.275000X0.200000X0.275000X-0.200000X0.275000X0*%
%TD*%
%TA.AperFunction,SMDPad,CuDef*%
%ADD35R,0.500000X0.850000*%
%TD*%
%TA.AperFunction,SMDPad,CuDef*%
%ADD36RoundRect,0.225000X0.225000X0.250000X-0.225000X0.250000X-0.225000X-0.250000X0.225000X-0.250000X0*%
%TD*%
%TA.AperFunction,SMDPad,CuDef*%
%ADD37RoundRect,0.249375X0.625625X-0.463125X0.625625X0.463125X-0.625625X0.463125X-0.625625X-0.463125X0*%
%TD*%
%TA.AperFunction,SMDPad,CuDef*%
%ADD38FreePoly2,90.000000*%
%TD*%
%TA.AperFunction,SMDPad,CuDef*%
%ADD39R,0.500000X2.000000*%
%TD*%
%TA.AperFunction,SMDPad,CuDef*%
%ADD40R,3.700000X1.425000*%
%TD*%
%TA.AperFunction,SMDPad,CuDef*%
%ADD41FreePoly3,90.000000*%
%TD*%
%TA.AperFunction,SMDPad,CuDef*%
%ADD42R,1.100000X0.600000*%
%TD*%
%TA.AperFunction,SMDPad,CuDef*%
%ADD43R,2.000000X0.500000*%
%TD*%
%TA.AperFunction,SMDPad,CuDef*%
%ADD44RoundRect,0.250000X-0.250000X-0.475000X0.250000X-0.475000X0.250000X0.475000X-0.250000X0.475000X0*%
%TD*%
%TA.AperFunction,SMDPad,CuDef*%
%ADD45FreePoly4,90.000000*%
%TD*%
%TA.AperFunction,SMDPad,CuDef*%
%ADD46FreePoly5,90.000000*%
%TD*%
%TA.AperFunction,SMDPad,CuDef*%
%ADD47R,4.000000X0.500000*%
%TD*%
%TA.AperFunction,ComponentPad*%
%ADD48RoundRect,0.250000X0.675000X-0.600000X0.675000X0.600000X-0.675000X0.600000X-0.675000X-0.600000X0*%
%TD*%
%TA.AperFunction,ComponentPad*%
%ADD49O,1.850000X1.700000*%
%TD*%
%TA.AperFunction,ComponentPad*%
%ADD50RoundRect,0.250000X-0.675000X0.600000X-0.675000X-0.600000X0.675000X-0.600000X0.675000X0.600000X0*%
%TD*%
%TA.AperFunction,ViaPad*%
%ADD51C,0.800000*%
%TD*%
%TA.AperFunction,Conductor*%
%ADD52C,0.250000*%
%TD*%
%TA.AperFunction,Conductor*%
%ADD53C,0.200000*%
%TD*%
%TA.AperFunction,Conductor*%
%ADD54C,0.500000*%
%TD*%
G04 APERTURE END LIST*
%TO.C,JP8*%
G36*
X162750000Y-90200000D02*
G01*
X161750000Y-90200000D01*
X161750000Y-89800000D01*
X162750000Y-89800000D01*
X162750000Y-90200000D01*
G37*
%TO.C,JP6*%
G36*
X156800000Y-91762500D02*
G01*
X156400000Y-91762500D01*
X156400000Y-90762500D01*
X156800000Y-90762500D01*
X156800000Y-91762500D01*
G37*
%TO.C,JP4*%
G36*
X133750000Y-107700000D02*
G01*
X132750000Y-107700000D01*
X132750000Y-107300000D01*
X133750000Y-107300000D01*
X133750000Y-107700000D01*
G37*
%TO.C,JP2*%
G36*
X139400000Y-106850000D02*
G01*
X139000000Y-106850000D01*
X139000000Y-105850000D01*
X139400000Y-105850000D01*
X139400000Y-106850000D01*
G37*
%TD*%
D10*
%TO.P,J4,1,Pin_1*%
%TO.N,GND*%
X153705000Y-108660000D03*
D11*
%TO.P,J4,2,Pin_2*%
%TO.N,DC*%
X156245000Y-108660000D03*
%TD*%
D12*
%TO.P,JP8,1,A*%
%TO.N,R1*%
X161337500Y-90000000D03*
D13*
X160787500Y-90000000D03*
D12*
%TO.P,JP8,2,B*%
%TO.N,GND*%
X163162500Y-90000000D03*
D13*
X163712500Y-90000000D03*
%TD*%
D12*
%TO.P,JP7,1,A*%
%TO.N,Net-(J2-Pad2)*%
X161337500Y-92500000D03*
D13*
X160787500Y-92500000D03*
D12*
%TO.P,JP7,2,B*%
%TO.N,DC*%
X163162500Y-92500000D03*
D13*
X163712500Y-92500000D03*
%TD*%
D14*
%TO.P,JP6,1,A*%
%TO.N,Net-(J2-Pad2)*%
X156600000Y-90350000D03*
D15*
X156600000Y-89800000D03*
D14*
%TO.P,JP6,2,B*%
%TO.N,R2*%
X156600000Y-92175000D03*
D15*
X156600000Y-92725000D03*
%TD*%
D12*
%TO.P,JP5,1,A*%
%TO.N,R3*%
X161337500Y-95000000D03*
D13*
X160787500Y-95000000D03*
D12*
%TO.P,JP5,2,B*%
%TO.N,+3V3*%
X163162500Y-95000000D03*
D13*
X163712500Y-95000000D03*
%TD*%
D16*
%TO.P,JP4,1,A*%
%TO.N,L1*%
X134162500Y-107500000D03*
D17*
X134712500Y-107500000D03*
D16*
%TO.P,JP4,2,B*%
%TO.N,GND*%
X132337500Y-107500000D03*
D17*
X131787500Y-107500000D03*
%TD*%
D16*
%TO.P,JP3,1,A*%
%TO.N,Net-(J1-Pad2)*%
X134162500Y-105250000D03*
D17*
X134712500Y-105250000D03*
D16*
%TO.P,JP3,2,B*%
%TO.N,DC*%
X132337500Y-105250000D03*
D17*
X131787500Y-105250000D03*
%TD*%
D14*
%TO.P,JP2,1,A*%
%TO.N,Net-(J1-Pad2)*%
X139200000Y-105437500D03*
D15*
X139200000Y-104887500D03*
D14*
%TO.P,JP2,2,B*%
%TO.N,L2*%
X139200000Y-107262500D03*
D15*
X139200000Y-107812500D03*
%TD*%
D16*
%TO.P,JP1,1,A*%
%TO.N,L3*%
X134162500Y-102600000D03*
D17*
X134712500Y-102600000D03*
D16*
%TO.P,JP1,2,B*%
%TO.N,+3V3*%
X132337500Y-102600000D03*
D17*
X131787500Y-102600000D03*
%TD*%
D18*
%TO.P,J3,A1,GND*%
%TO.N,GND*%
X144500000Y-103140000D03*
D19*
%TO.P,J3,S1,SHIELD*%
X144810000Y-104210000D03*
X150590000Y-104210000D03*
D18*
%TO.P,J3,B1,GND*%
X150900000Y-103140000D03*
%TO.P,J3,B9,VBUS*%
%TO.N,VBUS*%
X145300000Y-103140000D03*
%TO.P,J3,A9,VBUS*%
X150100000Y-103140000D03*
D20*
%TO.P,J3,B8,SBU2*%
%TO.N,unconnected-(J3-PadB8)*%
X145950000Y-103140000D03*
%TO.P,J3,B5,CC2*%
%TO.N,Net-(J3-PadB5)*%
X149450000Y-103140000D03*
%TO.P,J3,A5,CC1*%
%TO.N,Net-(J3-PadA5)*%
X146450000Y-103140000D03*
%TO.P,J3,A8,SBU1*%
%TO.N,unconnected-(J3-PadA8)*%
X148950000Y-103140000D03*
%TO.P,J3,B7,D-*%
%TO.N,Net-(C2-Pad1)*%
X146950000Y-103140000D03*
%TO.P,J3,B6,D+*%
%TO.N,Net-(C3-Pad1)*%
X148450000Y-103140000D03*
%TO.P,J3,A6,D+*%
X147450000Y-103140000D03*
%TO.P,J3,A7,D-*%
%TO.N,Net-(C2-Pad1)*%
X147950000Y-103140000D03*
D21*
%TO.P,J3,S1,SHIELD*%
%TO.N,GND*%
X143380000Y-103720000D03*
X152020000Y-103720000D03*
D22*
X143380000Y-107890000D03*
X152020000Y-107890000D03*
D18*
%TO.P,J3,B4,VBUS*%
%TO.N,VBUS*%
X150100000Y-103140000D03*
%TO.P,J3,B12,GND*%
%TO.N,GND*%
X144500000Y-103140000D03*
%TO.P,J3,A4,VBUS*%
%TO.N,VBUS*%
X145300000Y-103140000D03*
%TO.P,J3,A12,GND*%
%TO.N,GND*%
X150900000Y-103140000D03*
D23*
%TO.P,J3,S1,SHIELD*%
X147700000Y-107255000D03*
D24*
X147700000Y-107255000D03*
%TD*%
D25*
%TO.P,U2,1,RXD*%
%TO.N,O*%
X140450000Y-100000000D03*
%TO.P,U2,2,~{RI}*%
%TO.N,GND*%
X140950000Y-100000000D03*
%TO.P,U2,3,GND*%
X141450000Y-100000000D03*
%TO.P,U2,4,~{DSR}*%
X141950000Y-100000000D03*
%TO.P,U2,5,~{DCD}*%
X142450000Y-100000000D03*
D26*
%TO.P,U2,6,~{CTS}*%
X143350000Y-99100000D03*
%TO.P,U2,7,CBUS2*%
%TO.N,unconnected-(U2-Pad7)*%
X143350000Y-98600000D03*
%TO.P,U2,8,USBDP*%
%TO.N,D+*%
X143350000Y-98100000D03*
%TO.P,U2,9,USBDM*%
%TO.N,D-*%
X143350000Y-97600000D03*
%TO.P,U2,10,3V3OUT*%
%TO.N,Net-(C1-Pad1)*%
X143350000Y-97100000D03*
D25*
%TO.P,U2,11,~{RESET}*%
X142450000Y-96200000D03*
%TO.P,U2,12,VCC*%
%TO.N,VBUS*%
X141950000Y-96200000D03*
%TO.P,U2,13,GND*%
%TO.N,GND*%
X141450000Y-96200000D03*
%TO.P,U2,14,CBUS1*%
%TO.N,unconnected-(U2-Pad14)*%
X140950000Y-96200000D03*
%TO.P,U2,15,CBUS0*%
%TO.N,unconnected-(U2-Pad15)*%
X140450000Y-96200000D03*
D26*
%TO.P,U2,16,CBUS3*%
%TO.N,unconnected-(U2-Pad16)*%
X139550000Y-97100000D03*
%TO.P,U2,17,TXD*%
%TO.N,I*%
X139550000Y-97600000D03*
%TO.P,U2,18,~{DTR}*%
%TO.N,GPIO0*%
X139550000Y-98100000D03*
%TO.P,U2,19,~{RTS}*%
%TO.N,EN*%
X139550000Y-98600000D03*
%TO.P,U2,20,VCCIO*%
%TO.N,Net-(C1-Pad1)*%
X139550000Y-99100000D03*
D27*
%TO.P,U2,21,GND*%
%TO.N,GND*%
X141450000Y-98100000D03*
D28*
X141450000Y-98100000D03*
%TD*%
D29*
%TO.P,R3,1*%
%TO.N,Net-(D1-Pad4)*%
X142600000Y-91583217D03*
%TO.P,R3,2*%
%TO.N,B*%
X142600000Y-89933217D03*
%TD*%
D30*
%TO.P,D2,1,K*%
%TO.N,DC*%
X156440000Y-105700000D03*
%TO.P,D2,2,A*%
%TO.N,VBUS*%
X153640000Y-105700000D03*
%TD*%
D31*
%TO.P,C1,1*%
%TO.N,Net-(C1-Pad1)*%
X140605000Y-101980000D03*
%TO.P,C1,2*%
%TO.N,GND*%
X142155000Y-101980000D03*
%TD*%
D32*
%TO.P,R5,1*%
%TO.N,GND*%
X151050000Y-101700000D03*
%TO.P,R5,2*%
%TO.N,Net-(J3-PadB5)*%
X149400000Y-101700000D03*
%TD*%
D33*
%TO.P,D4,1,A1*%
%TO.N,GND*%
X133900000Y-94050000D03*
%TO.P,D4,2,K2*%
%TO.N,+3V3*%
X133250000Y-94050000D03*
%TO.P,D4,3,K1A2*%
%TO.N,L6*%
X132600000Y-94050000D03*
%TO.P,D4,4,A3*%
%TO.N,GND*%
X132600000Y-95950000D03*
%TO.P,D4,5,K4*%
%TO.N,+3V3*%
X133250000Y-95950000D03*
%TO.P,D4,6,K3A4*%
%TO.N,L5*%
X133900000Y-95950000D03*
%TD*%
%TO.P,D3,1,A1*%
%TO.N,GND*%
X133900000Y-98550000D03*
%TO.P,D3,2,K2*%
%TO.N,+3V3*%
X133250000Y-98550000D03*
%TO.P,D3,3,K1A2*%
%TO.N,L4*%
X132600000Y-98550000D03*
%TO.P,D3,4,A3*%
%TO.N,GND*%
X132600000Y-100450000D03*
%TO.P,D3,5,K4*%
%TO.N,+3V3*%
X133250000Y-100450000D03*
%TO.P,D3,6,K3A4*%
%TO.N,L3*%
X133900000Y-100450000D03*
%TD*%
D32*
%TO.P,R4,1*%
%TO.N,Net-(J3-PadA5)*%
X145925000Y-101700000D03*
%TO.P,R4,2*%
%TO.N,GND*%
X144275000Y-101700000D03*
%TD*%
%TO.P,R6,1*%
%TO.N,Net-(C2-Pad1)*%
X146625000Y-97400000D03*
%TO.P,R6,2*%
%TO.N,D-*%
X144975000Y-97400000D03*
%TD*%
D34*
%TO.P,R7,1*%
%TO.N,D+*%
X144975000Y-98600000D03*
%TO.P,R7,2*%
%TO.N,Net-(C3-Pad1)*%
X146625000Y-98600000D03*
%TD*%
D35*
%TO.P,D1,1,A*%
%TO.N,+3V3*%
X140400000Y-89883217D03*
%TO.P,D1,2,RK*%
%TO.N,Net-(D1-Pad2)*%
X140400000Y-91633217D03*
%TO.P,D1,3,GK*%
%TO.N,Net-(D1-Pad3)*%
X139400000Y-91633217D03*
%TO.P,D1,4,BK*%
%TO.N,Net-(D1-Pad4)*%
X139400000Y-89883217D03*
%TD*%
D29*
%TO.P,R1,1*%
%TO.N,Net-(D1-Pad2)*%
X141400000Y-91583217D03*
%TO.P,R1,2*%
%TO.N,R*%
X141400000Y-89933217D03*
%TD*%
%TO.P,R2,1*%
%TO.N,Net-(D1-Pad3)*%
X143800000Y-91583217D03*
%TO.P,R2,2*%
%TO.N,G*%
X143800000Y-89933217D03*
%TD*%
D36*
%TO.P,C4,1*%
%TO.N,GND*%
X155875000Y-103900000D03*
%TO.P,C4,2*%
%TO.N,VBUS*%
X154325000Y-103900000D03*
%TD*%
%TO.P,C2,1*%
%TO.N,Net-(C2-Pad1)*%
X146575000Y-96200000D03*
%TO.P,C2,2*%
%TO.N,GND*%
X145025000Y-96200000D03*
%TD*%
%TO.P,C3,1*%
%TO.N,Net-(C3-Pad1)*%
X146575000Y-99800000D03*
%TO.P,C3,2*%
%TO.N,GND*%
X145025000Y-99800000D03*
%TD*%
D33*
%TO.P,D8,1,A1*%
%TO.N,GND*%
X161600000Y-103450000D03*
%TO.P,D8,2,K2*%
%TO.N,+3V3*%
X162250000Y-103450000D03*
%TO.P,D8,3,K1A2*%
%TO.N,R6*%
X162900000Y-103450000D03*
%TO.P,D8,4,A3*%
%TO.N,GND*%
X162900000Y-101550000D03*
%TO.P,D8,5,K4*%
%TO.N,+3V3*%
X162250000Y-101550000D03*
%TO.P,D8,6,K3A4*%
%TO.N,R5*%
X161600000Y-101550000D03*
%TD*%
D32*
%TO.P,R9,1*%
%TO.N,GND*%
X154025000Y-98400000D03*
%TO.P,R9,2*%
%TO.N,Net-(R8-Pad2)*%
X152375000Y-98400000D03*
%TD*%
D33*
%TO.P,D9,1,A1*%
%TO.N,GND*%
X161600000Y-107950000D03*
%TO.P,D9,2,K2*%
%TO.N,+3V3*%
X162250000Y-107950000D03*
%TO.P,D9,3,K1A2*%
%TO.N,R8*%
X162900000Y-107950000D03*
%TO.P,D9,4,A3*%
%TO.N,GND*%
X162900000Y-106050000D03*
%TO.P,D9,5,K4*%
%TO.N,+3V3*%
X162250000Y-106050000D03*
%TO.P,D9,6,K3A4*%
%TO.N,R7*%
X161600000Y-106050000D03*
%TD*%
%TO.P,D7,1,A1*%
%TO.N,GND*%
X161600000Y-99200000D03*
%TO.P,D7,2,K2*%
%TO.N,+3V3*%
X162250000Y-99200000D03*
%TO.P,D7,3,K1A2*%
%TO.N,R4*%
X162900000Y-99200000D03*
%TO.P,D7,4,A3*%
%TO.N,GND*%
X162900000Y-97300000D03*
%TO.P,D7,5,K4*%
%TO.N,+3V3*%
X162250000Y-97300000D03*
%TO.P,D7,6,K3A4*%
%TO.N,R3*%
X161600000Y-97300000D03*
%TD*%
D32*
%TO.P,R8,1*%
%TO.N,+3V3*%
X154025000Y-97200000D03*
%TO.P,R8,2*%
%TO.N,Net-(R8-Pad2)*%
X152375000Y-97200000D03*
%TD*%
D33*
%TO.P,D5,1,A1*%
%TO.N,GND*%
X133900000Y-89550000D03*
%TO.P,D5,2,K2*%
%TO.N,+3V3*%
X133250000Y-89550000D03*
%TO.P,D5,3,K1A2*%
%TO.N,L8*%
X132600000Y-89550000D03*
%TO.P,D5,4,A3*%
%TO.N,GND*%
X132600000Y-91450000D03*
%TO.P,D5,5,K4*%
%TO.N,+3V3*%
X133250000Y-91450000D03*
%TO.P,D5,6,K3A4*%
%TO.N,L7*%
X133900000Y-91450000D03*
%TD*%
D36*
%TO.P,U3,*%
%TO.N,*%
X150765000Y-96390000D03*
D37*
X152910000Y-93492500D03*
D38*
X150190000Y-94765000D03*
D39*
X151090000Y-92390000D03*
D40*
X149790000Y-91890000D03*
D41*
X149290000Y-95090000D03*
D42*
X151090000Y-93340000D03*
D36*
X149215000Y-96390000D03*
D43*
X152040000Y-93340000D03*
D42*
X148390000Y-93340000D03*
%TO.P,U3,1,SHDN*%
%TO.N,DC*%
X151090000Y-95240000D03*
D44*
%TO.P,U3,2,VIN*%
X152340000Y-95140000D03*
D42*
X151090000Y-94290000D03*
D45*
X152290000Y-95350000D03*
D44*
%TO.P,U3,3,GND*%
%TO.N,GND*%
X154240000Y-88890000D03*
X154240000Y-95140000D03*
D46*
X154240000Y-95390000D03*
D37*
X152910000Y-90527500D03*
D42*
X148390000Y-94290000D03*
D47*
%TO.P,U3,4,VOUT*%
%TO.N,+3V3*%
X150540000Y-88890000D03*
D44*
X152340000Y-88890000D03*
D40*
X149790000Y-88890000D03*
D42*
%TO.P,U3,5,FB*%
%TO.N,Net-(R8-Pad2)*%
X148390000Y-95240000D03*
%TD*%
D48*
%TO.P,J1,1,Pin_1*%
%TO.N,L1*%
X136600000Y-107550000D03*
D49*
%TO.P,J1,2,Pin_2*%
%TO.N,Net-(J1-Pad2)*%
X136600000Y-105050000D03*
%TO.P,J1,3,Pin_3*%
%TO.N,L3*%
X136600000Y-102550000D03*
%TO.P,J1,4,Pin_4*%
%TO.N,L4*%
X136600000Y-100050000D03*
%TO.P,J1,5,Pin_5*%
%TO.N,L5*%
X136600000Y-97550000D03*
%TO.P,J1,6,Pin_6*%
%TO.N,L6*%
X136600000Y-95050000D03*
%TO.P,J1,7,Pin_7*%
%TO.N,L7*%
X136600000Y-92550000D03*
%TO.P,J1,8,Pin_8*%
%TO.N,L8*%
X136600000Y-90050000D03*
%TD*%
D50*
%TO.P,J2,1,Pin_1*%
%TO.N,R1*%
X158900000Y-90050000D03*
D49*
%TO.P,J2,2,Pin_2*%
%TO.N,Net-(J2-Pad2)*%
X158900000Y-92550000D03*
%TO.P,J2,3,Pin_3*%
%TO.N,R3*%
X158900000Y-95050000D03*
%TO.P,J2,4,Pin_4*%
%TO.N,R4*%
X158900000Y-97550000D03*
%TO.P,J2,5,Pin_5*%
%TO.N,R5*%
X158900000Y-100050000D03*
%TO.P,J2,6,Pin_6*%
%TO.N,R6*%
X158900000Y-102550000D03*
%TO.P,J2,7,Pin_7*%
%TO.N,R7*%
X158900000Y-105050000D03*
%TO.P,J2,8,Pin_8*%
%TO.N,R8*%
X158900000Y-107550000D03*
%TD*%
D51*
%TO.N,GND*%
X134800000Y-101100000D03*
X146000000Y-89000000D03*
%TO.N,R*%
X141400000Y-88900000D03*
%TO.N,B*%
X142600000Y-89000000D03*
%TO.N,G*%
X144200000Y-92700000D03*
%TO.N,GND*%
X163800000Y-108600000D03*
X149200000Y-98900000D03*
%TO.N,R2*%
X159900000Y-93800000D03*
%TO.N,GND*%
X134700000Y-92400000D03*
X133400000Y-97000000D03*
%TO.N,L2*%
X140900000Y-108300000D03*
%TO.N,VBUS*%
X143808443Y-94954941D03*
X143981866Y-100152267D03*
%TO.N,O*%
X142711018Y-100974866D03*
%TO.N,I*%
X140850049Y-94174500D03*
%TO.N,GPIO0*%
X140419217Y-106055634D03*
%TO.N,EN*%
X141400000Y-103100000D03*
%TO.N,GND*%
X162100000Y-88600000D03*
%TO.N,Net-(C1-Pad1)*%
X143251000Y-96120208D03*
X141037879Y-101699366D03*
%TO.N,Net-(C3-Pad1)*%
X148800000Y-100700000D03*
X147200000Y-100700000D03*
%TO.N,DC*%
X162400000Y-91500000D03*
%TO.N,+3V3*%
X153140500Y-88900000D03*
%TO.N,GND*%
X152900000Y-92000000D03*
%TD*%
D52*
%TO.N,DC*%
X153099520Y-99199520D02*
X153057257Y-99241783D01*
X153057257Y-99241783D02*
X152000000Y-99241783D01*
X152000000Y-99241783D02*
X151500000Y-98741783D01*
X151300000Y-97700000D02*
X148637158Y-97700000D01*
X151500000Y-98741783D02*
X151500000Y-97900000D01*
X151500000Y-97900000D02*
X151300000Y-97700000D01*
X148637158Y-97700000D02*
X147990970Y-97053812D01*
X147990970Y-97053812D02*
X147990969Y-96190969D01*
X145250000Y-93450000D02*
X140250000Y-93450000D01*
X137976459Y-103174501D02*
X137275480Y-103875480D01*
X140250000Y-93450000D02*
X139600000Y-94100000D01*
X147990969Y-96190969D02*
X145250000Y-93450000D01*
X139600000Y-94100000D02*
X139600000Y-95516968D01*
X137976458Y-97140510D02*
X137976459Y-103174501D01*
X133224520Y-103875480D02*
X131850000Y-105250000D01*
X139600000Y-95516968D02*
X137976458Y-97140510D01*
X137275480Y-103875480D02*
X133224520Y-103875480D01*
X131850000Y-105250000D02*
X131787500Y-105250000D01*
%TO.N,GPIO0*%
X139550000Y-98100000D02*
X139016968Y-98100000D01*
X139016968Y-98100000D02*
X138425969Y-98690999D01*
X140419217Y-103682059D02*
X138425969Y-101688811D01*
X138425969Y-101688811D02*
X138425969Y-98690999D01*
X140419217Y-106055634D02*
X140419217Y-103682059D01*
%TO.N,EN*%
X138875480Y-98877192D02*
X138875480Y-101502618D01*
X140472862Y-103100000D02*
X141400000Y-103100000D01*
X139550000Y-98600000D02*
X139152672Y-98600000D01*
X139152672Y-98600000D02*
X138875480Y-98877192D01*
X138875480Y-101502618D02*
X140472862Y-103100000D01*
%TO.N,GND*%
X141450000Y-96200000D02*
X141450000Y-95150000D01*
X141450000Y-95150000D02*
X142500000Y-94100000D01*
X142500000Y-94100000D02*
X144400000Y-94100000D01*
X144400000Y-94100000D02*
X145025000Y-94725000D01*
X145025000Y-94725000D02*
X145025000Y-96200000D01*
X141450000Y-96200000D02*
X141450000Y-98100000D01*
%TO.N,R*%
X141400000Y-88900000D02*
X141400000Y-89933217D01*
%TO.N,B*%
X142600000Y-89000000D02*
X142600000Y-89933217D01*
%TO.N,VBUS*%
X143526584Y-95236800D02*
X143808443Y-94954941D01*
X141950000Y-96200000D02*
X141950000Y-95802672D01*
%TO.N,G*%
X144200000Y-92700000D02*
X144599520Y-92300480D01*
%TO.N,VBUS*%
X142515872Y-95236800D02*
X143526584Y-95236800D01*
X141950000Y-95802672D02*
X142515872Y-95236800D01*
%TO.N,G*%
X144599520Y-92300480D02*
X144599520Y-90732737D01*
X144599520Y-90732737D02*
X143800000Y-89933217D01*
%TO.N,R2*%
X158000000Y-93800000D02*
X159900000Y-93800000D01*
%TO.N,L2*%
X139200000Y-107812500D02*
X140412500Y-107812500D01*
X140412500Y-107812500D02*
X140900000Y-108300000D01*
%TO.N,I*%
X140850049Y-94902623D02*
X140850049Y-94174500D01*
X139152672Y-97600000D02*
X138875480Y-97322808D01*
X139550000Y-97600000D02*
X139152672Y-97600000D01*
X138875480Y-97322808D02*
X138875480Y-96877192D01*
X138875480Y-96877192D02*
X140850049Y-94902623D01*
%TO.N,Net-(R8-Pad2)*%
X148390000Y-95240000D02*
X148440481Y-95290481D01*
X148440481Y-96867619D02*
X148772862Y-97200000D01*
%TO.N,DC*%
X153600000Y-99700000D02*
X153800000Y-99700000D01*
%TO.N,Net-(R8-Pad2)*%
X148440481Y-95290481D02*
X148440481Y-96867619D01*
X148772862Y-97200000D02*
X152375000Y-97200000D01*
%TO.N,DC*%
X153800000Y-99700000D02*
X156800000Y-99700000D01*
%TO.N,+3V3*%
X132524511Y-87875489D02*
X140375489Y-87875489D01*
X140375489Y-87875489D02*
X148775489Y-87875489D01*
X140400000Y-89883217D02*
X140400000Y-87900000D01*
X140400000Y-87900000D02*
X140375489Y-87875489D01*
%TO.N,GND*%
X142450000Y-100000000D02*
X142800000Y-100000000D01*
X142800000Y-100000000D02*
X144275000Y-101475000D01*
X144275000Y-101475000D02*
X144275000Y-101700000D01*
X143350000Y-99100000D02*
X144000000Y-99100000D01*
X144000000Y-99100000D02*
X144700000Y-99800000D01*
X144700000Y-99800000D02*
X145025000Y-99800000D01*
%TO.N,VBUS*%
X144800000Y-101000000D02*
X144100000Y-100300000D01*
X144999520Y-101199520D02*
X144800000Y-101000000D01*
%TO.N,Net-(C1-Pad1)*%
X142875000Y-96625000D02*
X143251000Y-96249000D01*
X143251000Y-96249000D02*
X143251000Y-96120208D01*
%TO.N,VBUS*%
X145300000Y-103140000D02*
X145300000Y-102320000D01*
X145300000Y-102320000D02*
X144999520Y-102019520D01*
X144999520Y-102019520D02*
X144999520Y-101199520D01*
%TO.N,Net-(C1-Pad1)*%
X140885634Y-101699366D02*
X141037879Y-101699366D01*
%TO.N,O*%
X141027538Y-100974866D02*
X142711018Y-100974866D01*
X140450000Y-100397328D02*
X141027538Y-100974866D01*
%TO.N,Net-(C1-Pad1)*%
X140605000Y-101980000D02*
X140885634Y-101699366D01*
%TO.N,O*%
X140450000Y-100000000D02*
X140450000Y-100397328D01*
%TO.N,DC*%
X152340000Y-95140000D02*
X153099520Y-95899520D01*
X153099520Y-95899520D02*
X153099520Y-99199520D01*
X153099520Y-99199520D02*
X153600000Y-99700000D01*
X156800000Y-99700000D02*
X156800000Y-105340000D01*
X156800000Y-105340000D02*
X156440000Y-105700000D01*
%TO.N,+3V3*%
X155200000Y-87800000D02*
X164400000Y-87800000D01*
X155200000Y-87800000D02*
X155200000Y-96025000D01*
X151630000Y-87800000D02*
X155200000Y-87800000D01*
X155200000Y-96025000D02*
X154025000Y-97200000D01*
%TO.N,R2*%
X156600000Y-92725000D02*
X156925000Y-92725000D01*
X156925000Y-92725000D02*
X158000000Y-93800000D01*
%TO.N,Net-(J2-Pad2)*%
X156600000Y-89800000D02*
X156600000Y-90250000D01*
X156600000Y-90250000D02*
X158900000Y-92550000D01*
%TO.N,Net-(C1-Pad1)*%
X142875000Y-96625000D02*
X143350000Y-97100000D01*
X142450000Y-96200000D02*
X142875000Y-96625000D01*
X139550000Y-99100000D02*
X139550000Y-100925000D01*
X139550000Y-100925000D02*
X140605000Y-101980000D01*
%TO.N,GND*%
X143350000Y-99100000D02*
X142450000Y-99100000D01*
X141450000Y-98100000D02*
X142450000Y-99100000D01*
X142450000Y-100000000D02*
X142450000Y-99100000D01*
X141950000Y-100000000D02*
X141950000Y-98600000D01*
X141450000Y-100000000D02*
X141450000Y-98100000D01*
X140950000Y-100000000D02*
X140950000Y-98600000D01*
X140950000Y-98600000D02*
X141450000Y-98100000D01*
D53*
%TO.N,D-*%
X143350000Y-97600000D02*
X144775000Y-97600000D01*
X144775000Y-97600000D02*
X144975000Y-97400000D01*
%TO.N,D+*%
X143350000Y-98100000D02*
X144475000Y-98100000D01*
X144475000Y-98100000D02*
X144975000Y-98600000D01*
D52*
%TO.N,Net-(C3-Pad1)*%
X148450000Y-103140000D02*
X148450000Y-101050000D01*
X148450000Y-101050000D02*
X148800000Y-100700000D01*
%TO.N,Net-(C2-Pad1)*%
X147950000Y-103140000D02*
X147950000Y-98708217D01*
X147950000Y-98708217D02*
X146641783Y-97400000D01*
X146641783Y-97400000D02*
X146625000Y-97400000D01*
%TO.N,Net-(C3-Pad1)*%
X147450000Y-103140000D02*
X147450000Y-100675000D01*
X147450000Y-100675000D02*
X146575000Y-99800000D01*
%TO.N,Net-(C2-Pad1)*%
X146950000Y-103140000D02*
X146950000Y-101508217D01*
X146950000Y-101508217D02*
X145799520Y-100357737D01*
X145799520Y-100357737D02*
X145799520Y-98208697D01*
X145799520Y-98208697D02*
X146608217Y-97400000D01*
X146608217Y-97400000D02*
X146625000Y-97400000D01*
%TO.N,Net-(C3-Pad1)*%
X146625000Y-98600000D02*
X146625000Y-99750000D01*
X146625000Y-99750000D02*
X146575000Y-99800000D01*
%TO.N,Net-(C2-Pad1)*%
X146575000Y-96200000D02*
X146575000Y-97350000D01*
X146575000Y-97350000D02*
X146625000Y-97400000D01*
%TO.N,Net-(J3-PadA5)*%
X146450000Y-103140000D02*
X146450000Y-102225000D01*
X146450000Y-102225000D02*
X145925000Y-101700000D01*
%TO.N,Net-(J3-PadB5)*%
X149450000Y-103140000D02*
X149450000Y-101750000D01*
X149450000Y-101750000D02*
X149400000Y-101700000D01*
%TO.N,VBUS*%
X145300000Y-103140000D02*
X145300000Y-103625006D01*
X145300000Y-103625006D02*
X145774994Y-104100000D01*
X145774994Y-104100000D02*
X149625006Y-104100000D01*
X149625006Y-104100000D02*
X150100000Y-103625006D01*
X150100000Y-103625006D02*
X150100000Y-103140000D01*
X150100000Y-103140000D02*
X150100000Y-102320000D01*
X150325480Y-102094520D02*
X150325480Y-101207737D01*
X151366783Y-100800000D02*
X154325000Y-103758217D01*
X150325480Y-101207737D02*
X150733217Y-100800000D01*
X154325000Y-103758217D02*
X154325000Y-103900000D01*
X150100000Y-102320000D02*
X150325480Y-102094520D01*
X150733217Y-100800000D02*
X151366783Y-100800000D01*
X153640000Y-105700000D02*
X153640000Y-104585000D01*
X153640000Y-104585000D02*
X154325000Y-103900000D01*
%TO.N,DC*%
X156245000Y-108660000D02*
X156245000Y-105895000D01*
X156245000Y-105895000D02*
X156440000Y-105700000D01*
X162400000Y-91500000D02*
X162400000Y-91737500D01*
X162400000Y-91737500D02*
X163162500Y-92500000D01*
%TO.N,+3V3*%
X164400000Y-87800000D02*
X164599520Y-87999520D01*
X164599520Y-87999520D02*
X164599520Y-94112980D01*
X164599520Y-94112980D02*
X163712500Y-95000000D01*
X150540000Y-88890000D02*
X151630000Y-87800000D01*
X152340000Y-88890000D02*
X153130500Y-88890000D01*
X153130500Y-88890000D02*
X153140500Y-88900000D01*
X148775489Y-87875489D02*
X149790000Y-88890000D01*
D54*
%TO.N,GND*%
X152910000Y-90527500D02*
X152910000Y-91990000D01*
X152910000Y-91990000D02*
X152900000Y-92000000D01*
D52*
%TO.N,DC*%
X151090000Y-95240000D02*
X151090000Y-94290000D01*
%TO.N,Net-(R8-Pad2)*%
X152375000Y-97200000D02*
X152375000Y-98400000D01*
%TO.N,Net-(D1-Pad3)*%
X139400000Y-91633217D02*
X139400000Y-91808217D01*
X143800000Y-91600000D02*
X143800000Y-91583217D01*
X139400000Y-91808217D02*
X139974511Y-92382728D01*
X139974511Y-92382728D02*
X143017272Y-92382728D01*
X143017272Y-92382728D02*
X143800000Y-91600000D01*
%TO.N,Net-(D1-Pad2)*%
X141400000Y-91583217D02*
X140450000Y-91583217D01*
X140450000Y-91583217D02*
X140400000Y-91633217D01*
%TO.N,Net-(D1-Pad4)*%
X139400000Y-89883217D02*
X139400000Y-90058217D01*
X141892263Y-90858697D02*
X142600000Y-91566434D01*
X139400000Y-90058217D02*
X140200480Y-90858697D01*
X142600000Y-91566434D02*
X142600000Y-91583217D01*
X140200480Y-90858697D02*
X141892263Y-90858697D01*
%TO.N,R8*%
X162900000Y-107950000D02*
X162900000Y-108525000D01*
X159950000Y-108600000D02*
X158900000Y-107550000D01*
X162900000Y-108525000D02*
X162825000Y-108600000D01*
X162825000Y-108600000D02*
X159950000Y-108600000D01*
%TO.N,R7*%
X161600000Y-106050000D02*
X160600000Y-105050000D01*
X160600000Y-105050000D02*
X158900000Y-105050000D01*
%TO.N,R6*%
X162900000Y-103450000D02*
X162900000Y-104025000D01*
X162900000Y-104025000D02*
X162825000Y-104100000D01*
X160550000Y-102550000D02*
X158900000Y-102550000D01*
X162825000Y-104100000D02*
X161075978Y-104100000D01*
X161000000Y-103000000D02*
X160550000Y-102550000D01*
X161075978Y-104100000D02*
X161000000Y-104024022D01*
X161000000Y-104024022D02*
X161000000Y-103000000D01*
%TO.N,R5*%
X161600000Y-101550000D02*
X161050000Y-101550000D01*
X159550000Y-100050000D02*
X158900000Y-100050000D01*
X161050000Y-101550000D02*
X159550000Y-100050000D01*
%TO.N,+3V3*%
X163162500Y-95000000D02*
X162250000Y-95912500D01*
X162250000Y-95912500D02*
X162250000Y-97300000D01*
X162250000Y-97300000D02*
X162250000Y-98350000D01*
X163424511Y-102375489D02*
X163424511Y-98324511D01*
X163300000Y-102500000D02*
X163424511Y-102375489D01*
X162250000Y-98350000D02*
X162250000Y-99200000D01*
X163424511Y-98324511D02*
X162275489Y-98324511D01*
X162275489Y-98324511D02*
X162250000Y-98350000D01*
X162250000Y-106950000D02*
X162250000Y-107950000D01*
X162250000Y-106950000D02*
X163174022Y-106950000D01*
X163174022Y-106950000D02*
X163500000Y-106624022D01*
X162250000Y-106050000D02*
X162250000Y-106950000D01*
X163300000Y-102500000D02*
X162300000Y-102500000D01*
X163500000Y-106624022D02*
X163500000Y-102700000D01*
X163500000Y-102700000D02*
X163300000Y-102500000D01*
X162250000Y-102550000D02*
X162250000Y-103450000D01*
X162250000Y-101550000D02*
X162250000Y-102550000D01*
X162300000Y-102500000D02*
X162250000Y-102550000D01*
%TO.N,R4*%
X162900000Y-99200000D02*
X162900000Y-99775000D01*
X162900000Y-99775000D02*
X162775000Y-99900000D01*
X161125978Y-99900000D02*
X160900000Y-99674022D01*
X162775000Y-99900000D02*
X161125978Y-99900000D01*
X160900000Y-98600000D02*
X159850000Y-97550000D01*
X160900000Y-99674022D02*
X160900000Y-98600000D01*
X159850000Y-97550000D02*
X158900000Y-97550000D01*
%TO.N,R3*%
X161337500Y-95000000D02*
X161337500Y-97037500D01*
X161337500Y-97037500D02*
X161600000Y-97300000D01*
%TO.N,L1*%
X134712500Y-107500000D02*
X136550000Y-107500000D01*
X136550000Y-107500000D02*
X136600000Y-107550000D01*
%TO.N,+3V3*%
X131900000Y-95475978D02*
X131900000Y-91000000D01*
X132524511Y-87875489D02*
X131900000Y-88500000D01*
X131900000Y-88500000D02*
X131900000Y-91000000D01*
%TO.N,L6*%
X132600000Y-94050000D02*
X132600000Y-93475000D01*
X132600000Y-93475000D02*
X132674511Y-93400489D01*
X132674511Y-93400489D02*
X134499511Y-93400489D01*
X136149022Y-95050000D02*
X136600000Y-95050000D01*
X134499511Y-93400489D02*
X136149022Y-95050000D01*
%TO.N,L5*%
X133900000Y-95950000D02*
X134350000Y-95950000D01*
X134350000Y-95950000D02*
X135950000Y-97550000D01*
X135950000Y-97550000D02*
X136600000Y-97550000D01*
%TO.N,L4*%
X134364296Y-97900000D02*
X136514296Y-100050000D01*
X132675000Y-97900000D02*
X134364296Y-97900000D01*
X132600000Y-97975000D02*
X132675000Y-97900000D01*
X136514296Y-100050000D02*
X136600000Y-100050000D01*
X132600000Y-98550000D02*
X132600000Y-97975000D01*
%TO.N,+3V3*%
X133250000Y-90875000D02*
X133250000Y-89550000D01*
X133250000Y-90875000D02*
X133250000Y-91450000D01*
X131900000Y-90900000D02*
X131999511Y-90800489D01*
X131999511Y-90800489D02*
X133175489Y-90800489D01*
X133175489Y-90800489D02*
X133250000Y-90875000D01*
X133250000Y-95950000D02*
X133250000Y-94050000D01*
X133250000Y-99350000D02*
X133250000Y-98550000D01*
X133250000Y-100450000D02*
X133250000Y-99350000D01*
X132225978Y-99350000D02*
X131900000Y-99024022D01*
X133250000Y-99350000D02*
X132225978Y-99350000D01*
X131900000Y-99024022D02*
X131900000Y-95475978D01*
X131900000Y-95475978D02*
X132075489Y-95300489D01*
X132075489Y-95300489D02*
X133124511Y-95300489D01*
X133124511Y-95300489D02*
X133250000Y-95425978D01*
X131787500Y-102600000D02*
X133250000Y-101137500D01*
X133250000Y-101137500D02*
X133250000Y-100450000D01*
%TO.N,L3*%
X133900000Y-100450000D02*
X133900000Y-101787500D01*
X133900000Y-101787500D02*
X134712500Y-102600000D01*
%TO.N,L7*%
X133900000Y-91450000D02*
X135500000Y-91450000D01*
X135500000Y-91450000D02*
X136600000Y-92550000D01*
%TO.N,L8*%
X132600000Y-89550000D02*
X132600000Y-88975000D01*
X132600000Y-88975000D02*
X132675000Y-88900000D01*
X135450000Y-88900000D02*
X136600000Y-90050000D01*
X132675000Y-88900000D02*
X135450000Y-88900000D01*
%TO.N,R3*%
X158900000Y-95050000D02*
X160737500Y-95050000D01*
X160737500Y-95050000D02*
X160787500Y-95000000D01*
%TO.N,Net-(J2-Pad2)*%
X158900000Y-92550000D02*
X160737500Y-92550000D01*
X160737500Y-92550000D02*
X160787500Y-92500000D01*
%TO.N,R1*%
X158900000Y-90050000D02*
X160737500Y-90050000D01*
X160737500Y-90050000D02*
X160787500Y-90000000D01*
%TO.N,Net-(J1-Pad2)*%
X136600000Y-105050000D02*
X138812500Y-105050000D01*
X138812500Y-105050000D02*
X139200000Y-105437500D01*
%TO.N,L3*%
X134462500Y-102550000D02*
X134412500Y-102600000D01*
X136600000Y-102550000D02*
X134462500Y-102550000D01*
%TO.N,Net-(J1-Pad2)*%
X134462500Y-105050000D02*
X134412500Y-105100000D01*
X136600000Y-105050000D02*
X134462500Y-105050000D01*
%TD*%
%TA.AperFunction,Conductor*%
%TO.N,GND*%
G36*
X165188121Y-87774002D02*
G01*
X165234614Y-87827658D01*
X165246000Y-87880000D01*
X165246000Y-109620000D01*
X165225998Y-109688121D01*
X165172342Y-109734614D01*
X165120000Y-109746000D01*
X157237321Y-109746000D01*
X157169200Y-109725998D01*
X157122707Y-109672342D01*
X157112603Y-109602068D01*
X157142097Y-109537488D01*
X157148226Y-109530905D01*
X157209674Y-109469457D01*
X157335579Y-109289646D01*
X157337902Y-109284664D01*
X157337905Y-109284659D01*
X157399738Y-109152056D01*
X157428347Y-109090703D01*
X157485161Y-108878674D01*
X157504292Y-108660000D01*
X157485161Y-108441326D01*
X157428347Y-108229297D01*
X157364381Y-108092120D01*
X157337905Y-108035341D01*
X157337902Y-108035336D01*
X157335579Y-108030354D01*
X157276404Y-107945843D01*
X157212833Y-107855054D01*
X157212831Y-107855051D01*
X157209674Y-107850543D01*
X157054457Y-107695326D01*
X157049949Y-107692169D01*
X157049946Y-107692167D01*
X156879155Y-107572578D01*
X156879153Y-107572577D01*
X156874646Y-107569421D01*
X156869664Y-107567098D01*
X156869659Y-107567095D01*
X156697250Y-107486700D01*
X156643965Y-107439783D01*
X156624500Y-107372505D01*
X156624500Y-106955500D01*
X156644502Y-106887379D01*
X156698158Y-106840886D01*
X156750500Y-106829500D01*
X156862756Y-106829500D01*
X156899374Y-106825522D01*
X156916597Y-106823651D01*
X156916598Y-106823651D01*
X156924448Y-106822798D01*
X156931841Y-106820026D01*
X156931843Y-106820026D01*
X156971351Y-106805215D01*
X157059764Y-106772071D01*
X157066943Y-106766691D01*
X157066946Y-106766689D01*
X157168224Y-106690785D01*
X157175404Y-106685404D01*
X157217302Y-106629500D01*
X157256689Y-106576946D01*
X157256691Y-106576943D01*
X157262071Y-106569764D01*
X157297858Y-106474301D01*
X157310026Y-106441843D01*
X157310026Y-106441841D01*
X157312798Y-106434448D01*
X157318768Y-106379499D01*
X157319131Y-106376153D01*
X157319131Y-106376152D01*
X157319500Y-106372756D01*
X157319500Y-105027244D01*
X157312798Y-104965552D01*
X157262071Y-104830236D01*
X157256691Y-104823057D01*
X157256689Y-104823054D01*
X157208954Y-104759362D01*
X157204674Y-104753651D01*
X157179826Y-104687144D01*
X157179500Y-104678086D01*
X157179500Y-99722146D01*
X157179970Y-99711274D01*
X157181365Y-99695168D01*
X157183561Y-99669813D01*
X157173120Y-99627779D01*
X157171114Y-99618092D01*
X157165988Y-99587297D01*
X157164004Y-99575374D01*
X157159058Y-99566207D01*
X157157515Y-99561700D01*
X157155614Y-99557307D01*
X157153103Y-99547199D01*
X157129605Y-99510807D01*
X157124585Y-99502319D01*
X157104010Y-99464186D01*
X157096359Y-99457114D01*
X157093434Y-99453343D01*
X157090222Y-99449813D01*
X157084571Y-99441060D01*
X157050541Y-99414233D01*
X157043047Y-99407833D01*
X157011235Y-99378426D01*
X157001705Y-99374213D01*
X156997708Y-99371588D01*
X156993531Y-99369292D01*
X156985353Y-99362844D01*
X156944485Y-99348492D01*
X156935287Y-99344850D01*
X156905209Y-99331552D01*
X156905207Y-99331551D01*
X156895683Y-99327341D01*
X156885306Y-99326442D01*
X156877610Y-99324466D01*
X156873630Y-99323609D01*
X156866149Y-99320982D01*
X156860584Y-99320500D01*
X156822146Y-99320500D01*
X156811274Y-99320030D01*
X156800848Y-99319127D01*
X156769813Y-99316439D01*
X156759705Y-99318950D01*
X156749322Y-99319767D01*
X156749272Y-99319127D01*
X156738048Y-99320500D01*
X154882916Y-99320500D01*
X154814795Y-99300498D01*
X154768302Y-99246842D01*
X154758198Y-99176568D01*
X154783765Y-99116750D01*
X154790176Y-99108574D01*
X154871079Y-98974988D01*
X154877285Y-98961243D01*
X154924256Y-98811356D01*
X154926869Y-98798306D01*
X154932734Y-98734479D01*
X154933000Y-98728691D01*
X154933000Y-98672115D01*
X154928525Y-98656876D01*
X154927135Y-98655671D01*
X154919452Y-98654000D01*
X153897000Y-98654000D01*
X153828879Y-98633998D01*
X153782386Y-98580342D01*
X153771000Y-98528000D01*
X153771000Y-98272000D01*
X153791002Y-98203879D01*
X153844658Y-98157386D01*
X153897000Y-98146000D01*
X154914884Y-98146000D01*
X154930123Y-98141525D01*
X154931328Y-98140135D01*
X154932999Y-98132452D01*
X154932999Y-98071295D01*
X154932736Y-98065546D01*
X154926868Y-98001685D01*
X154924257Y-97988649D01*
X154877285Y-97838757D01*
X154871079Y-97825012D01*
X154790176Y-97691426D01*
X154780869Y-97679557D01*
X154716405Y-97615093D01*
X154682379Y-97552781D01*
X154679500Y-97525998D01*
X154679500Y-97345290D01*
X154679499Y-97134385D01*
X154699501Y-97066265D01*
X154716404Y-97045290D01*
X155430216Y-96331478D01*
X155448964Y-96316336D01*
X155450189Y-96315221D01*
X155458940Y-96309571D01*
X155465387Y-96301393D01*
X155465389Y-96301391D01*
X155479729Y-96283200D01*
X155483675Y-96278759D01*
X155483602Y-96278697D01*
X155486961Y-96274733D01*
X155490638Y-96271056D01*
X155501892Y-96255308D01*
X155505398Y-96250638D01*
X155537156Y-96210353D01*
X155540188Y-96201719D01*
X155545514Y-96194266D01*
X155560203Y-96145150D01*
X155562036Y-96139508D01*
X155576390Y-96098633D01*
X155576390Y-96098632D01*
X155579018Y-96091149D01*
X155579500Y-96085584D01*
X155579500Y-96082876D01*
X155579614Y-96080242D01*
X155579643Y-96080144D01*
X155579807Y-96080151D01*
X155579851Y-96079447D01*
X155581713Y-96073222D01*
X155579597Y-96019365D01*
X155579500Y-96014418D01*
X155579500Y-93610627D01*
X155599502Y-93542506D01*
X155653158Y-93496013D01*
X155723432Y-93485909D01*
X155749729Y-93492645D01*
X155856199Y-93532559D01*
X155856201Y-93532559D01*
X155863594Y-93535331D01*
X155871442Y-93536184D01*
X155871444Y-93536184D01*
X155921586Y-93541631D01*
X155924983Y-93542000D01*
X156003658Y-93542000D01*
X157153115Y-93541999D01*
X157221236Y-93562001D01*
X157242210Y-93578904D01*
X157693522Y-94030216D01*
X157708664Y-94048964D01*
X157709779Y-94050189D01*
X157715429Y-94058940D01*
X157723607Y-94065387D01*
X157723609Y-94065389D01*
X157741800Y-94079729D01*
X157746241Y-94083675D01*
X157746303Y-94083602D01*
X157750267Y-94086961D01*
X157753944Y-94090638D01*
X157769692Y-94101892D01*
X157774362Y-94105398D01*
X157814647Y-94137156D01*
X157823281Y-94140188D01*
X157830734Y-94145514D01*
X157869840Y-94157209D01*
X157879858Y-94160205D01*
X157885506Y-94162040D01*
X157900384Y-94167265D01*
X157958029Y-94208709D01*
X157984116Y-94274739D01*
X157970364Y-94344391D01*
X157953800Y-94368727D01*
X157921719Y-94405696D01*
X157816181Y-94588126D01*
X157747043Y-94787222D01*
X157746183Y-94793155D01*
X157746182Y-94793158D01*
X157718881Y-94981453D01*
X157716801Y-94995800D01*
X157726545Y-95206333D01*
X157738372Y-95255406D01*
X157769668Y-95385266D01*
X157775924Y-95411226D01*
X157778406Y-95416684D01*
X157778407Y-95416688D01*
X157810176Y-95486560D01*
X157863157Y-95603084D01*
X157937509Y-95707901D01*
X157981561Y-95770002D01*
X157985096Y-95774986D01*
X158137340Y-95920728D01*
X158142375Y-95923979D01*
X158309360Y-96031800D01*
X158309363Y-96031801D01*
X158314397Y-96035052D01*
X158509878Y-96113834D01*
X158632688Y-96137817D01*
X158712283Y-96153361D01*
X158712286Y-96153361D01*
X158716729Y-96154229D01*
X158722270Y-96154500D01*
X159027659Y-96154500D01*
X159184806Y-96139507D01*
X159203527Y-96134015D01*
X159381278Y-96081868D01*
X159387042Y-96080177D01*
X159472863Y-96035976D01*
X159569079Y-95986422D01*
X159569082Y-95986420D01*
X159574410Y-95983676D01*
X159635452Y-95935727D01*
X159735432Y-95857192D01*
X159735436Y-95857188D01*
X159740149Y-95853486D01*
X159766033Y-95823658D01*
X159797510Y-95787384D01*
X159857264Y-95749043D01*
X159928260Y-95749094D01*
X159987959Y-95787521D01*
X160010657Y-95825734D01*
X160027645Y-95871051D01*
X160033027Y-95878233D01*
X160033028Y-95878234D01*
X160064875Y-95920728D01*
X160113882Y-95986118D01*
X160121058Y-95991496D01*
X160215825Y-96062519D01*
X160228949Y-96072355D01*
X160237357Y-96075507D01*
X160356199Y-96120059D01*
X160356201Y-96120059D01*
X160363594Y-96122831D01*
X160371442Y-96123684D01*
X160371444Y-96123684D01*
X160421577Y-96129130D01*
X160424983Y-96129500D01*
X160439052Y-96129500D01*
X160832001Y-96129499D01*
X160900120Y-96149501D01*
X160946614Y-96203156D01*
X160958000Y-96255499D01*
X160958000Y-96983580D01*
X160955451Y-97007528D01*
X160955372Y-97009193D01*
X160953180Y-97019376D01*
X160954404Y-97029717D01*
X160957127Y-97052723D01*
X160957477Y-97058654D01*
X160957572Y-97058646D01*
X160958000Y-97063824D01*
X160958000Y-97069024D01*
X160958854Y-97074153D01*
X160958854Y-97074156D01*
X160961169Y-97088065D01*
X160962006Y-97093943D01*
X160966793Y-97134385D01*
X160968030Y-97144841D01*
X160971993Y-97153093D01*
X160973496Y-97162126D01*
X160978443Y-97171295D01*
X160978444Y-97171297D01*
X160997834Y-97207232D01*
X161000531Y-97212525D01*
X161019285Y-97251582D01*
X161019288Y-97251586D01*
X161022719Y-97258732D01*
X161026314Y-97263008D01*
X161028237Y-97264931D01*
X161030009Y-97266863D01*
X161030052Y-97266942D01*
X161029928Y-97267055D01*
X161030404Y-97267595D01*
X161033490Y-97273314D01*
X161041135Y-97280381D01*
X161073086Y-97309916D01*
X161076652Y-97313346D01*
X161108596Y-97345290D01*
X161142622Y-97407602D01*
X161145501Y-97434385D01*
X161145501Y-97650066D01*
X161160266Y-97724301D01*
X161167161Y-97734621D01*
X161167162Y-97734622D01*
X161189812Y-97768519D01*
X161216516Y-97808484D01*
X161300699Y-97864734D01*
X161374933Y-97879500D01*
X161407035Y-97879500D01*
X161744501Y-97879499D01*
X161812620Y-97899501D01*
X161859113Y-97953156D01*
X161870500Y-98005499D01*
X161870500Y-98257296D01*
X161850498Y-98325417D01*
X161819544Y-98352239D01*
X161801671Y-98372865D01*
X161800000Y-98380548D01*
X161800000Y-98814900D01*
X161797579Y-98839481D01*
X161795500Y-98849933D01*
X161795501Y-99183417D01*
X161795501Y-99274000D01*
X161775499Y-99342120D01*
X161721844Y-99388614D01*
X161669501Y-99400000D01*
X161526000Y-99400000D01*
X161457879Y-99379998D01*
X161411386Y-99326342D01*
X161400000Y-99274000D01*
X161400000Y-98385116D01*
X161395525Y-98369877D01*
X161394135Y-98368672D01*
X161386452Y-98367001D01*
X161355331Y-98367001D01*
X161348510Y-98367371D01*
X161297654Y-98372894D01*
X161296015Y-98373284D01*
X161294698Y-98373215D01*
X161289793Y-98373748D01*
X161289707Y-98372955D01*
X161225115Y-98369584D01*
X161181335Y-98343225D01*
X161164413Y-98327582D01*
X161160848Y-98324154D01*
X160156478Y-97319784D01*
X160141336Y-97301036D01*
X160140221Y-97299811D01*
X160134571Y-97291060D01*
X160126393Y-97284613D01*
X160126391Y-97284611D01*
X160108200Y-97270271D01*
X160103759Y-97266325D01*
X160103697Y-97266398D01*
X160099733Y-97263039D01*
X160096056Y-97259362D01*
X160080308Y-97248108D01*
X160075651Y-97244612D01*
X160058859Y-97231374D01*
X160022169Y-97184580D01*
X159970384Y-97070685D01*
X159936843Y-96996916D01*
X159821301Y-96834032D01*
X159818370Y-96829900D01*
X159818369Y-96829899D01*
X159814904Y-96825014D01*
X159696002Y-96711190D01*
X159666990Y-96683417D01*
X159662660Y-96679272D01*
X159602997Y-96640748D01*
X159490640Y-96568200D01*
X159490637Y-96568199D01*
X159485603Y-96564948D01*
X159290122Y-96486166D01*
X159148371Y-96458484D01*
X159087717Y-96446639D01*
X159087714Y-96446639D01*
X159083271Y-96445771D01*
X159077730Y-96445500D01*
X158772341Y-96445500D01*
X158615194Y-96460493D01*
X158609434Y-96462183D01*
X158609433Y-96462183D01*
X158496249Y-96495388D01*
X158412958Y-96519823D01*
X158346553Y-96554024D01*
X158230921Y-96613578D01*
X158230918Y-96613580D01*
X158225590Y-96616324D01*
X158220875Y-96620028D01*
X158064568Y-96742808D01*
X158064564Y-96742812D01*
X158059851Y-96746514D01*
X158055920Y-96751044D01*
X158055919Y-96751045D01*
X157925650Y-96901165D01*
X157925646Y-96901170D01*
X157921719Y-96905696D01*
X157816181Y-97088126D01*
X157747043Y-97287222D01*
X157746183Y-97293155D01*
X157746182Y-97293158D01*
X157719092Y-97479998D01*
X157716801Y-97495800D01*
X157726545Y-97706333D01*
X157727949Y-97712158D01*
X157758126Y-97837373D01*
X157775924Y-97911226D01*
X157778406Y-97916684D01*
X157778407Y-97916688D01*
X157820480Y-98009221D01*
X157863157Y-98103084D01*
X157911837Y-98171710D01*
X157972548Y-98257296D01*
X157985096Y-98274986D01*
X158137340Y-98420728D01*
X158142375Y-98423979D01*
X158309360Y-98531800D01*
X158309363Y-98531801D01*
X158314397Y-98535052D01*
X158509878Y-98613834D01*
X158632688Y-98637817D01*
X158712283Y-98653361D01*
X158712286Y-98653361D01*
X158716729Y-98654229D01*
X158722270Y-98654500D01*
X159027659Y-98654500D01*
X159184806Y-98639507D01*
X159203585Y-98633998D01*
X159381278Y-98581868D01*
X159387042Y-98580177D01*
X159473106Y-98535851D01*
X159569079Y-98486422D01*
X159569082Y-98486420D01*
X159574410Y-98483676D01*
X159625328Y-98443680D01*
X159735432Y-98357192D01*
X159735436Y-98357188D01*
X159740149Y-98353486D01*
X159755509Y-98335785D01*
X159826504Y-98253972D01*
X159886258Y-98215631D01*
X159957254Y-98215682D01*
X160010764Y-98247458D01*
X160483595Y-98720289D01*
X160517621Y-98782601D01*
X160520500Y-98809384D01*
X160520500Y-99620102D01*
X160517951Y-99644050D01*
X160517872Y-99645715D01*
X160515680Y-99655898D01*
X160516904Y-99666239D01*
X160519627Y-99689245D01*
X160519977Y-99695176D01*
X160520072Y-99695168D01*
X160520500Y-99700346D01*
X160520500Y-99705546D01*
X160521354Y-99710675D01*
X160521354Y-99710678D01*
X160523669Y-99724587D01*
X160524506Y-99730465D01*
X160529264Y-99770663D01*
X160530530Y-99781363D01*
X160534493Y-99789615D01*
X160535996Y-99798648D01*
X160540943Y-99807817D01*
X160540944Y-99807819D01*
X160560334Y-99843754D01*
X160563031Y-99849047D01*
X160581785Y-99888104D01*
X160581788Y-99888108D01*
X160585219Y-99895254D01*
X160588814Y-99899530D01*
X160590737Y-99901453D01*
X160592509Y-99903385D01*
X160592552Y-99903464D01*
X160592428Y-99903577D01*
X160592904Y-99904117D01*
X160595990Y-99909836D01*
X160603635Y-99916903D01*
X160635586Y-99946438D01*
X160639152Y-99949868D01*
X160819500Y-100130216D01*
X160834642Y-100148964D01*
X160835757Y-100150189D01*
X160841407Y-100158940D01*
X160849585Y-100165387D01*
X160849587Y-100165389D01*
X160867778Y-100179729D01*
X160872222Y-100183678D01*
X160872284Y-100183604D01*
X160876241Y-100186957D01*
X160879922Y-100190638D01*
X160895632Y-100201865D01*
X160900358Y-100205413D01*
X160940625Y-100237156D01*
X160949262Y-100240189D01*
X160956712Y-100245513D01*
X160966688Y-100248497D01*
X160966689Y-100248497D01*
X160971715Y-100250000D01*
X161005827Y-100260202D01*
X161011464Y-100262034D01*
X161052177Y-100276331D01*
X161059829Y-100279018D01*
X161065394Y-100279500D01*
X161068102Y-100279500D01*
X161070736Y-100279614D01*
X161070834Y-100279643D01*
X161070827Y-100279807D01*
X161071531Y-100279851D01*
X161077756Y-100281713D01*
X161131613Y-100279597D01*
X161136560Y-100279500D01*
X162721080Y-100279500D01*
X162745028Y-100282049D01*
X162746693Y-100282128D01*
X162756876Y-100284320D01*
X162767217Y-100283096D01*
X162790223Y-100280373D01*
X162796154Y-100280023D01*
X162796146Y-100279928D01*
X162801324Y-100279500D01*
X162806524Y-100279500D01*
X162811653Y-100278646D01*
X162811656Y-100278646D01*
X162825565Y-100276331D01*
X162831443Y-100275494D01*
X162872001Y-100270694D01*
X162872002Y-100270694D01*
X162882341Y-100269470D01*
X162889231Y-100266161D01*
X162896228Y-100264569D01*
X162897371Y-100264379D01*
X162898372Y-100264213D01*
X162968849Y-100272787D01*
X163023503Y-100318102D01*
X163045011Y-100388511D01*
X163045011Y-101624000D01*
X163025009Y-101692121D01*
X162971353Y-101738614D01*
X162919011Y-101750000D01*
X162830500Y-101750000D01*
X162762379Y-101729998D01*
X162715886Y-101676342D01*
X162704500Y-101624000D01*
X162704499Y-101206123D01*
X162704499Y-101199934D01*
X162702421Y-101189486D01*
X162700000Y-101164907D01*
X162700000Y-100735116D01*
X162695525Y-100719877D01*
X162694135Y-100718672D01*
X162686452Y-100717001D01*
X162655331Y-100717001D01*
X162648510Y-100717371D01*
X162597648Y-100722895D01*
X162582396Y-100726521D01*
X162461946Y-100771676D01*
X162446351Y-100780214D01*
X162344276Y-100856715D01*
X162331719Y-100869272D01*
X162293652Y-100920065D01*
X162236792Y-100962580D01*
X162192826Y-100970500D01*
X162034593Y-100970501D01*
X162024934Y-100970501D01*
X161950699Y-100985266D01*
X161949864Y-100981066D01*
X161902676Y-100986157D01*
X161899320Y-100985172D01*
X161899301Y-100985266D01*
X161831135Y-100971707D01*
X161825067Y-100970500D01*
X161600037Y-100970500D01*
X161374934Y-100970501D01*
X161340328Y-100977384D01*
X161312874Y-100982844D01*
X161312872Y-100982845D01*
X161300699Y-100985266D01*
X161219584Y-101039466D01*
X161151834Y-101060680D01*
X161083367Y-101041898D01*
X161060489Y-101023795D01*
X160114912Y-100078218D01*
X160080886Y-100015906D01*
X160078142Y-99994948D01*
X160078083Y-99993656D01*
X160073455Y-99893667D01*
X160071836Y-99886946D01*
X160025482Y-99694607D01*
X160025481Y-99694605D01*
X160024076Y-99688774D01*
X160010170Y-99658188D01*
X159939323Y-99502371D01*
X159936843Y-99496916D01*
X159814904Y-99325014D01*
X159662660Y-99179272D01*
X159588462Y-99131363D01*
X159490640Y-99068200D01*
X159490637Y-99068199D01*
X159485603Y-99064948D01*
X159290122Y-98986166D01*
X159155739Y-98959923D01*
X159087717Y-98946639D01*
X159087714Y-98946639D01*
X159083271Y-98945771D01*
X159077730Y-98945500D01*
X158772341Y-98945500D01*
X158615194Y-98960493D01*
X158609434Y-98962183D01*
X158609433Y-98962183D01*
X158500809Y-98994050D01*
X158412958Y-99019823D01*
X158407619Y-99022573D01*
X158230921Y-99113578D01*
X158230918Y-99113580D01*
X158225590Y-99116324D01*
X158206445Y-99131363D01*
X158064568Y-99242808D01*
X158064564Y-99242812D01*
X158059851Y-99246514D01*
X158055920Y-99251044D01*
X158055919Y-99251045D01*
X157925650Y-99401165D01*
X157925646Y-99401170D01*
X157921719Y-99405696D01*
X157816181Y-99588126D01*
X157747043Y-99787222D01*
X157746183Y-99793155D01*
X157746182Y-99793158D01*
X157718559Y-99983675D01*
X157716801Y-99995800D01*
X157726545Y-100206333D01*
X157745045Y-100283096D01*
X157770450Y-100388511D01*
X157775924Y-100411226D01*
X157778406Y-100416684D01*
X157778407Y-100416688D01*
X157816137Y-100499669D01*
X157863157Y-100603084D01*
X157985096Y-100774986D01*
X158078157Y-100864073D01*
X158126910Y-100910743D01*
X158137340Y-100920728D01*
X158142375Y-100923979D01*
X158309360Y-101031800D01*
X158309363Y-101031801D01*
X158314397Y-101035052D01*
X158319960Y-101037294D01*
X158412137Y-101074443D01*
X158509878Y-101113834D01*
X158632688Y-101137817D01*
X158712283Y-101153361D01*
X158712286Y-101153361D01*
X158716729Y-101154229D01*
X158722270Y-101154500D01*
X159027659Y-101154500D01*
X159184806Y-101139507D01*
X159214745Y-101130724D01*
X159381278Y-101081868D01*
X159387042Y-101080177D01*
X159470304Y-101037294D01*
X159569079Y-100986422D01*
X159569082Y-100986420D01*
X159574410Y-100983676D01*
X159695180Y-100888810D01*
X159761104Y-100862460D01*
X159830810Y-100875935D01*
X159862107Y-100898801D01*
X160743522Y-101780216D01*
X160758664Y-101798964D01*
X160759779Y-101800189D01*
X160765429Y-101808940D01*
X160773607Y-101815387D01*
X160773609Y-101815389D01*
X160791800Y-101829729D01*
X160796244Y-101833678D01*
X160796306Y-101833604D01*
X160800263Y-101836957D01*
X160803944Y-101840638D01*
X160819654Y-101851865D01*
X160824380Y-101855413D01*
X160864647Y-101887156D01*
X160873284Y-101890189D01*
X160880734Y-101895513D01*
X160890710Y-101898497D01*
X160890711Y-101898497D01*
X160895961Y-101900067D01*
X160929849Y-101910202D01*
X160935486Y-101912034D01*
X160976367Y-101926390D01*
X160983851Y-101929018D01*
X160989416Y-101929500D01*
X160992124Y-101929500D01*
X160994758Y-101929614D01*
X160994856Y-101929643D01*
X160994849Y-101929807D01*
X160995553Y-101929851D01*
X161001778Y-101931713D01*
X161055635Y-101929597D01*
X161060582Y-101929500D01*
X161062983Y-101929500D01*
X161131104Y-101949502D01*
X161167747Y-101985497D01*
X161216516Y-102058484D01*
X161300699Y-102114734D01*
X161374933Y-102129500D01*
X161407035Y-102129500D01*
X161744501Y-102129499D01*
X161812620Y-102149501D01*
X161859113Y-102203156D01*
X161870500Y-102255499D01*
X161870500Y-102489977D01*
X161870149Y-102495551D01*
X161868287Y-102501778D01*
X161868696Y-102512183D01*
X161867390Y-102522519D01*
X161863541Y-102522033D01*
X161851003Y-102571840D01*
X161823762Y-102597371D01*
X161801671Y-102622865D01*
X161800000Y-102630548D01*
X161800000Y-103064900D01*
X161797579Y-103089481D01*
X161795500Y-103099933D01*
X161795501Y-103406808D01*
X161795501Y-103524000D01*
X161775499Y-103592120D01*
X161721844Y-103638614D01*
X161669501Y-103650000D01*
X161526000Y-103650000D01*
X161457879Y-103629998D01*
X161411386Y-103576342D01*
X161400000Y-103524000D01*
X161400000Y-102635116D01*
X161395525Y-102619877D01*
X161394135Y-102618672D01*
X161386452Y-102617001D01*
X161355331Y-102617001D01*
X161348510Y-102617371D01*
X161297648Y-102622895D01*
X161282397Y-102626521D01*
X161271673Y-102630541D01*
X161200866Y-102635724D01*
X161138348Y-102601654D01*
X160856478Y-102319784D01*
X160841336Y-102301036D01*
X160840221Y-102299811D01*
X160834571Y-102291060D01*
X160826393Y-102284613D01*
X160826391Y-102284611D01*
X160808200Y-102270271D01*
X160803759Y-102266325D01*
X160803697Y-102266398D01*
X160799733Y-102263039D01*
X160796056Y-102259362D01*
X160780308Y-102248108D01*
X160775638Y-102244602D01*
X160735353Y-102212844D01*
X160726719Y-102209812D01*
X160719266Y-102204486D01*
X160670150Y-102189797D01*
X160664508Y-102187964D01*
X160623633Y-102173610D01*
X160623632Y-102173610D01*
X160616149Y-102170982D01*
X160610584Y-102170500D01*
X160607876Y-102170500D01*
X160605242Y-102170386D01*
X160605144Y-102170357D01*
X160605151Y-102170193D01*
X160604447Y-102170149D01*
X160598222Y-102168287D01*
X160544365Y-102170403D01*
X160539418Y-102170500D01*
X160096891Y-102170500D01*
X160028770Y-102150498D01*
X159982190Y-102096651D01*
X159957396Y-102042119D01*
X159936843Y-101996916D01*
X159814904Y-101825014D01*
X159683828Y-101699536D01*
X159666990Y-101683417D01*
X159662660Y-101679272D01*
X159553081Y-101608518D01*
X159490640Y-101568200D01*
X159490637Y-101568199D01*
X159485603Y-101564948D01*
X159290122Y-101486166D01*
X159142748Y-101457386D01*
X159087717Y-101446639D01*
X159087714Y-101446639D01*
X159083271Y-101445771D01*
X159077730Y-101445500D01*
X158772341Y-101445500D01*
X158615194Y-101460493D01*
X158609434Y-101462183D01*
X158609433Y-101462183D01*
X158423368Y-101516769D01*
X158412958Y-101519823D01*
X158407619Y-101522573D01*
X158230921Y-101613578D01*
X158230918Y-101613580D01*
X158225590Y-101616324D01*
X158215818Y-101624000D01*
X158064568Y-101742808D01*
X158064564Y-101742812D01*
X158059851Y-101746514D01*
X158055920Y-101751044D01*
X158055919Y-101751045D01*
X157925650Y-101901165D01*
X157925646Y-101901170D01*
X157921719Y-101905696D01*
X157816181Y-102088126D01*
X157747043Y-102287222D01*
X157746183Y-102293155D01*
X157746182Y-102293158D01*
X157717662Y-102489860D01*
X157716801Y-102495800D01*
X157726545Y-102706333D01*
X157734664Y-102740022D01*
X157772589Y-102897386D01*
X157775924Y-102911226D01*
X157778406Y-102916684D01*
X157778407Y-102916688D01*
X157817673Y-103003047D01*
X157863157Y-103103084D01*
X157985096Y-103274986D01*
X158073036Y-103359170D01*
X158117286Y-103401530D01*
X158137340Y-103420728D01*
X158142375Y-103423979D01*
X158309360Y-103531800D01*
X158309363Y-103531801D01*
X158314397Y-103535052D01*
X158509878Y-103613834D01*
X158630650Y-103637419D01*
X158712283Y-103653361D01*
X158712286Y-103653361D01*
X158716729Y-103654229D01*
X158722270Y-103654500D01*
X159027659Y-103654500D01*
X159184806Y-103639507D01*
X159191924Y-103637419D01*
X159381278Y-103581868D01*
X159387042Y-103580177D01*
X159470436Y-103537226D01*
X159569079Y-103486422D01*
X159569082Y-103486420D01*
X159574410Y-103483676D01*
X159650408Y-103423979D01*
X159735432Y-103357192D01*
X159735436Y-103357188D01*
X159740149Y-103353486D01*
X159748583Y-103343767D01*
X159874350Y-103198835D01*
X159874354Y-103198830D01*
X159878281Y-103194304D01*
X159983819Y-103011874D01*
X159985786Y-103006209D01*
X159987234Y-103003047D01*
X160033779Y-102949436D01*
X160101797Y-102929500D01*
X160340616Y-102929500D01*
X160408737Y-102949502D01*
X160429711Y-102966405D01*
X160583595Y-103120289D01*
X160617621Y-103182601D01*
X160620500Y-103209384D01*
X160620500Y-103970102D01*
X160617951Y-103994050D01*
X160617872Y-103995715D01*
X160615680Y-104005898D01*
X160616904Y-104016239D01*
X160619627Y-104039245D01*
X160619977Y-104045176D01*
X160620072Y-104045168D01*
X160620500Y-104050346D01*
X160620500Y-104055546D01*
X160621354Y-104060675D01*
X160621354Y-104060678D01*
X160623669Y-104074587D01*
X160624506Y-104080465D01*
X160628700Y-104115898D01*
X160630530Y-104131363D01*
X160634493Y-104139615D01*
X160635996Y-104148648D01*
X160640943Y-104157817D01*
X160640944Y-104157819D01*
X160660334Y-104193754D01*
X160663031Y-104199047D01*
X160681785Y-104238104D01*
X160681788Y-104238108D01*
X160685219Y-104245254D01*
X160688814Y-104249530D01*
X160690737Y-104251453D01*
X160692509Y-104253385D01*
X160692552Y-104253464D01*
X160692428Y-104253577D01*
X160692904Y-104254117D01*
X160695990Y-104259836D01*
X160703635Y-104266903D01*
X160735586Y-104296438D01*
X160739152Y-104299868D01*
X160769500Y-104330216D01*
X160784642Y-104348964D01*
X160785757Y-104350189D01*
X160791407Y-104358940D01*
X160799585Y-104365387D01*
X160799587Y-104365389D01*
X160817778Y-104379729D01*
X160822219Y-104383675D01*
X160822281Y-104383602D01*
X160826245Y-104386961D01*
X160829922Y-104390638D01*
X160845670Y-104401892D01*
X160850340Y-104405398D01*
X160890625Y-104437156D01*
X160899259Y-104440188D01*
X160906712Y-104445514D01*
X160955828Y-104460203D01*
X160961470Y-104462036D01*
X161002177Y-104476331D01*
X161009829Y-104479018D01*
X161015394Y-104479500D01*
X161018102Y-104479500D01*
X161020736Y-104479614D01*
X161020834Y-104479643D01*
X161020827Y-104479807D01*
X161021531Y-104479851D01*
X161027756Y-104481713D01*
X161081613Y-104479597D01*
X161086560Y-104479500D01*
X162771080Y-104479500D01*
X162795028Y-104482049D01*
X162796693Y-104482128D01*
X162806876Y-104484320D01*
X162817217Y-104483096D01*
X162840223Y-104480373D01*
X162846154Y-104480023D01*
X162846146Y-104479928D01*
X162851324Y-104479500D01*
X162856524Y-104479500D01*
X162861653Y-104478646D01*
X162861656Y-104478646D01*
X162875565Y-104476331D01*
X162881443Y-104475494D01*
X162922001Y-104470694D01*
X162922002Y-104470694D01*
X162932341Y-104469470D01*
X162940593Y-104465507D01*
X162949626Y-104464004D01*
X162955730Y-104460711D01*
X163024634Y-104457669D01*
X163085994Y-104493382D01*
X163118306Y-104556600D01*
X163120500Y-104580013D01*
X163120500Y-105154140D01*
X163105532Y-105205115D01*
X163100000Y-105230548D01*
X163100000Y-106124000D01*
X163079998Y-106192121D01*
X163026342Y-106238614D01*
X162974000Y-106250000D01*
X162830500Y-106250000D01*
X162762379Y-106229998D01*
X162715886Y-106176342D01*
X162704500Y-106124000D01*
X162704499Y-105706123D01*
X162704499Y-105699934D01*
X162702421Y-105689486D01*
X162700000Y-105664907D01*
X162700000Y-105235116D01*
X162695525Y-105219877D01*
X162694135Y-105218672D01*
X162686452Y-105217001D01*
X162655331Y-105217001D01*
X162648510Y-105217371D01*
X162597648Y-105222895D01*
X162582396Y-105226521D01*
X162461946Y-105271676D01*
X162446351Y-105280214D01*
X162344276Y-105356715D01*
X162331719Y-105369272D01*
X162293652Y-105420065D01*
X162236792Y-105462580D01*
X162192826Y-105470500D01*
X162034593Y-105470501D01*
X162024934Y-105470501D01*
X161950699Y-105485266D01*
X161949864Y-105481066D01*
X161902676Y-105486157D01*
X161899320Y-105485172D01*
X161899301Y-105485266D01*
X161831135Y-105471707D01*
X161825067Y-105470500D01*
X161796677Y-105470500D01*
X161609385Y-105470501D01*
X161541265Y-105450499D01*
X161520290Y-105433596D01*
X160906478Y-104819784D01*
X160891336Y-104801036D01*
X160890221Y-104799811D01*
X160884571Y-104791060D01*
X160876393Y-104784613D01*
X160876391Y-104784611D01*
X160858200Y-104770271D01*
X160853759Y-104766325D01*
X160853697Y-104766398D01*
X160849733Y-104763039D01*
X160846056Y-104759362D01*
X160830308Y-104748108D01*
X160825638Y-104744602D01*
X160785353Y-104712844D01*
X160776719Y-104709812D01*
X160769266Y-104704486D01*
X160720150Y-104689797D01*
X160714508Y-104687964D01*
X160673633Y-104673610D01*
X160673632Y-104673610D01*
X160666149Y-104670982D01*
X160660584Y-104670500D01*
X160657876Y-104670500D01*
X160655242Y-104670386D01*
X160655144Y-104670357D01*
X160655151Y-104670193D01*
X160654447Y-104670149D01*
X160648222Y-104668287D01*
X160594365Y-104670403D01*
X160589418Y-104670500D01*
X160096891Y-104670500D01*
X160028770Y-104650498D01*
X159982190Y-104596651D01*
X159954967Y-104536778D01*
X159936843Y-104496916D01*
X159814904Y-104325014D01*
X159662660Y-104179272D01*
X159624741Y-104154788D01*
X159490640Y-104068200D01*
X159490637Y-104068199D01*
X159485603Y-104064948D01*
X159290122Y-103986166D01*
X159155739Y-103959923D01*
X159087717Y-103946639D01*
X159087714Y-103946639D01*
X159083271Y-103945771D01*
X159077730Y-103945500D01*
X158772341Y-103945500D01*
X158615194Y-103960493D01*
X158412958Y-104019823D01*
X158375248Y-104039245D01*
X158230921Y-104113578D01*
X158230918Y-104113580D01*
X158225590Y-104116324D01*
X158184963Y-104148237D01*
X158064568Y-104242808D01*
X158064564Y-104242812D01*
X158059851Y-104246514D01*
X158055920Y-104251044D01*
X158055919Y-104251045D01*
X157925650Y-104401165D01*
X157925646Y-104401170D01*
X157921719Y-104405696D01*
X157816181Y-104588126D01*
X157747043Y-104787222D01*
X157746183Y-104793155D01*
X157746182Y-104793158D01*
X157717662Y-104989860D01*
X157716801Y-104995800D01*
X157726545Y-105206333D01*
X157775924Y-105411226D01*
X157778406Y-105416684D01*
X157778407Y-105416688D01*
X157802874Y-105470500D01*
X157863157Y-105603084D01*
X157985096Y-105774986D01*
X158137340Y-105920728D01*
X158142375Y-105923979D01*
X158309360Y-106031800D01*
X158309363Y-106031801D01*
X158314397Y-106035052D01*
X158509878Y-106113834D01*
X158623261Y-106135976D01*
X158712283Y-106153361D01*
X158712286Y-106153361D01*
X158716729Y-106154229D01*
X158722270Y-106154500D01*
X159027659Y-106154500D01*
X159184806Y-106139507D01*
X159234256Y-106125000D01*
X159381278Y-106081868D01*
X159387042Y-106080177D01*
X159470304Y-106037294D01*
X159569079Y-105986422D01*
X159569082Y-105986420D01*
X159574410Y-105983676D01*
X159649086Y-105925017D01*
X159735432Y-105857192D01*
X159735436Y-105857188D01*
X159740149Y-105853486D01*
X159760474Y-105830064D01*
X159874350Y-105698835D01*
X159874354Y-105698830D01*
X159878281Y-105694304D01*
X159983819Y-105511874D01*
X159985786Y-105506209D01*
X159987234Y-105503047D01*
X160033779Y-105449436D01*
X160101797Y-105429500D01*
X160390616Y-105429500D01*
X160458737Y-105449502D01*
X160479711Y-105466405D01*
X161108596Y-106095290D01*
X161142622Y-106157602D01*
X161145501Y-106184385D01*
X161145501Y-106400066D01*
X161150778Y-106426597D01*
X161157520Y-106460493D01*
X161160266Y-106474301D01*
X161167161Y-106484621D01*
X161167162Y-106484622D01*
X161189553Y-106518132D01*
X161216516Y-106558484D01*
X161300699Y-106614734D01*
X161374933Y-106629500D01*
X161407035Y-106629500D01*
X161744501Y-106629499D01*
X161812620Y-106649501D01*
X161859113Y-106703156D01*
X161870500Y-106755499D01*
X161870500Y-106927854D01*
X161870030Y-106938726D01*
X161866439Y-106980187D01*
X161868951Y-106990298D01*
X161869524Y-106997582D01*
X161854928Y-107067063D01*
X161814409Y-107108165D01*
X161801671Y-107122865D01*
X161800000Y-107130548D01*
X161800000Y-107564900D01*
X161797579Y-107589481D01*
X161795500Y-107599933D01*
X161795501Y-107905393D01*
X161795501Y-108024000D01*
X161775499Y-108092120D01*
X161721844Y-108138614D01*
X161669501Y-108150000D01*
X160910116Y-108150000D01*
X160894877Y-108154475D01*
X160875347Y-108177013D01*
X160815621Y-108215396D01*
X160780123Y-108220500D01*
X160159384Y-108220500D01*
X160091263Y-108200498D01*
X160070289Y-108183595D01*
X160017681Y-108130987D01*
X159983655Y-108068675D01*
X159987749Y-108000558D01*
X160050988Y-107818449D01*
X160050989Y-107818446D01*
X160052957Y-107812778D01*
X160060831Y-107758475D01*
X160064686Y-107731885D01*
X160892000Y-107731885D01*
X160896475Y-107747124D01*
X160897865Y-107748329D01*
X160905548Y-107750000D01*
X161381885Y-107750000D01*
X161397124Y-107745525D01*
X161398329Y-107744135D01*
X161400000Y-107736452D01*
X161400000Y-107135116D01*
X161395525Y-107119877D01*
X161394135Y-107118672D01*
X161386452Y-107117001D01*
X161355331Y-107117001D01*
X161348510Y-107117371D01*
X161297648Y-107122895D01*
X161282396Y-107126521D01*
X161161946Y-107171676D01*
X161146351Y-107180214D01*
X161044276Y-107256715D01*
X161031715Y-107269276D01*
X160955214Y-107371351D01*
X160946676Y-107386946D01*
X160901522Y-107507394D01*
X160897895Y-107522649D01*
X160892369Y-107573514D01*
X160892000Y-107580328D01*
X160892000Y-107731885D01*
X160064686Y-107731885D01*
X160082338Y-107610140D01*
X160082338Y-107610137D01*
X160083199Y-107604200D01*
X160073455Y-107393667D01*
X160071836Y-107386946D01*
X160025482Y-107194607D01*
X160025481Y-107194605D01*
X160024076Y-107188774D01*
X160011686Y-107161522D01*
X159939323Y-107002371D01*
X159936843Y-106996916D01*
X159814904Y-106825014D01*
X159696023Y-106711210D01*
X159666990Y-106683417D01*
X159662660Y-106679272D01*
X159583707Y-106628293D01*
X159490640Y-106568200D01*
X159490637Y-106568199D01*
X159485603Y-106564948D01*
X159290122Y-106486166D01*
X159130397Y-106454974D01*
X159087717Y-106446639D01*
X159087714Y-106446639D01*
X159083271Y-106445771D01*
X159077730Y-106445500D01*
X158772341Y-106445500D01*
X158615194Y-106460493D01*
X158609434Y-106462183D01*
X158609433Y-106462183D01*
X158451554Y-106508500D01*
X158412958Y-106519823D01*
X158349929Y-106552285D01*
X158230921Y-106613578D01*
X158230918Y-106613580D01*
X158225590Y-106616324D01*
X158183354Y-106649501D01*
X158064568Y-106742808D01*
X158064564Y-106742812D01*
X158059851Y-106746514D01*
X158055920Y-106751044D01*
X158055919Y-106751045D01*
X157925650Y-106901165D01*
X157925646Y-106901170D01*
X157921719Y-106905696D01*
X157816181Y-107088126D01*
X157747043Y-107287222D01*
X157746183Y-107293155D01*
X157746182Y-107293158D01*
X157717662Y-107489860D01*
X157716801Y-107495800D01*
X157726545Y-107706333D01*
X157727949Y-107712158D01*
X157764541Y-107863992D01*
X157775924Y-107911226D01*
X157778406Y-107916684D01*
X157778407Y-107916688D01*
X157830516Y-108031294D01*
X157863157Y-108103084D01*
X157985096Y-108274986D01*
X158137340Y-108420728D01*
X158142375Y-108423979D01*
X158309360Y-108531800D01*
X158309363Y-108531801D01*
X158314397Y-108535052D01*
X158509878Y-108613834D01*
X158626922Y-108636691D01*
X158712283Y-108653361D01*
X158712286Y-108653361D01*
X158716729Y-108654229D01*
X158722270Y-108654500D01*
X159027659Y-108654500D01*
X159184806Y-108639507D01*
X159320307Y-108599755D01*
X159391301Y-108599771D01*
X159444870Y-108631564D01*
X159643522Y-108830216D01*
X159658664Y-108848964D01*
X159659779Y-108850189D01*
X159665429Y-108858940D01*
X159673607Y-108865387D01*
X159673609Y-108865389D01*
X159691800Y-108879729D01*
X159696244Y-108883678D01*
X159696306Y-108883604D01*
X159700263Y-108886957D01*
X159703944Y-108890638D01*
X159719654Y-108901865D01*
X159724380Y-108905413D01*
X159764647Y-108937156D01*
X159773284Y-108940189D01*
X159780734Y-108945513D01*
X159790710Y-108948497D01*
X159790711Y-108948497D01*
X159806046Y-108953083D01*
X159829849Y-108960202D01*
X159835486Y-108962034D01*
X159876199Y-108976331D01*
X159883851Y-108979018D01*
X159889416Y-108979500D01*
X159892124Y-108979500D01*
X159894758Y-108979614D01*
X159894856Y-108979643D01*
X159894849Y-108979807D01*
X159895553Y-108979851D01*
X159901778Y-108981713D01*
X159955635Y-108979597D01*
X159960582Y-108979500D01*
X162771080Y-108979500D01*
X162795028Y-108982049D01*
X162796693Y-108982128D01*
X162806876Y-108984320D01*
X162817217Y-108983096D01*
X162840223Y-108980373D01*
X162846154Y-108980023D01*
X162846146Y-108979928D01*
X162851324Y-108979500D01*
X162856524Y-108979500D01*
X162861653Y-108978646D01*
X162861656Y-108978646D01*
X162875565Y-108976331D01*
X162881443Y-108975494D01*
X162922001Y-108970694D01*
X162922002Y-108970694D01*
X162932341Y-108969470D01*
X162940593Y-108965507D01*
X162949626Y-108964004D01*
X162958795Y-108959057D01*
X162958797Y-108959056D01*
X162994732Y-108939666D01*
X163000025Y-108936969D01*
X163039082Y-108918215D01*
X163039086Y-108918212D01*
X163046232Y-108914781D01*
X163050508Y-108911186D01*
X163052431Y-108909263D01*
X163054363Y-108907491D01*
X163054442Y-108907448D01*
X163054555Y-108907572D01*
X163055095Y-108907096D01*
X163060814Y-108904010D01*
X163097417Y-108864413D01*
X163100846Y-108860848D01*
X163130216Y-108831478D01*
X163148964Y-108816336D01*
X163150189Y-108815221D01*
X163158940Y-108809571D01*
X163165387Y-108801393D01*
X163165389Y-108801391D01*
X163179729Y-108783200D01*
X163183675Y-108778759D01*
X163183602Y-108778697D01*
X163186961Y-108774733D01*
X163190638Y-108771056D01*
X163201892Y-108755308D01*
X163205398Y-108750638D01*
X163237156Y-108710353D01*
X163240188Y-108701719D01*
X163245514Y-108694266D01*
X163260203Y-108645150D01*
X163262036Y-108639508D01*
X163276390Y-108598633D01*
X163276390Y-108598632D01*
X163279018Y-108591149D01*
X163279500Y-108585584D01*
X163279500Y-108582876D01*
X163279614Y-108580242D01*
X163279643Y-108580144D01*
X163279807Y-108580151D01*
X163279851Y-108579447D01*
X163281713Y-108573222D01*
X163279597Y-108519365D01*
X163279500Y-108514418D01*
X163279500Y-108502668D01*
X163300734Y-108432668D01*
X163339734Y-108374301D01*
X163354500Y-108300067D01*
X163354499Y-107599934D01*
X163346089Y-107557648D01*
X163342156Y-107537874D01*
X163342155Y-107537872D01*
X163339734Y-107525699D01*
X163328517Y-107508911D01*
X163301900Y-107469077D01*
X163280685Y-107401325D01*
X163299468Y-107332858D01*
X163352125Y-107285491D01*
X163388104Y-107268215D01*
X163388108Y-107268212D01*
X163395254Y-107264781D01*
X163399530Y-107261186D01*
X163401453Y-107259263D01*
X163403385Y-107257491D01*
X163403464Y-107257448D01*
X163403577Y-107257572D01*
X163404117Y-107257096D01*
X163409836Y-107254010D01*
X163446439Y-107214413D01*
X163449868Y-107210848D01*
X163730216Y-106930500D01*
X163748964Y-106915358D01*
X163750189Y-106914243D01*
X163758940Y-106908593D01*
X163765387Y-106900415D01*
X163765389Y-106900413D01*
X163779729Y-106882222D01*
X163783676Y-106877780D01*
X163783603Y-106877718D01*
X163786961Y-106873755D01*
X163790638Y-106870078D01*
X163797131Y-106860992D01*
X163801859Y-106854376D01*
X163805422Y-106849630D01*
X163824827Y-106825014D01*
X163837156Y-106809375D01*
X163840189Y-106800739D01*
X163845514Y-106793287D01*
X163860204Y-106744167D01*
X163862039Y-106738520D01*
X163876391Y-106697652D01*
X163876391Y-106697650D01*
X163879018Y-106690171D01*
X163879500Y-106684606D01*
X163879500Y-106681899D01*
X163879614Y-106679267D01*
X163879644Y-106679166D01*
X163879807Y-106679173D01*
X163879851Y-106678473D01*
X163881714Y-106672244D01*
X163879597Y-106618372D01*
X163879500Y-106613424D01*
X163879500Y-102753925D01*
X163882050Y-102729967D01*
X163882128Y-102728308D01*
X163884321Y-102718124D01*
X163883097Y-102707782D01*
X163883097Y-102707779D01*
X163880374Y-102684779D01*
X163880024Y-102678848D01*
X163879928Y-102678856D01*
X163879500Y-102673680D01*
X163879500Y-102668476D01*
X163876327Y-102649412D01*
X163875496Y-102643566D01*
X163873049Y-102622895D01*
X163869470Y-102592659D01*
X163865507Y-102584407D01*
X163864004Y-102575374D01*
X163847580Y-102544934D01*
X163839666Y-102530268D01*
X163836969Y-102524976D01*
X163835790Y-102522519D01*
X163817213Y-102483833D01*
X163807441Y-102423663D01*
X163806224Y-102423711D01*
X163805833Y-102413758D01*
X163804108Y-102369854D01*
X163804011Y-102364907D01*
X163804011Y-98346657D01*
X163804481Y-98335785D01*
X163807173Y-98304702D01*
X163808072Y-98294324D01*
X163797631Y-98252290D01*
X163795625Y-98242603D01*
X163790225Y-98210160D01*
X163788515Y-98199885D01*
X163783569Y-98190718D01*
X163782026Y-98186211D01*
X163780125Y-98181818D01*
X163777614Y-98171710D01*
X163754116Y-98135318D01*
X163749096Y-98126830D01*
X163728521Y-98088697D01*
X163720870Y-98081625D01*
X163717945Y-98077854D01*
X163714733Y-98074324D01*
X163709082Y-98065571D01*
X163675052Y-98038744D01*
X163667558Y-98032344D01*
X163635746Y-98002937D01*
X163626215Y-97998724D01*
X163622228Y-97996105D01*
X163619309Y-97994500D01*
X163618368Y-97993554D01*
X163618091Y-97993387D01*
X163617511Y-97993006D01*
X163617559Y-97992933D01*
X163610342Y-97987732D01*
X163609850Y-97987344D01*
X163610886Y-97986030D01*
X163569248Y-97944158D01*
X163554351Y-97874741D01*
X163562022Y-97839852D01*
X163598478Y-97742606D01*
X163602105Y-97727351D01*
X163607631Y-97676486D01*
X163608000Y-97669672D01*
X163608000Y-97518115D01*
X163603525Y-97502876D01*
X163602135Y-97501671D01*
X163594452Y-97500000D01*
X162830500Y-97500000D01*
X162762379Y-97479998D01*
X162715886Y-97426342D01*
X162704500Y-97374000D01*
X162704499Y-97081885D01*
X163100000Y-97081885D01*
X163104475Y-97097124D01*
X163105865Y-97098329D01*
X163113548Y-97100000D01*
X163589884Y-97100000D01*
X163605123Y-97095525D01*
X163606328Y-97094135D01*
X163607999Y-97086452D01*
X163607999Y-96930331D01*
X163607629Y-96923510D01*
X163602105Y-96872648D01*
X163598479Y-96857396D01*
X163553324Y-96736946D01*
X163544786Y-96721351D01*
X163468285Y-96619276D01*
X163455724Y-96606715D01*
X163353649Y-96530214D01*
X163338054Y-96521676D01*
X163217606Y-96476522D01*
X163202351Y-96472895D01*
X163151486Y-96467369D01*
X163144672Y-96467000D01*
X163118115Y-96467000D01*
X163102876Y-96471475D01*
X163101671Y-96472865D01*
X163100000Y-96480548D01*
X163100000Y-97081885D01*
X162704499Y-97081885D01*
X162704499Y-96956123D01*
X162704499Y-96949934D01*
X162702421Y-96939486D01*
X162700000Y-96914907D01*
X162700000Y-96485116D01*
X162695525Y-96469877D01*
X162672987Y-96450347D01*
X162634604Y-96390621D01*
X162629500Y-96355123D01*
X162629500Y-96121884D01*
X162649502Y-96053763D01*
X162666405Y-96032789D01*
X162713100Y-95986094D01*
X162775412Y-95952068D01*
X162815801Y-95949926D01*
X162857904Y-95954500D01*
X162956872Y-95954500D01*
X163024993Y-95974502D01*
X163038082Y-95985050D01*
X163038882Y-95986118D01*
X163046058Y-95991496D01*
X163140825Y-96062519D01*
X163153949Y-96072355D01*
X163162357Y-96075507D01*
X163281199Y-96120059D01*
X163281201Y-96120059D01*
X163288594Y-96122831D01*
X163296442Y-96123684D01*
X163296444Y-96123684D01*
X163346577Y-96129130D01*
X163349983Y-96129500D01*
X163712446Y-96129500D01*
X164075016Y-96129499D01*
X164078411Y-96129130D01*
X164078416Y-96129130D01*
X164128548Y-96123685D01*
X164128552Y-96123684D01*
X164136406Y-96122831D01*
X164271051Y-96072355D01*
X164284176Y-96062519D01*
X164378942Y-95991496D01*
X164386118Y-95986118D01*
X164435125Y-95920728D01*
X164466972Y-95878234D01*
X164466973Y-95878233D01*
X164472355Y-95871051D01*
X164499171Y-95799520D01*
X164520059Y-95743801D01*
X164520059Y-95743799D01*
X164522831Y-95736406D01*
X164525148Y-95715083D01*
X164529131Y-95678414D01*
X164529131Y-95678413D01*
X164529500Y-95675017D01*
X164529499Y-94771885D01*
X164549501Y-94703764D01*
X164566404Y-94682790D01*
X164829736Y-94419458D01*
X164848484Y-94404316D01*
X164849709Y-94403201D01*
X164858460Y-94397551D01*
X164864907Y-94389373D01*
X164864909Y-94389371D01*
X164879249Y-94371180D01*
X164883195Y-94366739D01*
X164883122Y-94366677D01*
X164886481Y-94362713D01*
X164890158Y-94359036D01*
X164901412Y-94343288D01*
X164904918Y-94338618D01*
X164936676Y-94298333D01*
X164939708Y-94289699D01*
X164945034Y-94282246D01*
X164959723Y-94233130D01*
X164961556Y-94227488D01*
X164975910Y-94186613D01*
X164975910Y-94186612D01*
X164978538Y-94179129D01*
X164979020Y-94173564D01*
X164979020Y-94170856D01*
X164979134Y-94168222D01*
X164979163Y-94168124D01*
X164979327Y-94168131D01*
X164979371Y-94167427D01*
X164981233Y-94161202D01*
X164979117Y-94107345D01*
X164979020Y-94102398D01*
X164979020Y-88053440D01*
X164981569Y-88029492D01*
X164981648Y-88027827D01*
X164983840Y-88017644D01*
X164979893Y-87984297D01*
X164979543Y-87978366D01*
X164979448Y-87978374D01*
X164979020Y-87973196D01*
X164979020Y-87967996D01*
X164978107Y-87962512D01*
X164975851Y-87948955D01*
X164975014Y-87943077D01*
X164969301Y-87894810D01*
X164981158Y-87824811D01*
X165028977Y-87772333D01*
X165094428Y-87754000D01*
X165120000Y-87754000D01*
X165188121Y-87774002D01*
G37*
%TD.AperFunction*%
%TA.AperFunction,Conductor*%
G36*
X131873237Y-87774002D02*
G01*
X131919730Y-87827658D01*
X131929834Y-87897932D01*
X131900340Y-87962512D01*
X131894211Y-87969095D01*
X131669784Y-88193522D01*
X131651036Y-88208664D01*
X131649811Y-88209779D01*
X131641060Y-88215429D01*
X131634613Y-88223607D01*
X131634611Y-88223609D01*
X131620271Y-88241800D01*
X131616325Y-88246241D01*
X131616398Y-88246303D01*
X131613039Y-88250267D01*
X131609362Y-88253944D01*
X131598108Y-88269692D01*
X131594602Y-88274362D01*
X131562844Y-88314647D01*
X131559812Y-88323281D01*
X131554486Y-88330734D01*
X131551501Y-88340715D01*
X131539799Y-88379844D01*
X131537964Y-88385492D01*
X131525832Y-88420039D01*
X131520982Y-88433851D01*
X131520500Y-88439416D01*
X131520500Y-88442124D01*
X131520386Y-88444758D01*
X131520357Y-88444856D01*
X131520193Y-88444849D01*
X131520149Y-88445553D01*
X131518287Y-88451778D01*
X131519013Y-88470251D01*
X131520403Y-88505635D01*
X131520500Y-88510582D01*
X131520500Y-90839977D01*
X131520149Y-90845551D01*
X131518287Y-90851778D01*
X131519353Y-90878913D01*
X131520403Y-90905635D01*
X131520500Y-90910582D01*
X131520500Y-95415955D01*
X131520149Y-95421529D01*
X131518287Y-95427756D01*
X131518696Y-95438161D01*
X131520403Y-95481613D01*
X131520500Y-95486560D01*
X131520500Y-98970102D01*
X131517951Y-98994050D01*
X131517872Y-98995715D01*
X131515680Y-99005898D01*
X131517128Y-99018132D01*
X131519627Y-99039245D01*
X131519977Y-99045176D01*
X131520072Y-99045168D01*
X131520500Y-99050346D01*
X131520500Y-99055546D01*
X131521354Y-99060675D01*
X131521354Y-99060678D01*
X131523669Y-99074587D01*
X131524506Y-99080465D01*
X131528801Y-99116750D01*
X131530530Y-99131363D01*
X131534493Y-99139615D01*
X131535996Y-99148648D01*
X131540943Y-99157817D01*
X131540944Y-99157819D01*
X131560334Y-99193754D01*
X131563031Y-99199047D01*
X131581785Y-99238104D01*
X131581788Y-99238108D01*
X131585219Y-99245254D01*
X131588814Y-99249530D01*
X131590737Y-99251453D01*
X131592509Y-99253385D01*
X131592552Y-99253464D01*
X131592428Y-99253577D01*
X131592904Y-99254117D01*
X131595990Y-99259836D01*
X131603635Y-99266903D01*
X131635586Y-99296438D01*
X131639152Y-99299868D01*
X131919500Y-99580216D01*
X131934642Y-99598964D01*
X131935757Y-99600189D01*
X131941407Y-99608940D01*
X131949585Y-99615387D01*
X131949587Y-99615389D01*
X131967778Y-99629729D01*
X131972219Y-99633675D01*
X131972281Y-99633602D01*
X131976244Y-99636960D01*
X131979922Y-99640638D01*
X131980912Y-99641346D01*
X132019314Y-99699671D01*
X132020099Y-99770663D01*
X131999644Y-99812069D01*
X131955214Y-99871352D01*
X131946676Y-99886946D01*
X131901522Y-100007394D01*
X131897895Y-100022649D01*
X131892369Y-100073514D01*
X131892000Y-100080328D01*
X131892000Y-100231885D01*
X131896475Y-100247124D01*
X131897865Y-100248329D01*
X131905548Y-100250000D01*
X132669500Y-100250000D01*
X132737621Y-100270002D01*
X132784114Y-100323658D01*
X132795500Y-100375999D01*
X132795501Y-100523999D01*
X132775499Y-100592120D01*
X132721844Y-100638613D01*
X132669501Y-100650000D01*
X131910116Y-100650000D01*
X131894877Y-100654475D01*
X131893672Y-100655865D01*
X131892001Y-100663548D01*
X131892001Y-100819669D01*
X131892371Y-100826490D01*
X131897895Y-100877352D01*
X131901521Y-100892604D01*
X131946676Y-101013054D01*
X131955214Y-101028649D01*
X132031715Y-101130724D01*
X132044276Y-101143285D01*
X132146351Y-101219786D01*
X132169818Y-101232634D01*
X132168492Y-101235056D01*
X132213889Y-101269154D01*
X132238592Y-101335715D01*
X132223389Y-101405064D01*
X132173105Y-101455185D01*
X132112899Y-101470500D01*
X131486119Y-101470501D01*
X131424984Y-101470501D01*
X131421589Y-101470870D01*
X131421584Y-101470870D01*
X131371452Y-101476315D01*
X131371448Y-101476316D01*
X131363594Y-101477169D01*
X131228949Y-101527645D01*
X131221767Y-101533027D01*
X131221766Y-101533028D01*
X131160548Y-101578908D01*
X131113882Y-101613882D01*
X131108504Y-101621058D01*
X131034251Y-101720135D01*
X131027645Y-101728949D01*
X131024494Y-101737355D01*
X131024493Y-101737357D01*
X130981570Y-101851855D01*
X130977169Y-101863594D01*
X130976316Y-101871442D01*
X130976316Y-101871444D01*
X130971907Y-101912034D01*
X130970500Y-101924983D01*
X130970501Y-103275016D01*
X130970870Y-103278411D01*
X130970870Y-103278416D01*
X130974025Y-103307456D01*
X130977169Y-103336406D01*
X131027645Y-103471051D01*
X131033027Y-103478233D01*
X131033028Y-103478234D01*
X131083798Y-103545976D01*
X131113882Y-103586118D01*
X131121058Y-103591496D01*
X131211746Y-103659462D01*
X131228949Y-103672355D01*
X131237357Y-103675507D01*
X131356199Y-103720059D01*
X131356201Y-103720059D01*
X131363594Y-103722831D01*
X131371442Y-103723684D01*
X131371444Y-103723684D01*
X131421577Y-103729130D01*
X131424983Y-103729500D01*
X131787446Y-103729500D01*
X132150016Y-103729499D01*
X132153411Y-103729130D01*
X132153416Y-103729130D01*
X132203548Y-103723685D01*
X132203552Y-103723684D01*
X132211406Y-103722831D01*
X132346051Y-103672355D01*
X132363255Y-103659462D01*
X132453942Y-103591496D01*
X132461118Y-103586118D01*
X132461872Y-103587124D01*
X132516345Y-103557379D01*
X132543128Y-103554500D01*
X132642096Y-103554500D01*
X132697796Y-103548449D01*
X132767677Y-103560977D01*
X132819693Y-103609297D01*
X132837328Y-103678069D01*
X132814982Y-103745457D01*
X132800498Y-103762807D01*
X132432223Y-104131082D01*
X132369911Y-104165108D01*
X132298901Y-104159969D01*
X132220924Y-104130737D01*
X132218798Y-104129940D01*
X132218797Y-104129940D01*
X132211406Y-104127169D01*
X132203558Y-104126316D01*
X132203556Y-104126316D01*
X132153414Y-104120869D01*
X132153413Y-104120869D01*
X132150017Y-104120500D01*
X131787554Y-104120500D01*
X131424984Y-104120501D01*
X131421589Y-104120870D01*
X131421584Y-104120870D01*
X131371452Y-104126315D01*
X131371448Y-104126316D01*
X131363594Y-104127169D01*
X131228949Y-104177645D01*
X131221767Y-104183027D01*
X131221766Y-104183028D01*
X131158156Y-104230701D01*
X131113882Y-104263882D01*
X131108504Y-104271058D01*
X131037808Y-104365389D01*
X131027645Y-104378949D01*
X131024493Y-104387357D01*
X130988995Y-104482049D01*
X130977169Y-104513594D01*
X130976316Y-104521442D01*
X130976316Y-104521444D01*
X130972705Y-104554686D01*
X130970500Y-104574983D01*
X130970501Y-105925016D01*
X130977169Y-105986406D01*
X131027645Y-106121051D01*
X131029594Y-106123652D01*
X131044147Y-106190196D01*
X131019409Y-106256744D01*
X130996722Y-106280091D01*
X130994856Y-106281570D01*
X130880736Y-106395889D01*
X130871724Y-106407300D01*
X130786963Y-106544808D01*
X130780819Y-106557986D01*
X130729826Y-106711725D01*
X130726960Y-106725090D01*
X130717328Y-106819105D01*
X130717000Y-106825522D01*
X130717000Y-107227885D01*
X130721475Y-107243124D01*
X130722865Y-107244329D01*
X130730548Y-107246000D01*
X131976500Y-107246000D01*
X132044621Y-107266002D01*
X132091114Y-107319658D01*
X132102500Y-107372000D01*
X132102500Y-107647086D01*
X132082498Y-107715207D01*
X132066718Y-107728880D01*
X132068604Y-107730514D01*
X132043171Y-107759865D01*
X132041500Y-107767548D01*
X132041500Y-108864885D01*
X132045975Y-108880124D01*
X132047365Y-108881329D01*
X132055048Y-108883000D01*
X132149430Y-108883000D01*
X132155946Y-108882663D01*
X132251190Y-108872781D01*
X132264586Y-108869888D01*
X132418216Y-108818633D01*
X132431395Y-108812459D01*
X132569728Y-108726856D01*
X132636031Y-108708000D01*
X132641266Y-108708000D01*
X132647781Y-108707663D01*
X132744241Y-108697654D01*
X132757641Y-108694760D01*
X132913209Y-108642859D01*
X132926377Y-108636691D01*
X133065466Y-108550619D01*
X133076867Y-108541583D01*
X133192428Y-108425821D01*
X133194726Y-108422911D01*
X133196803Y-108421438D01*
X133197599Y-108420641D01*
X133197735Y-108420777D01*
X133252641Y-108381847D01*
X133293610Y-108375000D01*
X133589857Y-108375000D01*
X133650365Y-108390479D01*
X133651267Y-108390973D01*
X133658454Y-108396359D01*
X133666859Y-108399510D01*
X133666863Y-108399512D01*
X133788051Y-108444943D01*
X133788053Y-108444943D01*
X133795446Y-108447715D01*
X133803294Y-108448568D01*
X133803296Y-108448568D01*
X133854507Y-108454131D01*
X133857904Y-108454500D01*
X133956872Y-108454500D01*
X134024993Y-108474502D01*
X134038082Y-108485050D01*
X134038882Y-108486118D01*
X134046058Y-108491496D01*
X134146764Y-108566970D01*
X134153949Y-108572355D01*
X134162357Y-108575507D01*
X134281199Y-108620059D01*
X134281201Y-108620059D01*
X134288594Y-108622831D01*
X134296442Y-108623684D01*
X134296444Y-108623684D01*
X134344699Y-108628926D01*
X134349983Y-108629500D01*
X134712446Y-108629500D01*
X135075016Y-108629499D01*
X135078411Y-108629130D01*
X135078416Y-108629130D01*
X135128548Y-108623685D01*
X135128552Y-108623684D01*
X135136406Y-108622831D01*
X135271051Y-108572355D01*
X135278237Y-108566970D01*
X135386118Y-108486118D01*
X135388039Y-108488681D01*
X135436511Y-108462213D01*
X135507326Y-108467278D01*
X135550308Y-108499431D01*
X135552865Y-108496874D01*
X135559215Y-108503224D01*
X135564596Y-108510404D01*
X135571776Y-108515785D01*
X135673054Y-108591689D01*
X135673057Y-108591691D01*
X135680236Y-108597071D01*
X135769954Y-108630704D01*
X135808157Y-108645026D01*
X135808159Y-108645026D01*
X135815552Y-108647798D01*
X135823402Y-108648651D01*
X135823403Y-108648651D01*
X135866759Y-108653361D01*
X135877244Y-108654500D01*
X137322756Y-108654500D01*
X137333241Y-108653361D01*
X137376597Y-108648651D01*
X137376598Y-108648651D01*
X137384448Y-108647798D01*
X137391841Y-108645026D01*
X137391843Y-108645026D01*
X137430046Y-108630704D01*
X137519764Y-108597071D01*
X137526943Y-108591691D01*
X137526946Y-108591689D01*
X137628224Y-108515785D01*
X137635404Y-108510404D01*
X137674316Y-108458484D01*
X137716689Y-108401946D01*
X137716691Y-108401943D01*
X137722071Y-108394764D01*
X137761500Y-108289586D01*
X137770026Y-108266843D01*
X137770026Y-108266841D01*
X137772798Y-108259448D01*
X137776074Y-108229297D01*
X137779131Y-108201153D01*
X137779131Y-108201152D01*
X137779500Y-108197756D01*
X137779500Y-106902244D01*
X137779131Y-106898847D01*
X137773651Y-106848403D01*
X137773651Y-106848402D01*
X137772798Y-106840552D01*
X137766143Y-106822798D01*
X137745673Y-106768196D01*
X137722071Y-106705236D01*
X137716691Y-106698057D01*
X137716689Y-106698054D01*
X137640785Y-106596776D01*
X137635404Y-106589596D01*
X137576567Y-106545500D01*
X137526946Y-106508311D01*
X137526943Y-106508309D01*
X137519764Y-106502929D01*
X137423463Y-106466828D01*
X137391843Y-106454974D01*
X137391841Y-106454974D01*
X137384448Y-106452202D01*
X137376598Y-106451349D01*
X137376597Y-106451349D01*
X137326153Y-106445869D01*
X137326152Y-106445869D01*
X137322756Y-106445500D01*
X135877244Y-106445500D01*
X135873848Y-106445869D01*
X135873847Y-106445869D01*
X135823403Y-106451349D01*
X135823402Y-106451349D01*
X135815552Y-106452202D01*
X135808159Y-106454974D01*
X135808157Y-106454974D01*
X135776537Y-106466828D01*
X135680236Y-106502929D01*
X135673057Y-106508309D01*
X135673054Y-106508311D01*
X135627275Y-106542621D01*
X135596912Y-106565377D01*
X135587473Y-106572451D01*
X135520967Y-106597299D01*
X135451584Y-106582246D01*
X135411082Y-106547190D01*
X135391500Y-106521062D01*
X135391496Y-106521058D01*
X135386118Y-106513882D01*
X135378942Y-106508504D01*
X135378938Y-106508500D01*
X135335341Y-106475826D01*
X135292826Y-106418967D01*
X135287800Y-106348149D01*
X135321860Y-106285855D01*
X135335341Y-106274174D01*
X135378938Y-106241500D01*
X135378942Y-106241496D01*
X135386118Y-106236118D01*
X135459790Y-106137817D01*
X135466972Y-106128234D01*
X135466973Y-106128233D01*
X135472355Y-106121051D01*
X135503754Y-106037294D01*
X135520059Y-105993801D01*
X135520059Y-105993799D01*
X135522831Y-105986406D01*
X135529500Y-105925017D01*
X135529500Y-105921082D01*
X135529534Y-105920965D01*
X135529684Y-105918203D01*
X135530335Y-105918238D01*
X135549502Y-105852961D01*
X135603158Y-105806468D01*
X135673432Y-105796364D01*
X135742631Y-105830064D01*
X135813981Y-105898367D01*
X135837340Y-105920728D01*
X135842375Y-105923979D01*
X136009360Y-106031800D01*
X136009363Y-106031801D01*
X136014397Y-106035052D01*
X136209878Y-106113834D01*
X136323261Y-106135976D01*
X136412283Y-106153361D01*
X136412286Y-106153361D01*
X136416729Y-106154229D01*
X136422270Y-106154500D01*
X136727659Y-106154500D01*
X136884806Y-106139507D01*
X136934256Y-106125000D01*
X137081278Y-106081868D01*
X137087042Y-106080177D01*
X137170304Y-106037294D01*
X137269079Y-105986422D01*
X137269082Y-105986420D01*
X137274410Y-105983676D01*
X137349086Y-105925017D01*
X137435432Y-105857192D01*
X137435436Y-105857188D01*
X137440149Y-105853486D01*
X137460474Y-105830064D01*
X137574350Y-105698835D01*
X137574354Y-105698830D01*
X137578281Y-105694304D01*
X137683819Y-105511874D01*
X137685786Y-105506209D01*
X137687234Y-105503047D01*
X137733779Y-105449436D01*
X137801797Y-105429500D01*
X138052212Y-105429500D01*
X138120333Y-105449502D01*
X138153038Y-105479935D01*
X138208500Y-105553938D01*
X138208504Y-105553942D01*
X138208657Y-105554146D01*
X138208659Y-105554150D01*
X138213881Y-105561118D01*
X138212875Y-105561872D01*
X138242621Y-105616345D01*
X138245500Y-105643128D01*
X138245500Y-105742096D01*
X138252285Y-105804554D01*
X138255057Y-105811947D01*
X138255057Y-105811949D01*
X138300488Y-105933137D01*
X138300490Y-105933141D01*
X138303641Y-105941546D01*
X138309027Y-105948733D01*
X138309521Y-105949635D01*
X138325000Y-106010143D01*
X138325000Y-106689857D01*
X138309521Y-106750365D01*
X138309027Y-106751267D01*
X138303641Y-106758454D01*
X138300490Y-106766859D01*
X138300488Y-106766863D01*
X138258358Y-106879246D01*
X138252285Y-106895446D01*
X138251432Y-106903294D01*
X138251432Y-106903296D01*
X138249507Y-106921016D01*
X138245500Y-106957904D01*
X138245500Y-107056872D01*
X138225498Y-107124993D01*
X138214950Y-107138082D01*
X138213882Y-107138882D01*
X138208504Y-107146058D01*
X138134855Y-107244329D01*
X138127645Y-107253949D01*
X138077169Y-107388594D01*
X138070500Y-107449983D01*
X138070501Y-108175016D01*
X138070870Y-108178411D01*
X138070870Y-108178416D01*
X138073269Y-108200498D01*
X138077169Y-108236406D01*
X138127645Y-108371051D01*
X138133027Y-108378233D01*
X138133028Y-108378234D01*
X138166511Y-108422911D01*
X138213882Y-108486118D01*
X138221058Y-108491496D01*
X138321764Y-108566970D01*
X138328949Y-108572355D01*
X138337357Y-108575507D01*
X138456199Y-108620059D01*
X138456201Y-108620059D01*
X138463594Y-108622831D01*
X138471442Y-108623684D01*
X138471444Y-108623684D01*
X138519699Y-108628926D01*
X138524983Y-108629500D01*
X139199901Y-108629500D01*
X139875016Y-108629499D01*
X139878411Y-108629130D01*
X139878416Y-108629130D01*
X139928548Y-108623685D01*
X139928552Y-108623684D01*
X139936406Y-108622831D01*
X140071051Y-108572355D01*
X140078234Y-108566972D01*
X140078238Y-108566970D01*
X140117193Y-108537775D01*
X140183700Y-108512928D01*
X140253082Y-108527982D01*
X140303312Y-108578156D01*
X140307474Y-108587341D01*
X140309943Y-108592187D01*
X140312553Y-108599319D01*
X140316789Y-108605622D01*
X140316789Y-108605623D01*
X140385584Y-108708000D01*
X140400908Y-108730805D01*
X140406527Y-108735918D01*
X140406528Y-108735919D01*
X140501124Y-108821994D01*
X140518076Y-108837419D01*
X140657293Y-108913008D01*
X140810522Y-108953207D01*
X140894477Y-108954526D01*
X140961319Y-108955576D01*
X140961322Y-108955576D01*
X140968916Y-108955695D01*
X141123332Y-108920329D01*
X141200876Y-108881329D01*
X141258072Y-108852563D01*
X141258075Y-108852561D01*
X141264521Y-108849319D01*
X142785041Y-108849319D01*
X142794923Y-108861809D01*
X142832259Y-108886756D01*
X142842371Y-108892247D01*
X143023081Y-108969885D01*
X143034014Y-108973437D01*
X143225844Y-109016845D01*
X143237253Y-109018347D01*
X143433783Y-109026068D01*
X143445265Y-109025466D01*
X143639905Y-108997245D01*
X143651101Y-108994557D01*
X143837343Y-108931336D01*
X143847840Y-108926662D01*
X143966401Y-108860266D01*
X143976264Y-108850189D01*
X143973309Y-108842519D01*
X143392812Y-108262022D01*
X143378868Y-108254408D01*
X143377035Y-108254539D01*
X143370420Y-108258790D01*
X142791237Y-108837973D01*
X142785041Y-108849319D01*
X141264521Y-108849319D01*
X141264855Y-108849151D01*
X141270626Y-108844222D01*
X141270629Y-108844220D01*
X141379536Y-108751204D01*
X141379536Y-108751203D01*
X141385314Y-108746269D01*
X141477755Y-108617624D01*
X141536842Y-108470641D01*
X141552285Y-108362128D01*
X141558581Y-108317891D01*
X141558581Y-108317888D01*
X141559162Y-108313807D01*
X141559307Y-108300000D01*
X141558567Y-108293880D01*
X141550751Y-108229297D01*
X141540276Y-108142733D01*
X141484280Y-107994546D01*
X141455880Y-107953224D01*
X141398855Y-107870251D01*
X141398854Y-107870249D01*
X141395920Y-107865980D01*
X142242914Y-107865980D01*
X142255777Y-108062233D01*
X142257577Y-108073601D01*
X142305991Y-108264228D01*
X142309829Y-108275066D01*
X142392173Y-108453685D01*
X142397922Y-108463642D01*
X142407850Y-108477690D01*
X142418439Y-108486078D01*
X142431740Y-108479050D01*
X143007978Y-107902812D01*
X143014356Y-107891132D01*
X143744408Y-107891132D01*
X143744539Y-107892965D01*
X143748790Y-107899580D01*
X144328603Y-108479393D01*
X144340983Y-108486153D01*
X144347563Y-108481227D01*
X144416662Y-108357840D01*
X144421336Y-108347343D01*
X144484557Y-108161101D01*
X144487245Y-108149905D01*
X144515762Y-107953224D01*
X144516392Y-107945843D01*
X144517757Y-107893704D01*
X144517514Y-107886305D01*
X144515647Y-107865980D01*
X150882914Y-107865980D01*
X150895777Y-108062233D01*
X150897577Y-108073601D01*
X150945991Y-108264228D01*
X150949829Y-108275066D01*
X151032173Y-108453685D01*
X151037922Y-108463642D01*
X151047850Y-108477690D01*
X151058439Y-108486078D01*
X151071740Y-108479050D01*
X151647978Y-107902812D01*
X151655592Y-107888868D01*
X151655461Y-107887035D01*
X151651210Y-107880420D01*
X151070031Y-107299241D01*
X151057651Y-107292481D01*
X151051685Y-107296947D01*
X150971452Y-107449445D01*
X150967047Y-107460079D01*
X150908724Y-107647910D01*
X150906332Y-107659164D01*
X150883215Y-107854479D01*
X150882914Y-107865980D01*
X144515647Y-107865980D01*
X144499330Y-107688397D01*
X144497233Y-107677083D01*
X144443846Y-107487789D01*
X144439724Y-107477050D01*
X144352736Y-107300656D01*
X144351577Y-107298765D01*
X144342732Y-107292126D01*
X144330312Y-107298898D01*
X143752022Y-107877188D01*
X143744408Y-107891132D01*
X143014356Y-107891132D01*
X143015592Y-107888868D01*
X143015461Y-107887035D01*
X143011210Y-107880420D01*
X142430031Y-107299241D01*
X142417651Y-107292481D01*
X142411685Y-107296947D01*
X142331452Y-107449445D01*
X142327047Y-107460079D01*
X142268724Y-107647910D01*
X142266332Y-107659164D01*
X142243215Y-107854479D01*
X142242914Y-107865980D01*
X141395920Y-107865980D01*
X141394553Y-107863992D01*
X141276275Y-107758611D01*
X141136274Y-107684484D01*
X140982633Y-107645892D01*
X140975034Y-107645852D01*
X140975033Y-107645852D01*
X140914626Y-107645536D01*
X140833335Y-107645110D01*
X140765321Y-107624752D01*
X140744901Y-107608207D01*
X140718978Y-107582284D01*
X140703836Y-107563536D01*
X140702721Y-107562311D01*
X140697071Y-107553560D01*
X140688893Y-107547113D01*
X140688891Y-107547111D01*
X140670700Y-107532771D01*
X140666259Y-107528825D01*
X140666197Y-107528898D01*
X140662233Y-107525539D01*
X140658556Y-107521862D01*
X140642808Y-107510608D01*
X140638138Y-107507102D01*
X140597853Y-107475344D01*
X140589219Y-107472312D01*
X140581766Y-107466986D01*
X140532650Y-107452297D01*
X140527008Y-107450464D01*
X140486133Y-107436110D01*
X140486132Y-107436110D01*
X140478649Y-107433482D01*
X140473084Y-107433000D01*
X140470376Y-107433000D01*
X140467742Y-107432886D01*
X140467644Y-107432857D01*
X140467651Y-107432693D01*
X140466947Y-107432649D01*
X140460722Y-107430787D01*
X140446507Y-107431345D01*
X140431389Y-107431939D01*
X140362536Y-107414626D01*
X140313973Y-107362836D01*
X140308462Y-107350265D01*
X140275507Y-107262356D01*
X140275506Y-107262354D01*
X140272355Y-107253949D01*
X140265146Y-107244329D01*
X140191496Y-107146058D01*
X140186118Y-107138882D01*
X140187124Y-107138128D01*
X140157379Y-107083655D01*
X140154500Y-107056872D01*
X140154500Y-106957904D01*
X140151516Y-106930436D01*
X142784547Y-106930436D01*
X142788033Y-106938823D01*
X143367188Y-107517978D01*
X143381132Y-107525592D01*
X143382965Y-107525461D01*
X143389580Y-107521210D01*
X143968407Y-106942383D01*
X143974931Y-106930436D01*
X151424547Y-106930436D01*
X151428033Y-106938823D01*
X152007188Y-107517978D01*
X152021132Y-107525592D01*
X152022965Y-107525461D01*
X152029580Y-107521210D01*
X152608407Y-106942383D01*
X152615167Y-106930003D01*
X152609137Y-106921948D01*
X152541459Y-106879246D01*
X152531211Y-106874025D01*
X152348531Y-106801143D01*
X152337504Y-106797876D01*
X152144605Y-106759506D01*
X152133159Y-106758303D01*
X151936507Y-106755730D01*
X151925027Y-106756633D01*
X151731199Y-106789938D01*
X151720079Y-106792918D01*
X151535557Y-106860992D01*
X151525179Y-106865942D01*
X151434146Y-106920101D01*
X151424547Y-106930436D01*
X143974931Y-106930436D01*
X143975167Y-106930003D01*
X143969137Y-106921948D01*
X143901459Y-106879246D01*
X143891211Y-106874025D01*
X143708531Y-106801143D01*
X143697504Y-106797876D01*
X143504605Y-106759506D01*
X143493159Y-106758303D01*
X143296507Y-106755730D01*
X143285027Y-106756633D01*
X143091199Y-106789938D01*
X143080079Y-106792918D01*
X142895557Y-106860992D01*
X142885179Y-106865942D01*
X142794146Y-106920101D01*
X142784547Y-106930436D01*
X140151516Y-106930436D01*
X140150493Y-106921016D01*
X140148568Y-106903296D01*
X140148568Y-106903294D01*
X140147715Y-106895446D01*
X140141642Y-106879246D01*
X140135694Y-106863378D01*
X140130511Y-106792571D01*
X140164433Y-106730202D01*
X140226689Y-106696074D01*
X140285651Y-106697275D01*
X140322385Y-106706912D01*
X140322387Y-106706912D01*
X140329739Y-106708841D01*
X140413694Y-106710160D01*
X140480536Y-106711210D01*
X140480539Y-106711210D01*
X140488133Y-106711329D01*
X140642549Y-106675963D01*
X140712959Y-106640551D01*
X140777289Y-106608197D01*
X140777292Y-106608195D01*
X140784072Y-106604785D01*
X140789843Y-106599856D01*
X140789846Y-106599854D01*
X140898753Y-106506838D01*
X140898753Y-106506837D01*
X140904531Y-106501903D01*
X140996972Y-106373258D01*
X141056059Y-106226275D01*
X141068326Y-106140077D01*
X141077798Y-106073525D01*
X141077798Y-106073522D01*
X141078379Y-106069441D01*
X141078524Y-106055634D01*
X141059493Y-105898367D01*
X141003497Y-105750180D01*
X140944891Y-105664907D01*
X140918072Y-105625885D01*
X140918071Y-105625883D01*
X140913770Y-105619626D01*
X140840898Y-105554699D01*
X140803343Y-105494450D01*
X140798717Y-105460623D01*
X140798717Y-104770161D01*
X142694393Y-104770161D01*
X142703687Y-104782175D01*
X142744088Y-104810464D01*
X142753584Y-104815947D01*
X142943113Y-104904326D01*
X142953405Y-104908072D01*
X143155401Y-104962196D01*
X143166196Y-104964099D01*
X143374525Y-104982326D01*
X143385475Y-104982326D01*
X143593804Y-104964099D01*
X143604599Y-104962196D01*
X143806595Y-104908072D01*
X143816887Y-104904326D01*
X144006416Y-104815947D01*
X144015912Y-104810464D01*
X144057148Y-104781590D01*
X144065523Y-104771112D01*
X144058457Y-104757668D01*
X143392811Y-104092021D01*
X143378868Y-104084408D01*
X143377034Y-104084539D01*
X143370420Y-104088790D01*
X142700820Y-104758391D01*
X142694393Y-104770161D01*
X140798717Y-104770161D01*
X140798717Y-103735979D01*
X140801540Y-103709458D01*
X140803537Y-103700183D01*
X140807113Y-103700953D01*
X140824125Y-103651702D01*
X140879905Y-103607781D01*
X140950576Y-103600988D01*
X141005767Y-103628609D01*
X141006266Y-103627907D01*
X141010795Y-103631126D01*
X141011605Y-103631531D01*
X141018076Y-103637419D01*
X141157293Y-103713008D01*
X141310522Y-103753207D01*
X141394477Y-103754526D01*
X141461319Y-103755576D01*
X141461322Y-103755576D01*
X141468916Y-103755695D01*
X141623332Y-103720329D01*
X141693742Y-103684917D01*
X141758072Y-103652563D01*
X141758075Y-103652561D01*
X141764855Y-103649151D01*
X141770626Y-103644222D01*
X141770629Y-103644220D01*
X141879536Y-103551204D01*
X141879536Y-103551203D01*
X141885314Y-103546269D01*
X141898802Y-103527499D01*
X141954793Y-103483853D01*
X142025497Y-103477407D01*
X142088461Y-103510209D01*
X142123696Y-103571845D01*
X142126643Y-103612009D01*
X142117674Y-103714525D01*
X142117674Y-103725475D01*
X142135901Y-103933804D01*
X142137804Y-103944599D01*
X142191928Y-104146595D01*
X142195674Y-104156887D01*
X142284054Y-104346417D01*
X142289534Y-104355907D01*
X142318411Y-104397149D01*
X142328886Y-104405523D01*
X142342335Y-104398454D01*
X143380000Y-103360790D01*
X143639190Y-103101599D01*
X143652000Y-103078139D01*
X143652000Y-103012000D01*
X143672002Y-102943879D01*
X143725658Y-102897386D01*
X143778000Y-102886000D01*
X143836674Y-102886000D01*
X143862319Y-102878470D01*
X144013677Y-102727112D01*
X144222762Y-102727112D01*
X144233188Y-102737538D01*
X144243277Y-102743047D01*
X144245118Y-102738111D01*
X144241525Y-102725876D01*
X144240135Y-102724671D01*
X144234930Y-102723539D01*
X144222762Y-102727112D01*
X144013677Y-102727112D01*
X144021000Y-102719789D01*
X144021242Y-102720031D01*
X144047360Y-102693915D01*
X144022283Y-102639011D01*
X144021000Y-102621075D01*
X144021000Y-101972115D01*
X144016525Y-101956876D01*
X144015135Y-101955671D01*
X144007452Y-101954000D01*
X143385116Y-101954000D01*
X143369877Y-101958475D01*
X143368672Y-101959865D01*
X143367001Y-101967548D01*
X143367001Y-102028705D01*
X143367264Y-102034454D01*
X143373132Y-102098315D01*
X143375743Y-102111351D01*
X143422715Y-102261243D01*
X143432049Y-102281916D01*
X143429624Y-102283011D01*
X143444571Y-102339444D01*
X143422760Y-102407007D01*
X143367883Y-102452053D01*
X143329597Y-102461605D01*
X143243995Y-102469094D01*
X143174391Y-102455105D01*
X143123398Y-102405705D01*
X143107670Y-102330732D01*
X143112672Y-102281906D01*
X143113000Y-102275487D01*
X143113000Y-102252115D01*
X143108525Y-102236876D01*
X143107135Y-102235671D01*
X143099452Y-102234000D01*
X142027000Y-102234000D01*
X141958879Y-102213998D01*
X141912386Y-102160342D01*
X141901000Y-102108000D01*
X141901000Y-101852000D01*
X141921002Y-101783879D01*
X141974658Y-101737386D01*
X142027000Y-101726000D01*
X143094885Y-101726000D01*
X143110124Y-101721525D01*
X143111329Y-101720135D01*
X143113000Y-101712452D01*
X143113000Y-101684562D01*
X143112663Y-101678047D01*
X143102394Y-101579084D01*
X143104091Y-101578908D01*
X143108624Y-101516769D01*
X143144786Y-101465159D01*
X143180691Y-101434494D01*
X143189333Y-101427113D01*
X143254123Y-101398082D01*
X143324323Y-101408689D01*
X143353674Y-101427700D01*
X143372865Y-101444329D01*
X143380548Y-101446000D01*
X144403000Y-101446000D01*
X144471121Y-101466002D01*
X144517614Y-101519658D01*
X144529000Y-101572000D01*
X144529000Y-102003885D01*
X144533475Y-102019124D01*
X144537757Y-102022834D01*
X144594356Y-102053739D01*
X144626258Y-102107679D01*
X144628826Y-102116516D01*
X144630050Y-102126861D01*
X144634013Y-102135113D01*
X144635516Y-102144146D01*
X144640463Y-102153315D01*
X144640464Y-102153317D01*
X144659854Y-102189252D01*
X144662551Y-102194545D01*
X144681305Y-102233602D01*
X144681308Y-102233606D01*
X144684739Y-102240752D01*
X144688334Y-102245028D01*
X144690257Y-102246951D01*
X144692029Y-102248883D01*
X144692072Y-102248962D01*
X144691948Y-102249075D01*
X144692424Y-102249615D01*
X144695510Y-102255334D01*
X144703152Y-102262398D01*
X144703155Y-102262402D01*
X144713530Y-102271992D01*
X144749974Y-102332921D01*
X144754000Y-102364516D01*
X144754000Y-102489790D01*
X144751579Y-102514371D01*
X144745500Y-102544933D01*
X144745501Y-103133596D01*
X144745501Y-103268000D01*
X144725499Y-103336121D01*
X144671843Y-103382614D01*
X144619501Y-103394000D01*
X144083326Y-103394000D01*
X144057681Y-103401530D01*
X143752021Y-103707189D01*
X143744408Y-103721132D01*
X143744539Y-103722966D01*
X143748790Y-103729580D01*
X144418391Y-104399180D01*
X144430161Y-104405607D01*
X144442176Y-104396311D01*
X144470466Y-104355907D01*
X144475946Y-104346417D01*
X144501904Y-104290749D01*
X144548821Y-104237464D01*
X144616099Y-104217999D01*
X144844669Y-104217999D01*
X144851490Y-104217629D01*
X144902352Y-104212105D01*
X144917604Y-104208479D01*
X145038054Y-104163324D01*
X145053644Y-104154788D01*
X145103096Y-104117726D01*
X145169603Y-104092878D01*
X145238985Y-104107931D01*
X145267757Y-104129457D01*
X145468516Y-104330216D01*
X145483658Y-104348964D01*
X145484773Y-104350189D01*
X145490423Y-104358940D01*
X145498601Y-104365387D01*
X145498603Y-104365389D01*
X145516794Y-104379729D01*
X145521235Y-104383675D01*
X145521297Y-104383602D01*
X145525261Y-104386961D01*
X145528938Y-104390638D01*
X145544686Y-104401892D01*
X145549356Y-104405398D01*
X145589641Y-104437156D01*
X145598275Y-104440188D01*
X145605728Y-104445514D01*
X145654844Y-104460203D01*
X145660486Y-104462036D01*
X145701193Y-104476331D01*
X145708845Y-104479018D01*
X145714410Y-104479500D01*
X145717118Y-104479500D01*
X145719752Y-104479614D01*
X145719850Y-104479643D01*
X145719843Y-104479807D01*
X145720547Y-104479851D01*
X145726772Y-104481713D01*
X145780629Y-104479597D01*
X145785576Y-104479500D01*
X149571086Y-104479500D01*
X149595034Y-104482049D01*
X149596699Y-104482128D01*
X149606882Y-104484320D01*
X149617223Y-104483096D01*
X149640229Y-104480373D01*
X149646160Y-104480023D01*
X149646152Y-104479928D01*
X149651330Y-104479500D01*
X149656530Y-104479500D01*
X149661659Y-104478646D01*
X149661662Y-104478646D01*
X149675571Y-104476331D01*
X149681449Y-104475494D01*
X149722007Y-104470694D01*
X149722008Y-104470694D01*
X149732347Y-104469470D01*
X149740599Y-104465507D01*
X149749632Y-104464004D01*
X149758801Y-104459057D01*
X149758803Y-104459056D01*
X149794738Y-104439666D01*
X149800031Y-104436969D01*
X149839088Y-104418215D01*
X149839092Y-104418212D01*
X149846238Y-104414781D01*
X149850514Y-104411186D01*
X149852437Y-104409263D01*
X149854369Y-104407491D01*
X149854448Y-104407448D01*
X149854561Y-104407572D01*
X149855101Y-104407096D01*
X149860820Y-104404010D01*
X149897423Y-104364413D01*
X149900852Y-104360848D01*
X150132243Y-104129457D01*
X150194555Y-104095431D01*
X150265370Y-104100496D01*
X150296904Y-104117726D01*
X150346356Y-104154788D01*
X150361946Y-104163324D01*
X150482394Y-104208478D01*
X150497649Y-104212105D01*
X150548514Y-104217631D01*
X150555328Y-104218000D01*
X150783901Y-104218000D01*
X150852022Y-104238002D01*
X150898095Y-104290749D01*
X150924052Y-104346412D01*
X150929534Y-104355907D01*
X150958411Y-104397149D01*
X150968887Y-104405523D01*
X150982334Y-104398455D01*
X151647979Y-103732811D01*
X151655592Y-103718868D01*
X151655461Y-103717034D01*
X151651210Y-103710421D01*
X151347597Y-103406808D01*
X151324141Y-103394000D01*
X150780500Y-103394000D01*
X150712379Y-103373998D01*
X150665886Y-103320342D01*
X150654500Y-103268000D01*
X150654499Y-102734070D01*
X151154539Y-102734070D01*
X151157237Y-102743260D01*
X151164328Y-102740022D01*
X151181350Y-102723000D01*
X151181630Y-102723280D01*
X151182997Y-102721913D01*
X151178000Y-102723000D01*
X151172115Y-102723000D01*
X151156876Y-102727475D01*
X151155671Y-102728865D01*
X151154539Y-102734070D01*
X150654499Y-102734070D01*
X150654499Y-102551123D01*
X150654499Y-102544934D01*
X150648421Y-102514375D01*
X150646000Y-102489796D01*
X150646000Y-102339156D01*
X150663889Y-102283347D01*
X150661009Y-102281936D01*
X150662636Y-102279873D01*
X150665668Y-102271239D01*
X150670994Y-102263786D01*
X150685683Y-102214670D01*
X150687516Y-102209028D01*
X150701870Y-102168153D01*
X150701870Y-102168152D01*
X150704498Y-102160669D01*
X150704980Y-102155104D01*
X150704980Y-102152396D01*
X150705094Y-102149762D01*
X150705123Y-102149664D01*
X150705287Y-102149671D01*
X150705331Y-102148967D01*
X150707193Y-102142742D01*
X150706784Y-102132337D01*
X150708090Y-102122001D01*
X150712090Y-102122506D01*
X150724448Y-102073261D01*
X150776214Y-102024673D01*
X150792525Y-102018217D01*
X150794329Y-102016135D01*
X150796000Y-102008452D01*
X150796000Y-101572000D01*
X150816002Y-101503879D01*
X150869658Y-101457386D01*
X150922000Y-101446000D01*
X151178000Y-101446000D01*
X151246121Y-101466002D01*
X151292614Y-101519658D01*
X151304000Y-101572000D01*
X151304000Y-102597000D01*
X151283998Y-102665121D01*
X151272626Y-102674975D01*
X151287440Y-102671752D01*
X151353960Y-102696562D01*
X151367547Y-102708336D01*
X151532399Y-102873188D01*
X151555861Y-102886000D01*
X151622000Y-102886000D01*
X151690121Y-102906002D01*
X151736614Y-102959658D01*
X151748000Y-103012000D01*
X151748000Y-103070674D01*
X151755531Y-103096321D01*
X152290115Y-103630905D01*
X152324141Y-103693217D01*
X152319076Y-103764032D01*
X152290115Y-103809095D01*
X152020000Y-104079210D01*
X151340824Y-104758387D01*
X151334394Y-104770162D01*
X151343690Y-104782176D01*
X151384088Y-104810464D01*
X151393584Y-104815947D01*
X151583113Y-104904326D01*
X151593405Y-104908072D01*
X151795401Y-104962196D01*
X151806196Y-104964099D01*
X152014525Y-104982326D01*
X152025475Y-104982326D01*
X152233804Y-104964099D01*
X152244599Y-104962196D01*
X152446595Y-104908072D01*
X152456887Y-104904326D01*
X152588104Y-104843138D01*
X152658295Y-104832477D01*
X152723108Y-104861457D01*
X152761965Y-104920876D01*
X152766617Y-104970939D01*
X152760500Y-105027244D01*
X152760500Y-106372756D01*
X152760869Y-106376152D01*
X152760869Y-106376153D01*
X152761233Y-106379499D01*
X152767202Y-106434448D01*
X152769974Y-106441841D01*
X152769974Y-106441843D01*
X152782142Y-106474301D01*
X152817929Y-106569764D01*
X152823309Y-106576943D01*
X152823311Y-106576946D01*
X152862698Y-106629500D01*
X152904596Y-106685404D01*
X152911776Y-106690785D01*
X153013054Y-106766689D01*
X153013057Y-106766691D01*
X153020236Y-106772071D01*
X153108649Y-106805215D01*
X153148157Y-106820026D01*
X153148159Y-106820026D01*
X153155552Y-106822798D01*
X153163402Y-106823651D01*
X153163403Y-106823651D01*
X153180626Y-106825522D01*
X153217244Y-106829500D01*
X154062756Y-106829500D01*
X154099374Y-106825522D01*
X154116597Y-106823651D01*
X154116598Y-106823651D01*
X154124448Y-106822798D01*
X154131841Y-106820026D01*
X154131843Y-106820026D01*
X154171351Y-106805215D01*
X154259764Y-106772071D01*
X154266943Y-106766691D01*
X154266946Y-106766689D01*
X154368224Y-106690785D01*
X154375404Y-106685404D01*
X154417302Y-106629500D01*
X154456689Y-106576946D01*
X154456691Y-106576943D01*
X154462071Y-106569764D01*
X154497858Y-106474301D01*
X154510026Y-106441843D01*
X154510026Y-106441841D01*
X154512798Y-106434448D01*
X154518768Y-106379499D01*
X154519131Y-106376153D01*
X154519131Y-106376152D01*
X154519500Y-106372756D01*
X154519500Y-105027244D01*
X154512798Y-104965552D01*
X154489846Y-104904326D01*
X154465223Y-104838643D01*
X154465221Y-104838640D01*
X154462071Y-104830236D01*
X154456686Y-104823051D01*
X154452830Y-104816008D01*
X154437661Y-104746651D01*
X154462397Y-104680103D01*
X154519185Y-104637493D01*
X154563349Y-104629499D01*
X154595388Y-104629499D01*
X154598782Y-104629130D01*
X154598788Y-104629130D01*
X154646166Y-104623984D01*
X154646170Y-104623983D01*
X154654024Y-104623130D01*
X154761260Y-104582930D01*
X154774230Y-104578068D01*
X154774231Y-104578067D01*
X154782635Y-104574917D01*
X154789814Y-104569537D01*
X154789817Y-104569535D01*
X154849261Y-104524983D01*
X154855693Y-104520163D01*
X154922198Y-104495315D01*
X154991581Y-104510367D01*
X155038402Y-104554686D01*
X155067788Y-104602173D01*
X155076824Y-104613574D01*
X155187429Y-104723986D01*
X155198840Y-104732998D01*
X155331880Y-104815004D01*
X155345061Y-104821151D01*
X155478032Y-104865256D01*
X155536391Y-104905687D01*
X155563628Y-104971251D01*
X155563627Y-104998456D01*
X155560500Y-105027244D01*
X155560500Y-106372756D01*
X155560869Y-106376152D01*
X155560869Y-106376153D01*
X155561233Y-106379499D01*
X155567202Y-106434448D01*
X155569974Y-106441841D01*
X155569974Y-106441843D01*
X155582142Y-106474301D01*
X155617929Y-106569764D01*
X155623309Y-106576943D01*
X155623311Y-106576946D01*
X155662698Y-106629500D01*
X155704596Y-106685404D01*
X155711776Y-106690785D01*
X155815065Y-106768196D01*
X155857580Y-106825055D01*
X155865500Y-106869022D01*
X155865500Y-107372505D01*
X155845498Y-107440626D01*
X155792750Y-107486700D01*
X155620341Y-107567095D01*
X155620336Y-107567098D01*
X155615354Y-107569421D01*
X155610847Y-107572577D01*
X155610845Y-107572578D01*
X155440054Y-107692167D01*
X155440051Y-107692169D01*
X155435543Y-107695326D01*
X155428094Y-107702775D01*
X155365782Y-107736801D01*
X155294967Y-107731736D01*
X155238131Y-107689189D01*
X155213320Y-107622669D01*
X155213172Y-107618526D01*
X155212629Y-107608510D01*
X155207105Y-107557648D01*
X155203479Y-107542396D01*
X155158324Y-107421946D01*
X155149786Y-107406351D01*
X155073285Y-107304276D01*
X155060724Y-107291715D01*
X154958649Y-107215214D01*
X154943054Y-107206676D01*
X154822606Y-107161522D01*
X154807351Y-107157895D01*
X154756486Y-107152369D01*
X154749672Y-107152000D01*
X153977115Y-107152000D01*
X153961876Y-107156475D01*
X153960671Y-107157865D01*
X153959000Y-107165548D01*
X153959000Y-108788000D01*
X153938998Y-108856121D01*
X153885342Y-108902614D01*
X153833000Y-108914000D01*
X153577000Y-108914000D01*
X153508879Y-108893998D01*
X153462386Y-108840342D01*
X153451000Y-108788000D01*
X153451000Y-107170116D01*
X153446525Y-107154877D01*
X153445135Y-107153672D01*
X153437452Y-107152001D01*
X152958988Y-107152001D01*
X152947963Y-107155238D01*
X152960262Y-107182169D01*
X152957659Y-107183358D01*
X152974882Y-107217767D01*
X152967292Y-107288356D01*
X152939979Y-107329231D01*
X152392022Y-107877188D01*
X152384408Y-107891132D01*
X152384539Y-107892965D01*
X152388790Y-107899580D01*
X152939946Y-108450736D01*
X152973972Y-108513048D01*
X152968907Y-108583863D01*
X152939946Y-108628926D01*
X152758926Y-108809946D01*
X152696614Y-108843972D01*
X152625799Y-108838907D01*
X152580736Y-108809946D01*
X152032812Y-108262022D01*
X152018868Y-108254408D01*
X152017035Y-108254539D01*
X152010420Y-108258790D01*
X151431237Y-108837973D01*
X151425041Y-108849319D01*
X151434923Y-108861809D01*
X151472259Y-108886756D01*
X151482371Y-108892247D01*
X151663081Y-108969885D01*
X151674014Y-108973437D01*
X151865844Y-109016845D01*
X151877253Y-109018347D01*
X152075947Y-109026153D01*
X152143230Y-109048814D01*
X152187581Y-109104253D01*
X152197001Y-109152056D01*
X152197001Y-109620000D01*
X152176999Y-109688121D01*
X152123343Y-109734614D01*
X152071001Y-109746000D01*
X130380000Y-109746000D01*
X130311879Y-109725998D01*
X130265386Y-109672342D01*
X130254000Y-109620000D01*
X130254000Y-108174430D01*
X130717000Y-108174430D01*
X130717337Y-108180946D01*
X130727219Y-108276190D01*
X130730112Y-108289586D01*
X130781367Y-108443216D01*
X130787541Y-108456395D01*
X130872535Y-108593744D01*
X130881571Y-108605145D01*
X130995889Y-108719264D01*
X131007300Y-108728276D01*
X131144808Y-108813037D01*
X131157986Y-108819181D01*
X131311725Y-108870174D01*
X131325090Y-108873040D01*
X131419105Y-108882672D01*
X131425521Y-108883000D01*
X131515385Y-108883000D01*
X131530624Y-108878525D01*
X131531829Y-108877135D01*
X131533500Y-108869452D01*
X131533500Y-107772115D01*
X131529025Y-107756876D01*
X131527635Y-107755671D01*
X131519952Y-107754000D01*
X130735115Y-107754000D01*
X130719876Y-107758475D01*
X130718671Y-107759865D01*
X130717000Y-107767548D01*
X130717000Y-108174430D01*
X130254000Y-108174430D01*
X130254000Y-87880000D01*
X130274002Y-87811879D01*
X130327658Y-87765386D01*
X130380000Y-87754000D01*
X131805116Y-87754000D01*
X131873237Y-87774002D01*
G37*
%TD.AperFunction*%
%TA.AperFunction,Conductor*%
G36*
X147488012Y-96225160D02*
G01*
X147494595Y-96231289D01*
X147574564Y-96311258D01*
X147608590Y-96373570D01*
X147611469Y-96400353D01*
X147611470Y-96999892D01*
X147608921Y-97023840D01*
X147608842Y-97025505D01*
X147606650Y-97035688D01*
X147607874Y-97046029D01*
X147610597Y-97069035D01*
X147610947Y-97074966D01*
X147611042Y-97074958D01*
X147611470Y-97080136D01*
X147611470Y-97085336D01*
X147612324Y-97090465D01*
X147612324Y-97090468D01*
X147614639Y-97104377D01*
X147615476Y-97110255D01*
X147619871Y-97147386D01*
X147621500Y-97161153D01*
X147625463Y-97169405D01*
X147626966Y-97178438D01*
X147631913Y-97187607D01*
X147631914Y-97187609D01*
X147651304Y-97223544D01*
X147654001Y-97228837D01*
X147672755Y-97267894D01*
X147672758Y-97267898D01*
X147676189Y-97275044D01*
X147679784Y-97279320D01*
X147681707Y-97281243D01*
X147683479Y-97283175D01*
X147683522Y-97283254D01*
X147683398Y-97283367D01*
X147683874Y-97283907D01*
X147686960Y-97289626D01*
X147694605Y-97296693D01*
X147726556Y-97326228D01*
X147730122Y-97329658D01*
X148330680Y-97930216D01*
X148345822Y-97948964D01*
X148346937Y-97950189D01*
X148352587Y-97958940D01*
X148360765Y-97965387D01*
X148360767Y-97965389D01*
X148378958Y-97979729D01*
X148383399Y-97983675D01*
X148383461Y-97983602D01*
X148387425Y-97986961D01*
X148391102Y-97990638D01*
X148406850Y-98001892D01*
X148411520Y-98005398D01*
X148451805Y-98037156D01*
X148460439Y-98040188D01*
X148467892Y-98045514D01*
X148517008Y-98060203D01*
X148522650Y-98062036D01*
X148563525Y-98076390D01*
X148571009Y-98079018D01*
X148576574Y-98079500D01*
X148579282Y-98079500D01*
X148581916Y-98079614D01*
X148582014Y-98079643D01*
X148582007Y-98079807D01*
X148582711Y-98079851D01*
X148588936Y-98081713D01*
X148642793Y-98079597D01*
X148647740Y-98079500D01*
X150994500Y-98079500D01*
X151062621Y-98099502D01*
X151109114Y-98153158D01*
X151120500Y-98205500D01*
X151120500Y-98687863D01*
X151117951Y-98711811D01*
X151117872Y-98713476D01*
X151115680Y-98723659D01*
X151116904Y-98734000D01*
X151119627Y-98757006D01*
X151119977Y-98762937D01*
X151120072Y-98762929D01*
X151120500Y-98768107D01*
X151120500Y-98773307D01*
X151121354Y-98778436D01*
X151121354Y-98778439D01*
X151123669Y-98792348D01*
X151124506Y-98798226D01*
X151126480Y-98814900D01*
X151130530Y-98849124D01*
X151134493Y-98857376D01*
X151135996Y-98866409D01*
X151140943Y-98875578D01*
X151140944Y-98875580D01*
X151160334Y-98911515D01*
X151163031Y-98916808D01*
X151181785Y-98955865D01*
X151181788Y-98955869D01*
X151185219Y-98963015D01*
X151188814Y-98967291D01*
X151190737Y-98969214D01*
X151192509Y-98971146D01*
X151192552Y-98971225D01*
X151192428Y-98971338D01*
X151192904Y-98971878D01*
X151195990Y-98977597D01*
X151203635Y-98984664D01*
X151235586Y-99014199D01*
X151239152Y-99017629D01*
X151693522Y-99471999D01*
X151708664Y-99490747D01*
X151709779Y-99491972D01*
X151715429Y-99500723D01*
X151723607Y-99507170D01*
X151723609Y-99507172D01*
X151741800Y-99521512D01*
X151746241Y-99525458D01*
X151746303Y-99525385D01*
X151750267Y-99528744D01*
X151753944Y-99532421D01*
X151769692Y-99543675D01*
X151774362Y-99547181D01*
X151814647Y-99578939D01*
X151823281Y-99581971D01*
X151830734Y-99587297D01*
X151879850Y-99601986D01*
X151885492Y-99603819D01*
X151926367Y-99618173D01*
X151933851Y-99620801D01*
X151939416Y-99621283D01*
X151942124Y-99621283D01*
X151944758Y-99621397D01*
X151944856Y-99621426D01*
X151944849Y-99621590D01*
X151945553Y-99621634D01*
X151951778Y-99623496D01*
X152005635Y-99621380D01*
X152010582Y-99621283D01*
X152932399Y-99621283D01*
X153000520Y-99641285D01*
X153021494Y-99658188D01*
X153293522Y-99930216D01*
X153308664Y-99948964D01*
X153309779Y-99950189D01*
X153315429Y-99958940D01*
X153323607Y-99965387D01*
X153323609Y-99965389D01*
X153341800Y-99979729D01*
X153346241Y-99983675D01*
X153346303Y-99983602D01*
X153350267Y-99986961D01*
X153353944Y-99990638D01*
X153369692Y-100001892D01*
X153374362Y-100005398D01*
X153414647Y-100037156D01*
X153423281Y-100040188D01*
X153430734Y-100045514D01*
X153479850Y-100060203D01*
X153485492Y-100062036D01*
X153526367Y-100076390D01*
X153533851Y-100079018D01*
X153539416Y-100079500D01*
X153542124Y-100079500D01*
X153544758Y-100079614D01*
X153544856Y-100079643D01*
X153544849Y-100079807D01*
X153545553Y-100079851D01*
X153551778Y-100081713D01*
X153605635Y-100079597D01*
X153610582Y-100079500D01*
X156294500Y-100079500D01*
X156362621Y-100099502D01*
X156409114Y-100153158D01*
X156420500Y-100205500D01*
X156420500Y-102809467D01*
X156400498Y-102877588D01*
X156346842Y-102924081D01*
X156276568Y-102934185D01*
X156262260Y-102930811D01*
X156242810Y-102926642D01*
X156151903Y-102917328D01*
X156146874Y-102917071D01*
X156131876Y-102921475D01*
X156130671Y-102922865D01*
X156129000Y-102930548D01*
X156129000Y-104028000D01*
X156108998Y-104096121D01*
X156055342Y-104142614D01*
X156003000Y-104154000D01*
X155747000Y-104154000D01*
X155678879Y-104133998D01*
X155632386Y-104080342D01*
X155621000Y-104028000D01*
X155621000Y-102935115D01*
X155616525Y-102919876D01*
X155615135Y-102918671D01*
X155607452Y-102917000D01*
X155604562Y-102917000D01*
X155598047Y-102917337D01*
X155505943Y-102926894D01*
X155492544Y-102929788D01*
X155343893Y-102979381D01*
X155330714Y-102985555D01*
X155197827Y-103067788D01*
X155186426Y-103076824D01*
X155076014Y-103187429D01*
X155067002Y-103198840D01*
X155038486Y-103245102D01*
X154985714Y-103292595D01*
X154915642Y-103304019D01*
X154855661Y-103279812D01*
X154789821Y-103230468D01*
X154789818Y-103230466D01*
X154782635Y-103225083D01*
X154740757Y-103209384D01*
X154661419Y-103179642D01*
X154661418Y-103179642D01*
X154654024Y-103176870D01*
X154646174Y-103176017D01*
X154646173Y-103176017D01*
X154598786Y-103170869D01*
X154598785Y-103170869D01*
X154595389Y-103170500D01*
X154575644Y-103170500D01*
X154326167Y-103170501D01*
X154258048Y-103150499D01*
X154237073Y-103133596D01*
X151673261Y-100569784D01*
X151658119Y-100551036D01*
X151657004Y-100549811D01*
X151651354Y-100541060D01*
X151643176Y-100534613D01*
X151643174Y-100534611D01*
X151624983Y-100520271D01*
X151620542Y-100516325D01*
X151620480Y-100516398D01*
X151616516Y-100513039D01*
X151612839Y-100509362D01*
X151597091Y-100498108D01*
X151592421Y-100494602D01*
X151552136Y-100462844D01*
X151543502Y-100459812D01*
X151536049Y-100454486D01*
X151486933Y-100439797D01*
X151481291Y-100437964D01*
X151440416Y-100423610D01*
X151440415Y-100423610D01*
X151432932Y-100420982D01*
X151427367Y-100420500D01*
X151424659Y-100420500D01*
X151422025Y-100420386D01*
X151421927Y-100420357D01*
X151421934Y-100420193D01*
X151421230Y-100420149D01*
X151415005Y-100418287D01*
X151361148Y-100420403D01*
X151356201Y-100420500D01*
X150787137Y-100420500D01*
X150763189Y-100417951D01*
X150761524Y-100417872D01*
X150751341Y-100415680D01*
X150741000Y-100416904D01*
X150717994Y-100419627D01*
X150712063Y-100419977D01*
X150712071Y-100420072D01*
X150706893Y-100420500D01*
X150701693Y-100420500D01*
X150696564Y-100421354D01*
X150696561Y-100421354D01*
X150682652Y-100423669D01*
X150676774Y-100424506D01*
X150636216Y-100429306D01*
X150636215Y-100429306D01*
X150625876Y-100430530D01*
X150617624Y-100434493D01*
X150608591Y-100435996D01*
X150563444Y-100460356D01*
X150558187Y-100463034D01*
X150511985Y-100485220D01*
X150507709Y-100488814D01*
X150505769Y-100490754D01*
X150503858Y-100492507D01*
X150503768Y-100492556D01*
X150503656Y-100492433D01*
X150503121Y-100492905D01*
X150497403Y-100495990D01*
X150490336Y-100503635D01*
X150460801Y-100535586D01*
X150457371Y-100539152D01*
X150095264Y-100901259D01*
X150076516Y-100916401D01*
X150075291Y-100917516D01*
X150066540Y-100923166D01*
X150060093Y-100931344D01*
X150060091Y-100931346D01*
X150045751Y-100949537D01*
X150041805Y-100953978D01*
X150041878Y-100954040D01*
X150038519Y-100958004D01*
X150034842Y-100961681D01*
X150023588Y-100977429D01*
X150020066Y-100982119D01*
X150012735Y-100991419D01*
X150001952Y-101005097D01*
X149944071Y-101046210D01*
X149873151Y-101049504D01*
X149828146Y-101028444D01*
X149822654Y-101024388D01*
X149822653Y-101024387D01*
X149815076Y-101018791D01*
X149686127Y-100973507D01*
X149678485Y-100972785D01*
X149678482Y-100972784D01*
X149663579Y-100971376D01*
X149654315Y-100970500D01*
X149567832Y-100970500D01*
X149499711Y-100950498D01*
X149453218Y-100896842D01*
X149443089Y-100826747D01*
X149458581Y-100717891D01*
X149458581Y-100717888D01*
X149459162Y-100713807D01*
X149459307Y-100700000D01*
X149440276Y-100542733D01*
X149384280Y-100394546D01*
X149306963Y-100282049D01*
X149298855Y-100270251D01*
X149298854Y-100270249D01*
X149294553Y-100263992D01*
X149273813Y-100245513D01*
X149218840Y-100196535D01*
X149176275Y-100158611D01*
X149168889Y-100154700D01*
X149077143Y-100106123D01*
X149036274Y-100084484D01*
X148882633Y-100045892D01*
X148875034Y-100045852D01*
X148875033Y-100045852D01*
X148809181Y-100045507D01*
X148724221Y-100045062D01*
X148716841Y-100046834D01*
X148716839Y-100046834D01*
X148577563Y-100080271D01*
X148577560Y-100080272D01*
X148570184Y-100082043D01*
X148563439Y-100085524D01*
X148563440Y-100085524D01*
X148513290Y-100111408D01*
X148443582Y-100124877D01*
X148377659Y-100098522D01*
X148336449Y-100040709D01*
X148329500Y-99999442D01*
X148329500Y-98762137D01*
X148332049Y-98738190D01*
X148332128Y-98736524D01*
X148334320Y-98726341D01*
X148333096Y-98715999D01*
X148333096Y-98715996D01*
X148330374Y-98693004D01*
X148330023Y-98687063D01*
X148329928Y-98687071D01*
X148329500Y-98681891D01*
X148329500Y-98676693D01*
X148326329Y-98657641D01*
X148325492Y-98651764D01*
X148320693Y-98611214D01*
X148320692Y-98611212D01*
X148319469Y-98600876D01*
X148315508Y-98592627D01*
X148314004Y-98583591D01*
X148309056Y-98574420D01*
X148289652Y-98538457D01*
X148286957Y-98533168D01*
X148268212Y-98494132D01*
X148264780Y-98486985D01*
X148261186Y-98482709D01*
X148259246Y-98480769D01*
X148257493Y-98478858D01*
X148257444Y-98478768D01*
X148257567Y-98478656D01*
X148257095Y-98478121D01*
X148254010Y-98472403D01*
X148214413Y-98435800D01*
X148210848Y-98432371D01*
X147316405Y-97537928D01*
X147282379Y-97475616D01*
X147279500Y-97448833D01*
X147279499Y-97073654D01*
X147279499Y-97070686D01*
X147279082Y-97066265D01*
X147277216Y-97046522D01*
X147277216Y-97046520D01*
X147276493Y-97038873D01*
X147231209Y-96909924D01*
X147199232Y-96866631D01*
X147174849Y-96799952D01*
X147190385Y-96730677D01*
X147199758Y-96716205D01*
X147219532Y-96689821D01*
X147219534Y-96689818D01*
X147224917Y-96682635D01*
X147229894Y-96669359D01*
X147270358Y-96561419D01*
X147270358Y-96561418D01*
X147273130Y-96554024D01*
X147279500Y-96495389D01*
X147279500Y-96320384D01*
X147299502Y-96252263D01*
X147353158Y-96205770D01*
X147423432Y-96195666D01*
X147488012Y-96225160D01*
G37*
%TD.AperFunction*%
%TA.AperFunction,Conductor*%
G36*
X134042121Y-98370002D02*
G01*
X134088614Y-98423658D01*
X134100000Y-98476000D01*
X134100000Y-99364884D01*
X134104475Y-99380123D01*
X134105865Y-99381328D01*
X134113548Y-99382999D01*
X134144669Y-99382999D01*
X134151490Y-99382629D01*
X134202352Y-99377105D01*
X134217604Y-99373479D01*
X134338054Y-99328324D01*
X134353649Y-99319786D01*
X134455724Y-99243285D01*
X134468285Y-99230724D01*
X134544786Y-99128649D01*
X134553324Y-99113054D01*
X134598478Y-98992606D01*
X134602105Y-98977352D01*
X134603380Y-98965620D01*
X134630624Y-98900059D01*
X134688988Y-98859634D01*
X134759942Y-98857180D01*
X134817738Y-98890136D01*
X135460228Y-99532626D01*
X135494254Y-99594938D01*
X135490161Y-99663054D01*
X135449010Y-99781557D01*
X135447043Y-99787222D01*
X135446183Y-99793155D01*
X135446182Y-99793158D01*
X135418559Y-99983675D01*
X135416801Y-99995800D01*
X135426545Y-100206333D01*
X135445045Y-100283096D01*
X135470450Y-100388511D01*
X135475924Y-100411226D01*
X135478406Y-100416684D01*
X135478407Y-100416688D01*
X135516137Y-100499669D01*
X135563157Y-100603084D01*
X135685096Y-100774986D01*
X135778157Y-100864073D01*
X135826910Y-100910743D01*
X135837340Y-100920728D01*
X135842375Y-100923979D01*
X136009360Y-101031800D01*
X136009363Y-101031801D01*
X136014397Y-101035052D01*
X136019960Y-101037294D01*
X136112137Y-101074443D01*
X136209878Y-101113834D01*
X136332688Y-101137817D01*
X136412283Y-101153361D01*
X136412286Y-101153361D01*
X136416729Y-101154229D01*
X136422270Y-101154500D01*
X136727659Y-101154500D01*
X136884806Y-101139507D01*
X136914745Y-101130724D01*
X137081278Y-101081868D01*
X137087042Y-101080177D01*
X137170304Y-101037294D01*
X137269079Y-100986422D01*
X137269082Y-100986420D01*
X137274410Y-100983676D01*
X137393126Y-100890423D01*
X137459051Y-100864073D01*
X137528758Y-100877548D01*
X137580113Y-100926569D01*
X137596959Y-100989509D01*
X137596959Y-101608518D01*
X137576957Y-101676639D01*
X137523301Y-101723132D01*
X137453027Y-101733236D01*
X137383828Y-101699536D01*
X137366990Y-101683417D01*
X137362660Y-101679272D01*
X137253081Y-101608518D01*
X137190640Y-101568200D01*
X137190637Y-101568199D01*
X137185603Y-101564948D01*
X136990122Y-101486166D01*
X136842748Y-101457386D01*
X136787717Y-101446639D01*
X136787714Y-101446639D01*
X136783271Y-101445771D01*
X136777730Y-101445500D01*
X136472341Y-101445500D01*
X136315194Y-101460493D01*
X136309434Y-101462183D01*
X136309433Y-101462183D01*
X136123368Y-101516769D01*
X136112958Y-101519823D01*
X136107619Y-101522573D01*
X135930921Y-101613578D01*
X135930918Y-101613580D01*
X135925590Y-101616324D01*
X135915818Y-101624000D01*
X135764568Y-101742808D01*
X135764564Y-101742812D01*
X135759851Y-101746514D01*
X135755920Y-101751044D01*
X135755919Y-101751045D01*
X135702490Y-101812616D01*
X135642736Y-101850957D01*
X135571740Y-101850906D01*
X135512041Y-101812479D01*
X135489343Y-101774265D01*
X135480638Y-101751045D01*
X135472355Y-101728949D01*
X135465750Y-101720135D01*
X135391496Y-101621058D01*
X135386118Y-101613882D01*
X135339452Y-101578908D01*
X135278234Y-101533028D01*
X135278233Y-101533027D01*
X135271051Y-101527645D01*
X135207655Y-101503879D01*
X135143801Y-101479941D01*
X135143799Y-101479941D01*
X135136406Y-101477169D01*
X135128558Y-101476316D01*
X135128556Y-101476316D01*
X135078414Y-101470869D01*
X135078413Y-101470869D01*
X135075017Y-101470500D01*
X135032979Y-101470500D01*
X134405500Y-101470501D01*
X134337379Y-101450499D01*
X134290886Y-101396843D01*
X134279500Y-101344501D01*
X134279500Y-101002668D01*
X134300734Y-100932668D01*
X134339734Y-100874301D01*
X134354500Y-100800067D01*
X134354499Y-100099934D01*
X134344269Y-100048499D01*
X134342156Y-100037874D01*
X134342155Y-100037872D01*
X134339734Y-100025699D01*
X134324961Y-100003589D01*
X134290377Y-99951832D01*
X134283484Y-99941516D01*
X134199301Y-99885266D01*
X134125067Y-99870500D01*
X134092965Y-99870500D01*
X133755499Y-99870501D01*
X133687380Y-99850499D01*
X133640887Y-99796844D01*
X133629500Y-99744501D01*
X133629500Y-99492704D01*
X133649502Y-99424583D01*
X133680456Y-99397761D01*
X133698329Y-99377135D01*
X133700000Y-99369452D01*
X133700000Y-98935100D01*
X133702421Y-98910519D01*
X133703293Y-98906135D01*
X133704500Y-98900067D01*
X133704499Y-98475999D01*
X133724501Y-98407880D01*
X133778156Y-98361386D01*
X133830499Y-98350000D01*
X133974000Y-98350000D01*
X134042121Y-98370002D01*
G37*
%TD.AperFunction*%
%TA.AperFunction,Conductor*%
G36*
X132737621Y-95770002D02*
G01*
X132784114Y-95823658D01*
X132795500Y-95876000D01*
X132795501Y-96085502D01*
X132795501Y-96300066D01*
X132796709Y-96306138D01*
X132797579Y-96310514D01*
X132800000Y-96335093D01*
X132800000Y-96764884D01*
X132804475Y-96780123D01*
X132805865Y-96781328D01*
X132813548Y-96782999D01*
X132844669Y-96782999D01*
X132851490Y-96782629D01*
X132902352Y-96777105D01*
X132917604Y-96773479D01*
X133038054Y-96728324D01*
X133053649Y-96719786D01*
X133155724Y-96643285D01*
X133168281Y-96630728D01*
X133206348Y-96579935D01*
X133263208Y-96537420D01*
X133307174Y-96529500D01*
X133465407Y-96529499D01*
X133475066Y-96529499D01*
X133549301Y-96514734D01*
X133550136Y-96518934D01*
X133597324Y-96513843D01*
X133600680Y-96514828D01*
X133600699Y-96514734D01*
X133674933Y-96529500D01*
X133899963Y-96529500D01*
X134125066Y-96529499D01*
X134160818Y-96522388D01*
X134187126Y-96517156D01*
X134187128Y-96517155D01*
X134199301Y-96514734D01*
X134209621Y-96507839D01*
X134209622Y-96507838D01*
X134220469Y-96500590D01*
X134288222Y-96479375D01*
X134356689Y-96498158D01*
X134379566Y-96516260D01*
X135385088Y-97521782D01*
X135419114Y-97584094D01*
X135421857Y-97605047D01*
X135426545Y-97706333D01*
X135427949Y-97712158D01*
X135458126Y-97837373D01*
X135475924Y-97911226D01*
X135478406Y-97916684D01*
X135478407Y-97916688D01*
X135520480Y-98009221D01*
X135563157Y-98103084D01*
X135611837Y-98171710D01*
X135672548Y-98257296D01*
X135685096Y-98274986D01*
X135837340Y-98420728D01*
X135842375Y-98423979D01*
X136009360Y-98531800D01*
X136009363Y-98531801D01*
X136014397Y-98535052D01*
X136209878Y-98613834D01*
X136332688Y-98637817D01*
X136412283Y-98653361D01*
X136412286Y-98653361D01*
X136416729Y-98654229D01*
X136422270Y-98654500D01*
X136727659Y-98654500D01*
X136884806Y-98639507D01*
X136903585Y-98633998D01*
X137081278Y-98581868D01*
X137087042Y-98580177D01*
X137173106Y-98535851D01*
X137269079Y-98486422D01*
X137269082Y-98486420D01*
X137274410Y-98483676D01*
X137393125Y-98390424D01*
X137459051Y-98364074D01*
X137528757Y-98377549D01*
X137580112Y-98426571D01*
X137596958Y-98489510D01*
X137596958Y-99108517D01*
X137576956Y-99176638D01*
X137523300Y-99223131D01*
X137453026Y-99233235D01*
X137383827Y-99199535D01*
X137366990Y-99183417D01*
X137362660Y-99179272D01*
X137288462Y-99131363D01*
X137190640Y-99068200D01*
X137190637Y-99068199D01*
X137185603Y-99064948D01*
X136990122Y-98986166D01*
X136855739Y-98959923D01*
X136787717Y-98946639D01*
X136787714Y-98946639D01*
X136783271Y-98945771D01*
X136777730Y-98945500D01*
X136472341Y-98945500D01*
X136315194Y-98960493D01*
X136113428Y-99019685D01*
X136042433Y-99019668D01*
X135988865Y-98987875D01*
X134670774Y-97669784D01*
X134655632Y-97651036D01*
X134654517Y-97649811D01*
X134648867Y-97641060D01*
X134640689Y-97634613D01*
X134640687Y-97634611D01*
X134622496Y-97620271D01*
X134618055Y-97616325D01*
X134617993Y-97616398D01*
X134614029Y-97613039D01*
X134610352Y-97609362D01*
X134594604Y-97598108D01*
X134589934Y-97594602D01*
X134549649Y-97562844D01*
X134541015Y-97559812D01*
X134533562Y-97554486D01*
X134484446Y-97539797D01*
X134478804Y-97537964D01*
X134437929Y-97523610D01*
X134437928Y-97523610D01*
X134430445Y-97520982D01*
X134424880Y-97520500D01*
X134422172Y-97520500D01*
X134419538Y-97520386D01*
X134419440Y-97520357D01*
X134419447Y-97520193D01*
X134418743Y-97520149D01*
X134412518Y-97518287D01*
X134358661Y-97520403D01*
X134353714Y-97520500D01*
X132728920Y-97520500D01*
X132704972Y-97517951D01*
X132703307Y-97517872D01*
X132693124Y-97515680D01*
X132671098Y-97518287D01*
X132659777Y-97519627D01*
X132653846Y-97519977D01*
X132653854Y-97520072D01*
X132648676Y-97520500D01*
X132643476Y-97520500D01*
X132638347Y-97521354D01*
X132638344Y-97521354D01*
X132624435Y-97523669D01*
X132618557Y-97524506D01*
X132577999Y-97529306D01*
X132577998Y-97529306D01*
X132567659Y-97530530D01*
X132559407Y-97534493D01*
X132550374Y-97535996D01*
X132541205Y-97540943D01*
X132541203Y-97540944D01*
X132505268Y-97560334D01*
X132499993Y-97563022D01*
X132469029Y-97577891D01*
X132460041Y-97582207D01*
X132389975Y-97593663D01*
X132324837Y-97565419D01*
X132285310Y-97506444D01*
X132279500Y-97468623D01*
X132279500Y-96907385D01*
X132299502Y-96839264D01*
X132353158Y-96792771D01*
X132370002Y-96786489D01*
X132397124Y-96778525D01*
X132398329Y-96777135D01*
X132400000Y-96769452D01*
X132400000Y-95876000D01*
X132420002Y-95807879D01*
X132473658Y-95761386D01*
X132526000Y-95750000D01*
X132669500Y-95750000D01*
X132737621Y-95770002D01*
G37*
%TD.AperFunction*%
%TA.AperFunction,Conductor*%
G36*
X139962621Y-88274991D02*
G01*
X140009114Y-88328647D01*
X140020500Y-88380989D01*
X140020500Y-89163964D01*
X140000498Y-89232085D01*
X139946842Y-89278578D01*
X139876568Y-89288682D01*
X139824501Y-89268730D01*
X139749301Y-89218483D01*
X139675067Y-89203717D01*
X139400045Y-89203717D01*
X139124934Y-89203718D01*
X139089182Y-89210829D01*
X139062874Y-89216061D01*
X139062872Y-89216062D01*
X139050699Y-89218483D01*
X139040379Y-89225378D01*
X139040378Y-89225379D01*
X138979985Y-89265733D01*
X138966516Y-89274733D01*
X138910266Y-89358916D01*
X138895500Y-89433150D01*
X138895501Y-90333283D01*
X138901786Y-90364884D01*
X138905316Y-90382629D01*
X138910266Y-90407518D01*
X138917161Y-90417838D01*
X138917162Y-90417839D01*
X138923779Y-90427742D01*
X138966516Y-90491701D01*
X139050699Y-90547951D01*
X139124933Y-90562717D01*
X139315616Y-90562717D01*
X139383737Y-90582719D01*
X139404711Y-90599622D01*
X139543711Y-90738622D01*
X139577737Y-90800934D01*
X139572672Y-90871749D01*
X139530125Y-90928585D01*
X139463605Y-90953396D01*
X139454616Y-90953717D01*
X139139957Y-90953718D01*
X139124934Y-90953718D01*
X139091620Y-90960344D01*
X139062874Y-90966061D01*
X139062872Y-90966062D01*
X139050699Y-90968483D01*
X139040379Y-90975378D01*
X139040378Y-90975379D01*
X138987961Y-91010404D01*
X138966516Y-91024733D01*
X138910266Y-91108916D01*
X138895500Y-91183150D01*
X138895501Y-92083283D01*
X138898281Y-92097258D01*
X138904938Y-92130728D01*
X138910266Y-92157518D01*
X138966516Y-92241701D01*
X139050699Y-92297951D01*
X139124933Y-92312717D01*
X139315616Y-92312717D01*
X139383737Y-92332719D01*
X139404711Y-92349622D01*
X139668033Y-92612944D01*
X139683175Y-92631692D01*
X139684290Y-92632917D01*
X139689940Y-92641668D01*
X139698118Y-92648115D01*
X139698120Y-92648117D01*
X139716311Y-92662457D01*
X139720755Y-92666406D01*
X139720817Y-92666332D01*
X139724774Y-92669685D01*
X139728455Y-92673366D01*
X139744165Y-92684593D01*
X139748891Y-92688141D01*
X139789158Y-92719884D01*
X139797795Y-92722917D01*
X139805245Y-92728241D01*
X139815221Y-92731225D01*
X139815222Y-92731225D01*
X139830557Y-92735811D01*
X139854360Y-92742930D01*
X139859997Y-92744762D01*
X139900710Y-92759059D01*
X139908362Y-92761746D01*
X139913927Y-92762228D01*
X139916635Y-92762228D01*
X139919269Y-92762342D01*
X139919367Y-92762371D01*
X139919360Y-92762535D01*
X139920064Y-92762579D01*
X139926289Y-92764441D01*
X139980146Y-92762325D01*
X139985093Y-92762228D01*
X142963352Y-92762228D01*
X142987300Y-92764777D01*
X142988965Y-92764856D01*
X142999148Y-92767048D01*
X143009489Y-92765824D01*
X143032495Y-92763101D01*
X143038426Y-92762751D01*
X143038418Y-92762656D01*
X143043596Y-92762228D01*
X143048796Y-92762228D01*
X143053925Y-92761374D01*
X143053928Y-92761374D01*
X143067837Y-92759059D01*
X143073715Y-92758222D01*
X143114273Y-92753422D01*
X143114274Y-92753422D01*
X143124613Y-92752198D01*
X143132865Y-92748235D01*
X143141898Y-92746732D01*
X143151067Y-92741785D01*
X143151069Y-92741784D01*
X143187004Y-92722394D01*
X143192297Y-92719697D01*
X143231354Y-92700943D01*
X143231358Y-92700940D01*
X143238504Y-92697509D01*
X143242780Y-92693914D01*
X143244703Y-92691991D01*
X143246635Y-92690219D01*
X143246714Y-92690176D01*
X143246827Y-92690300D01*
X143247367Y-92689824D01*
X143253086Y-92686738D01*
X143289689Y-92647141D01*
X143293118Y-92643576D01*
X143326475Y-92610219D01*
X143388787Y-92576193D01*
X143459602Y-92581258D01*
X143516438Y-92623805D01*
X143541134Y-92690017D01*
X143540729Y-92693096D01*
X143543513Y-92718313D01*
X143556893Y-92839500D01*
X143558113Y-92850553D01*
X143576647Y-92901201D01*
X143581274Y-92972044D01*
X143546864Y-93034145D01*
X143484342Y-93067784D01*
X143458321Y-93070500D01*
X140303920Y-93070500D01*
X140279972Y-93067951D01*
X140278307Y-93067872D01*
X140268124Y-93065680D01*
X140257783Y-93066904D01*
X140234777Y-93069627D01*
X140228846Y-93069977D01*
X140228854Y-93070072D01*
X140223676Y-93070500D01*
X140218476Y-93070500D01*
X140213347Y-93071354D01*
X140213344Y-93071354D01*
X140199435Y-93073669D01*
X140193557Y-93074506D01*
X140152999Y-93079306D01*
X140152998Y-93079306D01*
X140142659Y-93080530D01*
X140134407Y-93084493D01*
X140125374Y-93085996D01*
X140116205Y-93090943D01*
X140116203Y-93090944D01*
X140080268Y-93110334D01*
X140074975Y-93113031D01*
X140035913Y-93131787D01*
X140035907Y-93131791D01*
X140028768Y-93135219D01*
X140024492Y-93138813D01*
X140022553Y-93140752D01*
X140020638Y-93142508D01*
X140020552Y-93142555D01*
X140020439Y-93142433D01*
X140019904Y-93142905D01*
X140014186Y-93145990D01*
X140007118Y-93153636D01*
X140007117Y-93153637D01*
X139977607Y-93185561D01*
X139974178Y-93189127D01*
X139670661Y-93492645D01*
X139369782Y-93793524D01*
X139351039Y-93808661D01*
X139349810Y-93809779D01*
X139341060Y-93815429D01*
X139334613Y-93823607D01*
X139334611Y-93823609D01*
X139320271Y-93841800D01*
X139316325Y-93846241D01*
X139316398Y-93846303D01*
X139313039Y-93850267D01*
X139309362Y-93853944D01*
X139298108Y-93869692D01*
X139294602Y-93874362D01*
X139262844Y-93914647D01*
X139259812Y-93923281D01*
X139254486Y-93930734D01*
X139240949Y-93976000D01*
X139239799Y-93979844D01*
X139237964Y-93985492D01*
X139220982Y-94033851D01*
X139220500Y-94039416D01*
X139220500Y-94042124D01*
X139220386Y-94044758D01*
X139220357Y-94044856D01*
X139220193Y-94044849D01*
X139220149Y-94045553D01*
X139218287Y-94051778D01*
X139218822Y-94065389D01*
X139220403Y-94105635D01*
X139220500Y-94110582D01*
X139220500Y-95307584D01*
X139200498Y-95375705D01*
X139183595Y-95396679D01*
X137746242Y-96834032D01*
X137727495Y-96849173D01*
X137726269Y-96850289D01*
X137717518Y-96855939D01*
X137712633Y-96862136D01*
X137650112Y-96892545D01*
X137579614Y-96884151D01*
X137526388Y-96841202D01*
X137518374Y-96829905D01*
X137518370Y-96829900D01*
X137514904Y-96825014D01*
X137396002Y-96711190D01*
X137366990Y-96683417D01*
X137362660Y-96679272D01*
X137302997Y-96640748D01*
X137190640Y-96568200D01*
X137190637Y-96568199D01*
X137185603Y-96564948D01*
X136990122Y-96486166D01*
X136848371Y-96458484D01*
X136787717Y-96446639D01*
X136787714Y-96446639D01*
X136783271Y-96445771D01*
X136777730Y-96445500D01*
X136472341Y-96445500D01*
X136315194Y-96460493D01*
X136309434Y-96462183D01*
X136309433Y-96462183D01*
X136196249Y-96495388D01*
X136112958Y-96519823D01*
X136046553Y-96554024D01*
X135930921Y-96613578D01*
X135930918Y-96613580D01*
X135925590Y-96616324D01*
X135804820Y-96711190D01*
X135738896Y-96737540D01*
X135669190Y-96724065D01*
X135637893Y-96701199D01*
X134656478Y-95719784D01*
X134641336Y-95701036D01*
X134640221Y-95699811D01*
X134634571Y-95691060D01*
X134626393Y-95684613D01*
X134626391Y-95684611D01*
X134608200Y-95670271D01*
X134603759Y-95666325D01*
X134603697Y-95666398D01*
X134599733Y-95663039D01*
X134596056Y-95659362D01*
X134580308Y-95648108D01*
X134575638Y-95644602D01*
X134535353Y-95612844D01*
X134526719Y-95609812D01*
X134519266Y-95604486D01*
X134470150Y-95589797D01*
X134464508Y-95587964D01*
X134423628Y-95573608D01*
X134423625Y-95573607D01*
X134416149Y-95570982D01*
X134411606Y-95570588D01*
X134350534Y-95537410D01*
X134334676Y-95518128D01*
X134290378Y-95451833D01*
X134290377Y-95451832D01*
X134283484Y-95441516D01*
X134199301Y-95385266D01*
X134125067Y-95370500D01*
X134092965Y-95370500D01*
X133755499Y-95370501D01*
X133687380Y-95350499D01*
X133640887Y-95296844D01*
X133629500Y-95244501D01*
X133629500Y-94992704D01*
X133649502Y-94924583D01*
X133680456Y-94897761D01*
X133698329Y-94877135D01*
X133700000Y-94869452D01*
X133700000Y-94435100D01*
X133702421Y-94410519D01*
X133703293Y-94406135D01*
X133704500Y-94400067D01*
X133704499Y-93975999D01*
X133724501Y-93907880D01*
X133778156Y-93861386D01*
X133830499Y-93850000D01*
X133974000Y-93850000D01*
X134042121Y-93870002D01*
X134088614Y-93923658D01*
X134100000Y-93976000D01*
X134100000Y-94864884D01*
X134104475Y-94880123D01*
X134105865Y-94881328D01*
X134113548Y-94882999D01*
X134144669Y-94882999D01*
X134151490Y-94882629D01*
X134202352Y-94877105D01*
X134217604Y-94873479D01*
X134338054Y-94828324D01*
X134353649Y-94819786D01*
X134455724Y-94743285D01*
X134468285Y-94730724D01*
X134544786Y-94628649D01*
X134553324Y-94613054D01*
X134598478Y-94492606D01*
X134602105Y-94477351D01*
X134607631Y-94426486D01*
X134608000Y-94419672D01*
X134608000Y-94349862D01*
X134628002Y-94281741D01*
X134681658Y-94235248D01*
X134751932Y-94225144D01*
X134816512Y-94254638D01*
X134823095Y-94260767D01*
X135390033Y-94827705D01*
X135424059Y-94890017D01*
X135425634Y-94934878D01*
X135416801Y-94995800D01*
X135426545Y-95206333D01*
X135438372Y-95255406D01*
X135469668Y-95385266D01*
X135475924Y-95411226D01*
X135478406Y-95416684D01*
X135478407Y-95416688D01*
X135510176Y-95486560D01*
X135563157Y-95603084D01*
X135637509Y-95707901D01*
X135681561Y-95770002D01*
X135685096Y-95774986D01*
X135837340Y-95920728D01*
X135842375Y-95923979D01*
X136009360Y-96031800D01*
X136009363Y-96031801D01*
X136014397Y-96035052D01*
X136209878Y-96113834D01*
X136332688Y-96137817D01*
X136412283Y-96153361D01*
X136412286Y-96153361D01*
X136416729Y-96154229D01*
X136422270Y-96154500D01*
X136727659Y-96154500D01*
X136884806Y-96139507D01*
X136903527Y-96134015D01*
X137081278Y-96081868D01*
X137087042Y-96080177D01*
X137172863Y-96035976D01*
X137269079Y-95986422D01*
X137269082Y-95986420D01*
X137274410Y-95983676D01*
X137335452Y-95935727D01*
X137435432Y-95857192D01*
X137435436Y-95857188D01*
X137440149Y-95853486D01*
X137462105Y-95828184D01*
X137574350Y-95698835D01*
X137574354Y-95698829D01*
X137578281Y-95694304D01*
X137683819Y-95511874D01*
X137752957Y-95312778D01*
X137755268Y-95296844D01*
X137782338Y-95110140D01*
X137782338Y-95110137D01*
X137783199Y-95104200D01*
X137773455Y-94893667D01*
X137770482Y-94881328D01*
X137725482Y-94694607D01*
X137725481Y-94694605D01*
X137724076Y-94688774D01*
X137721356Y-94682790D01*
X137649699Y-94525192D01*
X137636843Y-94496916D01*
X137525864Y-94340465D01*
X137518370Y-94329900D01*
X137518369Y-94329899D01*
X137514904Y-94325014D01*
X137362660Y-94179272D01*
X137308091Y-94144037D01*
X137190640Y-94068200D01*
X137190637Y-94068199D01*
X137185603Y-94064948D01*
X136990122Y-93986166D01*
X136855739Y-93959923D01*
X136787717Y-93946639D01*
X136787714Y-93946639D01*
X136783271Y-93945771D01*
X136777730Y-93945500D01*
X136472341Y-93945500D01*
X136315194Y-93960493D01*
X136309434Y-93962183D01*
X136309433Y-93962183D01*
X136145988Y-94010133D01*
X136112958Y-94019823D01*
X136050914Y-94051778D01*
X135930921Y-94113578D01*
X135930918Y-94113580D01*
X135925590Y-94116324D01*
X135916288Y-94123631D01*
X135850366Y-94149983D01*
X135780659Y-94136511D01*
X135749358Y-94113642D01*
X134805989Y-93170273D01*
X134790847Y-93151525D01*
X134789732Y-93150300D01*
X134784082Y-93141549D01*
X134775904Y-93135102D01*
X134775902Y-93135100D01*
X134757711Y-93120760D01*
X134753270Y-93116814D01*
X134753208Y-93116887D01*
X134749244Y-93113528D01*
X134745567Y-93109851D01*
X134729819Y-93098597D01*
X134725149Y-93095091D01*
X134684864Y-93063333D01*
X134676230Y-93060301D01*
X134668777Y-93054975D01*
X134619661Y-93040286D01*
X134614019Y-93038453D01*
X134573144Y-93024099D01*
X134573143Y-93024099D01*
X134565660Y-93021471D01*
X134560095Y-93020989D01*
X134557387Y-93020989D01*
X134554753Y-93020875D01*
X134554655Y-93020846D01*
X134554662Y-93020682D01*
X134553958Y-93020638D01*
X134547733Y-93018776D01*
X134493876Y-93020892D01*
X134488929Y-93020989D01*
X132728431Y-93020989D01*
X132704484Y-93018440D01*
X132702818Y-93018361D01*
X132692635Y-93016169D01*
X132682293Y-93017393D01*
X132682290Y-93017393D01*
X132659298Y-93020115D01*
X132653357Y-93020466D01*
X132653365Y-93020561D01*
X132648185Y-93020989D01*
X132642987Y-93020989D01*
X132637865Y-93021842D01*
X132637860Y-93021842D01*
X132623938Y-93024160D01*
X132618061Y-93024997D01*
X132611560Y-93025766D01*
X132577508Y-93029796D01*
X132577506Y-93029797D01*
X132567170Y-93031020D01*
X132558921Y-93034981D01*
X132549885Y-93036485D01*
X132540716Y-93041432D01*
X132540714Y-93041433D01*
X132504751Y-93060837D01*
X132499467Y-93063530D01*
X132474106Y-93075708D01*
X132460041Y-93082462D01*
X132389975Y-93093918D01*
X132324838Y-93065675D01*
X132285310Y-93006700D01*
X132279500Y-92968878D01*
X132279500Y-92407385D01*
X132299502Y-92339264D01*
X132353158Y-92292771D01*
X132370002Y-92286489D01*
X132397124Y-92278525D01*
X132398329Y-92277135D01*
X132400000Y-92269452D01*
X132400000Y-91376000D01*
X132420002Y-91307879D01*
X132473658Y-91261386D01*
X132526000Y-91250000D01*
X132669500Y-91250000D01*
X132737621Y-91270002D01*
X132784114Y-91323658D01*
X132795500Y-91376000D01*
X132795501Y-91607335D01*
X132795501Y-91800066D01*
X132796709Y-91806138D01*
X132797579Y-91810514D01*
X132800000Y-91835093D01*
X132800000Y-92264884D01*
X132804475Y-92280123D01*
X132805865Y-92281328D01*
X132813548Y-92282999D01*
X132844669Y-92282999D01*
X132851490Y-92282629D01*
X132902352Y-92277105D01*
X132917604Y-92273479D01*
X133038054Y-92228324D01*
X133053649Y-92219786D01*
X133155724Y-92143285D01*
X133168281Y-92130728D01*
X133206348Y-92079935D01*
X133263208Y-92037420D01*
X133307174Y-92029500D01*
X133465407Y-92029499D01*
X133475066Y-92029499D01*
X133549301Y-92014734D01*
X133550136Y-92018934D01*
X133597324Y-92013843D01*
X133600680Y-92014828D01*
X133600699Y-92014734D01*
X133674933Y-92029500D01*
X133899963Y-92029500D01*
X134125066Y-92029499D01*
X134160818Y-92022388D01*
X134187126Y-92017156D01*
X134187128Y-92017155D01*
X134199301Y-92014734D01*
X134209621Y-92007839D01*
X134209622Y-92007838D01*
X134273168Y-91965377D01*
X134283484Y-91958484D01*
X134332253Y-91885497D01*
X134386729Y-91839970D01*
X134437017Y-91829500D01*
X135290616Y-91829500D01*
X135358737Y-91849502D01*
X135379711Y-91866405D01*
X135482319Y-91969013D01*
X135516345Y-92031325D01*
X135512251Y-92099442D01*
X135449012Y-92281551D01*
X135447043Y-92287222D01*
X135446183Y-92293155D01*
X135446182Y-92293158D01*
X135420161Y-92472626D01*
X135416801Y-92495800D01*
X135426545Y-92706333D01*
X135439999Y-92762157D01*
X135472122Y-92895448D01*
X135475924Y-92911226D01*
X135478406Y-92916684D01*
X135478407Y-92916688D01*
X135527272Y-93024160D01*
X135563157Y-93103084D01*
X135685096Y-93274986D01*
X135837340Y-93420728D01*
X135842375Y-93423979D01*
X136009360Y-93531800D01*
X136009363Y-93531801D01*
X136014397Y-93535052D01*
X136019960Y-93537294D01*
X136081265Y-93562001D01*
X136209878Y-93613834D01*
X136341342Y-93639507D01*
X136412283Y-93653361D01*
X136412286Y-93653361D01*
X136416729Y-93654229D01*
X136422270Y-93654500D01*
X136727659Y-93654500D01*
X136884806Y-93639507D01*
X136918917Y-93629500D01*
X137081278Y-93581868D01*
X137087042Y-93580177D01*
X137174116Y-93535331D01*
X137269079Y-93486422D01*
X137269082Y-93486420D01*
X137274410Y-93483676D01*
X137350408Y-93423979D01*
X137435432Y-93357192D01*
X137435436Y-93357188D01*
X137440149Y-93353486D01*
X137497465Y-93287436D01*
X137574350Y-93198835D01*
X137574354Y-93198830D01*
X137578281Y-93194304D01*
X137683819Y-93011874D01*
X137752957Y-92812778D01*
X137756062Y-92791367D01*
X137782338Y-92610140D01*
X137782338Y-92610137D01*
X137783199Y-92604200D01*
X137773455Y-92393667D01*
X137765342Y-92360000D01*
X137725482Y-92194607D01*
X137725481Y-92194605D01*
X137724076Y-92188774D01*
X137714558Y-92167839D01*
X137646854Y-92018934D01*
X137636843Y-91996916D01*
X137514904Y-91825014D01*
X137362660Y-91679272D01*
X137305639Y-91642454D01*
X137190640Y-91568200D01*
X137190637Y-91568199D01*
X137185603Y-91564948D01*
X136990122Y-91486166D01*
X136855739Y-91459923D01*
X136787717Y-91446639D01*
X136787714Y-91446639D01*
X136783271Y-91445771D01*
X136777730Y-91445500D01*
X136472341Y-91445500D01*
X136315194Y-91460493D01*
X136179693Y-91500245D01*
X136108699Y-91500229D01*
X136055130Y-91468436D01*
X135806478Y-91219784D01*
X135791336Y-91201036D01*
X135790221Y-91199811D01*
X135784571Y-91191060D01*
X135776393Y-91184613D01*
X135776391Y-91184611D01*
X135758200Y-91170271D01*
X135753763Y-91166328D01*
X135753701Y-91166402D01*
X135749740Y-91163046D01*
X135748648Y-91161954D01*
X135748376Y-91161541D01*
X135747110Y-91160416D01*
X135746056Y-91159362D01*
X135746590Y-91158828D01*
X135720835Y-91119715D01*
X135685964Y-91113326D01*
X135685353Y-91112844D01*
X135676719Y-91109812D01*
X135669266Y-91104486D01*
X135620150Y-91089797D01*
X135614508Y-91087964D01*
X135573633Y-91073610D01*
X135573632Y-91073610D01*
X135566149Y-91070982D01*
X135560584Y-91070500D01*
X135557876Y-91070500D01*
X135555242Y-91070386D01*
X135555144Y-91070357D01*
X135555151Y-91070193D01*
X135554447Y-91070149D01*
X135548222Y-91068287D01*
X135494365Y-91070403D01*
X135489418Y-91070500D01*
X134437017Y-91070500D01*
X134368896Y-91050498D01*
X134332252Y-91014502D01*
X134324505Y-91002907D01*
X134283484Y-90941516D01*
X134199301Y-90885266D01*
X134125067Y-90870500D01*
X134092965Y-90870500D01*
X133755499Y-90870501D01*
X133687380Y-90850499D01*
X133640887Y-90796844D01*
X133629500Y-90744501D01*
X133629500Y-90492704D01*
X133649502Y-90424583D01*
X133680456Y-90397761D01*
X133698329Y-90377135D01*
X133700000Y-90369452D01*
X133700000Y-90364884D01*
X134100000Y-90364884D01*
X134104475Y-90380123D01*
X134105865Y-90381328D01*
X134113548Y-90382999D01*
X134144669Y-90382999D01*
X134151490Y-90382629D01*
X134202352Y-90377105D01*
X134217604Y-90373479D01*
X134338054Y-90328324D01*
X134353649Y-90319786D01*
X134455724Y-90243285D01*
X134468285Y-90230724D01*
X134544786Y-90128649D01*
X134553324Y-90113054D01*
X134598478Y-89992606D01*
X134602105Y-89977351D01*
X134607631Y-89926486D01*
X134608000Y-89919672D01*
X134608000Y-89768115D01*
X134603525Y-89752876D01*
X134602135Y-89751671D01*
X134594452Y-89750000D01*
X134118115Y-89750000D01*
X134102876Y-89754475D01*
X134101671Y-89755865D01*
X134100000Y-89763548D01*
X134100000Y-90364884D01*
X133700000Y-90364884D01*
X133700000Y-89935100D01*
X133702421Y-89910519D01*
X133703293Y-89906135D01*
X133704500Y-89900067D01*
X133704499Y-89475999D01*
X133724501Y-89407880D01*
X133778156Y-89361386D01*
X133830499Y-89350000D01*
X134589884Y-89350000D01*
X134605123Y-89345525D01*
X134624653Y-89322987D01*
X134684379Y-89284604D01*
X134719877Y-89279500D01*
X135240616Y-89279500D01*
X135308737Y-89299502D01*
X135329711Y-89316405D01*
X135482319Y-89469013D01*
X135516345Y-89531325D01*
X135512251Y-89599442D01*
X135449012Y-89781551D01*
X135447043Y-89787222D01*
X135446183Y-89793155D01*
X135446182Y-89793158D01*
X135419918Y-89974301D01*
X135416801Y-89995800D01*
X135426545Y-90206333D01*
X135438033Y-90254000D01*
X135468719Y-90381328D01*
X135475924Y-90411226D01*
X135478406Y-90416684D01*
X135478407Y-90416688D01*
X135508406Y-90482667D01*
X135563157Y-90603084D01*
X135685096Y-90774986D01*
X135689419Y-90779124D01*
X135689423Y-90779129D01*
X135824481Y-90908419D01*
X135846282Y-90946355D01*
X135881412Y-90951008D01*
X135898693Y-90960344D01*
X136009355Y-91031797D01*
X136009359Y-91031799D01*
X136014397Y-91035052D01*
X136209878Y-91113834D01*
X136328059Y-91136913D01*
X136412283Y-91153361D01*
X136412286Y-91153361D01*
X136416729Y-91154229D01*
X136422270Y-91154500D01*
X136727659Y-91154500D01*
X136884806Y-91139507D01*
X136918917Y-91129500D01*
X137081278Y-91081868D01*
X137087042Y-91080177D01*
X137162440Y-91041345D01*
X137269079Y-90986422D01*
X137269082Y-90986420D01*
X137274410Y-90983676D01*
X137341468Y-90931001D01*
X137435432Y-90857192D01*
X137435436Y-90857188D01*
X137440149Y-90853486D01*
X137485752Y-90800934D01*
X137574350Y-90698835D01*
X137574354Y-90698830D01*
X137578281Y-90694304D01*
X137683819Y-90511874D01*
X137752957Y-90312778D01*
X137755537Y-90294989D01*
X137782338Y-90110140D01*
X137782338Y-90110137D01*
X137783199Y-90104200D01*
X137773455Y-89893667D01*
X137768234Y-89872000D01*
X137725482Y-89694607D01*
X137725481Y-89694605D01*
X137724076Y-89688774D01*
X137720938Y-89681871D01*
X137651380Y-89528888D01*
X137636843Y-89496916D01*
X137514904Y-89325014D01*
X137362660Y-89179272D01*
X137335971Y-89162039D01*
X137190640Y-89068200D01*
X137190637Y-89068199D01*
X137185603Y-89064948D01*
X136990122Y-88986166D01*
X136855739Y-88959923D01*
X136787717Y-88946639D01*
X136787714Y-88946639D01*
X136783271Y-88945771D01*
X136777730Y-88945500D01*
X136472341Y-88945500D01*
X136315194Y-88960493D01*
X136179693Y-89000245D01*
X136108699Y-89000229D01*
X136055130Y-88968436D01*
X135756478Y-88669784D01*
X135741336Y-88651036D01*
X135740221Y-88649811D01*
X135734571Y-88641060D01*
X135726393Y-88634613D01*
X135726391Y-88634611D01*
X135708200Y-88620271D01*
X135703759Y-88616325D01*
X135703697Y-88616398D01*
X135699733Y-88613039D01*
X135696056Y-88609362D01*
X135680308Y-88598108D01*
X135675638Y-88594602D01*
X135635353Y-88562844D01*
X135626719Y-88559812D01*
X135619266Y-88554486D01*
X135570150Y-88539797D01*
X135564508Y-88537964D01*
X135523633Y-88523610D01*
X135523632Y-88523610D01*
X135516149Y-88520982D01*
X135510584Y-88520500D01*
X135507876Y-88520500D01*
X135505242Y-88520386D01*
X135505144Y-88520357D01*
X135505151Y-88520193D01*
X135504447Y-88520149D01*
X135498222Y-88518287D01*
X135444365Y-88520403D01*
X135439418Y-88520500D01*
X132728920Y-88520500D01*
X132702404Y-88517678D01*
X132702002Y-88517591D01*
X132695379Y-88516166D01*
X132632994Y-88482277D01*
X132598834Y-88420039D01*
X132603745Y-88349212D01*
X132632801Y-88303893D01*
X132644800Y-88291894D01*
X132707112Y-88257868D01*
X132733895Y-88254989D01*
X139894500Y-88254989D01*
X139962621Y-88274991D01*
G37*
%TD.AperFunction*%
%TA.AperFunction,Conductor*%
G36*
X145108737Y-93849502D02*
G01*
X145129711Y-93866405D01*
X146518712Y-95255406D01*
X146552738Y-95317718D01*
X146547673Y-95388533D01*
X146505126Y-95445369D01*
X146438606Y-95470180D01*
X146429625Y-95470501D01*
X146304612Y-95470501D01*
X146301218Y-95470870D01*
X146301212Y-95470870D01*
X146253834Y-95476016D01*
X146253830Y-95476017D01*
X146245976Y-95476870D01*
X146117365Y-95525083D01*
X146110186Y-95530463D01*
X146110183Y-95530465D01*
X146100917Y-95537410D01*
X146050402Y-95575270D01*
X146044308Y-95579837D01*
X145977802Y-95604685D01*
X145908419Y-95589633D01*
X145861598Y-95545314D01*
X145832212Y-95497827D01*
X145823176Y-95486426D01*
X145712571Y-95376014D01*
X145701160Y-95367002D01*
X145568120Y-95284996D01*
X145554939Y-95278849D01*
X145406186Y-95229509D01*
X145392810Y-95226642D01*
X145301903Y-95217328D01*
X145296874Y-95217071D01*
X145281876Y-95221475D01*
X145280671Y-95222865D01*
X145279000Y-95230548D01*
X145279000Y-96328000D01*
X145258998Y-96396121D01*
X145205342Y-96442614D01*
X145153000Y-96454000D01*
X144897000Y-96454000D01*
X144828879Y-96433998D01*
X144782386Y-96380342D01*
X144771000Y-96328000D01*
X144771000Y-95235115D01*
X144766525Y-95219876D01*
X144765135Y-95218671D01*
X144757452Y-95217000D01*
X144754562Y-95217000D01*
X144748047Y-95217337D01*
X144655943Y-95226894D01*
X144642539Y-95229789D01*
X144613219Y-95239571D01*
X144542269Y-95242156D01*
X144481185Y-95205973D01*
X144449360Y-95142509D01*
X144448599Y-95102295D01*
X144467024Y-94972832D01*
X144467024Y-94972829D01*
X144467605Y-94968748D01*
X144467750Y-94954941D01*
X144466295Y-94942913D01*
X144458408Y-94877744D01*
X144448719Y-94797674D01*
X144392723Y-94649487D01*
X144378986Y-94629499D01*
X144307298Y-94525192D01*
X144307297Y-94525190D01*
X144302996Y-94518933D01*
X144278285Y-94496916D01*
X144233161Y-94456713D01*
X144184718Y-94413552D01*
X144177332Y-94409641D01*
X144139008Y-94389350D01*
X144044717Y-94339425D01*
X143891076Y-94300833D01*
X143883477Y-94300793D01*
X143883476Y-94300793D01*
X143817624Y-94300448D01*
X143732664Y-94300003D01*
X143725284Y-94301775D01*
X143725282Y-94301775D01*
X143586006Y-94335212D01*
X143586003Y-94335213D01*
X143578627Y-94336984D01*
X143437857Y-94409641D01*
X143318482Y-94513779D01*
X143227393Y-94643385D01*
X143209697Y-94688774D01*
X143175271Y-94777070D01*
X143131890Y-94833272D01*
X143057878Y-94857300D01*
X142569792Y-94857300D01*
X142545844Y-94854751D01*
X142544179Y-94854672D01*
X142533996Y-94852480D01*
X142523655Y-94853704D01*
X142500649Y-94856427D01*
X142494718Y-94856777D01*
X142494726Y-94856872D01*
X142489548Y-94857300D01*
X142484348Y-94857300D01*
X142479219Y-94858154D01*
X142479216Y-94858154D01*
X142465307Y-94860469D01*
X142459429Y-94861306D01*
X142418871Y-94866106D01*
X142418870Y-94866106D01*
X142408531Y-94867330D01*
X142400279Y-94871293D01*
X142391246Y-94872796D01*
X142382077Y-94877743D01*
X142382075Y-94877744D01*
X142359330Y-94890017D01*
X142346411Y-94896988D01*
X142346140Y-94897134D01*
X142340847Y-94899831D01*
X142301790Y-94918585D01*
X142301786Y-94918588D01*
X142294640Y-94922019D01*
X142290364Y-94925614D01*
X142288441Y-94927537D01*
X142286509Y-94929309D01*
X142286430Y-94929352D01*
X142286317Y-94929228D01*
X142285777Y-94929704D01*
X142280058Y-94932790D01*
X142272991Y-94940435D01*
X142243456Y-94972386D01*
X142240026Y-94975952D01*
X141860873Y-95355105D01*
X141798561Y-95389131D01*
X141723560Y-95382419D01*
X141669060Y-95359844D01*
X141653242Y-95355606D01*
X141553981Y-95342538D01*
X141545772Y-95342000D01*
X141354228Y-95342000D01*
X141346019Y-95342538D01*
X141252924Y-95354794D01*
X141182775Y-95343855D01*
X141129677Y-95296726D01*
X141110487Y-95228372D01*
X141131298Y-95160494D01*
X141138550Y-95150816D01*
X141140687Y-95148679D01*
X141145097Y-95142509D01*
X141151904Y-95132982D01*
X141155470Y-95128232D01*
X141169733Y-95110140D01*
X141187205Y-95087976D01*
X141190238Y-95079339D01*
X141195562Y-95071889D01*
X141210251Y-95022774D01*
X141212083Y-95017137D01*
X141226439Y-94976256D01*
X141226439Y-94976255D01*
X141229067Y-94968772D01*
X141229549Y-94963207D01*
X141229549Y-94960499D01*
X141229663Y-94957865D01*
X141229692Y-94957767D01*
X141229856Y-94957774D01*
X141229900Y-94957070D01*
X141231762Y-94950845D01*
X141229646Y-94896988D01*
X141229549Y-94892041D01*
X141229549Y-94769230D01*
X141249551Y-94701109D01*
X141273718Y-94673419D01*
X141329585Y-94625704D01*
X141335363Y-94620769D01*
X141427804Y-94492124D01*
X141486891Y-94345141D01*
X141498899Y-94260767D01*
X141508630Y-94192391D01*
X141508630Y-94192388D01*
X141509211Y-94188307D01*
X141509280Y-94181714D01*
X141509313Y-94178634D01*
X141509313Y-94178628D01*
X141509356Y-94174500D01*
X141508481Y-94167265D01*
X141502316Y-94116324D01*
X141490325Y-94017233D01*
X141483828Y-94000039D01*
X141478458Y-93929248D01*
X141512214Y-93866790D01*
X141574379Y-93832496D01*
X141601693Y-93829500D01*
X145040616Y-93829500D01*
X145108737Y-93849502D01*
G37*
%TD.AperFunction*%
%TA.AperFunction,Conductor*%
G36*
X147627621Y-88274991D02*
G01*
X147674114Y-88328647D01*
X147685500Y-88380989D01*
X147685501Y-89528888D01*
X147665499Y-89597009D01*
X147611843Y-89643502D01*
X147584080Y-89652467D01*
X147556699Y-89657913D01*
X147556696Y-89657914D01*
X147553648Y-89658520D01*
X147421697Y-89698547D01*
X147418845Y-89699728D01*
X147418846Y-89699728D01*
X147331516Y-89735901D01*
X147331507Y-89735905D01*
X147328654Y-89737087D01*
X147207048Y-89802087D01*
X147123314Y-89858037D01*
X147016725Y-89945512D01*
X146945512Y-90016725D01*
X146858037Y-90123314D01*
X146856312Y-90125896D01*
X146804688Y-90203156D01*
X146802087Y-90207048D01*
X146800628Y-90209778D01*
X146800626Y-90209781D01*
X146776189Y-90255499D01*
X146737087Y-90328654D01*
X146735905Y-90331507D01*
X146735901Y-90331516D01*
X146714576Y-90382999D01*
X146698547Y-90421697D01*
X146658520Y-90553648D01*
X146638873Y-90652424D01*
X146638570Y-90655499D01*
X146638570Y-90655500D01*
X146628428Y-90758474D01*
X146627753Y-90764054D01*
X146625586Y-90779129D01*
X146623418Y-90794210D01*
X146623749Y-90800390D01*
X146623749Y-90800396D01*
X146626684Y-90855150D01*
X146625921Y-90864624D01*
X146626271Y-90864624D01*
X146626271Y-93765351D01*
X146624988Y-93783283D01*
X146624298Y-93788080D01*
X146624297Y-93788092D01*
X146623417Y-93794216D01*
X146628918Y-93896826D01*
X146628656Y-93905219D01*
X146626840Y-93905398D01*
X146634172Y-93979844D01*
X146634358Y-93981731D01*
X146621129Y-94051484D01*
X146572289Y-94103012D01*
X146503344Y-94119956D01*
X146436183Y-94096934D01*
X146419870Y-94083176D01*
X145556478Y-93219784D01*
X145541336Y-93201036D01*
X145540221Y-93199811D01*
X145534571Y-93191060D01*
X145526393Y-93184613D01*
X145526391Y-93184611D01*
X145508200Y-93170271D01*
X145503759Y-93166325D01*
X145503697Y-93166398D01*
X145499733Y-93163039D01*
X145496056Y-93159362D01*
X145480308Y-93148108D01*
X145475638Y-93144602D01*
X145435353Y-93112844D01*
X145426719Y-93109812D01*
X145419266Y-93104486D01*
X145370150Y-93089797D01*
X145364508Y-93087964D01*
X145323633Y-93073610D01*
X145323632Y-93073610D01*
X145316149Y-93070982D01*
X145310584Y-93070500D01*
X145307876Y-93070500D01*
X145305242Y-93070386D01*
X145305144Y-93070357D01*
X145305151Y-93070193D01*
X145304447Y-93070149D01*
X145298222Y-93068287D01*
X145244365Y-93070403D01*
X145239418Y-93070500D01*
X144942951Y-93070500D01*
X144874830Y-93050498D01*
X144828337Y-92996842D01*
X144818233Y-92926568D01*
X144826043Y-92897505D01*
X144834007Y-92877694D01*
X144834008Y-92877692D01*
X144836842Y-92870641D01*
X144852014Y-92764032D01*
X144858581Y-92717891D01*
X144858581Y-92717888D01*
X144859162Y-92713807D01*
X144859234Y-92706904D01*
X144859264Y-92704125D01*
X144859264Y-92704120D01*
X144859307Y-92700000D01*
X144858474Y-92693111D01*
X144853438Y-92651497D01*
X144865111Y-92581466D01*
X144883991Y-92554913D01*
X144883122Y-92554177D01*
X144886481Y-92550213D01*
X144890158Y-92546536D01*
X144901412Y-92530788D01*
X144904918Y-92526118D01*
X144936676Y-92485833D01*
X144939708Y-92477199D01*
X144945034Y-92469746D01*
X144959723Y-92420630D01*
X144961556Y-92414988D01*
X144975910Y-92374113D01*
X144975910Y-92374112D01*
X144978538Y-92366629D01*
X144979020Y-92361064D01*
X144979020Y-92358356D01*
X144979134Y-92355722D01*
X144979163Y-92355624D01*
X144979327Y-92355631D01*
X144979371Y-92354927D01*
X144981233Y-92348702D01*
X144979117Y-92294845D01*
X144979020Y-92289898D01*
X144979020Y-90786657D01*
X144981569Y-90762709D01*
X144981648Y-90761044D01*
X144983840Y-90750861D01*
X144979893Y-90717514D01*
X144979543Y-90711583D01*
X144979448Y-90711591D01*
X144979020Y-90706413D01*
X144979020Y-90701213D01*
X144977870Y-90694304D01*
X144975851Y-90682172D01*
X144975014Y-90676294D01*
X144970214Y-90635736D01*
X144970214Y-90635735D01*
X144968990Y-90625396D01*
X144965027Y-90617144D01*
X144963524Y-90608111D01*
X144957869Y-90597629D01*
X144939186Y-90563005D01*
X144936489Y-90557712D01*
X144917735Y-90518655D01*
X144917732Y-90518651D01*
X144914301Y-90511505D01*
X144910706Y-90507229D01*
X144908783Y-90505306D01*
X144907011Y-90503374D01*
X144906968Y-90503295D01*
X144907092Y-90503182D01*
X144906616Y-90502642D01*
X144903530Y-90496923D01*
X144863933Y-90460320D01*
X144860368Y-90456891D01*
X144566405Y-90162928D01*
X144532379Y-90100616D01*
X144529500Y-90073833D01*
X144529499Y-89681871D01*
X144529499Y-89678903D01*
X144527659Y-89659423D01*
X144527216Y-89654739D01*
X144527216Y-89654737D01*
X144526493Y-89647090D01*
X144481209Y-89518141D01*
X144400010Y-89408207D01*
X144290076Y-89327008D01*
X144161127Y-89281724D01*
X144153485Y-89281002D01*
X144153482Y-89281001D01*
X144138579Y-89279593D01*
X144129315Y-89278717D01*
X143800223Y-89278717D01*
X143470686Y-89278718D01*
X143467738Y-89278997D01*
X143467729Y-89278997D01*
X143446522Y-89281001D01*
X143446520Y-89281001D01*
X143438873Y-89281724D01*
X143419060Y-89288682D01*
X143405292Y-89293517D01*
X143334392Y-89297216D01*
X143272747Y-89261997D01*
X143239929Y-89199041D01*
X143238800Y-89156882D01*
X143258581Y-89017891D01*
X143258581Y-89017888D01*
X143259162Y-89013807D01*
X143259307Y-89000000D01*
X143257954Y-88988815D01*
X143253420Y-88951349D01*
X143240276Y-88842733D01*
X143184280Y-88694546D01*
X143167262Y-88669784D01*
X143098855Y-88570251D01*
X143098854Y-88570249D01*
X143094553Y-88563992D01*
X143088441Y-88558546D01*
X142994744Y-88475066D01*
X142957189Y-88414816D01*
X142958168Y-88343826D01*
X142997373Y-88284635D01*
X143062354Y-88256036D01*
X143078563Y-88254989D01*
X147559500Y-88254989D01*
X147627621Y-88274991D01*
G37*
%TD.AperFunction*%
%TA.AperFunction,Conductor*%
G36*
X152006167Y-91696851D02*
G01*
X152123113Y-91735640D01*
X152123115Y-91735640D01*
X152129641Y-91737805D01*
X152136478Y-91738505D01*
X152136480Y-91738506D01*
X152179179Y-91742881D01*
X152234023Y-91748500D01*
X152264950Y-91748500D01*
X153350271Y-91748499D01*
X153418392Y-91768501D01*
X153464885Y-91822157D01*
X153476271Y-91874499D01*
X153476271Y-92453500D01*
X153456269Y-92521621D01*
X153402613Y-92568114D01*
X153350271Y-92579500D01*
X152259276Y-92579501D01*
X152230628Y-92579501D01*
X152227678Y-92579780D01*
X152227673Y-92579780D01*
X152206774Y-92581755D01*
X152206773Y-92581755D01*
X152199125Y-92582478D01*
X152071488Y-92627301D01*
X152041357Y-92649556D01*
X151974682Y-92673938D01*
X151905406Y-92658402D01*
X151855527Y-92607878D01*
X151840500Y-92548204D01*
X151840500Y-91816444D01*
X151860502Y-91748323D01*
X151914158Y-91701830D01*
X151984432Y-91691726D01*
X152006167Y-91696851D01*
G37*
%TD.AperFunction*%
%TA.AperFunction,Conductor*%
G36*
X164162141Y-88199502D02*
G01*
X164208634Y-88253158D01*
X164220020Y-88305500D01*
X164220020Y-88492013D01*
X164200018Y-88560134D01*
X164146362Y-88606627D01*
X164084142Y-88616867D01*
X164084110Y-88617492D01*
X164081235Y-88617345D01*
X164081169Y-88617356D01*
X164080892Y-88617328D01*
X164074478Y-88617000D01*
X163984615Y-88617000D01*
X163969376Y-88621475D01*
X163968171Y-88622865D01*
X163966500Y-88630548D01*
X163966500Y-89727885D01*
X163970975Y-89743124D01*
X163972365Y-89744329D01*
X163980048Y-89746000D01*
X164094020Y-89746000D01*
X164162141Y-89766002D01*
X164208634Y-89819658D01*
X164220020Y-89872000D01*
X164220020Y-90128000D01*
X164200018Y-90196121D01*
X164146362Y-90242614D01*
X164094020Y-90254000D01*
X163523500Y-90254000D01*
X163455379Y-90233998D01*
X163408886Y-90180342D01*
X163397500Y-90128000D01*
X163397500Y-89852914D01*
X163417502Y-89784793D01*
X163433282Y-89771120D01*
X163431396Y-89769486D01*
X163456829Y-89740135D01*
X163458500Y-89732452D01*
X163458500Y-88635115D01*
X163454025Y-88619876D01*
X163452635Y-88618671D01*
X163444952Y-88617000D01*
X163350570Y-88617000D01*
X163344054Y-88617337D01*
X163248810Y-88627219D01*
X163235414Y-88630112D01*
X163081784Y-88681367D01*
X163068605Y-88687541D01*
X162930272Y-88773144D01*
X162863969Y-88792000D01*
X162858734Y-88792000D01*
X162852219Y-88792337D01*
X162755759Y-88802346D01*
X162742359Y-88805240D01*
X162586791Y-88857141D01*
X162573623Y-88863309D01*
X162434534Y-88949381D01*
X162423133Y-88958417D01*
X162307572Y-89074179D01*
X162305274Y-89077089D01*
X162303197Y-89078562D01*
X162302401Y-89079359D01*
X162302265Y-89079223D01*
X162247359Y-89118153D01*
X162206390Y-89125000D01*
X161910143Y-89125000D01*
X161849635Y-89109521D01*
X161848733Y-89109027D01*
X161841546Y-89103641D01*
X161833141Y-89100490D01*
X161833137Y-89100488D01*
X161711949Y-89055057D01*
X161711947Y-89055057D01*
X161704554Y-89052285D01*
X161696706Y-89051432D01*
X161696704Y-89051432D01*
X161645493Y-89045869D01*
X161642096Y-89045500D01*
X161543128Y-89045500D01*
X161475007Y-89025498D01*
X161461918Y-89014950D01*
X161461118Y-89013882D01*
X161422603Y-88985017D01*
X161353234Y-88933028D01*
X161353233Y-88933027D01*
X161346051Y-88927645D01*
X161310648Y-88914373D01*
X161218801Y-88879941D01*
X161218799Y-88879941D01*
X161211406Y-88877169D01*
X161203558Y-88876316D01*
X161203556Y-88876316D01*
X161153414Y-88870869D01*
X161153413Y-88870869D01*
X161150017Y-88870500D01*
X160787554Y-88870500D01*
X160424984Y-88870501D01*
X160421589Y-88870870D01*
X160421584Y-88870870D01*
X160371452Y-88876315D01*
X160371448Y-88876316D01*
X160363594Y-88877169D01*
X160228949Y-88927645D01*
X160221767Y-88933027D01*
X160221766Y-88933028D01*
X160152397Y-88985017D01*
X160113882Y-89013882D01*
X160108504Y-89021058D01*
X160108500Y-89021062D01*
X160088918Y-89047190D01*
X160032059Y-89089705D01*
X159961240Y-89094731D01*
X159912527Y-89072451D01*
X159899525Y-89062706D01*
X159876567Y-89045500D01*
X159826946Y-89008311D01*
X159826943Y-89008309D01*
X159819764Y-89002929D01*
X159701027Y-88958417D01*
X159691843Y-88954974D01*
X159691841Y-88954974D01*
X159684448Y-88952202D01*
X159676598Y-88951349D01*
X159676597Y-88951349D01*
X159626153Y-88945869D01*
X159626152Y-88945869D01*
X159622756Y-88945500D01*
X158177244Y-88945500D01*
X158173848Y-88945869D01*
X158173847Y-88945869D01*
X158123403Y-88951349D01*
X158123402Y-88951349D01*
X158115552Y-88952202D01*
X158108159Y-88954974D01*
X158108157Y-88954974D01*
X158098973Y-88958417D01*
X157980236Y-89002929D01*
X157973057Y-89008309D01*
X157973054Y-89008311D01*
X157923433Y-89045500D01*
X157864596Y-89089596D01*
X157812397Y-89159245D01*
X157755540Y-89201758D01*
X157684722Y-89206784D01*
X157622428Y-89172724D01*
X157610747Y-89159243D01*
X157591500Y-89133562D01*
X157591496Y-89133558D01*
X157586118Y-89126382D01*
X157543886Y-89094731D01*
X157478234Y-89045528D01*
X157478233Y-89045527D01*
X157471051Y-89040145D01*
X157416842Y-89019823D01*
X157343801Y-88992441D01*
X157343799Y-88992441D01*
X157336406Y-88989669D01*
X157328558Y-88988816D01*
X157328556Y-88988816D01*
X157278414Y-88983369D01*
X157278413Y-88983369D01*
X157275017Y-88983000D01*
X156600099Y-88983000D01*
X155924984Y-88983001D01*
X155921589Y-88983370D01*
X155921584Y-88983370D01*
X155871452Y-88988815D01*
X155871448Y-88988816D01*
X155863594Y-88989669D01*
X155768020Y-89025498D01*
X155749729Y-89032355D01*
X155678922Y-89037538D01*
X155616553Y-89003617D01*
X155582424Y-88941362D01*
X155579500Y-88914373D01*
X155579500Y-88305500D01*
X155599502Y-88237379D01*
X155653158Y-88190886D01*
X155705500Y-88179500D01*
X164094020Y-88179500D01*
X164162141Y-88199502D01*
G37*
%TD.AperFunction*%
%TD*%
M02*
