%TF.GenerationSoftware,KiCad,Pcbnew,(6.0.2-0)*%
%TF.CreationDate,2022-03-10T15:29:30+00:00*%
%TF.ProjectId,Generic3,47656e65-7269-4633-932e-6b696361645f,1*%
%TF.SameCoordinates,Original*%
%TF.FileFunction,Soldermask,Top*%
%TF.FilePolarity,Negative*%
%FSLAX46Y46*%
G04 Gerber Fmt 4.6, Leading zero omitted, Abs format (unit mm)*
G04 Created by KiCad (PCBNEW (6.0.2-0)) date 2022-03-10 15:29:30*
%MOMM*%
%LPD*%
G01*
G04 APERTURE LIST*
G04 Aperture macros list*
%AMRoundRect*
0 Rectangle with rounded corners*
0 $1 Rounding radius*
0 $2 $3 $4 $5 $6 $7 $8 $9 X,Y pos of 4 corners*
0 Add a 4 corners polygon primitive as box body*
4,1,4,$2,$3,$4,$5,$6,$7,$8,$9,$2,$3,0*
0 Add four circle primitives for the rounded corners*
1,1,$1+$1,$2,$3*
1,1,$1+$1,$4,$5*
1,1,$1+$1,$6,$7*
1,1,$1+$1,$8,$9*
0 Add four rect primitives between the rounded corners*
20,1,$1+$1,$2,$3,$4,$5,0*
20,1,$1+$1,$4,$5,$6,$7,0*
20,1,$1+$1,$6,$7,$8,$9,0*
20,1,$1+$1,$8,$9,$2,$3,0*%
%AMFreePoly0*
4,1,19,0.792580,0.830157,0.838704,0.776927,0.850000,0.725000,0.850000,-0.725000,0.830157,-0.792580,0.776927,-0.838704,0.725000,-0.850000,-0.725000,-0.850000,-0.792580,-0.830157,-0.838704,-0.776927,-0.850000,-0.725000,-0.850000,0.130500,-0.830157,0.198080,-0.813388,0.218888,-0.218888,0.813388,-0.157071,0.847143,-0.130500,0.850000,0.725000,0.850000,0.792580,0.830157,0.792580,0.830157,
$1*%
%AMFreePoly1*
4,1,19,1.067580,1.105157,1.113704,1.051927,1.125000,1.000000,1.125000,-1.000000,1.105157,-1.067580,1.051927,-1.113704,1.000000,-1.125000,-1.000000,-1.125000,-1.067580,-1.105157,-1.113704,-1.051927,-1.125000,-1.000000,-1.125000,0.750000,-1.105157,0.817580,-1.088388,0.838388,-0.838388,1.088388,-0.776571,1.122143,-0.750000,1.125000,1.000000,1.125000,1.067580,1.105157,1.067580,1.105157,
$1*%
G04 Aperture macros list end*
%ADD10RoundRect,0.375000X0.375000X0.625000X-0.375000X0.625000X-0.375000X-0.625000X0.375000X-0.625000X0*%
%ADD11RoundRect,0.325000X0.275000X-0.200000X0.275000X0.200000X-0.275000X0.200000X-0.275000X-0.200000X0*%
%ADD12RoundRect,0.325000X-0.200000X-0.275000X0.200000X-0.275000X0.200000X0.275000X-0.200000X0.275000X0*%
%ADD13RoundRect,0.325000X-0.275000X0.200000X-0.275000X-0.200000X0.275000X-0.200000X0.275000X0.200000X0*%
%ADD14RoundRect,0.350000X0.250000X-0.225000X0.250000X0.225000X-0.250000X0.225000X-0.250000X-0.225000X0*%
%ADD15RoundRect,0.374375X-0.463125X-0.625625X0.463125X-0.625625X0.463125X0.625625X-0.463125X0.625625X0*%
%ADD16RoundRect,0.125000X0.712500X-1.850000X0.712500X1.850000X-0.712500X1.850000X-0.712500X-1.850000X0*%
%ADD17RoundRect,0.125000X0.300000X-0.550000X0.300000X0.550000X-0.300000X0.550000X-0.300000X-0.550000X0*%
%ADD18RoundRect,0.375000X-0.475000X0.250000X-0.475000X-0.250000X0.475000X-0.250000X0.475000X0.250000X0*%
%ADD19RoundRect,0.125000X-0.570000X0.300000X-0.570000X-0.300000X0.570000X-0.300000X0.570000X0.300000X0*%
%ADD20RoundRect,0.200000X-0.495000X0.075000X-0.495000X-0.075000X0.495000X-0.075000X0.495000X0.075000X0*%
%ADD21C,0.870000*%
%ADD22C,1.500000*%
%ADD23C,1.750000*%
%ADD24RoundRect,0.125000X-2.625000X3.750000X-2.625000X-3.750000X2.625000X-3.750000X2.625000X3.750000X0*%
%ADD25RoundRect,0.375000X-0.600000X-0.675000X0.600000X-0.675000X0.600000X0.675000X-0.600000X0.675000X0*%
%ADD26O,1.950000X2.100000*%
%ADD27RoundRect,0.125000X-0.200000X0.400000X-0.200000X-0.400000X0.200000X-0.400000X0.200000X0.400000X0*%
%ADD28RoundRect,0.125000X-0.400000X0.200000X-0.400000X-0.200000X0.400000X-0.200000X0.400000X0.200000X0*%
%ADD29FreePoly0,270.000000*%
%ADD30RoundRect,0.125000X-0.725000X0.725000X-0.725000X-0.725000X0.725000X-0.725000X0.725000X0.725000X0*%
%ADD31RoundRect,0.125000X-0.350000X0.350000X-0.350000X-0.350000X0.350000X-0.350000X0.350000X0.350000X0*%
%ADD32RoundRect,0.187500X-0.062500X0.287500X-0.062500X-0.287500X0.062500X-0.287500X0.062500X0.287500X0*%
%ADD33RoundRect,0.187500X-0.287500X0.062500X-0.287500X-0.062500X0.287500X-0.062500X0.287500X0.062500X0*%
%ADD34FreePoly1,270.000000*%
%ADD35RoundRect,0.125000X0.425000X0.250000X-0.425000X0.250000X-0.425000X-0.250000X0.425000X-0.250000X0*%
G04 APERTURE END LIST*
D10*
%TO.C,D7*%
X147900000Y-66600000D03*
X145100000Y-66600000D03*
%TD*%
D11*
%TO.C,C1*%
X147750000Y-59325000D03*
X147750000Y-57775000D03*
%TD*%
D12*
%TO.C,R4*%
X140225000Y-56850000D03*
X141875000Y-56850000D03*
%TD*%
%TO.C,C4*%
X140225000Y-67200000D03*
X141775000Y-67200000D03*
%TD*%
D13*
%TO.C,R1*%
X159650000Y-59825000D03*
X159650000Y-61475000D03*
%TD*%
D12*
%TO.C,C2*%
X156425000Y-63200000D03*
X157975000Y-63200000D03*
%TD*%
D11*
%TO.C,R12*%
X150100000Y-62325000D03*
X150100000Y-60675000D03*
%TD*%
D14*
%TO.C,U3*%
X150300000Y-58325000D03*
D15*
X153197500Y-60470000D03*
D16*
X154800000Y-57350000D03*
D17*
X153350000Y-58650000D03*
D14*
X150300000Y-56775000D03*
D17*
X153350000Y-55950000D03*
X151450000Y-58650000D03*
D18*
X151550000Y-59900000D03*
D17*
X152400000Y-58650000D03*
D18*
X157800000Y-61800000D03*
X151550000Y-61800000D03*
D15*
X156162500Y-60470000D03*
D17*
X152400000Y-55950000D03*
D18*
X157800000Y-59900000D03*
D16*
X157800000Y-57350000D03*
D17*
X151450000Y-55950000D03*
%TD*%
D19*
%TO.C,J3*%
X143810000Y-58650000D03*
X143810000Y-59450000D03*
D20*
X143810000Y-60600000D03*
X143810000Y-61600000D03*
X143810000Y-62100000D03*
X143810000Y-63100000D03*
D19*
X143810000Y-65050000D03*
X143810000Y-64250000D03*
D20*
X143810000Y-63600000D03*
X143810000Y-62600000D03*
X143810000Y-61100000D03*
X143810000Y-60100000D03*
D21*
X142740000Y-64740000D03*
D22*
X139060000Y-66170000D03*
D23*
X143230000Y-57530000D03*
D24*
X139825000Y-61850000D03*
D23*
X143230000Y-66170000D03*
D21*
X142740000Y-58960000D03*
D22*
X139060000Y-57530000D03*
%TD*%
D12*
%TO.C,R3*%
X140575000Y-55600000D03*
X142225000Y-55600000D03*
%TD*%
D11*
%TO.C,C3*%
X148925480Y-59335000D03*
X148925480Y-57785000D03*
%TD*%
D25*
%TO.C,J1*%
X139400000Y-69150000D03*
D26*
X141900000Y-69150000D03*
%TD*%
D12*
%TO.C,R10*%
X147475000Y-55000000D03*
X149125000Y-55000000D03*
%TD*%
D11*
%TO.C,R5*%
X145100000Y-60325000D03*
X145100000Y-58675000D03*
%TD*%
D13*
%TO.C,R8*%
X148925480Y-60425000D03*
X148925480Y-62075000D03*
%TD*%
D27*
%TO.C,U1*%
X170356750Y-54950000D03*
X169556750Y-54950000D03*
X168756750Y-54950000D03*
X167956750Y-54950000D03*
X167156750Y-54950000D03*
X166356750Y-54950000D03*
X165556750Y-54950000D03*
X164756750Y-54950000D03*
X163956750Y-54950000D03*
X163156750Y-54950000D03*
X162356750Y-54950000D03*
D28*
X161456750Y-56050000D03*
X161456750Y-56850000D03*
X161456750Y-57650000D03*
X161456750Y-58450000D03*
X161456750Y-59250000D03*
X161456750Y-60050000D03*
X161456750Y-60850000D03*
X161456750Y-61650000D03*
X161456750Y-62450000D03*
X161456750Y-63250000D03*
X161456750Y-64050000D03*
X161456750Y-64850000D03*
X161456750Y-65650000D03*
D27*
X162356750Y-66750000D03*
X163156750Y-66750000D03*
X163956750Y-66750000D03*
X164756750Y-66750000D03*
X165556750Y-66750000D03*
X166356750Y-66750000D03*
X167156750Y-66750000D03*
X167956750Y-66750000D03*
X168756750Y-66750000D03*
X169556750Y-66750000D03*
X170356750Y-66750000D03*
D28*
X171256750Y-65650000D03*
X171256750Y-64850000D03*
X171256750Y-64050000D03*
X171256750Y-63250000D03*
X171256750Y-62450000D03*
X171256750Y-61650000D03*
X171256750Y-60850000D03*
X171256750Y-60050000D03*
X171256750Y-59250000D03*
X171256750Y-58450000D03*
X171256750Y-57650000D03*
X171256750Y-56850000D03*
X171256750Y-56050000D03*
D29*
X168331750Y-58875000D03*
D30*
X164381750Y-58875000D03*
X164381750Y-62825000D03*
X166356750Y-58875000D03*
X168331750Y-60850000D03*
X164381750Y-60850000D03*
X168331750Y-62825000D03*
X166356750Y-62825000D03*
X166356750Y-60850000D03*
D31*
X171306750Y-66800000D03*
X161406750Y-66800000D03*
X161406750Y-54900000D03*
X171306750Y-54900000D03*
%TD*%
D25*
%TO.C,J2*%
X147000000Y-69150000D03*
D26*
X149500000Y-69150000D03*
X152000000Y-69150000D03*
X154500000Y-69150000D03*
X157000000Y-69150000D03*
X159500000Y-69150000D03*
X162000000Y-69150000D03*
X164500000Y-69150000D03*
X167000000Y-69150000D03*
X169500000Y-69150000D03*
%TD*%
D32*
%TO.C,U2*%
X153175000Y-63250000D03*
X152675000Y-63250000D03*
X152175000Y-63250000D03*
X151675000Y-63250000D03*
X151175000Y-63250000D03*
D33*
X150275000Y-64150000D03*
X150275000Y-64650000D03*
X150275000Y-65150000D03*
X150275000Y-65650000D03*
X150275000Y-66150000D03*
D32*
X151175000Y-67050000D03*
X151675000Y-67050000D03*
X152175000Y-67050000D03*
X152675000Y-67050000D03*
X153175000Y-67050000D03*
D33*
X154075000Y-66150000D03*
X154075000Y-65650000D03*
X154075000Y-65150000D03*
X154075000Y-64650000D03*
X154075000Y-64150000D03*
D34*
X152175000Y-65150000D03*
%TD*%
D35*
%TO.C,D6*%
X137675000Y-54900000D03*
X139425000Y-54900000D03*
X139425000Y-55900000D03*
X137675000Y-55900000D03*
%TD*%
D12*
%TO.C,R11*%
X147225000Y-63950000D03*
X148875000Y-63950000D03*
%TD*%
%TO.C,R9*%
X147475000Y-56200000D03*
X149125000Y-56200000D03*
%TD*%
D13*
%TO.C,R7*%
X147750000Y-60425000D03*
X147750000Y-62075000D03*
%TD*%
D11*
%TO.C,R6*%
X145100000Y-65125000D03*
X145100000Y-63475000D03*
%TD*%
D12*
%TO.C,R2*%
X143675000Y-55600000D03*
X145325000Y-55600000D03*
%TD*%
M02*
