%TF.GenerationSoftware,KiCad,Pcbnew,(6.0.5-0)*%
%TF.CreationDate,2022-06-27T15:27:31+01:00*%
%TF.ProjectId,Generic0,47656e65-7269-4633-902e-6b696361645f,1*%
%TF.SameCoordinates,Original*%
%TF.FileFunction,Legend,Bot*%
%TF.FilePolarity,Positive*%
%FSLAX46Y46*%
G04 Gerber Fmt 4.6, Leading zero omitted, Abs format (unit mm)*
G04 Created by KiCad (PCBNEW (6.0.5-0)) date 2022-06-27 15:27:31*
%MOMM*%
%LPD*%
G01*
G04 APERTURE LIST*
%ADD10C,0.100000*%
%ADD11C,0.120000*%
%ADD12C,0.080000*%
G04 APERTURE END LIST*
D10*
X93900000Y-41300000D02*
X93861904Y-41223809D01*
X93861904Y-41109523D01*
X93900000Y-40995238D01*
X93976190Y-40919047D01*
X94052380Y-40880952D01*
X94204761Y-40842857D01*
X94319047Y-40842857D01*
X94471428Y-40880952D01*
X94547619Y-40919047D01*
X94623809Y-40995238D01*
X94661904Y-41109523D01*
X94661904Y-41185714D01*
X94623809Y-41300000D01*
X94585714Y-41338095D01*
X94319047Y-41338095D01*
X94319047Y-41185714D01*
X94623809Y-41985714D02*
X94661904Y-41909523D01*
X94661904Y-41757142D01*
X94623809Y-41680952D01*
X94547619Y-41642857D01*
X94242857Y-41642857D01*
X94166666Y-41680952D01*
X94128571Y-41757142D01*
X94128571Y-41909523D01*
X94166666Y-41985714D01*
X94242857Y-42023809D01*
X94319047Y-42023809D01*
X94395238Y-41642857D01*
X94128571Y-42366666D02*
X94661904Y-42366666D01*
X94204761Y-42366666D02*
X94166666Y-42404761D01*
X94128571Y-42480952D01*
X94128571Y-42595238D01*
X94166666Y-42671428D01*
X94242857Y-42709523D01*
X94661904Y-42709523D01*
X94623809Y-43395238D02*
X94661904Y-43319047D01*
X94661904Y-43166666D01*
X94623809Y-43090476D01*
X94547619Y-43052380D01*
X94242857Y-43052380D01*
X94166666Y-43090476D01*
X94128571Y-43166666D01*
X94128571Y-43319047D01*
X94166666Y-43395238D01*
X94242857Y-43433333D01*
X94319047Y-43433333D01*
X94395238Y-43052380D01*
X94661904Y-43776190D02*
X94128571Y-43776190D01*
X94280952Y-43776190D02*
X94204761Y-43814285D01*
X94166666Y-43852380D01*
X94128571Y-43928571D01*
X94128571Y-44004761D01*
X94661904Y-44271428D02*
X94128571Y-44271428D01*
X93861904Y-44271428D02*
X93900000Y-44233333D01*
X93938095Y-44271428D01*
X93900000Y-44309523D01*
X93861904Y-44271428D01*
X93938095Y-44271428D01*
X94623809Y-44995238D02*
X94661904Y-44919047D01*
X94661904Y-44766666D01*
X94623809Y-44690476D01*
X94585714Y-44652380D01*
X94509523Y-44614285D01*
X94280952Y-44614285D01*
X94204761Y-44652380D01*
X94166666Y-44690476D01*
X94128571Y-44766666D01*
X94128571Y-44919047D01*
X94166666Y-44995238D01*
X93861904Y-45490476D02*
X93861904Y-45566666D01*
X93900000Y-45642857D01*
X93938095Y-45680952D01*
X94014285Y-45719047D01*
X94166666Y-45757142D01*
X94357142Y-45757142D01*
X94509523Y-45719047D01*
X94585714Y-45680952D01*
X94623809Y-45642857D01*
X94661904Y-45566666D01*
X94661904Y-45490476D01*
X94623809Y-45414285D01*
X94585714Y-45376190D01*
X94509523Y-45338095D01*
X94357142Y-45300000D01*
X94166666Y-45300000D01*
X94014285Y-45338095D01*
X93938095Y-45376190D01*
X93900000Y-45414285D01*
X93861904Y-45490476D01*
X105538095Y-41314285D02*
X105500000Y-41352380D01*
X105461904Y-41428571D01*
X105461904Y-41619047D01*
X105500000Y-41695238D01*
X105538095Y-41733333D01*
X105614285Y-41771428D01*
X105690476Y-41771428D01*
X105804761Y-41733333D01*
X106261904Y-41276190D01*
X106261904Y-41771428D01*
X105461904Y-42266666D02*
X105461904Y-42342857D01*
X105500000Y-42419047D01*
X105538095Y-42457142D01*
X105614285Y-42495238D01*
X105766666Y-42533333D01*
X105957142Y-42533333D01*
X106109523Y-42495238D01*
X106185714Y-42457142D01*
X106223809Y-42419047D01*
X106261904Y-42342857D01*
X106261904Y-42266666D01*
X106223809Y-42190476D01*
X106185714Y-42152380D01*
X106109523Y-42114285D01*
X105957142Y-42076190D01*
X105766666Y-42076190D01*
X105614285Y-42114285D01*
X105538095Y-42152380D01*
X105500000Y-42190476D01*
X105461904Y-42266666D01*
X105538095Y-42838095D02*
X105500000Y-42876190D01*
X105461904Y-42952380D01*
X105461904Y-43142857D01*
X105500000Y-43219047D01*
X105538095Y-43257142D01*
X105614285Y-43295238D01*
X105690476Y-43295238D01*
X105804761Y-43257142D01*
X106261904Y-42800000D01*
X106261904Y-43295238D01*
X105538095Y-43600000D02*
X105500000Y-43638095D01*
X105461904Y-43714285D01*
X105461904Y-43904761D01*
X105500000Y-43980952D01*
X105538095Y-44019047D01*
X105614285Y-44057142D01*
X105690476Y-44057142D01*
X105804761Y-44019047D01*
X106261904Y-43561904D01*
X106261904Y-44057142D01*
X105957142Y-44400000D02*
X105957142Y-45009523D01*
X105461904Y-45542857D02*
X105461904Y-45619047D01*
X105500000Y-45695238D01*
X105538095Y-45733333D01*
X105614285Y-45771428D01*
X105766666Y-45809523D01*
X105957142Y-45809523D01*
X106109523Y-45771428D01*
X106185714Y-45733333D01*
X106223809Y-45695238D01*
X106261904Y-45619047D01*
X106261904Y-45542857D01*
X106223809Y-45466666D01*
X106185714Y-45428571D01*
X106109523Y-45390476D01*
X105957142Y-45352380D01*
X105766666Y-45352380D01*
X105614285Y-45390476D01*
X105538095Y-45428571D01*
X105500000Y-45466666D01*
X105461904Y-45542857D01*
X105728571Y-46495238D02*
X106261904Y-46495238D01*
X105423809Y-46304761D02*
X105995238Y-46114285D01*
X105995238Y-46609523D01*
X105957142Y-46914285D02*
X105957142Y-47523809D01*
X105461904Y-48057142D02*
X105461904Y-48133333D01*
X105500000Y-48209523D01*
X105538095Y-48247619D01*
X105614285Y-48285714D01*
X105766666Y-48323809D01*
X105957142Y-48323809D01*
X106109523Y-48285714D01*
X106185714Y-48247619D01*
X106223809Y-48209523D01*
X106261904Y-48133333D01*
X106261904Y-48057142D01*
X106223809Y-47980952D01*
X106185714Y-47942857D01*
X106109523Y-47904761D01*
X105957142Y-47866666D01*
X105766666Y-47866666D01*
X105614285Y-47904761D01*
X105538095Y-47942857D01*
X105500000Y-47980952D01*
X105461904Y-48057142D01*
X105728571Y-49009523D02*
X106261904Y-49009523D01*
X105423809Y-48819047D02*
X105995238Y-48628571D01*
X105995238Y-49123809D01*
D11*
X104057142Y-43385714D02*
X103866666Y-44052380D01*
X103676190Y-43576190D01*
X103485714Y-44052380D01*
X103295238Y-43385714D01*
X103009523Y-43385714D02*
X102819047Y-44052380D01*
X102628571Y-43576190D01*
X102438095Y-44052380D01*
X102247619Y-43385714D01*
X101961904Y-43385714D02*
X101771428Y-44052380D01*
X101580952Y-43576190D01*
X101390476Y-44052380D01*
X101200000Y-43385714D01*
X100819047Y-43957142D02*
X100771428Y-44004761D01*
X100819047Y-44052380D01*
X100866666Y-44004761D01*
X100819047Y-43957142D01*
X100819047Y-44052380D01*
X100342857Y-44052380D02*
X100342857Y-43385714D01*
X100342857Y-43480952D02*
X100295238Y-43433333D01*
X100200000Y-43385714D01*
X100057142Y-43385714D01*
X99961904Y-43433333D01*
X99914285Y-43528571D01*
X99914285Y-44052380D01*
X99914285Y-43528571D02*
X99866666Y-43433333D01*
X99771428Y-43385714D01*
X99628571Y-43385714D01*
X99533333Y-43433333D01*
X99485714Y-43528571D01*
X99485714Y-44052380D01*
X98628571Y-44004761D02*
X98723809Y-44052380D01*
X98914285Y-44052380D01*
X99009523Y-44004761D01*
X99057142Y-43909523D01*
X99057142Y-43528571D01*
X99009523Y-43433333D01*
X98914285Y-43385714D01*
X98723809Y-43385714D01*
X98628571Y-43433333D01*
X98580952Y-43528571D01*
X98580952Y-43623809D01*
X99057142Y-43719047D01*
X98152380Y-43957142D02*
X98104761Y-44004761D01*
X98152380Y-44052380D01*
X98200000Y-44004761D01*
X98152380Y-43957142D01*
X98152380Y-44052380D01*
X97247619Y-43385714D02*
X97247619Y-44052380D01*
X97676190Y-43385714D02*
X97676190Y-43909523D01*
X97628571Y-44004761D01*
X97533333Y-44052380D01*
X97390476Y-44052380D01*
X97295238Y-44004761D01*
X97247619Y-43957142D01*
X96771428Y-44052380D02*
X96771428Y-43052380D01*
X96676190Y-43671428D02*
X96390476Y-44052380D01*
X96390476Y-43385714D02*
X96771428Y-43766666D01*
D12*
X103119047Y-39726190D02*
X103285714Y-39488095D01*
X103404761Y-39726190D02*
X103404761Y-39226190D01*
X103214285Y-39226190D01*
X103166666Y-39250000D01*
X103142857Y-39273809D01*
X103119047Y-39321428D01*
X103119047Y-39392857D01*
X103142857Y-39440476D01*
X103166666Y-39464285D01*
X103214285Y-39488095D01*
X103404761Y-39488095D01*
X102642857Y-39250000D02*
X102690476Y-39226190D01*
X102761904Y-39226190D01*
X102833333Y-39250000D01*
X102880952Y-39297619D01*
X102904761Y-39345238D01*
X102928571Y-39440476D01*
X102928571Y-39511904D01*
X102904761Y-39607142D01*
X102880952Y-39654761D01*
X102833333Y-39702380D01*
X102761904Y-39726190D01*
X102714285Y-39726190D01*
X102642857Y-39702380D01*
X102619047Y-39678571D01*
X102619047Y-39511904D01*
X102714285Y-39511904D01*
X102238095Y-39464285D02*
X102166666Y-39488095D01*
X102142857Y-39511904D01*
X102119047Y-39559523D01*
X102119047Y-39630952D01*
X102142857Y-39678571D01*
X102166666Y-39702380D01*
X102214285Y-39726190D01*
X102404761Y-39726190D01*
X102404761Y-39226190D01*
X102238095Y-39226190D01*
X102190476Y-39250000D01*
X102166666Y-39273809D01*
X102142857Y-39321428D01*
X102142857Y-39369047D01*
X102166666Y-39416666D01*
X102190476Y-39440476D01*
X102238095Y-39464285D01*
X102404761Y-39464285D01*
X101904761Y-39678571D02*
X101880952Y-39702380D01*
X101904761Y-39726190D01*
X101928571Y-39702380D01*
X101904761Y-39678571D01*
X101904761Y-39726190D01*
X101904761Y-39416666D02*
X101880952Y-39440476D01*
X101904761Y-39464285D01*
X101928571Y-39440476D01*
X101904761Y-39416666D01*
X101904761Y-39464285D01*
X101309523Y-39273809D02*
X101285714Y-39250000D01*
X101238095Y-39226190D01*
X101119047Y-39226190D01*
X101071428Y-39250000D01*
X101047619Y-39273809D01*
X101023809Y-39321428D01*
X101023809Y-39369047D01*
X101047619Y-39440476D01*
X101333333Y-39726190D01*
X101023809Y-39726190D01*
X100833333Y-39273809D02*
X100809523Y-39250000D01*
X100761904Y-39226190D01*
X100642857Y-39226190D01*
X100595238Y-39250000D01*
X100571428Y-39273809D01*
X100547619Y-39321428D01*
X100547619Y-39369047D01*
X100571428Y-39440476D01*
X100857142Y-39726190D01*
X100547619Y-39726190D01*
X99976190Y-39202380D02*
X100404761Y-39845238D01*
X99547619Y-39726190D02*
X99833333Y-39726190D01*
X99690476Y-39726190D02*
X99690476Y-39226190D01*
X99738095Y-39297619D01*
X99785714Y-39345238D01*
X99833333Y-39369047D01*
X99309523Y-39726190D02*
X99214285Y-39726190D01*
X99166666Y-39702380D01*
X99142857Y-39678571D01*
X99095238Y-39607142D01*
X99071428Y-39511904D01*
X99071428Y-39321428D01*
X99095238Y-39273809D01*
X99119047Y-39250000D01*
X99166666Y-39226190D01*
X99261904Y-39226190D01*
X99309523Y-39250000D01*
X99333333Y-39273809D01*
X99357142Y-39321428D01*
X99357142Y-39440476D01*
X99333333Y-39488095D01*
X99309523Y-39511904D01*
X99261904Y-39535714D01*
X99166666Y-39535714D01*
X99119047Y-39511904D01*
X99095238Y-39488095D01*
X99071428Y-39440476D01*
X98500000Y-39202380D02*
X98928571Y-39845238D01*
X98380952Y-39226190D02*
X98047619Y-39226190D01*
X98261904Y-39726190D01*
%TO.C,J1*%
X101461345Y-50344120D02*
X101242478Y-50125253D01*
X101225643Y-50377791D01*
X101175135Y-50327284D01*
X101124627Y-50310448D01*
X101090956Y-50310448D01*
X101040448Y-50327284D01*
X100956269Y-50411463D01*
X100939433Y-50461971D01*
X100939433Y-50495643D01*
X100956269Y-50546150D01*
X101057284Y-50647165D01*
X101107791Y-50664001D01*
X101141463Y-50664001D01*
X101141463Y-50024238D02*
X100670059Y-50259940D01*
X100905761Y-49788536D01*
X100821582Y-49704356D02*
X100602715Y-49485490D01*
X100585879Y-49738028D01*
X100535372Y-49687521D01*
X100484864Y-49670685D01*
X100451192Y-49670685D01*
X100400685Y-49687521D01*
X100316505Y-49771700D01*
X100299669Y-49822208D01*
X100299669Y-49855879D01*
X100316505Y-49906387D01*
X100417521Y-50007402D01*
X100468028Y-50024238D01*
X100501700Y-50024238D01*
X98500448Y-49923223D02*
X98466776Y-49889551D01*
X98416269Y-49872715D01*
X98382597Y-49872715D01*
X98332089Y-49889551D01*
X98247910Y-49940059D01*
X98163730Y-50024238D01*
X98113223Y-50108417D01*
X98096387Y-50158925D01*
X98096387Y-50192597D01*
X98113223Y-50243104D01*
X98146895Y-50276776D01*
X98197402Y-50293612D01*
X98231074Y-50293612D01*
X98281582Y-50276776D01*
X98365761Y-50226269D01*
X98449940Y-50142089D01*
X98500448Y-50057910D01*
X98517284Y-50007402D01*
X98517284Y-49973730D01*
X98500448Y-49923223D01*
X103378417Y-50428299D02*
X103647791Y-50158925D01*
X103647791Y-50293612D02*
X103647791Y-50158925D01*
X103513104Y-50158925D01*
X103462597Y-49805372D02*
X103243730Y-49586505D01*
X103226895Y-49839043D01*
X103176387Y-49788536D01*
X103125879Y-49771700D01*
X103092208Y-49771700D01*
X103041700Y-49788536D01*
X102957521Y-49872715D01*
X102940685Y-49923223D01*
X102940685Y-49956895D01*
X102957521Y-50007402D01*
X103058536Y-50108417D01*
X103109043Y-50125253D01*
X103142715Y-50125253D01*
X95960448Y-50226269D02*
X95623730Y-49889551D01*
X95792089Y-50259940D02*
X95590059Y-50057910D01*
X95943612Y-49906387D02*
X95792089Y-50057910D01*
X95556387Y-50226269D02*
X95623730Y-50293612D01*
X106187791Y-50158925D02*
X105918417Y-50428299D01*
X105918417Y-50293612D02*
X105918417Y-50428299D01*
X106053104Y-50428299D01*
X105430177Y-49940059D02*
X105632208Y-50142089D01*
X105531192Y-50041074D02*
X105884746Y-49687521D01*
X105867910Y-49771700D01*
X105867910Y-49839043D01*
X105884746Y-49889551D01*
D11*
%TO.C,R2*%
X102100000Y-41100000D02*
X102100000Y-41700000D01*
X103100000Y-41100000D02*
X103100000Y-41700000D01*
%TO.C,C1*%
X98100000Y-45550000D02*
X97500000Y-45550000D01*
X98100000Y-44550000D02*
X97500000Y-44550000D01*
%TO.C,R1*%
X98900000Y-41100000D02*
X98900000Y-41700000D01*
X99900000Y-41100000D02*
X99900000Y-41700000D01*
%TO.C,R3*%
X101500000Y-41100000D02*
X101500000Y-41700000D01*
X100500000Y-41100000D02*
X100500000Y-41700000D01*
%TO.C,R4*%
X98527064Y-47100000D02*
X97072936Y-47100000D01*
X98527064Y-46000000D02*
X97072936Y-46000000D01*
%TO.C,D1*%
X106100000Y-40000000D02*
X105000000Y-40000000D01*
X105000000Y-40000000D02*
X105000000Y-39000000D01*
%TO.C,C2*%
X98100000Y-47550000D02*
X97500000Y-47550000D01*
X98100000Y-48550000D02*
X97500000Y-48550000D01*
%TD*%
M02*
