%TF.GenerationSoftware,KiCad,Pcbnew,(6.0.2-0)*%
%TF.CreationDate,2022-03-05T07:54:51+00:00*%
%TF.ProjectId,Generic,47656e65-7269-4632-9e6b-696361645f70,6*%
%TF.SameCoordinates,Original*%
%TF.FileFunction,Copper,L1,Top*%
%TF.FilePolarity,Positive*%
%FSLAX46Y46*%
G04 Gerber Fmt 4.6, Leading zero omitted, Abs format (unit mm)*
G04 Created by KiCad (PCBNEW (6.0.2-0)) date 2022-03-05 07:54:51*
%MOMM*%
%LPD*%
G01*
G04 APERTURE LIST*
G04 Aperture macros list*
%AMRoundRect*
0 Rectangle with rounded corners*
0 $1 Rounding radius*
0 $2 $3 $4 $5 $6 $7 $8 $9 X,Y pos of 4 corners*
0 Add a 4 corners polygon primitive as box body*
4,1,4,$2,$3,$4,$5,$6,$7,$8,$9,$2,$3,0*
0 Add four circle primitives for the rounded corners*
1,1,$1+$1,$2,$3*
1,1,$1+$1,$4,$5*
1,1,$1+$1,$6,$7*
1,1,$1+$1,$8,$9*
0 Add four rect primitives between the rounded corners*
20,1,$1+$1,$2,$3,$4,$5,0*
20,1,$1+$1,$4,$5,$6,$7,0*
20,1,$1+$1,$6,$7,$8,$9,0*
20,1,$1+$1,$8,$9,$2,$3,0*%
%AMOutline5P*
0 Free polygon, 5 corners , with rotation*
0 The origin of the aperture is its center*
0 number of corners: always 5*
0 $1 to $10 corner X, Y*
0 $11 Rotation angle, in degrees counterclockwise*
0 create outline with 5 corners*
4,1,5,$1,$2,$3,$4,$5,$6,$7,$8,$9,$10,$1,$2,$11*%
%AMOutline6P*
0 Free polygon, 6 corners , with rotation*
0 The origin of the aperture is its center*
0 number of corners: always 6*
0 $1 to $12 corner X, Y*
0 $13 Rotation angle, in degrees counterclockwise*
0 create outline with 6 corners*
4,1,6,$1,$2,$3,$4,$5,$6,$7,$8,$9,$10,$11,$12,$1,$2,$13*%
%AMOutline7P*
0 Free polygon, 7 corners , with rotation*
0 The origin of the aperture is its center*
0 number of corners: always 7*
0 $1 to $14 corner X, Y*
0 $15 Rotation angle, in degrees counterclockwise*
0 create outline with 7 corners*
4,1,7,$1,$2,$3,$4,$5,$6,$7,$8,$9,$10,$11,$12,$13,$14,$1,$2,$15*%
%AMOutline8P*
0 Free polygon, 8 corners , with rotation*
0 The origin of the aperture is its center*
0 number of corners: always 8*
0 $1 to $16 corner X, Y*
0 $17 Rotation angle, in degrees counterclockwise*
0 create outline with 8 corners*
4,1,8,$1,$2,$3,$4,$5,$6,$7,$8,$9,$10,$11,$12,$13,$14,$15,$16,$1,$2,$17*%
%AMFreePoly0*
4,1,136,3.383385,4.221938,3.559722,4.168447,3.722236,4.081581,3.864680,3.964680,3.981581,3.822236,4.068447,3.659722,4.121938,3.483385,4.125213,3.450138,4.182769,3.539508,4.186818,3.554319,4.232803,3.599839,4.295387,3.616268,4.357802,3.599205,4.403322,3.553220,4.419751,3.490636,4.402688,3.428221,4.402685,3.428218,4.172864,3.069999,4.056927,2.918726,3.981581,2.777764,
3.864680,2.635320,3.750000,2.541204,3.750000,0.022998,4.066621,-0.229499,4.408387,-0.546611,4.440740,-0.602647,4.440740,-0.667351,4.408387,-0.723387,4.352351,-0.755740,4.287647,-0.755740,4.231611,-0.723387,4.223834,-0.709917,3.889556,-0.400914,3.520256,-0.109781,3.483169,-0.085000,2.500000,-0.085000,2.500000,-1.185000,3.750000,-1.185000,3.750000,-2.745000,-3.750000,-2.745000,
-3.750000,-1.185000,-2.500000,-1.185000,-2.500000,-0.085000,-3.483168,-0.085000,-3.520257,-0.109782,-3.889557,-0.400914,-4.223835,-0.709917,-4.231612,-0.723388,-4.287648,-0.755741,-4.352352,-0.755741,-4.408388,-0.723388,-4.440741,-0.667352,-4.440741,-0.602648,-4.408388,-0.546612,-4.066622,-0.229500,-3.750000,0.022998,-3.750000,2.541204,-3.864680,2.635320,-3.981581,2.777764,-4.057059,2.918973,
-4.182136,3.083248,-4.410822,3.442198,-4.427688,3.504666,-4.411060,3.567198,-4.365394,3.613038,-4.302926,3.629904,-4.240394,3.613276,-4.194554,3.567610,-4.190552,3.552787,-4.125171,3.450557,-4.121938,3.483385,-4.068447,3.659722,-3.981581,3.822236,-3.864680,3.964680,-3.722236,4.081581,-3.559722,4.168447,-3.383385,4.221938,-3.200000,4.240000,-3.137500,4.223253,-3.091747,4.177500,
-3.075000,4.115000,-3.091747,4.052500,-3.137500,4.006747,-3.200000,3.990000,-3.211471,3.993074,-3.354511,3.976957,-3.501274,3.925602,-3.632930,3.842877,-3.742877,3.732930,-3.825602,3.601274,-3.876957,3.454511,-3.894366,3.300000,-3.876957,3.145489,-3.839657,3.038894,-3.713800,2.875371,-3.594054,2.745000,-2.998152,2.745000,-3.015000,3.045000,-2.998253,3.107500,-2.952500,3.153253,
-2.890000,3.170000,-2.827500,3.153253,-2.781747,3.107500,-2.765000,3.045000,-2.768849,3.030634,-2.752213,2.745000,2.752213,2.745000,2.768849,3.030634,2.765000,3.045000,2.781747,3.107500,2.827500,3.153253,2.890000,3.170000,2.952500,3.153253,2.998253,3.107500,3.015000,3.045000,2.998152,2.745000,3.594234,2.745000,3.703871,2.863608,3.839648,3.038866,3.876957,3.145489,
3.894366,3.300000,3.876957,3.454511,3.825602,3.601274,3.742877,3.732930,3.632930,3.842877,3.501274,3.925602,3.354511,3.976957,3.211471,3.993074,3.200000,3.990000,3.137500,4.006747,3.091747,4.052500,3.075000,4.115000,3.091747,4.177500,3.137500,4.223253,3.200000,4.240000,3.383385,4.221938,3.383385,4.221938,$1*%
%AMFreePoly1*
4,1,43,1.102950,0.110584,1.224483,0.068057,1.333507,-0.000447,1.424553,-0.091493,1.493057,-0.200517,1.535584,-0.322050,1.550000,-0.450000,1.533253,-0.512500,1.487500,-0.558253,1.425000,-0.575000,1.362500,-0.558253,1.316747,-0.512500,1.300000,-0.450000,1.302546,-0.440498,1.287946,-0.348318,1.241208,-0.256589,1.168411,-0.183792,1.076682,-0.137054,0.984502,-0.122454,0.975000,-0.125000,
-0.975000,-0.125000,-0.984502,-0.122454,-1.076682,-0.137054,-1.168411,-0.183792,-1.241208,-0.256589,-1.287946,-0.348318,-1.302546,-0.440498,-1.300000,-0.450000,-1.316747,-0.512500,-1.362500,-0.558253,-1.425000,-0.575000,-1.487500,-0.558253,-1.533253,-0.512500,-1.550000,-0.450000,-1.535584,-0.322050,-1.493057,-0.200517,-1.424553,-0.091493,-1.333507,-0.000447,-1.224483,0.068057,-1.102950,0.110584,
-0.975000,0.125000,0.975000,0.125000,1.102950,0.110584,1.102950,0.110584,$1*%
%AMFreePoly2*
4,1,24,1.812500,0.558253,1.858253,0.512500,1.875000,0.450000,1.860584,0.322050,1.818057,0.200517,1.749553,0.091493,1.658507,0.000447,1.549483,-0.068057,1.427950,-0.110584,1.300000,-0.125000,-1.300000,-0.125000,-1.300000,0.125000,1.300000,0.125000,1.309502,0.122454,1.401682,0.137054,1.493411,0.183792,1.566208,0.256589,1.612946,0.348318,1.627546,0.440498,1.625000,0.450000,
1.641747,0.512500,1.687500,0.558253,1.750000,0.575000,1.812500,0.558253,1.812500,0.558253,$1*%
%AMFreePoly3*
4,1,37,1.095671,1.230970,1.176777,1.176777,1.230970,1.095671,1.250000,1.000000,1.234611,0.804457,1.188821,0.613729,1.113759,0.432512,1.011272,0.265269,0.883885,0.116117,0.734733,-0.011271,0.567490,-0.113758,0.386273,-0.188820,0.195545,-0.234610,0.000002,-0.250000,-0.095669,-0.230970,-0.176775,-0.176777,-0.230968,-0.095671,-0.249998,0.000000,-0.230968,0.095671,-0.176775,0.176777,
-0.095669,0.230970,0.000002,0.250000,0.012204,0.247573,0.147027,0.260852,0.288403,0.303738,0.418695,0.373381,0.532897,0.467104,0.626620,0.581306,0.696263,0.711599,0.739148,0.852974,0.752427,0.987798,0.750000,1.000000,0.769030,1.095671,0.823223,1.176777,0.904329,1.230970,1.000000,1.250000,1.095671,1.230970,1.095671,1.230970,$1*%
%AMFreePoly4*
4,1,72,4.686563,7.086550,4.817878,7.046716,4.938899,6.982029,5.044975,6.894975,5.132029,6.788899,5.196716,6.667878,5.236550,6.536563,5.250000,6.400000,5.250000,1.600000,5.230970,1.504329,5.176777,1.423223,5.112500,1.380275,5.112500,0.250000,6.600000,0.250000,6.695671,0.230970,6.776777,0.176777,6.830970,0.095671,6.850000,0.000000,6.830970,-0.095671,6.776777,-0.176777,
6.695671,-0.230970,6.600000,-0.250000,0.000000,-0.250000,-0.095671,-0.230970,-0.176777,-0.176777,-0.230970,-0.095671,-0.250000,0.000000,-0.230970,0.095671,-0.176777,0.176777,-0.095671,0.230970,0.000000,0.250000,4.612500,0.250000,4.612500,1.600000,4.631530,1.695671,4.685723,1.776777,4.750000,1.819725,4.750000,6.400000,4.751388,6.406978,4.742582,6.462574,4.713820,6.519022,
4.669022,6.563820,4.612574,6.592582,4.556978,6.601388,4.550000,6.600000,1.550000,6.600000,1.543022,6.601388,1.487426,6.592582,1.430978,6.563820,1.386180,6.519022,1.357418,6.462574,1.348612,6.406978,1.350000,6.400000,1.350000,5.900000,1.330970,5.804329,1.276777,5.723223,1.195671,5.669030,1.100000,5.650000,1.004329,5.669030,0.923223,5.723223,0.869030,5.804329,
0.850000,5.900000,0.850000,6.400000,0.863450,6.536563,0.903284,6.667878,0.967971,6.788899,1.055025,6.894975,1.161101,6.982029,1.282122,7.046716,1.413437,7.086550,1.550000,7.100000,4.550000,7.100000,4.686563,7.086550,4.686563,7.086550,$1*%
G04 Aperture macros list end*
%ADD10C,0.080000*%
%TA.AperFunction,NonConductor*%
%ADD11C,0.080000*%
%TD*%
%TA.AperFunction,EtchedComponent*%
%ADD12C,0.080000*%
%TD*%
%TA.AperFunction,EtchedComponent*%
%ADD13C,0.250000*%
%TD*%
%TA.AperFunction,SMDPad,CuDef*%
%ADD14RoundRect,0.256250X0.443750X-0.256250X0.443750X0.256250X-0.443750X0.256250X-0.443750X-0.256250X0*%
%TD*%
%TA.AperFunction,SMDPad,CuDef*%
%ADD15RoundRect,0.247500X0.627500X-0.315000X0.627500X0.315000X-0.627500X0.315000X-0.627500X-0.315000X0*%
%TD*%
%TA.AperFunction,SMDPad,CuDef*%
%ADD16R,1.140000X0.600000*%
%TD*%
%TA.AperFunction,SMDPad,CuDef*%
%ADD17RoundRect,0.075000X0.495000X-0.075000X0.495000X0.075000X-0.495000X0.075000X-0.495000X-0.075000X0*%
%TD*%
%TA.AperFunction,ComponentPad*%
%ADD18C,0.670000*%
%TD*%
%TA.AperFunction,SMDPad,CuDef*%
%ADD19FreePoly0,90.000000*%
%TD*%
%TA.AperFunction,ComponentPad*%
%ADD20C,1.250000*%
%TD*%
%TA.AperFunction,ComponentPad*%
%ADD21C,1.500000*%
%TD*%
%TA.AperFunction,SMDPad,CuDef*%
%ADD22R,5.490000X5.000000*%
%TD*%
%TA.AperFunction,ComponentPad*%
%ADD23R,1.700000X1.700000*%
%TD*%
%TA.AperFunction,ComponentPad*%
%ADD24O,1.700000X1.700000*%
%TD*%
%TA.AperFunction,SMDPad,CuDef*%
%ADD25RoundRect,0.200000X-0.200000X-0.275000X0.200000X-0.275000X0.200000X0.275000X-0.200000X0.275000X0*%
%TD*%
%TA.AperFunction,SMDPad,CuDef*%
%ADD26RoundRect,0.250000X0.375000X0.625000X-0.375000X0.625000X-0.375000X-0.625000X0.375000X-0.625000X0*%
%TD*%
%TA.AperFunction,SMDPad,CuDef*%
%ADD27RoundRect,0.225000X-0.225000X-0.250000X0.225000X-0.250000X0.225000X0.250000X-0.225000X0.250000X0*%
%TD*%
%TA.AperFunction,SMDPad,CuDef*%
%ADD28RoundRect,0.200000X-0.275000X0.200000X-0.275000X-0.200000X0.275000X-0.200000X0.275000X0.200000X0*%
%TD*%
%TA.AperFunction,SMDPad,CuDef*%
%ADD29RoundRect,0.256250X-0.256250X-0.443750X0.256250X-0.443750X0.256250X0.443750X-0.256250X0.443750X0*%
%TD*%
%TA.AperFunction,SMDPad,CuDef*%
%ADD30RoundRect,0.247500X-0.315000X-0.627500X0.315000X-0.627500X0.315000X0.627500X-0.315000X0.627500X0*%
%TD*%
%TA.AperFunction,SMDPad,CuDef*%
%ADD31R,0.650000X0.400000*%
%TD*%
%TA.AperFunction,SMDPad,CuDef*%
%ADD32RoundRect,0.200000X0.275000X-0.200000X0.275000X0.200000X-0.275000X0.200000X-0.275000X-0.200000X0*%
%TD*%
%TA.AperFunction,SMDPad,CuDef*%
%ADD33R,0.850000X0.500000*%
%TD*%
%TA.AperFunction,SMDPad,CuDef*%
%ADD34RoundRect,0.225000X-0.250000X0.225000X-0.250000X-0.225000X0.250000X-0.225000X0.250000X0.225000X0*%
%TD*%
%TA.AperFunction,SMDPad,CuDef*%
%ADD35RoundRect,0.200000X0.200000X0.275000X-0.200000X0.275000X-0.200000X-0.275000X0.200000X-0.275000X0*%
%TD*%
%TA.AperFunction,SMDPad,CuDef*%
%ADD36RoundRect,0.062500X0.062500X-0.287500X0.062500X0.287500X-0.062500X0.287500X-0.062500X-0.287500X0*%
%TD*%
%TA.AperFunction,SMDPad,CuDef*%
%ADD37RoundRect,0.062500X0.287500X-0.062500X0.287500X0.062500X-0.287500X0.062500X-0.287500X-0.062500X0*%
%TD*%
%TA.AperFunction,SMDPad,CuDef*%
%ADD38Outline5P,-1.000000X0.750000X-0.750000X1.000000X1.000000X1.000000X1.000000X-1.000000X-1.000000X-1.000000X90.000000*%
%TD*%
%TA.AperFunction,SMDPad,CuDef*%
%ADD39RoundRect,0.225000X0.250000X-0.225000X0.250000X0.225000X-0.250000X0.225000X-0.250000X-0.225000X0*%
%TD*%
%TA.AperFunction,SMDPad,CuDef*%
%ADD40RoundRect,0.249375X-0.463125X-0.625625X0.463125X-0.625625X0.463125X0.625625X-0.463125X0.625625X0*%
%TD*%
%TA.AperFunction,SMDPad,CuDef*%
%ADD41FreePoly1,0.000000*%
%TD*%
%TA.AperFunction,SMDPad,CuDef*%
%ADD42R,2.000000X0.500000*%
%TD*%
%TA.AperFunction,SMDPad,CuDef*%
%ADD43R,1.425000X3.700000*%
%TD*%
%TA.AperFunction,SMDPad,CuDef*%
%ADD44FreePoly2,0.000000*%
%TD*%
%TA.AperFunction,SMDPad,CuDef*%
%ADD45R,0.600000X1.100000*%
%TD*%
%TA.AperFunction,SMDPad,CuDef*%
%ADD46R,0.500000X2.000000*%
%TD*%
%TA.AperFunction,SMDPad,CuDef*%
%ADD47RoundRect,0.250000X-0.475000X0.250000X-0.475000X-0.250000X0.475000X-0.250000X0.475000X0.250000X0*%
%TD*%
%TA.AperFunction,SMDPad,CuDef*%
%ADD48FreePoly3,0.000000*%
%TD*%
%TA.AperFunction,SMDPad,CuDef*%
%ADD49FreePoly4,0.000000*%
%TD*%
%TA.AperFunction,SMDPad,CuDef*%
%ADD50R,0.500000X4.000000*%
%TD*%
%TA.AperFunction,ComponentPad*%
%ADD51RoundRect,0.250000X0.600000X0.675000X-0.600000X0.675000X-0.600000X-0.675000X0.600000X-0.675000X0*%
%TD*%
%TA.AperFunction,ComponentPad*%
%ADD52O,1.700000X1.850000*%
%TD*%
%TA.AperFunction,ViaPad*%
%ADD53C,0.800000*%
%TD*%
%TA.AperFunction,Conductor*%
%ADD54C,0.250000*%
%TD*%
%TA.AperFunction,Conductor*%
%ADD55C,0.500000*%
%TD*%
G04 APERTURE END LIST*
D10*
D11*
X118123809Y-125338571D02*
X118100000Y-125314761D01*
X118076190Y-125267142D01*
X118076190Y-125148095D01*
X118100000Y-125100476D01*
X118123809Y-125076666D01*
X118171428Y-125052857D01*
X118219047Y-125052857D01*
X118290476Y-125076666D01*
X118576190Y-125362380D01*
X118576190Y-125052857D01*
X118076190Y-124743333D02*
X118076190Y-124695714D01*
X118100000Y-124648095D01*
X118123809Y-124624285D01*
X118171428Y-124600476D01*
X118266666Y-124576666D01*
X118385714Y-124576666D01*
X118480952Y-124600476D01*
X118528571Y-124624285D01*
X118552380Y-124648095D01*
X118576190Y-124695714D01*
X118576190Y-124743333D01*
X118552380Y-124790952D01*
X118528571Y-124814761D01*
X118480952Y-124838571D01*
X118385714Y-124862380D01*
X118266666Y-124862380D01*
X118171428Y-124838571D01*
X118123809Y-124814761D01*
X118100000Y-124790952D01*
X118076190Y-124743333D01*
X118123809Y-124386190D02*
X118100000Y-124362380D01*
X118076190Y-124314761D01*
X118076190Y-124195714D01*
X118100000Y-124148095D01*
X118123809Y-124124285D01*
X118171428Y-124100476D01*
X118219047Y-124100476D01*
X118290476Y-124124285D01*
X118576190Y-124410000D01*
X118576190Y-124100476D01*
X118123809Y-123910000D02*
X118100000Y-123886190D01*
X118076190Y-123838571D01*
X118076190Y-123719523D01*
X118100000Y-123671904D01*
X118123809Y-123648095D01*
X118171428Y-123624285D01*
X118219047Y-123624285D01*
X118290476Y-123648095D01*
X118576190Y-123933809D01*
X118576190Y-123624285D01*
X118385714Y-123410000D02*
X118385714Y-123029047D01*
X118076190Y-122695714D02*
X118076190Y-122648095D01*
X118100000Y-122600476D01*
X118123809Y-122576666D01*
X118171428Y-122552857D01*
X118266666Y-122529047D01*
X118385714Y-122529047D01*
X118480952Y-122552857D01*
X118528571Y-122576666D01*
X118552380Y-122600476D01*
X118576190Y-122648095D01*
X118576190Y-122695714D01*
X118552380Y-122743333D01*
X118528571Y-122767142D01*
X118480952Y-122790952D01*
X118385714Y-122814761D01*
X118266666Y-122814761D01*
X118171428Y-122790952D01*
X118123809Y-122767142D01*
X118100000Y-122743333D01*
X118076190Y-122695714D01*
X118076190Y-122362380D02*
X118076190Y-122052857D01*
X118266666Y-122219523D01*
X118266666Y-122148095D01*
X118290476Y-122100476D01*
X118314285Y-122076666D01*
X118361904Y-122052857D01*
X118480952Y-122052857D01*
X118528571Y-122076666D01*
X118552380Y-122100476D01*
X118576190Y-122148095D01*
X118576190Y-122290952D01*
X118552380Y-122338571D01*
X118528571Y-122362380D01*
X118385714Y-121838571D02*
X118385714Y-121457619D01*
X118076190Y-121124285D02*
X118076190Y-121076666D01*
X118100000Y-121029047D01*
X118123809Y-121005238D01*
X118171428Y-120981428D01*
X118266666Y-120957619D01*
X118385714Y-120957619D01*
X118480952Y-120981428D01*
X118528571Y-121005238D01*
X118552380Y-121029047D01*
X118576190Y-121076666D01*
X118576190Y-121124285D01*
X118552380Y-121171904D01*
X118528571Y-121195714D01*
X118480952Y-121219523D01*
X118385714Y-121243333D01*
X118266666Y-121243333D01*
X118171428Y-121219523D01*
X118123809Y-121195714D01*
X118100000Y-121171904D01*
X118076190Y-121124285D01*
X118076190Y-120529047D02*
X118076190Y-120624285D01*
X118100000Y-120671904D01*
X118123809Y-120695714D01*
X118195238Y-120743333D01*
X118290476Y-120767142D01*
X118480952Y-120767142D01*
X118528571Y-120743333D01*
X118552380Y-120719523D01*
X118576190Y-120671904D01*
X118576190Y-120576666D01*
X118552380Y-120529047D01*
X118528571Y-120505238D01*
X118480952Y-120481428D01*
X118361904Y-120481428D01*
X118314285Y-120505238D01*
X118290476Y-120529047D01*
X118266666Y-120576666D01*
X118266666Y-120671904D01*
X118290476Y-120719523D01*
X118314285Y-120743333D01*
X118361904Y-120767142D01*
D12*
%TO.C,Logo1*%
X124450000Y-105410000D02*
X124550000Y-105410000D01*
D13*
X125300000Y-101200000D02*
X125300000Y-105400000D01*
D12*
X124450000Y-105250000D02*
X124450000Y-105550000D01*
D13*
X127100000Y-101300000D02*
X125300000Y-103300000D01*
X125300000Y-103300000D02*
X127100000Y-105400000D01*
D12*
X124550000Y-105410000D02*
X124650000Y-105550000D01*
D13*
X125300000Y-103300000D02*
X123800000Y-103300000D01*
X125300000Y-101200000D02*
X122300000Y-105400000D01*
D12*
X124450000Y-105250000D02*
X124550000Y-105250000D01*
X124550000Y-105410000D02*
G75*
G03*
X124550000Y-105250000I0J80000D01*
G01*
D13*
X123800000Y-105400000D02*
G75*
G03*
X125300000Y-105400000I750000J0D01*
G01*
D12*
X124830000Y-105410000D02*
G75*
G03*
X124830000Y-105410000I-300000J0D01*
G01*
%TD*%
D14*
%TO.P,R2,1*%
%TO.N,+3V3*%
X130470000Y-125262500D03*
D15*
X130470000Y-125812500D03*
D14*
%TO.P,R2,2*%
%TO.N,IO1*%
X130470000Y-123437500D03*
D15*
X130470000Y-122887500D03*
%TD*%
D14*
%TO.P,R3,1*%
%TO.N,+3V3*%
X127970000Y-125262500D03*
D15*
X127970000Y-125812500D03*
D14*
%TO.P,R3,2*%
%TO.N,IO2*%
X127970000Y-123437500D03*
D15*
X127970000Y-122887500D03*
%TD*%
D14*
%TO.P,R4,1*%
%TO.N,+3V3*%
X125470000Y-125262500D03*
D15*
X125470000Y-125812500D03*
D14*
%TO.P,R4,2*%
%TO.N,IO3*%
X125470000Y-123437500D03*
D15*
X125470000Y-122887500D03*
%TD*%
D14*
%TO.P,R5,1*%
%TO.N,+3V3*%
X122970000Y-125262500D03*
D15*
X122970000Y-125812500D03*
D14*
%TO.P,R5,2*%
%TO.N,IO4*%
X122970000Y-123437500D03*
D15*
X122970000Y-122887500D03*
%TD*%
D14*
%TO.P,R6,1*%
%TO.N,DC*%
X119700000Y-125262500D03*
D15*
X119700000Y-125812500D03*
D14*
%TO.P,R6,2*%
%TO.N,Net-(J1-Pad6)*%
X119700000Y-123437500D03*
D15*
X119700000Y-122887500D03*
%TD*%
D16*
%TO.P,J2,A1,GND*%
%TO.N,GND*%
X129385000Y-114300000D03*
%TO.P,J2,A4,VBUS*%
%TO.N,VBUS*%
X129385000Y-113500000D03*
D17*
%TO.P,J2,A5,CC1*%
%TO.N,Net-(J2-PadA5)*%
X129385000Y-112350000D03*
%TO.P,J2,A6,D+*%
%TO.N,Net-(C4-Pad1)*%
X129385000Y-111350000D03*
%TO.P,J2,A7,D-*%
%TO.N,Net-(C3-Pad1)*%
X129385000Y-110850000D03*
%TO.P,J2,A8,SBU1*%
%TO.N,unconnected-(J2-PadA8)*%
X129385000Y-109850000D03*
D16*
%TO.P,J2,A9,VBUS*%
%TO.N,VBUS*%
X129385000Y-108700000D03*
%TO.P,J2,A12,GND*%
%TO.N,GND*%
X129385000Y-107900000D03*
%TO.P,J2,B1,GND*%
X129385000Y-107900000D03*
%TO.P,J2,B4,VBUS*%
%TO.N,VBUS*%
X129385000Y-108700000D03*
D17*
%TO.P,J2,B5,CC2*%
%TO.N,Net-(J2-PadB5)*%
X129385000Y-109350000D03*
%TO.P,J2,B6,D+*%
%TO.N,Net-(C4-Pad1)*%
X129385000Y-110350000D03*
%TO.P,J2,B7,D-*%
%TO.N,Net-(C3-Pad1)*%
X129385000Y-111850000D03*
%TO.P,J2,B8,SBU2*%
%TO.N,unconnected-(J2-PadB8)*%
X129385000Y-112850000D03*
D16*
%TO.P,J2,B9,VBUS*%
%TO.N,VBUS*%
X129385000Y-113500000D03*
%TO.P,J2,B12,GND*%
%TO.N,GND*%
X129385000Y-114300000D03*
D18*
%TO.P,J2,S1,SHIELD*%
X130455000Y-108210000D03*
D19*
X133500000Y-111100000D03*
D20*
X134135000Y-106780000D03*
D21*
X129965000Y-115420000D03*
D22*
X133500000Y-111100000D03*
D21*
X129965000Y-106780000D03*
D18*
X130455000Y-113990000D03*
D20*
X134135000Y-115420000D03*
%TD*%
D23*
%TO.P,J3,1,Pin_1*%
%TO.N,GND*%
X134000000Y-125800000D03*
D24*
%TO.P,J3,2,Pin_2*%
%TO.N,DC*%
X134000000Y-123260000D03*
%TD*%
D14*
%TO.P,C1,1*%
%TO.N,GND*%
X135000000Y-120012500D03*
D15*
X135000000Y-120562500D03*
D14*
%TO.P,C1,2*%
%TO.N,IO1*%
X135000000Y-118187500D03*
D15*
X135000000Y-117637500D03*
%TD*%
D25*
%TO.P,R10,1*%
%TO.N,Net-(D1-Pad4)*%
X118375000Y-102400000D03*
%TO.P,R10,2*%
%TO.N,B*%
X120025000Y-102400000D03*
%TD*%
D26*
%TO.P,D2,1,K*%
%TO.N,DC*%
X126700000Y-107600000D03*
%TO.P,D2,2,A*%
%TO.N,VBUS*%
X123900000Y-107600000D03*
%TD*%
D27*
%TO.P,C2,1*%
%TO.N,+3V3*%
X117925000Y-106600000D03*
%TO.P,C2,2*%
%TO.N,GND*%
X119475000Y-106600000D03*
%TD*%
D28*
%TO.P,R12,1*%
%TO.N,GND*%
X128100000Y-107675000D03*
%TO.P,R12,2*%
%TO.N,Net-(J2-PadB5)*%
X128100000Y-109325000D03*
%TD*%
D29*
%TO.P,R7,1*%
%TO.N,IO5*%
X119137500Y-117800000D03*
D30*
X118587500Y-117800000D03*
D29*
%TO.P,R7,2*%
%TO.N,Net-(J1-Pad6)*%
X120962500Y-117800000D03*
D30*
X121512500Y-117800000D03*
%TD*%
D31*
%TO.P,D4,1,A1*%
%TO.N,GND*%
X123250000Y-117150000D03*
%TO.P,D4,2,K2*%
%TO.N,+3V3*%
X123250000Y-117800000D03*
%TO.P,D4,3,K1A2*%
%TO.N,IO4*%
X123250000Y-118450000D03*
%TO.P,D4,4,A3*%
%TO.N,GND*%
X125150000Y-118450000D03*
%TO.P,D4,5,K4*%
%TO.N,+3V3*%
X125150000Y-117800000D03*
%TO.P,D4,6,K3A4*%
%TO.N,IO3*%
X125150000Y-117150000D03*
%TD*%
%TO.P,D3,1,A1*%
%TO.N,GND*%
X127500000Y-117150000D03*
%TO.P,D3,2,K2*%
%TO.N,+3V3*%
X127500000Y-117800000D03*
%TO.P,D3,3,K1A2*%
%TO.N,IO2*%
X127500000Y-118450000D03*
%TO.P,D3,4,A3*%
%TO.N,GND*%
X129400000Y-118450000D03*
%TO.P,D3,5,K4*%
%TO.N,+3V3*%
X129400000Y-117800000D03*
%TO.P,D3,6,K3A4*%
%TO.N,IO1*%
X129400000Y-117150000D03*
%TD*%
D28*
%TO.P,R11,1*%
%TO.N,Net-(J2-PadA5)*%
X128100000Y-113575000D03*
%TO.P,R11,2*%
%TO.N,GND*%
X128100000Y-115225000D03*
%TD*%
D32*
%TO.P,R13,1*%
%TO.N,Net-(C3-Pad1)*%
X126900000Y-115225000D03*
%TO.P,R13,2*%
%TO.N,D-*%
X126900000Y-113575000D03*
%TD*%
D28*
%TO.P,R14,1*%
%TO.N,D+*%
X125700000Y-113575000D03*
%TO.P,R14,2*%
%TO.N,Net-(C4-Pad1)*%
X125700000Y-115225000D03*
%TD*%
D33*
%TO.P,D1,1,A*%
%TO.N,+3V3*%
X120075000Y-100200000D03*
%TO.P,D1,2,RK*%
%TO.N,Net-(D1-Pad2)*%
X118325000Y-100200000D03*
%TO.P,D1,3,GK*%
%TO.N,Net-(D1-Pad3)*%
X118325000Y-99200000D03*
%TO.P,D1,4,BK*%
%TO.N,Net-(D1-Pad4)*%
X120075000Y-99200000D03*
%TD*%
D25*
%TO.P,R8,1*%
%TO.N,Net-(D1-Pad2)*%
X118375000Y-101200000D03*
%TO.P,R8,2*%
%TO.N,R*%
X120025000Y-101200000D03*
%TD*%
%TO.P,R9,1*%
%TO.N,Net-(D1-Pad3)*%
X118375000Y-103600000D03*
%TO.P,R9,2*%
%TO.N,G*%
X120025000Y-103600000D03*
%TD*%
D27*
%TO.P,C5,1*%
%TO.N,GND*%
X122925000Y-109300000D03*
%TO.P,C5,2*%
%TO.N,VBUS*%
X124475000Y-109300000D03*
%TD*%
D34*
%TO.P,C3,1*%
%TO.N,Net-(C3-Pad1)*%
X132800000Y-116800000D03*
%TO.P,C3,2*%
%TO.N,GND*%
X132800000Y-118350000D03*
%TD*%
%TO.P,C4,1*%
%TO.N,Net-(C4-Pad1)*%
X131600000Y-116800000D03*
%TO.P,C4,2*%
%TO.N,GND*%
X131600000Y-118350000D03*
%TD*%
D28*
%TO.P,R15,1*%
%TO.N,VBUS*%
X121800000Y-106575000D03*
%TO.P,R15,2*%
%TO.N,Net-(R15-Pad2)*%
X121800000Y-108225000D03*
%TD*%
D35*
%TO.P,R1,1*%
%TO.N,EN*%
X119525000Y-105400000D03*
%TO.P,R1,2*%
%TO.N,+3V3*%
X117875000Y-105400000D03*
%TD*%
D25*
%TO.P,R18,1*%
%TO.N,GND*%
X123575000Y-99600000D03*
%TO.P,R18,2*%
%TO.N,Net-(R17-Pad2)*%
X125225000Y-99600000D03*
%TD*%
D35*
%TO.P,R17,1*%
%TO.N,+3V3*%
X127925000Y-99600000D03*
%TO.P,R17,2*%
%TO.N,Net-(R17-Pad2)*%
X126275000Y-99600000D03*
%TD*%
D32*
%TO.P,R16,1*%
%TO.N,Net-(R15-Pad2)*%
X120600000Y-108225000D03*
%TO.P,R16,2*%
%TO.N,GND*%
X120600000Y-106575000D03*
%TD*%
D36*
%TO.P,U2,1,RXD*%
%TO.N,O*%
X121700000Y-114200000D03*
%TO.P,U2,2,~{RI}*%
%TO.N,GND*%
X122200000Y-114200000D03*
%TO.P,U2,3,GND*%
X122700000Y-114200000D03*
%TO.P,U2,4,~{DSR}*%
X123200000Y-114200000D03*
%TO.P,U2,5,~{DCD}*%
X123700000Y-114200000D03*
D37*
%TO.P,U2,6,~{CTS}*%
X124600000Y-113300000D03*
%TO.P,U2,7,CBUS2*%
%TO.N,unconnected-(U2-Pad7)*%
X124600000Y-112800000D03*
%TO.P,U2,8,USBDP*%
%TO.N,D+*%
X124600000Y-112300000D03*
%TO.P,U2,9,USBDM*%
%TO.N,D-*%
X124600000Y-111800000D03*
%TO.P,U2,10,3V3OUT*%
%TO.N,+3V3*%
X124600000Y-111300000D03*
D36*
%TO.P,U2,11,~{RESET}*%
X123700000Y-110400000D03*
%TO.P,U2,12,VCC*%
X123200000Y-110400000D03*
%TO.P,U2,13,GND*%
%TO.N,GND*%
X122700000Y-110400000D03*
%TO.P,U2,14,CBUS1*%
%TO.N,CHARGER*%
X122200000Y-110400000D03*
%TO.P,U2,15,CBUS0*%
%TO.N,USB*%
X121700000Y-110400000D03*
D37*
%TO.P,U2,16,CBUS3*%
%TO.N,Net-(R15-Pad2)*%
X120800000Y-111300000D03*
%TO.P,U2,17,TXD*%
%TO.N,I*%
X120800000Y-111800000D03*
%TO.P,U2,18,~{DTR}*%
%TO.N,GPIO0*%
X120800000Y-112300000D03*
%TO.P,U2,19,~{RTS}*%
%TO.N,EN*%
X120800000Y-112800000D03*
%TO.P,U2,20,VCCIO*%
%TO.N,+3V3*%
X120800000Y-113300000D03*
D38*
%TO.P,U2,21,GND*%
%TO.N,GND*%
X122700000Y-112300000D03*
%TD*%
D39*
%TO.P,U3,*%
%TO.N,*%
X127960000Y-102775000D03*
D40*
X130857500Y-104920000D03*
D41*
X129585000Y-102200000D03*
D42*
X131960000Y-103100000D03*
D43*
X132460000Y-101800000D03*
D44*
X129260000Y-101300000D03*
D45*
X131010000Y-103100000D03*
D39*
X127960000Y-101225000D03*
D46*
X131010000Y-104050000D03*
D45*
X131010000Y-100400000D03*
%TO.P,U3,1,SHDN*%
%TO.N,DC*%
X129110000Y-103100000D03*
D47*
%TO.P,U3,2,VIN*%
X129210000Y-104350000D03*
D45*
X130060000Y-103100000D03*
D48*
X129000000Y-104300000D03*
D47*
%TO.P,U3,3,GND*%
%TO.N,GND*%
X135460000Y-106250000D03*
X129210000Y-106250000D03*
D49*
X128960000Y-106250000D03*
D40*
X133822500Y-104920000D03*
D45*
X130060000Y-100400000D03*
D50*
%TO.P,U3,4,VOUT*%
%TO.N,+3V3*%
X135460000Y-102550000D03*
D47*
X135460000Y-104350000D03*
D43*
X135460000Y-101800000D03*
D45*
%TO.P,U3,5,FB*%
%TO.N,Net-(R17-Pad2)*%
X129110000Y-100400000D03*
%TD*%
D51*
%TO.P,J1,1,Pin_1*%
%TO.N,GND*%
X132970000Y-120500000D03*
D52*
%TO.P,J1,2,Pin_2*%
%TO.N,IO1*%
X130470000Y-120500000D03*
%TO.P,J1,3,Pin_3*%
%TO.N,IO2*%
X127970000Y-120500000D03*
%TO.P,J1,4,Pin_4*%
%TO.N,IO3*%
X125470000Y-120500000D03*
%TO.P,J1,5,Pin_5*%
%TO.N,IO4*%
X122970000Y-120500000D03*
%TO.P,J1,6,Pin_6*%
%TO.N,Net-(J1-Pad6)*%
X120470000Y-120500000D03*
%TD*%
D53*
%TO.N,GND*%
X133700000Y-118500000D03*
X125400000Y-107300000D03*
X121520001Y-124179999D03*
X124225500Y-99600000D03*
X126900000Y-103400000D03*
X122375000Y-112625000D03*
X123000000Y-105700000D03*
%TO.N,+3V3*%
X124600000Y-110400000D03*
X121560000Y-100100000D03*
X124311618Y-115287020D03*
%TO.N,IO5*%
X119098120Y-114024500D03*
%TO.N,IO3*%
X119875500Y-114656478D03*
%TO.N,O*%
X121324500Y-114562520D03*
%TO.N,I*%
X119799279Y-109251356D03*
%TO.N,EN*%
X122447374Y-100763201D03*
%TO.N,GPIO0*%
X122675500Y-107400000D03*
%TO.N,DC*%
X121251168Y-125928298D03*
X128000000Y-103900000D03*
%TO.N,CHARGER*%
X121400000Y-109400000D03*
%TO.N,USB*%
X121016882Y-110433099D03*
%TO.N,R*%
X120922814Y-101087818D03*
%TO.N,G*%
X120940798Y-103237244D03*
%TO.N,B*%
X120760687Y-102141490D03*
%TO.N,Net-(C4-Pad1)*%
X125818304Y-114598388D03*
X125593726Y-110607296D03*
X131300000Y-115800000D03*
%TO.N,Net-(C3-Pad1)*%
X126882276Y-114597468D03*
X127077230Y-110545028D03*
X132400000Y-115804998D03*
X127077238Y-112187497D03*
%TD*%
D54*
%TO.N,D+*%
X124600000Y-112300000D02*
X125400000Y-112300000D01*
X125700000Y-112600000D02*
X125700000Y-113575000D01*
X125400000Y-112300000D02*
X125700000Y-112600000D01*
%TO.N,GND*%
X123263855Y-100836145D02*
X123263855Y-100920261D01*
X129770000Y-115225000D02*
X129965000Y-115420000D01*
X122200000Y-113100000D02*
X122700000Y-112600000D01*
X124500000Y-124400000D02*
X126700000Y-124400000D01*
X129170010Y-118679990D02*
X129170010Y-124270010D01*
X121800000Y-105800000D02*
X121850480Y-105850480D01*
X123700000Y-114200000D02*
X123700000Y-113300000D01*
X129300000Y-124400000D02*
X131133130Y-124400000D01*
X126700000Y-117550000D02*
X126700000Y-124400000D01*
D55*
X133045000Y-120500000D02*
X135600000Y-120500000D01*
D54*
X121722999Y-121577001D02*
X121722999Y-119922999D01*
X122400010Y-119245988D02*
X121722999Y-119922999D01*
X123200000Y-114200000D02*
X123200000Y-112800000D01*
X131600000Y-118115660D02*
X131600000Y-118350000D01*
X127500000Y-117150000D02*
X127100000Y-117150000D01*
X123575000Y-99600000D02*
X123575000Y-100525000D01*
D55*
X129435000Y-106250000D02*
X129965000Y-106780000D01*
D54*
X128325000Y-107900000D02*
X128100000Y-107675000D01*
X122400010Y-117424990D02*
X122400010Y-119245988D01*
X133700000Y-118500000D02*
X132950000Y-118500000D01*
X122800000Y-102600000D02*
X122800000Y-103800000D01*
X124225500Y-100549500D02*
X124125000Y-100650000D01*
X132533130Y-125800000D02*
X134000000Y-125800000D01*
X123575000Y-99600000D02*
X124225500Y-99600000D01*
D55*
X129200000Y-106250000D02*
X129435000Y-106250000D01*
D54*
X124249999Y-124349999D02*
X124249999Y-118800001D01*
X125150000Y-118450000D02*
X124600000Y-118450000D01*
X124125000Y-100650000D02*
X123575000Y-100650000D01*
X122700000Y-112300000D02*
X123700000Y-113300000D01*
X128100000Y-115225000D02*
X129770000Y-115225000D01*
X121006586Y-105593413D02*
X121300000Y-105300000D01*
X121520001Y-124179999D02*
X121520001Y-121779999D01*
X131133130Y-124400000D02*
X132533130Y-125800000D01*
X121764992Y-124424990D02*
X124475010Y-124424990D01*
X130292170Y-116807830D02*
X131600000Y-118115660D01*
X123100000Y-101084116D02*
X123100000Y-102300000D01*
X124600000Y-113300000D02*
X123700000Y-113300000D01*
X121300000Y-105300000D02*
X122300000Y-104300000D01*
X123250000Y-117150000D02*
X122675000Y-117150000D01*
D55*
X135600000Y-120500000D02*
X135600000Y-125450000D01*
D54*
X122200000Y-114200000D02*
X122200000Y-112800000D01*
X122700000Y-109525000D02*
X122925000Y-109300000D01*
X121300000Y-105300000D02*
X121800000Y-105800000D01*
X121850480Y-105850480D02*
X122636710Y-105850480D01*
X129170010Y-124270010D02*
X129300000Y-124400000D01*
X124500000Y-124400000D02*
X124300000Y-124400000D01*
X132950000Y-118500000D02*
X132800000Y-118350000D01*
X126700000Y-124400000D02*
X129300000Y-124400000D01*
X123575000Y-100525000D02*
X123263855Y-100836145D01*
X124475010Y-124424990D02*
X124500000Y-124400000D01*
X124225500Y-99600000D02*
X124225500Y-100549500D01*
X124300000Y-124400000D02*
X124249999Y-124349999D01*
X122300000Y-104300000D02*
X122800000Y-103800000D01*
D55*
X135250000Y-125800000D02*
X134000000Y-125800000D01*
D54*
X123100000Y-102300000D02*
X122800000Y-102600000D01*
X122200000Y-112800000D02*
X122375000Y-112625000D01*
X122375000Y-112625000D02*
X122700000Y-112300000D01*
X122700000Y-114200000D02*
X122700000Y-112300000D01*
X129385000Y-107900000D02*
X128325000Y-107900000D01*
X129965000Y-115420000D02*
X129965000Y-116017972D01*
X123263855Y-100920261D02*
X123100000Y-101084116D01*
X129400000Y-118450000D02*
X129170010Y-118679990D01*
X122700000Y-112300000D02*
X122700000Y-109525000D01*
X121006586Y-105593413D02*
G75*
G03*
X120600000Y-106575000I981586J-981586D01*
G01*
X123000000Y-105700000D02*
G75*
G02*
X122636710Y-105850480I-363293J363295D01*
G01*
X124249999Y-118800001D02*
G75*
G02*
X124600000Y-118450000I350001J0D01*
G01*
X121700000Y-121600000D02*
G75*
G03*
X121520001Y-121779999I-2J-179997D01*
G01*
X126700000Y-117550000D02*
G75*
G02*
X127100000Y-117150000I399999J1D01*
G01*
D55*
X135250000Y-125800000D02*
G75*
G03*
X135600000Y-125450000I-1J350001D01*
G01*
D54*
X130292170Y-116807830D02*
G75*
G02*
X129965000Y-116017972I789850J789855D01*
G01*
X121722999Y-121577001D02*
G75*
G02*
X121700000Y-121600000I-22998J-1D01*
G01*
X122400010Y-117424990D02*
G75*
G02*
X122675000Y-117150000I274991J-1D01*
G01*
%TO.N,D-*%
X125535704Y-111800000D02*
X126900000Y-113164296D01*
X126900000Y-113164296D02*
X126900000Y-113575000D01*
X124600000Y-111800000D02*
X125535704Y-111800000D01*
%TO.N,+3V3*%
X123700000Y-110400000D02*
X124200000Y-110900000D01*
X135460000Y-101800000D02*
X135460000Y-99460000D01*
X127600000Y-116100000D02*
X125624264Y-116100000D01*
X117875000Y-105400000D02*
X117875000Y-106550000D01*
X117700000Y-113300000D02*
X120800000Y-113300000D01*
X127925000Y-98825000D02*
X127900000Y-98800000D01*
X120078341Y-104600000D02*
X118675000Y-104600000D01*
X128500000Y-117100000D02*
X128500000Y-117000000D01*
X123250000Y-117800000D02*
X124200000Y-117800000D01*
X120600000Y-113300000D02*
X120600000Y-114700000D01*
X124405339Y-115336763D02*
X124361361Y-115336763D01*
X120500000Y-116400000D02*
X123231389Y-116400000D01*
X121412895Y-103812895D02*
X121012895Y-104212895D01*
X127500000Y-117800000D02*
X128500000Y-117800000D01*
X119974520Y-118484312D02*
X119974520Y-116925480D01*
X124361361Y-115336763D02*
X124311618Y-115287020D01*
X135460000Y-99460000D02*
X134800000Y-98800000D01*
X124200000Y-117800000D02*
X125150000Y-117800000D01*
X134800000Y-98800000D02*
X127900000Y-98800000D01*
X121187020Y-115287020D02*
X124311618Y-115287020D01*
X122100000Y-98800000D02*
X127900000Y-98800000D01*
X128500000Y-117800000D02*
X129400000Y-117800000D01*
X117699990Y-126149990D02*
X117699990Y-113299990D01*
D55*
X125470000Y-125812500D02*
X127970000Y-125812500D01*
D54*
X120075000Y-100200000D02*
X121460000Y-100200000D01*
X117699990Y-113299990D02*
X117699990Y-106825010D01*
X122500000Y-127050000D02*
X118600000Y-127050000D01*
X124600000Y-110500000D02*
X124600000Y-110400000D01*
X127925000Y-99600000D02*
X127925000Y-98825000D01*
X121683280Y-100397624D02*
X121683280Y-103160128D01*
X117699990Y-119100010D02*
X119358822Y-119100010D01*
X124200000Y-117227189D02*
X124200000Y-117800000D01*
D55*
X127970000Y-125812500D02*
X130470000Y-125812500D01*
D54*
X124200000Y-110900000D02*
X124600000Y-111300000D01*
X124900000Y-115800000D02*
X124506783Y-115406784D01*
X117700000Y-113300000D02*
X117699990Y-113299990D01*
X122900000Y-125882500D02*
X122900000Y-126650000D01*
X128500000Y-117800000D02*
X128500000Y-117100000D01*
D55*
X122970000Y-125812500D02*
X125470000Y-125812500D01*
D54*
X124200000Y-110900000D02*
X124600000Y-110500000D01*
X123200000Y-110400000D02*
X123700000Y-110400000D01*
X121560000Y-100100000D02*
X121560000Y-99340000D01*
X124900000Y-115800000D02*
G75*
G03*
X125624264Y-116100000I724262J724258D01*
G01*
X117875000Y-105400000D02*
G75*
G02*
X118675000Y-104600000I800001J-1D01*
G01*
X122900000Y-125882500D02*
G75*
G02*
X122970000Y-125812500I70002J-2D01*
G01*
X121412895Y-103812895D02*
G75*
G03*
X121683280Y-103160128I-652774J652770D01*
G01*
X121683280Y-100397624D02*
G75*
G03*
X121560000Y-100100000I-420905J-1D01*
G01*
X123987011Y-116712989D02*
G75*
G03*
X123231389Y-116400000I-755622J-755623D01*
G01*
X127600000Y-116100000D02*
G75*
G02*
X128500000Y-117000000I0J-900000D01*
G01*
X120500000Y-116400000D02*
G75*
G03*
X119974520Y-116925480I2J-525482D01*
G01*
X117699990Y-106825010D02*
G75*
G02*
X117925000Y-106600000I225010J0D01*
G01*
X117925000Y-106600000D02*
G75*
G02*
X117875000Y-106550000I1J50001D01*
G01*
X121560000Y-100100000D02*
G75*
G02*
X121460000Y-100200000I-99999J-1D01*
G01*
X117699990Y-126149990D02*
G75*
G03*
X118600000Y-127050000I900011J1D01*
G01*
X122100000Y-98800000D02*
G75*
G03*
X121560000Y-99340000I-1J-539999D01*
G01*
X121187020Y-115287020D02*
G75*
G02*
X120600000Y-114700000I-1J587019D01*
G01*
X120078341Y-104600000D02*
G75*
G03*
X121012895Y-104212895I4J1321649D01*
G01*
X122500000Y-127050000D02*
G75*
G03*
X122900000Y-126650000I1J399999D01*
G01*
X124405339Y-115336764D02*
G75*
G02*
X124506782Y-115406785I-158429J-338020D01*
G01*
X124199999Y-117227189D02*
G75*
G03*
X123987010Y-116712990I-727187J0D01*
G01*
X119974520Y-118484312D02*
G75*
G02*
X119358822Y-119100010I-615699J1D01*
G01*
%TO.N,VBUS*%
X129870006Y-113500000D02*
X129385000Y-113500000D01*
X127425000Y-108725000D02*
X127125000Y-109025000D01*
X130280001Y-109109995D02*
X130280001Y-113090005D01*
X129385000Y-108700000D02*
X129870006Y-108700000D01*
X126461092Y-109300000D02*
X124475000Y-109300000D01*
X129385000Y-108700000D02*
X129284990Y-108599990D01*
D55*
X124475000Y-108988172D02*
X124475000Y-109300000D01*
D54*
X129284990Y-108599990D02*
X127726800Y-108599990D01*
X121800000Y-106575000D02*
X122856802Y-106575000D01*
X130280001Y-109109995D02*
G75*
G03*
X129870006Y-108700000I-409996J-1D01*
G01*
X126461092Y-109299999D02*
G75*
G03*
X127124999Y-109024999I0J938906D01*
G01*
X127425000Y-108725000D02*
G75*
G02*
X127726800Y-108599990I301800J-301799D01*
G01*
D55*
X124474999Y-108988172D02*
G75*
G03*
X123900000Y-107600000I-1963171J0D01*
G01*
D54*
X129870006Y-113500000D02*
G75*
G03*
X130280001Y-113090005I-1J409996D01*
G01*
X123400000Y-106800000D02*
G75*
G03*
X122856802Y-106575000I-543201J-543205D01*
G01*
%TO.N,IO5*%
X118166106Y-117378606D02*
X118166106Y-114233894D01*
X118587500Y-117800000D02*
X118166106Y-117378606D01*
X119098120Y-114024500D02*
X118375500Y-114024500D01*
X118300000Y-116962500D02*
X119137500Y-117800000D01*
X118166106Y-114233894D02*
G75*
G02*
X118375500Y-114024500I209394J0D01*
G01*
%TO.N,IO4*%
X122970000Y-120500000D02*
X122970000Y-122887500D01*
X123250000Y-118450000D02*
X123250000Y-120220000D01*
X122970000Y-120500000D02*
G75*
G03*
X123250000Y-120220000I0J280000D01*
G01*
%TO.N,IO3*%
X125470000Y-120500000D02*
X125470000Y-122887500D01*
X125150000Y-117150000D02*
X125350000Y-117150000D01*
X120613807Y-115949511D02*
X123383135Y-115949511D01*
X124350000Y-116350000D02*
X125150000Y-117150000D01*
X119875500Y-114656478D02*
X119875500Y-115211204D01*
X125800000Y-117600000D02*
X125800000Y-120170000D01*
X124350000Y-116350000D02*
G75*
G03*
X123383135Y-115949511I-966868J-966870D01*
G01*
X120613807Y-115949511D02*
G75*
G02*
X119875500Y-115211204I0J738307D01*
G01*
X125470000Y-120500000D02*
G75*
G03*
X125800000Y-120170000I-1J330001D01*
G01*
X125800000Y-117600000D02*
G75*
G03*
X125350000Y-117150000I-450000J0D01*
G01*
%TO.N,IO2*%
X127970000Y-120500000D02*
X127970000Y-122887500D01*
X127970000Y-120500000D02*
X127970000Y-118920000D01*
X127500000Y-118450000D02*
G75*
G02*
X127970000Y-118920000I-1J-470001D01*
G01*
%TO.N,IO1*%
X133813499Y-119236501D02*
X132336501Y-119236501D01*
X130470000Y-120500000D02*
X130470000Y-118220000D01*
X130470000Y-120500000D02*
X130470000Y-123437500D01*
X135000000Y-117637500D02*
X135000000Y-118273002D01*
X130505000Y-120500000D02*
X131366861Y-119638139D01*
X135000000Y-118273002D02*
X134194187Y-119078815D01*
X131366861Y-119638139D02*
G75*
G02*
X132336501Y-119236501I969639J-969638D01*
G01*
X129400000Y-117150000D02*
G75*
G02*
X130470000Y-118220000I-1J-1070001D01*
G01*
X133813499Y-119236500D02*
G75*
G03*
X134194186Y-119078814I-1J538376D01*
G01*
X130529748Y-120475251D02*
G75*
G02*
X130470000Y-120500000I-59747J59743D01*
G01*
%TO.N,O*%
X121700000Y-114500000D02*
X121361980Y-114500000D01*
%TO.N,I*%
X119800000Y-111100000D02*
X119800000Y-109252077D01*
X120800000Y-111800000D02*
X120500000Y-111800000D01*
X119800000Y-111100000D02*
G75*
G03*
X120500000Y-111800000I699999J-1D01*
G01*
X119799279Y-109251356D02*
G75*
G02*
X119800000Y-109252077I1J-720D01*
G01*
%TO.N,EN*%
X118418330Y-107640032D02*
X118341269Y-107826076D01*
X118780700Y-105554993D02*
X118728168Y-105645982D01*
X119525000Y-105400000D02*
X119100000Y-105400000D01*
X118854993Y-105480700D02*
X118780700Y-105554993D01*
X122175013Y-103128905D02*
X122175013Y-101035562D01*
X118300000Y-111400000D02*
X118300000Y-108025561D01*
X122175013Y-101035562D02*
X122447374Y-100763201D01*
X118341269Y-107826076D02*
X118301983Y-108023578D01*
X119525000Y-105400000D02*
X119525002Y-105400000D01*
X121123696Y-104737799D02*
X121780747Y-104080747D01*
X118700000Y-107158579D02*
X118699253Y-107203430D01*
X118600000Y-107400000D02*
X118530207Y-107472598D01*
X118945982Y-105428168D02*
X118854993Y-105480700D01*
X120800000Y-112800000D02*
X119700000Y-112800000D01*
X118676036Y-107290074D02*
X118631186Y-107367757D01*
X118530207Y-107472598D02*
X118418330Y-107640032D01*
X119047467Y-105400975D02*
X118945982Y-105428168D01*
X118728168Y-105645982D02*
X118700975Y-105747467D01*
X118700975Y-105747467D02*
X118700000Y-105800000D01*
X118631186Y-107367757D02*
X118600000Y-107400000D01*
X118700000Y-105800000D02*
X118700000Y-107158579D01*
X119100000Y-105400000D02*
X119047467Y-105400975D01*
X118699253Y-107203430D02*
X118676036Y-107290074D01*
X118301983Y-108023578D02*
G75*
G03*
X118300000Y-108025561I1J-1984D01*
G01*
X122175013Y-103128905D02*
G75*
G02*
X121780747Y-104080747I-1346104J-1D01*
G01*
X121123696Y-104737799D02*
G75*
G02*
X119525002Y-105400000I-1598697J1598699D01*
G01*
X118300000Y-111400000D02*
G75*
G03*
X119700000Y-112800000I1400002J2D01*
G01*
%TO.N,Net-(J2-PadA5)*%
X129385000Y-112350000D02*
X128700000Y-112350000D01*
X128100000Y-113575000D02*
X128100000Y-112950000D01*
X128100000Y-112950000D02*
G75*
G02*
X128700000Y-112350000I600000J0D01*
G01*
%TO.N,Net-(J2-PadB5)*%
X129385000Y-109350000D02*
X128125000Y-109350000D01*
X128125000Y-109350000D02*
X128100000Y-109325000D01*
%TO.N,Net-(J1-Pad6)*%
X120962500Y-120007500D02*
X120962500Y-117800000D01*
X120962500Y-119882500D02*
X120345000Y-120500000D01*
X119700000Y-122887500D02*
X119700000Y-121145000D01*
X119700000Y-121145000D02*
X120345000Y-120500000D01*
X119700000Y-121270000D02*
G75*
G02*
X120470000Y-120500000I770001J-1D01*
G01*
X120962500Y-120007500D02*
G75*
G02*
X120470000Y-120500000I-492500J0D01*
G01*
%TO.N,GPIO0*%
X119000000Y-111300000D02*
X119000000Y-108400000D01*
X120800000Y-112300000D02*
X120000000Y-112300000D01*
X120000000Y-107400000D02*
X122675500Y-107400000D01*
X120000000Y-107400000D02*
G75*
G03*
X119000000Y-108400000I-1J-999999D01*
G01*
X119000000Y-111300000D02*
G75*
G03*
X120000000Y-112300000I999999J-1D01*
G01*
%TO.N,Net-(D1-Pad2)*%
X118325000Y-101150000D02*
X118375000Y-101200000D01*
X118325000Y-100200000D02*
X118325000Y-101150000D01*
D55*
%TO.N,DC*%
X126700000Y-107600000D02*
X126700000Y-106600000D01*
X128000000Y-105950000D02*
X128000000Y-105745730D01*
X119815798Y-125928298D02*
X119700000Y-125812500D01*
X126850000Y-106450000D02*
X127500000Y-106450000D01*
X121251168Y-125928298D02*
X119815798Y-125928298D01*
X129210000Y-104350000D02*
X128450000Y-104350000D01*
D54*
X129100000Y-103105000D02*
X130050000Y-103105000D01*
D55*
X128445730Y-105300000D02*
X128700000Y-105300000D01*
X129210000Y-104790000D02*
X129210000Y-104350000D01*
X126850000Y-106450000D02*
G75*
G03*
X126700000Y-106600000I0J-150000D01*
G01*
X128000000Y-103900000D02*
G75*
G03*
X128450000Y-104350000I450000J0D01*
G01*
X128445730Y-105300000D02*
G75*
G03*
X128000000Y-105745730I-1J-445729D01*
G01*
X129210000Y-104790000D02*
G75*
G02*
X128700000Y-105300000I-510002J2D01*
G01*
X128000000Y-105950000D02*
G75*
G02*
X127500000Y-106450000I-500001J1D01*
G01*
D54*
%TO.N,CHARGER*%
X121400000Y-109400000D02*
X121597328Y-109400000D01*
X122200000Y-110002672D02*
X122200000Y-110400000D01*
X122200000Y-110002672D02*
G75*
G03*
X121597328Y-109400000I-602674J-2D01*
G01*
%TO.N,USB*%
X121700000Y-110400000D02*
X121049981Y-110400000D01*
X121049981Y-110400000D02*
X121016882Y-110433099D01*
%TO.N,Net-(R15-Pad2)*%
X120800000Y-111300000D02*
X120650998Y-111300000D01*
X120600000Y-108225000D02*
X120600000Y-109217158D01*
X120600000Y-108225000D02*
X121800000Y-108225000D01*
X120275499Y-110000572D02*
X120275499Y-110924501D01*
X120400000Y-109700000D02*
G75*
G03*
X120600000Y-109217158I-482850J482846D01*
G01*
X120275499Y-110924501D02*
G75*
G03*
X120650998Y-111300000I375499J0D01*
G01*
X120275500Y-110000572D02*
G75*
G02*
X120400001Y-109700001I425072J0D01*
G01*
%TO.N,Net-(D1-Pad3)*%
X118375000Y-103600000D02*
X117975000Y-103600000D01*
X118325000Y-99200000D02*
X118150000Y-99200000D01*
X117574999Y-99775001D02*
X117574999Y-103199999D01*
X117574999Y-99775001D02*
G75*
G02*
X118150000Y-99200000I575001J0D01*
G01*
X117574999Y-103199999D02*
G75*
G03*
X117975000Y-103600000I400002J1D01*
G01*
%TO.N,R*%
X120771558Y-101200000D02*
X120774998Y-101203440D01*
X120771558Y-101200000D02*
X120810632Y-101200000D01*
X120810632Y-101200000D02*
X120922814Y-101087818D01*
X120025000Y-101200000D02*
X120771558Y-101200000D01*
%TO.N,G*%
X120928024Y-103237244D02*
X120940798Y-103237244D01*
X120565268Y-103600000D02*
X120928024Y-103237244D01*
X120025000Y-103600000D02*
X120565268Y-103600000D01*
%TO.N,B*%
X120025000Y-102400000D02*
X120769552Y-102400000D01*
%TO.N,Net-(R17-Pad2)*%
X126275000Y-99600000D02*
X125225000Y-99600000D01*
X126275000Y-99600000D02*
X126654271Y-99979271D01*
X129110000Y-100400000D02*
X127670000Y-100400000D01*
X127670000Y-100400000D02*
G75*
G02*
X126654271Y-99979271I0J1436456D01*
G01*
%TO.N,Net-(C4-Pad1)*%
X125611589Y-110589433D02*
X125593726Y-110607296D01*
X125611589Y-110362316D02*
X125611589Y-110589433D01*
X125617156Y-110630726D02*
X125593726Y-110607296D01*
X126980000Y-109770000D02*
X126413575Y-109770000D01*
X131600000Y-116800000D02*
X131600000Y-116100000D01*
X129385000Y-111350000D02*
X126322383Y-111350000D01*
X127703761Y-110146239D02*
X127573257Y-110015735D01*
X129385000Y-110350000D02*
X128195683Y-110350000D01*
X125617156Y-110852365D02*
X125617156Y-110630726D01*
X125700000Y-114716692D02*
X125700000Y-115225000D01*
X125617157Y-110852365D02*
G75*
G03*
X126322383Y-111349999I707622J254287D01*
G01*
X131300000Y-115800000D02*
G75*
G02*
X131600000Y-116100000I0J-300000D01*
G01*
X125611590Y-110362316D02*
G75*
G02*
X126413575Y-109770001I804077J-249612D01*
G01*
X127703761Y-110146239D02*
G75*
G03*
X128195683Y-110350000I491924J491925D01*
G01*
X125700000Y-114716692D02*
G75*
G02*
X125818304Y-114598388I118302J2D01*
G01*
X126980000Y-109770000D02*
G75*
G02*
X127573257Y-110015735I3J-838984D01*
G01*
%TO.N,Net-(D1-Pad4)*%
X119100010Y-102074990D02*
X119100010Y-99499990D01*
X118375000Y-102400000D02*
X118775000Y-102400000D01*
X120075000Y-99200000D02*
X119400000Y-99200000D01*
X119100010Y-102074990D02*
G75*
G02*
X118775000Y-102400000I-325009J-1D01*
G01*
X119100010Y-99499990D02*
G75*
G02*
X119400000Y-99200000I299990J0D01*
G01*
%TO.N,Net-(C3-Pad1)*%
X132800000Y-116800000D02*
X132800000Y-116204998D01*
X129385000Y-110850000D02*
X127382202Y-110850000D01*
X126900000Y-114615192D02*
X126900000Y-115225000D01*
X129385000Y-111850000D02*
X127414735Y-111850000D01*
X126900000Y-114615192D02*
G75*
G03*
X126882276Y-114597468I-17723J1D01*
G01*
X132400000Y-115804998D02*
G75*
G02*
X132800000Y-116204998I1J-399999D01*
G01*
X127077230Y-110545028D02*
G75*
G03*
X127382202Y-110850000I304971J-1D01*
G01*
X127077238Y-112187497D02*
G75*
G02*
X127414735Y-111850000I337498J-1D01*
G01*
%TD*%
%TA.AperFunction,Conductor*%
%TO.N,GND*%
G36*
X133166121Y-119636003D02*
G01*
X133212614Y-119689659D01*
X133224000Y-119742001D01*
X133224000Y-120227885D01*
X133228475Y-120243124D01*
X133229865Y-120244329D01*
X133237548Y-120246000D01*
X134118104Y-120246000D01*
X134125000Y-120246741D01*
X134125000Y-120247500D01*
X134261086Y-120247500D01*
X134329207Y-120267502D01*
X134342880Y-120283282D01*
X134344514Y-120281396D01*
X134373865Y-120306829D01*
X134381548Y-120308500D01*
X134727885Y-120308500D01*
X134743125Y-120304025D01*
X134754422Y-120290988D01*
X134814148Y-120252604D01*
X134849646Y-120247500D01*
X135128000Y-120247500D01*
X135196121Y-120267502D01*
X135242614Y-120321158D01*
X135254000Y-120373500D01*
X135254000Y-121614885D01*
X135258475Y-121630124D01*
X135259865Y-121631329D01*
X135267548Y-121633000D01*
X135674430Y-121633000D01*
X135680946Y-121632663D01*
X135776194Y-121622780D01*
X135793401Y-121619064D01*
X135864209Y-121624234D01*
X135920981Y-121666866D01*
X135945692Y-121733424D01*
X135946000Y-121742224D01*
X135946000Y-126562575D01*
X135943579Y-126587153D01*
X135941024Y-126600000D01*
X135943445Y-126612172D01*
X135943445Y-126619754D01*
X135942838Y-126632104D01*
X135932882Y-126733188D01*
X135928065Y-126757408D01*
X135892813Y-126873617D01*
X135883369Y-126896418D01*
X135826124Y-127003517D01*
X135812406Y-127024047D01*
X135735374Y-127117909D01*
X135717909Y-127135374D01*
X135624047Y-127212406D01*
X135603517Y-127226124D01*
X135496418Y-127283369D01*
X135473617Y-127292813D01*
X135357408Y-127328065D01*
X135333188Y-127332882D01*
X135232104Y-127342838D01*
X135219754Y-127343445D01*
X135212172Y-127343445D01*
X135200000Y-127341024D01*
X135187153Y-127343579D01*
X135162575Y-127346000D01*
X135135768Y-127346000D01*
X135067647Y-127325998D01*
X135021154Y-127272342D01*
X135011050Y-127202068D01*
X135040544Y-127137488D01*
X135081087Y-127109287D01*
X135080182Y-127107634D01*
X135103649Y-127094786D01*
X135205724Y-127018285D01*
X135218285Y-127005724D01*
X135294786Y-126903649D01*
X135303324Y-126888054D01*
X135348478Y-126767606D01*
X135352105Y-126752351D01*
X135357631Y-126701486D01*
X135358000Y-126694672D01*
X135358000Y-126072115D01*
X135353525Y-126056876D01*
X135352135Y-126055671D01*
X135344452Y-126054000D01*
X132660116Y-126054000D01*
X132644877Y-126058475D01*
X132643672Y-126059865D01*
X132642001Y-126067548D01*
X132642001Y-126694669D01*
X132642371Y-126701490D01*
X132647895Y-126752352D01*
X132651521Y-126767604D01*
X132696676Y-126888054D01*
X132705214Y-126903649D01*
X132781715Y-127005724D01*
X132794276Y-127018285D01*
X132896351Y-127094786D01*
X132919818Y-127107634D01*
X132918687Y-127109700D01*
X132965227Y-127144661D01*
X132989926Y-127211223D01*
X132974718Y-127280571D01*
X132924431Y-127330689D01*
X132864232Y-127346000D01*
X123203608Y-127346000D01*
X123135487Y-127325998D01*
X123088994Y-127272342D01*
X123078890Y-127202068D01*
X123106209Y-127140066D01*
X123147340Y-127089948D01*
X123151267Y-127085163D01*
X123187014Y-127018285D01*
X123220732Y-126955203D01*
X123220733Y-126955200D01*
X123223649Y-126949745D01*
X123268222Y-126802808D01*
X123274098Y-126743149D01*
X123300681Y-126677316D01*
X123358635Y-126636307D01*
X123399491Y-126629499D01*
X123645016Y-126629499D01*
X123648411Y-126629130D01*
X123648416Y-126629130D01*
X123698548Y-126623685D01*
X123698552Y-126623684D01*
X123706406Y-126622831D01*
X123841051Y-126572355D01*
X123890305Y-126535442D01*
X123948942Y-126491496D01*
X123956118Y-126486118D01*
X124042355Y-126371051D01*
X124044497Y-126372656D01*
X124084907Y-126332342D01*
X124145162Y-126317000D01*
X124294838Y-126317000D01*
X124362959Y-126337002D01*
X124395909Y-126372352D01*
X124397645Y-126371051D01*
X124483882Y-126486118D01*
X124491058Y-126491496D01*
X124549696Y-126535442D01*
X124598949Y-126572355D01*
X124607357Y-126575507D01*
X124726199Y-126620059D01*
X124726201Y-126620059D01*
X124733594Y-126622831D01*
X124741442Y-126623684D01*
X124741444Y-126623684D01*
X124791577Y-126629130D01*
X124794983Y-126629500D01*
X125469901Y-126629500D01*
X126145016Y-126629499D01*
X126148411Y-126629130D01*
X126148416Y-126629130D01*
X126198548Y-126623685D01*
X126198552Y-126623684D01*
X126206406Y-126622831D01*
X126341051Y-126572355D01*
X126390305Y-126535442D01*
X126448942Y-126491496D01*
X126456118Y-126486118D01*
X126542355Y-126371051D01*
X126544497Y-126372656D01*
X126584907Y-126332342D01*
X126645162Y-126317000D01*
X126794838Y-126317000D01*
X126862959Y-126337002D01*
X126895909Y-126372352D01*
X126897645Y-126371051D01*
X126983882Y-126486118D01*
X126991058Y-126491496D01*
X127049696Y-126535442D01*
X127098949Y-126572355D01*
X127107357Y-126575507D01*
X127226199Y-126620059D01*
X127226201Y-126620059D01*
X127233594Y-126622831D01*
X127241442Y-126623684D01*
X127241444Y-126623684D01*
X127291577Y-126629130D01*
X127294983Y-126629500D01*
X127969901Y-126629500D01*
X128645016Y-126629499D01*
X128648411Y-126629130D01*
X128648416Y-126629130D01*
X128698548Y-126623685D01*
X128698552Y-126623684D01*
X128706406Y-126622831D01*
X128841051Y-126572355D01*
X128890305Y-126535442D01*
X128948942Y-126491496D01*
X128956118Y-126486118D01*
X129042355Y-126371051D01*
X129044497Y-126372656D01*
X129084907Y-126332342D01*
X129145162Y-126317000D01*
X129294838Y-126317000D01*
X129362959Y-126337002D01*
X129395909Y-126372352D01*
X129397645Y-126371051D01*
X129483882Y-126486118D01*
X129491058Y-126491496D01*
X129549696Y-126535442D01*
X129598949Y-126572355D01*
X129607357Y-126575507D01*
X129726199Y-126620059D01*
X129726201Y-126620059D01*
X129733594Y-126622831D01*
X129741442Y-126623684D01*
X129741444Y-126623684D01*
X129791577Y-126629130D01*
X129794983Y-126629500D01*
X130469901Y-126629500D01*
X131145016Y-126629499D01*
X131148411Y-126629130D01*
X131148416Y-126629130D01*
X131198548Y-126623685D01*
X131198552Y-126623684D01*
X131206406Y-126622831D01*
X131341051Y-126572355D01*
X131390305Y-126535442D01*
X131448942Y-126491496D01*
X131456118Y-126486118D01*
X131542355Y-126371051D01*
X131576782Y-126279216D01*
X131590059Y-126243801D01*
X131590059Y-126243799D01*
X131592831Y-126236406D01*
X131599500Y-126175017D01*
X131599499Y-125527885D01*
X132642000Y-125527885D01*
X132646475Y-125543124D01*
X132647865Y-125544329D01*
X132655548Y-125546000D01*
X135339884Y-125546000D01*
X135355123Y-125541525D01*
X135356328Y-125540135D01*
X135357999Y-125532452D01*
X135357999Y-124905331D01*
X135357629Y-124898510D01*
X135352105Y-124847648D01*
X135348479Y-124832396D01*
X135303324Y-124711946D01*
X135294786Y-124696351D01*
X135218285Y-124594276D01*
X135205724Y-124581715D01*
X135103649Y-124505214D01*
X135088054Y-124496676D01*
X134967606Y-124451522D01*
X134952351Y-124447895D01*
X134901486Y-124442369D01*
X134894672Y-124442000D01*
X134632846Y-124442000D01*
X134564725Y-124421998D01*
X134518232Y-124368342D01*
X134508128Y-124298068D01*
X134537622Y-124233488D01*
X134571275Y-124206069D01*
X134628276Y-124174147D01*
X134690934Y-124122035D01*
X134779913Y-124048031D01*
X134784345Y-124044345D01*
X134869843Y-123941546D01*
X134910453Y-123892718D01*
X134910455Y-123892715D01*
X134914147Y-123888276D01*
X134973845Y-123781677D01*
X135010510Y-123716208D01*
X135010511Y-123716206D01*
X135013334Y-123711165D01*
X135015190Y-123705698D01*
X135015192Y-123705693D01*
X135076728Y-123524414D01*
X135076729Y-123524409D01*
X135078584Y-123518945D01*
X135079412Y-123513236D01*
X135079413Y-123513231D01*
X135107179Y-123321727D01*
X135107712Y-123318053D01*
X135109232Y-123260000D01*
X135090658Y-123057859D01*
X135089090Y-123052299D01*
X135037125Y-122868046D01*
X135037124Y-122868044D01*
X135035557Y-122862487D01*
X135024978Y-122841033D01*
X134948331Y-122685609D01*
X134945776Y-122680428D01*
X134824320Y-122517779D01*
X134675258Y-122379987D01*
X134670375Y-122376906D01*
X134670371Y-122376903D01*
X134508464Y-122274748D01*
X134503581Y-122271667D01*
X134315039Y-122196446D01*
X134309379Y-122195320D01*
X134309375Y-122195319D01*
X134121613Y-122157971D01*
X134121610Y-122157971D01*
X134115946Y-122156844D01*
X134110171Y-122156768D01*
X134110167Y-122156768D01*
X134008793Y-122155441D01*
X133912971Y-122154187D01*
X133907274Y-122155166D01*
X133907273Y-122155166D01*
X133718607Y-122187585D01*
X133712910Y-122188564D01*
X133522463Y-122258824D01*
X133348010Y-122362612D01*
X133343670Y-122366418D01*
X133343666Y-122366421D01*
X133223911Y-122471444D01*
X133195392Y-122496455D01*
X133191817Y-122500990D01*
X133191816Y-122500991D01*
X133170209Y-122528400D01*
X133069720Y-122655869D01*
X133067031Y-122660980D01*
X133067029Y-122660983D01*
X133054073Y-122685609D01*
X132975203Y-122835515D01*
X132915007Y-123029378D01*
X132891148Y-123230964D01*
X132904424Y-123433522D01*
X132905845Y-123439118D01*
X132905846Y-123439123D01*
X132937021Y-123561872D01*
X132954392Y-123630269D01*
X132956809Y-123635512D01*
X132994010Y-123716208D01*
X133039377Y-123814616D01*
X133042710Y-123819332D01*
X133129082Y-123941546D01*
X133156533Y-123980389D01*
X133301938Y-124122035D01*
X133306742Y-124125245D01*
X133435436Y-124211236D01*
X133480964Y-124265713D01*
X133489812Y-124336156D01*
X133459170Y-124400200D01*
X133398768Y-124437512D01*
X133365434Y-124442001D01*
X133105331Y-124442001D01*
X133098510Y-124442371D01*
X133047648Y-124447895D01*
X133032396Y-124451521D01*
X132911946Y-124496676D01*
X132896351Y-124505214D01*
X132794276Y-124581715D01*
X132781715Y-124594276D01*
X132705214Y-124696351D01*
X132696676Y-124711946D01*
X132651522Y-124832394D01*
X132647895Y-124847649D01*
X132642369Y-124898514D01*
X132642000Y-124905328D01*
X132642000Y-125527885D01*
X131599499Y-125527885D01*
X131599499Y-125449984D01*
X131598784Y-125443401D01*
X131593685Y-125396452D01*
X131593684Y-125396448D01*
X131592831Y-125388594D01*
X131542355Y-125253949D01*
X131456118Y-125138882D01*
X131457124Y-125138128D01*
X131427379Y-125083655D01*
X131424500Y-125056872D01*
X131424500Y-124957904D01*
X131417715Y-124895446D01*
X131399797Y-124847649D01*
X131369512Y-124766863D01*
X131369510Y-124766859D01*
X131366359Y-124758454D01*
X131360973Y-124751267D01*
X131360479Y-124750365D01*
X131345000Y-124689857D01*
X131345000Y-124010143D01*
X131360479Y-123949635D01*
X131360973Y-123948733D01*
X131366359Y-123941546D01*
X131369510Y-123933141D01*
X131369512Y-123933137D01*
X131414943Y-123811949D01*
X131414943Y-123811947D01*
X131417715Y-123804554D01*
X131424500Y-123742096D01*
X131424500Y-123643128D01*
X131444502Y-123575007D01*
X131455050Y-123561918D01*
X131456118Y-123561118D01*
X131542355Y-123446051D01*
X131588962Y-123321727D01*
X131590059Y-123318801D01*
X131590059Y-123318799D01*
X131592831Y-123311406D01*
X131595675Y-123285232D01*
X131599131Y-123253414D01*
X131599131Y-123253413D01*
X131599500Y-123250017D01*
X131599499Y-122524984D01*
X131599130Y-122521584D01*
X131593685Y-122471452D01*
X131593684Y-122471448D01*
X131592831Y-122463594D01*
X131542355Y-122328949D01*
X131456118Y-122213882D01*
X131421030Y-122187585D01*
X131348234Y-122133028D01*
X131348233Y-122133027D01*
X131341051Y-122127645D01*
X131328705Y-122123017D01*
X131213801Y-122079941D01*
X131213799Y-122079941D01*
X131206406Y-122077169D01*
X131198558Y-122076316D01*
X131198556Y-122076316D01*
X131148414Y-122070869D01*
X131148413Y-122070869D01*
X131145017Y-122070500D01*
X130975500Y-122070500D01*
X130907379Y-122050498D01*
X130860886Y-121996842D01*
X130849500Y-121944500D01*
X130849500Y-121696891D01*
X130869502Y-121628770D01*
X130923349Y-121582190D01*
X130961415Y-121564882D01*
X131023084Y-121536843D01*
X131194986Y-121414904D01*
X131332184Y-121271585D01*
X131336583Y-121266990D01*
X131340728Y-121262660D01*
X131368393Y-121219814D01*
X131383553Y-121196336D01*
X131437308Y-121149958D01*
X131507604Y-121140005D01*
X131572121Y-121169637D01*
X131610377Y-121229445D01*
X131614732Y-121251681D01*
X131622257Y-121324206D01*
X131625149Y-121337600D01*
X131676588Y-121491784D01*
X131682761Y-121504962D01*
X131768063Y-121642807D01*
X131777099Y-121654208D01*
X131891829Y-121768739D01*
X131903240Y-121777751D01*
X132041243Y-121862816D01*
X132054424Y-121868963D01*
X132208710Y-121920138D01*
X132222086Y-121923005D01*
X132316438Y-121932672D01*
X132322854Y-121933000D01*
X132697885Y-121933000D01*
X132713124Y-121928525D01*
X132714329Y-121927135D01*
X132716000Y-121919452D01*
X132716000Y-121914884D01*
X133224000Y-121914884D01*
X133228475Y-121930123D01*
X133229865Y-121931328D01*
X133237548Y-121932999D01*
X133617095Y-121932999D01*
X133623614Y-121932662D01*
X133719206Y-121922743D01*
X133732600Y-121919851D01*
X133886784Y-121868412D01*
X133899962Y-121862239D01*
X134037807Y-121776937D01*
X134049213Y-121767897D01*
X134154357Y-121662571D01*
X134216639Y-121628492D01*
X134256371Y-121626245D01*
X134319105Y-121632672D01*
X134325521Y-121633000D01*
X134727885Y-121633000D01*
X134743124Y-121628525D01*
X134744329Y-121627135D01*
X134746000Y-121619452D01*
X134746000Y-120834615D01*
X134741525Y-120819376D01*
X134740135Y-120818171D01*
X134732452Y-120816500D01*
X133684355Y-120816500D01*
X133616234Y-120796498D01*
X133601691Y-120779714D01*
X133600486Y-120781104D01*
X133571135Y-120755671D01*
X133563452Y-120754000D01*
X133242115Y-120754000D01*
X133226876Y-120758475D01*
X133225671Y-120759865D01*
X133224000Y-120767548D01*
X133224000Y-121914884D01*
X132716000Y-121914884D01*
X132716000Y-119742001D01*
X132736002Y-119673880D01*
X132789658Y-119627387D01*
X132842000Y-119616001D01*
X133098000Y-119616001D01*
X133166121Y-119636003D01*
G37*
%TD.AperFunction*%
%TA.AperFunction,Conductor*%
G36*
X122538011Y-117685544D02*
G01*
X122556324Y-117705203D01*
X122556713Y-117705722D01*
X122569272Y-117718281D01*
X122620065Y-117756348D01*
X122662580Y-117813208D01*
X122670500Y-117857174D01*
X122670501Y-117955757D01*
X122670501Y-118025066D01*
X122671709Y-118031138D01*
X122685266Y-118099301D01*
X122681066Y-118100136D01*
X122686157Y-118147324D01*
X122685172Y-118150680D01*
X122685266Y-118150699D01*
X122670500Y-118224933D01*
X122670501Y-118675066D01*
X122675757Y-118701490D01*
X122680805Y-118726870D01*
X122685266Y-118749301D01*
X122692161Y-118759620D01*
X122692162Y-118759622D01*
X122710785Y-118787493D01*
X122741516Y-118833484D01*
X122793553Y-118868254D01*
X122814502Y-118882252D01*
X122860030Y-118936729D01*
X122870500Y-118987017D01*
X122870500Y-119213607D01*
X122850498Y-119281728D01*
X122796842Y-119328221D01*
X122774020Y-119336100D01*
X122614609Y-119374517D01*
X122614602Y-119374520D01*
X122608774Y-119375924D01*
X122603316Y-119378406D01*
X122603312Y-119378407D01*
X122488706Y-119430516D01*
X122416916Y-119463157D01*
X122245014Y-119585096D01*
X122099272Y-119737340D01*
X122082039Y-119764029D01*
X121998449Y-119893488D01*
X121984948Y-119914397D01*
X121906166Y-120109878D01*
X121865771Y-120316729D01*
X121865500Y-120322270D01*
X121865500Y-120627659D01*
X121880493Y-120784806D01*
X121939823Y-120987042D01*
X121942573Y-120992381D01*
X122025351Y-121153104D01*
X122036324Y-121174410D01*
X122040028Y-121179125D01*
X122162808Y-121335432D01*
X122162812Y-121335436D01*
X122166514Y-121340149D01*
X122171044Y-121344080D01*
X122171045Y-121344081D01*
X122321165Y-121474350D01*
X122321170Y-121474354D01*
X122325696Y-121478281D01*
X122508126Y-121583819D01*
X122513791Y-121585786D01*
X122516953Y-121587234D01*
X122570564Y-121633779D01*
X122590500Y-121701797D01*
X122590500Y-121944501D01*
X122570498Y-122012622D01*
X122516842Y-122059115D01*
X122464500Y-122070501D01*
X122294984Y-122070501D01*
X122291589Y-122070870D01*
X122291584Y-122070870D01*
X122241452Y-122076315D01*
X122241448Y-122076316D01*
X122233594Y-122077169D01*
X122098949Y-122127645D01*
X122091767Y-122133027D01*
X122091766Y-122133028D01*
X122018970Y-122187585D01*
X121983882Y-122213882D01*
X121897645Y-122328949D01*
X121894493Y-122337357D01*
X121849944Y-122456193D01*
X121847169Y-122463594D01*
X121846316Y-122471442D01*
X121846316Y-122471444D01*
X121844013Y-122492648D01*
X121840500Y-122524983D01*
X121840501Y-123250016D01*
X121840870Y-123253411D01*
X121840870Y-123253416D01*
X121846315Y-123303548D01*
X121846316Y-123303552D01*
X121847169Y-123311406D01*
X121897645Y-123446051D01*
X121978656Y-123554145D01*
X121983882Y-123561118D01*
X121982876Y-123561872D01*
X122012621Y-123616345D01*
X122015500Y-123643128D01*
X122015500Y-123742096D01*
X122022285Y-123804554D01*
X122025057Y-123811947D01*
X122025057Y-123811949D01*
X122070488Y-123933137D01*
X122070490Y-123933141D01*
X122073641Y-123941546D01*
X122079027Y-123948733D01*
X122079521Y-123949635D01*
X122095000Y-124010143D01*
X122095000Y-124689857D01*
X122079521Y-124750365D01*
X122079027Y-124751267D01*
X122073641Y-124758454D01*
X122070490Y-124766859D01*
X122070488Y-124766863D01*
X122040203Y-124847649D01*
X122022285Y-124895446D01*
X122015500Y-124957904D01*
X122015500Y-125056872D01*
X121995498Y-125124993D01*
X121984950Y-125138082D01*
X121983882Y-125138882D01*
X121897645Y-125253949D01*
X121894494Y-125262354D01*
X121894493Y-125262356D01*
X121857163Y-125361936D01*
X121814522Y-125418701D01*
X121747960Y-125443401D01*
X121678612Y-125428194D01*
X121655362Y-125411783D01*
X121633119Y-125391965D01*
X121633113Y-125391961D01*
X121627443Y-125386909D01*
X121620057Y-125382998D01*
X121494156Y-125316337D01*
X121494157Y-125316337D01*
X121487442Y-125312782D01*
X121333801Y-125274190D01*
X121326202Y-125274150D01*
X121326201Y-125274150D01*
X121260349Y-125273805D01*
X121175389Y-125273360D01*
X121168009Y-125275132D01*
X121168007Y-125275132D01*
X121028731Y-125308569D01*
X121028728Y-125308570D01*
X121021352Y-125310341D01*
X121014607Y-125313822D01*
X121014608Y-125313822D01*
X120956435Y-125343847D01*
X120886727Y-125357316D01*
X120820804Y-125330961D01*
X120780663Y-125276111D01*
X120775507Y-125262357D01*
X120772355Y-125253949D01*
X120686118Y-125138882D01*
X120687124Y-125138128D01*
X120657379Y-125083655D01*
X120654500Y-125056872D01*
X120654500Y-124957904D01*
X120647715Y-124895446D01*
X120629797Y-124847649D01*
X120599512Y-124766863D01*
X120599510Y-124766859D01*
X120596359Y-124758454D01*
X120590973Y-124751267D01*
X120590479Y-124750365D01*
X120575000Y-124689857D01*
X120575000Y-124010143D01*
X120590479Y-123949635D01*
X120590973Y-123948733D01*
X120596359Y-123941546D01*
X120599510Y-123933141D01*
X120599512Y-123933137D01*
X120644943Y-123811949D01*
X120644943Y-123811947D01*
X120647715Y-123804554D01*
X120654500Y-123742096D01*
X120654500Y-123643128D01*
X120674502Y-123575007D01*
X120685050Y-123561918D01*
X120686118Y-123561118D01*
X120772355Y-123446051D01*
X120818962Y-123321727D01*
X120820059Y-123318801D01*
X120820059Y-123318799D01*
X120822831Y-123311406D01*
X120825675Y-123285232D01*
X120829131Y-123253414D01*
X120829131Y-123253413D01*
X120829500Y-123250017D01*
X120829499Y-122524984D01*
X120829130Y-122521584D01*
X120823685Y-122471452D01*
X120823684Y-122471448D01*
X120822831Y-122463594D01*
X120772355Y-122328949D01*
X120686118Y-122213882D01*
X120651030Y-122187585D01*
X120578234Y-122133028D01*
X120578233Y-122133027D01*
X120571051Y-122127645D01*
X120558705Y-122123017D01*
X120443801Y-122079941D01*
X120443799Y-122079941D01*
X120436406Y-122077169D01*
X120428558Y-122076316D01*
X120428556Y-122076316D01*
X120378414Y-122070869D01*
X120378413Y-122070869D01*
X120375017Y-122070500D01*
X120205500Y-122070500D01*
X120137379Y-122050498D01*
X120090886Y-121996842D01*
X120079500Y-121944500D01*
X120079500Y-121780025D01*
X120099502Y-121711904D01*
X120153158Y-121665411D01*
X120223580Y-121655329D01*
X120409860Y-121682338D01*
X120409863Y-121682338D01*
X120415800Y-121683199D01*
X120626333Y-121673455D01*
X120632157Y-121672051D01*
X120632160Y-121672051D01*
X120825393Y-121625482D01*
X120825395Y-121625481D01*
X120831226Y-121624076D01*
X120836684Y-121621594D01*
X120836688Y-121621593D01*
X120951294Y-121569484D01*
X121023084Y-121536843D01*
X121194986Y-121414904D01*
X121332184Y-121271585D01*
X121336583Y-121266990D01*
X121340728Y-121262660D01*
X121400792Y-121169637D01*
X121451800Y-121090640D01*
X121451801Y-121090637D01*
X121455052Y-121085603D01*
X121533834Y-120890122D01*
X121574229Y-120683271D01*
X121574500Y-120677730D01*
X121574500Y-120372341D01*
X121559507Y-120215194D01*
X121500177Y-120012958D01*
X121447063Y-119909831D01*
X121406422Y-119830921D01*
X121406420Y-119830918D01*
X121403676Y-119825590D01*
X121368914Y-119781336D01*
X121342564Y-119715410D01*
X121342000Y-119703503D01*
X121342000Y-119055500D01*
X121362002Y-118987379D01*
X121415658Y-118940886D01*
X121468000Y-118929500D01*
X121860939Y-118929499D01*
X121875016Y-118929499D01*
X121878411Y-118929130D01*
X121878416Y-118929130D01*
X121928548Y-118923685D01*
X121928552Y-118923684D01*
X121936406Y-118922831D01*
X122071051Y-118872355D01*
X122082093Y-118864080D01*
X122178942Y-118791496D01*
X122186118Y-118786118D01*
X122222835Y-118737126D01*
X122266972Y-118678234D01*
X122266973Y-118678233D01*
X122272355Y-118671051D01*
X122301489Y-118593337D01*
X122320059Y-118543801D01*
X122320059Y-118543799D01*
X122322831Y-118536406D01*
X122329500Y-118475017D01*
X122329499Y-117780767D01*
X122349501Y-117712648D01*
X122403157Y-117666155D01*
X122473430Y-117656051D01*
X122538011Y-117685544D01*
G37*
%TD.AperFunction*%
%TA.AperFunction,Conductor*%
G36*
X124312313Y-123221710D02*
G01*
X124344023Y-123285232D01*
X124345263Y-123293859D01*
X124347169Y-123311406D01*
X124397645Y-123446051D01*
X124478656Y-123554145D01*
X124483882Y-123561118D01*
X124482876Y-123561872D01*
X124512621Y-123616345D01*
X124515500Y-123643128D01*
X124515500Y-123742096D01*
X124522285Y-123804554D01*
X124525057Y-123811947D01*
X124525057Y-123811949D01*
X124570488Y-123933137D01*
X124570490Y-123933141D01*
X124573641Y-123941546D01*
X124579027Y-123948733D01*
X124579521Y-123949635D01*
X124595000Y-124010143D01*
X124595000Y-124689857D01*
X124579521Y-124750365D01*
X124579027Y-124751267D01*
X124573641Y-124758454D01*
X124570490Y-124766859D01*
X124570488Y-124766863D01*
X124540203Y-124847649D01*
X124522285Y-124895446D01*
X124515500Y-124957904D01*
X124515500Y-125056872D01*
X124495498Y-125124993D01*
X124484950Y-125138082D01*
X124483882Y-125138882D01*
X124397645Y-125253949D01*
X124395503Y-125252344D01*
X124355093Y-125292658D01*
X124294838Y-125308000D01*
X124145162Y-125308000D01*
X124077041Y-125287998D01*
X124044091Y-125252648D01*
X124042355Y-125253949D01*
X123961496Y-125146058D01*
X123956118Y-125138882D01*
X123957124Y-125138128D01*
X123927379Y-125083655D01*
X123924500Y-125056872D01*
X123924500Y-124957904D01*
X123917715Y-124895446D01*
X123899797Y-124847649D01*
X123869512Y-124766863D01*
X123869510Y-124766859D01*
X123866359Y-124758454D01*
X123860973Y-124751267D01*
X123860479Y-124750365D01*
X123845000Y-124689857D01*
X123845000Y-124010143D01*
X123860479Y-123949635D01*
X123860973Y-123948733D01*
X123866359Y-123941546D01*
X123869510Y-123933141D01*
X123869512Y-123933137D01*
X123914943Y-123811949D01*
X123914943Y-123811947D01*
X123917715Y-123804554D01*
X123924500Y-123742096D01*
X123924500Y-123643128D01*
X123944502Y-123575007D01*
X123955050Y-123561918D01*
X123956118Y-123561118D01*
X124042355Y-123446051D01*
X124088962Y-123321727D01*
X124090059Y-123318801D01*
X124090059Y-123318799D01*
X124092831Y-123311406D01*
X124094737Y-123293861D01*
X124121978Y-123228298D01*
X124180341Y-123187871D01*
X124251295Y-123185415D01*
X124312313Y-123221710D01*
G37*
%TD.AperFunction*%
%TA.AperFunction,Conductor*%
G36*
X126812313Y-123221710D02*
G01*
X126844023Y-123285232D01*
X126845263Y-123293859D01*
X126847169Y-123311406D01*
X126897645Y-123446051D01*
X126978656Y-123554145D01*
X126983882Y-123561118D01*
X126982876Y-123561872D01*
X127012621Y-123616345D01*
X127015500Y-123643128D01*
X127015500Y-123742096D01*
X127022285Y-123804554D01*
X127025057Y-123811947D01*
X127025057Y-123811949D01*
X127070488Y-123933137D01*
X127070490Y-123933141D01*
X127073641Y-123941546D01*
X127079027Y-123948733D01*
X127079521Y-123949635D01*
X127095000Y-124010143D01*
X127095000Y-124689857D01*
X127079521Y-124750365D01*
X127079027Y-124751267D01*
X127073641Y-124758454D01*
X127070490Y-124766859D01*
X127070488Y-124766863D01*
X127040203Y-124847649D01*
X127022285Y-124895446D01*
X127015500Y-124957904D01*
X127015500Y-125056872D01*
X126995498Y-125124993D01*
X126984950Y-125138082D01*
X126983882Y-125138882D01*
X126897645Y-125253949D01*
X126895503Y-125252344D01*
X126855093Y-125292658D01*
X126794838Y-125308000D01*
X126645162Y-125308000D01*
X126577041Y-125287998D01*
X126544091Y-125252648D01*
X126542355Y-125253949D01*
X126461496Y-125146058D01*
X126456118Y-125138882D01*
X126457124Y-125138128D01*
X126427379Y-125083655D01*
X126424500Y-125056872D01*
X126424500Y-124957904D01*
X126417715Y-124895446D01*
X126399797Y-124847649D01*
X126369512Y-124766863D01*
X126369510Y-124766859D01*
X126366359Y-124758454D01*
X126360973Y-124751267D01*
X126360479Y-124750365D01*
X126345000Y-124689857D01*
X126345000Y-124010143D01*
X126360479Y-123949635D01*
X126360973Y-123948733D01*
X126366359Y-123941546D01*
X126369510Y-123933141D01*
X126369512Y-123933137D01*
X126414943Y-123811949D01*
X126414943Y-123811947D01*
X126417715Y-123804554D01*
X126424500Y-123742096D01*
X126424500Y-123643128D01*
X126444502Y-123575007D01*
X126455050Y-123561918D01*
X126456118Y-123561118D01*
X126542355Y-123446051D01*
X126588962Y-123321727D01*
X126590059Y-123318801D01*
X126590059Y-123318799D01*
X126592831Y-123311406D01*
X126594737Y-123293861D01*
X126621978Y-123228298D01*
X126680341Y-123187871D01*
X126751295Y-123185415D01*
X126812313Y-123221710D01*
G37*
%TD.AperFunction*%
%TA.AperFunction,Conductor*%
G36*
X129312313Y-123221710D02*
G01*
X129344023Y-123285232D01*
X129345263Y-123293859D01*
X129347169Y-123311406D01*
X129397645Y-123446051D01*
X129478656Y-123554145D01*
X129483882Y-123561118D01*
X129482876Y-123561872D01*
X129512621Y-123616345D01*
X129515500Y-123643128D01*
X129515500Y-123742096D01*
X129522285Y-123804554D01*
X129525057Y-123811947D01*
X129525057Y-123811949D01*
X129570488Y-123933137D01*
X129570490Y-123933141D01*
X129573641Y-123941546D01*
X129579027Y-123948733D01*
X129579521Y-123949635D01*
X129595000Y-124010143D01*
X129595000Y-124689857D01*
X129579521Y-124750365D01*
X129579027Y-124751267D01*
X129573641Y-124758454D01*
X129570490Y-124766859D01*
X129570488Y-124766863D01*
X129540203Y-124847649D01*
X129522285Y-124895446D01*
X129515500Y-124957904D01*
X129515500Y-125056872D01*
X129495498Y-125124993D01*
X129484950Y-125138082D01*
X129483882Y-125138882D01*
X129397645Y-125253949D01*
X129395503Y-125252344D01*
X129355093Y-125292658D01*
X129294838Y-125308000D01*
X129145162Y-125308000D01*
X129077041Y-125287998D01*
X129044091Y-125252648D01*
X129042355Y-125253949D01*
X128961496Y-125146058D01*
X128956118Y-125138882D01*
X128957124Y-125138128D01*
X128927379Y-125083655D01*
X128924500Y-125056872D01*
X128924500Y-124957904D01*
X128917715Y-124895446D01*
X128899797Y-124847649D01*
X128869512Y-124766863D01*
X128869510Y-124766859D01*
X128866359Y-124758454D01*
X128860973Y-124751267D01*
X128860479Y-124750365D01*
X128845000Y-124689857D01*
X128845000Y-124010143D01*
X128860479Y-123949635D01*
X128860973Y-123948733D01*
X128866359Y-123941546D01*
X128869510Y-123933141D01*
X128869512Y-123933137D01*
X128914943Y-123811949D01*
X128914943Y-123811947D01*
X128917715Y-123804554D01*
X128924500Y-123742096D01*
X128924500Y-123643128D01*
X128944502Y-123575007D01*
X128955050Y-123561918D01*
X128956118Y-123561118D01*
X129042355Y-123446051D01*
X129088962Y-123321727D01*
X129090059Y-123318801D01*
X129090059Y-123318799D01*
X129092831Y-123311406D01*
X129094737Y-123293861D01*
X129121978Y-123228298D01*
X129180341Y-123187871D01*
X129251295Y-123185415D01*
X129312313Y-123221710D01*
G37*
%TD.AperFunction*%
%TA.AperFunction,Conductor*%
G36*
X124188725Y-118179970D02*
G01*
X124197905Y-118180765D01*
X124218938Y-118182587D01*
X124285079Y-118208394D01*
X124297127Y-118226027D01*
X124322865Y-118248329D01*
X124330548Y-118250000D01*
X124764900Y-118250000D01*
X124789481Y-118252421D01*
X124799933Y-118254500D01*
X124818876Y-118254500D01*
X125224001Y-118254499D01*
X125292120Y-118274501D01*
X125338614Y-118328156D01*
X125350000Y-118380499D01*
X125350000Y-118524000D01*
X125329998Y-118592121D01*
X125276342Y-118638614D01*
X125224000Y-118650000D01*
X124335116Y-118650000D01*
X124319877Y-118654475D01*
X124318672Y-118655865D01*
X124317001Y-118663548D01*
X124317001Y-118694669D01*
X124317371Y-118701490D01*
X124322895Y-118752352D01*
X124326521Y-118767604D01*
X124371676Y-118888054D01*
X124380214Y-118903649D01*
X124456715Y-119005724D01*
X124469276Y-119018285D01*
X124571351Y-119094786D01*
X124586946Y-119103324D01*
X124707394Y-119148478D01*
X124722649Y-119152105D01*
X124773514Y-119157631D01*
X124780328Y-119158000D01*
X125006529Y-119158000D01*
X125074650Y-119178002D01*
X125121143Y-119231658D01*
X125131247Y-119301932D01*
X125101753Y-119366512D01*
X125058682Y-119398700D01*
X124916916Y-119463157D01*
X124745014Y-119585096D01*
X124599272Y-119737340D01*
X124582039Y-119764029D01*
X124498449Y-119893488D01*
X124484948Y-119914397D01*
X124406166Y-120109878D01*
X124365771Y-120316729D01*
X124365500Y-120322270D01*
X124365500Y-120627659D01*
X124380493Y-120784806D01*
X124439823Y-120987042D01*
X124442573Y-120992381D01*
X124525351Y-121153104D01*
X124536324Y-121174410D01*
X124540028Y-121179125D01*
X124662808Y-121335432D01*
X124662812Y-121335436D01*
X124666514Y-121340149D01*
X124671044Y-121344080D01*
X124671045Y-121344081D01*
X124821165Y-121474350D01*
X124821170Y-121474354D01*
X124825696Y-121478281D01*
X125008126Y-121583819D01*
X125013791Y-121585786D01*
X125016953Y-121587234D01*
X125070564Y-121633779D01*
X125090500Y-121701797D01*
X125090500Y-121944501D01*
X125070498Y-122012622D01*
X125016842Y-122059115D01*
X124964500Y-122070501D01*
X124794984Y-122070501D01*
X124791589Y-122070870D01*
X124791584Y-122070870D01*
X124741452Y-122076315D01*
X124741448Y-122076316D01*
X124733594Y-122077169D01*
X124598949Y-122127645D01*
X124591767Y-122133027D01*
X124591766Y-122133028D01*
X124518970Y-122187585D01*
X124483882Y-122213882D01*
X124397645Y-122328949D01*
X124394493Y-122337357D01*
X124349944Y-122456193D01*
X124347169Y-122463594D01*
X124346316Y-122471444D01*
X124346316Y-122471445D01*
X124345263Y-122481139D01*
X124318022Y-122546702D01*
X124259659Y-122587129D01*
X124188705Y-122589585D01*
X124127687Y-122553290D01*
X124095977Y-122489768D01*
X124094737Y-122481141D01*
X124094533Y-122479268D01*
X124092831Y-122463594D01*
X124042355Y-122328949D01*
X123956118Y-122213882D01*
X123921030Y-122187585D01*
X123848234Y-122133028D01*
X123848233Y-122133027D01*
X123841051Y-122127645D01*
X123828705Y-122123017D01*
X123713801Y-122079941D01*
X123713799Y-122079941D01*
X123706406Y-122077169D01*
X123698558Y-122076316D01*
X123698556Y-122076316D01*
X123648414Y-122070869D01*
X123648413Y-122070869D01*
X123645017Y-122070500D01*
X123475500Y-122070500D01*
X123407379Y-122050498D01*
X123360886Y-121996842D01*
X123349500Y-121944500D01*
X123349500Y-121696891D01*
X123369502Y-121628770D01*
X123423349Y-121582190D01*
X123461415Y-121564882D01*
X123523084Y-121536843D01*
X123694986Y-121414904D01*
X123832184Y-121271585D01*
X123836583Y-121266990D01*
X123840728Y-121262660D01*
X123900792Y-121169637D01*
X123951800Y-121090640D01*
X123951801Y-121090637D01*
X123955052Y-121085603D01*
X124033834Y-120890122D01*
X124074229Y-120683271D01*
X124074500Y-120677730D01*
X124074500Y-120372341D01*
X124059507Y-120215194D01*
X124000177Y-120012958D01*
X123947063Y-119909831D01*
X123906422Y-119830921D01*
X123906420Y-119830918D01*
X123903676Y-119825590D01*
X123834355Y-119737340D01*
X123777192Y-119664568D01*
X123777188Y-119664564D01*
X123773486Y-119659851D01*
X123768952Y-119655916D01*
X123672919Y-119572583D01*
X123634578Y-119512830D01*
X123629500Y-119477418D01*
X123629500Y-118987017D01*
X123649502Y-118918896D01*
X123685498Y-118882252D01*
X123706448Y-118868254D01*
X123758484Y-118833484D01*
X123814734Y-118749301D01*
X123829500Y-118675067D01*
X123829499Y-118305499D01*
X123849501Y-118237380D01*
X123903156Y-118190887D01*
X123955499Y-118179500D01*
X124177854Y-118179500D01*
X124188725Y-118179970D01*
G37*
%TD.AperFunction*%
%TA.AperFunction,Conductor*%
G36*
X126708965Y-116499502D02*
G01*
X126755458Y-116553158D01*
X126765562Y-116623432D01*
X126741671Y-116681063D01*
X126730216Y-116696348D01*
X126721676Y-116711946D01*
X126676522Y-116832394D01*
X126672895Y-116847649D01*
X126667369Y-116898514D01*
X126667000Y-116905328D01*
X126667000Y-116931885D01*
X126671475Y-116947124D01*
X126672865Y-116948329D01*
X126680548Y-116950000D01*
X127574000Y-116950000D01*
X127642121Y-116970002D01*
X127688614Y-117023658D01*
X127700000Y-117076000D01*
X127700000Y-117219500D01*
X127679998Y-117287621D01*
X127626342Y-117334114D01*
X127574000Y-117345500D01*
X127165286Y-117345501D01*
X127149934Y-117345501D01*
X127140193Y-117347439D01*
X127139486Y-117347579D01*
X127114907Y-117350000D01*
X126685116Y-117350000D01*
X126669877Y-117354475D01*
X126668672Y-117355865D01*
X126667001Y-117363548D01*
X126667001Y-117394669D01*
X126667371Y-117401490D01*
X126672895Y-117452352D01*
X126676521Y-117467604D01*
X126721676Y-117588054D01*
X126730214Y-117603649D01*
X126806715Y-117705724D01*
X126819272Y-117718281D01*
X126870065Y-117756348D01*
X126912580Y-117813208D01*
X126920500Y-117857174D01*
X126920501Y-117955757D01*
X126920501Y-118025066D01*
X126921709Y-118031138D01*
X126935266Y-118099301D01*
X126931066Y-118100136D01*
X126936157Y-118147324D01*
X126935172Y-118150680D01*
X126935266Y-118150699D01*
X126920500Y-118224933D01*
X126920501Y-118675066D01*
X126925757Y-118701490D01*
X126930805Y-118726870D01*
X126935266Y-118749301D01*
X126942161Y-118759620D01*
X126942162Y-118759622D01*
X126960785Y-118787493D01*
X126991516Y-118833484D01*
X127075699Y-118889734D01*
X127149933Y-118904500D01*
X127171022Y-118904500D01*
X127464501Y-118904499D01*
X127532620Y-118924501D01*
X127579113Y-118978156D01*
X127590500Y-119030499D01*
X127590500Y-119303109D01*
X127570498Y-119371230D01*
X127516651Y-119417810D01*
X127416916Y-119463157D01*
X127245014Y-119585096D01*
X127099272Y-119737340D01*
X127082039Y-119764029D01*
X126998449Y-119893488D01*
X126984948Y-119914397D01*
X126906166Y-120109878D01*
X126865771Y-120316729D01*
X126865500Y-120322270D01*
X126865500Y-120627659D01*
X126880493Y-120784806D01*
X126939823Y-120987042D01*
X126942573Y-120992381D01*
X127025351Y-121153104D01*
X127036324Y-121174410D01*
X127040028Y-121179125D01*
X127162808Y-121335432D01*
X127162812Y-121335436D01*
X127166514Y-121340149D01*
X127171044Y-121344080D01*
X127171045Y-121344081D01*
X127321165Y-121474350D01*
X127321170Y-121474354D01*
X127325696Y-121478281D01*
X127508126Y-121583819D01*
X127513791Y-121585786D01*
X127516953Y-121587234D01*
X127570564Y-121633779D01*
X127590500Y-121701797D01*
X127590500Y-121944501D01*
X127570498Y-122012622D01*
X127516842Y-122059115D01*
X127464500Y-122070501D01*
X127294984Y-122070501D01*
X127291589Y-122070870D01*
X127291584Y-122070870D01*
X127241452Y-122076315D01*
X127241448Y-122076316D01*
X127233594Y-122077169D01*
X127098949Y-122127645D01*
X127091767Y-122133027D01*
X127091766Y-122133028D01*
X127018970Y-122187585D01*
X126983882Y-122213882D01*
X126897645Y-122328949D01*
X126894493Y-122337357D01*
X126849944Y-122456193D01*
X126847169Y-122463594D01*
X126846316Y-122471444D01*
X126846316Y-122471445D01*
X126845263Y-122481139D01*
X126818022Y-122546702D01*
X126759659Y-122587129D01*
X126688705Y-122589585D01*
X126627687Y-122553290D01*
X126595977Y-122489768D01*
X126594737Y-122481141D01*
X126594533Y-122479268D01*
X126592831Y-122463594D01*
X126542355Y-122328949D01*
X126456118Y-122213882D01*
X126421030Y-122187585D01*
X126348234Y-122133028D01*
X126348233Y-122133027D01*
X126341051Y-122127645D01*
X126328705Y-122123017D01*
X126213801Y-122079941D01*
X126213799Y-122079941D01*
X126206406Y-122077169D01*
X126198558Y-122076316D01*
X126198556Y-122076316D01*
X126148414Y-122070869D01*
X126148413Y-122070869D01*
X126145017Y-122070500D01*
X125975500Y-122070500D01*
X125907379Y-122050498D01*
X125860886Y-121996842D01*
X125849500Y-121944500D01*
X125849500Y-121696891D01*
X125869502Y-121628770D01*
X125923349Y-121582190D01*
X125961415Y-121564882D01*
X126023084Y-121536843D01*
X126194986Y-121414904D01*
X126332184Y-121271585D01*
X126336583Y-121266990D01*
X126340728Y-121262660D01*
X126400792Y-121169637D01*
X126451800Y-121090640D01*
X126451801Y-121090637D01*
X126455052Y-121085603D01*
X126533834Y-120890122D01*
X126574229Y-120683271D01*
X126574500Y-120677730D01*
X126574500Y-120372341D01*
X126559507Y-120215194D01*
X126500177Y-120012958D01*
X126447063Y-119909831D01*
X126406422Y-119830921D01*
X126406420Y-119830918D01*
X126403676Y-119825590D01*
X126273486Y-119659851D01*
X126268955Y-119655919D01*
X126268952Y-119655916D01*
X126222920Y-119615972D01*
X126184579Y-119556219D01*
X126179500Y-119520807D01*
X126179500Y-117639788D01*
X126181051Y-117620077D01*
X126182680Y-117609792D01*
X126184231Y-117600000D01*
X126182680Y-117590207D01*
X126182680Y-117589858D01*
X126181970Y-117584325D01*
X126178689Y-117551014D01*
X126167498Y-117437389D01*
X126165702Y-117431469D01*
X126165701Y-117431463D01*
X126121862Y-117286946D01*
X126120067Y-117281028D01*
X126107256Y-117257059D01*
X126045960Y-117142383D01*
X126045959Y-117142382D01*
X126043042Y-117136924D01*
X125995463Y-117078949D01*
X125943305Y-117015396D01*
X125939383Y-117010617D01*
X125839872Y-116928949D01*
X125817860Y-116910884D01*
X125817859Y-116910883D01*
X125813076Y-116906958D01*
X125746407Y-116871323D01*
X125701040Y-116830205D01*
X125658484Y-116766516D01*
X125578084Y-116712793D01*
X125532556Y-116658317D01*
X125523709Y-116587874D01*
X125554350Y-116523830D01*
X125614752Y-116486518D01*
X125628375Y-116483580D01*
X125641716Y-116481467D01*
X125644343Y-116481051D01*
X125664053Y-116479500D01*
X126640844Y-116479500D01*
X126708965Y-116499502D01*
G37*
%TD.AperFunction*%
%TA.AperFunction,Conductor*%
G36*
X128525417Y-118199502D02*
G01*
X128552239Y-118230456D01*
X128572865Y-118248329D01*
X128580548Y-118250000D01*
X129014900Y-118250000D01*
X129039481Y-118252421D01*
X129049933Y-118254500D01*
X129065280Y-118254500D01*
X129474001Y-118254499D01*
X129542120Y-118274501D01*
X129588614Y-118328156D01*
X129600000Y-118380499D01*
X129600000Y-119139884D01*
X129604475Y-119155123D01*
X129605865Y-119156328D01*
X129613548Y-119157999D01*
X129769669Y-119157999D01*
X129776490Y-119157629D01*
X129827352Y-119152105D01*
X129842603Y-119148479D01*
X129920270Y-119119363D01*
X129991077Y-119114180D01*
X130053446Y-119148101D01*
X130087576Y-119210356D01*
X130090500Y-119237345D01*
X130090500Y-119303109D01*
X130070498Y-119371230D01*
X130016651Y-119417810D01*
X129916916Y-119463157D01*
X129745014Y-119585096D01*
X129599272Y-119737340D01*
X129582039Y-119764029D01*
X129498449Y-119893488D01*
X129484948Y-119914397D01*
X129406166Y-120109878D01*
X129365771Y-120316729D01*
X129365500Y-120322270D01*
X129365500Y-120627659D01*
X129380493Y-120784806D01*
X129439823Y-120987042D01*
X129442573Y-120992381D01*
X129525351Y-121153104D01*
X129536324Y-121174410D01*
X129540028Y-121179125D01*
X129662808Y-121335432D01*
X129662812Y-121335436D01*
X129666514Y-121340149D01*
X129671044Y-121344080D01*
X129671045Y-121344081D01*
X129821165Y-121474350D01*
X129821170Y-121474354D01*
X129825696Y-121478281D01*
X130008126Y-121583819D01*
X130013791Y-121585786D01*
X130016953Y-121587234D01*
X130070564Y-121633779D01*
X130090500Y-121701797D01*
X130090500Y-121944501D01*
X130070498Y-122012622D01*
X130016842Y-122059115D01*
X129964500Y-122070501D01*
X129794984Y-122070501D01*
X129791589Y-122070870D01*
X129791584Y-122070870D01*
X129741452Y-122076315D01*
X129741448Y-122076316D01*
X129733594Y-122077169D01*
X129598949Y-122127645D01*
X129591767Y-122133027D01*
X129591766Y-122133028D01*
X129518970Y-122187585D01*
X129483882Y-122213882D01*
X129397645Y-122328949D01*
X129394493Y-122337357D01*
X129349944Y-122456193D01*
X129347169Y-122463594D01*
X129346316Y-122471444D01*
X129346316Y-122471445D01*
X129345263Y-122481139D01*
X129318022Y-122546702D01*
X129259659Y-122587129D01*
X129188705Y-122589585D01*
X129127687Y-122553290D01*
X129095977Y-122489768D01*
X129094737Y-122481141D01*
X129094533Y-122479268D01*
X129092831Y-122463594D01*
X129042355Y-122328949D01*
X128956118Y-122213882D01*
X128921030Y-122187585D01*
X128848234Y-122133028D01*
X128848233Y-122133027D01*
X128841051Y-122127645D01*
X128828705Y-122123017D01*
X128713801Y-122079941D01*
X128713799Y-122079941D01*
X128706406Y-122077169D01*
X128698558Y-122076316D01*
X128698556Y-122076316D01*
X128648414Y-122070869D01*
X128648413Y-122070869D01*
X128645017Y-122070500D01*
X128475500Y-122070500D01*
X128407379Y-122050498D01*
X128360886Y-121996842D01*
X128349500Y-121944500D01*
X128349500Y-121696891D01*
X128369502Y-121628770D01*
X128423349Y-121582190D01*
X128461415Y-121564882D01*
X128523084Y-121536843D01*
X128694986Y-121414904D01*
X128832184Y-121271585D01*
X128836583Y-121266990D01*
X128840728Y-121262660D01*
X128900792Y-121169637D01*
X128951800Y-121090640D01*
X128951801Y-121090637D01*
X128955052Y-121085603D01*
X129033834Y-120890122D01*
X129074229Y-120683271D01*
X129074500Y-120677730D01*
X129074500Y-120372341D01*
X129059507Y-120215194D01*
X129000177Y-120012958D01*
X128947063Y-119909831D01*
X128906422Y-119830921D01*
X128906420Y-119830918D01*
X128903676Y-119825590D01*
X128834355Y-119737340D01*
X128777192Y-119664568D01*
X128777188Y-119664564D01*
X128773486Y-119659851D01*
X128768955Y-119655919D01*
X128618835Y-119525650D01*
X128618830Y-119525646D01*
X128614304Y-119521719D01*
X128431874Y-119416181D01*
X128426209Y-119414214D01*
X128423047Y-119412766D01*
X128369436Y-119366221D01*
X128349500Y-119298203D01*
X128349500Y-118959787D01*
X128351051Y-118940076D01*
X128352680Y-118929791D01*
X128354231Y-118919999D01*
X128352680Y-118910206D01*
X128352680Y-118909482D01*
X128352225Y-118905933D01*
X128348103Y-118864080D01*
X128361332Y-118794326D01*
X128385298Y-118769041D01*
X128358489Y-118756797D01*
X128349935Y-118743616D01*
X128530932Y-118743616D01*
X128546278Y-118748877D01*
X128591478Y-118807501D01*
X128621675Y-118888052D01*
X128630214Y-118903649D01*
X128706715Y-119005724D01*
X128719276Y-119018285D01*
X128821351Y-119094786D01*
X128836946Y-119103324D01*
X128957394Y-119148478D01*
X128972649Y-119152105D01*
X129023514Y-119157631D01*
X129030328Y-119158000D01*
X129181885Y-119158000D01*
X129197124Y-119153525D01*
X129198329Y-119152135D01*
X129200000Y-119144452D01*
X129200000Y-118668115D01*
X129195525Y-118652876D01*
X129194135Y-118651671D01*
X129186452Y-118650000D01*
X128585116Y-118650000D01*
X128569877Y-118654475D01*
X128568672Y-118655865D01*
X128564122Y-118676783D01*
X128562630Y-118676458D01*
X128546999Y-118729694D01*
X128530932Y-118743616D01*
X128349935Y-118743616D01*
X128320427Y-118698150D01*
X128315266Y-118681137D01*
X128288632Y-118593337D01*
X128283641Y-118583998D01*
X128212670Y-118451223D01*
X128209750Y-118445760D01*
X128160241Y-118385433D01*
X128132487Y-118320086D01*
X128144469Y-118250108D01*
X128192382Y-118197716D01*
X128257640Y-118179500D01*
X128457296Y-118179500D01*
X128525417Y-118199502D01*
G37*
%TD.AperFunction*%
%TA.AperFunction,Conductor*%
G36*
X133896071Y-118134248D02*
G01*
X133918828Y-118172532D01*
X133924492Y-118187642D01*
X133924494Y-118187646D01*
X133927645Y-118196051D01*
X133933027Y-118203233D01*
X133933028Y-118203234D01*
X133970545Y-118253293D01*
X134008656Y-118304145D01*
X134013882Y-118311118D01*
X134012876Y-118311872D01*
X134042621Y-118366345D01*
X134045500Y-118393128D01*
X134045500Y-118492096D01*
X134052285Y-118554554D01*
X134055057Y-118561949D01*
X134055059Y-118561956D01*
X134059110Y-118572761D01*
X134064293Y-118643568D01*
X134030223Y-118706085D01*
X133995929Y-118740379D01*
X133933617Y-118774405D01*
X133862802Y-118769340D01*
X133805966Y-118726793D01*
X133781155Y-118660273D01*
X133781490Y-118638442D01*
X133782672Y-118626903D01*
X133782929Y-118621874D01*
X133778525Y-118606876D01*
X133777135Y-118605671D01*
X133769452Y-118604000D01*
X133072115Y-118604000D01*
X133056876Y-118608475D01*
X133055671Y-118609865D01*
X133054000Y-118617548D01*
X133054000Y-118731001D01*
X133033998Y-118799122D01*
X132980342Y-118845615D01*
X132928000Y-118857001D01*
X132672000Y-118857001D01*
X132603879Y-118836999D01*
X132557386Y-118783343D01*
X132546000Y-118731001D01*
X132546000Y-118622115D01*
X132541525Y-118606876D01*
X132540135Y-118605671D01*
X132532452Y-118604000D01*
X131472000Y-118604000D01*
X131403879Y-118583998D01*
X131357386Y-118530342D01*
X131346000Y-118478000D01*
X131346000Y-118222000D01*
X131366002Y-118153879D01*
X131419658Y-118107386D01*
X131472000Y-118096000D01*
X133764885Y-118096000D01*
X133765348Y-118095864D01*
X133836345Y-118095864D01*
X133896071Y-118134248D01*
G37*
%TD.AperFunction*%
%TA.AperFunction,Conductor*%
G36*
X133847124Y-107014079D02*
G01*
X133847124Y-107013729D01*
X133956291Y-107013729D01*
X134024412Y-107033731D01*
X134070905Y-107087387D01*
X134081009Y-107157661D01*
X134051515Y-107222241D01*
X134045386Y-107228824D01*
X133546237Y-107727973D01*
X133540041Y-107739319D01*
X133549923Y-107751809D01*
X133587259Y-107776756D01*
X133597371Y-107782247D01*
X133778081Y-107859885D01*
X133789014Y-107863437D01*
X133980844Y-107906845D01*
X133992253Y-107908347D01*
X134188783Y-107916068D01*
X134200265Y-107915466D01*
X134394905Y-107887245D01*
X134406101Y-107884557D01*
X134592343Y-107821336D01*
X134602840Y-107816662D01*
X134721401Y-107750266D01*
X134731264Y-107740189D01*
X134728309Y-107732519D01*
X134224614Y-107228824D01*
X134190588Y-107166512D01*
X134195653Y-107095697D01*
X134238200Y-107038861D01*
X134304720Y-107014050D01*
X134313709Y-107013729D01*
X134373845Y-107013729D01*
X134441966Y-107033731D01*
X134462863Y-107050556D01*
X134511697Y-107099305D01*
X134517927Y-107103145D01*
X134517928Y-107103146D01*
X134618381Y-107165066D01*
X134662262Y-107192115D01*
X134705927Y-107206598D01*
X134823611Y-107245632D01*
X134823613Y-107245632D01*
X134830139Y-107247797D01*
X134836975Y-107248497D01*
X134836978Y-107248498D01*
X134932491Y-107258284D01*
X134998218Y-107285125D01*
X135008743Y-107294533D01*
X135083603Y-107369393D01*
X135095983Y-107376153D01*
X135102563Y-107371227D01*
X135129608Y-107322934D01*
X135180345Y-107273272D01*
X135239543Y-107258500D01*
X135820000Y-107258500D01*
X135888121Y-107278502D01*
X135934614Y-107332158D01*
X135946000Y-107384500D01*
X135946000Y-116723944D01*
X135925998Y-116792065D01*
X135872342Y-116838558D01*
X135802068Y-116848662D01*
X135775771Y-116841926D01*
X135743801Y-116829941D01*
X135743799Y-116829941D01*
X135736406Y-116827169D01*
X135728558Y-116826316D01*
X135728556Y-116826316D01*
X135678414Y-116820869D01*
X135678413Y-116820869D01*
X135675017Y-116820500D01*
X135000099Y-116820500D01*
X134324984Y-116820501D01*
X134321589Y-116820870D01*
X134321584Y-116820870D01*
X134271452Y-116826315D01*
X134271448Y-116826316D01*
X134263594Y-116827169D01*
X134128949Y-116877645D01*
X134121767Y-116883027D01*
X134121766Y-116883028D01*
X134078928Y-116915133D01*
X134013882Y-116963882D01*
X134008504Y-116971058D01*
X133936623Y-117066970D01*
X133927645Y-117078949D01*
X133924493Y-117087357D01*
X133906101Y-117136419D01*
X133877169Y-117213594D01*
X133870500Y-117274983D01*
X133870500Y-117614837D01*
X133850498Y-117682958D01*
X133796842Y-117729451D01*
X133726568Y-117739555D01*
X133661988Y-117710061D01*
X133637355Y-117681139D01*
X133632210Y-117672824D01*
X133623176Y-117661426D01*
X133512571Y-117551014D01*
X133501160Y-117542002D01*
X133454898Y-117513486D01*
X133407405Y-117460714D01*
X133395981Y-117390642D01*
X133420188Y-117330661D01*
X133469532Y-117264821D01*
X133469534Y-117264817D01*
X133474917Y-117257635D01*
X133478068Y-117249230D01*
X133520358Y-117136419D01*
X133520358Y-117136418D01*
X133523130Y-117129024D01*
X133529500Y-117070389D01*
X133529499Y-116584356D01*
X133549501Y-116516235D01*
X133603156Y-116469742D01*
X133673430Y-116459638D01*
X133705237Y-116468588D01*
X133778085Y-116499886D01*
X133789014Y-116503437D01*
X133980844Y-116546845D01*
X133992253Y-116548347D01*
X134188783Y-116556068D01*
X134200265Y-116555466D01*
X134394905Y-116527245D01*
X134406101Y-116524557D01*
X134592343Y-116461336D01*
X134602840Y-116456662D01*
X134721401Y-116390266D01*
X134731264Y-116380189D01*
X134728309Y-116372519D01*
X133776922Y-115421132D01*
X134499408Y-115421132D01*
X134499539Y-115422965D01*
X134503790Y-115429580D01*
X135083603Y-116009393D01*
X135095983Y-116016153D01*
X135102563Y-116011227D01*
X135171662Y-115887840D01*
X135176336Y-115877343D01*
X135239557Y-115691101D01*
X135242245Y-115679905D01*
X135270762Y-115483224D01*
X135271392Y-115475843D01*
X135272757Y-115423704D01*
X135272514Y-115416305D01*
X135254330Y-115218397D01*
X135252233Y-115207083D01*
X135198846Y-115017789D01*
X135194724Y-115007050D01*
X135107736Y-114830656D01*
X135106577Y-114828765D01*
X135097732Y-114822126D01*
X135085312Y-114828898D01*
X134507022Y-115407188D01*
X134499408Y-115421132D01*
X133776922Y-115421132D01*
X133185031Y-114829241D01*
X133172651Y-114822481D01*
X133166685Y-114826947D01*
X133086452Y-114979445D01*
X133082047Y-114990079D01*
X133023724Y-115177910D01*
X133021332Y-115189165D01*
X133018404Y-115213904D01*
X132990535Y-115279202D01*
X132931787Y-115319067D01*
X132860812Y-115320842D01*
X132809460Y-115293174D01*
X132781951Y-115268665D01*
X132781945Y-115268661D01*
X132776275Y-115263609D01*
X132768889Y-115259698D01*
X132682399Y-115213904D01*
X132636274Y-115189482D01*
X132482633Y-115150890D01*
X132475034Y-115150850D01*
X132475033Y-115150850D01*
X132409181Y-115150505D01*
X132324221Y-115150060D01*
X132316841Y-115151832D01*
X132316839Y-115151832D01*
X132177563Y-115185269D01*
X132177560Y-115185270D01*
X132170184Y-115187041D01*
X132029414Y-115259698D01*
X132023697Y-115264685D01*
X132023690Y-115264690D01*
X131935306Y-115341793D01*
X131870824Y-115371501D01*
X131800517Y-115361631D01*
X131768658Y-115340921D01*
X131760674Y-115333807D01*
X131676275Y-115258611D01*
X131668889Y-115254700D01*
X131547678Y-115190522D01*
X131536274Y-115184484D01*
X131382633Y-115145892D01*
X131375034Y-115145852D01*
X131375033Y-115145852D01*
X131341196Y-115145675D01*
X131289823Y-115145406D01*
X131221809Y-115125048D01*
X131175598Y-115071149D01*
X131168777Y-115052019D01*
X131153072Y-114993405D01*
X131149326Y-114983113D01*
X131060946Y-114793583D01*
X131055466Y-114784093D01*
X131026589Y-114742851D01*
X131016114Y-114734477D01*
X131002665Y-114741546D01*
X129965000Y-115779210D01*
X129285822Y-116458389D01*
X129279393Y-116470162D01*
X129296599Y-116492402D01*
X129322462Y-116558521D01*
X129308472Y-116628125D01*
X129259072Y-116679117D01*
X129196942Y-116695501D01*
X129049934Y-116695501D01*
X128975699Y-116710266D01*
X128975064Y-116707075D01*
X128924285Y-116712536D01*
X128860797Y-116680758D01*
X128824135Y-116617951D01*
X128821793Y-116608198D01*
X128820639Y-116603390D01*
X128818749Y-116598827D01*
X128818747Y-116598821D01*
X128745463Y-116421897D01*
X128745461Y-116421893D01*
X128743568Y-116417323D01*
X128638338Y-116245603D01*
X128639546Y-116244863D01*
X128617832Y-116184016D01*
X128633909Y-116114864D01*
X128678355Y-116069040D01*
X128721717Y-116042779D01*
X128790346Y-116024600D01*
X128857910Y-116046410D01*
X128890201Y-116078285D01*
X128903408Y-116097147D01*
X128913887Y-116105523D01*
X128927334Y-116098455D01*
X129592979Y-115432811D01*
X129600592Y-115418868D01*
X129600461Y-115417034D01*
X129596210Y-115410421D01*
X129346597Y-115160808D01*
X129323141Y-115148000D01*
X129257000Y-115148000D01*
X129188879Y-115127998D01*
X129142386Y-115074342D01*
X129131000Y-115022000D01*
X129131000Y-114963326D01*
X129123470Y-114937681D01*
X128956665Y-114770876D01*
X128922639Y-114708564D01*
X128927704Y-114637749D01*
X128956665Y-114592686D01*
X128982541Y-114566810D01*
X128988048Y-114556724D01*
X128980744Y-114554000D01*
X128393000Y-114554000D01*
X128324879Y-114533998D01*
X128278386Y-114480342D01*
X128267000Y-114428000D01*
X128267000Y-114355499D01*
X128287002Y-114287378D01*
X128340658Y-114240885D01*
X128393000Y-114229499D01*
X128429314Y-114229499D01*
X128432262Y-114229220D01*
X128432271Y-114229220D01*
X128453478Y-114227216D01*
X128453480Y-114227216D01*
X128461127Y-114226493D01*
X128590076Y-114181209D01*
X128700010Y-114100010D01*
X128705602Y-114092439D01*
X128706636Y-114091405D01*
X128768948Y-114057379D01*
X128795731Y-114054500D01*
X128804526Y-114054500D01*
X129513001Y-114054499D01*
X129581121Y-114074501D01*
X129627614Y-114128157D01*
X129639000Y-114180499D01*
X129639000Y-114716674D01*
X129646530Y-114742319D01*
X129952189Y-115047979D01*
X129966132Y-115055592D01*
X129967966Y-115055461D01*
X129974580Y-115051210D01*
X130565353Y-114460436D01*
X133539547Y-114460436D01*
X133543033Y-114468823D01*
X134122188Y-115047978D01*
X134136132Y-115055592D01*
X134137965Y-115055461D01*
X134144580Y-115051210D01*
X134723407Y-114472383D01*
X134730167Y-114460003D01*
X134724137Y-114451948D01*
X134656459Y-114409246D01*
X134646211Y-114404025D01*
X134463531Y-114331143D01*
X134452504Y-114327876D01*
X134259605Y-114289506D01*
X134248159Y-114288303D01*
X134051507Y-114285730D01*
X134040027Y-114286633D01*
X133846199Y-114319938D01*
X133835079Y-114322918D01*
X133650557Y-114390992D01*
X133640179Y-114395942D01*
X133549146Y-114450101D01*
X133539547Y-114460436D01*
X130565353Y-114460436D01*
X130644180Y-114381609D01*
X130650607Y-114369839D01*
X130641313Y-114357825D01*
X130600912Y-114329536D01*
X130591412Y-114324051D01*
X130535750Y-114298096D01*
X130482464Y-114251179D01*
X130462999Y-114183901D01*
X130462999Y-113955331D01*
X130462629Y-113948510D01*
X130457105Y-113897648D01*
X130453479Y-113882396D01*
X130412361Y-113772714D01*
X130407178Y-113701906D01*
X130432944Y-113648550D01*
X130525696Y-113535532D01*
X130529623Y-113530747D01*
X130602933Y-113393594D01*
X130648077Y-113244774D01*
X130655093Y-113173545D01*
X130656843Y-113162350D01*
X130659019Y-113156154D01*
X130659501Y-113150589D01*
X130659501Y-113134979D01*
X130660108Y-113122627D01*
X130661459Y-113108912D01*
X130662403Y-113101555D01*
X130662681Y-113099800D01*
X130662681Y-113099799D01*
X130664232Y-113090006D01*
X130661052Y-113069928D01*
X130659501Y-113050218D01*
X130659501Y-109149782D01*
X130661052Y-109130071D01*
X130662681Y-109119786D01*
X130664232Y-109109994D01*
X130662403Y-109098445D01*
X130661459Y-109091087D01*
X130648684Y-108961392D01*
X130648077Y-108955226D01*
X130636993Y-108918685D01*
X130604730Y-108812330D01*
X130602933Y-108806406D01*
X130574552Y-108753308D01*
X130532541Y-108674712D01*
X130532541Y-108674711D01*
X130529623Y-108669253D01*
X130432944Y-108551449D01*
X130405190Y-108486103D01*
X130412361Y-108427286D01*
X130453478Y-108317606D01*
X130457105Y-108302351D01*
X130462631Y-108251486D01*
X130463000Y-108244672D01*
X130463000Y-108016099D01*
X130483002Y-107947978D01*
X130535750Y-107901904D01*
X130591416Y-107875947D01*
X130600912Y-107870464D01*
X130642148Y-107841590D01*
X130650523Y-107831112D01*
X130643456Y-107817666D01*
X130126642Y-107300852D01*
X130092616Y-107238540D01*
X130097681Y-107167725D01*
X130140228Y-107110889D01*
X130149434Y-107104613D01*
X130153120Y-107102332D01*
X130159348Y-107098478D01*
X130207032Y-107050711D01*
X130269315Y-107016632D01*
X130296205Y-107013729D01*
X130505750Y-107013729D01*
X130573871Y-107033731D01*
X130594845Y-107050634D01*
X131003387Y-107459176D01*
X131015161Y-107465606D01*
X131027176Y-107456310D01*
X131055466Y-107415907D01*
X131060946Y-107406417D01*
X131149326Y-107216887D01*
X131153071Y-107206598D01*
X131179727Y-107107117D01*
X131216679Y-107046495D01*
X131280540Y-107015473D01*
X131301434Y-107013729D01*
X132927308Y-107013729D01*
X132995429Y-107033731D01*
X133041922Y-107087387D01*
X133049431Y-107108712D01*
X133060992Y-107154230D01*
X133064829Y-107165066D01*
X133147173Y-107343685D01*
X133152922Y-107353642D01*
X133162850Y-107367690D01*
X133173439Y-107376078D01*
X133186740Y-107369050D01*
X133505156Y-107050634D01*
X133567468Y-107016608D01*
X133594251Y-107013729D01*
X133747852Y-107013729D01*
X133765783Y-107015011D01*
X133776710Y-107016582D01*
X133819637Y-107014281D01*
X133837650Y-107013316D01*
X133847124Y-107014079D01*
G37*
%TD.AperFunction*%
%TA.AperFunction,Conductor*%
G36*
X130808364Y-116455124D02*
G01*
X130856948Y-116506894D01*
X130870500Y-116563740D01*
X130870501Y-116820500D01*
X130870501Y-117070388D01*
X130870870Y-117073782D01*
X130870870Y-117073788D01*
X130871111Y-117076000D01*
X130876870Y-117129024D01*
X130925083Y-117257635D01*
X130930463Y-117264814D01*
X130930465Y-117264817D01*
X130947556Y-117287621D01*
X130979814Y-117330661D01*
X130979837Y-117330692D01*
X131004685Y-117397198D01*
X130989633Y-117466581D01*
X130945314Y-117513402D01*
X130897827Y-117542788D01*
X130886425Y-117551825D01*
X130878076Y-117560188D01*
X130815793Y-117594266D01*
X130744973Y-117589261D01*
X130688101Y-117546763D01*
X130681472Y-117537003D01*
X130628106Y-117449917D01*
X130576296Y-117365371D01*
X130428120Y-117191880D01*
X130254629Y-117043704D01*
X130060094Y-116924493D01*
X130055534Y-116922604D01*
X130055518Y-116922596D01*
X130037500Y-116915133D01*
X129982219Y-116870585D01*
X129959799Y-116803221D01*
X129977358Y-116734430D01*
X130029320Y-116686052D01*
X130074738Y-116673204D01*
X130178803Y-116664100D01*
X130189599Y-116662196D01*
X130391595Y-116608072D01*
X130401887Y-116604326D01*
X130591416Y-116515947D01*
X130600912Y-116510464D01*
X130672229Y-116460527D01*
X130739503Y-116437839D01*
X130808364Y-116455124D01*
G37*
%TD.AperFunction*%
%TA.AperFunction,Conductor*%
G36*
X122937238Y-108032053D02*
G01*
X122994536Y-108073975D01*
X123020073Y-108140220D01*
X123020500Y-108150584D01*
X123020500Y-108272756D01*
X123020869Y-108276152D01*
X123020869Y-108276153D01*
X123025307Y-108317000D01*
X123027202Y-108334448D01*
X123077929Y-108469764D01*
X123153828Y-108571036D01*
X123178674Y-108637541D01*
X123179000Y-108646599D01*
X123179000Y-109428000D01*
X123158998Y-109496121D01*
X123105342Y-109542614D01*
X123053000Y-109554000D01*
X122797000Y-109554000D01*
X122728879Y-109533998D01*
X122682386Y-109480342D01*
X122671000Y-109428000D01*
X122671000Y-108335115D01*
X122666525Y-108319876D01*
X122665135Y-108318671D01*
X122657452Y-108317000D01*
X122655500Y-108317000D01*
X122649920Y-108315362D01*
X122644217Y-108314121D01*
X122644306Y-108313713D01*
X122587379Y-108296998D01*
X122540886Y-108243342D01*
X122529500Y-108191012D01*
X122529499Y-108180325D01*
X122549495Y-108112202D01*
X122603146Y-108065704D01*
X122657477Y-108054329D01*
X122701966Y-108055028D01*
X122736819Y-108055576D01*
X122736822Y-108055576D01*
X122744416Y-108055695D01*
X122751820Y-108053999D01*
X122751822Y-108053999D01*
X122866371Y-108027764D01*
X122937238Y-108032053D01*
G37*
%TD.AperFunction*%
%TA.AperFunction,Conductor*%
G36*
X125887512Y-104569920D02*
G01*
X125900664Y-104583142D01*
X126832734Y-105670557D01*
X126865895Y-105698332D01*
X126893842Y-105721740D01*
X126933221Y-105780815D01*
X126934411Y-105851801D01*
X126897034Y-105912162D01*
X126830800Y-105943061D01*
X126817582Y-105944954D01*
X126813851Y-105945432D01*
X126703439Y-105957873D01*
X126564226Y-106006585D01*
X126439344Y-106085054D01*
X126335054Y-106189344D01*
X126256585Y-106314226D01*
X126254248Y-106320905D01*
X126216621Y-106428438D01*
X126175243Y-106486130D01*
X126141920Y-106504805D01*
X126100413Y-106520365D01*
X126080236Y-106527929D01*
X126073057Y-106533309D01*
X126073054Y-106533311D01*
X125985023Y-106599287D01*
X125964596Y-106614596D01*
X125959215Y-106621776D01*
X125883311Y-106723054D01*
X125883309Y-106723057D01*
X125877929Y-106730236D01*
X125851371Y-106801081D01*
X125831533Y-106854000D01*
X125827202Y-106865552D01*
X125820500Y-106927244D01*
X125820500Y-108272756D01*
X125820869Y-108276152D01*
X125820869Y-108276153D01*
X125825307Y-108317000D01*
X125827202Y-108334448D01*
X125877929Y-108469764D01*
X125883308Y-108476941D01*
X125883311Y-108476946D01*
X125939149Y-108551450D01*
X125964596Y-108585404D01*
X125981656Y-108598190D01*
X126073054Y-108666689D01*
X126073057Y-108666691D01*
X126080236Y-108672071D01*
X126092098Y-108676518D01*
X126095029Y-108678719D01*
X126096515Y-108679533D01*
X126096398Y-108679747D01*
X126148863Y-108719158D01*
X126173564Y-108785719D01*
X126158358Y-108855068D01*
X126108073Y-108905187D01*
X126047870Y-108920500D01*
X125250908Y-108920500D01*
X125182787Y-108900498D01*
X125136294Y-108846842D01*
X125132926Y-108838729D01*
X125128068Y-108825771D01*
X125124917Y-108817365D01*
X125119537Y-108810186D01*
X125119535Y-108810183D01*
X125051314Y-108719158D01*
X125042544Y-108707456D01*
X124996400Y-108672872D01*
X124953888Y-108616015D01*
X124947748Y-108593155D01*
X124947346Y-108590785D01*
X124933811Y-108511127D01*
X124922010Y-108441668D01*
X124922008Y-108441661D01*
X124921420Y-108438198D01*
X124844691Y-108171868D01*
X124843343Y-108168614D01*
X124843340Y-108168605D01*
X124789091Y-108037637D01*
X124779500Y-107989419D01*
X124779500Y-106927244D01*
X124772798Y-106865552D01*
X124768468Y-106854000D01*
X124748629Y-106801081D01*
X124722071Y-106730236D01*
X124704270Y-106706484D01*
X124679422Y-106639977D01*
X124694475Y-106570595D01*
X124744650Y-106520365D01*
X124772483Y-106509213D01*
X124876820Y-106481256D01*
X124932306Y-106466389D01*
X124932308Y-106466388D01*
X124937616Y-106464966D01*
X124968643Y-106450498D01*
X125111670Y-106383804D01*
X125111675Y-106383801D01*
X125116657Y-106381478D01*
X125221260Y-106308234D01*
X125273969Y-106271327D01*
X125273972Y-106271325D01*
X125278480Y-106268168D01*
X125418168Y-106128480D01*
X125531478Y-105966657D01*
X125533801Y-105961675D01*
X125533804Y-105961670D01*
X125612643Y-105792598D01*
X125612643Y-105792597D01*
X125614966Y-105787616D01*
X125616483Y-105781957D01*
X125664671Y-105602113D01*
X125664671Y-105602112D01*
X125666095Y-105596798D01*
X125667557Y-105580095D01*
X125676868Y-105473661D01*
X125677635Y-105468580D01*
X125678519Y-105466062D01*
X125679000Y-105460509D01*
X125679000Y-105454794D01*
X125679478Y-105443833D01*
X125682806Y-105405797D01*
X125683724Y-105400000D01*
X125680551Y-105379966D01*
X125679000Y-105360256D01*
X125679000Y-104665144D01*
X125699002Y-104597023D01*
X125752658Y-104550530D01*
X125822932Y-104540426D01*
X125887512Y-104569920D01*
G37*
%TD.AperFunction*%
%TA.AperFunction,Conductor*%
G36*
X129613448Y-107278502D02*
G01*
X129659941Y-107332158D01*
X129670045Y-107402432D01*
X129655914Y-107444887D01*
X129639000Y-107475862D01*
X129639000Y-108019500D01*
X129618998Y-108087621D01*
X129565342Y-108134114D01*
X129513000Y-108145500D01*
X128805498Y-108145501D01*
X128789934Y-108145501D01*
X128764378Y-108150584D01*
X128759375Y-108151579D01*
X128734796Y-108154000D01*
X128393000Y-108154000D01*
X128324879Y-108133998D01*
X128278386Y-108080342D01*
X128267000Y-108028000D01*
X128267000Y-107947115D01*
X128262525Y-107931876D01*
X128261135Y-107930671D01*
X128253452Y-107929000D01*
X127972000Y-107929000D01*
X127903879Y-107908998D01*
X127857386Y-107855342D01*
X127846000Y-107803000D01*
X127846000Y-107547000D01*
X127866002Y-107478879D01*
X127919658Y-107432386D01*
X127972000Y-107421000D01*
X128946674Y-107421000D01*
X128972319Y-107413470D01*
X129090384Y-107295405D01*
X129152696Y-107261379D01*
X129179479Y-107258500D01*
X129545327Y-107258500D01*
X129613448Y-107278502D01*
G37*
%TD.AperFunction*%
%TA.AperFunction,Conductor*%
G36*
X120796121Y-106341002D02*
G01*
X120842614Y-106394658D01*
X120854000Y-106447000D01*
X120854000Y-106703000D01*
X120833998Y-106771121D01*
X120780342Y-106817614D01*
X120728000Y-106829000D01*
X120491115Y-106829000D01*
X120446720Y-106842035D01*
X120436043Y-106848897D01*
X120400548Y-106854000D01*
X119347000Y-106854000D01*
X119278879Y-106833998D01*
X119232386Y-106780342D01*
X119221000Y-106728000D01*
X119221000Y-106472000D01*
X119241002Y-106403879D01*
X119294658Y-106357386D01*
X119347000Y-106346000D01*
X119558885Y-106346000D01*
X119603280Y-106332965D01*
X119613957Y-106326103D01*
X119649452Y-106321000D01*
X120728000Y-106321000D01*
X120796121Y-106341002D01*
G37*
%TD.AperFunction*%
%TA.AperFunction,Conductor*%
G36*
X124863121Y-103699002D02*
G01*
X124909614Y-103752658D01*
X124921000Y-103805000D01*
X124921000Y-104740444D01*
X124900998Y-104808565D01*
X124847342Y-104855058D01*
X124777068Y-104865162D01*
X124746782Y-104856853D01*
X124692696Y-104834450D01*
X124692697Y-104834450D01*
X124685065Y-104831289D01*
X124530000Y-104810874D01*
X124374935Y-104831289D01*
X124230437Y-104891142D01*
X124106354Y-104986354D01*
X124101331Y-104992900D01*
X124101327Y-104992904D01*
X124090500Y-105007014D01*
X124033162Y-105048881D01*
X123962291Y-105053103D01*
X123933336Y-105042577D01*
X123918577Y-105035057D01*
X123908787Y-105033506D01*
X123908786Y-105033506D01*
X123834520Y-105021744D01*
X123800000Y-105016276D01*
X123765480Y-105021744D01*
X123691214Y-105033506D01*
X123691213Y-105033506D01*
X123681423Y-105035057D01*
X123574453Y-105089561D01*
X123489561Y-105174453D01*
X123435057Y-105281423D01*
X123416276Y-105400000D01*
X123417194Y-105405797D01*
X123433905Y-105596798D01*
X123453846Y-105671219D01*
X123483518Y-105781957D01*
X123485034Y-105787616D01*
X123487357Y-105792597D01*
X123487357Y-105792598D01*
X123566196Y-105961670D01*
X123566199Y-105961675D01*
X123568522Y-105966657D01*
X123681832Y-106128480D01*
X123808757Y-106255405D01*
X123842783Y-106317717D01*
X123837718Y-106388532D01*
X123795171Y-106445368D01*
X123728651Y-106470179D01*
X123719662Y-106470500D01*
X123648677Y-106470500D01*
X123580556Y-106450498D01*
X123566847Y-106440311D01*
X123537252Y-106415035D01*
X123533487Y-106411819D01*
X123379457Y-106317430D01*
X123212557Y-106248298D01*
X123203304Y-106246076D01*
X123041714Y-106207281D01*
X123041711Y-106207281D01*
X123036898Y-106206125D01*
X122932511Y-106197910D01*
X122925532Y-106196888D01*
X122922951Y-106195982D01*
X122917386Y-106195500D01*
X122906848Y-106195500D01*
X122896962Y-106195112D01*
X122876569Y-106193507D01*
X122866741Y-106192343D01*
X122866601Y-106192321D01*
X122856804Y-106190769D01*
X122847011Y-106192320D01*
X122847010Y-106192320D01*
X122836727Y-106193949D01*
X122817016Y-106195500D01*
X122571064Y-106195500D01*
X122502943Y-106175498D01*
X122469713Y-106144359D01*
X122405605Y-106057564D01*
X122405602Y-106057561D01*
X122400010Y-106049990D01*
X122328565Y-105997220D01*
X122285656Y-105940661D01*
X122280136Y-105869879D01*
X122313760Y-105807349D01*
X122368247Y-105774880D01*
X122466402Y-105746341D01*
X122474918Y-105740353D01*
X122474920Y-105740352D01*
X122563129Y-105678328D01*
X122569616Y-105673767D01*
X122573235Y-105669527D01*
X123957352Y-103731763D01*
X124013221Y-103687958D01*
X124059881Y-103679000D01*
X124795000Y-103679000D01*
X124863121Y-103699002D01*
G37*
%TD.AperFunction*%
%TA.AperFunction,Conductor*%
G36*
X122609121Y-99199502D02*
G01*
X122655614Y-99253158D01*
X122667000Y-99305500D01*
X122667000Y-99327885D01*
X122671475Y-99343124D01*
X122672865Y-99344329D01*
X122680548Y-99346000D01*
X123703000Y-99346000D01*
X123771121Y-99366002D01*
X123817614Y-99419658D01*
X123829000Y-99472000D01*
X123829000Y-100564884D01*
X123833475Y-100580123D01*
X123834865Y-100581328D01*
X123839294Y-100582291D01*
X123898315Y-100576868D01*
X123911351Y-100574257D01*
X124061243Y-100527285D01*
X124074988Y-100521079D01*
X124208574Y-100440176D01*
X124220443Y-100430869D01*
X124330869Y-100320443D01*
X124340176Y-100308574D01*
X124421079Y-100174988D01*
X124430409Y-100154323D01*
X124432856Y-100155428D01*
X124465245Y-100106963D01*
X124530345Y-100078633D01*
X124600426Y-100089996D01*
X124647387Y-100128792D01*
X124699990Y-100200010D01*
X124809924Y-100281209D01*
X124938873Y-100326493D01*
X124946515Y-100327215D01*
X124946518Y-100327216D01*
X124961421Y-100328624D01*
X124970685Y-100329500D01*
X125224828Y-100329500D01*
X125479314Y-100329499D01*
X125482262Y-100329220D01*
X125482271Y-100329220D01*
X125503478Y-100327216D01*
X125503480Y-100327216D01*
X125511127Y-100326493D01*
X125640076Y-100281209D01*
X125647648Y-100275616D01*
X125647652Y-100275614D01*
X125675140Y-100255310D01*
X125741818Y-100230927D01*
X125811094Y-100246463D01*
X125824860Y-100255310D01*
X125852348Y-100275614D01*
X125852352Y-100275616D01*
X125859924Y-100281209D01*
X125988873Y-100326493D01*
X125996515Y-100327215D01*
X125996518Y-100327216D01*
X126011421Y-100328624D01*
X126020685Y-100329500D01*
X126047315Y-100329500D01*
X126425971Y-100329499D01*
X126494091Y-100349501D01*
X126509048Y-100360767D01*
X126559035Y-100404604D01*
X126559041Y-100404609D01*
X126562143Y-100407329D01*
X126706173Y-100503567D01*
X126741671Y-100527285D01*
X126760073Y-100539581D01*
X126763776Y-100541407D01*
X126969868Y-100643042D01*
X126969876Y-100643045D01*
X126973572Y-100644868D01*
X127075414Y-100679439D01*
X127133489Y-100720275D01*
X127160268Y-100786027D01*
X127147247Y-100855820D01*
X127098560Y-100907493D01*
X127056279Y-100922926D01*
X126973555Y-100937160D01*
X126862842Y-100997680D01*
X126858770Y-101001486D01*
X126856963Y-101003494D01*
X126856953Y-101003504D01*
X125898655Y-102068280D01*
X125838217Y-102105533D01*
X125767233Y-102104197D01*
X125708240Y-102064696D01*
X125679967Y-101999572D01*
X125679000Y-101983990D01*
X125679000Y-101231927D01*
X125679990Y-101216162D01*
X125682638Y-101195167D01*
X125682638Y-101195165D01*
X125683941Y-101184832D01*
X125673154Y-101132801D01*
X125672249Y-101127953D01*
X125665235Y-101085812D01*
X125663525Y-101075538D01*
X125659884Y-101068790D01*
X125658328Y-101061285D01*
X125631286Y-101015581D01*
X125628838Y-101011252D01*
X125626390Y-101006714D01*
X125603610Y-100964496D01*
X125597980Y-100959292D01*
X125594077Y-100952695D01*
X125581734Y-100942157D01*
X125553661Y-100918191D01*
X125549973Y-100914915D01*
X125510957Y-100878849D01*
X125503949Y-100875751D01*
X125498116Y-100870771D01*
X125488432Y-100866939D01*
X125488430Y-100866938D01*
X125448703Y-100851219D01*
X125444113Y-100849297D01*
X125405086Y-100832043D01*
X125405082Y-100832042D01*
X125395557Y-100827831D01*
X125387922Y-100827170D01*
X125380791Y-100824348D01*
X125370384Y-100823860D01*
X125370381Y-100823859D01*
X125327742Y-100821858D01*
X125322777Y-100821527D01*
X125280232Y-100817842D01*
X125269853Y-100816943D01*
X125262412Y-100818791D01*
X125254755Y-100818432D01*
X125244757Y-100821339D01*
X125203747Y-100833262D01*
X125198947Y-100834555D01*
X125157509Y-100844849D01*
X125157506Y-100844850D01*
X125147399Y-100847361D01*
X125140960Y-100851518D01*
X125133598Y-100853659D01*
X125125084Y-100859645D01*
X125125079Y-100859648D01*
X125090147Y-100884211D01*
X125086020Y-100886993D01*
X125041401Y-100915803D01*
X125036653Y-100921826D01*
X125030384Y-100926234D01*
X125026765Y-100930473D01*
X125025182Y-100932689D01*
X125025179Y-100932693D01*
X124998882Y-100969509D01*
X124995302Y-100974279D01*
X124963287Y-101014890D01*
X124960723Y-101022189D01*
X124956817Y-101028399D01*
X123510216Y-103053642D01*
X123500210Y-103065935D01*
X123485921Y-103081392D01*
X123485920Y-103081394D01*
X123478849Y-103089043D01*
X123474184Y-103099594D01*
X123461478Y-103121875D01*
X121973293Y-105205334D01*
X121971009Y-105209999D01*
X121971007Y-105210002D01*
X121936425Y-105280629D01*
X121936424Y-105280632D01*
X121931845Y-105289984D01*
X121930542Y-105300318D01*
X121920491Y-105380020D01*
X121916058Y-105415168D01*
X121941672Y-105538715D01*
X122005923Y-105647305D01*
X122066092Y-105698673D01*
X122104913Y-105758114D01*
X122105435Y-105829108D01*
X122067491Y-105889115D01*
X122003129Y-105919082D01*
X121984281Y-105920500D01*
X121485412Y-105920501D01*
X121474003Y-105920501D01*
X121405882Y-105900499D01*
X121384908Y-105883596D01*
X121320443Y-105819131D01*
X121308574Y-105809824D01*
X121174988Y-105728921D01*
X121161243Y-105722715D01*
X121011356Y-105675744D01*
X120998306Y-105673131D01*
X120934479Y-105667266D01*
X120928691Y-105667000D01*
X120898112Y-105667000D01*
X120829991Y-105646998D01*
X120783498Y-105593342D01*
X120773394Y-105523068D01*
X120802888Y-105458488D01*
X120837163Y-105430722D01*
X120892750Y-105400000D01*
X120931990Y-105378313D01*
X121121517Y-105243836D01*
X121170986Y-105208736D01*
X121173854Y-105206701D01*
X121219488Y-105165920D01*
X121384724Y-105018256D01*
X121384725Y-105018255D01*
X121390804Y-105012822D01*
X121395388Y-105009492D01*
X121407339Y-104993043D01*
X121420180Y-104978009D01*
X122020960Y-104377229D01*
X122035993Y-104364389D01*
X122044419Y-104358267D01*
X122052439Y-104352440D01*
X122058264Y-104344422D01*
X122059575Y-104343111D01*
X122062841Y-104339024D01*
X122198134Y-104184751D01*
X122198139Y-104184745D01*
X122200859Y-104181643D01*
X122224113Y-104146842D01*
X122324238Y-103996994D01*
X122326532Y-103993561D01*
X122338956Y-103968369D01*
X122419520Y-103805000D01*
X122426580Y-103790684D01*
X122446581Y-103731764D01*
X122497963Y-103580397D01*
X122497964Y-103580393D01*
X122499291Y-103576484D01*
X122513103Y-103507047D01*
X122542619Y-103358664D01*
X122542620Y-103358658D01*
X122543422Y-103354625D01*
X122544685Y-103335367D01*
X122553654Y-103198510D01*
X122554135Y-103195063D01*
X122554031Y-103195054D01*
X122554279Y-103192190D01*
X122554513Y-103189489D01*
X122554513Y-103186777D01*
X122554627Y-103184140D01*
X122554779Y-103181340D01*
X122557112Y-103145745D01*
X122557692Y-103140553D01*
X122557692Y-103138701D01*
X122559244Y-103128905D01*
X122557646Y-103118812D01*
X122556064Y-103108828D01*
X122554513Y-103089117D01*
X122554513Y-101510547D01*
X122574515Y-101442426D01*
X122628171Y-101395933D01*
X122652380Y-101387728D01*
X122663299Y-101385227D01*
X122663303Y-101385225D01*
X122670706Y-101383530D01*
X122741116Y-101348118D01*
X122805446Y-101315764D01*
X122805449Y-101315762D01*
X122812229Y-101312352D01*
X122818000Y-101307423D01*
X122818003Y-101307421D01*
X122926910Y-101214405D01*
X122926910Y-101214404D01*
X122932688Y-101209470D01*
X123025129Y-101080825D01*
X123084216Y-100933842D01*
X123096308Y-100848878D01*
X123105955Y-100781092D01*
X123105955Y-100781089D01*
X123106536Y-100777008D01*
X123106605Y-100770466D01*
X123106638Y-100767335D01*
X123106638Y-100767329D01*
X123106681Y-100763201D01*
X123100891Y-100715356D01*
X123112566Y-100645328D01*
X123160248Y-100592726D01*
X123228799Y-100574254D01*
X123250718Y-100576675D01*
X123251684Y-100576868D01*
X123306586Y-100581913D01*
X123318124Y-100578525D01*
X123319329Y-100577135D01*
X123321000Y-100569452D01*
X123321000Y-99872115D01*
X123316525Y-99856876D01*
X123315135Y-99855671D01*
X123307452Y-99854000D01*
X122685116Y-99854000D01*
X122669877Y-99858475D01*
X122668672Y-99859865D01*
X122667001Y-99867548D01*
X122667001Y-99928705D01*
X122667265Y-99934475D01*
X122670844Y-99973425D01*
X122657159Y-100043090D01*
X122607982Y-100094297D01*
X122538928Y-100110788D01*
X122535569Y-100110490D01*
X122530007Y-100109093D01*
X122522412Y-100109053D01*
X122522410Y-100109053D01*
X122453567Y-100108692D01*
X122371595Y-100108263D01*
X122364213Y-100110035D01*
X122364207Y-100110036D01*
X122362091Y-100110544D01*
X122360502Y-100110465D01*
X122356660Y-100110909D01*
X122356586Y-100110269D01*
X122291183Y-100106998D01*
X122233449Y-100065679D01*
X122207589Y-100003164D01*
X122201188Y-99950272D01*
X122200276Y-99942733D01*
X122144280Y-99794546D01*
X122079301Y-99700000D01*
X122058855Y-99670251D01*
X122058854Y-99670249D01*
X122054553Y-99663992D01*
X122038288Y-99649500D01*
X122010808Y-99625017D01*
X121981681Y-99599065D01*
X121944126Y-99538816D01*
X121939500Y-99504989D01*
X121939500Y-99379787D01*
X121941051Y-99360076D01*
X121942680Y-99349791D01*
X121944231Y-99339999D01*
X121943057Y-99332589D01*
X121945100Y-99311845D01*
X121946395Y-99305334D01*
X121946827Y-99303163D01*
X121965642Y-99257738D01*
X121968703Y-99253158D01*
X121972587Y-99247345D01*
X122007346Y-99212586D01*
X122009280Y-99211294D01*
X122017740Y-99205641D01*
X122063163Y-99186827D01*
X122071848Y-99185100D01*
X122092589Y-99183057D01*
X122099999Y-99184231D01*
X122120077Y-99181051D01*
X122139787Y-99179500D01*
X122541000Y-99179500D01*
X122609121Y-99199502D01*
G37*
%TD.AperFunction*%
%TA.AperFunction,Conductor*%
G36*
X127305176Y-101748682D02*
G01*
X127356504Y-101779794D01*
X127362077Y-101785367D01*
X127367456Y-101792544D01*
X127374633Y-101797923D01*
X127470183Y-101869535D01*
X127470186Y-101869537D01*
X127477365Y-101874917D01*
X127492207Y-101880481D01*
X127496307Y-101882018D01*
X127553072Y-101924659D01*
X127577772Y-101991221D01*
X127562565Y-102060570D01*
X127512279Y-102110688D01*
X127496307Y-102117982D01*
X127477365Y-102125083D01*
X127470186Y-102130463D01*
X127470183Y-102130465D01*
X127399488Y-102183449D01*
X127367456Y-102207456D01*
X127362077Y-102214633D01*
X127290465Y-102310183D01*
X127290463Y-102310186D01*
X127285083Y-102317365D01*
X127281933Y-102325769D01*
X127281932Y-102325770D01*
X127260607Y-102382657D01*
X127236870Y-102445976D01*
X127230500Y-102504611D01*
X127230501Y-103045388D01*
X127230870Y-103048782D01*
X127230870Y-103048788D01*
X127235251Y-103089117D01*
X127236870Y-103104024D01*
X127267376Y-103185400D01*
X127281786Y-103223839D01*
X127285083Y-103232635D01*
X127290463Y-103239814D01*
X127290465Y-103239817D01*
X127315825Y-103273654D01*
X127367456Y-103342544D01*
X127374633Y-103347923D01*
X127374637Y-103347927D01*
X127416589Y-103379369D01*
X127459104Y-103436228D01*
X127464128Y-103507047D01*
X127444110Y-103552645D01*
X127418950Y-103588444D01*
X127361406Y-103736037D01*
X127360414Y-103743570D01*
X127360414Y-103743571D01*
X127343704Y-103870502D01*
X127340729Y-103893096D01*
X127349100Y-103968919D01*
X127354317Y-104016167D01*
X127358113Y-104050553D01*
X127360723Y-104057684D01*
X127360723Y-104057686D01*
X127406085Y-104181643D01*
X127412553Y-104199319D01*
X127416789Y-104205622D01*
X127416789Y-104205623D01*
X127444755Y-104247240D01*
X127500908Y-104330805D01*
X127506527Y-104335918D01*
X127506528Y-104335919D01*
X127573743Y-104397079D01*
X127618076Y-104437419D01*
X127624747Y-104441041D01*
X127624751Y-104441044D01*
X127661379Y-104460931D01*
X127704468Y-104499389D01*
X127716018Y-104515884D01*
X127834116Y-104633982D01*
X127838625Y-104637139D01*
X127838627Y-104637141D01*
X127958051Y-104720763D01*
X128002379Y-104776221D01*
X128009688Y-104846840D01*
X127977657Y-104910200D01*
X127958050Y-104927190D01*
X127832600Y-105015030D01*
X127715030Y-105132600D01*
X127711877Y-105137103D01*
X127649070Y-105226802D01*
X127593613Y-105271131D01*
X127522993Y-105278440D01*
X127459633Y-105246410D01*
X127435072Y-105214557D01*
X127433259Y-105211210D01*
X127430385Y-105203821D01*
X127427137Y-105199292D01*
X125876426Y-103390129D01*
X125847280Y-103325390D01*
X125857761Y-103255172D01*
X125878435Y-103223842D01*
X127076271Y-101892913D01*
X127173754Y-101784599D01*
X127234192Y-101747346D01*
X127305176Y-101748682D01*
G37*
%TD.AperFunction*%
%TD*%
M02*
