M48
; DRILL file {KiCad (6.0.2-0)} date Friday, 18 February 2022 at 12:15:41
; FORMAT={-:-/ absolute / inch / decimal}
; #@! TF.CreationDate,2022-02-18T12:15:41+00:00
; #@! TF.GenerationSoftware,Kicad,Pcbnew,(6.0.2-0)
; #@! TF.FileFunction,Plated,1,2,PTH
FMAT,2
INCH
; #@! TA.AperFunction,Plated,PTH,ViaDrill
T1C0.0157
; #@! TA.AperFunction,Plated,PTH,ComponentDrill
T2C0.0236
; #@! TA.AperFunction,Plated,PTH,ComponentDrill
T3C0.0335
; #@! TA.AperFunction,Plated,PTH,ComponentDrill
T4C0.0394
; #@! TA.AperFunction,Plated,PTH,ComponentDrill
T5C0.0492
%
G90
G05
T1
X5.4488Y-2.1705
X5.5866Y-2.2047
X5.7173Y-2.2143
X5.752Y-2.1535
X5.7598Y-2.4252
X5.7598Y-2.5157
X5.7638Y-2.2195
X5.7717Y-2.622
X5.7756Y-2.3858
X5.793Y-2.5384
X5.8366Y-2.8543
X5.9134Y-2.3583
X5.9134Y-2.6417
X6.0335Y-2.8543
X6.0551Y-2.4921
X6.0881Y-2.4707
X6.1228Y-2.5171
X6.1254Y-2.5742
X6.2283Y-2.6693
X6.2303Y-2.8543
X6.252Y-2.5551
X6.2756Y-2.1693
X6.2835Y-2.3189
X6.2953Y-2.5512
X6.3908Y-2.2038
X6.3976Y-2.2677
X6.4173Y-2.4921
X6.4206Y-2.4252
X6.4237Y-2.5886
X6.4252Y-2.2323
X6.4272Y-2.8543
X6.4409Y-2.3622
X6.4872Y-2.2034
X6.5372Y-2.2047
X6.5519Y-2.5724
X6.5755Y-2.1956
X6.5807Y-2.5992
X6.6142Y-2.2027
X6.624Y-2.8543
T2
X5.6197Y-2.3213
X5.6197Y-2.5488
T3
X5.4882Y-2.7224
X5.5866Y-2.7224
X5.7874Y-2.7224
X5.8858Y-2.7224
X5.9843Y-2.7224
X6.0827Y-2.7224
X6.1811Y-2.7224
X6.2795Y-2.7224
X6.378Y-2.7224
X6.4764Y-2.7224
X6.5748Y-2.7224
X6.6732Y-2.7224
T4
X5.4748Y-2.265
X5.4748Y-2.6051
T5
X5.639Y-2.265
X5.639Y-2.6051
T0
M30
