%TF.GenerationSoftware,KiCad,Pcbnew,(6.0.2-0)*%
%TF.CreationDate,2022-02-20T07:40:54+00:00*%
%TF.ProjectId,Generic2,47656e65-7269-4633-922e-6b696361645f,1*%
%TF.SameCoordinates,Original*%
%TF.FileFunction,Soldermask,Top*%
%TF.FilePolarity,Negative*%
%FSLAX46Y46*%
G04 Gerber Fmt 4.6, Leading zero omitted, Abs format (unit mm)*
G04 Created by KiCad (PCBNEW (6.0.2-0)) date 2022-02-20 07:40:54*
%MOMM*%
%LPD*%
G01*
G04 APERTURE LIST*
G04 Aperture macros list*
%AMRoundRect*
0 Rectangle with rounded corners*
0 $1 Rounding radius*
0 $2 $3 $4 $5 $6 $7 $8 $9 X,Y pos of 4 corners*
0 Add a 4 corners polygon primitive as box body*
4,1,4,$2,$3,$4,$5,$6,$7,$8,$9,$2,$3,0*
0 Add four circle primitives for the rounded corners*
1,1,$1+$1,$2,$3*
1,1,$1+$1,$4,$5*
1,1,$1+$1,$6,$7*
1,1,$1+$1,$8,$9*
0 Add four rect primitives between the rounded corners*
20,1,$1+$1,$2,$3,$4,$5,0*
20,1,$1+$1,$4,$5,$6,$7,0*
20,1,$1+$1,$6,$7,$8,$9,0*
20,1,$1+$1,$8,$9,$2,$3,0*%
%AMFreePoly0*
4,1,6,1.000000,-1.000000,-1.000000,-1.000000,-1.000000,0.750000,-0.750000,1.000000,1.000000,1.000000,1.000000,-1.000000,1.000000,-1.000000,$1*%
G04 Aperture macros list end*
%ADD10C,0.450000*%
%ADD11C,1.500000*%
%ADD12C,0.800000*%
%ADD13C,1.250000*%
%ADD14R,5.000000X5.490000*%
%ADD15RoundRect,0.075000X-0.075000X-0.495000X0.075000X-0.495000X0.075000X0.495000X-0.075000X0.495000X0*%
%ADD16R,0.600000X1.140000*%
%ADD17FreePoly0,90.000000*%
%ADD18C,0.350000*%
%ADD19RoundRect,0.062500X0.287500X-0.062500X0.287500X0.062500X-0.287500X0.062500X-0.287500X-0.062500X0*%
%ADD20RoundRect,0.062500X0.062500X-0.287500X0.062500X0.287500X-0.062500X0.287500X-0.062500X-0.287500X0*%
%ADD21RoundRect,0.200000X0.275000X-0.200000X0.275000X0.200000X-0.275000X0.200000X-0.275000X-0.200000X0*%
%ADD22RoundRect,0.250000X0.375000X0.625000X-0.375000X0.625000X-0.375000X-0.625000X0.375000X-0.625000X0*%
%ADD23RoundRect,0.225000X-0.225000X-0.250000X0.225000X-0.250000X0.225000X0.250000X-0.225000X0.250000X0*%
%ADD24RoundRect,0.200000X0.200000X0.275000X-0.200000X0.275000X-0.200000X-0.275000X0.200000X-0.275000X0*%
%ADD25R,0.400000X0.650000*%
%ADD26RoundRect,0.200000X-0.200000X-0.275000X0.200000X-0.275000X0.200000X0.275000X-0.200000X0.275000X0*%
%ADD27R,0.500000X0.850000*%
%ADD28RoundRect,0.225000X0.225000X0.250000X-0.225000X0.250000X-0.225000X-0.250000X0.225000X-0.250000X0*%
%ADD29RoundRect,0.256250X0.256250X0.443750X-0.256250X0.443750X-0.256250X-0.443750X0.256250X-0.443750X0*%
%ADD30RoundRect,0.247500X0.315000X0.627500X-0.315000X0.627500X-0.315000X-0.627500X0.315000X-0.627500X0*%
%ADD31RoundRect,0.247500X-0.627500X0.315000X-0.627500X-0.315000X0.627500X-0.315000X0.627500X0.315000X0*%
%ADD32RoundRect,0.256250X-0.443750X0.256250X-0.443750X-0.256250X0.443750X-0.256250X0.443750X0.256250X0*%
%ADD33RoundRect,0.247500X-0.315000X-0.627500X0.315000X-0.627500X0.315000X0.627500X-0.315000X0.627500X0*%
%ADD34RoundRect,0.256250X-0.256250X-0.443750X0.256250X-0.443750X0.256250X0.443750X-0.256250X0.443750X0*%
%ADD35RoundRect,0.200000X-0.275000X0.200000X-0.275000X-0.200000X0.275000X-0.200000X0.275000X0.200000X0*%
%ADD36R,1.100000X0.600000*%
%ADD37RoundRect,0.250000X-0.250000X-0.475000X0.250000X-0.475000X0.250000X0.475000X-0.250000X0.475000X0*%
%ADD38R,3.700000X1.425000*%
%ADD39RoundRect,0.249375X0.625625X-0.463125X0.625625X0.463125X-0.625625X0.463125X-0.625625X-0.463125X0*%
%ADD40R,2.000000X2.000000*%
%ADD41C,2.000000*%
%ADD42RoundRect,0.250000X0.675000X-0.600000X0.675000X0.600000X-0.675000X0.600000X-0.675000X-0.600000X0*%
%ADD43O,1.850000X1.700000*%
%ADD44RoundRect,0.250000X-0.675000X0.600000X-0.675000X-0.600000X0.675000X-0.600000X0.675000X0.600000X0*%
G04 APERTURE END LIST*
%TO.C,JP4*%
G36*
X133450000Y-108300000D02*
G01*
X133050000Y-108300000D01*
X133050000Y-106600000D01*
X133450000Y-106600000D01*
X133450000Y-108300000D01*
G37*
D10*
%TO.C,Logo1*%
X152610000Y-99370000D02*
X156810000Y-102370000D01*
X152610000Y-99370000D02*
X156810000Y-99370000D01*
X154710000Y-99370000D02*
X154710000Y-100870000D01*
X154710000Y-99370000D02*
X156810000Y-97570000D01*
X152710000Y-97570000D02*
X154710000Y-99370000D01*
X156810000Y-100870000D02*
G75*
G03*
X156810000Y-99370000I0J750000D01*
G01*
%TO.C,JP6*%
G36*
X157450000Y-91412500D02*
G01*
X155750000Y-91412500D01*
X155750000Y-91012500D01*
X157450000Y-91012500D01*
X157450000Y-91412500D01*
G37*
%TO.C,JP2*%
G36*
X139750000Y-106500000D02*
G01*
X138050000Y-106500000D01*
X138050000Y-106100000D01*
X139750000Y-106100000D01*
X139750000Y-106500000D01*
G37*
%TO.C,JP8*%
G36*
X162450000Y-90800000D02*
G01*
X162050000Y-90800000D01*
X162050000Y-89100000D01*
X162450000Y-89100000D01*
X162450000Y-90800000D01*
G37*
%TD*%
D11*
%TO.C,J3*%
X143380000Y-103670000D03*
D12*
X150590000Y-104160000D03*
D13*
X152020000Y-107840000D03*
D11*
X152020000Y-103670000D03*
D13*
X143380000Y-107840000D03*
D12*
X144810000Y-104160000D03*
D14*
X147700000Y-107205000D03*
D15*
X145950000Y-103090000D03*
X146950000Y-103090000D03*
X148450000Y-103090000D03*
X149450000Y-103090000D03*
D16*
X150100000Y-103090000D03*
X150900000Y-103090000D03*
D15*
X148950000Y-103090000D03*
X147950000Y-103090000D03*
X147450000Y-103090000D03*
X146450000Y-103090000D03*
D16*
X145300000Y-103090000D03*
X144500000Y-103090000D03*
%TD*%
D17*
%TO.C,U2*%
X141450000Y-98050000D03*
D18*
X141450000Y-98050000D03*
D19*
X139550000Y-99050000D03*
X139550000Y-98550000D03*
X139550000Y-98050000D03*
X139550000Y-97550000D03*
X139550000Y-97050000D03*
D20*
X140450000Y-96150000D03*
X140950000Y-96150000D03*
X141450000Y-96150000D03*
X141950000Y-96150000D03*
X142450000Y-96150000D03*
D19*
X143350000Y-97050000D03*
X143350000Y-97550000D03*
X143350000Y-98050000D03*
X143350000Y-98550000D03*
X143350000Y-99050000D03*
D20*
X142450000Y-99950000D03*
X141950000Y-99950000D03*
X141450000Y-99950000D03*
X140950000Y-99950000D03*
X140450000Y-99950000D03*
%TD*%
D21*
%TO.C,R3*%
X142600000Y-91533217D03*
X142600000Y-89883217D03*
%TD*%
D22*
%TO.C,D2*%
X156440000Y-105650000D03*
X153640000Y-105650000D03*
%TD*%
D23*
%TO.C,C1*%
X140605000Y-101930000D03*
X142155000Y-101930000D03*
%TD*%
D24*
%TO.C,R5*%
X151050000Y-101650000D03*
X149400000Y-101650000D03*
%TD*%
D25*
%TO.C,D4*%
X133900000Y-94000000D03*
X133250000Y-94000000D03*
X132600000Y-94000000D03*
X132600000Y-95900000D03*
X133250000Y-95900000D03*
X133900000Y-95900000D03*
%TD*%
%TO.C,D3*%
X133900000Y-98500000D03*
X133250000Y-98500000D03*
X132600000Y-98500000D03*
X132600000Y-100400000D03*
X133250000Y-100400000D03*
X133900000Y-100400000D03*
%TD*%
D24*
%TO.C,R4*%
X145925000Y-101650000D03*
X144275000Y-101650000D03*
%TD*%
%TO.C,R6*%
X146625000Y-97350000D03*
X144975000Y-97350000D03*
%TD*%
D26*
%TO.C,R7*%
X144975000Y-98550000D03*
X146625000Y-98550000D03*
%TD*%
D27*
%TO.C,D1*%
X140400000Y-89833217D03*
X140400000Y-91583217D03*
X139400000Y-91583217D03*
X139400000Y-89833217D03*
%TD*%
D21*
%TO.C,R1*%
X141400000Y-91533217D03*
X141400000Y-89883217D03*
%TD*%
%TO.C,R2*%
X143800000Y-91533217D03*
X143800000Y-89883217D03*
%TD*%
D28*
%TO.C,C4*%
X155875000Y-103850000D03*
X154325000Y-103850000D03*
%TD*%
%TO.C,C2*%
X146575000Y-96150000D03*
X145025000Y-96150000D03*
%TD*%
%TO.C,C3*%
X146575000Y-99750000D03*
X145025000Y-99750000D03*
%TD*%
D25*
%TO.C,D8*%
X161600000Y-103400000D03*
X162250000Y-103400000D03*
X162900000Y-103400000D03*
X162900000Y-101500000D03*
X162250000Y-101500000D03*
X161600000Y-101500000D03*
%TD*%
D29*
%TO.C,JP4*%
X134162500Y-107450000D03*
D30*
X134712500Y-107450000D03*
D29*
X132337500Y-107450000D03*
D30*
X131787500Y-107450000D03*
%TD*%
D31*
%TO.C,JP6*%
X156600000Y-89750000D03*
D32*
X156600000Y-90300000D03*
D31*
X156600000Y-92675000D03*
D32*
X156600000Y-92125000D03*
%TD*%
D24*
%TO.C,R9*%
X150825000Y-97650000D03*
X149175000Y-97650000D03*
%TD*%
D32*
%TO.C,JP2*%
X138900000Y-105387500D03*
D31*
X138900000Y-104837500D03*
X138900000Y-107762500D03*
D32*
X138900000Y-107212500D03*
%TD*%
D33*
%TO.C,JP8*%
X160787500Y-89950000D03*
D34*
X161337500Y-89950000D03*
X163162500Y-89950000D03*
D33*
X163712500Y-89950000D03*
%TD*%
D29*
%TO.C,JP3*%
X134162500Y-104950000D03*
D30*
X134712500Y-104950000D03*
D29*
X132337500Y-104950000D03*
D30*
X131787500Y-104950000D03*
%TD*%
D29*
%TO.C,JP1*%
X134162500Y-102550000D03*
D30*
X134712500Y-102550000D03*
D29*
X132337500Y-102550000D03*
D30*
X131787500Y-102550000D03*
%TD*%
D25*
%TO.C,D9*%
X161600000Y-107900000D03*
X162250000Y-107900000D03*
X162900000Y-107900000D03*
X162900000Y-106000000D03*
X162250000Y-106000000D03*
X161600000Y-106000000D03*
%TD*%
D34*
%TO.C,JP5*%
X161337500Y-94950000D03*
D33*
X160787500Y-94950000D03*
D34*
X163162500Y-94950000D03*
D33*
X163712500Y-94950000D03*
%TD*%
D25*
%TO.C,D7*%
X161600000Y-99150000D03*
X162250000Y-99150000D03*
X162900000Y-99150000D03*
X162900000Y-97250000D03*
X162250000Y-97250000D03*
X161600000Y-97250000D03*
%TD*%
D34*
%TO.C,JP7*%
X161337500Y-92450000D03*
D33*
X160787500Y-92450000D03*
D34*
X163162500Y-92450000D03*
D33*
X163712500Y-92450000D03*
%TD*%
D35*
%TO.C,R8*%
X146200000Y-90725000D03*
X146200000Y-92375000D03*
%TD*%
D25*
%TO.C,D5*%
X133900000Y-89500000D03*
X133250000Y-89500000D03*
X132600000Y-89500000D03*
X132600000Y-91400000D03*
X133250000Y-91400000D03*
X133900000Y-91400000D03*
%TD*%
D36*
%TO.C,U3*%
X148390000Y-95190000D03*
D37*
X152340000Y-88840000D03*
D38*
X149790000Y-88840000D03*
D36*
X148390000Y-94240000D03*
D37*
X154240000Y-95090000D03*
D39*
X152910000Y-90477500D03*
D37*
X154240000Y-88840000D03*
D36*
X151090000Y-94240000D03*
D37*
X152340000Y-95090000D03*
D36*
X151090000Y-95190000D03*
D28*
X150765000Y-96340000D03*
D38*
X149790000Y-91840000D03*
D36*
X151090000Y-93290000D03*
X148390000Y-93290000D03*
D39*
X152910000Y-93442500D03*
D28*
X149215000Y-96340000D03*
%TD*%
D40*
%TO.C,J4*%
X153705000Y-108610000D03*
D41*
X156245000Y-108610000D03*
%TD*%
D42*
%TO.C,J1*%
X136600000Y-107500000D03*
D43*
X136600000Y-105000000D03*
X136600000Y-102500000D03*
X136600000Y-100000000D03*
X136600000Y-97500000D03*
X136600000Y-95000000D03*
X136600000Y-92500000D03*
X136600000Y-90000000D03*
%TD*%
D44*
%TO.C,J2*%
X158900000Y-90000000D03*
D43*
X158900000Y-92500000D03*
X158900000Y-95000000D03*
X158900000Y-97500000D03*
X158900000Y-100000000D03*
X158900000Y-102500000D03*
X158900000Y-105000000D03*
X158900000Y-107500000D03*
%TD*%
M02*
