%TF.GenerationSoftware,KiCad,Pcbnew,(6.0.2-0)*%
%TF.CreationDate,2022-03-03T14:58:56+00:00*%
%TF.ProjectId,Generic4,47656e65-7269-4633-942e-6b696361645f,1*%
%TF.SameCoordinates,Original*%
%TF.FileFunction,Copper,L2,Bot*%
%TF.FilePolarity,Positive*%
%FSLAX46Y46*%
G04 Gerber Fmt 4.6, Leading zero omitted, Abs format (unit mm)*
G04 Created by KiCad (PCBNEW (6.0.2-0)) date 2022-03-03 14:58:56*
%MOMM*%
%LPD*%
G01*
G04 APERTURE LIST*
G04 Aperture macros list*
%AMRoundRect*
0 Rectangle with rounded corners*
0 $1 Rounding radius*
0 $2 $3 $4 $5 $6 $7 $8 $9 X,Y pos of 4 corners*
0 Add a 4 corners polygon primitive as box body*
4,1,4,$2,$3,$4,$5,$6,$7,$8,$9,$2,$3,0*
0 Add four circle primitives for the rounded corners*
1,1,$1+$1,$2,$3*
1,1,$1+$1,$4,$5*
1,1,$1+$1,$6,$7*
1,1,$1+$1,$8,$9*
0 Add four rect primitives between the rounded corners*
20,1,$1+$1,$2,$3,$4,$5,0*
20,1,$1+$1,$4,$5,$6,$7,0*
20,1,$1+$1,$6,$7,$8,$9,0*
20,1,$1+$1,$8,$9,$2,$3,0*%
%AMFreePoly0*
4,1,43,1.487500,0.558253,1.533253,0.512500,1.550000,0.450000,1.535584,0.322050,1.493057,0.200517,1.424553,0.091493,1.333507,0.000447,1.224483,-0.068057,1.102950,-0.110584,0.975000,-0.125000,-0.975000,-0.125000,-1.102950,-0.110584,-1.224483,-0.068057,-1.333507,0.000447,-1.424553,0.091493,-1.493057,0.200517,-1.535584,0.322050,-1.550000,0.450000,-1.533253,0.512500,-1.487500,0.558253,
-1.425000,0.575000,-1.362500,0.558253,-1.316747,0.512500,-1.300000,0.450000,-1.302546,0.440498,-1.287946,0.348318,-1.241208,0.256589,-1.168411,0.183792,-1.076682,0.137054,-0.984502,0.122454,-0.975000,0.125000,0.975000,0.125000,0.984502,0.122454,1.076682,0.137054,1.168411,0.183792,1.241208,0.256589,1.287946,0.348318,1.302546,0.440498,1.300000,0.450000,1.316747,0.512500,
1.362500,0.558253,1.425000,0.575000,1.487500,0.558253,1.487500,0.558253,$1*%
%AMFreePoly1*
4,1,24,1.427950,0.110584,1.549483,0.068057,1.658507,-0.000447,1.749553,-0.091493,1.818057,-0.200517,1.860584,-0.322050,1.875000,-0.450000,1.858253,-0.512500,1.812500,-0.558253,1.750000,-0.575000,1.687500,-0.558253,1.641747,-0.512500,1.625000,-0.450000,1.627546,-0.440498,1.612946,-0.348318,1.566208,-0.256589,1.493411,-0.183792,1.401682,-0.137054,1.309502,-0.122454,1.300000,-0.125000,
-1.300000,-0.125000,-1.300000,0.125000,1.300000,0.125000,1.427950,0.110584,1.427950,0.110584,$1*%
%AMFreePoly2*
4,1,37,0.195545,0.234610,0.386273,0.188820,0.567490,0.113758,0.734733,0.011271,0.883885,-0.116117,1.011272,-0.265269,1.113759,-0.432512,1.188821,-0.613729,1.234611,-0.804457,1.250000,-1.000000,1.230970,-1.095671,1.176777,-1.176777,1.095671,-1.230970,1.000000,-1.250000,0.904329,-1.230970,0.823223,-1.176777,0.769030,-1.095671,0.750000,-1.000000,0.752427,-0.987798,0.739148,-0.852974,
0.696263,-0.711599,0.626620,-0.581306,0.532897,-0.467104,0.418695,-0.373381,0.288403,-0.303738,0.147027,-0.260852,0.012204,-0.247573,0.000002,-0.250000,-0.095669,-0.230970,-0.176775,-0.176777,-0.230968,-0.095671,-0.249998,0.000000,-0.230968,0.095671,-0.176775,0.176777,-0.095669,0.230970,0.000002,0.250000,0.195545,0.234610,0.195545,0.234610,$1*%
%AMFreePoly3*
4,1,72,6.695671,0.230970,6.776777,0.176777,6.830970,0.095671,6.850000,0.000000,6.830970,-0.095671,6.776777,-0.176777,6.695671,-0.230970,6.600000,-0.250000,5.112500,-0.250000,5.112500,-1.380275,5.176777,-1.423223,5.230970,-1.504329,5.250000,-1.600000,5.250000,-6.400000,5.236550,-6.536563,5.196716,-6.667878,5.132029,-6.788899,5.044975,-6.894975,4.938899,-6.982029,4.817878,-7.046716,
4.686563,-7.086550,4.550000,-7.100000,1.550000,-7.100000,1.413437,-7.086550,1.282122,-7.046716,1.161101,-6.982029,1.055025,-6.894975,0.967971,-6.788899,0.903284,-6.667878,0.863450,-6.536563,0.850000,-6.400000,0.850000,-5.900000,0.869030,-5.804329,0.923223,-5.723223,1.004329,-5.669030,1.100000,-5.650000,1.195671,-5.669030,1.276777,-5.723223,1.330970,-5.804329,1.350000,-5.900000,
1.350000,-6.400000,1.348612,-6.406977,1.357418,-6.462574,1.386180,-6.519022,1.430978,-6.563820,1.487426,-6.592582,1.543022,-6.601388,1.550000,-6.600000,4.550000,-6.600000,4.556978,-6.601388,4.612574,-6.592582,4.669022,-6.563820,4.713820,-6.519022,4.742582,-6.462574,4.751388,-6.406977,4.750000,-6.400000,4.750000,-1.819725,4.685723,-1.776777,4.631530,-1.695671,4.612500,-1.600000,
4.612500,-0.250000,0.000000,-0.250000,-0.095671,-0.230970,-0.176777,-0.176777,-0.230970,-0.095671,-0.250000,0.000000,-0.230970,0.095671,-0.176777,0.176777,-0.095671,0.230970,0.000000,0.250000,6.600000,0.250000,6.695671,0.230970,6.695671,0.230970,$1*%
G04 Aperture macros list end*
%TA.AperFunction,ComponentPad*%
%ADD10RoundRect,0.250000X-0.600000X-0.675000X0.600000X-0.675000X0.600000X0.675000X-0.600000X0.675000X0*%
%TD*%
%TA.AperFunction,ComponentPad*%
%ADD11O,1.700000X1.850000*%
%TD*%
%TA.AperFunction,SMDPad,CuDef*%
%ADD12RoundRect,0.200000X0.200000X0.275000X-0.200000X0.275000X-0.200000X-0.275000X0.200000X-0.275000X0*%
%TD*%
%TA.AperFunction,SMDPad,CuDef*%
%ADD13RoundRect,0.200000X-0.200000X-0.275000X0.200000X-0.275000X0.200000X0.275000X-0.200000X0.275000X0*%
%TD*%
%TA.AperFunction,ComponentPad*%
%ADD14R,1.700000X1.700000*%
%TD*%
%TA.AperFunction,ComponentPad*%
%ADD15O,1.700000X1.700000*%
%TD*%
%TA.AperFunction,SMDPad,CuDef*%
%ADD16R,0.500000X0.850000*%
%TD*%
%TA.AperFunction,SMDPad,CuDef*%
%ADD17R,2.000000X0.500000*%
%TD*%
%TA.AperFunction,SMDPad,CuDef*%
%ADD18R,0.600000X1.100000*%
%TD*%
%TA.AperFunction,SMDPad,CuDef*%
%ADD19RoundRect,0.225000X0.250000X-0.225000X0.250000X0.225000X-0.250000X0.225000X-0.250000X-0.225000X0*%
%TD*%
%TA.AperFunction,SMDPad,CuDef*%
%ADD20RoundRect,0.249375X0.463125X0.625625X-0.463125X0.625625X-0.463125X-0.625625X0.463125X-0.625625X0*%
%TD*%
%TA.AperFunction,SMDPad,CuDef*%
%ADD21R,1.425000X3.700000*%
%TD*%
%TA.AperFunction,SMDPad,CuDef*%
%ADD22FreePoly0,180.000000*%
%TD*%
%TA.AperFunction,SMDPad,CuDef*%
%ADD23FreePoly1,180.000000*%
%TD*%
%TA.AperFunction,SMDPad,CuDef*%
%ADD24R,0.500000X2.000000*%
%TD*%
%TA.AperFunction,SMDPad,CuDef*%
%ADD25FreePoly2,180.000000*%
%TD*%
%TA.AperFunction,SMDPad,CuDef*%
%ADD26RoundRect,0.250000X-0.475000X0.250000X-0.475000X-0.250000X0.475000X-0.250000X0.475000X0.250000X0*%
%TD*%
%TA.AperFunction,SMDPad,CuDef*%
%ADD27FreePoly3,180.000000*%
%TD*%
%TA.AperFunction,SMDPad,CuDef*%
%ADD28R,0.500000X4.000000*%
%TD*%
%TA.AperFunction,ViaPad*%
%ADD29C,0.800000*%
%TD*%
%TA.AperFunction,Conductor*%
%ADD30C,0.250000*%
%TD*%
G04 APERTURE END LIST*
D10*
%TO.P,J2,1,Pin_1*%
%TO.N,GND*%
X96250000Y-51440000D03*
D11*
%TO.P,J2,2,Pin_2*%
%TO.N,DC*%
X98750000Y-51440000D03*
%TO.P,J2,3,Pin_3*%
%TO.N,TX*%
X101250000Y-51440000D03*
%TO.P,J2,4,Pin_4*%
%TO.N,RX*%
X103750000Y-51440000D03*
%TD*%
D12*
%TO.P,R2,1*%
%TO.N,Net-(D1-Pad3)*%
X105575000Y-44750000D03*
%TO.P,R2,2*%
%TO.N,G*%
X103925000Y-44750000D03*
%TD*%
D13*
%TO.P,R5,1*%
%TO.N,GND*%
X101425000Y-39500000D03*
%TO.P,R5,2*%
%TO.N,Net-(R4-Pad2)*%
X103075000Y-39500000D03*
%TD*%
D14*
%TO.P,J1,1,Pin_1*%
%TO.N,GPIO0*%
X96190000Y-53980000D03*
D15*
%TO.P,J1,2,Pin_2*%
%TO.N,IO1*%
X96190000Y-56520000D03*
%TO.P,J1,3,Pin_3*%
%TO.N,IO2*%
X98730000Y-53980000D03*
%TO.P,J1,4,Pin_4*%
%TO.N,IO3*%
X98730000Y-56520000D03*
%TO.P,J1,5,Pin_5*%
%TO.N,IO4*%
X101270000Y-53980000D03*
%TO.P,J1,6,Pin_6*%
%TO.N,IO5*%
X101270000Y-56520000D03*
%TO.P,J1,7,Pin_7*%
%TO.N,IO6*%
X103810000Y-53980000D03*
%TO.P,J1,8,Pin_8*%
%TO.N,IO7*%
X103810000Y-56520000D03*
%TD*%
D12*
%TO.P,R1,1*%
%TO.N,Net-(D1-Pad2)*%
X105575000Y-46750000D03*
%TO.P,R1,2*%
%TO.N,R*%
X103925000Y-46750000D03*
%TD*%
%TO.P,R3,1*%
%TO.N,Net-(D1-Pad4)*%
X105625000Y-49000000D03*
%TO.P,R3,2*%
%TO.N,B*%
X103975000Y-49000000D03*
%TD*%
D16*
%TO.P,D1,1,A*%
%TO.N,EN*%
X104700000Y-41825000D03*
%TO.P,D1,2,RK*%
%TO.N,Net-(D1-Pad2)*%
X104700000Y-43575000D03*
%TO.P,D1,3,GK*%
%TO.N,Net-(D1-Pad3)*%
X105700000Y-43575000D03*
%TO.P,D1,4,BK*%
%TO.N,Net-(D1-Pad4)*%
X105700000Y-41825000D03*
%TD*%
D17*
%TO.P,U2,*%
%TO.N,*%
X98300000Y-43600000D03*
D18*
X99250000Y-43600000D03*
D19*
X102300000Y-43275000D03*
D20*
X99402500Y-45420000D03*
D21*
X97800000Y-42300000D03*
D19*
X102300000Y-41725000D03*
D22*
X100675000Y-42700000D03*
D18*
X99250000Y-40900000D03*
D23*
X101000000Y-41800000D03*
D24*
X99250000Y-44550000D03*
D18*
%TO.P,U2,1,SHDN*%
%TO.N,DC*%
X101150000Y-43600000D03*
D25*
%TO.P,U2,2,VIN*%
X101260000Y-44800000D03*
D26*
X101050000Y-44850000D03*
D18*
X100200000Y-43600000D03*
D26*
%TO.P,U2,3,GND*%
%TO.N,GND*%
X94800000Y-46750000D03*
D20*
X96437500Y-45420000D03*
D18*
X100200000Y-40900000D03*
D27*
X101300000Y-46750000D03*
D26*
X101050000Y-46750000D03*
D21*
%TO.P,U2,4,VOUT*%
%TO.N,EN*%
X94800000Y-42300000D03*
D28*
X94800000Y-43050000D03*
D26*
X94800000Y-44850000D03*
D18*
%TO.P,U2,5,FB*%
%TO.N,Net-(R4-Pad2)*%
X101150000Y-40900000D03*
%TD*%
D12*
%TO.P,R4,1*%
%TO.N,EN*%
X105825000Y-39500000D03*
%TO.P,R4,2*%
%TO.N,Net-(R4-Pad2)*%
X104175000Y-39500000D03*
%TD*%
D29*
%TO.N,GND*%
X94050000Y-52550000D03*
X105550000Y-57250000D03*
X98000000Y-45200000D03*
X95980632Y-40075495D03*
%TO.N,TX*%
X102800000Y-47500000D03*
%TO.N,RX*%
X103800000Y-47825500D03*
%TO.N,EN*%
X95000000Y-45650500D03*
X104843977Y-40422504D03*
%TO.N,IO3*%
X100000000Y-55400000D03*
X99800000Y-48093748D03*
%TO.N,IO1*%
X97600000Y-55200000D03*
X97600000Y-47900000D03*
%TO.N,GPIO0*%
X104775989Y-52800000D03*
%TO.N,R*%
X103374500Y-43255354D03*
%TO.N,G*%
X103500000Y-41000000D03*
%TO.N,B*%
X104800000Y-48000000D03*
%TD*%
D30*
%TO.N,EN*%
X104700000Y-41825000D02*
X104700000Y-40566481D01*
X104700000Y-40566481D02*
X104843977Y-40422504D01*
%TO.N,Net-(D1-Pad3)*%
X105700000Y-43575000D02*
X105700000Y-44625000D01*
X105700000Y-44625000D02*
X105575000Y-44750000D01*
%TO.N,G*%
X103925000Y-44750000D02*
X103925000Y-43775000D01*
X103925000Y-43775000D02*
X104125489Y-43574511D01*
X104125489Y-43574511D02*
X104125489Y-42925489D01*
X103500000Y-42300000D02*
X103500000Y-41000000D01*
X104125489Y-42925489D02*
X103500000Y-42300000D01*
%TO.N,Net-(D1-Pad2)*%
X104700000Y-43575000D02*
X104700000Y-45875000D01*
X104700000Y-45875000D02*
X105575000Y-46750000D01*
%TO.N,R*%
X103374500Y-43255354D02*
X103200480Y-43429374D01*
X103200480Y-46025480D02*
X103925000Y-46750000D01*
X103200480Y-43429374D02*
X103200480Y-46025480D01*
%TO.N,GND*%
X97780000Y-45420000D02*
X98000000Y-45200000D01*
X100200000Y-40900000D02*
X100200000Y-40100000D01*
X96437500Y-45420000D02*
X96437500Y-40532363D01*
X96437500Y-40532363D02*
X95980632Y-40075495D01*
X100800000Y-39500000D02*
X101425000Y-39500000D01*
X96437500Y-45420000D02*
X97780000Y-45420000D01*
X100200000Y-40100000D02*
X100800000Y-39500000D01*
%TO.N,TX*%
X101250000Y-49950000D02*
X102550000Y-48650000D01*
X102550000Y-48650000D02*
X102800000Y-48400000D01*
X101250000Y-51440000D02*
X101250000Y-49950000D01*
X102800000Y-48400000D02*
X102800000Y-47500000D01*
%TO.N,RX*%
X103250480Y-50940480D02*
X103750000Y-51440000D01*
X103800000Y-47825500D02*
X103250480Y-48375020D01*
X103250480Y-48375020D02*
X103250480Y-50940480D01*
%TO.N,DC*%
X99130753Y-47369247D02*
X98750000Y-47750000D01*
X100100099Y-47369247D02*
X99130753Y-47369247D01*
X100200000Y-43350000D02*
X101150000Y-43350000D01*
X101050000Y-44600000D02*
X102099520Y-45649520D01*
X102099520Y-45649520D02*
X102099520Y-47312973D01*
X101812493Y-47600000D02*
X100330852Y-47600000D01*
X102099520Y-47312973D02*
X101812493Y-47600000D01*
X100330852Y-47600000D02*
X100100099Y-47369247D01*
X98750000Y-47750000D02*
X98750000Y-51440000D01*
%TO.N,EN*%
X94800000Y-45450500D02*
X95000000Y-45650500D01*
X94800000Y-44850000D02*
X94800000Y-45450500D01*
X104843977Y-40422504D02*
X104902496Y-40422504D01*
X104902496Y-40422504D02*
X105825000Y-39500000D01*
%TO.N,IO3*%
X100000000Y-55400000D02*
X100000000Y-48293748D01*
X100000000Y-48293748D02*
X99800000Y-48093748D01*
%TO.N,IO1*%
X97600000Y-55200000D02*
X97555489Y-55155489D01*
X97555489Y-47944511D02*
X97600000Y-47900000D01*
X97555489Y-55155489D02*
X97555489Y-47944511D01*
%TO.N,Net-(D1-Pad4)*%
X106299520Y-48225480D02*
X105625000Y-48900000D01*
X106299520Y-42424520D02*
X106299520Y-48225480D01*
X105700000Y-41825000D02*
X106299520Y-42424520D01*
%TO.N,GPIO0*%
X103328990Y-52800000D02*
X104775989Y-52800000D01*
X95015489Y-57006499D02*
X95703501Y-57694511D01*
X102444511Y-53684479D02*
X103328990Y-52800000D01*
X95015489Y-55154511D02*
X95015489Y-57006499D01*
X95703501Y-57694511D02*
X102105489Y-57694511D01*
X96190000Y-53980000D02*
X95015489Y-55154511D01*
X102444511Y-57355489D02*
X102444511Y-53684479D01*
X102105489Y-57694511D02*
X102444511Y-57355489D01*
%TO.N,B*%
X103975000Y-48900000D02*
X103975000Y-48825000D01*
X103975000Y-48825000D02*
X104800000Y-48000000D01*
%TO.N,Net-(R4-Pad2)*%
X101675000Y-40900000D02*
X103075000Y-39500000D01*
X101150000Y-40900000D02*
X101675000Y-40900000D01*
X103075000Y-39500000D02*
X104175000Y-39500000D01*
%TD*%
%TA.AperFunction,Conductor*%
%TO.N,GND*%
G36*
X104846479Y-48655343D02*
G01*
X104914277Y-48676412D01*
X104959922Y-48730791D01*
X104970500Y-48781327D01*
X104970501Y-49080809D01*
X104970501Y-49329314D01*
X104973507Y-49361127D01*
X105018791Y-49490076D01*
X105099990Y-49600010D01*
X105209924Y-49681209D01*
X105338873Y-49726493D01*
X105346515Y-49727215D01*
X105346518Y-49727216D01*
X105361421Y-49728624D01*
X105370685Y-49729500D01*
X105624828Y-49729500D01*
X105879314Y-49729499D01*
X105882262Y-49729220D01*
X105882271Y-49729220D01*
X105903478Y-49727216D01*
X105903480Y-49727216D01*
X105911127Y-49726493D01*
X106040076Y-49681209D01*
X106145140Y-49603607D01*
X106211819Y-49579224D01*
X106281094Y-49594761D01*
X106330973Y-49645284D01*
X106346000Y-49704958D01*
X106346000Y-57720000D01*
X106325998Y-57788121D01*
X106272342Y-57834614D01*
X106220000Y-57846000D01*
X104100687Y-57846000D01*
X104032566Y-57825998D01*
X103986073Y-57772342D01*
X103975969Y-57702068D01*
X104005463Y-57637488D01*
X104069033Y-57598843D01*
X104068945Y-57598584D01*
X104145309Y-57572662D01*
X104255693Y-57535192D01*
X104255698Y-57535190D01*
X104261165Y-57533334D01*
X104438276Y-57434147D01*
X104444322Y-57429119D01*
X104589913Y-57308031D01*
X104594345Y-57304345D01*
X104618172Y-57275696D01*
X104720453Y-57152718D01*
X104720455Y-57152715D01*
X104724147Y-57148276D01*
X104823334Y-56971165D01*
X104825190Y-56965698D01*
X104825192Y-56965693D01*
X104886728Y-56784414D01*
X104886729Y-56784409D01*
X104888584Y-56778945D01*
X104889412Y-56773236D01*
X104889413Y-56773231D01*
X104917179Y-56581727D01*
X104917712Y-56578053D01*
X104919232Y-56520000D01*
X104900658Y-56317859D01*
X104899090Y-56312298D01*
X104847125Y-56128046D01*
X104847124Y-56128044D01*
X104845557Y-56122487D01*
X104842120Y-56115516D01*
X104758331Y-55945609D01*
X104755776Y-55940428D01*
X104634320Y-55777779D01*
X104485258Y-55639987D01*
X104480375Y-55636906D01*
X104480371Y-55636903D01*
X104318464Y-55534748D01*
X104313581Y-55531667D01*
X104125039Y-55456446D01*
X104119379Y-55455320D01*
X104119375Y-55455319D01*
X103931613Y-55417971D01*
X103931610Y-55417971D01*
X103925946Y-55416844D01*
X103920171Y-55416768D01*
X103920167Y-55416768D01*
X103818793Y-55415441D01*
X103722971Y-55414187D01*
X103717274Y-55415166D01*
X103717273Y-55415166D01*
X103528607Y-55447585D01*
X103522910Y-55448564D01*
X103332463Y-55518824D01*
X103158010Y-55622612D01*
X103153670Y-55626418D01*
X103153666Y-55626421D01*
X103033089Y-55732165D01*
X102968685Y-55762042D01*
X102898352Y-55752356D01*
X102844420Y-55706183D01*
X102824011Y-55637433D01*
X102824011Y-54860196D01*
X102844013Y-54792075D01*
X102897669Y-54745582D01*
X102967943Y-54735478D01*
X103032523Y-54764972D01*
X103037928Y-54769939D01*
X103111938Y-54842035D01*
X103280720Y-54954812D01*
X103286023Y-54957090D01*
X103286026Y-54957092D01*
X103374707Y-54995192D01*
X103467228Y-55034942D01*
X103540244Y-55051464D01*
X103659579Y-55078467D01*
X103659584Y-55078468D01*
X103665216Y-55079742D01*
X103670987Y-55079969D01*
X103670989Y-55079969D01*
X103730756Y-55082317D01*
X103868053Y-55087712D01*
X103968499Y-55073148D01*
X104063231Y-55059413D01*
X104063236Y-55059412D01*
X104068945Y-55058584D01*
X104074409Y-55056729D01*
X104074414Y-55056728D01*
X104255693Y-54995192D01*
X104255698Y-54995190D01*
X104261165Y-54993334D01*
X104291448Y-54976375D01*
X104380366Y-54926578D01*
X104438276Y-54894147D01*
X104443288Y-54889979D01*
X104589913Y-54768031D01*
X104594345Y-54764345D01*
X104647537Y-54700389D01*
X104720453Y-54612718D01*
X104720455Y-54612715D01*
X104724147Y-54608276D01*
X104823334Y-54431165D01*
X104825190Y-54425698D01*
X104825192Y-54425693D01*
X104886728Y-54244414D01*
X104886729Y-54244409D01*
X104888584Y-54238945D01*
X104889412Y-54233236D01*
X104889413Y-54233231D01*
X104917179Y-54041727D01*
X104917712Y-54038053D01*
X104919232Y-53980000D01*
X104900658Y-53777859D01*
X104847875Y-53590705D01*
X104848635Y-53519712D01*
X104887656Y-53460400D01*
X104941015Y-53433683D01*
X104991916Y-53422025D01*
X104999321Y-53420329D01*
X105069731Y-53384917D01*
X105134061Y-53352563D01*
X105134064Y-53352561D01*
X105140844Y-53349151D01*
X105146615Y-53344222D01*
X105146618Y-53344220D01*
X105255525Y-53251204D01*
X105255525Y-53251203D01*
X105261303Y-53246269D01*
X105353744Y-53117624D01*
X105412831Y-52970641D01*
X105424270Y-52890266D01*
X105434570Y-52817891D01*
X105434570Y-52817888D01*
X105435151Y-52813807D01*
X105435296Y-52800000D01*
X105416265Y-52642733D01*
X105360269Y-52494546D01*
X105270542Y-52363992D01*
X105152264Y-52258611D01*
X105012263Y-52184484D01*
X104858622Y-52145892D01*
X104855130Y-52145874D01*
X104791659Y-52118193D01*
X104752257Y-52059134D01*
X104751039Y-51988148D01*
X104755660Y-51974468D01*
X104811592Y-51835685D01*
X104813834Y-51830122D01*
X104854229Y-51623271D01*
X104854500Y-51617730D01*
X104854500Y-51312341D01*
X104839507Y-51155194D01*
X104780177Y-50952958D01*
X104729415Y-50854397D01*
X104686422Y-50770921D01*
X104686420Y-50770918D01*
X104683676Y-50765590D01*
X104595265Y-50653038D01*
X104557192Y-50604568D01*
X104557188Y-50604564D01*
X104553486Y-50599851D01*
X104548955Y-50595919D01*
X104398835Y-50465650D01*
X104398830Y-50465646D01*
X104394304Y-50461719D01*
X104211874Y-50356181D01*
X104012778Y-50287043D01*
X104006845Y-50286183D01*
X104006842Y-50286182D01*
X103810140Y-50257662D01*
X103810137Y-50257662D01*
X103804200Y-50256801D01*
X103766323Y-50258554D01*
X103761805Y-50258763D01*
X103692832Y-50241932D01*
X103643909Y-50190483D01*
X103629980Y-50132898D01*
X103629980Y-49855500D01*
X103649982Y-49787379D01*
X103703638Y-49740886D01*
X103755980Y-49729500D01*
X104189860Y-49729499D01*
X104229314Y-49729499D01*
X104232262Y-49729220D01*
X104232271Y-49729220D01*
X104253478Y-49727216D01*
X104253480Y-49727216D01*
X104261127Y-49726493D01*
X104390076Y-49681209D01*
X104500010Y-49600010D01*
X104581209Y-49490076D01*
X104626493Y-49361127D01*
X104629500Y-49329315D01*
X104629499Y-48779929D01*
X104649501Y-48711808D01*
X104703156Y-48665315D01*
X104757478Y-48653945D01*
X104846479Y-48655343D01*
G37*
%TD.AperFunction*%
%TA.AperFunction,Conductor*%
G36*
X96462124Y-47514079D02*
G01*
X96462124Y-47513729D01*
X96863717Y-47513729D01*
X96931838Y-47533731D01*
X96978331Y-47587387D01*
X96988435Y-47657661D01*
X96981110Y-47685498D01*
X96961406Y-47736037D01*
X96960414Y-47743570D01*
X96960414Y-47743571D01*
X96942424Y-47880224D01*
X96940729Y-47893096D01*
X96945457Y-47935919D01*
X96956538Y-48036285D01*
X96958113Y-48050553D01*
X96960723Y-48057684D01*
X96960723Y-48057686D01*
X96985996Y-48126747D01*
X97012553Y-48199319D01*
X97016789Y-48205622D01*
X97016789Y-48205623D01*
X97035586Y-48233595D01*
X97100908Y-48330805D01*
X97134788Y-48361633D01*
X97171711Y-48422273D01*
X97175989Y-48454827D01*
X97175989Y-49899948D01*
X97155987Y-49968069D01*
X97102331Y-50014562D01*
X97032057Y-50024666D01*
X97015645Y-50020796D01*
X96997914Y-50016995D01*
X96903562Y-50007328D01*
X96897145Y-50007000D01*
X96522115Y-50007000D01*
X96506876Y-50011475D01*
X96505671Y-50012865D01*
X96504000Y-50020548D01*
X96504000Y-51568000D01*
X96483998Y-51636121D01*
X96430342Y-51682614D01*
X96378000Y-51694000D01*
X94910116Y-51694000D01*
X94894877Y-51698475D01*
X94893672Y-51699865D01*
X94892001Y-51707548D01*
X94892001Y-52162095D01*
X94892338Y-52168614D01*
X94902257Y-52264206D01*
X94905149Y-52277600D01*
X94956588Y-52431784D01*
X94962761Y-52444962D01*
X95048063Y-52582807D01*
X95057099Y-52594208D01*
X95171829Y-52708739D01*
X95188985Y-52722288D01*
X95187606Y-52724035D01*
X95227838Y-52768731D01*
X95239268Y-52838801D01*
X95211000Y-52903928D01*
X95184237Y-52927993D01*
X95156516Y-52946516D01*
X95100266Y-53030699D01*
X95085500Y-53104933D01*
X95085500Y-53111120D01*
X95085501Y-54495615D01*
X95065499Y-54563736D01*
X95048596Y-54584710D01*
X94785273Y-54848033D01*
X94766525Y-54863175D01*
X94765300Y-54864290D01*
X94756549Y-54869940D01*
X94750102Y-54878118D01*
X94750100Y-54878120D01*
X94735760Y-54896311D01*
X94731814Y-54900752D01*
X94731887Y-54900814D01*
X94728528Y-54904778D01*
X94724851Y-54908455D01*
X94713597Y-54924203D01*
X94710091Y-54928873D01*
X94678333Y-54969158D01*
X94675301Y-54977792D01*
X94669975Y-54985245D01*
X94666990Y-54995226D01*
X94655288Y-55034355D01*
X94653453Y-55040003D01*
X94648050Y-55055389D01*
X94636471Y-55088362D01*
X94635989Y-55093927D01*
X94635989Y-55096635D01*
X94635875Y-55099269D01*
X94635846Y-55099367D01*
X94635682Y-55099360D01*
X94635638Y-55100064D01*
X94633776Y-55106289D01*
X94635814Y-55158157D01*
X94635892Y-55160146D01*
X94635989Y-55165093D01*
X94635989Y-56952579D01*
X94633440Y-56976527D01*
X94633361Y-56978192D01*
X94631169Y-56988375D01*
X94632393Y-56998716D01*
X94635116Y-57021722D01*
X94635466Y-57027653D01*
X94635561Y-57027645D01*
X94635989Y-57032823D01*
X94635989Y-57038023D01*
X94636843Y-57043152D01*
X94636843Y-57043155D01*
X94639158Y-57057064D01*
X94639995Y-57062942D01*
X94646019Y-57113840D01*
X94649982Y-57122092D01*
X94651485Y-57131125D01*
X94656432Y-57140294D01*
X94656433Y-57140296D01*
X94675823Y-57176231D01*
X94678520Y-57181524D01*
X94697274Y-57220581D01*
X94697277Y-57220585D01*
X94700708Y-57227731D01*
X94704303Y-57232007D01*
X94706226Y-57233930D01*
X94707998Y-57235862D01*
X94708041Y-57235941D01*
X94707917Y-57236054D01*
X94708393Y-57236594D01*
X94711479Y-57242313D01*
X94719124Y-57249380D01*
X94751075Y-57278915D01*
X94754641Y-57282345D01*
X95103201Y-57630905D01*
X95137227Y-57693217D01*
X95132162Y-57764032D01*
X95089615Y-57820868D01*
X95023095Y-57845679D01*
X95014106Y-57846000D01*
X93780000Y-57846000D01*
X93711879Y-57825998D01*
X93665386Y-57772342D01*
X93654000Y-57720000D01*
X93654000Y-51167885D01*
X94892000Y-51167885D01*
X94896475Y-51183124D01*
X94897865Y-51184329D01*
X94905548Y-51186000D01*
X95977885Y-51186000D01*
X95993124Y-51181525D01*
X95994329Y-51180135D01*
X95996000Y-51172452D01*
X95996000Y-50025116D01*
X95991525Y-50009877D01*
X95990135Y-50008672D01*
X95982452Y-50007001D01*
X95602905Y-50007001D01*
X95596386Y-50007338D01*
X95500794Y-50017257D01*
X95487400Y-50020149D01*
X95333216Y-50071588D01*
X95320038Y-50077761D01*
X95182193Y-50163063D01*
X95170792Y-50172099D01*
X95056261Y-50286829D01*
X95047249Y-50298240D01*
X94962184Y-50436243D01*
X94956037Y-50449424D01*
X94904862Y-50603710D01*
X94901995Y-50617086D01*
X94892328Y-50711438D01*
X94892000Y-50717855D01*
X94892000Y-51167885D01*
X93654000Y-51167885D01*
X93654000Y-47702157D01*
X93674002Y-47634036D01*
X93727658Y-47587543D01*
X93797932Y-47577439D01*
X93851100Y-47600274D01*
X93851697Y-47599305D01*
X93995090Y-47687694D01*
X94002262Y-47692115D01*
X94032538Y-47702157D01*
X94163611Y-47745632D01*
X94163613Y-47745632D01*
X94170139Y-47747797D01*
X94176975Y-47748497D01*
X94176978Y-47748498D01*
X94220031Y-47752909D01*
X94274600Y-47758500D01*
X95325400Y-47758500D01*
X95328646Y-47758163D01*
X95328650Y-47758163D01*
X95424308Y-47748238D01*
X95424312Y-47748237D01*
X95431166Y-47747526D01*
X95437702Y-47745345D01*
X95437704Y-47745345D01*
X95589966Y-47694546D01*
X95598946Y-47691550D01*
X95749348Y-47598478D01*
X95754521Y-47593296D01*
X95797032Y-47550711D01*
X95859315Y-47516632D01*
X95886205Y-47513729D01*
X96362852Y-47513729D01*
X96380783Y-47515011D01*
X96391710Y-47516582D01*
X96434637Y-47514281D01*
X96452650Y-47513316D01*
X96462124Y-47514079D01*
G37*
%TD.AperFunction*%
%TA.AperFunction,Conductor*%
G36*
X98526325Y-44370502D02*
G01*
X98572818Y-44424158D01*
X98582922Y-44494432D01*
X98559556Y-44551357D01*
X98537301Y-44581488D01*
X98492478Y-44709125D01*
X98489500Y-44740627D01*
X98489501Y-45320757D01*
X98489501Y-45860271D01*
X98469499Y-45928392D01*
X98415843Y-45974885D01*
X98363501Y-45986271D01*
X97784500Y-45986271D01*
X97716379Y-45966269D01*
X97669886Y-45912613D01*
X97658500Y-45860271D01*
X97658499Y-44747291D01*
X97658499Y-44744024D01*
X97655672Y-44716770D01*
X97648245Y-44645195D01*
X97647534Y-44638338D01*
X97617772Y-44549129D01*
X97606845Y-44516376D01*
X97604261Y-44445426D01*
X97640445Y-44384342D01*
X97703909Y-44352518D01*
X97726369Y-44350500D01*
X98458204Y-44350500D01*
X98526325Y-44370502D01*
G37*
%TD.AperFunction*%
%TA.AperFunction,Conductor*%
G36*
X100495870Y-38874002D02*
G01*
X100542363Y-38927658D01*
X100552467Y-38997932D01*
X100547983Y-39017679D01*
X100525744Y-39088644D01*
X100523131Y-39101694D01*
X100517266Y-39165521D01*
X100517000Y-39171309D01*
X100517000Y-39173519D01*
X100516880Y-39173928D01*
X100516868Y-39174186D01*
X100516805Y-39174183D01*
X100496998Y-39241640D01*
X100443342Y-39288133D01*
X100373068Y-39298237D01*
X100331604Y-39284641D01*
X100264079Y-39248548D01*
X100261346Y-39247087D01*
X100258493Y-39245905D01*
X100258484Y-39245901D01*
X100171154Y-39209728D01*
X100171155Y-39209728D01*
X100168303Y-39208547D01*
X100036352Y-39168520D01*
X99937576Y-39148873D01*
X99934501Y-39148570D01*
X99934500Y-39148570D01*
X99831526Y-39138428D01*
X99825946Y-39137753D01*
X99801920Y-39134299D01*
X99801916Y-39134299D01*
X99795790Y-39133418D01*
X99789610Y-39133749D01*
X99789604Y-39133749D01*
X99734850Y-39136684D01*
X99725376Y-39135921D01*
X99725376Y-39136271D01*
X96824649Y-39136271D01*
X96806717Y-39134988D01*
X96801920Y-39134298D01*
X96801908Y-39134297D01*
X96795784Y-39133417D01*
X96693174Y-39138918D01*
X96684781Y-39138656D01*
X96684602Y-39136840D01*
X96595038Y-39145661D01*
X96565499Y-39148570D01*
X96565496Y-39148570D01*
X96562424Y-39148873D01*
X96463648Y-39168520D01*
X96331697Y-39208547D01*
X96328845Y-39209728D01*
X96328846Y-39209728D01*
X96241516Y-39245901D01*
X96241507Y-39245905D01*
X96238654Y-39247087D01*
X96117048Y-39312087D01*
X96033314Y-39368037D01*
X95926725Y-39455512D01*
X95855512Y-39526725D01*
X95768037Y-39633314D01*
X95712087Y-39717048D01*
X95647087Y-39838654D01*
X95645905Y-39841507D01*
X95645901Y-39841516D01*
X95613929Y-39918705D01*
X95608547Y-39931697D01*
X95568520Y-40063648D01*
X95567914Y-40066696D01*
X95562467Y-40094080D01*
X95529560Y-40156990D01*
X95467866Y-40192123D01*
X95438888Y-40195500D01*
X94149492Y-40195501D01*
X94062434Y-40195501D01*
X94026682Y-40202612D01*
X94000374Y-40207844D01*
X94000372Y-40207845D01*
X93988199Y-40210266D01*
X93977879Y-40217161D01*
X93977878Y-40217162D01*
X93929479Y-40249502D01*
X93904016Y-40266516D01*
X93897123Y-40276832D01*
X93884765Y-40295327D01*
X93830288Y-40340855D01*
X93759845Y-40349703D01*
X93695801Y-40319061D01*
X93658489Y-40258659D01*
X93654000Y-40225325D01*
X93654000Y-38980000D01*
X93674002Y-38911879D01*
X93727658Y-38865386D01*
X93780000Y-38854000D01*
X100427749Y-38854000D01*
X100495870Y-38874002D01*
G37*
%TD.AperFunction*%
%TD*%
M02*
