M48
; DRILL file {KiCad (6.0.2-0)} date Tuesday, 03 May 2022 at 11:34:55
; FORMAT={-:-/ absolute / inch / decimal}
; #@! TF.CreationDate,2022-05-03T11:34:55+01:00
; #@! TF.GenerationSoftware,Kicad,Pcbnew,(6.0.2-0)
; #@! TF.FileFunction,Plated,1,2,PTH
FMAT,2
INCH
; #@! TA.AperFunction,Plated,PTH,ViaDrill
T1C0.0157
; #@! TA.AperFunction,Plated,PTH,ComponentDrill
T2C0.0394
%
G90
G05
T1
X3.624Y-1.7992
X3.624Y-1.8996
X3.624Y-2.0
X3.626Y-1.6004
X3.626Y-1.7008
X3.689Y-1.5965
X3.7008Y-2.0748
X3.7554Y-1.6709
X3.7992Y-1.9016
X3.7992Y-2.0118
X3.8016Y-1.6394
X3.8661Y-1.815
X3.9016Y-2.0118
X3.9699Y-1.9291
X4.0Y-2.0118
X4.0134Y-1.9141
X4.0868Y-1.7331
X4.0868Y-1.7717
X4.1063Y-1.9267
X4.133Y-1.7353
X4.1417Y-1.8268
X4.2138Y-1.5935
X4.2756Y-1.5984
X4.2756Y-1.7008
X4.2756Y-1.7992
X4.2756Y-1.9016
T2
X3.65Y-1.55
X3.65Y-1.65
X3.65Y-1.75
X3.65Y-1.85
X3.65Y-1.95
X3.65Y-2.05
X3.75Y-2.05
X3.85Y-2.05
X3.95Y-2.05
X4.05Y-2.05
X4.15Y-2.05
X4.25Y-1.55
X4.25Y-1.65
X4.25Y-1.75
X4.25Y-1.85
X4.25Y-1.95
X4.25Y-2.05
T0
M30
