%TF.GenerationSoftware,KiCad,Pcbnew,(6.0.2-0)*%
%TF.CreationDate,2022-03-04T15:37:13+00:00*%
%TF.ProjectId,Generic5,47656e65-7269-4633-952e-6b696361645f,1*%
%TF.SameCoordinates,Original*%
%TF.FileFunction,Copper,L2,Bot*%
%TF.FilePolarity,Positive*%
%FSLAX46Y46*%
G04 Gerber Fmt 4.6, Leading zero omitted, Abs format (unit mm)*
G04 Created by KiCad (PCBNEW (6.0.2-0)) date 2022-03-04 15:37:13*
%MOMM*%
%LPD*%
G01*
G04 APERTURE LIST*
G04 Aperture macros list*
%AMRoundRect*
0 Rectangle with rounded corners*
0 $1 Rounding radius*
0 $2 $3 $4 $5 $6 $7 $8 $9 X,Y pos of 4 corners*
0 Add a 4 corners polygon primitive as box body*
4,1,4,$2,$3,$4,$5,$6,$7,$8,$9,$2,$3,0*
0 Add four circle primitives for the rounded corners*
1,1,$1+$1,$2,$3*
1,1,$1+$1,$4,$5*
1,1,$1+$1,$6,$7*
1,1,$1+$1,$8,$9*
0 Add four rect primitives between the rounded corners*
20,1,$1+$1,$2,$3,$4,$5,0*
20,1,$1+$1,$4,$5,$6,$7,0*
20,1,$1+$1,$6,$7,$8,$9,0*
20,1,$1+$1,$8,$9,$2,$3,0*%
%AMOutline5P*
0 Free polygon, 5 corners , with rotation*
0 The origin of the aperture is its center*
0 number of corners: always 5*
0 $1 to $10 corner X, Y*
0 $11 Rotation angle, in degrees counterclockwise*
0 create outline with 5 corners*
4,1,5,$1,$2,$3,$4,$5,$6,$7,$8,$9,$10,$1,$2,$11*%
%AMOutline6P*
0 Free polygon, 6 corners , with rotation*
0 The origin of the aperture is its center*
0 number of corners: always 6*
0 $1 to $12 corner X, Y*
0 $13 Rotation angle, in degrees counterclockwise*
0 create outline with 6 corners*
4,1,6,$1,$2,$3,$4,$5,$6,$7,$8,$9,$10,$11,$12,$1,$2,$13*%
%AMOutline7P*
0 Free polygon, 7 corners , with rotation*
0 The origin of the aperture is its center*
0 number of corners: always 7*
0 $1 to $14 corner X, Y*
0 $15 Rotation angle, in degrees counterclockwise*
0 create outline with 7 corners*
4,1,7,$1,$2,$3,$4,$5,$6,$7,$8,$9,$10,$11,$12,$13,$14,$1,$2,$15*%
%AMOutline8P*
0 Free polygon, 8 corners , with rotation*
0 The origin of the aperture is its center*
0 number of corners: always 8*
0 $1 to $16 corner X, Y*
0 $17 Rotation angle, in degrees counterclockwise*
0 create outline with 8 corners*
4,1,8,$1,$2,$3,$4,$5,$6,$7,$8,$9,$10,$11,$12,$13,$14,$15,$16,$1,$2,$17*%
%AMFreePoly0*
4,1,43,1.487500,0.558253,1.533253,0.512500,1.550000,0.450000,1.535584,0.322050,1.493057,0.200517,1.424553,0.091493,1.333507,0.000447,1.224483,-0.068057,1.102950,-0.110584,0.975000,-0.125000,-0.975000,-0.125000,-1.102950,-0.110584,-1.224483,-0.068057,-1.333507,0.000447,-1.424553,0.091493,-1.493057,0.200517,-1.535584,0.322050,-1.550000,0.450000,-1.533253,0.512500,-1.487500,0.558253,
-1.425000,0.575000,-1.362500,0.558253,-1.316747,0.512500,-1.300000,0.450000,-1.302546,0.440498,-1.287946,0.348318,-1.241208,0.256589,-1.168411,0.183792,-1.076682,0.137054,-0.984502,0.122454,-0.975000,0.125000,0.975000,0.125000,0.984502,0.122454,1.076682,0.137054,1.168411,0.183792,1.241208,0.256589,1.287946,0.348318,1.302546,0.440498,1.300000,0.450000,1.316747,0.512500,
1.362500,0.558253,1.425000,0.575000,1.487500,0.558253,1.487500,0.558253,$1*%
%AMFreePoly1*
4,1,24,1.427950,0.110584,1.549483,0.068057,1.658507,-0.000447,1.749553,-0.091493,1.818057,-0.200517,1.860584,-0.322050,1.875000,-0.450000,1.858253,-0.512500,1.812500,-0.558253,1.750000,-0.575000,1.687500,-0.558253,1.641747,-0.512500,1.625000,-0.450000,1.627546,-0.440498,1.612946,-0.348318,1.566208,-0.256589,1.493411,-0.183792,1.401682,-0.137054,1.309502,-0.122454,1.300000,-0.125000,
-1.300000,-0.125000,-1.300000,0.125000,1.300000,0.125000,1.427950,0.110584,1.427950,0.110584,$1*%
%AMFreePoly2*
4,1,37,0.195545,0.234610,0.386273,0.188820,0.567490,0.113758,0.734733,0.011271,0.883885,-0.116117,1.011272,-0.265269,1.113759,-0.432512,1.188821,-0.613729,1.234611,-0.804457,1.250000,-1.000000,1.230970,-1.095671,1.176777,-1.176777,1.095671,-1.230970,1.000000,-1.250000,0.904329,-1.230970,0.823223,-1.176777,0.769030,-1.095671,0.750000,-1.000000,0.752427,-0.987798,0.739148,-0.852974,
0.696263,-0.711599,0.626620,-0.581306,0.532897,-0.467104,0.418695,-0.373381,0.288403,-0.303738,0.147027,-0.260852,0.012204,-0.247573,0.000002,-0.250000,-0.095669,-0.230970,-0.176775,-0.176777,-0.230968,-0.095671,-0.249998,0.000000,-0.230968,0.095671,-0.176775,0.176777,-0.095669,0.230970,0.000002,0.250000,0.195545,0.234610,0.195545,0.234610,$1*%
%AMFreePoly3*
4,1,72,6.695671,0.230970,6.776777,0.176777,6.830970,0.095671,6.850000,0.000000,6.830970,-0.095671,6.776777,-0.176777,6.695671,-0.230970,6.600000,-0.250000,5.112500,-0.250000,5.112500,-1.380275,5.176777,-1.423223,5.230970,-1.504329,5.250000,-1.600000,5.250000,-6.400000,5.236550,-6.536563,5.196716,-6.667878,5.132029,-6.788899,5.044975,-6.894975,4.938899,-6.982029,4.817878,-7.046716,
4.686563,-7.086550,4.550000,-7.100000,1.550000,-7.100000,1.413437,-7.086550,1.282122,-7.046716,1.161101,-6.982029,1.055025,-6.894975,0.967971,-6.788899,0.903284,-6.667878,0.863450,-6.536563,0.850000,-6.400000,0.850000,-5.900000,0.869030,-5.804329,0.923223,-5.723223,1.004329,-5.669030,1.100000,-5.650000,1.195671,-5.669030,1.276777,-5.723223,1.330970,-5.804329,1.350000,-5.900000,
1.350000,-6.400000,1.348612,-6.406977,1.357418,-6.462574,1.386180,-6.519022,1.430978,-6.563820,1.487426,-6.592582,1.543022,-6.601388,1.550000,-6.600000,4.550000,-6.600000,4.556978,-6.601388,4.612574,-6.592582,4.669022,-6.563820,4.713820,-6.519022,4.742582,-6.462574,4.751388,-6.406977,4.750000,-6.400000,4.750000,-1.819725,4.685723,-1.776777,4.631530,-1.695671,4.612500,-1.600000,
4.612500,-0.250000,0.000000,-0.250000,-0.095671,-0.230970,-0.176777,-0.176777,-0.230970,-0.095671,-0.250000,0.000000,-0.230970,0.095671,-0.176777,0.176777,-0.095671,0.230970,0.000000,0.250000,6.600000,0.250000,6.695671,0.230970,6.695671,0.230970,$1*%
G04 Aperture macros list end*
%ADD10C,0.100000*%
%TA.AperFunction,NonConductor*%
%ADD11C,0.100000*%
%TD*%
%TA.AperFunction,ComponentPad*%
%ADD12C,0.670000*%
%TD*%
%TA.AperFunction,ComponentPad*%
%ADD13C,1.250000*%
%TD*%
%TA.AperFunction,ComponentPad*%
%ADD14C,1.500000*%
%TD*%
%TA.AperFunction,ComponentPad*%
%ADD15RoundRect,0.250000X0.600000X0.675000X-0.600000X0.675000X-0.600000X-0.675000X0.600000X-0.675000X0*%
%TD*%
%TA.AperFunction,ComponentPad*%
%ADD16O,1.700000X1.850000*%
%TD*%
%TA.AperFunction,SMDPad,CuDef*%
%ADD17RoundRect,0.225000X-0.225000X-0.250000X0.225000X-0.250000X0.225000X0.250000X-0.225000X0.250000X0*%
%TD*%
%TA.AperFunction,SMDPad,CuDef*%
%ADD18RoundRect,0.249375X0.625625X-0.463125X0.625625X0.463125X-0.625625X0.463125X-0.625625X-0.463125X0*%
%TD*%
%TA.AperFunction,SMDPad,CuDef*%
%ADD19FreePoly0,90.000000*%
%TD*%
%TA.AperFunction,SMDPad,CuDef*%
%ADD20R,0.500000X2.000000*%
%TD*%
%TA.AperFunction,SMDPad,CuDef*%
%ADD21R,3.700000X1.425000*%
%TD*%
%TA.AperFunction,SMDPad,CuDef*%
%ADD22FreePoly1,90.000000*%
%TD*%
%TA.AperFunction,SMDPad,CuDef*%
%ADD23R,1.100000X0.600000*%
%TD*%
%TA.AperFunction,SMDPad,CuDef*%
%ADD24R,2.000000X0.500000*%
%TD*%
%TA.AperFunction,SMDPad,CuDef*%
%ADD25RoundRect,0.250000X0.250000X0.475000X-0.250000X0.475000X-0.250000X-0.475000X0.250000X-0.475000X0*%
%TD*%
%TA.AperFunction,SMDPad,CuDef*%
%ADD26FreePoly2,90.000000*%
%TD*%
%TA.AperFunction,SMDPad,CuDef*%
%ADD27FreePoly3,90.000000*%
%TD*%
%TA.AperFunction,SMDPad,CuDef*%
%ADD28R,4.000000X0.500000*%
%TD*%
%TA.AperFunction,SMDPad,CuDef*%
%ADD29RoundRect,0.200000X0.275000X-0.200000X0.275000X0.200000X-0.275000X0.200000X-0.275000X-0.200000X0*%
%TD*%
%TA.AperFunction,SMDPad,CuDef*%
%ADD30RoundRect,0.200000X-0.275000X0.200000X-0.275000X-0.200000X0.275000X-0.200000X0.275000X0.200000X0*%
%TD*%
%TA.AperFunction,SMDPad,CuDef*%
%ADD31RoundRect,0.225000X-0.250000X0.225000X-0.250000X-0.225000X0.250000X-0.225000X0.250000X0.225000X0*%
%TD*%
%TA.AperFunction,SMDPad,CuDef*%
%ADD32RoundRect,0.200000X0.200000X0.275000X-0.200000X0.275000X-0.200000X-0.275000X0.200000X-0.275000X0*%
%TD*%
%TA.AperFunction,SMDPad,CuDef*%
%ADD33RoundRect,0.200000X-0.200000X-0.275000X0.200000X-0.275000X0.200000X0.275000X-0.200000X0.275000X0*%
%TD*%
%TA.AperFunction,SMDPad,CuDef*%
%ADD34RoundRect,0.062500X0.247487X-0.159099X-0.159099X0.247487X-0.247487X0.159099X0.159099X-0.247487X0*%
%TD*%
%TA.AperFunction,SMDPad,CuDef*%
%ADD35RoundRect,0.062500X0.247487X0.159099X0.159099X0.247487X-0.247487X-0.159099X-0.159099X-0.247487X0*%
%TD*%
%TA.AperFunction,SMDPad,CuDef*%
%ADD36Outline5P,-1.000000X1.000000X1.000000X1.000000X1.000000X-1.000000X-0.750000X-1.000000X-1.000000X-0.750000X135.000000*%
%TD*%
%TA.AperFunction,SMDPad,CuDef*%
%ADD37R,0.500000X0.850000*%
%TD*%
%TA.AperFunction,ViaPad*%
%ADD38C,0.800000*%
%TD*%
%TA.AperFunction,Conductor*%
%ADD39C,0.250000*%
%TD*%
G04 APERTURE END LIST*
D10*
D11*
X160660714Y-21707857D02*
X160625000Y-21743571D01*
X160589285Y-21815000D01*
X160589285Y-21993571D01*
X160625000Y-22065000D01*
X160660714Y-22100714D01*
X160732142Y-22136428D01*
X160803571Y-22136428D01*
X160910714Y-22100714D01*
X161339285Y-21672142D01*
X161339285Y-22136428D01*
X160589285Y-22600714D02*
X160589285Y-22672142D01*
X160625000Y-22743571D01*
X160660714Y-22779285D01*
X160732142Y-22815000D01*
X160875000Y-22850714D01*
X161053571Y-22850714D01*
X161196428Y-22815000D01*
X161267857Y-22779285D01*
X161303571Y-22743571D01*
X161339285Y-22672142D01*
X161339285Y-22600714D01*
X161303571Y-22529285D01*
X161267857Y-22493571D01*
X161196428Y-22457857D01*
X161053571Y-22422142D01*
X160875000Y-22422142D01*
X160732142Y-22457857D01*
X160660714Y-22493571D01*
X160625000Y-22529285D01*
X160589285Y-22600714D01*
X160660714Y-23136428D02*
X160625000Y-23172142D01*
X160589285Y-23243571D01*
X160589285Y-23422142D01*
X160625000Y-23493571D01*
X160660714Y-23529285D01*
X160732142Y-23565000D01*
X160803571Y-23565000D01*
X160910714Y-23529285D01*
X161339285Y-23100714D01*
X161339285Y-23565000D01*
X160660714Y-23850714D02*
X160625000Y-23886428D01*
X160589285Y-23957857D01*
X160589285Y-24136428D01*
X160625000Y-24207857D01*
X160660714Y-24243571D01*
X160732142Y-24279285D01*
X160803571Y-24279285D01*
X160910714Y-24243571D01*
X161339285Y-23815000D01*
X161339285Y-24279285D01*
X161053571Y-24600714D02*
X161053571Y-25172142D01*
X160589285Y-25672142D02*
X160589285Y-25743571D01*
X160625000Y-25815000D01*
X160660714Y-25850714D01*
X160732142Y-25886428D01*
X160875000Y-25922142D01*
X161053571Y-25922142D01*
X161196428Y-25886428D01*
X161267857Y-25850714D01*
X161303571Y-25815000D01*
X161339285Y-25743571D01*
X161339285Y-25672142D01*
X161303571Y-25600714D01*
X161267857Y-25565000D01*
X161196428Y-25529285D01*
X161053571Y-25493571D01*
X160875000Y-25493571D01*
X160732142Y-25529285D01*
X160660714Y-25565000D01*
X160625000Y-25600714D01*
X160589285Y-25672142D01*
X160589285Y-26172142D02*
X160589285Y-26636428D01*
X160875000Y-26386428D01*
X160875000Y-26493571D01*
X160910714Y-26565000D01*
X160946428Y-26600714D01*
X161017857Y-26636428D01*
X161196428Y-26636428D01*
X161267857Y-26600714D01*
X161303571Y-26565000D01*
X161339285Y-26493571D01*
X161339285Y-26279285D01*
X161303571Y-26207857D01*
X161267857Y-26172142D01*
X161053571Y-26957857D02*
X161053571Y-27529285D01*
X160589285Y-28029285D02*
X160589285Y-28100714D01*
X160625000Y-28172142D01*
X160660714Y-28207857D01*
X160732142Y-28243571D01*
X160875000Y-28279285D01*
X161053571Y-28279285D01*
X161196428Y-28243571D01*
X161267857Y-28207857D01*
X161303571Y-28172142D01*
X161339285Y-28100714D01*
X161339285Y-28029285D01*
X161303571Y-27957857D01*
X161267857Y-27922142D01*
X161196428Y-27886428D01*
X161053571Y-27850714D01*
X160875000Y-27850714D01*
X160732142Y-27886428D01*
X160660714Y-27922142D01*
X160625000Y-27957857D01*
X160589285Y-28029285D01*
X160839285Y-28922142D02*
X161339285Y-28922142D01*
X160553571Y-28743571D02*
X161089285Y-28565000D01*
X161089285Y-29029285D01*
%TO.C,JP3*%
G36*
X153400000Y-25200000D02*
G01*
X152400000Y-25200000D01*
X152400000Y-24800000D01*
X153400000Y-24800000D01*
X153400000Y-25200000D01*
G37*
%TD*%
D12*
%TO.P,J2,S1,SHIELD*%
%TO.N,GND*%
X157140000Y-45560000D03*
D13*
X158570000Y-49240000D03*
D14*
X149930000Y-45070000D03*
X158570000Y-45070000D03*
D12*
X151360000Y-45560000D03*
D13*
X149930000Y-49240000D03*
%TD*%
D15*
%TO.P,J1,1,Pin_1*%
%TO.N,IO1*%
X157500000Y-27600000D03*
D16*
%TO.P,J1,2,Pin_2*%
%TO.N,Net-(J1-Pad2)*%
X155000000Y-27600000D03*
%TO.P,J1,3,Pin_3*%
%TO.N,IO3*%
X152500000Y-27600000D03*
%TO.P,J1,4,Pin_4*%
%TO.N,IO4*%
X150000000Y-27600000D03*
%TD*%
D17*
%TO.P,U3,*%
%TO.N,*%
X154475000Y-51400000D03*
D18*
X152330000Y-48502500D03*
D19*
X155050000Y-49775000D03*
D20*
X154150000Y-47400000D03*
D21*
X155450000Y-46900000D03*
D22*
X155950000Y-50100000D03*
D23*
X154150000Y-48350000D03*
D17*
X156025000Y-51400000D03*
D24*
X153200000Y-48350000D03*
D23*
X156850000Y-48350000D03*
%TO.P,U3,1,SHDN*%
%TO.N,VBUS*%
X154150000Y-50250000D03*
D25*
%TO.P,U3,2,VIN*%
X152900000Y-50150000D03*
D23*
X154150000Y-49300000D03*
D26*
X152950000Y-50360000D03*
D25*
%TO.P,U3,3,GND*%
%TO.N,GND*%
X151000000Y-43900000D03*
X151000000Y-50150000D03*
D27*
X151000000Y-50400000D03*
D18*
X152330000Y-45537500D03*
D23*
X156850000Y-49300000D03*
D28*
%TO.P,U3,4,VOUT*%
%TO.N,+3V3*%
X154700000Y-43900000D03*
D25*
X152900000Y-43900000D03*
D21*
X155450000Y-43900000D03*
D23*
%TO.P,U3,5,FB*%
%TO.N,Net-(R10-Pad2)*%
X156850000Y-50250000D03*
%TD*%
D29*
%TO.P,R11,1*%
%TO.N,VBUS*%
X149250000Y-40575000D03*
%TO.P,R11,2*%
%TO.N,Net-(R11-Pad2)*%
X149250000Y-38925000D03*
%TD*%
D30*
%TO.P,R10,1*%
%TO.N,GND*%
X157250000Y-38925000D03*
%TO.P,R10,2*%
%TO.N,Net-(R10-Pad2)*%
X157250000Y-40575000D03*
%TD*%
D29*
%TO.P,R7,1*%
%TO.N,Net-(J2-PadA7)*%
X153500000Y-40575000D03*
%TO.P,R7,2*%
%TO.N,D-*%
X153500000Y-38925000D03*
%TD*%
D30*
%TO.P,R4,1*%
%TO.N,Net-(D1-Pad4)*%
X155800000Y-21775000D03*
%TO.P,R4,2*%
%TO.N,B*%
X155800000Y-23425000D03*
%TD*%
D31*
%TO.P,C1,1*%
%TO.N,+3V3*%
X150500000Y-33725000D03*
%TO.P,C1,2*%
%TO.N,GND*%
X150500000Y-35275000D03*
%TD*%
D32*
%TO.P,R1,1*%
%TO.N,+3V3*%
X158825000Y-32250000D03*
%TO.P,R1,2*%
%TO.N,EN*%
X157175000Y-32250000D03*
%TD*%
D30*
%TO.P,R9,1*%
%TO.N,+3V3*%
X158500000Y-38925000D03*
%TO.P,R9,2*%
%TO.N,Net-(R10-Pad2)*%
X158500000Y-40575000D03*
%TD*%
D33*
%TO.P,R3,1*%
%TO.N,Net-(D1-Pad3)*%
X152175000Y-23600000D03*
%TO.P,R3,2*%
%TO.N,G*%
X153825000Y-23600000D03*
%TD*%
D30*
%TO.P,JP1,1,A*%
%TO.N,GND*%
X158400000Y-24200000D03*
%TO.P,JP1,2,B*%
%TO.N,IO1*%
X158400000Y-25850000D03*
%TD*%
D29*
%TO.P,R8,1*%
%TO.N,Net-(J2-PadA6)*%
X154750000Y-40575000D03*
%TO.P,R8,2*%
%TO.N,D+*%
X154750000Y-38925000D03*
%TD*%
%TO.P,R12,1*%
%TO.N,Net-(R11-Pad2)*%
X149250000Y-37750000D03*
%TO.P,R12,2*%
%TO.N,GND*%
X149250000Y-36100000D03*
%TD*%
%TO.P,R5,1*%
%TO.N,Net-(J2-PadA5)*%
X150500000Y-40575000D03*
%TO.P,R5,2*%
%TO.N,GND*%
X150500000Y-38925000D03*
%TD*%
D33*
%TO.P,R2,1*%
%TO.N,Net-(D1-Pad2)*%
X152175000Y-22400000D03*
%TO.P,R2,2*%
%TO.N,R*%
X153825000Y-22400000D03*
%TD*%
D34*
%TO.P,U2,1,RXD*%
%TO.N,O*%
X156550610Y-35136396D03*
%TO.P,U2,2,~{RI}*%
%TO.N,GND*%
X156197056Y-35489949D03*
%TO.P,U2,3,GND*%
X155843503Y-35843503D03*
%TO.P,U2,4,~{DSR}*%
X155489949Y-36197056D03*
%TO.P,U2,5,~{DCD}*%
X155136396Y-36550610D03*
D35*
%TO.P,U2,6,~{CTS}*%
X153863604Y-36550610D03*
%TO.P,U2,7,CBUS2*%
%TO.N,Net-(R11-Pad2)*%
X153510051Y-36197056D03*
%TO.P,U2,8,USBDP*%
%TO.N,D+*%
X153156497Y-35843503D03*
%TO.P,U2,9,USBDM*%
%TO.N,D-*%
X152802944Y-35489949D03*
%TO.P,U2,10,3V3OUT*%
%TO.N,+3V3*%
X152449390Y-35136396D03*
D34*
%TO.P,U2,11,~{RESET}*%
X152449390Y-33863604D03*
%TO.P,U2,12,VCC*%
X152802944Y-33510051D03*
%TO.P,U2,13,GND*%
%TO.N,GND*%
X153156497Y-33156497D03*
%TO.P,U2,14,CBUS1*%
%TO.N,unconnected-(U2-Pad14)*%
X153510051Y-32802944D03*
%TO.P,U2,15,CBUS0*%
%TO.N,unconnected-(U2-Pad15)*%
X153863604Y-32449390D03*
D35*
%TO.P,U2,16,CBUS3*%
%TO.N,unconnected-(U2-Pad16)*%
X155136396Y-32449390D03*
%TO.P,U2,17,TXD*%
%TO.N,I*%
X155489949Y-32802944D03*
%TO.P,U2,18,~{DTR}*%
%TO.N,GPIO0*%
X155843503Y-33156497D03*
%TO.P,U2,19,~{RTS}*%
%TO.N,EN*%
X156197056Y-33510051D03*
%TO.P,U2,20,VCCIO*%
%TO.N,+3V3*%
X156550610Y-33863604D03*
D36*
%TO.P,U2,21,GND*%
%TO.N,GND*%
X154500000Y-34500000D03*
%TD*%
D30*
%TO.P,R6,1*%
%TO.N,GND*%
X156000000Y-38925000D03*
%TO.P,R6,2*%
%TO.N,Net-(J2-PadB5)*%
X156000000Y-40575000D03*
%TD*%
D32*
%TO.P,JP2,1,A*%
%TO.N,VBUS*%
X157100000Y-25000000D03*
%TO.P,JP2,2,B*%
%TO.N,Net-(J1-Pad2)*%
X155450000Y-25000000D03*
%TD*%
D37*
%TO.P,D1,1,A*%
%TO.N,+3V3*%
X149750000Y-21875000D03*
%TO.P,D1,2,RK*%
%TO.N,Net-(D1-Pad2)*%
X149750000Y-23625000D03*
%TO.P,D1,3,GK*%
%TO.N,Net-(D1-Pad3)*%
X150750000Y-23625000D03*
%TO.P,D1,4,BK*%
%TO.N,Net-(D1-Pad4)*%
X150750000Y-21875000D03*
%TD*%
D32*
%TO.P,JP3,1,A*%
%TO.N,Net-(J1-Pad2)*%
X153700000Y-25000000D03*
%TO.P,JP3,2,B*%
%TO.N,IO2*%
X152050000Y-25000000D03*
%TD*%
D38*
%TO.N,GND*%
X156750000Y-42500000D03*
X149500000Y-25750000D03*
X154375000Y-34375000D03*
X156704194Y-39622760D03*
X151500000Y-34500000D03*
X158000000Y-21750000D03*
%TO.N,VBUS*%
X149250000Y-42500000D03*
X159550500Y-42500000D03*
%TO.N,+3V3*%
X152500000Y-31250000D03*
X152000000Y-40500000D03*
%TO.N,IO2*%
X153700000Y-26200000D03*
%TO.N,Net-(J2-PadA7)*%
X153750000Y-42500000D03*
%TO.N,Net-(J2-PadA6)*%
X154750000Y-42500000D03*
%TO.N,Net-(J2-PadB5)*%
X155750000Y-42500000D03*
%TO.N,R*%
X154800000Y-22400000D03*
%TO.N,G*%
X154816777Y-23995974D03*
%TO.N,B*%
X158250000Y-30750000D03*
%TO.N,EN*%
X151012299Y-31262299D03*
%TO.N,GPIO0*%
X155500000Y-30750000D03*
%TO.N,I*%
X154500000Y-30750000D03*
%TO.N,O*%
X157750000Y-34750000D03*
%TO.N,Net-(R11-Pad2)*%
X157649502Y-37500000D03*
X151750000Y-39000000D03*
%TO.N,Net-(J2-PadA5)*%
X150750000Y-42500000D03*
%TD*%
D39*
%TO.N,GND*%
X154500000Y-35914214D02*
X154500000Y-34500000D01*
X149930000Y-49240000D02*
X149930000Y-47680000D01*
X155843503Y-35843503D02*
X154500000Y-34500000D01*
X158750000Y-46750000D02*
X159000000Y-47000000D01*
X155207107Y-34500000D02*
X154500000Y-34500000D01*
X149930000Y-49240000D02*
X149930000Y-50044731D01*
X149250000Y-28720710D02*
X149250000Y-36100000D01*
X149930000Y-49240000D02*
X150090000Y-49240000D01*
X153863604Y-36550610D02*
X154500000Y-35914214D01*
X153156497Y-33156497D02*
X154375000Y-34375000D01*
X155136396Y-36550610D02*
X154500000Y-35914214D01*
X149500000Y-25750000D02*
X149500000Y-25790381D01*
X151360000Y-45560000D02*
X152307500Y-45560000D01*
X151000000Y-43900000D02*
X151000000Y-44000000D01*
X156197056Y-35489949D02*
X155207107Y-34500000D01*
X149930000Y-46820000D02*
X149930000Y-45070000D01*
X150150000Y-43900000D02*
X149750000Y-43500000D01*
X156006434Y-38925000D02*
X156704194Y-39622760D01*
X158510000Y-49300000D02*
X156850000Y-49300000D01*
X149930000Y-47680000D02*
X149500000Y-47250000D01*
X158570000Y-44320000D02*
X158570000Y-45070000D01*
X159000000Y-47000000D02*
X159000000Y-48810000D01*
X158570000Y-45070000D02*
X158750000Y-45250000D01*
X159000000Y-48810000D02*
X158570000Y-49240000D01*
X151000000Y-43900000D02*
X150150000Y-43900000D01*
X148825480Y-27418815D02*
X148825480Y-27825119D01*
X155489949Y-36197056D02*
X154500000Y-35207107D01*
X152307500Y-45560000D02*
X152330000Y-45537500D01*
X158750000Y-45250000D02*
X158750000Y-46750000D01*
X149500000Y-47250000D02*
X149930000Y-46820000D01*
X154375000Y-34375000D02*
X154500000Y-34500000D01*
X149108578Y-28508578D02*
X149200000Y-28600000D01*
X156000000Y-38925000D02*
X156006434Y-38925000D01*
X151000000Y-50150000D02*
G75*
G03*
X150090000Y-49240000I-910001J-1D01*
G01*
X149930000Y-45070000D02*
G75*
G03*
X151000000Y-44000000I-1J1070001D01*
G01*
X158570000Y-44320000D02*
G75*
G03*
X156750000Y-42500000I-1820001J-1D01*
G01*
X148825480Y-27418815D02*
G75*
G02*
X149175000Y-26575000I1193328J2D01*
G01*
X149108578Y-28508578D02*
G75*
G02*
X148825480Y-27825119I683463J683461D01*
G01*
X149175000Y-26575000D02*
G75*
G03*
X149500000Y-25790381I-784620J784620D01*
G01*
X149750000Y-43500000D02*
G75*
G03*
X150150000Y-43900000I399999J-1D01*
G01*
X149250000Y-28720710D02*
G75*
G03*
X149200000Y-28600000I-170713J-2D01*
G01*
X149700000Y-50600000D02*
G75*
G03*
X149930000Y-50044731I-555270J555270D01*
G01*
X158510000Y-49300000D02*
G75*
G03*
X158570000Y-49240000I-1J60001D01*
G01*
%TO.N,VBUS*%
X152900000Y-50150000D02*
X152900000Y-50500000D01*
X159549520Y-31349520D02*
X159549520Y-42497635D01*
X154150000Y-49500000D02*
X154150000Y-50450000D01*
X152150000Y-51250000D02*
X149960978Y-51250000D01*
X159549520Y-31349520D02*
X159549520Y-25949520D01*
X149250000Y-42500000D02*
X149250000Y-40575000D01*
X157125000Y-25000000D02*
X158600000Y-25000000D01*
X148855489Y-50144511D02*
X148855489Y-42894511D01*
X152150000Y-51250000D02*
G75*
G03*
X152900000Y-50500000I0J750000D01*
G01*
X148855489Y-50144511D02*
G75*
G03*
X149960978Y-51250000I1105488J-1D01*
G01*
X158600000Y-25000000D02*
G75*
G02*
X159549520Y-25949520I0J-949520D01*
G01*
X159550500Y-42500000D02*
G75*
G02*
X159549520Y-42497635I2367J2366D01*
G01*
X148855489Y-42894511D02*
G75*
G02*
X149250000Y-42500000I394512J-1D01*
G01*
%TO.N,+3V3*%
X152600000Y-39400000D02*
X152600000Y-39265685D01*
X157525499Y-30525499D02*
X157525499Y-30865329D01*
X157762500Y-31437500D02*
X158575000Y-32250000D01*
X152094975Y-38194974D02*
X152200000Y-38300000D01*
X152000000Y-40500000D02*
X152246447Y-40253554D01*
X152449390Y-33863604D02*
X152449390Y-35136396D01*
X157500000Y-33250000D02*
X158750000Y-33250000D01*
X152000000Y-40500000D02*
X152000000Y-43000000D01*
X152449390Y-33863604D02*
X152449391Y-33863604D01*
X151250000Y-29500000D02*
X156500000Y-29500000D01*
X156550610Y-33863604D02*
X156926777Y-33487437D01*
X158825000Y-32250000D02*
X158825000Y-33175000D01*
X151250000Y-26200000D02*
X151250000Y-26750000D01*
X151896447Y-32603556D02*
X152802944Y-33510051D01*
X151250000Y-26750000D02*
X151250000Y-29500000D01*
X152449390Y-33863604D02*
X152310786Y-33725000D01*
X150000000Y-30750000D02*
X150000000Y-31300000D01*
X152449391Y-33863604D02*
X152802944Y-33510051D01*
X151750000Y-32000000D02*
X151750000Y-32250000D01*
X150950000Y-32250000D02*
X151750000Y-32250000D01*
X149136022Y-22488978D02*
X149136022Y-24136022D01*
X152449390Y-35136396D02*
X152317158Y-35268628D01*
X152310786Y-33725000D02*
X150500000Y-33725000D01*
X149600000Y-24600000D02*
X149650000Y-24600000D01*
X158825000Y-33175000D02*
X158825000Y-38600000D01*
X152900000Y-43900000D02*
G75*
G02*
X152000000Y-43000000I0J900000D01*
G01*
X149600000Y-24600000D02*
G75*
G02*
X149136022Y-24136022I0J463978D01*
G01*
X157762500Y-31437500D02*
G75*
G02*
X157525499Y-30865329I572179J572174D01*
G01*
X158825000Y-33175000D02*
G75*
G02*
X158750000Y-33250000I-75000J0D01*
G01*
X151600001Y-37000000D02*
G75*
G02*
X152317159Y-35268629I2448524J2D01*
G01*
X149136022Y-22488978D02*
G75*
G02*
X149750000Y-21875000I613978J0D01*
G01*
X157525499Y-30525499D02*
G75*
G03*
X156500000Y-29500000I-1025500J-1D01*
G01*
X151896447Y-32603556D02*
G75*
G02*
X151750000Y-32250000I353555J353554D01*
G01*
X152600000Y-39400000D02*
G75*
G02*
X152246447Y-40253554I-1207116J3D01*
G01*
X152094975Y-38194974D02*
G75*
G02*
X151600000Y-37000000I1194976J1194976D01*
G01*
X158500000Y-38925000D02*
G75*
G03*
X158825000Y-38600000I1J324999D01*
G01*
X150000000Y-30750000D02*
G75*
G02*
X151250000Y-29500000I1250002J-2D01*
G01*
X157500000Y-33250000D02*
G75*
G03*
X156926777Y-33487437I1J-810661D01*
G01*
X150950000Y-32250000D02*
G75*
G02*
X150000000Y-31300000I2J950002D01*
G01*
X151750000Y-32000000D02*
G75*
G02*
X152500000Y-31250000I750000J0D01*
G01*
X151250000Y-26200000D02*
G75*
G03*
X149650000Y-24600000I-1599999J1D01*
G01*
X152200000Y-38300000D02*
G75*
G02*
X152600000Y-39265685I-965689J-965687D01*
G01*
%TO.N,IO2*%
X153250000Y-26200000D02*
X153700000Y-26200000D01*
X153250000Y-26200000D02*
G75*
G02*
X152050000Y-25000000I0J1200000D01*
G01*
%TO.N,IO1*%
X158400000Y-25850000D02*
X158400000Y-26700000D01*
X157500000Y-27600000D02*
G75*
G03*
X158400000Y-26700000I0J900000D01*
G01*
%TO.N,Net-(J2-PadA7)*%
X153500000Y-40575000D02*
X153500000Y-42250000D01*
X153750000Y-42500000D02*
G75*
G02*
X153500000Y-42250000I-1J249999D01*
G01*
%TO.N,Net-(J2-PadA6)*%
X154750000Y-40575000D02*
X154750000Y-42500000D01*
%TO.N,Net-(J2-PadB5)*%
X155750000Y-42500000D02*
X155750000Y-40825000D01*
X156000000Y-40575000D02*
G75*
G03*
X155750000Y-40825000I-1J-249999D01*
G01*
%TO.N,R*%
X153825000Y-22400000D02*
X154800000Y-22400000D01*
%TO.N,G*%
X153825000Y-23600000D02*
X154420803Y-23600000D01*
X154816777Y-23995974D02*
G75*
G03*
X154420803Y-23600000I-395974J0D01*
G01*
%TO.N,B*%
X156300480Y-23925480D02*
X156300480Y-28200480D01*
X158250000Y-30150000D02*
X158250000Y-30750000D01*
X157100000Y-29000000D02*
G75*
G02*
X156300480Y-28200480I0J799520D01*
G01*
X156300480Y-23925480D02*
G75*
G03*
X155800000Y-23425000I-500479J1D01*
G01*
X158250000Y-30150000D02*
G75*
G03*
X157100000Y-29000000I-1149999J1D01*
G01*
%TO.N,D-*%
X152802944Y-35489949D02*
X152564865Y-35728028D01*
X152627388Y-38052389D02*
X153500000Y-38925000D01*
X152627388Y-38052389D02*
G75*
G02*
X152114736Y-36814736I1237656J1237653D01*
G01*
X152114736Y-36814736D02*
G75*
G02*
X152564865Y-35728028I1536841J-2D01*
G01*
%TO.N,D+*%
X153156497Y-35843503D02*
X152953554Y-36046446D01*
X153400000Y-37700000D02*
X154100000Y-37700000D01*
X154750000Y-38350000D02*
X154750000Y-38925000D01*
X154750000Y-38350000D02*
G75*
G03*
X154100000Y-37700000I-650001J-1D01*
G01*
X152600000Y-36900000D02*
G75*
G02*
X152953554Y-36046446I1207111J-2D01*
G01*
X152600000Y-36900000D02*
G75*
G03*
X153400000Y-37700000I800001J1D01*
G01*
%TO.N,EN*%
X156925000Y-31646447D02*
X156925000Y-30825000D01*
X152325087Y-29949511D02*
X156199511Y-29949511D01*
X156975520Y-32731587D02*
X156197056Y-33510051D01*
X156925000Y-30825000D02*
X156925000Y-30675000D01*
X156925000Y-31646447D02*
G75*
G03*
X157175000Y-32250000I853552J0D01*
G01*
X156199511Y-29949511D02*
G75*
G02*
X156925000Y-30675000I-1J-725490D01*
G01*
X156975520Y-32731587D02*
G75*
G03*
X157175000Y-32250000I-481585J481586D01*
G01*
X152325087Y-29949511D02*
G75*
G03*
X151012299Y-31262299I1J-1312789D01*
G01*
%TO.N,GPIO0*%
X155500000Y-30750000D02*
X156250000Y-31500000D01*
X156250000Y-32750000D02*
X155843503Y-33156497D01*
X156250000Y-31500000D02*
X156250000Y-32750000D01*
%TO.N,I*%
X155770902Y-32521991D02*
X155770902Y-32045502D01*
X154500000Y-30774600D02*
X154500000Y-30750000D01*
X155770902Y-32045502D02*
X154500000Y-30774600D01*
X155489949Y-32802944D02*
X155770902Y-32521991D01*
%TO.N,O*%
X156550610Y-35136396D02*
X157363604Y-35136396D01*
X157363604Y-35136396D02*
X157750000Y-34750000D01*
%TO.N,Net-(R10-Pad2)*%
X157904074Y-42154074D02*
X159042893Y-43292893D01*
X157250000Y-40575000D02*
X158500000Y-40575000D01*
X158750000Y-50250000D02*
X156850000Y-50250000D01*
X159750000Y-45000000D02*
X159750000Y-49250000D01*
X157904074Y-42154074D02*
G75*
G02*
X157250000Y-40575000I1579069J1579072D01*
G01*
X158750000Y-50250000D02*
G75*
G03*
X159750000Y-49250000I1J999999D01*
G01*
X159750000Y-45000000D02*
G75*
G03*
X159042893Y-43292893I-2414211J1D01*
G01*
%TO.N,Net-(R11-Pad2)*%
X153236396Y-36470711D02*
X153510051Y-36197056D01*
X149250000Y-38925000D02*
X149250000Y-37750000D01*
X153485116Y-37185116D02*
X157334618Y-37185116D01*
X151100480Y-39649520D02*
X149974520Y-39649520D01*
X153100000Y-36800000D02*
G75*
G03*
X153485116Y-37185116I385116J0D01*
G01*
X151100480Y-39649520D02*
G75*
G03*
X151750000Y-39000000I0J649520D01*
G01*
X157649502Y-37500000D02*
G75*
G03*
X157334618Y-37185116I-314883J1D01*
G01*
X153236396Y-36470711D02*
G75*
G03*
X153100000Y-36800000I329287J-329288D01*
G01*
X149250000Y-38925000D02*
G75*
G03*
X149974520Y-39649520I724520J0D01*
G01*
%TO.N,Net-(J2-PadA5)*%
X150500000Y-40575000D02*
X150500000Y-42250000D01*
X150750000Y-42500000D02*
G75*
G02*
X150500000Y-42250000I-1J249999D01*
G01*
%TO.N,Net-(D1-Pad2)*%
X150575489Y-22624511D02*
X151950489Y-22624511D01*
X151950489Y-22624511D02*
X152175000Y-22400000D01*
X149750000Y-23625000D02*
X149750000Y-23450000D01*
X150575489Y-22624511D02*
G75*
G03*
X149750000Y-23450000I0J-825489D01*
G01*
%TO.N,Net-(D1-Pad3)*%
X152150000Y-23625000D02*
X152175000Y-23600000D01*
X150750000Y-23625000D02*
X152150000Y-23625000D01*
%TO.N,Net-(D1-Pad4)*%
X151124520Y-21500480D02*
X155525480Y-21500480D01*
X151124520Y-21500480D02*
G75*
G03*
X150750000Y-21875000I-1J-374519D01*
G01*
X155800000Y-21775000D02*
G75*
G03*
X155525480Y-21500480I-274520J0D01*
G01*
%TO.N,Net-(J1-Pad2)*%
X155000000Y-27600000D02*
X155000000Y-25000000D01*
X153700000Y-25000000D02*
X155000000Y-25000000D01*
X155000000Y-25000000D02*
X155475000Y-25000000D01*
%TD*%
%TA.AperFunction,Conductor*%
%TO.N,GND*%
G36*
X149465203Y-50273537D02*
G01*
X149573081Y-50319885D01*
X149584014Y-50323437D01*
X149775844Y-50366845D01*
X149787253Y-50368347D01*
X149870446Y-50371615D01*
X149937729Y-50394276D01*
X149982080Y-50449715D01*
X149991500Y-50497518D01*
X149991500Y-50675400D01*
X149994586Y-50705137D01*
X149996338Y-50722025D01*
X149983474Y-50791846D01*
X149934903Y-50843628D01*
X149866047Y-50860931D01*
X149858673Y-50860424D01*
X149831690Y-50857766D01*
X149807476Y-50852950D01*
X149695027Y-50818840D01*
X149672208Y-50809387D01*
X149619410Y-50781166D01*
X149568579Y-50753996D01*
X149548052Y-50740280D01*
X149457212Y-50665730D01*
X149439759Y-50648277D01*
X149365209Y-50557437D01*
X149351491Y-50536907D01*
X149304344Y-50448701D01*
X149289872Y-50379195D01*
X149315276Y-50312899D01*
X149372489Y-50270861D01*
X149443347Y-50266428D01*
X149465203Y-50273537D01*
G37*
%TD.AperFunction*%
%TA.AperFunction,Conductor*%
G36*
X159326254Y-46186674D02*
G01*
X159365111Y-46246093D01*
X159370500Y-46282550D01*
X159370500Y-48176824D01*
X159350498Y-48244945D01*
X159296842Y-48291438D01*
X159226568Y-48301542D01*
X159177265Y-48283386D01*
X159091458Y-48229246D01*
X159081211Y-48224025D01*
X158898531Y-48151143D01*
X158887505Y-48147876D01*
X158715148Y-48113593D01*
X158652238Y-48080686D01*
X158617106Y-48018991D01*
X158613729Y-47990014D01*
X158613729Y-46444437D01*
X158633731Y-46376316D01*
X158687387Y-46329823D01*
X158728748Y-46318916D01*
X158783803Y-46314100D01*
X158794599Y-46312196D01*
X158996595Y-46258072D01*
X159006887Y-46254326D01*
X159191250Y-46168355D01*
X159261441Y-46157694D01*
X159326254Y-46186674D01*
G37*
%TD.AperFunction*%
%TA.AperFunction,Conductor*%
G36*
X149414239Y-46217546D02*
G01*
X149493113Y-46254326D01*
X149503405Y-46258072D01*
X149705401Y-46312196D01*
X149716196Y-46314099D01*
X149924525Y-46332326D01*
X149935475Y-46332326D01*
X150099289Y-46317994D01*
X150168894Y-46331983D01*
X150219887Y-46381383D01*
X150236271Y-46443515D01*
X150236271Y-47992110D01*
X150216269Y-48060231D01*
X150162613Y-48106724D01*
X150085691Y-48115689D01*
X150054608Y-48109507D01*
X150043159Y-48108303D01*
X149846507Y-48105730D01*
X149835027Y-48106633D01*
X149641199Y-48139938D01*
X149630079Y-48142918D01*
X149445557Y-48210992D01*
X149435185Y-48215939D01*
X149425413Y-48221753D01*
X149356643Y-48239393D01*
X149289252Y-48217053D01*
X149244638Y-48161826D01*
X149234989Y-48113468D01*
X149234989Y-46331741D01*
X149254991Y-46263620D01*
X149308647Y-46217127D01*
X149378921Y-46207023D01*
X149414239Y-46217546D01*
G37*
%TD.AperFunction*%
%TA.AperFunction,Conductor*%
G36*
X156686095Y-41127999D02*
G01*
X156699859Y-41136845D01*
X156720814Y-41152322D01*
X156759924Y-41181209D01*
X156798403Y-41194722D01*
X156881622Y-41223947D01*
X156881625Y-41223948D01*
X156883236Y-41224513D01*
X156883237Y-41224514D01*
X156888873Y-41226493D01*
X156888546Y-41227425D01*
X156944842Y-41258295D01*
X156976664Y-41312349D01*
X157013227Y-41439263D01*
X157014581Y-41442531D01*
X157014581Y-41442532D01*
X157119805Y-41696564D01*
X157125524Y-41710372D01*
X157267470Y-41967203D01*
X157269518Y-41970089D01*
X157269519Y-41970091D01*
X157304865Y-42019906D01*
X157437279Y-42206527D01*
X157628805Y-42420844D01*
X157632382Y-42425767D01*
X157640401Y-42431593D01*
X157648830Y-42437717D01*
X157663865Y-42450559D01*
X158746409Y-43533103D01*
X158759250Y-43548137D01*
X158771201Y-43564586D01*
X158779220Y-43570412D01*
X158780817Y-43572009D01*
X158798248Y-43587763D01*
X158818355Y-43610263D01*
X158848833Y-43674385D01*
X158839805Y-43744805D01*
X158794138Y-43799166D01*
X158726331Y-43820207D01*
X158713422Y-43819743D01*
X158575475Y-43807674D01*
X158564525Y-43807674D01*
X158356196Y-43825901D01*
X158345401Y-43827804D01*
X158143405Y-43881928D01*
X158133113Y-43885674D01*
X157943579Y-43974056D01*
X157934093Y-43979534D01*
X157762795Y-44099477D01*
X157761495Y-44100568D01*
X157760807Y-44100869D01*
X157758285Y-44102635D01*
X157757930Y-44102128D01*
X157696456Y-44129036D01*
X157626350Y-44117821D01*
X157573437Y-44070485D01*
X157554500Y-44004050D01*
X157554499Y-43168623D01*
X157554499Y-43162434D01*
X157539734Y-43088199D01*
X157520712Y-43059730D01*
X157490377Y-43014332D01*
X157483484Y-43004016D01*
X157399301Y-42947766D01*
X157325067Y-42933000D01*
X156467826Y-42933000D01*
X156399705Y-42912998D01*
X156353212Y-42859342D01*
X156343108Y-42789068D01*
X156350918Y-42760004D01*
X156361820Y-42732885D01*
X156386842Y-42670641D01*
X156409162Y-42513807D01*
X156409307Y-42500000D01*
X156390276Y-42342733D01*
X156334280Y-42194546D01*
X156325814Y-42182228D01*
X156248855Y-42070251D01*
X156248854Y-42070249D01*
X156244553Y-42063992D01*
X156171681Y-41999065D01*
X156134126Y-41938816D01*
X156129500Y-41904989D01*
X156129500Y-41355499D01*
X156149502Y-41287378D01*
X156203158Y-41240885D01*
X156255500Y-41229499D01*
X156329314Y-41229499D01*
X156332262Y-41229220D01*
X156332271Y-41229220D01*
X156353478Y-41227216D01*
X156353480Y-41227216D01*
X156361127Y-41226493D01*
X156490076Y-41181209D01*
X156529186Y-41152322D01*
X156550141Y-41136845D01*
X156616819Y-41112462D01*
X156686095Y-41127999D01*
G37*
%TD.AperFunction*%
%TA.AperFunction,Conductor*%
G36*
X150064152Y-42615456D02*
G01*
X150113071Y-42666908D01*
X150119322Y-42681184D01*
X150162553Y-42799319D01*
X150166793Y-42805629D01*
X150169488Y-42810918D01*
X150182593Y-42880695D01*
X150156105Y-42946213D01*
X150155861Y-42946522D01*
X150150695Y-42951697D01*
X150118445Y-43004016D01*
X150066554Y-43088199D01*
X150057885Y-43102262D01*
X150002203Y-43270139D01*
X149991500Y-43374600D01*
X149991500Y-43686356D01*
X149971498Y-43754477D01*
X149917842Y-43800970D01*
X149876482Y-43811877D01*
X149716196Y-43825901D01*
X149705401Y-43827804D01*
X149503405Y-43881928D01*
X149493113Y-43885674D01*
X149414239Y-43922454D01*
X149344048Y-43933115D01*
X149279235Y-43904135D01*
X149240378Y-43844716D01*
X149234989Y-43808259D01*
X149234989Y-43275322D01*
X149254991Y-43207201D01*
X149308647Y-43160708D01*
X149332859Y-43152502D01*
X149465929Y-43122025D01*
X149465933Y-43122024D01*
X149473332Y-43120329D01*
X149557737Y-43077878D01*
X149608072Y-43052563D01*
X149608075Y-43052561D01*
X149614855Y-43049151D01*
X149620626Y-43044222D01*
X149620629Y-43044220D01*
X149729536Y-42951204D01*
X149729536Y-42951203D01*
X149735314Y-42946269D01*
X149827755Y-42817624D01*
X149830589Y-42810575D01*
X149830592Y-42810569D01*
X149884089Y-42677489D01*
X149928055Y-42621744D01*
X149995180Y-42598619D01*
X150064152Y-42615456D01*
G37*
%TD.AperFunction*%
%TA.AperFunction,Conductor*%
G36*
X156676853Y-39771909D02*
G01*
X156695682Y-39780411D01*
X156694577Y-39782859D01*
X156743037Y-39815245D01*
X156771367Y-39880345D01*
X156760004Y-39950426D01*
X156721208Y-39997387D01*
X156699860Y-40013155D01*
X156633181Y-40037538D01*
X156563906Y-40022001D01*
X156550140Y-40013155D01*
X156528792Y-39997387D01*
X156485882Y-39940826D01*
X156480362Y-39870044D01*
X156513986Y-39807515D01*
X156555205Y-39782375D01*
X156554318Y-39780411D01*
X156573147Y-39771909D01*
X156643464Y-39762105D01*
X156676853Y-39771909D01*
G37*
%TD.AperFunction*%
%TA.AperFunction,Conductor*%
G36*
X149208581Y-28450620D02*
G01*
X149351165Y-28574350D01*
X149351170Y-28574354D01*
X149355696Y-28578281D01*
X149538126Y-28683819D01*
X149737222Y-28752957D01*
X149743155Y-28753817D01*
X149743158Y-28753818D01*
X149939860Y-28782338D01*
X149939863Y-28782338D01*
X149945800Y-28783199D01*
X150156333Y-28773455D01*
X150162157Y-28772051D01*
X150162160Y-28772051D01*
X150355393Y-28725482D01*
X150355395Y-28725481D01*
X150361226Y-28724076D01*
X150366684Y-28721594D01*
X150366688Y-28721593D01*
X150506200Y-28658160D01*
X150553084Y-28636843D01*
X150671601Y-28552773D01*
X150738734Y-28529675D01*
X150807699Y-28546539D01*
X150856598Y-28598011D01*
X150870500Y-28655543D01*
X150870500Y-29064909D01*
X150850498Y-29133030D01*
X150796842Y-29179523D01*
X150788541Y-29182962D01*
X150571352Y-29263969D01*
X150366776Y-29375677D01*
X150180179Y-29515361D01*
X150015361Y-29680179D01*
X149875677Y-29866776D01*
X149763969Y-30071352D01*
X149740183Y-30135126D01*
X149694808Y-30256781D01*
X149682513Y-30289744D01*
X149681558Y-30294134D01*
X149681556Y-30294141D01*
X149649064Y-30443509D01*
X149632967Y-30517505D01*
X149624601Y-30634484D01*
X149621241Y-30681457D01*
X149620900Y-30683844D01*
X149620982Y-30683851D01*
X149620500Y-30689416D01*
X149620500Y-30691506D01*
X149620410Y-30693067D01*
X149616807Y-30743448D01*
X149615769Y-30749999D01*
X149617321Y-30759795D01*
X149618949Y-30770076D01*
X149620500Y-30789787D01*
X149620500Y-31260213D01*
X149618949Y-31279923D01*
X149615769Y-31300001D01*
X149617001Y-31307782D01*
X149617319Y-31311823D01*
X149617319Y-31312123D01*
X149617389Y-31312713D01*
X149632808Y-31508623D01*
X149633962Y-31513430D01*
X149633963Y-31513436D01*
X149645970Y-31563447D01*
X149681661Y-31712109D01*
X149761745Y-31905447D01*
X149871087Y-32083877D01*
X149874299Y-32087637D01*
X149874302Y-32087642D01*
X149909921Y-32129346D01*
X150006995Y-32243005D01*
X150010757Y-32246218D01*
X150162358Y-32375698D01*
X150162363Y-32375701D01*
X150166123Y-32378913D01*
X150344553Y-32488255D01*
X150537891Y-32568339D01*
X150586200Y-32579937D01*
X150736564Y-32616037D01*
X150736570Y-32616038D01*
X150741377Y-32617192D01*
X150824629Y-32623744D01*
X150878410Y-32627977D01*
X150882658Y-32628599D01*
X150883851Y-32629018D01*
X150889416Y-32629500D01*
X150892804Y-32629500D01*
X150902690Y-32629888D01*
X150937287Y-32632611D01*
X150937877Y-32632681D01*
X150938177Y-32632681D01*
X150942218Y-32632999D01*
X150949999Y-32634231D01*
X150970077Y-32631051D01*
X150989787Y-32629500D01*
X151380490Y-32629500D01*
X151448611Y-32649502D01*
X151487923Y-32689665D01*
X151536268Y-32768558D01*
X151539480Y-32772319D01*
X151539489Y-32772331D01*
X151572902Y-32811451D01*
X151579549Y-32820377D01*
X151581667Y-32824788D01*
X151585261Y-32829064D01*
X151599966Y-32843769D01*
X151612803Y-32858797D01*
X151624754Y-32875248D01*
X151632777Y-32881077D01*
X151632778Y-32881078D01*
X151641199Y-32887196D01*
X151656233Y-32900036D01*
X151836663Y-33080465D01*
X151886602Y-33130404D01*
X151920627Y-33192717D01*
X151915563Y-33263532D01*
X151873016Y-33320368D01*
X151806496Y-33345179D01*
X151797507Y-33345500D01*
X151290908Y-33345500D01*
X151222787Y-33325498D01*
X151180386Y-33280006D01*
X151178070Y-33275776D01*
X151174917Y-33267365D01*
X151092544Y-33157456D01*
X151056449Y-33130404D01*
X150989817Y-33080465D01*
X150989814Y-33080463D01*
X150982635Y-33075083D01*
X150974230Y-33071932D01*
X150861419Y-33029642D01*
X150861418Y-33029642D01*
X150854024Y-33026870D01*
X150846174Y-33026017D01*
X150846173Y-33026017D01*
X150798786Y-33020869D01*
X150798785Y-33020869D01*
X150795389Y-33020500D01*
X150500044Y-33020500D01*
X150204612Y-33020501D01*
X150201218Y-33020870D01*
X150201212Y-33020870D01*
X150153834Y-33026016D01*
X150153830Y-33026017D01*
X150145976Y-33026870D01*
X150017365Y-33075083D01*
X150010186Y-33080463D01*
X150010183Y-33080465D01*
X149943551Y-33130404D01*
X149907456Y-33157456D01*
X149902077Y-33164633D01*
X149830465Y-33260183D01*
X149830463Y-33260186D01*
X149825083Y-33267365D01*
X149821933Y-33275769D01*
X149821932Y-33275770D01*
X149795913Y-33345179D01*
X149776870Y-33395976D01*
X149770500Y-33454611D01*
X149770501Y-33995388D01*
X149776870Y-34054024D01*
X149825083Y-34182635D01*
X149830463Y-34189814D01*
X149830465Y-34189817D01*
X149848340Y-34213667D01*
X149879814Y-34255661D01*
X149879837Y-34255692D01*
X149904685Y-34322198D01*
X149889633Y-34391581D01*
X149845314Y-34438402D01*
X149797827Y-34467788D01*
X149786426Y-34476824D01*
X149676014Y-34587429D01*
X149667002Y-34598840D01*
X149584996Y-34731880D01*
X149578849Y-34745061D01*
X149529509Y-34893814D01*
X149526642Y-34907190D01*
X149517328Y-34998097D01*
X149517071Y-35003126D01*
X149521475Y-35018124D01*
X149522865Y-35019329D01*
X149530548Y-35021000D01*
X151464885Y-35021000D01*
X151480124Y-35016525D01*
X151481329Y-35015135D01*
X151483000Y-35007452D01*
X151483000Y-35004562D01*
X151482663Y-34998047D01*
X151473106Y-34905943D01*
X151470212Y-34892544D01*
X151420619Y-34743893D01*
X151414445Y-34730714D01*
X151332212Y-34597827D01*
X151323176Y-34586426D01*
X151212571Y-34476014D01*
X151201160Y-34467002D01*
X151154898Y-34438486D01*
X151107405Y-34385714D01*
X151095981Y-34315642D01*
X151120188Y-34255661D01*
X151169530Y-34189824D01*
X151169534Y-34189817D01*
X151174917Y-34182635D01*
X151178070Y-34174225D01*
X151180386Y-34169994D01*
X151230643Y-34119847D01*
X151290908Y-34104500D01*
X151943890Y-34104500D01*
X152012011Y-34124502D01*
X152058504Y-34178158D01*
X152069890Y-34230500D01*
X152069890Y-34922515D01*
X152049888Y-34990636D01*
X152045054Y-34996634D01*
X152045467Y-34996934D01*
X152042282Y-35001318D01*
X152033704Y-35011877D01*
X152001785Y-35047094D01*
X151997520Y-35051572D01*
X151951485Y-35097607D01*
X151948970Y-35100884D01*
X151948967Y-35100888D01*
X151929687Y-35126014D01*
X151923085Y-35133925D01*
X151859797Y-35203753D01*
X151694274Y-35426936D01*
X151692691Y-35429577D01*
X151692685Y-35429586D01*
X151656286Y-35490315D01*
X151604108Y-35538461D01*
X151534184Y-35550755D01*
X151499370Y-35535508D01*
X151469452Y-35529000D01*
X150772115Y-35529000D01*
X150756876Y-35533475D01*
X150755671Y-35534865D01*
X150754000Y-35542548D01*
X150754000Y-36214885D01*
X150758475Y-36230124D01*
X150759865Y-36231329D01*
X150767548Y-36233000D01*
X150795438Y-36233000D01*
X150801953Y-36232663D01*
X150894057Y-36223106D01*
X150907456Y-36220212D01*
X151056107Y-36170619D01*
X151069279Y-36164448D01*
X151128582Y-36127751D01*
X151197035Y-36108914D01*
X151264804Y-36130076D01*
X151310375Y-36184517D01*
X151319278Y-36254953D01*
X151317109Y-36265509D01*
X151271495Y-36447614D01*
X151230724Y-36722471D01*
X151230573Y-36725553D01*
X151230572Y-36725559D01*
X151218018Y-36981104D01*
X151217320Y-36987852D01*
X151217320Y-36990207D01*
X151215769Y-37000000D01*
X151217321Y-37009797D01*
X151217321Y-37010611D01*
X151218404Y-37020731D01*
X151230272Y-37232070D01*
X151269207Y-37461222D01*
X151333553Y-37684573D01*
X151334907Y-37687841D01*
X151334907Y-37687842D01*
X151412843Y-37875995D01*
X151422502Y-37899315D01*
X151534936Y-38102748D01*
X151536981Y-38105630D01*
X151536984Y-38105635D01*
X151594307Y-38186424D01*
X151617414Y-38253555D01*
X151600559Y-38322522D01*
X151549094Y-38371428D01*
X151534411Y-38376875D01*
X151534689Y-38377622D01*
X151527567Y-38380270D01*
X151520184Y-38382043D01*
X151515331Y-38384548D01*
X151445416Y-38389481D01*
X151383137Y-38355396D01*
X151364543Y-38331658D01*
X151340181Y-38291432D01*
X151330869Y-38279557D01*
X151220443Y-38169131D01*
X151208574Y-38159824D01*
X151074988Y-38078921D01*
X151061243Y-38072715D01*
X150911356Y-38025744D01*
X150898306Y-38023131D01*
X150834479Y-38017266D01*
X150828691Y-38017000D01*
X150772115Y-38017000D01*
X150756876Y-38021475D01*
X150755671Y-38022865D01*
X150754000Y-38030548D01*
X150754000Y-39053000D01*
X150733998Y-39121121D01*
X150680342Y-39167614D01*
X150628000Y-39179000D01*
X150372000Y-39179000D01*
X150303879Y-39158998D01*
X150257386Y-39105342D01*
X150246000Y-39053000D01*
X150246000Y-38035116D01*
X150241525Y-38019877D01*
X150240135Y-38018672D01*
X150232452Y-38017001D01*
X150171295Y-38017001D01*
X150165546Y-38017264D01*
X150117028Y-38021722D01*
X150047363Y-38008036D01*
X149996156Y-37958859D01*
X149979500Y-37896250D01*
X149979499Y-37498654D01*
X149979499Y-37495686D01*
X149976493Y-37463873D01*
X149931209Y-37334924D01*
X149850010Y-37224990D01*
X149830084Y-37210273D01*
X149778792Y-37172387D01*
X149735881Y-37115826D01*
X149730362Y-37045044D01*
X149763986Y-36982514D01*
X149805209Y-36957372D01*
X149804323Y-36955409D01*
X149824988Y-36946079D01*
X149958574Y-36865176D01*
X149970443Y-36855869D01*
X150080869Y-36745443D01*
X150090176Y-36733574D01*
X150171079Y-36599988D01*
X150177285Y-36586243D01*
X150224256Y-36436356D01*
X150226869Y-36423306D01*
X150231913Y-36368414D01*
X150228525Y-36356876D01*
X150227135Y-36355671D01*
X150219452Y-36354000D01*
X149122000Y-36354000D01*
X149053879Y-36333998D01*
X149007386Y-36280342D01*
X149000000Y-36246388D01*
X149000000Y-35827885D01*
X149504000Y-35827885D01*
X149508475Y-35843124D01*
X149509865Y-35844329D01*
X149517548Y-35846000D01*
X150227885Y-35846000D01*
X150243124Y-35841525D01*
X150244329Y-35840135D01*
X150246000Y-35832452D01*
X150246000Y-35547115D01*
X150241525Y-35531876D01*
X150240135Y-35530671D01*
X150232452Y-35529000D01*
X149522115Y-35529000D01*
X149506876Y-35533475D01*
X149505671Y-35534865D01*
X149504000Y-35542548D01*
X149504000Y-35827885D01*
X149000000Y-35827885D01*
X149000000Y-28545785D01*
X149020002Y-28477664D01*
X149073658Y-28431171D01*
X149143932Y-28421067D01*
X149208581Y-28450620D01*
G37*
%TD.AperFunction*%
%TA.AperFunction,Conductor*%
G36*
X156956651Y-37584618D02*
G01*
X157003144Y-37638274D01*
X157007371Y-37650642D01*
X157007615Y-37650553D01*
X157057914Y-37788002D01*
X157062055Y-37799319D01*
X157066288Y-37805619D01*
X157066293Y-37805628D01*
X157076439Y-37820726D01*
X157097831Y-37888423D01*
X157079226Y-37956939D01*
X157026533Y-38004520D01*
X156971857Y-38017001D01*
X156921295Y-38017001D01*
X156915546Y-38017264D01*
X156851685Y-38023132D01*
X156838649Y-38025743D01*
X156688761Y-38072714D01*
X156676853Y-38078091D01*
X156606536Y-38087895D01*
X156573147Y-38078091D01*
X156561239Y-38072714D01*
X156411356Y-38025744D01*
X156398306Y-38023131D01*
X156334479Y-38017266D01*
X156328691Y-38017000D01*
X156272115Y-38017000D01*
X156256876Y-38021475D01*
X156255671Y-38022865D01*
X156254000Y-38030548D01*
X156254000Y-38652885D01*
X156258475Y-38668124D01*
X156259865Y-38669329D01*
X156267548Y-38671000D01*
X157378000Y-38671000D01*
X157446121Y-38691002D01*
X157492614Y-38744658D01*
X157504000Y-38797000D01*
X157504000Y-39053000D01*
X157483998Y-39121121D01*
X157430342Y-39167614D01*
X157378000Y-39179000D01*
X155872000Y-39179000D01*
X155803879Y-39158998D01*
X155757386Y-39105342D01*
X155746000Y-39053000D01*
X155746000Y-38035116D01*
X155741525Y-38019877D01*
X155740135Y-38018672D01*
X155732452Y-38017001D01*
X155671295Y-38017001D01*
X155665546Y-38017264D01*
X155601685Y-38023132D01*
X155588649Y-38025743D01*
X155438757Y-38072715D01*
X155425012Y-38078921D01*
X155284930Y-38163758D01*
X155283487Y-38161375D01*
X155229674Y-38182838D01*
X155159978Y-38169312D01*
X155108659Y-38120252D01*
X155096152Y-38090005D01*
X155078233Y-38023131D01*
X155071109Y-37996545D01*
X155014896Y-37875995D01*
X154997305Y-37838271D01*
X154997302Y-37838266D01*
X154994979Y-37833284D01*
X154945686Y-37762886D01*
X154922999Y-37695612D01*
X154940284Y-37626752D01*
X154992054Y-37578168D01*
X155048900Y-37564616D01*
X156888530Y-37564616D01*
X156956651Y-37584618D01*
G37*
%TD.AperFunction*%
%TA.AperFunction,Conductor*%
G36*
X149185392Y-24870819D02*
G01*
X149275653Y-24919064D01*
X149372997Y-24948593D01*
X149428718Y-24965496D01*
X149428719Y-24965496D01*
X149434649Y-24967295D01*
X149487457Y-24972496D01*
X149518691Y-24975573D01*
X149528333Y-24977080D01*
X149533851Y-24979018D01*
X149539416Y-24979500D01*
X149552380Y-24979500D01*
X149564729Y-24980107D01*
X149574507Y-24981070D01*
X149585455Y-24982148D01*
X149589593Y-24982679D01*
X149590202Y-24982679D01*
X149600000Y-24984231D01*
X149609798Y-24982679D01*
X149619713Y-24982679D01*
X149619713Y-24983392D01*
X149630287Y-24983392D01*
X149630287Y-24982679D01*
X149640202Y-24982679D01*
X149650000Y-24984231D01*
X149659798Y-24982679D01*
X149669713Y-24982679D01*
X149669713Y-24982834D01*
X149684820Y-24982240D01*
X149831044Y-24993748D01*
X149850571Y-24996841D01*
X150017519Y-25036922D01*
X150036313Y-25043028D01*
X150194939Y-25108733D01*
X150212550Y-25117707D01*
X150358937Y-25207414D01*
X150374932Y-25219035D01*
X150505483Y-25330536D01*
X150519464Y-25344517D01*
X150630965Y-25475068D01*
X150642586Y-25491063D01*
X150732293Y-25637450D01*
X150741267Y-25655061D01*
X150806970Y-25813682D01*
X150813080Y-25832486D01*
X150853159Y-25999428D01*
X150856252Y-26018956D01*
X150867760Y-26165180D01*
X150867166Y-26180290D01*
X150867321Y-26180290D01*
X150867321Y-26190205D01*
X150865769Y-26200000D01*
X150867320Y-26209793D01*
X150867320Y-26209794D01*
X150868949Y-26220077D01*
X150870500Y-26239788D01*
X150870500Y-26541840D01*
X150850498Y-26609961D01*
X150796842Y-26656454D01*
X150726568Y-26666558D01*
X150661918Y-26637004D01*
X150654775Y-26630805D01*
X150644304Y-26621719D01*
X150461874Y-26516181D01*
X150262778Y-26447043D01*
X150256845Y-26446183D01*
X150256842Y-26446182D01*
X150060140Y-26417662D01*
X150060137Y-26417662D01*
X150054200Y-26416801D01*
X149843667Y-26426545D01*
X149837843Y-26427949D01*
X149837840Y-26427949D01*
X149644607Y-26474518D01*
X149644605Y-26474519D01*
X149638774Y-26475924D01*
X149633316Y-26478406D01*
X149633312Y-26478407D01*
X149554562Y-26514213D01*
X149446916Y-26563157D01*
X149315392Y-26656454D01*
X149281058Y-26680809D01*
X149275014Y-26685096D01*
X149270876Y-26689419D01*
X149270871Y-26689423D01*
X149217018Y-26745679D01*
X149155462Y-26781055D01*
X149084553Y-26777536D01*
X149026803Y-26736239D01*
X149000547Y-26670276D01*
X149000000Y-26658548D01*
X149000000Y-24981943D01*
X149020002Y-24913822D01*
X149073658Y-24867329D01*
X149143932Y-24857225D01*
X149185392Y-24870819D01*
G37*
%TD.AperFunction*%
%TA.AperFunction,Conductor*%
G36*
X159688121Y-21274002D02*
G01*
X159734614Y-21327658D01*
X159746000Y-21380000D01*
X159746000Y-24907204D01*
X159725998Y-24975325D01*
X159672342Y-25021818D01*
X159602068Y-25031922D01*
X159538169Y-25003015D01*
X159511347Y-24980107D01*
X159383594Y-24870995D01*
X159379380Y-24868413D01*
X159379375Y-24868409D01*
X159368864Y-24861968D01*
X159321232Y-24809321D01*
X159309625Y-24739280D01*
X159319861Y-24702685D01*
X159327285Y-24686243D01*
X159374256Y-24536356D01*
X159376869Y-24523306D01*
X159381913Y-24468414D01*
X159378525Y-24456876D01*
X159377135Y-24455671D01*
X159369452Y-24454000D01*
X159001000Y-24454000D01*
X158932879Y-24433998D01*
X158886386Y-24380342D01*
X158875000Y-24328000D01*
X158875000Y-24072000D01*
X158895002Y-24003879D01*
X158948658Y-23957386D01*
X159001000Y-23946000D01*
X159364884Y-23946000D01*
X159380123Y-23941525D01*
X159381328Y-23940135D01*
X159382291Y-23935706D01*
X159376868Y-23876685D01*
X159374257Y-23863649D01*
X159327285Y-23713757D01*
X159321079Y-23700012D01*
X159240176Y-23566426D01*
X159230869Y-23554557D01*
X159120443Y-23444131D01*
X159108574Y-23434824D01*
X158974988Y-23353921D01*
X158961243Y-23347715D01*
X158811356Y-23300744D01*
X158798306Y-23298131D01*
X158734479Y-23292266D01*
X158728691Y-23292000D01*
X158672115Y-23292000D01*
X158656876Y-23296475D01*
X158655671Y-23297865D01*
X158654000Y-23305548D01*
X158654000Y-23874000D01*
X158633998Y-23942121D01*
X158580342Y-23988614D01*
X158528000Y-24000000D01*
X158272000Y-24000000D01*
X158203879Y-23979998D01*
X158157386Y-23926342D01*
X158146000Y-23874000D01*
X158146000Y-23310116D01*
X158141525Y-23294877D01*
X158140135Y-23293672D01*
X158132452Y-23292001D01*
X158071295Y-23292001D01*
X158065546Y-23292264D01*
X158001685Y-23298132D01*
X157988649Y-23300743D01*
X157838757Y-23347715D01*
X157825012Y-23353921D01*
X157691426Y-23434824D01*
X157679557Y-23444131D01*
X157569131Y-23554557D01*
X157559824Y-23566426D01*
X157478921Y-23700012D01*
X157472715Y-23713757D01*
X157425744Y-23863644D01*
X157423131Y-23876694D01*
X157418087Y-23931586D01*
X157421475Y-23943124D01*
X157422865Y-23944329D01*
X157430548Y-23946000D01*
X157799000Y-23946000D01*
X157867121Y-23966002D01*
X157913614Y-24019658D01*
X157925000Y-24072000D01*
X157925000Y-24328000D01*
X157904998Y-24396121D01*
X157851342Y-24442614D01*
X157799000Y-24454000D01*
X157728481Y-24454000D01*
X157660360Y-24433998D01*
X157638230Y-24413261D01*
X157637266Y-24414225D01*
X157630602Y-24407561D01*
X157625010Y-24399990D01*
X157515076Y-24318791D01*
X157386127Y-24273507D01*
X157378485Y-24272785D01*
X157378482Y-24272784D01*
X157363579Y-24271376D01*
X157354315Y-24270500D01*
X157100172Y-24270500D01*
X156845686Y-24270501D01*
X156842736Y-24270780D01*
X156842731Y-24270780D01*
X156831719Y-24271821D01*
X156817833Y-24273133D01*
X156748133Y-24259628D01*
X156696799Y-24210585D01*
X156679980Y-24147692D01*
X156679980Y-23965269D01*
X156681531Y-23945558D01*
X156683160Y-23935275D01*
X156683160Y-23935274D01*
X156684711Y-23925481D01*
X156683460Y-23917584D01*
X156683159Y-23914528D01*
X156683159Y-23914380D01*
X156683096Y-23913887D01*
X156667855Y-23759137D01*
X156667248Y-23752974D01*
X156651183Y-23700012D01*
X156618727Y-23593020D01*
X156618726Y-23593017D01*
X156616930Y-23587097D01*
X156544378Y-23451363D01*
X156529500Y-23391968D01*
X156529499Y-23173654D01*
X156529499Y-23170686D01*
X156528230Y-23157248D01*
X156527216Y-23146522D01*
X156527216Y-23146520D01*
X156526493Y-23138873D01*
X156481209Y-23009924D01*
X156400010Y-22899990D01*
X156290076Y-22818791D01*
X156161127Y-22773507D01*
X156153485Y-22772785D01*
X156153482Y-22772784D01*
X156138579Y-22771376D01*
X156129315Y-22770500D01*
X156103365Y-22770500D01*
X155542950Y-22770501D01*
X155474829Y-22750499D01*
X155428336Y-22696843D01*
X155418232Y-22626570D01*
X155426043Y-22597504D01*
X155434007Y-22577694D01*
X155434008Y-22577692D01*
X155436842Y-22570641D01*
X155441523Y-22537748D01*
X155470923Y-22473125D01*
X155530593Y-22434655D01*
X155566266Y-22429500D01*
X156109478Y-22429499D01*
X156129314Y-22429499D01*
X156132262Y-22429220D01*
X156132271Y-22429220D01*
X156153478Y-22427216D01*
X156153480Y-22427216D01*
X156161127Y-22426493D01*
X156171561Y-22422829D01*
X156187871Y-22417101D01*
X156290076Y-22381209D01*
X156400010Y-22300010D01*
X156481209Y-22190076D01*
X156526493Y-22061127D01*
X156529500Y-22029315D01*
X156529499Y-21520686D01*
X156526493Y-21488873D01*
X156502920Y-21421747D01*
X156499222Y-21350848D01*
X156534442Y-21289203D01*
X156597399Y-21256386D01*
X156621803Y-21254000D01*
X159620000Y-21254000D01*
X159688121Y-21274002D01*
G37*
%TD.AperFunction*%
%TD*%
M02*
