%TF.GenerationSoftware,KiCad,Pcbnew,(6.0.2-0)*%
%TF.CreationDate,2022-02-18T14:24:05+00:00*%
%TF.ProjectId,Generic2,47656e65-7269-4633-922e-6b696361645f,1*%
%TF.SameCoordinates,Original*%
%TF.FileFunction,Paste,Bot*%
%TF.FilePolarity,Positive*%
%FSLAX46Y46*%
G04 Gerber Fmt 4.6, Leading zero omitted, Abs format (unit mm)*
G04 Created by KiCad (PCBNEW (6.0.2-0)) date 2022-02-18 14:24:05*
%MOMM*%
%LPD*%
G01*
G04 APERTURE LIST*
G04 Aperture macros list*
%AMRoundRect*
0 Rectangle with rounded corners*
0 $1 Rounding radius*
0 $2 $3 $4 $5 $6 $7 $8 $9 X,Y pos of 4 corners*
0 Add a 4 corners polygon primitive as box body*
4,1,4,$2,$3,$4,$5,$6,$7,$8,$9,$2,$3,0*
0 Add four circle primitives for the rounded corners*
1,1,$1+$1,$2,$3*
1,1,$1+$1,$4,$5*
1,1,$1+$1,$6,$7*
1,1,$1+$1,$8,$9*
0 Add four rect primitives between the rounded corners*
20,1,$1+$1,$2,$3,$4,$5,0*
20,1,$1+$1,$4,$5,$6,$7,0*
20,1,$1+$1,$6,$7,$8,$9,0*
20,1,$1+$1,$8,$9,$2,$3,0*%
G04 Aperture macros list end*
%ADD10RoundRect,0.232500X0.232500X0.232500X-0.232500X0.232500X-0.232500X-0.232500X0.232500X-0.232500X0*%
%ADD11R,1.920000X0.864000*%
%ADD12R,0.864000X1.920000*%
G04 APERTURE END LIST*
D10*
%TO.C,U1*%
X148135000Y-94065000D03*
X148135000Y-95215000D03*
X148135000Y-96365000D03*
X149285000Y-96365000D03*
X146985000Y-94065000D03*
X150435000Y-97515000D03*
X146985000Y-96365000D03*
X146985000Y-95215000D03*
X149285000Y-97515000D03*
X150435000Y-95215000D03*
X148135000Y-97515000D03*
X146985000Y-97515000D03*
X149285000Y-94065000D03*
X150435000Y-94065000D03*
X150435000Y-96365000D03*
X149285000Y-95215000D03*
D11*
X156200000Y-88295000D03*
X156200000Y-89565000D03*
X156200000Y-90835000D03*
X156200000Y-92105000D03*
X156200000Y-93375000D03*
X156200000Y-94645000D03*
X156200000Y-95915000D03*
X156200000Y-97185000D03*
X156200000Y-98455000D03*
X156200000Y-99725000D03*
X156200000Y-100995000D03*
X156200000Y-102265000D03*
X156200000Y-103535000D03*
X156200000Y-104805000D03*
D12*
X153415000Y-105805000D03*
X152145000Y-105805000D03*
X150875000Y-105805000D03*
X149605000Y-105805000D03*
X148335000Y-105805000D03*
X147065000Y-105805000D03*
X145795000Y-105805000D03*
X144525000Y-105805000D03*
X143255000Y-105805000D03*
X141985000Y-105805000D03*
D11*
X139200000Y-104805000D03*
X139200000Y-103535000D03*
X139200000Y-102265000D03*
X139200000Y-100995000D03*
X139200000Y-99725000D03*
X139200000Y-98455000D03*
X139200000Y-97185000D03*
X139200000Y-95915000D03*
X139200000Y-94645000D03*
X139200000Y-93375000D03*
X139200000Y-92105000D03*
X139200000Y-90835000D03*
X139200000Y-89565000D03*
X139200000Y-88295000D03*
%TD*%
M02*
