%TF.GenerationSoftware,KiCad,Pcbnew,(6.0.10-0)*%
%TF.CreationDate,2023-01-05T15:57:35+00:00*%
%TF.ProjectId,Generic4,47656e65-7269-4633-942e-6b696361645f,1*%
%TF.SameCoordinates,Original*%
%TF.FileFunction,Legend,Bot*%
%TF.FilePolarity,Positive*%
%FSLAX46Y46*%
G04 Gerber Fmt 4.6, Leading zero omitted, Abs format (unit mm)*
G04 Created by KiCad (PCBNEW (6.0.10-0)) date 2023-01-05 15:57:35*
%MOMM*%
%LPD*%
G01*
G04 APERTURE LIST*
%ADD10C,0.100000*%
%ADD11C,0.080000*%
%ADD12C,0.150000*%
%ADD13C,0.120000*%
G04 APERTURE END LIST*
D10*
X99209433Y-55260685D02*
X99175761Y-55260685D01*
X99125253Y-55277521D01*
X99041074Y-55361700D01*
X99024238Y-55412208D01*
X99024238Y-55445879D01*
X99041074Y-55496387D01*
X99074746Y-55530059D01*
X99142089Y-55563730D01*
X99546150Y-55563730D01*
X99327284Y-55782597D01*
X98855879Y-55546895D02*
X98620177Y-55782597D01*
X99125253Y-55984627D01*
X98179314Y-50390566D02*
X97825761Y-50037013D01*
X97741582Y-50121192D01*
X97707910Y-50188536D01*
X97707910Y-50255879D01*
X97724746Y-50306387D01*
X97775253Y-50390566D01*
X97825761Y-50441074D01*
X97909940Y-50491582D01*
X97960448Y-50508417D01*
X98027791Y-50508417D01*
X98095135Y-50474746D01*
X98179314Y-50390566D01*
X97590059Y-50912478D02*
X97623730Y-50912478D01*
X97691074Y-50878807D01*
X97724746Y-50845135D01*
X97758417Y-50777791D01*
X97758417Y-50710448D01*
X97741582Y-50659940D01*
X97691074Y-50575761D01*
X97640566Y-50525253D01*
X97556387Y-50474746D01*
X97505879Y-50457910D01*
X97438536Y-50457910D01*
X97371192Y-50491582D01*
X97337521Y-50525253D01*
X97303849Y-50592597D01*
X97303849Y-50626269D01*
X101867284Y-55782597D02*
X102069314Y-55580566D01*
X101968299Y-55681582D02*
X101614746Y-55328028D01*
X101698925Y-55344864D01*
X101766269Y-55344864D01*
X101816776Y-55328028D01*
X101328536Y-55849940D02*
X101564238Y-56085643D01*
X101278028Y-55631074D02*
X101614746Y-55799433D01*
X101395879Y-56018299D01*
X96669433Y-55260685D02*
X96635761Y-55260685D01*
X96585253Y-55277521D01*
X96501074Y-55361700D01*
X96484238Y-55412208D01*
X96484238Y-55445879D01*
X96501074Y-55496387D01*
X96534746Y-55530059D01*
X96602089Y-55563730D01*
X97006150Y-55563730D01*
X96787284Y-55782597D01*
X96130685Y-55732089D02*
X96198028Y-55664746D01*
X96248536Y-55647910D01*
X96282208Y-55647910D01*
X96366387Y-55664746D01*
X96450566Y-55715253D01*
X96585253Y-55849940D01*
X96602089Y-55900448D01*
X96602089Y-55934120D01*
X96585253Y-55984627D01*
X96517910Y-56051971D01*
X96467402Y-56068807D01*
X96433730Y-56068807D01*
X96383223Y-56051971D01*
X96299043Y-55967791D01*
X96282208Y-55917284D01*
X96282208Y-55883612D01*
X96299043Y-55833104D01*
X96366387Y-55765761D01*
X96416895Y-55748925D01*
X96450566Y-55748925D01*
X96501074Y-55765761D01*
X106125000Y-52075000D02*
X106160714Y-52146428D01*
X106160714Y-52253571D01*
X106125000Y-52360714D01*
X106053571Y-52432142D01*
X105982142Y-52467857D01*
X105839285Y-52503571D01*
X105732142Y-52503571D01*
X105589285Y-52467857D01*
X105517857Y-52432142D01*
X105446428Y-52360714D01*
X105410714Y-52253571D01*
X105410714Y-52182142D01*
X105446428Y-52075000D01*
X105482142Y-52039285D01*
X105732142Y-52039285D01*
X105732142Y-52182142D01*
X105446428Y-51432142D02*
X105410714Y-51503571D01*
X105410714Y-51646428D01*
X105446428Y-51717857D01*
X105517857Y-51753571D01*
X105803571Y-51753571D01*
X105875000Y-51717857D01*
X105910714Y-51646428D01*
X105910714Y-51503571D01*
X105875000Y-51432142D01*
X105803571Y-51396428D01*
X105732142Y-51396428D01*
X105660714Y-51753571D01*
X105910714Y-51075000D02*
X105410714Y-51075000D01*
X105839285Y-51075000D02*
X105875000Y-51039285D01*
X105910714Y-50967857D01*
X105910714Y-50860714D01*
X105875000Y-50789285D01*
X105803571Y-50753571D01*
X105410714Y-50753571D01*
X105446428Y-50110714D02*
X105410714Y-50182142D01*
X105410714Y-50325000D01*
X105446428Y-50396428D01*
X105517857Y-50432142D01*
X105803571Y-50432142D01*
X105875000Y-50396428D01*
X105910714Y-50325000D01*
X105910714Y-50182142D01*
X105875000Y-50110714D01*
X105803571Y-50075000D01*
X105732142Y-50075000D01*
X105660714Y-50432142D01*
X105410714Y-49753571D02*
X105910714Y-49753571D01*
X105767857Y-49753571D02*
X105839285Y-49717857D01*
X105875000Y-49682142D01*
X105910714Y-49610714D01*
X105910714Y-49539285D01*
X105410714Y-49289285D02*
X105910714Y-49289285D01*
X106160714Y-49289285D02*
X106125000Y-49325000D01*
X106089285Y-49289285D01*
X106125000Y-49253571D01*
X106160714Y-49289285D01*
X106089285Y-49289285D01*
X105446428Y-48610714D02*
X105410714Y-48682142D01*
X105410714Y-48825000D01*
X105446428Y-48896428D01*
X105482142Y-48932142D01*
X105553571Y-48967857D01*
X105767857Y-48967857D01*
X105839285Y-48932142D01*
X105875000Y-48896428D01*
X105910714Y-48825000D01*
X105910714Y-48682142D01*
X105875000Y-48610714D01*
X105910714Y-47967857D02*
X105410714Y-47967857D01*
X106196428Y-48146428D02*
X105660714Y-48325000D01*
X105660714Y-47860714D01*
D11*
X105869047Y-47426190D02*
X106035714Y-47188095D01*
X106154761Y-47426190D02*
X106154761Y-46926190D01*
X105964285Y-46926190D01*
X105916666Y-46950000D01*
X105892857Y-46973809D01*
X105869047Y-47021428D01*
X105869047Y-47092857D01*
X105892857Y-47140476D01*
X105916666Y-47164285D01*
X105964285Y-47188095D01*
X106154761Y-47188095D01*
X105392857Y-46950000D02*
X105440476Y-46926190D01*
X105511904Y-46926190D01*
X105583333Y-46950000D01*
X105630952Y-46997619D01*
X105654761Y-47045238D01*
X105678571Y-47140476D01*
X105678571Y-47211904D01*
X105654761Y-47307142D01*
X105630952Y-47354761D01*
X105583333Y-47402380D01*
X105511904Y-47426190D01*
X105464285Y-47426190D01*
X105392857Y-47402380D01*
X105369047Y-47378571D01*
X105369047Y-47211904D01*
X105464285Y-47211904D01*
X104988095Y-47164285D02*
X104916666Y-47188095D01*
X104892857Y-47211904D01*
X104869047Y-47259523D01*
X104869047Y-47330952D01*
X104892857Y-47378571D01*
X104916666Y-47402380D01*
X104964285Y-47426190D01*
X105154761Y-47426190D01*
X105154761Y-46926190D01*
X104988095Y-46926190D01*
X104940476Y-46950000D01*
X104916666Y-46973809D01*
X104892857Y-47021428D01*
X104892857Y-47069047D01*
X104916666Y-47116666D01*
X104940476Y-47140476D01*
X104988095Y-47164285D01*
X105154761Y-47164285D01*
X104654761Y-47378571D02*
X104630952Y-47402380D01*
X104654761Y-47426190D01*
X104678571Y-47402380D01*
X104654761Y-47378571D01*
X104654761Y-47426190D01*
X104654761Y-47116666D02*
X104630952Y-47140476D01*
X104654761Y-47164285D01*
X104678571Y-47140476D01*
X104654761Y-47116666D01*
X104654761Y-47164285D01*
X104059523Y-46973809D02*
X104035714Y-46950000D01*
X103988095Y-46926190D01*
X103869047Y-46926190D01*
X103821428Y-46950000D01*
X103797619Y-46973809D01*
X103773809Y-47021428D01*
X103773809Y-47069047D01*
X103797619Y-47140476D01*
X104083333Y-47426190D01*
X103773809Y-47426190D01*
X103583333Y-46973809D02*
X103559523Y-46950000D01*
X103511904Y-46926190D01*
X103392857Y-46926190D01*
X103345238Y-46950000D01*
X103321428Y-46973809D01*
X103297619Y-47021428D01*
X103297619Y-47069047D01*
X103321428Y-47140476D01*
X103607142Y-47426190D01*
X103297619Y-47426190D01*
X102726190Y-46902380D02*
X103154761Y-47545238D01*
X102297619Y-47426190D02*
X102583333Y-47426190D01*
X102440476Y-47426190D02*
X102440476Y-46926190D01*
X102488095Y-46997619D01*
X102535714Y-47045238D01*
X102583333Y-47069047D01*
X102059523Y-47426190D02*
X101964285Y-47426190D01*
X101916666Y-47402380D01*
X101892857Y-47378571D01*
X101845238Y-47307142D01*
X101821428Y-47211904D01*
X101821428Y-47021428D01*
X101845238Y-46973809D01*
X101869047Y-46950000D01*
X101916666Y-46926190D01*
X102011904Y-46926190D01*
X102059523Y-46950000D01*
X102083333Y-46973809D01*
X102107142Y-47021428D01*
X102107142Y-47140476D01*
X102083333Y-47188095D01*
X102059523Y-47211904D01*
X102011904Y-47235714D01*
X101916666Y-47235714D01*
X101869047Y-47211904D01*
X101845238Y-47188095D01*
X101821428Y-47140476D01*
X101250000Y-46902380D02*
X101678571Y-47545238D01*
X101130952Y-46926190D02*
X100797619Y-46926190D01*
X101011904Y-47426190D01*
D10*
X94129433Y-55260685D02*
X94095761Y-55260685D01*
X94045253Y-55277521D01*
X93961074Y-55361700D01*
X93944238Y-55412208D01*
X93944238Y-55445879D01*
X93961074Y-55496387D01*
X93994746Y-55530059D01*
X94062089Y-55563730D01*
X94466150Y-55563730D01*
X94247284Y-55782597D01*
X93573849Y-55748925D02*
X93742208Y-55580566D01*
X93927402Y-55732089D01*
X93893730Y-55732089D01*
X93843223Y-55748925D01*
X93759043Y-55833104D01*
X93742208Y-55883612D01*
X93742208Y-55917284D01*
X93759043Y-55967791D01*
X93843223Y-56051971D01*
X93893730Y-56068807D01*
X93927402Y-56068807D01*
X93977910Y-56051971D01*
X94062089Y-55967791D01*
X94078925Y-55917284D01*
X94078925Y-55883612D01*
X102606895Y-50491582D02*
X102842597Y-50727284D01*
X102556387Y-50272715D02*
X102893104Y-50441074D01*
X102674238Y-50659940D01*
X104289433Y-55260685D02*
X104255761Y-55260685D01*
X104205253Y-55277521D01*
X104121074Y-55361700D01*
X104104238Y-55412208D01*
X104104238Y-55445879D01*
X104121074Y-55496387D01*
X104154746Y-55530059D01*
X104222089Y-55563730D01*
X104626150Y-55563730D01*
X104407284Y-55782597D01*
X103834864Y-55647910D02*
X103801192Y-55681582D01*
X103784356Y-55732089D01*
X103784356Y-55765761D01*
X103801192Y-55816269D01*
X103851700Y-55900448D01*
X103935879Y-55984627D01*
X104020059Y-56035135D01*
X104070566Y-56051971D01*
X104104238Y-56051971D01*
X104154746Y-56035135D01*
X104188417Y-56001463D01*
X104205253Y-55950956D01*
X104205253Y-55917284D01*
X104188417Y-55866776D01*
X104137910Y-55782597D01*
X104053730Y-55698417D01*
X103969551Y-55647910D01*
X103919043Y-55631074D01*
X103885372Y-55631074D01*
X103834864Y-55647910D01*
D12*
X104357142Y-48785714D02*
X104166666Y-49452380D01*
X103976190Y-48976190D01*
X103785714Y-49452380D01*
X103595238Y-48785714D01*
X103309523Y-48785714D02*
X103119047Y-49452380D01*
X102928571Y-48976190D01*
X102738095Y-49452380D01*
X102547619Y-48785714D01*
X102261904Y-48785714D02*
X102071428Y-49452380D01*
X101880952Y-48976190D01*
X101690476Y-49452380D01*
X101500000Y-48785714D01*
X101119047Y-49357142D02*
X101071428Y-49404761D01*
X101119047Y-49452380D01*
X101166666Y-49404761D01*
X101119047Y-49357142D01*
X101119047Y-49452380D01*
X100642857Y-49452380D02*
X100642857Y-48785714D01*
X100642857Y-48880952D02*
X100595238Y-48833333D01*
X100500000Y-48785714D01*
X100357142Y-48785714D01*
X100261904Y-48833333D01*
X100214285Y-48928571D01*
X100214285Y-49452380D01*
X100214285Y-48928571D02*
X100166666Y-48833333D01*
X100071428Y-48785714D01*
X99928571Y-48785714D01*
X99833333Y-48833333D01*
X99785714Y-48928571D01*
X99785714Y-49452380D01*
X98928571Y-49404761D02*
X99023809Y-49452380D01*
X99214285Y-49452380D01*
X99309523Y-49404761D01*
X99357142Y-49309523D01*
X99357142Y-48928571D01*
X99309523Y-48833333D01*
X99214285Y-48785714D01*
X99023809Y-48785714D01*
X98928571Y-48833333D01*
X98880952Y-48928571D01*
X98880952Y-49023809D01*
X99357142Y-49119047D01*
X98452380Y-49357142D02*
X98404761Y-49404761D01*
X98452380Y-49452380D01*
X98500000Y-49404761D01*
X98452380Y-49357142D01*
X98452380Y-49452380D01*
X97547619Y-48785714D02*
X97547619Y-49452380D01*
X97976190Y-48785714D02*
X97976190Y-49309523D01*
X97928571Y-49404761D01*
X97833333Y-49452380D01*
X97690476Y-49452380D01*
X97595238Y-49404761D01*
X97547619Y-49357142D01*
X97071428Y-49452380D02*
X97071428Y-48452380D01*
X96976190Y-49071428D02*
X96690476Y-49452380D01*
X96690476Y-48785714D02*
X97071428Y-49166666D01*
D10*
X100477284Y-50592597D02*
X100679314Y-50390566D01*
X100578299Y-50491582D02*
X100224746Y-50138028D01*
X100308925Y-50154864D01*
X100376269Y-50154864D01*
X100426776Y-50138028D01*
X99803849Y-50558925D02*
X99972208Y-50390566D01*
X100157402Y-50542089D01*
X100123730Y-50542089D01*
X100073223Y-50558925D01*
X99989043Y-50643104D01*
X99972208Y-50693612D01*
X99972208Y-50727284D01*
X99989043Y-50777791D01*
X100073223Y-50861971D01*
X100123730Y-50878807D01*
X100157402Y-50878807D01*
X100207910Y-50861971D01*
X100292089Y-50777791D01*
X100308925Y-50727284D01*
X100308925Y-50693612D01*
D11*
%TO.C,J1*%
X102550000Y-53046190D02*
X102550000Y-52665238D01*
X102645238Y-52760476D02*
X102550000Y-52665238D01*
X102454761Y-52760476D01*
X105090000Y-52665238D02*
X105090000Y-53046190D01*
X104994761Y-52950952D02*
X105090000Y-53046190D01*
X105185238Y-52950952D01*
X97493809Y-52546190D02*
X97446190Y-52546190D01*
X97398571Y-52570000D01*
X97374761Y-52593809D01*
X97350952Y-52641428D01*
X97327142Y-52736666D01*
X97327142Y-52855714D01*
X97350952Y-52950952D01*
X97374761Y-52998571D01*
X97398571Y-53022380D01*
X97446190Y-53046190D01*
X97493809Y-53046190D01*
X97541428Y-53022380D01*
X97565238Y-52998571D01*
X97589047Y-52950952D01*
X97612857Y-52855714D01*
X97612857Y-52736666D01*
X97589047Y-52641428D01*
X97565238Y-52593809D01*
X97541428Y-52570000D01*
X97493809Y-52546190D01*
X100629047Y-52546190D02*
X100319523Y-52546190D01*
X100486190Y-52736666D01*
X100414761Y-52736666D01*
X100367142Y-52760476D01*
X100343333Y-52784285D01*
X100319523Y-52831904D01*
X100319523Y-52950952D01*
X100343333Y-52998571D01*
X100367142Y-53022380D01*
X100414761Y-53046190D01*
X100557619Y-53046190D01*
X100605238Y-53022380D01*
X100629047Y-52998571D01*
X100176666Y-52546190D02*
X100010000Y-53046190D01*
X99843333Y-52546190D01*
X99724285Y-52546190D02*
X99414761Y-52546190D01*
X99581428Y-52736666D01*
X99510000Y-52736666D01*
X99462380Y-52760476D01*
X99438571Y-52784285D01*
X99414761Y-52831904D01*
X99414761Y-52950952D01*
X99438571Y-52998571D01*
X99462380Y-53022380D01*
X99510000Y-53046190D01*
X99652857Y-53046190D01*
X99700476Y-53022380D01*
X99724285Y-52998571D01*
X95168095Y-52760476D02*
X94691904Y-52760476D01*
X95072857Y-52903333D02*
X94787142Y-52903333D01*
X94930000Y-52546190D02*
X94930000Y-52760476D01*
X94882380Y-53046190D02*
X94977619Y-53046190D01*
D13*
%TO.C,R2*%
X105050000Y-44425000D02*
X105050000Y-45025000D01*
X104050000Y-44425000D02*
X104050000Y-45025000D01*
%TO.C,C1*%
X99500000Y-46700000D02*
X98900000Y-46700000D01*
X99500000Y-47700000D02*
X98900000Y-47700000D01*
%TO.C,R6*%
X102225000Y-40000000D02*
X102825000Y-40000000D01*
X102225000Y-39000000D02*
X102825000Y-39000000D01*
%TO.C,R1*%
X103200000Y-44400000D02*
X103200000Y-45000000D01*
X102200000Y-44400000D02*
X102200000Y-45000000D01*
%TO.C,R3*%
X106350000Y-44400000D02*
X106350000Y-45000000D01*
X105350000Y-44400000D02*
X105350000Y-45000000D01*
%TO.C,R4*%
X96100000Y-46700000D02*
X96700000Y-46700000D01*
X96100000Y-47700000D02*
X96700000Y-47700000D01*
%TO.C,D1*%
X104900000Y-41600000D02*
X104900000Y-40600000D01*
X106000000Y-41600000D02*
X104900000Y-41600000D01*
%TO.C,C5*%
X94200000Y-50000000D02*
X94200000Y-50600000D01*
X95200000Y-50000000D02*
X95200000Y-50600000D01*
%TO.C,U2*%
X101400000Y-40925000D02*
X98300000Y-40925000D01*
%TO.C,R5*%
X105300000Y-39000000D02*
X104700000Y-39000000D01*
X105300000Y-40000000D02*
X104700000Y-40000000D01*
%TD*%
M02*
