%TF.GenerationSoftware,KiCad,Pcbnew,(6.0.2-0)*%
%TF.CreationDate,2022-05-04T15:05:02+01:00*%
%TF.ProjectId,Generic0,47656e65-7269-4633-902e-6b696361645f,1*%
%TF.SameCoordinates,Original*%
%TF.FileFunction,Copper,L2,Bot*%
%TF.FilePolarity,Positive*%
%FSLAX46Y46*%
G04 Gerber Fmt 4.6, Leading zero omitted, Abs format (unit mm)*
G04 Created by KiCad (PCBNEW (6.0.2-0)) date 2022-05-04 15:05:02*
%MOMM*%
%LPD*%
G01*
G04 APERTURE LIST*
G04 Aperture macros list*
%AMRoundRect*
0 Rectangle with rounded corners*
0 $1 Rounding radius*
0 $2 $3 $4 $5 $6 $7 $8 $9 X,Y pos of 4 corners*
0 Add a 4 corners polygon primitive as box body*
4,1,4,$2,$3,$4,$5,$6,$7,$8,$9,$2,$3,0*
0 Add four circle primitives for the rounded corners*
1,1,$1+$1,$2,$3*
1,1,$1+$1,$4,$5*
1,1,$1+$1,$6,$7*
1,1,$1+$1,$8,$9*
0 Add four rect primitives between the rounded corners*
20,1,$1+$1,$2,$3,$4,$5,0*
20,1,$1+$1,$4,$5,$6,$7,0*
20,1,$1+$1,$6,$7,$8,$9,0*
20,1,$1+$1,$8,$9,$2,$3,0*%
G04 Aperture macros list end*
%TA.AperFunction,SMDPad,CuDef*%
%ADD10RoundRect,0.200000X-0.275000X0.200000X-0.275000X-0.200000X0.275000X-0.200000X0.275000X0.200000X0*%
%TD*%
%TA.AperFunction,SMDPad,CuDef*%
%ADD11RoundRect,0.200000X0.200000X0.275000X-0.200000X0.275000X-0.200000X-0.275000X0.200000X-0.275000X0*%
%TD*%
%TA.AperFunction,SMDPad,CuDef*%
%ADD12R,0.850000X0.500000*%
%TD*%
%TA.AperFunction,ComponentPad*%
%ADD13R,1.700000X1.700000*%
%TD*%
%TA.AperFunction,ComponentPad*%
%ADD14O,1.700000X1.700000*%
%TD*%
%TA.AperFunction,ViaPad*%
%ADD15C,0.800000*%
%TD*%
%TA.AperFunction,Conductor*%
%ADD16C,0.250000*%
%TD*%
G04 APERTURE END LIST*
%TO.C,R4*%
G36*
X98300000Y-46750000D02*
G01*
X97300000Y-46750000D01*
X97300000Y-46350000D01*
X98300000Y-46350000D01*
X98300000Y-46750000D01*
G37*
%TD*%
D10*
%TO.P,R2,1*%
%TO.N,Net-(D1-Pad3)*%
X102600000Y-40575000D03*
%TO.P,R2,2*%
%TO.N,G*%
X102600000Y-42225000D03*
%TD*%
D11*
%TO.P,C1,1*%
%TO.N,GND*%
X98575000Y-45050000D03*
%TO.P,C1,2*%
%TO.N,EN*%
X97025000Y-45050000D03*
%TD*%
D10*
%TO.P,R1,1*%
%TO.N,Net-(D1-Pad2)*%
X99400000Y-40575000D03*
%TO.P,R1,2*%
%TO.N,R*%
X99400000Y-42225000D03*
%TD*%
%TO.P,R3,1*%
%TO.N,Net-(D1-Pad4)*%
X101000000Y-40575000D03*
%TO.P,R3,2*%
%TO.N,B*%
X101000000Y-42225000D03*
%TD*%
D11*
%TO.P,R4,1*%
%TO.N,+3V3*%
X98625000Y-46550000D03*
%TO.P,R4,2*%
%TO.N,EN*%
X96975000Y-46550000D03*
%TD*%
D12*
%TO.P,D1,1,A*%
%TO.N,+3V3*%
X105875000Y-39500000D03*
%TO.P,D1,2,RK*%
%TO.N,Net-(D1-Pad2)*%
X104125000Y-39500000D03*
%TO.P,D1,3,GK*%
%TO.N,Net-(D1-Pad3)*%
X104125000Y-40500000D03*
%TO.P,D1,4,BK*%
%TO.N,Net-(D1-Pad4)*%
X105875000Y-40500000D03*
%TD*%
D11*
%TO.P,C2,1*%
%TO.N,+3V3*%
X98575000Y-48050000D03*
%TO.P,C2,2*%
%TO.N,GND*%
X97025000Y-48050000D03*
%TD*%
D13*
%TO.P,J1,1,GND*%
%TO.N,GND*%
X94920000Y-50900000D03*
D14*
%TO.P,J1,2,0*%
%TO.N,GPIO0*%
X97460000Y-50900000D03*
%TO.P,J1,3,3V3*%
%TO.N,+3V3*%
X100000000Y-50900000D03*
%TO.P,J1,4,Rx*%
%TO.N,RX*%
X102540000Y-50900000D03*
%TO.P,J1,5,Tx*%
%TO.N,TX*%
X105080000Y-50900000D03*
%TD*%
D15*
%TO.N,TX*%
X104250000Y-44000000D03*
%TO.N,GND*%
X95400000Y-47400000D03*
X94800000Y-40000000D03*
X95600000Y-43200000D03*
%TO.N,RX*%
X104200000Y-46000000D03*
%TO.N,EN*%
X95900000Y-45800000D03*
%TO.N,GPIO0*%
X102500000Y-48000000D03*
%TO.N,R*%
X97469964Y-41069964D03*
%TO.N,G*%
X104402456Y-42024020D03*
%TO.N,B*%
X103600000Y-43000000D03*
%TO.N,+3V3*%
X95600000Y-41800000D03*
X99620136Y-48121366D03*
%TD*%
D16*
%TO.N,GPIO0*%
X97460000Y-50900000D02*
X95052549Y-48492549D01*
X94600000Y-47400000D02*
G75*
G03*
X95052549Y-48492549I1545086J-4D01*
G01*
%TO.N,TX*%
X104250000Y-44000000D02*
X105000000Y-44000000D01*
X105080000Y-50900000D02*
G75*
G03*
X105500000Y-50480000I1J419999D01*
G01*
X105500000Y-44500000D02*
G75*
G03*
X105000000Y-44000000I-500001J-1D01*
G01*
X105500000Y-44500000D02*
X105500000Y-50480000D01*
%TO.N,RX*%
X104200000Y-46000000D02*
X104200000Y-46892406D01*
X102540000Y-50900000D02*
G75*
G03*
X104200000Y-46892406I-4007595J4007595D01*
G01*
%TO.N,Net-(D1-Pad2)*%
X104125000Y-39500000D02*
X100475000Y-39500000D01*
X99400000Y-40575000D02*
G75*
G02*
X100475000Y-39500000I1074999J1D01*
G01*
%TO.N,EN*%
X97025000Y-45050000D02*
X97025000Y-46500000D01*
X96975000Y-46550000D02*
X96650000Y-46550000D01*
X97025000Y-46500000D02*
X96975000Y-46550000D01*
X95900000Y-45800000D02*
G75*
G03*
X96650000Y-46550000I750000J0D01*
G01*
%TO.N,Net-(D1-Pad3)*%
X104050000Y-40575000D02*
X104125000Y-40500000D01*
X102600000Y-40575000D02*
X104050000Y-40575000D01*
%TO.N,Net-(D1-Pad4)*%
X105075480Y-41299520D02*
X101724520Y-41299520D01*
X101000000Y-40575000D02*
G75*
G03*
X101724520Y-41299520I724520J0D01*
G01*
X105075480Y-41299520D02*
G75*
G03*
X105875000Y-40500000I0J799520D01*
G01*
%TO.N,GPIO0*%
X94600000Y-47400000D02*
X94600000Y-46000000D01*
X102500000Y-48000000D02*
X102500000Y-46100000D01*
X96349520Y-44250480D02*
X100650480Y-44250480D01*
X100650480Y-44250480D02*
G75*
G02*
X102500000Y-46100000I0J-1849520D01*
G01*
X96349520Y-44250480D02*
G75*
G03*
X94600000Y-46000000I2J-1749522D01*
G01*
%TO.N,R*%
X99400000Y-42225000D02*
X98625000Y-42225000D01*
X97469964Y-41069964D02*
G75*
G03*
X98625000Y-42225000I1155035J-1D01*
G01*
%TO.N,G*%
X102600000Y-42225000D02*
X104201476Y-42225000D01*
X104201476Y-42225000D02*
X104402456Y-42024020D01*
%TO.N,B*%
X101775000Y-43000000D02*
X103600000Y-43000000D01*
X101775000Y-43000000D02*
G75*
G02*
X101000000Y-42225000I-1J774999D01*
G01*
%TO.N,+3V3*%
X98646366Y-48121366D02*
X98575000Y-48050000D01*
X100000000Y-48501230D02*
X100000000Y-50900000D01*
X98625000Y-48000000D02*
X98575000Y-48050000D01*
X99620136Y-48121366D02*
X98646366Y-48121366D01*
X98625000Y-46550000D02*
X98625000Y-48000000D01*
X95600000Y-41800000D02*
X95600000Y-40800000D01*
X97474511Y-38925489D02*
X105300489Y-38925489D01*
X97474511Y-38925489D02*
G75*
G03*
X95600000Y-40800000I2J-1874513D01*
G01*
X100000000Y-48501230D02*
G75*
G03*
X99620136Y-48121366I-379865J-1D01*
G01*
X105875000Y-39500000D02*
G75*
G03*
X105300489Y-38925489I-574510J1D01*
G01*
%TD*%
%TA.AperFunction,Conductor*%
%TO.N,GND*%
G36*
X96540580Y-44518993D02*
G01*
X96558593Y-44562480D01*
X96552831Y-44588470D01*
X96505741Y-44689455D01*
X96499500Y-44736861D01*
X96499501Y-45363138D01*
X96505741Y-45410545D01*
X96554253Y-45514579D01*
X96635421Y-45595747D01*
X96640298Y-45598021D01*
X96738991Y-45644043D01*
X96770791Y-45678747D01*
X96774500Y-45699781D01*
X96774500Y-45890611D01*
X96756487Y-45934098D01*
X96721027Y-45951585D01*
X96694119Y-45955127D01*
X96694118Y-45955127D01*
X96689455Y-45955741D01*
X96585421Y-46004253D01*
X96504253Y-46085421D01*
X96498860Y-46096986D01*
X96458254Y-46184065D01*
X96423550Y-46215865D01*
X96376525Y-46213812D01*
X96369802Y-46210151D01*
X96344576Y-46194301D01*
X96317339Y-46155913D01*
X96325223Y-46109508D01*
X96328506Y-46104789D01*
X96339874Y-46089974D01*
X96359024Y-46065017D01*
X96375735Y-46024674D01*
X96410431Y-45940908D01*
X96411974Y-45937183D01*
X96430035Y-45800000D01*
X96411974Y-45662817D01*
X96382617Y-45591942D01*
X96360566Y-45538705D01*
X96360565Y-45538703D01*
X96359024Y-45534983D01*
X96274791Y-45425209D01*
X96165018Y-45340976D01*
X96161298Y-45339435D01*
X96161296Y-45339434D01*
X96040908Y-45289569D01*
X96040909Y-45289569D01*
X96037183Y-45288026D01*
X95900000Y-45269965D01*
X95762817Y-45288026D01*
X95746866Y-45294633D01*
X95638705Y-45339434D01*
X95638703Y-45339435D01*
X95634983Y-45340976D01*
X95525209Y-45425209D01*
X95440976Y-45534983D01*
X95439435Y-45538703D01*
X95439434Y-45538705D01*
X95417383Y-45591942D01*
X95388026Y-45662817D01*
X95369965Y-45800000D01*
X95388026Y-45937183D01*
X95389569Y-45940908D01*
X95424266Y-46024674D01*
X95440976Y-46065017D01*
X95443430Y-46068215D01*
X95499210Y-46140908D01*
X95525209Y-46174791D01*
X95634982Y-46259024D01*
X95638702Y-46260565D01*
X95638704Y-46260566D01*
X95657171Y-46268215D01*
X95762817Y-46311974D01*
X95766807Y-46312499D01*
X95770620Y-46313521D01*
X95805081Y-46337650D01*
X95831088Y-46374791D01*
X95880645Y-46445566D01*
X96004434Y-46569355D01*
X96147839Y-46669768D01*
X96306502Y-46743754D01*
X96403920Y-46769857D01*
X96441261Y-46798510D01*
X96449501Y-46829260D01*
X96449501Y-46863138D01*
X96455741Y-46910545D01*
X96504253Y-47014579D01*
X96585421Y-47095747D01*
X96689455Y-47144259D01*
X96694117Y-47144873D01*
X96694118Y-47144873D01*
X96712019Y-47147230D01*
X96736861Y-47150500D01*
X96974940Y-47150500D01*
X97213138Y-47150499D01*
X97215128Y-47150237D01*
X97215129Y-47150237D01*
X97255881Y-47144873D01*
X97255882Y-47144873D01*
X97260545Y-47144259D01*
X97364579Y-47095747D01*
X97417313Y-47043013D01*
X97460800Y-47025000D01*
X98139200Y-47025000D01*
X98182687Y-47043013D01*
X98235421Y-47095747D01*
X98240298Y-47098021D01*
X98338991Y-47144043D01*
X98370791Y-47178747D01*
X98374500Y-47199781D01*
X98374500Y-47390611D01*
X98356487Y-47434098D01*
X98321027Y-47451585D01*
X98294119Y-47455127D01*
X98294118Y-47455127D01*
X98289455Y-47455741D01*
X98185421Y-47504253D01*
X98104253Y-47585421D01*
X98055741Y-47689455D01*
X98049500Y-47736861D01*
X98049501Y-48363138D01*
X98055741Y-48410545D01*
X98104253Y-48514579D01*
X98185421Y-48595747D01*
X98289455Y-48644259D01*
X98294117Y-48644873D01*
X98294118Y-48644873D01*
X98312019Y-48647230D01*
X98336861Y-48650500D01*
X98574940Y-48650500D01*
X98813138Y-48650499D01*
X98815128Y-48650237D01*
X98815129Y-48650237D01*
X98855881Y-48644873D01*
X98855882Y-48644873D01*
X98860545Y-48644259D01*
X98964579Y-48595747D01*
X99045747Y-48514579D01*
X99083706Y-48433176D01*
X99118409Y-48401377D01*
X99165434Y-48403430D01*
X99188234Y-48421729D01*
X99245345Y-48496157D01*
X99248543Y-48498611D01*
X99284110Y-48525903D01*
X99355118Y-48580390D01*
X99358838Y-48581931D01*
X99358840Y-48581932D01*
X99454713Y-48621643D01*
X99482953Y-48633340D01*
X99620136Y-48651401D01*
X99679972Y-48643523D01*
X99725438Y-48655705D01*
X99748974Y-48696469D01*
X99749500Y-48704497D01*
X99749500Y-49910802D01*
X99731487Y-49954289D01*
X99705364Y-49969800D01*
X99632803Y-49991156D01*
X99630133Y-49992552D01*
X99465935Y-50078392D01*
X99465930Y-50078396D01*
X99463268Y-50079787D01*
X99460924Y-50081672D01*
X99460922Y-50081673D01*
X99356732Y-50165444D01*
X99314176Y-50199660D01*
X99312246Y-50201960D01*
X99304128Y-50211635D01*
X99191207Y-50346208D01*
X99189762Y-50348837D01*
X99189761Y-50348838D01*
X99178071Y-50370102D01*
X99099045Y-50513850D01*
X99098137Y-50516713D01*
X99057125Y-50646000D01*
X99041200Y-50696201D01*
X99019876Y-50886314D01*
X99035884Y-51076948D01*
X99036711Y-51079833D01*
X99036712Y-51079837D01*
X99047416Y-51117166D01*
X99088614Y-51260843D01*
X99176060Y-51430993D01*
X99294889Y-51580918D01*
X99297179Y-51582867D01*
X99297180Y-51582868D01*
X99317310Y-51600000D01*
X99440575Y-51704907D01*
X99443201Y-51706375D01*
X99443203Y-51706376D01*
X99583554Y-51784815D01*
X99612727Y-51821755D01*
X99607236Y-51868503D01*
X99570296Y-51897676D01*
X99553551Y-51900000D01*
X97902137Y-51900000D01*
X97858650Y-51881987D01*
X97840637Y-51838500D01*
X97858650Y-51795013D01*
X97874408Y-51783606D01*
X97985228Y-51727627D01*
X98116804Y-51624829D01*
X98133605Y-51611703D01*
X98133606Y-51611702D01*
X98135979Y-51609848D01*
X98143862Y-51600716D01*
X98259015Y-51467309D01*
X98259016Y-51467308D01*
X98260982Y-51465030D01*
X98355476Y-51298691D01*
X98385668Y-51207929D01*
X98414911Y-51120023D01*
X98414912Y-51120019D01*
X98415861Y-51117166D01*
X98439838Y-50927369D01*
X98440220Y-50900000D01*
X98421552Y-50709608D01*
X98366259Y-50526467D01*
X98276446Y-50357555D01*
X98265319Y-50343911D01*
X98157437Y-50211635D01*
X98155535Y-50209303D01*
X98116786Y-50177247D01*
X98010446Y-50089275D01*
X98010444Y-50089274D01*
X98008132Y-50087361D01*
X98005488Y-50085932D01*
X98005486Y-50085930D01*
X97842495Y-49997800D01*
X97842490Y-49997798D01*
X97839851Y-49996371D01*
X97836985Y-49995484D01*
X97836983Y-49995483D01*
X97753816Y-49969739D01*
X97657101Y-49939801D01*
X97631803Y-49937142D01*
X97469830Y-49920118D01*
X97469831Y-49920118D01*
X97466843Y-49919804D01*
X97463854Y-49920076D01*
X97463853Y-49920076D01*
X97279322Y-49936869D01*
X97279319Y-49936869D01*
X97276325Y-49937142D01*
X97092803Y-49991156D01*
X97009783Y-50034558D01*
X96962900Y-50038743D01*
X96937804Y-50023544D01*
X95251409Y-48337149D01*
X95243761Y-48327830D01*
X95236514Y-48316984D01*
X95233149Y-48311948D01*
X95228113Y-48308583D01*
X95228112Y-48308582D01*
X95225237Y-48306661D01*
X95212638Y-48295466D01*
X95100889Y-48164625D01*
X95095217Y-48156818D01*
X94994133Y-47991865D01*
X94989751Y-47983266D01*
X94915714Y-47804524D01*
X94912732Y-47795346D01*
X94867567Y-47607222D01*
X94866058Y-47597690D01*
X94852559Y-47426162D01*
X94853550Y-47409340D01*
X94853835Y-47407909D01*
X94855408Y-47400001D01*
X94851682Y-47381267D01*
X94850500Y-47369271D01*
X94850500Y-46030730D01*
X94851682Y-46018732D01*
X94854226Y-46005942D01*
X94854226Y-46005941D01*
X94855408Y-46000000D01*
X94853414Y-45989974D01*
X94852389Y-45973590D01*
X94865444Y-45791062D01*
X94866692Y-45782376D01*
X94894119Y-45656294D01*
X94910288Y-45581966D01*
X94912760Y-45573551D01*
X94933337Y-45518384D01*
X94984427Y-45381406D01*
X94988071Y-45373426D01*
X95086357Y-45193430D01*
X95091101Y-45186048D01*
X95214002Y-45021871D01*
X95219748Y-45015240D01*
X95364760Y-44870228D01*
X95371391Y-44864482D01*
X95535568Y-44741581D01*
X95542950Y-44736837D01*
X95722946Y-44638551D01*
X95730926Y-44634907D01*
X95923075Y-44563239D01*
X95931486Y-44560768D01*
X96069565Y-44530731D01*
X96131896Y-44517172D01*
X96140582Y-44515924D01*
X96323110Y-44502869D01*
X96339494Y-44503894D01*
X96343576Y-44504706D01*
X96343578Y-44504706D01*
X96349520Y-44505888D01*
X96355462Y-44504706D01*
X96357740Y-44504253D01*
X96361857Y-44503434D01*
X96368252Y-44502162D01*
X96380250Y-44500980D01*
X96497093Y-44500980D01*
X96540580Y-44518993D01*
G37*
%TD.AperFunction*%
%TA.AperFunction,Conductor*%
G36*
X96505259Y-38818013D02*
G01*
X96523272Y-38861500D01*
X96505259Y-38904987D01*
X96488973Y-38916658D01*
X96411530Y-38954848D01*
X96411526Y-38954851D01*
X96409726Y-38955738D01*
X96178111Y-39110498D01*
X96176602Y-39111822D01*
X96176596Y-39111826D01*
X96019609Y-39249500D01*
X95968677Y-39294166D01*
X95967351Y-39295678D01*
X95786337Y-39502085D01*
X95786333Y-39502091D01*
X95785009Y-39503600D01*
X95630249Y-39735215D01*
X95629362Y-39737015D01*
X95629359Y-39737019D01*
X95507934Y-39983245D01*
X95507931Y-39983253D01*
X95507045Y-39985049D01*
X95417504Y-40248826D01*
X95363159Y-40522035D01*
X95345111Y-40797391D01*
X95344592Y-40800000D01*
X95345774Y-40805942D01*
X95348318Y-40818732D01*
X95349500Y-40830730D01*
X95349500Y-41299508D01*
X95331487Y-41342995D01*
X95325439Y-41348299D01*
X95228587Y-41422617D01*
X95225209Y-41425209D01*
X95222755Y-41428407D01*
X95193455Y-41466592D01*
X95140976Y-41534983D01*
X95139435Y-41538703D01*
X95139434Y-41538705D01*
X95129097Y-41563662D01*
X95088026Y-41662817D01*
X95069965Y-41800000D01*
X95088026Y-41937183D01*
X95089569Y-41940908D01*
X95123995Y-42024020D01*
X95140976Y-42065017D01*
X95143430Y-42068215D01*
X95214783Y-42161203D01*
X95225209Y-42174791D01*
X95334982Y-42259024D01*
X95338702Y-42260565D01*
X95338704Y-42260566D01*
X95398455Y-42285315D01*
X95462817Y-42311974D01*
X95600000Y-42330035D01*
X95737183Y-42311974D01*
X95801545Y-42285315D01*
X95861296Y-42260566D01*
X95861298Y-42260565D01*
X95865018Y-42259024D01*
X95974791Y-42174791D01*
X95985218Y-42161203D01*
X96056570Y-42068215D01*
X96059024Y-42065017D01*
X96076006Y-42024020D01*
X96110431Y-41940908D01*
X96111974Y-41937183D01*
X96130035Y-41800000D01*
X96111974Y-41662817D01*
X96070903Y-41563662D01*
X96060566Y-41538705D01*
X96060565Y-41538703D01*
X96059024Y-41534983D01*
X96006545Y-41466592D01*
X95977245Y-41428407D01*
X95974791Y-41425209D01*
X95969408Y-41421078D01*
X95874561Y-41348299D01*
X95851026Y-41307535D01*
X95850500Y-41299508D01*
X95850500Y-41069964D01*
X96939929Y-41069964D01*
X96957990Y-41207147D01*
X96959533Y-41210872D01*
X97006707Y-41324761D01*
X97010940Y-41334981D01*
X97095173Y-41444755D01*
X97204946Y-41528988D01*
X97208666Y-41530529D01*
X97208668Y-41530530D01*
X97288658Y-41563662D01*
X97321942Y-41596946D01*
X97368786Y-41710037D01*
X97370044Y-41712089D01*
X97370045Y-41712092D01*
X97398213Y-41758058D01*
X97484381Y-41898672D01*
X97628063Y-42066901D01*
X97796292Y-42210583D01*
X97984927Y-42326178D01*
X97992969Y-42329509D01*
X98187096Y-42409920D01*
X98187101Y-42409922D01*
X98189323Y-42410842D01*
X98191664Y-42411404D01*
X98191667Y-42411405D01*
X98402092Y-42461923D01*
X98402094Y-42461923D01*
X98404446Y-42462488D01*
X98616709Y-42479193D01*
X98616945Y-42479226D01*
X98617123Y-42479226D01*
X98620325Y-42479478D01*
X98625000Y-42480408D01*
X98630942Y-42479226D01*
X98643732Y-42476682D01*
X98655730Y-42475500D01*
X98750219Y-42475500D01*
X98793706Y-42493513D01*
X98805957Y-42511009D01*
X98817608Y-42535994D01*
X98854253Y-42614579D01*
X98935421Y-42695747D01*
X99039455Y-42744259D01*
X99044117Y-42744873D01*
X99044118Y-42744873D01*
X99051616Y-42745860D01*
X99086861Y-42750500D01*
X99399922Y-42750500D01*
X99713138Y-42750499D01*
X99715128Y-42750237D01*
X99715129Y-42750237D01*
X99755881Y-42744873D01*
X99755882Y-42744873D01*
X99760545Y-42744259D01*
X99864579Y-42695747D01*
X99945747Y-42614579D01*
X99994259Y-42510545D01*
X100000500Y-42463139D01*
X100000499Y-41986862D01*
X99994259Y-41939455D01*
X99945747Y-41835421D01*
X99864579Y-41754253D01*
X99760545Y-41705741D01*
X99755883Y-41705127D01*
X99755882Y-41705127D01*
X99737981Y-41702770D01*
X99713139Y-41699500D01*
X99400078Y-41699500D01*
X99086862Y-41699501D01*
X99084872Y-41699763D01*
X99084871Y-41699763D01*
X99044119Y-41705127D01*
X99044118Y-41705127D01*
X99039455Y-41705741D01*
X98935421Y-41754253D01*
X98854253Y-41835421D01*
X98851979Y-41840298D01*
X98805957Y-41938991D01*
X98771253Y-41970791D01*
X98750219Y-41974500D01*
X98655730Y-41974500D01*
X98643732Y-41973318D01*
X98632556Y-41971095D01*
X98625000Y-41969592D01*
X98617444Y-41971095D01*
X98599419Y-41971981D01*
X98454557Y-41957713D01*
X98442744Y-41955364D01*
X98284643Y-41907405D01*
X98273506Y-41902791D01*
X98147466Y-41835421D01*
X98127806Y-41824912D01*
X98117783Y-41818215D01*
X98050168Y-41762725D01*
X97990075Y-41713408D01*
X97981556Y-41704889D01*
X97876748Y-41577180D01*
X97870051Y-41567157D01*
X97839794Y-41510551D01*
X97835180Y-41463708D01*
X97845241Y-41444121D01*
X97847209Y-41441557D01*
X97928988Y-41334981D01*
X97933222Y-41324761D01*
X97980395Y-41210872D01*
X97981938Y-41207147D01*
X97999999Y-41069964D01*
X97981938Y-40932781D01*
X97964844Y-40891511D01*
X97930530Y-40808669D01*
X97930529Y-40808667D01*
X97928988Y-40804947D01*
X97844755Y-40695173D01*
X97734982Y-40610940D01*
X97731262Y-40609399D01*
X97731260Y-40609398D01*
X97610872Y-40559533D01*
X97610873Y-40559533D01*
X97607147Y-40557990D01*
X97469964Y-40539929D01*
X97332781Y-40557990D01*
X97329056Y-40559533D01*
X97208669Y-40609398D01*
X97208667Y-40609399D01*
X97204947Y-40610940D01*
X97095173Y-40695173D01*
X97010940Y-40804947D01*
X97009399Y-40808667D01*
X97009398Y-40808669D01*
X96975084Y-40891511D01*
X96957990Y-40932781D01*
X96939929Y-41069964D01*
X95850500Y-41069964D01*
X95850500Y-40830730D01*
X95851682Y-40818732D01*
X95854226Y-40805942D01*
X95855408Y-40800000D01*
X95854022Y-40793028D01*
X95853414Y-40789974D01*
X95852389Y-40773590D01*
X95866716Y-40573273D01*
X95867964Y-40564587D01*
X95915350Y-40346756D01*
X95917823Y-40338337D01*
X95919116Y-40334872D01*
X95995722Y-40129483D01*
X95999366Y-40121503D01*
X96029131Y-40066994D01*
X96074861Y-39983245D01*
X96106199Y-39925855D01*
X96110943Y-39918473D01*
X96244531Y-39740020D01*
X96250277Y-39733389D01*
X96407900Y-39575766D01*
X96414531Y-39570020D01*
X96592984Y-39436432D01*
X96600366Y-39431688D01*
X96796014Y-39324855D01*
X96803994Y-39321211D01*
X97012852Y-39243311D01*
X97021263Y-39240840D01*
X97130182Y-39217146D01*
X97239098Y-39193453D01*
X97247784Y-39192205D01*
X97448101Y-39177878D01*
X97464485Y-39178903D01*
X97468567Y-39179715D01*
X97468569Y-39179715D01*
X97474511Y-39180897D01*
X97480453Y-39179715D01*
X97493243Y-39177171D01*
X97505241Y-39175989D01*
X100104697Y-39175989D01*
X100148184Y-39194002D01*
X100166197Y-39237489D01*
X100148184Y-39280976D01*
X100119054Y-39297290D01*
X100066475Y-39309913D01*
X100066472Y-39309914D01*
X100064131Y-39310476D01*
X100061909Y-39311396D01*
X100061904Y-39311398D01*
X99933196Y-39364711D01*
X99871375Y-39390318D01*
X99693481Y-39499331D01*
X99534831Y-39634831D01*
X99399331Y-39793481D01*
X99353532Y-39868219D01*
X99318213Y-39925855D01*
X99290318Y-39971375D01*
X99285402Y-39983245D01*
X99273683Y-40011536D01*
X99240399Y-40044819D01*
X99216864Y-40049501D01*
X99086862Y-40049501D01*
X99084872Y-40049763D01*
X99084871Y-40049763D01*
X99044119Y-40055127D01*
X99044118Y-40055127D01*
X99039455Y-40055741D01*
X98935421Y-40104253D01*
X98854253Y-40185421D01*
X98805741Y-40289455D01*
X98799500Y-40336861D01*
X98799501Y-40813138D01*
X98799763Y-40815128D01*
X98799763Y-40815129D01*
X98801817Y-40830730D01*
X98805741Y-40860545D01*
X98854253Y-40964579D01*
X98935421Y-41045747D01*
X99039455Y-41094259D01*
X99044117Y-41094873D01*
X99044118Y-41094873D01*
X99062019Y-41097230D01*
X99086861Y-41100500D01*
X99399922Y-41100500D01*
X99713138Y-41100499D01*
X99715128Y-41100237D01*
X99715129Y-41100237D01*
X99755881Y-41094873D01*
X99755882Y-41094873D01*
X99760545Y-41094259D01*
X99864579Y-41045747D01*
X99945747Y-40964579D01*
X99994259Y-40860545D01*
X100000500Y-40813139D01*
X100000499Y-40336862D01*
X99994259Y-40289455D01*
X99945747Y-40185421D01*
X99868446Y-40108120D01*
X99850433Y-40064633D01*
X99864392Y-40025619D01*
X99875949Y-40011536D01*
X99888150Y-39996669D01*
X99896669Y-39988150D01*
X100012251Y-39893295D01*
X100022273Y-39886598D01*
X100044140Y-39874910D01*
X100154137Y-39816116D01*
X100165272Y-39811503D01*
X100189987Y-39804006D01*
X100241222Y-39788464D01*
X100308353Y-39768100D01*
X100320175Y-39765748D01*
X100449419Y-39753019D01*
X100467444Y-39753905D01*
X100475000Y-39755408D01*
X100480942Y-39754226D01*
X100493732Y-39751682D01*
X100505730Y-39750500D01*
X103521891Y-39750500D01*
X103565378Y-39768513D01*
X103578709Y-39788464D01*
X103580599Y-39793026D01*
X103581781Y-39798968D01*
X103585147Y-39804005D01*
X103585147Y-39804006D01*
X103600000Y-39826235D01*
X103609519Y-39840481D01*
X103651032Y-39868219D01*
X103687637Y-39875500D01*
X103690662Y-39875500D01*
X104125434Y-39875499D01*
X104562362Y-39875499D01*
X104598968Y-39868219D01*
X104640481Y-39840481D01*
X104650000Y-39826235D01*
X104664853Y-39804006D01*
X104664853Y-39804005D01*
X104668219Y-39798968D01*
X104675500Y-39762363D01*
X104675500Y-39499331D01*
X104675499Y-39237638D01*
X104677602Y-39237638D01*
X104689360Y-39198577D01*
X104730824Y-39176298D01*
X104736984Y-39175989D01*
X105263015Y-39175989D01*
X105306502Y-39194002D01*
X105324515Y-39237489D01*
X105324510Y-39237586D01*
X105324500Y-39237637D01*
X105324501Y-39762362D01*
X105331781Y-39798968D01*
X105335147Y-39804005D01*
X105335147Y-39804006D01*
X105350000Y-39826235D01*
X105359519Y-39840481D01*
X105401032Y-39868219D01*
X105437637Y-39875500D01*
X105440662Y-39875500D01*
X105875434Y-39875499D01*
X106312362Y-39875499D01*
X106315320Y-39874911D01*
X106315327Y-39874910D01*
X106326506Y-39872687D01*
X106372671Y-39881873D01*
X106398819Y-39921012D01*
X106400000Y-39933006D01*
X106400000Y-40066994D01*
X106381987Y-40110481D01*
X106338500Y-40128494D01*
X106326507Y-40127313D01*
X106312363Y-40124500D01*
X106309338Y-40124500D01*
X105874566Y-40124501D01*
X105437638Y-40124501D01*
X105401032Y-40131781D01*
X105359519Y-40159519D01*
X105331781Y-40201032D01*
X105324500Y-40237637D01*
X105324501Y-40762362D01*
X105331781Y-40798968D01*
X105335147Y-40804005D01*
X105335147Y-40804006D01*
X105341249Y-40813138D01*
X105359519Y-40840481D01*
X105377317Y-40852373D01*
X105403467Y-40891511D01*
X105394284Y-40937676D01*
X105375870Y-40955580D01*
X105319558Y-40990963D01*
X105307155Y-40996937D01*
X105209788Y-41031007D01*
X105204187Y-41032967D01*
X105190760Y-41036031D01*
X105100734Y-41046174D01*
X105081855Y-41045380D01*
X105075480Y-41044112D01*
X105065114Y-41046174D01*
X105056748Y-41047838D01*
X105044750Y-41049020D01*
X103202907Y-41049020D01*
X103159420Y-41031007D01*
X103141407Y-40987520D01*
X103147169Y-40961529D01*
X103155289Y-40944117D01*
X103184314Y-40881873D01*
X103194043Y-40861009D01*
X103228747Y-40829209D01*
X103249781Y-40825500D01*
X103570736Y-40825500D01*
X103608952Y-40841330D01*
X103609519Y-40840481D01*
X103614558Y-40843848D01*
X103627317Y-40852373D01*
X103651032Y-40868219D01*
X103687637Y-40875500D01*
X103690662Y-40875500D01*
X104125434Y-40875499D01*
X104562362Y-40875499D01*
X104598968Y-40868219D01*
X104622684Y-40852373D01*
X104635442Y-40843848D01*
X104640481Y-40840481D01*
X104658751Y-40813138D01*
X104664853Y-40804006D01*
X104664853Y-40804005D01*
X104668219Y-40798968D01*
X104675500Y-40762363D01*
X104675499Y-40237638D01*
X104668219Y-40201032D01*
X104640481Y-40159519D01*
X104598968Y-40131781D01*
X104562363Y-40124500D01*
X104559338Y-40124500D01*
X104124566Y-40124501D01*
X103687638Y-40124501D01*
X103651032Y-40131781D01*
X103609519Y-40159519D01*
X103581781Y-40201032D01*
X103574500Y-40237637D01*
X103574500Y-40263000D01*
X103556487Y-40306487D01*
X103513000Y-40324500D01*
X103249781Y-40324500D01*
X103206294Y-40306487D01*
X103194043Y-40288991D01*
X103155796Y-40206972D01*
X103145747Y-40185421D01*
X103064579Y-40104253D01*
X102960545Y-40055741D01*
X102955883Y-40055127D01*
X102955882Y-40055127D01*
X102937981Y-40052770D01*
X102913139Y-40049500D01*
X102600078Y-40049500D01*
X102286862Y-40049501D01*
X102284872Y-40049763D01*
X102284871Y-40049763D01*
X102244119Y-40055127D01*
X102244118Y-40055127D01*
X102239455Y-40055741D01*
X102135421Y-40104253D01*
X102054253Y-40185421D01*
X102005741Y-40289455D01*
X101999500Y-40336861D01*
X101999501Y-40813138D01*
X101999763Y-40815128D01*
X101999763Y-40815129D01*
X102001817Y-40830730D01*
X102005741Y-40860545D01*
X102044712Y-40944117D01*
X102052831Y-40961529D01*
X102054884Y-41008554D01*
X102023084Y-41043258D01*
X101997093Y-41049020D01*
X101755250Y-41049020D01*
X101743252Y-41047838D01*
X101734886Y-41046174D01*
X101724520Y-41044112D01*
X101718577Y-41045294D01*
X101713223Y-41045294D01*
X101699609Y-41045740D01*
X101609864Y-41033925D01*
X101594357Y-41029770D01*
X101587493Y-41026927D01*
X101554209Y-40993644D01*
X101555289Y-40944117D01*
X101590130Y-40869400D01*
X101594259Y-40860545D01*
X101600500Y-40813139D01*
X101600499Y-40336862D01*
X101594259Y-40289455D01*
X101545747Y-40185421D01*
X101464579Y-40104253D01*
X101360545Y-40055741D01*
X101355883Y-40055127D01*
X101355882Y-40055127D01*
X101337981Y-40052770D01*
X101313139Y-40049500D01*
X101000078Y-40049500D01*
X100686862Y-40049501D01*
X100684872Y-40049763D01*
X100684871Y-40049763D01*
X100644119Y-40055127D01*
X100644118Y-40055127D01*
X100639455Y-40055741D01*
X100535421Y-40104253D01*
X100454253Y-40185421D01*
X100405741Y-40289455D01*
X100399500Y-40336861D01*
X100399501Y-40813138D01*
X100399763Y-40815128D01*
X100399763Y-40815129D01*
X100401817Y-40830730D01*
X100405741Y-40860545D01*
X100454253Y-40964579D01*
X100535421Y-41045747D01*
X100639455Y-41094259D01*
X100644117Y-41094873D01*
X100644118Y-41094873D01*
X100662019Y-41097230D01*
X100686861Y-41100500D01*
X100870185Y-41100500D01*
X100913672Y-41118513D01*
X100920563Y-41126725D01*
X100974759Y-41204125D01*
X101095395Y-41324761D01*
X101235148Y-41422617D01*
X101389770Y-41494719D01*
X101448856Y-41510551D01*
X101551968Y-41538180D01*
X101551972Y-41538181D01*
X101554563Y-41538875D01*
X101557236Y-41539109D01*
X101557237Y-41539109D01*
X101586880Y-41541702D01*
X101710553Y-41552522D01*
X101717191Y-41553470D01*
X101718578Y-41553746D01*
X101718579Y-41553746D01*
X101724520Y-41554928D01*
X101730462Y-41553746D01*
X101743252Y-41551202D01*
X101755250Y-41550020D01*
X103979144Y-41550020D01*
X104022631Y-41568033D01*
X104040644Y-41611520D01*
X104025661Y-41647691D01*
X104027665Y-41649229D01*
X103943432Y-41759003D01*
X103941891Y-41762723D01*
X103941890Y-41762725D01*
X103924796Y-41803995D01*
X103890482Y-41886837D01*
X103889956Y-41890834D01*
X103885981Y-41921027D01*
X103862446Y-41961791D01*
X103825007Y-41974500D01*
X103249781Y-41974500D01*
X103206294Y-41956487D01*
X103194043Y-41938991D01*
X103148021Y-41840298D01*
X103145747Y-41835421D01*
X103064579Y-41754253D01*
X102960545Y-41705741D01*
X102955883Y-41705127D01*
X102955882Y-41705127D01*
X102937981Y-41702770D01*
X102913139Y-41699500D01*
X102600078Y-41699500D01*
X102286862Y-41699501D01*
X102284872Y-41699763D01*
X102284871Y-41699763D01*
X102244119Y-41705127D01*
X102244118Y-41705127D01*
X102239455Y-41705741D01*
X102135421Y-41754253D01*
X102054253Y-41835421D01*
X102005741Y-41939455D01*
X101999500Y-41986861D01*
X101999501Y-42463138D01*
X101999763Y-42465128D01*
X101999763Y-42465129D01*
X102002156Y-42483305D01*
X102005741Y-42510545D01*
X102054253Y-42614579D01*
X102084187Y-42644513D01*
X102102200Y-42688000D01*
X102084187Y-42731487D01*
X102040700Y-42749500D01*
X101805730Y-42749500D01*
X101793732Y-42748318D01*
X101785366Y-42746654D01*
X101775000Y-42744592D01*
X101768625Y-42745860D01*
X101749746Y-42746654D01*
X101665177Y-42737126D01*
X101651750Y-42734062D01*
X101575129Y-42707251D01*
X101540031Y-42675886D01*
X101537392Y-42628890D01*
X101543658Y-42616668D01*
X101545747Y-42614579D01*
X101594259Y-42510545D01*
X101600500Y-42463139D01*
X101600499Y-41986862D01*
X101594259Y-41939455D01*
X101545747Y-41835421D01*
X101464579Y-41754253D01*
X101360545Y-41705741D01*
X101355883Y-41705127D01*
X101355882Y-41705127D01*
X101337981Y-41702770D01*
X101313139Y-41699500D01*
X101000078Y-41699500D01*
X100686862Y-41699501D01*
X100684872Y-41699763D01*
X100684871Y-41699763D01*
X100644119Y-41705127D01*
X100644118Y-41705127D01*
X100639455Y-41705741D01*
X100535421Y-41754253D01*
X100454253Y-41835421D01*
X100405741Y-41939455D01*
X100399500Y-41986861D01*
X100399501Y-42463138D01*
X100399763Y-42465128D01*
X100399763Y-42465129D01*
X100402156Y-42483305D01*
X100405741Y-42510545D01*
X100454253Y-42614579D01*
X100535421Y-42695747D01*
X100639455Y-42744259D01*
X100644117Y-42744873D01*
X100644118Y-42744873D01*
X100651616Y-42745860D01*
X100686861Y-42750500D01*
X100859039Y-42750500D01*
X100902526Y-42768513D01*
X100909416Y-42776724D01*
X100986420Y-42886697D01*
X101113303Y-43013580D01*
X101260291Y-43116502D01*
X101262718Y-43117634D01*
X101262722Y-43117636D01*
X101312630Y-43140908D01*
X101422919Y-43192336D01*
X101509581Y-43215557D01*
X101593649Y-43238083D01*
X101593653Y-43238084D01*
X101596244Y-43238778D01*
X101598917Y-43239012D01*
X101598918Y-43239012D01*
X101762766Y-43253347D01*
X101768925Y-43254226D01*
X101769057Y-43254226D01*
X101775000Y-43255408D01*
X101780942Y-43254226D01*
X101793732Y-43251682D01*
X101805730Y-43250500D01*
X103099508Y-43250500D01*
X103142995Y-43268513D01*
X103148299Y-43274561D01*
X103225209Y-43374791D01*
X103334982Y-43459024D01*
X103338702Y-43460565D01*
X103338704Y-43460566D01*
X103434577Y-43500277D01*
X103462817Y-43511974D01*
X103600000Y-43530035D01*
X103737183Y-43511974D01*
X103765423Y-43500277D01*
X103861296Y-43460566D01*
X103861298Y-43460565D01*
X103865018Y-43459024D01*
X103974791Y-43374791D01*
X104059024Y-43265017D01*
X104064548Y-43251682D01*
X104110431Y-43140908D01*
X104111974Y-43137183D01*
X104130035Y-43000000D01*
X104111974Y-42862817D01*
X104076314Y-42776725D01*
X104060566Y-42738705D01*
X104060565Y-42738703D01*
X104059024Y-42734983D01*
X103974791Y-42625209D01*
X103923421Y-42585791D01*
X103899886Y-42545027D01*
X103912069Y-42499561D01*
X103952833Y-42476026D01*
X103960860Y-42475500D01*
X104108945Y-42475500D01*
X104137404Y-42483127D01*
X104137438Y-42483044D01*
X104141158Y-42484585D01*
X104141160Y-42484586D01*
X104237033Y-42524297D01*
X104265273Y-42535994D01*
X104402456Y-42554055D01*
X104539639Y-42535994D01*
X104567879Y-42524297D01*
X104663752Y-42484586D01*
X104663754Y-42484585D01*
X104667474Y-42483044D01*
X104777247Y-42398811D01*
X104861480Y-42289037D01*
X104914430Y-42161203D01*
X104932491Y-42024020D01*
X104914430Y-41886837D01*
X104880116Y-41803995D01*
X104863022Y-41762725D01*
X104863021Y-41762723D01*
X104861480Y-41759003D01*
X104777247Y-41649229D01*
X104779251Y-41647691D01*
X104764268Y-41611520D01*
X104782281Y-41568033D01*
X104825768Y-41550020D01*
X105044750Y-41550020D01*
X105056749Y-41551202D01*
X105075480Y-41554928D01*
X105081418Y-41553747D01*
X105081886Y-41553747D01*
X105086874Y-41553034D01*
X105250659Y-41538705D01*
X105255837Y-41538252D01*
X105255838Y-41538252D01*
X105258511Y-41538018D01*
X105261102Y-41537324D01*
X105261106Y-41537323D01*
X105347245Y-41514242D01*
X105435980Y-41490465D01*
X105438412Y-41489331D01*
X105600065Y-41413952D01*
X105600069Y-41413950D01*
X105602496Y-41412818D01*
X105604690Y-41411282D01*
X105604693Y-41411280D01*
X105702213Y-41342995D01*
X105752998Y-41307435D01*
X105882915Y-41177518D01*
X105955428Y-41073959D01*
X105986760Y-41029213D01*
X105986762Y-41029210D01*
X105988298Y-41027016D01*
X106002324Y-40996938D01*
X106042393Y-40911008D01*
X106077097Y-40879208D01*
X106098131Y-40875499D01*
X106312362Y-40875499D01*
X106315320Y-40874911D01*
X106315327Y-40874910D01*
X106326506Y-40872687D01*
X106372671Y-40881873D01*
X106398819Y-40921012D01*
X106400000Y-40933006D01*
X106400000Y-51570295D01*
X106398436Y-51584077D01*
X106394857Y-51599642D01*
X106396386Y-51606398D01*
X106396374Y-51613322D01*
X106395691Y-51613321D01*
X106396068Y-51624829D01*
X106386841Y-51683084D01*
X106380895Y-51701384D01*
X106347126Y-51767658D01*
X106335816Y-51783224D01*
X106283224Y-51835816D01*
X106267658Y-51847126D01*
X106203131Y-51880005D01*
X106201384Y-51880895D01*
X106183085Y-51886841D01*
X106125237Y-51896003D01*
X106114034Y-51895617D01*
X106114033Y-51896421D01*
X106107106Y-51896409D01*
X106100358Y-51894857D01*
X106093605Y-51896385D01*
X106084329Y-51898484D01*
X106070756Y-51900000D01*
X105522137Y-51900000D01*
X105478650Y-51881987D01*
X105460637Y-51838500D01*
X105478650Y-51795013D01*
X105494408Y-51783606D01*
X105605228Y-51727627D01*
X105736804Y-51624829D01*
X105753605Y-51611703D01*
X105753606Y-51611702D01*
X105755979Y-51609848D01*
X105763862Y-51600716D01*
X105879015Y-51467309D01*
X105879016Y-51467308D01*
X105880982Y-51465030D01*
X105975476Y-51298691D01*
X106005668Y-51207929D01*
X106034911Y-51120023D01*
X106034912Y-51120019D01*
X106035861Y-51117166D01*
X106059838Y-50927369D01*
X106060220Y-50900000D01*
X106041552Y-50709608D01*
X105986259Y-50526467D01*
X105896446Y-50357555D01*
X105885319Y-50343911D01*
X105777438Y-50211636D01*
X105777437Y-50211635D01*
X105775535Y-50209303D01*
X105772800Y-50207041D01*
X105772716Y-50206881D01*
X105771099Y-50205253D01*
X105771594Y-50204762D01*
X105750773Y-50165444D01*
X105750500Y-50159653D01*
X105750500Y-44530729D01*
X105751682Y-44518731D01*
X105754226Y-44505941D01*
X105755408Y-44499999D01*
X105754226Y-44494058D01*
X105754226Y-44494054D01*
X105753468Y-44490243D01*
X105752582Y-44484273D01*
X105739936Y-44355879D01*
X105739936Y-44355877D01*
X105739640Y-44352876D01*
X105713631Y-44267134D01*
X105697602Y-44214292D01*
X105697600Y-44214287D01*
X105696726Y-44211406D01*
X105627037Y-44081027D01*
X105570966Y-44012704D01*
X105535169Y-43969086D01*
X105533251Y-43966749D01*
X105418973Y-43872963D01*
X105288594Y-43803274D01*
X105285713Y-43802400D01*
X105285708Y-43802398D01*
X105150012Y-43761236D01*
X105150011Y-43761236D01*
X105147124Y-43760360D01*
X105144123Y-43760064D01*
X105144121Y-43760064D01*
X105015727Y-43747418D01*
X105009757Y-43746532D01*
X105005946Y-43745774D01*
X105005942Y-43745774D01*
X105000001Y-43744592D01*
X104994059Y-43745774D01*
X104981269Y-43748318D01*
X104969271Y-43749500D01*
X104750492Y-43749500D01*
X104707005Y-43731487D01*
X104701701Y-43725439D01*
X104627245Y-43628407D01*
X104624791Y-43625209D01*
X104515018Y-43540976D01*
X104511298Y-43539435D01*
X104511296Y-43539434D01*
X104390908Y-43489569D01*
X104390909Y-43489569D01*
X104387183Y-43488026D01*
X104250000Y-43469965D01*
X104112817Y-43488026D01*
X104109092Y-43489569D01*
X103988705Y-43539434D01*
X103988703Y-43539435D01*
X103984983Y-43540976D01*
X103875209Y-43625209D01*
X103790976Y-43734983D01*
X103789435Y-43738703D01*
X103789434Y-43738705D01*
X103780102Y-43761236D01*
X103738026Y-43862817D01*
X103719965Y-44000000D01*
X103738026Y-44137183D01*
X103739569Y-44140908D01*
X103786507Y-44254227D01*
X103790976Y-44265017D01*
X103875209Y-44374791D01*
X103984982Y-44459024D01*
X103988702Y-44460565D01*
X103988704Y-44460566D01*
X104054940Y-44488001D01*
X104112817Y-44511974D01*
X104250000Y-44530035D01*
X104387183Y-44511974D01*
X104445060Y-44488001D01*
X104511296Y-44460566D01*
X104511298Y-44460565D01*
X104515018Y-44459024D01*
X104624791Y-44374791D01*
X104678314Y-44305039D01*
X104701701Y-44274561D01*
X104742465Y-44251026D01*
X104750492Y-44250500D01*
X104969269Y-44250500D01*
X104981268Y-44251682D01*
X104999999Y-44255408D01*
X105005939Y-44254227D01*
X105011999Y-44254227D01*
X105011999Y-44254641D01*
X105024582Y-44254394D01*
X105067481Y-44261189D01*
X105085775Y-44267133D01*
X105137976Y-44293730D01*
X105153540Y-44305039D01*
X105194961Y-44346460D01*
X105206270Y-44362024D01*
X105232867Y-44414225D01*
X105238811Y-44432519D01*
X105243254Y-44460566D01*
X105245606Y-44475417D01*
X105245359Y-44488001D01*
X105245773Y-44488001D01*
X105245773Y-44494061D01*
X105244592Y-44500001D01*
X105245774Y-44505941D01*
X105245774Y-44505942D01*
X105248318Y-44518733D01*
X105249500Y-44530731D01*
X105249500Y-49868597D01*
X105231487Y-49912084D01*
X105188000Y-49930097D01*
X105181572Y-49929760D01*
X105089831Y-49920118D01*
X105089830Y-49920118D01*
X105086843Y-49919804D01*
X105083854Y-49920076D01*
X105083853Y-49920076D01*
X104899322Y-49936869D01*
X104899319Y-49936869D01*
X104896325Y-49937142D01*
X104712803Y-49991156D01*
X104710133Y-49992552D01*
X104545935Y-50078392D01*
X104545930Y-50078396D01*
X104543268Y-50079787D01*
X104540924Y-50081672D01*
X104540922Y-50081673D01*
X104436732Y-50165444D01*
X104394176Y-50199660D01*
X104392246Y-50201960D01*
X104384128Y-50211635D01*
X104271207Y-50346208D01*
X104269762Y-50348837D01*
X104269761Y-50348838D01*
X104258071Y-50370102D01*
X104179045Y-50513850D01*
X104178137Y-50516713D01*
X104137125Y-50646000D01*
X104121200Y-50696201D01*
X104099876Y-50886314D01*
X104115884Y-51076948D01*
X104116711Y-51079833D01*
X104116712Y-51079837D01*
X104127416Y-51117166D01*
X104168614Y-51260843D01*
X104256060Y-51430993D01*
X104374889Y-51580918D01*
X104377179Y-51582867D01*
X104377180Y-51582868D01*
X104397310Y-51600000D01*
X104520575Y-51704907D01*
X104523201Y-51706375D01*
X104523203Y-51706376D01*
X104663554Y-51784815D01*
X104692727Y-51821755D01*
X104687236Y-51868503D01*
X104650296Y-51897676D01*
X104633551Y-51900000D01*
X102982137Y-51900000D01*
X102938650Y-51881987D01*
X102920637Y-51838500D01*
X102938650Y-51795013D01*
X102954408Y-51783606D01*
X103065228Y-51727627D01*
X103196804Y-51624829D01*
X103213605Y-51611703D01*
X103213606Y-51611702D01*
X103215979Y-51609848D01*
X103223862Y-51600716D01*
X103339015Y-51467309D01*
X103339016Y-51467308D01*
X103340982Y-51465030D01*
X103435476Y-51298691D01*
X103465668Y-51207929D01*
X103494911Y-51120023D01*
X103494912Y-51120019D01*
X103495861Y-51117166D01*
X103519838Y-50927369D01*
X103520220Y-50900000D01*
X103501552Y-50709608D01*
X103446259Y-50526467D01*
X103363117Y-50370101D01*
X103358605Y-50323249D01*
X103366901Y-50306154D01*
X103426210Y-50220734D01*
X103514197Y-50094009D01*
X103729904Y-49730455D01*
X103752923Y-49684470D01*
X103876790Y-49437013D01*
X103919125Y-49352438D01*
X103919542Y-49351432D01*
X104080479Y-48962896D01*
X104080482Y-48962887D01*
X104080897Y-48961886D01*
X104081238Y-48960861D01*
X104081243Y-48960848D01*
X104214052Y-48561824D01*
X104214056Y-48561812D01*
X104214396Y-48560789D01*
X104221755Y-48531959D01*
X104318667Y-48152259D01*
X104318668Y-48152256D01*
X104318940Y-48151189D01*
X104393997Y-47735176D01*
X104404781Y-47634875D01*
X104426366Y-47434098D01*
X104439185Y-47314867D01*
X104453849Y-46904300D01*
X104454227Y-46901056D01*
X104454227Y-46898346D01*
X104455408Y-46892406D01*
X104451682Y-46873674D01*
X104450500Y-46861676D01*
X104450500Y-46500492D01*
X104468513Y-46457005D01*
X104474561Y-46451701D01*
X104482557Y-46445566D01*
X104574791Y-46374791D01*
X104659024Y-46265017D01*
X104661507Y-46259024D01*
X104710431Y-46140908D01*
X104711974Y-46137183D01*
X104730035Y-46000000D01*
X104711974Y-45862817D01*
X104695615Y-45823323D01*
X104660566Y-45738705D01*
X104660565Y-45738703D01*
X104659024Y-45734983D01*
X104603649Y-45662817D01*
X104577245Y-45628407D01*
X104574791Y-45625209D01*
X104465018Y-45540976D01*
X104461298Y-45539435D01*
X104461296Y-45539434D01*
X104340908Y-45489569D01*
X104340909Y-45489569D01*
X104337183Y-45488026D01*
X104200000Y-45469965D01*
X104062817Y-45488026D01*
X104059092Y-45489569D01*
X103938705Y-45539434D01*
X103938703Y-45539435D01*
X103934983Y-45540976D01*
X103825209Y-45625209D01*
X103822755Y-45628407D01*
X103796351Y-45662817D01*
X103740976Y-45734983D01*
X103739435Y-45738703D01*
X103739434Y-45738705D01*
X103704385Y-45823323D01*
X103688026Y-45862817D01*
X103669965Y-46000000D01*
X103688026Y-46137183D01*
X103689569Y-46140908D01*
X103738494Y-46259024D01*
X103740976Y-46265017D01*
X103825209Y-46374791D01*
X103917444Y-46445566D01*
X103925439Y-46451701D01*
X103948974Y-46492465D01*
X103949500Y-46500492D01*
X103949500Y-46861676D01*
X103948318Y-46873674D01*
X103944592Y-46892406D01*
X103945773Y-46898344D01*
X103945773Y-46898347D01*
X103947270Y-46905873D01*
X103948404Y-46920283D01*
X103932896Y-47315012D01*
X103932517Y-47319822D01*
X103891977Y-47662342D01*
X103883089Y-47737435D01*
X103882333Y-47742204D01*
X103800297Y-48154626D01*
X103799170Y-48159322D01*
X103685024Y-48564054D01*
X103683532Y-48568646D01*
X103537985Y-48963168D01*
X103536137Y-48967630D01*
X103360083Y-49349521D01*
X103357891Y-49353823D01*
X103152416Y-49720726D01*
X103149892Y-49724844D01*
X102985623Y-49970690D01*
X102946486Y-49996840D01*
X102916302Y-49995272D01*
X102833816Y-49969739D01*
X102737101Y-49939801D01*
X102711803Y-49937142D01*
X102549830Y-49920118D01*
X102549831Y-49920118D01*
X102546843Y-49919804D01*
X102543854Y-49920076D01*
X102543853Y-49920076D01*
X102359322Y-49936869D01*
X102359319Y-49936869D01*
X102356325Y-49937142D01*
X102172803Y-49991156D01*
X102170133Y-49992552D01*
X102005935Y-50078392D01*
X102005930Y-50078396D01*
X102003268Y-50079787D01*
X102000924Y-50081672D01*
X102000922Y-50081673D01*
X101896732Y-50165444D01*
X101854176Y-50199660D01*
X101852246Y-50201960D01*
X101844128Y-50211635D01*
X101731207Y-50346208D01*
X101729762Y-50348837D01*
X101729761Y-50348838D01*
X101718071Y-50370102D01*
X101639045Y-50513850D01*
X101638137Y-50516713D01*
X101597125Y-50646000D01*
X101581200Y-50696201D01*
X101559876Y-50886314D01*
X101575884Y-51076948D01*
X101576711Y-51079833D01*
X101576712Y-51079837D01*
X101587416Y-51117166D01*
X101628614Y-51260843D01*
X101716060Y-51430993D01*
X101834889Y-51580918D01*
X101837179Y-51582867D01*
X101837180Y-51582868D01*
X101857310Y-51600000D01*
X101980575Y-51704907D01*
X101983201Y-51706375D01*
X101983203Y-51706376D01*
X102123554Y-51784815D01*
X102152727Y-51821755D01*
X102147236Y-51868503D01*
X102110296Y-51897676D01*
X102093551Y-51900000D01*
X100442137Y-51900000D01*
X100398650Y-51881987D01*
X100380637Y-51838500D01*
X100398650Y-51795013D01*
X100414408Y-51783606D01*
X100525228Y-51727627D01*
X100656804Y-51624829D01*
X100673605Y-51611703D01*
X100673606Y-51611702D01*
X100675979Y-51609848D01*
X100683862Y-51600716D01*
X100799015Y-51467309D01*
X100799016Y-51467308D01*
X100800982Y-51465030D01*
X100895476Y-51298691D01*
X100925668Y-51207929D01*
X100954911Y-51120023D01*
X100954912Y-51120019D01*
X100955861Y-51117166D01*
X100979838Y-50927369D01*
X100980220Y-50900000D01*
X100961552Y-50709608D01*
X100906259Y-50526467D01*
X100816446Y-50357555D01*
X100805319Y-50343911D01*
X100697437Y-50211635D01*
X100695535Y-50209303D01*
X100656786Y-50177247D01*
X100550446Y-50089275D01*
X100550444Y-50089274D01*
X100548132Y-50087361D01*
X100545488Y-50085932D01*
X100545486Y-50085930D01*
X100382495Y-49997800D01*
X100382490Y-49997798D01*
X100379851Y-49996371D01*
X100376986Y-49995484D01*
X100376981Y-49995482D01*
X100293815Y-49969739D01*
X100257599Y-49939672D01*
X100250500Y-49910989D01*
X100250500Y-48531959D01*
X100251682Y-48519961D01*
X100254226Y-48507171D01*
X100255408Y-48501229D01*
X100253792Y-48493106D01*
X100252998Y-48487995D01*
X100240242Y-48374791D01*
X100238584Y-48360073D01*
X100191668Y-48225994D01*
X100157765Y-48172038D01*
X100148864Y-48131291D01*
X100150171Y-48121366D01*
X100132110Y-47984183D01*
X100079160Y-47856349D01*
X100029482Y-47791608D01*
X99997381Y-47749773D01*
X99994927Y-47746575D01*
X99885154Y-47662342D01*
X99881434Y-47660801D01*
X99881432Y-47660800D01*
X99761044Y-47610935D01*
X99761045Y-47610935D01*
X99757319Y-47609392D01*
X99620136Y-47591331D01*
X99482953Y-47609392D01*
X99479228Y-47610935D01*
X99358841Y-47660800D01*
X99358839Y-47660801D01*
X99355119Y-47662342D01*
X99319785Y-47689455D01*
X99260597Y-47734872D01*
X99245345Y-47746575D01*
X99242891Y-47749773D01*
X99210790Y-47791608D01*
X99170026Y-47815143D01*
X99124560Y-47802960D01*
X99101025Y-47762196D01*
X99100499Y-47754169D01*
X99100499Y-47736862D01*
X99094259Y-47689455D01*
X99045747Y-47585421D01*
X98964579Y-47504253D01*
X98911009Y-47479273D01*
X98879209Y-47444569D01*
X98875500Y-47423535D01*
X98875500Y-47199781D01*
X98893513Y-47156294D01*
X98911009Y-47144043D01*
X99009702Y-47098021D01*
X99014579Y-47095747D01*
X99095747Y-47014579D01*
X99144259Y-46910545D01*
X99145081Y-46904305D01*
X99150238Y-46865128D01*
X99150500Y-46863139D01*
X99150499Y-46236862D01*
X99144259Y-46189455D01*
X99095747Y-46085421D01*
X99014579Y-46004253D01*
X98910545Y-45955741D01*
X98905883Y-45955127D01*
X98905882Y-45955127D01*
X98878976Y-45951585D01*
X98863139Y-45949500D01*
X98625060Y-45949500D01*
X98386862Y-45949501D01*
X98384872Y-45949763D01*
X98384871Y-45949763D01*
X98344119Y-45955127D01*
X98344118Y-45955127D01*
X98339455Y-45955741D01*
X98235421Y-46004253D01*
X98182687Y-46056987D01*
X98139200Y-46075000D01*
X97460800Y-46075000D01*
X97417313Y-46056987D01*
X97364579Y-46004253D01*
X97311009Y-45979273D01*
X97279209Y-45944569D01*
X97275500Y-45923535D01*
X97275500Y-45699781D01*
X97293513Y-45656294D01*
X97311009Y-45644043D01*
X97409702Y-45598021D01*
X97414579Y-45595747D01*
X97495747Y-45514579D01*
X97544259Y-45410545D01*
X97550500Y-45363139D01*
X97550499Y-44736862D01*
X97544259Y-44689455D01*
X97497169Y-44588470D01*
X97495116Y-44541446D01*
X97526916Y-44506742D01*
X97552907Y-44500980D01*
X100619750Y-44500980D01*
X100631748Y-44502162D01*
X100638143Y-44503434D01*
X100650480Y-44505888D01*
X100656422Y-44504706D01*
X100656424Y-44504706D01*
X100660506Y-44503894D01*
X100676890Y-44502869D01*
X100873650Y-44516942D01*
X100882336Y-44518190D01*
X100939978Y-44530729D01*
X101096688Y-44564819D01*
X101105100Y-44567290D01*
X101310617Y-44643943D01*
X101318596Y-44647587D01*
X101511117Y-44752713D01*
X101518498Y-44757457D01*
X101694091Y-44888903D01*
X101700723Y-44894649D01*
X101855831Y-45049757D01*
X101861577Y-45056389D01*
X101993023Y-45231982D01*
X101997767Y-45239363D01*
X102102893Y-45431884D01*
X102106537Y-45439863D01*
X102176860Y-45628407D01*
X102183189Y-45645377D01*
X102185661Y-45653792D01*
X102208976Y-45760970D01*
X102232290Y-45868144D01*
X102233538Y-45876830D01*
X102247611Y-46073590D01*
X102246586Y-46089974D01*
X102244592Y-46100000D01*
X102245774Y-46105942D01*
X102248318Y-46118732D01*
X102249500Y-46130730D01*
X102249500Y-47499508D01*
X102231487Y-47542995D01*
X102225439Y-47548299D01*
X102169359Y-47591331D01*
X102125209Y-47625209D01*
X102040976Y-47734983D01*
X102039435Y-47738703D01*
X102039434Y-47738705D01*
X102039366Y-47738870D01*
X101988026Y-47862817D01*
X101969965Y-48000000D01*
X101988026Y-48137183D01*
X101989569Y-48140908D01*
X102023602Y-48223071D01*
X102040976Y-48265017D01*
X102125209Y-48374791D01*
X102234982Y-48459024D01*
X102238702Y-48460565D01*
X102238704Y-48460566D01*
X102304925Y-48487995D01*
X102362817Y-48511974D01*
X102500000Y-48530035D01*
X102637183Y-48511974D01*
X102695075Y-48487995D01*
X102761296Y-48460566D01*
X102761298Y-48460565D01*
X102765018Y-48459024D01*
X102874791Y-48374791D01*
X102959024Y-48265017D01*
X102976399Y-48223071D01*
X103010431Y-48140908D01*
X103011974Y-48137183D01*
X103030035Y-48000000D01*
X103011974Y-47862817D01*
X102960634Y-47738870D01*
X102960566Y-47738705D01*
X102960565Y-47738703D01*
X102959024Y-47734983D01*
X102874791Y-47625209D01*
X102774561Y-47548298D01*
X102751026Y-47507535D01*
X102750500Y-47499508D01*
X102750500Y-46130730D01*
X102751682Y-46118732D01*
X102754225Y-46105946D01*
X102755408Y-46100000D01*
X102754808Y-46096986D01*
X102754349Y-46089974D01*
X102737133Y-45827320D01*
X102737001Y-45825304D01*
X102719776Y-45738705D01*
X102687745Y-45577678D01*
X102683296Y-45555309D01*
X102594808Y-45294633D01*
X102593922Y-45292837D01*
X102593919Y-45292829D01*
X102473943Y-45049541D01*
X102473940Y-45049537D01*
X102473053Y-45047737D01*
X102320113Y-44818846D01*
X102318789Y-44817337D01*
X102318785Y-44817331D01*
X102139931Y-44613387D01*
X102138605Y-44611875D01*
X102103870Y-44581413D01*
X101933149Y-44431695D01*
X101933143Y-44431691D01*
X101931634Y-44430367D01*
X101920461Y-44422901D01*
X101704419Y-44278547D01*
X101702743Y-44277427D01*
X101700943Y-44276540D01*
X101700939Y-44276537D01*
X101457651Y-44156561D01*
X101457643Y-44156558D01*
X101455847Y-44155672D01*
X101195171Y-44067184D01*
X100925176Y-44013479D01*
X100805079Y-44005607D01*
X100658211Y-43995981D01*
X100653494Y-43995672D01*
X100650480Y-43995072D01*
X100633958Y-43998358D01*
X100631748Y-43998798D01*
X100619750Y-43999980D01*
X96380250Y-43999980D01*
X96368252Y-43998798D01*
X96366002Y-43998350D01*
X96349520Y-43995072D01*
X96344894Y-43995992D01*
X96340912Y-43996253D01*
X96340891Y-43996253D01*
X96340870Y-43996256D01*
X96087905Y-44012836D01*
X96085925Y-44013230D01*
X96085924Y-44013230D01*
X95959335Y-44038411D01*
X95830766Y-44063985D01*
X95582504Y-44148259D01*
X95580708Y-44149145D01*
X95580700Y-44149148D01*
X95349169Y-44263326D01*
X95349165Y-44263329D01*
X95347365Y-44264216D01*
X95129373Y-44409874D01*
X95127864Y-44411198D01*
X95127858Y-44411202D01*
X94979344Y-44541446D01*
X94932259Y-44582739D01*
X94930933Y-44584251D01*
X94760722Y-44778338D01*
X94760718Y-44778344D01*
X94759394Y-44779853D01*
X94613736Y-44997845D01*
X94612849Y-44999645D01*
X94612846Y-44999649D01*
X94498668Y-45231180D01*
X94498665Y-45231188D01*
X94497779Y-45232984D01*
X94413505Y-45481246D01*
X94362356Y-45738385D01*
X94347653Y-45962715D01*
X94345776Y-45991348D01*
X94345773Y-45991371D01*
X94345773Y-45991392D01*
X94345512Y-45995374D01*
X94344592Y-46000000D01*
X94345774Y-46005941D01*
X94348318Y-46018732D01*
X94349500Y-46030730D01*
X94349500Y-47369269D01*
X94348318Y-47381267D01*
X94344592Y-47399999D01*
X94345773Y-47405938D01*
X94345773Y-47406950D01*
X94346428Y-47411929D01*
X94361041Y-47634875D01*
X94361435Y-47636855D01*
X94361435Y-47636856D01*
X94380954Y-47734983D01*
X94406961Y-47865732D01*
X94482622Y-48088620D01*
X94483508Y-48090416D01*
X94483511Y-48090424D01*
X94550367Y-48225994D01*
X94586728Y-48299726D01*
X94717498Y-48495437D01*
X94718822Y-48496946D01*
X94718826Y-48496952D01*
X94864808Y-48663411D01*
X94867869Y-48667400D01*
X94868586Y-48668116D01*
X94871949Y-48673150D01*
X94876984Y-48676514D01*
X94887831Y-48683762D01*
X94897150Y-48691410D01*
X95642753Y-49437013D01*
X95660766Y-49480500D01*
X95642753Y-49523987D01*
X95599266Y-49542000D01*
X95186234Y-49542000D01*
X95177583Y-49545583D01*
X95174000Y-49554234D01*
X95174000Y-50633766D01*
X95177583Y-50642417D01*
X95186234Y-50646000D01*
X96265765Y-50646000D01*
X96274416Y-50642417D01*
X96277999Y-50633766D01*
X96277999Y-50220734D01*
X96296012Y-50177247D01*
X96339499Y-50159234D01*
X96382986Y-50177247D01*
X96583345Y-50377606D01*
X96601358Y-50421093D01*
X96593751Y-50450720D01*
X96559045Y-50513850D01*
X96558137Y-50516713D01*
X96517125Y-50646000D01*
X96501200Y-50696201D01*
X96479876Y-50886314D01*
X96495884Y-51076948D01*
X96496711Y-51079833D01*
X96496712Y-51079837D01*
X96507416Y-51117166D01*
X96548614Y-51260843D01*
X96636060Y-51430993D01*
X96754889Y-51580918D01*
X96757179Y-51582867D01*
X96757180Y-51582868D01*
X96777310Y-51600000D01*
X96900575Y-51704907D01*
X96903201Y-51706375D01*
X96903203Y-51706376D01*
X97043554Y-51784815D01*
X97072727Y-51821755D01*
X97067236Y-51868503D01*
X97030296Y-51897676D01*
X97013551Y-51900000D01*
X96335472Y-51900000D01*
X96291985Y-51881987D01*
X96273972Y-51838500D01*
X96274332Y-51831859D01*
X96277819Y-51799752D01*
X96278000Y-51796422D01*
X96278000Y-51166234D01*
X96274417Y-51157583D01*
X96265766Y-51154000D01*
X94727500Y-51154000D01*
X94684013Y-51135987D01*
X94666000Y-51092500D01*
X94666000Y-49554235D01*
X94662417Y-49545584D01*
X94653766Y-49542001D01*
X94023581Y-49542001D01*
X94020249Y-49542182D01*
X93963629Y-49548331D01*
X93956179Y-49550103D01*
X93827646Y-49598288D01*
X93820029Y-49602458D01*
X93710600Y-49684470D01*
X93704987Y-49690083D01*
X93661500Y-49708096D01*
X93618013Y-49690083D01*
X93600000Y-49646596D01*
X93600000Y-38861500D01*
X93618013Y-38818013D01*
X93661500Y-38800000D01*
X96461772Y-38800000D01*
X96505259Y-38818013D01*
G37*
%TD.AperFunction*%
%TD*%
M02*
