%TF.GenerationSoftware,KiCad,Pcbnew,(6.0.2-0)*%
%TF.CreationDate,2022-02-18T11:32:37+00:00*%
%TF.ProjectId,Generic3,47656e65-7269-4633-932e-6b696361645f,1*%
%TF.SameCoordinates,Original*%
%TF.FileFunction,Legend,Bot*%
%TF.FilePolarity,Positive*%
%FSLAX46Y46*%
G04 Gerber Fmt 4.6, Leading zero omitted, Abs format (unit mm)*
G04 Created by KiCad (PCBNEW (6.0.2-0)) date 2022-02-18 11:32:37*
%MOMM*%
%LPD*%
G01*
G04 APERTURE LIST*
%ADD10C,0.150000*%
%ADD11C,0.120000*%
G04 APERTURE END LIST*
D10*
X143952380Y-68438095D02*
X142952380Y-68438095D01*
X142952380Y-68676190D01*
X143000000Y-68819047D01*
X143095238Y-68914285D01*
X143190476Y-68961904D01*
X143380952Y-69009523D01*
X143523809Y-69009523D01*
X143714285Y-68961904D01*
X143809523Y-68914285D01*
X143904761Y-68819047D01*
X143952380Y-68676190D01*
X143952380Y-68438095D01*
X143857142Y-70009523D02*
X143904761Y-69961904D01*
X143952380Y-69819047D01*
X143952380Y-69723809D01*
X143904761Y-69580952D01*
X143809523Y-69485714D01*
X143714285Y-69438095D01*
X143523809Y-69390476D01*
X143380952Y-69390476D01*
X143190476Y-69438095D01*
X143095238Y-69485714D01*
X143000000Y-69580952D01*
X142952380Y-69723809D01*
X142952380Y-69819047D01*
X143000000Y-69961904D01*
X143047619Y-70009523D01*
X144461904Y-70847619D02*
X144414285Y-70800000D01*
X144319047Y-70752380D01*
X144080952Y-70752380D01*
X143985714Y-70800000D01*
X143938095Y-70847619D01*
X143890476Y-70942857D01*
X143890476Y-71038095D01*
X143938095Y-71180952D01*
X144509523Y-71752380D01*
X143890476Y-71752380D01*
X142938095Y-71752380D02*
X143509523Y-71752380D01*
X143223809Y-71752380D02*
X143223809Y-70752380D01*
X143319047Y-70895238D01*
X143414285Y-70990476D01*
X143509523Y-71038095D01*
X167190476Y-75202380D02*
X167761904Y-75202380D01*
X167476190Y-75202380D02*
X167476190Y-74202380D01*
X167571428Y-74345238D01*
X167666666Y-74440476D01*
X167761904Y-74488095D01*
X166857142Y-74202380D02*
X166238095Y-74202380D01*
X166571428Y-74583333D01*
X166428571Y-74583333D01*
X166333333Y-74630952D01*
X166285714Y-74678571D01*
X166238095Y-74773809D01*
X166238095Y-75011904D01*
X166285714Y-75107142D01*
X166333333Y-75154761D01*
X166428571Y-75202380D01*
X166714285Y-75202380D01*
X166809523Y-75154761D01*
X166857142Y-75107142D01*
X137352380Y-72523809D02*
X137352380Y-73142857D01*
X137733333Y-72809523D01*
X137733333Y-72952380D01*
X137780952Y-73047619D01*
X137828571Y-73095238D01*
X137923809Y-73142857D01*
X138161904Y-73142857D01*
X138257142Y-73095238D01*
X138304761Y-73047619D01*
X138352380Y-72952380D01*
X138352380Y-72666666D01*
X138304761Y-72571428D01*
X138257142Y-72523809D01*
X138257142Y-73571428D02*
X138304761Y-73619047D01*
X138352380Y-73571428D01*
X138304761Y-73523809D01*
X138257142Y-73571428D01*
X138352380Y-73571428D01*
X137352380Y-73952380D02*
X137352380Y-74571428D01*
X137733333Y-74238095D01*
X137733333Y-74380952D01*
X137780952Y-74476190D01*
X137828571Y-74523809D01*
X137923809Y-74571428D01*
X138161904Y-74571428D01*
X138257142Y-74523809D01*
X138304761Y-74476190D01*
X138352380Y-74380952D01*
X138352380Y-74095238D01*
X138304761Y-74000000D01*
X138257142Y-73952380D01*
X137352380Y-74857142D02*
X138352380Y-75190476D01*
X137352380Y-75523809D01*
X158214285Y-55702380D02*
X158547619Y-55226190D01*
X158785714Y-55702380D02*
X158785714Y-54702380D01*
X158404761Y-54702380D01*
X158309523Y-54750000D01*
X158261904Y-54797619D01*
X158214285Y-54892857D01*
X158214285Y-55035714D01*
X158261904Y-55130952D01*
X158309523Y-55178571D01*
X158404761Y-55226190D01*
X158785714Y-55226190D01*
X157261904Y-54750000D02*
X157357142Y-54702380D01*
X157500000Y-54702380D01*
X157642857Y-54750000D01*
X157738095Y-54845238D01*
X157785714Y-54940476D01*
X157833333Y-55130952D01*
X157833333Y-55273809D01*
X157785714Y-55464285D01*
X157738095Y-55559523D01*
X157642857Y-55654761D01*
X157500000Y-55702380D01*
X157404761Y-55702380D01*
X157261904Y-55654761D01*
X157214285Y-55607142D01*
X157214285Y-55273809D01*
X157404761Y-55273809D01*
X156452380Y-55178571D02*
X156309523Y-55226190D01*
X156261904Y-55273809D01*
X156214285Y-55369047D01*
X156214285Y-55511904D01*
X156261904Y-55607142D01*
X156309523Y-55654761D01*
X156404761Y-55702380D01*
X156785714Y-55702380D01*
X156785714Y-54702380D01*
X156452380Y-54702380D01*
X156357142Y-54750000D01*
X156309523Y-54797619D01*
X156261904Y-54892857D01*
X156261904Y-54988095D01*
X156309523Y-55083333D01*
X156357142Y-55130952D01*
X156452380Y-55178571D01*
X156785714Y-55178571D01*
X155785714Y-55607142D02*
X155738095Y-55654761D01*
X155785714Y-55702380D01*
X155833333Y-55654761D01*
X155785714Y-55607142D01*
X155785714Y-55702380D01*
X155785714Y-55083333D02*
X155738095Y-55130952D01*
X155785714Y-55178571D01*
X155833333Y-55130952D01*
X155785714Y-55083333D01*
X155785714Y-55178571D01*
X154642857Y-54702380D02*
X154023809Y-54702380D01*
X154357142Y-55083333D01*
X154214285Y-55083333D01*
X154119047Y-55130952D01*
X154071428Y-55178571D01*
X154023809Y-55273809D01*
X154023809Y-55511904D01*
X154071428Y-55607142D01*
X154119047Y-55654761D01*
X154214285Y-55702380D01*
X154500000Y-55702380D01*
X154595238Y-55654761D01*
X154642857Y-55607142D01*
X153642857Y-54797619D02*
X153595238Y-54750000D01*
X153500000Y-54702380D01*
X153261904Y-54702380D01*
X153166666Y-54750000D01*
X153119047Y-54797619D01*
X153071428Y-54892857D01*
X153071428Y-54988095D01*
X153119047Y-55130952D01*
X153690476Y-55702380D01*
X153071428Y-55702380D01*
X151928571Y-54654761D02*
X152785714Y-55940476D01*
X151690476Y-54702380D02*
X151071428Y-54702380D01*
X151404761Y-55083333D01*
X151261904Y-55083333D01*
X151166666Y-55130952D01*
X151119047Y-55178571D01*
X151071428Y-55273809D01*
X151071428Y-55511904D01*
X151119047Y-55607142D01*
X151166666Y-55654761D01*
X151261904Y-55702380D01*
X151547619Y-55702380D01*
X151642857Y-55654761D01*
X151690476Y-55607142D01*
X150738095Y-54702380D02*
X150119047Y-54702380D01*
X150452380Y-55083333D01*
X150309523Y-55083333D01*
X150214285Y-55130952D01*
X150166666Y-55178571D01*
X150119047Y-55273809D01*
X150119047Y-55511904D01*
X150166666Y-55607142D01*
X150214285Y-55654761D01*
X150309523Y-55702380D01*
X150595238Y-55702380D01*
X150690476Y-55654761D01*
X150738095Y-55607142D01*
X148976190Y-54654761D02*
X149833333Y-55940476D01*
X148690476Y-54797619D02*
X148642857Y-54750000D01*
X148547619Y-54702380D01*
X148309523Y-54702380D01*
X148214285Y-54750000D01*
X148166666Y-54797619D01*
X148119047Y-54892857D01*
X148119047Y-54988095D01*
X148166666Y-55130952D01*
X148738095Y-55702380D01*
X148119047Y-55702380D01*
X147214285Y-54702380D02*
X147690476Y-54702380D01*
X147738095Y-55178571D01*
X147690476Y-55130952D01*
X147595238Y-55083333D01*
X147357142Y-55083333D01*
X147261904Y-55130952D01*
X147214285Y-55178571D01*
X147166666Y-55273809D01*
X147166666Y-55511904D01*
X147214285Y-55607142D01*
X147261904Y-55654761D01*
X147357142Y-55702380D01*
X147595238Y-55702380D01*
X147690476Y-55654761D01*
X147738095Y-55607142D01*
X157145238Y-74630952D02*
X157240476Y-74583333D01*
X157288095Y-74535714D01*
X157335714Y-74440476D01*
X157335714Y-74392857D01*
X157288095Y-74297619D01*
X157240476Y-74250000D01*
X157145238Y-74202380D01*
X156954761Y-74202380D01*
X156859523Y-74250000D01*
X156811904Y-74297619D01*
X156764285Y-74392857D01*
X156764285Y-74440476D01*
X156811904Y-74535714D01*
X156859523Y-74583333D01*
X156954761Y-74630952D01*
X157145238Y-74630952D01*
X157240476Y-74678571D01*
X157288095Y-74726190D01*
X157335714Y-74821428D01*
X157335714Y-75011904D01*
X157288095Y-75107142D01*
X157240476Y-75154761D01*
X157145238Y-75202380D01*
X156954761Y-75202380D01*
X156859523Y-75154761D01*
X156811904Y-75107142D01*
X156764285Y-75011904D01*
X156764285Y-74821428D01*
X156811904Y-74726190D01*
X156859523Y-74678571D01*
X156954761Y-74630952D01*
X154309523Y-74535714D02*
X154309523Y-75202380D01*
X154547619Y-74154761D02*
X154785714Y-74869047D01*
X154166666Y-74869047D01*
X164640476Y-75202380D02*
X165211904Y-75202380D01*
X164926190Y-75202380D02*
X164926190Y-74202380D01*
X165021428Y-74345238D01*
X165116666Y-74440476D01*
X165211904Y-74488095D01*
X164164285Y-75202380D02*
X163973809Y-75202380D01*
X163878571Y-75154761D01*
X163830952Y-75107142D01*
X163735714Y-74964285D01*
X163688095Y-74773809D01*
X163688095Y-74392857D01*
X163735714Y-74297619D01*
X163783333Y-74250000D01*
X163878571Y-74202380D01*
X164069047Y-74202380D01*
X164164285Y-74250000D01*
X164211904Y-74297619D01*
X164259523Y-74392857D01*
X164259523Y-74630952D01*
X164211904Y-74726190D01*
X164164285Y-74773809D01*
X164069047Y-74821428D01*
X163878571Y-74821428D01*
X163783333Y-74773809D01*
X163735714Y-74726190D01*
X163688095Y-74630952D01*
X147761904Y-74297619D02*
X147714285Y-74250000D01*
X147619047Y-74202380D01*
X147380952Y-74202380D01*
X147285714Y-74250000D01*
X147238095Y-74297619D01*
X147190476Y-74392857D01*
X147190476Y-74488095D01*
X147238095Y-74630952D01*
X147809523Y-75202380D01*
X147190476Y-75202380D01*
X146238095Y-75202380D02*
X146809523Y-75202380D01*
X146523809Y-75202380D02*
X146523809Y-74202380D01*
X146619047Y-74345238D01*
X146714285Y-74440476D01*
X146809523Y-74488095D01*
X144461904Y-73547619D02*
X144414285Y-73500000D01*
X144319047Y-73452380D01*
X144080952Y-73452380D01*
X143985714Y-73500000D01*
X143938095Y-73547619D01*
X143890476Y-73642857D01*
X143890476Y-73738095D01*
X143938095Y-73880952D01*
X144509523Y-74452380D01*
X143890476Y-74452380D01*
X143509523Y-73547619D02*
X143461904Y-73500000D01*
X143366666Y-73452380D01*
X143128571Y-73452380D01*
X143033333Y-73500000D01*
X142985714Y-73547619D01*
X142938095Y-73642857D01*
X142938095Y-73738095D01*
X142985714Y-73880952D01*
X143557142Y-74452380D01*
X142938095Y-74452380D01*
X160311904Y-74297619D02*
X160264285Y-74250000D01*
X160169047Y-74202380D01*
X159930952Y-74202380D01*
X159835714Y-74250000D01*
X159788095Y-74297619D01*
X159740476Y-74392857D01*
X159740476Y-74488095D01*
X159788095Y-74630952D01*
X160359523Y-75202380D01*
X159740476Y-75202380D01*
X159121428Y-74202380D02*
X159026190Y-74202380D01*
X158930952Y-74250000D01*
X158883333Y-74297619D01*
X158835714Y-74392857D01*
X158788095Y-74583333D01*
X158788095Y-74821428D01*
X158835714Y-75011904D01*
X158883333Y-75107142D01*
X158930952Y-75154761D01*
X159026190Y-75202380D01*
X159121428Y-75202380D01*
X159216666Y-75154761D01*
X159264285Y-75107142D01*
X159311904Y-75011904D01*
X159359523Y-74821428D01*
X159359523Y-74583333D01*
X159311904Y-74392857D01*
X159264285Y-74297619D01*
X159216666Y-74250000D01*
X159121428Y-74202380D01*
X152190476Y-75202380D02*
X152761904Y-75202380D01*
X152476190Y-75202380D02*
X152476190Y-74202380D01*
X152571428Y-74345238D01*
X152666666Y-74440476D01*
X152761904Y-74488095D01*
X151285714Y-74202380D02*
X151761904Y-74202380D01*
X151809523Y-74678571D01*
X151761904Y-74630952D01*
X151666666Y-74583333D01*
X151428571Y-74583333D01*
X151333333Y-74630952D01*
X151285714Y-74678571D01*
X151238095Y-74773809D01*
X151238095Y-75011904D01*
X151285714Y-75107142D01*
X151333333Y-75154761D01*
X151428571Y-75202380D01*
X151666666Y-75202380D01*
X151761904Y-75154761D01*
X151809523Y-75107142D01*
X162283333Y-74202380D02*
X161616666Y-74202380D01*
X162045238Y-75202380D01*
X169690476Y-75202380D02*
X170261904Y-75202380D01*
X169976190Y-75202380D02*
X169976190Y-74202380D01*
X170071428Y-74345238D01*
X170166666Y-74440476D01*
X170261904Y-74488095D01*
X169309523Y-74297619D02*
X169261904Y-74250000D01*
X169166666Y-74202380D01*
X168928571Y-74202380D01*
X168833333Y-74250000D01*
X168785714Y-74297619D01*
X168738095Y-74392857D01*
X168738095Y-74488095D01*
X168785714Y-74630952D01*
X169357142Y-75202380D01*
X168738095Y-75202380D01*
X137300000Y-69538095D02*
X137252380Y-69442857D01*
X137252380Y-69300000D01*
X137300000Y-69157142D01*
X137395238Y-69061904D01*
X137490476Y-69014285D01*
X137680952Y-68966666D01*
X137823809Y-68966666D01*
X138014285Y-69014285D01*
X138109523Y-69061904D01*
X138204761Y-69157142D01*
X138252380Y-69300000D01*
X138252380Y-69395238D01*
X138204761Y-69538095D01*
X138157142Y-69585714D01*
X137823809Y-69585714D01*
X137823809Y-69395238D01*
X138252380Y-70014285D02*
X137252380Y-70014285D01*
X138252380Y-70585714D01*
X137252380Y-70585714D01*
X138252380Y-71061904D02*
X137252380Y-71061904D01*
X137252380Y-71300000D01*
X137300000Y-71442857D01*
X137395238Y-71538095D01*
X137490476Y-71585714D01*
X137680952Y-71633333D01*
X137823809Y-71633333D01*
X138014285Y-71585714D01*
X138109523Y-71538095D01*
X138204761Y-71442857D01*
X138252380Y-71300000D01*
X138252380Y-71061904D01*
X150261904Y-74297619D02*
X150214285Y-74250000D01*
X150119047Y-74202380D01*
X149880952Y-74202380D01*
X149785714Y-74250000D01*
X149738095Y-74297619D01*
X149690476Y-74392857D01*
X149690476Y-74488095D01*
X149738095Y-74630952D01*
X150309523Y-75202380D01*
X149690476Y-75202380D01*
X149309523Y-74297619D02*
X149261904Y-74250000D01*
X149166666Y-74202380D01*
X148928571Y-74202380D01*
X148833333Y-74250000D01*
X148785714Y-74297619D01*
X148738095Y-74392857D01*
X148738095Y-74488095D01*
X148785714Y-74630952D01*
X149357142Y-75202380D01*
X148738095Y-75202380D01*
D11*
%TO.C,D4*%
X162550000Y-71340000D02*
X164450000Y-71340000D01*
X163950000Y-73660000D02*
X162550000Y-73660000D01*
%TO.C,JP1*%
X139822936Y-70350000D02*
X141277064Y-70350000D01*
X139822936Y-72170000D02*
X141277064Y-72170000D01*
%TO.C,D1*%
X148950000Y-73660000D02*
X147550000Y-73660000D01*
X147550000Y-71340000D02*
X149450000Y-71340000D01*
%TO.C,D3*%
X157550000Y-71340000D02*
X159450000Y-71340000D01*
X158950000Y-73660000D02*
X157550000Y-73660000D01*
%TO.C,D2*%
X153950000Y-73660000D02*
X152550000Y-73660000D01*
X152550000Y-71340000D02*
X154450000Y-71340000D01*
%TO.C,D5*%
X167550000Y-71340000D02*
X169450000Y-71340000D01*
X168950000Y-73660000D02*
X167550000Y-73660000D01*
%TO.C,JP2*%
X139822936Y-74945000D02*
X141277064Y-74945000D01*
X139822936Y-73125000D02*
X141277064Y-73125000D01*
%TD*%
M02*
