%TF.GenerationSoftware,KiCad,Pcbnew,(6.0.2-0)*%
%TF.CreationDate,2022-02-23T08:02:55+00:00*%
%TF.ProjectId,Generic4,47656e65-7269-4633-942e-6b696361645f,1*%
%TF.SameCoordinates,Original*%
%TF.FileFunction,Copper,L1,Top*%
%TF.FilePolarity,Positive*%
%FSLAX46Y46*%
G04 Gerber Fmt 4.6, Leading zero omitted, Abs format (unit mm)*
G04 Created by KiCad (PCBNEW (6.0.2-0)) date 2022-02-23 08:02:55*
%MOMM*%
%LPD*%
G01*
G04 APERTURE LIST*
G04 Aperture macros list*
%AMRoundRect*
0 Rectangle with rounded corners*
0 $1 Rounding radius*
0 $2 $3 $4 $5 $6 $7 $8 $9 X,Y pos of 4 corners*
0 Add a 4 corners polygon primitive as box body*
4,1,4,$2,$3,$4,$5,$6,$7,$8,$9,$2,$3,0*
0 Add four circle primitives for the rounded corners*
1,1,$1+$1,$2,$3*
1,1,$1+$1,$4,$5*
1,1,$1+$1,$6,$7*
1,1,$1+$1,$8,$9*
0 Add four rect primitives between the rounded corners*
20,1,$1+$1,$2,$3,$4,$5,0*
20,1,$1+$1,$4,$5,$6,$7,0*
20,1,$1+$1,$6,$7,$8,$9,0*
20,1,$1+$1,$8,$9,$2,$3,0*%
%AMOutline5P*
0 Free polygon, 5 corners , with rotation*
0 The origin of the aperture is its center*
0 number of corners: always 5*
0 $1 to $10 corner X, Y*
0 $11 Rotation angle, in degrees counterclockwise*
0 create outline with 5 corners*
4,1,5,$1,$2,$3,$4,$5,$6,$7,$8,$9,$10,$1,$2,$11*%
%AMOutline6P*
0 Free polygon, 6 corners , with rotation*
0 The origin of the aperture is its center*
0 number of corners: always 6*
0 $1 to $12 corner X, Y*
0 $13 Rotation angle, in degrees counterclockwise*
0 create outline with 6 corners*
4,1,6,$1,$2,$3,$4,$5,$6,$7,$8,$9,$10,$11,$12,$1,$2,$13*%
%AMOutline7P*
0 Free polygon, 7 corners , with rotation*
0 The origin of the aperture is its center*
0 number of corners: always 7*
0 $1 to $14 corner X, Y*
0 $15 Rotation angle, in degrees counterclockwise*
0 create outline with 7 corners*
4,1,7,$1,$2,$3,$4,$5,$6,$7,$8,$9,$10,$11,$12,$13,$14,$1,$2,$15*%
%AMOutline8P*
0 Free polygon, 8 corners , with rotation*
0 The origin of the aperture is its center*
0 number of corners: always 8*
0 $1 to $16 corner X, Y*
0 $17 Rotation angle, in degrees counterclockwise*
0 create outline with 8 corners*
4,1,8,$1,$2,$3,$4,$5,$6,$7,$8,$9,$10,$11,$12,$13,$14,$15,$16,$1,$2,$17*%
G04 Aperture macros list end*
%TA.AperFunction,ComponentPad*%
%ADD10R,1.700000X1.700000*%
%TD*%
%TA.AperFunction,ComponentPad*%
%ADD11O,1.700000X1.700000*%
%TD*%
%TA.AperFunction,SMDPad,CuDef*%
%ADD12R,0.700000X0.700000*%
%TD*%
%TA.AperFunction,SMDPad,CuDef*%
%ADD13Outline5P,-0.725000X0.130500X-0.130500X0.725000X0.725000X0.725000X0.725000X-0.725000X-0.725000X-0.725000X0.000000*%
%TD*%
%TA.AperFunction,SMDPad,CuDef*%
%ADD14R,1.450000X1.450000*%
%TD*%
%TA.AperFunction,SMDPad,CuDef*%
%ADD15R,0.400000X0.800000*%
%TD*%
%TA.AperFunction,SMDPad,CuDef*%
%ADD16R,0.800000X0.400000*%
%TD*%
%TA.AperFunction,ComponentPad*%
%ADD17RoundRect,0.250000X-0.600000X-0.675000X0.600000X-0.675000X0.600000X0.675000X-0.600000X0.675000X0*%
%TD*%
%TA.AperFunction,ComponentPad*%
%ADD18O,1.700000X1.850000*%
%TD*%
%TA.AperFunction,ViaPad*%
%ADD19C,0.800000*%
%TD*%
%TA.AperFunction,Conductor*%
%ADD20C,0.250000*%
%TD*%
G04 APERTURE END LIST*
D10*
%TO.P,J1,1,Pin_1*%
%TO.N,GPIO0*%
X96190000Y-53980000D03*
D11*
%TO.P,J1,2,Pin_2*%
%TO.N,IO1*%
X96190000Y-56520000D03*
%TO.P,J1,3,Pin_3*%
%TO.N,IO2*%
X98730000Y-53980000D03*
%TO.P,J1,4,Pin_4*%
%TO.N,IO3*%
X98730000Y-56520000D03*
%TO.P,J1,5,Pin_5*%
%TO.N,IO4*%
X101270000Y-53980000D03*
%TO.P,J1,6,Pin_6*%
%TO.N,IO5*%
X101270000Y-56520000D03*
%TO.P,J1,7,Pin_7*%
%TO.N,IO6*%
X103810000Y-53980000D03*
%TO.P,J1,8,Pin_8*%
%TO.N,IO7*%
X103810000Y-56520000D03*
%TD*%
D12*
%TO.P,U1,53,GND*%
%TO.N,GND*%
X94050000Y-39243250D03*
%TO.P,U1,52,GND*%
X94050000Y-49143250D03*
%TO.P,U1,51,GND*%
X105950000Y-49143250D03*
%TO.P,U1,50,GND*%
X105950000Y-39243250D03*
D13*
%TO.P,U1,49,GND*%
X98025000Y-42218250D03*
D14*
X101975000Y-44193250D03*
X101975000Y-42218250D03*
X100000000Y-42218250D03*
X98025000Y-46168250D03*
X101975000Y-46168250D03*
X98025000Y-44193250D03*
X100000000Y-46168250D03*
X100000000Y-44193250D03*
D15*
%TO.P,U1,48,GND*%
X95200000Y-39293250D03*
%TO.P,U1,47,GND*%
X96000000Y-39293250D03*
%TO.P,U1,46,GND*%
X96800000Y-39293250D03*
%TO.P,U1,45,GND*%
X97600000Y-39293250D03*
%TO.P,U1,44,GND*%
X98400000Y-39293250D03*
%TO.P,U1,43,GND*%
X99200000Y-39293250D03*
%TO.P,U1,42,GND*%
X100000000Y-39293250D03*
%TO.P,U1,41,GND*%
X100800000Y-39293250D03*
%TO.P,U1,40,GND*%
X101600000Y-39293250D03*
%TO.P,U1,39,GND*%
X102400000Y-39293250D03*
%TO.P,U1,38,GND*%
X103200000Y-39293250D03*
%TO.P,U1,37,GND*%
X104000000Y-39293250D03*
%TO.P,U1,36,GND*%
X104800000Y-39293250D03*
D16*
%TO.P,U1,35,IO21*%
%TO.N,unconnected-(U1-Pad35)*%
X105900000Y-40193250D03*
%TO.P,U1,34,IO22*%
%TO.N,unconnected-(U1-Pad34)*%
X105900000Y-40993250D03*
%TO.P,U1,33,IO19*%
%TO.N,unconnected-(U1-Pad33)*%
X105900000Y-41793250D03*
%TO.P,U1,32,NC*%
%TO.N,unconnected-(U1-Pad32)*%
X105900000Y-42593250D03*
%TO.P,U1,31,TXD0*%
%TO.N,TX*%
X105900000Y-43393250D03*
%TO.P,U1,30,RXD0*%
%TO.N,RX*%
X105900000Y-44193250D03*
%TO.P,U1,29,IO5*%
%TO.N,unconnected-(U1-Pad29)*%
X105900000Y-44993250D03*
%TO.P,U1,28,IO8*%
%TO.N,unconnected-(U1-Pad28)*%
X105900000Y-45793250D03*
%TO.P,U1,27,IO7*%
%TO.N,unconnected-(U1-Pad27)*%
X105900000Y-46593250D03*
%TO.P,U1,26,IO20*%
%TO.N,unconnected-(U1-Pad26)*%
X105900000Y-47393250D03*
%TO.P,U1,25,NC*%
%TO.N,unconnected-(U1-Pad25)*%
X105900000Y-48193250D03*
D15*
%TO.P,U1,24,IO4*%
%TO.N,IO7*%
X104800000Y-49093250D03*
%TO.P,U1,23,IO0*%
%TO.N,GPIO0*%
X104000000Y-49093250D03*
%TO.P,U1,22,IO2*%
%TO.N,unconnected-(U1-Pad22)*%
X103200000Y-49093250D03*
%TO.P,U1,21,IO15*%
%TO.N,IO6*%
X102400000Y-49093250D03*
%TO.P,U1,20,IO13*%
%TO.N,IO5*%
X101600000Y-49093250D03*
%TO.P,U1,19,IO12*%
%TO.N,unconnected-(U1-Pad19)*%
X100800000Y-49093250D03*
%TO.P,U1,18,IO14*%
%TO.N,IO4*%
X100000000Y-49093250D03*
%TO.P,U1,17,IO27*%
%TO.N,IO3*%
X99200000Y-49093250D03*
%TO.P,U1,16,IO26*%
%TO.N,IO2*%
X98400000Y-49093250D03*
%TO.P,U1,15,IO25*%
%TO.N,IO1*%
X97600000Y-49093250D03*
%TO.P,U1,14,GND*%
%TO.N,GND*%
X96800000Y-49093250D03*
%TO.P,U1,13,IO33*%
%TO.N,unconnected-(U1-Pad13)*%
X96000000Y-49093250D03*
%TO.P,U1,12,IO32*%
%TO.N,unconnected-(U1-Pad12)*%
X95200000Y-49093250D03*
D16*
%TO.P,U1,11,GND*%
%TO.N,GND*%
X94100000Y-48193250D03*
%TO.P,U1,10,I35*%
%TO.N,unconnected-(U1-Pad10)*%
X94100000Y-47393250D03*
%TO.P,U1,9,I34*%
%TO.N,unconnected-(U1-Pad9)*%
X94100000Y-46593250D03*
%TO.P,U1,8,EN*%
%TO.N,EN*%
X94100000Y-45793250D03*
%TO.P,U1,7,I39*%
%TO.N,unconnected-(U1-Pad7)*%
X94100000Y-44993250D03*
%TO.P,U1,6,I38*%
%TO.N,unconnected-(U1-Pad6)*%
X94100000Y-44193250D03*
%TO.P,U1,5,I37*%
%TO.N,unconnected-(U1-Pad5)*%
X94100000Y-43393250D03*
%TO.P,U1,4,I36*%
%TO.N,unconnected-(U1-Pad4)*%
X94100000Y-42593250D03*
%TO.P,U1,3,3V3*%
%TO.N,EN*%
X94100000Y-41793250D03*
%TO.P,U1,2,GND*%
%TO.N,GND*%
X94100000Y-40993250D03*
%TO.P,U1,1,GND*%
X94100000Y-40193250D03*
%TD*%
D17*
%TO.P,J2,1,Pin_1*%
%TO.N,GND*%
X96250000Y-51440000D03*
D18*
%TO.P,J2,2,Pin_2*%
%TO.N,DC*%
X98750000Y-51440000D03*
%TO.P,J2,3,Pin_3*%
%TO.N,TX*%
X101250000Y-51440000D03*
%TO.P,J2,4,Pin_4*%
%TO.N,RX*%
X103750000Y-51440000D03*
%TD*%
D19*
%TO.N,GND*%
X104900498Y-48000000D03*
%TO.N,IO5*%
X103276794Y-48093352D03*
%TO.N,TX*%
X100998246Y-48092849D03*
%TO.N,IO3*%
X99998744Y-48093748D03*
%TO.N,IO1*%
X97750000Y-48250000D03*
%TO.N,RX*%
X104667718Y-46509290D03*
%TO.N,EN*%
X94900000Y-41800000D03*
%TD*%
D20*
%TO.N,IO7*%
X105100000Y-49900000D02*
G75*
G02*
X104800000Y-49600000I0J300000D01*
G01*
X104880000Y-56520000D02*
G75*
G03*
X105434022Y-55965978I1J554021D01*
G01*
X104800000Y-49093250D02*
X104800000Y-49600000D01*
X105434022Y-50234022D02*
G75*
G03*
X105100000Y-49900000I-334023J-1D01*
G01*
X105434022Y-50234022D02*
X105434022Y-50969486D01*
X105434022Y-50969486D02*
X105434022Y-55965978D01*
X104880000Y-56520000D02*
X103810000Y-56520000D01*
%TO.N,GPIO0*%
X104984511Y-54466499D02*
X104984511Y-50784511D01*
X104984511Y-54466499D02*
G75*
G02*
X104296499Y-55154511I-688012J0D01*
G01*
X96190000Y-55080000D02*
X96264511Y-55154511D01*
X96190000Y-53980000D02*
X96190000Y-55080000D01*
X104000000Y-49800000D02*
G75*
G03*
X104350000Y-50150000I350001J1D01*
G01*
X104350000Y-50150000D02*
G75*
G02*
X104984511Y-50784511I0J-634511D01*
G01*
X96264511Y-55154511D02*
X104296499Y-55154511D01*
X104000000Y-49800000D02*
X104000000Y-49093250D01*
%TO.N,IO5*%
X101600000Y-49093250D02*
X101600000Y-48644228D01*
X103274578Y-48095568D02*
X103276794Y-48093352D01*
X102078248Y-48095568D02*
X103274578Y-48095568D01*
X102078248Y-48095569D02*
G75*
G03*
X101600000Y-48644228I78150J-550886D01*
G01*
%TO.N,GND*%
X94050000Y-49143250D02*
X94050000Y-55950000D01*
X95900000Y-57800000D02*
G75*
G02*
X94050000Y-55950000I-2J1849998D01*
G01*
X95900000Y-57800000D02*
X104400000Y-57800000D01*
X106000000Y-56200000D02*
G75*
G02*
X104400000Y-57800000I-1599999J-1D01*
G01*
X106000000Y-56200000D02*
X106000000Y-49193250D01*
X105950000Y-49143250D02*
G75*
G02*
X106000000Y-49193250I-1J-50001D01*
G01*
%TO.N,IO6*%
X102400000Y-49093250D02*
X102424520Y-49117770D01*
X103810000Y-53980000D02*
G75*
G02*
X102424520Y-52594520I1J1385481D01*
G01*
X102424520Y-49117770D02*
X102424520Y-52594520D01*
%TO.N,IO4*%
X100000000Y-49093250D02*
X100000000Y-52710000D01*
X101270000Y-53980000D02*
G75*
G02*
X100000000Y-52710000I-1J1269999D01*
G01*
%TO.N,IO2*%
X97498270Y-52748270D02*
G75*
G03*
X98730000Y-53980000I1231729J-1D01*
G01*
X97900000Y-50100000D02*
G75*
G03*
X97498270Y-50501730I0J-401730D01*
G01*
X98400000Y-49600000D02*
G75*
G02*
X97900000Y-50100000I-500001J1D01*
G01*
X97498270Y-52748270D02*
X97498270Y-50501730D01*
X98400000Y-49600000D02*
X98400000Y-49093250D01*
%TO.N,RX*%
X104847784Y-46514351D02*
G75*
G03*
X105124500Y-46096171I-181351J420647D01*
G01*
X105124501Y-44511203D02*
G75*
G02*
X105442454Y-44193250I317952J1D01*
G01*
X105124501Y-44511203D02*
X105124501Y-46096171D01*
X104672780Y-46514352D02*
X104667718Y-46509290D01*
X104847784Y-46514352D02*
X104672780Y-46514352D01*
X105900000Y-44193250D02*
X105442454Y-44193250D01*
%TO.N,IO3*%
X99767123Y-48126054D02*
G75*
G03*
X99200000Y-48893748I238597J-769584D01*
G01*
%TO.N,TX*%
X104531004Y-45580551D02*
X102467318Y-47644237D01*
%TO.N,IO3*%
X99200000Y-49093250D02*
X99200000Y-48893748D01*
X99767123Y-48126054D02*
X99966438Y-48126054D01*
%TO.N,TX*%
X104531004Y-43768996D02*
X104531004Y-45580551D01*
X105900000Y-43393250D02*
X104906750Y-43393250D01*
%TO.N,IO3*%
X99966438Y-48126054D02*
X99998744Y-48093748D01*
%TO.N,TX*%
X101446858Y-47644237D02*
X100998246Y-48092849D01*
X104906750Y-43393250D02*
X104531004Y-43768996D01*
X102467318Y-47644237D02*
X101446858Y-47644237D01*
%TO.N,IO1*%
X97600000Y-49093250D02*
X97600000Y-48400000D01*
X97750000Y-48250000D02*
G75*
G03*
X97600000Y-48400000I0J-150000D01*
G01*
%TO.N,EN*%
X94100000Y-45793250D02*
X94455772Y-45793250D01*
X94100000Y-41793250D02*
X94893250Y-41793250D01*
X94893250Y-41793250D02*
X94900000Y-41800000D01*
X94824511Y-41867761D02*
X94824511Y-45424511D01*
X94824511Y-45424511D02*
G75*
G02*
X94455772Y-45793250I-368738J-1D01*
G01*
%TD*%
%TA.AperFunction,Conductor*%
%TO.N,GND*%
G36*
X106146121Y-48909252D02*
G01*
X106192614Y-48962908D01*
X106204000Y-49015250D01*
X106204000Y-49983134D01*
X106208475Y-49998373D01*
X106209865Y-49999578D01*
X106217548Y-50001249D01*
X106220000Y-50001249D01*
X106227009Y-50003307D01*
X106230783Y-50004128D01*
X106230724Y-50004398D01*
X106288121Y-50021251D01*
X106334614Y-50074907D01*
X106346000Y-50127249D01*
X106346000Y-57720000D01*
X106325998Y-57788121D01*
X106272342Y-57834614D01*
X106220000Y-57846000D01*
X104100687Y-57846000D01*
X104032566Y-57825998D01*
X103986073Y-57772342D01*
X103975969Y-57702068D01*
X104005463Y-57637488D01*
X104069033Y-57598843D01*
X104068945Y-57598584D01*
X104145309Y-57572662D01*
X104255693Y-57535192D01*
X104255698Y-57535190D01*
X104261165Y-57533334D01*
X104438276Y-57434147D01*
X104500934Y-57382035D01*
X104589913Y-57308031D01*
X104594345Y-57304345D01*
X104724147Y-57148276D01*
X104823334Y-56971165D01*
X104823532Y-56971276D01*
X104867781Y-56919222D01*
X104925920Y-56899049D01*
X104936259Y-56898144D01*
X105042723Y-56888830D01*
X105048036Y-56887406D01*
X105048038Y-56887406D01*
X105195193Y-56847976D01*
X105195195Y-56847975D01*
X105200503Y-56846553D01*
X105333760Y-56784414D01*
X105343563Y-56779843D01*
X105343566Y-56779841D01*
X105348544Y-56777520D01*
X105482349Y-56683829D01*
X105597851Y-56568327D01*
X105691542Y-56434522D01*
X105760575Y-56286481D01*
X105802852Y-56128701D01*
X105810121Y-56045616D01*
X105811489Y-56036543D01*
X105813040Y-56032127D01*
X105813522Y-56026562D01*
X105813522Y-56012249D01*
X105814001Y-56001270D01*
X105815268Y-55986784D01*
X105816337Y-55978075D01*
X105818253Y-55965977D01*
X105815073Y-55945899D01*
X105813522Y-55926189D01*
X105813522Y-50273809D01*
X105815073Y-50254098D01*
X105816702Y-50243813D01*
X105818253Y-50234021D01*
X105815451Y-50216328D01*
X105814507Y-50208970D01*
X105809114Y-50154220D01*
X105803197Y-50094147D01*
X105796945Y-50073535D01*
X105764194Y-49965572D01*
X105762397Y-49959648D01*
X105755447Y-49946644D01*
X105710878Y-49863262D01*
X105696000Y-49803866D01*
X105696000Y-49015250D01*
X105716002Y-48947129D01*
X105769658Y-48900636D01*
X105822000Y-48889250D01*
X106078000Y-48889250D01*
X106146121Y-48909252D01*
G37*
%TD.AperFunction*%
%TA.AperFunction,Conductor*%
G36*
X94896581Y-39009252D02*
G01*
X94943074Y-39062908D01*
X94949356Y-39079753D01*
X94952474Y-39090374D01*
X94953865Y-39091579D01*
X94961548Y-39093250D01*
X105033885Y-39093250D01*
X105049124Y-39088775D01*
X105051292Y-39086274D01*
X105084117Y-39026156D01*
X105146429Y-38992130D01*
X105173214Y-38989250D01*
X106078000Y-38989250D01*
X106146121Y-39009252D01*
X106192614Y-39062908D01*
X106204000Y-39115250D01*
X106204000Y-39371250D01*
X106183998Y-39439371D01*
X106130342Y-39485864D01*
X106078000Y-39497250D01*
X105070388Y-39497250D01*
X105043605Y-39494371D01*
X105038452Y-39493250D01*
X105018115Y-39493250D01*
X105002876Y-39497725D01*
X105001671Y-39499115D01*
X105000000Y-39506798D01*
X105000000Y-40183134D01*
X105004475Y-40198373D01*
X105005865Y-40199578D01*
X105013548Y-40201249D01*
X105044669Y-40201249D01*
X105051488Y-40200880D01*
X105105895Y-40194970D01*
X105175777Y-40207499D01*
X105227792Y-40255820D01*
X105245501Y-40320232D01*
X105245501Y-40418316D01*
X105260266Y-40492551D01*
X105267161Y-40502871D01*
X105267162Y-40502872D01*
X105280777Y-40523248D01*
X105301992Y-40591001D01*
X105280777Y-40663252D01*
X105267161Y-40683629D01*
X105267160Y-40683632D01*
X105260266Y-40693949D01*
X105245500Y-40768183D01*
X105245501Y-41218316D01*
X105252612Y-41254068D01*
X105254521Y-41263664D01*
X105260266Y-41292551D01*
X105267161Y-41302871D01*
X105267162Y-41302872D01*
X105280777Y-41323248D01*
X105301992Y-41391001D01*
X105280777Y-41463252D01*
X105267161Y-41483629D01*
X105267160Y-41483632D01*
X105260266Y-41493949D01*
X105245500Y-41568183D01*
X105245501Y-42018316D01*
X105260266Y-42092551D01*
X105267161Y-42102871D01*
X105267162Y-42102872D01*
X105280777Y-42123248D01*
X105301992Y-42191001D01*
X105280777Y-42263252D01*
X105267161Y-42283629D01*
X105267160Y-42283632D01*
X105260266Y-42293949D01*
X105245500Y-42368183D01*
X105245501Y-42818316D01*
X105254423Y-42863172D01*
X105248093Y-42933886D01*
X105204537Y-42989952D01*
X105130843Y-43013750D01*
X104960670Y-43013750D01*
X104936722Y-43011201D01*
X104935057Y-43011122D01*
X104924874Y-43008930D01*
X104914533Y-43010154D01*
X104891527Y-43012877D01*
X104885596Y-43013227D01*
X104885604Y-43013322D01*
X104880426Y-43013750D01*
X104875226Y-43013750D01*
X104870097Y-43014604D01*
X104870094Y-43014604D01*
X104856185Y-43016919D01*
X104850307Y-43017756D01*
X104809749Y-43022556D01*
X104809748Y-43022556D01*
X104799409Y-43023780D01*
X104791157Y-43027743D01*
X104782124Y-43029246D01*
X104772955Y-43034193D01*
X104772953Y-43034194D01*
X104737018Y-43053584D01*
X104731725Y-43056281D01*
X104692668Y-43075035D01*
X104692664Y-43075038D01*
X104685518Y-43078469D01*
X104681242Y-43082064D01*
X104679319Y-43083987D01*
X104677387Y-43085759D01*
X104677308Y-43085802D01*
X104677195Y-43085678D01*
X104676655Y-43086154D01*
X104670936Y-43089240D01*
X104663869Y-43096885D01*
X104634334Y-43128836D01*
X104630904Y-43132402D01*
X104300788Y-43462518D01*
X104282040Y-43477660D01*
X104280815Y-43478775D01*
X104272064Y-43484425D01*
X104265617Y-43492603D01*
X104265615Y-43492605D01*
X104251275Y-43510796D01*
X104247329Y-43515237D01*
X104247402Y-43515299D01*
X104244043Y-43519263D01*
X104240366Y-43522940D01*
X104229112Y-43538688D01*
X104225606Y-43543358D01*
X104193848Y-43583643D01*
X104190816Y-43592277D01*
X104185490Y-43599730D01*
X104182505Y-43609711D01*
X104170803Y-43648840D01*
X104168968Y-43654488D01*
X104151986Y-43702847D01*
X104151504Y-43708412D01*
X104151504Y-43711120D01*
X104151390Y-43713754D01*
X104151361Y-43713852D01*
X104151197Y-43713845D01*
X104151153Y-43714549D01*
X104149291Y-43720774D01*
X104149700Y-43731179D01*
X104151407Y-43774631D01*
X104151504Y-43779578D01*
X104151504Y-45371167D01*
X104131502Y-45439288D01*
X104114599Y-45460262D01*
X103423095Y-46151766D01*
X103360783Y-46185792D01*
X103289968Y-46180727D01*
X103233132Y-46138180D01*
X103208321Y-46071660D01*
X103208000Y-46062671D01*
X103207999Y-45398581D01*
X103207629Y-45391760D01*
X103202105Y-45340898D01*
X103198478Y-45325644D01*
X103160741Y-45224979D01*
X103155558Y-45154172D01*
X103160741Y-45136521D01*
X103198478Y-45035859D01*
X103202105Y-45020601D01*
X103207631Y-44969736D01*
X103208000Y-44962922D01*
X103208000Y-44465365D01*
X103203525Y-44450126D01*
X103202135Y-44448921D01*
X103194452Y-44447250D01*
X102247115Y-44447250D01*
X102231876Y-44451725D01*
X102230671Y-44453115D01*
X102229000Y-44460798D01*
X102229000Y-46296250D01*
X102208998Y-46364371D01*
X102155342Y-46410864D01*
X102103000Y-46422250D01*
X98297115Y-46422250D01*
X98281876Y-46426725D01*
X98280671Y-46428115D01*
X98279000Y-46435798D01*
X98279000Y-47383134D01*
X98283475Y-47398373D01*
X98284865Y-47399578D01*
X98292548Y-47401249D01*
X98794669Y-47401249D01*
X98801490Y-47400879D01*
X98852352Y-47395355D01*
X98867606Y-47391728D01*
X98968271Y-47353991D01*
X99039078Y-47348808D01*
X99056729Y-47353991D01*
X99157391Y-47391728D01*
X99172649Y-47395355D01*
X99223514Y-47400881D01*
X99230328Y-47401250D01*
X99460786Y-47401250D01*
X99528907Y-47421252D01*
X99575400Y-47474908D01*
X99585504Y-47545182D01*
X99556010Y-47609762D01*
X99543616Y-47622199D01*
X99508783Y-47652586D01*
X99417694Y-47782192D01*
X99414935Y-47789268D01*
X99414932Y-47789274D01*
X99390597Y-47851692D01*
X99347217Y-47907894D01*
X99337806Y-47914101D01*
X99321558Y-47923804D01*
X99321552Y-47923808D01*
X99317269Y-47926366D01*
X99172931Y-48047160D01*
X99169657Y-48050927D01*
X99169656Y-48050928D01*
X99052913Y-48185251D01*
X99049465Y-48189218D01*
X98949965Y-48348981D01*
X98948028Y-48353582D01*
X98948023Y-48353591D01*
X98922680Y-48413779D01*
X98876558Y-48469647D01*
X98870003Y-48474027D01*
X98802250Y-48495242D01*
X98729998Y-48474027D01*
X98709621Y-48460411D01*
X98709618Y-48460410D01*
X98699301Y-48453516D01*
X98625067Y-48438750D01*
X98529466Y-48438750D01*
X98461345Y-48418748D01*
X98414852Y-48365092D01*
X98404723Y-48294996D01*
X98404749Y-48294818D01*
X98409162Y-48263807D01*
X98409307Y-48250000D01*
X98408023Y-48239385D01*
X98401271Y-48183595D01*
X98390276Y-48092733D01*
X98334280Y-47944546D01*
X98292413Y-47883629D01*
X98248855Y-47820251D01*
X98248854Y-47820249D01*
X98244553Y-47813992D01*
X98215266Y-47787898D01*
X98178561Y-47755196D01*
X98126275Y-47708611D01*
X98118889Y-47704700D01*
X98029449Y-47657344D01*
X97986274Y-47634484D01*
X97836634Y-47596897D01*
X97775439Y-47560902D01*
X97743418Y-47497537D01*
X97750738Y-47426918D01*
X97768888Y-47397411D01*
X97771000Y-47387702D01*
X97771000Y-46440365D01*
X97766525Y-46425126D01*
X97765135Y-46423921D01*
X97757452Y-46422250D01*
X96810116Y-46422250D01*
X96794877Y-46426725D01*
X96793672Y-46428115D01*
X96792001Y-46435798D01*
X96792001Y-46937919D01*
X96792371Y-46944740D01*
X96797895Y-46995602D01*
X96801521Y-47010854D01*
X96846676Y-47131304D01*
X96855214Y-47146899D01*
X96931715Y-47248974D01*
X96944276Y-47261535D01*
X97046351Y-47338036D01*
X97061946Y-47346574D01*
X97182394Y-47391728D01*
X97197649Y-47395355D01*
X97248514Y-47400881D01*
X97255328Y-47401250D01*
X97448497Y-47401250D01*
X97516618Y-47421252D01*
X97563111Y-47474908D01*
X97573215Y-47545182D01*
X97543721Y-47609762D01*
X97506288Y-47639215D01*
X97379414Y-47704700D01*
X97260039Y-47808838D01*
X97168950Y-47938444D01*
X97111406Y-48086037D01*
X97110414Y-48093571D01*
X97110296Y-48094031D01*
X97073983Y-48155038D01*
X97023752Y-48183595D01*
X97002876Y-48189725D01*
X97001671Y-48191115D01*
X97000000Y-48198798D01*
X97000000Y-49167250D01*
X96979998Y-49235371D01*
X96926342Y-49281864D01*
X96874000Y-49293250D01*
X96726000Y-49293250D01*
X96657879Y-49273248D01*
X96611386Y-49219592D01*
X96600000Y-49167250D01*
X96600000Y-48203366D01*
X96595525Y-48188127D01*
X96594135Y-48186922D01*
X96586452Y-48185251D01*
X96555331Y-48185251D01*
X96548510Y-48185621D01*
X96497648Y-48191145D01*
X96482396Y-48194771D01*
X96361946Y-48239926D01*
X96346351Y-48248464D01*
X96244276Y-48324965D01*
X96231719Y-48337522D01*
X96193652Y-48388315D01*
X96136792Y-48430830D01*
X96092825Y-48438750D01*
X95795059Y-48438751D01*
X95774934Y-48438751D01*
X95739182Y-48445862D01*
X95712874Y-48451094D01*
X95712872Y-48451095D01*
X95700699Y-48453516D01*
X95690379Y-48460411D01*
X95690378Y-48460412D01*
X95670002Y-48474027D01*
X95602249Y-48495242D01*
X95529998Y-48474027D01*
X95509621Y-48460411D01*
X95509618Y-48460410D01*
X95499301Y-48453516D01*
X95425067Y-48438750D01*
X95403802Y-48438750D01*
X95099712Y-48438751D01*
X95031593Y-48418749D01*
X95017201Y-48407976D01*
X95002135Y-48394921D01*
X94994452Y-48393250D01*
X94322115Y-48393250D01*
X94306876Y-48397725D01*
X94305671Y-48399115D01*
X94304000Y-48406798D01*
X94304000Y-49983134D01*
X94308475Y-49998373D01*
X94309865Y-49999578D01*
X94317548Y-50001249D01*
X94444669Y-50001249D01*
X94451490Y-50000879D01*
X94502352Y-49995355D01*
X94517604Y-49991729D01*
X94638054Y-49946574D01*
X94653649Y-49938036D01*
X94755724Y-49861535D01*
X94768285Y-49848974D01*
X94813530Y-49788604D01*
X94870389Y-49746089D01*
X94938937Y-49740590D01*
X94974933Y-49747750D01*
X95199963Y-49747750D01*
X95425066Y-49747749D01*
X95461060Y-49740590D01*
X95487126Y-49735406D01*
X95487128Y-49735405D01*
X95499301Y-49732984D01*
X95509621Y-49726089D01*
X95509622Y-49726088D01*
X95529998Y-49712473D01*
X95597751Y-49691258D01*
X95670002Y-49712473D01*
X95690379Y-49726089D01*
X95690382Y-49726090D01*
X95700699Y-49732984D01*
X95774933Y-49747750D01*
X95795051Y-49747750D01*
X96092825Y-49747749D01*
X96160944Y-49767751D01*
X96193651Y-49798185D01*
X96199086Y-49805437D01*
X96223933Y-49871943D01*
X96208880Y-49941326D01*
X96158705Y-49991555D01*
X96098259Y-50007001D01*
X95602905Y-50007001D01*
X95596386Y-50007338D01*
X95500794Y-50017257D01*
X95487400Y-50020149D01*
X95333216Y-50071588D01*
X95320038Y-50077761D01*
X95182193Y-50163063D01*
X95170792Y-50172099D01*
X95056261Y-50286829D01*
X95047249Y-50298240D01*
X94962184Y-50436243D01*
X94956037Y-50449424D01*
X94904862Y-50603710D01*
X94901995Y-50617086D01*
X94892328Y-50711438D01*
X94892000Y-50717855D01*
X94892000Y-51167885D01*
X94896475Y-51183124D01*
X94897865Y-51184329D01*
X94905548Y-51186000D01*
X96378000Y-51186000D01*
X96446121Y-51206002D01*
X96492614Y-51259658D01*
X96504000Y-51312000D01*
X96504000Y-51568000D01*
X96483998Y-51636121D01*
X96430342Y-51682614D01*
X96378000Y-51694000D01*
X94910116Y-51694000D01*
X94894877Y-51698475D01*
X94893672Y-51699865D01*
X94892001Y-51707548D01*
X94892001Y-52162095D01*
X94892338Y-52168614D01*
X94902257Y-52264206D01*
X94905149Y-52277600D01*
X94956588Y-52431784D01*
X94962761Y-52444962D01*
X95048063Y-52582807D01*
X95057099Y-52594208D01*
X95171829Y-52708739D01*
X95188985Y-52722288D01*
X95187606Y-52724035D01*
X95227838Y-52768731D01*
X95239268Y-52838801D01*
X95211000Y-52903928D01*
X95184237Y-52927993D01*
X95156516Y-52946516D01*
X95100266Y-53030699D01*
X95085500Y-53104933D01*
X95085501Y-54855066D01*
X95100266Y-54929301D01*
X95156516Y-55013484D01*
X95240699Y-55069734D01*
X95314933Y-55084500D01*
X95697829Y-55084500D01*
X95765950Y-55104502D01*
X95812443Y-55158158D01*
X95818824Y-55175339D01*
X95819306Y-55176997D01*
X95820530Y-55187341D01*
X95824493Y-55195593D01*
X95825996Y-55204626D01*
X95830943Y-55213795D01*
X95830944Y-55213797D01*
X95850334Y-55249732D01*
X95853031Y-55255024D01*
X95873523Y-55297701D01*
X95873524Y-55297703D01*
X95875219Y-55301233D01*
X95874650Y-55301506D01*
X95893168Y-55364064D01*
X95873316Y-55432228D01*
X95819762Y-55478839D01*
X95810779Y-55482553D01*
X95756693Y-55502507D01*
X95712463Y-55518824D01*
X95538010Y-55622612D01*
X95533670Y-55626418D01*
X95533666Y-55626421D01*
X95401278Y-55742523D01*
X95385392Y-55756455D01*
X95259720Y-55915869D01*
X95257031Y-55920980D01*
X95257029Y-55920983D01*
X95218543Y-55994133D01*
X95165203Y-56095515D01*
X95105007Y-56289378D01*
X95081148Y-56490964D01*
X95094424Y-56693522D01*
X95095845Y-56699118D01*
X95095846Y-56699123D01*
X95115757Y-56777520D01*
X95144392Y-56890269D01*
X95146809Y-56895512D01*
X95181737Y-56971276D01*
X95229377Y-57074616D01*
X95346533Y-57240389D01*
X95491938Y-57382035D01*
X95660720Y-57494812D01*
X95666023Y-57497090D01*
X95666026Y-57497092D01*
X95754707Y-57535192D01*
X95847228Y-57574942D01*
X95921524Y-57591753D01*
X95945183Y-57597107D01*
X96007210Y-57631650D01*
X96040714Y-57694243D01*
X96035060Y-57765014D01*
X95992041Y-57821494D01*
X95925316Y-57845749D01*
X95917375Y-57846000D01*
X93780000Y-57846000D01*
X93711879Y-57825998D01*
X93665386Y-57772342D01*
X93654000Y-57720000D01*
X93654000Y-50127250D01*
X93674002Y-50059129D01*
X93727658Y-50012636D01*
X93771838Y-50003026D01*
X93793124Y-49996775D01*
X93794329Y-49995385D01*
X93796000Y-49987702D01*
X93796000Y-48364790D01*
X93816002Y-48296669D01*
X93869658Y-48250176D01*
X93886503Y-48243894D01*
X93897124Y-48240776D01*
X93898329Y-48239385D01*
X93900000Y-48231702D01*
X93900000Y-48119250D01*
X93920002Y-48051129D01*
X93973658Y-48004636D01*
X94026000Y-47993250D01*
X94989884Y-47993250D01*
X95005123Y-47988775D01*
X95006328Y-47987385D01*
X95007999Y-47979702D01*
X95007999Y-47948581D01*
X95007629Y-47941760D01*
X95002105Y-47890898D01*
X94998479Y-47875646D01*
X94953324Y-47755196D01*
X94944786Y-47739601D01*
X94868285Y-47637526D01*
X94855728Y-47624969D01*
X94804935Y-47586902D01*
X94762420Y-47530042D01*
X94754500Y-47486075D01*
X94754499Y-47174373D01*
X94754499Y-47168184D01*
X94745756Y-47124224D01*
X94742156Y-47106124D01*
X94742155Y-47106122D01*
X94739734Y-47093949D01*
X94719223Y-47063252D01*
X94698008Y-46995499D01*
X94719223Y-46923248D01*
X94732839Y-46902871D01*
X94732840Y-46902868D01*
X94739734Y-46892551D01*
X94754500Y-46818317D01*
X94754499Y-46368184D01*
X94739734Y-46293949D01*
X94732839Y-46283630D01*
X94732837Y-46283625D01*
X94731893Y-46282213D01*
X94730782Y-46278664D01*
X94728089Y-46272163D01*
X94728671Y-46271922D01*
X94710678Y-46214460D01*
X94729461Y-46145994D01*
X94777261Y-46101091D01*
X94873483Y-46049659D01*
X94987417Y-45956156D01*
X95036675Y-45896135D01*
X96792000Y-45896135D01*
X96796475Y-45911374D01*
X96797865Y-45912579D01*
X96805548Y-45914250D01*
X97752885Y-45914250D01*
X97768124Y-45909775D01*
X97769329Y-45908385D01*
X97771000Y-45900702D01*
X97771000Y-45896135D01*
X98279000Y-45896135D01*
X98283475Y-45911374D01*
X98284865Y-45912579D01*
X98292548Y-45914250D01*
X99727885Y-45914250D01*
X99743124Y-45909775D01*
X99744329Y-45908385D01*
X99746000Y-45900702D01*
X99746000Y-45896135D01*
X100254000Y-45896135D01*
X100258475Y-45911374D01*
X100259865Y-45912579D01*
X100267548Y-45914250D01*
X101702885Y-45914250D01*
X101718124Y-45909775D01*
X101719329Y-45908385D01*
X101721000Y-45900702D01*
X101721000Y-44465365D01*
X101716525Y-44450126D01*
X101715135Y-44448921D01*
X101707452Y-44447250D01*
X100272115Y-44447250D01*
X100256876Y-44451725D01*
X100255671Y-44453115D01*
X100254000Y-44460798D01*
X100254000Y-45896135D01*
X99746000Y-45896135D01*
X99746000Y-44465365D01*
X99741525Y-44450126D01*
X99740135Y-44448921D01*
X99732452Y-44447250D01*
X98297115Y-44447250D01*
X98281876Y-44451725D01*
X98280671Y-44453115D01*
X98279000Y-44460798D01*
X98279000Y-45896135D01*
X97771000Y-45896135D01*
X97771000Y-44465365D01*
X97766525Y-44450126D01*
X97765135Y-44448921D01*
X97757452Y-44447250D01*
X96810116Y-44447250D01*
X96794877Y-44451725D01*
X96793672Y-44453115D01*
X96792001Y-44460798D01*
X96792001Y-44962919D01*
X96792371Y-44969740D01*
X96797895Y-45020602D01*
X96801522Y-45035856D01*
X96839259Y-45136521D01*
X96844442Y-45207328D01*
X96839259Y-45224979D01*
X96801522Y-45325641D01*
X96797895Y-45340899D01*
X96792369Y-45391764D01*
X96792000Y-45398578D01*
X96792000Y-45896135D01*
X95036675Y-45896135D01*
X95080920Y-45842222D01*
X95150400Y-45712235D01*
X95193185Y-45571191D01*
X95199236Y-45509747D01*
X95201172Y-45497372D01*
X95203529Y-45490660D01*
X95204011Y-45485095D01*
X95204011Y-45467449D01*
X95204618Y-45455096D01*
X95205440Y-45446752D01*
X95206384Y-45439394D01*
X95206401Y-45439288D01*
X95208742Y-45424510D01*
X95205562Y-45404432D01*
X95204011Y-45384722D01*
X95204011Y-43921135D01*
X96792000Y-43921135D01*
X96796475Y-43936374D01*
X96797865Y-43937579D01*
X96805548Y-43939250D01*
X97752885Y-43939250D01*
X97768124Y-43934775D01*
X97769329Y-43933385D01*
X97771000Y-43925702D01*
X97771000Y-43921135D01*
X98279000Y-43921135D01*
X98283475Y-43936374D01*
X98284865Y-43937579D01*
X98292548Y-43939250D01*
X99727885Y-43939250D01*
X99743124Y-43934775D01*
X99744329Y-43933385D01*
X99746000Y-43925702D01*
X99746000Y-43921135D01*
X100254000Y-43921135D01*
X100258475Y-43936374D01*
X100259865Y-43937579D01*
X100267548Y-43939250D01*
X101702885Y-43939250D01*
X101718124Y-43934775D01*
X101719329Y-43933385D01*
X101721000Y-43925702D01*
X101721000Y-43921135D01*
X102229000Y-43921135D01*
X102233475Y-43936374D01*
X102234865Y-43937579D01*
X102242548Y-43939250D01*
X103189884Y-43939250D01*
X103205123Y-43934775D01*
X103206328Y-43933385D01*
X103207999Y-43925702D01*
X103207999Y-43423581D01*
X103207629Y-43416760D01*
X103202105Y-43365898D01*
X103198478Y-43350644D01*
X103160741Y-43249979D01*
X103155558Y-43179172D01*
X103160741Y-43161521D01*
X103198478Y-43060859D01*
X103202105Y-43045601D01*
X103207631Y-42994736D01*
X103208000Y-42987922D01*
X103208000Y-42490365D01*
X103203525Y-42475126D01*
X103202135Y-42473921D01*
X103194452Y-42472250D01*
X102247115Y-42472250D01*
X102231876Y-42476725D01*
X102230671Y-42478115D01*
X102229000Y-42485798D01*
X102229000Y-43921135D01*
X101721000Y-43921135D01*
X101721000Y-42490365D01*
X101716525Y-42475126D01*
X101715135Y-42473921D01*
X101707452Y-42472250D01*
X100272115Y-42472250D01*
X100256876Y-42476725D01*
X100255671Y-42478115D01*
X100254000Y-42485798D01*
X100254000Y-43921135D01*
X99746000Y-43921135D01*
X99746000Y-42490365D01*
X99741525Y-42475126D01*
X99740135Y-42473921D01*
X99732452Y-42472250D01*
X98297115Y-42472250D01*
X98281876Y-42476725D01*
X98280671Y-42478115D01*
X98279000Y-42485798D01*
X98279000Y-43921135D01*
X97771000Y-43921135D01*
X97771000Y-42490365D01*
X97766525Y-42475126D01*
X97765135Y-42473921D01*
X97757452Y-42472250D01*
X96810115Y-42472250D01*
X96794876Y-42476725D01*
X96793671Y-42478115D01*
X96792000Y-42485798D01*
X96792001Y-42987919D01*
X96792371Y-42994740D01*
X96797895Y-43045602D01*
X96801522Y-43060856D01*
X96839259Y-43161521D01*
X96844442Y-43232328D01*
X96839259Y-43249979D01*
X96801522Y-43350641D01*
X96797895Y-43365899D01*
X96792369Y-43416764D01*
X96792000Y-43423578D01*
X96792000Y-43921135D01*
X95204011Y-43921135D01*
X95204011Y-42456041D01*
X95224013Y-42387920D01*
X95259585Y-42351801D01*
X95264855Y-42349151D01*
X95385314Y-42246269D01*
X95477755Y-42117624D01*
X95536842Y-41970641D01*
X95539242Y-41953777D01*
X96805741Y-41953777D01*
X96806842Y-41960569D01*
X96819808Y-41964250D01*
X97752885Y-41964250D01*
X97768124Y-41959775D01*
X97769329Y-41958385D01*
X97771000Y-41950702D01*
X97771000Y-41946135D01*
X98279000Y-41946135D01*
X98283475Y-41961374D01*
X98284865Y-41962579D01*
X98292548Y-41964250D01*
X99727885Y-41964250D01*
X99743124Y-41959775D01*
X99744329Y-41958385D01*
X99746000Y-41950702D01*
X99746000Y-41946135D01*
X100254000Y-41946135D01*
X100258475Y-41961374D01*
X100259865Y-41962579D01*
X100267548Y-41964250D01*
X101702885Y-41964250D01*
X101718124Y-41959775D01*
X101719329Y-41958385D01*
X101721000Y-41950702D01*
X101721000Y-41946135D01*
X102229000Y-41946135D01*
X102233475Y-41961374D01*
X102234865Y-41962579D01*
X102242548Y-41964250D01*
X103189884Y-41964250D01*
X103205123Y-41959775D01*
X103206328Y-41958385D01*
X103207999Y-41950702D01*
X103207999Y-41448581D01*
X103207629Y-41441760D01*
X103202105Y-41390898D01*
X103198479Y-41375646D01*
X103153324Y-41255196D01*
X103144786Y-41239601D01*
X103068285Y-41137526D01*
X103055724Y-41124965D01*
X102953649Y-41048464D01*
X102938054Y-41039926D01*
X102817606Y-40994772D01*
X102802351Y-40991145D01*
X102751486Y-40985619D01*
X102744672Y-40985250D01*
X102247115Y-40985250D01*
X102231876Y-40989725D01*
X102230671Y-40991115D01*
X102229000Y-40998798D01*
X102229000Y-41946135D01*
X101721000Y-41946135D01*
X101721000Y-41003366D01*
X101716525Y-40988127D01*
X101715135Y-40986922D01*
X101707452Y-40985251D01*
X101205331Y-40985251D01*
X101198510Y-40985621D01*
X101147648Y-40991145D01*
X101132394Y-40994772D01*
X101031729Y-41032509D01*
X100960922Y-41037692D01*
X100943271Y-41032509D01*
X100842609Y-40994772D01*
X100827351Y-40991145D01*
X100776486Y-40985619D01*
X100769672Y-40985250D01*
X100272115Y-40985250D01*
X100256876Y-40989725D01*
X100255671Y-40991115D01*
X100254000Y-40998798D01*
X100254000Y-41946135D01*
X99746000Y-41946135D01*
X99746000Y-41003366D01*
X99741525Y-40988127D01*
X99740135Y-40986922D01*
X99732452Y-40985251D01*
X99230331Y-40985251D01*
X99223510Y-40985621D01*
X99172648Y-40991145D01*
X99157394Y-40994772D01*
X99056729Y-41032509D01*
X98985922Y-41037692D01*
X98968271Y-41032509D01*
X98867609Y-40994772D01*
X98852351Y-40991145D01*
X98801486Y-40985619D01*
X98794673Y-40985250D01*
X98297115Y-40985251D01*
X98281876Y-40989726D01*
X98280671Y-40991116D01*
X98279000Y-40998799D01*
X98279000Y-41946135D01*
X97771000Y-41946135D01*
X97771000Y-41013741D01*
X97766928Y-40999872D01*
X97760771Y-40998934D01*
X97759075Y-40999385D01*
X97640257Y-41048723D01*
X97625824Y-41057123D01*
X97567843Y-41102179D01*
X97561956Y-41107374D01*
X96914164Y-41755166D01*
X96908899Y-41761140D01*
X96863418Y-41819826D01*
X96855024Y-41834298D01*
X96805892Y-41953206D01*
X96805741Y-41953777D01*
X95539242Y-41953777D01*
X95556246Y-41834298D01*
X95558581Y-41817891D01*
X95558581Y-41817888D01*
X95559162Y-41813807D01*
X95559307Y-41800000D01*
X95540276Y-41642733D01*
X95484280Y-41494546D01*
X95426013Y-41409766D01*
X95398855Y-41370251D01*
X95398854Y-41370249D01*
X95394553Y-41363992D01*
X95276275Y-41258611D01*
X95268889Y-41254700D01*
X95142988Y-41188039D01*
X95142989Y-41188039D01*
X95136274Y-41184484D01*
X94982633Y-41145892D01*
X94975034Y-41145852D01*
X94975033Y-41145852D01*
X94909181Y-41145507D01*
X94824221Y-41145062D01*
X94816841Y-41146834D01*
X94816839Y-41146834D01*
X94769150Y-41158283D01*
X94670184Y-41182043D01*
X94663711Y-41185384D01*
X94619996Y-41193250D01*
X94026000Y-41193250D01*
X93957879Y-41173248D01*
X93911386Y-41119592D01*
X93900000Y-41067250D01*
X93900000Y-40775135D01*
X94300000Y-40775135D01*
X94304475Y-40790374D01*
X94305865Y-40791579D01*
X94313548Y-40793250D01*
X94989884Y-40793250D01*
X95005123Y-40788775D01*
X95006328Y-40787385D01*
X95007999Y-40779702D01*
X95007999Y-40748581D01*
X95007629Y-40741760D01*
X95002105Y-40690898D01*
X94998479Y-40675647D01*
X94984171Y-40637480D01*
X94978988Y-40566673D01*
X94984171Y-40549020D01*
X94998478Y-40510856D01*
X95002105Y-40495601D01*
X95007631Y-40444736D01*
X95008000Y-40437922D01*
X95008000Y-40411365D01*
X95003525Y-40396126D01*
X95002135Y-40394921D01*
X94994452Y-40393250D01*
X94318115Y-40393250D01*
X94302876Y-40397725D01*
X94301671Y-40399115D01*
X94300000Y-40406798D01*
X94300000Y-40775135D01*
X93900000Y-40775135D01*
X93900000Y-40183134D01*
X95400000Y-40183134D01*
X95404475Y-40198373D01*
X95405865Y-40199578D01*
X95413548Y-40201249D01*
X95444669Y-40201249D01*
X95451490Y-40200879D01*
X95502352Y-40195355D01*
X95517603Y-40191729D01*
X95555770Y-40177421D01*
X95626577Y-40172238D01*
X95644230Y-40177421D01*
X95682394Y-40191728D01*
X95697649Y-40195355D01*
X95748514Y-40200881D01*
X95755328Y-40201250D01*
X95781885Y-40201250D01*
X95797124Y-40196775D01*
X95798329Y-40195385D01*
X95800000Y-40187702D01*
X95800000Y-40183134D01*
X96200000Y-40183134D01*
X96204475Y-40198373D01*
X96205865Y-40199578D01*
X96213548Y-40201249D01*
X96244669Y-40201249D01*
X96251490Y-40200879D01*
X96302352Y-40195355D01*
X96317603Y-40191729D01*
X96355770Y-40177421D01*
X96426577Y-40172238D01*
X96444230Y-40177421D01*
X96482394Y-40191728D01*
X96497649Y-40195355D01*
X96548514Y-40200881D01*
X96555328Y-40201250D01*
X96581885Y-40201250D01*
X96597124Y-40196775D01*
X96598329Y-40195385D01*
X96600000Y-40187702D01*
X96600000Y-40183134D01*
X97000000Y-40183134D01*
X97004475Y-40198373D01*
X97005865Y-40199578D01*
X97013548Y-40201249D01*
X97044669Y-40201249D01*
X97051490Y-40200879D01*
X97102352Y-40195355D01*
X97117603Y-40191729D01*
X97155770Y-40177421D01*
X97226577Y-40172238D01*
X97244230Y-40177421D01*
X97282394Y-40191728D01*
X97297649Y-40195355D01*
X97348514Y-40200881D01*
X97355328Y-40201250D01*
X97381885Y-40201250D01*
X97397124Y-40196775D01*
X97398329Y-40195385D01*
X97400000Y-40187702D01*
X97400000Y-40183134D01*
X97800000Y-40183134D01*
X97804475Y-40198373D01*
X97805865Y-40199578D01*
X97813548Y-40201249D01*
X97844669Y-40201249D01*
X97851490Y-40200879D01*
X97902352Y-40195355D01*
X97917603Y-40191729D01*
X97955770Y-40177421D01*
X98026577Y-40172238D01*
X98044230Y-40177421D01*
X98082394Y-40191728D01*
X98097649Y-40195355D01*
X98148514Y-40200881D01*
X98155328Y-40201250D01*
X98181885Y-40201250D01*
X98197124Y-40196775D01*
X98198329Y-40195385D01*
X98200000Y-40187702D01*
X98200000Y-40183134D01*
X98600000Y-40183134D01*
X98604475Y-40198373D01*
X98605865Y-40199578D01*
X98613548Y-40201249D01*
X98644669Y-40201249D01*
X98651490Y-40200879D01*
X98702352Y-40195355D01*
X98717603Y-40191729D01*
X98755770Y-40177421D01*
X98826577Y-40172238D01*
X98844230Y-40177421D01*
X98882394Y-40191728D01*
X98897649Y-40195355D01*
X98948514Y-40200881D01*
X98955328Y-40201250D01*
X98981885Y-40201250D01*
X98997124Y-40196775D01*
X98998329Y-40195385D01*
X99000000Y-40187702D01*
X99000000Y-40183134D01*
X99400000Y-40183134D01*
X99404475Y-40198373D01*
X99405865Y-40199578D01*
X99413548Y-40201249D01*
X99444669Y-40201249D01*
X99451490Y-40200879D01*
X99502352Y-40195355D01*
X99517603Y-40191729D01*
X99555770Y-40177421D01*
X99626577Y-40172238D01*
X99644230Y-40177421D01*
X99682394Y-40191728D01*
X99697649Y-40195355D01*
X99748514Y-40200881D01*
X99755328Y-40201250D01*
X99781885Y-40201250D01*
X99797124Y-40196775D01*
X99798329Y-40195385D01*
X99800000Y-40187702D01*
X99800000Y-40183134D01*
X100200000Y-40183134D01*
X100204475Y-40198373D01*
X100205865Y-40199578D01*
X100213548Y-40201249D01*
X100244669Y-40201249D01*
X100251490Y-40200879D01*
X100302352Y-40195355D01*
X100317603Y-40191729D01*
X100355770Y-40177421D01*
X100426577Y-40172238D01*
X100444230Y-40177421D01*
X100482394Y-40191728D01*
X100497649Y-40195355D01*
X100548514Y-40200881D01*
X100555328Y-40201250D01*
X100581885Y-40201250D01*
X100597124Y-40196775D01*
X100598329Y-40195385D01*
X100600000Y-40187702D01*
X100600000Y-40183134D01*
X101000000Y-40183134D01*
X101004475Y-40198373D01*
X101005865Y-40199578D01*
X101013548Y-40201249D01*
X101044669Y-40201249D01*
X101051490Y-40200879D01*
X101102352Y-40195355D01*
X101117603Y-40191729D01*
X101155770Y-40177421D01*
X101226577Y-40172238D01*
X101244230Y-40177421D01*
X101282394Y-40191728D01*
X101297649Y-40195355D01*
X101348514Y-40200881D01*
X101355328Y-40201250D01*
X101381885Y-40201250D01*
X101397124Y-40196775D01*
X101398329Y-40195385D01*
X101400000Y-40187702D01*
X101400000Y-40183134D01*
X101800000Y-40183134D01*
X101804475Y-40198373D01*
X101805865Y-40199578D01*
X101813548Y-40201249D01*
X101844669Y-40201249D01*
X101851490Y-40200879D01*
X101902352Y-40195355D01*
X101917603Y-40191729D01*
X101955770Y-40177421D01*
X102026577Y-40172238D01*
X102044230Y-40177421D01*
X102082394Y-40191728D01*
X102097649Y-40195355D01*
X102148514Y-40200881D01*
X102155328Y-40201250D01*
X102181885Y-40201250D01*
X102197124Y-40196775D01*
X102198329Y-40195385D01*
X102200000Y-40187702D01*
X102200000Y-40183134D01*
X102600000Y-40183134D01*
X102604475Y-40198373D01*
X102605865Y-40199578D01*
X102613548Y-40201249D01*
X102644669Y-40201249D01*
X102651490Y-40200879D01*
X102702352Y-40195355D01*
X102717603Y-40191729D01*
X102755770Y-40177421D01*
X102826577Y-40172238D01*
X102844230Y-40177421D01*
X102882394Y-40191728D01*
X102897649Y-40195355D01*
X102948514Y-40200881D01*
X102955328Y-40201250D01*
X102981885Y-40201250D01*
X102997124Y-40196775D01*
X102998329Y-40195385D01*
X103000000Y-40187702D01*
X103000000Y-40183134D01*
X103400000Y-40183134D01*
X103404475Y-40198373D01*
X103405865Y-40199578D01*
X103413548Y-40201249D01*
X103444669Y-40201249D01*
X103451490Y-40200879D01*
X103502352Y-40195355D01*
X103517603Y-40191729D01*
X103555770Y-40177421D01*
X103626577Y-40172238D01*
X103644230Y-40177421D01*
X103682394Y-40191728D01*
X103697649Y-40195355D01*
X103748514Y-40200881D01*
X103755328Y-40201250D01*
X103781885Y-40201250D01*
X103797124Y-40196775D01*
X103798329Y-40195385D01*
X103800000Y-40187702D01*
X103800000Y-40183134D01*
X104200000Y-40183134D01*
X104204475Y-40198373D01*
X104205865Y-40199578D01*
X104213548Y-40201249D01*
X104244669Y-40201249D01*
X104251490Y-40200879D01*
X104302352Y-40195355D01*
X104317603Y-40191729D01*
X104355770Y-40177421D01*
X104426577Y-40172238D01*
X104444230Y-40177421D01*
X104482394Y-40191728D01*
X104497649Y-40195355D01*
X104548514Y-40200881D01*
X104555328Y-40201250D01*
X104581885Y-40201250D01*
X104597124Y-40196775D01*
X104598329Y-40195385D01*
X104600000Y-40187702D01*
X104600000Y-39511365D01*
X104595525Y-39496126D01*
X104594135Y-39494921D01*
X104586452Y-39493250D01*
X104218115Y-39493250D01*
X104202876Y-39497725D01*
X104201671Y-39499115D01*
X104200000Y-39506798D01*
X104200000Y-40183134D01*
X103800000Y-40183134D01*
X103800000Y-39511365D01*
X103795525Y-39496126D01*
X103794135Y-39494921D01*
X103786452Y-39493250D01*
X103418115Y-39493250D01*
X103402876Y-39497725D01*
X103401671Y-39499115D01*
X103400000Y-39506798D01*
X103400000Y-40183134D01*
X103000000Y-40183134D01*
X103000000Y-39511365D01*
X102995525Y-39496126D01*
X102994135Y-39494921D01*
X102986452Y-39493250D01*
X102618115Y-39493250D01*
X102602876Y-39497725D01*
X102601671Y-39499115D01*
X102600000Y-39506798D01*
X102600000Y-40183134D01*
X102200000Y-40183134D01*
X102200000Y-39511365D01*
X102195525Y-39496126D01*
X102194135Y-39494921D01*
X102186452Y-39493250D01*
X101818115Y-39493250D01*
X101802876Y-39497725D01*
X101801671Y-39499115D01*
X101800000Y-39506798D01*
X101800000Y-40183134D01*
X101400000Y-40183134D01*
X101400000Y-39511365D01*
X101395525Y-39496126D01*
X101394135Y-39494921D01*
X101386452Y-39493250D01*
X101018115Y-39493250D01*
X101002876Y-39497725D01*
X101001671Y-39499115D01*
X101000000Y-39506798D01*
X101000000Y-40183134D01*
X100600000Y-40183134D01*
X100600000Y-39511365D01*
X100595525Y-39496126D01*
X100594135Y-39494921D01*
X100586452Y-39493250D01*
X100218115Y-39493250D01*
X100202876Y-39497725D01*
X100201671Y-39499115D01*
X100200000Y-39506798D01*
X100200000Y-40183134D01*
X99800000Y-40183134D01*
X99800000Y-39511365D01*
X99795525Y-39496126D01*
X99794135Y-39494921D01*
X99786452Y-39493250D01*
X99418115Y-39493250D01*
X99402876Y-39497725D01*
X99401671Y-39499115D01*
X99400000Y-39506798D01*
X99400000Y-40183134D01*
X99000000Y-40183134D01*
X99000000Y-39511365D01*
X98995525Y-39496126D01*
X98994135Y-39494921D01*
X98986452Y-39493250D01*
X98618115Y-39493250D01*
X98602876Y-39497725D01*
X98601671Y-39499115D01*
X98600000Y-39506798D01*
X98600000Y-40183134D01*
X98200000Y-40183134D01*
X98200000Y-39511365D01*
X98195525Y-39496126D01*
X98194135Y-39494921D01*
X98186452Y-39493250D01*
X97818115Y-39493250D01*
X97802876Y-39497725D01*
X97801671Y-39499115D01*
X97800000Y-39506798D01*
X97800000Y-40183134D01*
X97400000Y-40183134D01*
X97400000Y-39511365D01*
X97395525Y-39496126D01*
X97394135Y-39494921D01*
X97386452Y-39493250D01*
X97018115Y-39493250D01*
X97002876Y-39497725D01*
X97001671Y-39499115D01*
X97000000Y-39506798D01*
X97000000Y-40183134D01*
X96600000Y-40183134D01*
X96600000Y-39511365D01*
X96595525Y-39496126D01*
X96594135Y-39494921D01*
X96586452Y-39493250D01*
X96218115Y-39493250D01*
X96202876Y-39497725D01*
X96201671Y-39499115D01*
X96200000Y-39506798D01*
X96200000Y-40183134D01*
X95800000Y-40183134D01*
X95800000Y-39511365D01*
X95795525Y-39496126D01*
X95794135Y-39494921D01*
X95786452Y-39493250D01*
X95418115Y-39493250D01*
X95402876Y-39497725D01*
X95401671Y-39499115D01*
X95400000Y-39506798D01*
X95400000Y-40183134D01*
X93900000Y-40183134D01*
X93900000Y-40159365D01*
X93895525Y-40144126D01*
X93893024Y-40141958D01*
X93832906Y-40109133D01*
X93798880Y-40046821D01*
X93796000Y-40020036D01*
X93796000Y-39975135D01*
X94304000Y-39975135D01*
X94308475Y-39990374D01*
X94309865Y-39991579D01*
X94317548Y-39993250D01*
X94981885Y-39993250D01*
X94997124Y-39988775D01*
X94998329Y-39987385D01*
X95000000Y-39979702D01*
X95000000Y-39511365D01*
X94995525Y-39496126D01*
X94994135Y-39494921D01*
X94986452Y-39493250D01*
X94962197Y-39493250D01*
X94934377Y-39497250D01*
X94322115Y-39497250D01*
X94306876Y-39501725D01*
X94305671Y-39503115D01*
X94304000Y-39510798D01*
X94304000Y-39975135D01*
X93796000Y-39975135D01*
X93796000Y-39115250D01*
X93816002Y-39047129D01*
X93869658Y-39000636D01*
X93922000Y-38989250D01*
X94828460Y-38989250D01*
X94896581Y-39009252D01*
G37*
%TD.AperFunction*%
%TA.AperFunction,Conductor*%
G36*
X104010225Y-46742190D02*
G01*
X104067061Y-46784737D01*
X104077914Y-46802167D01*
X104080271Y-46808609D01*
X104168626Y-46940095D01*
X104174245Y-46945208D01*
X104174246Y-46945209D01*
X104260153Y-47023378D01*
X104285794Y-47046709D01*
X104425011Y-47122298D01*
X104578240Y-47162497D01*
X104662195Y-47163816D01*
X104729037Y-47164866D01*
X104729040Y-47164866D01*
X104736634Y-47164985D01*
X104891050Y-47129619D01*
X104982494Y-47083628D01*
X105025790Y-47061853D01*
X105025793Y-47061851D01*
X105032573Y-47058441D01*
X105038344Y-47053512D01*
X105038347Y-47053510D01*
X105039632Y-47052412D01*
X105040760Y-47051907D01*
X105044677Y-47049304D01*
X105045111Y-47049957D01*
X105104420Y-47023378D01*
X105174621Y-47033981D01*
X105227945Y-47080854D01*
X105247463Y-47149115D01*
X105246859Y-47160569D01*
X105246707Y-47162113D01*
X105245500Y-47168183D01*
X105245501Y-47618316D01*
X105260266Y-47692551D01*
X105267161Y-47702871D01*
X105267162Y-47702872D01*
X105280777Y-47723248D01*
X105301992Y-47791001D01*
X105280777Y-47863252D01*
X105267161Y-47883629D01*
X105267160Y-47883632D01*
X105260266Y-47893949D01*
X105245500Y-47968183D01*
X105245501Y-48191145D01*
X105245501Y-48329066D01*
X105225499Y-48397186D01*
X105171844Y-48443679D01*
X105094921Y-48452645D01*
X105025067Y-48438750D01*
X104800037Y-48438750D01*
X104574934Y-48438751D01*
X104539182Y-48445862D01*
X104512874Y-48451094D01*
X104512872Y-48451095D01*
X104500699Y-48453516D01*
X104490379Y-48460411D01*
X104490378Y-48460412D01*
X104470002Y-48474027D01*
X104402249Y-48495242D01*
X104329998Y-48474027D01*
X104309621Y-48460411D01*
X104309618Y-48460410D01*
X104299301Y-48453516D01*
X104225067Y-48438750D01*
X104029835Y-48438750D01*
X103961714Y-48418748D01*
X103915221Y-48365092D01*
X103905117Y-48294818D01*
X103909490Y-48278553D01*
X103908836Y-48278378D01*
X103910800Y-48271047D01*
X103913636Y-48263993D01*
X103923675Y-48193451D01*
X103935375Y-48111243D01*
X103935375Y-48111240D01*
X103935956Y-48107159D01*
X103936101Y-48093352D01*
X103917070Y-47936085D01*
X103861074Y-47787898D01*
X103838599Y-47755196D01*
X103775649Y-47663603D01*
X103775648Y-47663601D01*
X103771347Y-47657344D01*
X103653069Y-47551963D01*
X103644733Y-47547549D01*
X103607359Y-47527761D01*
X103513068Y-47477836D01*
X103505706Y-47475987D01*
X103505704Y-47475986D01*
X103454757Y-47463189D01*
X103393562Y-47427193D01*
X103361542Y-47363828D01*
X103368863Y-47293210D01*
X103396359Y-47251890D01*
X103877098Y-46771151D01*
X103939410Y-46737125D01*
X104010225Y-46742190D01*
G37*
%TD.AperFunction*%
%TD*%
M02*
