%TF.GenerationSoftware,KiCad,Pcbnew,(6.0.2-0)*%
%TF.CreationDate,2022-03-04T10:49:05+00:00*%
%TF.ProjectId,Generic5,47656e65-7269-4633-952e-6b696361645f,1*%
%TF.SameCoordinates,Original*%
%TF.FileFunction,Copper,L2,Bot*%
%TF.FilePolarity,Positive*%
%FSLAX46Y46*%
G04 Gerber Fmt 4.6, Leading zero omitted, Abs format (unit mm)*
G04 Created by KiCad (PCBNEW (6.0.2-0)) date 2022-03-04 10:49:05*
%MOMM*%
%LPD*%
G01*
G04 APERTURE LIST*
G04 Aperture macros list*
%AMRoundRect*
0 Rectangle with rounded corners*
0 $1 Rounding radius*
0 $2 $3 $4 $5 $6 $7 $8 $9 X,Y pos of 4 corners*
0 Add a 4 corners polygon primitive as box body*
4,1,4,$2,$3,$4,$5,$6,$7,$8,$9,$2,$3,0*
0 Add four circle primitives for the rounded corners*
1,1,$1+$1,$2,$3*
1,1,$1+$1,$4,$5*
1,1,$1+$1,$6,$7*
1,1,$1+$1,$8,$9*
0 Add four rect primitives between the rounded corners*
20,1,$1+$1,$2,$3,$4,$5,0*
20,1,$1+$1,$4,$5,$6,$7,0*
20,1,$1+$1,$6,$7,$8,$9,0*
20,1,$1+$1,$8,$9,$2,$3,0*%
%AMOutline5P*
0 Free polygon, 5 corners , with rotation*
0 The origin of the aperture is its center*
0 number of corners: always 5*
0 $1 to $10 corner X, Y*
0 $11 Rotation angle, in degrees counterclockwise*
0 create outline with 5 corners*
4,1,5,$1,$2,$3,$4,$5,$6,$7,$8,$9,$10,$1,$2,$11*%
%AMOutline6P*
0 Free polygon, 6 corners , with rotation*
0 The origin of the aperture is its center*
0 number of corners: always 6*
0 $1 to $12 corner X, Y*
0 $13 Rotation angle, in degrees counterclockwise*
0 create outline with 6 corners*
4,1,6,$1,$2,$3,$4,$5,$6,$7,$8,$9,$10,$11,$12,$1,$2,$13*%
%AMOutline7P*
0 Free polygon, 7 corners , with rotation*
0 The origin of the aperture is its center*
0 number of corners: always 7*
0 $1 to $14 corner X, Y*
0 $15 Rotation angle, in degrees counterclockwise*
0 create outline with 7 corners*
4,1,7,$1,$2,$3,$4,$5,$6,$7,$8,$9,$10,$11,$12,$13,$14,$1,$2,$15*%
%AMOutline8P*
0 Free polygon, 8 corners , with rotation*
0 The origin of the aperture is its center*
0 number of corners: always 8*
0 $1 to $16 corner X, Y*
0 $17 Rotation angle, in degrees counterclockwise*
0 create outline with 8 corners*
4,1,8,$1,$2,$3,$4,$5,$6,$7,$8,$9,$10,$11,$12,$13,$14,$15,$16,$1,$2,$17*%
%AMFreePoly0*
4,1,43,1.487500,0.558253,1.533253,0.512500,1.550000,0.450000,1.535584,0.322050,1.493057,0.200517,1.424553,0.091493,1.333507,0.000447,1.224483,-0.068057,1.102950,-0.110584,0.975000,-0.125000,-0.975000,-0.125000,-1.102950,-0.110584,-1.224483,-0.068057,-1.333507,0.000447,-1.424553,0.091493,-1.493057,0.200517,-1.535584,0.322050,-1.550000,0.450000,-1.533253,0.512500,-1.487500,0.558253,
-1.425000,0.575000,-1.362500,0.558253,-1.316747,0.512500,-1.300000,0.450000,-1.302546,0.440498,-1.287946,0.348318,-1.241208,0.256589,-1.168411,0.183792,-1.076682,0.137054,-0.984502,0.122454,-0.975000,0.125000,0.975000,0.125000,0.984502,0.122454,1.076682,0.137054,1.168411,0.183792,1.241208,0.256589,1.287946,0.348318,1.302546,0.440498,1.300000,0.450000,1.316747,0.512500,
1.362500,0.558253,1.425000,0.575000,1.487500,0.558253,1.487500,0.558253,$1*%
%AMFreePoly1*
4,1,24,1.427950,0.110584,1.549483,0.068057,1.658507,-0.000447,1.749553,-0.091493,1.818057,-0.200517,1.860584,-0.322050,1.875000,-0.450000,1.858253,-0.512500,1.812500,-0.558253,1.750000,-0.575000,1.687500,-0.558253,1.641747,-0.512500,1.625000,-0.450000,1.627546,-0.440498,1.612946,-0.348318,1.566208,-0.256589,1.493411,-0.183792,1.401682,-0.137054,1.309502,-0.122454,1.300000,-0.125000,
-1.300000,-0.125000,-1.300000,0.125000,1.300000,0.125000,1.427950,0.110584,1.427950,0.110584,$1*%
%AMFreePoly2*
4,1,37,0.195545,0.234610,0.386273,0.188820,0.567490,0.113758,0.734733,0.011271,0.883885,-0.116117,1.011272,-0.265269,1.113759,-0.432512,1.188821,-0.613729,1.234611,-0.804457,1.250000,-1.000000,1.230970,-1.095671,1.176777,-1.176777,1.095671,-1.230970,1.000000,-1.250000,0.904329,-1.230970,0.823223,-1.176777,0.769030,-1.095671,0.750000,-1.000000,0.752427,-0.987798,0.739148,-0.852974,
0.696263,-0.711599,0.626620,-0.581306,0.532897,-0.467104,0.418695,-0.373381,0.288403,-0.303738,0.147027,-0.260852,0.012204,-0.247573,0.000002,-0.250000,-0.095669,-0.230970,-0.176775,-0.176777,-0.230968,-0.095671,-0.249998,0.000000,-0.230968,0.095671,-0.176775,0.176777,-0.095669,0.230970,0.000002,0.250000,0.195545,0.234610,0.195545,0.234610,$1*%
%AMFreePoly3*
4,1,72,6.695671,0.230970,6.776777,0.176777,6.830970,0.095671,6.850000,0.000000,6.830970,-0.095671,6.776777,-0.176777,6.695671,-0.230970,6.600000,-0.250000,5.112500,-0.250000,5.112500,-1.380275,5.176777,-1.423223,5.230970,-1.504329,5.250000,-1.600000,5.250000,-6.400000,5.236550,-6.536563,5.196716,-6.667878,5.132029,-6.788899,5.044975,-6.894975,4.938899,-6.982029,4.817878,-7.046716,
4.686563,-7.086550,4.550000,-7.100000,1.550000,-7.100000,1.413437,-7.086550,1.282122,-7.046716,1.161101,-6.982029,1.055025,-6.894975,0.967971,-6.788899,0.903284,-6.667878,0.863450,-6.536563,0.850000,-6.400000,0.850000,-5.900000,0.869030,-5.804329,0.923223,-5.723223,1.004329,-5.669030,1.100000,-5.650000,1.195671,-5.669030,1.276777,-5.723223,1.330970,-5.804329,1.350000,-5.900000,
1.350000,-6.400000,1.348612,-6.406977,1.357418,-6.462574,1.386180,-6.519022,1.430978,-6.563820,1.487426,-6.592582,1.543022,-6.601388,1.550000,-6.600000,4.550000,-6.600000,4.556978,-6.601388,4.612574,-6.592582,4.669022,-6.563820,4.713820,-6.519022,4.742582,-6.462574,4.751388,-6.406977,4.750000,-6.400000,4.750000,-1.819725,4.685723,-1.776777,4.631530,-1.695671,4.612500,-1.600000,
4.612500,-0.250000,0.000000,-0.250000,-0.095671,-0.230970,-0.176777,-0.176777,-0.230970,-0.095671,-0.250000,0.000000,-0.230970,0.095671,-0.176777,0.176777,-0.095671,0.230970,0.000000,0.250000,6.600000,0.250000,6.695671,0.230970,6.695671,0.230970,$1*%
G04 Aperture macros list end*
%ADD10C,0.100000*%
%TA.AperFunction,NonConductor*%
%ADD11C,0.100000*%
%TD*%
%TA.AperFunction,SMDPad,CuDef*%
%ADD12RoundRect,0.200000X0.275000X-0.200000X0.275000X0.200000X-0.275000X0.200000X-0.275000X-0.200000X0*%
%TD*%
%TA.AperFunction,ComponentPad*%
%ADD13C,1.250000*%
%TD*%
%TA.AperFunction,ComponentPad*%
%ADD14C,0.670000*%
%TD*%
%TA.AperFunction,ComponentPad*%
%ADD15C,1.500000*%
%TD*%
%TA.AperFunction,ComponentPad*%
%ADD16RoundRect,0.250000X0.600000X0.675000X-0.600000X0.675000X-0.600000X-0.675000X0.600000X-0.675000X0*%
%TD*%
%TA.AperFunction,ComponentPad*%
%ADD17O,1.700000X1.850000*%
%TD*%
%TA.AperFunction,SMDPad,CuDef*%
%ADD18RoundRect,0.225000X-0.225000X-0.250000X0.225000X-0.250000X0.225000X0.250000X-0.225000X0.250000X0*%
%TD*%
%TA.AperFunction,SMDPad,CuDef*%
%ADD19RoundRect,0.249375X0.625625X-0.463125X0.625625X0.463125X-0.625625X0.463125X-0.625625X-0.463125X0*%
%TD*%
%TA.AperFunction,SMDPad,CuDef*%
%ADD20FreePoly0,90.000000*%
%TD*%
%TA.AperFunction,SMDPad,CuDef*%
%ADD21R,0.500000X2.000000*%
%TD*%
%TA.AperFunction,SMDPad,CuDef*%
%ADD22R,3.700000X1.425000*%
%TD*%
%TA.AperFunction,SMDPad,CuDef*%
%ADD23FreePoly1,90.000000*%
%TD*%
%TA.AperFunction,SMDPad,CuDef*%
%ADD24R,1.100000X0.600000*%
%TD*%
%TA.AperFunction,SMDPad,CuDef*%
%ADD25R,2.000000X0.500000*%
%TD*%
%TA.AperFunction,SMDPad,CuDef*%
%ADD26RoundRect,0.250000X0.250000X0.475000X-0.250000X0.475000X-0.250000X-0.475000X0.250000X-0.475000X0*%
%TD*%
%TA.AperFunction,SMDPad,CuDef*%
%ADD27FreePoly2,90.000000*%
%TD*%
%TA.AperFunction,SMDPad,CuDef*%
%ADD28FreePoly3,90.000000*%
%TD*%
%TA.AperFunction,SMDPad,CuDef*%
%ADD29R,4.000000X0.500000*%
%TD*%
%TA.AperFunction,SMDPad,CuDef*%
%ADD30RoundRect,0.200000X-0.275000X0.200000X-0.275000X-0.200000X0.275000X-0.200000X0.275000X0.200000X0*%
%TD*%
%TA.AperFunction,SMDPad,CuDef*%
%ADD31RoundRect,0.200000X-0.200000X-0.275000X0.200000X-0.275000X0.200000X0.275000X-0.200000X0.275000X0*%
%TD*%
%TA.AperFunction,SMDPad,CuDef*%
%ADD32RoundRect,0.225000X0.225000X0.250000X-0.225000X0.250000X-0.225000X-0.250000X0.225000X-0.250000X0*%
%TD*%
%TA.AperFunction,SMDPad,CuDef*%
%ADD33RoundRect,0.200000X0.200000X0.275000X-0.200000X0.275000X-0.200000X-0.275000X0.200000X-0.275000X0*%
%TD*%
%TA.AperFunction,SMDPad,CuDef*%
%ADD34RoundRect,0.062500X0.247487X-0.159099X-0.159099X0.247487X-0.247487X0.159099X0.159099X-0.247487X0*%
%TD*%
%TA.AperFunction,SMDPad,CuDef*%
%ADD35RoundRect,0.062500X0.247487X0.159099X0.159099X0.247487X-0.247487X-0.159099X-0.159099X-0.247487X0*%
%TD*%
%TA.AperFunction,SMDPad,CuDef*%
%ADD36Outline5P,-1.000000X1.000000X1.000000X1.000000X1.000000X-1.000000X-0.750000X-1.000000X-1.000000X-0.750000X135.000000*%
%TD*%
%TA.AperFunction,SMDPad,CuDef*%
%ADD37R,0.500000X0.850000*%
%TD*%
%TA.AperFunction,ViaPad*%
%ADD38C,0.800000*%
%TD*%
%TA.AperFunction,Conductor*%
%ADD39C,0.250000*%
%TD*%
G04 APERTURE END LIST*
D10*
D11*
X158910714Y-21457857D02*
X158875000Y-21493571D01*
X158839285Y-21565000D01*
X158839285Y-21743571D01*
X158875000Y-21815000D01*
X158910714Y-21850714D01*
X158982142Y-21886428D01*
X159053571Y-21886428D01*
X159160714Y-21850714D01*
X159589285Y-21422142D01*
X159589285Y-21886428D01*
X158839285Y-22350714D02*
X158839285Y-22422142D01*
X158875000Y-22493571D01*
X158910714Y-22529285D01*
X158982142Y-22565000D01*
X159125000Y-22600714D01*
X159303571Y-22600714D01*
X159446428Y-22565000D01*
X159517857Y-22529285D01*
X159553571Y-22493571D01*
X159589285Y-22422142D01*
X159589285Y-22350714D01*
X159553571Y-22279285D01*
X159517857Y-22243571D01*
X159446428Y-22207857D01*
X159303571Y-22172142D01*
X159125000Y-22172142D01*
X158982142Y-22207857D01*
X158910714Y-22243571D01*
X158875000Y-22279285D01*
X158839285Y-22350714D01*
X158910714Y-22886428D02*
X158875000Y-22922142D01*
X158839285Y-22993571D01*
X158839285Y-23172142D01*
X158875000Y-23243571D01*
X158910714Y-23279285D01*
X158982142Y-23315000D01*
X159053571Y-23315000D01*
X159160714Y-23279285D01*
X159589285Y-22850714D01*
X159589285Y-23315000D01*
X158910714Y-23600714D02*
X158875000Y-23636428D01*
X158839285Y-23707857D01*
X158839285Y-23886428D01*
X158875000Y-23957857D01*
X158910714Y-23993571D01*
X158982142Y-24029285D01*
X159053571Y-24029285D01*
X159160714Y-23993571D01*
X159589285Y-23565000D01*
X159589285Y-24029285D01*
X159303571Y-24350714D02*
X159303571Y-24922142D01*
X158839285Y-25422142D02*
X158839285Y-25493571D01*
X158875000Y-25565000D01*
X158910714Y-25600714D01*
X158982142Y-25636428D01*
X159125000Y-25672142D01*
X159303571Y-25672142D01*
X159446428Y-25636428D01*
X159517857Y-25600714D01*
X159553571Y-25565000D01*
X159589285Y-25493571D01*
X159589285Y-25422142D01*
X159553571Y-25350714D01*
X159517857Y-25315000D01*
X159446428Y-25279285D01*
X159303571Y-25243571D01*
X159125000Y-25243571D01*
X158982142Y-25279285D01*
X158910714Y-25315000D01*
X158875000Y-25350714D01*
X158839285Y-25422142D01*
X158839285Y-25922142D02*
X158839285Y-26386428D01*
X159125000Y-26136428D01*
X159125000Y-26243571D01*
X159160714Y-26315000D01*
X159196428Y-26350714D01*
X159267857Y-26386428D01*
X159446428Y-26386428D01*
X159517857Y-26350714D01*
X159553571Y-26315000D01*
X159589285Y-26243571D01*
X159589285Y-26029285D01*
X159553571Y-25957857D01*
X159517857Y-25922142D01*
X159303571Y-26707857D02*
X159303571Y-27279285D01*
X158839285Y-27779285D02*
X158839285Y-27850714D01*
X158875000Y-27922142D01*
X158910714Y-27957857D01*
X158982142Y-27993571D01*
X159125000Y-28029285D01*
X159303571Y-28029285D01*
X159446428Y-27993571D01*
X159517857Y-27957857D01*
X159553571Y-27922142D01*
X159589285Y-27850714D01*
X159589285Y-27779285D01*
X159553571Y-27707857D01*
X159517857Y-27672142D01*
X159446428Y-27636428D01*
X159303571Y-27600714D01*
X159125000Y-27600714D01*
X158982142Y-27636428D01*
X158910714Y-27672142D01*
X158875000Y-27707857D01*
X158839285Y-27779285D01*
X159089285Y-28672142D02*
X159589285Y-28672142D01*
X158803571Y-28493571D02*
X159339285Y-28315000D01*
X159339285Y-28779285D01*
D12*
%TO.P,R8,1*%
%TO.N,Net-(J2-PadA6)*%
X154750000Y-40575000D03*
%TO.P,R8,2*%
%TO.N,D+*%
X154750000Y-38925000D03*
%TD*%
%TO.P,R7,1*%
%TO.N,Net-(J2-PadA7)*%
X153500000Y-40575000D03*
%TO.P,R7,2*%
%TO.N,D-*%
X153500000Y-38925000D03*
%TD*%
D13*
%TO.P,J2,S1,SHIELD*%
%TO.N,GND*%
X149930000Y-49240000D03*
D14*
X151360000Y-45560000D03*
D15*
X158570000Y-45070000D03*
X149930000Y-45070000D03*
D13*
X158570000Y-49240000D03*
D14*
X157140000Y-45560000D03*
%TD*%
D16*
%TO.P,J1,1,Pin_1*%
%TO.N,IO1*%
X157500000Y-27600000D03*
D17*
%TO.P,J1,2,Pin_2*%
%TO.N,IO2*%
X155000000Y-27600000D03*
%TO.P,J1,3,Pin_3*%
%TO.N,IO3*%
X152500000Y-27600000D03*
%TO.P,J1,4,Pin_4*%
%TO.N,IO4*%
X150000000Y-27600000D03*
%TD*%
D18*
%TO.P,U3,*%
%TO.N,*%
X154475000Y-51400000D03*
D19*
X152330000Y-48502500D03*
D20*
X155050000Y-49775000D03*
D21*
X154150000Y-47400000D03*
D22*
X155450000Y-46900000D03*
D23*
X155950000Y-50100000D03*
D24*
X154150000Y-48350000D03*
D18*
X156025000Y-51400000D03*
D25*
X153200000Y-48350000D03*
D24*
X156850000Y-48350000D03*
%TO.P,U3,1,SHDN*%
%TO.N,VBUS*%
X154150000Y-50250000D03*
D26*
%TO.P,U3,2,VIN*%
X152900000Y-50150000D03*
D24*
X154150000Y-49300000D03*
D27*
X152950000Y-50360000D03*
D26*
%TO.P,U3,3,GND*%
%TO.N,GND*%
X151000000Y-43900000D03*
X151000000Y-50150000D03*
D28*
X151000000Y-50400000D03*
D19*
X152330000Y-45537500D03*
D24*
X156850000Y-49300000D03*
D29*
%TO.P,U3,4,VOUT*%
%TO.N,+3V3*%
X154700000Y-43900000D03*
D26*
X152900000Y-43900000D03*
D22*
X155450000Y-43900000D03*
D24*
%TO.P,U3,5,FB*%
%TO.N,Net-(R10-Pad2)*%
X156850000Y-50250000D03*
%TD*%
D12*
%TO.P,R11,1*%
%TO.N,VBUS*%
X149250000Y-40575000D03*
%TO.P,R11,2*%
%TO.N,Net-(R11-Pad2)*%
X149250000Y-38925000D03*
%TD*%
D30*
%TO.P,R10,2*%
%TO.N,Net-(R10-Pad2)*%
X158000000Y-40575000D03*
%TO.P,R10,1*%
%TO.N,GND*%
X158000000Y-38925000D03*
%TD*%
D31*
%TO.P,R4,1*%
%TO.N,Net-(R4-Pad1)*%
X152175000Y-21750000D03*
%TO.P,R4,2*%
%TO.N,B*%
X153825000Y-21750000D03*
%TD*%
D32*
%TO.P,C1,1*%
%TO.N,+3V3*%
X159275000Y-36000000D03*
%TO.P,C1,2*%
%TO.N,GND*%
X157725000Y-36000000D03*
%TD*%
D33*
%TO.P,R1,1*%
%TO.N,+3V3*%
X159075000Y-32750000D03*
%TO.P,R1,2*%
%TO.N,EN*%
X157425000Y-32750000D03*
%TD*%
D30*
%TO.P,R9,2*%
%TO.N,Net-(R10-Pad2)*%
X159250000Y-40575000D03*
%TO.P,R9,1*%
%TO.N,+3V3*%
X159250000Y-38925000D03*
%TD*%
D31*
%TO.P,R3,1*%
%TO.N,Net-(R3-Pad1)*%
X152175000Y-23000000D03*
%TO.P,R3,2*%
%TO.N,G*%
X153825000Y-23000000D03*
%TD*%
D12*
%TO.P,R12,1*%
%TO.N,Net-(R11-Pad2)*%
X149250000Y-37750000D03*
%TO.P,R12,2*%
%TO.N,GND*%
X149250000Y-36100000D03*
%TD*%
%TO.P,R5,2*%
%TO.N,GND*%
X150500000Y-38925000D03*
%TO.P,R5,1*%
%TO.N,Net-(J2-PadA5)*%
X150500000Y-40575000D03*
%TD*%
D31*
%TO.P,R2,1*%
%TO.N,Net-(R2-Pad1)*%
X152175000Y-24250000D03*
%TO.P,R2,2*%
%TO.N,R*%
X153825000Y-24250000D03*
%TD*%
D34*
%TO.P,U2,1,RXD*%
%TO.N,O*%
X156550610Y-35136396D03*
%TO.P,U2,2,~{RI}*%
%TO.N,GND*%
X156197056Y-35489949D03*
%TO.P,U2,3,GND*%
X155843503Y-35843503D03*
%TO.P,U2,4,~{DSR}*%
X155489949Y-36197056D03*
%TO.P,U2,5,~{DCD}*%
X155136396Y-36550610D03*
D35*
%TO.P,U2,6,~{CTS}*%
X153863604Y-36550610D03*
%TO.P,U2,7,CBUS2*%
%TO.N,Net-(R11-Pad2)*%
X153510051Y-36197056D03*
%TO.P,U2,8,USBDP*%
%TO.N,D+*%
X153156497Y-35843503D03*
%TO.P,U2,9,USBDM*%
%TO.N,D-*%
X152802944Y-35489949D03*
%TO.P,U2,10,3V3OUT*%
%TO.N,+3V3*%
X152449390Y-35136396D03*
D34*
%TO.P,U2,11,~{RESET}*%
X152449390Y-33863604D03*
%TO.P,U2,12,VCC*%
X152802944Y-33510051D03*
%TO.P,U2,13,GND*%
%TO.N,GND*%
X153156497Y-33156497D03*
%TO.P,U2,14,CBUS1*%
%TO.N,unconnected-(U2-Pad14)*%
X153510051Y-32802944D03*
%TO.P,U2,15,CBUS0*%
%TO.N,unconnected-(U2-Pad15)*%
X153863604Y-32449390D03*
D35*
%TO.P,U2,16,CBUS3*%
%TO.N,unconnected-(U2-Pad16)*%
X155136396Y-32449390D03*
%TO.P,U2,17,TXD*%
%TO.N,I*%
X155489949Y-32802944D03*
%TO.P,U2,18,~{DTR}*%
%TO.N,GPIO0*%
X155843503Y-33156497D03*
%TO.P,U2,19,~{RTS}*%
%TO.N,EN*%
X156197056Y-33510051D03*
%TO.P,U2,20,VCCIO*%
%TO.N,+3V3*%
X156550610Y-33863604D03*
D36*
%TO.P,U2,21,GND*%
%TO.N,GND*%
X154500000Y-34500000D03*
%TD*%
D30*
%TO.P,R6,1*%
%TO.N,GND*%
X156750000Y-38925000D03*
%TO.P,R6,2*%
%TO.N,Net-(J2-PadB5)*%
X156750000Y-40575000D03*
%TD*%
D37*
%TO.P,D1,1,A*%
%TO.N,+3V3*%
X149750000Y-21875000D03*
%TO.P,D1,2,RK*%
%TO.N,Net-(R2-Pad1)*%
X149750000Y-23625000D03*
%TO.P,D1,3,GK*%
%TO.N,Net-(R3-Pad1)*%
X150750000Y-23625000D03*
%TO.P,D1,4,BK*%
%TO.N,Net-(R4-Pad1)*%
X150750000Y-21875000D03*
%TD*%
D38*
%TO.N,GND*%
X149500000Y-25750000D03*
X157454194Y-39622760D03*
X151500000Y-34500000D03*
X154375000Y-34375000D03*
X158250000Y-42500000D03*
X153500000Y-25750000D03*
%TO.N,B*%
X158250000Y-30750000D03*
%TO.N,Net-(R11-Pad2)*%
X151750000Y-39000000D03*
X158000000Y-37250000D03*
%TO.N,G*%
X154750000Y-23000000D03*
%TO.N,R*%
X154750000Y-24250000D03*
%TO.N,GND*%
X158000000Y-22000000D03*
%TO.N,+3V3*%
X152500000Y-31250000D03*
X152000000Y-40500000D03*
%TO.N,Net-(J2-PadA5)*%
X150750000Y-42500000D03*
%TO.N,EN*%
X151012299Y-31262299D03*
%TO.N,I*%
X154500000Y-30750000D03*
%TO.N,GPIO0*%
X156250000Y-30750000D03*
%TO.N,O*%
X157750000Y-34750000D03*
%TO.N,Net-(J2-PadB5)*%
X155780550Y-42499655D03*
%TO.N,Net-(J2-PadA7)*%
X154781215Y-42517981D03*
%TO.N,Net-(J2-PadA6)*%
X153762299Y-42512299D03*
%TO.N,Net-(J2-PadA7)*%
X152750000Y-42500000D03*
%TO.N,VBUS*%
X149250000Y-42500000D03*
%TD*%
D39*
%TO.N,B*%
X158250000Y-30750000D02*
X158250000Y-29250000D01*
X155250000Y-21750000D02*
X153825000Y-21750000D01*
X156500000Y-29000000D02*
X156325480Y-28825480D01*
X158250000Y-29250000D02*
X158000000Y-29000000D01*
X158000000Y-29000000D02*
X156500000Y-29000000D01*
X156325480Y-28825480D02*
X156325480Y-26575480D01*
X156325480Y-26575480D02*
X155750000Y-26000000D01*
X155750000Y-26000000D02*
X155750000Y-22250000D01*
X155750000Y-22250000D02*
X155250000Y-21750000D01*
%TO.N,GND*%
X148825480Y-28161502D02*
X148825480Y-26924520D01*
X149500000Y-25750000D02*
X149500000Y-26250000D01*
X149500000Y-26250000D02*
X148825480Y-26924520D01*
%TO.N,+3V3*%
X149136022Y-22488978D02*
X149750000Y-21875000D01*
X149136022Y-24361422D02*
X149136022Y-22488978D01*
%TO.N,GND*%
X149250000Y-28586022D02*
X148825480Y-28161502D01*
%TO.N,+3V3*%
X151250000Y-26475400D02*
X149136022Y-24361422D01*
%TO.N,GND*%
X149250000Y-36100000D02*
X149250000Y-28586022D01*
%TO.N,+3V3*%
X151250000Y-29500000D02*
X151250000Y-26475400D01*
%TO.N,GND*%
X156750000Y-38925000D02*
X156756434Y-38925000D01*
X156756434Y-38925000D02*
X157454194Y-39622760D01*
X157725000Y-36000000D02*
X158000000Y-36000000D01*
X158750000Y-38175000D02*
X158000000Y-38925000D01*
X158000000Y-36000000D02*
X158750000Y-36750000D01*
X158750000Y-36750000D02*
X158750000Y-38175000D01*
%TO.N,Net-(R11-Pad2)*%
X149250000Y-38925000D02*
X149250000Y-39000000D01*
X149250000Y-39000000D02*
X149899520Y-39649520D01*
X149899520Y-39649520D02*
X151100480Y-39649520D01*
X151100480Y-39649520D02*
X151750000Y-39000000D01*
%TO.N,GND*%
X151360000Y-45560000D02*
X152307500Y-45560000D01*
X152307500Y-45560000D02*
X152330000Y-45537500D01*
X154375000Y-34375000D02*
X154500000Y-34500000D01*
X159000000Y-47000000D02*
X159000000Y-48810000D01*
X159000000Y-48810000D02*
X158570000Y-49240000D01*
X158570000Y-45070000D02*
X158750000Y-45250000D01*
X158750000Y-46750000D02*
X159000000Y-47000000D01*
X158750000Y-45250000D02*
X158750000Y-46750000D01*
X156850000Y-49300000D02*
X158510000Y-49300000D01*
X158510000Y-49300000D02*
X158570000Y-49240000D01*
X149930000Y-45070000D02*
X149930000Y-44970000D01*
X149930000Y-44970000D02*
X151000000Y-43900000D01*
X149930000Y-49240000D02*
X150090000Y-49240000D01*
X150090000Y-49240000D02*
X151000000Y-50150000D01*
X158250000Y-42500000D02*
X158570000Y-42820000D01*
X158570000Y-42820000D02*
X158570000Y-45070000D01*
%TO.N,VBUS*%
X152900000Y-50150000D02*
X152900000Y-50600000D01*
X149750000Y-51250000D02*
X148855489Y-50355489D01*
X152900000Y-50600000D02*
X152250000Y-51250000D01*
X152250000Y-51250000D02*
X149750000Y-51250000D01*
X148855489Y-50355489D02*
X148855489Y-42894511D01*
X148855489Y-42894511D02*
X149250000Y-42500000D01*
%TO.N,Net-(R10-Pad2)*%
X158000000Y-40575000D02*
X159250000Y-40575000D01*
X159250000Y-40575000D02*
X159644511Y-40969511D01*
X159644511Y-49508301D02*
X158902812Y-50250000D01*
X159644511Y-40969511D02*
X159644511Y-49508301D01*
X158902812Y-50250000D02*
X156850000Y-50250000D01*
%TO.N,EN*%
X157425000Y-32750000D02*
X157075989Y-32400989D01*
X152325087Y-29949511D02*
X151012299Y-31262299D01*
X156813807Y-29949511D02*
X152325087Y-29949511D01*
%TO.N,+3V3*%
X159075000Y-32750000D02*
X157525499Y-31200499D01*
X157525499Y-31200499D02*
X157525499Y-30025499D01*
X157000000Y-29500000D02*
X151250000Y-29500000D01*
%TO.N,EN*%
X157075989Y-30211693D02*
X156813807Y-29949511D01*
%TO.N,+3V3*%
X157525499Y-30025499D02*
X157000000Y-29500000D01*
%TO.N,EN*%
X157075989Y-32400989D02*
X157075989Y-30211693D01*
%TO.N,+3V3*%
X159275000Y-36000000D02*
X159275000Y-38900000D01*
X159275000Y-38900000D02*
X159250000Y-38925000D01*
X159075000Y-32750000D02*
X159275000Y-32950000D01*
X159275000Y-32950000D02*
X159275000Y-36000000D01*
X159250000Y-34000000D02*
X159250000Y-32925000D01*
X159250000Y-38925000D02*
X159250000Y-34000000D01*
X156550610Y-33863604D02*
X159113604Y-33863604D01*
X159113604Y-33863604D02*
X159250000Y-34000000D01*
%TO.N,EN*%
X156197056Y-33510051D02*
X156957107Y-32750000D01*
X156957107Y-32750000D02*
X157425000Y-32750000D01*
%TO.N,GND*%
X156197056Y-35489949D02*
X156707107Y-36000000D01*
X156707107Y-36000000D02*
X157725000Y-36000000D01*
%TO.N,D+*%
X154750000Y-38925000D02*
X154750000Y-38250000D01*
X154750000Y-38250000D02*
X154500000Y-38000000D01*
X154500000Y-38000000D02*
X153723376Y-38000000D01*
X153156497Y-35843503D02*
X152750000Y-36250000D01*
X152750000Y-36250000D02*
X152750000Y-37026624D01*
X152750000Y-37026624D02*
X153723376Y-38000000D01*
%TO.N,D-*%
X152802944Y-35489949D02*
X152250000Y-36042893D01*
X152250000Y-36042893D02*
X152250000Y-37399650D01*
X152250000Y-37399650D02*
X153500000Y-38649650D01*
X153500000Y-38649650D02*
X153500000Y-38925000D01*
%TO.N,+3V3*%
X152449390Y-35136396D02*
X151750000Y-35835786D01*
X151750000Y-37750000D02*
X152500000Y-38500000D01*
X151750000Y-35835786D02*
X151750000Y-37750000D01*
X152500000Y-38500000D02*
X152500000Y-40000000D01*
X152500000Y-40000000D02*
X152000000Y-40500000D01*
%TO.N,Net-(R11-Pad2)*%
X153510051Y-36197056D02*
X153229098Y-36478009D01*
X153229098Y-36478009D02*
X153229098Y-36870018D01*
X153609080Y-37250000D02*
X158000000Y-37250000D01*
X153229098Y-36870018D02*
X153609080Y-37250000D01*
%TO.N,Net-(R3-Pad1)*%
X152175000Y-23000000D02*
X151375000Y-23000000D01*
X151375000Y-23000000D02*
X150750000Y-23625000D01*
%TO.N,Net-(R2-Pad1)*%
X149750000Y-23625000D02*
X149750000Y-23800000D01*
X149750000Y-23800000D02*
X150324511Y-24374511D01*
X150324511Y-24374511D02*
X152050489Y-24374511D01*
X152050489Y-24374511D02*
X152175000Y-24250000D01*
%TO.N,Net-(R4-Pad1)*%
X152175000Y-21750000D02*
X150875000Y-21750000D01*
X150875000Y-21750000D02*
X150750000Y-21875000D01*
%TO.N,G*%
X154750000Y-23000000D02*
X153825000Y-23000000D01*
%TO.N,R*%
X154750000Y-24250000D02*
X153825000Y-24250000D01*
%TO.N,+3V3*%
X150500000Y-29500000D02*
X151250000Y-29500000D01*
X151750000Y-32250000D02*
X150500000Y-32250000D01*
X150000000Y-31750000D02*
X150000000Y-30000000D01*
X150500000Y-32250000D02*
X150000000Y-31750000D01*
X151750000Y-32000000D02*
X151750000Y-32250000D01*
X151750000Y-32250000D02*
X151750000Y-32457107D01*
X150000000Y-30000000D02*
X150500000Y-29500000D01*
X152500000Y-31250000D02*
X151750000Y-32000000D01*
X151750000Y-32457107D02*
X152802944Y-33510051D01*
X152900000Y-43900000D02*
X152000000Y-43000000D01*
X152000000Y-43000000D02*
X152000000Y-40500000D01*
%TO.N,Net-(J2-PadA5)*%
X150500000Y-40575000D02*
X150500000Y-42250000D01*
X150500000Y-42250000D02*
X150750000Y-42500000D01*
%TO.N,Net-(J2-PadA6)*%
X153762299Y-42143780D02*
X154750000Y-41156079D01*
X154750000Y-41156079D02*
X154750000Y-40575000D01*
%TO.N,Net-(J2-PadA7)*%
X154781215Y-41760568D02*
X155750000Y-40791783D01*
X155750000Y-40358217D02*
X155242263Y-39850480D01*
%TO.N,Net-(J2-PadA6)*%
X153762299Y-42512299D02*
X153762299Y-42143780D01*
%TO.N,Net-(J2-PadA7)*%
X154781215Y-42517981D02*
X154781215Y-41760568D01*
X155750000Y-40791783D02*
X155750000Y-40358217D01*
X155242263Y-39850480D02*
X154224520Y-39850480D01*
X154224520Y-39850480D02*
X153500000Y-40575000D01*
%TO.N,Net-(J2-PadB5)*%
X156750000Y-40575000D02*
X155780550Y-41544450D01*
X155780550Y-41544450D02*
X155780550Y-42499655D01*
%TO.N,Net-(J2-PadA7)*%
X153500000Y-41750000D02*
X152750000Y-42500000D01*
X153500000Y-40575000D02*
X153500000Y-41750000D01*
%TO.N,O*%
X157363604Y-35136396D02*
X157750000Y-34750000D01*
X156550610Y-35136396D02*
X157363604Y-35136396D01*
%TO.N,I*%
X155489949Y-32802944D02*
X155770902Y-32521991D01*
X155770902Y-31770902D02*
X154750000Y-30750000D01*
X155770902Y-32521991D02*
X155770902Y-31770902D01*
X154750000Y-30750000D02*
X154500000Y-30750000D01*
%TO.N,GPIO0*%
X156250000Y-32750000D02*
X156250000Y-30750000D01*
X155843503Y-33156497D02*
X156250000Y-32750000D01*
%TO.N,+3V3*%
X152449390Y-33863604D02*
X152449391Y-33863604D01*
X152449391Y-33863604D02*
X152802944Y-33510051D01*
X152449390Y-33863604D02*
X152449390Y-35136396D01*
%TO.N,GND*%
X153156497Y-33156497D02*
X154375000Y-34375000D01*
X156197056Y-35489949D02*
X155207107Y-34500000D01*
X155207107Y-34500000D02*
X154500000Y-34500000D01*
X155843503Y-35843503D02*
X154500000Y-34500000D01*
X155489949Y-36197056D02*
X154500000Y-35207107D01*
X155136396Y-36550610D02*
X154500000Y-35914214D01*
X154500000Y-35914214D02*
X154500000Y-34500000D01*
X153863604Y-36550610D02*
X154500000Y-35914214D01*
%TO.N,Net-(R11-Pad2)*%
X149250000Y-38925000D02*
X149250000Y-37750000D01*
%TO.N,GND*%
X149930000Y-49240000D02*
X149930000Y-47680000D01*
X149930000Y-46820000D02*
X149930000Y-45070000D01*
X149930000Y-47680000D02*
X149500000Y-47250000D01*
X149500000Y-47250000D02*
X149930000Y-46820000D01*
X149930000Y-49240000D02*
X149930000Y-50430000D01*
X149930000Y-50430000D02*
X150000000Y-50500000D01*
X151000000Y-43900000D02*
X150150000Y-43900000D01*
X150150000Y-43900000D02*
X149750000Y-43500000D01*
%TO.N,VBUS*%
X149250000Y-42500000D02*
X149250000Y-40575000D01*
X154150000Y-49500000D02*
X154150000Y-50450000D01*
%TD*%
%TA.AperFunction,Conductor*%
%TO.N,GND*%
G36*
X149719733Y-50354148D02*
G01*
X149775844Y-50366845D01*
X149787253Y-50368347D01*
X149870446Y-50371615D01*
X149937729Y-50394276D01*
X149982080Y-50449715D01*
X149991500Y-50497518D01*
X149991500Y-50650616D01*
X149971498Y-50718737D01*
X149917842Y-50765230D01*
X149847568Y-50775334D01*
X149782988Y-50745840D01*
X149776405Y-50739711D01*
X149602830Y-50566136D01*
X149568804Y-50503824D01*
X149573869Y-50433009D01*
X149616416Y-50376173D01*
X149682936Y-50351362D01*
X149719733Y-50354148D01*
G37*
%TD.AperFunction*%
%TA.AperFunction,Conductor*%
G36*
X149414239Y-46217546D02*
G01*
X149493113Y-46254326D01*
X149503405Y-46258072D01*
X149705401Y-46312196D01*
X149716196Y-46314099D01*
X149924525Y-46332326D01*
X149935475Y-46332326D01*
X150099289Y-46317994D01*
X150168894Y-46331983D01*
X150219887Y-46381383D01*
X150236271Y-46443515D01*
X150236271Y-47992110D01*
X150216269Y-48060231D01*
X150162613Y-48106724D01*
X150085691Y-48115689D01*
X150054608Y-48109507D01*
X150043159Y-48108303D01*
X149846507Y-48105730D01*
X149835027Y-48106633D01*
X149641199Y-48139938D01*
X149630079Y-48142918D01*
X149445557Y-48210992D01*
X149435185Y-48215939D01*
X149425413Y-48221753D01*
X149356643Y-48239393D01*
X149289252Y-48217053D01*
X149244638Y-48161826D01*
X149234989Y-48113468D01*
X149234989Y-46331741D01*
X149254991Y-46263620D01*
X149308647Y-46217127D01*
X149378921Y-46207023D01*
X149414239Y-46217546D01*
G37*
%TD.AperFunction*%
%TA.AperFunction,Conductor*%
G36*
X159220765Y-46235865D02*
G01*
X159259622Y-46295284D01*
X159265011Y-46331741D01*
X159265011Y-48112063D01*
X159245009Y-48180184D01*
X159191353Y-48226677D01*
X159121079Y-48236781D01*
X159086690Y-48225877D01*
X159086575Y-48226165D01*
X159082615Y-48224585D01*
X159081804Y-48224328D01*
X159081203Y-48224022D01*
X158898531Y-48151143D01*
X158887505Y-48147876D01*
X158715148Y-48113593D01*
X158652238Y-48080686D01*
X158617106Y-48018991D01*
X158613729Y-47990014D01*
X158613729Y-46444437D01*
X158633731Y-46376316D01*
X158687387Y-46329823D01*
X158728748Y-46318916D01*
X158783803Y-46314100D01*
X158794599Y-46312196D01*
X158996595Y-46258072D01*
X159006887Y-46254326D01*
X159085761Y-46217546D01*
X159155952Y-46206885D01*
X159220765Y-46235865D01*
G37*
%TD.AperFunction*%
%TA.AperFunction,Conductor*%
G36*
X158686095Y-41127999D02*
G01*
X158699859Y-41136845D01*
X158750000Y-41173879D01*
X158759924Y-41181209D01*
X158888873Y-41226493D01*
X158896515Y-41227215D01*
X158896518Y-41227216D01*
X158911421Y-41228624D01*
X158920685Y-41229500D01*
X158928599Y-41229500D01*
X159139011Y-41229499D01*
X159207131Y-41249501D01*
X159253624Y-41303156D01*
X159265011Y-41355499D01*
X159265011Y-43808259D01*
X159245009Y-43876380D01*
X159191353Y-43922873D01*
X159121079Y-43932977D01*
X159085761Y-43922454D01*
X159006887Y-43885674D01*
X158996595Y-43881928D01*
X158794599Y-43827804D01*
X158783804Y-43825901D01*
X158575475Y-43807674D01*
X158564525Y-43807674D01*
X158356196Y-43825901D01*
X158345401Y-43827804D01*
X158143405Y-43881928D01*
X158133113Y-43885674D01*
X157943579Y-43974056D01*
X157934093Y-43979534D01*
X157762795Y-44099477D01*
X157761495Y-44100568D01*
X157760807Y-44100869D01*
X157758285Y-44102635D01*
X157757930Y-44102128D01*
X157696456Y-44129036D01*
X157626350Y-44117821D01*
X157573437Y-44070485D01*
X157554500Y-44004050D01*
X157554499Y-43168623D01*
X157554499Y-43162434D01*
X157539734Y-43088199D01*
X157515923Y-43052563D01*
X157490377Y-43014332D01*
X157483484Y-43004016D01*
X157399301Y-42947766D01*
X157325067Y-42933000D01*
X156498237Y-42933000D01*
X156430116Y-42912998D01*
X156383623Y-42859342D01*
X156373519Y-42789068D01*
X156381330Y-42760004D01*
X156414556Y-42677353D01*
X156414558Y-42677346D01*
X156417392Y-42670296D01*
X156439712Y-42513462D01*
X156439857Y-42499655D01*
X156420826Y-42342388D01*
X156364830Y-42194201D01*
X156275103Y-42063647D01*
X156202231Y-41998720D01*
X156164676Y-41938471D01*
X156160050Y-41904644D01*
X156160050Y-41753834D01*
X156180052Y-41685713D01*
X156196955Y-41664739D01*
X156595289Y-41266405D01*
X156657601Y-41232379D01*
X156684384Y-41229500D01*
X157055255Y-41229499D01*
X157079314Y-41229499D01*
X157082262Y-41229220D01*
X157082271Y-41229220D01*
X157103478Y-41227216D01*
X157103480Y-41227216D01*
X157111127Y-41226493D01*
X157240076Y-41181209D01*
X157250000Y-41173879D01*
X157300141Y-41136845D01*
X157366819Y-41112462D01*
X157436095Y-41127999D01*
X157449859Y-41136845D01*
X157500000Y-41173879D01*
X157509924Y-41181209D01*
X157638873Y-41226493D01*
X157646515Y-41227215D01*
X157646518Y-41227216D01*
X157661421Y-41228624D01*
X157670685Y-41229500D01*
X157999777Y-41229500D01*
X158329314Y-41229499D01*
X158332262Y-41229220D01*
X158332271Y-41229220D01*
X158353478Y-41227216D01*
X158353480Y-41227216D01*
X158361127Y-41226493D01*
X158490076Y-41181209D01*
X158500000Y-41173879D01*
X158550141Y-41136845D01*
X158616819Y-41112462D01*
X158686095Y-41127999D01*
G37*
%TD.AperFunction*%
%TA.AperFunction,Conductor*%
G36*
X150064152Y-42615456D02*
G01*
X150113071Y-42666908D01*
X150119322Y-42681184D01*
X150162553Y-42799319D01*
X150166793Y-42805629D01*
X150169488Y-42810918D01*
X150182593Y-42880695D01*
X150156105Y-42946213D01*
X150155861Y-42946522D01*
X150150695Y-42951697D01*
X150122694Y-42997123D01*
X150066554Y-43088199D01*
X150057885Y-43102262D01*
X150002203Y-43270139D01*
X149991500Y-43374600D01*
X149991500Y-43686356D01*
X149971498Y-43754477D01*
X149917842Y-43800970D01*
X149876482Y-43811877D01*
X149716196Y-43825901D01*
X149705401Y-43827804D01*
X149503405Y-43881928D01*
X149493113Y-43885674D01*
X149414239Y-43922454D01*
X149344048Y-43933115D01*
X149279235Y-43904135D01*
X149240378Y-43844716D01*
X149234989Y-43808259D01*
X149234989Y-43275322D01*
X149254991Y-43207201D01*
X149308647Y-43160708D01*
X149332859Y-43152502D01*
X149465929Y-43122025D01*
X149465933Y-43122024D01*
X149473332Y-43120329D01*
X149557737Y-43077878D01*
X149608072Y-43052563D01*
X149608075Y-43052561D01*
X149614855Y-43049151D01*
X149620626Y-43044222D01*
X149620629Y-43044220D01*
X149729536Y-42951204D01*
X149729536Y-42951203D01*
X149735314Y-42946269D01*
X149827755Y-42817624D01*
X149830589Y-42810575D01*
X149830592Y-42810569D01*
X149884089Y-42677489D01*
X149928055Y-42621744D01*
X149995180Y-42598619D01*
X150064152Y-42615456D01*
G37*
%TD.AperFunction*%
%TA.AperFunction,Conductor*%
G36*
X157468262Y-37649502D02*
G01*
X157495522Y-37673169D01*
X157496672Y-37674501D01*
X157500908Y-37680805D01*
X157506525Y-37685916D01*
X157612432Y-37782283D01*
X157618076Y-37787419D01*
X157624749Y-37791042D01*
X157624753Y-37791045D01*
X157625127Y-37791248D01*
X157625348Y-37791468D01*
X157630943Y-37795444D01*
X157630280Y-37796377D01*
X157675447Y-37841332D01*
X157690702Y-37910670D01*
X157666048Y-37977248D01*
X157609312Y-38019929D01*
X157589741Y-38025525D01*
X157588640Y-38025745D01*
X157438761Y-38072714D01*
X157426853Y-38078091D01*
X157356536Y-38087895D01*
X157323147Y-38078091D01*
X157311239Y-38072714D01*
X157161356Y-38025744D01*
X157148306Y-38023131D01*
X157084479Y-38017266D01*
X157078691Y-38017000D01*
X157022115Y-38017000D01*
X157006876Y-38021475D01*
X157005671Y-38022865D01*
X157004000Y-38030548D01*
X157004000Y-38652885D01*
X157008475Y-38668124D01*
X157009865Y-38669329D01*
X157017548Y-38671000D01*
X158128000Y-38671000D01*
X158196121Y-38691002D01*
X158242614Y-38744658D01*
X158254000Y-38797000D01*
X158254000Y-39053000D01*
X158233998Y-39121121D01*
X158180342Y-39167614D01*
X158128000Y-39179000D01*
X155785116Y-39179000D01*
X155769877Y-39183475D01*
X155768672Y-39184865D01*
X155767709Y-39189294D01*
X155773132Y-39248315D01*
X155775743Y-39261351D01*
X155822715Y-39411243D01*
X155828921Y-39424988D01*
X155909824Y-39558574D01*
X155919131Y-39570443D01*
X156029557Y-39680869D01*
X156041426Y-39690176D01*
X156175012Y-39771079D01*
X156195677Y-39780409D01*
X156194572Y-39782856D01*
X156243037Y-39815245D01*
X156271367Y-39880345D01*
X156260004Y-39950426D01*
X156221208Y-39997387D01*
X156178381Y-40029020D01*
X156149990Y-40049990D01*
X156149969Y-40050018D01*
X156092001Y-40081672D01*
X156021186Y-40076607D01*
X155976123Y-40047646D01*
X155548741Y-39620264D01*
X155533599Y-39601516D01*
X155532484Y-39600291D01*
X155526834Y-39591540D01*
X155518656Y-39585093D01*
X155518654Y-39585091D01*
X155500463Y-39570751D01*
X155496022Y-39566805D01*
X155495960Y-39566878D01*
X155491996Y-39563519D01*
X155488319Y-39559842D01*
X155472567Y-39548585D01*
X155467881Y-39545066D01*
X155444903Y-39526952D01*
X155403790Y-39469071D01*
X155400496Y-39398151D01*
X155421556Y-39353146D01*
X155425612Y-39347654D01*
X155425613Y-39347653D01*
X155431209Y-39340076D01*
X155476493Y-39211127D01*
X155479500Y-39179315D01*
X155479499Y-38670686D01*
X155478975Y-38665135D01*
X155478167Y-38656586D01*
X155768087Y-38656586D01*
X155771475Y-38668124D01*
X155772865Y-38669329D01*
X155780548Y-38671000D01*
X156477885Y-38671000D01*
X156493124Y-38666525D01*
X156494329Y-38665135D01*
X156496000Y-38657452D01*
X156496000Y-38035116D01*
X156491525Y-38019877D01*
X156490135Y-38018672D01*
X156482452Y-38017001D01*
X156421295Y-38017001D01*
X156415546Y-38017264D01*
X156351685Y-38023132D01*
X156338649Y-38025743D01*
X156188757Y-38072715D01*
X156175012Y-38078921D01*
X156041426Y-38159824D01*
X156029557Y-38169131D01*
X155919131Y-38279557D01*
X155909824Y-38291426D01*
X155828921Y-38425012D01*
X155822715Y-38438757D01*
X155775744Y-38588644D01*
X155773131Y-38601694D01*
X155768087Y-38656586D01*
X155478167Y-38656586D01*
X155477216Y-38646522D01*
X155477216Y-38646520D01*
X155476493Y-38638873D01*
X155431209Y-38509924D01*
X155350010Y-38399990D01*
X155240076Y-38318791D01*
X155210675Y-38308466D01*
X155153030Y-38267022D01*
X155128136Y-38210278D01*
X155126330Y-38199431D01*
X155125492Y-38193547D01*
X155120693Y-38152997D01*
X155120692Y-38152995D01*
X155119469Y-38142659D01*
X155115508Y-38134410D01*
X155114004Y-38125374D01*
X155093782Y-38087895D01*
X155089652Y-38080240D01*
X155086957Y-38074951D01*
X155068212Y-38035915D01*
X155064780Y-38028768D01*
X155061186Y-38024492D01*
X155059246Y-38022552D01*
X155057493Y-38020641D01*
X155057444Y-38020551D01*
X155057567Y-38020439D01*
X155057095Y-38019904D01*
X155054010Y-38014186D01*
X155014413Y-37977583D01*
X155010848Y-37974154D01*
X154881289Y-37844595D01*
X154847263Y-37782283D01*
X154852328Y-37711468D01*
X154894875Y-37654632D01*
X154961395Y-37629821D01*
X154970384Y-37629500D01*
X157400141Y-37629500D01*
X157468262Y-37649502D01*
G37*
%TD.AperFunction*%
%TA.AperFunction,Conductor*%
G36*
X157426853Y-39771909D02*
G01*
X157445682Y-39780411D01*
X157444577Y-39782859D01*
X157493037Y-39815245D01*
X157521367Y-39880345D01*
X157510004Y-39950426D01*
X157471208Y-39997387D01*
X157449860Y-40013155D01*
X157383181Y-40037538D01*
X157313906Y-40022001D01*
X157300140Y-40013155D01*
X157278792Y-39997387D01*
X157235882Y-39940826D01*
X157230362Y-39870044D01*
X157263986Y-39807515D01*
X157305205Y-39782375D01*
X157304318Y-39780411D01*
X157323147Y-39771909D01*
X157393464Y-39762105D01*
X157426853Y-39771909D01*
G37*
%TD.AperFunction*%
%TA.AperFunction,Conductor*%
G36*
X149208581Y-28450620D02*
G01*
X149351165Y-28574350D01*
X149351170Y-28574354D01*
X149355696Y-28578281D01*
X149538126Y-28683819D01*
X149737222Y-28752957D01*
X149743155Y-28753817D01*
X149743158Y-28753818D01*
X149939860Y-28782338D01*
X149939863Y-28782338D01*
X149945800Y-28783199D01*
X150156333Y-28773455D01*
X150162157Y-28772051D01*
X150162160Y-28772051D01*
X150355393Y-28725482D01*
X150355395Y-28725481D01*
X150361226Y-28724076D01*
X150366684Y-28721594D01*
X150366688Y-28721593D01*
X150506200Y-28658160D01*
X150553084Y-28636843D01*
X150671601Y-28552773D01*
X150738734Y-28529675D01*
X150807699Y-28546539D01*
X150856598Y-28598011D01*
X150870500Y-28655543D01*
X150870500Y-28994500D01*
X150850498Y-29062621D01*
X150796842Y-29109114D01*
X150744500Y-29120500D01*
X150553920Y-29120500D01*
X150529972Y-29117951D01*
X150528307Y-29117872D01*
X150518124Y-29115680D01*
X150484777Y-29119627D01*
X150478846Y-29119977D01*
X150478854Y-29120072D01*
X150473676Y-29120500D01*
X150468476Y-29120500D01*
X150463347Y-29121354D01*
X150463344Y-29121354D01*
X150449435Y-29123669D01*
X150443557Y-29124506D01*
X150402999Y-29129306D01*
X150402998Y-29129306D01*
X150392659Y-29130530D01*
X150384407Y-29134493D01*
X150375374Y-29135996D01*
X150366205Y-29140943D01*
X150366203Y-29140944D01*
X150330268Y-29160334D01*
X150324975Y-29163031D01*
X150285913Y-29181787D01*
X150285907Y-29181791D01*
X150278768Y-29185219D01*
X150274492Y-29188813D01*
X150272553Y-29190752D01*
X150270638Y-29192508D01*
X150270552Y-29192555D01*
X150270439Y-29192433D01*
X150269904Y-29192905D01*
X150264186Y-29195990D01*
X150257118Y-29203636D01*
X150257117Y-29203637D01*
X150227607Y-29235561D01*
X150224178Y-29239127D01*
X149769782Y-29693524D01*
X149751039Y-29708661D01*
X149749810Y-29709779D01*
X149741060Y-29715429D01*
X149734613Y-29723607D01*
X149734611Y-29723609D01*
X149720271Y-29741800D01*
X149716325Y-29746241D01*
X149716398Y-29746303D01*
X149713039Y-29750267D01*
X149709362Y-29753944D01*
X149698108Y-29769692D01*
X149694602Y-29774362D01*
X149662844Y-29814647D01*
X149659812Y-29823281D01*
X149654486Y-29830734D01*
X149651501Y-29840715D01*
X149639799Y-29879844D01*
X149637964Y-29885492D01*
X149620982Y-29933851D01*
X149620500Y-29939416D01*
X149620500Y-29942124D01*
X149620386Y-29944758D01*
X149620357Y-29944856D01*
X149620193Y-29944849D01*
X149620149Y-29945553D01*
X149618287Y-29951778D01*
X149618696Y-29962183D01*
X149620403Y-30005635D01*
X149620500Y-30010582D01*
X149620500Y-31696080D01*
X149617951Y-31720028D01*
X149617872Y-31721693D01*
X149615680Y-31731876D01*
X149616904Y-31742217D01*
X149619627Y-31765223D01*
X149619977Y-31771154D01*
X149620072Y-31771146D01*
X149620500Y-31776324D01*
X149620500Y-31781524D01*
X149621354Y-31786653D01*
X149621354Y-31786656D01*
X149623669Y-31800565D01*
X149624506Y-31806443D01*
X149630530Y-31857341D01*
X149634493Y-31865593D01*
X149635996Y-31874626D01*
X149640943Y-31883795D01*
X149640944Y-31883797D01*
X149660334Y-31919732D01*
X149663031Y-31925025D01*
X149681785Y-31964082D01*
X149681788Y-31964086D01*
X149685219Y-31971232D01*
X149688814Y-31975508D01*
X149690737Y-31977431D01*
X149692509Y-31979363D01*
X149692552Y-31979442D01*
X149692428Y-31979555D01*
X149692904Y-31980095D01*
X149695990Y-31985814D01*
X149703635Y-31992881D01*
X149735586Y-32022416D01*
X149739152Y-32025846D01*
X150193522Y-32480216D01*
X150208664Y-32498964D01*
X150209779Y-32500189D01*
X150215429Y-32508940D01*
X150223607Y-32515387D01*
X150223609Y-32515389D01*
X150241800Y-32529729D01*
X150246241Y-32533675D01*
X150246303Y-32533602D01*
X150250267Y-32536961D01*
X150253944Y-32540638D01*
X150269692Y-32551892D01*
X150274362Y-32555398D01*
X150314647Y-32587156D01*
X150323281Y-32590188D01*
X150330734Y-32595514D01*
X150379850Y-32610203D01*
X150385492Y-32612036D01*
X150426367Y-32626390D01*
X150433851Y-32629018D01*
X150439416Y-32629500D01*
X150442124Y-32629500D01*
X150444758Y-32629614D01*
X150444856Y-32629643D01*
X150444849Y-32629807D01*
X150445553Y-32629851D01*
X150451778Y-32631713D01*
X150505635Y-32629597D01*
X150510582Y-32629500D01*
X151336242Y-32629500D01*
X151404363Y-32649502D01*
X151434156Y-32679232D01*
X151435219Y-32678339D01*
X151438814Y-32682615D01*
X151440736Y-32684537D01*
X151442509Y-32686470D01*
X151442552Y-32686549D01*
X151442428Y-32686662D01*
X151442904Y-32687202D01*
X151445990Y-32692921D01*
X151453635Y-32699988D01*
X151485586Y-32729523D01*
X151489152Y-32732953D01*
X152018056Y-33261857D01*
X152052082Y-33324169D01*
X152047017Y-33394984D01*
X152018060Y-33440042D01*
X151951485Y-33506617D01*
X151923138Y-33543560D01*
X151884902Y-33648610D01*
X151884902Y-33760400D01*
X151923138Y-33865450D01*
X151951485Y-33902393D01*
X152032985Y-33983893D01*
X152067011Y-34046205D01*
X152069890Y-34072988D01*
X152069890Y-34927010D01*
X152049888Y-34995131D01*
X152032986Y-35016105D01*
X151519782Y-35529310D01*
X151501039Y-35544447D01*
X151499810Y-35545565D01*
X151491060Y-35551215D01*
X151484613Y-35559393D01*
X151484611Y-35559395D01*
X151470271Y-35577586D01*
X151466325Y-35582027D01*
X151466398Y-35582089D01*
X151463039Y-35586053D01*
X151459362Y-35589730D01*
X151448108Y-35605478D01*
X151444602Y-35610148D01*
X151412844Y-35650433D01*
X151409812Y-35659067D01*
X151404486Y-35666520D01*
X151401501Y-35676501D01*
X151389799Y-35715630D01*
X151387964Y-35721278D01*
X151370982Y-35769637D01*
X151370500Y-35775202D01*
X151370500Y-35777910D01*
X151370386Y-35780544D01*
X151370357Y-35780642D01*
X151370193Y-35780635D01*
X151370149Y-35781339D01*
X151368287Y-35787564D01*
X151368696Y-35797969D01*
X151370403Y-35841421D01*
X151370500Y-35846368D01*
X151370500Y-37696080D01*
X151367951Y-37720028D01*
X151367872Y-37721693D01*
X151365680Y-37731876D01*
X151366904Y-37742217D01*
X151369627Y-37765223D01*
X151369977Y-37771154D01*
X151370072Y-37771146D01*
X151370500Y-37776324D01*
X151370500Y-37781524D01*
X151371354Y-37786653D01*
X151371354Y-37786656D01*
X151373669Y-37800565D01*
X151374506Y-37806443D01*
X151380530Y-37857341D01*
X151384493Y-37865593D01*
X151385996Y-37874626D01*
X151390943Y-37883795D01*
X151390944Y-37883797D01*
X151410334Y-37919732D01*
X151413031Y-37925025D01*
X151431785Y-37964082D01*
X151431788Y-37964086D01*
X151435219Y-37971232D01*
X151438814Y-37975508D01*
X151440737Y-37977431D01*
X151442509Y-37979363D01*
X151442552Y-37979442D01*
X151442428Y-37979555D01*
X151442904Y-37980095D01*
X151445990Y-37985814D01*
X151453635Y-37992881D01*
X151485586Y-38022416D01*
X151489152Y-38025846D01*
X151623306Y-38160000D01*
X151657332Y-38222312D01*
X151652267Y-38293127D01*
X151609720Y-38349963D01*
X151563624Y-38371614D01*
X151520184Y-38382043D01*
X151515331Y-38384548D01*
X151445416Y-38389481D01*
X151383137Y-38355396D01*
X151364543Y-38331658D01*
X151340181Y-38291432D01*
X151330869Y-38279557D01*
X151220443Y-38169131D01*
X151208574Y-38159824D01*
X151074988Y-38078921D01*
X151061243Y-38072715D01*
X150911356Y-38025744D01*
X150898306Y-38023131D01*
X150834479Y-38017266D01*
X150828691Y-38017000D01*
X150772115Y-38017000D01*
X150756876Y-38021475D01*
X150755671Y-38022865D01*
X150754000Y-38030548D01*
X150754000Y-39053000D01*
X150733998Y-39121121D01*
X150680342Y-39167614D01*
X150628000Y-39179000D01*
X150372000Y-39179000D01*
X150303879Y-39158998D01*
X150257386Y-39105342D01*
X150246000Y-39053000D01*
X150246000Y-38035116D01*
X150241525Y-38019877D01*
X150240135Y-38018672D01*
X150232452Y-38017001D01*
X150171295Y-38017001D01*
X150165546Y-38017264D01*
X150117028Y-38021722D01*
X150047363Y-38008036D01*
X149996156Y-37958859D01*
X149979500Y-37896250D01*
X149979499Y-37498654D01*
X149979499Y-37495686D01*
X149976493Y-37463873D01*
X149931209Y-37334924D01*
X149850010Y-37224990D01*
X149778792Y-37172387D01*
X149735881Y-37115826D01*
X149730362Y-37045044D01*
X149763986Y-36982514D01*
X149805209Y-36957372D01*
X149804323Y-36955409D01*
X149824988Y-36946079D01*
X149958574Y-36865176D01*
X149970443Y-36855869D01*
X150080869Y-36745443D01*
X150090176Y-36733574D01*
X150171079Y-36599988D01*
X150177285Y-36586243D01*
X150224256Y-36436356D01*
X150226869Y-36423306D01*
X150231913Y-36368414D01*
X150228525Y-36356876D01*
X150227135Y-36355671D01*
X150219452Y-36354000D01*
X149122000Y-36354000D01*
X149053879Y-36333998D01*
X149007386Y-36280342D01*
X149000000Y-36246388D01*
X149000000Y-35827885D01*
X149504000Y-35827885D01*
X149508475Y-35843124D01*
X149509865Y-35844329D01*
X149517548Y-35846000D01*
X150214884Y-35846000D01*
X150230123Y-35841525D01*
X150231328Y-35840135D01*
X150232291Y-35835706D01*
X150226868Y-35776685D01*
X150224257Y-35763649D01*
X150177285Y-35613757D01*
X150171079Y-35600012D01*
X150090176Y-35466426D01*
X150080869Y-35454557D01*
X149970443Y-35344131D01*
X149958574Y-35334824D01*
X149824988Y-35253921D01*
X149811243Y-35247715D01*
X149661356Y-35200744D01*
X149648306Y-35198131D01*
X149584479Y-35192266D01*
X149578691Y-35192000D01*
X149522115Y-35192000D01*
X149506876Y-35196475D01*
X149505671Y-35197865D01*
X149504000Y-35205548D01*
X149504000Y-35827885D01*
X149000000Y-35827885D01*
X149000000Y-28545785D01*
X149020002Y-28477664D01*
X149073658Y-28431171D01*
X149143932Y-28421067D01*
X149208581Y-28450620D01*
G37*
%TD.AperFunction*%
%TA.AperFunction,Conductor*%
G36*
X158807656Y-37381617D02*
G01*
X158856576Y-37433070D01*
X158870500Y-37490646D01*
X158870500Y-38034275D01*
X158850498Y-38102396D01*
X158796842Y-38148889D01*
X158726568Y-38158993D01*
X158679229Y-38142051D01*
X158574992Y-38078923D01*
X158561243Y-38072715D01*
X158411354Y-38025744D01*
X158411131Y-38025699D01*
X158411011Y-38025636D01*
X158404970Y-38023743D01*
X158405314Y-38022647D01*
X158348262Y-37992714D01*
X158313207Y-37930975D01*
X158317095Y-37860085D01*
X158358693Y-37802551D01*
X158360090Y-37801547D01*
X158364855Y-37799151D01*
X158485314Y-37696269D01*
X158577755Y-37567624D01*
X158627593Y-37443649D01*
X158671560Y-37387905D01*
X158738685Y-37364780D01*
X158807656Y-37381617D01*
G37*
%TD.AperFunction*%
%TA.AperFunction,Conductor*%
G36*
X158744339Y-36620188D02*
G01*
X158817364Y-36674917D01*
X158815581Y-36677296D01*
X158855159Y-36716967D01*
X158870500Y-36777222D01*
X158870500Y-37012093D01*
X158850498Y-37080214D01*
X158796842Y-37126707D01*
X158726568Y-37136811D01*
X158661988Y-37107317D01*
X158626634Y-37056631D01*
X158586964Y-36951649D01*
X158584280Y-36944546D01*
X158523593Y-36856245D01*
X158501494Y-36788779D01*
X158519379Y-36720072D01*
X158528554Y-36706787D01*
X158532997Y-36701162D01*
X158561514Y-36654898D01*
X158614286Y-36607405D01*
X158684358Y-36595981D01*
X158744339Y-36620188D01*
G37*
%TD.AperFunction*%
%TA.AperFunction,Conductor*%
G36*
X153115905Y-21274002D02*
G01*
X153162398Y-21327658D01*
X153173225Y-21391857D01*
X153170500Y-21420685D01*
X153170501Y-22079314D01*
X153173507Y-22111127D01*
X153218791Y-22240076D01*
X153224389Y-22247655D01*
X153263155Y-22300141D01*
X153287538Y-22366819D01*
X153272001Y-22436095D01*
X153263155Y-22449859D01*
X153234776Y-22488282D01*
X153218791Y-22509924D01*
X153173507Y-22638873D01*
X153170500Y-22670685D01*
X153170501Y-23329314D01*
X153173507Y-23361127D01*
X153218791Y-23490076D01*
X153224389Y-23497655D01*
X153263155Y-23550141D01*
X153287538Y-23616819D01*
X153272001Y-23686095D01*
X153263155Y-23699859D01*
X153225564Y-23750755D01*
X153218791Y-23759924D01*
X153173507Y-23888873D01*
X153170500Y-23920685D01*
X153170501Y-24579314D01*
X153170780Y-24582262D01*
X153170780Y-24582271D01*
X153171552Y-24590438D01*
X153173507Y-24611127D01*
X153218791Y-24740076D01*
X153299990Y-24850010D01*
X153409924Y-24931209D01*
X153538873Y-24976493D01*
X153546515Y-24977215D01*
X153546518Y-24977216D01*
X153561421Y-24978624D01*
X153570685Y-24979500D01*
X153824828Y-24979500D01*
X154079314Y-24979499D01*
X154082262Y-24979220D01*
X154082271Y-24979220D01*
X154103478Y-24977216D01*
X154103480Y-24977216D01*
X154111127Y-24976493D01*
X154240076Y-24931209D01*
X154274619Y-24905695D01*
X154341998Y-24855929D01*
X154408676Y-24831546D01*
X154476979Y-24846549D01*
X154493653Y-24855602D01*
X154507293Y-24863008D01*
X154660522Y-24903207D01*
X154744477Y-24904526D01*
X154811319Y-24905576D01*
X154811322Y-24905576D01*
X154818916Y-24905695D01*
X154973332Y-24870329D01*
X155050444Y-24831546D01*
X155108072Y-24802563D01*
X155108075Y-24802561D01*
X155114855Y-24799151D01*
X155120628Y-24794220D01*
X155120633Y-24794217D01*
X155162670Y-24758314D01*
X155227459Y-24729283D01*
X155297659Y-24739888D01*
X155350982Y-24786763D01*
X155370500Y-24854125D01*
X155370500Y-25946080D01*
X155367951Y-25970028D01*
X155367872Y-25971693D01*
X155365680Y-25981876D01*
X155366904Y-25992217D01*
X155369627Y-26015223D01*
X155369977Y-26021154D01*
X155370072Y-26021146D01*
X155370500Y-26026324D01*
X155370500Y-26031524D01*
X155371354Y-26036653D01*
X155371354Y-26036656D01*
X155373669Y-26050565D01*
X155374506Y-26056443D01*
X155380530Y-26107341D01*
X155384493Y-26115593D01*
X155385996Y-26124626D01*
X155390943Y-26133795D01*
X155390944Y-26133797D01*
X155410334Y-26169732D01*
X155413031Y-26175025D01*
X155431785Y-26214082D01*
X155431788Y-26214086D01*
X155435219Y-26221232D01*
X155438814Y-26225508D01*
X155440737Y-26227431D01*
X155442509Y-26229363D01*
X155442552Y-26229442D01*
X155442428Y-26229555D01*
X155442904Y-26230095D01*
X155445990Y-26235814D01*
X155479335Y-26266638D01*
X155515780Y-26327564D01*
X155513500Y-26398524D01*
X155473218Y-26456987D01*
X155407724Y-26484391D01*
X155352473Y-26478190D01*
X155268443Y-26449010D01*
X155268441Y-26449009D01*
X155262778Y-26447043D01*
X155256845Y-26446183D01*
X155256842Y-26446182D01*
X155060140Y-26417662D01*
X155060137Y-26417662D01*
X155054200Y-26416801D01*
X154843667Y-26426545D01*
X154837843Y-26427949D01*
X154837840Y-26427949D01*
X154644607Y-26474518D01*
X154644605Y-26474519D01*
X154638774Y-26475924D01*
X154633316Y-26478406D01*
X154633312Y-26478407D01*
X154550234Y-26516181D01*
X154446916Y-26563157D01*
X154275014Y-26685096D01*
X154129272Y-26837340D01*
X154126021Y-26842375D01*
X154068848Y-26930921D01*
X154014948Y-27014397D01*
X153936166Y-27209878D01*
X153895771Y-27416729D01*
X153895500Y-27422270D01*
X153895500Y-27727659D01*
X153910493Y-27884806D01*
X153969823Y-28087042D01*
X153972573Y-28092381D01*
X154023180Y-28190640D01*
X154066324Y-28274410D01*
X154070028Y-28279125D01*
X154192808Y-28435432D01*
X154192812Y-28435436D01*
X154196514Y-28440149D01*
X154201044Y-28444080D01*
X154201045Y-28444081D01*
X154351165Y-28574350D01*
X154351170Y-28574354D01*
X154355696Y-28578281D01*
X154538126Y-28683819D01*
X154737222Y-28752957D01*
X154743155Y-28753817D01*
X154743158Y-28753818D01*
X154939860Y-28782338D01*
X154939863Y-28782338D01*
X154945800Y-28783199D01*
X155156333Y-28773455D01*
X155162157Y-28772051D01*
X155162160Y-28772051D01*
X155355393Y-28725482D01*
X155355395Y-28725481D01*
X155361226Y-28724076D01*
X155366684Y-28721594D01*
X155366688Y-28721593D01*
X155506200Y-28658160D01*
X155553084Y-28636843D01*
X155724986Y-28514904D01*
X155729128Y-28510577D01*
X155733673Y-28506654D01*
X155734474Y-28507582D01*
X155790523Y-28475374D01*
X155861432Y-28478896D01*
X155919181Y-28520195D01*
X155945434Y-28586160D01*
X155945980Y-28597882D01*
X155945980Y-28771560D01*
X155943431Y-28795508D01*
X155943352Y-28797173D01*
X155941160Y-28807356D01*
X155942384Y-28817697D01*
X155945107Y-28840703D01*
X155945457Y-28846634D01*
X155945552Y-28846626D01*
X155945980Y-28851804D01*
X155945980Y-28857004D01*
X155946834Y-28862133D01*
X155946834Y-28862136D01*
X155949149Y-28876045D01*
X155949986Y-28881923D01*
X155956010Y-28932821D01*
X155959973Y-28941073D01*
X155961476Y-28950106D01*
X155964612Y-28955918D01*
X155967648Y-29024627D01*
X155931939Y-29085989D01*
X155868723Y-29118304D01*
X155845303Y-29120500D01*
X151755500Y-29120500D01*
X151687379Y-29100498D01*
X151640886Y-29046842D01*
X151629500Y-28994500D01*
X151629500Y-28658160D01*
X151649502Y-28590039D01*
X151703158Y-28543546D01*
X151773432Y-28533442D01*
X151838081Y-28562996D01*
X151855696Y-28578281D01*
X152038126Y-28683819D01*
X152237222Y-28752957D01*
X152243155Y-28753817D01*
X152243158Y-28753818D01*
X152439860Y-28782338D01*
X152439863Y-28782338D01*
X152445800Y-28783199D01*
X152656333Y-28773455D01*
X152662157Y-28772051D01*
X152662160Y-28772051D01*
X152855393Y-28725482D01*
X152855395Y-28725481D01*
X152861226Y-28724076D01*
X152866684Y-28721594D01*
X152866688Y-28721593D01*
X153006200Y-28658160D01*
X153053084Y-28636843D01*
X153224986Y-28514904D01*
X153370728Y-28362660D01*
X153427710Y-28274410D01*
X153481800Y-28190640D01*
X153481801Y-28190637D01*
X153485052Y-28185603D01*
X153563834Y-27990122D01*
X153604229Y-27783271D01*
X153604500Y-27777730D01*
X153604500Y-27472341D01*
X153589507Y-27315194D01*
X153530177Y-27112958D01*
X153479415Y-27014397D01*
X153436422Y-26930921D01*
X153436420Y-26930918D01*
X153433676Y-26925590D01*
X153364168Y-26837102D01*
X153307192Y-26764568D01*
X153307188Y-26764564D01*
X153303486Y-26759851D01*
X153298955Y-26755919D01*
X153148835Y-26625650D01*
X153148830Y-26625646D01*
X153144304Y-26621719D01*
X152961874Y-26516181D01*
X152762778Y-26447043D01*
X152756845Y-26446183D01*
X152756842Y-26446182D01*
X152560140Y-26417662D01*
X152560137Y-26417662D01*
X152554200Y-26416801D01*
X152343667Y-26426545D01*
X152337843Y-26427949D01*
X152337840Y-26427949D01*
X152144607Y-26474518D01*
X152144605Y-26474519D01*
X152138774Y-26475924D01*
X152133316Y-26478406D01*
X152133312Y-26478407D01*
X152050234Y-26516181D01*
X151946916Y-26563157D01*
X151828399Y-26647227D01*
X151761266Y-26670325D01*
X151692301Y-26653461D01*
X151643402Y-26601989D01*
X151629500Y-26544457D01*
X151629500Y-26529320D01*
X151632049Y-26505373D01*
X151632128Y-26503707D01*
X151634320Y-26493524D01*
X151633096Y-26483182D01*
X151633096Y-26483179D01*
X151630374Y-26460187D01*
X151630023Y-26454246D01*
X151629928Y-26454254D01*
X151629500Y-26449074D01*
X151629500Y-26443876D01*
X151626329Y-26424824D01*
X151625492Y-26418947D01*
X151620693Y-26378397D01*
X151620692Y-26378395D01*
X151619469Y-26368059D01*
X151615508Y-26359810D01*
X151614004Y-26350774D01*
X151609056Y-26341603D01*
X151589652Y-26305640D01*
X151586957Y-26300351D01*
X151568212Y-26261315D01*
X151564780Y-26254168D01*
X151561186Y-26249892D01*
X151559246Y-26247952D01*
X151557493Y-26246041D01*
X151557444Y-26245951D01*
X151557567Y-26245839D01*
X151557095Y-26245304D01*
X151554010Y-26239586D01*
X151543159Y-26229555D01*
X151514414Y-26202984D01*
X151510848Y-26199554D01*
X150280400Y-24969106D01*
X150246374Y-24906794D01*
X150251439Y-24835979D01*
X150293986Y-24779143D01*
X150360506Y-24754332D01*
X150369495Y-24754011D01*
X151515506Y-24754011D01*
X151583627Y-24774013D01*
X151616856Y-24805150D01*
X151649990Y-24850010D01*
X151657565Y-24855605D01*
X151657566Y-24855606D01*
X151679794Y-24872024D01*
X151759924Y-24931209D01*
X151888873Y-24976493D01*
X151896515Y-24977215D01*
X151896518Y-24977216D01*
X151911421Y-24978624D01*
X151920685Y-24979500D01*
X152174828Y-24979500D01*
X152429314Y-24979499D01*
X152432262Y-24979220D01*
X152432271Y-24979220D01*
X152453478Y-24977216D01*
X152453480Y-24977216D01*
X152461127Y-24976493D01*
X152590076Y-24931209D01*
X152700010Y-24850010D01*
X152781209Y-24740076D01*
X152826493Y-24611127D01*
X152829500Y-24579315D01*
X152829499Y-23920686D01*
X152826493Y-23888873D01*
X152781209Y-23759924D01*
X152774436Y-23750755D01*
X152736845Y-23699859D01*
X152712462Y-23633181D01*
X152727999Y-23563905D01*
X152736845Y-23550141D01*
X152775611Y-23497655D01*
X152781209Y-23490076D01*
X152826493Y-23361127D01*
X152829500Y-23329315D01*
X152829499Y-22670686D01*
X152826493Y-22638873D01*
X152823564Y-22630531D01*
X152796439Y-22553293D01*
X152781209Y-22509924D01*
X152765224Y-22488282D01*
X152736845Y-22449859D01*
X152712462Y-22383181D01*
X152727999Y-22313905D01*
X152736845Y-22300141D01*
X152775611Y-22247655D01*
X152781209Y-22240076D01*
X152826493Y-22111127D01*
X152829500Y-22079315D01*
X152829499Y-21420686D01*
X152828472Y-21409812D01*
X152826775Y-21391851D01*
X152840281Y-21322151D01*
X152889326Y-21270818D01*
X152952216Y-21254000D01*
X153047784Y-21254000D01*
X153115905Y-21274002D01*
G37*
%TD.AperFunction*%
%TA.AperFunction,Conductor*%
G36*
X149208512Y-24971060D02*
G01*
X149215095Y-24977189D01*
X150521312Y-26283406D01*
X150555338Y-26345718D01*
X150550273Y-26416533D01*
X150507726Y-26473369D01*
X150441206Y-26498180D01*
X150390884Y-26491529D01*
X150322019Y-26467615D01*
X150262778Y-26447043D01*
X150256845Y-26446183D01*
X150256842Y-26446182D01*
X150060140Y-26417662D01*
X150060137Y-26417662D01*
X150054200Y-26416801D01*
X149843667Y-26426545D01*
X149837843Y-26427949D01*
X149837840Y-26427949D01*
X149644607Y-26474518D01*
X149644605Y-26474519D01*
X149638774Y-26475924D01*
X149633316Y-26478406D01*
X149633312Y-26478407D01*
X149550234Y-26516181D01*
X149446916Y-26563157D01*
X149275014Y-26685096D01*
X149270876Y-26689419D01*
X149270871Y-26689423D01*
X149217018Y-26745679D01*
X149155462Y-26781055D01*
X149084553Y-26777536D01*
X149026803Y-26736239D01*
X149000547Y-26670276D01*
X149000000Y-26658548D01*
X149000000Y-25066284D01*
X149020002Y-24998163D01*
X149073658Y-24951670D01*
X149143932Y-24941566D01*
X149208512Y-24971060D01*
G37*
%TD.AperFunction*%
%TA.AperFunction,Conductor*%
G36*
X158259371Y-21274002D02*
G01*
X158305864Y-21327658D01*
X158317250Y-21380000D01*
X158317250Y-26298484D01*
X158297248Y-26366605D01*
X158243592Y-26413098D01*
X158177642Y-26423747D01*
X158147756Y-26420500D01*
X156852244Y-26420500D01*
X156790552Y-26427202D01*
X156785305Y-26429169D01*
X156715422Y-26425521D01*
X156657778Y-26384077D01*
X156644448Y-26362565D01*
X156643694Y-26361397D01*
X156640261Y-26354248D01*
X156636667Y-26349973D01*
X156634742Y-26348048D01*
X156632971Y-26346118D01*
X156632925Y-26346033D01*
X156633048Y-26345921D01*
X156632576Y-26345386D01*
X156629490Y-26339666D01*
X156589893Y-26303063D01*
X156586328Y-26299634D01*
X156166405Y-25879711D01*
X156132379Y-25817399D01*
X156129500Y-25790616D01*
X156129500Y-22303920D01*
X156132049Y-22279972D01*
X156132128Y-22278307D01*
X156134320Y-22268124D01*
X156130373Y-22234777D01*
X156130023Y-22228846D01*
X156129928Y-22228854D01*
X156129500Y-22223676D01*
X156129500Y-22218476D01*
X156128646Y-22213344D01*
X156126331Y-22199435D01*
X156125494Y-22193557D01*
X156120694Y-22152999D01*
X156120694Y-22152998D01*
X156119470Y-22142659D01*
X156115507Y-22134407D01*
X156114004Y-22125374D01*
X156089665Y-22080266D01*
X156086969Y-22074975D01*
X156068213Y-22035913D01*
X156068209Y-22035907D01*
X156064781Y-22028768D01*
X156061187Y-22024492D01*
X156059248Y-22022553D01*
X156057492Y-22020638D01*
X156057445Y-22020552D01*
X156057567Y-22020439D01*
X156057095Y-22019904D01*
X156054010Y-22014186D01*
X156014439Y-21977607D01*
X156010873Y-21974178D01*
X155556476Y-21519782D01*
X155541339Y-21501039D01*
X155540221Y-21499810D01*
X155534571Y-21491060D01*
X155519209Y-21478950D01*
X155478096Y-21421071D01*
X155474801Y-21350151D01*
X155510371Y-21288708D01*
X155573513Y-21256249D01*
X155597214Y-21254000D01*
X158191250Y-21254000D01*
X158259371Y-21274002D01*
G37*
%TD.AperFunction*%
%TD*%
M02*
