%TF.GenerationSoftware,KiCad,Pcbnew,(6.0.2-0)*%
%TF.CreationDate,2022-03-05T08:12:12+00:00*%
%TF.ProjectId,Generic4,47656e65-7269-4633-942e-6b696361645f,1*%
%TF.SameCoordinates,Original*%
%TF.FileFunction,Copper,L2,Bot*%
%TF.FilePolarity,Positive*%
%FSLAX46Y46*%
G04 Gerber Fmt 4.6, Leading zero omitted, Abs format (unit mm)*
G04 Created by KiCad (PCBNEW (6.0.2-0)) date 2022-03-05 08:12:12*
%MOMM*%
%LPD*%
G01*
G04 APERTURE LIST*
G04 Aperture macros list*
%AMRoundRect*
0 Rectangle with rounded corners*
0 $1 Rounding radius*
0 $2 $3 $4 $5 $6 $7 $8 $9 X,Y pos of 4 corners*
0 Add a 4 corners polygon primitive as box body*
4,1,4,$2,$3,$4,$5,$6,$7,$8,$9,$2,$3,0*
0 Add four circle primitives for the rounded corners*
1,1,$1+$1,$2,$3*
1,1,$1+$1,$4,$5*
1,1,$1+$1,$6,$7*
1,1,$1+$1,$8,$9*
0 Add four rect primitives between the rounded corners*
20,1,$1+$1,$2,$3,$4,$5,0*
20,1,$1+$1,$4,$5,$6,$7,0*
20,1,$1+$1,$6,$7,$8,$9,0*
20,1,$1+$1,$8,$9,$2,$3,0*%
%AMFreePoly0*
4,1,43,1.487500,0.558253,1.533253,0.512500,1.550000,0.450000,1.535584,0.322050,1.493057,0.200517,1.424553,0.091493,1.333507,0.000447,1.224483,-0.068057,1.102950,-0.110584,0.975000,-0.125000,-0.975000,-0.125000,-1.102950,-0.110584,-1.224483,-0.068057,-1.333507,0.000447,-1.424553,0.091493,-1.493057,0.200517,-1.535584,0.322050,-1.550000,0.450000,-1.533253,0.512500,-1.487500,0.558253,
-1.425000,0.575000,-1.362500,0.558253,-1.316747,0.512500,-1.300000,0.450000,-1.302546,0.440498,-1.287946,0.348318,-1.241208,0.256589,-1.168411,0.183792,-1.076682,0.137054,-0.984502,0.122454,-0.975000,0.125000,0.975000,0.125000,0.984502,0.122454,1.076682,0.137054,1.168411,0.183792,1.241208,0.256589,1.287946,0.348318,1.302546,0.440498,1.300000,0.450000,1.316747,0.512500,
1.362500,0.558253,1.425000,0.575000,1.487500,0.558253,1.487500,0.558253,$1*%
%AMFreePoly1*
4,1,24,1.427950,0.110584,1.549483,0.068057,1.658507,-0.000447,1.749553,-0.091493,1.818057,-0.200517,1.860584,-0.322050,1.875000,-0.450000,1.858253,-0.512500,1.812500,-0.558253,1.750000,-0.575000,1.687500,-0.558253,1.641747,-0.512500,1.625000,-0.450000,1.627546,-0.440498,1.612946,-0.348318,1.566208,-0.256589,1.493411,-0.183792,1.401682,-0.137054,1.309502,-0.122454,1.300000,-0.125000,
-1.300000,-0.125000,-1.300000,0.125000,1.300000,0.125000,1.427950,0.110584,1.427950,0.110584,$1*%
%AMFreePoly2*
4,1,37,0.195545,0.234610,0.386273,0.188820,0.567490,0.113758,0.734733,0.011271,0.883885,-0.116117,1.011272,-0.265269,1.113759,-0.432512,1.188821,-0.613729,1.234611,-0.804457,1.250000,-1.000000,1.230970,-1.095671,1.176777,-1.176777,1.095671,-1.230970,1.000000,-1.250000,0.904329,-1.230970,0.823223,-1.176777,0.769030,-1.095671,0.750000,-1.000000,0.752427,-0.987798,0.739148,-0.852974,
0.696263,-0.711599,0.626620,-0.581306,0.532897,-0.467104,0.418695,-0.373381,0.288403,-0.303738,0.147027,-0.260852,0.012204,-0.247573,0.000002,-0.250000,-0.095669,-0.230970,-0.176775,-0.176777,-0.230968,-0.095671,-0.249998,0.000000,-0.230968,0.095671,-0.176775,0.176777,-0.095669,0.230970,0.000002,0.250000,0.195545,0.234610,0.195545,0.234610,$1*%
%AMFreePoly3*
4,1,72,6.695671,0.230970,6.776777,0.176777,6.830970,0.095671,6.850000,0.000000,6.830970,-0.095671,6.776777,-0.176777,6.695671,-0.230970,6.600000,-0.250000,5.112500,-0.250000,5.112500,-1.380275,5.176777,-1.423223,5.230970,-1.504329,5.250000,-1.600000,5.250000,-6.400000,5.236550,-6.536563,5.196716,-6.667878,5.132029,-6.788899,5.044975,-6.894975,4.938899,-6.982029,4.817878,-7.046716,
4.686563,-7.086550,4.550000,-7.100000,1.550000,-7.100000,1.413437,-7.086550,1.282122,-7.046716,1.161101,-6.982029,1.055025,-6.894975,0.967971,-6.788899,0.903284,-6.667878,0.863450,-6.536563,0.850000,-6.400000,0.850000,-5.900000,0.869030,-5.804329,0.923223,-5.723223,1.004329,-5.669030,1.100000,-5.650000,1.195671,-5.669030,1.276777,-5.723223,1.330970,-5.804329,1.350000,-5.900000,
1.350000,-6.400000,1.348612,-6.406977,1.357418,-6.462574,1.386180,-6.519022,1.430978,-6.563820,1.487426,-6.592582,1.543022,-6.601388,1.550000,-6.600000,4.550000,-6.600000,4.556978,-6.601388,4.612574,-6.592582,4.669022,-6.563820,4.713820,-6.519022,4.742582,-6.462574,4.751388,-6.406977,4.750000,-6.400000,4.750000,-1.819725,4.685723,-1.776777,4.631530,-1.695671,4.612500,-1.600000,
4.612500,-0.250000,0.000000,-0.250000,-0.095671,-0.230970,-0.176777,-0.176777,-0.230970,-0.095671,-0.250000,0.000000,-0.230970,0.095671,-0.176777,0.176777,-0.095671,0.230970,0.000000,0.250000,6.600000,0.250000,6.695671,0.230970,6.695671,0.230970,$1*%
G04 Aperture macros list end*
%TA.AperFunction,ComponentPad*%
%ADD10RoundRect,0.250000X-0.600000X-0.675000X0.600000X-0.675000X0.600000X0.675000X-0.600000X0.675000X0*%
%TD*%
%TA.AperFunction,ComponentPad*%
%ADD11O,1.700000X1.850000*%
%TD*%
%TA.AperFunction,SMDPad,CuDef*%
%ADD12RoundRect,0.200000X-0.275000X0.200000X-0.275000X-0.200000X0.275000X-0.200000X0.275000X0.200000X0*%
%TD*%
%TA.AperFunction,SMDPad,CuDef*%
%ADD13RoundRect,0.200000X-0.200000X-0.275000X0.200000X-0.275000X0.200000X0.275000X-0.200000X0.275000X0*%
%TD*%
%TA.AperFunction,ComponentPad*%
%ADD14R,1.700000X1.700000*%
%TD*%
%TA.AperFunction,ComponentPad*%
%ADD15O,1.700000X1.700000*%
%TD*%
%TA.AperFunction,SMDPad,CuDef*%
%ADD16R,0.850000X0.500000*%
%TD*%
%TA.AperFunction,SMDPad,CuDef*%
%ADD17FreePoly0,180.000000*%
%TD*%
%TA.AperFunction,SMDPad,CuDef*%
%ADD18RoundRect,0.225000X0.250000X-0.225000X0.250000X0.225000X-0.250000X0.225000X-0.250000X-0.225000X0*%
%TD*%
%TA.AperFunction,SMDPad,CuDef*%
%ADD19R,0.500000X2.000000*%
%TD*%
%TA.AperFunction,SMDPad,CuDef*%
%ADD20R,1.425000X3.700000*%
%TD*%
%TA.AperFunction,SMDPad,CuDef*%
%ADD21FreePoly1,180.000000*%
%TD*%
%TA.AperFunction,SMDPad,CuDef*%
%ADD22R,0.600000X1.100000*%
%TD*%
%TA.AperFunction,SMDPad,CuDef*%
%ADD23RoundRect,0.249375X0.463125X0.625625X-0.463125X0.625625X-0.463125X-0.625625X0.463125X-0.625625X0*%
%TD*%
%TA.AperFunction,SMDPad,CuDef*%
%ADD24R,2.000000X0.500000*%
%TD*%
%TA.AperFunction,SMDPad,CuDef*%
%ADD25RoundRect,0.250000X-0.475000X0.250000X-0.475000X-0.250000X0.475000X-0.250000X0.475000X0.250000X0*%
%TD*%
%TA.AperFunction,SMDPad,CuDef*%
%ADD26FreePoly2,180.000000*%
%TD*%
%TA.AperFunction,SMDPad,CuDef*%
%ADD27FreePoly3,180.000000*%
%TD*%
%TA.AperFunction,SMDPad,CuDef*%
%ADD28R,0.500000X4.000000*%
%TD*%
%TA.AperFunction,SMDPad,CuDef*%
%ADD29RoundRect,0.200000X0.200000X0.275000X-0.200000X0.275000X-0.200000X-0.275000X0.200000X-0.275000X0*%
%TD*%
%TA.AperFunction,ViaPad*%
%ADD30C,0.800000*%
%TD*%
%TA.AperFunction,Conductor*%
%ADD31C,0.250000*%
%TD*%
G04 APERTURE END LIST*
D10*
%TO.P,J2,1,Pin_1*%
%TO.N,GND*%
X96250000Y-51440000D03*
D11*
%TO.P,J2,2,Pin_2*%
%TO.N,DC*%
X98750000Y-51440000D03*
%TO.P,J2,3,Pin_3*%
%TO.N,IO6*%
X101250000Y-51440000D03*
%TO.P,J2,4,Pin_4*%
%TO.N,IO7*%
X103750000Y-51440000D03*
%TD*%
D12*
%TO.P,R2,1*%
%TO.N,Net-(D1-Pad3)*%
X104300000Y-43875000D03*
%TO.P,R2,2*%
%TO.N,G*%
X104300000Y-45525000D03*
%TD*%
D13*
%TO.P,R5,1*%
%TO.N,GND*%
X101575000Y-39500000D03*
%TO.P,R5,2*%
%TO.N,Net-(R4-Pad2)*%
X103225000Y-39500000D03*
%TD*%
D14*
%TO.P,J1,1,Pin_1*%
%TO.N,GND*%
X94925000Y-53980000D03*
D15*
%TO.P,J1,2,Pin_2*%
%TO.N,IO1*%
X94925000Y-56520000D03*
%TO.P,J1,3,Pin_3*%
%TO.N,GPIO0*%
X97465000Y-53980000D03*
%TO.P,J1,4,Pin_4*%
%TO.N,IO2*%
X97465000Y-56520000D03*
%TO.P,J1,5,Pin_5*%
%TO.N,EN*%
X100005000Y-53980000D03*
%TO.P,J1,6,Pin_6*%
%TO.N,IO3*%
X100005000Y-56520000D03*
%TO.P,J1,7,Pin_7*%
%TO.N,RX*%
X102545000Y-53980000D03*
%TO.P,J1,8,Pin_8*%
%TO.N,IO4*%
X102545000Y-56520000D03*
%TO.P,J1,9,Pin_9*%
%TO.N,TX*%
X105085000Y-53980000D03*
%TO.P,J1,10,Pin_10*%
%TO.N,IO5*%
X105085000Y-56520000D03*
%TD*%
D12*
%TO.P,R1,1*%
%TO.N,Net-(D1-Pad2)*%
X102700000Y-43875000D03*
%TO.P,R1,2*%
%TO.N,R*%
X102700000Y-45525000D03*
%TD*%
%TO.P,R3,1*%
%TO.N,Net-(D1-Pad4)*%
X105900000Y-43875000D03*
%TO.P,R3,2*%
%TO.N,B*%
X105900000Y-45525000D03*
%TD*%
D16*
%TO.P,D1,1,A*%
%TO.N,EN*%
X105775000Y-41100000D03*
%TO.P,D1,2,RK*%
%TO.N,Net-(D1-Pad2)*%
X104025000Y-41100000D03*
%TO.P,D1,3,GK*%
%TO.N,Net-(D1-Pad3)*%
X104025000Y-42100000D03*
%TO.P,D1,4,BK*%
%TO.N,Net-(D1-Pad4)*%
X105775000Y-42100000D03*
%TD*%
D17*
%TO.P,U2,*%
%TO.N,*%
X100125000Y-42050000D03*
D18*
X101750000Y-42625000D03*
D19*
X98700000Y-43900000D03*
D20*
X97250000Y-41650000D03*
D21*
X100450000Y-41150000D03*
D22*
X98700000Y-40250000D03*
D23*
X98852500Y-44770000D03*
D18*
X101750000Y-41075000D03*
D22*
X98700000Y-42950000D03*
D24*
X97750000Y-42950000D03*
D22*
%TO.P,U2,1,SHDN*%
%TO.N,DC*%
X100600000Y-42950000D03*
D25*
%TO.P,U2,2,VIN*%
X100500000Y-44200000D03*
D22*
X99650000Y-42950000D03*
D26*
X100710000Y-44150000D03*
D27*
%TO.P,U2,3,GND*%
%TO.N,GND*%
X100750000Y-46100000D03*
D25*
X100500000Y-46100000D03*
X94250000Y-46100000D03*
D22*
X99650000Y-40250000D03*
D23*
X95887500Y-44770000D03*
D25*
%TO.P,U2,4,VOUT*%
%TO.N,EN*%
X94250000Y-44200000D03*
D20*
X94250000Y-41650000D03*
D28*
X94250000Y-42400000D03*
D22*
%TO.P,U2,5,FB*%
%TO.N,Net-(R4-Pad2)*%
X100600000Y-40250000D03*
%TD*%
D29*
%TO.P,R4,1*%
%TO.N,EN*%
X105825000Y-39500000D03*
%TO.P,R4,2*%
%TO.N,Net-(R4-Pad2)*%
X104175000Y-39500000D03*
%TD*%
D30*
%TO.N,GND*%
X97540500Y-45250000D03*
X96100000Y-48093748D03*
X95750000Y-40650000D03*
%TO.N,TX*%
X103367943Y-46421273D03*
%TO.N,RX*%
X103336743Y-47638860D03*
%TO.N,EN*%
X104884187Y-40391384D03*
X95099502Y-48093748D03*
X94706750Y-41793250D03*
%TO.N,IO2*%
X98300000Y-47900000D03*
%TO.N,GPIO0*%
X102340895Y-47553469D03*
%TO.N,IO5*%
X104900000Y-48093748D03*
%TO.N,R*%
X103299500Y-42868750D03*
%TO.N,G*%
X104900000Y-42900000D03*
%TO.N,B*%
X104900000Y-46600000D03*
%TD*%
D31*
%TO.N,GND*%
X99650000Y-39450000D02*
X99650000Y-40250000D01*
X101575000Y-39500000D02*
X101375000Y-39300000D01*
X96100000Y-48093748D02*
X96100000Y-51290000D01*
X101375000Y-39300000D02*
X99800000Y-39300000D01*
X95887500Y-44770000D02*
X97060500Y-44770000D01*
X96250000Y-51440000D02*
G75*
G02*
X96100000Y-51290000I0J150000D01*
G01*
X97540500Y-45250000D02*
G75*
G03*
X97060500Y-44770000I-480001J-1D01*
G01*
X99650000Y-39450000D02*
G75*
G02*
X99800000Y-39300000I150000J0D01*
G01*
%TO.N,TX*%
X104061244Y-47114574D02*
X104061244Y-49061244D01*
X105085000Y-50085000D02*
X105085000Y-53980000D01*
X105085000Y-50085000D02*
G75*
G03*
X104500000Y-49500000I-585002J-2D01*
G01*
X104061244Y-47114574D02*
G75*
G03*
X103367943Y-46421273I-693300J1D01*
G01*
X104500000Y-49500000D02*
G75*
G02*
X104061244Y-49061244I1J438757D01*
G01*
%TO.N,RX*%
X103336743Y-47638860D02*
X103336743Y-48863257D01*
X102545000Y-49655000D02*
X102545000Y-53980000D01*
X102545000Y-49655000D02*
G75*
G02*
X103000000Y-49200000I454999J1D01*
G01*
X103000000Y-49200000D02*
G75*
G03*
X103336743Y-48863257I-1J336744D01*
G01*
%TO.N,Net-(D1-Pad2)*%
X102574999Y-43749999D02*
X102574999Y-42550001D01*
X102574999Y-43749999D02*
G75*
G03*
X102700000Y-43875000I125001J0D01*
G01*
X104025000Y-41100000D02*
G75*
G03*
X102574999Y-42550001I-2J-1449999D01*
G01*
%TO.N,DC*%
X99300000Y-47300000D02*
X99300000Y-50890000D01*
X101007456Y-46925988D02*
X99674012Y-46925988D01*
X101597441Y-45297441D02*
X101597441Y-46540052D01*
X100600000Y-42950000D02*
X99650000Y-42950000D01*
X101212973Y-46924520D02*
X101008924Y-46924520D01*
X101008924Y-46924520D02*
X101007456Y-46925988D01*
X101212973Y-46924520D02*
G75*
G03*
X101597441Y-46540052I0J384468D01*
G01*
X99300000Y-47300000D02*
G75*
G02*
X99674012Y-46925988I374013J-1D01*
G01*
X101597441Y-45297441D02*
G75*
G03*
X100500000Y-44200000I-1097441J0D01*
G01*
X98750000Y-51440000D02*
G75*
G03*
X99300000Y-50890000I1J549999D01*
G01*
%TO.N,EN*%
X96292145Y-53420280D02*
X96290489Y-53493501D01*
X97480569Y-48255969D02*
X97480569Y-52546918D01*
X97391763Y-52658278D02*
X97280403Y-52747084D01*
X96611088Y-55051233D02*
X96750416Y-55118330D01*
X97280403Y-52747084D02*
X97152075Y-52808884D01*
X95099502Y-48093748D02*
X95099502Y-48069646D01*
X96290489Y-54466499D02*
X96292259Y-54543820D01*
X96393767Y-54833912D02*
X96490184Y-54954816D01*
X96326670Y-54694584D02*
X96393767Y-54833912D01*
X96479574Y-53031080D02*
X96388269Y-53145572D01*
X99505668Y-54944255D02*
X99662851Y-54812362D01*
X105775000Y-39550000D02*
X105825000Y-39500000D01*
X96324731Y-53277511D02*
X96292145Y-53420280D01*
X105775000Y-41100000D02*
X105775000Y-39550000D01*
X96290489Y-53493501D02*
X96290489Y-54466499D01*
X99967517Y-54284666D02*
X100003147Y-54082594D01*
X96941995Y-52841995D02*
X96868774Y-52843651D01*
X95799901Y-47369247D02*
X96593847Y-47369247D01*
X99327969Y-55046849D02*
X99505668Y-54944255D01*
X97152075Y-52808884D02*
X97013212Y-52840578D01*
X96292259Y-54543820D02*
X96326670Y-54694584D01*
X96726005Y-52876237D02*
X96594066Y-52939775D01*
X96868774Y-52843651D02*
X96726005Y-52876237D01*
X104884187Y-40391384D02*
X105740619Y-39534952D01*
X96750416Y-55118330D02*
X96901180Y-55152741D01*
X96594066Y-52939775D02*
X96479574Y-53031080D01*
X99897338Y-54477480D02*
X99967517Y-54284666D01*
X99662851Y-54812362D02*
X99794744Y-54655179D01*
X96388269Y-53145572D02*
X96324731Y-53277511D01*
X98933083Y-55152658D02*
X99135155Y-55117028D01*
X99135155Y-55117028D02*
X99327969Y-55046849D01*
X96978501Y-55154511D02*
X98830489Y-55154511D01*
X100003147Y-54082594D02*
X100005000Y-53980000D01*
X99794744Y-54655179D02*
X99897338Y-54477480D01*
X97480569Y-52546918D02*
X97391763Y-52658278D01*
X96901180Y-55152741D02*
X96978501Y-55154511D01*
X96490184Y-54954816D02*
X96611088Y-55051233D01*
X98830489Y-55154511D02*
X98933083Y-55152658D01*
X97013212Y-52840578D02*
X96941995Y-52841995D01*
X105825000Y-39500000D02*
G75*
G03*
X105740619Y-39534952I1J-119334D01*
G01*
X97480569Y-48255969D02*
G75*
G03*
X96593847Y-47369247I-886722J0D01*
G01*
X95799901Y-47369247D02*
G75*
G03*
X95099502Y-48069646I0J-700399D01*
G01*
%TO.N,IO2*%
X93750489Y-47549511D02*
X93750489Y-56650489D01*
X94887493Y-47000000D02*
X94300000Y-47000000D01*
X94794511Y-57694511D02*
X96290489Y-57694511D01*
X97319737Y-46919737D02*
X94967756Y-46919737D01*
X94794511Y-57694511D02*
G75*
G02*
X93750489Y-56650489I0J1044022D01*
G01*
X93750489Y-47549511D02*
G75*
G02*
X94300000Y-47000000I549511J0D01*
G01*
X97465000Y-56520000D02*
G75*
G02*
X96290489Y-57694511I-1174510J-1D01*
G01*
X94887493Y-47000000D02*
G75*
G03*
X94967756Y-46919737I2J80261D01*
G01*
X97319737Y-46919737D02*
G75*
G02*
X98300000Y-47900000I1J-980262D01*
G01*
%TO.N,Net-(D1-Pad3)*%
X104025000Y-42100000D02*
X104025000Y-43600000D01*
X104300000Y-43875000D02*
G75*
G02*
X104025000Y-43600000I1J275001D01*
G01*
%TO.N,Net-(D1-Pad4)*%
X105775000Y-42100000D02*
X105775000Y-43750000D01*
X105900000Y-43875000D02*
G75*
G02*
X105775000Y-43750000I1J125001D01*
G01*
%TO.N,GPIO0*%
X99300000Y-52900000D02*
X98545000Y-52900000D01*
X102340895Y-47553469D02*
X101297491Y-47553469D01*
X100075480Y-48775480D02*
X100075480Y-52124520D01*
X100075480Y-48775480D02*
G75*
G02*
X101297491Y-47553469I1222012J-1D01*
G01*
X99300000Y-52900000D02*
G75*
G03*
X100075480Y-52124520I-1J775481D01*
G01*
X97465000Y-53980000D02*
G75*
G02*
X98545000Y-52900000I1080001J-1D01*
G01*
%TO.N,IO5*%
X106259511Y-55345489D02*
X106259511Y-49453259D01*
X104900000Y-48093748D02*
G75*
G02*
X106259511Y-49453259I-2J-1359513D01*
G01*
X106259511Y-55345489D02*
G75*
G02*
X105085000Y-56520000I-1174510J-1D01*
G01*
%TO.N,R*%
X103499520Y-43068770D02*
X103499520Y-44725480D01*
X103499520Y-43068770D02*
G75*
G03*
X103299500Y-42868750I-200022J-2D01*
G01*
X102700000Y-45525000D02*
G75*
G03*
X103499520Y-44725480I0J799520D01*
G01*
%TO.N,G*%
X105099520Y-43099520D02*
X105099520Y-44725480D01*
X104300000Y-45525000D02*
G75*
G03*
X105099520Y-44725480I0J799520D01*
G01*
X105099520Y-43099520D02*
G75*
G03*
X104900000Y-42900000I-199520J0D01*
G01*
%TO.N,B*%
X105900000Y-45600000D02*
X105900000Y-45525000D01*
X105900000Y-45600000D02*
G75*
G02*
X104900000Y-46600000I-999999J-1D01*
G01*
%TO.N,Net-(R4-Pad2)*%
X100649520Y-40299520D02*
X102425480Y-40299520D01*
X103225000Y-39500000D02*
X104175000Y-39500000D01*
X100600000Y-40250000D02*
X100649520Y-40299520D01*
X103225000Y-39500000D02*
G75*
G02*
X102425480Y-40299520I-799520J0D01*
G01*
%TD*%
%TA.AperFunction,Conductor*%
%TO.N,GND*%
G36*
X94654597Y-47399502D02*
G01*
X94701090Y-47453158D01*
X94711194Y-47523432D01*
X94681700Y-47588012D01*
X94669306Y-47600448D01*
X94615268Y-47647589D01*
X94615264Y-47647594D01*
X94609541Y-47652586D01*
X94518452Y-47782192D01*
X94508963Y-47806531D01*
X94468084Y-47911380D01*
X94460908Y-47929785D01*
X94459916Y-47937318D01*
X94459916Y-47937319D01*
X94441796Y-48074958D01*
X94440231Y-48086844D01*
X94445321Y-48132948D01*
X94456499Y-48234189D01*
X94457615Y-48244301D01*
X94460225Y-48251432D01*
X94460225Y-48251434D01*
X94507011Y-48379283D01*
X94512055Y-48393067D01*
X94516291Y-48399370D01*
X94516291Y-48399371D01*
X94579203Y-48492993D01*
X94600410Y-48524553D01*
X94606029Y-48529666D01*
X94606030Y-48529667D01*
X94709112Y-48623464D01*
X94717578Y-48631167D01*
X94856795Y-48706756D01*
X95010024Y-48746955D01*
X95093979Y-48748274D01*
X95160821Y-48749324D01*
X95160824Y-48749324D01*
X95168418Y-48749443D01*
X95322834Y-48714077D01*
X95398049Y-48676248D01*
X95457574Y-48646311D01*
X95457577Y-48646309D01*
X95464357Y-48642899D01*
X95470128Y-48637970D01*
X95470131Y-48637968D01*
X95579038Y-48544952D01*
X95579038Y-48544951D01*
X95584816Y-48540017D01*
X95677257Y-48411372D01*
X95736344Y-48264389D01*
X95744541Y-48206795D01*
X95758083Y-48111639D01*
X95758083Y-48111636D01*
X95758664Y-48107555D01*
X95758809Y-48093748D01*
X95757420Y-48082265D01*
X95749767Y-48019027D01*
X95739778Y-47936481D01*
X95733280Y-47919284D01*
X95727912Y-47848493D01*
X95761669Y-47786035D01*
X95823834Y-47751743D01*
X95851146Y-47748747D01*
X96554059Y-47748747D01*
X96573769Y-47750298D01*
X96593847Y-47753478D01*
X96603641Y-47751927D01*
X96613555Y-47751927D01*
X96613555Y-47752950D01*
X96628258Y-47752625D01*
X96692608Y-47759875D01*
X96720117Y-47766154D01*
X96800524Y-47794290D01*
X96825941Y-47806530D01*
X96898077Y-47851856D01*
X96920135Y-47869447D01*
X96980369Y-47929681D01*
X96997960Y-47951739D01*
X97036972Y-48013826D01*
X97043285Y-48023873D01*
X97055526Y-48049292D01*
X97083662Y-48129699D01*
X97089941Y-48157208D01*
X97097191Y-48221558D01*
X97096866Y-48236261D01*
X97097889Y-48236261D01*
X97097889Y-48246175D01*
X97096338Y-48255969D01*
X97097889Y-48265761D01*
X97099518Y-48276046D01*
X97101069Y-48295757D01*
X97101069Y-49887994D01*
X97081067Y-49956115D01*
X97027411Y-50002608D01*
X96962227Y-50013338D01*
X96903563Y-50007328D01*
X96897145Y-50007000D01*
X96522115Y-50007000D01*
X96506876Y-50011475D01*
X96505671Y-50012865D01*
X96504000Y-50020548D01*
X96504000Y-51568000D01*
X96483998Y-51636121D01*
X96430342Y-51682614D01*
X96378000Y-51694000D01*
X94910116Y-51694000D01*
X94894877Y-51698475D01*
X94893672Y-51699865D01*
X94892001Y-51707548D01*
X94892001Y-52162095D01*
X94892338Y-52168614D01*
X94902257Y-52264206D01*
X94905149Y-52277600D01*
X94956591Y-52431792D01*
X94962756Y-52444954D01*
X95038031Y-52566596D01*
X95053031Y-52580047D01*
X95075395Y-52585112D01*
X95074659Y-52588360D01*
X95121121Y-52602002D01*
X95167614Y-52655658D01*
X95179000Y-52708000D01*
X95179000Y-54108000D01*
X95158998Y-54176121D01*
X95105342Y-54222614D01*
X95053000Y-54234000D01*
X94797000Y-54234000D01*
X94728879Y-54213998D01*
X94682386Y-54160342D01*
X94671000Y-54108000D01*
X94671000Y-52640115D01*
X94666525Y-52624876D01*
X94665135Y-52623671D01*
X94657452Y-52622000D01*
X94255989Y-52622001D01*
X94187869Y-52601999D01*
X94141375Y-52548344D01*
X94129989Y-52496001D01*
X94129989Y-51167885D01*
X94892000Y-51167885D01*
X94896475Y-51183124D01*
X94897865Y-51184329D01*
X94905548Y-51186000D01*
X95977885Y-51186000D01*
X95993124Y-51181525D01*
X95994329Y-51180135D01*
X95996000Y-51172452D01*
X95996000Y-50025116D01*
X95991525Y-50009877D01*
X95990135Y-50008672D01*
X95982452Y-50007001D01*
X95602905Y-50007001D01*
X95596386Y-50007338D01*
X95500794Y-50017257D01*
X95487400Y-50020149D01*
X95333216Y-50071588D01*
X95320038Y-50077761D01*
X95182193Y-50163063D01*
X95170792Y-50172099D01*
X95056261Y-50286829D01*
X95047249Y-50298240D01*
X94962184Y-50436243D01*
X94956037Y-50449424D01*
X94904862Y-50603710D01*
X94901995Y-50617086D01*
X94892328Y-50711438D01*
X94892000Y-50717855D01*
X94892000Y-51167885D01*
X94129989Y-51167885D01*
X94129989Y-47589299D01*
X94131540Y-47569588D01*
X94133169Y-47559303D01*
X94134720Y-47549511D01*
X94133546Y-47542100D01*
X94135588Y-47521361D01*
X94138041Y-47509032D01*
X94156855Y-47463611D01*
X94165861Y-47450133D01*
X94200622Y-47415372D01*
X94214100Y-47406366D01*
X94259521Y-47387552D01*
X94271850Y-47385099D01*
X94292589Y-47383057D01*
X94300000Y-47384231D01*
X94320078Y-47381051D01*
X94339788Y-47379500D01*
X94586476Y-47379500D01*
X94654597Y-47399502D01*
G37*
%TD.AperFunction*%
%TA.AperFunction,Conductor*%
G36*
X97976325Y-43720502D02*
G01*
X98022818Y-43774158D01*
X98032922Y-43844432D01*
X98009556Y-43901357D01*
X97987301Y-43931488D01*
X97942478Y-44059125D01*
X97939500Y-44090627D01*
X97939501Y-44705403D01*
X97939501Y-45210271D01*
X97919499Y-45278392D01*
X97865843Y-45324885D01*
X97813501Y-45336271D01*
X97234500Y-45336271D01*
X97166379Y-45316269D01*
X97119886Y-45262613D01*
X97108500Y-45210271D01*
X97108499Y-44097291D01*
X97108499Y-44094024D01*
X97107357Y-44083009D01*
X97098245Y-43995195D01*
X97097534Y-43988338D01*
X97067772Y-43899129D01*
X97056845Y-43866376D01*
X97054261Y-43795426D01*
X97090445Y-43734342D01*
X97153909Y-43702518D01*
X97176369Y-43700500D01*
X97908204Y-43700500D01*
X97976325Y-43720502D01*
G37*
%TD.AperFunction*%
%TD*%
M02*
