%TF.GenerationSoftware,KiCad,Pcbnew,(6.0.2-0)*%
%TF.CreationDate,2022-02-23T08:02:55+00:00*%
%TF.ProjectId,Generic4,47656e65-7269-4633-942e-6b696361645f,1*%
%TF.SameCoordinates,Original*%
%TF.FileFunction,Legend,Bot*%
%TF.FilePolarity,Positive*%
%FSLAX46Y46*%
G04 Gerber Fmt 4.6, Leading zero omitted, Abs format (unit mm)*
G04 Created by KiCad (PCBNEW (6.0.2-0)) date 2022-02-23 08:02:55*
%MOMM*%
%LPD*%
G01*
G04 APERTURE LIST*
%ADD10C,0.100000*%
%ADD11C,0.150000*%
%ADD12C,0.120000*%
G04 APERTURE END LIST*
D10*
X93950000Y-53261904D02*
X93926190Y-53214285D01*
X93926190Y-53142857D01*
X93950000Y-53071428D01*
X93997619Y-53023809D01*
X94045238Y-53000000D01*
X94140476Y-52976190D01*
X94211904Y-52976190D01*
X94307142Y-53000000D01*
X94354761Y-53023809D01*
X94402380Y-53071428D01*
X94426190Y-53142857D01*
X94426190Y-53190476D01*
X94402380Y-53261904D01*
X94378571Y-53285714D01*
X94211904Y-53285714D01*
X94211904Y-53190476D01*
X94426190Y-53500000D02*
X93926190Y-53500000D01*
X93926190Y-53690476D01*
X93950000Y-53738095D01*
X93973809Y-53761904D01*
X94021428Y-53785714D01*
X94092857Y-53785714D01*
X94140476Y-53761904D01*
X94164285Y-53738095D01*
X94188095Y-53690476D01*
X94188095Y-53500000D01*
X94426190Y-54000000D02*
X93926190Y-54000000D01*
X93926190Y-54333333D02*
X93926190Y-54428571D01*
X93950000Y-54476190D01*
X93997619Y-54523809D01*
X94092857Y-54547619D01*
X94259523Y-54547619D01*
X94354761Y-54523809D01*
X94402380Y-54476190D01*
X94426190Y-54428571D01*
X94426190Y-54333333D01*
X94402380Y-54285714D01*
X94354761Y-54238095D01*
X94259523Y-54214285D01*
X94092857Y-54214285D01*
X93997619Y-54238095D01*
X93950000Y-54285714D01*
X93926190Y-54333333D01*
X93926190Y-54857142D02*
X93926190Y-54904761D01*
X93950000Y-54952380D01*
X93973809Y-54976190D01*
X94021428Y-55000000D01*
X94116666Y-55023809D01*
X94235714Y-55023809D01*
X94330952Y-55000000D01*
X94378571Y-54976190D01*
X94402380Y-54952380D01*
X94426190Y-54904761D01*
X94426190Y-54857142D01*
X94402380Y-54809523D01*
X94378571Y-54785714D01*
X94330952Y-54761904D01*
X94235714Y-54738095D01*
X94116666Y-54738095D01*
X94021428Y-54761904D01*
X93973809Y-54785714D01*
X93950000Y-54809523D01*
X93926190Y-54857142D01*
X99130952Y-50226190D02*
X99130952Y-49726190D01*
X99011904Y-49726190D01*
X98940476Y-49750000D01*
X98892857Y-49797619D01*
X98869047Y-49845238D01*
X98845238Y-49940476D01*
X98845238Y-50011904D01*
X98869047Y-50107142D01*
X98892857Y-50154761D01*
X98940476Y-50202380D01*
X99011904Y-50226190D01*
X99130952Y-50226190D01*
X98345238Y-50178571D02*
X98369047Y-50202380D01*
X98440476Y-50226190D01*
X98488095Y-50226190D01*
X98559523Y-50202380D01*
X98607142Y-50154761D01*
X98630952Y-50107142D01*
X98654761Y-50011904D01*
X98654761Y-49940476D01*
X98630952Y-49845238D01*
X98607142Y-49797619D01*
X98559523Y-49750000D01*
X98488095Y-49726190D01*
X98440476Y-49726190D01*
X98369047Y-49750000D01*
X98345238Y-49773809D01*
X101630952Y-49726190D02*
X101345238Y-49726190D01*
X101488095Y-50226190D02*
X101488095Y-49726190D01*
X101226190Y-49726190D02*
X100892857Y-50226190D01*
X100892857Y-49726190D02*
X101226190Y-50226190D01*
X96630952Y-49750000D02*
X96678571Y-49726190D01*
X96750000Y-49726190D01*
X96821428Y-49750000D01*
X96869047Y-49797619D01*
X96892857Y-49845238D01*
X96916666Y-49940476D01*
X96916666Y-50011904D01*
X96892857Y-50107142D01*
X96869047Y-50154761D01*
X96821428Y-50202380D01*
X96750000Y-50226190D01*
X96702380Y-50226190D01*
X96630952Y-50202380D01*
X96607142Y-50178571D01*
X96607142Y-50011904D01*
X96702380Y-50011904D01*
X96392857Y-50226190D02*
X96392857Y-49726190D01*
X96107142Y-50226190D01*
X96107142Y-49726190D01*
X95869047Y-50226190D02*
X95869047Y-49726190D01*
X95750000Y-49726190D01*
X95678571Y-49750000D01*
X95630952Y-49797619D01*
X95607142Y-49845238D01*
X95583333Y-49940476D01*
X95583333Y-50011904D01*
X95607142Y-50107142D01*
X95630952Y-50154761D01*
X95678571Y-50202380D01*
X95750000Y-50226190D01*
X95869047Y-50226190D01*
X103833333Y-50226190D02*
X104000000Y-49988095D01*
X104119047Y-50226190D02*
X104119047Y-49726190D01*
X103928571Y-49726190D01*
X103880952Y-49750000D01*
X103857142Y-49773809D01*
X103833333Y-49821428D01*
X103833333Y-49892857D01*
X103857142Y-49940476D01*
X103880952Y-49964285D01*
X103928571Y-49988095D01*
X104119047Y-49988095D01*
X103666666Y-49726190D02*
X103333333Y-50226190D01*
X103333333Y-49726190D02*
X103666666Y-50226190D01*
D11*
X103807142Y-48685714D02*
X103616666Y-49352380D01*
X103426190Y-48876190D01*
X103235714Y-49352380D01*
X103045238Y-48685714D01*
X102759523Y-48685714D02*
X102569047Y-49352380D01*
X102378571Y-48876190D01*
X102188095Y-49352380D01*
X101997619Y-48685714D01*
X101711904Y-48685714D02*
X101521428Y-49352380D01*
X101330952Y-48876190D01*
X101140476Y-49352380D01*
X100950000Y-48685714D01*
X100569047Y-49257142D02*
X100521428Y-49304761D01*
X100569047Y-49352380D01*
X100616666Y-49304761D01*
X100569047Y-49257142D01*
X100569047Y-49352380D01*
X100092857Y-49352380D02*
X100092857Y-48685714D01*
X100092857Y-48780952D02*
X100045238Y-48733333D01*
X99950000Y-48685714D01*
X99807142Y-48685714D01*
X99711904Y-48733333D01*
X99664285Y-48828571D01*
X99664285Y-49352380D01*
X99664285Y-48828571D02*
X99616666Y-48733333D01*
X99521428Y-48685714D01*
X99378571Y-48685714D01*
X99283333Y-48733333D01*
X99235714Y-48828571D01*
X99235714Y-49352380D01*
X98378571Y-49304761D02*
X98473809Y-49352380D01*
X98664285Y-49352380D01*
X98759523Y-49304761D01*
X98807142Y-49209523D01*
X98807142Y-48828571D01*
X98759523Y-48733333D01*
X98664285Y-48685714D01*
X98473809Y-48685714D01*
X98378571Y-48733333D01*
X98330952Y-48828571D01*
X98330952Y-48923809D01*
X98807142Y-49019047D01*
X97902380Y-49257142D02*
X97854761Y-49304761D01*
X97902380Y-49352380D01*
X97950000Y-49304761D01*
X97902380Y-49257142D01*
X97902380Y-49352380D01*
X96997619Y-48685714D02*
X96997619Y-49352380D01*
X97426190Y-48685714D02*
X97426190Y-49209523D01*
X97378571Y-49304761D01*
X97283333Y-49352380D01*
X97140476Y-49352380D01*
X97045238Y-49304761D01*
X96997619Y-49257142D01*
X96521428Y-49352380D02*
X96521428Y-48352380D01*
X96426190Y-48971428D02*
X96140476Y-49352380D01*
X96140476Y-48685714D02*
X96521428Y-49066666D01*
D12*
%TO.C,J1*%
X97460000Y-55250000D02*
X94860000Y-55250000D01*
X96190000Y-52650000D02*
X94860000Y-52650000D01*
X94860000Y-57850000D02*
X105140000Y-57850000D01*
X105140000Y-52650000D02*
X105140000Y-57850000D01*
X97460000Y-52650000D02*
X105140000Y-52650000D01*
X97460000Y-52650000D02*
X97460000Y-55250000D01*
X94860000Y-52650000D02*
X94860000Y-53980000D01*
X94860000Y-55250000D02*
X94860000Y-57850000D01*
%TO.C,R2*%
X106400000Y-39900000D02*
X106400000Y-40500000D01*
X105400000Y-39900000D02*
X105400000Y-40500000D01*
%TO.C,U2*%
X99675000Y-44475000D02*
X99675000Y-46075000D01*
X102950000Y-41425000D02*
X99850000Y-41425000D01*
%TO.C,R1*%
X105200000Y-39900000D02*
X105200000Y-40500000D01*
X104200000Y-39900000D02*
X104200000Y-40500000D01*
%TD*%
M02*
