%TF.GenerationSoftware,KiCad,Pcbnew,(5.1.9-0-10_14)*%
%TF.CreationDate,2021-08-24T14:59:31+01:00*%
%TF.ProjectId,Generic,47656e65-7269-4632-9e6b-696361645f70,6*%
%TF.SameCoordinates,Original*%
%TF.FileFunction,Paste,Top*%
%TF.FilePolarity,Positive*%
%FSLAX46Y46*%
G04 Gerber Fmt 4.6, Leading zero omitted, Abs format (unit mm)*
G04 Created by KiCad (PCBNEW (5.1.9-0-10_14)) date 2021-08-24 14:59:31*
%MOMM*%
%LPD*%
G01*
G04 APERTURE LIST*
%ADD10R,0.816000X0.480000*%
%ADD11R,0.624000X0.384000*%
%ADD12R,0.576000X1.056000*%
%ADD13R,0.768000X0.384000*%
%ADD14R,0.798000X0.420000*%
%ADD15R,1.094400X0.288000*%
G04 APERTURE END LIST*
D10*
%TO.C,D1*%
X120075000Y-99200000D03*
X118325000Y-99200000D03*
X118325000Y-100200000D03*
X120075000Y-100200000D03*
%TD*%
%TO.C,C5*%
G36*
G01*
X131360000Y-117918000D02*
X131840000Y-117918000D01*
G75*
G02*
X132056000Y-118134000I0J-216000D01*
G01*
X132056000Y-118566000D01*
G75*
G02*
X131840000Y-118782000I-216000J0D01*
G01*
X131360000Y-118782000D01*
G75*
G02*
X131144000Y-118566000I0J216000D01*
G01*
X131144000Y-118134000D01*
G75*
G02*
X131360000Y-117918000I216000J0D01*
G01*
G37*
G36*
G01*
X131360000Y-116368000D02*
X131840000Y-116368000D01*
G75*
G02*
X132056000Y-116584000I0J-216000D01*
G01*
X132056000Y-117016000D01*
G75*
G02*
X131840000Y-117232000I-216000J0D01*
G01*
X131360000Y-117232000D01*
G75*
G02*
X131144000Y-117016000I0J216000D01*
G01*
X131144000Y-116584000D01*
G75*
G02*
X131360000Y-116368000I216000J0D01*
G01*
G37*
%TD*%
%TO.C,C4*%
G36*
G01*
X132560000Y-117918000D02*
X133040000Y-117918000D01*
G75*
G02*
X133256000Y-118134000I0J-216000D01*
G01*
X133256000Y-118566000D01*
G75*
G02*
X133040000Y-118782000I-216000J0D01*
G01*
X132560000Y-118782000D01*
G75*
G02*
X132344000Y-118566000I0J216000D01*
G01*
X132344000Y-118134000D01*
G75*
G02*
X132560000Y-117918000I216000J0D01*
G01*
G37*
G36*
G01*
X132560000Y-116368000D02*
X133040000Y-116368000D01*
G75*
G02*
X133256000Y-116584000I0J-216000D01*
G01*
X133256000Y-117016000D01*
G75*
G02*
X133040000Y-117232000I-216000J0D01*
G01*
X132560000Y-117232000D01*
G75*
G02*
X132344000Y-117016000I0J216000D01*
G01*
X132344000Y-116584000D01*
G75*
G02*
X132560000Y-116368000I216000J0D01*
G01*
G37*
%TD*%
%TO.C,C3*%
G36*
G01*
X124043000Y-109540000D02*
X124043000Y-109060000D01*
G75*
G02*
X124259000Y-108844000I216000J0D01*
G01*
X124691000Y-108844000D01*
G75*
G02*
X124907000Y-109060000I0J-216000D01*
G01*
X124907000Y-109540000D01*
G75*
G02*
X124691000Y-109756000I-216000J0D01*
G01*
X124259000Y-109756000D01*
G75*
G02*
X124043000Y-109540000I0J216000D01*
G01*
G37*
G36*
G01*
X122493000Y-109540000D02*
X122493000Y-109060000D01*
G75*
G02*
X122709000Y-108844000I216000J0D01*
G01*
X123141000Y-108844000D01*
G75*
G02*
X123357000Y-109060000I0J-216000D01*
G01*
X123357000Y-109540000D01*
G75*
G02*
X123141000Y-109756000I-216000J0D01*
G01*
X122709000Y-109756000D01*
G75*
G02*
X122493000Y-109540000I0J216000D01*
G01*
G37*
%TD*%
%TO.C,R18*%
G36*
G01*
X125436000Y-114841000D02*
X125964000Y-114841000D01*
G75*
G02*
X126156000Y-115033000I0J-192000D01*
G01*
X126156000Y-115417000D01*
G75*
G02*
X125964000Y-115609000I-192000J0D01*
G01*
X125436000Y-115609000D01*
G75*
G02*
X125244000Y-115417000I0J192000D01*
G01*
X125244000Y-115033000D01*
G75*
G02*
X125436000Y-114841000I192000J0D01*
G01*
G37*
G36*
G01*
X125436000Y-113191000D02*
X125964000Y-113191000D01*
G75*
G02*
X126156000Y-113383000I0J-192000D01*
G01*
X126156000Y-113767000D01*
G75*
G02*
X125964000Y-113959000I-192000J0D01*
G01*
X125436000Y-113959000D01*
G75*
G02*
X125244000Y-113767000I0J192000D01*
G01*
X125244000Y-113383000D01*
G75*
G02*
X125436000Y-113191000I192000J0D01*
G01*
G37*
%TD*%
%TO.C,R17*%
G36*
G01*
X127164000Y-113959000D02*
X126636000Y-113959000D01*
G75*
G02*
X126444000Y-113767000I0J192000D01*
G01*
X126444000Y-113383000D01*
G75*
G02*
X126636000Y-113191000I192000J0D01*
G01*
X127164000Y-113191000D01*
G75*
G02*
X127356000Y-113383000I0J-192000D01*
G01*
X127356000Y-113767000D01*
G75*
G02*
X127164000Y-113959000I-192000J0D01*
G01*
G37*
G36*
G01*
X127164000Y-115609000D02*
X126636000Y-115609000D01*
G75*
G02*
X126444000Y-115417000I0J192000D01*
G01*
X126444000Y-115033000D01*
G75*
G02*
X126636000Y-114841000I192000J0D01*
G01*
X127164000Y-114841000D01*
G75*
G02*
X127356000Y-115033000I0J-192000D01*
G01*
X127356000Y-115417000D01*
G75*
G02*
X127164000Y-115609000I-192000J0D01*
G01*
G37*
%TD*%
D11*
%TO.C,D3*%
X129400000Y-117150000D03*
X129400000Y-118450000D03*
X127500000Y-117800000D03*
X129400000Y-117800000D03*
X127500000Y-118450000D03*
X127500000Y-117150000D03*
%TD*%
%TO.C,D4*%
X125150000Y-117150000D03*
X125150000Y-118450000D03*
X123250000Y-117800000D03*
X125150000Y-117800000D03*
X123250000Y-118450000D03*
X123250000Y-117150000D03*
%TD*%
%TO.C,R13*%
G36*
G01*
X125241000Y-101664000D02*
X125241000Y-101136000D01*
G75*
G02*
X125433000Y-100944000I192000J0D01*
G01*
X125817000Y-100944000D01*
G75*
G02*
X126009000Y-101136000I0J-192000D01*
G01*
X126009000Y-101664000D01*
G75*
G02*
X125817000Y-101856000I-192000J0D01*
G01*
X125433000Y-101856000D01*
G75*
G02*
X125241000Y-101664000I0J192000D01*
G01*
G37*
G36*
G01*
X123591000Y-101664000D02*
X123591000Y-101136000D01*
G75*
G02*
X123783000Y-100944000I192000J0D01*
G01*
X124167000Y-100944000D01*
G75*
G02*
X124359000Y-101136000I0J-192000D01*
G01*
X124359000Y-101664000D01*
G75*
G02*
X124167000Y-101856000I-192000J0D01*
G01*
X123783000Y-101856000D01*
G75*
G02*
X123591000Y-101664000I0J192000D01*
G01*
G37*
%TD*%
%TO.C,R10*%
G36*
G01*
X119641000Y-103864000D02*
X119641000Y-103336000D01*
G75*
G02*
X119833000Y-103144000I192000J0D01*
G01*
X120217000Y-103144000D01*
G75*
G02*
X120409000Y-103336000I0J-192000D01*
G01*
X120409000Y-103864000D01*
G75*
G02*
X120217000Y-104056000I-192000J0D01*
G01*
X119833000Y-104056000D01*
G75*
G02*
X119641000Y-103864000I0J192000D01*
G01*
G37*
G36*
G01*
X117991000Y-103864000D02*
X117991000Y-103336000D01*
G75*
G02*
X118183000Y-103144000I192000J0D01*
G01*
X118567000Y-103144000D01*
G75*
G02*
X118759000Y-103336000I0J-192000D01*
G01*
X118759000Y-103864000D01*
G75*
G02*
X118567000Y-104056000I-192000J0D01*
G01*
X118183000Y-104056000D01*
G75*
G02*
X117991000Y-103864000I0J192000D01*
G01*
G37*
%TD*%
%TO.C,R9*%
G36*
G01*
X119641000Y-101464000D02*
X119641000Y-100936000D01*
G75*
G02*
X119833000Y-100744000I192000J0D01*
G01*
X120217000Y-100744000D01*
G75*
G02*
X120409000Y-100936000I0J-192000D01*
G01*
X120409000Y-101464000D01*
G75*
G02*
X120217000Y-101656000I-192000J0D01*
G01*
X119833000Y-101656000D01*
G75*
G02*
X119641000Y-101464000I0J192000D01*
G01*
G37*
G36*
G01*
X117991000Y-101464000D02*
X117991000Y-100936000D01*
G75*
G02*
X118183000Y-100744000I192000J0D01*
G01*
X118567000Y-100744000D01*
G75*
G02*
X118759000Y-100936000I0J-192000D01*
G01*
X118759000Y-101464000D01*
G75*
G02*
X118567000Y-101656000I-192000J0D01*
G01*
X118183000Y-101656000D01*
G75*
G02*
X117991000Y-101464000I0J192000D01*
G01*
G37*
%TD*%
%TO.C,U2*%
G36*
G01*
X123389000Y-112575000D02*
X123011000Y-112575000D01*
G75*
G02*
X122825000Y-112389000I0J186000D01*
G01*
X122825000Y-112011000D01*
G75*
G02*
X123011000Y-111825000I186000J0D01*
G01*
X123389000Y-111825000D01*
G75*
G02*
X123575000Y-112011000I0J-186000D01*
G01*
X123575000Y-112389000D01*
G75*
G02*
X123389000Y-112575000I-186000J0D01*
G01*
G37*
G36*
G01*
X122389000Y-112575000D02*
X122011000Y-112575000D01*
G75*
G02*
X121825000Y-112389000I0J186000D01*
G01*
X121825000Y-112011000D01*
G75*
G02*
X122011000Y-111825000I186000J0D01*
G01*
X122389000Y-111825000D01*
G75*
G02*
X122575000Y-112011000I0J-186000D01*
G01*
X122575000Y-112389000D01*
G75*
G02*
X122389000Y-112575000I-186000J0D01*
G01*
G37*
G36*
G01*
X123389000Y-113575000D02*
X123011000Y-113575000D01*
G75*
G02*
X122825000Y-113389000I0J186000D01*
G01*
X122825000Y-113011000D01*
G75*
G02*
X123011000Y-112825000I186000J0D01*
G01*
X123389000Y-112825000D01*
G75*
G02*
X123575000Y-113011000I0J-186000D01*
G01*
X123575000Y-113389000D01*
G75*
G02*
X123389000Y-113575000I-186000J0D01*
G01*
G37*
G36*
G01*
X122389000Y-113575000D02*
X122011000Y-113575000D01*
G75*
G02*
X121825000Y-113389000I0J186000D01*
G01*
X121825000Y-113011000D01*
G75*
G02*
X122011000Y-112825000I186000J0D01*
G01*
X122389000Y-112825000D01*
G75*
G02*
X122575000Y-113011000I0J-186000D01*
G01*
X122575000Y-113389000D01*
G75*
G02*
X122389000Y-113575000I-186000J0D01*
G01*
G37*
G36*
G01*
X121076000Y-113820000D02*
X120524000Y-113820000D01*
G75*
G02*
X120464000Y-113760000I0J60000D01*
G01*
X120464000Y-113640000D01*
G75*
G02*
X120524000Y-113580000I60000J0D01*
G01*
X121076000Y-113580000D01*
G75*
G02*
X121136000Y-113640000I0J-60000D01*
G01*
X121136000Y-113760000D01*
G75*
G02*
X121076000Y-113820000I-60000J0D01*
G01*
G37*
G36*
G01*
X121076000Y-113320000D02*
X120524000Y-113320000D01*
G75*
G02*
X120464000Y-113260000I0J60000D01*
G01*
X120464000Y-113140000D01*
G75*
G02*
X120524000Y-113080000I60000J0D01*
G01*
X121076000Y-113080000D01*
G75*
G02*
X121136000Y-113140000I0J-60000D01*
G01*
X121136000Y-113260000D01*
G75*
G02*
X121076000Y-113320000I-60000J0D01*
G01*
G37*
G36*
G01*
X121076000Y-112820000D02*
X120524000Y-112820000D01*
G75*
G02*
X120464000Y-112760000I0J60000D01*
G01*
X120464000Y-112640000D01*
G75*
G02*
X120524000Y-112580000I60000J0D01*
G01*
X121076000Y-112580000D01*
G75*
G02*
X121136000Y-112640000I0J-60000D01*
G01*
X121136000Y-112760000D01*
G75*
G02*
X121076000Y-112820000I-60000J0D01*
G01*
G37*
G36*
G01*
X121076000Y-112320000D02*
X120524000Y-112320000D01*
G75*
G02*
X120464000Y-112260000I0J60000D01*
G01*
X120464000Y-112140000D01*
G75*
G02*
X120524000Y-112080000I60000J0D01*
G01*
X121076000Y-112080000D01*
G75*
G02*
X121136000Y-112140000I0J-60000D01*
G01*
X121136000Y-112260000D01*
G75*
G02*
X121076000Y-112320000I-60000J0D01*
G01*
G37*
G36*
G01*
X121076000Y-111820000D02*
X120524000Y-111820000D01*
G75*
G02*
X120464000Y-111760000I0J60000D01*
G01*
X120464000Y-111640000D01*
G75*
G02*
X120524000Y-111580000I60000J0D01*
G01*
X121076000Y-111580000D01*
G75*
G02*
X121136000Y-111640000I0J-60000D01*
G01*
X121136000Y-111760000D01*
G75*
G02*
X121076000Y-111820000I-60000J0D01*
G01*
G37*
G36*
G01*
X121760000Y-111136000D02*
X121640000Y-111136000D01*
G75*
G02*
X121580000Y-111076000I0J60000D01*
G01*
X121580000Y-110524000D01*
G75*
G02*
X121640000Y-110464000I60000J0D01*
G01*
X121760000Y-110464000D01*
G75*
G02*
X121820000Y-110524000I0J-60000D01*
G01*
X121820000Y-111076000D01*
G75*
G02*
X121760000Y-111136000I-60000J0D01*
G01*
G37*
G36*
G01*
X122260000Y-111136000D02*
X122140000Y-111136000D01*
G75*
G02*
X122080000Y-111076000I0J60000D01*
G01*
X122080000Y-110524000D01*
G75*
G02*
X122140000Y-110464000I60000J0D01*
G01*
X122260000Y-110464000D01*
G75*
G02*
X122320000Y-110524000I0J-60000D01*
G01*
X122320000Y-111076000D01*
G75*
G02*
X122260000Y-111136000I-60000J0D01*
G01*
G37*
G36*
G01*
X122760000Y-111136000D02*
X122640000Y-111136000D01*
G75*
G02*
X122580000Y-111076000I0J60000D01*
G01*
X122580000Y-110524000D01*
G75*
G02*
X122640000Y-110464000I60000J0D01*
G01*
X122760000Y-110464000D01*
G75*
G02*
X122820000Y-110524000I0J-60000D01*
G01*
X122820000Y-111076000D01*
G75*
G02*
X122760000Y-111136000I-60000J0D01*
G01*
G37*
G36*
G01*
X123260000Y-111136000D02*
X123140000Y-111136000D01*
G75*
G02*
X123080000Y-111076000I0J60000D01*
G01*
X123080000Y-110524000D01*
G75*
G02*
X123140000Y-110464000I60000J0D01*
G01*
X123260000Y-110464000D01*
G75*
G02*
X123320000Y-110524000I0J-60000D01*
G01*
X123320000Y-111076000D01*
G75*
G02*
X123260000Y-111136000I-60000J0D01*
G01*
G37*
G36*
G01*
X123760000Y-111136000D02*
X123640000Y-111136000D01*
G75*
G02*
X123580000Y-111076000I0J60000D01*
G01*
X123580000Y-110524000D01*
G75*
G02*
X123640000Y-110464000I60000J0D01*
G01*
X123760000Y-110464000D01*
G75*
G02*
X123820000Y-110524000I0J-60000D01*
G01*
X123820000Y-111076000D01*
G75*
G02*
X123760000Y-111136000I-60000J0D01*
G01*
G37*
G36*
G01*
X124876000Y-111820000D02*
X124324000Y-111820000D01*
G75*
G02*
X124264000Y-111760000I0J60000D01*
G01*
X124264000Y-111640000D01*
G75*
G02*
X124324000Y-111580000I60000J0D01*
G01*
X124876000Y-111580000D01*
G75*
G02*
X124936000Y-111640000I0J-60000D01*
G01*
X124936000Y-111760000D01*
G75*
G02*
X124876000Y-111820000I-60000J0D01*
G01*
G37*
G36*
G01*
X124876000Y-112320000D02*
X124324000Y-112320000D01*
G75*
G02*
X124264000Y-112260000I0J60000D01*
G01*
X124264000Y-112140000D01*
G75*
G02*
X124324000Y-112080000I60000J0D01*
G01*
X124876000Y-112080000D01*
G75*
G02*
X124936000Y-112140000I0J-60000D01*
G01*
X124936000Y-112260000D01*
G75*
G02*
X124876000Y-112320000I-60000J0D01*
G01*
G37*
G36*
G01*
X124876000Y-112820000D02*
X124324000Y-112820000D01*
G75*
G02*
X124264000Y-112760000I0J60000D01*
G01*
X124264000Y-112640000D01*
G75*
G02*
X124324000Y-112580000I60000J0D01*
G01*
X124876000Y-112580000D01*
G75*
G02*
X124936000Y-112640000I0J-60000D01*
G01*
X124936000Y-112760000D01*
G75*
G02*
X124876000Y-112820000I-60000J0D01*
G01*
G37*
G36*
G01*
X124876000Y-113320000D02*
X124324000Y-113320000D01*
G75*
G02*
X124264000Y-113260000I0J60000D01*
G01*
X124264000Y-113140000D01*
G75*
G02*
X124324000Y-113080000I60000J0D01*
G01*
X124876000Y-113080000D01*
G75*
G02*
X124936000Y-113140000I0J-60000D01*
G01*
X124936000Y-113260000D01*
G75*
G02*
X124876000Y-113320000I-60000J0D01*
G01*
G37*
G36*
G01*
X124876000Y-113820000D02*
X124324000Y-113820000D01*
G75*
G02*
X124264000Y-113760000I0J60000D01*
G01*
X124264000Y-113640000D01*
G75*
G02*
X124324000Y-113580000I60000J0D01*
G01*
X124876000Y-113580000D01*
G75*
G02*
X124936000Y-113640000I0J-60000D01*
G01*
X124936000Y-113760000D01*
G75*
G02*
X124876000Y-113820000I-60000J0D01*
G01*
G37*
G36*
G01*
X123760000Y-114936000D02*
X123640000Y-114936000D01*
G75*
G02*
X123580000Y-114876000I0J60000D01*
G01*
X123580000Y-114324000D01*
G75*
G02*
X123640000Y-114264000I60000J0D01*
G01*
X123760000Y-114264000D01*
G75*
G02*
X123820000Y-114324000I0J-60000D01*
G01*
X123820000Y-114876000D01*
G75*
G02*
X123760000Y-114936000I-60000J0D01*
G01*
G37*
G36*
G01*
X123260000Y-114936000D02*
X123140000Y-114936000D01*
G75*
G02*
X123080000Y-114876000I0J60000D01*
G01*
X123080000Y-114324000D01*
G75*
G02*
X123140000Y-114264000I60000J0D01*
G01*
X123260000Y-114264000D01*
G75*
G02*
X123320000Y-114324000I0J-60000D01*
G01*
X123320000Y-114876000D01*
G75*
G02*
X123260000Y-114936000I-60000J0D01*
G01*
G37*
G36*
G01*
X122760000Y-114936000D02*
X122640000Y-114936000D01*
G75*
G02*
X122580000Y-114876000I0J60000D01*
G01*
X122580000Y-114324000D01*
G75*
G02*
X122640000Y-114264000I60000J0D01*
G01*
X122760000Y-114264000D01*
G75*
G02*
X122820000Y-114324000I0J-60000D01*
G01*
X122820000Y-114876000D01*
G75*
G02*
X122760000Y-114936000I-60000J0D01*
G01*
G37*
G36*
G01*
X122260000Y-114936000D02*
X122140000Y-114936000D01*
G75*
G02*
X122080000Y-114876000I0J60000D01*
G01*
X122080000Y-114324000D01*
G75*
G02*
X122140000Y-114264000I60000J0D01*
G01*
X122260000Y-114264000D01*
G75*
G02*
X122320000Y-114324000I0J-60000D01*
G01*
X122320000Y-114876000D01*
G75*
G02*
X122260000Y-114936000I-60000J0D01*
G01*
G37*
G36*
G01*
X121760000Y-114936000D02*
X121640000Y-114936000D01*
G75*
G02*
X121580000Y-114876000I0J60000D01*
G01*
X121580000Y-114324000D01*
G75*
G02*
X121640000Y-114264000I60000J0D01*
G01*
X121760000Y-114264000D01*
G75*
G02*
X121820000Y-114324000I0J-60000D01*
G01*
X121820000Y-114876000D01*
G75*
G02*
X121760000Y-114936000I-60000J0D01*
G01*
G37*
%TD*%
%TO.C,U3*%
X125750000Y-103050000D03*
X125750000Y-104350000D03*
X123850000Y-103700000D03*
X125750000Y-103700000D03*
X123850000Y-104350000D03*
X123850000Y-103050000D03*
%TD*%
%TO.C,C2*%
G36*
G01*
X119672832Y-115712244D02*
X120012244Y-115372832D01*
G75*
G02*
X120317714Y-115372832I152735J-152735D01*
G01*
X120623184Y-115678302D01*
G75*
G02*
X120623184Y-115983772I-152735J-152735D01*
G01*
X120283772Y-116323184D01*
G75*
G02*
X119978302Y-116323184I-152735J152735D01*
G01*
X119672832Y-116017714D01*
G75*
G02*
X119672832Y-115712244I152735J152735D01*
G01*
G37*
G36*
G01*
X118576816Y-114616228D02*
X118916228Y-114276816D01*
G75*
G02*
X119221698Y-114276816I152735J-152735D01*
G01*
X119527168Y-114582286D01*
G75*
G02*
X119527168Y-114887756I-152735J-152735D01*
G01*
X119187756Y-115227168D01*
G75*
G02*
X118882286Y-115227168I-152735J152735D01*
G01*
X118576816Y-114921698D01*
G75*
G02*
X118576816Y-114616228I152735J152735D01*
G01*
G37*
%TD*%
%TO.C,Reg1*%
G36*
G01*
X134850000Y-103200000D02*
X134850000Y-102700000D01*
G75*
G02*
X135100000Y-102450000I250000J0D01*
G01*
X135800000Y-102450000D01*
G75*
G02*
X136050000Y-102700000I0J-250000D01*
G01*
X136050000Y-103200000D01*
G75*
G02*
X135800000Y-103450000I-250000J0D01*
G01*
X135100000Y-103450000D01*
G75*
G02*
X134850000Y-103200000I0J250000D01*
G01*
G37*
G36*
G01*
X134850000Y-102050000D02*
X134850000Y-101550000D01*
G75*
G02*
X135100000Y-101300000I250000J0D01*
G01*
X135800000Y-101300000D01*
G75*
G02*
X136050000Y-101550000I0J-250000D01*
G01*
X136050000Y-102050000D01*
G75*
G02*
X135800000Y-102300000I-250000J0D01*
G01*
X135100000Y-102300000D01*
G75*
G02*
X134850000Y-102050000I0J250000D01*
G01*
G37*
G36*
G01*
X134850000Y-100900000D02*
X134850000Y-100400000D01*
G75*
G02*
X135100000Y-100150000I250000J0D01*
G01*
X135800000Y-100150000D01*
G75*
G02*
X136050000Y-100400000I0J-250000D01*
G01*
X136050000Y-100900000D01*
G75*
G02*
X135800000Y-101150000I-250000J0D01*
G01*
X135100000Y-101150000D01*
G75*
G02*
X134850000Y-100900000I0J250000D01*
G01*
G37*
G36*
G01*
X131850000Y-102050000D02*
X131850000Y-101550000D01*
G75*
G02*
X132100000Y-101300000I250000J0D01*
G01*
X132800000Y-101300000D01*
G75*
G02*
X133050000Y-101550000I0J-250000D01*
G01*
X133050000Y-102050000D01*
G75*
G02*
X132800000Y-102300000I-250000J0D01*
G01*
X132100000Y-102300000D01*
G75*
G02*
X131850000Y-102050000I0J250000D01*
G01*
G37*
G36*
G01*
X131850000Y-103200000D02*
X131850000Y-102700000D01*
G75*
G02*
X132100000Y-102450000I250000J0D01*
G01*
X132800000Y-102450000D01*
G75*
G02*
X133050000Y-102700000I0J-250000D01*
G01*
X133050000Y-103200000D01*
G75*
G02*
X132800000Y-103450000I-250000J0D01*
G01*
X132100000Y-103450000D01*
G75*
G02*
X131850000Y-103200000I0J250000D01*
G01*
G37*
G36*
G01*
X131850000Y-100900000D02*
X131850000Y-100400000D01*
G75*
G02*
X132100000Y-100150000I250000J0D01*
G01*
X132800000Y-100150000D01*
G75*
G02*
X133050000Y-100400000I0J-250000D01*
G01*
X133050000Y-100900000D01*
G75*
G02*
X132800000Y-101150000I-250000J0D01*
G01*
X132100000Y-101150000D01*
G75*
G02*
X131850000Y-100900000I0J250000D01*
G01*
G37*
D12*
X131000000Y-100400000D03*
X129100000Y-100400000D03*
X130050000Y-100400000D03*
X129100000Y-103100000D03*
X130050000Y-103100000D03*
X131000000Y-103100000D03*
G36*
G01*
X134994000Y-103870000D02*
X135906000Y-103870000D01*
G75*
G02*
X136146000Y-104110000I0J-240000D01*
G01*
X136146000Y-104590000D01*
G75*
G02*
X135906000Y-104830000I-240000J0D01*
G01*
X134994000Y-104830000D01*
G75*
G02*
X134754000Y-104590000I0J240000D01*
G01*
X134754000Y-104110000D01*
G75*
G02*
X134994000Y-103870000I240000J0D01*
G01*
G37*
G36*
G01*
X134994000Y-105770000D02*
X135906000Y-105770000D01*
G75*
G02*
X136146000Y-106010000I0J-240000D01*
G01*
X136146000Y-106490000D01*
G75*
G02*
X135906000Y-106730000I-240000J0D01*
G01*
X134994000Y-106730000D01*
G75*
G02*
X134754000Y-106490000I0J240000D01*
G01*
X134754000Y-106010000D01*
G75*
G02*
X134994000Y-105770000I240000J0D01*
G01*
G37*
G36*
G01*
X128744000Y-105770000D02*
X129656000Y-105770000D01*
G75*
G02*
X129896000Y-106010000I0J-240000D01*
G01*
X129896000Y-106490000D01*
G75*
G02*
X129656000Y-106730000I-240000J0D01*
G01*
X128744000Y-106730000D01*
G75*
G02*
X128504000Y-106490000I0J240000D01*
G01*
X128504000Y-106010000D01*
G75*
G02*
X128744000Y-105770000I240000J0D01*
G01*
G37*
G36*
G01*
X128744000Y-103870000D02*
X129656000Y-103870000D01*
G75*
G02*
X129896000Y-104110000I0J-240000D01*
G01*
X129896000Y-104590000D01*
G75*
G02*
X129656000Y-104830000I-240000J0D01*
G01*
X128744000Y-104830000D01*
G75*
G02*
X128504000Y-104590000I0J240000D01*
G01*
X128504000Y-104110000D01*
G75*
G02*
X128744000Y-103870000I240000J0D01*
G01*
G37*
G36*
G01*
X128190000Y-101407000D02*
X127710000Y-101407000D01*
G75*
G02*
X127494000Y-101191000I0J216000D01*
G01*
X127494000Y-100759000D01*
G75*
G02*
X127710000Y-100543000I216000J0D01*
G01*
X128190000Y-100543000D01*
G75*
G02*
X128406000Y-100759000I0J-216000D01*
G01*
X128406000Y-101191000D01*
G75*
G02*
X128190000Y-101407000I-216000J0D01*
G01*
G37*
G36*
G01*
X128190000Y-102957000D02*
X127710000Y-102957000D01*
G75*
G02*
X127494000Y-102741000I0J216000D01*
G01*
X127494000Y-102309000D01*
G75*
G02*
X127710000Y-102093000I216000J0D01*
G01*
X128190000Y-102093000D01*
G75*
G02*
X128406000Y-102309000I0J-216000D01*
G01*
X128406000Y-102741000D01*
G75*
G02*
X128190000Y-102957000I-216000J0D01*
G01*
G37*
G36*
G01*
X130153500Y-105520601D02*
X130153500Y-104319399D01*
G75*
G02*
X130392899Y-104080000I239399J0D01*
G01*
X131282101Y-104080000D01*
G75*
G02*
X131521500Y-104319399I0J-239399D01*
G01*
X131521500Y-105520601D01*
G75*
G02*
X131282101Y-105760000I-239399J0D01*
G01*
X130392899Y-105760000D01*
G75*
G02*
X130153500Y-105520601I0J239399D01*
G01*
G37*
G36*
G01*
X133128500Y-105520601D02*
X133128500Y-104319399D01*
G75*
G02*
X133367899Y-104080000I239399J0D01*
G01*
X134257101Y-104080000D01*
G75*
G02*
X134496500Y-104319399I0J-239399D01*
G01*
X134496500Y-105520601D01*
G75*
G02*
X134257101Y-105760000I-239399J0D01*
G01*
X133367899Y-105760000D01*
G75*
G02*
X133128500Y-105520601I0J239399D01*
G01*
G37*
%TD*%
%TO.C,R14*%
G36*
G01*
X126536000Y-104141000D02*
X127064000Y-104141000D01*
G75*
G02*
X127256000Y-104333000I0J-192000D01*
G01*
X127256000Y-104717000D01*
G75*
G02*
X127064000Y-104909000I-192000J0D01*
G01*
X126536000Y-104909000D01*
G75*
G02*
X126344000Y-104717000I0J192000D01*
G01*
X126344000Y-104333000D01*
G75*
G02*
X126536000Y-104141000I192000J0D01*
G01*
G37*
G36*
G01*
X126536000Y-102491000D02*
X127064000Y-102491000D01*
G75*
G02*
X127256000Y-102683000I0J-192000D01*
G01*
X127256000Y-103067000D01*
G75*
G02*
X127064000Y-103259000I-192000J0D01*
G01*
X126536000Y-103259000D01*
G75*
G02*
X126344000Y-103067000I0J192000D01*
G01*
X126344000Y-102683000D01*
G75*
G02*
X126536000Y-102491000I192000J0D01*
G01*
G37*
%TD*%
%TO.C,D2*%
G36*
G01*
X125500000Y-108200000D02*
X126700000Y-108200000D01*
G75*
G02*
X126940000Y-108440000I0J-240000D01*
G01*
X126940000Y-109160000D01*
G75*
G02*
X126700000Y-109400000I-240000J0D01*
G01*
X125500000Y-109400000D01*
G75*
G02*
X125260000Y-109160000I0J240000D01*
G01*
X125260000Y-108440000D01*
G75*
G02*
X125500000Y-108200000I240000J0D01*
G01*
G37*
G36*
G01*
X125500000Y-105400000D02*
X126700000Y-105400000D01*
G75*
G02*
X126940000Y-105640000I0J-240000D01*
G01*
X126940000Y-106360000D01*
G75*
G02*
X126700000Y-106600000I-240000J0D01*
G01*
X125500000Y-106600000D01*
G75*
G02*
X125260000Y-106360000I0J240000D01*
G01*
X125260000Y-105640000D01*
G75*
G02*
X125500000Y-105400000I240000J0D01*
G01*
G37*
%TD*%
D13*
%TO.C,Q1*%
X121150000Y-107750000D03*
X121150000Y-109050000D03*
X119250000Y-109050000D03*
X119250000Y-108400000D03*
X119250000Y-107750000D03*
%TD*%
%TO.C,R16*%
G36*
G01*
X123159000Y-106636000D02*
X123159000Y-107164000D01*
G75*
G02*
X122967000Y-107356000I-192000J0D01*
G01*
X122583000Y-107356000D01*
G75*
G02*
X122391000Y-107164000I0J192000D01*
G01*
X122391000Y-106636000D01*
G75*
G02*
X122583000Y-106444000I192000J0D01*
G01*
X122967000Y-106444000D01*
G75*
G02*
X123159000Y-106636000I0J-192000D01*
G01*
G37*
G36*
G01*
X124809000Y-106636000D02*
X124809000Y-107164000D01*
G75*
G02*
X124617000Y-107356000I-192000J0D01*
G01*
X124233000Y-107356000D01*
G75*
G02*
X124041000Y-107164000I0J192000D01*
G01*
X124041000Y-106636000D01*
G75*
G02*
X124233000Y-106444000I192000J0D01*
G01*
X124617000Y-106444000D01*
G75*
G02*
X124809000Y-106636000I0J-192000D01*
G01*
G37*
%TD*%
%TO.C,R15*%
G36*
G01*
X124041000Y-105964000D02*
X124041000Y-105436000D01*
G75*
G02*
X124233000Y-105244000I192000J0D01*
G01*
X124617000Y-105244000D01*
G75*
G02*
X124809000Y-105436000I0J-192000D01*
G01*
X124809000Y-105964000D01*
G75*
G02*
X124617000Y-106156000I-192000J0D01*
G01*
X124233000Y-106156000D01*
G75*
G02*
X124041000Y-105964000I0J192000D01*
G01*
G37*
G36*
G01*
X122391000Y-105964000D02*
X122391000Y-105436000D01*
G75*
G02*
X122583000Y-105244000I192000J0D01*
G01*
X122967000Y-105244000D01*
G75*
G02*
X123159000Y-105436000I0J-192000D01*
G01*
X123159000Y-105964000D01*
G75*
G02*
X122967000Y-106156000I-192000J0D01*
G01*
X122583000Y-106156000D01*
G75*
G02*
X122391000Y-105964000I0J192000D01*
G01*
G37*
%TD*%
%TO.C,R8*%
G36*
G01*
X119641000Y-102664000D02*
X119641000Y-102136000D01*
G75*
G02*
X119833000Y-101944000I192000J0D01*
G01*
X120217000Y-101944000D01*
G75*
G02*
X120409000Y-102136000I0J-192000D01*
G01*
X120409000Y-102664000D01*
G75*
G02*
X120217000Y-102856000I-192000J0D01*
G01*
X119833000Y-102856000D01*
G75*
G02*
X119641000Y-102664000I0J192000D01*
G01*
G37*
G36*
G01*
X117991000Y-102664000D02*
X117991000Y-102136000D01*
G75*
G02*
X118183000Y-101944000I192000J0D01*
G01*
X118567000Y-101944000D01*
G75*
G02*
X118759000Y-102136000I0J-192000D01*
G01*
X118759000Y-102664000D01*
G75*
G02*
X118567000Y-102856000I-192000J0D01*
G01*
X118183000Y-102856000D01*
G75*
G02*
X117991000Y-102664000I0J192000D01*
G01*
G37*
%TD*%
%TO.C,R1*%
G36*
G01*
X119759000Y-106436000D02*
X119759000Y-106964000D01*
G75*
G02*
X119567000Y-107156000I-192000J0D01*
G01*
X119183000Y-107156000D01*
G75*
G02*
X118991000Y-106964000I0J192000D01*
G01*
X118991000Y-106436000D01*
G75*
G02*
X119183000Y-106244000I192000J0D01*
G01*
X119567000Y-106244000D01*
G75*
G02*
X119759000Y-106436000I0J-192000D01*
G01*
G37*
G36*
G01*
X121409000Y-106436000D02*
X121409000Y-106964000D01*
G75*
G02*
X121217000Y-107156000I-192000J0D01*
G01*
X120833000Y-107156000D01*
G75*
G02*
X120641000Y-106964000I0J192000D01*
G01*
X120641000Y-106436000D01*
G75*
G02*
X120833000Y-106244000I192000J0D01*
G01*
X121217000Y-106244000D01*
G75*
G02*
X121409000Y-106436000I0J-192000D01*
G01*
G37*
%TD*%
%TO.C,R12*%
G36*
G01*
X127836000Y-108941000D02*
X128364000Y-108941000D01*
G75*
G02*
X128556000Y-109133000I0J-192000D01*
G01*
X128556000Y-109517000D01*
G75*
G02*
X128364000Y-109709000I-192000J0D01*
G01*
X127836000Y-109709000D01*
G75*
G02*
X127644000Y-109517000I0J192000D01*
G01*
X127644000Y-109133000D01*
G75*
G02*
X127836000Y-108941000I192000J0D01*
G01*
G37*
G36*
G01*
X127836000Y-107291000D02*
X128364000Y-107291000D01*
G75*
G02*
X128556000Y-107483000I0J-192000D01*
G01*
X128556000Y-107867000D01*
G75*
G02*
X128364000Y-108059000I-192000J0D01*
G01*
X127836000Y-108059000D01*
G75*
G02*
X127644000Y-107867000I0J192000D01*
G01*
X127644000Y-107483000D01*
G75*
G02*
X127836000Y-107291000I192000J0D01*
G01*
G37*
%TD*%
%TO.C,R11*%
G36*
G01*
X127836000Y-114841000D02*
X128364000Y-114841000D01*
G75*
G02*
X128556000Y-115033000I0J-192000D01*
G01*
X128556000Y-115417000D01*
G75*
G02*
X128364000Y-115609000I-192000J0D01*
G01*
X127836000Y-115609000D01*
G75*
G02*
X127644000Y-115417000I0J192000D01*
G01*
X127644000Y-115033000D01*
G75*
G02*
X127836000Y-114841000I192000J0D01*
G01*
G37*
G36*
G01*
X127836000Y-113191000D02*
X128364000Y-113191000D01*
G75*
G02*
X128556000Y-113383000I0J-192000D01*
G01*
X128556000Y-113767000D01*
G75*
G02*
X128364000Y-113959000I-192000J0D01*
G01*
X127836000Y-113959000D01*
G75*
G02*
X127644000Y-113767000I0J192000D01*
G01*
X127644000Y-113383000D01*
G75*
G02*
X127836000Y-113191000I192000J0D01*
G01*
G37*
%TD*%
%TO.C,J2*%
G36*
G01*
X133192500Y-112150000D02*
X132727500Y-112150000D01*
G75*
G02*
X132495000Y-111917500I0J232500D01*
G01*
X132495000Y-111452500D01*
G75*
G02*
X132727500Y-111220000I232500J0D01*
G01*
X133192500Y-111220000D01*
G75*
G02*
X133425000Y-111452500I0J-232500D01*
G01*
X133425000Y-111917500D01*
G75*
G02*
X133192500Y-112150000I-232500J0D01*
G01*
G37*
G36*
G01*
X134342500Y-112150000D02*
X133877500Y-112150000D01*
G75*
G02*
X133645000Y-111917500I0J232500D01*
G01*
X133645000Y-111452500D01*
G75*
G02*
X133877500Y-111220000I232500J0D01*
G01*
X134342500Y-111220000D01*
G75*
G02*
X134575000Y-111452500I0J-232500D01*
G01*
X134575000Y-111917500D01*
G75*
G02*
X134342500Y-112150000I-232500J0D01*
G01*
G37*
G36*
G01*
X132042500Y-111000000D02*
X131577500Y-111000000D01*
G75*
G02*
X131345000Y-110767500I0J232500D01*
G01*
X131345000Y-110302500D01*
G75*
G02*
X131577500Y-110070000I232500J0D01*
G01*
X132042500Y-110070000D01*
G75*
G02*
X132275000Y-110302500I0J-232500D01*
G01*
X132275000Y-110767500D01*
G75*
G02*
X132042500Y-111000000I-232500J0D01*
G01*
G37*
G36*
G01*
X133192500Y-111000000D02*
X132727500Y-111000000D01*
G75*
G02*
X132495000Y-110767500I0J232500D01*
G01*
X132495000Y-110302500D01*
G75*
G02*
X132727500Y-110070000I232500J0D01*
G01*
X133192500Y-110070000D01*
G75*
G02*
X133425000Y-110302500I0J-232500D01*
G01*
X133425000Y-110767500D01*
G75*
G02*
X133192500Y-111000000I-232500J0D01*
G01*
G37*
G36*
G01*
X134342500Y-111000000D02*
X133877500Y-111000000D01*
G75*
G02*
X133645000Y-110767500I0J232500D01*
G01*
X133645000Y-110302500D01*
G75*
G02*
X133877500Y-110070000I232500J0D01*
G01*
X134342500Y-110070000D01*
G75*
G02*
X134575000Y-110302500I0J-232500D01*
G01*
X134575000Y-110767500D01*
G75*
G02*
X134342500Y-111000000I-232500J0D01*
G01*
G37*
G36*
G01*
X132042500Y-109850000D02*
X131577500Y-109850000D01*
G75*
G02*
X131345000Y-109617500I0J232500D01*
G01*
X131345000Y-109152500D01*
G75*
G02*
X131577500Y-108920000I232500J0D01*
G01*
X132042500Y-108920000D01*
G75*
G02*
X132275000Y-109152500I0J-232500D01*
G01*
X132275000Y-109617500D01*
G75*
G02*
X132042500Y-109850000I-232500J0D01*
G01*
G37*
G36*
G01*
X133192500Y-109850000D02*
X132727500Y-109850000D01*
G75*
G02*
X132495000Y-109617500I0J232500D01*
G01*
X132495000Y-109152500D01*
G75*
G02*
X132727500Y-108920000I232500J0D01*
G01*
X133192500Y-108920000D01*
G75*
G02*
X133425000Y-109152500I0J-232500D01*
G01*
X133425000Y-109617500D01*
G75*
G02*
X133192500Y-109850000I-232500J0D01*
G01*
G37*
G36*
G01*
X134342500Y-109850000D02*
X133877500Y-109850000D01*
G75*
G02*
X133645000Y-109617500I0J232500D01*
G01*
X133645000Y-109152500D01*
G75*
G02*
X133877500Y-108920000I232500J0D01*
G01*
X134342500Y-108920000D01*
G75*
G02*
X134575000Y-109152500I0J-232500D01*
G01*
X134575000Y-109617500D01*
G75*
G02*
X134342500Y-109850000I-232500J0D01*
G01*
G37*
G36*
G01*
X132042500Y-113300000D02*
X131577500Y-113300000D01*
G75*
G02*
X131345000Y-113067500I0J232500D01*
G01*
X131345000Y-112602500D01*
G75*
G02*
X131577500Y-112370000I232500J0D01*
G01*
X132042500Y-112370000D01*
G75*
G02*
X132275000Y-112602500I0J-232500D01*
G01*
X132275000Y-113067500D01*
G75*
G02*
X132042500Y-113300000I-232500J0D01*
G01*
G37*
G36*
G01*
X133192500Y-113300000D02*
X132727500Y-113300000D01*
G75*
G02*
X132495000Y-113067500I0J232500D01*
G01*
X132495000Y-112602500D01*
G75*
G02*
X132727500Y-112370000I232500J0D01*
G01*
X133192500Y-112370000D01*
G75*
G02*
X133425000Y-112602500I0J-232500D01*
G01*
X133425000Y-113067500D01*
G75*
G02*
X133192500Y-113300000I-232500J0D01*
G01*
G37*
G36*
G01*
X134342500Y-113300000D02*
X133877500Y-113300000D01*
G75*
G02*
X133645000Y-113067500I0J232500D01*
G01*
X133645000Y-112602500D01*
G75*
G02*
X133877500Y-112370000I232500J0D01*
G01*
X134342500Y-112370000D01*
G75*
G02*
X134575000Y-112602500I0J-232500D01*
G01*
X134575000Y-113067500D01*
G75*
G02*
X134342500Y-113300000I-232500J0D01*
G01*
G37*
G36*
G01*
X132042500Y-112150000D02*
X131577500Y-112150000D01*
G75*
G02*
X131345000Y-111917500I0J232500D01*
G01*
X131345000Y-111452500D01*
G75*
G02*
X131577500Y-111220000I232500J0D01*
G01*
X132042500Y-111220000D01*
G75*
G02*
X132275000Y-111452500I0J-232500D01*
G01*
X132275000Y-111917500D01*
G75*
G02*
X132042500Y-112150000I-232500J0D01*
G01*
G37*
D14*
X129385000Y-113500000D03*
X129385000Y-108700000D03*
D15*
X129385000Y-110850000D03*
X129385000Y-111350000D03*
X129385000Y-110350000D03*
X129385000Y-111850000D03*
X129385000Y-109850000D03*
X129385000Y-112350000D03*
X129385000Y-109350000D03*
X129385000Y-112850000D03*
D14*
X129385000Y-107900000D03*
X129385000Y-114300000D03*
%TD*%
M02*
