%TF.GenerationSoftware,KiCad,Pcbnew,(6.0.1-0)*%
%TF.CreationDate,2022-01-30T10:46:30+00:00*%
%TF.ProjectId,Generic,47656e65-7269-4632-9e6b-696361645f70,6*%
%TF.SameCoordinates,Original*%
%TF.FileFunction,Copper,L1,Top*%
%TF.FilePolarity,Positive*%
%FSLAX46Y46*%
G04 Gerber Fmt 4.6, Leading zero omitted, Abs format (unit mm)*
G04 Created by KiCad (PCBNEW (6.0.1-0)) date 2022-01-30 10:46:30*
%MOMM*%
%LPD*%
G01*
G04 APERTURE LIST*
G04 Aperture macros list*
%AMRoundRect*
0 Rectangle with rounded corners*
0 $1 Rounding radius*
0 $2 $3 $4 $5 $6 $7 $8 $9 X,Y pos of 4 corners*
0 Add a 4 corners polygon primitive as box body*
4,1,4,$2,$3,$4,$5,$6,$7,$8,$9,$2,$3,0*
0 Add four circle primitives for the rounded corners*
1,1,$1+$1,$2,$3*
1,1,$1+$1,$4,$5*
1,1,$1+$1,$6,$7*
1,1,$1+$1,$8,$9*
0 Add four rect primitives between the rounded corners*
20,1,$1+$1,$2,$3,$4,$5,0*
20,1,$1+$1,$4,$5,$6,$7,0*
20,1,$1+$1,$6,$7,$8,$9,0*
20,1,$1+$1,$8,$9,$2,$3,0*%
%AMFreePoly0*
4,1,136,3.383385,4.221938,3.559722,4.168447,3.722236,4.081581,3.864680,3.964680,3.981581,3.822236,4.068447,3.659722,4.121938,3.483385,4.125213,3.450138,4.182769,3.539508,4.186818,3.554319,4.232803,3.599839,4.295387,3.616268,4.357802,3.599205,4.403322,3.553220,4.419751,3.490636,4.402688,3.428221,4.402685,3.428218,4.172864,3.069999,4.056927,2.918726,3.981581,2.777764,
3.864680,2.635320,3.750000,2.541204,3.750000,0.022998,4.066621,-0.229499,4.408387,-0.546611,4.440740,-0.602647,4.440740,-0.667351,4.408387,-0.723387,4.352351,-0.755740,4.287647,-0.755740,4.231611,-0.723387,4.223834,-0.709917,3.889556,-0.400914,3.520256,-0.109781,3.483169,-0.085000,2.500000,-0.085000,2.500000,-1.185000,3.750000,-1.185000,3.750000,-2.745000,-3.750000,-2.745000,
-3.750000,-1.185000,-2.500000,-1.185000,-2.500000,-0.085000,-3.483168,-0.085000,-3.520257,-0.109782,-3.889557,-0.400914,-4.223835,-0.709917,-4.231612,-0.723388,-4.287648,-0.755741,-4.352352,-0.755741,-4.408388,-0.723388,-4.440741,-0.667352,-4.440741,-0.602648,-4.408388,-0.546612,-4.066622,-0.229500,-3.750000,0.022998,-3.750000,2.541204,-3.864680,2.635320,-3.981581,2.777764,-4.057059,2.918973,
-4.182136,3.083248,-4.410822,3.442198,-4.427688,3.504666,-4.411060,3.567198,-4.365394,3.613038,-4.302926,3.629904,-4.240394,3.613276,-4.194554,3.567610,-4.190552,3.552787,-4.125171,3.450557,-4.121938,3.483385,-4.068447,3.659722,-3.981581,3.822236,-3.864680,3.964680,-3.722236,4.081581,-3.559722,4.168447,-3.383385,4.221938,-3.200000,4.240000,-3.137500,4.223253,-3.091747,4.177500,
-3.075000,4.115000,-3.091747,4.052500,-3.137500,4.006747,-3.200000,3.990000,-3.211471,3.993074,-3.354511,3.976957,-3.501274,3.925602,-3.632930,3.842877,-3.742877,3.732930,-3.825602,3.601274,-3.876957,3.454511,-3.894366,3.300000,-3.876957,3.145489,-3.839657,3.038894,-3.713800,2.875371,-3.594054,2.745000,-2.998152,2.745000,-3.015000,3.045000,-2.998253,3.107500,-2.952500,3.153253,
-2.890000,3.170000,-2.827500,3.153253,-2.781747,3.107500,-2.765000,3.045000,-2.768849,3.030634,-2.752213,2.745000,2.752213,2.745000,2.768849,3.030634,2.765000,3.045000,2.781747,3.107500,2.827500,3.153253,2.890000,3.170000,2.952500,3.153253,2.998253,3.107500,3.015000,3.045000,2.998152,2.745000,3.594234,2.745000,3.703871,2.863608,3.839648,3.038866,3.876957,3.145489,
3.894366,3.300000,3.876957,3.454511,3.825602,3.601274,3.742877,3.732930,3.632930,3.842877,3.501274,3.925602,3.354511,3.976957,3.211471,3.993074,3.200000,3.990000,3.137500,4.006747,3.091747,4.052500,3.075000,4.115000,3.091747,4.177500,3.137500,4.223253,3.200000,4.240000,3.383385,4.221938,3.383385,4.221938,$1*%
%AMFreePoly1*
4,1,6,1.000000,-1.000000,-1.000000,-1.000000,-1.000000,0.750000,-0.750000,1.000000,1.000000,1.000000,1.000000,-1.000000,1.000000,-1.000000,$1*%
%AMFreePoly2*
4,1,24,1.812500,0.558253,1.858253,0.512500,1.875000,0.450000,1.860584,0.322050,1.818057,0.200517,1.749553,0.091493,1.658507,0.000447,1.549483,-0.068057,1.427950,-0.110584,1.300000,-0.125000,-1.300000,-0.125000,-1.300000,0.125000,1.300000,0.125000,1.309502,0.122454,1.401682,0.137054,1.493411,0.183792,1.566208,0.256589,1.612946,0.348318,1.627546,0.440498,1.625000,0.450000,
1.641747,0.512500,1.687500,0.558253,1.750000,0.575000,1.812500,0.558253,1.812500,0.558253,$1*%
%AMFreePoly3*
4,1,43,1.102950,0.110584,1.224483,0.068057,1.333507,-0.000447,1.424553,-0.091493,1.493057,-0.200517,1.535584,-0.322050,1.550000,-0.450000,1.533253,-0.512500,1.487500,-0.558253,1.425000,-0.575000,1.362500,-0.558253,1.316747,-0.512500,1.300000,-0.450000,1.302546,-0.440498,1.287946,-0.348318,1.241208,-0.256589,1.168411,-0.183792,1.076682,-0.137054,0.984502,-0.122454,0.975000,-0.125000,
-0.975000,-0.125000,-0.984502,-0.122454,-1.076682,-0.137054,-1.168411,-0.183792,-1.241208,-0.256589,-1.287946,-0.348318,-1.302546,-0.440498,-1.300000,-0.450000,-1.316747,-0.512500,-1.362500,-0.558253,-1.425000,-0.575000,-1.487500,-0.558253,-1.533253,-0.512500,-1.550000,-0.450000,-1.535584,-0.322050,-1.493057,-0.200517,-1.424553,-0.091493,-1.333507,-0.000447,-1.224483,0.068057,-1.102950,0.110584,
-0.975000,0.125000,0.975000,0.125000,1.102950,0.110584,1.102950,0.110584,$1*%
%AMFreePoly4*
4,1,37,1.095671,1.230970,1.176777,1.176777,1.230970,1.095671,1.250000,1.000000,1.234611,0.804457,1.188821,0.613729,1.113759,0.432512,1.011272,0.265269,0.883885,0.116117,0.734733,-0.011271,0.567490,-0.113758,0.386273,-0.188820,0.195545,-0.234610,0.000002,-0.250000,-0.095669,-0.230970,-0.176775,-0.176777,-0.230968,-0.095671,-0.249998,0.000000,-0.230968,0.095671,-0.176775,0.176777,
-0.095669,0.230970,0.000002,0.250000,0.012204,0.247573,0.147027,0.260852,0.288403,0.303738,0.418695,0.373381,0.532897,0.467104,0.626620,0.581306,0.696263,0.711599,0.739148,0.852974,0.752427,0.987798,0.750000,1.000000,0.769030,1.095671,0.823223,1.176777,0.904329,1.230970,1.000000,1.250000,1.095671,1.230970,1.095671,1.230970,$1*%
%AMFreePoly5*
4,1,72,4.686563,7.086550,4.817878,7.046716,4.938899,6.982029,5.044975,6.894975,5.132029,6.788899,5.196716,6.667878,5.236550,6.536563,5.250000,6.400000,5.250000,1.600000,5.230970,1.504329,5.176777,1.423223,5.112500,1.380275,5.112500,0.250000,6.600000,0.250000,6.695671,0.230970,6.776777,0.176777,6.830970,0.095671,6.850000,0.000000,6.830970,-0.095671,6.776777,-0.176777,
6.695671,-0.230970,6.600000,-0.250000,0.000000,-0.250000,-0.095671,-0.230970,-0.176777,-0.176777,-0.230970,-0.095671,-0.250000,0.000000,-0.230970,0.095671,-0.176777,0.176777,-0.095671,0.230970,0.000000,0.250000,4.612500,0.250000,4.612500,1.600000,4.631530,1.695671,4.685723,1.776777,4.750000,1.819725,4.750000,6.400000,4.751388,6.406978,4.742582,6.462574,4.713820,6.519022,
4.669022,6.563820,4.612574,6.592582,4.556978,6.601388,4.550000,6.600000,1.550000,6.600000,1.543022,6.601388,1.487426,6.592582,1.430978,6.563820,1.386180,6.519022,1.357418,6.462574,1.348612,6.406978,1.350000,6.400000,1.350000,5.900000,1.330970,5.804329,1.276777,5.723223,1.195671,5.669030,1.100000,5.650000,1.004329,5.669030,0.923223,5.723223,0.869030,5.804329,
0.850000,5.900000,0.850000,6.400000,0.863450,6.536563,0.903284,6.667878,0.967971,6.788899,1.055025,6.894975,1.161101,6.982029,1.282122,7.046716,1.413437,7.086550,1.550000,7.100000,4.550000,7.100000,4.686563,7.086550,4.686563,7.086550,$1*%
G04 Aperture macros list end*
%ADD10C,0.080000*%
%TA.AperFunction,NonConductor*%
%ADD11C,0.080000*%
%TD*%
%TA.AperFunction,EtchedComponent*%
%ADD12C,0.250000*%
%TD*%
%TA.AperFunction,EtchedComponent*%
%ADD13C,0.080000*%
%TD*%
%TA.AperFunction,SMDPad,CuDef*%
%ADD14RoundRect,0.249750X0.625250X-0.312750X0.625250X0.312750X-0.625250X0.312750X-0.625250X-0.312750X0*%
%TD*%
%TA.AperFunction,SMDPad,CuDef*%
%ADD15RoundRect,0.250100X0.449900X-0.262400X0.449900X0.262400X-0.449900X0.262400X-0.449900X-0.262400X0*%
%TD*%
%TA.AperFunction,SMDPad,CuDef*%
%ADD16R,1.140000X0.600000*%
%TD*%
%TA.AperFunction,SMDPad,CuDef*%
%ADD17RoundRect,0.075000X0.495000X-0.075000X0.495000X0.075000X-0.495000X0.075000X-0.495000X-0.075000X0*%
%TD*%
%TA.AperFunction,ComponentPad*%
%ADD18C,0.600000*%
%TD*%
%TA.AperFunction,SMDPad,CuDef*%
%ADD19R,5.490000X5.000000*%
%TD*%
%TA.AperFunction,ComponentPad*%
%ADD20C,1.250000*%
%TD*%
%TA.AperFunction,ComponentPad*%
%ADD21C,1.500000*%
%TD*%
%TA.AperFunction,SMDPad,CuDef*%
%ADD22FreePoly0,90.000000*%
%TD*%
%TA.AperFunction,ComponentPad*%
%ADD23R,1.700000X1.700000*%
%TD*%
%TA.AperFunction,ComponentPad*%
%ADD24O,1.700000X1.700000*%
%TD*%
%TA.AperFunction,SMDPad,CuDef*%
%ADD25RoundRect,0.062500X0.062500X-0.287500X0.062500X0.287500X-0.062500X0.287500X-0.062500X-0.287500X0*%
%TD*%
%TA.AperFunction,SMDPad,CuDef*%
%ADD26RoundRect,0.062500X0.287500X-0.062500X0.287500X0.062500X-0.287500X0.062500X-0.287500X-0.062500X0*%
%TD*%
%TA.AperFunction,SMDPad,CuDef*%
%ADD27FreePoly1,90.000000*%
%TD*%
%TA.AperFunction,ComponentPad*%
%ADD28C,0.350000*%
%TD*%
%TA.AperFunction,SMDPad,CuDef*%
%ADD29RoundRect,0.200000X-0.200000X-0.275000X0.200000X-0.275000X0.200000X0.275000X-0.200000X0.275000X0*%
%TD*%
%TA.AperFunction,SMDPad,CuDef*%
%ADD30RoundRect,0.250000X0.375000X0.625000X-0.375000X0.625000X-0.375000X-0.625000X0.375000X-0.625000X0*%
%TD*%
%TA.AperFunction,SMDPad,CuDef*%
%ADD31RoundRect,0.225000X-0.335876X-0.017678X-0.017678X-0.335876X0.335876X0.017678X0.017678X0.335876X0*%
%TD*%
%TA.AperFunction,SMDPad,CuDef*%
%ADD32RoundRect,0.200000X-0.275000X0.200000X-0.275000X-0.200000X0.275000X-0.200000X0.275000X0.200000X0*%
%TD*%
%TA.AperFunction,SMDPad,CuDef*%
%ADD33RoundRect,0.250100X-0.262400X-0.449900X0.262400X-0.449900X0.262400X0.449900X-0.262400X0.449900X0*%
%TD*%
%TA.AperFunction,SMDPad,CuDef*%
%ADD34RoundRect,0.249750X-0.312750X-0.625250X0.312750X-0.625250X0.312750X0.625250X-0.312750X0.625250X0*%
%TD*%
%TA.AperFunction,SMDPad,CuDef*%
%ADD35R,0.650000X0.400000*%
%TD*%
%TA.AperFunction,SMDPad,CuDef*%
%ADD36RoundRect,0.200000X0.275000X-0.200000X0.275000X0.200000X-0.275000X0.200000X-0.275000X-0.200000X0*%
%TD*%
%TA.AperFunction,SMDPad,CuDef*%
%ADD37R,0.850000X0.500000*%
%TD*%
%TA.AperFunction,SMDPad,CuDef*%
%ADD38RoundRect,0.225000X-0.225000X-0.250000X0.225000X-0.250000X0.225000X0.250000X-0.225000X0.250000X0*%
%TD*%
%TA.AperFunction,SMDPad,CuDef*%
%ADD39RoundRect,0.225000X-0.250000X0.225000X-0.250000X-0.225000X0.250000X-0.225000X0.250000X0.225000X0*%
%TD*%
%TA.AperFunction,SMDPad,CuDef*%
%ADD40RoundRect,0.200000X0.200000X0.275000X-0.200000X0.275000X-0.200000X-0.275000X0.200000X-0.275000X0*%
%TD*%
%TA.AperFunction,SMDPad,CuDef*%
%ADD41R,0.500000X2.000000*%
%TD*%
%TA.AperFunction,SMDPad,CuDef*%
%ADD42FreePoly2,0.000000*%
%TD*%
%TA.AperFunction,SMDPad,CuDef*%
%ADD43FreePoly3,0.000000*%
%TD*%
%TA.AperFunction,SMDPad,CuDef*%
%ADD44RoundRect,0.225000X0.250000X-0.225000X0.250000X0.225000X-0.250000X0.225000X-0.250000X-0.225000X0*%
%TD*%
%TA.AperFunction,SMDPad,CuDef*%
%ADD45R,2.000000X0.500000*%
%TD*%
%TA.AperFunction,SMDPad,CuDef*%
%ADD46R,0.600000X1.100000*%
%TD*%
%TA.AperFunction,SMDPad,CuDef*%
%ADD47R,1.425000X3.700000*%
%TD*%
%TA.AperFunction,SMDPad,CuDef*%
%ADD48RoundRect,0.249375X-0.463125X-0.625625X0.463125X-0.625625X0.463125X0.625625X-0.463125X0.625625X0*%
%TD*%
%TA.AperFunction,SMDPad,CuDef*%
%ADD49FreePoly4,0.000000*%
%TD*%
%TA.AperFunction,SMDPad,CuDef*%
%ADD50RoundRect,0.250000X-0.475000X0.250000X-0.475000X-0.250000X0.475000X-0.250000X0.475000X0.250000X0*%
%TD*%
%TA.AperFunction,SMDPad,CuDef*%
%ADD51FreePoly5,0.000000*%
%TD*%
%TA.AperFunction,SMDPad,CuDef*%
%ADD52R,0.500000X4.000000*%
%TD*%
%TA.AperFunction,ComponentPad*%
%ADD53RoundRect,0.250000X0.600000X0.675000X-0.600000X0.675000X-0.600000X-0.675000X0.600000X-0.675000X0*%
%TD*%
%TA.AperFunction,ComponentPad*%
%ADD54O,1.700000X1.850000*%
%TD*%
%TA.AperFunction,ViaPad*%
%ADD55C,0.800000*%
%TD*%
%TA.AperFunction,Conductor*%
%ADD56C,0.250000*%
%TD*%
%TA.AperFunction,Conductor*%
%ADD57C,0.500000*%
%TD*%
G04 APERTURE END LIST*
D10*
D11*
X118123809Y-125338571D02*
X118100000Y-125314761D01*
X118076190Y-125267142D01*
X118076190Y-125148095D01*
X118100000Y-125100476D01*
X118123809Y-125076666D01*
X118171428Y-125052857D01*
X118219047Y-125052857D01*
X118290476Y-125076666D01*
X118576190Y-125362380D01*
X118576190Y-125052857D01*
X118076190Y-124743333D02*
X118076190Y-124695714D01*
X118100000Y-124648095D01*
X118123809Y-124624285D01*
X118171428Y-124600476D01*
X118266666Y-124576666D01*
X118385714Y-124576666D01*
X118480952Y-124600476D01*
X118528571Y-124624285D01*
X118552380Y-124648095D01*
X118576190Y-124695714D01*
X118576190Y-124743333D01*
X118552380Y-124790952D01*
X118528571Y-124814761D01*
X118480952Y-124838571D01*
X118385714Y-124862380D01*
X118266666Y-124862380D01*
X118171428Y-124838571D01*
X118123809Y-124814761D01*
X118100000Y-124790952D01*
X118076190Y-124743333D01*
X118123809Y-124386190D02*
X118100000Y-124362380D01*
X118076190Y-124314761D01*
X118076190Y-124195714D01*
X118100000Y-124148095D01*
X118123809Y-124124285D01*
X118171428Y-124100476D01*
X118219047Y-124100476D01*
X118290476Y-124124285D01*
X118576190Y-124410000D01*
X118576190Y-124100476D01*
X118123809Y-123910000D02*
X118100000Y-123886190D01*
X118076190Y-123838571D01*
X118076190Y-123719523D01*
X118100000Y-123671904D01*
X118123809Y-123648095D01*
X118171428Y-123624285D01*
X118219047Y-123624285D01*
X118290476Y-123648095D01*
X118576190Y-123933809D01*
X118576190Y-123624285D01*
X118385714Y-123410000D02*
X118385714Y-123029047D01*
X118076190Y-122695714D02*
X118076190Y-122648095D01*
X118100000Y-122600476D01*
X118123809Y-122576666D01*
X118171428Y-122552857D01*
X118266666Y-122529047D01*
X118385714Y-122529047D01*
X118480952Y-122552857D01*
X118528571Y-122576666D01*
X118552380Y-122600476D01*
X118576190Y-122648095D01*
X118576190Y-122695714D01*
X118552380Y-122743333D01*
X118528571Y-122767142D01*
X118480952Y-122790952D01*
X118385714Y-122814761D01*
X118266666Y-122814761D01*
X118171428Y-122790952D01*
X118123809Y-122767142D01*
X118100000Y-122743333D01*
X118076190Y-122695714D01*
X118576190Y-122052857D02*
X118576190Y-122338571D01*
X118576190Y-122195714D02*
X118076190Y-122195714D01*
X118147619Y-122243333D01*
X118195238Y-122290952D01*
X118219047Y-122338571D01*
X118385714Y-121838571D02*
X118385714Y-121457619D01*
X118076190Y-121267142D02*
X118076190Y-120957619D01*
X118266666Y-121124285D01*
X118266666Y-121052857D01*
X118290476Y-121005238D01*
X118314285Y-120981428D01*
X118361904Y-120957619D01*
X118480952Y-120957619D01*
X118528571Y-120981428D01*
X118552380Y-121005238D01*
X118576190Y-121052857D01*
X118576190Y-121195714D01*
X118552380Y-121243333D01*
X118528571Y-121267142D01*
X118076190Y-120648095D02*
X118076190Y-120600476D01*
X118100000Y-120552857D01*
X118123809Y-120529047D01*
X118171428Y-120505238D01*
X118266666Y-120481428D01*
X118385714Y-120481428D01*
X118480952Y-120505238D01*
X118528571Y-120529047D01*
X118552380Y-120552857D01*
X118576190Y-120600476D01*
X118576190Y-120648095D01*
X118552380Y-120695714D01*
X118528571Y-120719523D01*
X118480952Y-120743333D01*
X118385714Y-120767142D01*
X118266666Y-120767142D01*
X118171428Y-120743333D01*
X118123809Y-120719523D01*
X118100000Y-120695714D01*
X118076190Y-120648095D01*
D12*
%TO.C,Logo1*%
X125300000Y-101200000D02*
X122300000Y-105400000D01*
D13*
X123700000Y-101200000D02*
X123800000Y-101200000D01*
X123800000Y-101360000D02*
X123900000Y-101500000D01*
D12*
X127100000Y-101300000D02*
X125300000Y-103300000D01*
X125300000Y-103300000D02*
X127100000Y-105400000D01*
X125300000Y-101200000D02*
X125300000Y-105400000D01*
D13*
X123700000Y-101200000D02*
X123700000Y-101500000D01*
X123700000Y-101360000D02*
X123800000Y-101360000D01*
D12*
X125300000Y-103300000D02*
X123800000Y-103300000D01*
D13*
X123800000Y-101360000D02*
G75*
G03*
X123800000Y-101200000I0J80000D01*
G01*
D12*
X123800000Y-105400000D02*
G75*
G03*
X125300000Y-105400000I750000J0D01*
G01*
D13*
X124080000Y-101360000D02*
G75*
G03*
X124080000Y-101360000I-300000J0D01*
G01*
%TD*%
D14*
%TO.P,R1,1*%
%TO.N,+3V3*%
X130470000Y-125812500D03*
D15*
X130470000Y-125262500D03*
D14*
%TO.P,R1,2*%
%TO.N,IO1*%
X130470000Y-122887500D03*
D15*
X130470000Y-123437500D03*
%TD*%
%TO.P,R2,1*%
%TO.N,+3V3*%
X127970000Y-125262500D03*
D14*
X127970000Y-125812500D03*
D15*
%TO.P,R2,2*%
%TO.N,IO2*%
X127970000Y-123437500D03*
D14*
X127970000Y-122887500D03*
%TD*%
%TO.P,R3,1*%
%TO.N,+3V3*%
X125470000Y-125812500D03*
D15*
X125470000Y-125262500D03*
%TO.P,R3,2*%
%TO.N,IO3*%
X125470000Y-123437500D03*
D14*
X125470000Y-122887500D03*
%TD*%
D15*
%TO.P,R4,1*%
%TO.N,+3V3*%
X122970000Y-125262500D03*
D14*
X122970000Y-125812500D03*
%TO.P,R4,2*%
%TO.N,IO4*%
X122970000Y-122887500D03*
D15*
X122970000Y-123437500D03*
%TD*%
D14*
%TO.P,R5,1*%
%TO.N,DC*%
X119700000Y-125812500D03*
D15*
X119700000Y-125262500D03*
%TO.P,R5,2*%
%TO.N,Net-(J1-Pad6)*%
X119700000Y-123437500D03*
D14*
X119700000Y-122887500D03*
%TD*%
D16*
%TO.P,J2,A1,GND*%
%TO.N,GND*%
X129385000Y-114300000D03*
%TO.P,J2,A4,VBUS*%
%TO.N,VBUS*%
X129385000Y-113500000D03*
D17*
%TO.P,J2,A5,CC1*%
%TO.N,Net-(J2-PadA5)*%
X129385000Y-112350000D03*
%TO.P,J2,A6,D+*%
%TO.N,Net-(C4-Pad1)*%
X129385000Y-111350000D03*
%TO.P,J2,A7,D-*%
%TO.N,Net-(C3-Pad1)*%
X129385000Y-110850000D03*
%TO.P,J2,A8,SBU1*%
%TO.N,unconnected-(J2-PadA8)*%
X129385000Y-109850000D03*
D16*
%TO.P,J2,A9,VBUS*%
%TO.N,VBUS*%
X129385000Y-108700000D03*
%TO.P,J2,A12,GND*%
%TO.N,GND*%
X129385000Y-107900000D03*
%TO.P,J2,B1,GND*%
X129385000Y-107900000D03*
%TO.P,J2,B4,VBUS*%
%TO.N,VBUS*%
X129385000Y-108700000D03*
D17*
%TO.P,J2,B5,CC2*%
%TO.N,Net-(J2-PadB5)*%
X129385000Y-109350000D03*
%TO.P,J2,B6,D+*%
%TO.N,Net-(C4-Pad1)*%
X129385000Y-110350000D03*
%TO.P,J2,B7,D-*%
%TO.N,Net-(C3-Pad1)*%
X129385000Y-111850000D03*
%TO.P,J2,B8,SBU2*%
%TO.N,unconnected-(J2-PadB8)*%
X129385000Y-112850000D03*
D16*
%TO.P,J2,B9,VBUS*%
%TO.N,VBUS*%
X129385000Y-113500000D03*
%TO.P,J2,B12,GND*%
%TO.N,GND*%
X129385000Y-114300000D03*
D18*
%TO.P,J2,S1,SHIELD*%
X130455000Y-108210000D03*
D19*
X133500000Y-111100000D03*
D20*
X134135000Y-106780000D03*
X134135000Y-115420000D03*
D18*
X130455000Y-113990000D03*
D21*
X129965000Y-106780000D03*
D22*
X133500000Y-111100000D03*
D21*
X129965000Y-115420000D03*
%TD*%
D23*
%TO.P,J3,1,Pin_1*%
%TO.N,GND*%
X134000000Y-125800000D03*
D24*
%TO.P,J3,2,Pin_2*%
%TO.N,DC*%
X134000000Y-123260000D03*
%TD*%
D15*
%TO.P,C1,1*%
%TO.N,GND*%
X135000000Y-120012500D03*
D14*
X135000000Y-120562500D03*
%TO.P,C1,2*%
%TO.N,IO1*%
X135000000Y-117637500D03*
D15*
X135000000Y-118187500D03*
%TD*%
D25*
%TO.P,U2,1,RXD*%
%TO.N,O*%
X121700000Y-114600000D03*
%TO.P,U2,2,~{RI}*%
%TO.N,GND*%
X122200000Y-114600000D03*
%TO.P,U2,3,GND*%
X122700000Y-114600000D03*
%TO.P,U2,4,~{DSR}*%
X123200000Y-114600000D03*
%TO.P,U2,5,~{DCD}*%
X123700000Y-114600000D03*
D26*
%TO.P,U2,6,~{CTS}*%
X124600000Y-113700000D03*
%TO.P,U2,7,CBUS2*%
%TO.N,unconnected-(U2-Pad7)*%
X124600000Y-113200000D03*
%TO.P,U2,8,USBDP*%
%TO.N,D+*%
X124600000Y-112700000D03*
%TO.P,U2,9,USBDM*%
%TO.N,D-*%
X124600000Y-112200000D03*
%TO.P,U2,10,3V3OUT*%
%TO.N,Net-(C2-Pad1)*%
X124600000Y-111700000D03*
D25*
%TO.P,U2,11,~{RESET}*%
X123700000Y-110800000D03*
%TO.P,U2,12,VCC*%
%TO.N,VBUS*%
X123200000Y-110800000D03*
%TO.P,U2,13,GND*%
%TO.N,GND*%
X122700000Y-110800000D03*
%TO.P,U2,14,CBUS1*%
%TO.N,CHARGER*%
X122200000Y-110800000D03*
%TO.P,U2,15,CBUS0*%
%TO.N,USB*%
X121700000Y-110800000D03*
D26*
%TO.P,U2,16,CBUS3*%
%TO.N,unconnected-(U2-Pad16)*%
X120800000Y-111700000D03*
%TO.P,U2,17,TXD*%
%TO.N,I*%
X120800000Y-112200000D03*
%TO.P,U2,18,~{DTR}*%
%TO.N,GPIO0*%
X120800000Y-112700000D03*
%TO.P,U2,19,~{RTS}*%
%TO.N,EN*%
X120800000Y-113200000D03*
%TO.P,U2,20,VCCIO*%
%TO.N,Net-(C2-Pad1)*%
X120800000Y-113700000D03*
D27*
%TO.P,U2,21,GND*%
%TO.N,GND*%
X122700000Y-112700000D03*
D28*
X122700000Y-112700000D03*
%TD*%
D29*
%TO.P,R9,1*%
%TO.N,Net-(D1-Pad4)*%
X118375000Y-102400000D03*
%TO.P,R9,2*%
%TO.N,B*%
X120025000Y-102400000D03*
%TD*%
D30*
%TO.P,D2,1,K*%
%TO.N,DC*%
X126700000Y-107600000D03*
%TO.P,D2,2,A*%
%TO.N,VBUS*%
X123900000Y-107600000D03*
%TD*%
D31*
%TO.P,C2,1*%
%TO.N,Net-(C2-Pad1)*%
X119051992Y-114751992D03*
%TO.P,C2,2*%
%TO.N,GND*%
X120148008Y-115848008D03*
%TD*%
D32*
%TO.P,R11,1*%
%TO.N,GND*%
X128100000Y-107675000D03*
%TO.P,R11,2*%
%TO.N,Net-(J2-PadB5)*%
X128100000Y-109325000D03*
%TD*%
D33*
%TO.P,R6,1*%
%TO.N,IO5*%
X119137500Y-117800000D03*
D34*
X118587500Y-117800000D03*
%TO.P,R6,2*%
%TO.N,Net-(J1-Pad6)*%
X121512500Y-117800000D03*
D33*
X120962500Y-117800000D03*
%TD*%
D35*
%TO.P,D4,1,A1*%
%TO.N,GND*%
X123250000Y-117150000D03*
%TO.P,D4,2,K2*%
%TO.N,+3V3*%
X123250000Y-117800000D03*
%TO.P,D4,3,K1A2*%
%TO.N,IO4*%
X123250000Y-118450000D03*
%TO.P,D4,4,A3*%
%TO.N,GND*%
X125150000Y-118450000D03*
%TO.P,D4,5,K4*%
%TO.N,+3V3*%
X125150000Y-117800000D03*
%TO.P,D4,6,K3A4*%
%TO.N,IO3*%
X125150000Y-117150000D03*
%TD*%
%TO.P,D3,1,A1*%
%TO.N,GND*%
X127500000Y-117150000D03*
%TO.P,D3,2,K2*%
%TO.N,+3V3*%
X127500000Y-117800000D03*
%TO.P,D3,3,K1A2*%
%TO.N,IO2*%
X127500000Y-118450000D03*
%TO.P,D3,4,A3*%
%TO.N,GND*%
X129400000Y-118450000D03*
%TO.P,D3,5,K4*%
%TO.N,+3V3*%
X129400000Y-117800000D03*
%TO.P,D3,6,K3A4*%
%TO.N,IO1*%
X129400000Y-117150000D03*
%TD*%
D32*
%TO.P,R10,1*%
%TO.N,Net-(J2-PadA5)*%
X128100000Y-113575000D03*
%TO.P,R10,2*%
%TO.N,GND*%
X128100000Y-115225000D03*
%TD*%
D36*
%TO.P,R12,1*%
%TO.N,Net-(C3-Pad1)*%
X126900000Y-115225000D03*
%TO.P,R12,2*%
%TO.N,D-*%
X126900000Y-113575000D03*
%TD*%
D32*
%TO.P,R13,1*%
%TO.N,D+*%
X125700000Y-113575000D03*
%TO.P,R13,2*%
%TO.N,Net-(C4-Pad1)*%
X125700000Y-115225000D03*
%TD*%
D37*
%TO.P,D1,1,A*%
%TO.N,+3V3*%
X120075000Y-100200000D03*
%TO.P,D1,2,RK*%
%TO.N,Net-(D1-Pad2)*%
X118325000Y-100200000D03*
%TO.P,D1,3,GK*%
%TO.N,Net-(D1-Pad3)*%
X118325000Y-99200000D03*
%TO.P,D1,4,BK*%
%TO.N,Net-(D1-Pad4)*%
X120075000Y-99200000D03*
%TD*%
D29*
%TO.P,R7,1*%
%TO.N,Net-(D1-Pad2)*%
X118375000Y-101200000D03*
%TO.P,R7,2*%
%TO.N,R*%
X120025000Y-101200000D03*
%TD*%
%TO.P,R8,1*%
%TO.N,Net-(D1-Pad3)*%
X118375000Y-103600000D03*
%TO.P,R8,2*%
%TO.N,G*%
X120025000Y-103600000D03*
%TD*%
D38*
%TO.P,C5,1*%
%TO.N,GND*%
X122925000Y-109300000D03*
%TO.P,C5,2*%
%TO.N,VBUS*%
X124475000Y-109300000D03*
%TD*%
D39*
%TO.P,C3,1*%
%TO.N,Net-(C3-Pad1)*%
X132800000Y-116800000D03*
%TO.P,C3,2*%
%TO.N,GND*%
X132800000Y-118350000D03*
%TD*%
%TO.P,C4,1*%
%TO.N,Net-(C4-Pad1)*%
X131600000Y-116800000D03*
%TO.P,C4,2*%
%TO.N,GND*%
X131600000Y-118350000D03*
%TD*%
D29*
%TO.P,R15,1*%
%TO.N,GND*%
X123575000Y-99600000D03*
%TO.P,R15,2*%
%TO.N,Net-(R14-Pad2)*%
X125225000Y-99600000D03*
%TD*%
D40*
%TO.P,R14,1*%
%TO.N,+3V3*%
X127925000Y-99600000D03*
%TO.P,R14,2*%
%TO.N,Net-(R14-Pad2)*%
X126275000Y-99600000D03*
%TD*%
D41*
%TO.P,U3,*%
%TO.N,*%
X131010000Y-104050000D03*
D42*
X129260000Y-101300000D03*
D43*
X129585000Y-102200000D03*
D44*
X127960000Y-101225000D03*
D45*
X131960000Y-103100000D03*
D46*
X131010000Y-103100000D03*
D47*
X132460000Y-101800000D03*
D46*
X131010000Y-100400000D03*
D44*
X127960000Y-102775000D03*
D48*
X130857500Y-104920000D03*
D46*
%TO.P,U3,1,SHDN*%
%TO.N,DC*%
X129110000Y-103100000D03*
%TO.P,U3,2,VIN*%
X130060000Y-103100000D03*
D49*
X129000000Y-104300000D03*
D50*
X129210000Y-104350000D03*
D48*
%TO.P,U3,3,GND*%
%TO.N,GND*%
X133822500Y-104920000D03*
D50*
X135460000Y-106250000D03*
X129210000Y-106250000D03*
D51*
X128960000Y-106250000D03*
D46*
X130060000Y-100400000D03*
D47*
%TO.P,U3,4,VOUT*%
%TO.N,+3V3*%
X135460000Y-101800000D03*
D52*
X135460000Y-102550000D03*
D50*
X135460000Y-104350000D03*
D46*
%TO.P,U3,5,FB*%
%TO.N,Net-(R14-Pad2)*%
X129110000Y-100400000D03*
%TD*%
D53*
%TO.P,J1,1,Pin_1*%
%TO.N,GND*%
X132970000Y-120500000D03*
D54*
%TO.P,J1,2,Pin_2*%
%TO.N,IO1*%
X130470000Y-120500000D03*
%TO.P,J1,3,Pin_3*%
%TO.N,IO2*%
X127970000Y-120500000D03*
%TO.P,J1,4,Pin_4*%
%TO.N,IO3*%
X125470000Y-120500000D03*
%TO.P,J1,5,Pin_5*%
%TO.N,IO4*%
X122970000Y-120500000D03*
%TO.P,J1,6,Pin_6*%
%TO.N,Net-(J1-Pad6)*%
X120470000Y-120500000D03*
%TD*%
D55*
%TO.N,GND*%
X121836193Y-106063807D03*
X133700000Y-118500000D03*
X125400000Y-107300000D03*
X121520001Y-124179999D03*
X124225500Y-99600000D03*
X126900000Y-103400000D03*
%TO.N,+3V3*%
X121560000Y-100100000D03*
%TO.N,IO5*%
X119800000Y-113925010D03*
%TO.N,O*%
X121110205Y-114651712D03*
%TO.N,I*%
X119837340Y-109937340D03*
%TO.N,EN*%
X122447374Y-100763201D03*
%TO.N,GPIO0*%
X122600011Y-108003478D03*
%TO.N,DC*%
X121251168Y-125928298D03*
X128000000Y-103900000D03*
%TO.N,CHARGER*%
X121200000Y-109850002D03*
%TO.N,USB*%
X121112119Y-110913201D03*
%TO.N,Net-(C2-Pad1)*%
X124624012Y-110903845D03*
X124284095Y-115314543D03*
%TO.N,R*%
X120922814Y-101087818D03*
%TO.N,G*%
X120940798Y-103237244D03*
%TO.N,B*%
X120760687Y-102141490D03*
%TO.N,Net-(C4-Pad1)*%
X125818304Y-114598388D03*
X125577979Y-110605596D03*
X131300000Y-115800000D03*
%TO.N,Net-(C3-Pad1)*%
X127077230Y-110545028D03*
X132400000Y-115804998D03*
X126882276Y-114597468D03*
X127077238Y-112187497D03*
%TD*%
D56*
%TO.N,D+*%
X125700000Y-113175000D02*
X125700000Y-113575000D01*
X124600000Y-112700000D02*
X125225000Y-112700000D01*
X125700000Y-113175000D02*
G75*
G03*
X125225000Y-112700000I-474999J1D01*
G01*
%TO.N,GND*%
X123263855Y-100836145D02*
X123263855Y-100920261D01*
X129770000Y-115225000D02*
X129965000Y-115420000D01*
X122200000Y-113200000D02*
X122700000Y-112700000D01*
X122700000Y-114600000D02*
X122700000Y-112700000D01*
X124500000Y-124400000D02*
X126700000Y-124400000D01*
X129170010Y-118679990D02*
X129170010Y-124270010D01*
X129300000Y-124400000D02*
X131133130Y-124400000D01*
X126700000Y-117550000D02*
X126700000Y-124400000D01*
D57*
X133045000Y-120500000D02*
X135600000Y-120500000D01*
D56*
X121722999Y-121577001D02*
X121722999Y-119922999D01*
X122400010Y-119245988D02*
X121722999Y-119922999D01*
X122700000Y-110800000D02*
X122700000Y-112700000D01*
X131600000Y-118115660D02*
X131600000Y-118350000D01*
X127500000Y-117150000D02*
X127100000Y-117150000D01*
X123575000Y-99600000D02*
X123575000Y-100525000D01*
D57*
X129435000Y-106250000D02*
X129965000Y-106780000D01*
D56*
X128325000Y-107900000D02*
X128100000Y-107675000D01*
X122400010Y-117424990D02*
X122400010Y-119245988D01*
X133700000Y-118500000D02*
X132950000Y-118500000D01*
X124225500Y-100549500D02*
X124125000Y-100650000D01*
X120148008Y-115848008D02*
X120339544Y-116039544D01*
X132533130Y-125800000D02*
X134000000Y-125800000D01*
X123575000Y-99600000D02*
X124225500Y-99600000D01*
D57*
X129200000Y-106250000D02*
X129435000Y-106250000D01*
D56*
X124249999Y-124349999D02*
X124249999Y-118800001D01*
X125150000Y-118450000D02*
X124600000Y-118450000D01*
X124600000Y-113700000D02*
X123700000Y-113700000D01*
X124125000Y-100650000D02*
X123575000Y-100650000D01*
X128100000Y-115225000D02*
X129770000Y-115225000D01*
X122700000Y-112700000D02*
X123700000Y-113700000D01*
X129345456Y-116039544D02*
X129965000Y-115420000D01*
X120339544Y-116039544D02*
X129345456Y-116039544D01*
X121520001Y-124179999D02*
X121520001Y-121779999D01*
X131133130Y-124400000D02*
X132533130Y-125800000D01*
X121764992Y-124424990D02*
X124475010Y-124424990D01*
X130292170Y-116807830D02*
X131600000Y-118115660D01*
X123100000Y-101084116D02*
X123100000Y-102300000D01*
X122800000Y-103800000D02*
X121836193Y-104763807D01*
X123250000Y-117150000D02*
X122675000Y-117150000D01*
D57*
X135600000Y-120500000D02*
X135600000Y-125450000D01*
D56*
X122700000Y-109525000D02*
X122925000Y-109300000D01*
X123200000Y-114600000D02*
X123200000Y-113200000D01*
X129170010Y-124270010D02*
X129300000Y-124400000D01*
X124500000Y-124400000D02*
X124300000Y-124400000D01*
X132950000Y-118500000D02*
X132800000Y-118350000D01*
X123700000Y-114600000D02*
X123700000Y-113700000D01*
X126700000Y-124400000D02*
X129300000Y-124400000D01*
X123575000Y-100525000D02*
X123263855Y-100836145D01*
X124475010Y-124424990D02*
X124500000Y-124400000D01*
X124225500Y-99600000D02*
X124225500Y-100549500D01*
X124300000Y-124400000D02*
X124249999Y-124349999D01*
D57*
X135250000Y-125800000D02*
X134000000Y-125800000D01*
D56*
X123100000Y-102300000D02*
X122800000Y-102600000D01*
X129385000Y-107900000D02*
X128325000Y-107900000D01*
X122200000Y-114600000D02*
X122200000Y-113200000D01*
X122800000Y-102600000D02*
X122800000Y-103800000D01*
X129965000Y-115420000D02*
X129965000Y-116017972D01*
X123263855Y-100920261D02*
X123100000Y-101084116D01*
X121836193Y-104763807D02*
X121836193Y-106063807D01*
X129400000Y-118450000D02*
X129170010Y-118679990D01*
X122700000Y-110800000D02*
X122700000Y-109525000D01*
X124249999Y-118800001D02*
G75*
G02*
X124600000Y-118450000I350001J0D01*
G01*
X121700000Y-121600000D02*
G75*
G03*
X121520001Y-121779999I-2J-179997D01*
G01*
X126700000Y-117550000D02*
G75*
G02*
X127100000Y-117150000I399999J1D01*
G01*
D57*
X135250000Y-125800000D02*
G75*
G03*
X135600000Y-125450000I-1J350001D01*
G01*
D56*
X130292170Y-116807830D02*
G75*
G02*
X129965000Y-116017972I789850J789855D01*
G01*
X121722999Y-121577001D02*
G75*
G02*
X121700000Y-121600000I-22998J-1D01*
G01*
X122400010Y-117424990D02*
G75*
G02*
X122675000Y-117150000I274991J-1D01*
G01*
%TO.N,D-*%
X126260876Y-112535876D02*
X126617157Y-112892158D01*
X125450000Y-112200000D02*
X124600000Y-112200000D01*
X125450000Y-112200001D02*
G75*
G02*
X126260876Y-112535876I4J-1146742D01*
G01*
X126617157Y-112892158D02*
G75*
G02*
X126900000Y-113575000I-682832J-682839D01*
G01*
%TO.N,+3V3*%
X135460000Y-101800000D02*
X135460000Y-99460000D01*
X117699990Y-126149990D02*
X117699990Y-105200010D01*
X124200000Y-117800000D02*
X124200000Y-116636410D01*
X120268435Y-116968435D02*
X120368435Y-116868435D01*
X127925000Y-98825000D02*
X127900000Y-98800000D01*
X123250000Y-117800000D02*
X124200000Y-117800000D01*
X127500000Y-117800000D02*
X128500000Y-117800000D01*
X121137183Y-116550009D02*
X127950009Y-116550009D01*
X135460000Y-99460000D02*
X134800000Y-98800000D01*
X124200000Y-117800000D02*
X125150000Y-117800000D01*
X134800000Y-98800000D02*
X127900000Y-98800000D01*
X122100000Y-98800000D02*
X127900000Y-98800000D01*
X128500000Y-117800000D02*
X129400000Y-117800000D01*
D57*
X125470000Y-125812500D02*
X127970000Y-125812500D01*
D56*
X120075000Y-100200000D02*
X121460000Y-100200000D01*
X122500000Y-127050000D02*
X118600000Y-127050000D01*
X127925000Y-99600000D02*
X127925000Y-98825000D01*
X128500000Y-117100000D02*
X128500000Y-117800000D01*
X121012895Y-104212895D02*
X121412895Y-103812895D01*
X117800010Y-119000010D02*
X119550010Y-119000010D01*
D57*
X127970000Y-125812500D02*
X130470000Y-125812500D01*
D56*
X122900000Y-125882500D02*
X122900000Y-126650000D01*
X118300000Y-104600000D02*
X120078341Y-104600000D01*
D57*
X122970000Y-125812500D02*
X125470000Y-125812500D01*
D56*
X121683280Y-103160128D02*
X121683280Y-100397624D01*
X121560000Y-100100000D02*
X121560000Y-99340000D01*
X119975010Y-118575010D02*
X119975010Y-117676825D01*
X121137183Y-116550009D02*
G75*
G03*
X120368435Y-116868435I0J-1087173D01*
G01*
X122900000Y-125882500D02*
G75*
G02*
X122970000Y-125812500I70002J-2D01*
G01*
X118300000Y-104600000D02*
G75*
G03*
X117699990Y-105200010I0J-600010D01*
G01*
X121560000Y-100100000D02*
G75*
G02*
X121460000Y-100200000I-99999J-1D01*
G01*
X117699990Y-126149990D02*
G75*
G03*
X118600000Y-127050000I900011J1D01*
G01*
X122100000Y-98800000D02*
G75*
G03*
X121560000Y-99340000I-1J-539999D01*
G01*
X121683280Y-103160128D02*
G75*
G02*
X121412895Y-103812895I-923159J3D01*
G01*
X120268435Y-116968435D02*
G75*
G03*
X119975010Y-117676825I708391J-708391D01*
G01*
X122500000Y-127050000D02*
G75*
G03*
X122900000Y-126650000I1J399999D01*
G01*
X128500000Y-117100000D02*
G75*
G03*
X127950009Y-116550009I-549992J-1D01*
G01*
X121560000Y-100100000D02*
G75*
G02*
X121683280Y-100397624I-297625J-297625D01*
G01*
X119975010Y-118575010D02*
G75*
G02*
X119550010Y-119000010I-425001J1D01*
G01*
X121012895Y-104212895D02*
G75*
G02*
X120078341Y-104600000I-934550J934544D01*
G01*
%TO.N,VBUS*%
X129870006Y-113500000D02*
X129385000Y-113500000D01*
X127425000Y-108725000D02*
X127125000Y-109025000D01*
X130280001Y-109109995D02*
X130280001Y-113090005D01*
X124475000Y-109300000D02*
X124475000Y-109874980D01*
X129385000Y-108700000D02*
X129870006Y-108700000D01*
X126461092Y-109300000D02*
X124475000Y-109300000D01*
X129385000Y-108700000D02*
X129284990Y-108599990D01*
D57*
X124475000Y-108988172D02*
X124475000Y-109300000D01*
D56*
X123200000Y-110401978D02*
X123200000Y-110800000D01*
X124224990Y-110124990D02*
X123476988Y-110124990D01*
X129284990Y-108599990D02*
X127726800Y-108599990D01*
X130280001Y-109109995D02*
G75*
G03*
X129870006Y-108700000I-409996J-1D01*
G01*
X126461092Y-109299999D02*
G75*
G03*
X127124999Y-109024999I0J938906D01*
G01*
X127425000Y-108725000D02*
G75*
G02*
X127726800Y-108599990I301800J-301799D01*
G01*
D57*
X124474999Y-108988172D02*
G75*
G03*
X123900000Y-107600000I-1963171J0D01*
G01*
D56*
X123200000Y-110401978D02*
G75*
G02*
X123476988Y-110124990I276988J0D01*
G01*
X129870006Y-113500000D02*
G75*
G03*
X130280001Y-113090005I-1J409996D01*
G01*
X124224990Y-110124990D02*
G75*
G03*
X124475000Y-109874980I1J250009D01*
G01*
%TO.N,IO5*%
X119425010Y-113925010D02*
X119300000Y-113800000D01*
X119300000Y-113800000D02*
X118632212Y-113800000D01*
X118166106Y-117378606D02*
X118587500Y-117800000D01*
X118300000Y-116962500D02*
X119137500Y-117800000D01*
X118166106Y-114266106D02*
X118166106Y-117378606D01*
X119800000Y-113925010D02*
X119425010Y-113925010D01*
X118166106Y-114266106D02*
G75*
G02*
X118632212Y-113800000I466105J1D01*
G01*
%TO.N,IO4*%
X122970000Y-120500000D02*
X122970000Y-122887500D01*
X123250000Y-118450000D02*
X123250000Y-120220000D01*
X122970000Y-120500000D02*
G75*
G03*
X123250000Y-120220000I0J280000D01*
G01*
%TO.N,IO3*%
X125470000Y-120500000D02*
X125470000Y-122887500D01*
X125150000Y-117150000D02*
X125350000Y-117150000D01*
X125800000Y-117600000D02*
X125800000Y-120170000D01*
X125470000Y-120500000D02*
G75*
G03*
X125800000Y-120170000I-1J330001D01*
G01*
X125800000Y-117600000D02*
G75*
G03*
X125350000Y-117150000I-450000J0D01*
G01*
%TO.N,IO2*%
X127970000Y-120500000D02*
X127970000Y-122887500D01*
X127970000Y-120500000D02*
X127970000Y-118920000D01*
X127500000Y-118450000D02*
G75*
G02*
X127970000Y-118920000I-1J-470001D01*
G01*
%TO.N,IO1*%
X133813499Y-119236501D02*
X132336501Y-119236501D01*
X130470000Y-120500000D02*
X130470000Y-118220000D01*
X130470000Y-120500000D02*
X130470000Y-123437500D01*
X135000000Y-117637500D02*
X135000000Y-118273002D01*
X130505000Y-120500000D02*
X131366861Y-119638139D01*
X135000000Y-118273002D02*
X134194187Y-119078815D01*
X131366861Y-119638139D02*
G75*
G02*
X132336501Y-119236501I969639J-969638D01*
G01*
X129400000Y-117150000D02*
G75*
G02*
X130470000Y-118220000I-1J-1070001D01*
G01*
X133813499Y-119236500D02*
G75*
G03*
X134194186Y-119078814I-1J538376D01*
G01*
X130529748Y-120475251D02*
G75*
G02*
X130470000Y-120500000I-59747J59743D01*
G01*
%TO.N,O*%
X121700000Y-114600000D02*
X121161917Y-114600000D01*
X121161917Y-114600000D02*
X121110205Y-114651712D01*
%TO.N,I*%
X120200000Y-112200000D02*
X120800000Y-112200000D01*
X119837340Y-109937340D02*
X119837340Y-111837340D01*
X120200000Y-112200000D02*
G75*
G02*
X119837340Y-111837340I1J362661D01*
G01*
%TO.N,EN*%
X122175013Y-103128905D02*
X122175013Y-101035562D01*
X118300000Y-112436411D02*
X118300000Y-105300000D01*
X122175013Y-101035562D02*
X122447374Y-100763201D01*
X121280747Y-104580747D02*
X121780747Y-104080747D01*
X118500000Y-105100000D02*
X120027160Y-105100000D01*
X120800000Y-113200000D02*
X119063589Y-113200000D01*
X121280747Y-104580747D02*
G75*
G02*
X120027160Y-105100000I-1253586J1253583D01*
G01*
X122175013Y-103128905D02*
G75*
G02*
X121780747Y-104080747I-1346104J-1D01*
G01*
X118300000Y-112436411D02*
G75*
G03*
X119063589Y-113200000I763589J0D01*
G01*
X118500000Y-105100000D02*
G75*
G03*
X118300000Y-105300000I1J-200001D01*
G01*
%TO.N,Net-(J2-PadA5)*%
X129385000Y-112350000D02*
X128700000Y-112350000D01*
X128100000Y-113575000D02*
X128100000Y-112950000D01*
X128100000Y-112950000D02*
G75*
G02*
X128700000Y-112350000I600000J0D01*
G01*
%TO.N,Net-(J2-PadB5)*%
X129385000Y-109350000D02*
X128125000Y-109350000D01*
X128125000Y-109350000D02*
X128100000Y-109325000D01*
%TO.N,Net-(J1-Pad6)*%
X120962500Y-120007500D02*
X120962500Y-117800000D01*
X120962500Y-119882500D02*
X120345000Y-120500000D01*
X119700000Y-122887500D02*
X119700000Y-121145000D01*
X119700000Y-121145000D02*
X120345000Y-120500000D01*
X119700000Y-121270000D02*
G75*
G02*
X120470000Y-120500000I770001J-1D01*
G01*
X120962500Y-120007500D02*
G75*
G02*
X120470000Y-120500000I-492500J0D01*
G01*
%TO.N,GPIO0*%
X121513576Y-109050000D02*
X119450000Y-109050000D01*
X118900000Y-109600000D02*
X118900000Y-112300000D01*
X119300000Y-112700000D02*
X120800000Y-112700000D01*
X122339317Y-108632849D02*
X122211083Y-108761083D01*
X118900000Y-109600000D02*
G75*
G02*
X119450000Y-109050000I549999J1D01*
G01*
X121513576Y-109050000D02*
G75*
G03*
X122211083Y-108761083I0J986423D01*
G01*
X119300000Y-112700000D02*
G75*
G02*
X118900000Y-112300000I-1J399999D01*
G01*
X122339317Y-108632849D02*
G75*
G03*
X122600011Y-108003478I-629370J629370D01*
G01*
%TO.N,Net-(D1-Pad2)*%
X118325000Y-101150000D02*
X118375000Y-101200000D01*
X118325000Y-100200000D02*
X118325000Y-101150000D01*
D57*
%TO.N,DC*%
X126700000Y-107600000D02*
X126700000Y-106600000D01*
X128000000Y-105950000D02*
X128000000Y-105745730D01*
X119815798Y-125928298D02*
X119700000Y-125812500D01*
X126850000Y-106450000D02*
X127500000Y-106450000D01*
X121251168Y-125928298D02*
X119815798Y-125928298D01*
X129210000Y-104350000D02*
X128450000Y-104350000D01*
D56*
X129100000Y-103105000D02*
X130050000Y-103105000D01*
D57*
X128445730Y-105300000D02*
X128700000Y-105300000D01*
X129210000Y-104790000D02*
X129210000Y-104350000D01*
X126850000Y-106450000D02*
G75*
G03*
X126700000Y-106600000I0J-150000D01*
G01*
X128000000Y-103900000D02*
G75*
G03*
X128450000Y-104350000I450000J0D01*
G01*
X128445730Y-105300000D02*
G75*
G03*
X128000000Y-105745730I-1J-445729D01*
G01*
X129210000Y-104790000D02*
G75*
G02*
X128700000Y-105300000I-510002J2D01*
G01*
X128000000Y-105950000D02*
G75*
G02*
X127500000Y-106450000I-500001J1D01*
G01*
D56*
%TO.N,CHARGER*%
X122200000Y-110800000D02*
X122200000Y-110401978D01*
X121200000Y-109850002D02*
X121648024Y-109850002D01*
X122200000Y-110401978D02*
G75*
G03*
X121648024Y-109850002I-551976J0D01*
G01*
%TO.N,USB*%
X121700000Y-110800000D02*
X121225320Y-110800000D01*
X121112119Y-110913201D02*
G75*
G02*
X121225320Y-110800000I113202J-1D01*
G01*
%TO.N,Net-(C2-Pad1)*%
X123700000Y-110800000D02*
X124414067Y-110800000D01*
X124564898Y-110844731D02*
X124624012Y-110903845D01*
X124025010Y-111565374D02*
X123700000Y-111240364D01*
X120471219Y-115039830D02*
X120590694Y-115159306D01*
X119051992Y-114751992D02*
X120351992Y-114751992D01*
X123700000Y-111240364D02*
X123700000Y-110800000D01*
X124029818Y-111570182D02*
X124025010Y-111570182D01*
X124029818Y-111570182D02*
X124159636Y-111700000D01*
X124159636Y-111700000D02*
X124600000Y-111700000D01*
X120550000Y-114150000D02*
X120658578Y-114041422D01*
X121166945Y-115397997D02*
X124082620Y-115397997D01*
X124025010Y-111570182D02*
X124025010Y-111565374D01*
X124502537Y-110844731D02*
X124564898Y-110844731D01*
X120351992Y-114751992D02*
X120351992Y-114628033D01*
X121166945Y-115397997D02*
G75*
G02*
X120590694Y-115159306I-1J814939D01*
G01*
X120471219Y-115039830D02*
G75*
G02*
X120351992Y-114751992I287834J287837D01*
G01*
X120800000Y-113700000D02*
G75*
G02*
X120658578Y-114041422I-482846J2D01*
G01*
X124284095Y-115314543D02*
G75*
G02*
X124082620Y-115397997I-201471J201465D01*
G01*
X124502537Y-110844731D02*
G75*
G03*
X124414067Y-110800000I-91448J-71013D01*
G01*
X120550000Y-114150000D02*
G75*
G03*
X120351992Y-114628033I478028J-478031D01*
G01*
%TO.N,Net-(D1-Pad3)*%
X118375000Y-103600000D02*
X117975000Y-103600000D01*
X118325000Y-99200000D02*
X118150000Y-99200000D01*
X117574999Y-99775001D02*
X117574999Y-103199999D01*
X117574999Y-99775001D02*
G75*
G02*
X118150000Y-99200000I575001J0D01*
G01*
X117574999Y-103199999D02*
G75*
G03*
X117975000Y-103600000I400002J1D01*
G01*
%TO.N,R*%
X120771558Y-101200000D02*
X120774998Y-101203440D01*
X120771558Y-101200000D02*
X120810632Y-101200000D01*
X120810632Y-101200000D02*
X120922814Y-101087818D01*
X120025000Y-101200000D02*
X120771558Y-101200000D01*
%TO.N,G*%
X120928024Y-103237244D02*
X120940798Y-103237244D01*
X120565268Y-103600000D02*
X120928024Y-103237244D01*
X120025000Y-103600000D02*
X120565268Y-103600000D01*
%TO.N,B*%
X120025000Y-102400000D02*
X120769552Y-102400000D01*
%TO.N,Net-(C4-Pad1)*%
X131600000Y-116800000D02*
X131600000Y-116100000D01*
X127703761Y-110146239D02*
X127573257Y-110015735D01*
X129385000Y-110350000D02*
X128195683Y-110350000D01*
X129385000Y-111350000D02*
X126322383Y-111350000D01*
X126980000Y-109770000D02*
X126413575Y-109770000D01*
X125700000Y-114716692D02*
X125700000Y-115225000D01*
X125577979Y-110605596D02*
G75*
G02*
X126413575Y-109770000I835595J1D01*
G01*
X126322383Y-111350000D02*
G75*
G02*
X125577979Y-110605596I0J744404D01*
G01*
X131300000Y-115800000D02*
G75*
G02*
X131600000Y-116100000I0J-300000D01*
G01*
X126980000Y-109770000D02*
G75*
G02*
X127573257Y-110015735I3J-838984D01*
G01*
X127703761Y-110146239D02*
G75*
G03*
X128195683Y-110350000I491924J491925D01*
G01*
X125700000Y-114716692D02*
G75*
G02*
X125818304Y-114598388I118302J2D01*
G01*
%TO.N,Net-(D1-Pad4)*%
X119100010Y-102074990D02*
X119100010Y-99499990D01*
X120075000Y-99200000D02*
X119400000Y-99200000D01*
X118375000Y-102400000D02*
X118775000Y-102400000D01*
X119100010Y-102074990D02*
G75*
G02*
X118775000Y-102400000I-325009J-1D01*
G01*
X119100010Y-99499990D02*
G75*
G02*
X119400000Y-99200000I299990J0D01*
G01*
%TO.N,Net-(C3-Pad1)*%
X132800000Y-116800000D02*
X132800000Y-116204998D01*
X129385000Y-110850000D02*
X127382202Y-110850000D01*
X126900000Y-114615192D02*
X126900000Y-115225000D01*
X129385000Y-111850000D02*
X127414735Y-111850000D01*
X126900000Y-114615192D02*
G75*
G03*
X126882276Y-114597468I-17723J1D01*
G01*
X132400000Y-115804998D02*
G75*
G02*
X132800000Y-116204998I1J-399999D01*
G01*
X127077230Y-110545028D02*
G75*
G03*
X127382202Y-110850000I304971J-1D01*
G01*
X127077238Y-112187497D02*
G75*
G02*
X127414735Y-111850000I337498J-1D01*
G01*
%TO.N,Net-(R14-Pad2)*%
X126275000Y-99600000D02*
X125225000Y-99600000D01*
X126275000Y-99600000D02*
X126654271Y-99979271D01*
X129110000Y-100400000D02*
X127670000Y-100400000D01*
X127670000Y-100400000D02*
G75*
G02*
X126654271Y-99979271I0J1436456D01*
G01*
%TD*%
%TA.AperFunction,Conductor*%
%TO.N,GND*%
G36*
X122538011Y-117685544D02*
G01*
X122556324Y-117705203D01*
X122556713Y-117705722D01*
X122569272Y-117718281D01*
X122620065Y-117756348D01*
X122662580Y-117813208D01*
X122670500Y-117857174D01*
X122670501Y-117955757D01*
X122670501Y-118025066D01*
X122682479Y-118085290D01*
X122685266Y-118099301D01*
X122681066Y-118100136D01*
X122686157Y-118147324D01*
X122685172Y-118150680D01*
X122685266Y-118150699D01*
X122670500Y-118224933D01*
X122670501Y-118675066D01*
X122685266Y-118749301D01*
X122692161Y-118759620D01*
X122692162Y-118759622D01*
X122713414Y-118791427D01*
X122741516Y-118833484D01*
X122793553Y-118868254D01*
X122814502Y-118882252D01*
X122860030Y-118936729D01*
X122870500Y-118987017D01*
X122870500Y-119213607D01*
X122850498Y-119281728D01*
X122796842Y-119328221D01*
X122774021Y-119336100D01*
X122755526Y-119340557D01*
X122614609Y-119374517D01*
X122614602Y-119374520D01*
X122608774Y-119375924D01*
X122603316Y-119378406D01*
X122603312Y-119378407D01*
X122520234Y-119416181D01*
X122416916Y-119463157D01*
X122245014Y-119585096D01*
X122099272Y-119737340D01*
X122082039Y-119764029D01*
X121988200Y-119909360D01*
X121988199Y-119909363D01*
X121984948Y-119914397D01*
X121906166Y-120109878D01*
X121905017Y-120115764D01*
X121872400Y-120282786D01*
X121865771Y-120316729D01*
X121865500Y-120322270D01*
X121865500Y-120627659D01*
X121880493Y-120784806D01*
X121939823Y-120987042D01*
X121942573Y-120992381D01*
X122025351Y-121153104D01*
X122036324Y-121174410D01*
X122040028Y-121179125D01*
X122162808Y-121335432D01*
X122162812Y-121335436D01*
X122166514Y-121340149D01*
X122171044Y-121344080D01*
X122171045Y-121344081D01*
X122321165Y-121474350D01*
X122321170Y-121474354D01*
X122325696Y-121478281D01*
X122508126Y-121583819D01*
X122513791Y-121585786D01*
X122516953Y-121587234D01*
X122570564Y-121633779D01*
X122590500Y-121701797D01*
X122590500Y-121944501D01*
X122570498Y-122012622D01*
X122516842Y-122059115D01*
X122464500Y-122070501D01*
X122297022Y-122070501D01*
X122293627Y-122070870D01*
X122293622Y-122070870D01*
X122243214Y-122076345D01*
X122243210Y-122076346D01*
X122235356Y-122077199D01*
X122100107Y-122127901D01*
X122092928Y-122133281D01*
X122092925Y-122133283D01*
X122020471Y-122187585D01*
X121984525Y-122214525D01*
X121979144Y-122221705D01*
X121903283Y-122322925D01*
X121903281Y-122322928D01*
X121897901Y-122330107D01*
X121847199Y-122465356D01*
X121846346Y-122473204D01*
X121846346Y-122473206D01*
X121843328Y-122500991D01*
X121840500Y-122527021D01*
X121840501Y-123247978D01*
X121840870Y-123251373D01*
X121840870Y-123251378D01*
X121844326Y-123283192D01*
X121847199Y-123309644D01*
X121897901Y-123444893D01*
X121903281Y-123452072D01*
X121903283Y-123452075D01*
X121984525Y-123560475D01*
X121983312Y-123561384D01*
X122012622Y-123615059D01*
X122015501Y-123641841D01*
X122015501Y-123747666D01*
X122022203Y-123809370D01*
X122024975Y-123816765D01*
X122024976Y-123816768D01*
X122053449Y-123892718D01*
X122072941Y-123944713D01*
X122159625Y-124060375D01*
X122275287Y-124147059D01*
X122410630Y-124197797D01*
X122472333Y-124204500D01*
X122969927Y-124204500D01*
X123467666Y-124204499D01*
X123471061Y-124204130D01*
X123471066Y-124204130D01*
X123496734Y-124201342D01*
X123529370Y-124197797D01*
X123536765Y-124195025D01*
X123536768Y-124195024D01*
X123656305Y-124150211D01*
X123664713Y-124147059D01*
X123780375Y-124060375D01*
X123867059Y-123944713D01*
X123917797Y-123809370D01*
X123924500Y-123747667D01*
X123924500Y-123641841D01*
X123944502Y-123573720D01*
X123954721Y-123561040D01*
X123955475Y-123560475D01*
X123959443Y-123555181D01*
X124036717Y-123452075D01*
X124036719Y-123452072D01*
X124042099Y-123444893D01*
X124075588Y-123355560D01*
X124090029Y-123317039D01*
X124090029Y-123317037D01*
X124092801Y-123309644D01*
X124094737Y-123291821D01*
X124121978Y-123226260D01*
X124180340Y-123185832D01*
X124251294Y-123183376D01*
X124312313Y-123219670D01*
X124344022Y-123283192D01*
X124345263Y-123291821D01*
X124347199Y-123309644D01*
X124397901Y-123444893D01*
X124403281Y-123452072D01*
X124403283Y-123452075D01*
X124484525Y-123560475D01*
X124483312Y-123561384D01*
X124512622Y-123615059D01*
X124515501Y-123641841D01*
X124515501Y-123747666D01*
X124522203Y-123809370D01*
X124524975Y-123816765D01*
X124524976Y-123816768D01*
X124553449Y-123892718D01*
X124572941Y-123944713D01*
X124659625Y-124060375D01*
X124775287Y-124147059D01*
X124910630Y-124197797D01*
X124972333Y-124204500D01*
X125469927Y-124204500D01*
X125967666Y-124204499D01*
X125971061Y-124204130D01*
X125971066Y-124204130D01*
X125996734Y-124201342D01*
X126029370Y-124197797D01*
X126036765Y-124195025D01*
X126036768Y-124195024D01*
X126156305Y-124150211D01*
X126164713Y-124147059D01*
X126280375Y-124060375D01*
X126367059Y-123944713D01*
X126417797Y-123809370D01*
X126424500Y-123747667D01*
X126424500Y-123641841D01*
X126444502Y-123573720D01*
X126454721Y-123561040D01*
X126455475Y-123560475D01*
X126459443Y-123555181D01*
X126536717Y-123452075D01*
X126536719Y-123452072D01*
X126542099Y-123444893D01*
X126575588Y-123355560D01*
X126590029Y-123317039D01*
X126590029Y-123317037D01*
X126592801Y-123309644D01*
X126594737Y-123291821D01*
X126621978Y-123226260D01*
X126680340Y-123185832D01*
X126751294Y-123183376D01*
X126812313Y-123219670D01*
X126844022Y-123283192D01*
X126845263Y-123291821D01*
X126847199Y-123309644D01*
X126897901Y-123444893D01*
X126903281Y-123452072D01*
X126903283Y-123452075D01*
X126984525Y-123560475D01*
X126983312Y-123561384D01*
X127012622Y-123615059D01*
X127015501Y-123641841D01*
X127015501Y-123747666D01*
X127022203Y-123809370D01*
X127024975Y-123816765D01*
X127024976Y-123816768D01*
X127053449Y-123892718D01*
X127072941Y-123944713D01*
X127159625Y-124060375D01*
X127275287Y-124147059D01*
X127410630Y-124197797D01*
X127472333Y-124204500D01*
X127969927Y-124204500D01*
X128467666Y-124204499D01*
X128471061Y-124204130D01*
X128471066Y-124204130D01*
X128496734Y-124201342D01*
X128529370Y-124197797D01*
X128536765Y-124195025D01*
X128536768Y-124195024D01*
X128656305Y-124150211D01*
X128664713Y-124147059D01*
X128780375Y-124060375D01*
X128867059Y-123944713D01*
X128917797Y-123809370D01*
X128924500Y-123747667D01*
X128924500Y-123641841D01*
X128944502Y-123573720D01*
X128954721Y-123561040D01*
X128955475Y-123560475D01*
X128959443Y-123555181D01*
X129036717Y-123452075D01*
X129036719Y-123452072D01*
X129042099Y-123444893D01*
X129075588Y-123355560D01*
X129090029Y-123317039D01*
X129090029Y-123317037D01*
X129092801Y-123309644D01*
X129094737Y-123291821D01*
X129121978Y-123226260D01*
X129180340Y-123185832D01*
X129251294Y-123183376D01*
X129312313Y-123219670D01*
X129344022Y-123283192D01*
X129345263Y-123291821D01*
X129347199Y-123309644D01*
X129397901Y-123444893D01*
X129403281Y-123452072D01*
X129403283Y-123452075D01*
X129484525Y-123560475D01*
X129483312Y-123561384D01*
X129512622Y-123615059D01*
X129515501Y-123641841D01*
X129515501Y-123747666D01*
X129522203Y-123809370D01*
X129524975Y-123816765D01*
X129524976Y-123816768D01*
X129553449Y-123892718D01*
X129572941Y-123944713D01*
X129659625Y-124060375D01*
X129775287Y-124147059D01*
X129910630Y-124197797D01*
X129972333Y-124204500D01*
X130469927Y-124204500D01*
X130967666Y-124204499D01*
X130971061Y-124204130D01*
X130971066Y-124204130D01*
X130996734Y-124201342D01*
X131029370Y-124197797D01*
X131036765Y-124195025D01*
X131036768Y-124195024D01*
X131156305Y-124150211D01*
X131164713Y-124147059D01*
X131280375Y-124060375D01*
X131367059Y-123944713D01*
X131417797Y-123809370D01*
X131424500Y-123747667D01*
X131424500Y-123641841D01*
X131444502Y-123573720D01*
X131454721Y-123561040D01*
X131455475Y-123560475D01*
X131459443Y-123555181D01*
X131536717Y-123452075D01*
X131536719Y-123452072D01*
X131542099Y-123444893D01*
X131575588Y-123355560D01*
X131590029Y-123317039D01*
X131590029Y-123317037D01*
X131592801Y-123309644D01*
X131599500Y-123247979D01*
X131599499Y-122527022D01*
X131596179Y-122496455D01*
X131593655Y-122473214D01*
X131593654Y-122473210D01*
X131592801Y-122465356D01*
X131542099Y-122330107D01*
X131536719Y-122322928D01*
X131536717Y-122322925D01*
X131460856Y-122221705D01*
X131455475Y-122214525D01*
X131419529Y-122187585D01*
X131347075Y-122133283D01*
X131347072Y-122133281D01*
X131339893Y-122127901D01*
X131250560Y-122094412D01*
X131212039Y-122079971D01*
X131212037Y-122079971D01*
X131204644Y-122077199D01*
X131196796Y-122076346D01*
X131196794Y-122076346D01*
X131146376Y-122070869D01*
X131146375Y-122070869D01*
X131142979Y-122070500D01*
X130975500Y-122070500D01*
X130907379Y-122050498D01*
X130860886Y-121996842D01*
X130849500Y-121944500D01*
X130849500Y-121696891D01*
X130869502Y-121628770D01*
X130923349Y-121582190D01*
X130961415Y-121564882D01*
X131023084Y-121536843D01*
X131194986Y-121414904D01*
X131305107Y-121299870D01*
X131336583Y-121266990D01*
X131340728Y-121262660D01*
X131383552Y-121196336D01*
X131437308Y-121149958D01*
X131507604Y-121140005D01*
X131572121Y-121169637D01*
X131610377Y-121229445D01*
X131614732Y-121251681D01*
X131622257Y-121324206D01*
X131625149Y-121337600D01*
X131676588Y-121491784D01*
X131682761Y-121504962D01*
X131768063Y-121642807D01*
X131777099Y-121654208D01*
X131891829Y-121768739D01*
X131903240Y-121777751D01*
X132041243Y-121862816D01*
X132054424Y-121868963D01*
X132208710Y-121920138D01*
X132222086Y-121923005D01*
X132316438Y-121932672D01*
X132322854Y-121933000D01*
X132697885Y-121933000D01*
X132713124Y-121928525D01*
X132714329Y-121927135D01*
X132716000Y-121919452D01*
X132716000Y-121914884D01*
X133224000Y-121914884D01*
X133228475Y-121930123D01*
X133229865Y-121931328D01*
X133237548Y-121932999D01*
X133617095Y-121932999D01*
X133623614Y-121932662D01*
X133719206Y-121922743D01*
X133732600Y-121919851D01*
X133886784Y-121868412D01*
X133899962Y-121862239D01*
X134037807Y-121776937D01*
X134049208Y-121767901D01*
X134154550Y-121662376D01*
X134216833Y-121628297D01*
X134256566Y-121626050D01*
X134321200Y-121632672D01*
X134327614Y-121633000D01*
X134727885Y-121633000D01*
X134743124Y-121628525D01*
X134744329Y-121627135D01*
X134746000Y-121619452D01*
X134746000Y-120834615D01*
X134741525Y-120819376D01*
X134740135Y-120818171D01*
X134732452Y-120816500D01*
X133684355Y-120816500D01*
X133616234Y-120796498D01*
X133601691Y-120779714D01*
X133600486Y-120781104D01*
X133571135Y-120755671D01*
X133563452Y-120754000D01*
X133242115Y-120754000D01*
X133226876Y-120758475D01*
X133225671Y-120759865D01*
X133224000Y-120767548D01*
X133224000Y-121914884D01*
X132716000Y-121914884D01*
X132716000Y-119742001D01*
X132736002Y-119673880D01*
X132789658Y-119627387D01*
X132842000Y-119616001D01*
X133098000Y-119616001D01*
X133166121Y-119636003D01*
X133212614Y-119689659D01*
X133224000Y-119742001D01*
X133224000Y-120227885D01*
X133228475Y-120243124D01*
X133229865Y-120244329D01*
X133237548Y-120246000D01*
X134260645Y-120246000D01*
X134328766Y-120266002D01*
X134343309Y-120282786D01*
X134344514Y-120281396D01*
X134373865Y-120306829D01*
X134381548Y-120308500D01*
X134727885Y-120308500D01*
X134743124Y-120304025D01*
X134744329Y-120302635D01*
X134746000Y-120294952D01*
X134746000Y-119578000D01*
X134766002Y-119509879D01*
X134819658Y-119463386D01*
X134872000Y-119452000D01*
X135128000Y-119452000D01*
X135196121Y-119472002D01*
X135242614Y-119525658D01*
X135254000Y-119578000D01*
X135254000Y-121614884D01*
X135258475Y-121630123D01*
X135259865Y-121631328D01*
X135267548Y-121632999D01*
X135672335Y-121632999D01*
X135678855Y-121632661D01*
X135774401Y-121622749D01*
X135793407Y-121618645D01*
X135864214Y-121623819D01*
X135920984Y-121666454D01*
X135945693Y-121733012D01*
X135946000Y-121741807D01*
X135946000Y-126562575D01*
X135943579Y-126587153D01*
X135941024Y-126600000D01*
X135943445Y-126612172D01*
X135943445Y-126619754D01*
X135942838Y-126632104D01*
X135932882Y-126733188D01*
X135928065Y-126757408D01*
X135892813Y-126873617D01*
X135883369Y-126896418D01*
X135826124Y-127003517D01*
X135812406Y-127024047D01*
X135735374Y-127117909D01*
X135717909Y-127135374D01*
X135624047Y-127212406D01*
X135603517Y-127226124D01*
X135496418Y-127283369D01*
X135473617Y-127292813D01*
X135357408Y-127328065D01*
X135333188Y-127332882D01*
X135232104Y-127342838D01*
X135219754Y-127343445D01*
X135212172Y-127343445D01*
X135200000Y-127341024D01*
X135187153Y-127343579D01*
X135162575Y-127346000D01*
X135135768Y-127346000D01*
X135067647Y-127325998D01*
X135021154Y-127272342D01*
X135011050Y-127202068D01*
X135040544Y-127137488D01*
X135081087Y-127109287D01*
X135080182Y-127107634D01*
X135103649Y-127094786D01*
X135205724Y-127018285D01*
X135218285Y-127005724D01*
X135294786Y-126903649D01*
X135303324Y-126888054D01*
X135348478Y-126767606D01*
X135352105Y-126752351D01*
X135357631Y-126701486D01*
X135358000Y-126694672D01*
X135358000Y-126072115D01*
X135353525Y-126056876D01*
X135352135Y-126055671D01*
X135344452Y-126054000D01*
X132660116Y-126054000D01*
X132644877Y-126058475D01*
X132643672Y-126059865D01*
X132642001Y-126067548D01*
X132642001Y-126694669D01*
X132642371Y-126701490D01*
X132647895Y-126752352D01*
X132651521Y-126767604D01*
X132696676Y-126888054D01*
X132705214Y-126903649D01*
X132781715Y-127005724D01*
X132794276Y-127018285D01*
X132896351Y-127094786D01*
X132919818Y-127107634D01*
X132918687Y-127109700D01*
X132965227Y-127144661D01*
X132989926Y-127211223D01*
X132974718Y-127280571D01*
X132924431Y-127330689D01*
X132864232Y-127346000D01*
X123203608Y-127346000D01*
X123135487Y-127325998D01*
X123088994Y-127272342D01*
X123078890Y-127202068D01*
X123106209Y-127140066D01*
X123147340Y-127089948D01*
X123151267Y-127085163D01*
X123187014Y-127018285D01*
X123220732Y-126955203D01*
X123220733Y-126955200D01*
X123223649Y-126949745D01*
X123268222Y-126802808D01*
X123274098Y-126743149D01*
X123300681Y-126677316D01*
X123358635Y-126636307D01*
X123399491Y-126629499D01*
X123642978Y-126629499D01*
X123646373Y-126629130D01*
X123646378Y-126629130D01*
X123696786Y-126623655D01*
X123696790Y-126623654D01*
X123704644Y-126622801D01*
X123839893Y-126572099D01*
X123847072Y-126566719D01*
X123847075Y-126566717D01*
X123948295Y-126490856D01*
X123955475Y-126485475D01*
X124042099Y-126369893D01*
X124044541Y-126371723D01*
X124084018Y-126332340D01*
X124144271Y-126317000D01*
X124295729Y-126317000D01*
X124363850Y-126337002D01*
X124395904Y-126371390D01*
X124397901Y-126369893D01*
X124484525Y-126485475D01*
X124491705Y-126490856D01*
X124592925Y-126566717D01*
X124592928Y-126566719D01*
X124600107Y-126572099D01*
X124666110Y-126596842D01*
X124727961Y-126620029D01*
X124727963Y-126620029D01*
X124735356Y-126622801D01*
X124743204Y-126623654D01*
X124743206Y-126623654D01*
X124793615Y-126629130D01*
X124797021Y-126629500D01*
X125469901Y-126629500D01*
X126142978Y-126629499D01*
X126146373Y-126629130D01*
X126146378Y-126629130D01*
X126196786Y-126623655D01*
X126196790Y-126623654D01*
X126204644Y-126622801D01*
X126339893Y-126572099D01*
X126347072Y-126566719D01*
X126347075Y-126566717D01*
X126448295Y-126490856D01*
X126455475Y-126485475D01*
X126542099Y-126369893D01*
X126544541Y-126371723D01*
X126584018Y-126332340D01*
X126644271Y-126317000D01*
X126795729Y-126317000D01*
X126863850Y-126337002D01*
X126895904Y-126371390D01*
X126897901Y-126369893D01*
X126984525Y-126485475D01*
X126991705Y-126490856D01*
X127092925Y-126566717D01*
X127092928Y-126566719D01*
X127100107Y-126572099D01*
X127166110Y-126596842D01*
X127227961Y-126620029D01*
X127227963Y-126620029D01*
X127235356Y-126622801D01*
X127243204Y-126623654D01*
X127243206Y-126623654D01*
X127293615Y-126629130D01*
X127297021Y-126629500D01*
X127969901Y-126629500D01*
X128642978Y-126629499D01*
X128646373Y-126629130D01*
X128646378Y-126629130D01*
X128696786Y-126623655D01*
X128696790Y-126623654D01*
X128704644Y-126622801D01*
X128839893Y-126572099D01*
X128847072Y-126566719D01*
X128847075Y-126566717D01*
X128948295Y-126490856D01*
X128955475Y-126485475D01*
X129042099Y-126369893D01*
X129044541Y-126371723D01*
X129084018Y-126332340D01*
X129144271Y-126317000D01*
X129295729Y-126317000D01*
X129363850Y-126337002D01*
X129395904Y-126371390D01*
X129397901Y-126369893D01*
X129484525Y-126485475D01*
X129491705Y-126490856D01*
X129592925Y-126566717D01*
X129592928Y-126566719D01*
X129600107Y-126572099D01*
X129666110Y-126596842D01*
X129727961Y-126620029D01*
X129727963Y-126620029D01*
X129735356Y-126622801D01*
X129743204Y-126623654D01*
X129743206Y-126623654D01*
X129793615Y-126629130D01*
X129797021Y-126629500D01*
X130469901Y-126629500D01*
X131142978Y-126629499D01*
X131146373Y-126629130D01*
X131146378Y-126629130D01*
X131196786Y-126623655D01*
X131196790Y-126623654D01*
X131204644Y-126622801D01*
X131339893Y-126572099D01*
X131347072Y-126566719D01*
X131347075Y-126566717D01*
X131448295Y-126490856D01*
X131455475Y-126485475D01*
X131528641Y-126387850D01*
X131536717Y-126377075D01*
X131536719Y-126377072D01*
X131542099Y-126369893D01*
X131592801Y-126234644D01*
X131599500Y-126172979D01*
X131599499Y-125527885D01*
X132642000Y-125527885D01*
X132646475Y-125543124D01*
X132647865Y-125544329D01*
X132655548Y-125546000D01*
X135339884Y-125546000D01*
X135355123Y-125541525D01*
X135356328Y-125540135D01*
X135357999Y-125532452D01*
X135357999Y-124905331D01*
X135357629Y-124898510D01*
X135352105Y-124847648D01*
X135348479Y-124832396D01*
X135303324Y-124711946D01*
X135294786Y-124696351D01*
X135218285Y-124594276D01*
X135205724Y-124581715D01*
X135103649Y-124505214D01*
X135088054Y-124496676D01*
X134967606Y-124451522D01*
X134952351Y-124447895D01*
X134901486Y-124442369D01*
X134894672Y-124442000D01*
X134632846Y-124442000D01*
X134564725Y-124421998D01*
X134518232Y-124368342D01*
X134508128Y-124298068D01*
X134537622Y-124233488D01*
X134571275Y-124206069D01*
X134628276Y-124174147D01*
X134690934Y-124122035D01*
X134779913Y-124048031D01*
X134784345Y-124044345D01*
X134867209Y-123944713D01*
X134910453Y-123892718D01*
X134910455Y-123892715D01*
X134914147Y-123888276D01*
X134990988Y-123751066D01*
X135010510Y-123716208D01*
X135010511Y-123716206D01*
X135013334Y-123711165D01*
X135015190Y-123705698D01*
X135015192Y-123705693D01*
X135076728Y-123524414D01*
X135076729Y-123524409D01*
X135078584Y-123518945D01*
X135079412Y-123513236D01*
X135079413Y-123513231D01*
X135107179Y-123321727D01*
X135107712Y-123318053D01*
X135109232Y-123260000D01*
X135090658Y-123057859D01*
X135089090Y-123052299D01*
X135037125Y-122868046D01*
X135037124Y-122868044D01*
X135035557Y-122862487D01*
X135024978Y-122841033D01*
X134948331Y-122685609D01*
X134945776Y-122680428D01*
X134824320Y-122517779D01*
X134675258Y-122379987D01*
X134670375Y-122376906D01*
X134670371Y-122376903D01*
X134508464Y-122274748D01*
X134503581Y-122271667D01*
X134315039Y-122196446D01*
X134309379Y-122195320D01*
X134309375Y-122195319D01*
X134121613Y-122157971D01*
X134121610Y-122157971D01*
X134115946Y-122156844D01*
X134110171Y-122156768D01*
X134110167Y-122156768D01*
X134008793Y-122155441D01*
X133912971Y-122154187D01*
X133907274Y-122155166D01*
X133907273Y-122155166D01*
X133718607Y-122187585D01*
X133712910Y-122188564D01*
X133522463Y-122258824D01*
X133348010Y-122362612D01*
X133343670Y-122366418D01*
X133343666Y-122366421D01*
X133239286Y-122457961D01*
X133195392Y-122496455D01*
X133069720Y-122655869D01*
X133067031Y-122660980D01*
X133067029Y-122660983D01*
X133054073Y-122685609D01*
X132975203Y-122835515D01*
X132915007Y-123029378D01*
X132891148Y-123230964D01*
X132904424Y-123433522D01*
X132905845Y-123439118D01*
X132905846Y-123439123D01*
X132926119Y-123518945D01*
X132954392Y-123630269D01*
X132956809Y-123635512D01*
X132994010Y-123716208D01*
X133039377Y-123814616D01*
X133156533Y-123980389D01*
X133301938Y-124122035D01*
X133306742Y-124125245D01*
X133435436Y-124211236D01*
X133480964Y-124265713D01*
X133489812Y-124336156D01*
X133459170Y-124400200D01*
X133398768Y-124437512D01*
X133365434Y-124442001D01*
X133105331Y-124442001D01*
X133098510Y-124442371D01*
X133047648Y-124447895D01*
X133032396Y-124451521D01*
X132911946Y-124496676D01*
X132896351Y-124505214D01*
X132794276Y-124581715D01*
X132781715Y-124594276D01*
X132705214Y-124696351D01*
X132696676Y-124711946D01*
X132651522Y-124832394D01*
X132647895Y-124847649D01*
X132642369Y-124898514D01*
X132642000Y-124905328D01*
X132642000Y-125527885D01*
X131599499Y-125527885D01*
X131599499Y-125452022D01*
X131596961Y-125428655D01*
X131593655Y-125398214D01*
X131593654Y-125398210D01*
X131592801Y-125390356D01*
X131542099Y-125255107D01*
X131536719Y-125247928D01*
X131536717Y-125247925D01*
X131455475Y-125139525D01*
X131456688Y-125138616D01*
X131427378Y-125084941D01*
X131424499Y-125058158D01*
X131424499Y-124952334D01*
X131417797Y-124890630D01*
X131415024Y-124883231D01*
X131370211Y-124763695D01*
X131367059Y-124755287D01*
X131280375Y-124639625D01*
X131164713Y-124552941D01*
X131029370Y-124502203D01*
X130967667Y-124495500D01*
X130470073Y-124495500D01*
X129972334Y-124495501D01*
X129968939Y-124495870D01*
X129968934Y-124495870D01*
X129943266Y-124498658D01*
X129910630Y-124502203D01*
X129903235Y-124504975D01*
X129903232Y-124504976D01*
X129791936Y-124546699D01*
X129775287Y-124552941D01*
X129659625Y-124639625D01*
X129572941Y-124755287D01*
X129522203Y-124890630D01*
X129515500Y-124952333D01*
X129515500Y-125058159D01*
X129495498Y-125126280D01*
X129485279Y-125138960D01*
X129484525Y-125139525D01*
X129397901Y-125255107D01*
X129395459Y-125253277D01*
X129355982Y-125292660D01*
X129295729Y-125308000D01*
X129144271Y-125308000D01*
X129076150Y-125287998D01*
X129044096Y-125253610D01*
X129042099Y-125255107D01*
X128955475Y-125139525D01*
X128956688Y-125138616D01*
X128927378Y-125084941D01*
X128924499Y-125058158D01*
X128924499Y-124952334D01*
X128917797Y-124890630D01*
X128915024Y-124883231D01*
X128870211Y-124763695D01*
X128867059Y-124755287D01*
X128780375Y-124639625D01*
X128664713Y-124552941D01*
X128529370Y-124502203D01*
X128467667Y-124495500D01*
X127970073Y-124495500D01*
X127472334Y-124495501D01*
X127468939Y-124495870D01*
X127468934Y-124495870D01*
X127443266Y-124498658D01*
X127410630Y-124502203D01*
X127403235Y-124504975D01*
X127403232Y-124504976D01*
X127291936Y-124546699D01*
X127275287Y-124552941D01*
X127159625Y-124639625D01*
X127072941Y-124755287D01*
X127022203Y-124890630D01*
X127015500Y-124952333D01*
X127015500Y-125058159D01*
X126995498Y-125126280D01*
X126985279Y-125138960D01*
X126984525Y-125139525D01*
X126897901Y-125255107D01*
X126895459Y-125253277D01*
X126855982Y-125292660D01*
X126795729Y-125308000D01*
X126644271Y-125308000D01*
X126576150Y-125287998D01*
X126544096Y-125253610D01*
X126542099Y-125255107D01*
X126455475Y-125139525D01*
X126456688Y-125138616D01*
X126427378Y-125084941D01*
X126424499Y-125058158D01*
X126424499Y-124952334D01*
X126417797Y-124890630D01*
X126415024Y-124883231D01*
X126370211Y-124763695D01*
X126367059Y-124755287D01*
X126280375Y-124639625D01*
X126164713Y-124552941D01*
X126029370Y-124502203D01*
X125967667Y-124495500D01*
X125470073Y-124495500D01*
X124972334Y-124495501D01*
X124968939Y-124495870D01*
X124968934Y-124495870D01*
X124943266Y-124498658D01*
X124910630Y-124502203D01*
X124903235Y-124504975D01*
X124903232Y-124504976D01*
X124791936Y-124546699D01*
X124775287Y-124552941D01*
X124659625Y-124639625D01*
X124572941Y-124755287D01*
X124522203Y-124890630D01*
X124515500Y-124952333D01*
X124515500Y-125058159D01*
X124495498Y-125126280D01*
X124485279Y-125138960D01*
X124484525Y-125139525D01*
X124397901Y-125255107D01*
X124395459Y-125253277D01*
X124355982Y-125292660D01*
X124295729Y-125308000D01*
X124144271Y-125308000D01*
X124076150Y-125287998D01*
X124044096Y-125253610D01*
X124042099Y-125255107D01*
X123955475Y-125139525D01*
X123956688Y-125138616D01*
X123927378Y-125084941D01*
X123924499Y-125058158D01*
X123924499Y-124952334D01*
X123917797Y-124890630D01*
X123915024Y-124883231D01*
X123870211Y-124763695D01*
X123867059Y-124755287D01*
X123780375Y-124639625D01*
X123664713Y-124552941D01*
X123529370Y-124502203D01*
X123467667Y-124495500D01*
X122970073Y-124495500D01*
X122472334Y-124495501D01*
X122468939Y-124495870D01*
X122468934Y-124495870D01*
X122443266Y-124498658D01*
X122410630Y-124502203D01*
X122403235Y-124504975D01*
X122403232Y-124504976D01*
X122291936Y-124546699D01*
X122275287Y-124552941D01*
X122159625Y-124639625D01*
X122072941Y-124755287D01*
X122022203Y-124890630D01*
X122015500Y-124952333D01*
X122015500Y-125058159D01*
X121995498Y-125126280D01*
X121985279Y-125138960D01*
X121984525Y-125139525D01*
X121980562Y-125144813D01*
X121980557Y-125144819D01*
X121903283Y-125247925D01*
X121903281Y-125247928D01*
X121897901Y-125255107D01*
X121876280Y-125312782D01*
X121857680Y-125362397D01*
X121815039Y-125419162D01*
X121748477Y-125443862D01*
X121679128Y-125428655D01*
X121655881Y-125412246D01*
X121627443Y-125386909D01*
X121620057Y-125382998D01*
X121494156Y-125316337D01*
X121494157Y-125316337D01*
X121487442Y-125312782D01*
X121333801Y-125274190D01*
X121326202Y-125274150D01*
X121326201Y-125274150D01*
X121260349Y-125273805D01*
X121175389Y-125273360D01*
X121168009Y-125275132D01*
X121168007Y-125275132D01*
X121028731Y-125308569D01*
X121028728Y-125308570D01*
X121021352Y-125310341D01*
X121014608Y-125313822D01*
X121014605Y-125313823D01*
X120955858Y-125344145D01*
X120886150Y-125357615D01*
X120820227Y-125331260D01*
X120780085Y-125276411D01*
X120772099Y-125255107D01*
X120766719Y-125247928D01*
X120766717Y-125247925D01*
X120685475Y-125139525D01*
X120686688Y-125138616D01*
X120657378Y-125084941D01*
X120654499Y-125058158D01*
X120654499Y-124952334D01*
X120647797Y-124890630D01*
X120645024Y-124883231D01*
X120600211Y-124763695D01*
X120597059Y-124755287D01*
X120525174Y-124659371D01*
X120500326Y-124592865D01*
X120500000Y-124583806D01*
X120500000Y-124116194D01*
X120520002Y-124048073D01*
X120525174Y-124040629D01*
X120570321Y-123980389D01*
X120597059Y-123944713D01*
X120647797Y-123809370D01*
X120654500Y-123747667D01*
X120654500Y-123641841D01*
X120674502Y-123573720D01*
X120684721Y-123561040D01*
X120685475Y-123560475D01*
X120689443Y-123555181D01*
X120766717Y-123452075D01*
X120766719Y-123452072D01*
X120772099Y-123444893D01*
X120805588Y-123355560D01*
X120820029Y-123317039D01*
X120820029Y-123317037D01*
X120822801Y-123309644D01*
X120829500Y-123247979D01*
X120829499Y-122527022D01*
X120826179Y-122496455D01*
X120823655Y-122473214D01*
X120823654Y-122473210D01*
X120822801Y-122465356D01*
X120772099Y-122330107D01*
X120766719Y-122322928D01*
X120766717Y-122322925D01*
X120690856Y-122221705D01*
X120685475Y-122214525D01*
X120649529Y-122187585D01*
X120577075Y-122133283D01*
X120577072Y-122133281D01*
X120569893Y-122127901D01*
X120480560Y-122094412D01*
X120442039Y-122079971D01*
X120442037Y-122079971D01*
X120434644Y-122077199D01*
X120426796Y-122076346D01*
X120426794Y-122076346D01*
X120376376Y-122070869D01*
X120376375Y-122070869D01*
X120372979Y-122070500D01*
X120205500Y-122070500D01*
X120137379Y-122050498D01*
X120090886Y-121996842D01*
X120079500Y-121944500D01*
X120079500Y-121780025D01*
X120099502Y-121711904D01*
X120153158Y-121665411D01*
X120223580Y-121655329D01*
X120409860Y-121682338D01*
X120409863Y-121682338D01*
X120415800Y-121683199D01*
X120626333Y-121673455D01*
X120632157Y-121672051D01*
X120632160Y-121672051D01*
X120825393Y-121625482D01*
X120825395Y-121625481D01*
X120831226Y-121624076D01*
X120836684Y-121621594D01*
X120836688Y-121621593D01*
X120951294Y-121569484D01*
X121023084Y-121536843D01*
X121194986Y-121414904D01*
X121305107Y-121299870D01*
X121336583Y-121266990D01*
X121340728Y-121262660D01*
X121400792Y-121169637D01*
X121451800Y-121090640D01*
X121451801Y-121090637D01*
X121455052Y-121085603D01*
X121533834Y-120890122D01*
X121574229Y-120683271D01*
X121574500Y-120677730D01*
X121574500Y-120372341D01*
X121559507Y-120215194D01*
X121500177Y-120012958D01*
X121446821Y-119909361D01*
X121406422Y-119830921D01*
X121406420Y-119830918D01*
X121403676Y-119825590D01*
X121368914Y-119781336D01*
X121342564Y-119715410D01*
X121342000Y-119703503D01*
X121342000Y-119055500D01*
X121362002Y-118987379D01*
X121415658Y-118940886D01*
X121468000Y-118929500D01*
X121858955Y-118929499D01*
X121872978Y-118929499D01*
X121876373Y-118929130D01*
X121876378Y-118929130D01*
X121926786Y-118923655D01*
X121926790Y-118923654D01*
X121934644Y-118922801D01*
X122069893Y-118872099D01*
X122077072Y-118866719D01*
X122077075Y-118866717D01*
X122178295Y-118790856D01*
X122185475Y-118785475D01*
X122238833Y-118714280D01*
X122266717Y-118677075D01*
X122266719Y-118677072D01*
X122272099Y-118669893D01*
X122322801Y-118534644D01*
X122323958Y-118524000D01*
X122329131Y-118476376D01*
X122329131Y-118476375D01*
X122329500Y-118472979D01*
X122329499Y-117780767D01*
X122349501Y-117712648D01*
X122403157Y-117666155D01*
X122473430Y-117656051D01*
X122538011Y-117685544D01*
G37*
%TD.AperFunction*%
%TA.AperFunction,Conductor*%
G36*
X128525417Y-118199502D02*
G01*
X128552239Y-118230456D01*
X128572865Y-118248329D01*
X128580548Y-118250000D01*
X129014900Y-118250000D01*
X129039481Y-118252421D01*
X129049933Y-118254500D01*
X129065280Y-118254500D01*
X129474001Y-118254499D01*
X129542120Y-118274501D01*
X129588614Y-118328156D01*
X129600000Y-118380499D01*
X129600000Y-119139884D01*
X129604475Y-119155123D01*
X129605865Y-119156328D01*
X129613548Y-119157999D01*
X129769669Y-119157999D01*
X129776490Y-119157629D01*
X129827352Y-119152105D01*
X129842603Y-119148479D01*
X129920270Y-119119363D01*
X129991077Y-119114180D01*
X130053446Y-119148101D01*
X130087576Y-119210356D01*
X130090500Y-119237345D01*
X130090500Y-119303109D01*
X130070498Y-119371230D01*
X130016651Y-119417810D01*
X129916916Y-119463157D01*
X129745014Y-119585096D01*
X129599272Y-119737340D01*
X129582039Y-119764029D01*
X129488200Y-119909360D01*
X129488199Y-119909363D01*
X129484948Y-119914397D01*
X129406166Y-120109878D01*
X129405017Y-120115764D01*
X129372400Y-120282786D01*
X129365771Y-120316729D01*
X129365500Y-120322270D01*
X129365500Y-120627659D01*
X129380493Y-120784806D01*
X129439823Y-120987042D01*
X129442573Y-120992381D01*
X129525351Y-121153104D01*
X129536324Y-121174410D01*
X129540028Y-121179125D01*
X129662808Y-121335432D01*
X129662812Y-121335436D01*
X129666514Y-121340149D01*
X129671044Y-121344080D01*
X129671045Y-121344081D01*
X129821165Y-121474350D01*
X129821170Y-121474354D01*
X129825696Y-121478281D01*
X130008126Y-121583819D01*
X130013791Y-121585786D01*
X130016953Y-121587234D01*
X130070564Y-121633779D01*
X130090500Y-121701797D01*
X130090500Y-121944501D01*
X130070498Y-122012622D01*
X130016842Y-122059115D01*
X129964500Y-122070501D01*
X129797022Y-122070501D01*
X129793627Y-122070870D01*
X129793622Y-122070870D01*
X129743214Y-122076345D01*
X129743210Y-122076346D01*
X129735356Y-122077199D01*
X129600107Y-122127901D01*
X129592928Y-122133281D01*
X129592925Y-122133283D01*
X129520471Y-122187585D01*
X129484525Y-122214525D01*
X129479144Y-122221705D01*
X129403283Y-122322925D01*
X129403281Y-122322928D01*
X129397901Y-122330107D01*
X129347199Y-122465356D01*
X129346346Y-122473206D01*
X129346346Y-122473207D01*
X129345263Y-122483178D01*
X129318022Y-122548740D01*
X129259660Y-122589168D01*
X129188706Y-122591624D01*
X129127687Y-122555330D01*
X129095978Y-122491808D01*
X129094737Y-122483179D01*
X129093655Y-122473214D01*
X129093654Y-122473210D01*
X129092801Y-122465356D01*
X129042099Y-122330107D01*
X129036719Y-122322928D01*
X129036717Y-122322925D01*
X128960856Y-122221705D01*
X128955475Y-122214525D01*
X128919529Y-122187585D01*
X128847075Y-122133283D01*
X128847072Y-122133281D01*
X128839893Y-122127901D01*
X128750560Y-122094412D01*
X128712039Y-122079971D01*
X128712037Y-122079971D01*
X128704644Y-122077199D01*
X128696796Y-122076346D01*
X128696794Y-122076346D01*
X128646376Y-122070869D01*
X128646375Y-122070869D01*
X128642979Y-122070500D01*
X128475500Y-122070500D01*
X128407379Y-122050498D01*
X128360886Y-121996842D01*
X128349500Y-121944500D01*
X128349500Y-121696891D01*
X128369502Y-121628770D01*
X128423349Y-121582190D01*
X128461415Y-121564882D01*
X128523084Y-121536843D01*
X128694986Y-121414904D01*
X128805107Y-121299870D01*
X128836583Y-121266990D01*
X128840728Y-121262660D01*
X128900792Y-121169637D01*
X128951800Y-121090640D01*
X128951801Y-121090637D01*
X128955052Y-121085603D01*
X129033834Y-120890122D01*
X129074229Y-120683271D01*
X129074500Y-120677730D01*
X129074500Y-120372341D01*
X129059507Y-120215194D01*
X129000177Y-120012958D01*
X128946821Y-119909361D01*
X128906422Y-119830921D01*
X128906420Y-119830918D01*
X128903676Y-119825590D01*
X128834355Y-119737340D01*
X128777192Y-119664568D01*
X128777188Y-119664564D01*
X128773486Y-119659851D01*
X128768955Y-119655919D01*
X128618835Y-119525650D01*
X128618830Y-119525646D01*
X128614304Y-119521719D01*
X128431874Y-119416181D01*
X128426209Y-119414214D01*
X128423047Y-119412766D01*
X128369436Y-119366221D01*
X128349500Y-119298203D01*
X128349500Y-118959787D01*
X128351051Y-118940076D01*
X128352680Y-118929791D01*
X128354231Y-118919999D01*
X128352680Y-118910206D01*
X128352680Y-118909482D01*
X128352225Y-118905933D01*
X128348103Y-118864080D01*
X128361332Y-118794326D01*
X128385298Y-118769041D01*
X128358489Y-118756797D01*
X128349935Y-118743616D01*
X128530932Y-118743616D01*
X128546278Y-118748877D01*
X128591478Y-118807501D01*
X128621675Y-118888052D01*
X128630214Y-118903649D01*
X128706715Y-119005724D01*
X128719276Y-119018285D01*
X128821351Y-119094786D01*
X128836946Y-119103324D01*
X128957394Y-119148478D01*
X128972649Y-119152105D01*
X129023514Y-119157631D01*
X129030328Y-119158000D01*
X129181885Y-119158000D01*
X129197124Y-119153525D01*
X129198329Y-119152135D01*
X129200000Y-119144452D01*
X129200000Y-118668115D01*
X129195525Y-118652876D01*
X129194135Y-118651671D01*
X129186452Y-118650000D01*
X128585116Y-118650000D01*
X128569877Y-118654475D01*
X128568672Y-118655865D01*
X128564122Y-118676783D01*
X128562630Y-118676458D01*
X128546999Y-118729694D01*
X128530932Y-118743616D01*
X128349935Y-118743616D01*
X128320427Y-118698150D01*
X128320096Y-118697059D01*
X128288632Y-118593337D01*
X128283641Y-118583998D01*
X128212670Y-118451223D01*
X128209750Y-118445760D01*
X128160241Y-118385433D01*
X128132487Y-118320086D01*
X128144469Y-118250108D01*
X128192382Y-118197716D01*
X128257640Y-118179500D01*
X128457296Y-118179500D01*
X128525417Y-118199502D01*
G37*
%TD.AperFunction*%
%TA.AperFunction,Conductor*%
G36*
X124188725Y-118179970D02*
G01*
X124197905Y-118180765D01*
X124218938Y-118182587D01*
X124285079Y-118208394D01*
X124297127Y-118226027D01*
X124322865Y-118248329D01*
X124330548Y-118250000D01*
X124764900Y-118250000D01*
X124789481Y-118252421D01*
X124799933Y-118254500D01*
X124818876Y-118254500D01*
X125224001Y-118254499D01*
X125292120Y-118274501D01*
X125338614Y-118328156D01*
X125350000Y-118380499D01*
X125350000Y-118524000D01*
X125329998Y-118592121D01*
X125276342Y-118638614D01*
X125224000Y-118650000D01*
X124335116Y-118650000D01*
X124319877Y-118654475D01*
X124318672Y-118655865D01*
X124317001Y-118663548D01*
X124317001Y-118694669D01*
X124317371Y-118701490D01*
X124322895Y-118752352D01*
X124326521Y-118767604D01*
X124371676Y-118888054D01*
X124380214Y-118903649D01*
X124456715Y-119005724D01*
X124469276Y-119018285D01*
X124571351Y-119094786D01*
X124586946Y-119103324D01*
X124707394Y-119148478D01*
X124722649Y-119152105D01*
X124773514Y-119157631D01*
X124780328Y-119158000D01*
X125006529Y-119158000D01*
X125074650Y-119178002D01*
X125121143Y-119231658D01*
X125131247Y-119301932D01*
X125101753Y-119366512D01*
X125058682Y-119398700D01*
X124916916Y-119463157D01*
X124745014Y-119585096D01*
X124599272Y-119737340D01*
X124582039Y-119764029D01*
X124488200Y-119909360D01*
X124488199Y-119909363D01*
X124484948Y-119914397D01*
X124406166Y-120109878D01*
X124405017Y-120115764D01*
X124372400Y-120282786D01*
X124365771Y-120316729D01*
X124365500Y-120322270D01*
X124365500Y-120627659D01*
X124380493Y-120784806D01*
X124439823Y-120987042D01*
X124442573Y-120992381D01*
X124525351Y-121153104D01*
X124536324Y-121174410D01*
X124540028Y-121179125D01*
X124662808Y-121335432D01*
X124662812Y-121335436D01*
X124666514Y-121340149D01*
X124671044Y-121344080D01*
X124671045Y-121344081D01*
X124821165Y-121474350D01*
X124821170Y-121474354D01*
X124825696Y-121478281D01*
X125008126Y-121583819D01*
X125013791Y-121585786D01*
X125016953Y-121587234D01*
X125070564Y-121633779D01*
X125090500Y-121701797D01*
X125090500Y-121944501D01*
X125070498Y-122012622D01*
X125016842Y-122059115D01*
X124964500Y-122070501D01*
X124797022Y-122070501D01*
X124793627Y-122070870D01*
X124793622Y-122070870D01*
X124743214Y-122076345D01*
X124743210Y-122076346D01*
X124735356Y-122077199D01*
X124600107Y-122127901D01*
X124592928Y-122133281D01*
X124592925Y-122133283D01*
X124520471Y-122187585D01*
X124484525Y-122214525D01*
X124479144Y-122221705D01*
X124403283Y-122322925D01*
X124403281Y-122322928D01*
X124397901Y-122330107D01*
X124347199Y-122465356D01*
X124346346Y-122473206D01*
X124346346Y-122473207D01*
X124345263Y-122483178D01*
X124318022Y-122548740D01*
X124259660Y-122589168D01*
X124188706Y-122591624D01*
X124127687Y-122555330D01*
X124095978Y-122491808D01*
X124094737Y-122483179D01*
X124093655Y-122473214D01*
X124093654Y-122473210D01*
X124092801Y-122465356D01*
X124042099Y-122330107D01*
X124036719Y-122322928D01*
X124036717Y-122322925D01*
X123960856Y-122221705D01*
X123955475Y-122214525D01*
X123919529Y-122187585D01*
X123847075Y-122133283D01*
X123847072Y-122133281D01*
X123839893Y-122127901D01*
X123750560Y-122094412D01*
X123712039Y-122079971D01*
X123712037Y-122079971D01*
X123704644Y-122077199D01*
X123696796Y-122076346D01*
X123696794Y-122076346D01*
X123646376Y-122070869D01*
X123646375Y-122070869D01*
X123642979Y-122070500D01*
X123475500Y-122070500D01*
X123407379Y-122050498D01*
X123360886Y-121996842D01*
X123349500Y-121944500D01*
X123349500Y-121696891D01*
X123369502Y-121628770D01*
X123423349Y-121582190D01*
X123461415Y-121564882D01*
X123523084Y-121536843D01*
X123694986Y-121414904D01*
X123805107Y-121299870D01*
X123836583Y-121266990D01*
X123840728Y-121262660D01*
X123900792Y-121169637D01*
X123951800Y-121090640D01*
X123951801Y-121090637D01*
X123955052Y-121085603D01*
X124033834Y-120890122D01*
X124074229Y-120683271D01*
X124074500Y-120677730D01*
X124074500Y-120372341D01*
X124059507Y-120215194D01*
X124000177Y-120012958D01*
X123946821Y-119909361D01*
X123906422Y-119830921D01*
X123906420Y-119830918D01*
X123903676Y-119825590D01*
X123834355Y-119737340D01*
X123777192Y-119664568D01*
X123777188Y-119664564D01*
X123773486Y-119659851D01*
X123768952Y-119655916D01*
X123672919Y-119572583D01*
X123634578Y-119512830D01*
X123629500Y-119477418D01*
X123629500Y-118987017D01*
X123649502Y-118918896D01*
X123685498Y-118882252D01*
X123706448Y-118868254D01*
X123758484Y-118833484D01*
X123814734Y-118749301D01*
X123829500Y-118675067D01*
X123829499Y-118305499D01*
X123849501Y-118237380D01*
X123903156Y-118190887D01*
X123955499Y-118179500D01*
X124177854Y-118179500D01*
X124188725Y-118179970D01*
G37*
%TD.AperFunction*%
%TA.AperFunction,Conductor*%
G36*
X126655035Y-116944450D02*
G01*
X126680548Y-116950000D01*
X127574000Y-116950000D01*
X127642121Y-116970002D01*
X127688614Y-117023658D01*
X127700000Y-117076000D01*
X127700000Y-117219500D01*
X127679998Y-117287621D01*
X127626342Y-117334114D01*
X127574000Y-117345500D01*
X127165286Y-117345501D01*
X127149934Y-117345501D01*
X127140193Y-117347439D01*
X127139486Y-117347579D01*
X127114907Y-117350000D01*
X126685116Y-117350000D01*
X126669877Y-117354475D01*
X126668672Y-117355865D01*
X126667001Y-117363548D01*
X126667001Y-117394669D01*
X126667371Y-117401490D01*
X126672895Y-117452352D01*
X126676521Y-117467604D01*
X126721676Y-117588054D01*
X126730214Y-117603649D01*
X126806715Y-117705724D01*
X126819272Y-117718281D01*
X126870065Y-117756348D01*
X126912580Y-117813208D01*
X126920500Y-117857174D01*
X126920501Y-117955757D01*
X126920501Y-118025066D01*
X126932479Y-118085290D01*
X126935266Y-118099301D01*
X126931066Y-118100136D01*
X126936157Y-118147324D01*
X126935172Y-118150680D01*
X126935266Y-118150699D01*
X126920500Y-118224933D01*
X126920501Y-118675066D01*
X126935266Y-118749301D01*
X126942161Y-118759620D01*
X126942162Y-118759622D01*
X126963414Y-118791427D01*
X126991516Y-118833484D01*
X127075699Y-118889734D01*
X127149933Y-118904500D01*
X127171022Y-118904500D01*
X127464501Y-118904499D01*
X127532620Y-118924501D01*
X127579113Y-118978156D01*
X127590500Y-119030499D01*
X127590500Y-119303109D01*
X127570498Y-119371230D01*
X127516651Y-119417810D01*
X127416916Y-119463157D01*
X127245014Y-119585096D01*
X127099272Y-119737340D01*
X127082039Y-119764029D01*
X126988200Y-119909360D01*
X126988199Y-119909363D01*
X126984948Y-119914397D01*
X126906166Y-120109878D01*
X126905017Y-120115764D01*
X126872400Y-120282786D01*
X126865771Y-120316729D01*
X126865500Y-120322270D01*
X126865500Y-120627659D01*
X126880493Y-120784806D01*
X126939823Y-120987042D01*
X126942573Y-120992381D01*
X127025351Y-121153104D01*
X127036324Y-121174410D01*
X127040028Y-121179125D01*
X127162808Y-121335432D01*
X127162812Y-121335436D01*
X127166514Y-121340149D01*
X127171044Y-121344080D01*
X127171045Y-121344081D01*
X127321165Y-121474350D01*
X127321170Y-121474354D01*
X127325696Y-121478281D01*
X127508126Y-121583819D01*
X127513791Y-121585786D01*
X127516953Y-121587234D01*
X127570564Y-121633779D01*
X127590500Y-121701797D01*
X127590500Y-121944501D01*
X127570498Y-122012622D01*
X127516842Y-122059115D01*
X127464500Y-122070501D01*
X127297022Y-122070501D01*
X127293627Y-122070870D01*
X127293622Y-122070870D01*
X127243214Y-122076345D01*
X127243210Y-122076346D01*
X127235356Y-122077199D01*
X127100107Y-122127901D01*
X127092928Y-122133281D01*
X127092925Y-122133283D01*
X127020471Y-122187585D01*
X126984525Y-122214525D01*
X126979144Y-122221705D01*
X126903283Y-122322925D01*
X126903281Y-122322928D01*
X126897901Y-122330107D01*
X126847199Y-122465356D01*
X126846346Y-122473206D01*
X126846346Y-122473207D01*
X126845263Y-122483178D01*
X126818022Y-122548740D01*
X126759660Y-122589168D01*
X126688706Y-122591624D01*
X126627687Y-122555330D01*
X126595978Y-122491808D01*
X126594737Y-122483179D01*
X126593655Y-122473214D01*
X126593654Y-122473210D01*
X126592801Y-122465356D01*
X126542099Y-122330107D01*
X126536719Y-122322928D01*
X126536717Y-122322925D01*
X126460856Y-122221705D01*
X126455475Y-122214525D01*
X126419529Y-122187585D01*
X126347075Y-122133283D01*
X126347072Y-122133281D01*
X126339893Y-122127901D01*
X126250560Y-122094412D01*
X126212039Y-122079971D01*
X126212037Y-122079971D01*
X126204644Y-122077199D01*
X126196796Y-122076346D01*
X126196794Y-122076346D01*
X126146376Y-122070869D01*
X126146375Y-122070869D01*
X126142979Y-122070500D01*
X125975500Y-122070500D01*
X125907379Y-122050498D01*
X125860886Y-121996842D01*
X125849500Y-121944500D01*
X125849500Y-121696891D01*
X125869502Y-121628770D01*
X125923349Y-121582190D01*
X125961415Y-121564882D01*
X126023084Y-121536843D01*
X126194986Y-121414904D01*
X126305107Y-121299870D01*
X126336583Y-121266990D01*
X126340728Y-121262660D01*
X126400792Y-121169637D01*
X126451800Y-121090640D01*
X126451801Y-121090637D01*
X126455052Y-121085603D01*
X126533834Y-120890122D01*
X126574229Y-120683271D01*
X126574500Y-120677730D01*
X126574500Y-120372341D01*
X126559507Y-120215194D01*
X126500177Y-120012958D01*
X126446821Y-119909361D01*
X126406422Y-119830921D01*
X126406420Y-119830918D01*
X126403676Y-119825590D01*
X126273486Y-119659851D01*
X126268955Y-119655919D01*
X126268952Y-119655916D01*
X126222920Y-119615972D01*
X126184579Y-119556219D01*
X126179500Y-119520807D01*
X126179500Y-117639788D01*
X126181051Y-117620077D01*
X126182680Y-117609792D01*
X126184231Y-117600000D01*
X126182680Y-117590207D01*
X126182680Y-117589858D01*
X126181970Y-117584325D01*
X126178689Y-117551014D01*
X126167498Y-117437389D01*
X126165702Y-117431469D01*
X126165701Y-117431463D01*
X126121862Y-117286946D01*
X126120067Y-117281028D01*
X126116110Y-117273624D01*
X126045960Y-117142383D01*
X126045959Y-117142382D01*
X126043042Y-117136924D01*
X126039116Y-117132140D01*
X126035676Y-117126992D01*
X126037668Y-117125661D01*
X126014071Y-117070074D01*
X126026064Y-117000098D01*
X126073986Y-116947714D01*
X126139226Y-116929509D01*
X126604150Y-116929509D01*
X126655035Y-116944450D01*
G37*
%TD.AperFunction*%
%TA.AperFunction,Conductor*%
G36*
X133896691Y-118134063D02*
G01*
X133919450Y-118172349D01*
X133927901Y-118194893D01*
X133933281Y-118202072D01*
X133933283Y-118202075D01*
X134014525Y-118310475D01*
X134013312Y-118311384D01*
X134042622Y-118365059D01*
X134045501Y-118391842D01*
X134045501Y-118497666D01*
X134052203Y-118559370D01*
X134054977Y-118566769D01*
X134054977Y-118566770D01*
X134057738Y-118574136D01*
X134062919Y-118644944D01*
X134028850Y-118707458D01*
X133995929Y-118740379D01*
X133933617Y-118774405D01*
X133862802Y-118769340D01*
X133805966Y-118726793D01*
X133781155Y-118660273D01*
X133781490Y-118638442D01*
X133782672Y-118626903D01*
X133782929Y-118621874D01*
X133778525Y-118606876D01*
X133777135Y-118605671D01*
X133769452Y-118604000D01*
X133072115Y-118604000D01*
X133056876Y-118608475D01*
X133055671Y-118609865D01*
X133054000Y-118617548D01*
X133054000Y-118731001D01*
X133033998Y-118799122D01*
X132980342Y-118845615D01*
X132928000Y-118857001D01*
X132672000Y-118857001D01*
X132603879Y-118836999D01*
X132557386Y-118783343D01*
X132546000Y-118731001D01*
X132546000Y-118622115D01*
X132541525Y-118606876D01*
X132540135Y-118605671D01*
X132532452Y-118604000D01*
X131472000Y-118604000D01*
X131403879Y-118583998D01*
X131357386Y-118530342D01*
X131346000Y-118478000D01*
X131346000Y-118222000D01*
X131366002Y-118153879D01*
X131419658Y-118107386D01*
X131472000Y-118096000D01*
X133764882Y-118096000D01*
X133765968Y-118095681D01*
X133836964Y-118095680D01*
X133896691Y-118134063D01*
G37*
%TD.AperFunction*%
%TA.AperFunction,Conductor*%
G36*
X133847124Y-107014079D02*
G01*
X133847124Y-107013729D01*
X133956291Y-107013729D01*
X134024412Y-107033731D01*
X134070905Y-107087387D01*
X134081009Y-107157661D01*
X134051515Y-107222241D01*
X134045386Y-107228824D01*
X133546237Y-107727973D01*
X133540041Y-107739319D01*
X133549923Y-107751809D01*
X133587259Y-107776756D01*
X133597371Y-107782247D01*
X133778081Y-107859885D01*
X133789014Y-107863437D01*
X133980844Y-107906845D01*
X133992253Y-107908347D01*
X134188783Y-107916068D01*
X134200265Y-107915466D01*
X134394905Y-107887245D01*
X134406101Y-107884557D01*
X134592343Y-107821336D01*
X134602840Y-107816662D01*
X134721401Y-107750266D01*
X134731264Y-107740189D01*
X134728309Y-107732519D01*
X134224614Y-107228824D01*
X134190588Y-107166512D01*
X134195653Y-107095697D01*
X134238200Y-107038861D01*
X134304720Y-107014050D01*
X134313709Y-107013729D01*
X134373845Y-107013729D01*
X134441966Y-107033731D01*
X134462863Y-107050556D01*
X134511697Y-107099305D01*
X134517927Y-107103145D01*
X134517928Y-107103146D01*
X134618381Y-107165066D01*
X134662262Y-107192115D01*
X134705927Y-107206598D01*
X134823611Y-107245632D01*
X134823613Y-107245632D01*
X134830139Y-107247797D01*
X134836975Y-107248497D01*
X134836978Y-107248498D01*
X134932491Y-107258284D01*
X134998218Y-107285125D01*
X135008743Y-107294533D01*
X135083603Y-107369393D01*
X135095983Y-107376153D01*
X135102563Y-107371227D01*
X135129608Y-107322934D01*
X135180345Y-107273272D01*
X135239543Y-107258500D01*
X135820000Y-107258500D01*
X135888121Y-107278502D01*
X135934614Y-107332158D01*
X135946000Y-107384500D01*
X135946000Y-116724635D01*
X135925998Y-116792756D01*
X135872342Y-116839249D01*
X135802068Y-116849353D01*
X135775776Y-116842619D01*
X135746283Y-116831562D01*
X135742036Y-116829970D01*
X135742035Y-116829970D01*
X135734644Y-116827199D01*
X135726796Y-116826346D01*
X135726794Y-116826346D01*
X135676376Y-116820869D01*
X135676375Y-116820869D01*
X135672979Y-116820500D01*
X135000099Y-116820500D01*
X134327022Y-116820501D01*
X134323627Y-116820870D01*
X134323622Y-116820870D01*
X134273214Y-116826345D01*
X134273210Y-116826346D01*
X134265356Y-116827199D01*
X134130107Y-116877901D01*
X134122928Y-116883281D01*
X134122925Y-116883283D01*
X134060449Y-116930107D01*
X134014525Y-116964525D01*
X134009144Y-116971705D01*
X133933283Y-117072925D01*
X133933281Y-117072928D01*
X133927901Y-117080107D01*
X133910824Y-117125661D01*
X133884592Y-117195636D01*
X133877199Y-117215356D01*
X133870500Y-117277021D01*
X133870500Y-117614837D01*
X133850498Y-117682958D01*
X133796842Y-117729451D01*
X133726568Y-117739555D01*
X133661988Y-117710061D01*
X133637355Y-117681139D01*
X133632210Y-117672824D01*
X133623176Y-117661426D01*
X133512571Y-117551014D01*
X133501160Y-117542002D01*
X133454898Y-117513486D01*
X133407405Y-117460714D01*
X133395981Y-117390642D01*
X133420188Y-117330661D01*
X133469532Y-117264821D01*
X133469534Y-117264817D01*
X133474917Y-117257635D01*
X133489213Y-117219500D01*
X133520358Y-117136419D01*
X133520358Y-117136418D01*
X133523130Y-117129024D01*
X133527722Y-117086760D01*
X133529131Y-117073786D01*
X133529131Y-117073785D01*
X133529500Y-117070389D01*
X133529499Y-116584356D01*
X133549501Y-116516235D01*
X133603156Y-116469742D01*
X133673430Y-116459638D01*
X133705237Y-116468588D01*
X133778085Y-116499886D01*
X133789014Y-116503437D01*
X133980844Y-116546845D01*
X133992253Y-116548347D01*
X134188783Y-116556068D01*
X134200265Y-116555466D01*
X134394905Y-116527245D01*
X134406101Y-116524557D01*
X134592343Y-116461336D01*
X134602840Y-116456662D01*
X134721401Y-116390266D01*
X134731264Y-116380189D01*
X134728309Y-116372519D01*
X133776922Y-115421132D01*
X134499408Y-115421132D01*
X134499539Y-115422965D01*
X134503790Y-115429580D01*
X135083603Y-116009393D01*
X135095983Y-116016153D01*
X135102563Y-116011227D01*
X135171662Y-115887840D01*
X135176336Y-115877343D01*
X135239557Y-115691101D01*
X135242245Y-115679905D01*
X135270762Y-115483224D01*
X135271392Y-115475843D01*
X135272757Y-115423704D01*
X135272514Y-115416305D01*
X135254330Y-115218397D01*
X135252233Y-115207083D01*
X135198846Y-115017789D01*
X135194724Y-115007050D01*
X135107736Y-114830656D01*
X135106577Y-114828765D01*
X135097732Y-114822126D01*
X135085312Y-114828898D01*
X134507022Y-115407188D01*
X134499408Y-115421132D01*
X133776922Y-115421132D01*
X133185031Y-114829241D01*
X133172651Y-114822481D01*
X133166685Y-114826947D01*
X133086452Y-114979445D01*
X133082047Y-114990079D01*
X133023724Y-115177910D01*
X133021332Y-115189165D01*
X133018404Y-115213904D01*
X132990535Y-115279202D01*
X132931787Y-115319067D01*
X132860812Y-115320842D01*
X132809460Y-115293174D01*
X132781951Y-115268665D01*
X132781945Y-115268661D01*
X132776275Y-115263609D01*
X132768889Y-115259698D01*
X132642988Y-115193037D01*
X132642989Y-115193037D01*
X132636274Y-115189482D01*
X132482633Y-115150890D01*
X132475034Y-115150850D01*
X132475033Y-115150850D01*
X132409181Y-115150505D01*
X132324221Y-115150060D01*
X132316841Y-115151832D01*
X132316839Y-115151832D01*
X132177563Y-115185269D01*
X132177560Y-115185270D01*
X132170184Y-115187041D01*
X132029414Y-115259698D01*
X132023697Y-115264685D01*
X132023690Y-115264690D01*
X131935306Y-115341793D01*
X131870824Y-115371501D01*
X131800517Y-115361631D01*
X131768658Y-115340921D01*
X131744130Y-115319067D01*
X131676275Y-115258611D01*
X131668889Y-115254700D01*
X131547678Y-115190522D01*
X131536274Y-115184484D01*
X131382633Y-115145892D01*
X131375034Y-115145852D01*
X131375033Y-115145852D01*
X131341196Y-115145675D01*
X131289823Y-115145406D01*
X131221809Y-115125048D01*
X131175598Y-115071149D01*
X131168777Y-115052019D01*
X131153072Y-114993405D01*
X131149326Y-114983113D01*
X131060946Y-114793583D01*
X131055466Y-114784093D01*
X131026589Y-114742851D01*
X131016113Y-114734477D01*
X131002666Y-114741545D01*
X130324210Y-115420000D01*
X129965000Y-115779210D01*
X129285823Y-116458388D01*
X129279394Y-116470162D01*
X129296599Y-116492402D01*
X129322462Y-116558521D01*
X129308472Y-116628125D01*
X129259072Y-116679117D01*
X129196942Y-116695501D01*
X129049934Y-116695501D01*
X129014182Y-116702612D01*
X128987874Y-116707844D01*
X128987872Y-116707845D01*
X128975699Y-116710266D01*
X128965379Y-116717162D01*
X128965376Y-116717163D01*
X128959174Y-116721307D01*
X128891421Y-116742521D01*
X128822955Y-116723737D01*
X128774979Y-116669791D01*
X128772326Y-116664100D01*
X128758047Y-116633479D01*
X128754898Y-116628981D01*
X128754894Y-116628975D01*
X128667919Y-116504763D01*
X128667917Y-116504760D01*
X128664760Y-116500252D01*
X128549757Y-116385249D01*
X128490146Y-116343508D01*
X128445818Y-116288052D01*
X128438509Y-116217433D01*
X128470540Y-116154072D01*
X128524738Y-116120062D01*
X128661243Y-116077285D01*
X128674987Y-116071079D01*
X128721716Y-116042779D01*
X128790346Y-116024600D01*
X128857909Y-116046410D01*
X128890201Y-116078285D01*
X128903408Y-116097147D01*
X128913887Y-116105523D01*
X128927334Y-116098455D01*
X129592979Y-115432811D01*
X129600592Y-115418868D01*
X129600461Y-115417034D01*
X129596210Y-115410421D01*
X129346597Y-115160808D01*
X129323141Y-115148000D01*
X129257000Y-115148000D01*
X129188879Y-115127998D01*
X129142386Y-115074342D01*
X129131000Y-115022000D01*
X129131000Y-114963326D01*
X129123470Y-114937681D01*
X128956665Y-114770876D01*
X128922639Y-114708564D01*
X128927704Y-114637749D01*
X128956665Y-114592686D01*
X128982541Y-114566810D01*
X128988048Y-114556724D01*
X128980744Y-114554000D01*
X128393000Y-114554000D01*
X128324879Y-114533998D01*
X128278386Y-114480342D01*
X128267000Y-114428000D01*
X128267000Y-114355499D01*
X128287002Y-114287378D01*
X128340658Y-114240885D01*
X128393000Y-114229499D01*
X128429314Y-114229499D01*
X128432262Y-114229220D01*
X128432271Y-114229220D01*
X128453478Y-114227216D01*
X128453480Y-114227216D01*
X128461127Y-114226493D01*
X128590076Y-114181209D01*
X128700010Y-114100010D01*
X128705602Y-114092439D01*
X128706636Y-114091405D01*
X128768948Y-114057379D01*
X128795731Y-114054500D01*
X128804526Y-114054500D01*
X129513001Y-114054499D01*
X129581121Y-114074501D01*
X129627614Y-114128157D01*
X129639000Y-114180499D01*
X129639000Y-114716674D01*
X129646530Y-114742319D01*
X129952189Y-115047979D01*
X129966132Y-115055592D01*
X129967966Y-115055461D01*
X129974580Y-115051210D01*
X130565353Y-114460436D01*
X133539547Y-114460436D01*
X133543033Y-114468823D01*
X134122188Y-115047978D01*
X134136132Y-115055592D01*
X134137965Y-115055461D01*
X134144580Y-115051210D01*
X134723407Y-114472383D01*
X134730167Y-114460003D01*
X134724137Y-114451948D01*
X134656459Y-114409246D01*
X134646211Y-114404025D01*
X134463531Y-114331143D01*
X134452504Y-114327876D01*
X134259605Y-114289506D01*
X134248159Y-114288303D01*
X134051507Y-114285730D01*
X134040027Y-114286633D01*
X133846199Y-114319938D01*
X133835079Y-114322918D01*
X133650557Y-114390992D01*
X133640179Y-114395942D01*
X133549146Y-114450101D01*
X133539547Y-114460436D01*
X130565353Y-114460436D01*
X130644180Y-114381609D01*
X130650607Y-114369839D01*
X130641313Y-114357825D01*
X130600912Y-114329536D01*
X130591412Y-114324051D01*
X130535750Y-114298096D01*
X130482464Y-114251179D01*
X130462999Y-114183901D01*
X130462999Y-113955331D01*
X130462629Y-113948510D01*
X130457105Y-113897648D01*
X130453479Y-113882396D01*
X130412361Y-113772714D01*
X130407178Y-113701906D01*
X130432944Y-113648550D01*
X130451616Y-113625799D01*
X130529623Y-113530747D01*
X130602933Y-113393594D01*
X130638044Y-113277850D01*
X130646278Y-113250705D01*
X130646278Y-113250704D01*
X130648077Y-113244774D01*
X130655093Y-113173545D01*
X130656843Y-113162350D01*
X130659019Y-113156154D01*
X130659501Y-113150589D01*
X130659501Y-113134979D01*
X130660108Y-113122627D01*
X130661459Y-113108912D01*
X130662403Y-113101555D01*
X130662681Y-113099800D01*
X130662681Y-113099799D01*
X130664232Y-113090006D01*
X130661052Y-113069928D01*
X130659501Y-113050218D01*
X130659501Y-109149782D01*
X130661052Y-109130071D01*
X130662681Y-109119786D01*
X130664232Y-109109994D01*
X130662403Y-109098445D01*
X130661459Y-109091087D01*
X130648684Y-108961392D01*
X130648077Y-108955226D01*
X130636993Y-108918685D01*
X130604730Y-108812330D01*
X130602933Y-108806406D01*
X130595209Y-108791954D01*
X130532541Y-108674712D01*
X130532541Y-108674711D01*
X130529623Y-108669253D01*
X130432944Y-108551449D01*
X130405190Y-108486103D01*
X130412361Y-108427286D01*
X130453478Y-108317606D01*
X130457105Y-108302351D01*
X130462631Y-108251486D01*
X130463000Y-108244672D01*
X130463000Y-108016099D01*
X130483002Y-107947978D01*
X130535750Y-107901904D01*
X130591416Y-107875947D01*
X130600912Y-107870464D01*
X130642148Y-107841590D01*
X130650523Y-107831112D01*
X130643456Y-107817666D01*
X130126642Y-107300852D01*
X130092616Y-107238540D01*
X130097681Y-107167725D01*
X130140228Y-107110889D01*
X130149434Y-107104613D01*
X130153120Y-107102332D01*
X130159348Y-107098478D01*
X130207032Y-107050711D01*
X130269315Y-107016632D01*
X130296205Y-107013729D01*
X130505750Y-107013729D01*
X130573871Y-107033731D01*
X130594845Y-107050634D01*
X131003387Y-107459176D01*
X131015161Y-107465606D01*
X131027176Y-107456310D01*
X131055466Y-107415907D01*
X131060946Y-107406417D01*
X131149326Y-107216887D01*
X131153071Y-107206598D01*
X131179727Y-107107117D01*
X131216679Y-107046495D01*
X131280540Y-107015473D01*
X131301434Y-107013729D01*
X132927308Y-107013729D01*
X132995429Y-107033731D01*
X133041922Y-107087387D01*
X133049431Y-107108712D01*
X133060992Y-107154230D01*
X133064829Y-107165066D01*
X133147173Y-107343685D01*
X133152922Y-107353642D01*
X133162850Y-107367690D01*
X133173439Y-107376078D01*
X133186740Y-107369050D01*
X133505156Y-107050634D01*
X133567468Y-107016608D01*
X133594251Y-107013729D01*
X133747852Y-107013729D01*
X133765783Y-107015011D01*
X133776710Y-107016582D01*
X133819637Y-107014281D01*
X133837650Y-107013316D01*
X133847124Y-107014079D01*
G37*
%TD.AperFunction*%
%TA.AperFunction,Conductor*%
G36*
X130808364Y-116455124D02*
G01*
X130856948Y-116506894D01*
X130870500Y-116563740D01*
X130870501Y-116820500D01*
X130870501Y-117070388D01*
X130870870Y-117073782D01*
X130870870Y-117073788D01*
X130873718Y-117100001D01*
X130876870Y-117129024D01*
X130925083Y-117257635D01*
X130930463Y-117264814D01*
X130930465Y-117264817D01*
X130947556Y-117287621D01*
X130979814Y-117330661D01*
X130979837Y-117330692D01*
X131004685Y-117397198D01*
X130989633Y-117466581D01*
X130945314Y-117513402D01*
X130897827Y-117542788D01*
X130886425Y-117551825D01*
X130878076Y-117560188D01*
X130815793Y-117594266D01*
X130744973Y-117589261D01*
X130688101Y-117546763D01*
X130681472Y-117537003D01*
X130628106Y-117449917D01*
X130576296Y-117365371D01*
X130428120Y-117191880D01*
X130254629Y-117043704D01*
X130060094Y-116924493D01*
X130055534Y-116922604D01*
X130055518Y-116922596D01*
X130037500Y-116915133D01*
X129982219Y-116870585D01*
X129959799Y-116803221D01*
X129977358Y-116734430D01*
X130029320Y-116686052D01*
X130074738Y-116673204D01*
X130178803Y-116664100D01*
X130189599Y-116662196D01*
X130391595Y-116608072D01*
X130401887Y-116604326D01*
X130591416Y-116515947D01*
X130600912Y-116510464D01*
X130672229Y-116460527D01*
X130739503Y-116437839D01*
X130808364Y-116455124D01*
G37*
%TD.AperFunction*%
%TA.AperFunction,Conductor*%
G36*
X118750558Y-115477679D02*
G01*
X118767158Y-115491026D01*
X118767163Y-115491029D01*
X118773317Y-115495977D01*
X118898350Y-115552827D01*
X118907235Y-115554099D01*
X118907244Y-115554102D01*
X118988727Y-115565771D01*
X119053325Y-115595228D01*
X119091741Y-115654933D01*
X119093511Y-115719377D01*
X119080710Y-115773740D01*
X119079039Y-115788182D01*
X119079176Y-115944471D01*
X119080871Y-115958906D01*
X119116959Y-116110971D01*
X119121932Y-116124636D01*
X119192229Y-116264709D01*
X119199659Y-116276195D01*
X119257354Y-116347063D01*
X119260727Y-116350798D01*
X119274449Y-116358291D01*
X119276282Y-116358160D01*
X119282897Y-116353909D01*
X120058913Y-115577893D01*
X120121225Y-115543867D01*
X120192040Y-115548932D01*
X120237103Y-115577893D01*
X120418123Y-115758913D01*
X120452149Y-115821225D01*
X120447084Y-115892040D01*
X120418123Y-115937103D01*
X119645339Y-116709887D01*
X119634302Y-116730099D01*
X119622124Y-116786082D01*
X119571921Y-116836285D01*
X119497928Y-116850960D01*
X119451064Y-116845869D01*
X119451063Y-116845869D01*
X119447667Y-116845500D01*
X119341841Y-116845500D01*
X119273720Y-116825498D01*
X119261040Y-116815279D01*
X119260475Y-116814525D01*
X119255181Y-116810557D01*
X119152075Y-116733283D01*
X119152072Y-116733281D01*
X119144893Y-116727901D01*
X119033260Y-116686052D01*
X119017039Y-116679971D01*
X119017037Y-116679971D01*
X119009644Y-116677199D01*
X119001796Y-116676346D01*
X119001794Y-116676346D01*
X118951376Y-116670869D01*
X118951375Y-116670869D01*
X118947979Y-116670500D01*
X118937358Y-116670500D01*
X118671605Y-116670501D01*
X118603486Y-116650499D01*
X118556993Y-116596844D01*
X118545606Y-116544501D01*
X118545606Y-115575875D01*
X118565608Y-115507754D01*
X118619264Y-115461261D01*
X118689538Y-115451157D01*
X118750558Y-115477679D01*
G37*
%TD.AperFunction*%
%TA.AperFunction,Conductor*%
G36*
X125887512Y-104569920D02*
G01*
X125900664Y-104583142D01*
X126832734Y-105670557D01*
X126856159Y-105690177D01*
X126893842Y-105721740D01*
X126933221Y-105780815D01*
X126934411Y-105851801D01*
X126897034Y-105912162D01*
X126830800Y-105943061D01*
X126817582Y-105944954D01*
X126813851Y-105945432D01*
X126703439Y-105957873D01*
X126564226Y-106006585D01*
X126439344Y-106085054D01*
X126335054Y-106189344D01*
X126256585Y-106314226D01*
X126254248Y-106320905D01*
X126216621Y-106428438D01*
X126175243Y-106486130D01*
X126141920Y-106504805D01*
X126100413Y-106520365D01*
X126080236Y-106527929D01*
X126073057Y-106533309D01*
X126073054Y-106533311D01*
X125985023Y-106599287D01*
X125964596Y-106614596D01*
X125959215Y-106621776D01*
X125883311Y-106723054D01*
X125883309Y-106723057D01*
X125877929Y-106730236D01*
X125827202Y-106865552D01*
X125820500Y-106927244D01*
X125820500Y-108272756D01*
X125820869Y-108276152D01*
X125820869Y-108276153D01*
X125823764Y-108302797D01*
X125827202Y-108334448D01*
X125877929Y-108469764D01*
X125883309Y-108476943D01*
X125883311Y-108476946D01*
X125939149Y-108551450D01*
X125964596Y-108585404D01*
X125971776Y-108590785D01*
X126073054Y-108666689D01*
X126073057Y-108666691D01*
X126080236Y-108672071D01*
X126092098Y-108676518D01*
X126095029Y-108678719D01*
X126096515Y-108679533D01*
X126096398Y-108679747D01*
X126148863Y-108719158D01*
X126173564Y-108785719D01*
X126158358Y-108855068D01*
X126108073Y-108905187D01*
X126047870Y-108920500D01*
X125250908Y-108920500D01*
X125182787Y-108900498D01*
X125136294Y-108846842D01*
X125132926Y-108838729D01*
X125128068Y-108825771D01*
X125124917Y-108817365D01*
X125119537Y-108810186D01*
X125119535Y-108810183D01*
X125054042Y-108722798D01*
X125042544Y-108707456D01*
X124996400Y-108672872D01*
X124953888Y-108616015D01*
X124947748Y-108593155D01*
X124947346Y-108590785D01*
X124932681Y-108504477D01*
X124922010Y-108441668D01*
X124922008Y-108441661D01*
X124921420Y-108438198D01*
X124844691Y-108171868D01*
X124843343Y-108168614D01*
X124843340Y-108168605D01*
X124789091Y-108037637D01*
X124779500Y-107989419D01*
X124779500Y-106927244D01*
X124772798Y-106865552D01*
X124722071Y-106730236D01*
X124704270Y-106706484D01*
X124679422Y-106639977D01*
X124694475Y-106570595D01*
X124744650Y-106520365D01*
X124772483Y-106509213D01*
X124895134Y-106476349D01*
X124932306Y-106466389D01*
X124932308Y-106466388D01*
X124937616Y-106464966D01*
X124962336Y-106453439D01*
X125111670Y-106383804D01*
X125111675Y-106383801D01*
X125116657Y-106381478D01*
X125221260Y-106308234D01*
X125273969Y-106271327D01*
X125273972Y-106271325D01*
X125278480Y-106268168D01*
X125418168Y-106128480D01*
X125531478Y-105966657D01*
X125533801Y-105961675D01*
X125533804Y-105961670D01*
X125612643Y-105792598D01*
X125612643Y-105792597D01*
X125614966Y-105787616D01*
X125654963Y-105638344D01*
X125664671Y-105602113D01*
X125664671Y-105602112D01*
X125666095Y-105596798D01*
X125667557Y-105580095D01*
X125676156Y-105481798D01*
X125676868Y-105473658D01*
X125677635Y-105468580D01*
X125678519Y-105466062D01*
X125679000Y-105460509D01*
X125679000Y-105454794D01*
X125679478Y-105443833D01*
X125682806Y-105405797D01*
X125683724Y-105400000D01*
X125680551Y-105379966D01*
X125679000Y-105360256D01*
X125679000Y-104665144D01*
X125699002Y-104597023D01*
X125752658Y-104550530D01*
X125822932Y-104540426D01*
X125887512Y-104569920D01*
G37*
%TD.AperFunction*%
%TA.AperFunction,Conductor*%
G36*
X123157751Y-101142914D02*
G01*
X123192986Y-101204551D01*
X123195333Y-101250176D01*
X123180874Y-101360000D01*
X123201289Y-101515065D01*
X123261142Y-101659563D01*
X123356354Y-101783646D01*
X123480437Y-101878858D01*
X123624935Y-101938711D01*
X123780000Y-101959126D01*
X123935065Y-101938711D01*
X124056237Y-101888520D01*
X124126827Y-101880931D01*
X124190314Y-101912710D01*
X124226541Y-101973768D01*
X124224007Y-102044720D01*
X124206985Y-102078165D01*
X123949545Y-102438581D01*
X123510216Y-103053642D01*
X123500210Y-103065935D01*
X123485921Y-103081392D01*
X123485920Y-103081394D01*
X123478849Y-103089043D01*
X123474184Y-103099594D01*
X123461478Y-103121875D01*
X121973293Y-105205334D01*
X121971009Y-105209999D01*
X121971007Y-105210002D01*
X121936425Y-105280629D01*
X121936424Y-105280632D01*
X121931845Y-105289984D01*
X121916058Y-105415168D01*
X121941672Y-105538715D01*
X122005923Y-105647305D01*
X122013840Y-105654064D01*
X122013841Y-105654065D01*
X122033159Y-105670557D01*
X122101884Y-105729229D01*
X122141133Y-105744759D01*
X122209523Y-105771820D01*
X122209526Y-105771821D01*
X122219209Y-105775652D01*
X122282227Y-105778610D01*
X122334839Y-105781080D01*
X122334842Y-105781080D01*
X122345245Y-105781568D01*
X122466402Y-105746341D01*
X122474918Y-105740353D01*
X122474920Y-105740352D01*
X122546278Y-105690177D01*
X122569616Y-105673767D01*
X122573235Y-105669527D01*
X123957352Y-103731763D01*
X124013221Y-103687958D01*
X124059881Y-103679000D01*
X124795000Y-103679000D01*
X124863121Y-103699002D01*
X124909614Y-103752658D01*
X124921000Y-103805000D01*
X124921000Y-105360256D01*
X124919449Y-105379966D01*
X124916276Y-105400000D01*
X124917827Y-105409793D01*
X124917827Y-105413053D01*
X124916545Y-105430984D01*
X124908550Y-105486591D01*
X124898446Y-105521002D01*
X124895015Y-105528516D01*
X124871460Y-105580095D01*
X124869631Y-105584099D01*
X124850242Y-105614269D01*
X124804815Y-105666694D01*
X124777713Y-105690177D01*
X124719358Y-105727679D01*
X124686737Y-105742577D01*
X124620181Y-105762120D01*
X124584682Y-105767224D01*
X124515318Y-105767224D01*
X124479819Y-105762120D01*
X124413263Y-105742577D01*
X124380642Y-105727679D01*
X124322287Y-105690177D01*
X124295185Y-105666694D01*
X124249758Y-105614269D01*
X124230369Y-105584099D01*
X124228541Y-105580095D01*
X124204985Y-105528516D01*
X124201554Y-105521002D01*
X124191450Y-105486591D01*
X124183455Y-105430984D01*
X124182173Y-105413053D01*
X124182173Y-105409793D01*
X124183724Y-105400000D01*
X124164943Y-105281423D01*
X124110439Y-105174453D01*
X124025547Y-105089561D01*
X123918577Y-105035057D01*
X123908787Y-105033506D01*
X123908786Y-105033506D01*
X123834520Y-105021744D01*
X123800000Y-105016276D01*
X123765480Y-105021744D01*
X123691214Y-105033506D01*
X123691213Y-105033506D01*
X123681423Y-105035057D01*
X123574453Y-105089561D01*
X123489561Y-105174453D01*
X123435057Y-105281423D01*
X123416276Y-105400000D01*
X123417194Y-105405797D01*
X123433905Y-105596798D01*
X123485034Y-105787616D01*
X123487357Y-105792597D01*
X123487357Y-105792598D01*
X123566196Y-105961670D01*
X123566199Y-105961675D01*
X123568522Y-105966657D01*
X123681832Y-106128480D01*
X123808757Y-106255405D01*
X123842783Y-106317717D01*
X123837718Y-106388532D01*
X123795171Y-106445368D01*
X123728651Y-106470179D01*
X123719662Y-106470500D01*
X123477244Y-106470500D01*
X123473848Y-106470869D01*
X123473847Y-106470869D01*
X123423403Y-106476349D01*
X123423402Y-106476349D01*
X123415552Y-106477202D01*
X123408159Y-106479974D01*
X123408157Y-106479974D01*
X123391736Y-106486130D01*
X123280236Y-106527929D01*
X123273057Y-106533309D01*
X123273054Y-106533311D01*
X123185023Y-106599287D01*
X123164596Y-106614596D01*
X123159215Y-106621776D01*
X123083311Y-106723054D01*
X123083309Y-106723057D01*
X123077929Y-106730236D01*
X123027202Y-106865552D01*
X123020500Y-106927244D01*
X123020500Y-107276322D01*
X123000498Y-107344443D01*
X122946842Y-107390936D01*
X122876568Y-107401040D01*
X122849344Y-107393952D01*
X122842995Y-107391515D01*
X122836285Y-107387962D01*
X122682644Y-107349370D01*
X122675045Y-107349330D01*
X122675044Y-107349330D01*
X122609192Y-107348985D01*
X122524232Y-107348540D01*
X122516852Y-107350312D01*
X122516850Y-107350312D01*
X122377574Y-107383749D01*
X122377571Y-107383750D01*
X122370195Y-107385521D01*
X122229425Y-107458178D01*
X122110050Y-107562316D01*
X122018961Y-107691922D01*
X122003133Y-107732519D01*
X121968505Y-107821336D01*
X121961417Y-107839515D01*
X121960425Y-107847048D01*
X121960425Y-107847049D01*
X121947138Y-107947978D01*
X121940740Y-107996574D01*
X121958124Y-108154031D01*
X121960734Y-108161162D01*
X121960734Y-108161164D01*
X121993787Y-108251486D01*
X122012564Y-108302797D01*
X122012791Y-108303135D01*
X122025329Y-108369897D01*
X121998629Y-108435682D01*
X121989053Y-108446419D01*
X121970873Y-108464599D01*
X121955839Y-108477440D01*
X121947412Y-108483562D01*
X121947409Y-108483565D01*
X121939390Y-108489391D01*
X121933563Y-108497411D01*
X121926549Y-108504425D01*
X121926086Y-108503962D01*
X121915931Y-108514734D01*
X121860358Y-108560342D01*
X121839820Y-108574065D01*
X121756782Y-108618450D01*
X121733962Y-108627902D01*
X121643854Y-108655236D01*
X121619631Y-108660054D01*
X121548086Y-108667101D01*
X121533287Y-108666665D01*
X121533287Y-108667320D01*
X121523369Y-108667320D01*
X121513576Y-108665769D01*
X121493499Y-108668949D01*
X121473788Y-108670500D01*
X119489789Y-108670500D01*
X119470078Y-108668949D01*
X119450001Y-108665769D01*
X119440208Y-108667320D01*
X119440205Y-108667320D01*
X119437705Y-108667716D01*
X119428978Y-108668788D01*
X119391455Y-108672071D01*
X119287978Y-108681124D01*
X119282664Y-108682548D01*
X119282663Y-108682548D01*
X119136188Y-108721795D01*
X119136186Y-108721796D01*
X119130878Y-108723218D01*
X119125898Y-108725540D01*
X119125896Y-108725541D01*
X118988461Y-108789628D01*
X118988456Y-108789631D01*
X118983474Y-108791954D01*
X118978967Y-108795110D01*
X118978965Y-108795111D01*
X118877771Y-108865968D01*
X118810497Y-108888656D01*
X118741636Y-108871371D01*
X118693052Y-108819601D01*
X118679500Y-108762755D01*
X118679500Y-105605500D01*
X118699502Y-105537379D01*
X118753158Y-105490886D01*
X118805500Y-105479500D01*
X119987372Y-105479500D01*
X120007082Y-105481051D01*
X120027160Y-105484231D01*
X120036953Y-105482680D01*
X120038381Y-105482680D01*
X120046623Y-105481798D01*
X120268525Y-105469336D01*
X120506855Y-105428842D01*
X120739153Y-105361919D01*
X120836936Y-105321416D01*
X120959229Y-105270761D01*
X120959234Y-105270758D01*
X120962497Y-105269407D01*
X121004107Y-105246410D01*
X121078427Y-105205334D01*
X121174078Y-105152469D01*
X121371236Y-105012578D01*
X121485797Y-104910200D01*
X121504461Y-104893521D01*
X121504462Y-104893519D01*
X121505952Y-104892188D01*
X121506091Y-104892343D01*
X121506659Y-104892063D01*
X121506407Y-104891781D01*
X121536954Y-104864483D01*
X121543405Y-104859279D01*
X121544415Y-104858269D01*
X121552440Y-104852439D01*
X121564390Y-104835991D01*
X121577232Y-104820956D01*
X122020956Y-104377232D01*
X122035991Y-104364390D01*
X122044420Y-104358266D01*
X122052439Y-104352440D01*
X122058264Y-104344422D01*
X122059575Y-104343111D01*
X122062841Y-104339024D01*
X122198134Y-104184751D01*
X122198139Y-104184745D01*
X122200859Y-104181643D01*
X122205486Y-104174719D01*
X122324238Y-103996994D01*
X122326532Y-103993561D01*
X122338956Y-103968369D01*
X122419520Y-103805000D01*
X122426580Y-103790684D01*
X122446581Y-103731764D01*
X122497963Y-103580397D01*
X122497964Y-103580393D01*
X122499291Y-103576484D01*
X122513103Y-103507047D01*
X122542619Y-103358664D01*
X122542620Y-103358658D01*
X122543422Y-103354625D01*
X122544685Y-103335367D01*
X122553654Y-103198510D01*
X122554135Y-103195063D01*
X122554031Y-103195054D01*
X122554279Y-103192190D01*
X122554513Y-103189489D01*
X122554513Y-103186777D01*
X122554627Y-103184140D01*
X122554779Y-103181340D01*
X122557112Y-103145745D01*
X122557692Y-103140553D01*
X122557692Y-103138701D01*
X122559244Y-103128905D01*
X122557646Y-103118812D01*
X122556064Y-103108828D01*
X122554513Y-103089117D01*
X122554513Y-101510547D01*
X122574515Y-101442426D01*
X122628171Y-101395933D01*
X122652380Y-101387728D01*
X122663299Y-101385227D01*
X122663303Y-101385225D01*
X122670706Y-101383530D01*
X122741116Y-101348118D01*
X122805446Y-101315764D01*
X122805449Y-101315762D01*
X122812229Y-101312352D01*
X122818000Y-101307423D01*
X122818003Y-101307421D01*
X122926910Y-101214405D01*
X122926910Y-101214404D01*
X122932688Y-101209470D01*
X122968090Y-101160203D01*
X123024084Y-101116557D01*
X123094787Y-101110111D01*
X123157751Y-101142914D01*
G37*
%TD.AperFunction*%
%TA.AperFunction,Conductor*%
G36*
X129613448Y-107278502D02*
G01*
X129659941Y-107332158D01*
X129670045Y-107402432D01*
X129655914Y-107444887D01*
X129639000Y-107475862D01*
X129639000Y-108019500D01*
X129618998Y-108087621D01*
X129565342Y-108134114D01*
X129513000Y-108145500D01*
X128805498Y-108145501D01*
X128789934Y-108145501D01*
X128762475Y-108150962D01*
X128759375Y-108151579D01*
X128734796Y-108154000D01*
X128393000Y-108154000D01*
X128324879Y-108133998D01*
X128278386Y-108080342D01*
X128267000Y-108028000D01*
X128267000Y-107947115D01*
X128262525Y-107931876D01*
X128261135Y-107930671D01*
X128253452Y-107929000D01*
X127972000Y-107929000D01*
X127903879Y-107908998D01*
X127857386Y-107855342D01*
X127846000Y-107803000D01*
X127846000Y-107547000D01*
X127866002Y-107478879D01*
X127919658Y-107432386D01*
X127972000Y-107421000D01*
X128946674Y-107421000D01*
X128972319Y-107413470D01*
X129090384Y-107295405D01*
X129152696Y-107261379D01*
X129179479Y-107258500D01*
X129545327Y-107258500D01*
X129613448Y-107278502D01*
G37*
%TD.AperFunction*%
%TA.AperFunction,Conductor*%
G36*
X127305176Y-101748682D02*
G01*
X127356504Y-101779794D01*
X127362077Y-101785367D01*
X127367456Y-101792544D01*
X127374633Y-101797923D01*
X127470183Y-101869535D01*
X127470186Y-101869537D01*
X127477365Y-101874917D01*
X127487878Y-101878858D01*
X127496307Y-101882018D01*
X127553072Y-101924659D01*
X127577772Y-101991221D01*
X127562565Y-102060570D01*
X127512279Y-102110688D01*
X127496307Y-102117982D01*
X127477365Y-102125083D01*
X127470186Y-102130463D01*
X127470183Y-102130465D01*
X127399488Y-102183449D01*
X127367456Y-102207456D01*
X127362077Y-102214633D01*
X127290465Y-102310183D01*
X127290463Y-102310186D01*
X127285083Y-102317365D01*
X127281933Y-102325769D01*
X127281932Y-102325770D01*
X127260607Y-102382657D01*
X127236870Y-102445976D01*
X127230500Y-102504611D01*
X127230501Y-103045388D01*
X127230870Y-103048782D01*
X127230870Y-103048788D01*
X127235251Y-103089117D01*
X127236870Y-103104024D01*
X127267376Y-103185400D01*
X127281786Y-103223839D01*
X127285083Y-103232635D01*
X127290463Y-103239814D01*
X127290465Y-103239817D01*
X127315825Y-103273654D01*
X127367456Y-103342544D01*
X127374633Y-103347923D01*
X127374637Y-103347927D01*
X127416589Y-103379369D01*
X127459104Y-103436228D01*
X127464128Y-103507047D01*
X127444110Y-103552645D01*
X127418950Y-103588444D01*
X127361406Y-103736037D01*
X127360414Y-103743570D01*
X127360414Y-103743571D01*
X127343704Y-103870502D01*
X127340729Y-103893096D01*
X127349100Y-103968919D01*
X127354317Y-104016167D01*
X127358113Y-104050553D01*
X127360723Y-104057684D01*
X127360723Y-104057686D01*
X127406085Y-104181643D01*
X127412553Y-104199319D01*
X127416789Y-104205622D01*
X127416789Y-104205623D01*
X127444755Y-104247240D01*
X127500908Y-104330805D01*
X127506527Y-104335918D01*
X127506528Y-104335919D01*
X127544220Y-104370216D01*
X127618076Y-104437419D01*
X127624747Y-104441041D01*
X127624751Y-104441044D01*
X127661379Y-104460931D01*
X127704468Y-104499389D01*
X127716018Y-104515884D01*
X127834116Y-104633982D01*
X127838625Y-104637139D01*
X127838627Y-104637141D01*
X127958051Y-104720763D01*
X128002379Y-104776221D01*
X128009688Y-104846840D01*
X127977657Y-104910200D01*
X127958050Y-104927190D01*
X127832600Y-105015030D01*
X127715030Y-105132600D01*
X127711877Y-105137103D01*
X127649070Y-105226802D01*
X127593613Y-105271131D01*
X127522993Y-105278440D01*
X127459633Y-105246410D01*
X127435072Y-105214557D01*
X127433259Y-105211210D01*
X127430385Y-105203821D01*
X127427137Y-105199292D01*
X125876426Y-103390129D01*
X125847280Y-103325390D01*
X125857761Y-103255172D01*
X125878435Y-103223842D01*
X127076271Y-101892913D01*
X127173754Y-101784599D01*
X127234192Y-101747346D01*
X127305176Y-101748682D01*
G37*
%TD.AperFunction*%
%TA.AperFunction,Conductor*%
G36*
X124600426Y-100089996D02*
G01*
X124647387Y-100128792D01*
X124699990Y-100200010D01*
X124809924Y-100281209D01*
X124938873Y-100326493D01*
X124946515Y-100327215D01*
X124946518Y-100327216D01*
X124961421Y-100328624D01*
X124970685Y-100329500D01*
X125224828Y-100329500D01*
X125479314Y-100329499D01*
X125482262Y-100329220D01*
X125482271Y-100329220D01*
X125503478Y-100327216D01*
X125503480Y-100327216D01*
X125511127Y-100326493D01*
X125640076Y-100281209D01*
X125647648Y-100275616D01*
X125647652Y-100275614D01*
X125675140Y-100255310D01*
X125741818Y-100230927D01*
X125811094Y-100246463D01*
X125824860Y-100255310D01*
X125852348Y-100275614D01*
X125852352Y-100275616D01*
X125859924Y-100281209D01*
X125988873Y-100326493D01*
X125996515Y-100327215D01*
X125996518Y-100327216D01*
X126011421Y-100328624D01*
X126020685Y-100329500D01*
X126047315Y-100329500D01*
X126425971Y-100329499D01*
X126494091Y-100349501D01*
X126509048Y-100360767D01*
X126559035Y-100404604D01*
X126559041Y-100404609D01*
X126562143Y-100407329D01*
X126706173Y-100503567D01*
X126741671Y-100527285D01*
X126760073Y-100539581D01*
X126763776Y-100541407D01*
X126969868Y-100643042D01*
X126969876Y-100643045D01*
X126973572Y-100644868D01*
X127075414Y-100679439D01*
X127133489Y-100720275D01*
X127160268Y-100786027D01*
X127147247Y-100855820D01*
X127098560Y-100907493D01*
X127056279Y-100922926D01*
X126973555Y-100937160D01*
X126862842Y-100997680D01*
X126858770Y-101001486D01*
X126856963Y-101003494D01*
X126856953Y-101003504D01*
X125898655Y-102068280D01*
X125838217Y-102105533D01*
X125767233Y-102104197D01*
X125708240Y-102064696D01*
X125679967Y-101999572D01*
X125679000Y-101983990D01*
X125679000Y-101231927D01*
X125679990Y-101216162D01*
X125682638Y-101195167D01*
X125682638Y-101195165D01*
X125683941Y-101184832D01*
X125673154Y-101132801D01*
X125672249Y-101127953D01*
X125665235Y-101085812D01*
X125663525Y-101075538D01*
X125659884Y-101068790D01*
X125658328Y-101061285D01*
X125631286Y-101015581D01*
X125628838Y-101011252D01*
X125626390Y-101006714D01*
X125603610Y-100964496D01*
X125597980Y-100959292D01*
X125594077Y-100952695D01*
X125582609Y-100942904D01*
X125553661Y-100918191D01*
X125549973Y-100914915D01*
X125510957Y-100878849D01*
X125503949Y-100875751D01*
X125498116Y-100870771D01*
X125488432Y-100866939D01*
X125488430Y-100866938D01*
X125448703Y-100851219D01*
X125444113Y-100849297D01*
X125405086Y-100832043D01*
X125405082Y-100832042D01*
X125395557Y-100827831D01*
X125387922Y-100827170D01*
X125380791Y-100824348D01*
X125370384Y-100823860D01*
X125370381Y-100823859D01*
X125327742Y-100821858D01*
X125322777Y-100821527D01*
X125280232Y-100817842D01*
X125269853Y-100816943D01*
X125262412Y-100818791D01*
X125254755Y-100818432D01*
X125244757Y-100821339D01*
X125203747Y-100833262D01*
X125198947Y-100834555D01*
X125157509Y-100844849D01*
X125157506Y-100844850D01*
X125147399Y-100847361D01*
X125140960Y-100851518D01*
X125133598Y-100853659D01*
X125125084Y-100859645D01*
X125125079Y-100859648D01*
X125090147Y-100884211D01*
X125086020Y-100886993D01*
X125054271Y-100907493D01*
X125041401Y-100915803D01*
X125036653Y-100921826D01*
X125030384Y-100926234D01*
X125026765Y-100930473D01*
X125025182Y-100932689D01*
X125025179Y-100932693D01*
X124998882Y-100969509D01*
X124995302Y-100974279D01*
X124963287Y-101014890D01*
X124960723Y-101022191D01*
X124956822Y-101028392D01*
X124595431Y-101534340D01*
X124539563Y-101578144D01*
X124468878Y-101584790D01*
X124405821Y-101552166D01*
X124370412Y-101490630D01*
X124367981Y-101444656D01*
X124378048Y-101368189D01*
X124378048Y-101368188D01*
X124379126Y-101360000D01*
X124358711Y-101204935D01*
X124298858Y-101060437D01*
X124203646Y-100936354D01*
X124179976Y-100918191D01*
X124166034Y-100907493D01*
X124079563Y-100841142D01*
X123961009Y-100792036D01*
X123905729Y-100747488D01*
X123883308Y-100680124D01*
X123900866Y-100611333D01*
X123952828Y-100562955D01*
X123971549Y-100555393D01*
X124061243Y-100527285D01*
X124074988Y-100521079D01*
X124208574Y-100440176D01*
X124220443Y-100430869D01*
X124330869Y-100320443D01*
X124340176Y-100308574D01*
X124421079Y-100174988D01*
X124430409Y-100154323D01*
X124432856Y-100155428D01*
X124465245Y-100106963D01*
X124530345Y-100078633D01*
X124600426Y-100089996D01*
G37*
%TD.AperFunction*%
%TA.AperFunction,Conductor*%
G36*
X122609121Y-99199502D02*
G01*
X122655614Y-99253158D01*
X122667000Y-99305500D01*
X122667000Y-99327885D01*
X122671475Y-99343124D01*
X122672865Y-99344329D01*
X122680548Y-99346000D01*
X123703000Y-99346000D01*
X123771121Y-99366002D01*
X123817614Y-99419658D01*
X123829000Y-99472000D01*
X123829000Y-100564885D01*
X123841119Y-100606160D01*
X123841119Y-100677156D01*
X123802735Y-100736882D01*
X123736670Y-100766579D01*
X123624935Y-100781289D01*
X123480437Y-100841142D01*
X123393966Y-100907493D01*
X123380025Y-100918191D01*
X123356354Y-100936354D01*
X123351331Y-100942900D01*
X123351327Y-100942904D01*
X123314185Y-100991308D01*
X123256847Y-101033175D01*
X123185976Y-101037397D01*
X123124073Y-101002633D01*
X123090792Y-100939920D01*
X123089480Y-100896851D01*
X123092626Y-100874750D01*
X123104397Y-100792036D01*
X123105955Y-100781092D01*
X123105955Y-100781089D01*
X123106536Y-100777008D01*
X123106605Y-100770466D01*
X123106638Y-100767335D01*
X123106638Y-100767329D01*
X123106681Y-100763201D01*
X123100891Y-100715356D01*
X123112566Y-100645328D01*
X123160248Y-100592726D01*
X123228799Y-100574254D01*
X123250718Y-100576675D01*
X123251684Y-100576868D01*
X123306586Y-100581913D01*
X123318124Y-100578525D01*
X123319329Y-100577135D01*
X123321000Y-100569452D01*
X123321000Y-99872115D01*
X123316525Y-99856876D01*
X123315135Y-99855671D01*
X123307452Y-99854000D01*
X122685116Y-99854000D01*
X122669877Y-99858475D01*
X122668672Y-99859865D01*
X122667001Y-99867548D01*
X122667001Y-99928705D01*
X122667265Y-99934475D01*
X122670844Y-99973425D01*
X122657159Y-100043090D01*
X122607982Y-100094297D01*
X122538928Y-100110788D01*
X122535569Y-100110490D01*
X122530007Y-100109093D01*
X122522412Y-100109053D01*
X122522410Y-100109053D01*
X122453567Y-100108692D01*
X122371595Y-100108263D01*
X122364213Y-100110035D01*
X122364207Y-100110036D01*
X122362091Y-100110544D01*
X122360502Y-100110465D01*
X122356660Y-100110909D01*
X122356586Y-100110269D01*
X122291183Y-100106998D01*
X122233449Y-100065679D01*
X122207589Y-100003164D01*
X122201188Y-99950272D01*
X122200276Y-99942733D01*
X122144280Y-99794546D01*
X122079301Y-99700000D01*
X122058855Y-99670251D01*
X122058854Y-99670249D01*
X122054553Y-99663992D01*
X122038288Y-99649500D01*
X122010808Y-99625017D01*
X121981681Y-99599065D01*
X121944126Y-99538816D01*
X121939500Y-99504989D01*
X121939500Y-99379787D01*
X121941051Y-99360076D01*
X121942680Y-99349791D01*
X121944231Y-99339999D01*
X121943057Y-99332589D01*
X121945100Y-99311845D01*
X121946395Y-99305334D01*
X121946827Y-99303163D01*
X121965642Y-99257738D01*
X121968703Y-99253158D01*
X121972587Y-99247345D01*
X122007346Y-99212586D01*
X122009280Y-99211294D01*
X122017740Y-99205641D01*
X122063163Y-99186827D01*
X122071848Y-99185100D01*
X122092589Y-99183057D01*
X122099999Y-99184231D01*
X122120077Y-99181051D01*
X122139787Y-99179500D01*
X122541000Y-99179500D01*
X122609121Y-99199502D01*
G37*
%TD.AperFunction*%
%TD*%
M02*
