M48
; DRILL file {KiCad (6.0.10-0)} date Thursday, 05 January 2023 at 15:58:37
; FORMAT={-:-/ absolute / inch / decimal}
; #@! TF.CreationDate,2023-01-05T15:58:37+00:00
; #@! TF.GenerationSoftware,Kicad,Pcbnew,(6.0.10-0)
; #@! TF.FileFunction,Plated,1,2,PTH
FMAT,2
INCH
; #@! TA.AperFunction,Plated,PTH,ViaDrill
T1C0.0157
; #@! TA.AperFunction,Plated,PTH,ComponentDrill
T2C0.0236
; #@! TA.AperFunction,Plated,PTH,ComponentDrill
T3C0.0335
; #@! TA.AperFunction,Plated,PTH,ComponentDrill
T4C0.0394
; #@! TA.AperFunction,Plated,PTH,ComponentDrill
T5C0.0492
%
G90
G05
T1
X4.698Y-4.4852
X4.6995Y-4.3282
X4.7359Y-4.0213
X4.7422Y-3.9798
X4.7429Y-4.0645
X4.7496Y-4.5138
X4.7497Y-4.3667
X4.7531Y-4.3248
X4.7552Y-4.9578
X4.7657Y-4.889
X4.7673Y-3.9409
X4.7965Y-4.1181
X4.7969Y-4.4524
X4.8023Y-3.9671
X4.8083Y-4.2521
X4.824Y-4.0827
X4.8467Y-4.2431
X4.8723Y-3.9213
X4.8746Y-4.5399
X4.888Y-4.3663
X4.9255Y-4.3546
X4.935Y-4.5117
X4.9769Y-4.5117
X4.9845Y-4.3522
X4.9845Y-4.4168
X5.0165Y-4.0988
X5.1508Y-4.5591
X5.1941Y-4.5593
X5.2453Y-4.6654
T2
X5.1175Y-4.2602
X5.1175Y-4.4878
T3
X4.7244Y-4.7441
X4.8228Y-4.7441
X4.9213Y-4.7441
X5.0197Y-4.7441
X5.1181Y-4.7441
X5.2165Y-4.7441
T4
X5.2571Y-4.8528
X5.2571Y-4.9528
X5.2624Y-4.2039
X5.2624Y-4.5441
T5
X5.0982Y-4.2039
X5.0982Y-4.5441
T0
M30
