%TF.GenerationSoftware,KiCad,Pcbnew,(6.0.10-0)*%
%TF.CreationDate,2023-01-05T15:58:36+00:00*%
%TF.ProjectId,LowPower,4c6f7750-6f77-4657-922e-6b696361645f,6*%
%TF.SameCoordinates,Original*%
%TF.FileFunction,Soldermask,Bot*%
%TF.FilePolarity,Negative*%
%FSLAX46Y46*%
G04 Gerber Fmt 4.6, Leading zero omitted, Abs format (unit mm)*
G04 Created by KiCad (PCBNEW (6.0.10-0)) date 2023-01-05 15:58:36*
%MOMM*%
%LPD*%
G01*
G04 APERTURE LIST*
G04 Aperture macros list*
%AMRoundRect*
0 Rectangle with rounded corners*
0 $1 Rounding radius*
0 $2 $3 $4 $5 $6 $7 $8 $9 X,Y pos of 4 corners*
0 Add a 4 corners polygon primitive as box body*
4,1,4,$2,$3,$4,$5,$6,$7,$8,$9,$2,$3,0*
0 Add four circle primitives for the rounded corners*
1,1,$1+$1,$2,$3*
1,1,$1+$1,$4,$5*
1,1,$1+$1,$6,$7*
1,1,$1+$1,$8,$9*
0 Add four rect primitives between the rounded corners*
20,1,$1+$1,$2,$3,$4,$5,0*
20,1,$1+$1,$4,$5,$6,$7,0*
20,1,$1+$1,$6,$7,$8,$9,0*
20,1,$1+$1,$8,$9,$2,$3,0*%
G04 Aperture macros list end*
%ADD10C,1.250000*%
%ADD11C,1.500000*%
%ADD12R,1.700000X1.700000*%
%ADD13O,1.700000X1.700000*%
%ADD14RoundRect,0.250000X0.600000X0.675000X-0.600000X0.675000X-0.600000X-0.675000X0.600000X-0.675000X0*%
%ADD15O,1.700000X1.850000*%
%ADD16R,2.000000X0.900000*%
%ADD17R,0.900000X2.000000*%
%ADD18R,5.000000X5.000000*%
G04 APERTURE END LIST*
D10*
%TO.C,J2*%
X133665000Y-106780000D03*
X133665000Y-115420000D03*
D11*
X129495000Y-115420000D03*
X129495000Y-106780000D03*
%TD*%
D12*
%TO.C,J3*%
X133530000Y-125800000D03*
D13*
X133530000Y-123260000D03*
%TD*%
D14*
%TO.C,J1*%
X132500000Y-120500000D03*
D15*
X130000000Y-120500000D03*
X127500000Y-120500000D03*
X125000000Y-120500000D03*
X122500000Y-120500000D03*
X120000000Y-120500000D03*
%TD*%
D16*
%TO.C,U1*%
X134730000Y-99895000D03*
X134730000Y-101165000D03*
X134730000Y-102435000D03*
X134730000Y-103705000D03*
X134730000Y-104975000D03*
X134730000Y-106245000D03*
X134730000Y-107515000D03*
X134730000Y-108785000D03*
X134730000Y-110055000D03*
X134730000Y-111325000D03*
X134730000Y-112595000D03*
X134730000Y-113865000D03*
X134730000Y-115135000D03*
X134730000Y-116405000D03*
D17*
X131945000Y-117405000D03*
X130675000Y-117405000D03*
X129405000Y-117405000D03*
X128135000Y-117405000D03*
X126865000Y-117405000D03*
X125595000Y-117405000D03*
X124325000Y-117405000D03*
X123055000Y-117405000D03*
X121785000Y-117405000D03*
X120515000Y-117405000D03*
D16*
X117730000Y-116405000D03*
X117730000Y-115135000D03*
X117730000Y-113865000D03*
X117730000Y-112595000D03*
X117730000Y-111325000D03*
X117730000Y-110055000D03*
X117730000Y-108785000D03*
X117730000Y-107515000D03*
X117730000Y-106245000D03*
X117730000Y-104975000D03*
X117730000Y-103705000D03*
X117730000Y-102435000D03*
X117730000Y-101165000D03*
X117730000Y-99895000D03*
D18*
X127230000Y-107395000D03*
%TD*%
M02*
