%TF.GenerationSoftware,KiCad,Pcbnew,(6.0.1-0)*%
%TF.CreationDate,2022-01-30T10:49:34+00:00*%
%TF.ProjectId,LowPower,4c6f7750-6f77-4657-922e-6b696361645f,6*%
%TF.SameCoordinates,Original*%
%TF.FileFunction,Legend,Bot*%
%TF.FilePolarity,Positive*%
%FSLAX46Y46*%
G04 Gerber Fmt 4.6, Leading zero omitted, Abs format (unit mm)*
G04 Created by KiCad (PCBNEW (6.0.1-0)) date 2022-01-30 10:49:34*
%MOMM*%
%LPD*%
G01*
G04 APERTURE LIST*
%ADD10C,0.080000*%
%ADD11C,0.120000*%
G04 APERTURE END LIST*
D10*
X132738095Y-121940476D02*
X132261904Y-121940476D01*
X132642857Y-122083333D02*
X132357142Y-122083333D01*
X132500000Y-121726190D02*
X132500000Y-121940476D01*
X132452380Y-122226190D02*
X132547619Y-122226190D01*
X131988095Y-125690476D02*
X131511904Y-125690476D01*
X131892857Y-125833333D02*
X131607142Y-125833333D01*
X131750000Y-125476190D02*
X131750000Y-125690476D01*
X131702380Y-125976190D02*
X131797619Y-125976190D01*
X131523809Y-123610952D02*
X132023809Y-123610952D01*
X132023809Y-123491904D01*
X132000000Y-123420476D01*
X131952380Y-123372857D01*
X131904761Y-123349047D01*
X131809523Y-123325238D01*
X131738095Y-123325238D01*
X131642857Y-123349047D01*
X131595238Y-123372857D01*
X131547619Y-123420476D01*
X131523809Y-123491904D01*
X131523809Y-123610952D01*
X131571428Y-122825238D02*
X131547619Y-122849047D01*
X131523809Y-122920476D01*
X131523809Y-122968095D01*
X131547619Y-123039523D01*
X131595238Y-123087142D01*
X131642857Y-123110952D01*
X131738095Y-123134761D01*
X131809523Y-123134761D01*
X131904761Y-123110952D01*
X131952380Y-123087142D01*
X132000000Y-123039523D01*
X132023809Y-122968095D01*
X132023809Y-122920476D01*
X132000000Y-122849047D01*
X131976190Y-122825238D01*
X130095238Y-122226190D02*
X130380952Y-122226190D01*
X130238095Y-122226190D02*
X130238095Y-121726190D01*
X130285714Y-121797619D01*
X130333333Y-121845238D01*
X130380952Y-121869047D01*
X129928571Y-121726190D02*
X129619047Y-121726190D01*
X129785714Y-121916666D01*
X129714285Y-121916666D01*
X129666666Y-121940476D01*
X129642857Y-121964285D01*
X129619047Y-122011904D01*
X129619047Y-122130952D01*
X129642857Y-122178571D01*
X129666666Y-122202380D01*
X129714285Y-122226190D01*
X129857142Y-122226190D01*
X129904761Y-122202380D01*
X129928571Y-122178571D01*
X125142857Y-121773809D02*
X125119047Y-121750000D01*
X125071428Y-121726190D01*
X124952380Y-121726190D01*
X124904761Y-121750000D01*
X124880952Y-121773809D01*
X124857142Y-121821428D01*
X124857142Y-121869047D01*
X124880952Y-121940476D01*
X125166666Y-122226190D01*
X124857142Y-122226190D01*
X119904761Y-121892857D02*
X119904761Y-122226190D01*
X120023809Y-121702380D02*
X120142857Y-122059523D01*
X119833333Y-122059523D01*
X127595238Y-122226190D02*
X127880952Y-122226190D01*
X127738095Y-122226190D02*
X127738095Y-121726190D01*
X127785714Y-121797619D01*
X127833333Y-121845238D01*
X127880952Y-121869047D01*
X127142857Y-121726190D02*
X127380952Y-121726190D01*
X127404761Y-121964285D01*
X127380952Y-121940476D01*
X127333333Y-121916666D01*
X127214285Y-121916666D01*
X127166666Y-121940476D01*
X127142857Y-121964285D01*
X127119047Y-122011904D01*
X127119047Y-122130952D01*
X127142857Y-122178571D01*
X127166666Y-122202380D01*
X127214285Y-122226190D01*
X127333333Y-122226190D01*
X127380952Y-122202380D01*
X127404761Y-122178571D01*
X122880952Y-121773809D02*
X122857142Y-121750000D01*
X122809523Y-121726190D01*
X122690476Y-121726190D01*
X122642857Y-121750000D01*
X122619047Y-121773809D01*
X122595238Y-121821428D01*
X122595238Y-121869047D01*
X122619047Y-121940476D01*
X122904761Y-122226190D01*
X122595238Y-122226190D01*
X122428571Y-121726190D02*
X122095238Y-121726190D01*
X122309523Y-122226190D01*
D11*
%TO.C,J1*%
X135100000Y-119100000D02*
X135100000Y-127100000D01*
X135100000Y-119100000D02*
X117400000Y-119100000D01*
X117400000Y-119100000D02*
X117400000Y-127100000D01*
%TO.C,U1*%
X135350000Y-117250000D02*
X135350000Y-118030000D01*
X135350000Y-118030000D02*
X134350000Y-118030000D01*
X135350000Y-92285000D02*
X135350000Y-98705000D01*
X117110000Y-92285000D02*
X117110000Y-98705000D01*
X117110000Y-117250000D02*
X117110000Y-118030000D01*
X135350000Y-92285000D02*
X117110000Y-92285000D01*
X117110000Y-118030000D02*
X118110000Y-118030000D01*
X135350000Y-98705000D02*
X135730000Y-98705000D01*
%TD*%
M02*
