%TF.GenerationSoftware,KiCad,Pcbnew,(6.0.2-0)*%
%TF.CreationDate,2022-02-22T20:18:55+00:00*%
%TF.ProjectId,LowPower,4c6f7750-6f77-4657-922e-6b696361645f,6*%
%TF.SameCoordinates,Original*%
%TF.FileFunction,Soldermask,Top*%
%TF.FilePolarity,Negative*%
%FSLAX46Y46*%
G04 Gerber Fmt 4.6, Leading zero omitted, Abs format (unit mm)*
G04 Created by KiCad (PCBNEW (6.0.2-0)) date 2022-02-22 20:18:55*
%MOMM*%
%LPD*%
G01*
G04 APERTURE LIST*
G04 Aperture macros list*
%AMRoundRect*
0 Rectangle with rounded corners*
0 $1 Rounding radius*
0 $2 $3 $4 $5 $6 $7 $8 $9 X,Y pos of 4 corners*
0 Add a 4 corners polygon primitive as box body*
4,1,4,$2,$3,$4,$5,$6,$7,$8,$9,$2,$3,0*
0 Add four circle primitives for the rounded corners*
1,1,$1+$1,$2,$3*
1,1,$1+$1,$4,$5*
1,1,$1+$1,$6,$7*
1,1,$1+$1,$8,$9*
0 Add four rect primitives between the rounded corners*
20,1,$1+$1,$2,$3,$4,$5,0*
20,1,$1+$1,$4,$5,$6,$7,0*
20,1,$1+$1,$6,$7,$8,$9,0*
20,1,$1+$1,$8,$9,$2,$3,0*%
%AMFreePoly0*
4,1,6,1.000000,-1.000000,-1.000000,-1.000000,-1.000000,0.750000,-0.750000,1.000000,1.000000,1.000000,1.000000,-1.000000,1.000000,-1.000000,$1*%
G04 Aperture macros list end*
%ADD10FreePoly0,90.000000*%
%ADD11RoundRect,0.062500X0.287500X-0.062500X0.287500X0.062500X-0.287500X0.062500X-0.287500X-0.062500X0*%
%ADD12RoundRect,0.062500X0.062500X-0.287500X0.062500X0.287500X-0.062500X0.287500X-0.062500X-0.287500X0*%
%ADD13RoundRect,0.247500X0.627500X-0.315000X0.627500X0.315000X-0.627500X0.315000X-0.627500X-0.315000X0*%
%ADD14RoundRect,0.256250X0.443750X-0.256250X0.443750X0.256250X-0.443750X0.256250X-0.443750X-0.256250X0*%
%ADD15R,1.140000X0.600000*%
%ADD16RoundRect,0.075000X0.495000X-0.075000X0.495000X0.075000X-0.495000X0.075000X-0.495000X-0.075000X0*%
%ADD17R,5.490000X5.000000*%
%ADD18C,0.800000*%
%ADD19C,1.250000*%
%ADD20C,1.500000*%
%ADD21R,1.700000X1.700000*%
%ADD22O,1.700000X1.700000*%
%ADD23RoundRect,0.247500X-0.627500X0.315000X-0.627500X-0.315000X0.627500X-0.315000X0.627500X0.315000X0*%
%ADD24RoundRect,0.256250X-0.443750X0.256250X-0.443750X-0.256250X0.443750X-0.256250X0.443750X0.256250X0*%
%ADD25RoundRect,0.200000X0.200000X0.275000X-0.200000X0.275000X-0.200000X-0.275000X0.200000X-0.275000X0*%
%ADD26RoundRect,0.200000X-0.200000X-0.275000X0.200000X-0.275000X0.200000X0.275000X-0.200000X0.275000X0*%
%ADD27R,0.800000X0.400000*%
%ADD28RoundRect,0.250000X-0.625000X0.375000X-0.625000X-0.375000X0.625000X-0.375000X0.625000X0.375000X0*%
%ADD29RoundRect,0.200000X-0.275000X0.200000X-0.275000X-0.200000X0.275000X-0.200000X0.275000X0.200000X0*%
%ADD30R,0.650000X0.400000*%
%ADD31RoundRect,0.225000X-0.335876X-0.017678X-0.017678X-0.335876X0.335876X0.017678X0.017678X0.335876X0*%
%ADD32RoundRect,0.256250X-0.256250X-0.443750X0.256250X-0.443750X0.256250X0.443750X-0.256250X0.443750X0*%
%ADD33RoundRect,0.247500X-0.315000X-0.627500X0.315000X-0.627500X0.315000X0.627500X-0.315000X0.627500X0*%
%ADD34RoundRect,0.200000X0.275000X-0.200000X0.275000X0.200000X-0.275000X0.200000X-0.275000X-0.200000X0*%
%ADD35R,0.850000X0.500000*%
%ADD36RoundRect,0.225000X-0.225000X-0.250000X0.225000X-0.250000X0.225000X0.250000X-0.225000X0.250000X0*%
%ADD37RoundRect,0.225000X-0.250000X0.225000X-0.250000X-0.225000X0.250000X-0.225000X0.250000X0.225000X0*%
%ADD38R,0.600000X1.100000*%
%ADD39RoundRect,0.225000X0.250000X-0.225000X0.250000X0.225000X-0.250000X0.225000X-0.250000X-0.225000X0*%
%ADD40RoundRect,0.249375X-0.463125X-0.625625X0.463125X-0.625625X0.463125X0.625625X-0.463125X0.625625X0*%
%ADD41R,1.425000X3.700000*%
%ADD42RoundRect,0.250000X-0.475000X0.250000X-0.475000X-0.250000X0.475000X-0.250000X0.475000X0.250000X0*%
%ADD43RoundRect,0.250000X0.600000X0.675000X-0.600000X0.675000X-0.600000X-0.675000X0.600000X-0.675000X0*%
%ADD44O,1.700000X1.850000*%
G04 APERTURE END LIST*
D10*
%TO.C,U2*%
X122230000Y-112700000D03*
D11*
X120330000Y-113700000D03*
X120330000Y-113200000D03*
X120330000Y-112700000D03*
X120330000Y-112200000D03*
X120330000Y-111700000D03*
D12*
X121230000Y-110800000D03*
X121730000Y-110800000D03*
X122230000Y-110800000D03*
X122730000Y-110800000D03*
X123230000Y-110800000D03*
D11*
X124130000Y-111700000D03*
X124130000Y-112200000D03*
X124130000Y-112700000D03*
X124130000Y-113200000D03*
X124130000Y-113700000D03*
D12*
X123230000Y-114600000D03*
X122730000Y-114600000D03*
X122230000Y-114600000D03*
X121730000Y-114600000D03*
X121230000Y-114600000D03*
%TD*%
D13*
%TO.C,R2*%
X130000000Y-125812500D03*
D14*
X130000000Y-125262500D03*
X130000000Y-123437500D03*
D13*
X130000000Y-122887500D03*
%TD*%
D14*
%TO.C,R3*%
X127500000Y-125262500D03*
D13*
X127500000Y-125812500D03*
X127500000Y-122887500D03*
D14*
X127500000Y-123437500D03*
%TD*%
%TO.C,R4*%
X125000000Y-125262500D03*
D13*
X125000000Y-125812500D03*
X125000000Y-122887500D03*
D14*
X125000000Y-123437500D03*
%TD*%
%TO.C,R5*%
X122500000Y-125262500D03*
D13*
X122500000Y-125812500D03*
X122500000Y-122887500D03*
D14*
X122500000Y-123437500D03*
%TD*%
D13*
%TO.C,R6*%
X119230000Y-125812500D03*
D14*
X119230000Y-125262500D03*
X119230000Y-123437500D03*
D13*
X119230000Y-122887500D03*
%TD*%
D15*
%TO.C,J2*%
X128915000Y-114300000D03*
X128915000Y-113500000D03*
D16*
X128915000Y-112350000D03*
X128915000Y-111350000D03*
X128915000Y-110850000D03*
X128915000Y-109850000D03*
D15*
X128915000Y-107900000D03*
X128915000Y-108700000D03*
D16*
X128915000Y-109350000D03*
X128915000Y-110350000D03*
X128915000Y-111850000D03*
X128915000Y-112850000D03*
D17*
X133030000Y-111100000D03*
D18*
X129985000Y-108210000D03*
D19*
X133665000Y-106780000D03*
D18*
X129985000Y-113990000D03*
D19*
X133665000Y-115420000D03*
D20*
X129495000Y-115420000D03*
X129495000Y-106780000D03*
%TD*%
D21*
%TO.C,J3*%
X133530000Y-125800000D03*
D22*
X133530000Y-123260000D03*
%TD*%
D23*
%TO.C,C1*%
X134530000Y-117637500D03*
D24*
X134530000Y-118187500D03*
D23*
X134530000Y-120562500D03*
D24*
X134530000Y-120012500D03*
%TD*%
D25*
%TO.C,R1*%
X120555000Y-106700000D03*
X118905000Y-106700000D03*
%TD*%
D26*
%TO.C,R10*%
X117905000Y-102400000D03*
X119555000Y-102400000D03*
%TD*%
%TO.C,R19*%
X122305000Y-105700000D03*
X123955000Y-105700000D03*
%TD*%
D25*
%TO.C,R20*%
X123955000Y-106900000D03*
X122305000Y-106900000D03*
%TD*%
D27*
%TO.C,Q1*%
X118780000Y-107750000D03*
X118780000Y-108400000D03*
X118780000Y-109050000D03*
X120680000Y-109050000D03*
X120680000Y-107750000D03*
%TD*%
D28*
%TO.C,D2*%
X125630000Y-106000000D03*
X125630000Y-108800000D03*
%TD*%
D26*
%TO.C,R15*%
X123505000Y-101400000D03*
X125155000Y-101400000D03*
%TD*%
D29*
%TO.C,R18*%
X126330000Y-102875000D03*
X126330000Y-104525000D03*
%TD*%
D30*
%TO.C,U3*%
X123380000Y-103050000D03*
X123380000Y-103700000D03*
X123380000Y-104350000D03*
X125280000Y-104350000D03*
X125280000Y-103700000D03*
X125280000Y-103050000D03*
%TD*%
D31*
%TO.C,C2*%
X118581992Y-114751992D03*
X119678008Y-115848008D03*
%TD*%
D29*
%TO.C,R12*%
X127630000Y-107675000D03*
X127630000Y-109325000D03*
%TD*%
D32*
%TO.C,R7*%
X118667500Y-117800000D03*
D33*
X118117500Y-117800000D03*
D32*
X120492500Y-117800000D03*
D33*
X121042500Y-117800000D03*
%TD*%
D30*
%TO.C,D4*%
X122780000Y-117150000D03*
X122780000Y-117800000D03*
X122780000Y-118450000D03*
X124680000Y-118450000D03*
X124680000Y-117800000D03*
X124680000Y-117150000D03*
%TD*%
%TO.C,D3*%
X127030000Y-117150000D03*
X127030000Y-117800000D03*
X127030000Y-118450000D03*
X128930000Y-118450000D03*
X128930000Y-117800000D03*
X128930000Y-117150000D03*
%TD*%
D29*
%TO.C,R11*%
X127630000Y-113575000D03*
X127630000Y-115225000D03*
%TD*%
D34*
%TO.C,R13*%
X126430000Y-115225000D03*
X126430000Y-113575000D03*
%TD*%
D29*
%TO.C,R14*%
X125230000Y-113575000D03*
X125230000Y-115225000D03*
%TD*%
D35*
%TO.C,D1*%
X119605000Y-100200000D03*
X117855000Y-100200000D03*
X117855000Y-99200000D03*
X119605000Y-99200000D03*
%TD*%
D26*
%TO.C,R8*%
X117905000Y-101200000D03*
X119555000Y-101200000D03*
%TD*%
%TO.C,R9*%
X117905000Y-103600000D03*
X119555000Y-103600000D03*
%TD*%
D36*
%TO.C,C5*%
X122455000Y-109300000D03*
X124005000Y-109300000D03*
%TD*%
D37*
%TO.C,C3*%
X132330000Y-116800000D03*
X132330000Y-118350000D03*
%TD*%
%TO.C,C4*%
X131130000Y-116800000D03*
X131130000Y-118350000D03*
%TD*%
D26*
%TO.C,R17*%
X123105000Y-99600000D03*
X124755000Y-99600000D03*
%TD*%
D25*
%TO.C,R16*%
X127455000Y-99600000D03*
X125805000Y-99600000D03*
%TD*%
D38*
%TO.C,U4*%
X130540000Y-100400000D03*
D39*
X127490000Y-101225000D03*
D40*
X130387500Y-104920000D03*
D38*
X130540000Y-103100000D03*
D39*
X127490000Y-102775000D03*
D41*
X131990000Y-101800000D03*
D38*
X128640000Y-103100000D03*
D42*
X128740000Y-104350000D03*
D38*
X129590000Y-103100000D03*
D40*
X133352500Y-104920000D03*
D42*
X128740000Y-106250000D03*
D38*
X129590000Y-100400000D03*
D42*
X134990000Y-106250000D03*
D41*
X134990000Y-101800000D03*
D42*
X134990000Y-104350000D03*
D38*
X128640000Y-100400000D03*
%TD*%
D43*
%TO.C,J1*%
X132500000Y-120500000D03*
D44*
X130000000Y-120500000D03*
X127500000Y-120500000D03*
X125000000Y-120500000D03*
X122500000Y-120500000D03*
X120000000Y-120500000D03*
%TD*%
M02*
