solid OpenSCAD_Model
  facet normal 0 0 1
    outer loop
      vertex 25 32 6.9
      vertex 23.625 31.625 6.9
      vertex 25 3 6.9
    endloop
  endfacet
  facet normal 0 0 1
    outer loop
      vertex 22 35 6.9
      vertex 23.625 31.625 6.9
      vertex 25 32 6.9
    endloop
  endfacet
  facet normal 0 0 1
    outer loop
      vertex 22 35 6.9
      vertex 21.625 33.625 6.9
      vertex 23.625 31.625 6.9
    endloop
  endfacet
  facet normal 0 0 1
    outer loop
      vertex 22 35 6.9
      vertex 3.375 33.625 6.9
      vertex 21.625 33.625 6.9
    endloop
  endfacet
  facet normal -0 0 1
    outer loop
      vertex 3 35 6.9
      vertex 3.375 33.625 6.9
      vertex 22 35 6.9
    endloop
  endfacet
  facet normal 0 0 1
    outer loop
      vertex 3 35 6.9
      vertex 1.375 31.625 6.9
      vertex 3.375 33.625 6.9
    endloop
  endfacet
  facet normal 0 0 1
    outer loop
      vertex 1.375 31.625 6.9
      vertex 1 5 6.9
      vertex 1.375 5 6.9
    endloop
  endfacet
  facet normal -0 0 1
    outer loop
      vertex 0 32 6.9
      vertex 1.375 31.625 6.9
      vertex 3 35 6.9
    endloop
  endfacet
  facet normal 0 0 1
    outer loop
      vertex 0 32 6.9
      vertex 1 5 6.9
      vertex 1.375 31.625 6.9
    endloop
  endfacet
  facet normal 0 0 1
    outer loop
      vertex 0 3 6.9
      vertex 1 5 6.9
      vertex 0 32 6.9
    endloop
  endfacet
  facet normal 0 0 1
    outer loop
      vertex 1 5 6.9
      vertex 0 3 6.9
      vertex 1 2 6.9
    endloop
  endfacet
  facet normal -0 0 1
    outer loop
      vertex 23.625 3.375 6.9
      vertex 25 3 6.9
      vertex 23.625 31.625 6.9
    endloop
  endfacet
  facet normal 0 0 1
    outer loop
      vertex 23.625 3.375 6.9
      vertex 22 0 6.9
      vertex 25 3 6.9
    endloop
  endfacet
  facet normal -0 0 1
    outer loop
      vertex 21.625 1.375 6.9
      vertex 22 0 6.9
      vertex 23.625 3.375 6.9
    endloop
  endfacet
  facet normal 0 0 1
    outer loop
      vertex 5 1 6.9
      vertex 21.625 1.375 6.9
      vertex 5 1.375 6.9
    endloop
  endfacet
  facet normal 0 0 1
    outer loop
      vertex 21.625 1.375 6.9
      vertex 5 1 6.9
      vertex 22 0 6.9
    endloop
  endfacet
  facet normal 0 0 1
    outer loop
      vertex 5 1 6.9
      vertex 3 0 6.9
      vertex 22 0 6.9
    endloop
  endfacet
  facet normal 0 -0 1
    outer loop
      vertex 3 0 6.9
      vertex 5 1 6.9
      vertex 2 1 6.9
    endloop
  endfacet
  facet normal 0 -1 0
    outer loop
      vertex 3.375 33.625 4.9
      vertex 21.625 33.625 6.9
      vertex 3.375 33.625 6.9
    endloop
  endfacet
  facet normal 0 -1 -0
    outer loop
      vertex 21.625 33.625 6.9
      vertex 3.375 33.625 4.9
      vertex 21.625 33.625 4.9
    endloop
  endfacet
  facet normal 0.707107 -0.707107 0
    outer loop
      vertex 1.375 31.625 6.9
      vertex 3.375 33.625 4.9
      vertex 3.375 33.625 6.9
    endloop
  endfacet
  facet normal 0.707107 -0.707107 0
    outer loop
      vertex 3.375 33.625 4.9
      vertex 1.375 31.625 6.9
      vertex 1.375 31.625 4.9
    endloop
  endfacet
  facet normal 0 0 1
    outer loop
      vertex 23.625 31.625 4.9
      vertex 22.25 31 4.9
      vertex 23.625 3.375 4.9
    endloop
  endfacet
  facet normal 0 0 1
    outer loop
      vertex 23.625 31.625 4.9
      vertex 22.1768 31.1768 4.9
      vertex 22.25 31 4.9
    endloop
  endfacet
  facet normal 0 0 1
    outer loop
      vertex 21.625 33.625 4.9
      vertex 22.1768 31.1768 4.9
      vertex 23.625 31.625 4.9
    endloop
  endfacet
  facet normal 0 0 1
    outer loop
      vertex 21.625 33.625 4.9
      vertex 21.1768 32.1768 4.9
      vertex 22.1768 31.1768 4.9
    endloop
  endfacet
  facet normal 0 0 1
    outer loop
      vertex 21.625 33.625 4.9
      vertex 21 32.25 4.9
      vertex 21.1768 32.1768 4.9
    endloop
  endfacet
  facet normal 0 0 1
    outer loop
      vertex 21.625 33.625 4.9
      vertex 4 32.25 4.9
      vertex 21 32.25 4.9
    endloop
  endfacet
  facet normal -0 0 1
    outer loop
      vertex 3.375 33.625 4.9
      vertex 4 32.25 4.9
      vertex 21.625 33.625 4.9
    endloop
  endfacet
  facet normal 0 0 1
    outer loop
      vertex 3.375 33.625 4.9
      vertex 3.82322 32.1768 4.9
      vertex 4 32.25 4.9
    endloop
  endfacet
  facet normal 0 0 1
    outer loop
      vertex 3.375 33.625 4.9
      vertex 2.82322 31.1768 4.9
      vertex 3.82322 32.1768 4.9
    endloop
  endfacet
  facet normal -0 0 1
    outer loop
      vertex 1.375 31.625 4.9
      vertex 2.82322 31.1768 4.9
      vertex 3.375 33.625 4.9
    endloop
  endfacet
  facet normal 0 0 1
    outer loop
      vertex 2.75 31 4.9
      vertex 1.375 31.625 4.9
      vertex 2.75 4 4.9
    endloop
  endfacet
  facet normal 0 0 1
    outer loop
      vertex 2.82322 31.1768 4.9
      vertex 1.375 31.625 4.9
      vertex 2.75 31 4.9
    endloop
  endfacet
  facet normal -0 0 1
    outer loop
      vertex 22.25 4 4.9
      vertex 23.625 3.375 4.9
      vertex 22.25 31 4.9
    endloop
  endfacet
  facet normal -0 0 1
    outer loop
      vertex 22.1768 3.82322 4.9
      vertex 23.625 3.375 4.9
      vertex 22.25 4 4.9
    endloop
  endfacet
  facet normal 0 0 1
    outer loop
      vertex 22.1768 3.82322 4.9
      vertex 21.625 1.375 4.9
      vertex 23.625 3.375 4.9
    endloop
  endfacet
  facet normal -0 0 1
    outer loop
      vertex 21.1768 2.82322 4.9
      vertex 21.625 1.375 4.9
      vertex 22.1768 3.82322 4.9
    endloop
  endfacet
  facet normal -0 0 1
    outer loop
      vertex 21 2.75 4.9
      vertex 21.625 1.375 4.9
      vertex 21.1768 2.82322 4.9
    endloop
  endfacet
  facet normal -0 0 1
    outer loop
      vertex 4 2.75 4.9
      vertex 21.625 1.375 4.9
      vertex 21 2.75 4.9
    endloop
  endfacet
  facet normal 0 0 1
    outer loop
      vertex 4 2.75 4.9
      vertex 3.375 1.375 4.9
      vertex 21.625 1.375 4.9
    endloop
  endfacet
  facet normal 0 0 1
    outer loop
      vertex 3.82322 2.82322 4.9
      vertex 3.375 1.375 4.9
      vertex 4 2.75 4.9
    endloop
  endfacet
  facet normal -0 0 1
    outer loop
      vertex 1.375 3.375 4.9
      vertex 3 3 4.9
      vertex 2.82322 3.82322 4.9
    endloop
  endfacet
  facet normal 0 0 1
    outer loop
      vertex 2.82322 3.82322 4.9
      vertex 3 3 4.9
      vertex 3.82322 2.82322 4.9
    endloop
  endfacet
  facet normal 0 0 1
    outer loop
      vertex 3.82322 2.82322 4.9
      vertex 3 3 4.9
      vertex 3.375 1.375 4.9
    endloop
  endfacet
  facet normal 0 0 1
    outer loop
      vertex 1.375 3.375 4.9
      vertex 2.82322 3.82322 4.9
      vertex 2.75 4 4.9
    endloop
  endfacet
  facet normal 0 0 1
    outer loop
      vertex 3 3 4.9
      vertex 1.375 3.375 4.9
      vertex 3.375 1.375 4.9
    endloop
  endfacet
  facet normal 0 0 1
    outer loop
      vertex 1.375 3.375 4.9
      vertex 2.75 4 4.9
      vertex 1.375 31.625 4.9
    endloop
  endfacet
  facet normal 0.707107 0.707107 0
    outer loop
      vertex 2.375 2.375 5.525
      vertex 1.375 3.375 4.9
      vertex 1.375 3.375 6.525
    endloop
  endfacet
  facet normal 0.707107 0.707107 0
    outer loop
      vertex 2.375 2.375 5.525
      vertex 3.375 1.375 4.9
      vertex 1.375 3.375 4.9
    endloop
  endfacet
  facet normal 0.707107 0.707107 -0
    outer loop
      vertex 3.375 1.375 4.9
      vertex 2.375 2.375 5.525
      vertex 3.375 1.375 6.525
    endloop
  endfacet
  facet normal 1 -0 0
    outer loop
      vertex 1.375 5 6.9
      vertex 1.375 31.625 4.9
      vertex 1.375 31.625 6.9
    endloop
  endfacet
  facet normal 1 0 0
    outer loop
      vertex 1.375 3.375 4.9
      vertex 1.375 5 6.9
      vertex 1.375 4.625 6.525
    endloop
  endfacet
  facet normal 1 0 0
    outer loop
      vertex 1.375 3.375 4.9
      vertex 1.375 4.625 6.525
      vertex 1.375 3.375 6.525
    endloop
  endfacet
  facet normal 1 0 0
    outer loop
      vertex 1.375 5 6.9
      vertex 1.375 3.375 4.9
      vertex 1.375 31.625 4.9
    endloop
  endfacet
  facet normal -0.707107 0.707107 0
    outer loop
      vertex 21.625 1.375 4.9
      vertex 23.625 3.375 6.9
      vertex 23.625 3.375 4.9
    endloop
  endfacet
  facet normal -0.707107 0.707107 0
    outer loop
      vertex 23.625 3.375 6.9
      vertex 21.625 1.375 4.9
      vertex 21.625 1.375 6.9
    endloop
  endfacet
  facet normal -1 0 0
    outer loop
      vertex 23.625 3.375 4.9
      vertex 23.625 31.625 6.9
      vertex 23.625 31.625 4.9
    endloop
  endfacet
  facet normal -1 -0 0
    outer loop
      vertex 23.625 31.625 6.9
      vertex 23.625 3.375 4.9
      vertex 23.625 3.375 6.9
    endloop
  endfacet
  facet normal -0.707107 -0.707107 0
    outer loop
      vertex 23.625 31.625 4.9
      vertex 21.625 33.625 6.9
      vertex 21.625 33.625 4.9
    endloop
  endfacet
  facet normal -0.707107 -0.707107 0
    outer loop
      vertex 21.625 33.625 6.9
      vertex 23.625 31.625 4.9
      vertex 23.625 31.625 6.9
    endloop
  endfacet
  facet normal 0 1 -0
    outer loop
      vertex 21.625 1.375 4.9
      vertex 5 1.375 6.9
      vertex 21.625 1.375 6.9
    endloop
  endfacet
  facet normal 0 1 0
    outer loop
      vertex 5 1.375 6.9
      vertex 21.625 1.375 4.9
      vertex 4.625 1.375 6.525
    endloop
  endfacet
  facet normal 0 1 0
    outer loop
      vertex 3.375 1.375 4.9
      vertex 4.625 1.375 6.525
      vertex 21.625 1.375 4.9
    endloop
  endfacet
  facet normal 0 1 0
    outer loop
      vertex 4.625 1.375 6.525
      vertex 3.375 1.375 4.9
      vertex 3.375 1.375 6.525
    endloop
  endfacet
  facet normal 0.923888 0.382663 0
    outer loop
      vertex 2.82322 3.82322 4.9
      vertex 2.75 4 4.65
      vertex 2.75 4 4.9
    endloop
  endfacet
  facet normal 0.923888 0.382663 0
    outer loop
      vertex 2.75 4 4.65
      vertex 2.82322 3.82322 4.9
      vertex 2.82322 3.82322 4.65
    endloop
  endfacet
  facet normal 0.382663 0.923888 -0
    outer loop
      vertex 4 2.75 4.65
      vertex 3.82322 2.82322 4.9
      vertex 4 2.75 4.9
    endloop
  endfacet
  facet normal 0.382663 0.923888 0
    outer loop
      vertex 3.82322 2.82322 4.9
      vertex 4 2.75 4.65
      vertex 3.82322 2.82322 4.65
    endloop
  endfacet
  facet normal 0.382573 -0.923925 0
    outer loop
      vertex 3.82322 32.1768 4.65
      vertex 4 32.25 4.9
      vertex 3.82322 32.1768 4.9
    endloop
  endfacet
  facet normal 0.382573 -0.923925 0
    outer loop
      vertex 4 32.25 4.9
      vertex 3.82322 32.1768 4.65
      vertex 4 32.25 4.65
    endloop
  endfacet
  facet normal 0.707107 0.707107 0
    outer loop
      vertex 3.82322 2.82322 4.9
      vertex 2.82322 3.82322 4.65
      vertex 2.82322 3.82322 4.9
    endloop
  endfacet
  facet normal 0.707107 0.707107 0
    outer loop
      vertex 2.82322 3.82322 4.65
      vertex 3.82322 2.82322 4.9
      vertex 3.82322 2.82322 4.65
    endloop
  endfacet
  facet normal -0.92394 -0.382536 0
    outer loop
      vertex 22.25 31 4.65
      vertex 22.1768 31.1768 4.9
      vertex 22.1768 31.1768 4.65
    endloop
  endfacet
  facet normal -0.92394 -0.382536 0
    outer loop
      vertex 22.1768 31.1768 4.9
      vertex 22.25 31 4.65
      vertex 22.25 31 4.9
    endloop
  endfacet
  facet normal -1 0 0
    outer loop
      vertex 22.25 4 4.65
      vertex 22.25 31 4.9
      vertex 22.25 31 4.65
    endloop
  endfacet
  facet normal -1 -0 0
    outer loop
      vertex 22.25 31 4.9
      vertex 22.25 4 4.65
      vertex 22.25 4 4.9
    endloop
  endfacet
  facet normal -0.382626 0.923903 0
    outer loop
      vertex 21.1768 2.82322 4.65
      vertex 21 2.75 4.9
      vertex 21.1768 2.82322 4.9
    endloop
  endfacet
  facet normal -0.382626 0.923903 0
    outer loop
      vertex 21 2.75 4.9
      vertex 21.1768 2.82322 4.65
      vertex 21 2.75 4.65
    endloop
  endfacet
  facet normal 0 1 -0
    outer loop
      vertex 21 2.75 4.65
      vertex 4 2.75 4.9
      vertex 21 2.75 4.9
    endloop
  endfacet
  facet normal 0 1 0
    outer loop
      vertex 4 2.75 4.9
      vertex 21 2.75 4.65
      vertex 4 2.75 4.65
    endloop
  endfacet
  facet normal -0.923925 0.382573 0
    outer loop
      vertex 22.1768 3.82322 4.65
      vertex 22.25 4 4.9
      vertex 22.25 4 4.65
    endloop
  endfacet
  facet normal -0.923925 0.382573 0
    outer loop
      vertex 22.25 4 4.9
      vertex 22.1768 3.82322 4.65
      vertex 22.1768 3.82322 4.9
    endloop
  endfacet
  facet normal 0.707107 -0.707107 0
    outer loop
      vertex 2.82322 31.1768 4.9
      vertex 3.82322 32.1768 4.65
      vertex 3.82322 32.1768 4.9
    endloop
  endfacet
  facet normal 0.707107 -0.707107 0
    outer loop
      vertex 3.82322 32.1768 4.65
      vertex 2.82322 31.1768 4.9
      vertex 2.82322 31.1768 4.65
    endloop
  endfacet
  facet normal 0 -1 0
    outer loop
      vertex 4 32.25 4.65
      vertex 21 32.25 4.9
      vertex 4 32.25 4.9
    endloop
  endfacet
  facet normal 0 -1 -0
    outer loop
      vertex 21 32.25 4.9
      vertex 4 32.25 4.65
      vertex 21 32.25 4.65
    endloop
  endfacet
  facet normal 1 -0 0
    outer loop
      vertex 2.75 4 4.9
      vertex 2.75 31 4.65
      vertex 2.75 31 4.9
    endloop
  endfacet
  facet normal 1 0 0
    outer loop
      vertex 2.75 31 4.65
      vertex 2.75 4 4.9
      vertex 2.75 4 4.65
    endloop
  endfacet
  facet normal 0.923903 -0.382626 0
    outer loop
      vertex 2.75 31 4.9
      vertex 2.82322 31.1768 4.65
      vertex 2.82322 31.1768 4.9
    endloop
  endfacet
  facet normal 0.923903 -0.382626 0
    outer loop
      vertex 2.82322 31.1768 4.65
      vertex 2.75 31 4.9
      vertex 2.75 31 4.65
    endloop
  endfacet
  facet normal -0.707107 0.707107 0
    outer loop
      vertex 21.1768 2.82322 4.65
      vertex 22.1768 3.82322 4.9
      vertex 22.1768 3.82322 4.65
    endloop
  endfacet
  facet normal -0.707107 0.707107 0
    outer loop
      vertex 22.1768 3.82322 4.9
      vertex 21.1768 2.82322 4.65
      vertex 21.1768 2.82322 4.9
    endloop
  endfacet
  facet normal -0.382536 -0.92394 0
    outer loop
      vertex 21 32.25 4.65
      vertex 21.1768 32.1768 4.9
      vertex 21 32.25 4.9
    endloop
  endfacet
  facet normal -0.382536 -0.92394 -0
    outer loop
      vertex 21.1768 32.1768 4.9
      vertex 21 32.25 4.65
      vertex 21.1768 32.1768 4.65
    endloop
  endfacet
  facet normal -0.707107 -0.707107 0
    outer loop
      vertex 22.1768 31.1768 4.65
      vertex 21.1768 32.1768 4.9
      vertex 21.1768 32.1768 4.65
    endloop
  endfacet
  facet normal -0.707107 -0.707107 0
    outer loop
      vertex 21.1768 32.1768 4.9
      vertex 22.1768 31.1768 4.65
      vertex 22.1768 31.1768 4.9
    endloop
  endfacet
  facet normal 0 0 1
    outer loop
      vertex 21 32.25 4.65
      vertex 22.25 31 4.65
      vertex 22.1768 31.1768 4.65
    endloop
  endfacet
  facet normal 0 0 1
    outer loop
      vertex 22.25 31 4.65
      vertex 2.75 31 4.65
      vertex 22.25 4 4.65
    endloop
  endfacet
  facet normal 0 0 1
    outer loop
      vertex 21 32.25 4.65
      vertex 22.1768 31.1768 4.65
      vertex 21.1768 32.1768 4.65
    endloop
  endfacet
  facet normal 0 0 1
    outer loop
      vertex 22.25 31 4.65
      vertex 21 32.25 4.65
      vertex 2.75 31 4.65
    endloop
  endfacet
  facet normal 0 0 1
    outer loop
      vertex 2.75 4 4.65
      vertex 22.25 4 4.65
      vertex 2.75 31 4.65
    endloop
  endfacet
  facet normal 0 0 1
    outer loop
      vertex 22.1768 3.82322 4.65
      vertex 21 2.75 4.65
      vertex 21.1768 2.82322 4.65
    endloop
  endfacet
  facet normal 0 0 1
    outer loop
      vertex 2.75 31 4.65
      vertex 21 32.25 4.65
      vertex 4 32.25 4.65
    endloop
  endfacet
  facet normal 0 -0 1
    outer loop
      vertex 21 2.75 4.65
      vertex 22.25 4 4.65
      vertex 2.75 4 4.65
    endloop
  endfacet
  facet normal 0 0 1
    outer loop
      vertex 2.75 31 4.65
      vertex 4 32.25 4.65
      vertex 3.82322 32.1768 4.65
    endloop
  endfacet
  facet normal 0 0 1
    outer loop
      vertex 22.25 4 4.65
      vertex 21 2.75 4.65
      vertex 22.1768 3.82322 4.65
    endloop
  endfacet
  facet normal 0 0 1
    outer loop
      vertex 2.75 31 4.65
      vertex 3.82322 32.1768 4.65
      vertex 2.82322 31.1768 4.65
    endloop
  endfacet
  facet normal 0 0 1
    outer loop
      vertex 21 2.75 4.65
      vertex 2.75 4 4.65
      vertex 4 2.75 4.65
    endloop
  endfacet
  facet normal 0 0 1
    outer loop
      vertex 4 2.75 4.65
      vertex 2.75 4 4.65
      vertex 3.82322 2.82322 4.65
    endloop
  endfacet
  facet normal 0 0 1
    outer loop
      vertex 3.82322 2.82322 4.65
      vertex 2.75 4 4.65
      vertex 2.82322 3.82322 4.65
    endloop
  endfacet
  facet normal 0.707107 0 0.707107
    outer loop
      vertex 1.375 4.625 6.525
      vertex 1 5 6.9
      vertex 1.375 3.375 6.525
    endloop
  endfacet
  facet normal 0.707107 0 0.707107
    outer loop
      vertex 1 2 6.9
      vertex 2.375 2.375 5.525
      vertex 1.375 3.375 6.525
    endloop
  endfacet
  facet normal 0.707107 -0 0.707107
    outer loop
      vertex 1 2 6.9
      vertex 1.375 3.375 6.525
      vertex 1 5 6.9
    endloop
  endfacet
  facet normal 0.707107 0 0.707107
    outer loop
      vertex 2.375 2.375 5.525
      vertex 1 2 6.9
      vertex 1.5 1.5 6.4
    endloop
  endfacet
  facet normal 0 -0.707107 0.707107
    outer loop
      vertex 1.375 4.625 6.525
      vertex 1.375 5 6.9
      vertex 1 5 6.9
    endloop
  endfacet
  facet normal -0.707107 0 0.707107
    outer loop
      vertex 5 1 6.9
      vertex 5 1.375 6.9
      vertex 4.625 1.375 6.525
    endloop
  endfacet
  facet normal -0 0.707107 0.707107
    outer loop
      vertex 3.375 1.375 6.525
      vertex 5 1 6.9
      vertex 4.625 1.375 6.525
    endloop
  endfacet
  facet normal 0 0.707107 0.707107
    outer loop
      vertex 3.375 1.375 6.525
      vertex 2 1 6.9
      vertex 5 1 6.9
    endloop
  endfacet
  facet normal 0 0.707107 0.707107
    outer loop
      vertex 2.375 2.375 5.525
      vertex 2 1 6.9
      vertex 3.375 1.375 6.525
    endloop
  endfacet
  facet normal 0 0.707107 0.707107
    outer loop
      vertex 2 1 6.9
      vertex 2.375 2.375 5.525
      vertex 1.5 1.5 6.4
    endloop
  endfacet
  facet normal -0.707107 -0.707107 0
    outer loop
      vertex 1.5 1.5 6.4
      vertex 0 3 6.9
      vertex 0 3 2
    endloop
  endfacet
  facet normal -0.707107 -0.707107 0
    outer loop
      vertex 0 3 6.9
      vertex 1.5 1.5 6.4
      vertex 1 2 6.9
    endloop
  endfacet
  facet normal -0.707107 -0.707107 0
    outer loop
      vertex 3 0 2
      vertex 1.5 1.5 6.4
      vertex 0 3 2
    endloop
  endfacet
  facet normal -0.707107 -0.707107 -0
    outer loop
      vertex 3 0 6.9
      vertex 1.5 1.5 6.4
      vertex 3 0 2
    endloop
  endfacet
  facet normal -0.707107 -0.707107 0
    outer loop
      vertex 1.5 1.5 6.4
      vertex 3 0 6.9
      vertex 2 1 6.9
    endloop
  endfacet
  facet normal 0.57735 -0.57735 -0.57735
    outer loop
      vertex 25 3 2
      vertex 22 2 0
      vertex 23 3 0
    endloop
  endfacet
  facet normal 0.57735 -0.57735 -0.57735
    outer loop
      vertex 22 2 0
      vertex 25 3 2
      vertex 22 0 2
    endloop
  endfacet
  facet normal -0.707107 0.707107 0
    outer loop
      vertex 0 32 2
      vertex 3 35 6.9
      vertex 3 35 2
    endloop
  endfacet
  facet normal -0.707107 0.707107 0
    outer loop
      vertex 3 35 6.9
      vertex 0 32 2
      vertex 0 32 6.9
    endloop
  endfacet
  facet normal 0 0.707107 -0.707107
    outer loop
      vertex 22 33 0
      vertex 3 35 2
      vertex 22 35 2
    endloop
  endfacet
  facet normal 0 0.707107 -0.707107
    outer loop
      vertex 3 35 2
      vertex 22 33 0
      vertex 3 33 0
    endloop
  endfacet
  facet normal 0 -0.707107 -0.707107
    outer loop
      vertex 3 2 0
      vertex 22 0 2
      vertex 3 0 2
    endloop
  endfacet
  facet normal 0 -0.707107 -0.707107
    outer loop
      vertex 22 0 2
      vertex 3 2 0
      vertex 22 2 0
    endloop
  endfacet
  facet normal -0.57735 -0.57735 -0.57735
    outer loop
      vertex 3 2 0
      vertex 0 3 2
      vertex 2 3 0
    endloop
  endfacet
  facet normal -0.57735 -0.57735 -0.57735
    outer loop
      vertex 0 3 2
      vertex 3 2 0
      vertex 3 0 2
    endloop
  endfacet
  facet normal -0.707107 0 -0.707107
    outer loop
      vertex 2 3 0
      vertex 0 32 2
      vertex 2 32 0
    endloop
  endfacet
  facet normal -0.707107 -0 -0.707107
    outer loop
      vertex 0 32 2
      vertex 2 3 0
      vertex 0 3 2
    endloop
  endfacet
  facet normal -1 0 0
    outer loop
      vertex 0 3 2
      vertex 0 32 6.9
      vertex 0 32 2
    endloop
  endfacet
  facet normal -1 -0 0
    outer loop
      vertex 0 32 6.9
      vertex 0 3 2
      vertex 0 3 6.9
    endloop
  endfacet
  facet normal 0.707107 0 -0.707107
    outer loop
      vertex 25 3 2
      vertex 23 32 0
      vertex 25 32 2
    endloop
  endfacet
  facet normal 0.707107 0 -0.707107
    outer loop
      vertex 23 32 0
      vertex 25 3 2
      vertex 23 3 0
    endloop
  endfacet
  facet normal 0 1 -0
    outer loop
      vertex 22 35 2
      vertex 3 35 6.9
      vertex 22 35 6.9
    endloop
  endfacet
  facet normal 0 1 0
    outer loop
      vertex 3 35 6.9
      vertex 22 35 2
      vertex 3 35 2
    endloop
  endfacet
  facet normal -0.57735 0.57735 -0.57735
    outer loop
      vertex 0 32 2
      vertex 3 33 0
      vertex 2 32 0
    endloop
  endfacet
  facet normal -0.57735 0.57735 -0.57735
    outer loop
      vertex 3 33 0
      vertex 0 32 2
      vertex 3 35 2
    endloop
  endfacet
  facet normal 0 -1 0
    outer loop
      vertex 3 0 2
      vertex 22 0 6.9
      vertex 3 0 6.9
    endloop
  endfacet
  facet normal 0 -1 -0
    outer loop
      vertex 22 0 6.9
      vertex 3 0 2
      vertex 22 0 2
    endloop
  endfacet
  facet normal 0.707107 -0.707107 0
    outer loop
      vertex 22 0 6.9
      vertex 25 3 2
      vertex 25 3 6.9
    endloop
  endfacet
  facet normal 0.707107 -0.707107 0
    outer loop
      vertex 25 3 2
      vertex 22 0 6.9
      vertex 22 0 2
    endloop
  endfacet
  facet normal 0.57735 0.57735 -0.57735
    outer loop
      vertex 25 32 2
      vertex 22 33 0
      vertex 22 35 2
    endloop
  endfacet
  facet normal 0.57735 0.57735 -0.57735
    outer loop
      vertex 22 33 0
      vertex 25 32 2
      vertex 23 32 0
    endloop
  endfacet
  facet normal 0.707107 0.707107 0
    outer loop
      vertex 25 32 6.9
      vertex 22 35 2
      vertex 22 35 6.9
    endloop
  endfacet
  facet normal 0.707107 0.707107 0
    outer loop
      vertex 22 35 2
      vertex 25 32 6.9
      vertex 25 32 2
    endloop
  endfacet
  facet normal 0 0 -1
    outer loop
      vertex 2 3 0
      vertex 23 3 0
      vertex 22 2 0
    endloop
  endfacet
  facet normal 0 0 -1
    outer loop
      vertex 23 3 0
      vertex 2 3 0
      vertex 23 32 0
    endloop
  endfacet
  facet normal 0 0 -1
    outer loop
      vertex 2 3 0
      vertex 22 2 0
      vertex 3 2 0
    endloop
  endfacet
  facet normal 0 0 -1
    outer loop
      vertex 2 32 0
      vertex 23 32 0
      vertex 2 3 0
    endloop
  endfacet
  facet normal 0 0 -1
    outer loop
      vertex 23 32 0
      vertex 2 32 0
      vertex 22 33 0
    endloop
  endfacet
  facet normal -0 0 -1
    outer loop
      vertex 22 33 0
      vertex 2 32 0
      vertex 3 33 0
    endloop
  endfacet
  facet normal 1 -0 0
    outer loop
      vertex 25 3 6.9
      vertex 25 32 2
      vertex 25 32 6.9
    endloop
  endfacet
  facet normal 1 0 0
    outer loop
      vertex 25 32 2
      vertex 25 3 6.9
      vertex 25 3 2
    endloop
  endfacet
  facet normal 0.92394 -0.382536 0
    outer loop
      vertex 37.75 31 6.6
      vertex 37.8232 31.1768 4.75
      vertex 37.8232 31.1768 6.6
    endloop
  endfacet
  facet normal 0.92394 -0.382536 0
    outer loop
      vertex 37.8232 31.1768 4.75
      vertex 37.75 31 6.6
      vertex 37.75 31 4.75
    endloop
  endfacet
  facet normal 0.382536 -0.92394 0
    outer loop
      vertex 38.8232 32.1768 4.75
      vertex 39 32.25 6.6
      vertex 38.8232 32.1768 6.6
    endloop
  endfacet
  facet normal 0.382536 -0.92394 0
    outer loop
      vertex 39 32.25 6.6
      vertex 38.8232 32.1768 4.75
      vertex 39 32.25 4.75
    endloop
  endfacet
  facet normal 0.382626 0.923903 -0
    outer loop
      vertex 39 2.75 4.75
      vertex 38.8232 2.82322 6.6
      vertex 39 2.75 6.6
    endloop
  endfacet
  facet normal 0.382626 0.923903 0
    outer loop
      vertex 38.8232 2.82322 6.6
      vertex 39 2.75 4.75
      vertex 38.8232 2.82322 4.75
    endloop
  endfacet
  facet normal 0.707107 -0.707107 0
    outer loop
      vertex 37.8232 31.1768 6.6
      vertex 38.8232 32.1768 4.75
      vertex 38.8232 32.1768 6.6
    endloop
  endfacet
  facet normal 0.707107 -0.707107 0
    outer loop
      vertex 38.8232 32.1768 4.75
      vertex 37.8232 31.1768 6.6
      vertex 37.8232 31.1768 4.75
    endloop
  endfacet
  facet normal -0.923925 0.382573 0
    outer loop
      vertex 57.1768 3.82322 4.75
      vertex 57.25 4 6.6
      vertex 57.25 4 4.75
    endloop
  endfacet
  facet normal -0.923925 0.382573 0
    outer loop
      vertex 57.25 4 6.6
      vertex 57.1768 3.82322 4.75
      vertex 57.1768 3.82322 6.6
    endloop
  endfacet
  facet normal -1 0 0
    outer loop
      vertex 57.25 4 4.75
      vertex 57.25 31 6.6
      vertex 57.25 31 4.75
    endloop
  endfacet
  facet normal -1 -0 0
    outer loop
      vertex 57.25 31 6.6
      vertex 57.25 4 4.75
      vertex 57.25 4 6.6
    endloop
  endfacet
  facet normal -0.382536 -0.92394 0
    outer loop
      vertex 56 32.25 4.75
      vertex 56.1768 32.1768 6.6
      vertex 56 32.25 6.6
    endloop
  endfacet
  facet normal -0.382536 -0.92394 -0
    outer loop
      vertex 56.1768 32.1768 6.6
      vertex 56 32.25 4.75
      vertex 56.1768 32.1768 4.75
    endloop
  endfacet
  facet normal 0 -1 0
    outer loop
      vertex 39 32.25 4.75
      vertex 56 32.25 6.6
      vertex 39 32.25 6.6
    endloop
  endfacet
  facet normal 0 -1 -0
    outer loop
      vertex 56 32.25 6.6
      vertex 39 32.25 4.75
      vertex 56 32.25 4.75
    endloop
  endfacet
  facet normal -0.92394 -0.382536 0
    outer loop
      vertex 57.25 31 4.75
      vertex 57.1768 31.1768 6.6
      vertex 57.1768 31.1768 4.75
    endloop
  endfacet
  facet normal -0.92394 -0.382536 0
    outer loop
      vertex 57.1768 31.1768 6.6
      vertex 57.25 31 4.75
      vertex 57.25 31 6.6
    endloop
  endfacet
  facet normal 0.707107 0.707107 0
    outer loop
      vertex 38.8232 2.82322 6.6
      vertex 37.8232 3.82322 4.75
      vertex 37.8232 3.82322 6.6
    endloop
  endfacet
  facet normal 0.707107 0.707107 0
    outer loop
      vertex 37.8232 3.82322 4.75
      vertex 38.8232 2.82322 6.6
      vertex 38.8232 2.82322 4.75
    endloop
  endfacet
  facet normal 0 1 -0
    outer loop
      vertex 56 2.75 4.75
      vertex 39 2.75 6.6
      vertex 56 2.75 6.6
    endloop
  endfacet
  facet normal 0 1 0
    outer loop
      vertex 39 2.75 6.6
      vertex 56 2.75 4.75
      vertex 39 2.75 4.75
    endloop
  endfacet
  facet normal 0 0 1
    outer loop
      vertex 56 32.25 4.75
      vertex 57.25 31 4.75
      vertex 57.1768 31.1768 4.75
    endloop
  endfacet
  facet normal 0 0 1
    outer loop
      vertex 57.25 31 4.75
      vertex 37.75 31 4.75
      vertex 57.25 4 4.75
    endloop
  endfacet
  facet normal 0 0 1
    outer loop
      vertex 56 32.25 4.75
      vertex 57.1768 31.1768 4.75
      vertex 56.1768 32.1768 4.75
    endloop
  endfacet
  facet normal 0 0 1
    outer loop
      vertex 57.25 31 4.75
      vertex 56 32.25 4.75
      vertex 37.75 31 4.75
    endloop
  endfacet
  facet normal 0 0 1
    outer loop
      vertex 37.75 4 4.75
      vertex 57.25 4 4.75
      vertex 37.75 31 4.75
    endloop
  endfacet
  facet normal 0 0 1
    outer loop
      vertex 57.1768 3.82322 4.75
      vertex 56 2.75 4.75
      vertex 56.1768 2.82322 4.75
    endloop
  endfacet
  facet normal 0 0 1
    outer loop
      vertex 37.75 31 4.75
      vertex 56 32.25 4.75
      vertex 39 32.25 4.75
    endloop
  endfacet
  facet normal 0 -0 1
    outer loop
      vertex 56 2.75 4.75
      vertex 57.25 4 4.75
      vertex 37.75 4 4.75
    endloop
  endfacet
  facet normal 0 0 1
    outer loop
      vertex 37.75 31 4.75
      vertex 39 32.25 4.75
      vertex 38.8232 32.1768 4.75
    endloop
  endfacet
  facet normal 0 0 1
    outer loop
      vertex 57.25 4 4.75
      vertex 56 2.75 4.75
      vertex 57.1768 3.82322 4.75
    endloop
  endfacet
  facet normal 0 0 1
    outer loop
      vertex 37.75 31 4.75
      vertex 38.8232 32.1768 4.75
      vertex 37.8232 31.1768 4.75
    endloop
  endfacet
  facet normal 0 0 1
    outer loop
      vertex 56 2.75 4.75
      vertex 37.75 4 4.75
      vertex 39 2.75 4.75
    endloop
  endfacet
  facet normal 0 0 1
    outer loop
      vertex 39 2.75 4.75
      vertex 37.75 4 4.75
      vertex 38.8232 2.82322 4.75
    endloop
  endfacet
  facet normal 0 0 1
    outer loop
      vertex 38.8232 2.82322 4.75
      vertex 37.75 4 4.75
      vertex 37.8232 3.82322 4.75
    endloop
  endfacet
  facet normal 1 -0 0
    outer loop
      vertex 37.75 4 6.6
      vertex 37.75 31 4.75
      vertex 37.75 31 6.6
    endloop
  endfacet
  facet normal 1 0 0
    outer loop
      vertex 37.75 31 4.75
      vertex 37.75 4 6.6
      vertex 37.75 4 4.75
    endloop
  endfacet
  facet normal 0.923925 0.382573 0
    outer loop
      vertex 37.8232 3.82322 6.6
      vertex 37.75 4 4.75
      vertex 37.75 4 6.6
    endloop
  endfacet
  facet normal 0.923925 0.382573 0
    outer loop
      vertex 37.75 4 4.75
      vertex 37.8232 3.82322 6.6
      vertex 37.8232 3.82322 4.75
    endloop
  endfacet
  facet normal -0.707107 -0.707107 0
    outer loop
      vertex 57.1768 31.1768 4.75
      vertex 56.1768 32.1768 6.6
      vertex 56.1768 32.1768 4.75
    endloop
  endfacet
  facet normal -0.707107 -0.707107 0
    outer loop
      vertex 56.1768 32.1768 6.6
      vertex 57.1768 31.1768 4.75
      vertex 57.1768 31.1768 6.6
    endloop
  endfacet
  facet normal -0.382626 0.923903 0
    outer loop
      vertex 56.1768 2.82322 4.75
      vertex 56 2.75 6.6
      vertex 56.1768 2.82322 6.6
    endloop
  endfacet
  facet normal -0.382626 0.923903 0
    outer loop
      vertex 56 2.75 6.6
      vertex 56.1768 2.82322 4.75
      vertex 56 2.75 4.75
    endloop
  endfacet
  facet normal -0.707107 0.707107 0
    outer loop
      vertex 56.1768 2.82322 4.75
      vertex 57.1768 3.82322 6.6
      vertex 57.1768 3.82322 4.75
    endloop
  endfacet
  facet normal -0.707107 0.707107 0
    outer loop
      vertex 57.1768 3.82322 6.6
      vertex 56.1768 2.82322 4.75
      vertex 56.1768 2.82322 6.6
    endloop
  endfacet
  facet normal -0.707107 0 0.707107
    outer loop
      vertex 36.5 33.5 5.1
      vertex 36.5 31.75 5.1
      vertex 37.375 32.625 5.975
    endloop
  endfacet
  facet normal 0 0.707107 0.707107
    outer loop
      vertex 38.25 33.5 5.1
      vertex 36.5 33.5 5.1
      vertex 37.375 32.625 5.975
    endloop
  endfacet
  facet normal -0.707107 0.707107 0
    outer loop
      vertex 35 32 2
      vertex 38 35 5.1
      vertex 38 35 2
    endloop
  endfacet
  facet normal -0.707107 0.707107 0
    outer loop
      vertex 38 35 5.1
      vertex 35 32 2
      vertex 35 32 5.1
    endloop
  endfacet
  facet normal -0 0 1
    outer loop
      vertex 35 32 5.1
      vertex 36.5 31.75 5.1
      vertex 36.5 33.5 5.1
    endloop
  endfacet
  facet normal 0 0 1
    outer loop
      vertex 36.375 31.625 5.1
      vertex 35 32 5.1
      vertex 36.375 3.375 5.1
    endloop
  endfacet
  facet normal 0 0 1
    outer loop
      vertex 36.5 31.75 5.1
      vertex 35 32 5.1
      vertex 36.375 31.625 5.1
    endloop
  endfacet
  facet normal 0 0 1
    outer loop
      vertex 60 32 5.1
      vertex 58.625 31.625 5.1
      vertex 60 3 5.1
    endloop
  endfacet
  facet normal 0 0 1
    outer loop
      vertex 57 35 5.1
      vertex 58.625 31.625 5.1
      vertex 60 32 5.1
    endloop
  endfacet
  facet normal 0 0 1
    outer loop
      vertex 57 35 5.1
      vertex 56.625 33.625 5.1
      vertex 58.625 31.625 5.1
    endloop
  endfacet
  facet normal 0 0 1
    outer loop
      vertex 57 35 5.1
      vertex 38.375 33.625 5.1
      vertex 56.625 33.625 5.1
    endloop
  endfacet
  facet normal -0 0 1
    outer loop
      vertex 38 35 5.1
      vertex 38.375 33.625 5.1
      vertex 57 35 5.1
    endloop
  endfacet
  facet normal 0 0 1
    outer loop
      vertex 38 35 5.1
      vertex 38.25 33.5 5.1
      vertex 38.375 33.625 5.1
    endloop
  endfacet
  facet normal 0 0 1
    outer loop
      vertex 38.25 33.5 5.1
      vertex 38 35 5.1
      vertex 36.5 33.5 5.1
    endloop
  endfacet
  facet normal -0 0 1
    outer loop
      vertex 58.625 3.375 5.1
      vertex 60 3 5.1
      vertex 58.625 31.625 5.1
    endloop
  endfacet
  facet normal 0 0 1
    outer loop
      vertex 58.625 3.375 5.1
      vertex 57 0 5.1
      vertex 60 3 5.1
    endloop
  endfacet
  facet normal -0 0 1
    outer loop
      vertex 56.625 1.375 5.1
      vertex 57 0 5.1
      vertex 58.625 3.375 5.1
    endloop
  endfacet
  facet normal -0 0 1
    outer loop
      vertex 38.375 1.375 5.1
      vertex 57 0 5.1
      vertex 56.625 1.375 5.1
    endloop
  endfacet
  facet normal 0 0 1
    outer loop
      vertex 38.375 1.375 5.1
      vertex 38 0 5.1
      vertex 57 0 5.1
    endloop
  endfacet
  facet normal 0 0 1
    outer loop
      vertex 36.375 3.375 5.1
      vertex 38 0 5.1
      vertex 38.375 1.375 5.1
    endloop
  endfacet
  facet normal 0 0 1
    outer loop
      vertex 36.375 3.375 5.1
      vertex 35 3 5.1
      vertex 38 0 5.1
    endloop
  endfacet
  facet normal 0 0 1
    outer loop
      vertex 35 3 5.1
      vertex 36.375 3.375 5.1
      vertex 35 32 5.1
    endloop
  endfacet
  facet normal 0 -0 0
    outer loop
      vertex 36.5 33.5 5.1
      vertex 38 35 5.1
      vertex 35 32 5.1
    endloop
  endfacet
  facet normal 0 -1 0
    outer loop
      vertex 38.375 1.375 5.1
      vertex 56.625 1.375 6.6
      vertex 38.375 1.375 6.6
    endloop
  endfacet
  facet normal 0 -1 -0
    outer loop
      vertex 56.625 1.375 6.6
      vertex 38.375 1.375 5.1
      vertex 56.625 1.375 5.1
    endloop
  endfacet
  facet normal -0.707107 -0.707107 0
    outer loop
      vertex 38.375 1.375 5.1
      vertex 36.375 3.375 6.6
      vertex 36.375 3.375 5.1
    endloop
  endfacet
  facet normal -0.707107 -0.707107 0
    outer loop
      vertex 36.375 3.375 6.6
      vertex 38.375 1.375 5.1
      vertex 38.375 1.375 6.6
    endloop
  endfacet
  facet normal 0 0 1
    outer loop
      vertex 58.625 31.625 6.6
      vertex 57.25 31 6.6
      vertex 58.625 3.375 6.6
    endloop
  endfacet
  facet normal 0 0 1
    outer loop
      vertex 58.625 31.625 6.6
      vertex 57.1768 31.1768 6.6
      vertex 57.25 31 6.6
    endloop
  endfacet
  facet normal 0 0 1
    outer loop
      vertex 56.625 33.625 6.6
      vertex 57.1768 31.1768 6.6
      vertex 58.625 31.625 6.6
    endloop
  endfacet
  facet normal 0 0 1
    outer loop
      vertex 56.625 33.625 6.6
      vertex 56.1768 32.1768 6.6
      vertex 57.1768 31.1768 6.6
    endloop
  endfacet
  facet normal 0 0 1
    outer loop
      vertex 56.625 33.625 6.6
      vertex 56 32.25 6.6
      vertex 56.1768 32.1768 6.6
    endloop
  endfacet
  facet normal 0 0 1
    outer loop
      vertex 56.625 33.625 6.6
      vertex 39 32.25 6.6
      vertex 56 32.25 6.6
    endloop
  endfacet
  facet normal -0 0 1
    outer loop
      vertex 38.375 33.625 6.6
      vertex 39 32.25 6.6
      vertex 56.625 33.625 6.6
    endloop
  endfacet
  facet normal 0 0 1
    outer loop
      vertex 38.375 33.625 6.6
      vertex 38.8232 32.1768 6.6
      vertex 39 32.25 6.6
    endloop
  endfacet
  facet normal 0 0 1
    outer loop
      vertex 38.375 33.625 6.6
      vertex 37.8232 31.1768 6.6
      vertex 38.8232 32.1768 6.6
    endloop
  endfacet
  facet normal -0 0 1
    outer loop
      vertex 36.375 31.625 6.6
      vertex 37.8232 31.1768 6.6
      vertex 38.375 33.625 6.6
    endloop
  endfacet
  facet normal 0 0 1
    outer loop
      vertex 37.75 31 6.6
      vertex 36.375 31.625 6.6
      vertex 37.75 4 6.6
    endloop
  endfacet
  facet normal 0 0 1
    outer loop
      vertex 37.8232 31.1768 6.6
      vertex 36.375 31.625 6.6
      vertex 37.75 31 6.6
    endloop
  endfacet
  facet normal -0 0 1
    outer loop
      vertex 57.25 4 6.6
      vertex 58.625 3.375 6.6
      vertex 57.25 31 6.6
    endloop
  endfacet
  facet normal -0 0 1
    outer loop
      vertex 57.1768 3.82322 6.6
      vertex 58.625 3.375 6.6
      vertex 57.25 4 6.6
    endloop
  endfacet
  facet normal 0 0 1
    outer loop
      vertex 57.1768 3.82322 6.6
      vertex 56.625 1.375 6.6
      vertex 58.625 3.375 6.6
    endloop
  endfacet
  facet normal -0 0 1
    outer loop
      vertex 56.1768 2.82322 6.6
      vertex 56.625 1.375 6.6
      vertex 57.1768 3.82322 6.6
    endloop
  endfacet
  facet normal -0 0 1
    outer loop
      vertex 56 2.75 6.6
      vertex 56.625 1.375 6.6
      vertex 56.1768 2.82322 6.6
    endloop
  endfacet
  facet normal -0 0 1
    outer loop
      vertex 39 2.75 6.6
      vertex 56.625 1.375 6.6
      vertex 56 2.75 6.6
    endloop
  endfacet
  facet normal 0 0 1
    outer loop
      vertex 39 2.75 6.6
      vertex 38.375 1.375 6.6
      vertex 56.625 1.375 6.6
    endloop
  endfacet
  facet normal 0 0 1
    outer loop
      vertex 38.8232 2.82322 6.6
      vertex 38.375 1.375 6.6
      vertex 39 2.75 6.6
    endloop
  endfacet
  facet normal 0 0 1
    outer loop
      vertex 37.8232 3.82322 6.6
      vertex 38.375 1.375 6.6
      vertex 38.8232 2.82322 6.6
    endloop
  endfacet
  facet normal 0 0 1
    outer loop
      vertex 36.375 3.375 6.6
      vertex 37.8232 3.82322 6.6
      vertex 37.75 4 6.6
    endloop
  endfacet
  facet normal 0 0 1
    outer loop
      vertex 37.8232 3.82322 6.6
      vertex 36.375 3.375 6.6
      vertex 38.375 1.375 6.6
    endloop
  endfacet
  facet normal 0 0 1
    outer loop
      vertex 36.375 3.375 6.6
      vertex 37.75 4 6.6
      vertex 36.375 31.625 6.6
    endloop
  endfacet
  facet normal -0.707107 0.707107 0
    outer loop
      vertex 38.25 33.5 5.1
      vertex 38.375 33.625 6.6
      vertex 38.375 33.625 5.1
    endloop
  endfacet
  facet normal -0.707107 0.707107 0
    outer loop
      vertex 37.375 32.625 5.975
      vertex 38.375 33.625 6.6
      vertex 38.25 33.5 5.1
    endloop
  endfacet
  facet normal -0.707107 0.707107 0
    outer loop
      vertex 36.375 31.625 6.6
      vertex 36.5 31.75 5.1
      vertex 36.375 31.625 5.1
    endloop
  endfacet
  facet normal -0.707107 0.707107 0
    outer loop
      vertex 37.375 32.625 5.975
      vertex 36.375 31.625 6.6
      vertex 38.375 33.625 6.6
    endloop
  endfacet
  facet normal -0.707107 0.707107 0
    outer loop
      vertex 36.5 31.75 5.1
      vertex 36.375 31.625 6.6
      vertex 37.375 32.625 5.975
    endloop
  endfacet
  facet normal -1 0 0
    outer loop
      vertex 36.375 3.375 5.1
      vertex 36.375 31.625 6.6
      vertex 36.375 31.625 5.1
    endloop
  endfacet
  facet normal -1 -0 0
    outer loop
      vertex 36.375 31.625 6.6
      vertex 36.375 3.375 5.1
      vertex 36.375 3.375 6.6
    endloop
  endfacet
  facet normal 0.707107 0.707107 0
    outer loop
      vertex 58.625 31.625 6.6
      vertex 56.625 33.625 5.1
      vertex 56.625 33.625 6.6
    endloop
  endfacet
  facet normal 0.707107 0.707107 0
    outer loop
      vertex 56.625 33.625 5.1
      vertex 58.625 31.625 6.6
      vertex 58.625 31.625 5.1
    endloop
  endfacet
  facet normal 1 -0 0
    outer loop
      vertex 58.625 3.375 6.6
      vertex 58.625 31.625 5.1
      vertex 58.625 31.625 6.6
    endloop
  endfacet
  facet normal 1 0 0
    outer loop
      vertex 58.625 31.625 5.1
      vertex 58.625 3.375 6.6
      vertex 58.625 3.375 5.1
    endloop
  endfacet
  facet normal 0.707107 -0.707107 0
    outer loop
      vertex 56.625 1.375 6.6
      vertex 58.625 3.375 5.1
      vertex 58.625 3.375 6.6
    endloop
  endfacet
  facet normal 0.707107 -0.707107 0
    outer loop
      vertex 58.625 3.375 5.1
      vertex 56.625 1.375 6.6
      vertex 56.625 1.375 5.1
    endloop
  endfacet
  facet normal 0 1 -0
    outer loop
      vertex 56.625 33.625 5.1
      vertex 38.375 33.625 6.6
      vertex 56.625 33.625 6.6
    endloop
  endfacet
  facet normal 0 1 0
    outer loop
      vertex 38.375 33.625 6.6
      vertex 56.625 33.625 5.1
      vertex 38.375 33.625 5.1
    endloop
  endfacet
  facet normal 0 -0.707107 -0.707107
    outer loop
      vertex 38 2 9.53674e-07
      vertex 57 0 2
      vertex 38 0 2
    endloop
  endfacet
  facet normal 0 -0.707107 -0.707107
    outer loop
      vertex 57 0 2
      vertex 38 2 9.53674e-07
      vertex 57 2 9.53674e-07
    endloop
  endfacet
  facet normal -0.707107 -0.707107 0
    outer loop
      vertex 38 0 2
      vertex 35 3 5.1
      vertex 35 3 2
    endloop
  endfacet
  facet normal -0.707107 -0.707107 0
    outer loop
      vertex 35 3 5.1
      vertex 38 0 2
      vertex 38 0 5.1
    endloop
  endfacet
  facet normal -0.57735 0.57735 -0.57735
    outer loop
      vertex 35 32 2
      vertex 38 33 9.53674e-07
      vertex 37 32 9.53674e-07
    endloop
  endfacet
  facet normal -0.57735 0.57735 -0.57735
    outer loop
      vertex 38 33 9.53674e-07
      vertex 35 32 2
      vertex 38 35 2
    endloop
  endfacet
  facet normal 0 0.707107 -0.707107
    outer loop
      vertex 57 33 9.53674e-07
      vertex 38 35 2
      vertex 57 35 2
    endloop
  endfacet
  facet normal 0 0.707107 -0.707107
    outer loop
      vertex 38 35 2
      vertex 57 33 9.53674e-07
      vertex 38 33 9.53674e-07
    endloop
  endfacet
  facet normal 0 0 -1
    outer loop
      vertex 37 3 9.53674e-07
      vertex 58 3 9.53674e-07
      vertex 57 2 9.53674e-07
    endloop
  endfacet
  facet normal 0 0 -1
    outer loop
      vertex 58 3 9.53674e-07
      vertex 37 3 9.53674e-07
      vertex 58 32 9.53674e-07
    endloop
  endfacet
  facet normal 0 0 -1
    outer loop
      vertex 37 3 9.53674e-07
      vertex 57 2 9.53674e-07
      vertex 38 2 9.53674e-07
    endloop
  endfacet
  facet normal 0 0 -1
    outer loop
      vertex 37 32 9.53674e-07
      vertex 58 32 9.53674e-07
      vertex 37 3 9.53674e-07
    endloop
  endfacet
  facet normal 0 0 -1
    outer loop
      vertex 58 32 9.53674e-07
      vertex 37 32 9.53674e-07
      vertex 57 33 9.53674e-07
    endloop
  endfacet
  facet normal -0 0 -1
    outer loop
      vertex 57 33 9.53674e-07
      vertex 37 32 9.53674e-07
      vertex 38 33 9.53674e-07
    endloop
  endfacet
  facet normal -1 0 0
    outer loop
      vertex 35 3 2
      vertex 35 32 5.1
      vertex 35 32 2
    endloop
  endfacet
  facet normal -1 -0 0
    outer loop
      vertex 35 32 5.1
      vertex 35 3 2
      vertex 35 3 5.1
    endloop
  endfacet
  facet normal 0 -1 0
    outer loop
      vertex 38 0 2
      vertex 57 0 5.1
      vertex 38 0 5.1
    endloop
  endfacet
  facet normal 0 -1 -0
    outer loop
      vertex 57 0 5.1
      vertex 38 0 2
      vertex 57 0 2
    endloop
  endfacet
  facet normal -0.57735 -0.57735 -0.57735
    outer loop
      vertex 38 2 9.53674e-07
      vertex 35 3 2
      vertex 37 3 9.53674e-07
    endloop
  endfacet
  facet normal -0.57735 -0.57735 -0.57735
    outer loop
      vertex 35 3 2
      vertex 38 2 9.53674e-07
      vertex 38 0 2
    endloop
  endfacet
  facet normal 0 1 -0
    outer loop
      vertex 57 35 2
      vertex 38 35 5.1
      vertex 57 35 5.1
    endloop
  endfacet
  facet normal 0 1 0
    outer loop
      vertex 38 35 5.1
      vertex 57 35 2
      vertex 38 35 2
    endloop
  endfacet
  facet normal -0.707107 0 -0.707107
    outer loop
      vertex 37 3 9.53674e-07
      vertex 35 32 2
      vertex 37 32 9.53674e-07
    endloop
  endfacet
  facet normal -0.707107 -0 -0.707107
    outer loop
      vertex 35 32 2
      vertex 37 3 9.53674e-07
      vertex 35 3 2
    endloop
  endfacet
  facet normal 0.57735 0.57735 -0.57735
    outer loop
      vertex 60 32 2
      vertex 57 33 9.53674e-07
      vertex 57 35 2
    endloop
  endfacet
  facet normal 0.57735 0.57735 -0.57735
    outer loop
      vertex 57 33 9.53674e-07
      vertex 60 32 2
      vertex 58 32 9.53674e-07
    endloop
  endfacet
  facet normal 0.707107 0 -0.707107
    outer loop
      vertex 60 3 2
      vertex 58 32 9.53674e-07
      vertex 60 32 2
    endloop
  endfacet
  facet normal 0.707107 0 -0.707107
    outer loop
      vertex 58 32 9.53674e-07
      vertex 60 3 2
      vertex 58 3 9.53674e-07
    endloop
  endfacet
  facet normal 0.707107 0.707107 0
    outer loop
      vertex 60 32 5.1
      vertex 57 35 2
      vertex 57 35 5.1
    endloop
  endfacet
  facet normal 0.707107 0.707107 0
    outer loop
      vertex 57 35 2
      vertex 60 32 5.1
      vertex 60 32 2
    endloop
  endfacet
  facet normal 0.57735 -0.57735 -0.57735
    outer loop
      vertex 60 3 2
      vertex 57 2 9.53674e-07
      vertex 58 3 9.53674e-07
    endloop
  endfacet
  facet normal 0.57735 -0.57735 -0.57735
    outer loop
      vertex 57 2 9.53674e-07
      vertex 60 3 2
      vertex 57 0 2
    endloop
  endfacet
  facet normal 0.707107 -0.707107 0
    outer loop
      vertex 57 0 5.1
      vertex 60 3 2
      vertex 60 3 5.1
    endloop
  endfacet
  facet normal 0.707107 -0.707107 0
    outer loop
      vertex 60 3 2
      vertex 57 0 5.1
      vertex 57 0 2
    endloop
  endfacet
  facet normal 1 -0 0
    outer loop
      vertex 60 3 5.1
      vertex 60 32 2
      vertex 60 32 5.1
    endloop
  endfacet
  facet normal 1 0 0
    outer loop
      vertex 60 32 2
      vertex 60 3 5.1
      vertex 60 3 2
    endloop
  endfacet
endsolid OpenSCAD_Model
