%TF.GenerationSoftware,KiCad,Pcbnew,(6.0.10-0)*%
%TF.CreationDate,2023-01-05T15:58:35+00:00*%
%TF.ProjectId,LowPower,4c6f7750-6f77-4657-922e-6b696361645f,6*%
%TF.SameCoordinates,Original*%
%TF.FileFunction,Legend,Top*%
%TF.FilePolarity,Positive*%
%FSLAX46Y46*%
G04 Gerber Fmt 4.6, Leading zero omitted, Abs format (unit mm)*
G04 Created by KiCad (PCBNEW (6.0.10-0)) date 2023-01-05 15:58:35*
%MOMM*%
%LPD*%
G01*
G04 APERTURE LIST*
%ADD10C,0.150000*%
%ADD11C,0.080000*%
%ADD12C,0.120000*%
G04 APERTURE END LIST*
D10*
X118500000Y-121900000D02*
X119500000Y-121900000D01*
X133400000Y-119100000D02*
X130300000Y-119100000D01*
X125280000Y-127000000D02*
X121780000Y-127000000D01*
X127280000Y-127000000D02*
X130780000Y-127000000D01*
X118100000Y-119000000D02*
X118100000Y-121500000D01*
X118100000Y-121500000D02*
G75*
G03*
X118500000Y-121900000I400000J0D01*
G01*
X130300000Y-119100000D02*
G75*
G03*
X130000000Y-119400000I0J-300000D01*
G01*
D11*
X121356190Y-104507142D02*
X121118095Y-104673809D01*
X121356190Y-104792857D02*
X120856190Y-104792857D01*
X120856190Y-104602380D01*
X120880000Y-104554761D01*
X120903809Y-104530952D01*
X120951428Y-104507142D01*
X121022857Y-104507142D01*
X121070476Y-104530952D01*
X121094285Y-104554761D01*
X121118095Y-104602380D01*
X121118095Y-104792857D01*
X120880000Y-104030952D02*
X120856190Y-104078571D01*
X120856190Y-104150000D01*
X120880000Y-104221428D01*
X120927619Y-104269047D01*
X120975238Y-104292857D01*
X121070476Y-104316666D01*
X121141904Y-104316666D01*
X121237142Y-104292857D01*
X121284761Y-104269047D01*
X121332380Y-104221428D01*
X121356190Y-104150000D01*
X121356190Y-104102380D01*
X121332380Y-104030952D01*
X121308571Y-104007142D01*
X121141904Y-104007142D01*
X121141904Y-104102380D01*
X121094285Y-103626190D02*
X121118095Y-103554761D01*
X121141904Y-103530952D01*
X121189523Y-103507142D01*
X121260952Y-103507142D01*
X121308571Y-103530952D01*
X121332380Y-103554761D01*
X121356190Y-103602380D01*
X121356190Y-103792857D01*
X120856190Y-103792857D01*
X120856190Y-103626190D01*
X120880000Y-103578571D01*
X120903809Y-103554761D01*
X120951428Y-103530952D01*
X120999047Y-103530952D01*
X121046666Y-103554761D01*
X121070476Y-103578571D01*
X121094285Y-103626190D01*
X121094285Y-103792857D01*
X121308571Y-103292857D02*
X121332380Y-103269047D01*
X121356190Y-103292857D01*
X121332380Y-103316666D01*
X121308571Y-103292857D01*
X121356190Y-103292857D01*
X121046666Y-103292857D02*
X121070476Y-103269047D01*
X121094285Y-103292857D01*
X121070476Y-103316666D01*
X121046666Y-103292857D01*
X121094285Y-103292857D01*
X120856190Y-102721428D02*
X120856190Y-102411904D01*
X121046666Y-102578571D01*
X121046666Y-102507142D01*
X121070476Y-102459523D01*
X121094285Y-102435714D01*
X121141904Y-102411904D01*
X121260952Y-102411904D01*
X121308571Y-102435714D01*
X121332380Y-102459523D01*
X121356190Y-102507142D01*
X121356190Y-102650000D01*
X121332380Y-102697619D01*
X121308571Y-102721428D01*
X120903809Y-102221428D02*
X120880000Y-102197619D01*
X120856190Y-102150000D01*
X120856190Y-102030952D01*
X120880000Y-101983333D01*
X120903809Y-101959523D01*
X120951428Y-101935714D01*
X120999047Y-101935714D01*
X121070476Y-101959523D01*
X121356190Y-102245238D01*
X121356190Y-101935714D01*
X120832380Y-101364285D02*
X121475238Y-101792857D01*
X120903809Y-101221428D02*
X120880000Y-101197619D01*
X120856190Y-101150000D01*
X120856190Y-101030952D01*
X120880000Y-100983333D01*
X120903809Y-100959523D01*
X120951428Y-100935714D01*
X120999047Y-100935714D01*
X121070476Y-100959523D01*
X121356190Y-101245238D01*
X121356190Y-100935714D01*
X120856190Y-100483333D02*
X120856190Y-100721428D01*
X121094285Y-100745238D01*
X121070476Y-100721428D01*
X121046666Y-100673809D01*
X121046666Y-100554761D01*
X121070476Y-100507142D01*
X121094285Y-100483333D01*
X121141904Y-100459523D01*
X121260952Y-100459523D01*
X121308571Y-100483333D01*
X121332380Y-100507142D01*
X121356190Y-100554761D01*
X121356190Y-100673809D01*
X121332380Y-100721428D01*
X121308571Y-100745238D01*
X120832380Y-99888095D02*
X121475238Y-100316666D01*
X120856190Y-99769047D02*
X120856190Y-99459523D01*
X121046666Y-99626190D01*
X121046666Y-99554761D01*
X121070476Y-99507142D01*
X121094285Y-99483333D01*
X121141904Y-99459523D01*
X121260952Y-99459523D01*
X121308571Y-99483333D01*
X121332380Y-99507142D01*
X121356190Y-99554761D01*
X121356190Y-99697619D01*
X121332380Y-99745238D01*
X121308571Y-99769047D01*
X120856190Y-99292857D02*
X120856190Y-98983333D01*
X121046666Y-99150000D01*
X121046666Y-99078571D01*
X121070476Y-99030952D01*
X121094285Y-99007142D01*
X121141904Y-98983333D01*
X121260952Y-98983333D01*
X121308571Y-99007142D01*
X121332380Y-99030952D01*
X121356190Y-99078571D01*
X121356190Y-99221428D01*
X121332380Y-99269047D01*
X121308571Y-99292857D01*
X120095238Y-121792857D02*
X120095238Y-122126190D01*
X119976190Y-121602380D02*
X119857142Y-121959523D01*
X120166666Y-121959523D01*
X125511904Y-126726190D02*
X125821428Y-126726190D01*
X125654761Y-126916666D01*
X125726190Y-126916666D01*
X125773809Y-126940476D01*
X125797619Y-126964285D01*
X125821428Y-127011904D01*
X125821428Y-127130952D01*
X125797619Y-127178571D01*
X125773809Y-127202380D01*
X125726190Y-127226190D01*
X125583333Y-127226190D01*
X125535714Y-127202380D01*
X125511904Y-127178571D01*
X126035714Y-127178571D02*
X126059523Y-127202380D01*
X126035714Y-127226190D01*
X126011904Y-127202380D01*
X126035714Y-127178571D01*
X126035714Y-127226190D01*
X126226190Y-126726190D02*
X126535714Y-126726190D01*
X126369047Y-126916666D01*
X126440476Y-126916666D01*
X126488095Y-126940476D01*
X126511904Y-126964285D01*
X126535714Y-127011904D01*
X126535714Y-127130952D01*
X126511904Y-127178571D01*
X126488095Y-127202380D01*
X126440476Y-127226190D01*
X126297619Y-127226190D01*
X126250000Y-127202380D01*
X126226190Y-127178571D01*
X126678571Y-126726190D02*
X126845238Y-127226190D01*
X127011904Y-126726190D01*
X129904761Y-122126190D02*
X129619047Y-122126190D01*
X129761904Y-122126190D02*
X129761904Y-121626190D01*
X129714285Y-121697619D01*
X129666666Y-121745238D01*
X129619047Y-121769047D01*
X130071428Y-121626190D02*
X130380952Y-121626190D01*
X130214285Y-121816666D01*
X130285714Y-121816666D01*
X130333333Y-121840476D01*
X130357142Y-121864285D01*
X130380952Y-121911904D01*
X130380952Y-122030952D01*
X130357142Y-122078571D01*
X130333333Y-122102380D01*
X130285714Y-122126190D01*
X130142857Y-122126190D01*
X130095238Y-122102380D01*
X130071428Y-122078571D01*
X134440476Y-119338095D02*
X134440476Y-118861904D01*
X134583333Y-119242857D02*
X134583333Y-118957142D01*
X134226190Y-119100000D02*
X134440476Y-119100000D01*
X134726190Y-119052380D02*
X134726190Y-119147619D01*
X124857142Y-121673809D02*
X124880952Y-121650000D01*
X124928571Y-121626190D01*
X125047619Y-121626190D01*
X125095238Y-121650000D01*
X125119047Y-121673809D01*
X125142857Y-121721428D01*
X125142857Y-121769047D01*
X125119047Y-121840476D01*
X124833333Y-122126190D01*
X125142857Y-122126190D01*
D10*
X117315714Y-112757142D02*
X117982380Y-112566666D01*
X117506190Y-112376190D01*
X117982380Y-112185714D01*
X117315714Y-111995238D01*
X117315714Y-111709523D02*
X117982380Y-111519047D01*
X117506190Y-111328571D01*
X117982380Y-111138095D01*
X117315714Y-110947619D01*
X117315714Y-110661904D02*
X117982380Y-110471428D01*
X117506190Y-110280952D01*
X117982380Y-110090476D01*
X117315714Y-109900000D01*
X117887142Y-109519047D02*
X117934761Y-109471428D01*
X117982380Y-109519047D01*
X117934761Y-109566666D01*
X117887142Y-109519047D01*
X117982380Y-109519047D01*
X117982380Y-109042857D02*
X117315714Y-109042857D01*
X117410952Y-109042857D02*
X117363333Y-108995238D01*
X117315714Y-108900000D01*
X117315714Y-108757142D01*
X117363333Y-108661904D01*
X117458571Y-108614285D01*
X117982380Y-108614285D01*
X117458571Y-108614285D02*
X117363333Y-108566666D01*
X117315714Y-108471428D01*
X117315714Y-108328571D01*
X117363333Y-108233333D01*
X117458571Y-108185714D01*
X117982380Y-108185714D01*
X117934761Y-107328571D02*
X117982380Y-107423809D01*
X117982380Y-107614285D01*
X117934761Y-107709523D01*
X117839523Y-107757142D01*
X117458571Y-107757142D01*
X117363333Y-107709523D01*
X117315714Y-107614285D01*
X117315714Y-107423809D01*
X117363333Y-107328571D01*
X117458571Y-107280952D01*
X117553809Y-107280952D01*
X117649047Y-107757142D01*
X117887142Y-106852380D02*
X117934761Y-106804761D01*
X117982380Y-106852380D01*
X117934761Y-106900000D01*
X117887142Y-106852380D01*
X117982380Y-106852380D01*
X117315714Y-105947619D02*
X117982380Y-105947619D01*
X117315714Y-106376190D02*
X117839523Y-106376190D01*
X117934761Y-106328571D01*
X117982380Y-106233333D01*
X117982380Y-106090476D01*
X117934761Y-105995238D01*
X117887142Y-105947619D01*
X117982380Y-105471428D02*
X116982380Y-105471428D01*
X117601428Y-105376190D02*
X117982380Y-105090476D01*
X117315714Y-105090476D02*
X117696666Y-105471428D01*
D11*
X118869047Y-127226190D02*
X118869047Y-126726190D01*
X118988095Y-126726190D01*
X119059523Y-126750000D01*
X119107142Y-126797619D01*
X119130952Y-126845238D01*
X119154761Y-126940476D01*
X119154761Y-127011904D01*
X119130952Y-127107142D01*
X119107142Y-127154761D01*
X119059523Y-127202380D01*
X118988095Y-127226190D01*
X118869047Y-127226190D01*
X119654761Y-127178571D02*
X119630952Y-127202380D01*
X119559523Y-127226190D01*
X119511904Y-127226190D01*
X119440476Y-127202380D01*
X119392857Y-127154761D01*
X119369047Y-127107142D01*
X119345238Y-127011904D01*
X119345238Y-126940476D01*
X119369047Y-126845238D01*
X119392857Y-126797619D01*
X119440476Y-126750000D01*
X119511904Y-126726190D01*
X119559523Y-126726190D01*
X119630952Y-126750000D01*
X119654761Y-126773809D01*
X131511904Y-121940476D02*
X131988095Y-121940476D01*
X131607142Y-122083333D02*
X131892857Y-122083333D01*
X131750000Y-121726190D02*
X131750000Y-121940476D01*
X131797619Y-122226190D02*
X131702380Y-122226190D01*
X119695238Y-117692857D02*
X119695238Y-118026190D01*
X119576190Y-117502380D02*
X119457142Y-117859523D01*
X119766666Y-117859523D01*
X122119047Y-121673809D02*
X122142857Y-121650000D01*
X122190476Y-121626190D01*
X122309523Y-121626190D01*
X122357142Y-121650000D01*
X122380952Y-121673809D01*
X122404761Y-121721428D01*
X122404761Y-121769047D01*
X122380952Y-121840476D01*
X122095238Y-122126190D01*
X122404761Y-122126190D01*
X122571428Y-121626190D02*
X122904761Y-121626190D01*
X122690476Y-122126190D01*
X131976190Y-123630952D02*
X131476190Y-123630952D01*
X131476190Y-123511904D01*
X131500000Y-123440476D01*
X131547619Y-123392857D01*
X131595238Y-123369047D01*
X131690476Y-123345238D01*
X131761904Y-123345238D01*
X131857142Y-123369047D01*
X131904761Y-123392857D01*
X131952380Y-123440476D01*
X131976190Y-123511904D01*
X131976190Y-123630952D01*
X131928571Y-122845238D02*
X131952380Y-122869047D01*
X131976190Y-122940476D01*
X131976190Y-122988095D01*
X131952380Y-123059523D01*
X131904761Y-123107142D01*
X131857142Y-123130952D01*
X131761904Y-123154761D01*
X131690476Y-123154761D01*
X131595238Y-123130952D01*
X131547619Y-123107142D01*
X131500000Y-123059523D01*
X131476190Y-122988095D01*
X131476190Y-122940476D01*
X131500000Y-122869047D01*
X131523809Y-122845238D01*
X131690476Y-125988095D02*
X131690476Y-125511904D01*
X131833333Y-125892857D02*
X131833333Y-125607142D01*
X131476190Y-125750000D02*
X131690476Y-125750000D01*
X131976190Y-125702380D02*
X131976190Y-125797619D01*
X127404761Y-122126190D02*
X127119047Y-122126190D01*
X127261904Y-122126190D02*
X127261904Y-121626190D01*
X127214285Y-121697619D01*
X127166666Y-121745238D01*
X127119047Y-121769047D01*
X127857142Y-121626190D02*
X127619047Y-121626190D01*
X127595238Y-121864285D01*
X127619047Y-121840476D01*
X127666666Y-121816666D01*
X127785714Y-121816666D01*
X127833333Y-121840476D01*
X127857142Y-121864285D01*
X127880952Y-121911904D01*
X127880952Y-122030952D01*
X127857142Y-122078571D01*
X127833333Y-122102380D01*
X127785714Y-122126190D01*
X127666666Y-122126190D01*
X127619047Y-122102380D01*
X127595238Y-122078571D01*
D12*
%TO.C,R2*%
X130900000Y-125077064D02*
X130900000Y-123622936D01*
X129080000Y-125077064D02*
X129080000Y-123622936D01*
%TO.C,R3*%
X126580000Y-125077064D02*
X126580000Y-123622936D01*
X128400000Y-125077064D02*
X128400000Y-123622936D01*
%TO.C,R4*%
X124080000Y-125077064D02*
X124080000Y-123622936D01*
X125900000Y-125077064D02*
X125900000Y-123622936D01*
%TO.C,R5*%
X123400000Y-125077064D02*
X123400000Y-123622936D01*
X121580000Y-125077064D02*
X121580000Y-123622936D01*
%TO.C,R6*%
X118310000Y-125077064D02*
X118310000Y-123622936D01*
X120130000Y-125077064D02*
X120130000Y-123622936D01*
%TO.C,J3*%
X134860000Y-124530000D02*
X134860000Y-121930000D01*
X134860000Y-121930000D02*
X132200000Y-121930000D01*
X134860000Y-125800000D02*
X134860000Y-127130000D01*
X134860000Y-124530000D02*
X132200000Y-124530000D01*
X134860000Y-127130000D02*
X133530000Y-127130000D01*
X132200000Y-124530000D02*
X132200000Y-121930000D01*
%TO.C,C1*%
X135450000Y-118372936D02*
X135450000Y-119827064D01*
X133630000Y-118372936D02*
X133630000Y-119827064D01*
%TO.C,R1*%
X120030000Y-107200000D02*
X119430000Y-107200000D01*
X120030000Y-106200000D02*
X119430000Y-106200000D01*
%TO.C,R10*%
X118430000Y-102900000D02*
X119030000Y-102900000D01*
X118430000Y-101900000D02*
X119030000Y-101900000D01*
%TO.C,R19*%
X122830000Y-105200000D02*
X123430000Y-105200000D01*
X122830000Y-106200000D02*
X123430000Y-106200000D01*
%TO.C,R20*%
X123430000Y-106400000D02*
X122830000Y-106400000D01*
X123430000Y-107400000D02*
X122830000Y-107400000D01*
%TO.C,Q1*%
X120230000Y-107400000D02*
X120230000Y-109400000D01*
X119230000Y-107400000D02*
X120230000Y-107400000D01*
X120230000Y-109400000D02*
X119230000Y-109400000D01*
X119230000Y-109400000D02*
X119230000Y-107400000D01*
%TO.C,D2*%
X126765000Y-109000000D02*
X126765000Y-105115000D01*
X126765000Y-105115000D02*
X124495000Y-105115000D01*
X124495000Y-105115000D02*
X124495000Y-109000000D01*
%TO.C,R15*%
X124030000Y-101900000D02*
X124630000Y-101900000D01*
X124030000Y-100900000D02*
X124630000Y-100900000D01*
%TO.C,R18*%
X125830000Y-103400000D02*
X125830000Y-104000000D01*
X126830000Y-103400000D02*
X126830000Y-104000000D01*
%TO.C,U3*%
X123630000Y-104860000D02*
X125030000Y-104860000D01*
X125030000Y-102540000D02*
X123130000Y-102540000D01*
%TO.C,C2*%
X119271421Y-114734315D02*
X119695685Y-115158579D01*
X118564315Y-115441421D02*
X118988579Y-115865685D01*
%TO.C,R12*%
X127130000Y-108200000D02*
X127130000Y-108800000D01*
X128130000Y-108200000D02*
X128130000Y-108800000D01*
%TO.C,R7*%
X118852936Y-116880000D02*
X120307064Y-116880000D01*
X118852936Y-118700000D02*
X120307064Y-118700000D01*
%TO.C,D4*%
X122480000Y-116775000D02*
X123080000Y-116775000D01*
%TO.C,D3*%
X126730000Y-116775000D02*
X127330000Y-116775000D01*
%TO.C,R11*%
X127130000Y-114100000D02*
X127130000Y-114700000D01*
X128130000Y-114100000D02*
X128130000Y-114700000D01*
%TO.C,R13*%
X125930000Y-114700000D02*
X125930000Y-114100000D01*
X126930000Y-114700000D02*
X126930000Y-114100000D01*
%TO.C,R14*%
X125730000Y-114100000D02*
X125730000Y-114700000D01*
X124730000Y-114100000D02*
X124730000Y-114700000D01*
%TO.C,D1*%
X118730000Y-99700000D02*
X118730000Y-100700000D01*
X119830000Y-99700000D02*
X118730000Y-99700000D01*
%TO.C,R8*%
X118430000Y-101700000D02*
X119030000Y-101700000D01*
X118430000Y-100700000D02*
X119030000Y-100700000D01*
%TO.C,R9*%
X118430000Y-103100000D02*
X119030000Y-103100000D01*
X118430000Y-104100000D02*
X119030000Y-104100000D01*
%TO.C,C5*%
X122930000Y-109800000D02*
X123530000Y-109800000D01*
X122930000Y-108800000D02*
X123530000Y-108800000D01*
%TO.C,C3*%
X131830000Y-117275000D02*
X131830000Y-117875000D01*
X132830000Y-117275000D02*
X132830000Y-117875000D01*
%TO.C,C4*%
X131630000Y-117275000D02*
X131630000Y-117875000D01*
X130630000Y-117275000D02*
X130630000Y-117875000D01*
%TO.C,R17*%
X123630000Y-99100000D02*
X124230000Y-99100000D01*
X123630000Y-100100000D02*
X124230000Y-100100000D01*
%TO.C,U2*%
X124340000Y-114085000D02*
X124340000Y-114810000D01*
X124340000Y-110590000D02*
X123615000Y-110590000D01*
X120120000Y-110590000D02*
X120845000Y-110590000D01*
X124340000Y-114810000D02*
X123615000Y-114810000D01*
X120120000Y-111315000D02*
X120120000Y-110590000D01*
X124340000Y-111315000D02*
X124340000Y-110590000D01*
X120712843Y-114500000D02*
G75*
G03*
X120712843Y-114500000I-282843J0D01*
G01*
%TO.C,R16*%
X126930000Y-100100000D02*
X126330000Y-100100000D01*
X126930000Y-99100000D02*
X126330000Y-99100000D01*
%TO.C,U4*%
X131315000Y-104125000D02*
X131315000Y-105725000D01*
X128040000Y-101075000D02*
X131140000Y-101075000D01*
%TD*%
M02*
