%TF.GenerationSoftware,KiCad,Pcbnew,(6.0.9-0)*%
%TF.CreationDate,2023-01-05T13:48:49+00:00*%
%TF.ProjectId,USBA,55534241-2e6b-4696-9361-645f70636258,1*%
%TF.SameCoordinates,Original*%
%TF.FileFunction,Legend,Bot*%
%TF.FilePolarity,Positive*%
%FSLAX46Y46*%
G04 Gerber Fmt 4.6, Leading zero omitted, Abs format (unit mm)*
G04 Created by KiCad (PCBNEW (6.0.9-0)) date 2023-01-05 13:48:49*
%MOMM*%
%LPD*%
G01*
G04 APERTURE LIST*
%ADD10C,0.200000*%
%ADD11C,0.100000*%
%ADD12C,0.080000*%
G04 APERTURE END LIST*
D10*
X126321428Y-128232142D02*
X126083333Y-129065476D01*
X125845238Y-128470238D01*
X125607142Y-129065476D01*
X125369047Y-128232142D01*
X125011904Y-128232142D02*
X124773809Y-129065476D01*
X124535714Y-128470238D01*
X124297619Y-129065476D01*
X124059523Y-128232142D01*
X123702380Y-128232142D02*
X123464285Y-129065476D01*
X123226190Y-128470238D01*
X122988095Y-129065476D01*
X122750000Y-128232142D01*
X122273809Y-128946428D02*
X122214285Y-129005952D01*
X122273809Y-129065476D01*
X122333333Y-129005952D01*
X122273809Y-128946428D01*
X122273809Y-129065476D01*
X121678571Y-129065476D02*
X121678571Y-128232142D01*
X121678571Y-128351190D02*
X121619047Y-128291666D01*
X121500000Y-128232142D01*
X121321428Y-128232142D01*
X121202380Y-128291666D01*
X121142857Y-128410714D01*
X121142857Y-129065476D01*
X121142857Y-128410714D02*
X121083333Y-128291666D01*
X120964285Y-128232142D01*
X120785714Y-128232142D01*
X120666666Y-128291666D01*
X120607142Y-128410714D01*
X120607142Y-129065476D01*
X119535714Y-129005952D02*
X119654761Y-129065476D01*
X119892857Y-129065476D01*
X120011904Y-129005952D01*
X120071428Y-128886904D01*
X120071428Y-128410714D01*
X120011904Y-128291666D01*
X119892857Y-128232142D01*
X119654761Y-128232142D01*
X119535714Y-128291666D01*
X119476190Y-128410714D01*
X119476190Y-128529761D01*
X120071428Y-128648809D01*
X118940476Y-128946428D02*
X118880952Y-129005952D01*
X118940476Y-129065476D01*
X119000000Y-129005952D01*
X118940476Y-128946428D01*
X118940476Y-129065476D01*
X117809523Y-128232142D02*
X117809523Y-129065476D01*
X118345238Y-128232142D02*
X118345238Y-128886904D01*
X118285714Y-129005952D01*
X118166666Y-129065476D01*
X117988095Y-129065476D01*
X117869047Y-129005952D01*
X117809523Y-128946428D01*
X117214285Y-129065476D02*
X117214285Y-127815476D01*
X117095238Y-128589285D02*
X116738095Y-129065476D01*
X116738095Y-128232142D02*
X117214285Y-128708333D01*
D11*
%TO.C,U1*%
X125142857Y-107260714D02*
X125107142Y-107225000D01*
X125035714Y-107189285D01*
X124857142Y-107189285D01*
X124785714Y-107225000D01*
X124750000Y-107260714D01*
X124714285Y-107332142D01*
X124714285Y-107403571D01*
X124750000Y-107510714D01*
X125178571Y-107939285D01*
X124714285Y-107939285D01*
X124250000Y-107189285D02*
X124178571Y-107189285D01*
X124107142Y-107225000D01*
X124071428Y-107260714D01*
X124035714Y-107332142D01*
X124000000Y-107475000D01*
X124000000Y-107653571D01*
X124035714Y-107796428D01*
X124071428Y-107867857D01*
X124107142Y-107903571D01*
X124178571Y-107939285D01*
X124250000Y-107939285D01*
X124321428Y-107903571D01*
X124357142Y-107867857D01*
X124392857Y-107796428D01*
X124428571Y-107653571D01*
X124428571Y-107475000D01*
X124392857Y-107332142D01*
X124357142Y-107260714D01*
X124321428Y-107225000D01*
X124250000Y-107189285D01*
X123714285Y-107260714D02*
X123678571Y-107225000D01*
X123607142Y-107189285D01*
X123428571Y-107189285D01*
X123357142Y-107225000D01*
X123321428Y-107260714D01*
X123285714Y-107332142D01*
X123285714Y-107403571D01*
X123321428Y-107510714D01*
X123750000Y-107939285D01*
X123285714Y-107939285D01*
X123035714Y-107189285D02*
X122571428Y-107189285D01*
X122821428Y-107475000D01*
X122714285Y-107475000D01*
X122642857Y-107510714D01*
X122607142Y-107546428D01*
X122571428Y-107617857D01*
X122571428Y-107796428D01*
X122607142Y-107867857D01*
X122642857Y-107903571D01*
X122714285Y-107939285D01*
X122928571Y-107939285D01*
X123000000Y-107903571D01*
X123035714Y-107867857D01*
X122250000Y-107653571D02*
X121678571Y-107653571D01*
X121178571Y-107189285D02*
X121107142Y-107189285D01*
X121035714Y-107225000D01*
X121000000Y-107260714D01*
X120964285Y-107332142D01*
X120928571Y-107475000D01*
X120928571Y-107653571D01*
X120964285Y-107796428D01*
X121000000Y-107867857D01*
X121035714Y-107903571D01*
X121107142Y-107939285D01*
X121178571Y-107939285D01*
X121250000Y-107903571D01*
X121285714Y-107867857D01*
X121321428Y-107796428D01*
X121357142Y-107653571D01*
X121357142Y-107475000D01*
X121321428Y-107332142D01*
X121285714Y-107260714D01*
X121250000Y-107225000D01*
X121178571Y-107189285D01*
X120214285Y-107939285D02*
X120642857Y-107939285D01*
X120428571Y-107939285D02*
X120428571Y-107189285D01*
X120500000Y-107296428D01*
X120571428Y-107367857D01*
X120642857Y-107403571D01*
X119892857Y-107653571D02*
X119321428Y-107653571D01*
X118821428Y-107189285D02*
X118750000Y-107189285D01*
X118678571Y-107225000D01*
X118642857Y-107260714D01*
X118607142Y-107332142D01*
X118571428Y-107475000D01*
X118571428Y-107653571D01*
X118607142Y-107796428D01*
X118642857Y-107867857D01*
X118678571Y-107903571D01*
X118750000Y-107939285D01*
X118821428Y-107939285D01*
X118892857Y-107903571D01*
X118928571Y-107867857D01*
X118964285Y-107796428D01*
X119000000Y-107653571D01*
X119000000Y-107475000D01*
X118964285Y-107332142D01*
X118928571Y-107260714D01*
X118892857Y-107225000D01*
X118821428Y-107189285D01*
X118321428Y-107189285D02*
X117857142Y-107189285D01*
X118107142Y-107475000D01*
X118000000Y-107475000D01*
X117928571Y-107510714D01*
X117892857Y-107546428D01*
X117857142Y-107617857D01*
X117857142Y-107796428D01*
X117892857Y-107867857D01*
X117928571Y-107903571D01*
X118000000Y-107939285D01*
X118214285Y-107939285D01*
X118285714Y-107903571D01*
X118321428Y-107867857D01*
D12*
%TO.C,J2*%
X125539551Y-118573730D02*
X125876269Y-118910448D01*
X125707910Y-118540059D02*
X125909940Y-118742089D01*
X125556387Y-118893612D02*
X125707910Y-118742089D01*
X125943612Y-118573730D02*
X125876269Y-118506387D01*
X118121582Y-118371700D02*
X117852208Y-118641074D01*
X117852208Y-118506387D02*
X117852208Y-118641074D01*
X117986895Y-118641074D01*
X118037402Y-118994627D02*
X118256269Y-119213494D01*
X118273104Y-118960956D01*
X118323612Y-119011463D01*
X118374120Y-119028299D01*
X118407791Y-119028299D01*
X118458299Y-119011463D01*
X118542478Y-118927284D01*
X118559314Y-118876776D01*
X118559314Y-118843104D01*
X118542478Y-118792597D01*
X118441463Y-118691582D01*
X118390956Y-118674746D01*
X118357284Y-118674746D01*
X122999551Y-118876776D02*
X123033223Y-118910448D01*
X123083730Y-118927284D01*
X123117402Y-118927284D01*
X123167910Y-118910448D01*
X123252089Y-118859940D01*
X123336269Y-118775761D01*
X123386776Y-118691582D01*
X123403612Y-118641074D01*
X123403612Y-118607402D01*
X123386776Y-118556895D01*
X123353104Y-118523223D01*
X123302597Y-118506387D01*
X123268925Y-118506387D01*
X123218417Y-118523223D01*
X123134238Y-118573730D01*
X123050059Y-118657910D01*
X122999551Y-118742089D01*
X122982715Y-118792597D01*
X122982715Y-118826269D01*
X122999551Y-118876776D01*
X115312208Y-118641074D02*
X115581582Y-118371700D01*
X115581582Y-118506387D02*
X115581582Y-118371700D01*
X115446895Y-118371700D01*
X116069822Y-118859940D02*
X115867791Y-118657910D01*
X115968807Y-118758925D02*
X115615253Y-119112478D01*
X115632089Y-119028299D01*
X115632089Y-118960956D01*
X115615253Y-118910448D01*
X120038654Y-118455879D02*
X120257521Y-118674746D01*
X120274356Y-118422208D01*
X120324864Y-118472715D01*
X120375372Y-118489551D01*
X120409043Y-118489551D01*
X120459551Y-118472715D01*
X120543730Y-118388536D01*
X120560566Y-118338028D01*
X120560566Y-118304356D01*
X120543730Y-118253849D01*
X120442715Y-118152834D01*
X120392208Y-118135998D01*
X120358536Y-118135998D01*
X120358536Y-118775761D02*
X120829940Y-118540059D01*
X120594238Y-119011463D01*
X120678417Y-119095643D02*
X120897284Y-119314509D01*
X120914120Y-119061971D01*
X120964627Y-119112478D01*
X121015135Y-119129314D01*
X121048807Y-119129314D01*
X121099314Y-119112478D01*
X121183494Y-119028299D01*
X121200330Y-118977791D01*
X121200330Y-118944120D01*
X121183494Y-118893612D01*
X121082478Y-118792597D01*
X121031971Y-118775761D01*
X120998299Y-118775761D01*
D10*
%TO.C,U1*%
X115000000Y-106100000D02*
X115000000Y-106600000D01*
X115000000Y-115800000D02*
X115000000Y-116700000D01*
X128000000Y-116700000D02*
X127100000Y-116700000D01*
X128000000Y-115800000D02*
X128000000Y-116700000D01*
X128000000Y-106100000D02*
X128000000Y-106600000D01*
X115000000Y-116700000D02*
X115900000Y-116700000D01*
%TD*%
M02*
