%TF.GenerationSoftware,KiCad,Pcbnew,(6.0.0-0)*%
%TF.CreationDate,2021-12-30T08:08:27+00:00*%
%TF.ProjectId,USBA,55534241-2e6b-4696-9361-645f70636258,1*%
%TF.SameCoordinates,Original*%
%TF.FileFunction,Paste,Top*%
%TF.FilePolarity,Positive*%
%FSLAX46Y46*%
G04 Gerber Fmt 4.6, Leading zero omitted, Abs format (unit mm)*
G04 Created by KiCad (PCBNEW (6.0.0-0)) date 2021-12-30 08:08:27*
%MOMM*%
%LPD*%
G01*
G04 APERTURE LIST*
G04 Aperture macros list*
%AMRoundRect*
0 Rectangle with rounded corners*
0 $1 Rounding radius*
0 $2 $3 $4 $5 $6 $7 $8 $9 X,Y pos of 4 corners*
0 Add a 4 corners polygon primitive as box body*
4,1,4,$2,$3,$4,$5,$6,$7,$8,$9,$2,$3,0*
0 Add four circle primitives for the rounded corners*
1,1,$1+$1,$2,$3*
1,1,$1+$1,$4,$5*
1,1,$1+$1,$6,$7*
1,1,$1+$1,$8,$9*
0 Add four rect primitives between the rounded corners*
20,1,$1+$1,$2,$3,$4,$5,0*
20,1,$1+$1,$4,$5,$6,$7,0*
20,1,$1+$1,$6,$7,$8,$9,0*
20,1,$1+$1,$8,$9,$2,$3,0*%
G04 Aperture macros list end*
%ADD10R,1.920000X1.248000*%
%ADD11RoundRect,0.250000X-0.350000X-0.250000X0.350000X-0.250000X0.350000X0.250000X-0.350000X0.250000X0*%
%ADD12R,0.576000X1.056000*%
%ADD13R,1.368000X3.552000*%
%ADD14RoundRect,0.220875X-0.463125X-0.619125X0.463125X-0.619125X0.463125X0.619125X-0.463125X0.619125X0*%
%ADD15RoundRect,0.207000X0.249000X-0.225000X0.249000X0.225000X-0.249000X0.225000X-0.249000X-0.225000X0*%
%ADD16RoundRect,0.230000X-0.466000X0.250000X-0.466000X-0.250000X0.466000X-0.250000X0.466000X0.250000X0*%
%ADD17R,0.816000X0.480000*%
%ADD18RoundRect,0.184000X-0.200000X-0.272000X0.200000X-0.272000X0.200000X0.272000X-0.200000X0.272000X0*%
%ADD19RoundRect,0.186000X-0.189000X-0.189000X0.189000X-0.189000X0.189000X0.189000X-0.189000X0.189000X0*%
%ADD20RoundRect,0.048500X-0.287500X-0.071500X0.287500X-0.071500X0.287500X0.071500X-0.287500X0.071500X0*%
%ADD21RoundRect,0.057500X-0.062500X-0.278500X0.062500X-0.278500X0.062500X0.278500X-0.062500X0.278500X0*%
G04 APERTURE END LIST*
D10*
%TO.C,SW1*%
X117300000Y-118350000D03*
X125700000Y-118350000D03*
X117300000Y-113850000D03*
X125700000Y-113850000D03*
%TD*%
D11*
%TO.C,U3*%
X130260000Y-103350000D03*
D12*
X125810000Y-100800000D03*
D11*
X130260000Y-102200000D03*
X130260000Y-101050000D03*
X127260000Y-102200000D03*
X127260000Y-101050000D03*
D13*
X127260000Y-102200000D03*
D11*
X127260000Y-103350000D03*
D12*
X125810000Y-103500000D03*
D14*
X125657500Y-105320000D03*
D15*
X122760000Y-102925000D03*
X122760000Y-101375000D03*
D12*
X123910000Y-103500000D03*
X124860000Y-103500000D03*
D16*
X124010000Y-104750000D03*
X124010000Y-106650000D03*
D12*
X124860000Y-100800000D03*
D14*
X128622500Y-105320000D03*
D16*
X130260000Y-106650000D03*
D12*
X123910000Y-100800000D03*
D16*
X130260000Y-104750000D03*
%TD*%
D17*
%TO.C,D1*%
X114975000Y-100600000D03*
X113225000Y-100600000D03*
X113225000Y-99600000D03*
X114975000Y-99600000D03*
%TD*%
D18*
%TO.C,R2*%
X113275000Y-104000000D03*
X114925000Y-104000000D03*
%TD*%
%TO.C,R1*%
X113275000Y-101600000D03*
X114925000Y-101600000D03*
%TD*%
D19*
%TO.C,U2*%
X118400000Y-108900000D03*
X117400000Y-108900000D03*
X117400000Y-107900000D03*
X118400000Y-107900000D03*
D20*
X116000000Y-107400000D03*
X116000000Y-107900000D03*
X116000000Y-108400000D03*
X116000000Y-108900000D03*
X116000000Y-109400000D03*
D21*
X116900000Y-110300000D03*
X117400000Y-110300000D03*
X117900000Y-110300000D03*
X118400000Y-110300000D03*
X118900000Y-110300000D03*
D20*
X119800000Y-109400000D03*
X119800000Y-108900000D03*
X119800000Y-108400000D03*
X119800000Y-107900000D03*
X119800000Y-107400000D03*
D21*
X118900000Y-106500000D03*
X118400000Y-106500000D03*
X117900000Y-106500000D03*
X117400000Y-106500000D03*
X116900000Y-106500000D03*
%TD*%
D15*
%TO.C,C1*%
X117200000Y-103075000D03*
X117200000Y-101525000D03*
%TD*%
D18*
%TO.C,R3*%
X113275000Y-102800000D03*
X114925000Y-102800000D03*
%TD*%
M02*
