%TF.GenerationSoftware,KiCad,Pcbnew,(6.0.9-0)*%
%TF.CreationDate,2023-01-03T12:34:00+00:00*%
%TF.ProjectId,USBA,55534241-2e6b-4696-9361-645f70636258,1*%
%TF.SameCoordinates,Original*%
%TF.FileFunction,Soldermask,Top*%
%TF.FilePolarity,Negative*%
%FSLAX46Y46*%
G04 Gerber Fmt 4.6, Leading zero omitted, Abs format (unit mm)*
G04 Created by KiCad (PCBNEW (6.0.9-0)) date 2023-01-03 12:34:00*
%MOMM*%
%LPD*%
G01*
G04 APERTURE LIST*
G04 Aperture macros list*
%AMRoundRect*
0 Rectangle with rounded corners*
0 $1 Rounding radius*
0 $2 $3 $4 $5 $6 $7 $8 $9 X,Y pos of 4 corners*
0 Add a 4 corners polygon primitive as box body*
4,1,4,$2,$3,$4,$5,$6,$7,$8,$9,$2,$3,0*
0 Add four circle primitives for the rounded corners*
1,1,$1+$1,$2,$3*
1,1,$1+$1,$4,$5*
1,1,$1+$1,$6,$7*
1,1,$1+$1,$8,$9*
0 Add four rect primitives between the rounded corners*
20,1,$1+$1,$2,$3,$4,$5,0*
20,1,$1+$1,$4,$5,$6,$7,0*
20,1,$1+$1,$6,$7,$8,$9,0*
20,1,$1+$1,$8,$9,$2,$3,0*%
%AMOutline5P*
0 Free polygon, 5 corners , with rotation*
0 The origin of the aperture is its center*
0 number of corners: always 5*
0 $1 to $10 corner X, Y*
0 $11 Rotation angle, in degrees counterclockwise*
0 create outline with 5 corners*
4,1,5,$1,$2,$3,$4,$5,$6,$7,$8,$9,$10,$1,$2,$11*%
%AMOutline6P*
0 Free polygon, 6 corners , with rotation*
0 The origin of the aperture is its center*
0 number of corners: always 6*
0 $1 to $12 corner X, Y*
0 $13 Rotation angle, in degrees counterclockwise*
0 create outline with 6 corners*
4,1,6,$1,$2,$3,$4,$5,$6,$7,$8,$9,$10,$11,$12,$1,$2,$13*%
%AMOutline7P*
0 Free polygon, 7 corners , with rotation*
0 The origin of the aperture is its center*
0 number of corners: always 7*
0 $1 to $14 corner X, Y*
0 $15 Rotation angle, in degrees counterclockwise*
0 create outline with 7 corners*
4,1,7,$1,$2,$3,$4,$5,$6,$7,$8,$9,$10,$11,$12,$13,$14,$1,$2,$15*%
%AMOutline8P*
0 Free polygon, 8 corners , with rotation*
0 The origin of the aperture is its center*
0 number of corners: always 8*
0 $1 to $16 corner X, Y*
0 $17 Rotation angle, in degrees counterclockwise*
0 create outline with 8 corners*
4,1,8,$1,$2,$3,$4,$5,$6,$7,$8,$9,$10,$11,$12,$13,$14,$15,$16,$1,$2,$17*%
G04 Aperture macros list end*
%ADD10RoundRect,0.200000X-0.200000X-0.275000X0.200000X-0.275000X0.200000X0.275000X-0.200000X0.275000X0*%
%ADD11R,0.850000X0.500000*%
%ADD12R,1.000000X7.410000*%
%ADD13R,1.000000X6.410000*%
%ADD14RoundRect,0.200000X-0.275000X0.200000X-0.275000X-0.200000X0.275000X-0.200000X0.275000X0.200000X0*%
%ADD15R,1.100000X0.600000*%
%ADD16RoundRect,0.249375X0.625625X-0.463125X0.625625X0.463125X-0.625625X0.463125X-0.625625X-0.463125X0*%
%ADD17RoundRect,0.225000X0.225000X0.250000X-0.225000X0.250000X-0.225000X-0.250000X0.225000X-0.250000X0*%
%ADD18R,3.700000X1.425000*%
%ADD19RoundRect,0.250000X-0.250000X-0.475000X0.250000X-0.475000X0.250000X0.475000X-0.250000X0.475000X0*%
%ADD20Outline5P,-0.850000X0.850000X0.850000X0.850000X0.850000X-0.850000X-0.340000X-0.850000X-0.850000X-0.340000X0.000000*%
%ADD21O,1.700000X1.700000*%
G04 APERTURE END LIST*
D10*
%TO.C,R3*%
X115575000Y-109500000D03*
X117225000Y-109500000D03*
%TD*%
D11*
%TO.C,D1*%
X117275000Y-107300000D03*
X115525000Y-107300000D03*
X115525000Y-106300000D03*
X117275000Y-106300000D03*
%TD*%
D10*
%TO.C,R1*%
X115575000Y-108300000D03*
X117225000Y-108300000D03*
%TD*%
%TO.C,R2*%
X115575000Y-110700000D03*
X117225000Y-110700000D03*
%TD*%
D12*
%TO.C,J1*%
X125000000Y-126050000D03*
D13*
X122500000Y-125550000D03*
X120500000Y-125550000D03*
D12*
X118000000Y-126050000D03*
%TD*%
D14*
%TO.C,C4*%
X119400000Y-106925000D03*
X119400000Y-108475000D03*
%TD*%
D10*
%TO.C,R5*%
X118775000Y-113300000D03*
X120425000Y-113300000D03*
%TD*%
D15*
%TO.C,U2*%
X124550000Y-111400000D03*
D16*
X126370000Y-111552500D03*
D17*
X122675000Y-114450000D03*
X124225000Y-114450000D03*
D18*
X123250000Y-109950000D03*
D15*
X121850000Y-111400000D03*
X124550000Y-113300000D03*
D19*
X125800000Y-113200000D03*
D15*
X124550000Y-112350000D03*
X121850000Y-112350000D03*
D16*
X126370000Y-108587500D03*
D19*
X127700000Y-113200000D03*
X127700000Y-106950000D03*
X125800000Y-106950000D03*
D18*
X123250000Y-106950000D03*
D15*
X121850000Y-113300000D03*
%TD*%
D10*
%TO.C,R4*%
X118775000Y-114600000D03*
X120425000Y-114600000D03*
%TD*%
D20*
%TO.C,J2*%
X126580000Y-117900000D03*
D21*
X124040000Y-117900000D03*
X121500000Y-117900000D03*
X118960000Y-117900000D03*
X116420000Y-117900000D03*
%TD*%
M02*
