M48
; DRILL file {KiCad (5.1.9-0-10_14)} date Saturday, November 06, 2021 at 04:02:31 PM
; FORMAT={-:-/ absolute / inch / decimal}
; #@! TF.CreationDate,2021-11-06T16:02:31+00:00
; #@! TF.GenerationSoftware,Kicad,Pcbnew,(5.1.9-0-10_14)
; #@! TF.FileFunction,Plated,1,2,PTH
FMAT,2
INCH
T1C0.0098
T2C0.0157
%
G90
G05
T1
X4.626Y-4.4528
T2
X4.4409Y-4.6496
X4.5034Y-4.1538
X4.5135Y-4.4836
X4.5197Y-4.2205
X4.5236Y-4.5236
X4.5394Y-4.1378
X4.5522Y-4.3785
X4.5591Y-4.5433
X4.6159Y-4.0057
X4.6181Y-3.9291
X4.6334Y-4.3307
X4.6457Y-4.7087
X4.6631Y-4.1054
X4.6974Y-4.0797
X4.7008Y-4.5669
X4.7442Y-4.0817
X4.7677Y-4.3071
X4.7717Y-3.9772
X4.7756Y-4.4882
X4.7874Y-4.2008
X4.9291Y-4.7087
X4.9449Y-4.2362
T0
M30
