%TF.GenerationSoftware,KiCad,Pcbnew,(5.1.10-1-10_14)*%
%TF.CreationDate,2021-11-10T11:19:47+00:00*%
%TF.ProjectId,USBA,55534241-2e6b-4696-9361-645f70636258,1*%
%TF.SameCoordinates,Original*%
%TF.FileFunction,Soldermask,Bot*%
%TF.FilePolarity,Negative*%
%FSLAX46Y46*%
G04 Gerber Fmt 4.6, Leading zero omitted, Abs format (unit mm)*
G04 Created by KiCad (PCBNEW (5.1.10-1-10_14)) date 2021-11-10 11:19:47*
%MOMM*%
%LPD*%
G01*
G04 APERTURE LIST*
%ADD10C,0.100000*%
%ADD11R,2.000000X0.900000*%
%ADD12R,0.900000X2.000000*%
%ADD13R,5.000000X5.000000*%
%ADD14C,0.350000*%
G04 APERTURE END LIST*
D10*
%TO.C,U3*%
G36*
X125601219Y-126000000D02*
G01*
X121500000Y-130101219D01*
X117398781Y-126000000D01*
X121500000Y-121898781D01*
X125601219Y-126000000D01*
G37*
X125601219Y-126000000D02*
X121500000Y-130101219D01*
X117398781Y-126000000D01*
X121500000Y-121898781D01*
X125601219Y-126000000D01*
%TD*%
D11*
%TO.C,U1*%
X113000000Y-100295000D03*
X113000000Y-101565000D03*
X113000000Y-102835000D03*
X113000000Y-104105000D03*
X113000000Y-105375000D03*
X113000000Y-106645000D03*
X113000000Y-107915000D03*
X113000000Y-109185000D03*
X113000000Y-110455000D03*
X113000000Y-111725000D03*
X113000000Y-112995000D03*
X113000000Y-114265000D03*
X113000000Y-115535000D03*
X113000000Y-116805000D03*
D12*
X115785000Y-117805000D03*
X117055000Y-117805000D03*
X118325000Y-117805000D03*
X119595000Y-117805000D03*
X120865000Y-117805000D03*
X122135000Y-117805000D03*
X123405000Y-117805000D03*
X124675000Y-117805000D03*
X125945000Y-117805000D03*
X127215000Y-117805000D03*
D11*
X130000000Y-116805000D03*
X130000000Y-115535000D03*
X130000000Y-114265000D03*
X130000000Y-112995000D03*
X130000000Y-111725000D03*
X130000000Y-110455000D03*
X130000000Y-109185000D03*
X130000000Y-107915000D03*
X130000000Y-106645000D03*
X130000000Y-105375000D03*
X130000000Y-104105000D03*
X130000000Y-102835000D03*
X130000000Y-101565000D03*
X130000000Y-100295000D03*
D13*
X122500000Y-107795000D03*
%TD*%
D14*
%TO.C,U2*%
X117900000Y-108400000D03*
%TD*%
M02*
