%TF.GenerationSoftware,KiCad,Pcbnew,(6.0.9-0)*%
%TF.CreationDate,2023-01-05T13:48:52+00:00*%
%TF.ProjectId,USBA,55534241-2e6b-4696-9361-645f70636258,1*%
%TF.SameCoordinates,Original*%
%TF.FileFunction,Drillmap*%
%TF.FilePolarity,Positive*%
%FSLAX45Y45*%
G04 Gerber Fmt 4.5, Leading zero omitted, Abs format (unit mm)*
G04 Created by KiCad (PCBNEW (6.0.9-0)) date 2023-01-05 13:48:52*
%MOMM*%
%LPD*%
G01*
G04 APERTURE LIST*
%ADD10C,0.100000*%
%ADD11C,0.200000*%
%ADD12C,0.040000*%
G04 APERTURE END LIST*
D10*
X12850000Y-11825000D02*
X12850000Y-10600000D01*
X11450000Y-11825000D02*
G75*
G03*
X11550000Y-11925000I100000J0D01*
G01*
X11450000Y-10600000D02*
X11450000Y-11825000D01*
X11490000Y-10560000D02*
G75*
G03*
X11450000Y-10600000I0J-40000D01*
G01*
X12750000Y-11925000D02*
G75*
G03*
X12850000Y-11825000I0J100000D01*
G01*
X12810000Y-10560000D02*
X11490000Y-10560000D01*
X12850000Y-10600000D02*
G75*
G03*
X12810000Y-10560000I-40000J0D01*
G01*
D11*
D12*
X11500000Y-11680000D02*
X11540000Y-11720000D01*
X11540000Y-11680000D02*
X11500000Y-11720000D01*
X11650000Y-11240000D02*
X11690000Y-11280000D01*
X11690000Y-11240000D02*
X11650000Y-11280000D01*
X11650000Y-11350000D02*
X11690000Y-11390000D01*
X11690000Y-11350000D02*
X11650000Y-11390000D01*
X11730313Y-11490078D02*
X11770313Y-11530078D01*
X11770313Y-11490078D02*
X11730313Y-11530078D01*
X11772500Y-11887500D02*
X11812500Y-11927500D01*
X11812500Y-11887500D02*
X11772500Y-11927500D01*
X11790000Y-10810000D02*
X11830000Y-10850000D01*
X11830000Y-10810000D02*
X11790000Y-10850000D01*
X11790000Y-10930000D02*
X11830000Y-10970000D01*
X11830000Y-10930000D02*
X11790000Y-10970000D01*
X11790000Y-11050000D02*
X11830000Y-11090000D01*
X11830000Y-11050000D02*
X11790000Y-11090000D01*
X11920000Y-11000000D02*
X11960000Y-11040000D01*
X11960000Y-11000000D02*
X11920000Y-11040000D01*
X11926516Y-11492370D02*
X11966516Y-11532370D01*
X11966516Y-11492370D02*
X11926516Y-11532370D01*
X12140000Y-11490000D02*
X12180000Y-11530000D01*
X12180000Y-11490000D02*
X12140000Y-11530000D01*
X12560000Y-11432450D02*
X12600000Y-11472450D01*
X12600000Y-11432450D02*
X12560000Y-11472450D01*
D10*
X11692000Y-11790000D02*
G75*
G03*
X11692000Y-11790000I-50000J0D01*
G01*
X11946000Y-11790000D02*
G75*
G03*
X11946000Y-11790000I-50000J0D01*
G01*
X12200000Y-11790000D02*
G75*
G03*
X12200000Y-11790000I-50000J0D01*
G01*
X12454000Y-11790000D02*
G75*
G03*
X12454000Y-11790000I-50000J0D01*
G01*
X12708000Y-11790000D02*
G75*
G03*
X12708000Y-11790000I-50000J0D01*
G01*
D11*
X11702619Y-13416476D02*
X11702619Y-13216476D01*
X11750238Y-13216476D01*
X11778809Y-13226000D01*
X11797857Y-13245048D01*
X11807381Y-13264095D01*
X11816905Y-13302190D01*
X11816905Y-13330762D01*
X11807381Y-13368857D01*
X11797857Y-13387905D01*
X11778809Y-13406952D01*
X11750238Y-13416476D01*
X11702619Y-13416476D01*
X11902619Y-13416476D02*
X11902619Y-13283143D01*
X11902619Y-13321238D02*
X11912143Y-13302190D01*
X11921667Y-13292667D01*
X11940714Y-13283143D01*
X11959762Y-13283143D01*
X12026428Y-13416476D02*
X12026428Y-13283143D01*
X12026428Y-13216476D02*
X12016905Y-13226000D01*
X12026428Y-13235524D01*
X12035952Y-13226000D01*
X12026428Y-13216476D01*
X12026428Y-13235524D01*
X12150238Y-13416476D02*
X12131190Y-13406952D01*
X12121667Y-13387905D01*
X12121667Y-13216476D01*
X12255000Y-13416476D02*
X12235952Y-13406952D01*
X12226428Y-13387905D01*
X12226428Y-13216476D01*
X12483571Y-13416476D02*
X12483571Y-13216476D01*
X12550238Y-13359333D01*
X12616905Y-13216476D01*
X12616905Y-13416476D01*
X12797857Y-13416476D02*
X12797857Y-13311714D01*
X12788333Y-13292667D01*
X12769286Y-13283143D01*
X12731190Y-13283143D01*
X12712143Y-13292667D01*
X12797857Y-13406952D02*
X12778809Y-13416476D01*
X12731190Y-13416476D01*
X12712143Y-13406952D01*
X12702619Y-13387905D01*
X12702619Y-13368857D01*
X12712143Y-13349809D01*
X12731190Y-13340286D01*
X12778809Y-13340286D01*
X12797857Y-13330762D01*
X12893095Y-13283143D02*
X12893095Y-13483143D01*
X12893095Y-13292667D02*
X12912143Y-13283143D01*
X12950238Y-13283143D01*
X12969286Y-13292667D01*
X12978809Y-13302190D01*
X12988333Y-13321238D01*
X12988333Y-13378381D01*
X12978809Y-13397428D01*
X12969286Y-13406952D01*
X12950238Y-13416476D01*
X12912143Y-13416476D01*
X12893095Y-13406952D01*
X13074048Y-13397428D02*
X13083571Y-13406952D01*
X13074048Y-13416476D01*
X13064524Y-13406952D01*
X13074048Y-13397428D01*
X13074048Y-13416476D01*
X13074048Y-13292667D02*
X13083571Y-13302190D01*
X13074048Y-13311714D01*
X13064524Y-13302190D01*
X13074048Y-13292667D01*
X13074048Y-13311714D01*
D12*
X11405000Y-13726000D02*
X11445000Y-13766000D01*
X11445000Y-13726000D02*
X11405000Y-13766000D01*
D11*
X11740714Y-13636476D02*
X11759762Y-13636476D01*
X11778809Y-13646000D01*
X11788333Y-13655524D01*
X11797857Y-13674571D01*
X11807381Y-13712667D01*
X11807381Y-13760286D01*
X11797857Y-13798381D01*
X11788333Y-13817428D01*
X11778809Y-13826952D01*
X11759762Y-13836476D01*
X11740714Y-13836476D01*
X11721667Y-13826952D01*
X11712143Y-13817428D01*
X11702619Y-13798381D01*
X11693095Y-13760286D01*
X11693095Y-13712667D01*
X11702619Y-13674571D01*
X11712143Y-13655524D01*
X11721667Y-13646000D01*
X11740714Y-13636476D01*
X11893095Y-13817428D02*
X11902619Y-13826952D01*
X11893095Y-13836476D01*
X11883571Y-13826952D01*
X11893095Y-13817428D01*
X11893095Y-13836476D01*
X12074048Y-13703143D02*
X12074048Y-13836476D01*
X12026428Y-13626952D02*
X11978809Y-13769809D01*
X12102619Y-13769809D01*
X12216905Y-13636476D02*
X12235952Y-13636476D01*
X12255000Y-13646000D01*
X12264524Y-13655524D01*
X12274048Y-13674571D01*
X12283571Y-13712667D01*
X12283571Y-13760286D01*
X12274048Y-13798381D01*
X12264524Y-13817428D01*
X12255000Y-13826952D01*
X12235952Y-13836476D01*
X12216905Y-13836476D01*
X12197857Y-13826952D01*
X12188333Y-13817428D01*
X12178809Y-13798381D01*
X12169286Y-13760286D01*
X12169286Y-13712667D01*
X12178809Y-13674571D01*
X12188333Y-13655524D01*
X12197857Y-13646000D01*
X12216905Y-13636476D01*
X12407381Y-13636476D02*
X12426428Y-13636476D01*
X12445476Y-13646000D01*
X12455000Y-13655524D01*
X12464524Y-13674571D01*
X12474048Y-13712667D01*
X12474048Y-13760286D01*
X12464524Y-13798381D01*
X12455000Y-13817428D01*
X12445476Y-13826952D01*
X12426428Y-13836476D01*
X12407381Y-13836476D01*
X12388333Y-13826952D01*
X12378809Y-13817428D01*
X12369286Y-13798381D01*
X12359762Y-13760286D01*
X12359762Y-13712667D01*
X12369286Y-13674571D01*
X12378809Y-13655524D01*
X12388333Y-13646000D01*
X12407381Y-13636476D01*
X12559762Y-13836476D02*
X12559762Y-13703143D01*
X12559762Y-13722190D02*
X12569286Y-13712667D01*
X12588333Y-13703143D01*
X12616905Y-13703143D01*
X12635952Y-13712667D01*
X12645476Y-13731714D01*
X12645476Y-13836476D01*
X12645476Y-13731714D02*
X12655000Y-13712667D01*
X12674048Y-13703143D01*
X12702619Y-13703143D01*
X12721667Y-13712667D01*
X12731190Y-13731714D01*
X12731190Y-13836476D01*
X12826428Y-13836476D02*
X12826428Y-13703143D01*
X12826428Y-13722190D02*
X12835952Y-13712667D01*
X12855000Y-13703143D01*
X12883571Y-13703143D01*
X12902619Y-13712667D01*
X12912143Y-13731714D01*
X12912143Y-13836476D01*
X12912143Y-13731714D02*
X12921667Y-13712667D01*
X12940714Y-13703143D01*
X12969286Y-13703143D01*
X12988333Y-13712667D01*
X12997857Y-13731714D01*
X12997857Y-13836476D01*
X13388333Y-13626952D02*
X13216905Y-13884095D01*
X13645476Y-13636476D02*
X13664524Y-13636476D01*
X13683571Y-13646000D01*
X13693095Y-13655524D01*
X13702619Y-13674571D01*
X13712143Y-13712667D01*
X13712143Y-13760286D01*
X13702619Y-13798381D01*
X13693095Y-13817428D01*
X13683571Y-13826952D01*
X13664524Y-13836476D01*
X13645476Y-13836476D01*
X13626428Y-13826952D01*
X13616905Y-13817428D01*
X13607381Y-13798381D01*
X13597857Y-13760286D01*
X13597857Y-13712667D01*
X13607381Y-13674571D01*
X13616905Y-13655524D01*
X13626428Y-13646000D01*
X13645476Y-13636476D01*
X13797857Y-13817428D02*
X13807381Y-13826952D01*
X13797857Y-13836476D01*
X13788333Y-13826952D01*
X13797857Y-13817428D01*
X13797857Y-13836476D01*
X13931190Y-13636476D02*
X13950238Y-13636476D01*
X13969286Y-13646000D01*
X13978809Y-13655524D01*
X13988333Y-13674571D01*
X13997857Y-13712667D01*
X13997857Y-13760286D01*
X13988333Y-13798381D01*
X13978809Y-13817428D01*
X13969286Y-13826952D01*
X13950238Y-13836476D01*
X13931190Y-13836476D01*
X13912143Y-13826952D01*
X13902619Y-13817428D01*
X13893095Y-13798381D01*
X13883571Y-13760286D01*
X13883571Y-13712667D01*
X13893095Y-13674571D01*
X13902619Y-13655524D01*
X13912143Y-13646000D01*
X13931190Y-13636476D01*
X14188333Y-13836476D02*
X14074048Y-13836476D01*
X14131190Y-13836476D02*
X14131190Y-13636476D01*
X14112143Y-13665048D01*
X14093095Y-13684095D01*
X14074048Y-13693619D01*
X14369286Y-13636476D02*
X14274048Y-13636476D01*
X14264524Y-13731714D01*
X14274048Y-13722190D01*
X14293095Y-13712667D01*
X14340714Y-13712667D01*
X14359762Y-13722190D01*
X14369286Y-13731714D01*
X14378809Y-13750762D01*
X14378809Y-13798381D01*
X14369286Y-13817428D01*
X14359762Y-13826952D01*
X14340714Y-13836476D01*
X14293095Y-13836476D01*
X14274048Y-13826952D01*
X14264524Y-13817428D01*
X14445476Y-13636476D02*
X14578809Y-13636476D01*
X14493095Y-13836476D01*
X14645476Y-13636476D02*
X14645476Y-13674571D01*
X14721667Y-13636476D02*
X14721667Y-13674571D01*
X15016905Y-13912667D02*
X15007381Y-13903143D01*
X14988333Y-13874571D01*
X14978809Y-13855524D01*
X14969286Y-13826952D01*
X14959762Y-13779333D01*
X14959762Y-13741238D01*
X14969286Y-13693619D01*
X14978809Y-13665048D01*
X14988333Y-13646000D01*
X15007381Y-13617428D01*
X15016905Y-13607905D01*
X15197857Y-13836476D02*
X15083571Y-13836476D01*
X15140714Y-13836476D02*
X15140714Y-13636476D01*
X15121667Y-13665048D01*
X15102619Y-13684095D01*
X15083571Y-13693619D01*
X15274048Y-13655524D02*
X15283571Y-13646000D01*
X15302619Y-13636476D01*
X15350238Y-13636476D01*
X15369286Y-13646000D01*
X15378809Y-13655524D01*
X15388333Y-13674571D01*
X15388333Y-13693619D01*
X15378809Y-13722190D01*
X15264524Y-13836476D01*
X15388333Y-13836476D01*
X15626428Y-13836476D02*
X15626428Y-13636476D01*
X15712143Y-13836476D02*
X15712143Y-13731714D01*
X15702619Y-13712667D01*
X15683571Y-13703143D01*
X15655000Y-13703143D01*
X15635952Y-13712667D01*
X15626428Y-13722190D01*
X15835952Y-13836476D02*
X15816905Y-13826952D01*
X15807381Y-13817428D01*
X15797857Y-13798381D01*
X15797857Y-13741238D01*
X15807381Y-13722190D01*
X15816905Y-13712667D01*
X15835952Y-13703143D01*
X15864524Y-13703143D01*
X15883571Y-13712667D01*
X15893095Y-13722190D01*
X15902619Y-13741238D01*
X15902619Y-13798381D01*
X15893095Y-13817428D01*
X15883571Y-13826952D01*
X15864524Y-13836476D01*
X15835952Y-13836476D01*
X16016905Y-13836476D02*
X15997857Y-13826952D01*
X15988333Y-13807905D01*
X15988333Y-13636476D01*
X16169286Y-13826952D02*
X16150238Y-13836476D01*
X16112143Y-13836476D01*
X16093095Y-13826952D01*
X16083571Y-13807905D01*
X16083571Y-13731714D01*
X16093095Y-13712667D01*
X16112143Y-13703143D01*
X16150238Y-13703143D01*
X16169286Y-13712667D01*
X16178809Y-13731714D01*
X16178809Y-13750762D01*
X16083571Y-13769809D01*
X16255000Y-13826952D02*
X16274048Y-13836476D01*
X16312143Y-13836476D01*
X16331190Y-13826952D01*
X16340714Y-13807905D01*
X16340714Y-13798381D01*
X16331190Y-13779333D01*
X16312143Y-13769809D01*
X16283571Y-13769809D01*
X16264524Y-13760286D01*
X16255000Y-13741238D01*
X16255000Y-13731714D01*
X16264524Y-13712667D01*
X16283571Y-13703143D01*
X16312143Y-13703143D01*
X16331190Y-13712667D01*
X16407381Y-13912667D02*
X16416905Y-13903143D01*
X16435952Y-13874571D01*
X16445476Y-13855524D01*
X16455000Y-13826952D01*
X16464524Y-13779333D01*
X16464524Y-13741238D01*
X16455000Y-13693619D01*
X16445476Y-13665048D01*
X16435952Y-13646000D01*
X16416905Y-13617428D01*
X16407381Y-13607905D01*
D10*
X11445000Y-14010000D02*
G75*
G03*
X11445000Y-14010000I-50000J0D01*
G01*
D11*
X11807381Y-14100476D02*
X11693095Y-14100476D01*
X11750238Y-14100476D02*
X11750238Y-13900476D01*
X11731190Y-13929048D01*
X11712143Y-13948095D01*
X11693095Y-13957619D01*
X11893095Y-14081428D02*
X11902619Y-14090952D01*
X11893095Y-14100476D01*
X11883571Y-14090952D01*
X11893095Y-14081428D01*
X11893095Y-14100476D01*
X12026428Y-13900476D02*
X12045476Y-13900476D01*
X12064524Y-13910000D01*
X12074048Y-13919524D01*
X12083571Y-13938571D01*
X12093095Y-13976667D01*
X12093095Y-14024286D01*
X12083571Y-14062381D01*
X12074048Y-14081428D01*
X12064524Y-14090952D01*
X12045476Y-14100476D01*
X12026428Y-14100476D01*
X12007381Y-14090952D01*
X11997857Y-14081428D01*
X11988333Y-14062381D01*
X11978809Y-14024286D01*
X11978809Y-13976667D01*
X11988333Y-13938571D01*
X11997857Y-13919524D01*
X12007381Y-13910000D01*
X12026428Y-13900476D01*
X12216905Y-13900476D02*
X12235952Y-13900476D01*
X12255000Y-13910000D01*
X12264524Y-13919524D01*
X12274048Y-13938571D01*
X12283571Y-13976667D01*
X12283571Y-14024286D01*
X12274048Y-14062381D01*
X12264524Y-14081428D01*
X12255000Y-14090952D01*
X12235952Y-14100476D01*
X12216905Y-14100476D01*
X12197857Y-14090952D01*
X12188333Y-14081428D01*
X12178809Y-14062381D01*
X12169286Y-14024286D01*
X12169286Y-13976667D01*
X12178809Y-13938571D01*
X12188333Y-13919524D01*
X12197857Y-13910000D01*
X12216905Y-13900476D01*
X12407381Y-13900476D02*
X12426428Y-13900476D01*
X12445476Y-13910000D01*
X12455000Y-13919524D01*
X12464524Y-13938571D01*
X12474048Y-13976667D01*
X12474048Y-14024286D01*
X12464524Y-14062381D01*
X12455000Y-14081428D01*
X12445476Y-14090952D01*
X12426428Y-14100476D01*
X12407381Y-14100476D01*
X12388333Y-14090952D01*
X12378809Y-14081428D01*
X12369286Y-14062381D01*
X12359762Y-14024286D01*
X12359762Y-13976667D01*
X12369286Y-13938571D01*
X12378809Y-13919524D01*
X12388333Y-13910000D01*
X12407381Y-13900476D01*
X12559762Y-14100476D02*
X12559762Y-13967143D01*
X12559762Y-13986190D02*
X12569286Y-13976667D01*
X12588333Y-13967143D01*
X12616905Y-13967143D01*
X12635952Y-13976667D01*
X12645476Y-13995714D01*
X12645476Y-14100476D01*
X12645476Y-13995714D02*
X12655000Y-13976667D01*
X12674048Y-13967143D01*
X12702619Y-13967143D01*
X12721667Y-13976667D01*
X12731190Y-13995714D01*
X12731190Y-14100476D01*
X12826428Y-14100476D02*
X12826428Y-13967143D01*
X12826428Y-13986190D02*
X12835952Y-13976667D01*
X12855000Y-13967143D01*
X12883571Y-13967143D01*
X12902619Y-13976667D01*
X12912143Y-13995714D01*
X12912143Y-14100476D01*
X12912143Y-13995714D02*
X12921667Y-13976667D01*
X12940714Y-13967143D01*
X12969286Y-13967143D01*
X12988333Y-13976667D01*
X12997857Y-13995714D01*
X12997857Y-14100476D01*
X13388333Y-13890952D02*
X13216905Y-14148095D01*
X13645476Y-13900476D02*
X13664524Y-13900476D01*
X13683571Y-13910000D01*
X13693095Y-13919524D01*
X13702619Y-13938571D01*
X13712143Y-13976667D01*
X13712143Y-14024286D01*
X13702619Y-14062381D01*
X13693095Y-14081428D01*
X13683571Y-14090952D01*
X13664524Y-14100476D01*
X13645476Y-14100476D01*
X13626428Y-14090952D01*
X13616905Y-14081428D01*
X13607381Y-14062381D01*
X13597857Y-14024286D01*
X13597857Y-13976667D01*
X13607381Y-13938571D01*
X13616905Y-13919524D01*
X13626428Y-13910000D01*
X13645476Y-13900476D01*
X13797857Y-14081428D02*
X13807381Y-14090952D01*
X13797857Y-14100476D01*
X13788333Y-14090952D01*
X13797857Y-14081428D01*
X13797857Y-14100476D01*
X13931190Y-13900476D02*
X13950238Y-13900476D01*
X13969286Y-13910000D01*
X13978809Y-13919524D01*
X13988333Y-13938571D01*
X13997857Y-13976667D01*
X13997857Y-14024286D01*
X13988333Y-14062381D01*
X13978809Y-14081428D01*
X13969286Y-14090952D01*
X13950238Y-14100476D01*
X13931190Y-14100476D01*
X13912143Y-14090952D01*
X13902619Y-14081428D01*
X13893095Y-14062381D01*
X13883571Y-14024286D01*
X13883571Y-13976667D01*
X13893095Y-13938571D01*
X13902619Y-13919524D01*
X13912143Y-13910000D01*
X13931190Y-13900476D01*
X14064524Y-13900476D02*
X14188333Y-13900476D01*
X14121667Y-13976667D01*
X14150238Y-13976667D01*
X14169286Y-13986190D01*
X14178809Y-13995714D01*
X14188333Y-14014762D01*
X14188333Y-14062381D01*
X14178809Y-14081428D01*
X14169286Y-14090952D01*
X14150238Y-14100476D01*
X14093095Y-14100476D01*
X14074048Y-14090952D01*
X14064524Y-14081428D01*
X14283571Y-14100476D02*
X14321667Y-14100476D01*
X14340714Y-14090952D01*
X14350238Y-14081428D01*
X14369286Y-14052857D01*
X14378809Y-14014762D01*
X14378809Y-13938571D01*
X14369286Y-13919524D01*
X14359762Y-13910000D01*
X14340714Y-13900476D01*
X14302619Y-13900476D01*
X14283571Y-13910000D01*
X14274048Y-13919524D01*
X14264524Y-13938571D01*
X14264524Y-13986190D01*
X14274048Y-14005238D01*
X14283571Y-14014762D01*
X14302619Y-14024286D01*
X14340714Y-14024286D01*
X14359762Y-14014762D01*
X14369286Y-14005238D01*
X14378809Y-13986190D01*
X14550238Y-13967143D02*
X14550238Y-14100476D01*
X14502619Y-13890952D02*
X14455000Y-14033809D01*
X14578809Y-14033809D01*
X14645476Y-13900476D02*
X14645476Y-13938571D01*
X14721667Y-13900476D02*
X14721667Y-13938571D01*
X15016905Y-14176667D02*
X15007381Y-14167143D01*
X14988333Y-14138571D01*
X14978809Y-14119524D01*
X14969286Y-14090952D01*
X14959762Y-14043333D01*
X14959762Y-14005238D01*
X14969286Y-13957619D01*
X14978809Y-13929048D01*
X14988333Y-13910000D01*
X15007381Y-13881428D01*
X15016905Y-13871905D01*
X15188333Y-13900476D02*
X15093095Y-13900476D01*
X15083571Y-13995714D01*
X15093095Y-13986190D01*
X15112143Y-13976667D01*
X15159762Y-13976667D01*
X15178809Y-13986190D01*
X15188333Y-13995714D01*
X15197857Y-14014762D01*
X15197857Y-14062381D01*
X15188333Y-14081428D01*
X15178809Y-14090952D01*
X15159762Y-14100476D01*
X15112143Y-14100476D01*
X15093095Y-14090952D01*
X15083571Y-14081428D01*
X15435952Y-14100476D02*
X15435952Y-13900476D01*
X15521667Y-14100476D02*
X15521667Y-13995714D01*
X15512143Y-13976667D01*
X15493095Y-13967143D01*
X15464524Y-13967143D01*
X15445476Y-13976667D01*
X15435952Y-13986190D01*
X15645476Y-14100476D02*
X15626428Y-14090952D01*
X15616905Y-14081428D01*
X15607381Y-14062381D01*
X15607381Y-14005238D01*
X15616905Y-13986190D01*
X15626428Y-13976667D01*
X15645476Y-13967143D01*
X15674048Y-13967143D01*
X15693095Y-13976667D01*
X15702619Y-13986190D01*
X15712143Y-14005238D01*
X15712143Y-14062381D01*
X15702619Y-14081428D01*
X15693095Y-14090952D01*
X15674048Y-14100476D01*
X15645476Y-14100476D01*
X15826428Y-14100476D02*
X15807381Y-14090952D01*
X15797857Y-14071905D01*
X15797857Y-13900476D01*
X15978809Y-14090952D02*
X15959762Y-14100476D01*
X15921667Y-14100476D01*
X15902619Y-14090952D01*
X15893095Y-14071905D01*
X15893095Y-13995714D01*
X15902619Y-13976667D01*
X15921667Y-13967143D01*
X15959762Y-13967143D01*
X15978809Y-13976667D01*
X15988333Y-13995714D01*
X15988333Y-14014762D01*
X15893095Y-14033809D01*
X16064524Y-14090952D02*
X16083571Y-14100476D01*
X16121667Y-14100476D01*
X16140714Y-14090952D01*
X16150238Y-14071905D01*
X16150238Y-14062381D01*
X16140714Y-14043333D01*
X16121667Y-14033809D01*
X16093095Y-14033809D01*
X16074048Y-14024286D01*
X16064524Y-14005238D01*
X16064524Y-13995714D01*
X16074048Y-13976667D01*
X16093095Y-13967143D01*
X16121667Y-13967143D01*
X16140714Y-13976667D01*
X16216905Y-14176667D02*
X16226428Y-14167143D01*
X16245476Y-14138571D01*
X16255000Y-14119524D01*
X16264524Y-14090952D01*
X16274048Y-14043333D01*
X16274048Y-14005238D01*
X16264524Y-13957619D01*
X16255000Y-13929048D01*
X16245476Y-13910000D01*
X16226428Y-13881428D01*
X16216905Y-13871905D01*
M02*
