%TF.GenerationSoftware,KiCad,Pcbnew,(6.0.0-0)*%
%TF.CreationDate,2021-12-31T15:49:51+00:00*%
%TF.ProjectId,USBA,55534241-2e6b-4696-9361-645f70636258,1*%
%TF.SameCoordinates,Original*%
%TF.FileFunction,Soldermask,Top*%
%TF.FilePolarity,Negative*%
%FSLAX46Y46*%
G04 Gerber Fmt 4.6, Leading zero omitted, Abs format (unit mm)*
G04 Created by KiCad (PCBNEW (6.0.0-0)) date 2021-12-31 15:49:51*
%MOMM*%
%LPD*%
G01*
G04 APERTURE LIST*
G04 Aperture macros list*
%AMRoundRect*
0 Rectangle with rounded corners*
0 $1 Rounding radius*
0 $2 $3 $4 $5 $6 $7 $8 $9 X,Y pos of 4 corners*
0 Add a 4 corners polygon primitive as box body*
4,1,4,$2,$3,$4,$5,$6,$7,$8,$9,$2,$3,0*
0 Add four circle primitives for the rounded corners*
1,1,$1+$1,$2,$3*
1,1,$1+$1,$4,$5*
1,1,$1+$1,$6,$7*
1,1,$1+$1,$8,$9*
0 Add four rect primitives between the rounded corners*
20,1,$1+$1,$2,$3,$4,$5,0*
20,1,$1+$1,$4,$5,$6,$7,0*
20,1,$1+$1,$6,$7,$8,$9,0*
20,1,$1+$1,$8,$9,$2,$3,0*%
%AMFreePoly0*
4,1,6,1.000000,-1.000000,-1.000000,-1.000000,-1.000000,0.750000,-0.750000,1.000000,1.000000,1.000000,1.000000,-1.000000,1.000000,-1.000000,$1*%
G04 Aperture macros list end*
%ADD10RoundRect,0.062500X-0.287500X-0.062500X0.287500X-0.062500X0.287500X0.062500X-0.287500X0.062500X0*%
%ADD11RoundRect,0.062500X-0.062500X-0.287500X0.062500X-0.287500X0.062500X0.287500X-0.062500X0.287500X0*%
%ADD12C,0.350000*%
%ADD13FreePoly0,0.000000*%
%ADD14RoundRect,0.200000X-0.200000X-0.275000X0.200000X-0.275000X0.200000X0.275000X-0.200000X0.275000X0*%
%ADD15RoundRect,0.225000X0.250000X-0.225000X0.250000X0.225000X-0.250000X0.225000X-0.250000X-0.225000X0*%
%ADD16R,0.850000X0.500000*%
%ADD17R,2.000000X1.300000*%
%ADD18R,0.600000X1.100000*%
%ADD19R,1.425000X3.700000*%
%ADD20RoundRect,0.249375X-0.463125X-0.625625X0.463125X-0.625625X0.463125X0.625625X-0.463125X0.625625X0*%
%ADD21RoundRect,0.250000X-0.475000X0.250000X-0.475000X-0.250000X0.475000X-0.250000X0.475000X0.250000X0*%
%ADD22R,1.000000X7.410000*%
%ADD23R,1.000000X6.410000*%
G04 APERTURE END LIST*
%TO.C,U4*%
G36*
X130000000Y-112900000D02*
G01*
X124200000Y-112900000D01*
X124200000Y-107100000D01*
X130000000Y-107100000D01*
X130000000Y-112900000D01*
G37*
%TD*%
D10*
%TO.C,U2*%
X116000000Y-107400000D03*
X116000000Y-107900000D03*
X116000000Y-108400000D03*
X116000000Y-108900000D03*
X116000000Y-109400000D03*
D11*
X116900000Y-110300000D03*
X117400000Y-110300000D03*
X117900000Y-110300000D03*
X118400000Y-110300000D03*
X118900000Y-110300000D03*
D10*
X119800000Y-109400000D03*
X119800000Y-108900000D03*
X119800000Y-108400000D03*
X119800000Y-107900000D03*
X119800000Y-107400000D03*
D11*
X118900000Y-106500000D03*
X118400000Y-106500000D03*
X117900000Y-106500000D03*
X117400000Y-106500000D03*
X116900000Y-106500000D03*
D12*
X117900000Y-108400000D03*
D13*
X117900000Y-108400000D03*
%TD*%
D14*
%TO.C,R3*%
X113275000Y-102800000D03*
X114925000Y-102800000D03*
%TD*%
D15*
%TO.C,C1*%
X117200000Y-103075000D03*
X117200000Y-101525000D03*
%TD*%
D16*
%TO.C,D1*%
X114975000Y-100600000D03*
X113225000Y-100600000D03*
X113225000Y-99600000D03*
X114975000Y-99600000D03*
%TD*%
D14*
%TO.C,R1*%
X113275000Y-101600000D03*
X114925000Y-101600000D03*
%TD*%
%TO.C,R2*%
X113275000Y-104000000D03*
X114925000Y-104000000D03*
%TD*%
D17*
%TO.C,SW1*%
X125700000Y-113850000D03*
X117300000Y-113850000D03*
X125700000Y-118350000D03*
X117300000Y-118350000D03*
%TD*%
D18*
%TO.C,U3*%
X125810000Y-100800000D03*
D19*
X127260000Y-102200000D03*
D18*
X125810000Y-103500000D03*
D20*
X125657500Y-105320000D03*
D15*
X122760000Y-102925000D03*
X122760000Y-101375000D03*
D18*
X123910000Y-103500000D03*
X124860000Y-103500000D03*
D21*
X124010000Y-104750000D03*
X124010000Y-106650000D03*
D18*
X124860000Y-100800000D03*
D20*
X128622500Y-105320000D03*
D21*
X130260000Y-106650000D03*
D18*
X123910000Y-100800000D03*
D19*
X130260000Y-102200000D03*
D21*
X130260000Y-104750000D03*
%TD*%
D22*
%TO.C,J1*%
X118000000Y-126050000D03*
X125000000Y-126050000D03*
D23*
X120500000Y-125550000D03*
X122500000Y-125550000D03*
%TD*%
M02*
