%TF.GenerationSoftware,KiCad,Pcbnew,(5.1.9-0-10_14)*%
%TF.CreationDate,2021-11-06T12:06:33+00:00*%
%TF.ProjectId,USBA,55534241-2e6b-4696-9361-645f70636258,1*%
%TF.SameCoordinates,Original*%
%TF.FileFunction,Copper,L2,Bot*%
%TF.FilePolarity,Positive*%
%FSLAX46Y46*%
G04 Gerber Fmt 4.6, Leading zero omitted, Abs format (unit mm)*
G04 Created by KiCad (PCBNEW (5.1.9-0-10_14)) date 2021-11-06 12:06:33*
%MOMM*%
%LPD*%
G01*
G04 APERTURE LIST*
%TA.AperFunction,SMDPad,CuDef*%
%ADD10R,2.000000X0.900000*%
%TD*%
%TA.AperFunction,SMDPad,CuDef*%
%ADD11R,0.900000X2.000000*%
%TD*%
%TA.AperFunction,SMDPad,CuDef*%
%ADD12R,5.000000X5.000000*%
%TD*%
%TA.AperFunction,ComponentPad*%
%ADD13C,0.350000*%
%TD*%
%TA.AperFunction,SMDPad,CuDef*%
%ADD14C,0.100000*%
%TD*%
%TA.AperFunction,ViaPad*%
%ADD15C,0.800000*%
%TD*%
%TA.AperFunction,Conductor*%
%ADD16C,0.250000*%
%TD*%
%TA.AperFunction,Conductor*%
%ADD17C,0.254000*%
%TD*%
%TA.AperFunction,Conductor*%
%ADD18C,0.100000*%
%TD*%
G04 APERTURE END LIST*
D10*
%TO.P,U1,38*%
%TO.N,GND*%
X113000000Y-100295000D03*
%TO.P,U1,37*%
%TO.N,Net-(U1-Pad37)*%
X113000000Y-101565000D03*
%TO.P,U1,36*%
%TO.N,Net-(U1-Pad36)*%
X113000000Y-102835000D03*
%TO.P,U1,35*%
%TO.N,O*%
X113000000Y-104105000D03*
%TO.P,U1,34*%
%TO.N,I*%
X113000000Y-105375000D03*
%TO.P,U1,33*%
%TO.N,Net-(U1-Pad33)*%
X113000000Y-106645000D03*
%TO.P,U1,32*%
%TO.N,Net-(U1-Pad32)*%
X113000000Y-107915000D03*
%TO.P,U1,31*%
%TO.N,Net-(U1-Pad31)*%
X113000000Y-109185000D03*
%TO.P,U1,30*%
%TO.N,CHARGER*%
X113000000Y-110455000D03*
%TO.P,U1,29*%
%TO.N,Net-(U1-Pad29)*%
X113000000Y-111725000D03*
%TO.P,U1,28*%
%TO.N,Net-(U1-Pad28)*%
X113000000Y-112995000D03*
%TO.P,U1,27*%
%TO.N,Net-(U1-Pad27)*%
X113000000Y-114265000D03*
%TO.P,U1,26*%
%TO.N,Net-(U1-Pad26)*%
X113000000Y-115535000D03*
%TO.P,U1,25*%
%TO.N,GPIO0*%
X113000000Y-116805000D03*
D11*
%TO.P,U1,24*%
%TO.N,Net-(U1-Pad24)*%
X115785000Y-117805000D03*
%TO.P,U1,23*%
%TO.N,Net-(U1-Pad23)*%
X117055000Y-117805000D03*
%TO.P,U1,22*%
%TO.N,Net-(U1-Pad22)*%
X118325000Y-117805000D03*
%TO.P,U1,21*%
%TO.N,Net-(U1-Pad21)*%
X119595000Y-117805000D03*
%TO.P,U1,20*%
%TO.N,Net-(U1-Pad20)*%
X120865000Y-117805000D03*
%TO.P,U1,19*%
%TO.N,Net-(U1-Pad19)*%
X122135000Y-117805000D03*
%TO.P,U1,18*%
%TO.N,Net-(U1-Pad18)*%
X123405000Y-117805000D03*
%TO.P,U1,17*%
%TO.N,Net-(U1-Pad17)*%
X124675000Y-117805000D03*
%TO.P,U1,16*%
%TO.N,Net-(U1-Pad16)*%
X125945000Y-117805000D03*
%TO.P,U1,15*%
%TO.N,GND*%
X127215000Y-117805000D03*
D10*
%TO.P,U1,14*%
%TO.N,Net-(U1-Pad14)*%
X130000000Y-116805000D03*
%TO.P,U1,13*%
%TO.N,Net-(U1-Pad13)*%
X130000000Y-115535000D03*
%TO.P,U1,12*%
%TO.N,Net-(U1-Pad12)*%
X130000000Y-114265000D03*
%TO.P,U1,11*%
%TO.N,Net-(SW1-Pad1)*%
X130000000Y-112995000D03*
%TO.P,U1,10*%
%TO.N,G*%
X130000000Y-111725000D03*
%TO.P,U1,9*%
%TO.N,B*%
X130000000Y-110455000D03*
%TO.P,U1,8*%
%TO.N,R*%
X130000000Y-109185000D03*
%TO.P,U1,7*%
%TO.N,Net-(U1-Pad7)*%
X130000000Y-107915000D03*
%TO.P,U1,6*%
%TO.N,Net-(U1-Pad6)*%
X130000000Y-106645000D03*
%TO.P,U1,5*%
%TO.N,Net-(U1-Pad5)*%
X130000000Y-105375000D03*
%TO.P,U1,4*%
%TO.N,Net-(U1-Pad4)*%
X130000000Y-104105000D03*
%TO.P,U1,3*%
%TO.N,EN*%
X130000000Y-102835000D03*
%TO.P,U1,2*%
%TO.N,+3V3*%
X130000000Y-101565000D03*
%TO.P,U1,1*%
%TO.N,GND*%
X130000000Y-100295000D03*
D12*
%TO.P,U1,39*%
X122500000Y-107795000D03*
%TD*%
D13*
%TO.P,U2,21*%
%TO.N,GND*%
X117500000Y-113100000D03*
%TD*%
%TA.AperFunction,SMDPad,CuDef*%
D14*
%TO.P,U3,~*%
%TO.N,N/C*%
G36*
X122489949Y-124020101D02*
G01*
X122348528Y-124161522D01*
X122065685Y-123878679D01*
X122207106Y-123737258D01*
X122489949Y-124020101D01*
G37*
%TD.AperFunction*%
%TA.AperFunction,SMDPad,CuDef*%
G36*
X123055635Y-124585787D02*
G01*
X122914214Y-124727208D01*
X122631371Y-124444365D01*
X122772792Y-124302944D01*
X123055635Y-124585787D01*
G37*
%TD.AperFunction*%
%TA.AperFunction,SMDPad,CuDef*%
G36*
X124328427Y-125858579D02*
G01*
X124187006Y-126000000D01*
X123479899Y-125292893D01*
X123621320Y-125151472D01*
X124328427Y-125858579D01*
G37*
%TD.AperFunction*%
%TA.AperFunction,SMDPad,CuDef*%
G36*
X122065685Y-123878680D02*
G01*
X121924264Y-124020101D01*
X121641421Y-123737258D01*
X121782842Y-123595837D01*
X122065685Y-123878680D01*
G37*
%TD.AperFunction*%
%TA.AperFunction,SMDPad,CuDef*%
G36*
X122772792Y-124302943D02*
G01*
X122489949Y-124585786D01*
X122348528Y-124444365D01*
X122631371Y-124161522D01*
X122772792Y-124302943D01*
G37*
%TD.AperFunction*%
%TA.AperFunction,SMDPad,CuDef*%
G36*
X123338478Y-124868629D02*
G01*
X123055635Y-125151472D01*
X122772792Y-124868629D01*
X123055635Y-124585786D01*
X123338478Y-124868629D01*
G37*
%TD.AperFunction*%
%TA.AperFunction,SMDPad,CuDef*%
G36*
X121500000Y-123312994D02*
G01*
X121217157Y-123595837D01*
X121075736Y-123454416D01*
X121358579Y-123171573D01*
X121500000Y-123312994D01*
G37*
%TD.AperFunction*%
%TA.AperFunction,SMDPad,CuDef*%
G36*
X122065685Y-124161522D02*
G01*
X121924264Y-124302943D01*
X121782843Y-124161522D01*
X121924264Y-124020101D01*
X122065685Y-124161522D01*
G37*
%TD.AperFunction*%
%TA.AperFunction,SMDPad,CuDef*%
G36*
X122631371Y-124727207D02*
G01*
X122489949Y-124868629D01*
X122065685Y-124444365D01*
X122207107Y-124302943D01*
X122631371Y-124727207D01*
G37*
%TD.AperFunction*%
%TA.AperFunction,SMDPad,CuDef*%
G36*
X121358579Y-123737259D02*
G01*
X121217158Y-123878680D01*
X120934315Y-123595837D01*
X121075736Y-123454416D01*
X121358579Y-123737259D01*
G37*
%TD.AperFunction*%
%TA.AperFunction,SMDPad,CuDef*%
G36*
X121641421Y-124020101D02*
G01*
X121500000Y-124161522D01*
X121358579Y-124020101D01*
X121500000Y-123878680D01*
X121641421Y-124020101D01*
G37*
%TD.AperFunction*%
%TA.AperFunction,SMDPad,CuDef*%
G36*
X122207107Y-124302943D02*
G01*
X121924264Y-124585786D01*
X121782843Y-124444365D01*
X122065686Y-124161522D01*
X122207107Y-124302943D01*
G37*
%TD.AperFunction*%
%TA.AperFunction,SMDPad,CuDef*%
G36*
X122914213Y-125292893D02*
G01*
X122772792Y-125434314D01*
X122631371Y-125292893D01*
X122772792Y-125151472D01*
X122914213Y-125292893D01*
G37*
%TD.AperFunction*%
%TA.AperFunction,SMDPad,CuDef*%
G36*
X121358578Y-124020101D02*
G01*
X121217157Y-124161522D01*
X121075736Y-124020101D01*
X121217157Y-123878680D01*
X121358578Y-124020101D01*
G37*
%TD.AperFunction*%
%TA.AperFunction,SMDPad,CuDef*%
G36*
X122065685Y-124727208D02*
G01*
X121924264Y-124868629D01*
X121641421Y-124585786D01*
X121782842Y-124444365D01*
X122065685Y-124727208D01*
G37*
%TD.AperFunction*%
%TA.AperFunction,SMDPad,CuDef*%
G36*
X123904163Y-126000000D02*
G01*
X123479899Y-126424264D01*
X123055635Y-126000000D01*
X123479899Y-125575736D01*
X123904163Y-126000000D01*
G37*
%TD.AperFunction*%
%TA.AperFunction,SMDPad,CuDef*%
G36*
X121075736Y-124020101D02*
G01*
X120934315Y-124161522D01*
X120792894Y-124020101D01*
X120934315Y-123878680D01*
X121075736Y-124020101D01*
G37*
%TD.AperFunction*%
%TA.AperFunction,SMDPad,CuDef*%
G36*
X121641421Y-124585787D02*
G01*
X121500000Y-124727208D01*
X121217157Y-124444365D01*
X121358578Y-124302944D01*
X121641421Y-124585787D01*
G37*
%TD.AperFunction*%
%TA.AperFunction,SMDPad,CuDef*%
G36*
X122348528Y-125010050D02*
G01*
X122065685Y-125292893D01*
X121924264Y-125151472D01*
X122207107Y-124868629D01*
X122348528Y-125010050D01*
G37*
%TD.AperFunction*%
%TA.AperFunction,SMDPad,CuDef*%
G36*
X123621321Y-125151472D02*
G01*
X122772793Y-126000000D01*
X122631371Y-125858578D01*
X123479899Y-125010050D01*
X123621321Y-125151472D01*
G37*
%TD.AperFunction*%
%TA.AperFunction,SMDPad,CuDef*%
G36*
X124469849Y-126000000D02*
G01*
X123621321Y-126848528D01*
X123479899Y-126707106D01*
X124328427Y-125858578D01*
X124469849Y-126000000D01*
G37*
%TD.AperFunction*%
%TA.AperFunction,SMDPad,CuDef*%
G36*
X121075736Y-124302944D02*
G01*
X120934315Y-124444365D01*
X120792894Y-124302944D01*
X120934315Y-124161523D01*
X121075736Y-124302944D01*
G37*
%TD.AperFunction*%
%TA.AperFunction,SMDPad,CuDef*%
G36*
X121782843Y-125010050D02*
G01*
X121641421Y-125151472D01*
X121217157Y-124727208D01*
X121358579Y-124585786D01*
X121782843Y-125010050D01*
G37*
%TD.AperFunction*%
%TA.AperFunction,SMDPad,CuDef*%
G36*
X122489949Y-125434314D02*
G01*
X122207106Y-125717157D01*
X122065685Y-125575736D01*
X122348528Y-125292893D01*
X122489949Y-125434314D01*
G37*
%TD.AperFunction*%
%TA.AperFunction,SMDPad,CuDef*%
G36*
X123621320Y-126848528D02*
G01*
X123479899Y-126989949D01*
X122489950Y-126000000D01*
X122631371Y-125858579D01*
X123621320Y-126848528D01*
G37*
%TD.AperFunction*%
%TA.AperFunction,SMDPad,CuDef*%
G36*
X120792893Y-124302944D02*
G01*
X120651472Y-124444365D01*
X120510051Y-124302944D01*
X120651472Y-124161523D01*
X120792893Y-124302944D01*
G37*
%TD.AperFunction*%
%TA.AperFunction,SMDPad,CuDef*%
G36*
X121217157Y-124727208D02*
G01*
X121075736Y-124868629D01*
X120934315Y-124727208D01*
X121075736Y-124585787D01*
X121217157Y-124727208D01*
G37*
%TD.AperFunction*%
%TA.AperFunction,SMDPad,CuDef*%
G36*
X122489949Y-125717157D02*
G01*
X122207106Y-126000000D01*
X122065685Y-125858579D01*
X122348528Y-125575736D01*
X122489949Y-125717157D01*
G37*
%TD.AperFunction*%
%TA.AperFunction,SMDPad,CuDef*%
G36*
X121217157Y-125010051D02*
G01*
X121075736Y-125151472D01*
X120934315Y-125010051D01*
X121075736Y-124868630D01*
X121217157Y-125010051D01*
G37*
%TD.AperFunction*%
%TA.AperFunction,SMDPad,CuDef*%
G36*
X121500000Y-125292893D02*
G01*
X121358579Y-125434314D01*
X121217158Y-125292893D01*
X121358579Y-125151472D01*
X121500000Y-125292893D01*
G37*
%TD.AperFunction*%
%TA.AperFunction,SMDPad,CuDef*%
G36*
X122772792Y-124868629D02*
G01*
X121782843Y-125858578D01*
X121641422Y-125717157D01*
X122631371Y-124727208D01*
X122772792Y-124868629D01*
G37*
%TD.AperFunction*%
%TA.AperFunction,SMDPad,CuDef*%
G36*
X122489949Y-126282843D02*
G01*
X122348528Y-126424264D01*
X122065685Y-126141421D01*
X122207106Y-126000000D01*
X122489949Y-126282843D01*
G37*
%TD.AperFunction*%
%TA.AperFunction,SMDPad,CuDef*%
G36*
X120651472Y-124161523D02*
G01*
X120227208Y-124585787D01*
X120085786Y-124444365D01*
X120510050Y-124020101D01*
X120651472Y-124161523D01*
G37*
%TD.AperFunction*%
%TA.AperFunction,SMDPad,CuDef*%
G36*
X120792893Y-124868629D02*
G01*
X120651472Y-125010050D01*
X120510051Y-124868629D01*
X120651472Y-124727208D01*
X120792893Y-124868629D01*
G37*
%TD.AperFunction*%
%TA.AperFunction,SMDPad,CuDef*%
G36*
X121358579Y-125434314D02*
G01*
X121217157Y-125575736D01*
X120792893Y-125151472D01*
X120934315Y-125010050D01*
X121358579Y-125434314D01*
G37*
%TD.AperFunction*%
%TA.AperFunction,SMDPad,CuDef*%
G36*
X121782843Y-125858579D02*
G01*
X121641422Y-126000000D01*
X121358579Y-125717157D01*
X121500000Y-125575736D01*
X121782843Y-125858579D01*
G37*
%TD.AperFunction*%
%TA.AperFunction,SMDPad,CuDef*%
G36*
X122207107Y-126282843D02*
G01*
X122065686Y-126424264D01*
X121782843Y-126141421D01*
X121924264Y-126000000D01*
X122207107Y-126282843D01*
G37*
%TD.AperFunction*%
%TA.AperFunction,SMDPad,CuDef*%
G36*
X122631371Y-126424264D02*
G01*
X122348528Y-126707107D01*
X122207107Y-126565686D01*
X122489950Y-126282843D01*
X122631371Y-126424264D01*
G37*
%TD.AperFunction*%
%TA.AperFunction,SMDPad,CuDef*%
G36*
X122914214Y-126707106D02*
G01*
X122631371Y-126989949D01*
X122489950Y-126848528D01*
X122772793Y-126565685D01*
X122914214Y-126707106D01*
G37*
%TD.AperFunction*%
%TA.AperFunction,SMDPad,CuDef*%
G36*
X123197056Y-127272792D02*
G01*
X123055635Y-127414213D01*
X122914214Y-127272792D01*
X123055635Y-127131371D01*
X123197056Y-127272792D01*
G37*
%TD.AperFunction*%
%TA.AperFunction,SMDPad,CuDef*%
G36*
X120368629Y-124727208D02*
G01*
X120227208Y-124868629D01*
X120085787Y-124727208D01*
X120227208Y-124585787D01*
X120368629Y-124727208D01*
G37*
%TD.AperFunction*%
%TA.AperFunction,SMDPad,CuDef*%
G36*
X120934315Y-125010050D02*
G01*
X120651472Y-125292893D01*
X120510051Y-125151472D01*
X120792894Y-124868629D01*
X120934315Y-125010050D01*
G37*
%TD.AperFunction*%
%TA.AperFunction,SMDPad,CuDef*%
G36*
X121500000Y-125575736D02*
G01*
X121217157Y-125858579D01*
X121075736Y-125717158D01*
X121358579Y-125434315D01*
X121500000Y-125575736D01*
G37*
%TD.AperFunction*%
%TA.AperFunction,SMDPad,CuDef*%
G36*
X121924264Y-126282843D02*
G01*
X121782843Y-126424264D01*
X121500000Y-126141421D01*
X121641421Y-126000000D01*
X121924264Y-126282843D01*
G37*
%TD.AperFunction*%
%TA.AperFunction,SMDPad,CuDef*%
G36*
X122207106Y-126565685D02*
G01*
X122065685Y-126707106D01*
X121924264Y-126565685D01*
X122065685Y-126424264D01*
X122207106Y-126565685D01*
G37*
%TD.AperFunction*%
%TA.AperFunction,SMDPad,CuDef*%
G36*
X122631371Y-126989950D02*
G01*
X122489950Y-127131371D01*
X122207107Y-126848528D01*
X122348528Y-126707107D01*
X122631371Y-126989950D01*
G37*
%TD.AperFunction*%
%TA.AperFunction,SMDPad,CuDef*%
G36*
X122914213Y-127272792D02*
G01*
X122772792Y-127414213D01*
X122631371Y-127272792D01*
X122772792Y-127131371D01*
X122914213Y-127272792D01*
G37*
%TD.AperFunction*%
%TA.AperFunction,SMDPad,CuDef*%
G36*
X120085786Y-124727208D02*
G01*
X119944365Y-124868629D01*
X119802944Y-124727208D01*
X119944365Y-124585787D01*
X120085786Y-124727208D01*
G37*
%TD.AperFunction*%
%TA.AperFunction,SMDPad,CuDef*%
G36*
X120510050Y-125151472D02*
G01*
X120368629Y-125292893D01*
X120227208Y-125151472D01*
X120368629Y-125010051D01*
X120510050Y-125151472D01*
G37*
%TD.AperFunction*%
%TA.AperFunction,SMDPad,CuDef*%
G36*
X120792893Y-125434315D02*
G01*
X120651472Y-125575736D01*
X120510051Y-125434315D01*
X120651472Y-125292894D01*
X120792893Y-125434315D01*
G37*
%TD.AperFunction*%
%TA.AperFunction,SMDPad,CuDef*%
G36*
X121075736Y-125717157D02*
G01*
X120934315Y-125858578D01*
X120792894Y-125717157D01*
X120934315Y-125575736D01*
X121075736Y-125717157D01*
G37*
%TD.AperFunction*%
%TA.AperFunction,SMDPad,CuDef*%
G36*
X121358578Y-126000000D02*
G01*
X121217157Y-126141421D01*
X121075736Y-126000000D01*
X121217157Y-125858579D01*
X121358578Y-126000000D01*
G37*
%TD.AperFunction*%
%TA.AperFunction,SMDPad,CuDef*%
G36*
X121924264Y-126565686D02*
G01*
X121782843Y-126707107D01*
X121500000Y-126424264D01*
X121641421Y-126282843D01*
X121924264Y-126565686D01*
G37*
%TD.AperFunction*%
%TA.AperFunction,SMDPad,CuDef*%
G36*
X122348528Y-126989950D02*
G01*
X122207107Y-127131371D01*
X121924264Y-126848528D01*
X122065685Y-126707107D01*
X122348528Y-126989950D01*
G37*
%TD.AperFunction*%
%TA.AperFunction,SMDPad,CuDef*%
G36*
X122914214Y-126989950D02*
G01*
X122489950Y-127414214D01*
X122348528Y-127272792D01*
X122772792Y-126848528D01*
X122914214Y-126989950D01*
G37*
%TD.AperFunction*%
%TA.AperFunction,SMDPad,CuDef*%
G36*
X122914213Y-127555635D02*
G01*
X122772792Y-127697056D01*
X122631371Y-127555635D01*
X122772792Y-127414214D01*
X122914213Y-127555635D01*
G37*
%TD.AperFunction*%
%TA.AperFunction,SMDPad,CuDef*%
G36*
X120368629Y-125010051D02*
G01*
X120085786Y-125292894D01*
X119802943Y-125010051D01*
X120085786Y-124727208D01*
X120368629Y-125010051D01*
G37*
%TD.AperFunction*%
%TA.AperFunction,SMDPad,CuDef*%
G36*
X120792894Y-125717157D02*
G01*
X120651472Y-125858579D01*
X120227208Y-125434315D01*
X120368630Y-125292893D01*
X120792894Y-125717157D01*
G37*
%TD.AperFunction*%
%TA.AperFunction,SMDPad,CuDef*%
G36*
X121924264Y-126848528D02*
G01*
X121782843Y-126989949D01*
X121500000Y-126707106D01*
X121641421Y-126565685D01*
X121924264Y-126848528D01*
G37*
%TD.AperFunction*%
%TA.AperFunction,SMDPad,CuDef*%
G36*
X122348528Y-127272792D02*
G01*
X122207107Y-127414213D01*
X122065686Y-127272792D01*
X122207107Y-127131371D01*
X122348528Y-127272792D01*
G37*
%TD.AperFunction*%
%TA.AperFunction,SMDPad,CuDef*%
G36*
X122772792Y-127697057D02*
G01*
X122631371Y-127838478D01*
X122348528Y-127555635D01*
X122489949Y-127414214D01*
X122772792Y-127697057D01*
G37*
%TD.AperFunction*%
%TA.AperFunction,SMDPad,CuDef*%
G36*
X121358578Y-126565685D02*
G01*
X121217157Y-126707106D01*
X121075736Y-126565685D01*
X121217157Y-126424264D01*
X121358578Y-126565685D01*
G37*
%TD.AperFunction*%
%TA.AperFunction,SMDPad,CuDef*%
G36*
X120368629Y-125858579D02*
G01*
X120227208Y-126000000D01*
X119520101Y-125292893D01*
X119661522Y-125151472D01*
X120368629Y-125858579D01*
G37*
%TD.AperFunction*%
%TA.AperFunction,SMDPad,CuDef*%
G36*
X120934315Y-126141421D02*
G01*
X120651472Y-126424264D01*
X120510051Y-126282843D01*
X120792894Y-126000000D01*
X120934315Y-126141421D01*
G37*
%TD.AperFunction*%
%TA.AperFunction,SMDPad,CuDef*%
G36*
X121500000Y-126141421D02*
G01*
X120934315Y-126707106D01*
X120792894Y-126565685D01*
X121358579Y-126000000D01*
X121500000Y-126141421D01*
G37*
%TD.AperFunction*%
%TA.AperFunction,SMDPad,CuDef*%
G36*
X122348528Y-127838478D02*
G01*
X122207107Y-127979899D01*
X121500000Y-127272792D01*
X121641421Y-127131371D01*
X122348528Y-127838478D01*
G37*
%TD.AperFunction*%
%TA.AperFunction,SMDPad,CuDef*%
G36*
X120792893Y-126565686D02*
G01*
X120651472Y-126707107D01*
X120368629Y-126424264D01*
X120510050Y-126282843D01*
X120792893Y-126565686D01*
G37*
%TD.AperFunction*%
%TA.AperFunction,SMDPad,CuDef*%
G36*
X121075736Y-126848528D02*
G01*
X120934315Y-126989949D01*
X120792894Y-126848528D01*
X120934315Y-126707107D01*
X121075736Y-126848528D01*
G37*
%TD.AperFunction*%
%TA.AperFunction,SMDPad,CuDef*%
G36*
X120792893Y-126848528D02*
G01*
X120651472Y-126989949D01*
X120510051Y-126848528D01*
X120651472Y-126707107D01*
X120792893Y-126848528D01*
G37*
%TD.AperFunction*%
%TA.AperFunction,SMDPad,CuDef*%
G36*
X121500000Y-126707107D02*
G01*
X120934315Y-127272792D01*
X120792894Y-127131371D01*
X121358579Y-126565686D01*
X121500000Y-126707107D01*
G37*
%TD.AperFunction*%
%TA.AperFunction,SMDPad,CuDef*%
G36*
X119944365Y-126000000D02*
G01*
X119520101Y-126424264D01*
X119095837Y-126000000D01*
X119520101Y-125575736D01*
X119944365Y-126000000D01*
G37*
%TD.AperFunction*%
%TA.AperFunction,SMDPad,CuDef*%
G36*
X120227207Y-126848528D02*
G01*
X120085786Y-126989949D01*
X119944365Y-126848528D01*
X120085786Y-126707107D01*
X120227207Y-126848528D01*
G37*
%TD.AperFunction*%
%TA.AperFunction,SMDPad,CuDef*%
G36*
X120651472Y-127272792D02*
G01*
X120510051Y-127414213D01*
X120368630Y-127272792D01*
X120510051Y-127131371D01*
X120651472Y-127272792D01*
G37*
%TD.AperFunction*%
%TA.AperFunction,SMDPad,CuDef*%
G36*
X121924264Y-127979899D02*
G01*
X121500000Y-128404163D01*
X121075736Y-127979899D01*
X121500000Y-127555635D01*
X121924264Y-127979899D01*
G37*
%TD.AperFunction*%
%TA.AperFunction,SMDPad,CuDef*%
G36*
X119661523Y-125151472D02*
G01*
X118812995Y-126000000D01*
X118671573Y-125858578D01*
X119520101Y-125010050D01*
X119661523Y-125151472D01*
G37*
%TD.AperFunction*%
%TA.AperFunction,SMDPad,CuDef*%
G36*
X120510051Y-126000000D02*
G01*
X119661523Y-126848528D01*
X119520101Y-126707106D01*
X120368629Y-125858578D01*
X120510051Y-126000000D01*
G37*
%TD.AperFunction*%
%TA.AperFunction,SMDPad,CuDef*%
G36*
X120651471Y-126989949D02*
G01*
X120227207Y-127414213D01*
X119944365Y-127131371D01*
X120368629Y-126707107D01*
X120651471Y-126989949D01*
G37*
%TD.AperFunction*%
%TA.AperFunction,SMDPad,CuDef*%
G36*
X120792893Y-127414213D02*
G01*
X120510050Y-127697056D01*
X120368629Y-127555635D01*
X120651472Y-127272792D01*
X120792893Y-127414213D01*
G37*
%TD.AperFunction*%
%TA.AperFunction,SMDPad,CuDef*%
G36*
X121641422Y-127131371D02*
G01*
X120792894Y-127979899D01*
X120651472Y-127838477D01*
X121500000Y-126989949D01*
X121641422Y-127131371D01*
G37*
%TD.AperFunction*%
%TA.AperFunction,SMDPad,CuDef*%
G36*
X122489950Y-127979899D02*
G01*
X121641422Y-128828427D01*
X121500000Y-128687005D01*
X122348528Y-127838477D01*
X122489950Y-127979899D01*
G37*
%TD.AperFunction*%
%TA.AperFunction,SMDPad,CuDef*%
G36*
X119661522Y-126848528D02*
G01*
X119520101Y-126989949D01*
X118530152Y-126000000D01*
X118671573Y-125858579D01*
X119661522Y-126848528D01*
G37*
%TD.AperFunction*%
%TA.AperFunction,SMDPad,CuDef*%
G36*
X120085786Y-127272793D02*
G01*
X119944365Y-127414214D01*
X119661522Y-127131371D01*
X119802943Y-126989950D01*
X120085786Y-127272793D01*
G37*
%TD.AperFunction*%
%TA.AperFunction,SMDPad,CuDef*%
G36*
X120368629Y-127555635D02*
G01*
X120227208Y-127697056D01*
X120085787Y-127555635D01*
X120227208Y-127414214D01*
X120368629Y-127555635D01*
G37*
%TD.AperFunction*%
%TA.AperFunction,SMDPad,CuDef*%
G36*
X121641421Y-128828427D02*
G01*
X121500000Y-128969848D01*
X120510051Y-127979899D01*
X120651472Y-127838478D01*
X121641421Y-128828427D01*
G37*
%TD.AperFunction*%
%TD*%
D15*
%TO.N,GND*%
X121600000Y-106700000D03*
X118000000Y-119600000D03*
X114800000Y-107200000D03*
X117300000Y-99800000D03*
X127200000Y-105300000D03*
X127200000Y-107500000D03*
X125200000Y-119600000D03*
X117243776Y-101745020D03*
X127750000Y-115450000D03*
%TO.N,+3V3*%
X121200000Y-101020010D03*
%TO.N,O*%
X115300000Y-105100000D03*
X117300000Y-116000000D03*
X117687877Y-110000000D03*
%TO.N,I*%
X114386177Y-105506143D03*
%TO.N,EN*%
X114642725Y-113882595D03*
%TO.N,GPIO0*%
X112800000Y-118100000D03*
%TO.N,CHARGER*%
X115625010Y-111213821D03*
%TO.N,Net-(C2-Pad1)*%
X121300000Y-114000000D03*
X115600000Y-115200000D03*
%TO.N,R*%
X120502532Y-103674990D03*
%TO.N,G*%
X118443986Y-104277920D03*
%TO.N,B*%
X119312712Y-103624899D03*
%TO.N,Net-(SW1-Pad1)*%
X127400000Y-113000000D03*
%TD*%
D16*
%TO.N,GND*%
X130000000Y-100295000D02*
X123095000Y-100295000D01*
X117305000Y-99805000D02*
X117300000Y-99800000D01*
X123095000Y-100295000D02*
X117305000Y-100295000D01*
X117305000Y-100295000D02*
X117305000Y-99805000D01*
X117305000Y-100295000D02*
X113000000Y-100295000D01*
X127200000Y-105300000D02*
X127200000Y-107500000D01*
X127200000Y-108500000D02*
X126000000Y-109700000D01*
X124405000Y-109700000D02*
X122500000Y-107795000D01*
X126000000Y-109700000D02*
X124405000Y-109700000D01*
X127200000Y-107500000D02*
X127200000Y-108500000D01*
X117300000Y-101688796D02*
X117243776Y-101745020D01*
X117300000Y-99800000D02*
X117300000Y-101688796D01*
%TO.N,+3V3*%
X121744990Y-101565000D02*
X121200000Y-101020010D01*
X130000000Y-101565000D02*
X121744990Y-101565000D01*
%TO.N,O*%
X114305000Y-104105000D02*
X115300000Y-105100000D01*
X113000000Y-104105000D02*
X114305000Y-104105000D01*
X117687877Y-110987877D02*
X117687877Y-110000000D01*
X118500000Y-111800000D02*
X117687877Y-110987877D01*
X118500000Y-113500000D02*
X118500000Y-111800000D01*
X120574999Y-113925001D02*
X120500000Y-114000000D01*
X118200000Y-115100000D02*
X121273002Y-115100000D01*
X119000000Y-114000000D02*
X118500000Y-113500000D01*
X120574999Y-113574999D02*
X120574999Y-113925001D01*
X120874999Y-113274999D02*
X120574999Y-113574999D01*
X121273002Y-115100000D02*
X122025001Y-114348001D01*
X122025001Y-113651999D02*
X121648001Y-113274999D01*
X117300000Y-116000000D02*
X118200000Y-115100000D01*
X120500000Y-114000000D02*
X119000000Y-114000000D01*
X122025001Y-114348001D02*
X122025001Y-113651999D01*
X121648001Y-113274999D02*
X120874999Y-113274999D01*
%TO.N,I*%
X113000000Y-105375000D02*
X114255034Y-105375000D01*
X114255034Y-105375000D02*
X114386177Y-105506143D01*
%TO.N,EN*%
X116817405Y-113882595D02*
X114642725Y-113882595D01*
X118000001Y-113340001D02*
X117457407Y-113882595D01*
X116962867Y-111062867D02*
X118000001Y-112100001D01*
X117718984Y-108506750D02*
X116962867Y-109262867D01*
X116962867Y-109262867D02*
X116962867Y-111062867D01*
X117725002Y-105548002D02*
X117718984Y-105554020D01*
X117718984Y-105554020D02*
X117718984Y-108506750D01*
X117457407Y-113882595D02*
X116817405Y-113882595D01*
X118000001Y-112100001D02*
X118000001Y-113340001D01*
X117725002Y-104851998D02*
X117725002Y-105548002D01*
X117718984Y-104845980D02*
X117725002Y-104851998D01*
X117718984Y-103900673D02*
X117718984Y-104845980D01*
X118784657Y-102835000D02*
X117718984Y-103900673D01*
X130000000Y-102835000D02*
X118784657Y-102835000D01*
%TO.N,GPIO0*%
X112800000Y-117005000D02*
X113000000Y-116805000D01*
X112800000Y-118100000D02*
X112800000Y-117005000D01*
%TO.N,CHARGER*%
X114866189Y-110455000D02*
X115625010Y-111213821D01*
X113000000Y-110455000D02*
X114866189Y-110455000D01*
%TO.N,Net-(C2-Pad1)*%
X120700000Y-114600000D02*
X116400000Y-114600000D01*
X121300000Y-114000000D02*
X120700000Y-114600000D01*
X115800000Y-115200000D02*
X115600000Y-115200000D01*
X116400000Y-114600000D02*
X115800000Y-115200000D01*
%TO.N,R*%
X120502532Y-104240675D02*
X120502532Y-103674990D01*
X119600000Y-110480002D02*
X119600000Y-105143207D01*
X119600000Y-105143207D02*
X120502532Y-104240675D01*
X119819998Y-110700000D02*
X119600000Y-110480002D01*
X128750000Y-109185000D02*
X128600000Y-109335000D01*
X127900000Y-110700000D02*
X119819998Y-110700000D01*
X128600000Y-110000000D02*
X127900000Y-110700000D01*
X128600000Y-109335000D02*
X128600000Y-110000000D01*
X130000000Y-109185000D02*
X128750000Y-109185000D01*
%TO.N,G*%
X128575000Y-111725000D02*
X130000000Y-111725000D01*
X128450021Y-111600021D02*
X128575000Y-111725000D01*
X119447198Y-111600021D02*
X128450021Y-111600021D01*
X118443986Y-110596810D02*
X119447198Y-111600021D01*
X118443986Y-104277920D02*
X118443986Y-110596810D01*
%TO.N,B*%
X119312712Y-103624899D02*
X119312712Y-104482198D01*
X119312712Y-104482198D02*
X119149989Y-104644921D01*
X128086399Y-111150011D02*
X128781410Y-110455000D01*
X119149989Y-104644921D02*
X119149989Y-110666402D01*
X119633598Y-111150011D02*
X128086399Y-111150011D01*
X128781410Y-110455000D02*
X130000000Y-110455000D01*
X119149989Y-110666402D02*
X119633598Y-111150011D01*
%TO.N,Net-(SW1-Pad1)*%
X129995000Y-113000000D02*
X130000000Y-112995000D01*
X127400000Y-113000000D02*
X129995000Y-113000000D01*
%TD*%
D17*
%TO.N,GND*%
X125350030Y-119154988D02*
X125421095Y-119176545D01*
X125495000Y-119183824D01*
X125917404Y-119183824D01*
X125913001Y-119228535D01*
X125913000Y-131563000D01*
X117087000Y-131563000D01*
X117087000Y-126000000D01*
X117273000Y-126000000D01*
X117275440Y-126024776D01*
X117282667Y-126048601D01*
X117294403Y-126070557D01*
X117310197Y-126089803D01*
X117836894Y-126616500D01*
X117871493Y-126658659D01*
X118861442Y-127648608D01*
X118903601Y-127683207D01*
X118968260Y-127747866D01*
X119002863Y-127790030D01*
X119285706Y-128072873D01*
X119327870Y-128107476D01*
X119392529Y-128172135D01*
X119427128Y-128214294D01*
X119568549Y-128355715D01*
X119610708Y-128390314D01*
X119816793Y-128596399D01*
X119851392Y-128638558D01*
X120841341Y-129628507D01*
X120883500Y-129663106D01*
X121410197Y-130189803D01*
X121429443Y-130205597D01*
X121451399Y-130217333D01*
X121475224Y-130224560D01*
X121500000Y-130227000D01*
X121524776Y-130224560D01*
X121548601Y-130217333D01*
X121570557Y-130205597D01*
X121589803Y-130189803D01*
X122116500Y-129663106D01*
X122158659Y-129628507D01*
X122300075Y-129487091D01*
X122300081Y-129487086D01*
X123148609Y-128638558D01*
X123183212Y-128596394D01*
X123247866Y-128531740D01*
X123290030Y-128497137D01*
X123431451Y-128355716D01*
X123431456Y-128355710D01*
X123572872Y-128214294D01*
X123607471Y-128172135D01*
X123672135Y-128107471D01*
X123714294Y-128072872D01*
X123855715Y-127931451D01*
X123890314Y-127889292D01*
X124096399Y-127683207D01*
X124138558Y-127648608D01*
X124279974Y-127507192D01*
X124279980Y-127507187D01*
X125128508Y-126658659D01*
X125163111Y-126616495D01*
X125689803Y-126089803D01*
X125705597Y-126070557D01*
X125717333Y-126048601D01*
X125724560Y-126024776D01*
X125727000Y-126000000D01*
X125724560Y-125975224D01*
X125717333Y-125951399D01*
X125705597Y-125929443D01*
X125689803Y-125910197D01*
X125163111Y-125383505D01*
X125128508Y-125341341D01*
X124987086Y-125199919D01*
X124987080Y-125199914D01*
X124279985Y-124492819D01*
X124279980Y-124492813D01*
X124138558Y-124351391D01*
X124096394Y-124316788D01*
X124031740Y-124252134D01*
X123997137Y-124209970D01*
X123714294Y-123927127D01*
X123714288Y-123927122D01*
X123431456Y-123644290D01*
X123431451Y-123644284D01*
X123290030Y-123502863D01*
X123247866Y-123468260D01*
X123183207Y-123403601D01*
X123148608Y-123361442D01*
X122865765Y-123078599D01*
X122823606Y-123044000D01*
X121589803Y-121810197D01*
X121570557Y-121794403D01*
X121548601Y-121782667D01*
X121524776Y-121775440D01*
X121500000Y-121773000D01*
X121475224Y-121775440D01*
X121451399Y-121782667D01*
X121429443Y-121794403D01*
X121410197Y-121810197D01*
X120742079Y-122478315D01*
X120699920Y-122512914D01*
X120275656Y-122937178D01*
X120241057Y-122979337D01*
X119893555Y-123326839D01*
X119851391Y-123361442D01*
X119427127Y-123785706D01*
X119392524Y-123827870D01*
X119327865Y-123892529D01*
X119285706Y-123927128D01*
X119144285Y-124068549D01*
X119109686Y-124110708D01*
X118903606Y-124316788D01*
X118861442Y-124351391D01*
X118012914Y-125199919D01*
X118012909Y-125199925D01*
X117871493Y-125341341D01*
X117836894Y-125383500D01*
X117310197Y-125910197D01*
X117294403Y-125929443D01*
X117282667Y-125951399D01*
X117275440Y-125975224D01*
X117273000Y-126000000D01*
X117087000Y-126000000D01*
X117087000Y-119228535D01*
X117082597Y-119183824D01*
X117505000Y-119183824D01*
X117578905Y-119176545D01*
X117649970Y-119154988D01*
X117690000Y-119133591D01*
X117730030Y-119154988D01*
X117801095Y-119176545D01*
X117875000Y-119183824D01*
X118775000Y-119183824D01*
X118848905Y-119176545D01*
X118919970Y-119154988D01*
X118960000Y-119133591D01*
X119000030Y-119154988D01*
X119071095Y-119176545D01*
X119145000Y-119183824D01*
X120045000Y-119183824D01*
X120118905Y-119176545D01*
X120189970Y-119154988D01*
X120230000Y-119133591D01*
X120270030Y-119154988D01*
X120341095Y-119176545D01*
X120415000Y-119183824D01*
X121315000Y-119183824D01*
X121388905Y-119176545D01*
X121459970Y-119154988D01*
X121500000Y-119133591D01*
X121540030Y-119154988D01*
X121611095Y-119176545D01*
X121685000Y-119183824D01*
X122585000Y-119183824D01*
X122658905Y-119176545D01*
X122729970Y-119154988D01*
X122770000Y-119133591D01*
X122810030Y-119154988D01*
X122881095Y-119176545D01*
X122955000Y-119183824D01*
X123855000Y-119183824D01*
X123928905Y-119176545D01*
X123999970Y-119154988D01*
X124040000Y-119133591D01*
X124080030Y-119154988D01*
X124151095Y-119176545D01*
X124225000Y-119183824D01*
X125125000Y-119183824D01*
X125198905Y-119176545D01*
X125269970Y-119154988D01*
X125310000Y-119133591D01*
X125350030Y-119154988D01*
%TA.AperFunction,Conductor*%
D18*
G36*
X125350030Y-119154988D02*
G01*
X125421095Y-119176545D01*
X125495000Y-119183824D01*
X125917404Y-119183824D01*
X125913001Y-119228535D01*
X125913000Y-131563000D01*
X117087000Y-131563000D01*
X117087000Y-126000000D01*
X117273000Y-126000000D01*
X117275440Y-126024776D01*
X117282667Y-126048601D01*
X117294403Y-126070557D01*
X117310197Y-126089803D01*
X117836894Y-126616500D01*
X117871493Y-126658659D01*
X118861442Y-127648608D01*
X118903601Y-127683207D01*
X118968260Y-127747866D01*
X119002863Y-127790030D01*
X119285706Y-128072873D01*
X119327870Y-128107476D01*
X119392529Y-128172135D01*
X119427128Y-128214294D01*
X119568549Y-128355715D01*
X119610708Y-128390314D01*
X119816793Y-128596399D01*
X119851392Y-128638558D01*
X120841341Y-129628507D01*
X120883500Y-129663106D01*
X121410197Y-130189803D01*
X121429443Y-130205597D01*
X121451399Y-130217333D01*
X121475224Y-130224560D01*
X121500000Y-130227000D01*
X121524776Y-130224560D01*
X121548601Y-130217333D01*
X121570557Y-130205597D01*
X121589803Y-130189803D01*
X122116500Y-129663106D01*
X122158659Y-129628507D01*
X122300075Y-129487091D01*
X122300081Y-129487086D01*
X123148609Y-128638558D01*
X123183212Y-128596394D01*
X123247866Y-128531740D01*
X123290030Y-128497137D01*
X123431451Y-128355716D01*
X123431456Y-128355710D01*
X123572872Y-128214294D01*
X123607471Y-128172135D01*
X123672135Y-128107471D01*
X123714294Y-128072872D01*
X123855715Y-127931451D01*
X123890314Y-127889292D01*
X124096399Y-127683207D01*
X124138558Y-127648608D01*
X124279974Y-127507192D01*
X124279980Y-127507187D01*
X125128508Y-126658659D01*
X125163111Y-126616495D01*
X125689803Y-126089803D01*
X125705597Y-126070557D01*
X125717333Y-126048601D01*
X125724560Y-126024776D01*
X125727000Y-126000000D01*
X125724560Y-125975224D01*
X125717333Y-125951399D01*
X125705597Y-125929443D01*
X125689803Y-125910197D01*
X125163111Y-125383505D01*
X125128508Y-125341341D01*
X124987086Y-125199919D01*
X124987080Y-125199914D01*
X124279985Y-124492819D01*
X124279980Y-124492813D01*
X124138558Y-124351391D01*
X124096394Y-124316788D01*
X124031740Y-124252134D01*
X123997137Y-124209970D01*
X123714294Y-123927127D01*
X123714288Y-123927122D01*
X123431456Y-123644290D01*
X123431451Y-123644284D01*
X123290030Y-123502863D01*
X123247866Y-123468260D01*
X123183207Y-123403601D01*
X123148608Y-123361442D01*
X122865765Y-123078599D01*
X122823606Y-123044000D01*
X121589803Y-121810197D01*
X121570557Y-121794403D01*
X121548601Y-121782667D01*
X121524776Y-121775440D01*
X121500000Y-121773000D01*
X121475224Y-121775440D01*
X121451399Y-121782667D01*
X121429443Y-121794403D01*
X121410197Y-121810197D01*
X120742079Y-122478315D01*
X120699920Y-122512914D01*
X120275656Y-122937178D01*
X120241057Y-122979337D01*
X119893555Y-123326839D01*
X119851391Y-123361442D01*
X119427127Y-123785706D01*
X119392524Y-123827870D01*
X119327865Y-123892529D01*
X119285706Y-123927128D01*
X119144285Y-124068549D01*
X119109686Y-124110708D01*
X118903606Y-124316788D01*
X118861442Y-124351391D01*
X118012914Y-125199919D01*
X118012909Y-125199925D01*
X117871493Y-125341341D01*
X117836894Y-125383500D01*
X117310197Y-125910197D01*
X117294403Y-125929443D01*
X117282667Y-125951399D01*
X117275440Y-125975224D01*
X117273000Y-126000000D01*
X117087000Y-126000000D01*
X117087000Y-119228535D01*
X117082597Y-119183824D01*
X117505000Y-119183824D01*
X117578905Y-119176545D01*
X117649970Y-119154988D01*
X117690000Y-119133591D01*
X117730030Y-119154988D01*
X117801095Y-119176545D01*
X117875000Y-119183824D01*
X118775000Y-119183824D01*
X118848905Y-119176545D01*
X118919970Y-119154988D01*
X118960000Y-119133591D01*
X119000030Y-119154988D01*
X119071095Y-119176545D01*
X119145000Y-119183824D01*
X120045000Y-119183824D01*
X120118905Y-119176545D01*
X120189970Y-119154988D01*
X120230000Y-119133591D01*
X120270030Y-119154988D01*
X120341095Y-119176545D01*
X120415000Y-119183824D01*
X121315000Y-119183824D01*
X121388905Y-119176545D01*
X121459970Y-119154988D01*
X121500000Y-119133591D01*
X121540030Y-119154988D01*
X121611095Y-119176545D01*
X121685000Y-119183824D01*
X122585000Y-119183824D01*
X122658905Y-119176545D01*
X122729970Y-119154988D01*
X122770000Y-119133591D01*
X122810030Y-119154988D01*
X122881095Y-119176545D01*
X122955000Y-119183824D01*
X123855000Y-119183824D01*
X123928905Y-119176545D01*
X123999970Y-119154988D01*
X124040000Y-119133591D01*
X124080030Y-119154988D01*
X124151095Y-119176545D01*
X124225000Y-119183824D01*
X125125000Y-119183824D01*
X125198905Y-119176545D01*
X125269970Y-119154988D01*
X125310000Y-119133591D01*
X125350030Y-119154988D01*
G37*
%TD.AperFunction*%
D17*
X119074801Y-111937559D02*
X119090514Y-111956705D01*
X119166953Y-112019438D01*
X119254162Y-112066052D01*
X119348789Y-112094757D01*
X119422545Y-112102021D01*
X119422555Y-112102021D01*
X119447198Y-112104448D01*
X119471841Y-112102021D01*
X128243096Y-112102021D01*
X128294755Y-112144417D01*
X128381964Y-112191031D01*
X128476591Y-112219736D01*
X128550347Y-112227000D01*
X128550357Y-112227000D01*
X128575000Y-112229427D01*
X128599643Y-112227000D01*
X128626298Y-112227000D01*
X128628455Y-112248905D01*
X128650012Y-112319970D01*
X128671409Y-112360000D01*
X128650012Y-112400030D01*
X128628455Y-112471095D01*
X128625805Y-112498000D01*
X127996845Y-112498000D01*
X127895309Y-112396464D01*
X127768048Y-112311431D01*
X127626643Y-112252859D01*
X127476528Y-112223000D01*
X127323472Y-112223000D01*
X127173357Y-112252859D01*
X127031952Y-112311431D01*
X126904691Y-112396464D01*
X126796464Y-112504691D01*
X126711431Y-112631952D01*
X126652859Y-112773357D01*
X126623000Y-112923472D01*
X126623000Y-113076528D01*
X126652859Y-113226643D01*
X126711431Y-113368048D01*
X126796464Y-113495309D01*
X126904691Y-113603536D01*
X127031952Y-113688569D01*
X127173357Y-113747141D01*
X127323472Y-113777000D01*
X127476528Y-113777000D01*
X127626643Y-113747141D01*
X127768048Y-113688569D01*
X127895309Y-113603536D01*
X127996845Y-113502000D01*
X128626790Y-113502000D01*
X128628455Y-113518905D01*
X128650012Y-113589970D01*
X128671409Y-113630000D01*
X128650012Y-113670030D01*
X128628455Y-113741095D01*
X128621176Y-113815000D01*
X128621176Y-114715000D01*
X128628455Y-114788905D01*
X128650012Y-114859970D01*
X128671409Y-114900000D01*
X128650012Y-114940030D01*
X128628455Y-115011095D01*
X128621176Y-115085000D01*
X128621176Y-115985000D01*
X128628455Y-116058905D01*
X128650012Y-116129970D01*
X128671409Y-116170000D01*
X128650012Y-116210030D01*
X128628455Y-116281095D01*
X128621176Y-116355000D01*
X128621176Y-117255000D01*
X128628455Y-117328905D01*
X128650012Y-117399970D01*
X128685019Y-117465463D01*
X128732131Y-117522869D01*
X128789537Y-117569981D01*
X128855030Y-117604988D01*
X128926095Y-117626545D01*
X129000000Y-117633824D01*
X130573000Y-117633824D01*
X130573000Y-118229117D01*
X130560078Y-118360899D01*
X130527873Y-118467570D01*
X130475558Y-118565961D01*
X130405130Y-118652313D01*
X130319270Y-118723343D01*
X130221255Y-118776339D01*
X130114807Y-118809290D01*
X129984371Y-118823000D01*
X128301299Y-118823000D01*
X128303072Y-118805000D01*
X128300000Y-118090750D01*
X128141250Y-117932000D01*
X127342000Y-117932000D01*
X127342000Y-117952000D01*
X127088000Y-117952000D01*
X127088000Y-117932000D01*
X127068000Y-117932000D01*
X127068000Y-117678000D01*
X127088000Y-117678000D01*
X127088000Y-116328750D01*
X127342000Y-116328750D01*
X127342000Y-117678000D01*
X128141250Y-117678000D01*
X128300000Y-117519250D01*
X128303072Y-116805000D01*
X128290812Y-116680518D01*
X128254502Y-116560820D01*
X128195537Y-116450506D01*
X128116185Y-116353815D01*
X128019494Y-116274463D01*
X127909180Y-116215498D01*
X127789482Y-116179188D01*
X127665000Y-116166928D01*
X127500750Y-116170000D01*
X127342000Y-116328750D01*
X127088000Y-116328750D01*
X126929250Y-116170000D01*
X126765000Y-116166928D01*
X126640518Y-116179188D01*
X126520820Y-116215498D01*
X126410506Y-116274463D01*
X126313815Y-116353815D01*
X126254430Y-116426176D01*
X125495000Y-116426176D01*
X125421095Y-116433455D01*
X125350030Y-116455012D01*
X125310000Y-116476409D01*
X125269970Y-116455012D01*
X125198905Y-116433455D01*
X125125000Y-116426176D01*
X124225000Y-116426176D01*
X124151095Y-116433455D01*
X124080030Y-116455012D01*
X124040000Y-116476409D01*
X123999970Y-116455012D01*
X123928905Y-116433455D01*
X123855000Y-116426176D01*
X122955000Y-116426176D01*
X122881095Y-116433455D01*
X122810030Y-116455012D01*
X122770000Y-116476409D01*
X122729970Y-116455012D01*
X122658905Y-116433455D01*
X122585000Y-116426176D01*
X121685000Y-116426176D01*
X121611095Y-116433455D01*
X121540030Y-116455012D01*
X121500000Y-116476409D01*
X121459970Y-116455012D01*
X121388905Y-116433455D01*
X121315000Y-116426176D01*
X120415000Y-116426176D01*
X120341095Y-116433455D01*
X120270030Y-116455012D01*
X120230000Y-116476409D01*
X120189970Y-116455012D01*
X120118905Y-116433455D01*
X120045000Y-116426176D01*
X119145000Y-116426176D01*
X119071095Y-116433455D01*
X119000030Y-116455012D01*
X118960000Y-116476409D01*
X118919970Y-116455012D01*
X118848905Y-116433455D01*
X118775000Y-116426176D01*
X117949729Y-116426176D01*
X117988569Y-116368048D01*
X118047141Y-116226643D01*
X118077000Y-116076528D01*
X118077000Y-115932934D01*
X118407935Y-115602000D01*
X121248359Y-115602000D01*
X121273002Y-115604427D01*
X121297645Y-115602000D01*
X121297655Y-115602000D01*
X121371411Y-115594736D01*
X121466038Y-115566031D01*
X121553247Y-115519417D01*
X121629686Y-115456684D01*
X121645403Y-115437533D01*
X122362539Y-114720398D01*
X122381685Y-114704685D01*
X122401466Y-114680583D01*
X122444417Y-114628247D01*
X122444418Y-114628246D01*
X122491032Y-114541037D01*
X122519737Y-114446410D01*
X122527001Y-114372654D01*
X122527001Y-114372645D01*
X122529428Y-114348002D01*
X122527001Y-114323359D01*
X122527001Y-113676644D01*
X122529428Y-113651999D01*
X122527001Y-113627353D01*
X122527001Y-113627346D01*
X122519737Y-113553590D01*
X122519437Y-113552601D01*
X122491032Y-113458962D01*
X122444418Y-113371753D01*
X122397401Y-113314464D01*
X122397398Y-113314461D01*
X122381685Y-113295315D01*
X122362539Y-113279602D01*
X122020402Y-112937466D01*
X122004685Y-112918315D01*
X121928246Y-112855582D01*
X121841037Y-112808968D01*
X121746410Y-112780263D01*
X121672654Y-112772999D01*
X121672644Y-112772999D01*
X121648001Y-112770572D01*
X121623358Y-112772999D01*
X120899641Y-112772999D01*
X120874998Y-112770572D01*
X120850355Y-112772999D01*
X120850346Y-112772999D01*
X120776590Y-112780263D01*
X120681963Y-112808968D01*
X120594754Y-112855582D01*
X120518315Y-112918315D01*
X120502597Y-112937467D01*
X120237467Y-113202597D01*
X120218315Y-113218315D01*
X120155582Y-113294754D01*
X120108968Y-113381964D01*
X120080263Y-113476591D01*
X120078154Y-113498000D01*
X119207935Y-113498000D01*
X119002000Y-113292065D01*
X119002000Y-111864758D01*
X119074801Y-111937559D01*
%TA.AperFunction,Conductor*%
D18*
G36*
X119074801Y-111937559D02*
G01*
X119090514Y-111956705D01*
X119166953Y-112019438D01*
X119254162Y-112066052D01*
X119348789Y-112094757D01*
X119422545Y-112102021D01*
X119422555Y-112102021D01*
X119447198Y-112104448D01*
X119471841Y-112102021D01*
X128243096Y-112102021D01*
X128294755Y-112144417D01*
X128381964Y-112191031D01*
X128476591Y-112219736D01*
X128550347Y-112227000D01*
X128550357Y-112227000D01*
X128575000Y-112229427D01*
X128599643Y-112227000D01*
X128626298Y-112227000D01*
X128628455Y-112248905D01*
X128650012Y-112319970D01*
X128671409Y-112360000D01*
X128650012Y-112400030D01*
X128628455Y-112471095D01*
X128625805Y-112498000D01*
X127996845Y-112498000D01*
X127895309Y-112396464D01*
X127768048Y-112311431D01*
X127626643Y-112252859D01*
X127476528Y-112223000D01*
X127323472Y-112223000D01*
X127173357Y-112252859D01*
X127031952Y-112311431D01*
X126904691Y-112396464D01*
X126796464Y-112504691D01*
X126711431Y-112631952D01*
X126652859Y-112773357D01*
X126623000Y-112923472D01*
X126623000Y-113076528D01*
X126652859Y-113226643D01*
X126711431Y-113368048D01*
X126796464Y-113495309D01*
X126904691Y-113603536D01*
X127031952Y-113688569D01*
X127173357Y-113747141D01*
X127323472Y-113777000D01*
X127476528Y-113777000D01*
X127626643Y-113747141D01*
X127768048Y-113688569D01*
X127895309Y-113603536D01*
X127996845Y-113502000D01*
X128626790Y-113502000D01*
X128628455Y-113518905D01*
X128650012Y-113589970D01*
X128671409Y-113630000D01*
X128650012Y-113670030D01*
X128628455Y-113741095D01*
X128621176Y-113815000D01*
X128621176Y-114715000D01*
X128628455Y-114788905D01*
X128650012Y-114859970D01*
X128671409Y-114900000D01*
X128650012Y-114940030D01*
X128628455Y-115011095D01*
X128621176Y-115085000D01*
X128621176Y-115985000D01*
X128628455Y-116058905D01*
X128650012Y-116129970D01*
X128671409Y-116170000D01*
X128650012Y-116210030D01*
X128628455Y-116281095D01*
X128621176Y-116355000D01*
X128621176Y-117255000D01*
X128628455Y-117328905D01*
X128650012Y-117399970D01*
X128685019Y-117465463D01*
X128732131Y-117522869D01*
X128789537Y-117569981D01*
X128855030Y-117604988D01*
X128926095Y-117626545D01*
X129000000Y-117633824D01*
X130573000Y-117633824D01*
X130573000Y-118229117D01*
X130560078Y-118360899D01*
X130527873Y-118467570D01*
X130475558Y-118565961D01*
X130405130Y-118652313D01*
X130319270Y-118723343D01*
X130221255Y-118776339D01*
X130114807Y-118809290D01*
X129984371Y-118823000D01*
X128301299Y-118823000D01*
X128303072Y-118805000D01*
X128300000Y-118090750D01*
X128141250Y-117932000D01*
X127342000Y-117932000D01*
X127342000Y-117952000D01*
X127088000Y-117952000D01*
X127088000Y-117932000D01*
X127068000Y-117932000D01*
X127068000Y-117678000D01*
X127088000Y-117678000D01*
X127088000Y-116328750D01*
X127342000Y-116328750D01*
X127342000Y-117678000D01*
X128141250Y-117678000D01*
X128300000Y-117519250D01*
X128303072Y-116805000D01*
X128290812Y-116680518D01*
X128254502Y-116560820D01*
X128195537Y-116450506D01*
X128116185Y-116353815D01*
X128019494Y-116274463D01*
X127909180Y-116215498D01*
X127789482Y-116179188D01*
X127665000Y-116166928D01*
X127500750Y-116170000D01*
X127342000Y-116328750D01*
X127088000Y-116328750D01*
X126929250Y-116170000D01*
X126765000Y-116166928D01*
X126640518Y-116179188D01*
X126520820Y-116215498D01*
X126410506Y-116274463D01*
X126313815Y-116353815D01*
X126254430Y-116426176D01*
X125495000Y-116426176D01*
X125421095Y-116433455D01*
X125350030Y-116455012D01*
X125310000Y-116476409D01*
X125269970Y-116455012D01*
X125198905Y-116433455D01*
X125125000Y-116426176D01*
X124225000Y-116426176D01*
X124151095Y-116433455D01*
X124080030Y-116455012D01*
X124040000Y-116476409D01*
X123999970Y-116455012D01*
X123928905Y-116433455D01*
X123855000Y-116426176D01*
X122955000Y-116426176D01*
X122881095Y-116433455D01*
X122810030Y-116455012D01*
X122770000Y-116476409D01*
X122729970Y-116455012D01*
X122658905Y-116433455D01*
X122585000Y-116426176D01*
X121685000Y-116426176D01*
X121611095Y-116433455D01*
X121540030Y-116455012D01*
X121500000Y-116476409D01*
X121459970Y-116455012D01*
X121388905Y-116433455D01*
X121315000Y-116426176D01*
X120415000Y-116426176D01*
X120341095Y-116433455D01*
X120270030Y-116455012D01*
X120230000Y-116476409D01*
X120189970Y-116455012D01*
X120118905Y-116433455D01*
X120045000Y-116426176D01*
X119145000Y-116426176D01*
X119071095Y-116433455D01*
X119000030Y-116455012D01*
X118960000Y-116476409D01*
X118919970Y-116455012D01*
X118848905Y-116433455D01*
X118775000Y-116426176D01*
X117949729Y-116426176D01*
X117988569Y-116368048D01*
X118047141Y-116226643D01*
X118077000Y-116076528D01*
X118077000Y-115932934D01*
X118407935Y-115602000D01*
X121248359Y-115602000D01*
X121273002Y-115604427D01*
X121297645Y-115602000D01*
X121297655Y-115602000D01*
X121371411Y-115594736D01*
X121466038Y-115566031D01*
X121553247Y-115519417D01*
X121629686Y-115456684D01*
X121645403Y-115437533D01*
X122362539Y-114720398D01*
X122381685Y-114704685D01*
X122401466Y-114680583D01*
X122444417Y-114628247D01*
X122444418Y-114628246D01*
X122491032Y-114541037D01*
X122519737Y-114446410D01*
X122527001Y-114372654D01*
X122527001Y-114372645D01*
X122529428Y-114348002D01*
X122527001Y-114323359D01*
X122527001Y-113676644D01*
X122529428Y-113651999D01*
X122527001Y-113627353D01*
X122527001Y-113627346D01*
X122519737Y-113553590D01*
X122519437Y-113552601D01*
X122491032Y-113458962D01*
X122444418Y-113371753D01*
X122397401Y-113314464D01*
X122397398Y-113314461D01*
X122381685Y-113295315D01*
X122362539Y-113279602D01*
X122020402Y-112937466D01*
X122004685Y-112918315D01*
X121928246Y-112855582D01*
X121841037Y-112808968D01*
X121746410Y-112780263D01*
X121672654Y-112772999D01*
X121672644Y-112772999D01*
X121648001Y-112770572D01*
X121623358Y-112772999D01*
X120899641Y-112772999D01*
X120874998Y-112770572D01*
X120850355Y-112772999D01*
X120850346Y-112772999D01*
X120776590Y-112780263D01*
X120681963Y-112808968D01*
X120594754Y-112855582D01*
X120518315Y-112918315D01*
X120502597Y-112937467D01*
X120237467Y-113202597D01*
X120218315Y-113218315D01*
X120155582Y-113294754D01*
X120108968Y-113381964D01*
X120080263Y-113476591D01*
X120078154Y-113498000D01*
X119207935Y-113498000D01*
X119002000Y-113292065D01*
X119002000Y-111864758D01*
X119074801Y-111937559D01*
G37*
%TD.AperFunction*%
D17*
X128469463Y-99490506D02*
X128410498Y-99600820D01*
X128374188Y-99720518D01*
X128361928Y-99845000D01*
X128365000Y-100009250D01*
X128523750Y-100168000D01*
X129873000Y-100168000D01*
X129873000Y-100148000D01*
X130127000Y-100148000D01*
X130127000Y-100168000D01*
X130147000Y-100168000D01*
X130147000Y-100422000D01*
X130127000Y-100422000D01*
X130127000Y-100442000D01*
X129873000Y-100442000D01*
X129873000Y-100422000D01*
X128523750Y-100422000D01*
X128365000Y-100580750D01*
X128361928Y-100745000D01*
X128374188Y-100869482D01*
X128410498Y-100989180D01*
X128449956Y-101063000D01*
X121977000Y-101063000D01*
X121977000Y-100943482D01*
X121947141Y-100793367D01*
X121888569Y-100651962D01*
X121803536Y-100524701D01*
X121695309Y-100416474D01*
X121568048Y-100331441D01*
X121426643Y-100272869D01*
X121276528Y-100243010D01*
X121123472Y-100243010D01*
X120973357Y-100272869D01*
X120831952Y-100331441D01*
X120704691Y-100416474D01*
X120596464Y-100524701D01*
X120511431Y-100651962D01*
X120452859Y-100793367D01*
X120423000Y-100943482D01*
X120423000Y-101096538D01*
X120452859Y-101246653D01*
X120511431Y-101388058D01*
X120596464Y-101515319D01*
X120704691Y-101623546D01*
X120831952Y-101708579D01*
X120973357Y-101767151D01*
X121123472Y-101797010D01*
X121267065Y-101797010D01*
X121372593Y-101902538D01*
X121388306Y-101921684D01*
X121464745Y-101984417D01*
X121551954Y-102031031D01*
X121646581Y-102059736D01*
X121720337Y-102067000D01*
X121720346Y-102067000D01*
X121744989Y-102069427D01*
X121769632Y-102067000D01*
X128626298Y-102067000D01*
X128628455Y-102088905D01*
X128650012Y-102159970D01*
X128671409Y-102200000D01*
X128650012Y-102240030D01*
X128628455Y-102311095D01*
X128626298Y-102333000D01*
X118809299Y-102333000D01*
X118784656Y-102330573D01*
X118760013Y-102333000D01*
X118760004Y-102333000D01*
X118686248Y-102340264D01*
X118591621Y-102368969D01*
X118504412Y-102415583D01*
X118427973Y-102478316D01*
X118412260Y-102497462D01*
X117381451Y-103528272D01*
X117362300Y-103543989D01*
X117299567Y-103620428D01*
X117252953Y-103707638D01*
X117224248Y-103802265D01*
X117216984Y-103876021D01*
X117216984Y-103876030D01*
X117214557Y-103900673D01*
X117216984Y-103925316D01*
X117216985Y-104821327D01*
X117214557Y-104845980D01*
X117223002Y-104931729D01*
X117223003Y-105468255D01*
X117216984Y-105529368D01*
X117216984Y-105529377D01*
X117214557Y-105554020D01*
X117216984Y-105578663D01*
X117216985Y-108298814D01*
X116625334Y-108890466D01*
X116606183Y-108906183D01*
X116543450Y-108982622D01*
X116496836Y-109069832D01*
X116468131Y-109164459D01*
X116460867Y-109238215D01*
X116460867Y-109238224D01*
X116458440Y-109262867D01*
X116460867Y-109287510D01*
X116460868Y-111038214D01*
X116458440Y-111062867D01*
X116468132Y-111161276D01*
X116496837Y-111255903D01*
X116543451Y-111343112D01*
X116590468Y-111400402D01*
X116590471Y-111400405D01*
X116606184Y-111419551D01*
X116625330Y-111435264D01*
X117498001Y-112307936D01*
X117498002Y-113132065D01*
X117249472Y-113380595D01*
X115239570Y-113380595D01*
X115138034Y-113279059D01*
X115010773Y-113194026D01*
X114869368Y-113135454D01*
X114719253Y-113105595D01*
X114566197Y-113105595D01*
X114416082Y-113135454D01*
X114378824Y-113150887D01*
X114378824Y-112545000D01*
X114371545Y-112471095D01*
X114349988Y-112400030D01*
X114328591Y-112360000D01*
X114349988Y-112319970D01*
X114371545Y-112248905D01*
X114378824Y-112175000D01*
X114378824Y-111275000D01*
X114371545Y-111201095D01*
X114349988Y-111130030D01*
X114328591Y-111090000D01*
X114349988Y-111049970D01*
X114371545Y-110978905D01*
X114373702Y-110957000D01*
X114658255Y-110957000D01*
X114848010Y-111146755D01*
X114848010Y-111290349D01*
X114877869Y-111440464D01*
X114936441Y-111581869D01*
X115021474Y-111709130D01*
X115129701Y-111817357D01*
X115256962Y-111902390D01*
X115398367Y-111960962D01*
X115548482Y-111990821D01*
X115701538Y-111990821D01*
X115851653Y-111960962D01*
X115993058Y-111902390D01*
X116120319Y-111817357D01*
X116228546Y-111709130D01*
X116313579Y-111581869D01*
X116372151Y-111440464D01*
X116402010Y-111290349D01*
X116402010Y-111137293D01*
X116372151Y-110987178D01*
X116313579Y-110845773D01*
X116228546Y-110718512D01*
X116120319Y-110610285D01*
X115993058Y-110525252D01*
X115851653Y-110466680D01*
X115701538Y-110436821D01*
X115557944Y-110436821D01*
X115238590Y-110117467D01*
X115222873Y-110098316D01*
X115146434Y-110035583D01*
X115059225Y-109988969D01*
X114964598Y-109960264D01*
X114890842Y-109953000D01*
X114890832Y-109953000D01*
X114866189Y-109950573D01*
X114841546Y-109953000D01*
X114373702Y-109953000D01*
X114371545Y-109931095D01*
X114349988Y-109860030D01*
X114328591Y-109820000D01*
X114349988Y-109779970D01*
X114371545Y-109708905D01*
X114378824Y-109635000D01*
X114378824Y-108735000D01*
X114371545Y-108661095D01*
X114349988Y-108590030D01*
X114328591Y-108550000D01*
X114349988Y-108509970D01*
X114371545Y-108438905D01*
X114378824Y-108365000D01*
X114378824Y-107465000D01*
X114371545Y-107391095D01*
X114349988Y-107320030D01*
X114328591Y-107280000D01*
X114349988Y-107239970D01*
X114371545Y-107168905D01*
X114378824Y-107095000D01*
X114378824Y-106283143D01*
X114462705Y-106283143D01*
X114612820Y-106253284D01*
X114754225Y-106194712D01*
X114881486Y-106109679D01*
X114989713Y-106001452D01*
X115074746Y-105874191D01*
X115084992Y-105849455D01*
X115223472Y-105877000D01*
X115376528Y-105877000D01*
X115526643Y-105847141D01*
X115668048Y-105788569D01*
X115795309Y-105703536D01*
X115903536Y-105595309D01*
X115988569Y-105468048D01*
X116047141Y-105326643D01*
X116077000Y-105176528D01*
X116077000Y-105023472D01*
X116047141Y-104873357D01*
X115988569Y-104731952D01*
X115903536Y-104604691D01*
X115795309Y-104496464D01*
X115668048Y-104411431D01*
X115526643Y-104352859D01*
X115376528Y-104323000D01*
X115232935Y-104323000D01*
X114677401Y-103767467D01*
X114661684Y-103748316D01*
X114585245Y-103685583D01*
X114498036Y-103638969D01*
X114403409Y-103610264D01*
X114374134Y-103607381D01*
X114371545Y-103581095D01*
X114349988Y-103510030D01*
X114328591Y-103470000D01*
X114349988Y-103429970D01*
X114371545Y-103358905D01*
X114378824Y-103285000D01*
X114378824Y-102385000D01*
X114371545Y-102311095D01*
X114349988Y-102240030D01*
X114328591Y-102200000D01*
X114349988Y-102159970D01*
X114371545Y-102088905D01*
X114378824Y-102015000D01*
X114378824Y-101255570D01*
X114451185Y-101196185D01*
X114530537Y-101099494D01*
X114589502Y-100989180D01*
X114625812Y-100869482D01*
X114638072Y-100745000D01*
X114635000Y-100580750D01*
X114476250Y-100422000D01*
X113127000Y-100422000D01*
X113127000Y-100442000D01*
X112873000Y-100442000D01*
X112873000Y-100422000D01*
X112853000Y-100422000D01*
X112853000Y-100168000D01*
X112873000Y-100168000D01*
X112873000Y-100148000D01*
X113127000Y-100148000D01*
X113127000Y-100168000D01*
X114476250Y-100168000D01*
X114635000Y-100009250D01*
X114638072Y-99845000D01*
X114625812Y-99720518D01*
X114589502Y-99600820D01*
X114530537Y-99490506D01*
X114478419Y-99427000D01*
X128521581Y-99427000D01*
X128469463Y-99490506D01*
%TA.AperFunction,Conductor*%
D18*
G36*
X128469463Y-99490506D02*
G01*
X128410498Y-99600820D01*
X128374188Y-99720518D01*
X128361928Y-99845000D01*
X128365000Y-100009250D01*
X128523750Y-100168000D01*
X129873000Y-100168000D01*
X129873000Y-100148000D01*
X130127000Y-100148000D01*
X130127000Y-100168000D01*
X130147000Y-100168000D01*
X130147000Y-100422000D01*
X130127000Y-100422000D01*
X130127000Y-100442000D01*
X129873000Y-100442000D01*
X129873000Y-100422000D01*
X128523750Y-100422000D01*
X128365000Y-100580750D01*
X128361928Y-100745000D01*
X128374188Y-100869482D01*
X128410498Y-100989180D01*
X128449956Y-101063000D01*
X121977000Y-101063000D01*
X121977000Y-100943482D01*
X121947141Y-100793367D01*
X121888569Y-100651962D01*
X121803536Y-100524701D01*
X121695309Y-100416474D01*
X121568048Y-100331441D01*
X121426643Y-100272869D01*
X121276528Y-100243010D01*
X121123472Y-100243010D01*
X120973357Y-100272869D01*
X120831952Y-100331441D01*
X120704691Y-100416474D01*
X120596464Y-100524701D01*
X120511431Y-100651962D01*
X120452859Y-100793367D01*
X120423000Y-100943482D01*
X120423000Y-101096538D01*
X120452859Y-101246653D01*
X120511431Y-101388058D01*
X120596464Y-101515319D01*
X120704691Y-101623546D01*
X120831952Y-101708579D01*
X120973357Y-101767151D01*
X121123472Y-101797010D01*
X121267065Y-101797010D01*
X121372593Y-101902538D01*
X121388306Y-101921684D01*
X121464745Y-101984417D01*
X121551954Y-102031031D01*
X121646581Y-102059736D01*
X121720337Y-102067000D01*
X121720346Y-102067000D01*
X121744989Y-102069427D01*
X121769632Y-102067000D01*
X128626298Y-102067000D01*
X128628455Y-102088905D01*
X128650012Y-102159970D01*
X128671409Y-102200000D01*
X128650012Y-102240030D01*
X128628455Y-102311095D01*
X128626298Y-102333000D01*
X118809299Y-102333000D01*
X118784656Y-102330573D01*
X118760013Y-102333000D01*
X118760004Y-102333000D01*
X118686248Y-102340264D01*
X118591621Y-102368969D01*
X118504412Y-102415583D01*
X118427973Y-102478316D01*
X118412260Y-102497462D01*
X117381451Y-103528272D01*
X117362300Y-103543989D01*
X117299567Y-103620428D01*
X117252953Y-103707638D01*
X117224248Y-103802265D01*
X117216984Y-103876021D01*
X117216984Y-103876030D01*
X117214557Y-103900673D01*
X117216984Y-103925316D01*
X117216985Y-104821327D01*
X117214557Y-104845980D01*
X117223002Y-104931729D01*
X117223003Y-105468255D01*
X117216984Y-105529368D01*
X117216984Y-105529377D01*
X117214557Y-105554020D01*
X117216984Y-105578663D01*
X117216985Y-108298814D01*
X116625334Y-108890466D01*
X116606183Y-108906183D01*
X116543450Y-108982622D01*
X116496836Y-109069832D01*
X116468131Y-109164459D01*
X116460867Y-109238215D01*
X116460867Y-109238224D01*
X116458440Y-109262867D01*
X116460867Y-109287510D01*
X116460868Y-111038214D01*
X116458440Y-111062867D01*
X116468132Y-111161276D01*
X116496837Y-111255903D01*
X116543451Y-111343112D01*
X116590468Y-111400402D01*
X116590471Y-111400405D01*
X116606184Y-111419551D01*
X116625330Y-111435264D01*
X117498001Y-112307936D01*
X117498002Y-113132065D01*
X117249472Y-113380595D01*
X115239570Y-113380595D01*
X115138034Y-113279059D01*
X115010773Y-113194026D01*
X114869368Y-113135454D01*
X114719253Y-113105595D01*
X114566197Y-113105595D01*
X114416082Y-113135454D01*
X114378824Y-113150887D01*
X114378824Y-112545000D01*
X114371545Y-112471095D01*
X114349988Y-112400030D01*
X114328591Y-112360000D01*
X114349988Y-112319970D01*
X114371545Y-112248905D01*
X114378824Y-112175000D01*
X114378824Y-111275000D01*
X114371545Y-111201095D01*
X114349988Y-111130030D01*
X114328591Y-111090000D01*
X114349988Y-111049970D01*
X114371545Y-110978905D01*
X114373702Y-110957000D01*
X114658255Y-110957000D01*
X114848010Y-111146755D01*
X114848010Y-111290349D01*
X114877869Y-111440464D01*
X114936441Y-111581869D01*
X115021474Y-111709130D01*
X115129701Y-111817357D01*
X115256962Y-111902390D01*
X115398367Y-111960962D01*
X115548482Y-111990821D01*
X115701538Y-111990821D01*
X115851653Y-111960962D01*
X115993058Y-111902390D01*
X116120319Y-111817357D01*
X116228546Y-111709130D01*
X116313579Y-111581869D01*
X116372151Y-111440464D01*
X116402010Y-111290349D01*
X116402010Y-111137293D01*
X116372151Y-110987178D01*
X116313579Y-110845773D01*
X116228546Y-110718512D01*
X116120319Y-110610285D01*
X115993058Y-110525252D01*
X115851653Y-110466680D01*
X115701538Y-110436821D01*
X115557944Y-110436821D01*
X115238590Y-110117467D01*
X115222873Y-110098316D01*
X115146434Y-110035583D01*
X115059225Y-109988969D01*
X114964598Y-109960264D01*
X114890842Y-109953000D01*
X114890832Y-109953000D01*
X114866189Y-109950573D01*
X114841546Y-109953000D01*
X114373702Y-109953000D01*
X114371545Y-109931095D01*
X114349988Y-109860030D01*
X114328591Y-109820000D01*
X114349988Y-109779970D01*
X114371545Y-109708905D01*
X114378824Y-109635000D01*
X114378824Y-108735000D01*
X114371545Y-108661095D01*
X114349988Y-108590030D01*
X114328591Y-108550000D01*
X114349988Y-108509970D01*
X114371545Y-108438905D01*
X114378824Y-108365000D01*
X114378824Y-107465000D01*
X114371545Y-107391095D01*
X114349988Y-107320030D01*
X114328591Y-107280000D01*
X114349988Y-107239970D01*
X114371545Y-107168905D01*
X114378824Y-107095000D01*
X114378824Y-106283143D01*
X114462705Y-106283143D01*
X114612820Y-106253284D01*
X114754225Y-106194712D01*
X114881486Y-106109679D01*
X114989713Y-106001452D01*
X115074746Y-105874191D01*
X115084992Y-105849455D01*
X115223472Y-105877000D01*
X115376528Y-105877000D01*
X115526643Y-105847141D01*
X115668048Y-105788569D01*
X115795309Y-105703536D01*
X115903536Y-105595309D01*
X115988569Y-105468048D01*
X116047141Y-105326643D01*
X116077000Y-105176528D01*
X116077000Y-105023472D01*
X116047141Y-104873357D01*
X115988569Y-104731952D01*
X115903536Y-104604691D01*
X115795309Y-104496464D01*
X115668048Y-104411431D01*
X115526643Y-104352859D01*
X115376528Y-104323000D01*
X115232935Y-104323000D01*
X114677401Y-103767467D01*
X114661684Y-103748316D01*
X114585245Y-103685583D01*
X114498036Y-103638969D01*
X114403409Y-103610264D01*
X114374134Y-103607381D01*
X114371545Y-103581095D01*
X114349988Y-103510030D01*
X114328591Y-103470000D01*
X114349988Y-103429970D01*
X114371545Y-103358905D01*
X114378824Y-103285000D01*
X114378824Y-102385000D01*
X114371545Y-102311095D01*
X114349988Y-102240030D01*
X114328591Y-102200000D01*
X114349988Y-102159970D01*
X114371545Y-102088905D01*
X114378824Y-102015000D01*
X114378824Y-101255570D01*
X114451185Y-101196185D01*
X114530537Y-101099494D01*
X114589502Y-100989180D01*
X114625812Y-100869482D01*
X114638072Y-100745000D01*
X114635000Y-100580750D01*
X114476250Y-100422000D01*
X113127000Y-100422000D01*
X113127000Y-100442000D01*
X112873000Y-100442000D01*
X112873000Y-100422000D01*
X112853000Y-100422000D01*
X112853000Y-100168000D01*
X112873000Y-100168000D01*
X112873000Y-100148000D01*
X113127000Y-100148000D01*
X113127000Y-100168000D01*
X114476250Y-100168000D01*
X114635000Y-100009250D01*
X114638072Y-99845000D01*
X114625812Y-99720518D01*
X114589502Y-99600820D01*
X114530537Y-99490506D01*
X114478419Y-99427000D01*
X128521581Y-99427000D01*
X128469463Y-99490506D01*
G37*
%TD.AperFunction*%
D17*
X128628455Y-103358905D02*
X128650012Y-103429970D01*
X128671409Y-103470000D01*
X128650012Y-103510030D01*
X128628455Y-103581095D01*
X128621176Y-103655000D01*
X128621176Y-104555000D01*
X128628455Y-104628905D01*
X128650012Y-104699970D01*
X128671409Y-104740000D01*
X128650012Y-104780030D01*
X128628455Y-104851095D01*
X128621176Y-104925000D01*
X128621176Y-105825000D01*
X128628455Y-105898905D01*
X128650012Y-105969970D01*
X128671409Y-106010000D01*
X128650012Y-106050030D01*
X128628455Y-106121095D01*
X128621176Y-106195000D01*
X128621176Y-107095000D01*
X128628455Y-107168905D01*
X128650012Y-107239970D01*
X128671409Y-107280000D01*
X128650012Y-107320030D01*
X128628455Y-107391095D01*
X128621176Y-107465000D01*
X128621176Y-108365000D01*
X128628455Y-108438905D01*
X128650012Y-108509970D01*
X128671409Y-108550000D01*
X128650012Y-108590030D01*
X128628455Y-108661095D01*
X128624781Y-108698397D01*
X128556964Y-108718969D01*
X128469755Y-108765583D01*
X128393316Y-108828316D01*
X128377598Y-108847468D01*
X128262468Y-108962598D01*
X128243316Y-108978316D01*
X128180583Y-109054755D01*
X128133969Y-109141965D01*
X128105264Y-109236592D01*
X128098000Y-109310348D01*
X128098000Y-109310357D01*
X128095573Y-109335000D01*
X128098000Y-109359644D01*
X128098001Y-109792065D01*
X127692066Y-110198000D01*
X120102000Y-110198000D01*
X120102000Y-105351141D01*
X120840070Y-104613072D01*
X120859216Y-104597359D01*
X120880824Y-104571031D01*
X120921948Y-104520921D01*
X120929469Y-104506851D01*
X120968563Y-104433711D01*
X120997268Y-104339084D01*
X121003821Y-104272546D01*
X121106068Y-104170299D01*
X121191101Y-104043038D01*
X121249673Y-103901633D01*
X121279532Y-103751518D01*
X121279532Y-103598462D01*
X121249673Y-103448347D01*
X121203551Y-103337000D01*
X128626298Y-103337000D01*
X128628455Y-103358905D01*
%TA.AperFunction,Conductor*%
D18*
G36*
X128628455Y-103358905D02*
G01*
X128650012Y-103429970D01*
X128671409Y-103470000D01*
X128650012Y-103510030D01*
X128628455Y-103581095D01*
X128621176Y-103655000D01*
X128621176Y-104555000D01*
X128628455Y-104628905D01*
X128650012Y-104699970D01*
X128671409Y-104740000D01*
X128650012Y-104780030D01*
X128628455Y-104851095D01*
X128621176Y-104925000D01*
X128621176Y-105825000D01*
X128628455Y-105898905D01*
X128650012Y-105969970D01*
X128671409Y-106010000D01*
X128650012Y-106050030D01*
X128628455Y-106121095D01*
X128621176Y-106195000D01*
X128621176Y-107095000D01*
X128628455Y-107168905D01*
X128650012Y-107239970D01*
X128671409Y-107280000D01*
X128650012Y-107320030D01*
X128628455Y-107391095D01*
X128621176Y-107465000D01*
X128621176Y-108365000D01*
X128628455Y-108438905D01*
X128650012Y-108509970D01*
X128671409Y-108550000D01*
X128650012Y-108590030D01*
X128628455Y-108661095D01*
X128624781Y-108698397D01*
X128556964Y-108718969D01*
X128469755Y-108765583D01*
X128393316Y-108828316D01*
X128377598Y-108847468D01*
X128262468Y-108962598D01*
X128243316Y-108978316D01*
X128180583Y-109054755D01*
X128133969Y-109141965D01*
X128105264Y-109236592D01*
X128098000Y-109310348D01*
X128098000Y-109310357D01*
X128095573Y-109335000D01*
X128098000Y-109359644D01*
X128098001Y-109792065D01*
X127692066Y-110198000D01*
X120102000Y-110198000D01*
X120102000Y-105351141D01*
X120840070Y-104613072D01*
X120859216Y-104597359D01*
X120880824Y-104571031D01*
X120921948Y-104520921D01*
X120929469Y-104506851D01*
X120968563Y-104433711D01*
X120997268Y-104339084D01*
X121003821Y-104272546D01*
X121106068Y-104170299D01*
X121191101Y-104043038D01*
X121249673Y-103901633D01*
X121279532Y-103751518D01*
X121279532Y-103598462D01*
X121249673Y-103448347D01*
X121203551Y-103337000D01*
X128626298Y-103337000D01*
X128628455Y-103358905D01*
G37*
%TD.AperFunction*%
%TD*%
M02*
