%TF.GenerationSoftware,KiCad,Pcbnew,(6.0.1-0)*%
%TF.CreationDate,2022-01-30T11:03:14+00:00*%
%TF.ProjectId,USBA,55534241-2e6b-4696-9361-645f70636258,1*%
%TF.SameCoordinates,Original*%
%TF.FileFunction,Copper,L2,Bot*%
%TF.FilePolarity,Positive*%
%FSLAX46Y46*%
G04 Gerber Fmt 4.6, Leading zero omitted, Abs format (unit mm)*
G04 Created by KiCad (PCBNEW (6.0.1-0)) date 2022-01-30 11:03:14*
%MOMM*%
%LPD*%
G01*
G04 APERTURE LIST*
%TA.AperFunction,ComponentPad*%
%ADD10C,0.350000*%
%TD*%
%TA.AperFunction,SMDPad,CuDef*%
%ADD11R,2.000000X0.900000*%
%TD*%
%TA.AperFunction,SMDPad,CuDef*%
%ADD12R,0.900000X2.000000*%
%TD*%
%TA.AperFunction,SMDPad,CuDef*%
%ADD13R,5.000000X5.000000*%
%TD*%
%TA.AperFunction,ViaPad*%
%ADD14C,0.800000*%
%TD*%
%TA.AperFunction,Conductor*%
%ADD15C,0.250000*%
%TD*%
G04 APERTURE END LIST*
D10*
%TO.P,U2,21,GND*%
%TO.N,GND*%
X117900000Y-108400000D03*
%TD*%
D11*
%TO.P,U1,1,GND*%
%TO.N,GND*%
X130000000Y-100295000D03*
%TO.P,U1,2,VDD*%
%TO.N,+3V3*%
X130000000Y-101565000D03*
%TO.P,U1,3,EN*%
%TO.N,EN*%
X130000000Y-102835000D03*
%TO.P,U1,4,SENSOR_VP*%
%TO.N,unconnected-(U1-Pad4)*%
X130000000Y-104105000D03*
%TO.P,U1,5,SENSOR_VN*%
%TO.N,unconnected-(U1-Pad5)*%
X130000000Y-105375000D03*
%TO.P,U1,6,IO34*%
%TO.N,CHARGER*%
X130000000Y-106645000D03*
%TO.P,U1,7,IO35*%
%TO.N,unconnected-(U1-Pad7)*%
X130000000Y-107915000D03*
%TO.P,U1,8,IO32*%
%TO.N,unconnected-(U1-Pad8)*%
X130000000Y-109185000D03*
%TO.P,U1,9,IO33*%
%TO.N,unconnected-(U1-Pad9)*%
X130000000Y-110455000D03*
%TO.P,U1,10,IO25*%
%TO.N,unconnected-(U1-Pad10)*%
X130000000Y-111725000D03*
%TO.P,U1,11,IO26*%
%TO.N,unconnected-(U1-Pad11)*%
X130000000Y-112995000D03*
%TO.P,U1,12,IO27*%
%TO.N,Net-(SW1-Pad1)*%
X130000000Y-114265000D03*
%TO.P,U1,13,IO14*%
%TO.N,unconnected-(U1-Pad13)*%
X130000000Y-115535000D03*
%TO.P,U1,14,IO12*%
%TO.N,unconnected-(U1-Pad14)*%
X130000000Y-116805000D03*
D12*
%TO.P,U1,15,GND*%
%TO.N,GND*%
X127215000Y-117805000D03*
%TO.P,U1,16,IO13*%
%TO.N,unconnected-(U1-Pad16)*%
X125945000Y-117805000D03*
%TO.P,U1,17,SHD/SD2*%
%TO.N,unconnected-(U1-Pad17)*%
X124675000Y-117805000D03*
%TO.P,U1,18,SWP/SD3*%
%TO.N,unconnected-(U1-Pad18)*%
X123405000Y-117805000D03*
%TO.P,U1,19,SCS/CMD*%
%TO.N,unconnected-(U1-Pad19)*%
X122135000Y-117805000D03*
%TO.P,U1,20,SCK/CLK*%
%TO.N,unconnected-(U1-Pad20)*%
X120865000Y-117805000D03*
%TO.P,U1,21,SDO/SD0*%
%TO.N,unconnected-(U1-Pad21)*%
X119595000Y-117805000D03*
%TO.P,U1,22,SDI/SD1*%
%TO.N,unconnected-(U1-Pad22)*%
X118325000Y-117805000D03*
%TO.P,U1,23,IO15*%
%TO.N,unconnected-(U1-Pad23)*%
X117055000Y-117805000D03*
%TO.P,U1,24,IO2*%
%TO.N,unconnected-(U1-Pad24)*%
X115785000Y-117805000D03*
D11*
%TO.P,U1,25,IO0*%
%TO.N,GPIO0*%
X113000000Y-116805000D03*
%TO.P,U1,26,IO4*%
%TO.N,unconnected-(U1-Pad26)*%
X113000000Y-115535000D03*
%TO.P,U1,27,IO16*%
%TO.N,unconnected-(U1-Pad27)*%
X113000000Y-114265000D03*
%TO.P,U1,28,IO17*%
%TO.N,unconnected-(U1-Pad28)*%
X113000000Y-112995000D03*
%TO.P,U1,29,IO5*%
%TO.N,unconnected-(U1-Pad29)*%
X113000000Y-111725000D03*
%TO.P,U1,30,IO18*%
%TO.N,unconnected-(U1-Pad30)*%
X113000000Y-110455000D03*
%TO.P,U1,31,IO19*%
%TO.N,unconnected-(U1-Pad31)*%
X113000000Y-109185000D03*
%TO.P,U1,32,NC*%
%TO.N,unconnected-(U1-Pad32)*%
X113000000Y-107915000D03*
%TO.P,U1,33,IO21*%
%TO.N,G*%
X113000000Y-106645000D03*
%TO.P,U1,34,RXD0/IO3*%
%TO.N,I*%
X113000000Y-105375000D03*
%TO.P,U1,35,TXD0/IO1*%
%TO.N,O*%
X113000000Y-104105000D03*
%TO.P,U1,36,IO22*%
%TO.N,B*%
X113000000Y-102835000D03*
%TO.P,U1,37,IO23*%
%TO.N,R*%
X113000000Y-101565000D03*
%TO.P,U1,38,GND*%
%TO.N,GND*%
X113000000Y-100295000D03*
D13*
%TO.P,U1,39,GND*%
X122500000Y-107795000D03*
%TD*%
D14*
%TO.N,GND*%
X123900000Y-115800000D03*
X119700000Y-101700000D03*
X115000000Y-110600000D03*
X119500000Y-115800000D03*
X116000000Y-99700000D03*
X120900000Y-112000000D03*
X121200000Y-104300000D03*
%TO.N,+3V3*%
X118300000Y-100600000D03*
%TO.N,O*%
X116000000Y-104100000D03*
%TO.N,I*%
X118615529Y-105548694D03*
%TO.N,EN*%
X117460132Y-104565207D03*
%TO.N,GPIO0*%
X118494644Y-104556015D03*
%TO.N,CHARGER*%
X120300000Y-103700000D03*
%TO.N,R*%
X116000000Y-101600000D03*
%TO.N,G*%
X114600000Y-108200000D03*
%TO.N,B*%
X116000000Y-102800000D03*
%TO.N,Net-(SW1-Pad1)*%
X119500000Y-114300000D03*
X123900000Y-114300000D03*
%TO.N,Net-(C1-Pad1)*%
X119222710Y-111156961D03*
X116100021Y-106674990D03*
%TD*%
D15*
%TO.N,+3V3*%
X130000000Y-101565000D02*
X122222609Y-101565000D01*
X119892894Y-100600000D02*
X118300000Y-100600000D01*
X121100000Y-101100000D02*
G75*
G03*
X122222609Y-101565000I1122608J1122605D01*
G01*
X119892894Y-100600001D02*
G75*
G02*
X121099999Y-101100001I-1J-1707107D01*
G01*
%TO.N,O*%
X113000000Y-104105000D02*
X115995000Y-104105000D01*
X115995000Y-104105000D02*
X116000000Y-104100000D01*
%TO.N,I*%
X113000000Y-105375000D02*
X113942158Y-105375000D01*
X118441835Y-105375000D02*
X117578553Y-105375000D01*
X116431802Y-104900000D02*
X115088908Y-104900000D01*
X114425000Y-105175000D02*
G75*
G02*
X115088908Y-104900000I663908J-663907D01*
G01*
X116975000Y-105125000D02*
G75*
G03*
X117578553Y-105375000I603555J603556D01*
G01*
X116431802Y-104900001D02*
G75*
G02*
X116974999Y-105125001I2J-768193D01*
G01*
X114425000Y-105175000D02*
G75*
G02*
X113942158Y-105375000I-482841J482839D01*
G01*
X118441835Y-105375000D02*
G75*
G02*
X118615529Y-105548694I-1J-173695D01*
G01*
%TO.N,EN*%
X117460132Y-104565207D02*
X118699141Y-103326199D01*
X119885000Y-102835000D02*
X130000000Y-102835000D01*
X119885000Y-102835001D02*
G75*
G03*
X118699142Y-103326200I3J-1677064D01*
G01*
%TO.N,GPIO0*%
X114527500Y-116127500D02*
X114527500Y-112277500D01*
X118494644Y-104556015D02*
X118683013Y-104556015D01*
X119340539Y-105213541D02*
X119340539Y-109622526D01*
X113000000Y-116805000D02*
X113850000Y-116805000D01*
X114879998Y-111925002D02*
X119174998Y-111925002D01*
X119950000Y-111150000D02*
X119950000Y-111093894D01*
X114527500Y-116127500D02*
G75*
G02*
X113850000Y-116805000I-677499J-1D01*
G01*
X114879998Y-111925002D02*
G75*
G03*
X114527500Y-112277500I-1J-352497D01*
G01*
X119702829Y-110497171D02*
G75*
G02*
X119950000Y-111093894I-596716J-596720D01*
G01*
X119950000Y-111150000D02*
G75*
G02*
X119174998Y-111925002I-775003J1D01*
G01*
X119702829Y-110497171D02*
G75*
G02*
X119340539Y-109622526I874646J874645D01*
G01*
X119340539Y-105213541D02*
G75*
G03*
X118683013Y-104556015I-657526J0D01*
G01*
%TO.N,CHARGER*%
X130000000Y-106645000D02*
X128845000Y-106645000D01*
X128000000Y-103400000D02*
X120600000Y-103400000D01*
X128600000Y-106400000D02*
X128600000Y-104000000D01*
X128600000Y-106400000D02*
G75*
G03*
X128845000Y-106645000I245001J1D01*
G01*
X120300000Y-103700000D02*
G75*
G02*
X120600000Y-103400000I300000J0D01*
G01*
X128000000Y-103400000D02*
G75*
G02*
X128600000Y-104000000I0J-600000D01*
G01*
%TO.N,R*%
X113000000Y-101565000D02*
X115965000Y-101565000D01*
X115965000Y-101565000D02*
X116000000Y-101600000D01*
%TO.N,G*%
X113000000Y-106645000D02*
X114250000Y-106645000D01*
X114600000Y-108200000D02*
X114600000Y-106995000D01*
X114600000Y-106995000D02*
G75*
G03*
X114250000Y-106645000I-350001J-1D01*
G01*
%TO.N,B*%
X115965000Y-102835000D02*
X116000000Y-102800000D01*
X113000000Y-102835000D02*
X115965000Y-102835000D01*
%TO.N,Net-(SW1-Pad1)*%
X127500000Y-114300000D02*
X129965000Y-114300000D01*
X129965000Y-114300000D02*
X130000000Y-114265000D01*
X123900000Y-114300000D02*
X119500000Y-114300000D01*
X127500000Y-114300000D02*
X123900000Y-114300000D01*
%TO.N,Net-(C1-Pad1)*%
X116100021Y-108034272D02*
X119222710Y-111156961D01*
X116100021Y-106674990D02*
X116100021Y-108034272D01*
%TD*%
%TA.AperFunction,Conductor*%
%TO.N,GND*%
G36*
X119633766Y-103258531D02*
G01*
X119691500Y-103299850D01*
X119717730Y-103365824D01*
X119709665Y-103423271D01*
X119665309Y-103537039D01*
X119659803Y-103578860D01*
X119647021Y-103675950D01*
X119644758Y-103693138D01*
X119662035Y-103849633D01*
X119716143Y-103997490D01*
X119720380Y-104003796D01*
X119720382Y-104003799D01*
X119760709Y-104063811D01*
X119803958Y-104128172D01*
X119920410Y-104234135D01*
X119959861Y-104255555D01*
X120052099Y-104305637D01*
X120052101Y-104305638D01*
X120058776Y-104309262D01*
X120066125Y-104311190D01*
X120203719Y-104347287D01*
X120203721Y-104347287D01*
X120211069Y-104349215D01*
X120294380Y-104350524D01*
X120360898Y-104351569D01*
X120360901Y-104351569D01*
X120368495Y-104351688D01*
X120521968Y-104316538D01*
X120662625Y-104245795D01*
X120735953Y-104183167D01*
X120776574Y-104148474D01*
X120776576Y-104148471D01*
X120782348Y-104143542D01*
X120874224Y-104015683D01*
X120932950Y-103869598D01*
X120933312Y-103867055D01*
X120969149Y-103808265D01*
X121033010Y-103777244D01*
X121053902Y-103775500D01*
X127960527Y-103775500D01*
X127980237Y-103777051D01*
X127985222Y-103777840D01*
X127990207Y-103778630D01*
X128000000Y-103780181D01*
X128009794Y-103778630D01*
X128009842Y-103778630D01*
X128029551Y-103780181D01*
X128049662Y-103783366D01*
X128087154Y-103795547D01*
X128091762Y-103797895D01*
X128114179Y-103809317D01*
X128146071Y-103832489D01*
X128167511Y-103853929D01*
X128190683Y-103885821D01*
X128204452Y-103912844D01*
X128216634Y-103950338D01*
X128219819Y-103970449D01*
X128221370Y-103990158D01*
X128221370Y-103990206D01*
X128219819Y-104000000D01*
X128221370Y-104009793D01*
X128222949Y-104019762D01*
X128224500Y-104039473D01*
X128224500Y-106360529D01*
X128222949Y-106380239D01*
X128219819Y-106400002D01*
X128221996Y-106413751D01*
X128222749Y-106419310D01*
X128236230Y-106538949D01*
X128282412Y-106670929D01*
X128286174Y-106676917D01*
X128286175Y-106676918D01*
X128296153Y-106692797D01*
X128356805Y-106789323D01*
X128455677Y-106888195D01*
X128574071Y-106962588D01*
X128665116Y-106994446D01*
X128722807Y-107035824D01*
X128748969Y-107101825D01*
X128749500Y-107113375D01*
X128749500Y-107119674D01*
X128764034Y-107192740D01*
X128770930Y-107203060D01*
X128770930Y-107203061D01*
X128775565Y-107209999D01*
X128796780Y-107277752D01*
X128775565Y-107350001D01*
X128770930Y-107356939D01*
X128764034Y-107367260D01*
X128749500Y-107440326D01*
X128749500Y-108389674D01*
X128764034Y-108462740D01*
X128770930Y-108473060D01*
X128770930Y-108473061D01*
X128775565Y-108479999D01*
X128796780Y-108547752D01*
X128775565Y-108620001D01*
X128770930Y-108626939D01*
X128764034Y-108637260D01*
X128749500Y-108710326D01*
X128749500Y-109659674D01*
X128764034Y-109732740D01*
X128770930Y-109743060D01*
X128770930Y-109743061D01*
X128775565Y-109749999D01*
X128796780Y-109817752D01*
X128775565Y-109890001D01*
X128770930Y-109896939D01*
X128764034Y-109907260D01*
X128749500Y-109980326D01*
X128749500Y-110929674D01*
X128764034Y-111002740D01*
X128770930Y-111013060D01*
X128770930Y-111013061D01*
X128775565Y-111019999D01*
X128796780Y-111087752D01*
X128775565Y-111160001D01*
X128770930Y-111166939D01*
X128764034Y-111177260D01*
X128749500Y-111250326D01*
X128749500Y-112199674D01*
X128764034Y-112272740D01*
X128770930Y-112283060D01*
X128770930Y-112283061D01*
X128775565Y-112289999D01*
X128796780Y-112357752D01*
X128775565Y-112430001D01*
X128770930Y-112436939D01*
X128764034Y-112447260D01*
X128749500Y-112520326D01*
X128749500Y-113469674D01*
X128764034Y-113542740D01*
X128770930Y-113553060D01*
X128770930Y-113553061D01*
X128775565Y-113559999D01*
X128796780Y-113627752D01*
X128775565Y-113700001D01*
X128770930Y-113706939D01*
X128764034Y-113717260D01*
X128749500Y-113790326D01*
X128749500Y-113798500D01*
X128749206Y-113799503D01*
X128748893Y-113802676D01*
X128748291Y-113802617D01*
X128729498Y-113866621D01*
X128675842Y-113913114D01*
X128623500Y-113924500D01*
X124497577Y-113924500D01*
X124429456Y-113904498D01*
X124401853Y-113877736D01*
X124400856Y-113878615D01*
X124395837Y-113872922D01*
X124391531Y-113866657D01*
X124319721Y-113802676D01*
X124279648Y-113766972D01*
X124279645Y-113766970D01*
X124273976Y-113761919D01*
X124134831Y-113688245D01*
X124118122Y-113684048D01*
X123989498Y-113651740D01*
X123989496Y-113651740D01*
X123982128Y-113649889D01*
X123974530Y-113649849D01*
X123974528Y-113649849D01*
X123907319Y-113649497D01*
X123824684Y-113649065D01*
X123817305Y-113650837D01*
X123817301Y-113650837D01*
X123678967Y-113684048D01*
X123678963Y-113684049D01*
X123671588Y-113685820D01*
X123531679Y-113758032D01*
X123525957Y-113763024D01*
X123525955Y-113763025D01*
X123418759Y-113856538D01*
X123418756Y-113856541D01*
X123413034Y-113861533D01*
X123408667Y-113867747D01*
X123408664Y-113867750D01*
X123406415Y-113870950D01*
X123404179Y-113872731D01*
X123403582Y-113873394D01*
X123403471Y-113873294D01*
X123350881Y-113915182D01*
X123303328Y-113924500D01*
X120097577Y-113924500D01*
X120029456Y-113904498D01*
X120001853Y-113877736D01*
X120000856Y-113878615D01*
X119995837Y-113872922D01*
X119991531Y-113866657D01*
X119919721Y-113802676D01*
X119879648Y-113766972D01*
X119879645Y-113766970D01*
X119873976Y-113761919D01*
X119734831Y-113688245D01*
X119718122Y-113684048D01*
X119589498Y-113651740D01*
X119589496Y-113651740D01*
X119582128Y-113649889D01*
X119574530Y-113649849D01*
X119574528Y-113649849D01*
X119507319Y-113649497D01*
X119424684Y-113649065D01*
X119417305Y-113650837D01*
X119417301Y-113650837D01*
X119278967Y-113684048D01*
X119278963Y-113684049D01*
X119271588Y-113685820D01*
X119131679Y-113758032D01*
X119125957Y-113763024D01*
X119125955Y-113763025D01*
X119018759Y-113856538D01*
X119018756Y-113856541D01*
X119013034Y-113861533D01*
X118922501Y-113990348D01*
X118865309Y-114137039D01*
X118844758Y-114293138D01*
X118862035Y-114449633D01*
X118916143Y-114597490D01*
X119003958Y-114728172D01*
X119120410Y-114834135D01*
X119127085Y-114837759D01*
X119252099Y-114905637D01*
X119252101Y-114905638D01*
X119258776Y-114909262D01*
X119266125Y-114911190D01*
X119403719Y-114947287D01*
X119403721Y-114947287D01*
X119411069Y-114949215D01*
X119494380Y-114950524D01*
X119560898Y-114951569D01*
X119560901Y-114951569D01*
X119568495Y-114951688D01*
X119721968Y-114916538D01*
X119862625Y-114845795D01*
X119889243Y-114823061D01*
X119976574Y-114748474D01*
X119976576Y-114748471D01*
X119982348Y-114743542D01*
X119986777Y-114737378D01*
X119986780Y-114737375D01*
X119993536Y-114727973D01*
X120049531Y-114684326D01*
X120095858Y-114675500D01*
X123302010Y-114675500D01*
X123370131Y-114695502D01*
X123397391Y-114719169D01*
X123399726Y-114721875D01*
X123403958Y-114728172D01*
X123409568Y-114733277D01*
X123409570Y-114733279D01*
X123427021Y-114749158D01*
X123520410Y-114834135D01*
X123527085Y-114837759D01*
X123652099Y-114905637D01*
X123652101Y-114905638D01*
X123658776Y-114909262D01*
X123666125Y-114911190D01*
X123803719Y-114947287D01*
X123803721Y-114947287D01*
X123811069Y-114949215D01*
X123894380Y-114950524D01*
X123960898Y-114951569D01*
X123960901Y-114951569D01*
X123968495Y-114951688D01*
X124121968Y-114916538D01*
X124262625Y-114845795D01*
X124289243Y-114823061D01*
X124376574Y-114748474D01*
X124376576Y-114748471D01*
X124382348Y-114743542D01*
X124386777Y-114737378D01*
X124386780Y-114737375D01*
X124393536Y-114727973D01*
X124449531Y-114684326D01*
X124495858Y-114675500D01*
X128633329Y-114675500D01*
X128701450Y-114695502D01*
X128747943Y-114749158D01*
X128756908Y-114776917D01*
X128764034Y-114812740D01*
X128770930Y-114823060D01*
X128770930Y-114823061D01*
X128775565Y-114829999D01*
X128796780Y-114897752D01*
X128775565Y-114970001D01*
X128770930Y-114976939D01*
X128764034Y-114987260D01*
X128749500Y-115060326D01*
X128749500Y-116009674D01*
X128764034Y-116082740D01*
X128770930Y-116093060D01*
X128770930Y-116093061D01*
X128775565Y-116099999D01*
X128796780Y-116167752D01*
X128775565Y-116240001D01*
X128770930Y-116246939D01*
X128764034Y-116257260D01*
X128749500Y-116330326D01*
X128749500Y-117279674D01*
X128764034Y-117352740D01*
X128819399Y-117435601D01*
X128902260Y-117490966D01*
X128975326Y-117505500D01*
X130624000Y-117505500D01*
X130692121Y-117525502D01*
X130738614Y-117579158D01*
X130750000Y-117631500D01*
X130750000Y-118212966D01*
X130747579Y-118237547D01*
X130745102Y-118250000D01*
X130747523Y-118262171D01*
X130747523Y-118268963D01*
X130746916Y-118281313D01*
X130736806Y-118383964D01*
X130731988Y-118408189D01*
X130696512Y-118525139D01*
X130687062Y-118547954D01*
X130629452Y-118655734D01*
X130615729Y-118676271D01*
X130538202Y-118770737D01*
X130520737Y-118788202D01*
X130426271Y-118865729D01*
X130405736Y-118879451D01*
X130297954Y-118937062D01*
X130275139Y-118946512D01*
X130158189Y-118981988D01*
X130133966Y-118986806D01*
X130049731Y-118995102D01*
X130031313Y-118996916D01*
X130018963Y-118997523D01*
X130012171Y-118997523D01*
X130000000Y-118995102D01*
X129987829Y-118997523D01*
X129987547Y-118997579D01*
X129962966Y-119000000D01*
X128297470Y-119000000D01*
X128229349Y-118979998D01*
X128182856Y-118926342D01*
X128172206Y-118860398D01*
X128172631Y-118856482D01*
X128173000Y-118849672D01*
X128173000Y-118077115D01*
X128168525Y-118061876D01*
X128167135Y-118060671D01*
X128159452Y-118059000D01*
X127087000Y-118059000D01*
X127018879Y-118038998D01*
X126972386Y-117985342D01*
X126961000Y-117933000D01*
X126961000Y-117532885D01*
X127469000Y-117532885D01*
X127473475Y-117548124D01*
X127474865Y-117549329D01*
X127482548Y-117551000D01*
X128154884Y-117551000D01*
X128170123Y-117546525D01*
X128171328Y-117545135D01*
X128172999Y-117537452D01*
X128172999Y-116760331D01*
X128172629Y-116753510D01*
X128167105Y-116702648D01*
X128163479Y-116687396D01*
X128118324Y-116566946D01*
X128109786Y-116551351D01*
X128033285Y-116449276D01*
X128020724Y-116436715D01*
X127918649Y-116360214D01*
X127903054Y-116351676D01*
X127782606Y-116306522D01*
X127767351Y-116302895D01*
X127716486Y-116297369D01*
X127709672Y-116297000D01*
X127487115Y-116297000D01*
X127471876Y-116301475D01*
X127470671Y-116302865D01*
X127469000Y-116310548D01*
X127469000Y-117532885D01*
X126961000Y-117532885D01*
X126961000Y-116315116D01*
X126956525Y-116299877D01*
X126955135Y-116298672D01*
X126947452Y-116297001D01*
X126720331Y-116297001D01*
X126713510Y-116297371D01*
X126662648Y-116302895D01*
X126647396Y-116306521D01*
X126526946Y-116351676D01*
X126511351Y-116360214D01*
X126409276Y-116436715D01*
X126396715Y-116449276D01*
X126355653Y-116504065D01*
X126298794Y-116546580D01*
X126254827Y-116554500D01*
X125470326Y-116554500D01*
X125397260Y-116569034D01*
X125386940Y-116575930D01*
X125386939Y-116575930D01*
X125380001Y-116580565D01*
X125312248Y-116601780D01*
X125239999Y-116580565D01*
X125233061Y-116575930D01*
X125233060Y-116575930D01*
X125222740Y-116569034D01*
X125149674Y-116554500D01*
X124200326Y-116554500D01*
X124127260Y-116569034D01*
X124116940Y-116575930D01*
X124116939Y-116575930D01*
X124110001Y-116580565D01*
X124042248Y-116601780D01*
X123969999Y-116580565D01*
X123963061Y-116575930D01*
X123963060Y-116575930D01*
X123952740Y-116569034D01*
X123879674Y-116554500D01*
X122930326Y-116554500D01*
X122857260Y-116569034D01*
X122846940Y-116575930D01*
X122846939Y-116575930D01*
X122840001Y-116580565D01*
X122772248Y-116601780D01*
X122699999Y-116580565D01*
X122693061Y-116575930D01*
X122693060Y-116575930D01*
X122682740Y-116569034D01*
X122609674Y-116554500D01*
X121660326Y-116554500D01*
X121587260Y-116569034D01*
X121576940Y-116575930D01*
X121576939Y-116575930D01*
X121570001Y-116580565D01*
X121502248Y-116601780D01*
X121429999Y-116580565D01*
X121423061Y-116575930D01*
X121423060Y-116575930D01*
X121412740Y-116569034D01*
X121339674Y-116554500D01*
X120390326Y-116554500D01*
X120317260Y-116569034D01*
X120306940Y-116575930D01*
X120306939Y-116575930D01*
X120300001Y-116580565D01*
X120232248Y-116601780D01*
X120159999Y-116580565D01*
X120153061Y-116575930D01*
X120153060Y-116575930D01*
X120142740Y-116569034D01*
X120069674Y-116554500D01*
X119120326Y-116554500D01*
X119047260Y-116569034D01*
X119036940Y-116575930D01*
X119036939Y-116575930D01*
X119030001Y-116580565D01*
X118962248Y-116601780D01*
X118889999Y-116580565D01*
X118883061Y-116575930D01*
X118883060Y-116575930D01*
X118872740Y-116569034D01*
X118799674Y-116554500D01*
X117850326Y-116554500D01*
X117777260Y-116569034D01*
X117766940Y-116575930D01*
X117766939Y-116575930D01*
X117760001Y-116580565D01*
X117692248Y-116601780D01*
X117619999Y-116580565D01*
X117613061Y-116575930D01*
X117613060Y-116575930D01*
X117602740Y-116569034D01*
X117529674Y-116554500D01*
X116580326Y-116554500D01*
X116507260Y-116569034D01*
X116496940Y-116575930D01*
X116496939Y-116575930D01*
X116490001Y-116580565D01*
X116422248Y-116601780D01*
X116349999Y-116580565D01*
X116343061Y-116575930D01*
X116343060Y-116575930D01*
X116332740Y-116569034D01*
X116259674Y-116554500D01*
X115310326Y-116554500D01*
X115237260Y-116569034D01*
X115154399Y-116624399D01*
X115099034Y-116707260D01*
X115084500Y-116780326D01*
X115084500Y-118829674D01*
X115085708Y-118835746D01*
X115085708Y-118835748D01*
X115088427Y-118849421D01*
X115082098Y-118920135D01*
X115038543Y-118976201D01*
X114964848Y-119000000D01*
X113037034Y-119000000D01*
X113012453Y-118997579D01*
X113012171Y-118997523D01*
X113000000Y-118995102D01*
X112987829Y-118997523D01*
X112981037Y-118997523D01*
X112968687Y-118996916D01*
X112950269Y-118995102D01*
X112866034Y-118986806D01*
X112841811Y-118981988D01*
X112724861Y-118946512D01*
X112702046Y-118937062D01*
X112594264Y-118879451D01*
X112573729Y-118865729D01*
X112479263Y-118788202D01*
X112461798Y-118770737D01*
X112384271Y-118676271D01*
X112370548Y-118655734D01*
X112312938Y-118547954D01*
X112303488Y-118525139D01*
X112268012Y-118408189D01*
X112263194Y-118383964D01*
X112253084Y-118281313D01*
X112252477Y-118268963D01*
X112252477Y-118262171D01*
X112254898Y-118250000D01*
X112252421Y-118237547D01*
X112250000Y-118212966D01*
X112250000Y-117631500D01*
X112270002Y-117563379D01*
X112323658Y-117516886D01*
X112376000Y-117505500D01*
X114024674Y-117505500D01*
X114097740Y-117490966D01*
X114180601Y-117435601D01*
X114235966Y-117352740D01*
X114250500Y-117279674D01*
X114250500Y-117182872D01*
X114270502Y-117114751D01*
X114323249Y-117068678D01*
X114373525Y-117045234D01*
X114373534Y-117045229D01*
X114378511Y-117042908D01*
X114529441Y-116937226D01*
X114659726Y-116806941D01*
X114765408Y-116656011D01*
X114790697Y-116601780D01*
X114840953Y-116494005D01*
X114840954Y-116494004D01*
X114843276Y-116489023D01*
X114890964Y-116311050D01*
X114900466Y-116202440D01*
X114901426Y-116196077D01*
X114902523Y-116192952D01*
X114903000Y-116187445D01*
X114903000Y-116178980D01*
X114903479Y-116168000D01*
X114905826Y-116141169D01*
X114906130Y-116138694D01*
X114906130Y-116137697D01*
X114906209Y-116136794D01*
X114907681Y-116127499D01*
X114904551Y-116107736D01*
X114903000Y-116088026D01*
X114903000Y-112426502D01*
X114923002Y-112358381D01*
X114976658Y-112311888D01*
X115029000Y-112300502D01*
X119135525Y-112300502D01*
X119155236Y-112302053D01*
X119165204Y-112303632D01*
X119165205Y-112303632D01*
X119174998Y-112305183D01*
X119179032Y-112304544D01*
X119375544Y-112287351D01*
X119380857Y-112285927D01*
X119380859Y-112285927D01*
X119564686Y-112236671D01*
X119564688Y-112236670D01*
X119569996Y-112235248D01*
X119633274Y-112205741D01*
X119747459Y-112152496D01*
X119747464Y-112152493D01*
X119752446Y-112150170D01*
X119844543Y-112085683D01*
X119912840Y-112037861D01*
X119912843Y-112037859D01*
X119917351Y-112034702D01*
X120059700Y-111892353D01*
X120074590Y-111871089D01*
X120172011Y-111731956D01*
X120175168Y-111727448D01*
X120177491Y-111722466D01*
X120177494Y-111722461D01*
X120257923Y-111549980D01*
X120257924Y-111549979D01*
X120260246Y-111544998D01*
X120268781Y-111513147D01*
X120310925Y-111355861D01*
X120310925Y-111355859D01*
X120312349Y-111350546D01*
X120312828Y-111345071D01*
X120312831Y-111345054D01*
X120323595Y-111222025D01*
X120324257Y-111217634D01*
X120325023Y-111215452D01*
X120325500Y-111209945D01*
X120325500Y-111205740D01*
X120325979Y-111194758D01*
X120328629Y-111164469D01*
X120329542Y-111154034D01*
X120330181Y-111150000D01*
X120328630Y-111140206D01*
X120328630Y-111130285D01*
X120328860Y-111130285D01*
X120328860Y-111113605D01*
X120328630Y-111113605D01*
X120328630Y-111103688D01*
X120330181Y-111093895D01*
X120328630Y-111084103D01*
X120328630Y-111082996D01*
X120327984Y-111077538D01*
X120314601Y-110907486D01*
X120314600Y-110907479D01*
X120314212Y-110902550D01*
X120269406Y-110715915D01*
X120195954Y-110538588D01*
X120095667Y-110374935D01*
X120092460Y-110371180D01*
X120092457Y-110371176D01*
X120037060Y-110306316D01*
X119981658Y-110241448D01*
X119978263Y-110237141D01*
X119977484Y-110236362D01*
X119971657Y-110228342D01*
X119963638Y-110222516D01*
X119956623Y-110215501D01*
X119956749Y-110215375D01*
X119945800Y-110205254D01*
X119886991Y-110136398D01*
X119875377Y-110120411D01*
X119815112Y-110022065D01*
X119806136Y-110004450D01*
X119798706Y-109986513D01*
X119761993Y-109897878D01*
X119755886Y-109879083D01*
X119742242Y-109822248D01*
X119728960Y-109766926D01*
X119725867Y-109747399D01*
X119718763Y-109657136D01*
X119719349Y-109642236D01*
X119719169Y-109642236D01*
X119719169Y-109632319D01*
X119720720Y-109622526D01*
X119717590Y-109602763D01*
X119716039Y-109583053D01*
X119716039Y-105253014D01*
X119717590Y-105233303D01*
X119719169Y-105223334D01*
X119720720Y-105213541D01*
X119719169Y-105203748D01*
X119719169Y-105202655D01*
X119718695Y-105198798D01*
X119704710Y-105038953D01*
X119704231Y-105033473D01*
X119683612Y-104956520D01*
X119658871Y-104864186D01*
X119658870Y-104864184D01*
X119657448Y-104858876D01*
X119642705Y-104827260D01*
X119583380Y-104700036D01*
X119583378Y-104700033D01*
X119581057Y-104695055D01*
X119477380Y-104546988D01*
X119349566Y-104419174D01*
X119201499Y-104315497D01*
X119196521Y-104313176D01*
X119196518Y-104313174D01*
X119110784Y-104273196D01*
X119060195Y-104230369D01*
X118990482Y-104128937D01*
X118990477Y-104128931D01*
X118986175Y-104122672D01*
X118892795Y-104039473D01*
X118874292Y-104022987D01*
X118874289Y-104022985D01*
X118868620Y-104017934D01*
X118803505Y-103983457D01*
X118752662Y-103933903D01*
X118736681Y-103864729D01*
X118760636Y-103797895D01*
X118773370Y-103783008D01*
X118936746Y-103619632D01*
X118951779Y-103606792D01*
X118959944Y-103600859D01*
X118959945Y-103600858D01*
X118967969Y-103595028D01*
X118973799Y-103587004D01*
X118980807Y-103579996D01*
X118980934Y-103580123D01*
X118991052Y-103569178D01*
X119112427Y-103465514D01*
X119128415Y-103453898D01*
X119285658Y-103357540D01*
X119303263Y-103348570D01*
X119473639Y-103277997D01*
X119492433Y-103271891D01*
X119562859Y-103254983D01*
X119633766Y-103258531D01*
G37*
%TD.AperFunction*%
%TA.AperFunction,Conductor*%
G36*
X116412041Y-105277051D02*
G01*
X116422009Y-105278630D01*
X116422010Y-105278630D01*
X116431803Y-105280181D01*
X116441599Y-105278629D01*
X116447302Y-105278629D01*
X116463751Y-105279707D01*
X116494806Y-105283795D01*
X116516995Y-105286717D01*
X116548764Y-105295230D01*
X116612824Y-105321764D01*
X116641312Y-105338211D01*
X116675704Y-105364601D01*
X116683915Y-105370902D01*
X116696307Y-105381770D01*
X116700343Y-105385806D01*
X116706172Y-105393829D01*
X116714194Y-105399658D01*
X116715062Y-105400526D01*
X116718983Y-105403617D01*
X116850141Y-105515635D01*
X116853901Y-105518846D01*
X117018850Y-105619926D01*
X117056396Y-105635478D01*
X117193007Y-105692065D01*
X117193009Y-105692066D01*
X117197580Y-105693959D01*
X117263941Y-105709891D01*
X117380879Y-105737966D01*
X117380885Y-105737967D01*
X117385692Y-105739121D01*
X117443214Y-105743648D01*
X117505746Y-105748570D01*
X117511264Y-105749377D01*
X117513101Y-105750023D01*
X117518608Y-105750500D01*
X117525312Y-105750500D01*
X117535197Y-105750888D01*
X117562573Y-105753043D01*
X117567535Y-105753630D01*
X117568758Y-105753630D01*
X117578552Y-105755181D01*
X117598315Y-105752051D01*
X117618025Y-105750500D01*
X117908594Y-105750500D01*
X117976715Y-105770502D01*
X118023208Y-105824158D01*
X118026919Y-105833198D01*
X118029058Y-105839043D01*
X118029061Y-105839049D01*
X118031672Y-105846184D01*
X118119487Y-105976866D01*
X118235939Y-106082829D01*
X118269562Y-106101085D01*
X118367628Y-106154331D01*
X118367630Y-106154332D01*
X118374305Y-106157956D01*
X118381654Y-106159884D01*
X118519248Y-106195981D01*
X118519250Y-106195981D01*
X118526598Y-106197909D01*
X118609909Y-106199218D01*
X118676427Y-106200263D01*
X118676430Y-106200263D01*
X118684024Y-106200382D01*
X118810911Y-106171321D01*
X118881776Y-106175610D01*
X118939074Y-106217532D01*
X118964612Y-106283776D01*
X118965039Y-106294141D01*
X118965039Y-109583053D01*
X118963488Y-109602763D01*
X118960358Y-109622526D01*
X118961909Y-109632319D01*
X118961909Y-109633299D01*
X118962819Y-109641446D01*
X118974375Y-109817752D01*
X118975403Y-109833443D01*
X118976207Y-109837483D01*
X118976207Y-109837486D01*
X119005851Y-109986513D01*
X119016639Y-110040750D01*
X119017965Y-110044656D01*
X119017966Y-110044660D01*
X119037760Y-110102969D01*
X119040717Y-110173904D01*
X119004853Y-110235177D01*
X118941557Y-110267334D01*
X118870923Y-110260165D01*
X118829352Y-110232566D01*
X116512426Y-107915640D01*
X116478400Y-107853328D01*
X116475521Y-107826545D01*
X116475521Y-107267876D01*
X116495523Y-107199755D01*
X116519690Y-107172065D01*
X116576597Y-107123462D01*
X116576598Y-107123461D01*
X116582369Y-107118532D01*
X116674245Y-106990673D01*
X116732971Y-106844588D01*
X116751269Y-106716020D01*
X116754574Y-106692797D01*
X116754574Y-106692794D01*
X116755155Y-106688713D01*
X116755299Y-106674990D01*
X116736384Y-106518684D01*
X116720100Y-106475590D01*
X116683415Y-106378504D01*
X116683414Y-106378501D01*
X116680731Y-106371402D01*
X116591552Y-106241647D01*
X116512620Y-106171321D01*
X116479669Y-106141962D01*
X116479666Y-106141960D01*
X116473997Y-106136909D01*
X116334852Y-106063235D01*
X116318143Y-106059038D01*
X116189519Y-106026730D01*
X116189517Y-106026730D01*
X116182149Y-106024879D01*
X116174551Y-106024839D01*
X116174549Y-106024839D01*
X116107340Y-106024487D01*
X116024705Y-106024055D01*
X116017326Y-106025827D01*
X116017322Y-106025827D01*
X115878988Y-106059038D01*
X115878984Y-106059039D01*
X115871609Y-106060810D01*
X115731700Y-106133022D01*
X115725978Y-106138014D01*
X115725976Y-106138015D01*
X115618780Y-106231528D01*
X115618777Y-106231531D01*
X115613055Y-106236523D01*
X115522522Y-106365338D01*
X115465330Y-106512029D01*
X115464339Y-106519558D01*
X115454349Y-106595440D01*
X115444779Y-106668128D01*
X115462056Y-106824623D01*
X115516164Y-106972480D01*
X115520401Y-106978786D01*
X115520403Y-106978789D01*
X115537877Y-107004792D01*
X115603979Y-107103162D01*
X115609594Y-107108271D01*
X115609599Y-107108277D01*
X115683321Y-107175359D01*
X115720243Y-107235999D01*
X115724521Y-107268552D01*
X115724521Y-107980776D01*
X115722042Y-108004073D01*
X115721944Y-108006158D01*
X115719752Y-108016338D01*
X115720976Y-108026677D01*
X115723648Y-108049256D01*
X115723992Y-108055093D01*
X115724093Y-108055085D01*
X115724521Y-108060264D01*
X115724521Y-108065465D01*
X115725375Y-108070593D01*
X115725375Y-108070599D01*
X115727649Y-108084259D01*
X115728486Y-108090135D01*
X115734445Y-108140482D01*
X115738367Y-108148649D01*
X115739854Y-108157585D01*
X115744798Y-108166747D01*
X115744799Y-108166751D01*
X115763927Y-108202201D01*
X115766623Y-108207492D01*
X115769615Y-108213723D01*
X115788558Y-108253172D01*
X115792115Y-108257403D01*
X115794047Y-108259335D01*
X115795766Y-108261209D01*
X115795840Y-108261346D01*
X115795730Y-108261446D01*
X115796153Y-108261926D01*
X115799215Y-108267601D01*
X115806862Y-108274670D01*
X115806863Y-108274671D01*
X115838388Y-108303812D01*
X115841954Y-108307242D01*
X118537182Y-111002470D01*
X118571208Y-111064782D01*
X118573009Y-111108011D01*
X118570077Y-111130285D01*
X118567468Y-111150099D01*
X118584745Y-111306594D01*
X118587355Y-111313726D01*
X118611681Y-111380201D01*
X118616307Y-111451047D01*
X118581897Y-111513147D01*
X118519375Y-111546786D01*
X118493355Y-111549502D01*
X114919472Y-111549502D01*
X114899761Y-111547951D01*
X114889792Y-111546372D01*
X114879999Y-111544821D01*
X114870206Y-111546372D01*
X114870204Y-111546372D01*
X114864308Y-111547306D01*
X114856958Y-111548249D01*
X114737286Y-111560036D01*
X114731366Y-111561832D01*
X114731360Y-111561833D01*
X114651887Y-111585941D01*
X114600058Y-111601663D01*
X114594604Y-111604578D01*
X114594602Y-111604579D01*
X114507382Y-111651199D01*
X114473587Y-111669263D01*
X114468804Y-111673188D01*
X114468803Y-111673189D01*
X114456433Y-111683341D01*
X114391086Y-111711094D01*
X114321108Y-111699112D01*
X114268716Y-111651199D01*
X114250500Y-111585941D01*
X114250500Y-111250326D01*
X114235966Y-111177260D01*
X114229070Y-111166939D01*
X114224435Y-111160001D01*
X114203220Y-111092248D01*
X114224435Y-111019999D01*
X114229070Y-111013061D01*
X114229070Y-111013060D01*
X114235966Y-111002740D01*
X114250500Y-110929674D01*
X114250500Y-109980326D01*
X114235966Y-109907260D01*
X114229070Y-109896939D01*
X114224435Y-109890001D01*
X114203220Y-109822248D01*
X114224435Y-109749999D01*
X114229070Y-109743061D01*
X114229070Y-109743060D01*
X114235966Y-109732740D01*
X114250500Y-109659674D01*
X114250500Y-108944176D01*
X114270502Y-108876055D01*
X114324158Y-108829562D01*
X114394432Y-108819458D01*
X114408473Y-108822300D01*
X114503719Y-108847287D01*
X114503721Y-108847287D01*
X114511069Y-108849215D01*
X114594380Y-108850524D01*
X114660898Y-108851569D01*
X114660901Y-108851569D01*
X114668495Y-108851688D01*
X114821968Y-108816538D01*
X114962625Y-108745795D01*
X115004154Y-108710326D01*
X115076574Y-108648474D01*
X115076576Y-108648471D01*
X115082348Y-108643542D01*
X115174224Y-108515683D01*
X115232950Y-108369598D01*
X115248813Y-108258136D01*
X115254553Y-108217807D01*
X115254553Y-108217804D01*
X115255134Y-108213723D01*
X115255278Y-108200000D01*
X115236363Y-108043694D01*
X115217656Y-107994186D01*
X115183394Y-107903514D01*
X115183393Y-107903511D01*
X115180710Y-107896412D01*
X115091531Y-107766657D01*
X115017681Y-107700859D01*
X114980125Y-107640609D01*
X114975500Y-107606783D01*
X114975500Y-107034472D01*
X114977051Y-107014761D01*
X114978630Y-107004792D01*
X114980181Y-106994999D01*
X114977662Y-106979095D01*
X114976719Y-106971741D01*
X114976048Y-106964924D01*
X114965002Y-106852776D01*
X114923517Y-106716020D01*
X114902617Y-106676918D01*
X114859065Y-106595440D01*
X114856149Y-106589984D01*
X114765488Y-106479512D01*
X114655016Y-106388851D01*
X114597797Y-106358267D01*
X114534438Y-106324400D01*
X114534435Y-106324399D01*
X114528980Y-106321483D01*
X114392224Y-106279998D01*
X114386063Y-106279391D01*
X114386057Y-106279390D01*
X114366568Y-106277471D01*
X114362313Y-106277052D01*
X114296480Y-106250470D01*
X114255470Y-106192516D01*
X114250636Y-106170299D01*
X114250500Y-106170326D01*
X114238387Y-106109431D01*
X114235966Y-106097260D01*
X114226324Y-106082829D01*
X114224435Y-106080001D01*
X114203220Y-106012248D01*
X114224435Y-105939999D01*
X114229070Y-105933061D01*
X114229070Y-105933060D01*
X114235966Y-105922740D01*
X114250500Y-105849674D01*
X114250500Y-105794171D01*
X114270502Y-105726050D01*
X114328282Y-105677762D01*
X114419547Y-105639959D01*
X114419551Y-105639957D01*
X114424121Y-105638064D01*
X114566160Y-105551022D01*
X114569915Y-105547815D01*
X114569919Y-105547812D01*
X114675586Y-105457562D01*
X114683360Y-105451434D01*
X114685805Y-105449658D01*
X114685807Y-105449656D01*
X114693829Y-105443828D01*
X114699660Y-105435803D01*
X114706668Y-105428794D01*
X114707149Y-105429275D01*
X114717171Y-105418645D01*
X114766304Y-105378323D01*
X114786842Y-105364601D01*
X114862355Y-105324239D01*
X114885173Y-105314787D01*
X114967120Y-105289928D01*
X114991345Y-105285109D01*
X115028697Y-105281431D01*
X115054594Y-105278880D01*
X115069199Y-105279310D01*
X115069199Y-105278630D01*
X115079115Y-105278630D01*
X115088908Y-105280181D01*
X115108671Y-105277051D01*
X115128381Y-105275500D01*
X116392330Y-105275500D01*
X116412041Y-105277051D01*
G37*
%TD.AperFunction*%
%TA.AperFunction,Conductor*%
G36*
X128636684Y-99270002D02*
G01*
X128683177Y-99323658D01*
X128693281Y-99393932D01*
X128663787Y-99458512D01*
X128644667Y-99476324D01*
X128631715Y-99489276D01*
X128555214Y-99591351D01*
X128546676Y-99606946D01*
X128501522Y-99727394D01*
X128497895Y-99742649D01*
X128492369Y-99793514D01*
X128492000Y-99800328D01*
X128492000Y-100022885D01*
X128496475Y-100038124D01*
X128497865Y-100039329D01*
X128505548Y-100041000D01*
X130128000Y-100041000D01*
X130196121Y-100061002D01*
X130242614Y-100114658D01*
X130254000Y-100167000D01*
X130254000Y-100423000D01*
X130233998Y-100491121D01*
X130180342Y-100537614D01*
X130128000Y-100549000D01*
X128510116Y-100549000D01*
X128494877Y-100553475D01*
X128493672Y-100554865D01*
X128492001Y-100562548D01*
X128492001Y-100789669D01*
X128492371Y-100796490D01*
X128497895Y-100847352D01*
X128501521Y-100862604D01*
X128546678Y-100983060D01*
X128557590Y-101002990D01*
X128572760Y-101072347D01*
X128548024Y-101138895D01*
X128491236Y-101181506D01*
X128447071Y-101189500D01*
X122262082Y-101189500D01*
X122242371Y-101187949D01*
X122232402Y-101186370D01*
X122222609Y-101184819D01*
X122212816Y-101186370D01*
X122202899Y-101186370D01*
X122202899Y-101186190D01*
X122187999Y-101186776D01*
X122121036Y-101181506D01*
X122042877Y-101175355D01*
X122023350Y-101172262D01*
X121857684Y-101132489D01*
X121838889Y-101126382D01*
X121681480Y-101061181D01*
X121663869Y-101052207D01*
X121518601Y-100963186D01*
X121502613Y-100951571D01*
X121391915Y-100857026D01*
X121381795Y-100846079D01*
X121381669Y-100846205D01*
X121374656Y-100839192D01*
X121368829Y-100831172D01*
X121360808Y-100825344D01*
X121360006Y-100824542D01*
X121352860Y-100818777D01*
X121196046Y-100678640D01*
X121196047Y-100678640D01*
X121193422Y-100676295D01*
X121002652Y-100540936D01*
X120828287Y-100444568D01*
X120801022Y-100429499D01*
X120801021Y-100429498D01*
X120797926Y-100427788D01*
X120794663Y-100426436D01*
X120794658Y-100426434D01*
X120585087Y-100339627D01*
X120585086Y-100339627D01*
X120581818Y-100338273D01*
X120357047Y-100273518D01*
X120126439Y-100234336D01*
X120074125Y-100231398D01*
X119957600Y-100224854D01*
X119956541Y-100224779D01*
X119955572Y-100224737D01*
X119952839Y-100224500D01*
X119952559Y-100224500D01*
X119951319Y-100224077D01*
X119951295Y-100224500D01*
X119943762Y-100224077D01*
X119912945Y-100222346D01*
X119903834Y-100221371D01*
X119902692Y-100221371D01*
X119892894Y-100219819D01*
X119883101Y-100221370D01*
X119883100Y-100221370D01*
X119873132Y-100222949D01*
X119853421Y-100224500D01*
X118897577Y-100224500D01*
X118829456Y-100204498D01*
X118801853Y-100177736D01*
X118800856Y-100178615D01*
X118795837Y-100172922D01*
X118791531Y-100166657D01*
X118715459Y-100098879D01*
X118679648Y-100066972D01*
X118679645Y-100066970D01*
X118673976Y-100061919D01*
X118655972Y-100052386D01*
X118541543Y-99991799D01*
X118541544Y-99991799D01*
X118534831Y-99988245D01*
X118516064Y-99983531D01*
X118389498Y-99951740D01*
X118389496Y-99951740D01*
X118382128Y-99949889D01*
X118374530Y-99949849D01*
X118374528Y-99949849D01*
X118307319Y-99949497D01*
X118224684Y-99949065D01*
X118217305Y-99950837D01*
X118217301Y-99950837D01*
X118078967Y-99984048D01*
X118078963Y-99984049D01*
X118071588Y-99985820D01*
X117931679Y-100058032D01*
X117925957Y-100063024D01*
X117925955Y-100063025D01*
X117818759Y-100156538D01*
X117818756Y-100156541D01*
X117813034Y-100161533D01*
X117801029Y-100178615D01*
X117733643Y-100274495D01*
X117722501Y-100290348D01*
X117665309Y-100437039D01*
X117664318Y-100444568D01*
X117649797Y-100554865D01*
X117644758Y-100593138D01*
X117662035Y-100749633D01*
X117716143Y-100897490D01*
X117803958Y-101028172D01*
X117920410Y-101134135D01*
X117927085Y-101137759D01*
X118052099Y-101205637D01*
X118052101Y-101205638D01*
X118058776Y-101209262D01*
X118066125Y-101211190D01*
X118203719Y-101247287D01*
X118203721Y-101247287D01*
X118211069Y-101249215D01*
X118294380Y-101250524D01*
X118360898Y-101251569D01*
X118360901Y-101251569D01*
X118368495Y-101251688D01*
X118521968Y-101216538D01*
X118662625Y-101145795D01*
X118688869Y-101123381D01*
X118776574Y-101048474D01*
X118776576Y-101048471D01*
X118782348Y-101043542D01*
X118786777Y-101037378D01*
X118786780Y-101037375D01*
X118793536Y-101027973D01*
X118849531Y-100984326D01*
X118895858Y-100975500D01*
X119853421Y-100975500D01*
X119873131Y-100977051D01*
X119892894Y-100980181D01*
X119902687Y-100978630D01*
X119909547Y-100978630D01*
X119927842Y-100977792D01*
X120058461Y-100986353D01*
X120074801Y-100988504D01*
X120229438Y-101019263D01*
X120245359Y-101023529D01*
X120394658Y-101074210D01*
X120409884Y-101080517D01*
X120429775Y-101090326D01*
X120551293Y-101150251D01*
X120565559Y-101158488D01*
X120654974Y-101218233D01*
X120696659Y-101246086D01*
X120709727Y-101256113D01*
X120808147Y-101342424D01*
X120820498Y-101355962D01*
X120825345Y-101360809D01*
X120831171Y-101368828D01*
X120839191Y-101374655D01*
X120839370Y-101374834D01*
X120848634Y-101382307D01*
X120917326Y-101443694D01*
X120994065Y-101512273D01*
X120994071Y-101512278D01*
X120996702Y-101514629D01*
X120999590Y-101516678D01*
X121173636Y-101640172D01*
X121173643Y-101640176D01*
X121176526Y-101642222D01*
X121369506Y-101748878D01*
X121372763Y-101750227D01*
X121372767Y-101750229D01*
X121569945Y-101831902D01*
X121573214Y-101833256D01*
X121785088Y-101894296D01*
X122002464Y-101931230D01*
X122050499Y-101933928D01*
X122153055Y-101939688D01*
X122157139Y-101940236D01*
X122157157Y-101940023D01*
X122162664Y-101940500D01*
X122165369Y-101940500D01*
X122167934Y-101940611D01*
X122171052Y-101940698D01*
X122173769Y-101940851D01*
X122200729Y-101942365D01*
X122212557Y-101943630D01*
X122212814Y-101943630D01*
X122222609Y-101945181D01*
X122242372Y-101942051D01*
X122262082Y-101940500D01*
X128626367Y-101940500D01*
X128694488Y-101960502D01*
X128740981Y-102014158D01*
X128749946Y-102041918D01*
X128764034Y-102112740D01*
X128770930Y-102123060D01*
X128770930Y-102123061D01*
X128775565Y-102129999D01*
X128796780Y-102197752D01*
X128775565Y-102270001D01*
X128770930Y-102276939D01*
X128764034Y-102287260D01*
X128761613Y-102299431D01*
X128749946Y-102358082D01*
X128717038Y-102420992D01*
X128655342Y-102456123D01*
X128626367Y-102459500D01*
X119924472Y-102459500D01*
X119904761Y-102457949D01*
X119894793Y-102456370D01*
X119894792Y-102456370D01*
X119884999Y-102454819D01*
X119875202Y-102456371D01*
X119874282Y-102456371D01*
X119864482Y-102457420D01*
X119654824Y-102469194D01*
X119427543Y-102507811D01*
X119206015Y-102571632D01*
X118993026Y-102659855D01*
X118791254Y-102771370D01*
X118603236Y-102904776D01*
X118600612Y-102907121D01*
X118480799Y-103014192D01*
X118478212Y-103016434D01*
X118478100Y-103016537D01*
X118476010Y-103018293D01*
X118475301Y-103019002D01*
X118474023Y-103019630D01*
X118474330Y-103019973D01*
X118474329Y-103019974D01*
X118446653Y-103044707D01*
X118438979Y-103050897D01*
X118438333Y-103051543D01*
X118430313Y-103057370D01*
X118418549Y-103073562D01*
X118405712Y-103088591D01*
X117616191Y-103878111D01*
X117553879Y-103912136D01*
X117526437Y-103915013D01*
X117468898Y-103914712D01*
X117384816Y-103914272D01*
X117377437Y-103916044D01*
X117377433Y-103916044D01*
X117239099Y-103949255D01*
X117239095Y-103949256D01*
X117231720Y-103951027D01*
X117168888Y-103983457D01*
X117106451Y-104015683D01*
X117091811Y-104023239D01*
X117086089Y-104028231D01*
X117086087Y-104028232D01*
X116978891Y-104121745D01*
X116978888Y-104121748D01*
X116973166Y-104126740D01*
X116882633Y-104255555D01*
X116880513Y-104260992D01*
X116831224Y-104311042D01*
X116761967Y-104326664D01*
X116695259Y-104302363D01*
X116652279Y-104245855D01*
X116645251Y-104183167D01*
X116654553Y-104117808D01*
X116654553Y-104117802D01*
X116655134Y-104113723D01*
X116655278Y-104100000D01*
X116636363Y-103943694D01*
X116614495Y-103885821D01*
X116583394Y-103803514D01*
X116583393Y-103803511D01*
X116580710Y-103796412D01*
X116491531Y-103666657D01*
X116444971Y-103625174D01*
X116379648Y-103566972D01*
X116379645Y-103566970D01*
X116373976Y-103561919D01*
X116367263Y-103558365D01*
X116361026Y-103554030D01*
X116362783Y-103551502D01*
X116322027Y-103511765D01*
X116306059Y-103442587D01*
X116330027Y-103375759D01*
X116359885Y-103347173D01*
X116362625Y-103345795D01*
X116402290Y-103311918D01*
X116476574Y-103248474D01*
X116476576Y-103248471D01*
X116482348Y-103243542D01*
X116574224Y-103115683D01*
X116632950Y-102969598D01*
X116655134Y-102813723D01*
X116655278Y-102800000D01*
X116636363Y-102643694D01*
X116608763Y-102570653D01*
X116583394Y-102503514D01*
X116583393Y-102503511D01*
X116580710Y-102496412D01*
X116491531Y-102366657D01*
X116433464Y-102314921D01*
X116409717Y-102293763D01*
X116372161Y-102233513D01*
X116373142Y-102162523D01*
X116411706Y-102103876D01*
X116476574Y-102048474D01*
X116476576Y-102048471D01*
X116482348Y-102043542D01*
X116574224Y-101915683D01*
X116632950Y-101769598D01*
X116655134Y-101613723D01*
X116655278Y-101600000D01*
X116636363Y-101443694D01*
X116601604Y-101351707D01*
X116583394Y-101303514D01*
X116583393Y-101303511D01*
X116580710Y-101296412D01*
X116491531Y-101166657D01*
X116434498Y-101115842D01*
X116379648Y-101066972D01*
X116379645Y-101066970D01*
X116373976Y-101061919D01*
X116365419Y-101057388D01*
X116301470Y-101023529D01*
X116234831Y-100988245D01*
X116218122Y-100984048D01*
X116089498Y-100951740D01*
X116089496Y-100951740D01*
X116082128Y-100949889D01*
X116074530Y-100949849D01*
X116074528Y-100949849D01*
X116007319Y-100949497D01*
X115924684Y-100949065D01*
X115917305Y-100950837D01*
X115917301Y-100950837D01*
X115778967Y-100984048D01*
X115778963Y-100984049D01*
X115771588Y-100985820D01*
X115764843Y-100989301D01*
X115764844Y-100989301D01*
X115679632Y-101033282D01*
X115631679Y-101058032D01*
X115625957Y-101063024D01*
X115625955Y-101063025D01*
X115516569Y-101158449D01*
X115452087Y-101188157D01*
X115433740Y-101189500D01*
X114552929Y-101189500D01*
X114484808Y-101169498D01*
X114438315Y-101115842D01*
X114428211Y-101045568D01*
X114442410Y-101002990D01*
X114453322Y-100983060D01*
X114498478Y-100862606D01*
X114502105Y-100847351D01*
X114507631Y-100796486D01*
X114508000Y-100789672D01*
X114508000Y-100567115D01*
X114503525Y-100551876D01*
X114502135Y-100550671D01*
X114494452Y-100549000D01*
X112872000Y-100549000D01*
X112803879Y-100528998D01*
X112757386Y-100475342D01*
X112746000Y-100423000D01*
X112746000Y-100167000D01*
X112766002Y-100098879D01*
X112819658Y-100052386D01*
X112872000Y-100041000D01*
X114489884Y-100041000D01*
X114505123Y-100036525D01*
X114506328Y-100035135D01*
X114507999Y-100027452D01*
X114507999Y-99800331D01*
X114507629Y-99793510D01*
X114502105Y-99742648D01*
X114498479Y-99727396D01*
X114453324Y-99606946D01*
X114444786Y-99591351D01*
X114368285Y-99489276D01*
X114349374Y-99470365D01*
X114350328Y-99469411D01*
X114313358Y-99419969D01*
X114308331Y-99349150D01*
X114342390Y-99286857D01*
X114404720Y-99252865D01*
X114431437Y-99250000D01*
X128568563Y-99250000D01*
X128636684Y-99270002D01*
G37*
%TD.AperFunction*%
%TD*%
M02*
