%TF.GenerationSoftware,KiCad,Pcbnew,(6.0.9-0)*%
%TF.CreationDate,2023-01-03T12:34:00+00:00*%
%TF.ProjectId,USBA,55534241-2e6b-4696-9361-645f70636258,1*%
%TF.SameCoordinates,Original*%
%TF.FileFunction,Legend,Top*%
%TF.FilePolarity,Positive*%
%FSLAX46Y46*%
G04 Gerber Fmt 4.6, Leading zero omitted, Abs format (unit mm)*
G04 Created by KiCad (PCBNEW (6.0.9-0)) date 2023-01-03 12:34:00*
%MOMM*%
%LPD*%
G01*
G04 APERTURE LIST*
%ADD10C,0.150000*%
%ADD11C,0.120000*%
G04 APERTURE END LIST*
D10*
X112985714Y-113259642D02*
X113652380Y-113069166D01*
X113176190Y-112878690D01*
X113652380Y-112688214D01*
X112985714Y-112497738D01*
X112985714Y-112212023D02*
X113652380Y-112021547D01*
X113176190Y-111831071D01*
X113652380Y-111640595D01*
X112985714Y-111450119D01*
X112985714Y-111164404D02*
X113652380Y-110973928D01*
X113176190Y-110783452D01*
X113652380Y-110592976D01*
X112985714Y-110402500D01*
X113557142Y-110021547D02*
X113604761Y-109973928D01*
X113652380Y-110021547D01*
X113604761Y-110069166D01*
X113557142Y-110021547D01*
X113652380Y-110021547D01*
X113652380Y-109545357D02*
X112985714Y-109545357D01*
X113080952Y-109545357D02*
X113033333Y-109497738D01*
X112985714Y-109402500D01*
X112985714Y-109259642D01*
X113033333Y-109164404D01*
X113128571Y-109116785D01*
X113652380Y-109116785D01*
X113128571Y-109116785D02*
X113033333Y-109069166D01*
X112985714Y-108973928D01*
X112985714Y-108831071D01*
X113033333Y-108735833D01*
X113128571Y-108688214D01*
X113652380Y-108688214D01*
X113604761Y-107831071D02*
X113652380Y-107926309D01*
X113652380Y-108116785D01*
X113604761Y-108212023D01*
X113509523Y-108259642D01*
X113128571Y-108259642D01*
X113033333Y-108212023D01*
X112985714Y-108116785D01*
X112985714Y-107926309D01*
X113033333Y-107831071D01*
X113128571Y-107783452D01*
X113223809Y-107783452D01*
X113319047Y-108259642D01*
X113557142Y-107354880D02*
X113604761Y-107307261D01*
X113652380Y-107354880D01*
X113604761Y-107402500D01*
X113557142Y-107354880D01*
X113652380Y-107354880D01*
X112985714Y-106450119D02*
X113652380Y-106450119D01*
X112985714Y-106878690D02*
X113509523Y-106878690D01*
X113604761Y-106831071D01*
X113652380Y-106735833D01*
X113652380Y-106592976D01*
X113604761Y-106497738D01*
X113557142Y-106450119D01*
X113652380Y-105973928D02*
X112652380Y-105973928D01*
X113271428Y-105878690D02*
X113652380Y-105592976D01*
X112985714Y-105592976D02*
X113366666Y-105973928D01*
D11*
%TO.C,R3*%
X116100000Y-110000000D02*
X116700000Y-110000000D01*
X116100000Y-109000000D02*
X116700000Y-109000000D01*
%TO.C,D1*%
X116400000Y-106800000D02*
X116400000Y-107600000D01*
X117500000Y-106800000D02*
X116400000Y-106800000D01*
X116341421Y-107300000D02*
G75*
G03*
X116341421Y-107300000I-141421J0D01*
G01*
%TO.C,R1*%
X116100000Y-107800000D02*
X116700000Y-107800000D01*
X116100000Y-108800000D02*
X116700000Y-108800000D01*
%TO.C,R2*%
X116100000Y-111200000D02*
X116700000Y-111200000D01*
X116100000Y-110200000D02*
X116700000Y-110200000D01*
%TO.C,C3*%
X127050000Y-107650000D02*
X126450000Y-107650000D01*
X127050000Y-106250000D02*
X126450000Y-106250000D01*
%TO.C,D2*%
X125670000Y-110570000D02*
X127070000Y-110570000D01*
%TO.C,L1*%
X123900000Y-107750000D02*
X122500000Y-107750000D01*
X123900000Y-109150000D02*
X122500000Y-109150000D01*
%TO.C,C2*%
X126450000Y-112500000D02*
X127050000Y-112500000D01*
X126450000Y-113900000D02*
X127050000Y-113900000D01*
%TO.C,C4*%
X119900000Y-107400000D02*
X119900000Y-108000000D01*
X118900000Y-107400000D02*
X118900000Y-108000000D01*
%TO.C,C1*%
X123150000Y-113950000D02*
X123750000Y-113950000D01*
X123150000Y-114950000D02*
X123750000Y-114950000D01*
%TO.C,R5*%
X119300000Y-112800000D02*
X119900000Y-112800000D01*
X119300000Y-113800000D02*
X119900000Y-113800000D01*
%TO.C,U2*%
X122525000Y-113900000D02*
X122525000Y-110800000D01*
%TO.C,R4*%
X119300000Y-115100000D02*
X119900000Y-115100000D01*
X119300000Y-114100000D02*
X119900000Y-114100000D01*
%TD*%
M02*
