M48
; DRILL file {KiCad (6.0.0-0)} date Friday, 31 December 2021 at 17:04:09
; FORMAT={-:-/ absolute / inch / decimal}
; #@! TF.CreationDate,2021-12-31T17:04:09+00:00
; #@! TF.GenerationSoftware,Kicad,Pcbnew,(6.0.0-0)
; #@! TF.FileFunction,Plated,1,2,PTH
FMAT,2
INCH
; #@! TA.AperFunction,Plated,PTH,ComponentDrill
T1C0.0098
; #@! TA.AperFunction,Plated,PTH,ViaDrill
T2C0.0157
%
G90
G05
T1
X4.6417Y-4.2677
T2
X4.5118Y-4.2598
X4.5276Y-4.3543
X4.5669Y-3.9252
X4.5669Y-4.0
X4.5669Y-4.0472
X4.5669Y-4.0984
X4.5709Y-4.1998
X4.6244Y-4.1167
X4.6651Y-4.1164
X4.6699Y-4.1555
X4.697Y-4.378
X4.7047Y-4.5
X4.7047Y-4.5591
X4.7283Y-4.0
X4.7362Y-4.0827
X4.7717Y-4.1063
X4.7795Y-3.9606
X4.7953Y-4.4567
X4.878Y-4.5
X4.878Y-4.5591
T0
M30
