%TF.GenerationSoftware,KiCad,Pcbnew,(5.1.9-0-10_14)*%
%TF.CreationDate,2021-11-06T10:14:45+00:00*%
%TF.ProjectId,USBA,55534241-2e6b-4696-9361-645f70636258,1*%
%TF.SameCoordinates,Original*%
%TF.FileFunction,Soldermask,Top*%
%TF.FilePolarity,Negative*%
%FSLAX46Y46*%
G04 Gerber Fmt 4.6, Leading zero omitted, Abs format (unit mm)*
G04 Created by KiCad (PCBNEW (5.1.9-0-10_14)) date 2021-11-06 10:14:45*
%MOMM*%
%LPD*%
G01*
G04 APERTURE LIST*
%ADD10R,1.300000X2.000000*%
%ADD11R,1.000000X6.410000*%
%ADD12R,1.000000X7.410000*%
%ADD13R,0.600000X1.100000*%
%ADD14R,1.425000X3.700000*%
%ADD15R,0.850000X0.500000*%
%ADD16C,0.350000*%
%ADD17C,0.100000*%
G04 APERTURE END LIST*
D10*
%TO.C,SW1*%
X127750000Y-109050000D03*
X123250000Y-109050000D03*
X123250000Y-117450000D03*
X127750000Y-117450000D03*
%TD*%
D11*
%TO.C,J1*%
X122500000Y-126795000D03*
X120500000Y-126795000D03*
D12*
X125000000Y-127295000D03*
X118000000Y-127295000D03*
%TD*%
D13*
%TO.C,U4*%
X125810000Y-100800000D03*
X123910000Y-100800000D03*
X124860000Y-100800000D03*
X123910000Y-103500000D03*
X124860000Y-103500000D03*
X125810000Y-103500000D03*
G36*
G01*
X129785000Y-104250000D02*
X130735000Y-104250000D01*
G75*
G02*
X130985000Y-104500000I0J-250000D01*
G01*
X130985000Y-105000000D01*
G75*
G02*
X130735000Y-105250000I-250000J0D01*
G01*
X129785000Y-105250000D01*
G75*
G02*
X129535000Y-105000000I0J250000D01*
G01*
X129535000Y-104500000D01*
G75*
G02*
X129785000Y-104250000I250000J0D01*
G01*
G37*
G36*
G01*
X129785000Y-106150000D02*
X130735000Y-106150000D01*
G75*
G02*
X130985000Y-106400000I0J-250000D01*
G01*
X130985000Y-106900000D01*
G75*
G02*
X130735000Y-107150000I-250000J0D01*
G01*
X129785000Y-107150000D01*
G75*
G02*
X129535000Y-106900000I0J250000D01*
G01*
X129535000Y-106400000D01*
G75*
G02*
X129785000Y-106150000I250000J0D01*
G01*
G37*
G36*
G01*
X123535000Y-106150000D02*
X124485000Y-106150000D01*
G75*
G02*
X124735000Y-106400000I0J-250000D01*
G01*
X124735000Y-106900000D01*
G75*
G02*
X124485000Y-107150000I-250000J0D01*
G01*
X123535000Y-107150000D01*
G75*
G02*
X123285000Y-106900000I0J250000D01*
G01*
X123285000Y-106400000D01*
G75*
G02*
X123535000Y-106150000I250000J0D01*
G01*
G37*
G36*
G01*
X123535000Y-104250000D02*
X124485000Y-104250000D01*
G75*
G02*
X124735000Y-104500000I0J-250000D01*
G01*
X124735000Y-105000000D01*
G75*
G02*
X124485000Y-105250000I-250000J0D01*
G01*
X123535000Y-105250000D01*
G75*
G02*
X123285000Y-105000000I0J250000D01*
G01*
X123285000Y-104500000D01*
G75*
G02*
X123535000Y-104250000I250000J0D01*
G01*
G37*
G36*
G01*
X123010000Y-101825000D02*
X122510000Y-101825000D01*
G75*
G02*
X122285000Y-101600000I0J225000D01*
G01*
X122285000Y-101150000D01*
G75*
G02*
X122510000Y-100925000I225000J0D01*
G01*
X123010000Y-100925000D01*
G75*
G02*
X123235000Y-101150000I0J-225000D01*
G01*
X123235000Y-101600000D01*
G75*
G02*
X123010000Y-101825000I-225000J0D01*
G01*
G37*
G36*
G01*
X123010000Y-103375000D02*
X122510000Y-103375000D01*
G75*
G02*
X122285000Y-103150000I0J225000D01*
G01*
X122285000Y-102700000D01*
G75*
G02*
X122510000Y-102475000I225000J0D01*
G01*
X123010000Y-102475000D01*
G75*
G02*
X123235000Y-102700000I0J-225000D01*
G01*
X123235000Y-103150000D01*
G75*
G02*
X123010000Y-103375000I-225000J0D01*
G01*
G37*
G36*
G01*
X124945000Y-105945626D02*
X124945000Y-104694374D01*
G75*
G02*
X125194374Y-104445000I249374J0D01*
G01*
X126120626Y-104445000D01*
G75*
G02*
X126370000Y-104694374I0J-249374D01*
G01*
X126370000Y-105945626D01*
G75*
G02*
X126120626Y-106195000I-249374J0D01*
G01*
X125194374Y-106195000D01*
G75*
G02*
X124945000Y-105945626I0J249374D01*
G01*
G37*
G36*
G01*
X127910000Y-105945626D02*
X127910000Y-104694374D01*
G75*
G02*
X128159374Y-104445000I249374J0D01*
G01*
X129085626Y-104445000D01*
G75*
G02*
X129335000Y-104694374I0J-249374D01*
G01*
X129335000Y-105945626D01*
G75*
G02*
X129085626Y-106195000I-249374J0D01*
G01*
X128159374Y-106195000D01*
G75*
G02*
X127910000Y-105945626I0J249374D01*
G01*
G37*
D14*
X130260000Y-102200000D03*
X127260000Y-102200000D03*
%TD*%
D15*
%TO.C,D1*%
X114975000Y-99600000D03*
X113225000Y-99600000D03*
X113225000Y-100600000D03*
X114975000Y-100600000D03*
%TD*%
%TO.C,R9*%
G36*
G01*
X114525000Y-104275000D02*
X114525000Y-103725000D01*
G75*
G02*
X114725000Y-103525000I200000J0D01*
G01*
X115125000Y-103525000D01*
G75*
G02*
X115325000Y-103725000I0J-200000D01*
G01*
X115325000Y-104275000D01*
G75*
G02*
X115125000Y-104475000I-200000J0D01*
G01*
X114725000Y-104475000D01*
G75*
G02*
X114525000Y-104275000I0J200000D01*
G01*
G37*
G36*
G01*
X112875000Y-104275000D02*
X112875000Y-103725000D01*
G75*
G02*
X113075000Y-103525000I200000J0D01*
G01*
X113475000Y-103525000D01*
G75*
G02*
X113675000Y-103725000I0J-200000D01*
G01*
X113675000Y-104275000D01*
G75*
G02*
X113475000Y-104475000I-200000J0D01*
G01*
X113075000Y-104475000D01*
G75*
G02*
X112875000Y-104275000I0J200000D01*
G01*
G37*
%TD*%
%TO.C,R8*%
G36*
G01*
X114525000Y-101875000D02*
X114525000Y-101325000D01*
G75*
G02*
X114725000Y-101125000I200000J0D01*
G01*
X115125000Y-101125000D01*
G75*
G02*
X115325000Y-101325000I0J-200000D01*
G01*
X115325000Y-101875000D01*
G75*
G02*
X115125000Y-102075000I-200000J0D01*
G01*
X114725000Y-102075000D01*
G75*
G02*
X114525000Y-101875000I0J200000D01*
G01*
G37*
G36*
G01*
X112875000Y-101875000D02*
X112875000Y-101325000D01*
G75*
G02*
X113075000Y-101125000I200000J0D01*
G01*
X113475000Y-101125000D01*
G75*
G02*
X113675000Y-101325000I0J-200000D01*
G01*
X113675000Y-101875000D01*
G75*
G02*
X113475000Y-102075000I-200000J0D01*
G01*
X113075000Y-102075000D01*
G75*
G02*
X112875000Y-101875000I0J200000D01*
G01*
G37*
%TD*%
D16*
%TO.C,U2*%
X117500000Y-113100000D03*
D17*
G36*
X118500000Y-112100000D02*
G01*
X118500000Y-114100000D01*
X116750000Y-114100000D01*
X116500000Y-113850000D01*
X116500000Y-112100000D01*
X118500000Y-112100000D01*
G37*
G36*
G01*
X115887500Y-114225000D02*
X115312500Y-114225000D01*
G75*
G02*
X115250000Y-114162500I0J62500D01*
G01*
X115250000Y-114037500D01*
G75*
G02*
X115312500Y-113975000I62500J0D01*
G01*
X115887500Y-113975000D01*
G75*
G02*
X115950000Y-114037500I0J-62500D01*
G01*
X115950000Y-114162500D01*
G75*
G02*
X115887500Y-114225000I-62500J0D01*
G01*
G37*
G36*
G01*
X115887500Y-113725000D02*
X115312500Y-113725000D01*
G75*
G02*
X115250000Y-113662500I0J62500D01*
G01*
X115250000Y-113537500D01*
G75*
G02*
X115312500Y-113475000I62500J0D01*
G01*
X115887500Y-113475000D01*
G75*
G02*
X115950000Y-113537500I0J-62500D01*
G01*
X115950000Y-113662500D01*
G75*
G02*
X115887500Y-113725000I-62500J0D01*
G01*
G37*
G36*
G01*
X115887500Y-113225000D02*
X115312500Y-113225000D01*
G75*
G02*
X115250000Y-113162500I0J62500D01*
G01*
X115250000Y-113037500D01*
G75*
G02*
X115312500Y-112975000I62500J0D01*
G01*
X115887500Y-112975000D01*
G75*
G02*
X115950000Y-113037500I0J-62500D01*
G01*
X115950000Y-113162500D01*
G75*
G02*
X115887500Y-113225000I-62500J0D01*
G01*
G37*
G36*
G01*
X115887500Y-112725000D02*
X115312500Y-112725000D01*
G75*
G02*
X115250000Y-112662500I0J62500D01*
G01*
X115250000Y-112537500D01*
G75*
G02*
X115312500Y-112475000I62500J0D01*
G01*
X115887500Y-112475000D01*
G75*
G02*
X115950000Y-112537500I0J-62500D01*
G01*
X115950000Y-112662500D01*
G75*
G02*
X115887500Y-112725000I-62500J0D01*
G01*
G37*
G36*
G01*
X115887500Y-112225000D02*
X115312500Y-112225000D01*
G75*
G02*
X115250000Y-112162500I0J62500D01*
G01*
X115250000Y-112037500D01*
G75*
G02*
X115312500Y-111975000I62500J0D01*
G01*
X115887500Y-111975000D01*
G75*
G02*
X115950000Y-112037500I0J-62500D01*
G01*
X115950000Y-112162500D01*
G75*
G02*
X115887500Y-112225000I-62500J0D01*
G01*
G37*
G36*
G01*
X116562500Y-111550000D02*
X116437500Y-111550000D01*
G75*
G02*
X116375000Y-111487500I0J62500D01*
G01*
X116375000Y-110912500D01*
G75*
G02*
X116437500Y-110850000I62500J0D01*
G01*
X116562500Y-110850000D01*
G75*
G02*
X116625000Y-110912500I0J-62500D01*
G01*
X116625000Y-111487500D01*
G75*
G02*
X116562500Y-111550000I-62500J0D01*
G01*
G37*
G36*
G01*
X117062500Y-111550000D02*
X116937500Y-111550000D01*
G75*
G02*
X116875000Y-111487500I0J62500D01*
G01*
X116875000Y-110912500D01*
G75*
G02*
X116937500Y-110850000I62500J0D01*
G01*
X117062500Y-110850000D01*
G75*
G02*
X117125000Y-110912500I0J-62500D01*
G01*
X117125000Y-111487500D01*
G75*
G02*
X117062500Y-111550000I-62500J0D01*
G01*
G37*
G36*
G01*
X117562500Y-111550000D02*
X117437500Y-111550000D01*
G75*
G02*
X117375000Y-111487500I0J62500D01*
G01*
X117375000Y-110912500D01*
G75*
G02*
X117437500Y-110850000I62500J0D01*
G01*
X117562500Y-110850000D01*
G75*
G02*
X117625000Y-110912500I0J-62500D01*
G01*
X117625000Y-111487500D01*
G75*
G02*
X117562500Y-111550000I-62500J0D01*
G01*
G37*
G36*
G01*
X118062500Y-111550000D02*
X117937500Y-111550000D01*
G75*
G02*
X117875000Y-111487500I0J62500D01*
G01*
X117875000Y-110912500D01*
G75*
G02*
X117937500Y-110850000I62500J0D01*
G01*
X118062500Y-110850000D01*
G75*
G02*
X118125000Y-110912500I0J-62500D01*
G01*
X118125000Y-111487500D01*
G75*
G02*
X118062500Y-111550000I-62500J0D01*
G01*
G37*
G36*
G01*
X118562500Y-111550000D02*
X118437500Y-111550000D01*
G75*
G02*
X118375000Y-111487500I0J62500D01*
G01*
X118375000Y-110912500D01*
G75*
G02*
X118437500Y-110850000I62500J0D01*
G01*
X118562500Y-110850000D01*
G75*
G02*
X118625000Y-110912500I0J-62500D01*
G01*
X118625000Y-111487500D01*
G75*
G02*
X118562500Y-111550000I-62500J0D01*
G01*
G37*
G36*
G01*
X119687500Y-112225000D02*
X119112500Y-112225000D01*
G75*
G02*
X119050000Y-112162500I0J62500D01*
G01*
X119050000Y-112037500D01*
G75*
G02*
X119112500Y-111975000I62500J0D01*
G01*
X119687500Y-111975000D01*
G75*
G02*
X119750000Y-112037500I0J-62500D01*
G01*
X119750000Y-112162500D01*
G75*
G02*
X119687500Y-112225000I-62500J0D01*
G01*
G37*
G36*
G01*
X119687500Y-112725000D02*
X119112500Y-112725000D01*
G75*
G02*
X119050000Y-112662500I0J62500D01*
G01*
X119050000Y-112537500D01*
G75*
G02*
X119112500Y-112475000I62500J0D01*
G01*
X119687500Y-112475000D01*
G75*
G02*
X119750000Y-112537500I0J-62500D01*
G01*
X119750000Y-112662500D01*
G75*
G02*
X119687500Y-112725000I-62500J0D01*
G01*
G37*
G36*
G01*
X119687500Y-113225000D02*
X119112500Y-113225000D01*
G75*
G02*
X119050000Y-113162500I0J62500D01*
G01*
X119050000Y-113037500D01*
G75*
G02*
X119112500Y-112975000I62500J0D01*
G01*
X119687500Y-112975000D01*
G75*
G02*
X119750000Y-113037500I0J-62500D01*
G01*
X119750000Y-113162500D01*
G75*
G02*
X119687500Y-113225000I-62500J0D01*
G01*
G37*
G36*
G01*
X119687500Y-113725000D02*
X119112500Y-113725000D01*
G75*
G02*
X119050000Y-113662500I0J62500D01*
G01*
X119050000Y-113537500D01*
G75*
G02*
X119112500Y-113475000I62500J0D01*
G01*
X119687500Y-113475000D01*
G75*
G02*
X119750000Y-113537500I0J-62500D01*
G01*
X119750000Y-113662500D01*
G75*
G02*
X119687500Y-113725000I-62500J0D01*
G01*
G37*
G36*
G01*
X119687500Y-114225000D02*
X119112500Y-114225000D01*
G75*
G02*
X119050000Y-114162500I0J62500D01*
G01*
X119050000Y-114037500D01*
G75*
G02*
X119112500Y-113975000I62500J0D01*
G01*
X119687500Y-113975000D01*
G75*
G02*
X119750000Y-114037500I0J-62500D01*
G01*
X119750000Y-114162500D01*
G75*
G02*
X119687500Y-114225000I-62500J0D01*
G01*
G37*
G36*
G01*
X118562500Y-115350000D02*
X118437500Y-115350000D01*
G75*
G02*
X118375000Y-115287500I0J62500D01*
G01*
X118375000Y-114712500D01*
G75*
G02*
X118437500Y-114650000I62500J0D01*
G01*
X118562500Y-114650000D01*
G75*
G02*
X118625000Y-114712500I0J-62500D01*
G01*
X118625000Y-115287500D01*
G75*
G02*
X118562500Y-115350000I-62500J0D01*
G01*
G37*
G36*
G01*
X118062500Y-115350000D02*
X117937500Y-115350000D01*
G75*
G02*
X117875000Y-115287500I0J62500D01*
G01*
X117875000Y-114712500D01*
G75*
G02*
X117937500Y-114650000I62500J0D01*
G01*
X118062500Y-114650000D01*
G75*
G02*
X118125000Y-114712500I0J-62500D01*
G01*
X118125000Y-115287500D01*
G75*
G02*
X118062500Y-115350000I-62500J0D01*
G01*
G37*
G36*
G01*
X117562500Y-115350000D02*
X117437500Y-115350000D01*
G75*
G02*
X117375000Y-115287500I0J62500D01*
G01*
X117375000Y-114712500D01*
G75*
G02*
X117437500Y-114650000I62500J0D01*
G01*
X117562500Y-114650000D01*
G75*
G02*
X117625000Y-114712500I0J-62500D01*
G01*
X117625000Y-115287500D01*
G75*
G02*
X117562500Y-115350000I-62500J0D01*
G01*
G37*
G36*
G01*
X117062500Y-115350000D02*
X116937500Y-115350000D01*
G75*
G02*
X116875000Y-115287500I0J62500D01*
G01*
X116875000Y-114712500D01*
G75*
G02*
X116937500Y-114650000I62500J0D01*
G01*
X117062500Y-114650000D01*
G75*
G02*
X117125000Y-114712500I0J-62500D01*
G01*
X117125000Y-115287500D01*
G75*
G02*
X117062500Y-115350000I-62500J0D01*
G01*
G37*
G36*
G01*
X116562500Y-115350000D02*
X116437500Y-115350000D01*
G75*
G02*
X116375000Y-115287500I0J62500D01*
G01*
X116375000Y-114712500D01*
G75*
G02*
X116437500Y-114650000I62500J0D01*
G01*
X116562500Y-114650000D01*
G75*
G02*
X116625000Y-114712500I0J-62500D01*
G01*
X116625000Y-115287500D01*
G75*
G02*
X116562500Y-115350000I-62500J0D01*
G01*
G37*
%TD*%
%TO.C,C2*%
G36*
G01*
X114453033Y-116106587D02*
X114806587Y-115753033D01*
G75*
G02*
X115124785Y-115753033I159099J-159099D01*
G01*
X115442983Y-116071231D01*
G75*
G02*
X115442983Y-116389429I-159099J-159099D01*
G01*
X115089429Y-116742983D01*
G75*
G02*
X114771231Y-116742983I-159099J159099D01*
G01*
X114453033Y-116424785D01*
G75*
G02*
X114453033Y-116106587I159099J159099D01*
G01*
G37*
G36*
G01*
X113357017Y-115010571D02*
X113710571Y-114657017D01*
G75*
G02*
X114028769Y-114657017I159099J-159099D01*
G01*
X114346967Y-114975215D01*
G75*
G02*
X114346967Y-115293413I-159099J-159099D01*
G01*
X113993413Y-115646967D01*
G75*
G02*
X113675215Y-115646967I-159099J159099D01*
G01*
X113357017Y-115328769D01*
G75*
G02*
X113357017Y-115010571I159099J159099D01*
G01*
G37*
%TD*%
%TO.C,R10*%
G36*
G01*
X114525000Y-103075000D02*
X114525000Y-102525000D01*
G75*
G02*
X114725000Y-102325000I200000J0D01*
G01*
X115125000Y-102325000D01*
G75*
G02*
X115325000Y-102525000I0J-200000D01*
G01*
X115325000Y-103075000D01*
G75*
G02*
X115125000Y-103275000I-200000J0D01*
G01*
X114725000Y-103275000D01*
G75*
G02*
X114525000Y-103075000I0J200000D01*
G01*
G37*
G36*
G01*
X112875000Y-103075000D02*
X112875000Y-102525000D01*
G75*
G02*
X113075000Y-102325000I200000J0D01*
G01*
X113475000Y-102325000D01*
G75*
G02*
X113675000Y-102525000I0J-200000D01*
G01*
X113675000Y-103075000D01*
G75*
G02*
X113475000Y-103275000I-200000J0D01*
G01*
X113075000Y-103275000D01*
G75*
G02*
X112875000Y-103075000I0J200000D01*
G01*
G37*
%TD*%
M02*
