%TF.GenerationSoftware,KiCad,Pcbnew,(6.0.9-0)*%
%TF.CreationDate,2023-01-05T14:11:15+00:00*%
%TF.ProjectId,USBA,55534241-2e6b-4696-9361-645f70636258,1*%
%TF.SameCoordinates,Original*%
%TF.FileFunction,Paste,Top*%
%TF.FilePolarity,Positive*%
%FSLAX46Y46*%
G04 Gerber Fmt 4.6, Leading zero omitted, Abs format (unit mm)*
G04 Created by KiCad (PCBNEW (6.0.9-0)) date 2023-01-05 14:11:15*
%MOMM*%
%LPD*%
G01*
G04 APERTURE LIST*
G04 Aperture macros list*
%AMRoundRect*
0 Rectangle with rounded corners*
0 $1 Rounding radius*
0 $2 $3 $4 $5 $6 $7 $8 $9 X,Y pos of 4 corners*
0 Add a 4 corners polygon primitive as box body*
4,1,4,$2,$3,$4,$5,$6,$7,$8,$9,$2,$3,0*
0 Add four circle primitives for the rounded corners*
1,1,$1+$1,$2,$3*
1,1,$1+$1,$4,$5*
1,1,$1+$1,$6,$7*
1,1,$1+$1,$8,$9*
0 Add four rect primitives between the rounded corners*
20,1,$1+$1,$2,$3,$4,$5,0*
20,1,$1+$1,$4,$5,$6,$7,0*
20,1,$1+$1,$6,$7,$8,$9,0*
20,1,$1+$1,$8,$9,$2,$3,0*%
G04 Aperture macros list end*
%ADD10RoundRect,0.184000X-0.200000X-0.272000X0.200000X-0.272000X0.200000X0.272000X-0.200000X0.272000X0*%
%ADD11R,0.816000X0.480000*%
%ADD12RoundRect,0.184000X-0.272000X0.200000X-0.272000X-0.200000X0.272000X-0.200000X0.272000X0.200000X0*%
%ADD13RoundRect,0.207000X0.225000X0.249000X-0.225000X0.249000X-0.225000X-0.249000X0.225000X-0.249000X0*%
%ADD14RoundRect,0.250000X0.250000X-0.350000X0.250000X0.350000X-0.250000X0.350000X-0.250000X-0.350000X0*%
%ADD15RoundRect,0.220875X0.619125X-0.463125X0.619125X0.463125X-0.619125X0.463125X-0.619125X-0.463125X0*%
%ADD16R,1.056000X0.576000*%
%ADD17RoundRect,0.230000X-0.250000X-0.466000X0.250000X-0.466000X0.250000X0.466000X-0.250000X0.466000X0*%
%ADD18C,0.450000*%
%ADD19RoundRect,0.184000X0.200000X0.272000X-0.200000X0.272000X-0.200000X-0.272000X0.200000X-0.272000X0*%
G04 APERTURE END LIST*
D10*
%TO.C,R3*%
X115675000Y-109450000D03*
X117325000Y-109450000D03*
%TD*%
D11*
%TO.C,D1*%
X117375000Y-107250000D03*
X115625000Y-107250000D03*
X115625000Y-106250000D03*
X117375000Y-106250000D03*
%TD*%
D10*
%TO.C,R1*%
X115675000Y-108250000D03*
X117325000Y-108250000D03*
%TD*%
%TO.C,R2*%
X115675000Y-110650000D03*
X117325000Y-110650000D03*
%TD*%
D12*
%TO.C,C4*%
X119400000Y-106925000D03*
X119400000Y-108475000D03*
%TD*%
D10*
%TO.C,R5*%
X118775000Y-113250000D03*
X120425000Y-113250000D03*
%TD*%
D13*
%TO.C,U2*%
X124225000Y-114450000D03*
D14*
X122100000Y-109950000D03*
D15*
X126370000Y-111552500D03*
D14*
X123250000Y-109950000D03*
X124400000Y-109950000D03*
D16*
X124550000Y-111400000D03*
D14*
X124400000Y-106950000D03*
D13*
X122675000Y-114450000D03*
D14*
X122100000Y-106950000D03*
X123250000Y-106950000D03*
D16*
X121850000Y-111400000D03*
X124550000Y-113300000D03*
D17*
X125800000Y-113200000D03*
D16*
X124550000Y-112350000D03*
D17*
X127700000Y-106950000D03*
X127700000Y-113200000D03*
D15*
X126370000Y-108587500D03*
D16*
X121850000Y-112350000D03*
D17*
X125800000Y-106950000D03*
D16*
X121850000Y-113300000D03*
%TD*%
D10*
%TO.C,R4*%
X118775000Y-114600000D03*
X120425000Y-114600000D03*
%TD*%
D18*
%TO.C,*%
X115005000Y-139155000D03*
X117045000Y-139155000D03*
X115005000Y-139665000D03*
X117045000Y-139665000D03*
X115005000Y-140175000D03*
X117045000Y-140175000D03*
X115005000Y-140685000D03*
X117045000Y-140685000D03*
X115005000Y-141195000D03*
X117045000Y-141195000D03*
X115005000Y-141705000D03*
X117045000Y-141705000D03*
X115515000Y-142215000D03*
X116025000Y-142215000D03*
X116535000Y-142215000D03*
X118575000Y-139155000D03*
X119085000Y-139155000D03*
X119595000Y-139155000D03*
X118065000Y-139665000D03*
X120105000Y-139665000D03*
X118065000Y-140175000D03*
X118575000Y-140685000D03*
X119085000Y-140685000D03*
X119595000Y-140685000D03*
X120105000Y-141195000D03*
X118065000Y-141705000D03*
X120105000Y-141705000D03*
X118575000Y-142215000D03*
X119085000Y-142215000D03*
X119595000Y-142215000D03*
X121125000Y-139155000D03*
X121635000Y-139155000D03*
X122145000Y-139155000D03*
X122655000Y-139155000D03*
X121125000Y-139665000D03*
X123165000Y-139665000D03*
X121125000Y-140175000D03*
X123165000Y-140175000D03*
X121125000Y-140685000D03*
X121635000Y-140685000D03*
X122145000Y-140685000D03*
X122655000Y-140685000D03*
X121125000Y-141195000D03*
X123165000Y-141195000D03*
X121125000Y-141705000D03*
X123165000Y-141705000D03*
X121125000Y-142215000D03*
X121635000Y-142215000D03*
X122145000Y-142215000D03*
X122655000Y-142215000D03*
X124695000Y-140685000D03*
X125205000Y-140685000D03*
X125715000Y-140685000D03*
X128265000Y-139155000D03*
X127755000Y-139665000D03*
X128775000Y-139665000D03*
X127245000Y-140175000D03*
X129285000Y-140175000D03*
X127245000Y-140685000D03*
X129285000Y-140685000D03*
X127245000Y-141195000D03*
X127755000Y-141195000D03*
X128265000Y-141195000D03*
X128775000Y-141195000D03*
X129285000Y-141195000D03*
X127245000Y-141705000D03*
X129285000Y-141705000D03*
X127245000Y-142215000D03*
X129285000Y-142215000D03*
%TD*%
D19*
%TO.C,C5*%
X127425000Y-115800000D03*
X125875000Y-115800000D03*
%TD*%
D10*
%TO.C,R6*%
X122625000Y-115800000D03*
X124275000Y-115800000D03*
%TD*%
M02*
