%TF.GenerationSoftware,KiCad,Pcbnew,(6.0.1-0)*%
%TF.CreationDate,2022-01-30T11:03:14+00:00*%
%TF.ProjectId,USBA,55534241-2e6b-4696-9361-645f70636258,1*%
%TF.SameCoordinates,Original*%
%TF.FileFunction,Legend,Top*%
%TF.FilePolarity,Positive*%
%FSLAX46Y46*%
G04 Gerber Fmt 4.6, Leading zero omitted, Abs format (unit mm)*
G04 Created by KiCad (PCBNEW (6.0.1-0)) date 2022-01-30 11:03:14*
%MOMM*%
%LPD*%
G01*
G04 APERTURE LIST*
%ADD10C,0.150000*%
%ADD11C,0.120000*%
G04 APERTURE END LIST*
D10*
X112985714Y-113259642D02*
X113652380Y-113069166D01*
X113176190Y-112878690D01*
X113652380Y-112688214D01*
X112985714Y-112497738D01*
X112985714Y-112212023D02*
X113652380Y-112021547D01*
X113176190Y-111831071D01*
X113652380Y-111640595D01*
X112985714Y-111450119D01*
X112985714Y-111164404D02*
X113652380Y-110973928D01*
X113176190Y-110783452D01*
X113652380Y-110592976D01*
X112985714Y-110402500D01*
X113557142Y-110021547D02*
X113604761Y-109973928D01*
X113652380Y-110021547D01*
X113604761Y-110069166D01*
X113557142Y-110021547D01*
X113652380Y-110021547D01*
X113652380Y-109545357D02*
X112985714Y-109545357D01*
X113080952Y-109545357D02*
X113033333Y-109497738D01*
X112985714Y-109402500D01*
X112985714Y-109259642D01*
X113033333Y-109164404D01*
X113128571Y-109116785D01*
X113652380Y-109116785D01*
X113128571Y-109116785D02*
X113033333Y-109069166D01*
X112985714Y-108973928D01*
X112985714Y-108831071D01*
X113033333Y-108735833D01*
X113128571Y-108688214D01*
X113652380Y-108688214D01*
X113604761Y-107831071D02*
X113652380Y-107926309D01*
X113652380Y-108116785D01*
X113604761Y-108212023D01*
X113509523Y-108259642D01*
X113128571Y-108259642D01*
X113033333Y-108212023D01*
X112985714Y-108116785D01*
X112985714Y-107926309D01*
X113033333Y-107831071D01*
X113128571Y-107783452D01*
X113223809Y-107783452D01*
X113319047Y-108259642D01*
X113557142Y-107354880D02*
X113604761Y-107307261D01*
X113652380Y-107354880D01*
X113604761Y-107402500D01*
X113557142Y-107354880D01*
X113652380Y-107354880D01*
X112985714Y-106450119D02*
X113652380Y-106450119D01*
X112985714Y-106878690D02*
X113509523Y-106878690D01*
X113604761Y-106831071D01*
X113652380Y-106735833D01*
X113652380Y-106592976D01*
X113604761Y-106497738D01*
X113557142Y-106450119D01*
X113652380Y-105973928D02*
X112652380Y-105973928D01*
X113271428Y-105878690D02*
X113652380Y-105592976D01*
X112985714Y-105592976D02*
X113366666Y-105973928D01*
D11*
%TO.C,U2*%
X119285000Y-110510000D02*
X120010000Y-110510000D01*
X120010000Y-106290000D02*
X120010000Y-107015000D01*
X115790000Y-110510000D02*
X115790000Y-109785000D01*
X119285000Y-106290000D02*
X120010000Y-106290000D01*
X120010000Y-110510000D02*
X120010000Y-109785000D01*
X116515000Y-110510000D02*
X115790000Y-110510000D01*
X116382843Y-106600000D02*
G75*
G03*
X116382843Y-106600000I-282843J0D01*
G01*
%TO.C,R3*%
X113959420Y-103310000D02*
X114240580Y-103310000D01*
X113959420Y-102290000D02*
X114240580Y-102290000D01*
%TO.C,C1*%
X116690000Y-102440580D02*
X116690000Y-102159420D01*
X117710000Y-102440580D02*
X117710000Y-102159420D01*
%TO.C,R1*%
X113959420Y-102110000D02*
X114240580Y-102110000D01*
X113959420Y-101090000D02*
X114240580Y-101090000D01*
%TO.C,R2*%
X113959420Y-103490000D02*
X114240580Y-103490000D01*
X113959420Y-104510000D02*
X114240580Y-104510000D01*
%TO.C,SW1*%
X118270000Y-112900000D02*
X118270000Y-112870000D01*
X118270000Y-119330000D02*
X124730000Y-119330000D01*
X124730000Y-114800000D02*
X124730000Y-117400000D01*
X118270000Y-114800000D02*
X118270000Y-117400000D01*
X124730000Y-112870000D02*
X124730000Y-112900000D01*
X118270000Y-112870000D02*
X124730000Y-112870000D01*
X118270000Y-119330000D02*
X118270000Y-119300000D01*
X124730000Y-119330000D02*
X124730000Y-119300000D01*
%TO.C,R5*%
X121900000Y-102700000D02*
X121900000Y-102100000D01*
X120900000Y-102700000D02*
X120900000Y-102100000D01*
%TO.C,R4*%
X120300000Y-100900000D02*
X120900000Y-100900000D01*
X120300000Y-99900000D02*
X120900000Y-99900000D01*
%TD*%
M02*
