%TF.GenerationSoftware,KiCad,Pcbnew,(5.1.10-1-10_14)*%
%TF.CreationDate,2021-11-10T11:19:47+00:00*%
%TF.ProjectId,USBA,55534241-2e6b-4696-9361-645f70636258,1*%
%TF.SameCoordinates,Original*%
%TF.FileFunction,Legend,Top*%
%TF.FilePolarity,Positive*%
%FSLAX46Y46*%
G04 Gerber Fmt 4.6, Leading zero omitted, Abs format (unit mm)*
G04 Created by KiCad (PCBNEW (5.1.10-1-10_14)) date 2021-11-10 11:19:47*
%MOMM*%
%LPD*%
G01*
G04 APERTURE LIST*
%ADD10C,0.150000*%
%ADD11C,0.120000*%
%ADD12C,0.100000*%
%ADD13C,0.080000*%
G04 APERTURE END LIST*
D10*
X113185714Y-117959642D02*
X113852380Y-117769166D01*
X113376190Y-117578690D01*
X113852380Y-117388214D01*
X113185714Y-117197738D01*
X113185714Y-116912023D02*
X113852380Y-116721547D01*
X113376190Y-116531071D01*
X113852380Y-116340595D01*
X113185714Y-116150119D01*
X113185714Y-115864404D02*
X113852380Y-115673928D01*
X113376190Y-115483452D01*
X113852380Y-115292976D01*
X113185714Y-115102500D01*
X113757142Y-114721547D02*
X113804761Y-114673928D01*
X113852380Y-114721547D01*
X113804761Y-114769166D01*
X113757142Y-114721547D01*
X113852380Y-114721547D01*
X113852380Y-114245357D02*
X113185714Y-114245357D01*
X113280952Y-114245357D02*
X113233333Y-114197738D01*
X113185714Y-114102500D01*
X113185714Y-113959642D01*
X113233333Y-113864404D01*
X113328571Y-113816785D01*
X113852380Y-113816785D01*
X113328571Y-113816785D02*
X113233333Y-113769166D01*
X113185714Y-113673928D01*
X113185714Y-113531071D01*
X113233333Y-113435833D01*
X113328571Y-113388214D01*
X113852380Y-113388214D01*
X113804761Y-112531071D02*
X113852380Y-112626309D01*
X113852380Y-112816785D01*
X113804761Y-112912023D01*
X113709523Y-112959642D01*
X113328571Y-112959642D01*
X113233333Y-112912023D01*
X113185714Y-112816785D01*
X113185714Y-112626309D01*
X113233333Y-112531071D01*
X113328571Y-112483452D01*
X113423809Y-112483452D01*
X113519047Y-112959642D01*
X113757142Y-112054880D02*
X113804761Y-112007261D01*
X113852380Y-112054880D01*
X113804761Y-112102500D01*
X113757142Y-112054880D01*
X113852380Y-112054880D01*
X113185714Y-111150119D02*
X113852380Y-111150119D01*
X113185714Y-111578690D02*
X113709523Y-111578690D01*
X113804761Y-111531071D01*
X113852380Y-111435833D01*
X113852380Y-111292976D01*
X113804761Y-111197738D01*
X113757142Y-111150119D01*
X113852380Y-110673928D02*
X112852380Y-110673928D01*
X113471428Y-110578690D02*
X113852380Y-110292976D01*
X113185714Y-110292976D02*
X113566666Y-110673928D01*
D11*
%TO.C,SW1*%
X118270000Y-119230000D02*
X124730000Y-119230000D01*
X118270000Y-114700000D02*
X118270000Y-117300000D01*
X118270000Y-112770000D02*
X124730000Y-112770000D01*
X124730000Y-114700000D02*
X124730000Y-117300000D01*
X118270000Y-112800000D02*
X118270000Y-112770000D01*
X118270000Y-119230000D02*
X118270000Y-119200000D01*
X124730000Y-119230000D02*
X124730000Y-119200000D01*
X124730000Y-112770000D02*
X124730000Y-112800000D01*
%TO.C,U4*%
X124060000Y-105700000D02*
G75*
G03*
X124060000Y-105700000I-50000J0D01*
G01*
X130310000Y-105700000D02*
G75*
G03*
X130310000Y-105700000I-50000J0D01*
G01*
X127190000Y-105320000D02*
G75*
G03*
X127190000Y-105320000I-50000J0D01*
G01*
X122810000Y-102150000D02*
G75*
G03*
X122810000Y-102150000I-50000J0D01*
G01*
X128810000Y-102150000D02*
G75*
G03*
X128810000Y-102150000I-50000J0D01*
G01*
%TO.C,L1*%
X128960000Y-102150000D02*
G75*
G03*
X128960000Y-102150000I-200000J0D01*
G01*
X128760000Y-102150000D02*
X128560000Y-102150000D01*
%TO.C,D5*%
X127340000Y-105320000D02*
G75*
G03*
X127340000Y-105320000I-200000J0D01*
G01*
X127140000Y-105320000D02*
X127140000Y-105120000D01*
%TO.C,C8*%
X130460000Y-105700000D02*
G75*
G03*
X130460000Y-105700000I-200000J0D01*
G01*
X130260000Y-105700000D02*
X130060000Y-105700000D01*
%TO.C,C7*%
X124210000Y-105700000D02*
G75*
G03*
X124210000Y-105700000I-200000J0D01*
G01*
X124010000Y-105700000D02*
X123810000Y-105700000D01*
%TO.C,C6*%
X122960000Y-102150000D02*
G75*
G03*
X122960000Y-102150000I-200000J0D01*
G01*
X122760000Y-102150000D02*
X122960000Y-102150000D01*
%TO.C,R9*%
X113959420Y-103490000D02*
X114240580Y-103490000D01*
X113959420Y-104510000D02*
X114240580Y-104510000D01*
%TO.C,R8*%
X113959420Y-101090000D02*
X114240580Y-101090000D01*
X113959420Y-102110000D02*
X114240580Y-102110000D01*
%TO.C,U2*%
X119285000Y-106290000D02*
X120010000Y-106290000D01*
X120010000Y-106290000D02*
X120010000Y-107015000D01*
X116515000Y-110510000D02*
X115790000Y-110510000D01*
X115790000Y-110510000D02*
X115790000Y-109785000D01*
X119285000Y-110510000D02*
X120010000Y-110510000D01*
X120010000Y-110510000D02*
X120010000Y-109785000D01*
X116382843Y-106600000D02*
G75*
G03*
X116382843Y-106600000I-282843J0D01*
G01*
%TO.C,C2*%
X116690000Y-102440580D02*
X116690000Y-102159420D01*
X117710000Y-102440580D02*
X117710000Y-102159420D01*
%TO.C,R10*%
X113959420Y-102290000D02*
X114240580Y-102290000D01*
X113959420Y-103310000D02*
X114240580Y-103310000D01*
%TO.C,U4*%
D12*
X124419047Y-99326190D02*
X124419047Y-99730952D01*
X124442857Y-99778571D01*
X124466666Y-99802380D01*
X124514285Y-99826190D01*
X124609523Y-99826190D01*
X124657142Y-99802380D01*
X124680952Y-99778571D01*
X124704761Y-99730952D01*
X124704761Y-99326190D01*
X125157142Y-99492857D02*
X125157142Y-99826190D01*
X125038095Y-99302380D02*
X124919047Y-99659523D01*
X125228571Y-99659523D01*
%TO.C,L1*%
D13*
X127416666Y-99826190D02*
X127178571Y-99826190D01*
X127178571Y-99326190D01*
X127845238Y-99826190D02*
X127559523Y-99826190D01*
X127702380Y-99826190D02*
X127702380Y-99326190D01*
X127654761Y-99397619D01*
X127607142Y-99445238D01*
X127559523Y-99469047D01*
%TO.C,D5*%
X126760952Y-106926190D02*
X126760952Y-106426190D01*
X126880000Y-106426190D01*
X126951428Y-106450000D01*
X126999047Y-106497619D01*
X127022857Y-106545238D01*
X127046666Y-106640476D01*
X127046666Y-106711904D01*
X127022857Y-106807142D01*
X126999047Y-106854761D01*
X126951428Y-106902380D01*
X126880000Y-106926190D01*
X126760952Y-106926190D01*
X127499047Y-106426190D02*
X127260952Y-106426190D01*
X127237142Y-106664285D01*
X127260952Y-106640476D01*
X127308571Y-106616666D01*
X127427619Y-106616666D01*
X127475238Y-106640476D01*
X127499047Y-106664285D01*
X127522857Y-106711904D01*
X127522857Y-106830952D01*
X127499047Y-106878571D01*
X127475238Y-106902380D01*
X127427619Y-106926190D01*
X127308571Y-106926190D01*
X127260952Y-106902380D01*
X127237142Y-106878571D01*
%TO.C,C8*%
X130216666Y-108278571D02*
X130192857Y-108302380D01*
X130121428Y-108326190D01*
X130073809Y-108326190D01*
X130002380Y-108302380D01*
X129954761Y-108254761D01*
X129930952Y-108207142D01*
X129907142Y-108111904D01*
X129907142Y-108040476D01*
X129930952Y-107945238D01*
X129954761Y-107897619D01*
X130002380Y-107850000D01*
X130073809Y-107826190D01*
X130121428Y-107826190D01*
X130192857Y-107850000D01*
X130216666Y-107873809D01*
X130502380Y-108040476D02*
X130454761Y-108016666D01*
X130430952Y-107992857D01*
X130407142Y-107945238D01*
X130407142Y-107921428D01*
X130430952Y-107873809D01*
X130454761Y-107850000D01*
X130502380Y-107826190D01*
X130597619Y-107826190D01*
X130645238Y-107850000D01*
X130669047Y-107873809D01*
X130692857Y-107921428D01*
X130692857Y-107945238D01*
X130669047Y-107992857D01*
X130645238Y-108016666D01*
X130597619Y-108040476D01*
X130502380Y-108040476D01*
X130454761Y-108064285D01*
X130430952Y-108088095D01*
X130407142Y-108135714D01*
X130407142Y-108230952D01*
X130430952Y-108278571D01*
X130454761Y-108302380D01*
X130502380Y-108326190D01*
X130597619Y-108326190D01*
X130645238Y-108302380D01*
X130669047Y-108278571D01*
X130692857Y-108230952D01*
X130692857Y-108135714D01*
X130669047Y-108088095D01*
X130645238Y-108064285D01*
X130597619Y-108040476D01*
%TO.C,C7*%
X122978571Y-105783333D02*
X123002380Y-105807142D01*
X123026190Y-105878571D01*
X123026190Y-105926190D01*
X123002380Y-105997619D01*
X122954761Y-106045238D01*
X122907142Y-106069047D01*
X122811904Y-106092857D01*
X122740476Y-106092857D01*
X122645238Y-106069047D01*
X122597619Y-106045238D01*
X122550000Y-105997619D01*
X122526190Y-105926190D01*
X122526190Y-105878571D01*
X122550000Y-105807142D01*
X122573809Y-105783333D01*
X122526190Y-105616666D02*
X122526190Y-105283333D01*
X123026190Y-105497619D01*
%TO.C,C6*%
X122716666Y-100678571D02*
X122692857Y-100702380D01*
X122621428Y-100726190D01*
X122573809Y-100726190D01*
X122502380Y-100702380D01*
X122454761Y-100654761D01*
X122430952Y-100607142D01*
X122407142Y-100511904D01*
X122407142Y-100440476D01*
X122430952Y-100345238D01*
X122454761Y-100297619D01*
X122502380Y-100250000D01*
X122573809Y-100226190D01*
X122621428Y-100226190D01*
X122692857Y-100250000D01*
X122716666Y-100273809D01*
X123145238Y-100226190D02*
X123050000Y-100226190D01*
X123002380Y-100250000D01*
X122978571Y-100273809D01*
X122930952Y-100345238D01*
X122907142Y-100440476D01*
X122907142Y-100630952D01*
X122930952Y-100678571D01*
X122954761Y-100702380D01*
X123002380Y-100726190D01*
X123097619Y-100726190D01*
X123145238Y-100702380D01*
X123169047Y-100678571D01*
X123192857Y-100630952D01*
X123192857Y-100511904D01*
X123169047Y-100464285D01*
X123145238Y-100440476D01*
X123097619Y-100416666D01*
X123002380Y-100416666D01*
X122954761Y-100440476D01*
X122930952Y-100464285D01*
X122907142Y-100511904D01*
%TO.C,D1*%
X116226190Y-100869047D02*
X115726190Y-100869047D01*
X115726190Y-100750000D01*
X115750000Y-100678571D01*
X115797619Y-100630952D01*
X115845238Y-100607142D01*
X115940476Y-100583333D01*
X116011904Y-100583333D01*
X116107142Y-100607142D01*
X116154761Y-100630952D01*
X116202380Y-100678571D01*
X116226190Y-100750000D01*
X116226190Y-100869047D01*
X116226190Y-100107142D02*
X116226190Y-100392857D01*
X116226190Y-100250000D02*
X115726190Y-100250000D01*
X115797619Y-100297619D01*
X115845238Y-100345238D01*
X115869047Y-100392857D01*
%TO.C,R9*%
X112726190Y-104383333D02*
X112488095Y-104550000D01*
X112726190Y-104669047D02*
X112226190Y-104669047D01*
X112226190Y-104478571D01*
X112250000Y-104430952D01*
X112273809Y-104407142D01*
X112321428Y-104383333D01*
X112392857Y-104383333D01*
X112440476Y-104407142D01*
X112464285Y-104430952D01*
X112488095Y-104478571D01*
X112488095Y-104669047D01*
X112726190Y-104145238D02*
X112726190Y-104050000D01*
X112702380Y-104002380D01*
X112678571Y-103978571D01*
X112607142Y-103930952D01*
X112511904Y-103907142D01*
X112321428Y-103907142D01*
X112273809Y-103930952D01*
X112250000Y-103954761D01*
X112226190Y-104002380D01*
X112226190Y-104097619D01*
X112250000Y-104145238D01*
X112273809Y-104169047D01*
X112321428Y-104192857D01*
X112440476Y-104192857D01*
X112488095Y-104169047D01*
X112511904Y-104145238D01*
X112535714Y-104097619D01*
X112535714Y-104002380D01*
X112511904Y-103954761D01*
X112488095Y-103930952D01*
X112440476Y-103907142D01*
%TO.C,R8*%
X112726190Y-101383333D02*
X112488095Y-101550000D01*
X112726190Y-101669047D02*
X112226190Y-101669047D01*
X112226190Y-101478571D01*
X112250000Y-101430952D01*
X112273809Y-101407142D01*
X112321428Y-101383333D01*
X112392857Y-101383333D01*
X112440476Y-101407142D01*
X112464285Y-101430952D01*
X112488095Y-101478571D01*
X112488095Y-101669047D01*
X112440476Y-101097619D02*
X112416666Y-101145238D01*
X112392857Y-101169047D01*
X112345238Y-101192857D01*
X112321428Y-101192857D01*
X112273809Y-101169047D01*
X112250000Y-101145238D01*
X112226190Y-101097619D01*
X112226190Y-101002380D01*
X112250000Y-100954761D01*
X112273809Y-100930952D01*
X112321428Y-100907142D01*
X112345238Y-100907142D01*
X112392857Y-100930952D01*
X112416666Y-100954761D01*
X112440476Y-101002380D01*
X112440476Y-101097619D01*
X112464285Y-101145238D01*
X112488095Y-101169047D01*
X112535714Y-101192857D01*
X112630952Y-101192857D01*
X112678571Y-101169047D01*
X112702380Y-101145238D01*
X112726190Y-101097619D01*
X112726190Y-101002380D01*
X112702380Y-100954761D01*
X112678571Y-100930952D01*
X112630952Y-100907142D01*
X112535714Y-100907142D01*
X112488095Y-100930952D01*
X112464285Y-100954761D01*
X112440476Y-101002380D01*
%TO.C,U2*%
X115619047Y-105326190D02*
X115619047Y-105730952D01*
X115642857Y-105778571D01*
X115666666Y-105802380D01*
X115714285Y-105826190D01*
X115809523Y-105826190D01*
X115857142Y-105802380D01*
X115880952Y-105778571D01*
X115904761Y-105730952D01*
X115904761Y-105326190D01*
X116119047Y-105373809D02*
X116142857Y-105350000D01*
X116190476Y-105326190D01*
X116309523Y-105326190D01*
X116357142Y-105350000D01*
X116380952Y-105373809D01*
X116404761Y-105421428D01*
X116404761Y-105469047D01*
X116380952Y-105540476D01*
X116095238Y-105826190D01*
X116404761Y-105826190D01*
%TO.C,C2*%
X118378571Y-102383333D02*
X118402380Y-102407142D01*
X118426190Y-102478571D01*
X118426190Y-102526190D01*
X118402380Y-102597619D01*
X118354761Y-102645238D01*
X118307142Y-102669047D01*
X118211904Y-102692857D01*
X118140476Y-102692857D01*
X118045238Y-102669047D01*
X117997619Y-102645238D01*
X117950000Y-102597619D01*
X117926190Y-102526190D01*
X117926190Y-102478571D01*
X117950000Y-102407142D01*
X117973809Y-102383333D01*
X117973809Y-102192857D02*
X117950000Y-102169047D01*
X117926190Y-102121428D01*
X117926190Y-102002380D01*
X117950000Y-101954761D01*
X117973809Y-101930952D01*
X118021428Y-101907142D01*
X118069047Y-101907142D01*
X118140476Y-101930952D01*
X118426190Y-102216666D01*
X118426190Y-101907142D01*
%TO.C,R10*%
X112726190Y-103121428D02*
X112488095Y-103288095D01*
X112726190Y-103407142D02*
X112226190Y-103407142D01*
X112226190Y-103216666D01*
X112250000Y-103169047D01*
X112273809Y-103145238D01*
X112321428Y-103121428D01*
X112392857Y-103121428D01*
X112440476Y-103145238D01*
X112464285Y-103169047D01*
X112488095Y-103216666D01*
X112488095Y-103407142D01*
X112726190Y-102645238D02*
X112726190Y-102930952D01*
X112726190Y-102788095D02*
X112226190Y-102788095D01*
X112297619Y-102835714D01*
X112345238Y-102883333D01*
X112369047Y-102930952D01*
X112226190Y-102335714D02*
X112226190Y-102288095D01*
X112250000Y-102240476D01*
X112273809Y-102216666D01*
X112321428Y-102192857D01*
X112416666Y-102169047D01*
X112535714Y-102169047D01*
X112630952Y-102192857D01*
X112678571Y-102216666D01*
X112702380Y-102240476D01*
X112726190Y-102288095D01*
X112726190Y-102335714D01*
X112702380Y-102383333D01*
X112678571Y-102407142D01*
X112630952Y-102430952D01*
X112535714Y-102454761D01*
X112416666Y-102454761D01*
X112321428Y-102430952D01*
X112273809Y-102407142D01*
X112250000Y-102383333D01*
X112226190Y-102335714D01*
%TD*%
M02*
