%TF.GenerationSoftware,KiCad,Pcbnew,(6.0.9-0)*%
%TF.CreationDate,2023-01-05T13:48:52+00:00*%
%TF.ProjectId,USBA,55534241-2e6b-4696-9361-645f70636258,1*%
%TF.SameCoordinates,Original*%
%TF.FileFunction,Drillmap*%
%TF.FilePolarity,Positive*%
%FSLAX45Y45*%
G04 Gerber Fmt 4.5, Leading zero omitted, Abs format (unit mm)*
G04 Created by KiCad (PCBNEW (6.0.9-0)) date 2023-01-05 13:48:52*
%MOMM*%
%LPD*%
G01*
G04 APERTURE LIST*
%ADD10C,0.100000*%
%ADD11C,0.200000*%
G04 APERTURE END LIST*
D10*
X12850000Y-11825000D02*
X12850000Y-10600000D01*
X11450000Y-11825000D02*
G75*
G03*
X11550000Y-11925000I100000J0D01*
G01*
X11450000Y-10600000D02*
X11450000Y-11825000D01*
X11490000Y-10560000D02*
G75*
G03*
X11450000Y-10600000I0J-40000D01*
G01*
X12750000Y-11925000D02*
G75*
G03*
X12850000Y-11825000I0J100000D01*
G01*
X12810000Y-10560000D02*
X11490000Y-10560000D01*
X12850000Y-10600000D02*
G75*
G03*
X12810000Y-10560000I-40000J0D01*
G01*
D11*
X11702619Y-13416476D02*
X11702619Y-13216476D01*
X11750238Y-13216476D01*
X11778809Y-13226000D01*
X11797857Y-13245048D01*
X11807381Y-13264095D01*
X11816905Y-13302190D01*
X11816905Y-13330762D01*
X11807381Y-13368857D01*
X11797857Y-13387905D01*
X11778809Y-13406952D01*
X11750238Y-13416476D01*
X11702619Y-13416476D01*
X11902619Y-13416476D02*
X11902619Y-13283143D01*
X11902619Y-13321238D02*
X11912143Y-13302190D01*
X11921667Y-13292667D01*
X11940714Y-13283143D01*
X11959762Y-13283143D01*
X12026428Y-13416476D02*
X12026428Y-13283143D01*
X12026428Y-13216476D02*
X12016905Y-13226000D01*
X12026428Y-13235524D01*
X12035952Y-13226000D01*
X12026428Y-13216476D01*
X12026428Y-13235524D01*
X12150238Y-13416476D02*
X12131190Y-13406952D01*
X12121667Y-13387905D01*
X12121667Y-13216476D01*
X12255000Y-13416476D02*
X12235952Y-13406952D01*
X12226428Y-13387905D01*
X12226428Y-13216476D01*
X12483571Y-13416476D02*
X12483571Y-13216476D01*
X12550238Y-13359333D01*
X12616905Y-13216476D01*
X12616905Y-13416476D01*
X12797857Y-13416476D02*
X12797857Y-13311714D01*
X12788333Y-13292667D01*
X12769286Y-13283143D01*
X12731190Y-13283143D01*
X12712143Y-13292667D01*
X12797857Y-13406952D02*
X12778809Y-13416476D01*
X12731190Y-13416476D01*
X12712143Y-13406952D01*
X12702619Y-13387905D01*
X12702619Y-13368857D01*
X12712143Y-13349809D01*
X12731190Y-13340286D01*
X12778809Y-13340286D01*
X12797857Y-13330762D01*
X12893095Y-13283143D02*
X12893095Y-13483143D01*
X12893095Y-13292667D02*
X12912143Y-13283143D01*
X12950238Y-13283143D01*
X12969286Y-13292667D01*
X12978809Y-13302190D01*
X12988333Y-13321238D01*
X12988333Y-13378381D01*
X12978809Y-13397428D01*
X12969286Y-13406952D01*
X12950238Y-13416476D01*
X12912143Y-13416476D01*
X12893095Y-13406952D01*
X13074048Y-13397428D02*
X13083571Y-13406952D01*
X13074048Y-13416476D01*
X13064524Y-13406952D01*
X13074048Y-13397428D01*
X13074048Y-13416476D01*
X13074048Y-13292667D02*
X13083571Y-13302190D01*
X13074048Y-13311714D01*
X13064524Y-13302190D01*
X13074048Y-13292667D01*
X13074048Y-13311714D01*
M02*
