%TF.GenerationSoftware,KiCad,Pcbnew,(6.0.10-0)*%
%TF.CreationDate,2023-01-05T15:54:43+00:00*%
%TF.ProjectId,USBA,55534241-2e6b-4696-9361-645f70636258,1*%
%TF.SameCoordinates,Original*%
%TF.FileFunction,Copper,L1,Top*%
%TF.FilePolarity,Positive*%
%FSLAX46Y46*%
G04 Gerber Fmt 4.6, Leading zero omitted, Abs format (unit mm)*
G04 Created by KiCad (PCBNEW (6.0.10-0)) date 2023-01-05 15:54:43*
%MOMM*%
%LPD*%
G01*
G04 APERTURE LIST*
G04 Aperture macros list*
%AMRoundRect*
0 Rectangle with rounded corners*
0 $1 Rounding radius*
0 $2 $3 $4 $5 $6 $7 $8 $9 X,Y pos of 4 corners*
0 Add a 4 corners polygon primitive as box body*
4,1,4,$2,$3,$4,$5,$6,$7,$8,$9,$2,$3,0*
0 Add four circle primitives for the rounded corners*
1,1,$1+$1,$2,$3*
1,1,$1+$1,$4,$5*
1,1,$1+$1,$6,$7*
1,1,$1+$1,$8,$9*
0 Add four rect primitives between the rounded corners*
20,1,$1+$1,$2,$3,$4,$5,0*
20,1,$1+$1,$4,$5,$6,$7,0*
20,1,$1+$1,$6,$7,$8,$9,0*
20,1,$1+$1,$8,$9,$2,$3,0*%
%AMOutline5P*
0 Free polygon, 5 corners , with rotation*
0 The origin of the aperture is its center*
0 number of corners: always 5*
0 $1 to $10 corner X, Y*
0 $11 Rotation angle, in degrees counterclockwise*
0 create outline with 5 corners*
4,1,5,$1,$2,$3,$4,$5,$6,$7,$8,$9,$10,$1,$2,$11*%
%AMOutline6P*
0 Free polygon, 6 corners , with rotation*
0 The origin of the aperture is its center*
0 number of corners: always 6*
0 $1 to $12 corner X, Y*
0 $13 Rotation angle, in degrees counterclockwise*
0 create outline with 6 corners*
4,1,6,$1,$2,$3,$4,$5,$6,$7,$8,$9,$10,$11,$12,$1,$2,$13*%
%AMOutline7P*
0 Free polygon, 7 corners , with rotation*
0 The origin of the aperture is its center*
0 number of corners: always 7*
0 $1 to $14 corner X, Y*
0 $15 Rotation angle, in degrees counterclockwise*
0 create outline with 7 corners*
4,1,7,$1,$2,$3,$4,$5,$6,$7,$8,$9,$10,$11,$12,$13,$14,$1,$2,$15*%
%AMOutline8P*
0 Free polygon, 8 corners , with rotation*
0 The origin of the aperture is its center*
0 number of corners: always 8*
0 $1 to $16 corner X, Y*
0 $17 Rotation angle, in degrees counterclockwise*
0 create outline with 8 corners*
4,1,8,$1,$2,$3,$4,$5,$6,$7,$8,$9,$10,$11,$12,$13,$14,$15,$16,$1,$2,$17*%
%AMFreePoly0*
4,1,43,1.102950,0.110584,1.224483,0.068057,1.333507,-0.000447,1.424553,-0.091493,1.493057,-0.200517,1.535584,-0.322050,1.550000,-0.450000,1.533253,-0.512500,1.487500,-0.558253,1.425000,-0.575000,1.362500,-0.558253,1.316747,-0.512500,1.300000,-0.450000,1.302546,-0.440498,1.287946,-0.348318,1.241208,-0.256589,1.168411,-0.183792,1.076682,-0.137054,0.984502,-0.122454,0.975000,-0.125000,
-0.975000,-0.125000,-0.984502,-0.122454,-1.076682,-0.137054,-1.168411,-0.183792,-1.241208,-0.256589,-1.287946,-0.348318,-1.302546,-0.440498,-1.300000,-0.450000,-1.316747,-0.512500,-1.362500,-0.558253,-1.425000,-0.575000,-1.487500,-0.558253,-1.533253,-0.512500,-1.550000,-0.450000,-1.535584,-0.322050,-1.493057,-0.200517,-1.424553,-0.091493,-1.333507,-0.000447,-1.224483,0.068057,-1.102950,0.110584,
-0.975000,0.125000,0.975000,0.125000,1.102950,0.110584,1.102950,0.110584,$1*%
%AMFreePoly1*
4,1,24,1.812500,0.558253,1.858253,0.512500,1.875000,0.450000,1.860584,0.322050,1.818057,0.200517,1.749553,0.091493,1.658507,0.000447,1.549483,-0.068057,1.427950,-0.110584,1.300000,-0.125000,-1.300000,-0.125000,-1.300000,0.125000,1.300000,0.125000,1.309502,0.122454,1.401682,0.137054,1.493411,0.183792,1.566208,0.256589,1.612946,0.348318,1.627546,0.440498,1.625000,0.450000,
1.641747,0.512500,1.687500,0.558253,1.750000,0.575000,1.812500,0.558253,1.812500,0.558253,$1*%
%AMFreePoly2*
4,1,37,1.095671,1.230970,1.176777,1.176777,1.230970,1.095671,1.250000,1.000000,1.234645,0.804672,1.188955,0.614144,1.114055,0.433095,1.011784,0.265974,0.884654,0.116888,0.735790,-0.010501,0.568848,-0.113064,0.387930,-0.188280,0.197482,-0.234302,0.002181,-0.249998,-0.093523,-0.231135,-0.174723,-0.177083,-0.229058,-0.096072,-0.248255,-0.000434,-0.229392,0.095270,-0.175340,0.176470,
-0.094329,0.230805,0.001309,0.250002,0.013523,0.247595,0.148154,0.261077,0.289312,0.304116,0.419377,0.373837,0.533361,0.467569,0.626893,0.581716,0.696388,0.711902,0.739180,0.853136,0.752428,0.987793,0.750000,1.000000,0.769030,1.095671,0.823223,1.176777,0.904329,1.230970,1.000000,1.250000,1.095671,1.230970,1.095671,1.230970,$1*%
%AMFreePoly3*
4,1,72,4.686553,7.086501,4.817859,7.046669,4.938871,6.981987,5.044939,6.894939,5.131987,6.788871,5.196669,6.667859,5.236501,6.536553,5.249950,6.400000,5.249950,1.600000,5.230924,1.504348,5.176741,1.423259,5.112450,1.380300,5.112450,0.249950,6.600000,0.249950,6.695652,0.230924,6.776741,0.176741,6.830924,0.095652,6.849950,0.000000,6.830924,-0.095652,6.776741,-0.176741,
6.695652,-0.230924,6.600000,-0.249950,0.000000,-0.249950,-0.095652,-0.230924,-0.176741,-0.176741,-0.230924,-0.095652,-0.249950,0.000000,-0.230924,0.095652,-0.176741,0.176741,-0.095652,0.230924,0.000000,0.249950,4.612550,0.249950,4.612550,1.600000,4.631576,1.695652,4.685759,1.776741,4.750050,1.819700,4.750050,6.400000,4.751438,6.406980,4.742631,6.462590,4.713862,6.519052,
4.669052,6.563862,4.612590,6.592631,4.556980,6.601438,4.550000,6.600050,1.550000,6.600050,1.543020,6.601438,1.487410,6.592631,1.430948,6.563862,1.386138,6.519052,1.357369,6.462590,1.348562,6.406980,1.349950,6.400000,1.349950,5.900000,1.330924,5.804348,1.276741,5.723259,1.195652,5.669076,1.100000,5.650050,1.004348,5.669076,0.923259,5.723259,0.869076,5.804348,
0.850050,5.900000,0.850050,6.400000,0.863499,6.536553,0.903331,6.667859,0.968013,6.788871,1.055061,6.894939,1.161129,6.981987,1.282141,7.046669,1.413447,7.086501,1.550000,7.099950,4.550000,7.099950,4.686553,7.086501,4.686553,7.086501,$1*%
G04 Aperture macros list end*
%TA.AperFunction,SMDPad,CuDef*%
%ADD10RoundRect,0.200000X-0.200000X-0.275000X0.200000X-0.275000X0.200000X0.275000X-0.200000X0.275000X0*%
%TD*%
%TA.AperFunction,SMDPad,CuDef*%
%ADD11R,0.850000X0.500000*%
%TD*%
%TA.AperFunction,SMDPad,CuDef*%
%ADD12R,1.000000X7.410000*%
%TD*%
%TA.AperFunction,SMDPad,CuDef*%
%ADD13R,1.000000X6.410000*%
%TD*%
%TA.AperFunction,SMDPad,CuDef*%
%ADD14RoundRect,0.200000X-0.275000X0.200000X-0.275000X-0.200000X0.275000X-0.200000X0.275000X0.200000X0*%
%TD*%
%TA.AperFunction,SMDPad,CuDef*%
%ADD15FreePoly0,90.000000*%
%TD*%
%TA.AperFunction,SMDPad,CuDef*%
%ADD16R,0.500000X2.000000*%
%TD*%
%TA.AperFunction,SMDPad,CuDef*%
%ADD17RoundRect,0.225000X0.225000X0.250000X-0.225000X0.250000X-0.225000X-0.250000X0.225000X-0.250000X0*%
%TD*%
%TA.AperFunction,SMDPad,CuDef*%
%ADD18R,3.700000X1.425000*%
%TD*%
%TA.AperFunction,SMDPad,CuDef*%
%ADD19RoundRect,0.249375X0.625625X-0.463125X0.625625X0.463125X-0.625625X0.463125X-0.625625X-0.463125X0*%
%TD*%
%TA.AperFunction,SMDPad,CuDef*%
%ADD20R,2.000000X0.500000*%
%TD*%
%TA.AperFunction,SMDPad,CuDef*%
%ADD21FreePoly1,90.000000*%
%TD*%
%TA.AperFunction,SMDPad,CuDef*%
%ADD22R,1.100000X0.600000*%
%TD*%
%TA.AperFunction,SMDPad,CuDef*%
%ADD23RoundRect,0.250000X-0.250000X-0.475000X0.250000X-0.475000X0.250000X0.475000X-0.250000X0.475000X0*%
%TD*%
%TA.AperFunction,SMDPad,CuDef*%
%ADD24FreePoly2,90.000000*%
%TD*%
%TA.AperFunction,SMDPad,CuDef*%
%ADD25FreePoly3,90.000000*%
%TD*%
%TA.AperFunction,SMDPad,CuDef*%
%ADD26R,4.000000X0.500000*%
%TD*%
%TA.AperFunction,SMDPad,CuDef*%
%ADD27RoundRect,0.200000X0.200000X0.275000X-0.200000X0.275000X-0.200000X-0.275000X0.200000X-0.275000X0*%
%TD*%
%TA.AperFunction,ComponentPad*%
%ADD28Outline5P,-0.850000X0.850000X0.850000X0.850000X0.850000X-0.850000X-0.340000X-0.850000X-0.850000X-0.340000X0.000000*%
%TD*%
%TA.AperFunction,ComponentPad*%
%ADD29O,1.700000X1.700000*%
%TD*%
%TA.AperFunction,ViaPad*%
%ADD30C,0.800000*%
%TD*%
%TA.AperFunction,Conductor*%
%ADD31C,0.500000*%
%TD*%
%TA.AperFunction,Conductor*%
%ADD32C,0.250000*%
%TD*%
%TA.AperFunction,Conductor*%
%ADD33C,0.300000*%
%TD*%
G04 APERTURE END LIST*
D10*
%TO.P,R3,1*%
%TO.N,Net-(D1-Pad4)*%
X115675000Y-109450000D03*
%TO.P,R3,2*%
%TO.N,B*%
X117325000Y-109450000D03*
%TD*%
D11*
%TO.P,D1,1,A*%
%TO.N,+3.3V*%
X117375000Y-107250000D03*
%TO.P,D1,2,RK*%
%TO.N,Net-(D1-Pad2)*%
X115625000Y-107250000D03*
%TO.P,D1,3,GK*%
%TO.N,Net-(D1-Pad3)*%
X115625000Y-106250000D03*
%TO.P,D1,4,BK*%
%TO.N,Net-(D1-Pad4)*%
X117375000Y-106250000D03*
%TD*%
D10*
%TO.P,R1,1*%
%TO.N,Net-(D1-Pad2)*%
X115675000Y-108250000D03*
%TO.P,R1,2*%
%TO.N,R*%
X117325000Y-108250000D03*
%TD*%
%TO.P,R2,1*%
%TO.N,Net-(D1-Pad3)*%
X115675000Y-110650000D03*
%TO.P,R2,2*%
%TO.N,G*%
X117325000Y-110650000D03*
%TD*%
D12*
%TO.P,J1,1,VBUS*%
%TO.N,VBUS*%
X125000000Y-126050000D03*
D13*
%TO.P,J1,2,D-*%
%TO.N,unconnected-(J1-Pad2)*%
X122500000Y-125550000D03*
%TO.P,J1,3,D+*%
%TO.N,unconnected-(J1-Pad3)*%
X120500000Y-125550000D03*
D12*
%TO.P,J1,4,GND*%
%TO.N,GND*%
X118000000Y-126050000D03*
%TD*%
D14*
%TO.P,C4,1*%
%TO.N,+3.3V*%
X119400000Y-106925000D03*
%TO.P,C4,2*%
%TO.N,GND*%
X119400000Y-108475000D03*
%TD*%
D10*
%TO.P,R5,1*%
%TO.N,GND*%
X118775000Y-113250000D03*
%TO.P,R5,2*%
%TO.N,Net-(R4-Pad2)*%
X120425000Y-113250000D03*
%TD*%
D15*
%TO.P,U2,*%
%TO.N,*%
X123650000Y-112825000D03*
D16*
X124550000Y-110450000D03*
D17*
X124225000Y-114450000D03*
D18*
X123250000Y-109950000D03*
D19*
X126370000Y-111552500D03*
D17*
X122675000Y-114450000D03*
D20*
X125500000Y-111400000D03*
D21*
X122750000Y-113150000D03*
D22*
X121850000Y-111400000D03*
X124550000Y-111400000D03*
%TO.P,U2,1,SHDN*%
%TO.N,VBUS*%
X124550000Y-113300000D03*
%TO.P,U2,2,VIN*%
X124550000Y-112350000D03*
D23*
X125800000Y-113200000D03*
D24*
X125750000Y-113410000D03*
D25*
%TO.P,U2,3,GND*%
%TO.N,GND*%
X127700000Y-113450000D03*
D23*
X127700000Y-106950000D03*
D22*
X121850000Y-112350000D03*
D19*
X126370000Y-108587500D03*
D23*
X127700000Y-113200000D03*
%TO.P,U2,4,VOUT*%
%TO.N,+3.3V*%
X125800000Y-106950000D03*
D18*
X123250000Y-106950000D03*
D26*
X124000000Y-106950000D03*
D22*
%TO.P,U2,5,FB*%
%TO.N,Net-(R4-Pad2)*%
X121850000Y-113300000D03*
%TD*%
D10*
%TO.P,R4,1*%
%TO.N,+3.3V*%
X118775000Y-114600000D03*
%TO.P,R4,2*%
%TO.N,Net-(R4-Pad2)*%
X120425000Y-114600000D03*
%TD*%
D27*
%TO.P,C5,1*%
%TO.N,GND*%
X127425000Y-115800000D03*
%TO.P,C5,2*%
%TO.N,EN*%
X125875000Y-115800000D03*
%TD*%
D10*
%TO.P,R6,1*%
%TO.N,+3.3V*%
X122625000Y-115800000D03*
%TO.P,R6,2*%
%TO.N,EN*%
X124275000Y-115800000D03*
%TD*%
D28*
%TO.P,J2,1,GND*%
%TO.N,GND*%
X126580000Y-117900000D03*
D29*
%TO.P,J2,2,0*%
%TO.N,GPIO0*%
X124040000Y-117900000D03*
%TO.P,J2,3,3V3*%
%TO.N,+3.3V*%
X121500000Y-117900000D03*
%TO.P,J2,4,Rx*%
%TO.N,I*%
X118960000Y-117900000D03*
%TO.P,J2,5,Tx*%
%TO.N,O*%
X116420000Y-117900000D03*
%TD*%
D30*
%TO.N,GND*%
X121600000Y-115100000D03*
X119400000Y-110200000D03*
X117925000Y-119075000D03*
X115200000Y-117000000D03*
%TO.N,O*%
X116700000Y-113700000D03*
%TO.N,I*%
X116700000Y-112600000D03*
%TO.N,EN*%
X125800000Y-114524500D03*
%TO.N,GPIO0*%
X117503127Y-115100782D03*
%TO.N,R*%
X118100000Y-108300000D03*
%TO.N,G*%
X118100000Y-110700000D03*
%TO.N,B*%
X118100000Y-109500000D03*
%TO.N,+3.3V*%
X119465165Y-115123699D03*
%TD*%
D31*
%TO.N,GND*%
X118000000Y-119150000D02*
X117925000Y-119075000D01*
X118000000Y-126050000D02*
X118000000Y-119150000D01*
X127700000Y-113200000D02*
X127700000Y-116780000D01*
D32*
X115200000Y-117000000D02*
X115200000Y-112500000D01*
X119400000Y-110200000D02*
X119400000Y-108475000D01*
X119400000Y-111000000D02*
X119400000Y-110200000D01*
X116000000Y-111700000D02*
X118700000Y-111700000D01*
X116000000Y-111700000D02*
G75*
G03*
X115200000Y-112500000I0J-800000D01*
G01*
D31*
X126580000Y-117900000D02*
G75*
G03*
X127700000Y-116780000I0J1120000D01*
G01*
D32*
X119400000Y-111000000D02*
G75*
G02*
X118700000Y-111700000I-700000J0D01*
G01*
D33*
%TO.N,VBUS*%
X126625000Y-116125000D02*
X126625000Y-114025000D01*
X125300000Y-118407767D02*
X125300000Y-117150000D01*
X125000000Y-126050000D02*
X125000000Y-118707767D01*
D32*
X124550000Y-113300000D02*
X124550000Y-112350000D01*
D33*
X125800000Y-116650000D02*
X126100000Y-116650000D01*
X125000000Y-118707767D02*
X125300000Y-118407767D01*
X125800000Y-116650000D02*
G75*
G03*
X125300000Y-117150000I0J-500000D01*
G01*
X126625000Y-116125000D02*
G75*
G02*
X126100000Y-116650000I-525000J0D01*
G01*
X125800000Y-113200000D02*
G75*
G02*
X126625000Y-114025000I0J-825000D01*
G01*
D32*
%TO.N,O*%
X116200000Y-117368874D02*
X116200000Y-114907106D01*
X116699998Y-113699998D02*
G75*
G03*
X116200000Y-114907106I1207102J-1207102D01*
G01*
%TO.N,I*%
X116987701Y-114587701D02*
X117137701Y-114437701D01*
X116775500Y-115424500D02*
X116775500Y-115099999D01*
X118960000Y-117900000D02*
X116981268Y-115921268D01*
X117424500Y-113745307D02*
X117424500Y-113324500D01*
X117424502Y-113745307D02*
G75*
G02*
X117137700Y-114437700I-979202J7D01*
G01*
X116700000Y-112600000D02*
G75*
G02*
X117424500Y-113324500I0J-724500D01*
G01*
X116987701Y-114587701D02*
G75*
G03*
X116775500Y-115099999I512299J-512299D01*
G01*
X116775490Y-115424500D02*
G75*
G03*
X116981268Y-115921268I702510J0D01*
G01*
%TO.N,EN*%
X125875000Y-115800000D02*
X124275000Y-115800000D01*
X125800000Y-114524500D02*
X125800000Y-115725000D01*
X125875000Y-115800000D02*
G75*
G02*
X125800000Y-115725000I0J75000D01*
G01*
%TO.N,GPIO0*%
X117533712Y-115131367D02*
X117503127Y-115100782D01*
X118049178Y-115327477D02*
X119827334Y-117105634D01*
X122865000Y-119075000D02*
X121013300Y-119075000D01*
X120169150Y-118230850D02*
X120169150Y-117930850D01*
X117726082Y-115131367D02*
X117533712Y-115131367D01*
X120169100Y-118230850D02*
G75*
G03*
X121013300Y-119075000I844200J50D01*
G01*
X119827363Y-117105605D02*
G75*
G02*
X120169150Y-117930850I-825263J-825195D01*
G01*
X122865000Y-119075000D02*
G75*
G03*
X124040000Y-117900000I0J1175000D01*
G01*
X117726077Y-115131383D02*
G75*
G02*
X118049177Y-115327478I-249677J-775617D01*
G01*
%TO.N,Net-(D1-Pad2)*%
X115625000Y-107250000D02*
X115625000Y-108200000D01*
%TO.N,Net-(D1-Pad3)*%
X114875000Y-109867462D02*
X114875000Y-106825000D01*
X115450000Y-106250000D02*
G75*
G03*
X114875000Y-106825000I0J-575000D01*
G01*
X114875000Y-109867462D02*
G75*
G03*
X115657538Y-110650000I782500J-38D01*
G01*
%TO.N,R*%
X118100000Y-108300000D02*
X117225000Y-108300000D01*
%TO.N,G*%
X118100000Y-110700000D02*
X117225000Y-110700000D01*
%TO.N,B*%
X118100000Y-109500000D02*
X117225000Y-109500000D01*
%TO.N,Net-(D1-Pad4)*%
X116500000Y-106950000D02*
X116500000Y-108650000D01*
X115700000Y-109450000D02*
G75*
G03*
X116500000Y-108650000I0J800000D01*
G01*
X116500000Y-106950000D02*
G75*
G02*
X117200000Y-106250000I700000J0D01*
G01*
%TO.N,Net-(R4-Pad2)*%
X120425000Y-113300000D02*
X121850000Y-113300000D01*
X120425000Y-113300000D02*
X120425000Y-114600000D01*
%TO.N,+3.3V*%
X119400000Y-106925000D02*
X120225000Y-106925000D01*
X120200000Y-111400000D02*
X120200000Y-106950000D01*
X119180990Y-115005990D02*
X118775000Y-114600000D01*
X120225000Y-106925000D02*
X123225000Y-106925000D01*
X119465165Y-115123699D02*
X120975704Y-116634238D01*
X119025000Y-107300000D02*
X117275000Y-107300000D01*
X122625000Y-115800000D02*
X122625000Y-116775000D01*
X119700000Y-112400000D02*
X119846446Y-112253554D01*
X119500000Y-115088864D02*
X119500000Y-112882842D01*
X119181004Y-115005976D02*
G75*
G03*
X119465165Y-115123699I284196J284176D01*
G01*
X120225000Y-106925000D02*
G75*
G03*
X120200000Y-106950000I0J-25000D01*
G01*
X119465165Y-115123700D02*
G75*
G03*
X119500000Y-115088864I35J34800D01*
G01*
X120200001Y-111400000D02*
G75*
G02*
X119846445Y-112253553I-1207101J0D01*
G01*
X121499987Y-117900000D02*
G75*
G03*
X120975704Y-116634238I-1790087J0D01*
G01*
X119025000Y-107300000D02*
G75*
G03*
X119400000Y-106925000I0J375000D01*
G01*
X119699987Y-112399987D02*
G75*
G03*
X119500000Y-112882842I482813J-482813D01*
G01*
X121500000Y-117900000D02*
G75*
G03*
X122625000Y-116775000I0J1125000D01*
G01*
%TD*%
%TA.AperFunction,Conductor*%
%TO.N,GND*%
G36*
X116784012Y-116255503D02*
G01*
X116790595Y-116261632D01*
X117901013Y-117372051D01*
X117935039Y-117434363D01*
X117932251Y-117498509D01*
X117904370Y-117588304D01*
X117878937Y-117670213D01*
X117855164Y-117871069D01*
X117868392Y-118072894D01*
X117869815Y-118078496D01*
X117907105Y-118225326D01*
X117918178Y-118268928D01*
X118002856Y-118452607D01*
X118006188Y-118457322D01*
X118006189Y-118457323D01*
X118101268Y-118591857D01*
X118119588Y-118617780D01*
X118123730Y-118621815D01*
X118173319Y-118670122D01*
X118264466Y-118758913D01*
X118432637Y-118871282D01*
X118437940Y-118873560D01*
X118437943Y-118873562D01*
X118499987Y-118900218D01*
X118618470Y-118951122D01*
X118624104Y-118952397D01*
X118629549Y-118954166D01*
X118688156Y-118994238D01*
X118715794Y-119059634D01*
X118703689Y-119129591D01*
X118655685Y-119181899D01*
X118590616Y-119200000D01*
X116777400Y-119200000D01*
X116709279Y-119179998D01*
X116662786Y-119126342D01*
X116652682Y-119056068D01*
X116682176Y-118991488D01*
X116736898Y-118954687D01*
X116864067Y-118911519D01*
X116864069Y-118911518D01*
X116869531Y-118909664D01*
X116997701Y-118837886D01*
X117040964Y-118813658D01*
X117040965Y-118813657D01*
X117046001Y-118810837D01*
X117108433Y-118758913D01*
X117197073Y-118685191D01*
X117201505Y-118681505D01*
X117299004Y-118564276D01*
X117327146Y-118530439D01*
X117330837Y-118526001D01*
X117429664Y-118349531D01*
X117457849Y-118266503D01*
X117492820Y-118163481D01*
X117492820Y-118163479D01*
X117494678Y-118158007D01*
X117495507Y-118152291D01*
X117495508Y-118152286D01*
X117523167Y-117961516D01*
X117523700Y-117957842D01*
X117525215Y-117900000D01*
X117506708Y-117698591D01*
X117490631Y-117641584D01*
X117453376Y-117509490D01*
X117451807Y-117503926D01*
X117362351Y-117322527D01*
X117355174Y-117312915D01*
X117244788Y-117165091D01*
X117244787Y-117165090D01*
X117241335Y-117160467D01*
X117237099Y-117156551D01*
X117097053Y-117027094D01*
X117097051Y-117027092D01*
X117092812Y-117023174D01*
X117063886Y-117004923D01*
X116926637Y-116918325D01*
X116921757Y-116915246D01*
X116733898Y-116840298D01*
X116728233Y-116839171D01*
X116728229Y-116839170D01*
X116676919Y-116828964D01*
X116614009Y-116796057D01*
X116578877Y-116734362D01*
X116575500Y-116705385D01*
X116575500Y-116350727D01*
X116595502Y-116282606D01*
X116649158Y-116236113D01*
X116719432Y-116226009D01*
X116784012Y-116255503D01*
G37*
%TD.AperFunction*%
%TA.AperFunction,Conductor*%
G36*
X119596121Y-108241002D02*
G01*
X119642614Y-108294658D01*
X119654000Y-108347000D01*
X119654000Y-109364884D01*
X119658475Y-109380123D01*
X119659865Y-109381328D01*
X119667548Y-109382999D01*
X119698500Y-109382999D01*
X119766621Y-109403001D01*
X119813114Y-109456657D01*
X119824500Y-109508999D01*
X119824500Y-111360527D01*
X119822949Y-111380237D01*
X119819819Y-111400000D01*
X119821370Y-111409792D01*
X119821370Y-111419712D01*
X119821190Y-111419712D01*
X119821776Y-111434616D01*
X119815039Y-111520208D01*
X119811947Y-111539735D01*
X119786114Y-111647339D01*
X119780006Y-111666138D01*
X119737654Y-111768384D01*
X119728680Y-111785995D01*
X119670856Y-111880354D01*
X119659240Y-111896343D01*
X119603472Y-111961638D01*
X119592526Y-111971758D01*
X119592652Y-111971884D01*
X119585639Y-111978897D01*
X119577619Y-111984724D01*
X119571792Y-111992744D01*
X119565856Y-112000914D01*
X119553016Y-112015947D01*
X119462398Y-112106565D01*
X119447364Y-112119406D01*
X119431171Y-112131171D01*
X119423676Y-112141488D01*
X119417576Y-112149225D01*
X119323963Y-112258834D01*
X119323963Y-112258835D01*
X119322814Y-112257854D01*
X119271919Y-112297104D01*
X119201183Y-112303184D01*
X119188520Y-112299926D01*
X119111356Y-112275744D01*
X119098306Y-112273131D01*
X119043414Y-112268087D01*
X119031876Y-112271475D01*
X119030671Y-112272865D01*
X119029000Y-112280548D01*
X119029000Y-113378000D01*
X119008998Y-113446121D01*
X118955342Y-113492614D01*
X118903000Y-113504000D01*
X118647000Y-113504000D01*
X118578879Y-113483998D01*
X118532386Y-113430342D01*
X118521000Y-113378000D01*
X118521000Y-112285116D01*
X118516525Y-112269877D01*
X118515135Y-112268672D01*
X118510706Y-112267709D01*
X118451685Y-112273132D01*
X118438649Y-112275743D01*
X118288757Y-112322715D01*
X118275012Y-112328921D01*
X118141426Y-112409824D01*
X118129557Y-112419131D01*
X118019131Y-112529557D01*
X118009824Y-112541426D01*
X117928921Y-112675012D01*
X117922715Y-112688757D01*
X117897088Y-112770535D01*
X117857631Y-112829557D01*
X117792527Y-112857877D01*
X117722448Y-112846504D01*
X117669642Y-112799049D01*
X117662660Y-112786108D01*
X117658594Y-112777388D01*
X117658591Y-112777383D01*
X117656267Y-112772399D01*
X117617326Y-112716785D01*
X117549027Y-112619244D01*
X117549025Y-112619241D01*
X117545868Y-112614733D01*
X117409767Y-112478632D01*
X117405256Y-112475473D01*
X117359757Y-112443614D01*
X117314162Y-112384939D01*
X117283394Y-112303514D01*
X117283393Y-112303511D01*
X117280710Y-112296412D01*
X117191531Y-112166657D01*
X117131959Y-112113580D01*
X117079648Y-112066972D01*
X117079645Y-112066970D01*
X117073976Y-112061919D01*
X116934831Y-111988245D01*
X116869193Y-111971758D01*
X116789498Y-111951740D01*
X116789496Y-111951740D01*
X116782128Y-111949889D01*
X116774530Y-111949849D01*
X116774528Y-111949849D01*
X116707319Y-111949497D01*
X116624684Y-111949065D01*
X116617305Y-111950837D01*
X116617301Y-111950837D01*
X116478967Y-111984048D01*
X116478963Y-111984049D01*
X116471588Y-111985820D01*
X116331679Y-112058032D01*
X116325957Y-112063024D01*
X116325955Y-112063025D01*
X116218759Y-112156538D01*
X116218756Y-112156541D01*
X116213034Y-112161533D01*
X116208667Y-112167747D01*
X116129389Y-112280548D01*
X116122501Y-112290348D01*
X116065309Y-112437039D01*
X116064318Y-112444568D01*
X116047786Y-112570139D01*
X116044758Y-112593138D01*
X116062035Y-112749633D01*
X116116143Y-112897490D01*
X116120380Y-112903796D01*
X116120382Y-112903799D01*
X116160709Y-112963811D01*
X116203958Y-113028172D01*
X116209573Y-113033281D01*
X116209578Y-113033287D01*
X116234736Y-113056179D01*
X116271658Y-113116819D01*
X116269935Y-113187795D01*
X116232765Y-113244321D01*
X116213034Y-113261533D01*
X116122501Y-113390348D01*
X116065309Y-113537039D01*
X116064318Y-113544568D01*
X116046721Y-113678231D01*
X116044758Y-113693138D01*
X116062035Y-113849633D01*
X116064645Y-113856766D01*
X116066380Y-113864163D01*
X116063160Y-113864918D01*
X116066853Y-113920862D01*
X116054159Y-113954352D01*
X116037938Y-113983703D01*
X116027785Y-114002073D01*
X115938270Y-114218181D01*
X115873515Y-114442953D01*
X115868654Y-114471563D01*
X115835520Y-114666584D01*
X115834334Y-114673562D01*
X115829781Y-114754640D01*
X115824850Y-114842455D01*
X115824780Y-114843433D01*
X115824737Y-114844436D01*
X115824500Y-114847161D01*
X115824500Y-114847434D01*
X115824083Y-114848656D01*
X115824500Y-114848679D01*
X115822345Y-114887055D01*
X115821370Y-114896169D01*
X115821370Y-114897314D01*
X115819819Y-114907107D01*
X115821370Y-114916900D01*
X115822949Y-114926869D01*
X115824500Y-114946580D01*
X115824500Y-116902988D01*
X115804498Y-116971109D01*
X115773350Y-117004090D01*
X115770371Y-117005862D01*
X115766027Y-117009671D01*
X115766025Y-117009673D01*
X115715894Y-117053637D01*
X115618305Y-117139220D01*
X115493089Y-117298057D01*
X115398914Y-117477053D01*
X115338937Y-117670213D01*
X115315164Y-117871069D01*
X115328392Y-118072894D01*
X115329815Y-118078496D01*
X115367105Y-118225326D01*
X115378178Y-118268928D01*
X115462856Y-118452607D01*
X115466188Y-118457322D01*
X115466189Y-118457323D01*
X115561268Y-118591857D01*
X115579588Y-118617780D01*
X115583730Y-118621815D01*
X115633319Y-118670122D01*
X115724466Y-118758913D01*
X115748988Y-118775298D01*
X115794514Y-118829775D01*
X115803361Y-118900218D01*
X115772720Y-118964262D01*
X115712318Y-119001573D01*
X115671072Y-119005813D01*
X115503368Y-118995262D01*
X115500000Y-118994592D01*
X115487829Y-118997013D01*
X115480931Y-118997013D01*
X115468582Y-118996406D01*
X115439972Y-118993588D01*
X115366129Y-118986315D01*
X115341907Y-118981497D01*
X115225049Y-118946049D01*
X115202241Y-118936602D01*
X115094542Y-118879035D01*
X115074008Y-118865314D01*
X114979617Y-118787850D01*
X114962150Y-118770383D01*
X114884686Y-118675992D01*
X114870964Y-118655456D01*
X114855135Y-118625842D01*
X114813398Y-118547759D01*
X114803951Y-118524951D01*
X114768503Y-118408093D01*
X114763685Y-118383871D01*
X114753593Y-118281410D01*
X114752986Y-118269056D01*
X114752986Y-118262174D01*
X114755408Y-118250000D01*
X114752987Y-118237829D01*
X114752987Y-118237826D01*
X114752921Y-118237496D01*
X114750500Y-118212915D01*
X114750500Y-110888112D01*
X114770502Y-110819991D01*
X114824158Y-110773498D01*
X114894432Y-110763394D01*
X114948769Y-110784898D01*
X114970769Y-110800302D01*
X115015098Y-110855758D01*
X115024500Y-110903516D01*
X115024500Y-110978834D01*
X115027481Y-111010369D01*
X115072366Y-111138184D01*
X115077958Y-111145754D01*
X115077959Y-111145757D01*
X115085966Y-111156597D01*
X115152850Y-111247150D01*
X115160421Y-111252742D01*
X115254243Y-111322041D01*
X115254246Y-111322042D01*
X115261816Y-111327634D01*
X115389631Y-111372519D01*
X115397277Y-111373242D01*
X115397278Y-111373242D01*
X115403248Y-111373806D01*
X115421166Y-111375500D01*
X115928834Y-111375500D01*
X115946752Y-111373806D01*
X115952722Y-111373242D01*
X115952723Y-111373242D01*
X115960369Y-111372519D01*
X116088184Y-111327634D01*
X116095754Y-111322042D01*
X116095757Y-111322041D01*
X116189579Y-111252742D01*
X116197150Y-111247150D01*
X116264034Y-111156597D01*
X116272041Y-111145757D01*
X116272042Y-111145754D01*
X116277634Y-111138184D01*
X116322519Y-111010369D01*
X116325500Y-110978834D01*
X116325500Y-110321166D01*
X116322519Y-110289631D01*
X116277634Y-110161816D01*
X116272038Y-110154239D01*
X116250338Y-110124859D01*
X116225955Y-110058181D01*
X116241492Y-109988905D01*
X116250338Y-109975141D01*
X116272038Y-109945761D01*
X116272039Y-109945759D01*
X116277634Y-109938184D01*
X116322519Y-109810369D01*
X116325500Y-109778834D01*
X116325500Y-109715916D01*
X116345502Y-109647795D01*
X116385662Y-109608485D01*
X116388861Y-109606525D01*
X116388868Y-109606520D01*
X116393078Y-109603940D01*
X116466670Y-109541087D01*
X116531459Y-109512056D01*
X116601659Y-109522661D01*
X116654981Y-109569536D01*
X116674500Y-109636898D01*
X116674500Y-109778834D01*
X116677481Y-109810369D01*
X116722366Y-109938184D01*
X116727961Y-109945759D01*
X116727962Y-109945761D01*
X116749662Y-109975141D01*
X116774045Y-110041819D01*
X116758508Y-110111095D01*
X116749662Y-110124859D01*
X116727962Y-110154239D01*
X116722366Y-110161816D01*
X116677481Y-110289631D01*
X116674500Y-110321166D01*
X116674500Y-110978834D01*
X116677481Y-111010369D01*
X116722366Y-111138184D01*
X116727958Y-111145754D01*
X116727959Y-111145757D01*
X116735966Y-111156597D01*
X116802850Y-111247150D01*
X116810421Y-111252742D01*
X116904243Y-111322041D01*
X116904246Y-111322042D01*
X116911816Y-111327634D01*
X117039631Y-111372519D01*
X117047277Y-111373242D01*
X117047278Y-111373242D01*
X117053248Y-111373806D01*
X117071166Y-111375500D01*
X117578834Y-111375500D01*
X117596752Y-111373806D01*
X117602722Y-111373242D01*
X117602723Y-111373242D01*
X117610369Y-111372519D01*
X117738184Y-111327634D01*
X117745758Y-111322040D01*
X117754085Y-111317631D01*
X117755463Y-111320233D01*
X117807765Y-111301106D01*
X117858432Y-111309075D01*
X117858776Y-111309262D01*
X117866122Y-111311189D01*
X117866124Y-111311190D01*
X118003719Y-111347287D01*
X118003721Y-111347287D01*
X118011069Y-111349215D01*
X118094380Y-111350524D01*
X118160898Y-111351569D01*
X118160901Y-111351569D01*
X118168495Y-111351688D01*
X118321968Y-111316538D01*
X118462625Y-111245795D01*
X118567063Y-111156597D01*
X118576574Y-111148474D01*
X118576576Y-111148471D01*
X118582348Y-111143542D01*
X118674224Y-111015683D01*
X118732950Y-110869598D01*
X118740010Y-110819991D01*
X118754553Y-110717807D01*
X118754553Y-110717804D01*
X118755134Y-110713723D01*
X118755278Y-110700000D01*
X118736363Y-110543694D01*
X118680710Y-110396412D01*
X118591531Y-110266657D01*
X118509717Y-110193763D01*
X118472161Y-110133513D01*
X118473142Y-110062523D01*
X118511706Y-110003876D01*
X118576574Y-109948474D01*
X118576576Y-109948471D01*
X118582348Y-109943542D01*
X118674224Y-109815683D01*
X118677244Y-109808172D01*
X118699935Y-109751726D01*
X118732950Y-109669598D01*
X118741648Y-109608485D01*
X118754553Y-109517807D01*
X118754553Y-109517804D01*
X118755134Y-109513723D01*
X118755278Y-109500000D01*
X118753706Y-109487010D01*
X118765379Y-109416980D01*
X118813060Y-109364378D01*
X118881611Y-109345905D01*
X118916471Y-109351638D01*
X118988650Y-109374257D01*
X119001694Y-109376869D01*
X119065521Y-109382734D01*
X119071309Y-109383000D01*
X119127885Y-109383000D01*
X119143124Y-109378525D01*
X119144329Y-109377135D01*
X119146000Y-109369452D01*
X119146000Y-108347000D01*
X119166002Y-108278879D01*
X119219658Y-108232386D01*
X119272000Y-108221000D01*
X119528000Y-108221000D01*
X119596121Y-108241002D01*
G37*
%TD.AperFunction*%
%TA.AperFunction,Conductor*%
G36*
X128194422Y-116644018D02*
G01*
X128239468Y-116698894D01*
X128249500Y-116748162D01*
X128249500Y-118212915D01*
X128247079Y-118237496D01*
X128247013Y-118237826D01*
X128247013Y-118237829D01*
X128244592Y-118250000D01*
X128247014Y-118262174D01*
X128247014Y-118269056D01*
X128246407Y-118281410D01*
X128236315Y-118383871D01*
X128231497Y-118408093D01*
X128196049Y-118524951D01*
X128186599Y-118547764D01*
X128179254Y-118561505D01*
X128175121Y-118569237D01*
X128125368Y-118619884D01*
X128056131Y-118635593D01*
X127989392Y-118611376D01*
X127946341Y-118554921D01*
X127938000Y-118509839D01*
X127938000Y-118172115D01*
X127933525Y-118156876D01*
X127932135Y-118155671D01*
X127924452Y-118154000D01*
X126452000Y-118154000D01*
X126383879Y-118133998D01*
X126337386Y-118080342D01*
X126326000Y-118028000D01*
X126326000Y-117772000D01*
X126346002Y-117703879D01*
X126399658Y-117657386D01*
X126452000Y-117646000D01*
X127919884Y-117646000D01*
X127935123Y-117641525D01*
X127936328Y-117640135D01*
X127937999Y-117632452D01*
X127937999Y-117005331D01*
X127937629Y-116998510D01*
X127932105Y-116947648D01*
X127928479Y-116932397D01*
X127899959Y-116856320D01*
X127894776Y-116785513D01*
X127928697Y-116723144D01*
X127952670Y-116704314D01*
X128058229Y-116640386D01*
X128126859Y-116622207D01*
X128194422Y-116644018D01*
G37*
%TD.AperFunction*%
%TA.AperFunction,Conductor*%
G36*
X121166662Y-113752045D02*
G01*
X121221769Y-113788867D01*
X121233938Y-113791288D01*
X121233939Y-113791288D01*
X121274184Y-113799293D01*
X121280252Y-113800500D01*
X121970392Y-113800500D01*
X122038513Y-113820502D01*
X122085006Y-113874158D01*
X122095110Y-113944432D01*
X122082659Y-113983702D01*
X122040281Y-114066874D01*
X122038731Y-114076663D01*
X122038730Y-114076665D01*
X122036200Y-114092640D01*
X122024500Y-114166512D01*
X122024500Y-114733488D01*
X122027850Y-114754640D01*
X122038436Y-114821475D01*
X122040281Y-114833126D01*
X122101472Y-114953220D01*
X122142146Y-114993894D01*
X122176172Y-115056206D01*
X122171107Y-115127021D01*
X122127909Y-115184341D01*
X122110423Y-115197256D01*
X122110421Y-115197258D01*
X122102850Y-115202850D01*
X122097258Y-115210421D01*
X122027959Y-115304243D01*
X122027958Y-115304246D01*
X122022366Y-115311816D01*
X121977481Y-115439631D01*
X121974500Y-115471166D01*
X121974500Y-116128834D01*
X121977481Y-116160369D01*
X122022366Y-116288184D01*
X122027958Y-116295754D01*
X122027959Y-116295757D01*
X122068561Y-116350727D01*
X122102850Y-116397150D01*
X122110421Y-116402742D01*
X122110424Y-116402745D01*
X122198359Y-116467695D01*
X122241270Y-116524256D01*
X122249500Y-116569046D01*
X122249500Y-116735527D01*
X122247949Y-116755237D01*
X122244819Y-116775000D01*
X122246370Y-116784793D01*
X122246370Y-116794709D01*
X122245690Y-116794709D01*
X122246120Y-116809312D01*
X122242007Y-116851079D01*
X122215426Y-116916912D01*
X122157472Y-116957923D01*
X122086546Y-116961091D01*
X122049378Y-116945292D01*
X122006645Y-116918329D01*
X122006636Y-116918324D01*
X122001757Y-116915246D01*
X121813898Y-116840298D01*
X121808233Y-116839171D01*
X121808229Y-116839170D01*
X121655498Y-116808790D01*
X121628903Y-116803500D01*
X121565993Y-116770593D01*
X121547312Y-116747590D01*
X121546458Y-116746045D01*
X121405711Y-116547675D01*
X121256173Y-116380338D01*
X121251608Y-116374678D01*
X121250363Y-116373433D01*
X121244537Y-116365414D01*
X121228342Y-116353647D01*
X121213311Y-116340808D01*
X120413098Y-115540595D01*
X120379072Y-115478283D01*
X120384137Y-115407468D01*
X120426684Y-115350632D01*
X120493204Y-115325821D01*
X120502193Y-115325500D01*
X120678834Y-115325500D01*
X120696752Y-115323806D01*
X120702722Y-115323242D01*
X120702723Y-115323242D01*
X120710369Y-115322519D01*
X120838184Y-115277634D01*
X120845754Y-115272042D01*
X120845757Y-115272041D01*
X120939579Y-115202742D01*
X120947150Y-115197150D01*
X120982029Y-115149928D01*
X121022041Y-115095757D01*
X121022042Y-115095754D01*
X121027634Y-115088184D01*
X121072519Y-114960369D01*
X121075500Y-114928834D01*
X121075500Y-114271166D01*
X121072519Y-114239631D01*
X121027634Y-114111816D01*
X121022042Y-114104246D01*
X121022041Y-114104243D01*
X120947150Y-114002850D01*
X120949377Y-114001205D01*
X120922390Y-113951783D01*
X120927455Y-113880968D01*
X120948533Y-113848171D01*
X120947150Y-113847150D01*
X120995308Y-113781950D01*
X121051869Y-113739039D01*
X121122651Y-113733520D01*
X121166662Y-113752045D01*
G37*
%TD.AperFunction*%
%TA.AperFunction,Conductor*%
G36*
X127191165Y-114388310D02*
G01*
X127295139Y-114422797D01*
X127301975Y-114423497D01*
X127301978Y-114423498D01*
X127345031Y-114427909D01*
X127399600Y-114433500D01*
X128000400Y-114433500D01*
X128003646Y-114433163D01*
X128003650Y-114433163D01*
X128106166Y-114422526D01*
X128106365Y-114424448D01*
X128167713Y-114428930D01*
X128224484Y-114471563D01*
X128249193Y-114538121D01*
X128249500Y-114546918D01*
X128249500Y-114851838D01*
X128229498Y-114919959D01*
X128175842Y-114966452D01*
X128105568Y-114976556D01*
X128058229Y-114959614D01*
X127924992Y-114878923D01*
X127911243Y-114872715D01*
X127761356Y-114825744D01*
X127748306Y-114823131D01*
X127693414Y-114818087D01*
X127681876Y-114821475D01*
X127680671Y-114822865D01*
X127679000Y-114830548D01*
X127679000Y-115928000D01*
X127658998Y-115996121D01*
X127605342Y-116042614D01*
X127553000Y-116054000D01*
X127297000Y-116054000D01*
X127228879Y-116033998D01*
X127182386Y-115980342D01*
X127171000Y-115928000D01*
X127171000Y-114835116D01*
X127166525Y-114819877D01*
X127165135Y-114818672D01*
X127144217Y-114814122D01*
X127144284Y-114813812D01*
X127093370Y-114803813D01*
X127042160Y-114754640D01*
X127025500Y-114692024D01*
X127025500Y-114507904D01*
X127045502Y-114439783D01*
X127099158Y-114393290D01*
X127169432Y-114383186D01*
X127191165Y-114388310D01*
G37*
%TD.AperFunction*%
%TD*%
M02*
